<svg preserveAspectRatio="none" width="100%" height="100%" overflow="visible" style="display: block;" viewBox="0 0 66.316 90" fill="none" xmlns="http://www.w3.org/2000/svg">
<g id="Vector">
<path d="M19.9437 0.0212651C22.974 -0.158055 25.9628 0.8016 28.3352 2.71559C28.6676 2.55522 29.0063 2.38939 29.3508 2.25074C36.0303 -0.43695 44.1328 6.96475 40.8781 13.8828C39.8612 16.0443 38.341 17.5745 36.1125 18.3982L38.1008 24.1595C38.5472 25.451 39.2381 27.028 39.2244 28.3702C40.8565 28.74 41.176 29.1201 42.6241 29.8083C43.2364 30.1062 44.854 30.473 45.3069 30.8717C46.6217 32.0293 48.4369 33.3717 49.6716 34.5139C50.426 35.2116 52.3104 37.3619 52.5917 38.2538C53.1586 40.0521 53.0626 39.9465 54.2519 41.4584C54.712 42.0376 55.105 42.6682 55.4238 43.3378C56.2965 45.1359 56.2582 46.0658 56.3823 47.952C56.3996 48.218 56.8936 49.2397 57.014 49.5853C57.5261 51.0488 57.5347 52.3391 57.5261 53.8594C57.6826 54.0154 57.8896 54.1833 58.0598 54.3298C58.4204 53.9645 58.9367 53.5703 59.4755 53.5625C60.1815 53.5523 60.4613 54.2368 60.8926 54.6837C62.3321 55.0236 63.9418 54.7629 65.3943 54.6634C65.8061 54.9543 66.0015 55.1882 66.316 55.5757C66.1696 56.2871 65.7902 57.2555 65.5703 57.9647C64.9911 59.8316 64.1632 61.8808 63.6843 63.7527C66.6354 65.8375 64.4899 71.5561 61.189 70.6004C60.8861 71.5444 60.5623 72.7457 60.2024 73.6394C59.011 73.8566 57.3732 74.0454 56.1702 74.1686C56.2633 74.9566 56.334 75.7475 56.383 76.5399C54.8346 77.9606 49.2223 79.651 47.1921 80.2021C46.6952 82.0937 46.3116 83.5465 45.7144 85.425C46.6022 86.2144 47.878 87.7219 46.0974 88.5245C44.6197 89.1907 41.6375 88.8189 40.1302 88.2817C38.8645 87.6927 38.9453 86.2429 38.7816 84.9986L38.3287 81.7453C36.0692 81.9341 33.8032 82.023 31.5361 82.0121C30.4957 82.0157 29.249 82.0332 28.2289 81.9377C27.9578 83.1602 27.171 87.6388 26.6502 88.4975C26.1925 89.2527 24.9271 89.5683 24.1341 89.7381C22.9518 89.9904 21.0395 90.2593 19.9724 89.5114C19.6462 89.2833 19.4243 88.9494 19.3729 88.5485C19.26 87.6687 19.8824 86.9128 20.3828 86.2698C19.932 84.6844 19.4082 82.6127 19.0625 81.0229C17.1098 80.692 11.5469 79.6292 9.88285 78.8266C9.82313 78.0393 9.93311 76.6427 9.97718 75.8226C10.0812 73.8836 10.1674 71.8907 10.4549 69.9728C10.3932 69.8861 10.333 69.7986 10.2745 69.7104C8.89835 67.6591 8.77654 66.1801 9.22815 63.8096C8.67896 62.6324 8.64831 62.3357 8.63591 61.0352C7.91097 60.2043 7.47205 58.9573 7.49073 57.8432C7.49441 57.6236 7.65985 57.3461 7.76817 57.1541C7.53025 56.0189 6.7673 53.8695 7.07121 52.8132C7.63893 50.8399 7.46772 49.4516 7.45294 47.4486C7.44299 46.0957 8.03256 44.4453 8.91638 43.4329C9.20911 43.0977 9.55125 42.6593 9.78008 42.2742C10.0586 41.7551 10.0309 41.032 10.1987 40.427C10.7087 38.5886 11.9685 37.2065 13.3355 35.9583C12.9944 35.1245 12.6047 33.0094 12.3652 32.0086C11.9231 30.1608 11.4444 28.5597 10.8939 26.7431C10.4057 26.9098 9.94545 27.0389 9.43492 27.1247C7.29586 27.4758 5.10654 26.9508 3.35138 25.666C-0.602763 22.7639 -0.979369 16.6847 1.80688 12.8323C3.3014 10.7558 5.56061 9.37559 8.07425 9.00339C9.05283 3.91281 15.1052 0.349217 19.9437 0.0212651Z" fill="#592108"/>
<path d="M38.4376 29.5468C38.5133 29.4414 38.6006 29.2717 38.7232 29.2756C40.079 29.3189 41.1493 30.2502 42.2087 30.7501C43.2191 31.1218 44.122 31.2041 45.012 31.854C45.6163 32.2954 46.1702 32.9311 46.7436 33.3519C48.5429 34.6594 50.1663 36.1492 51.4263 38.005C51.9592 38.7908 52.0688 40.2027 52.5903 40.8685C53.8192 42.4374 55.0344 43.8095 55.3142 45.89C55.413 46.6239 55.3892 47.4315 55.5031 48.1663C55.5955 48.6677 56.0383 49.4118 56.2092 49.9709C56.6808 51.5125 56.6188 52.8947 56.5994 54.4734L55.2399 55.4367C54.6904 55.9818 51.9967 55.5059 51.2359 56.3291C50.9373 56.6518 50.6474 57.7516 50.506 58.2196C49.4992 58.7087 48.4823 59.1783 47.4575 59.628C46.7219 59.9996 42.8167 61.3217 42.1294 61.4908C40.5846 62.1418 38.8602 63.6419 37.5715 64.739C35.0624 63.9736 32.6565 62.9137 30.2832 62.2015C29.795 62.0805 29.2571 62.0033 28.7579 61.9216L24.5718 61.3895C23.062 60.0135 21.7136 58.4426 20.208 56.9687C18.9421 55.7295 17.6709 56.8431 17.363 58.2647C17.2248 58.9031 18.2531 59.8537 18.7017 60.3739C16.887 59.9626 15.1747 59.569 13.3798 59.0779C11.8994 58.6619 10.1464 58.1863 8.77812 57.4897C8.53292 56.2197 8.07936 54.873 7.9357 53.6217C7.85601 52.7401 8.37974 51.7308 8.43036 50.9002C8.57936 48.4574 7.85897 45.8397 9.78238 43.8714C10.0439 43.6037 10.4609 43.0813 10.6468 42.746C10.9647 42.1725 10.9227 41.3353 11.0875 40.7021C11.5482 38.9367 13.1139 37.4548 14.3943 36.2625C17.7512 36.5164 21.9281 35.6992 25.1618 34.8436C26.0398 34.6233 27.0287 34.4443 27.8882 34.1878C29.0186 33.8503 30.1441 33.4391 31.2766 33.0865C32.6046 32.9017 36.1824 31.0462 37.3573 30.358L38.4376 29.5468Z" fill="#F6C360"/>
<path d="M25.1618 34.8436C25.5051 35.2175 25.6814 35.4178 26.0788 35.7226C25.8235 35.9684 25.783 36.0765 25.4123 36.1525C22.6516 36.7177 19.6119 36.4895 16.8298 36.5057C15.5343 37.8348 14.0678 40.8986 13.1574 42.5693C12.9629 42.9263 12.6954 44.5036 12.8212 44.8672L12.6861 44.9224L12.8473 45.0174C12.7542 45.3348 12.1418 45.6834 11.868 46.0146C10.6204 47.5236 11.5381 49.0116 11.5576 50.6574C11.5611 50.9495 11.6078 51.4514 11.4663 51.6277C11.4677 51.6565 11.4691 51.6853 11.4705 51.7141L11.7997 51.9177L11.6901 52.0111C11.7381 53.5826 11.9774 56.0017 12.4251 57.5539C12.525 57.9004 13.1938 58.6478 13.3798 59.0779C11.8994 58.6619 10.1464 58.1863 8.77812 57.4897C8.53292 56.2197 8.07936 54.873 7.9357 53.6217C7.85601 52.7401 8.37974 51.7308 8.43036 50.9002C8.57936 48.4574 7.85897 45.8397 9.78238 43.8714C10.0439 43.6037 10.4609 43.0813 10.6468 42.746C10.9647 42.1725 10.9227 41.3353 11.0875 40.7021C11.5482 38.9367 13.1139 37.4548 14.3943 36.2625C17.7512 36.5164 21.9281 35.6992 25.1618 34.8436Z" fill="#EBA94A"/>
<path d="M12.6861 44.9224L12.8473 45.0174C12.7542 45.3348 12.1418 45.6834 11.868 46.0146C10.6204 47.5236 11.5381 49.0116 11.5576 50.6574C11.5611 50.9495 11.6078 51.4514 11.4663 51.6277C11.4677 51.6565 11.4691 51.6853 11.4705 51.7141C9.41184 49.8315 10.0771 45.9503 12.6861 44.9224Z" fill="#80431D"/>
<path d="M38.4376 29.5468C38.5133 29.4414 38.6006 29.2717 38.7232 29.2756C40.079 29.3189 41.1493 30.2502 42.2087 30.7501C43.2191 31.1218 44.122 31.2041 45.012 31.854C45.6163 32.2954 46.1702 32.9311 46.7436 33.3519C48.5429 34.6594 50.1663 36.1492 51.4263 38.005C51.9592 38.7908 52.0688 40.2027 52.5903 40.8685C53.8192 42.4374 55.0344 43.8095 55.3142 45.89C55.413 46.6239 55.3892 47.4315 55.5031 48.1663C55.5955 48.6677 56.0383 49.4118 56.2092 49.9709C56.6808 51.5125 56.6188 52.8947 56.5994 54.4734L55.2399 55.4367C55.1808 55.3834 55.1779 55.3548 55.1375 55.2782C55.6618 52.6408 54.7985 50.1602 54.4019 47.562C54.2714 46.7072 53.685 45.485 53.2876 44.704C53.0763 43.9949 53.0042 43.8919 52.4929 43.3583C52.2535 43.0308 51.8121 42.4711 51.6852 42.1223C50.3423 38.3124 46.4226 35.2322 43.5422 32.5976C43.8256 32.8567 38.0453 30.4008 37.7813 30.2822C38.0381 30.0432 38.3359 29.8911 38.4376 29.5468Z" fill="#F9D798"/>
<path d="M12.8212 44.8672C13.7387 44.6672 14.711 44.5861 15.5119 45.1503C17.1706 46.3188 17.5778 48.6274 16.4574 50.2799C15.8493 51.1844 14.909 51.8058 13.8454 52.0062C13.238 52.1196 12.3897 52.1118 11.7997 51.9177L11.4705 51.7141C11.4691 51.6853 11.4677 51.6565 11.4663 51.6277C11.6078 51.4514 11.5611 50.9495 11.5576 50.6574C11.5381 49.0116 10.6204 47.5236 11.868 46.0146C12.1418 45.6834 12.7542 45.3348 12.8473 45.0174L12.6861 44.9224L12.8212 44.8672Z" fill="#985122"/>
<path d="M25.1618 34.8436C26.0398 34.6233 27.0287 34.4443 27.8882 34.1878C29.0186 33.8503 30.1441 33.4391 31.2766 33.0865C31.1237 33.7464 30.9759 34.0819 30.6642 34.6849C29.6211 36.2194 27.6748 36.5819 26.0788 35.7226C25.6814 35.4178 25.5051 35.2175 25.1618 34.8436Z" fill="#985122"/>
<path d="M37.3573 30.358C37.6876 30.4227 38.0417 30.4983 38.3713 30.5527C37.0565 31.6712 35.3011 32.9434 33.7592 33.704C33.1448 34.0071 31.3143 34.664 30.6642 34.6849C30.9759 34.0819 31.1237 33.7464 31.2766 33.0865C32.6046 32.9017 36.1824 31.0462 37.3573 30.358Z" fill="#EBA94A"/>
<path d="M42.1294 61.4908C42.3703 59.8624 44.2295 58.3367 45.868 58.533C46.6628 58.6282 47.0075 59.029 47.4575 59.628C46.7219 59.9996 42.8167 61.3217 42.1294 61.4908Z" fill="#985122"/>
<path d="M53.2876 44.704C53.297 45.3959 53.328 46.076 52.7049 46.5223C52.0393 46.999 51.3909 46.5527 51.0116 45.9567C50.5543 45.2367 50.3704 43.8467 51.2272 43.3554C51.652 43.1154 52.0537 43.2181 52.4929 43.3583C53.0042 43.8919 53.0763 43.9949 53.2876 44.704Z" fill="#985122"/>
<path d="M28.7579 61.9216L29.0249 61.8414C29.0769 61.4697 28.9532 61.1941 29.2932 60.923C29.6749 60.6184 30.1672 60.6865 30.4199 61.1199C30.6894 61.5819 30.5565 61.7722 30.2832 62.2015C29.795 62.0805 29.2571 62.0033 28.7579 61.9216Z" fill="#EBA94A"/>
<path d="M39.9968 34.3876C41.7226 32.3994 45.2824 34.1124 45.405 36.8475C45.4469 37.6156 45.1779 38.368 44.6601 38.9317C44.6074 38.9895 44.6168 38.979 44.5786 39.0124C44.0362 39.5352 43.5335 39.6605 42.8015 39.6395C42.684 39.6358 42.5664 39.6299 42.4496 39.6215C42.2671 39.6386 42.0183 39.7186 41.8236 39.7304C40.8695 39.7879 39.7668 39.5169 39.0254 38.9064C38.4391 38.4222 38.0705 37.72 38.0027 36.958C37.878 35.6822 38.4924 34.6955 39.8108 34.5587L39.9968 34.3876Z" fill="#80431D"/>
<path d="M39.9968 34.3876C41.7226 32.3994 45.2824 34.1124 45.405 36.8475C45.4469 37.6156 45.1779 38.368 44.6601 38.9317C44.6074 38.9895 44.6168 38.979 44.5786 39.0124C44.386 38.8753 44.298 38.948 44.1667 38.9169C43.8141 38.8335 43.6013 38.3539 43.4254 37.9603C43.0547 37.1269 42.4972 36.2849 41.6505 35.8597C40.8947 35.4805 40.1014 35.8611 39.8475 34.8274C39.9211 34.6859 39.9384 34.6587 39.973 34.4998L39.9968 34.3876Z" fill="#985122"/>
<path d="M42.4496 39.6215C42.2671 39.6386 42.0183 39.7186 41.8236 39.7304C40.8695 39.7879 39.7668 39.5169 39.0254 38.9064C38.4391 38.4222 38.0705 37.72 38.0027 36.958C37.878 35.6822 38.4924 34.6955 39.8108 34.5587C38.7571 36.2881 39.3615 38.0542 41.0346 39.0783C41.4688 39.3467 41.9484 39.5309 42.4496 39.6215Z" fill="#EBA94A"/>
<path d="M41.7558 44.1923C42.3883 44.2302 42.8462 44.2842 43.3633 44.6909C45.4707 46.3494 45.0855 50.6368 42.1164 51.0415C38.1938 51.0167 37.9926 44.6096 41.7558 44.1923Z" fill="#592108"/>
<path d="M42.3385 45.3317C43.76 45.302 44.0975 46.9973 42.7885 47.6296C41.437 47.607 41.0375 46.0381 42.3385 45.3317Z" fill="#FEFEFE"/>
<path d="M40.9906 48.3643C41.2214 48.3142 41.4608 48.3934 41.6181 48.5716C41.7753 48.7498 41.8258 48.9997 41.75 49.2259C41.6743 49.452 41.4839 49.6197 41.2524 49.6648C40.899 49.7335 40.5565 49.5019 40.4851 49.1455C40.413 48.789 40.6387 48.4407 40.9906 48.3643Z" fill="#FEFEFE"/>
<path d="M25.4896 46.0072C29.2918 45.8378 29.9332 52.0885 26.2657 52.8228C22.5513 53.0955 21.7128 46.8438 25.4896 46.0072Z" fill="#592108"/>
<path d="M26.2527 47.159C27.7296 47.1162 28.0824 48.6855 26.889 49.4048C25.4719 49.5016 24.9909 47.9627 26.2527 47.159Z" fill="#FEFEFE"/>
<path d="M24.9627 50.1819C25.3116 50.117 25.6483 50.3443 25.7224 50.6949C25.7966 51.0456 25.5813 51.3923 25.2366 51.4772C25.0048 51.5342 24.7606 51.4595 24.599 51.282C24.4375 51.1045 24.3842 50.8522 24.4598 50.6235C24.5354 50.3948 24.728 50.2256 24.9627 50.1819Z" fill="#FEFEFE"/>
<path d="M17.8895 39.0477C19.3745 36.3007 24.5671 38.6906 21.1939 41.6205C20.4497 42.1716 19.9939 42.4388 19.0512 42.4555C18.2116 42.32 17.7316 41.8804 17.5704 41.0406C17.3903 40.53 17.6618 39.5376 17.8895 39.0477Z" fill="#924F22"/>
<path d="M17.5704 41.0406C17.3903 40.53 17.6618 39.5376 17.8895 39.0477C17.9587 39.046 18.3319 39.0379 18.3823 39.0757C19.0725 39.5936 19.761 40.3293 20.4065 40.91C20.6471 41.1264 20.8458 41.3513 20.9632 41.5776L21.1939 41.6205C20.4497 42.1716 19.9939 42.4388 19.0512 42.4555C18.2116 42.32 17.7316 41.8804 17.5704 41.0406Z" fill="#985122"/>
<path d="M17.5704 41.0406L17.66 41.0461L17.7246 41.122L17.796 41.0788C18.1646 41.507 18.8576 42.0026 19.3506 42.2928C19.2242 42.4151 19.1886 42.3671 19.0512 42.4555C18.2116 42.32 17.7316 41.8804 17.5704 41.0406Z" fill="#80431D"/>
<path d="M23.351 53.2231C26.2692 53.0796 26.6818 56.7116 23.6686 57.0408C23.2232 57.0832 22.6242 56.9749 22.2271 56.7492C21.7904 56.5062 21.4715 56.0925 21.3453 55.605C21.2293 55.1298 21.316 54.6271 21.5845 54.2197C22.0265 53.5474 22.6245 53.3603 23.351 53.2231Z" fill="#EBA94A"/>
<path d="M45.2673 50.6717C48.1239 50.7051 48.2119 53.9067 45.2312 54.4274C44.717 54.4557 44.2396 54.3822 43.8054 54.0788C43.4383 53.8225 43.1888 53.4269 43.1152 52.9821C42.8801 51.6325 44.104 50.816 45.2673 50.6717Z" fill="#EBA94A"/>
<path d="M36.4738 50.3235L36.7176 50.4007C37.1481 50.8797 36.8019 51.4826 36.4421 51.9006C35.9574 52.4591 35.2694 52.795 34.536 52.8315C33.6518 52.8736 33.02 52.5144 32.3962 51.9291C32.1691 51.6343 32.0038 51.2861 32.2094 50.9302C32.6421 50.8883 32.9205 51.4907 33.3071 51.7252C34.2742 52.312 35.2672 52.2371 35.9704 51.2907C36.1738 51.0166 36.2596 50.6892 36.4399 50.3805L36.4738 50.3235Z" fill="#592108"/>
<path d="M28.4661 54.2749C30.4246 54.1947 28.4997 56.512 27.381 56.757C26.6654 56.5615 26.3868 56.3447 26.4717 55.5529C26.538 54.9341 27.638 55.1944 27.8295 54.9757C28.0708 54.6998 28.0848 54.5557 28.4661 54.2749Z" fill="#EBA94A"/>
<path d="M51.039 49.5547C52.1871 49.496 52.9804 50.3762 51.882 51.1135C50.8991 51.1169 50.0105 50.3544 51.039 49.5547Z" fill="#EBA94A"/>
<path d="M36.8791 56.76C37.2765 56.7243 37.6284 57.0182 37.6681 57.4193C37.7085 57.8204 37.4214 58.1794 37.0255 58.2246C36.7652 58.2544 36.5084 58.1402 36.3541 57.9258C36.2005 57.7112 36.1723 57.4296 36.2805 57.1883C36.3894 56.947 36.618 56.7834 36.8791 56.76Z" fill="#EBA94A"/>
<path d="M39.7877 58.0671C40.0242 57.9643 40.2976 58.0017 40.4981 58.1645C40.6985 58.3273 40.7937 58.5887 40.7454 58.8441C40.6971 59.0994 40.5132 59.307 40.2673 59.3834C39.9146 59.4932 39.5381 59.305 39.4105 58.9548C39.2836 58.6046 39.4487 58.2148 39.7877 58.0671Z" fill="#EBA94A"/>
<path d="M10.6996 5.59003C12.7515 3.11928 16.7503 1.16447 19.7575 0.923625C23.4784 0.625559 26.6202 2.15197 29.3318 4.4636C29.3781 4.46447 29.4243 4.46535 29.4706 4.46629C29.4829 4.14505 29.0357 3.69048 28.8194 3.43229C33.4073 1.38884 38.0121 3.33585 40.1641 7.89992C40.9776 9.62518 40.8406 12.2086 39.8641 13.8516C39.4473 13.8735 37.8736 15.3505 37.0911 14.7016L37.0558 14.5633C37.1921 14.4036 37.1705 14.4902 37.1827 14.3151L36.9974 14.2855C36.52 14.4026 35.7851 14.3347 35.2824 14.2974C35.8197 13.8668 36.1132 13.609 36.5827 13.1076C36.887 12.674 37.0313 12.4966 37.2101 12.0039L37.1878 11.9007C36.7695 12.0738 36.2351 12.8294 35.6848 13.2141C33.8523 14.8228 29.8041 14.7984 27.8085 13.5456C28.179 13.0433 28.4882 12.4979 28.7295 11.9208C28.8697 11.5919 29.1663 10.8329 29.0338 10.497C28.7144 10.9509 28.6306 11.287 28.3802 11.7022C27.3196 13.7628 24.7552 15.2521 22.6013 15.9358C20.3651 16.6456 17.6584 16.4729 15.4297 15.79C14.7903 15.5941 13.5834 14.9907 13.1185 14.8856C13.2689 15.5796 14.8904 16.1957 15.509 16.4281L16.4418 16.7071C13.8249 20.963 10.3072 22.754 5.39545 21.5229L5.60503 21.8613C5.73218 22.5253 6.08917 22.6489 6.60741 23.0891C5.26333 23.4104 4.3979 23.5236 3.05504 23.0581C2.8045 22.9713 2.16769 22.6997 1.95681 22.6699C0.680883 20.9648 0.696965 17.5086 1.38534 15.5543C2.15074 13.3643 3.7507 11.5744 5.82896 10.5832C6.47248 10.2489 7.28562 10.0467 7.99044 9.90721C7.99304 10.1922 7.95734 10.6611 8.08355 10.8891C8.37931 10.832 8.42078 10.4316 8.51006 10.1112C9.00047 8.35048 9.48496 7.00003 10.6996 5.59003Z" fill="#FEFEFE"/>
<path d="M15.509 16.4281L16.4418 16.7071C13.8249 20.963 10.3072 22.754 5.39545 21.5229C5.9269 21.3449 6.97212 21.2871 7.58297 21.1841C10.4271 20.7045 13.8003 18.7815 15.509 16.4281Z" fill="#D7D8E8"/>
<path d="M13.1185 14.8856C14.1881 14.7591 15.9336 15.3318 17.2725 15.4259C20.371 15.677 23.5628 15.2573 26.2077 13.5018C26.8519 13.0743 27.7814 11.9967 28.3802 11.7022C27.3196 13.7628 24.7552 15.2521 22.6013 15.9358C20.3651 16.6456 17.6584 16.4729 15.4297 15.79C14.7903 15.5941 13.5834 14.9907 13.1185 14.8856Z" fill="#D7D8E8"/>
<path d="M7.99044 9.90721C7.99304 10.1922 7.95734 10.6611 8.08355 10.8891C8.37931 10.832 8.42078 10.4316 8.51006 10.1112C9.00047 8.35048 9.48496 7.00003 10.6996 5.59003L10.685 5.67175C10.5958 6.15344 10.389 6.6653 10.2393 7.14087C9.77719 8.60911 9.99276 9.62766 10.3835 11.0669C8.31635 11.1821 7.4502 11.2233 5.45163 11.8315C5.54402 11.4992 5.84338 10.7932 5.82896 10.5832C6.47248 10.2489 7.28562 10.0467 7.99044 9.90721Z" fill="#D7D8E8"/>
<path d="M29.0338 10.497C29.1803 10.2973 29.0882 10.3456 29.2977 10.3106C29.6121 10.7843 29.165 12.1755 29.0144 12.7229C30.5196 13.7428 32.4395 13.9228 34.1977 13.6037C34.6614 13.5196 35.3646 13.2434 35.6848 13.2141C33.8523 14.8228 29.8041 14.7984 27.8085 13.5456C28.179 13.0433 28.4882 12.4979 28.7295 11.9208C28.8697 11.5919 29.1663 10.8329 29.0338 10.497Z" fill="#D7D8E8"/>
<path d="M36.5827 13.1076C36.7933 13.9803 36.3837 13.7759 36.4825 14.2227C36.6757 14.2905 36.7955 14.2803 36.9974 14.2855C36.52 14.4026 35.7851 14.3347 35.2824 14.2974C35.8197 13.8668 36.1132 13.609 36.5827 13.1076Z" fill="#DEDDDE"/>
<path d="M27.3374 14.0858C28.6893 14.9596 30.6245 15.2959 32.218 15.2273C32.7972 15.2024 33.8068 14.7288 34.21 14.9586L34.3009 15.3231C35.0538 17.9842 35.8954 20.3276 36.7522 22.9402L35.2629 23.6716L34.9196 23.8723C34.7761 23.9972 34.7675 23.9553 34.5273 23.9718C34.0867 24.2599 32.9349 24.7163 32.4027 24.9381C32.2657 25.0046 32.1235 25.0459 31.9792 25.0935C31.8658 24.9539 31.1893 22.8944 31.052 22.523C30.9159 22.0998 30.8293 21.5755 30.4085 21.4206C30.5414 22.2123 31.3288 24.4828 31.6895 25.2286C30.7261 25.5525 29.5482 25.9107 28.6052 26.2594L27.9446 26.4963C27.759 25.8645 27.1329 23.9346 26.7818 23.4352L26.6414 23.4555C26.9156 24.5195 27.2558 25.5651 27.6598 26.586L24.9577 27.3203C24.2869 27.5431 23.6624 27.6836 22.9758 27.8468C22.7734 27.0366 22.3727 25.8917 22.1126 25.0705C21.8739 24.2602 21.6083 23.2609 21.2672 22.4922C21.1818 22.2998 21.1347 22.3284 20.9536 22.2746C21.1137 23.1267 21.5605 24.451 21.8178 25.3128C22.0436 26.0692 22.3329 27.1949 22.5971 27.8909C22.4204 27.9352 22.1053 28.0255 21.9383 28.0538C21.2849 28.2383 19.9916 28.5444 19.2999 28.6577C18.833 28.984 16.9069 29.455 16.3909 29.2729C16.0236 29.2996 15.5668 29.369 15.194 29.4152C14.8941 28.4142 13.9181 25.3874 13.4615 24.5566C13.5629 25.4874 14.4401 28.539 14.7411 29.4832C14.0961 29.5901 13.3428 29.6635 12.6852 29.7411C12.0343 27.3336 11.0676 24.779 10.2188 22.4322C13.2985 21.6749 15.654 19.7595 17.0227 16.8664C17.6212 17.0023 18.2298 17.0881 18.8423 17.1228C21.962 17.2999 25.0217 16.206 27.3374 14.0858Z" fill="#FEFEFE"/>
<path d="M27.3374 14.0858C28.6893 14.9596 30.6245 15.2959 32.218 15.2273C32.7972 15.2024 33.8068 14.7288 34.21 14.9586L34.3009 15.3231C31.7384 16.3284 29.8608 15.8805 27.3497 14.8662C26.9597 15.1336 26.5623 15.3962 26.1773 15.67C23.7679 17.3832 20.746 18.1129 17.81 17.8031C17.4628 18.9472 16.9548 19.5344 16.1532 20.4023C17.2187 22.6193 17.84 25.893 18.9172 27.9654C19.6374 28.0397 21.5295 27.9559 21.9383 28.0538C21.2849 28.2383 19.9916 28.5444 19.2999 28.6577C18.833 28.984 16.9069 29.455 16.3909 29.2729C16.0236 29.2996 15.5668 29.369 15.194 29.4152C14.8941 28.4142 13.9181 25.3874 13.4615 24.5566C13.5629 25.4874 14.4401 28.539 14.7411 29.4832C14.0961 29.5901 13.3428 29.6635 12.6852 29.7411C12.0343 27.3336 11.0676 24.779 10.2188 22.4322C13.2985 21.6749 15.654 19.7595 17.0227 16.8664C17.6212 17.0023 18.2298 17.0881 18.8423 17.1228C21.962 17.2999 25.0217 16.206 27.3374 14.0858Z" fill="#D7D8E8"/>
<path d="M14.2835 22.1599C14.9152 21.7117 15.3618 21.3266 15.9369 20.8119C16.2483 21.8558 16.7851 23.5355 17.206 24.6328C17.19 24.6765 17.1742 24.7202 17.1583 24.764C17.207 25.6274 17.862 27.5227 18.1475 28.4374C17.9683 28.5136 16.4679 28.6221 16.1837 28.6474C15.545 26.4614 14.7923 24.3791 14.2835 22.1599Z" fill="#FEFEFE"/>
<path d="M17.1583 24.764C17.7797 25.5138 18.3163 28.5093 18.7389 28.7383C18.9812 28.7235 19.062 28.7101 19.2999 28.6577C18.833 28.984 16.9069 29.455 16.3909 29.2729C16.751 29.0984 17.6082 29.1598 18.162 28.8595C18.26 28.6524 18.2321 28.7253 18.1475 28.4374C17.862 27.5227 17.207 25.6274 17.1583 24.764Z" fill="#5F311C"/>
<path d="M33.4102 20.5413C33.2587 19.8969 32.3854 16.9995 32.3681 16.6421C32.8686 17.3961 33.5169 19.5431 33.9504 20.4647C34.4552 21.5378 34.5684 22.5638 35.2629 23.6716L34.9196 23.8723C34.7761 23.9972 34.7675 23.9553 34.5273 23.9718C34.2439 23.3104 33.6806 21.3366 33.4102 20.5413Z" fill="#D7D8E8"/>
<path d="M33.4102 20.5413L33.4967 20.377C33.628 20.4095 33.659 20.3835 33.7419 20.5732C34.1891 21.6044 34.4429 22.7608 34.7978 23.8312C34.8381 23.8449 34.8792 23.8586 34.9196 23.8723C34.7761 23.9972 34.7675 23.9553 34.5273 23.9718C34.2439 23.3104 33.6806 21.3366 33.4102 20.5413Z" fill="#5F311C"/>
<path d="M25.0596 18.215C26.2821 20.028 27.6081 25.4346 28.6052 26.2594L27.9446 26.4963C27.759 25.8645 27.1329 23.9346 26.7818 23.4352L26.6414 23.4555C26.3535 21.8856 25.4916 19.8496 25.0596 18.215Z" fill="#D7D8E8"/>
<path d="M22.1521 24.2991C22.3931 24.9851 22.8936 26.747 23.5503 27.1084C23.8472 27.2719 24.507 27.0735 24.9577 27.3203C24.2869 27.5431 23.6624 27.6836 22.9758 27.8468C22.7734 27.0366 22.3727 25.8917 22.1126 25.0705C22.1351 24.794 22.1506 24.5785 22.1521 24.2991Z" fill="#D7D8E8"/>
<path d="M30.4085 21.4206C30.2245 20.7194 29.2611 17.6857 29.3438 17.2321C29.5634 17.6203 29.7154 18.1574 29.8894 18.5781C30.3114 19.5985 30.7305 20.9377 31.2049 21.9217C31.0931 22.1904 31.0789 22.2334 31.052 22.523C30.9159 22.0998 30.8293 21.5755 30.4085 21.4206Z" fill="#D7D8E8"/>
<path d="M20.9536 22.2746C20.834 21.7354 20.1261 19.6244 20.2397 19.3217C20.4771 19.5845 21.8978 23.6797 22.1521 24.2991C22.1506 24.5785 22.1351 24.794 22.1126 25.0705C21.8739 24.2602 21.6083 23.2609 21.2672 22.4922C21.1818 22.2998 21.1347 22.3284 20.9536 22.2746Z" fill="#D7D8E8"/>
<path d="M31.2049 21.9217C31.5614 22.9439 31.961 23.9503 32.4027 24.9381C32.2657 25.0046 32.1235 25.0459 31.9792 25.0935C31.8658 24.9539 31.1893 22.8944 31.052 22.523C31.0789 22.2334 31.0931 22.1904 31.2049 21.9217Z" fill="#D7D8E8"/>
<path d="M26.0418 62.5026C26.8179 62.5755 27.6209 62.7293 28.3901 62.7964C30.1176 62.9473 31.433 63.5166 33.0373 64.1289C34.0405 64.5123 35.0531 64.868 36.0743 65.1953C36.3187 65.2697 36.5755 65.3411 36.812 65.4344L34.9752 67.0665L34.2886 66.8646C33.6814 66.7137 30.7356 65.8944 30.3693 66.0781C30.4206 66.2669 30.4309 66.218 30.6583 66.3565C31.888 66.6882 33.082 67.0614 34.321 67.3727L34.5172 67.423C34.5403 68.0287 32.0298 68.8626 32.104 71.0407C32.2183 74.3939 32.6796 77.8017 32.8282 81.1279C32.0132 81.1293 29.3997 81.1825 28.6893 81.0571C27.5713 81.0848 25.7056 80.8837 24.5628 80.7831C21.3875 80.5032 18.2807 80.0045 15.1639 79.3281C13.9538 79.0467 11.8489 78.6101 10.7248 78.2274C10.8793 75.9145 10.9817 72.9389 10.9655 70.6274C13.1868 72.3638 14.9817 72.8157 17.847 72.3652C18.3586 72.2843 19.2906 71.9118 19.7413 71.9898C20.422 72.1072 21.3224 71.7952 21.9235 71.4628C22.7253 71.0196 22.9792 70.6493 23.2297 69.7862C24.5552 69.3853 25.3158 69.0208 26.2971 68.0295C27.1986 68.4136 28.6839 68.9137 29.635 69.0777L29.7348 68.9516C29.7333 68.4289 29.085 66.2873 28.7468 65.8025C28.6334 65.64 27.7262 64.7135 27.5291 64.5123C27.5147 64.4248 27.4983 64.3374 27.4799 64.2499C27.2894 63.3591 26.748 62.964 26.0418 62.5026Z" fill="#FEFEFE"/>
<path d="M26.2971 68.0295C27.1986 68.4136 28.6839 68.9137 29.635 69.0777C29.5181 69.2417 29.4431 69.4166 29.2355 69.4363C28.4198 69.5136 27.3019 69.179 26.497 68.9873C25.4436 69.7279 24.9192 69.9706 23.6993 70.4022C23.0508 71.8834 22.8509 72.2318 21.261 72.8806C19.2887 73.6853 17.7748 73.7167 15.7386 73.8916C15.5363 75.7023 15.3448 77.5145 15.1639 79.3281C13.9538 79.0467 11.8489 78.6101 10.7248 78.2274C10.8793 75.9145 10.9817 72.9389 10.9655 70.6274C13.1868 72.3638 14.9817 72.8157 17.847 72.3652C18.3586 72.2843 19.2906 71.9118 19.7413 71.9898C20.422 72.1072 21.3224 71.7952 21.9235 71.4628C22.7253 71.0196 22.9792 70.6493 23.2297 69.7862C24.5552 69.3853 25.3158 69.0208 26.2971 68.0295Z" fill="#D7D8E8"/>
<path d="M34.321 67.3727L34.5172 67.423C34.5403 68.0287 32.0298 68.8626 32.104 71.0407C32.2183 74.3939 32.6796 77.8017 32.8282 81.1279C32.0132 81.1293 29.3997 81.1825 28.6893 81.0571C29.3489 80.9755 31.4922 81.0674 32.2447 81.0827C31.7838 79.1233 31.9752 76.3868 31.739 74.3538C31.6959 73.0563 31.5411 71.6939 31.5642 70.3978C31.5833 69.3241 33.0979 68.3502 33.6792 67.6285L33.7275 67.5673C33.9215 67.4412 34.0499 67.5571 34.321 67.3727Z" fill="#D7D8E8"/>
<path d="M36.0743 65.1953C36.3187 65.2697 36.5755 65.3411 36.812 65.4344L34.9752 67.0665L34.2886 66.8646C34.7314 66.4207 35.8622 65.5613 36.0743 65.1953Z" fill="#D7D8E8"/>
<path d="M30.6583 66.3565C31.888 66.6882 33.082 67.0614 34.321 67.3727C34.0499 67.5571 33.9215 67.4412 33.7275 67.5673C33.6806 67.5454 33.6467 67.5207 33.5782 67.5112C32.9205 67.4186 31.1033 66.8048 30.6583 66.3565Z" fill="#DEDDDE"/>
<path d="M62.6949 56.1305C63.7233 56.0565 64.7099 55.9743 65.7267 55.795C64.8 58.06 63.8048 61.3477 63.0778 63.7039C62.7086 63.6937 60.775 63.9459 60.5421 64.1602C60.6438 64.2747 60.6474 64.2681 60.7022 64.4088C59.6247 65.5612 59.0976 66.4564 59.386 68.0987C59.4048 68.254 59.4134 68.3203 59.412 68.4792C59.7012 69.3182 60.0106 69.6856 60.6719 70.2498C60.3517 71.1894 60.0459 72.1334 59.7546 73.0825C55.545 73.6394 51.3383 74.2211 47.1352 74.8269L52.4071 57.2258C52.8787 57.207 55.0603 56.8728 55.3171 57.0226C55.506 57.1327 55.5695 57.5862 55.9258 57.7679C56.4393 57.8163 61.9181 57.187 62.3559 56.9956C62.5672 56.7516 62.609 56.453 62.6949 56.1305Z" fill="#FEFEFE"/>
<path d="M61.5157 60.4478C61.7797 60.6178 61.7688 60.5562 61.8979 60.7989C61.7912 61.0707 61.7948 61.0048 61.5381 61.2171C61.3066 61.2154 61.2215 61.1741 61.153 60.969C61.2388 60.6864 61.2943 60.6618 61.5157 60.4478Z" fill="#FEFEFE"/>
<path d="M37.1048 68.6308C39.1119 67.8283 41.0822 66.8544 43.0669 65.9964C43.4924 65.8127 43.8862 65.6159 44.3276 65.4672C44.4646 65.6159 44.4264 65.6589 44.4617 65.9097C44.8858 70.6653 45.48 74.8371 45.493 79.7006C41.8748 80.5338 37.0205 81.0951 33.2501 81.1155L32.813 73.9988C32.7813 73.4696 32.6948 71.2332 32.6147 70.8104C32.6219 70.7885 32.6277 70.7659 32.6363 70.7448C32.8455 70.236 36.4406 68.9056 37.1048 68.6308Z" fill="#FEFEFE"/>
<path d="M37.1048 68.6308C39.1119 67.8283 41.0822 66.8544 43.0669 65.9964C43.4924 65.8127 43.8862 65.6159 44.3276 65.4672C44.4646 65.6159 44.4264 65.6589 44.4617 65.9097C42.7373 66.4527 40.8658 67.2735 39.2518 68.0754C38.7145 68.3429 38.0337 68.5674 37.526 68.8211C37.3746 68.7934 37.2426 68.7059 37.1048 68.6308Z" fill="#DEDDDE"/>
<path d="M32.6147 70.8104C32.6219 70.7885 32.6277 70.7659 32.6363 70.7448C32.8455 70.236 36.4406 68.9056 37.1048 68.6308C37.2426 68.7059 37.3746 68.7934 37.526 68.8211C36.38 69.3299 33.7347 70.8126 32.6147 70.8104Z" fill="#DEDDDE"/>
<path d="M34.7927 70.5217C35.3848 70.3439 36.0086 70.6814 36.1897 71.2784C36.3707 71.8754 36.0411 72.5081 35.4526 72.6962C34.8562 72.8864 34.2215 72.5489 34.0383 71.9453C33.8552 71.341 34.1941 70.7018 34.7927 70.5217Z" fill="#592108"/>
<path d="M35.1778 75.9181C35.5608 75.781 35.987 75.8642 36.2921 76.136C36.5964 76.4079 36.7313 76.8249 36.6447 77.2258C36.5575 77.6267 36.2625 77.9489 35.8738 78.067C35.2918 78.2442 34.6766 77.9198 34.4876 77.3359C34.2987 76.7527 34.6052 76.1229 35.1778 75.9181Z" fill="#592108"/>
<path d="M42.1481 69.8059C42.7265 69.5836 43.3742 69.8781 43.5927 70.4634C43.8105 71.0495 43.517 71.7026 42.9371 71.9213C42.3594 72.1392 41.7169 71.844 41.4998 71.2616C41.282 70.6784 41.5719 70.0275 42.1481 69.8059Z" fill="#592108"/>
<path d="M42.4799 75.2715C43.0669 75.1031 43.6778 75.4486 43.8437 76.0427C44.0088 76.6361 43.6662 77.2535 43.0777 77.419C42.4921 77.5844 41.8835 77.2397 41.719 76.647C41.5539 76.0551 41.8943 75.4399 42.4799 75.2715Z" fill="#592108"/>
<path d="M16.8933 29.7778C23.7607 28.4896 30.6576 26.5672 36.8394 23.2232C37.3645 24.7408 38.0655 26.599 38.4967 28.1133C36.8366 30.6853 28.6498 33.0504 25.6875 33.7348L25.6256 33.7551C22.7273 34.6855 19.0676 35.2057 16.0324 35.3344C15.3959 35.3614 14.0763 35.5253 13.8929 34.7451C13.5434 33.2585 13.2355 31.7677 12.8273 30.2916C14.1894 30.1813 15.5461 30.0098 16.8933 29.7778Z" fill="#FEFEFE"/>
<path d="M12.8273 30.2916C14.1894 30.1813 15.5461 30.0098 16.8933 29.7778C17.2145 30.9294 17.5765 32.3132 17.9972 33.4196C19.438 33.6627 20.5641 33.8092 22.0232 33.7967C22.9642 33.7886 24.8118 33.6016 25.6875 33.7348L25.6256 33.7551C22.7273 34.6855 19.0676 35.2057 16.0324 35.3344C15.3959 35.3614 14.0763 35.5253 13.8929 34.7451C13.5434 33.2585 13.2355 31.7677 12.8273 30.2916Z" fill="#D7D8E8"/>
<path d="M10.3933 61.762C11.9146 62.3918 13.4578 62.9662 15.0199 63.4845C14.6217 63.5625 13.589 63.6959 13.3671 63.9882L13.4074 64.0866C14.2542 64.419 16.9076 63.8664 17.8841 63.7382C17.1275 66.2669 17.3649 69.2227 18.9835 71.376C14.9345 72.4177 10.9103 71.4446 9.7557 66.8741C9.35876 65.3032 9.81787 63.6004 10.3653 62.1272C10.3828 62.0813 10.3172 61.9296 10.2928 61.8874L10.3933 61.762Z" fill="#EFEFF4"/>
<path d="M19.9691 81.1577C22.3952 81.5543 24.8114 81.7533 27.2604 81.937C27.1686 82.2956 27.0923 82.6965 27.0156 83.0625C26.8015 84.0247 26.2468 87.079 25.9327 87.84C25.5087 88.8671 22.0667 89.2534 20.97 88.9618C19.331 88.5266 20.83 87.1431 21.3157 86.584C21.2046 85.5773 20.2774 82.2308 19.9691 81.1577Z" fill="#F6C360"/>
<path d="M19.9691 81.1577C22.3952 81.5543 24.8114 81.7533 27.2604 81.937C27.1686 82.2956 27.0923 82.6965 27.0156 83.0625C25.5839 82.6368 23.5365 82.2599 22.1278 82.9305C20.554 83.6792 21.9442 85.5533 21.3157 86.584C21.2046 85.5773 20.2774 82.2308 19.9691 81.1577Z" fill="#EBA94A"/>
<path d="M34.9182 68.1249C36.7183 66.4046 39.986 63.7965 42.1179 62.4027C42.2844 62.2941 44.4819 61.684 44.8757 61.5491C46.6852 60.9186 48.4607 60.1908 50.1937 59.3688C49.9182 60.3957 49.5576 61.512 49.249 62.5376C47.7496 63.2993 46.0498 64.0603 44.518 64.7864C42.5015 65.6859 40.4346 66.5395 38.4037 67.4069C38.0085 67.5753 35.7735 68.5587 35.4966 68.6228C35.2391 68.5667 35.2499 68.6891 34.9687 68.617L35.0343 68.5922C35.0502 68.4726 35.5089 68.1417 35.643 68.0273C35.2023 68.1672 35.2903 68.2226 34.9182 68.1249Z" fill="#FEFEFE"/>
<path d="M35.643 68.0273C36.1002 67.7022 39.9283 66.3244 40.612 66.0562C41.5265 65.6975 42.7763 65.1414 43.7283 64.8491C44.0117 64.7623 44.2266 64.7572 44.518 64.7864C42.5015 65.6859 40.4346 66.5395 38.4037 67.4069C38.0085 67.5753 35.7735 68.5587 35.4966 68.6228C35.2391 68.5667 35.2499 68.6891 34.9687 68.617L35.0343 68.5922C35.0502 68.4726 35.5089 68.1417 35.643 68.0273Z" fill="#D7D8E8"/>
<path d="M39.2424 81.6738C41.238 81.5317 44.2706 80.9748 46.1969 80.4638L45.982 81.2503C45.6034 82.7541 45.0553 84.2725 44.7141 85.6648C45.1865 86.1342 46.2769 86.869 45.9099 87.5936C45.5911 87.8494 45.1252 87.8968 44.7199 87.9078C43.6605 88.1337 41.287 87.7846 40.2644 87.3297C39.8894 87.1628 39.7422 85.2602 39.6795 84.7791C39.5389 83.7433 39.3932 82.7082 39.2424 81.6738Z" fill="#F6C360"/>
<path d="M39.2424 81.6738C41.238 81.5317 44.2706 80.9748 46.1969 80.4638L45.982 81.2503L45.863 81.157C44.6997 81.3699 41.3339 82.3313 40.9315 83.3511C39.7624 86.315 41.833 87.8064 44.2764 87.8903L44.7199 87.9078C43.6605 88.1337 41.287 87.7846 40.2644 87.3297C39.8894 87.1628 39.7422 85.2602 39.6795 84.7791C39.5389 83.7433 39.3932 82.7082 39.2424 81.6738Z" fill="#EBA94A"/>
<path d="M55.1389 74.3705L55.2846 74.3771C55.4116 74.5914 55.4815 75.7905 55.5197 76.1404C52.979 77.4525 50.3791 78.3652 47.6357 79.1553C47.3003 79.2516 46.5748 79.5052 46.2712 79.4914L46.212 79.3791C46.2149 77.8644 46.1399 76.3496 45.9863 74.8429C46.238 75.0579 46.4911 75.2708 46.745 75.4829C47.7568 75.4275 49.0434 75.2176 50.061 75.0754L55.1389 74.3705Z" fill="#FEFEFE"/>
<path d="M21.4859 64.2069C22.9795 62.7636 26.7399 62.1797 26.838 65.2179C26.0695 67.9121 24.6865 68.7176 22.0005 69.2191C21.8226 68.7664 21.6428 68.3458 21.5684 67.8625C21.2623 66.7144 21.2893 65.3724 21.4859 64.2069Z" fill="#985122"/>
<path d="M21.5684 67.8625C23.3323 68.0367 24.4556 67.5287 25.5962 66.2137C25.9662 65.7872 26.3166 65.4395 26.838 65.2179C26.0695 67.9121 24.6865 68.7176 22.0005 69.2191C21.8226 68.7664 21.6428 68.3458 21.5684 67.8625Z" fill="#80431D"/>
<path d="M8.28223 58.2243C10.1537 59.0031 11.3255 59.4491 13.257 60.0083C14.5083 60.3301 15.765 60.6304 17.0265 60.9088C17.9151 61.1043 19.0891 61.2844 19.9245 61.5951C20.156 61.6811 20.8364 62.4312 21.0398 62.6564C20.2645 62.663 19.7904 62.6863 19.0128 62.8241C18.7365 62.8729 17.8036 63.0442 17.5666 63.0508C17.3531 63.096 16.5402 63.2359 16.3821 63.1929C14.5078 62.6856 10.4358 61.2809 8.95042 60.3244C8.66887 59.6895 8.45251 58.8977 8.28223 58.2243Z" fill="#D7D8E8"/>
<path d="M13.257 60.0083C14.5083 60.3301 15.765 60.6304 17.0265 60.9088C17.9151 61.1043 19.0891 61.2844 19.9245 61.5951C20.156 61.6811 20.8364 62.4312 21.0398 62.6564C20.2645 62.663 19.7904 62.6863 19.0128 62.8241C18.7365 62.8729 17.8036 63.0442 17.5666 63.0508C16.6156 62.472 12.7378 61.6359 13.257 60.0083Z" fill="#FEFEFE"/>
<path d="M5.60503 21.8613C6.81375 22.6274 7.90419 22.6247 9.30719 22.5863C8.48301 23.4962 7.79139 23.5969 7.30524 24.1128C7.81541 24.3557 9.22116 23.3293 9.59358 23.006C9.94891 23.9654 10.2522 24.9523 10.5624 25.9282C8.41075 26.5389 6.64102 26.4847 4.6108 25.3739C3.63971 24.8425 2.4222 23.6925 1.95681 22.6699C2.16769 22.6997 2.8045 22.9713 3.05504 23.0581C4.3979 23.5236 5.26333 23.4104 6.60741 23.0891C6.08917 22.6489 5.73218 22.5253 5.60503 21.8613Z" fill="#D7D8E8"/>
<path d="M48.9576 63.3387C48.9475 63.6536 48.2371 65.9702 48.0915 66.4476C47.3602 68.8517 46.6808 71.3177 45.9055 73.7043C45.8803 73.3158 45.8471 72.925 45.8176 72.5372C45.5832 70.1062 45.2283 67.6876 44.7545 65.2923C46.1601 64.6515 47.5614 63.9998 48.9576 63.3387Z" fill="#FEFEFE"/>
<path d="M61.7249 64.7303C64.3875 63.3438 64.6652 66.3828 63.9865 68.1614C63.7478 68.7875 63.4824 69.0799 62.9905 69.5238C60.5854 71.3294 58.5538 66.428 61.7249 64.7303Z" fill="#985122"/>
<path d="M62.9905 69.5238C60.5854 71.3294 58.5538 66.428 61.7249 64.7303C61.4912 65.067 61.2265 65.2084 61.0224 65.4577C60.7058 65.8448 60.6618 66.8544 60.7332 67.3413C60.8421 68.0506 61.2294 68.6855 61.8078 69.101C62.2737 69.4363 62.446 69.4655 62.9905 69.5238Z" fill="#80431D"/>
<path d="M18.617 63.58C19.3568 63.4641 20.1558 63.4079 20.9068 63.3416C20.3154 65.3477 20.3298 66.5869 20.9485 68.5966C21.2744 69.5304 21.4 69.8212 21.9852 70.6187C21.2348 70.9707 20.7582 71.1756 19.93 71.3622C19.3651 70.7178 19.0069 70.1303 18.7133 69.3131C18.1051 67.1985 17.9867 65.6954 18.617 63.58Z" fill="#FEFEFE"/>
<path d="M20.9485 68.5966C21.2744 69.5304 21.4 69.8212 21.9852 70.6187C21.2348 70.9707 20.7582 71.1756 19.93 71.3622C19.3651 70.7178 19.0069 70.1303 18.7133 69.3131C19.3748 69.1775 20.32 68.8444 20.9485 68.5966Z" fill="#D7D8E8"/>
<path d="M20.7091 58.7541C20.9278 58.6423 20.9178 58.6 21.1149 58.6264C22.1877 59.7182 23.5543 61.0388 24.5495 62.1651L24.5279 62.2635C24.3116 62.3233 24.2713 62.3014 24.0425 62.2599L23.7214 62.3444C23.4942 62.3896 22.9042 62.5223 22.7011 62.5376L22.4461 62.7235C22.2138 62.8153 22.1934 62.8292 21.9489 62.8437C21.5338 62.4552 19.5283 60.5175 19.317 60.1414C19.4807 59.6477 20.2173 58.9395 20.7091 58.7541Z" fill="#5F311C"/>
<path d="M20.4759 58.9573C21.5068 60.1039 22.7024 61.1844 23.7214 62.3444C23.4942 62.3896 22.9042 62.5223 22.7011 62.5376C21.8439 61.6067 20.7228 60.5145 19.8139 59.6312L20.4759 58.9573Z" fill="#F6C360"/>
<path d="M20.7091 58.7541C20.9278 58.6423 20.9178 58.6 21.1149 58.6264C22.1877 59.7182 23.5543 61.0388 24.5495 62.1651L24.5279 62.2635C24.3116 62.3233 24.2713 62.3014 24.0425 62.2599C23.5801 61.7379 20.8241 59.0612 20.7091 58.7541Z" fill="#F6C360"/>
<path d="M19.317 60.1414L19.6292 59.9041C19.8263 59.9828 22.1303 62.4013 22.4461 62.7235C22.2138 62.8153 22.1934 62.8292 21.9489 62.8437C21.5338 62.4552 19.5283 60.5175 19.317 60.1414Z" fill="#EBA94A"/>
<path d="M55.1267 56.2966C55.2832 56.273 55.2269 56.2778 55.3892 56.3155L55.4101 56.4166C55.1757 56.544 52.5765 56.7923 52.0616 56.8727C51.7587 57.9236 51.3282 59.139 50.9993 60.213C50.1497 63.0048 49.3197 65.8025 48.509 68.6061C47.9177 70.5895 47.239 72.6874 46.7162 74.6789C46.6116 74.6162 46.4818 74.5127 46.3808 74.4376C46.3173 74.2095 47.0941 71.8695 47.2203 71.4628C48.2076 68.2343 49.1718 64.9985 50.1122 61.7562C50.488 60.4743 51.2496 57.6528 51.7176 56.58C52.8557 56.5055 53.9922 56.411 55.1267 56.2966Z" fill="#DEDDDE"/>
<path d="M37.0558 14.5633L37.0911 14.7016C37.8736 15.3505 39.4473 13.8735 39.8641 13.8516C39.1703 15.4013 37.4784 17.058 35.8348 17.5398C35.4742 16.6104 35.1418 15.6699 34.8381 14.7197C35.6949 14.8406 36.2235 14.8695 37.0558 14.5633Z" fill="#D7D8E8"/>
<path d="M56.5164 56.3688C58.4103 56.0717 60.4534 55.8967 62.428 55.5929L62.1525 56.6665C61.1703 56.7088 59.8736 56.8924 58.8747 57.0105C58.2934 57.0785 57.26 57.1589 56.7422 57.2853C56.5943 57.2902 56.5474 57.2796 56.3996 57.2572C56.2691 56.9854 56.4205 56.6866 56.5164 56.3688Z" fill="#AEADB0"/>
<path d="M56.7422 57.2853C56.7494 57.0983 56.7385 57.037 56.8294 56.8708C57.4273 56.4227 58.1773 56.9254 58.8747 57.0105C58.2934 57.0785 57.26 57.1589 56.7422 57.2853Z" fill="#96969A"/>
<path d="M27.4493 65.6123L27.5621 65.3316C27.8926 65.2405 28.074 65.7078 28.338 65.9184L28.4794 65.9614C28.5053 66.0766 28.5301 66.191 28.5591 66.3048C28.7273 66.7946 28.9156 67.3129 29.0657 67.8057C28.7408 68.0098 28.6897 68.0448 28.4227 68.3298C27.9354 68.1541 27.4466 67.9828 26.9562 67.8166L26.6846 67.6992L26.6508 67.6001C27.2501 67.0986 27.2882 66.7917 27.4166 66.0212C27.448 65.8331 27.3339 65.8915 27.4493 65.6123Z" fill="#F9D798"/>
<path d="M27.4493 65.6123L27.5621 65.3316C27.8926 65.2405 28.074 65.7078 28.338 65.9184L28.4794 65.9614C28.5053 66.0766 28.5301 66.191 28.5591 66.3048C28.2754 66.4403 28.2685 66.4272 28.1156 66.6751C27.7842 67.2101 27.3173 67.2961 26.9562 67.8166L26.6846 67.6992L26.6508 67.6001C27.2501 67.0986 27.2882 66.7917 27.4166 66.0212C27.448 65.8331 27.3339 65.8915 27.4493 65.6123Z" fill="#592108"/>
<path d="M27.4493 65.6123L27.5621 65.3316C27.8926 65.2405 28.074 65.7078 28.338 65.9184C28.297 66.1327 28.2167 66.1546 28.0428 66.1903C27.7341 66.0708 27.5969 65.9075 27.4493 65.6123Z" fill="#EBA94A"/>
<path d="M58.9165 54.1684C59.9478 53.952 60.2486 54.2371 60.6193 55.2273C61.2828 55.2548 61.6426 54.9507 62.1338 55.275L62.1215 55.3604C61.5626 55.4662 56.4977 56.0259 56.2633 55.9506L56.158 55.8184C56.5157 55.4357 58.1333 55.8145 58.5747 55.477C58.6836 55.3935 58.7737 54.964 58.8105 54.8146L58.5848 54.7059L58.9973 54.2812L58.9165 54.1684Z" fill="#AEADB0"/>
<path d="M58.9973 54.2812C59.593 54.1224 60.25 54.5596 59.9918 55.2267C59.6868 55.5298 59.3853 55.6284 59.0348 55.3492C58.9021 55.0924 58.9086 55.0427 58.9108 54.75L58.8105 54.8146L58.5848 54.7059L58.9973 54.2812Z" fill="var(--fill-0, #461A0D)"/>
<path d="M19.056 56.887C19.5918 56.8258 19.8812 57.2568 20.2138 57.6327C19.9277 57.8326 19.5925 58.0514 19.3399 58.2869L19.0619 58.5809C18.9233 58.7693 18.5829 59.1384 18.4171 59.33C18.0746 58.9619 17.9687 58.7949 17.7362 58.3555C17.92 57.896 17.9614 57.772 18.2573 57.3821L18.3238 57.3276C18.6289 57.0735 18.6712 57.0135 19.056 56.887Z" fill="#FDD2C3"/>
<path d="M18.2573 57.3821C18.2166 57.7392 18.1573 57.7745 18.3907 58.1049C18.5033 58.2641 18.8761 58.5261 19.0619 58.5809C18.9233 58.7693 18.5829 59.1384 18.4171 59.33C18.0746 58.9619 17.9687 58.7949 17.7362 58.3555C17.92 57.896 17.9614 57.772 18.2573 57.3821Z" fill="#E79E8B"/>
<path d="M18.2573 57.3821L18.3238 57.3276C18.6289 57.0735 18.6712 57.0135 19.056 56.887C18.4741 57.5094 18.6471 57.6041 19.1885 58.1946C19.2261 58.2356 19.2901 58.2627 19.3399 58.2869L19.0619 58.5809C18.8761 58.5261 18.5033 58.2641 18.3907 58.1049C18.1573 57.7745 18.2166 57.7392 18.2573 57.3821Z" fill="#F9C3B3"/>
<path d="M34.9182 68.1249C35.2903 68.2226 35.2023 68.1672 35.643 68.0273C35.5089 68.1417 35.0502 68.4726 35.0343 68.5922L34.9687 68.617C35.2499 68.6891 35.2391 68.5667 35.4966 68.6228C34.916 68.9457 33.8472 69.4079 33.2097 69.7002C33.7563 69.1506 34.3268 68.625 34.9182 68.1249Z" fill="#DEDDDE"/>
<path d="M19.8017 59.0472C19.5282 59.3398 19.1692 59.8863 18.775 59.861C18.7277 59.4684 19.3268 58.8614 19.5726 58.5951L19.8017 59.0472Z" fill="#AEADB0"/>
<path d="M65.0762 55.2026C65.3431 55.2043 65.2378 55.1569 65.4174 55.3097C65.2472 55.474 63.4233 55.6152 63.0821 55.6494C62.9112 55.6838 62.9761 55.677 62.7958 55.6409L62.7893 55.5228C62.9985 55.3521 64.7084 55.2381 65.0762 55.2026Z" fill="#DEDDDE"/>
<path d="M9.51959 61.2859C9.81419 61.4383 10.1056 61.5965 10.3933 61.762L10.2928 61.8874C9.98908 62.1607 9.8716 62.3495 9.63685 62.6834C9.57115 62.1928 9.54714 61.778 9.51959 61.2859Z" fill="#DEDDDE"/>
<path d="M19.5726 58.5951C19.8498 58.3644 20.1219 58.1006 20.4483 57.9675C20.6401 58.0211 20.583 58.0094 20.7366 58.1953C20.6574 58.4047 20.0405 58.7959 19.8017 59.0472L19.5726 58.5951Z" fill="#DEDDDE"/>
<path d="M55.8811 55.9401C56.3015 56.2552 56.1263 56.6861 56.0238 57.1268L55.9243 57.1558L55.8378 57.0975C55.7837 56.7614 55.8486 56.2942 55.8811 55.9401Z" fill="#AEADB0"/>
<path d="M58.9165 54.1684L58.9973 54.2812L58.5848 54.7059C58.4716 54.9244 58.4232 55.0746 58.2242 55.2047L58.2033 55.0655C58.4269 54.4758 58.3951 54.4194 58.9165 54.1684Z" fill="#AEADB0"/>
</g>
</svg>
