<svg preserveAspectRatio="none" width="100%" height="100%" overflow="visible" style="display: block;" viewBox="0 0 133.124 102.989" fill="none" xmlns="http://www.w3.org/2000/svg">
<g id="Vector">
<path d="M58.442 0.025874C59.338 0.123073 61.4999 -0.0132549 62.5946 0.00106666L68.3872 0.0247013C70.0777 0.0466924 71.9302 0.125968 73.603 0.0858204C74.408 0.128942 75.7687 0.223402 76.5307 0.199532C78.1172 0.236158 79.703 0.301975 81.2864 0.396983C82.7604 0.55272 84.8971 0.661268 86.404 0.731702C87.8342 0.837039 89.341 1.03269 90.7721 1.19954L90.9737 1.20635C93.4277 1.54021 95.72 1.60023 98.1733 2.12324C108.197 4.26005 118.311 9.45276 124.425 17.9452C132.662 29.3868 134.15 45.729 132.56 59.4006C131.958 64.5759 130.221 70.0972 127.76 74.6589C127.333 75.4345 127.076 76.25 126.568 76.9825C126.004 77.7056 125.571 78.5125 125.027 79.2427C124.457 80.0065 123.723 80.7108 123.116 81.4386C122.866 81.6718 122.776 81.772 122.567 82.042C121.882 82.7025 121.267 83.4092 120.59 84.0674C119.249 85.3735 117.805 86.34 116.168 87.2259L115.589 87.582L114.974 88.0312C115.002 88.4085 115.046 89.2983 115.125 89.6277C115.144 89.8406 115.151 90.0402 115.208 90.246L115.263 90.7273L115.56 92.316C116.212 94.8187 117.206 97.2894 118.848 99.3453C119.33 99.9487 120.377 100.745 120.637 101.543C120.683 101.688 120.589 101.982 120.541 102.14C119.731 102.742 119.099 102.777 118.1 102.912C118.042 102.919 117.776 102.951 117.738 102.962C117.01 102.977 115.975 103.013 115.263 102.965C110.211 102.624 104.534 100.376 100.579 97.2041C100.049 96.7791 99.2268 96.1531 98.7861 95.6639C98.2835 95.2898 97.2159 94.0244 96.7142 93.4891C96.6134 93.3467 96.4539 93.2347 96.3156 93.1228C96.1429 93.0454 93.3574 93.5619 92.9026 93.6425C90.8432 94.0651 88.6134 94.6254 86.5454 94.9283C84.7713 95.1881 82.8479 95.5896 81.0988 95.8017C80.1055 95.9441 79.1168 96.1155 78.1344 96.3158L78.0289 96.3323C76.8558 96.4442 74.2196 96.8425 73.0739 97.1016C71.4354 97.2816 69.6708 97.633 68.0303 97.8967C65.6453 98.2583 63.2577 98.601 60.8675 98.925C51.3784 100.154 38.9798 100.412 29.7961 97.4616C27.8761 96.8449 25.7625 95.7477 23.964 94.8344C23.4215 94.5589 22.521 94.0158 22.0621 93.8123L21.9732 93.7732C21.691 93.5517 20.3745 92.8129 19.9193 92.5101L18.7912 91.7196C18.5076 91.4872 18.2222 91.2571 17.935 91.0286L17.3339 90.5849C17.1216 90.3845 17.0443 90.3289 16.7978 90.1709C16.3049 89.6833 15.8059 89.2028 15.301 88.7277C14.913 88.3208 14.5927 87.9765 14.1589 87.6133C13.9558 87.3864 13.6377 87.0882 13.4104 86.8785C12.4457 85.9902 11.7099 84.886 10.8164 83.9453C8.2147 80.3547 6.09804 76.6108 4.40473 72.499C3.31768 69.8593 2.76629 67.4137 2.11745 64.6706C0.550078 58.046 0.107706 51.4462 0.00644059 44.6438C-0.086087 37.7661 0.807529 30.4267 3.38848 24.0231C4.52556 21.2019 7.46262 16.4821 9.62962 14.2592C10.0397 13.8993 10.7454 13.1563 11.1128 12.7543C11.2806 12.6592 11.6724 12.2769 11.8274 12.1318C12.7374 11.2798 13.6963 10.5456 14.6923 9.79624C15.5748 9.32457 16.5454 8.35101 17.6154 7.76578C22.6493 5.01268 28.142 2.83447 33.798 1.7825C36.0278 1.3678 38.8642 1.16698 41.1425 0.965464C43.6031 0.642016 46.0795 0.692572 48.511 0.463896C51.8354 0.151326 55.1502 0.273489 58.442 0.025874Z" fill="#FED16A"/>
<path d="M17.935 91.0286C18.3075 91.0223 18.7398 91.5459 19.4027 91.8073L19.0363 91.5655C20.2133 92.1015 21.2619 92.9327 22.3855 93.5016C24.9982 94.8234 28.0853 96.4426 30.8543 97.3332C33.0279 97.9562 35.1846 98.5455 37.4383 98.7951C38.1199 98.9023 39.036 98.7333 39.6924 98.8389C41.2984 99.098 42.7202 99.3797 44.372 99.3946C46.8881 99.4181 49.4842 99.4321 51.9999 99.332C53.4885 99.2733 55.0483 98.8992 56.5451 98.8217C57.9042 98.6323 59.55 98.7325 60.8501 98.479C63.7974 97.903 66.7738 97.5735 69.7268 97.1157L78.2384 95.7101C82.6353 95.0097 87.0183 94.4212 91.3793 93.4781C92.4688 93.2426 93.96 93.1948 95.119 93.0454L94.883 93.1048C95.3597 93.0305 95.8654 92.9421 96.3421 92.8951C96.6946 93.1995 98.7196 95.3572 98.7861 95.6639C98.2835 95.2898 97.2159 94.0244 96.7142 93.4891C96.6134 93.3467 96.4539 93.2347 96.3156 93.1228C96.1429 93.0454 93.3574 93.5619 92.9026 93.6425C90.8432 94.0651 88.6134 94.6254 86.5454 94.9283C84.7713 95.1881 82.8479 95.5896 81.0988 95.8017C80.1055 95.9441 79.1168 96.1155 78.1344 96.3158L78.0289 96.3323C76.8558 96.4442 74.2196 96.8425 73.0739 97.1016C71.4354 97.2816 69.6708 97.633 68.0303 97.8967C65.6453 98.2583 63.2577 98.601 60.8675 98.925C51.3784 100.154 38.9798 100.412 29.7961 97.4616C27.8761 96.8449 25.7625 95.7477 23.964 94.8344C23.4215 94.5589 22.521 94.0158 22.0621 93.8123L21.9732 93.7732C21.691 93.5517 20.3745 92.8129 19.9193 92.5101L18.7912 91.7196C18.5076 91.4872 18.2222 91.2571 17.935 91.0286Z" fill="#FED16A"/>
<path d="M63.469 1.03966C71.3242 1.02666 79.1786 1.23695 87.0214 1.67035C90.8995 1.91069 96.2843 2.55125 99.9068 3.49193C110.645 6.28041 120.745 12.3244 126.076 22.3693C126.934 23.9863 128.691 28.4834 129.176 30.3086C133.631 47.0902 133.721 69.9908 119.689 82.4537C117.685 84.2364 115.22 85.2483 113.286 86.9536C113.414 91.6257 114.423 95.3658 117.233 99.2217C117.796 99.9941 118.768 100.647 119.413 101.532L119.474 101.616C112.356 101.994 104.519 97.8889 99.3073 93.3091C98.7235 92.7957 98.1889 92.2205 97.577 91.7361L97.5067 91.6805C96.8994 91.6766 96.5383 91.7392 95.9506 91.8386C91.4997 92.5883 86.9831 93.0759 82.5259 93.7528C80.8089 94.0307 78.923 94.2521 77.1833 94.4963C74.1212 94.9408 71.0563 95.3658 67.9887 95.7712C61.9479 96.5491 56.3254 97.2362 50.1964 97.4005C43.745 97.5946 37.1823 96.8691 31.0161 94.9126C29.4708 94.4227 27.0621 93.4547 25.5624 92.7511C22.3329 91.236 18.8733 88.6824 16.2622 86.2555C14.0279 84.1785 11.8812 81.4707 9.97155 79.0838C6.88482 74.4007 4.36698 69.0031 3.20427 63.4874C2.06665 58.0909 1.62179 52.2301 1.33822 46.7283C1.24112 44.8443 1.3092 42.6049 1.35141 40.7193C1.40954 38.122 1.83992 35.3485 2.17411 32.775C2.71049 28.1839 4.33822 23.8752 6.78627 19.9624C7.83245 18.4123 9.04744 16.2736 10.3631 14.9846C13.7485 11.6679 17.1386 8.63878 21.584 6.82925C24.1359 5.79058 26.9446 4.50915 29.6191 3.8045C33.7382 2.71919 38.0288 2.09397 42.267 1.71543C44.3753 1.53958 46.8111 1.54435 48.9411 1.46108C53.7812 1.24368 58.6244 1.1032 63.469 1.03966Z" fill="#FEFAF4"/>
</g>
</svg>
