<svg preserveAspectRatio="none" width="100%" height="100%" overflow="visible" style="display: block;" viewBox="0 0 15 15" fill="none" xmlns="http://www.w3.org/2000/svg">
<g id="Group">
<path id="Vector" d="M7.5 0L8.33973 0.0471428L9.16902 0.188036L9.97714 0.421071L10.7542 0.7425L11.4903 1.14964L12.176 1.63634L12.8033 2.1967L13.3639 2.82375L13.8504 3.50973L14.2575 4.2458L14.5792 5.02286L14.8122 5.83098L14.9529 6.66027L15 7.5L14.9529 8.33973L14.812 9.16902L14.5792 9.97714L14.2572 10.7539L13.8504 11.4903L13.3639 12.176L12.8033 12.8033L12.1763 13.3637L11.4905 13.8504L10.7542 14.2575L9.97714 14.5789L9.16902 14.812L8.33973 14.9529L7.5 15L6.66027 14.9529L5.83125 14.812L5.02286 14.5789L4.24607 14.2575L3.50973 13.8504L2.82402 13.3637L2.1967 12.8033L1.63634 12.1762L1.14964 11.4903L0.742768 10.7542L0.421071 9.97714L0.188036 9.16902L0.0471428 8.33973L0 7.5L0.0471428 6.66027L0.188036 5.83098L0.421071 5.02286L0.742768 4.24607L1.14964 3.50973L1.63634 2.82402L2.1967 2.1967L2.82402 1.63634L3.50973 1.14964L4.24607 0.7425L5.02286 0.421071L5.83125 0.188036L6.66027 0.0471428L7.5 0Z" fill="var(--fill-0, #2F80ED)"/>
<path id="Vector_2" d="M7.50026 3.21481L7.98026 3.24159L8.45409 3.32222L8.91588 3.45534L9.35972 3.63909L9.78026 3.87159L10.1724 4.1499L10.5308 4.46999L10.8511 4.82838L11.1292 5.22026L11.3617 5.64079L11.5454 6.0849L11.6786 6.54695L11.7589 7.02079L11.786 7.50052L11.7592 7.98026L11.6788 8.45436L11.5454 8.91615L11.3617 9.35999L11.1292 9.78052L10.8511 10.1727L10.5308 10.5311L10.1724 10.8511L9.78052 11.1295L9.35999 11.3617L8.91588 11.5457L8.45409 11.6788L7.97999 11.7592L7.50052 11.7862L7.02052 11.7595L6.54642 11.6788L6.0849 11.5457L5.64079 11.362L5.22026 11.1295L4.82811 10.8511L4.46999 10.5311L4.14963 10.1727L3.87159 9.78079L3.63909 9.36026L3.45508 8.91615L3.32195 8.4541L3.24159 7.98026L3.21481 7.50052L3.24159 7.02079L3.32195 6.54668L3.45508 6.0849L3.63909 5.64106L3.87159 5.22052L4.14963 4.82838L4.46972 4.46999L4.82811 4.1499L5.22026 3.87159L5.64079 3.63909L6.0849 3.45534L6.54668 3.32222L7.02052 3.24186L7.50026 3.21481Z" fill="var(--fill-0, #FEF4D2)"/>
</g>
</svg>
