<svg preserveAspectRatio="none" width="100%" height="100%" overflow="visible" style="display: block;" viewBox="0 0 24 24" fill="none" xmlns="http://www.w3.org/2000/svg">
<g id="iconamoon:expressionless-face-fill">
<path id="Vector" fill-rule="evenodd" clip-rule="evenodd" d="M2 12C2 6.477 6.477 2 12 2C17.523 2 22 6.477 22 12C22 17.523 17.523 22 12 22C6.477 22 2 17.523 2 12ZM6.5 9.5C6.5 9.23478 6.60536 8.98043 6.79289 8.79289C6.98043 8.60536 7.23478 8.5 7.5 8.5H10C10.2652 8.5 10.5196 8.60536 10.7071 8.79289C10.8946 8.98043 11 9.23478 11 9.5C11 9.76522 10.8946 10.0196 10.7071 10.2071C10.5196 10.3946 10.2652 10.5 10 10.5H7.5C7.23478 10.5 6.98043 10.3946 6.79289 10.2071C6.60536 10.0196 6.5 9.76522 6.5 9.5ZM14 8.5C13.7348 8.5 13.4804 8.60536 13.2929 8.79289C13.1054 8.98043 13 9.23478 13 9.5C13 9.76522 13.1054 10.0196 13.2929 10.2071C13.4804 10.3946 13.7348 10.5 14 10.5H16.5C16.7652 10.5 17.0196 10.3946 17.2071 10.2071C17.3946 10.0196 17.5 9.76522 17.5 9.5C17.5 9.23478 17.3946 8.98043 17.2071 8.79289C17.0196 8.60536 16.7652 8.5 16.5 8.5H14ZM9 14C8.73478 14 8.48043 14.1054 8.29289 14.2929C8.10536 14.4804 8 14.7348 8 15C8 15.2652 8.10536 15.5196 8.29289 15.7071C8.48043 15.8946 8.73478 16 9 16H15C15.2652 16 15.5196 15.8946 15.7071 15.7071C15.8946 15.5196 16 15.2652 16 15C16 14.7348 15.8946 14.4804 15.7071 14.2929C15.5196 14.1054 15.2652 14 15 14H9Z" fill="var(--fill-0, #EF9F27)"/>
</g>
</svg>
