<svg preserveAspectRatio="none" width="100%" height="100%" overflow="visible" style="display: block;" viewBox="0 0 24 24" fill="none" xmlns="http://www.w3.org/2000/svg">
<g id="Group">
<path id="Vector" d="M12 24C18.6275 24 24 18.6275 24 12C24 5.3725 18.6275 0 12 0C5.3725 0 0 5.3725 0 12C0 18.6275 5.3725 24 12 24Z" fill="var(--fill-0, #DEEEFF)"/>
<path id="Vector_2" d="M18.208 17.365C18.1807 17.4542 18.1254 17.5322 18.0503 17.5876C17.9752 17.643 17.8843 17.6727 17.791 17.6725H6.209C6.11571 17.6727 6.02481 17.643 5.94972 17.5876C5.87464 17.5322 5.81934 17.4542 5.792 17.365C4.76 14.031 4.76 9.9685 5.792 6.6345C5.81934 6.5453 5.87464 6.46726 5.94972 6.41189C6.02481 6.35653 6.11571 6.32676 6.209 6.327H17.7905C17.982 6.327 18.1505 6.4515 18.2075 6.6345C19.239 9.9685 19.239 14.031 18.2075 17.3645" fill="var(--fill-0, #2E3ECD)"/>
<path id="Vector_3" d="M12.0005 15.4905C12.4624 15.496 12.9209 15.4098 13.3492 15.2369C13.7776 15.0639 14.1674 14.8077 14.496 14.483C14.8246 14.1583 15.0855 13.7716 15.2635 13.3453C15.4416 12.9191 15.5333 12.4617 15.5333 11.9998C15.5333 11.5378 15.4416 11.0804 15.2635 10.6542C15.0855 10.2279 14.8246 9.84121 14.496 9.51651C14.1674 9.19182 13.7776 8.93557 13.3492 8.76263C12.9209 8.58968 12.4624 8.50347 12.0005 8.509C11.0819 8.51999 10.2047 8.89261 9.55904 9.54606C8.91337 10.1995 8.55128 11.0811 8.55128 11.9998C8.55128 12.9184 8.91337 13.8 9.55904 14.4534C10.2047 15.1069 11.0819 15.4795 12.0005 15.4905Z" fill="var(--fill-0, #6BAFFF)"/>
<path id="Vector_4" d="M10.6905 10.2545L14.182 11.9995L10.691 13.7455L10.6905 10.2545Z" fill="var(--fill-0, #2E3ECD)"/>
</g>
</svg>
