<svg preserveAspectRatio="none" width="100%" height="100%" overflow="visible" style="display: block;" viewBox="0 0 21.266 21.3407" fill="none" xmlns="http://www.w3.org/2000/svg">
<g id="Group">
<path id="Vector" fill-rule="evenodd" clip-rule="evenodd" d="M15.1283 0.757027C13.4421 0.0584476 11.5961 -0.162461 9.79261 0.11851C7.98914 0.399482 6.29781 1.17149 4.90399 2.34993C3.51016 3.52837 2.46764 5.06776 1.89066 6.79939C1.31368 8.53102 1.22452 10.3881 1.63295 12.167L11.1719 9.33372C11.6834 9.18147 12.1602 9.65791 12.0079 10.1698L9.19064 19.6533C11.618 20.1864 14.157 19.7912 16.3074 18.5455C18.4578 17.2998 20.0637 15.2939 20.8087 12.923C21.5537 10.5521 21.3838 7.98813 20.3324 5.73629C19.281 3.48446 17.4244 1.70804 15.1283 0.757027ZM6.93696 18.8646L6.31828 17.4016L5.62815 18.0917C6.04216 18.3812 6.47954 18.6399 6.93696 18.8646ZM3.23724 15.7268L3.94006 15.0237L2.42892 14.3846C2.66279 14.8525 2.93328 15.3012 3.23724 15.7268Z" fill="var(--fill-0, #F2C94C)"/>
<path id="Vector_2" fill-rule="evenodd" clip-rule="evenodd" d="M13.7019 4.20165C12.6665 3.77281 11.5344 3.63195 10.4256 3.794C9.31666 3.95605 8.27222 4.41497 7.40286 5.12217C6.53351 5.82937 5.87158 6.75851 5.4872 7.8112C5.10281 8.86389 5.01027 10.0009 5.21937 11.1019L11.1724 9.33338C11.6843 9.18146 12.1607 9.65791 12.0088 10.1697L10.2576 16.0644C11.7648 16.3272 13.316 16.0247 14.6141 15.2149C15.9122 14.4051 16.8658 13.1448 17.2925 11.6755C17.7191 10.2063 17.5886 8.63122 16.9261 7.25214C16.2635 5.87306 15.1155 4.78688 13.7019 4.20165Z" fill="var(--fill-0, #F2994A)"/>
<path id="Vector_3" fill-rule="evenodd" clip-rule="evenodd" d="M12.2744 7.64594C11.8902 7.48668 11.4721 7.4264 11.0586 7.47061C10.645 7.51483 10.2491 7.66213 9.90723 7.89902C9.56534 8.13592 9.28838 8.45482 9.10172 8.82652C8.91505 9.19821 8.82465 9.61081 8.83881 10.0265L11.1716 9.33337C11.6835 9.18145 12.1599 9.6579 12.008 10.1697L11.3369 12.4281C11.8262 12.4256 12.3039 12.2786 12.71 12.0056C13.1161 11.7326 13.4326 11.3458 13.6196 10.8936C13.8719 10.2845 13.8718 9.60015 13.6195 8.9911C13.3671 8.38204 12.8835 7.89818 12.2744 7.64594Z" fill="var(--fill-0, #EB5757)"/>
<path id="Vector_4" fill-rule="evenodd" clip-rule="evenodd" d="M8.93136 20.5233C8.75173 21.1283 7.91302 21.1751 7.66696 20.5938L6.31675 17.4016L3.53286 20.1855C3.47041 20.248 3.39624 20.2976 3.31461 20.3314C3.23297 20.3653 3.14546 20.3827 3.05708 20.3827C2.96871 20.3827 2.8812 20.3653 2.79956 20.3314C2.71792 20.2976 2.64376 20.248 2.58131 20.1855L1.15497 18.7588C1.09249 18.6963 1.04293 18.6222 1.00912 18.5406C0.975299 18.459 0.957894 18.3715 0.957894 18.2832C0.957894 18.1948 0.975299 18.1074 1.00912 18.0258C1.04293 17.9442 1.09249 17.87 1.15497 17.8076L3.93886 15.0237L0.745972 13.6735C0.165022 13.4277 0.211765 12.589 0.816421 12.4091L11.1707 9.33338C11.6825 9.18146 12.159 9.65791 12.0071 10.1697L8.93136 20.5233Z" fill="var(--fill-0, #888880)"/>
<path id="Vector_5" d="M6.31792 17.4016L6.62742 17.2704C6.60598 17.2196 6.5724 17.1749 6.52961 17.1402C6.48683 17.1054 6.43617 17.0817 6.38208 17.0712C6.328 17.0606 6.27215 17.0635 6.21945 17.0796C6.16675 17.0957 6.11881 17.1246 6.07986 17.1635L6.31792 17.4016ZM3.93969 15.0237L4.17742 15.2614C4.2164 15.2225 4.24521 15.1745 4.26131 15.1218C4.27741 15.0691 4.28032 15.0133 4.26976 14.9592C4.25921 14.9051 4.23552 14.8545 4.20079 14.8117C4.16606 14.7689 4.12134 14.7353 4.07057 14.7139L3.93969 15.0237ZM7.35828 20.725C7.72689 21.5965 8.98494 21.5263 9.25472 20.6192L8.60966 20.4279C8.51985 20.73 8.1005 20.7534 7.97763 20.4629L7.35828 20.725ZM6.00808 17.5325L7.35828 20.725L7.97763 20.4629L6.62742 17.2704L6.00808 17.5325ZM6.07986 17.1635L3.29597 19.9481L3.77142 20.4235L6.55564 17.6393L6.07986 17.1635ZM3.29597 19.9481C3.26475 19.9794 3.22767 20.0042 3.18685 20.0211C3.14603 20.038 3.10227 20.0467 3.05809 20.0467C3.0139 20.0467 2.97014 20.038 2.92932 20.0211C2.88851 20.0042 2.85142 19.9794 2.8202 19.9481L2.34475 20.4235C2.4384 20.5173 2.5496 20.5916 2.67199 20.6424C2.79439 20.6931 2.92559 20.7192 3.05809 20.7192C3.19058 20.7192 3.32178 20.6931 3.44418 20.6424C3.56658 20.5916 3.67778 20.5173 3.77142 20.4235L3.29597 19.9481ZM2.8202 19.9481L1.39353 18.5211L0.917753 18.9965L2.34475 20.4235L2.8202 19.9481ZM1.39353 18.5211C1.36227 18.4899 1.33746 18.4528 1.32054 18.412C1.30362 18.3711 1.29491 18.3274 1.29491 18.2832C1.29491 18.239 1.30362 18.1953 1.32054 18.1544C1.33746 18.1136 1.36227 18.0765 1.39353 18.0453L0.917753 17.5699C0.824018 17.6635 0.749659 17.7747 0.698925 17.8971C0.648191 18.0195 0.622077 18.1507 0.622077 18.2832C0.622077 18.4157 0.648191 18.5469 0.698925 18.6693C0.749659 18.7917 0.824018 18.9029 0.917753 18.9965L1.39353 18.5211ZM1.39353 18.0453L4.17742 15.2614L3.70164 14.786L0.917753 17.5699L1.39353 18.0453ZM0.615926 13.983L3.80848 15.3335L4.07057 14.7139L0.878021 13.3637L0.615926 13.983ZM0.721766 12.0866C-0.185718 12.3563 -0.255833 13.6144 0.615926 13.983L0.878021 13.3637C0.587546 13.2408 0.610918 12.8214 0.913079 12.7316L0.721766 12.0866ZM11.0757 9.01121L0.721766 12.0869L0.913079 12.7313L11.2673 9.65593L11.0757 9.01121ZM12.3301 10.2656C12.5581 9.49767 11.8436 8.78317 11.0757 9.01121L11.2673 9.65593C11.3254 9.63866 11.3871 9.63708 11.4458 9.65197C11.5046 9.66687 11.5582 9.69736 11.601 9.74022C11.6438 9.78309 11.6743 9.83673 11.6891 9.89547C11.704 9.95422 11.7027 10.0159 11.6854 10.0739L12.3301 10.2656ZM9.25438 20.6192L12.3301 10.2656L11.6854 10.0739L8.60966 20.4279L9.25438 20.6192Z" fill="var(--fill-0, #F2F2F2)"/>
</g>
</svg>
