<svg preserveAspectRatio="none" width="100%" height="100%" overflow="visible" style="display: block;" viewBox="0 0 22.084 22.084" fill="none" xmlns="http://www.w3.org/2000/svg">
<g id="Group">
<path id="Vector" d="M7.599 21.584C7.01857 21.5521 6.46629 21.3235 6.033 20.936L1.15 16.078C0.760149 15.6456 0.530676 15.0924 0.5 14.511V7.679C0.531 7.099 0.757 6.545 1.142 6.109L6.038 1.153C6.468 0.763 7.019 0.532 7.599 0.5H14.434C15.014 0.532 15.566 0.761 15.998 1.15L20.938 6.112C21.325 6.546 21.553 7.099 21.584 7.679V14.511C21.5513 15.0898 21.3207 15.6398 20.931 16.069L16.002 20.942C15.5662 21.3266 15.0134 21.5528 14.433 21.584H7.599Z" fill="var(--fill-0, #FF808C)"/>
<path id="Vector_2" d="M20.937 6.113L15.992 1.15C15.562 0.762041 15.0123 0.532701 14.434 0.5H7.599C7.02035 0.532155 6.47047 0.762773 6.042 1.153L1.142 6.109C0.75717 6.54502 0.530937 7.09827 0.5 7.679V10.887C0.531 10.307 0.757 9.753 1.142 9.317L6.039 4.362C6.469 3.972 7.019 3.742 7.599 3.71H14.434C15.0142 3.74107 15.5662 3.97014 15.998 4.359L20.938 9.323C21.326 9.756 21.554 10.308 21.586 10.888V7.679C21.5535 7.09832 21.3243 6.54601 20.936 6.113" fill="var(--fill-0, #FFBFC5)"/>
<path id="Vector_3" d="M7.599 21.584C7.01857 21.5521 6.46629 21.3235 6.033 20.936L1.15 16.078C0.760149 15.6456 0.530676 15.0924 0.5 14.511V7.679C0.531 7.099 0.757 6.545 1.142 6.109L6.038 1.153C6.468 0.763 7.019 0.532 7.599 0.5H14.434C15.014 0.532 15.566 0.761 15.998 1.15L20.938 6.112C21.325 6.546 21.553 7.099 21.584 7.679V14.511C21.5513 15.0898 21.3207 15.6398 20.931 16.069L16.002 20.942C15.5662 21.3266 15.0134 21.5528 14.433 21.584H7.599Z" stroke="var(--stroke-0, #191919)" stroke-linecap="round" stroke-linejoin="round"/>
<path id="Vector_4" d="M15.425 14.057C15.425 13.501 15.561 12.954 15.822 12.464L17.164 9.942C17.2942 9.72969 17.3348 9.47435 17.2767 9.23215C17.2187 8.98995 17.0668 8.78072 16.8545 8.6505C16.6422 8.52028 16.3869 8.47973 16.1446 8.53777C15.9024 8.59581 15.6932 8.74769 15.563 8.96L13.86 11.642L14.868 6.12C14.8978 5.99825 14.903 5.87175 14.8831 5.74798C14.8632 5.62421 14.8187 5.50569 14.7523 5.3994C14.6858 5.29312 14.5987 5.20123 14.4961 5.12918C14.3935 5.05713 14.2776 5.00636 14.155 4.97989C14.0325 4.95342 13.9059 4.95178 13.7827 4.97506C13.6596 4.99835 13.5423 5.04608 13.4379 5.11545C13.3335 5.18482 13.244 5.27441 13.1748 5.37893C13.1056 5.48346 13.0581 5.60079 13.035 5.724L11.981 10.39V4.447C11.981 4.19796 11.8821 3.95912 11.706 3.78303C11.5299 3.60693 11.291 3.508 11.042 3.508C10.793 3.508 10.5541 3.60693 10.378 3.78303C10.2019 3.95912 10.103 4.19796 10.103 4.447V10.4L9.05 5.502C9.0301 5.37584 8.98467 5.25506 8.91649 5.14706C8.84831 5.03906 8.75882 4.9461 8.65348 4.87387C8.54814 4.80165 8.42918 4.75167 8.30386 4.72699C8.17855 4.70232 8.04952 4.70347 7.92466 4.73038C7.7998 4.75728 7.68175 4.80938 7.57772 4.88347C7.47369 4.95757 7.38587 5.05211 7.31962 5.16131C7.25338 5.27051 7.21012 5.39208 7.19247 5.51858C7.17483 5.64507 7.18317 5.77384 7.217 5.897L8.23 12.899L6.36 11.267C6.17488 11.1072 5.93479 11.0259 5.69068 11.0402C5.44658 11.0546 5.21767 11.1635 5.05254 11.3439C4.88742 11.5242 4.79907 11.7618 4.80625 12.0062C4.81343 12.2506 4.91557 12.4827 5.091 12.653L8.384 17.035C8.64718 17.3105 8.96345 17.5298 9.31373 17.6796C9.664 17.8295 10.041 17.9069 10.422 17.907H12.613C14.834 17.906 15.425 16.169 15.425 14.057Z" fill="var(--fill-0, white)" stroke="var(--stroke-0, #191919)" stroke-linecap="round" stroke-linejoin="round"/>
</g>
</svg>
