<svg preserveAspectRatio="none" width="100%" height="100%" overflow="visible" style="display: block;" viewBox="0 0 18 18" fill="none" xmlns="http://www.w3.org/2000/svg">
<g id="Frame 1618873687">
<path id="Vector" d="M14.7476 17.0636H2.25352C1.83414 17.0636 1.49414 16.7236 1.49414 16.3042V0.759375C1.49414 0.339996 1.83414 0 2.25352 0H14.7476C15.167 0 15.507 0.339996 15.507 0.759375V16.3042C15.507 16.7236 15.167 17.0636 14.7476 17.0636Z" fill="var(--fill-0, #DCE2E2)"/>
<g id="fxemoji:memo">
<path id="Vector_2" d="M11.7444 5.218H2.74781C2.48569 5.218 2.2732 5.00551 2.2732 4.74339C2.2732 4.48126 2.48569 4.26878 2.74781 4.26878H11.7444C12.0066 4.26878 12.219 4.48126 12.219 4.74339C12.219 5.00551 12.0066 5.218 11.7444 5.218ZM12.219 6.89741C12.219 6.63528 12.0066 6.4228 11.7444 6.4228H2.74781C2.48569 6.4228 2.2732 6.63528 2.2732 6.89741C2.2732 7.15953 2.48569 7.37202 2.74781 7.37202H11.7444C12.0066 7.37202 12.219 7.15953 12.219 6.89741ZM6.14366 9.05147C6.14366 8.78934 5.93118 8.57686 5.66905 8.57686H2.74781C2.48569 8.57686 2.2732 8.78934 2.2732 9.05147C2.2732 9.31359 2.48569 9.52608 2.74781 9.52608H5.66905C5.93118 9.52608 6.14366 9.31359 6.14366 9.05147ZM12.219 11.2055C12.219 10.9434 12.0066 10.7309 11.7444 10.7309H2.74781C2.48569 10.7309 2.2732 10.9434 2.2732 11.2055C2.2732 11.4676 2.48569 11.6801 2.74781 11.6801H11.7444C12.0066 11.6801 12.219 11.4676 12.219 11.2055ZM6.14366 15.3785C6.14366 15.1164 5.93118 14.9039 5.66905 14.9039H2.74781C2.48569 14.9039 2.2732 15.1164 2.2732 15.3785C2.2732 15.6406 2.48569 15.8531 2.74781 15.8531H5.66905C5.93118 15.8531 6.14366 15.6406 6.14366 15.3785Z" fill="var(--fill-0, #96A9B2)"/>
<path id="Vector_3" d="M16.5742 4.94012C15.8852 4.25109 15.0992 3.92006 14.8185 4.20071L12.9208 6.09841L15.416 8.59356L17.3137 6.69586C17.5943 6.41521 17.2633 5.62915 16.5742 4.94012Z" fill="var(--fill-0, #FF6E83)"/>
<path id="Vector_4" d="M15.3713 6.14306C14.5852 5.35693 13.6884 4.97925 13.3682 5.29945L11.4249 7.24275L14.2717 10.0895L16.215 8.14623C16.5351 7.82603 16.1574 6.92916 15.3713 6.14306Z" fill="var(--fill-0, #BFBCAF)"/>
<path id="Vector_5" d="M7.87746 14.9277L6.16584 15.6722C6.13622 15.6851 6.10436 15.692 6.07206 15.6926C6.03977 15.6931 6.00768 15.6873 5.97763 15.6755C5.94757 15.6637 5.92014 15.646 5.89691 15.6236C5.87367 15.6012 5.85508 15.5744 5.8422 15.5448C5.8288 15.5138 5.82189 15.4804 5.82189 15.4467C5.82189 15.4129 5.8288 15.3795 5.8422 15.3486L6.58666 13.6369C6.80273 13.1401 7.38067 12.9126 7.87746 13.1286C8.37425 13.3447 8.60182 13.9226 8.38575 14.4194C8.28295 14.6558 8.09631 14.832 7.87746 14.9277Z" fill="var(--fill-0, #2B2622)"/>
<path id="Vector_6" d="M15.0922 9.26304C15.094 9.26046 15.0958 9.25786 15.0975 9.25523C15.3444 8.90146 14.9666 8.04976 14.2156 7.29875C13.4646 6.54775 12.613 6.16999 12.2592 6.41686C12.2565 6.41859 12.2539 6.42039 12.2514 6.42224C12.2482 6.42459 12.2449 6.42681 12.2418 6.42927C12.2331 6.43598 12.2246 6.44309 12.2166 6.45107L7.70038 10.9672C7.70038 10.9672 6.42277 14.1289 6.90416 14.6102C7.38552 15.0916 10.5472 13.814 10.5472 13.814L15.0633 9.29784C15.0713 9.28986 15.0784 9.28135 15.0851 9.2726C15.0876 9.26954 15.0898 9.26624 15.0922 9.26304Z" fill="var(--fill-0, #FFD469)"/>
<path id="Vector_7" d="M7.70031 10.9673L7.60001 11.5924C7.58524 11.6843 7.66487 11.7637 7.75673 11.7487L8.20466 11.6755C8.29311 11.661 8.37127 11.7344 8.36248 11.8236L8.31259 12.3292C8.31055 12.3499 8.31327 12.3708 8.32056 12.3903C8.32784 12.4098 8.3395 12.4274 8.35462 12.4417C8.36975 12.456 8.38795 12.4667 8.40783 12.4729C8.42771 12.4791 8.44874 12.4806 8.46932 12.4774L8.92202 12.4072C9.01459 12.3929 9.09376 12.4739 9.07727 12.5661L8.99982 12.9992C8.98386 13.0884 9.05769 13.1681 9.14787 13.159L9.65739 13.1076C9.67754 13.1056 9.69789 13.108 9.71696 13.1149C9.73604 13.1217 9.75336 13.1326 9.76767 13.1469C9.78198 13.1613 9.79292 13.1786 9.79969 13.1977C9.80647 13.2168 9.80891 13.2371 9.80684 13.2573L9.75431 13.7713C9.74528 13.8598 9.82188 13.9331 9.90984 13.9202L10.5582 13.8252L6.90413 15.3542C7.19564 15.0627 6.44084 14.3079 6.14932 14.5994L7.70031 10.9673Z" fill="var(--fill-0, #E5AA6E)"/>
<path id="Vector_8" d="M8.63803 11.1324C8.60438 11.1324 8.57149 11.1224 8.54351 11.1037C8.51554 11.085 8.49373 11.0584 8.48085 11.0274C8.46798 10.9963 8.4646 10.9621 8.47116 10.929C8.47772 10.896 8.49391 10.8657 8.51769 10.8419L12.2859 7.07365C12.3181 7.04287 12.361 7.02591 12.4055 7.02639C12.45 7.02688 12.4925 7.04477 12.524 7.07624C12.5555 7.10771 12.5734 7.15025 12.5739 7.19476C12.5743 7.23926 12.5574 7.28218 12.5266 7.31433L8.75834 11.0826C8.74256 11.0984 8.72381 11.111 8.70316 11.1195C8.68252 11.1281 8.66038 11.1325 8.63803 11.1324ZM9.72098 12.0452L13.4892 8.27698C13.52 8.24483 13.537 8.20191 13.5365 8.1574C13.536 8.1129 13.5181 8.07036 13.4867 8.03889C13.4552 8.00742 13.4126 7.98952 13.3681 7.98904C13.3236 7.98856 13.2807 8.00552 13.2486 8.0363L9.4803 11.8046C9.44953 11.8367 9.43256 11.8796 9.43305 11.9241C9.43353 11.9686 9.45143 12.0112 9.4829 12.0426C9.51437 12.0741 9.55691 12.092 9.60141 12.0925C9.64591 12.093 9.68884 12.076 9.72098 12.0452ZM10.6836 13.0078L14.4519 9.23959C14.4826 9.20744 14.4996 9.16452 14.4991 9.12002C14.4986 9.07551 14.4807 9.03297 14.4493 9.0015C14.4178 8.97003 14.3753 8.95214 14.3307 8.95165C14.2862 8.95117 14.2433 8.96813 14.2112 8.99891L10.4429 12.7672C10.4121 12.7993 10.3952 12.8422 10.3957 12.8867C10.3961 12.9312 10.414 12.9738 10.4455 13.0053C10.477 13.0367 10.5195 13.0546 10.564 13.0551C10.6085 13.0556 10.6515 13.0386 10.6836 13.0078Z" fill="var(--fill-0, #FFB636)"/>
<path id="Vector_9" d="M10.2517 1.94474H4.75921C4.4762 1.94474 4.24677 1.71531 4.24677 1.4323V0.643078C4.24677 0.36007 4.4762 0.130641 4.75921 0.130641H10.2517C10.5347 0.130641 10.7641 0.36007 10.7641 0.643078V1.4323C10.7641 1.71531 10.5347 1.94474 10.2517 1.94474Z" fill="var(--fill-0, #B9C5C6)"/>
</g>
</g>
</svg>
