<svg preserveAspectRatio="none" width="100%" height="100%" overflow="visible" style="display: block;" viewBox="0 0 24 24" fill="none" xmlns="http://www.w3.org/2000/svg">
<g id="emojione-v1:alarm-clock">
<path id="Vector" d="M3.46753 21.7996C3.39849 21.7056 3.5979 21.038 3.63836 20.9901C4.68871 19.7673 4.72724 15.8331 4.70573 15.2724C4.65306 13.9784 5.33895 12.6695 5.91759 12.9524C6.47632 13.2254 6.91432 15.9163 7.02189 16.4548C7.28745 17.7716 7.18341 19.348 6.75697 20.5964C6.30678 21.9185 4.56669 23.26 3.46753 21.7996ZM20.1161 21.7996C20.1848 21.7056 19.9857 21.038 19.9449 20.9901C18.8946 19.7673 18.8564 15.8331 18.8779 15.2724C18.9302 13.9784 18.2443 12.6695 17.6657 12.9524C17.1073 13.2254 16.6693 15.9163 16.5617 16.4548C16.2962 17.7716 16.4002 19.348 16.8266 20.5964C17.2765 21.9185 19.0166 23.26 20.1161 21.7996Z" fill="var(--fill-0, #C2986B)"/>
<path id="Vector_2" d="M2.27743 7.56618C2.97103 8.2601 4.60387 7.75018 5.92748 6.42625C7.25045 5.10327 7.76037 3.47107 7.06678 2.77684C6.37479 2.08549 3.5943 1.44776 2.27069 2.77073C0.947714 4.09371 1.58544 6.87484 2.27743 7.56618ZM21.2226 7.56618C20.5293 8.2601 18.8965 7.75018 17.5728 6.42625C16.2499 5.10327 15.7399 3.47107 16.4332 2.77684C17.1255 2.08549 19.9057 1.44776 21.2293 2.77073C22.5523 4.09371 21.9146 6.87484 21.2226 7.56618Z" fill="var(--fill-0, #FBB041)"/>
<path id="Vector_3" d="M21.027 12.6191C21.027 17.7501 16.8686 21.9095 11.7373 21.9095C6.60596 21.9095 2.44727 17.7505 2.44727 12.6191C2.44727 7.48908 6.60564 3.91705 11.737 3.91705C16.8683 3.91705 21.027 7.48875 21.027 12.6191Z" fill="var(--fill-0, #A7A8AC)"/>
<path id="Vector_4" d="M18.6891 12.6929C18.6891 16.5337 15.5763 19.6469 11.7352 19.6469C7.89409 19.6469 4.78125 16.5337 4.78125 12.6929C4.78125 8.85311 7.89441 6.17987 11.7352 6.17987C15.576 6.17987 18.6891 8.85311 18.6891 12.6929Z" fill="var(--fill-0, #E7E6E6)"/>
<g id="Group">
<path id="Vector_5" d="M12.5948 13.2806C12.5948 13.8445 12.1468 14.3004 11.5939 14.3004C11.0409 14.3004 10.593 13.8445 10.593 13.2806V8.48771C10.593 7.92544 11.0409 7.46947 11.5939 7.46947C12.1471 7.46947 12.5948 7.92544 12.5948 8.48771V13.2806Z" fill="var(--fill-0, #25333A)"/>
<path id="Vector_6" d="M11.6544 14.3017C11.0674 14.3017 10.5931 13.9909 10.5931 13.6078C10.5931 13.2257 11.0674 12.9152 11.6544 12.9152H16.6499C17.2365 12.9152 17.7121 13.2257 17.7121 13.6078C17.7121 13.9909 17.2368 14.3017 16.6499 14.3017H11.6544Z" fill="var(--fill-0, #25333A)"/>
</g>
</g>
</svg>
