<svg preserveAspectRatio="none" width="100%" height="100%" overflow="visible" style="display: block;" viewBox="0 0 41.6667 45.4458" fill="none" xmlns="http://www.w3.org/2000/svg">
<g id="Group">
<g id="Vector">
</g>
<path id="Vector_2" d="M20.8333 0C32.3396 0 41.6667 9.32708 41.6667 20.8333C41.6667 32.3396 32.3396 41.6667 20.8333 41.6667C9.32708 41.6667 0 32.3396 0 20.8333C0 9.32708 9.32708 0 20.8333 0ZM20.8333 29.1667C20.2808 29.1667 19.7509 29.3862 19.3602 29.7769C18.9695 30.1676 18.75 30.6975 18.75 31.25C18.75 31.8025 18.9695 32.3324 19.3602 32.7231C19.7509 33.1138 20.2808 33.3333 20.8333 33.3333C21.3859 33.3333 21.9158 33.1138 22.3065 32.7231C22.6972 32.3324 22.9167 31.8025 22.9167 31.25C22.9167 30.6975 22.6972 30.1676 22.3065 29.7769C21.9158 29.3862 21.3859 29.1667 20.8333 29.1667ZM20.8333 9.375C18.8304 9.375 16.9095 10.1707 15.4932 11.587C14.0769 13.0032 13.2812 14.9241 13.2812 16.9271C13.2812 17.4796 13.5007 18.0095 13.8914 18.4002C14.2821 18.7909 14.812 19.0104 15.3646 19.0104C15.9171 19.0104 16.447 18.7909 16.8377 18.4002C17.2284 18.0095 17.4479 17.4796 17.4479 16.9271C17.4486 16.3126 17.6165 15.7098 17.9337 15.1835C18.2509 14.6572 18.7053 14.2271 19.2483 13.9394C19.7913 13.6517 20.4024 13.5172 21.016 13.5504C21.6296 13.5836 22.2226 13.7831 22.7315 14.1277C23.2403 14.4722 23.6458 14.9487 23.9044 15.5062C24.163 16.0636 24.265 16.6809 24.1994 17.292C24.1339 17.903 23.9033 18.4846 23.5323 18.9745C23.1614 19.4644 22.6641 19.8441 22.0937 20.0729C20.6854 20.6354 18.75 22.0771 18.75 24.4792V25C18.75 25.5525 18.9695 26.0824 19.3602 26.4731C19.7509 26.8638 20.2808 27.0833 20.8333 27.0833C21.3859 27.0833 21.9158 26.8638 22.3065 26.4731C22.6972 26.0824 22.9167 25.5525 22.9167 25C22.9167 24.4917 23.0208 24.2375 23.4604 24.0208L23.6417 23.9375C25.2684 23.2831 26.6168 22.0832 27.4557 20.5436C28.2946 19.0039 28.5719 17.2204 28.2398 15.4987C27.9078 13.7771 26.9872 12.2245 25.6359 11.1072C24.2846 9.98996 22.5867 9.37755 20.8333 9.375Z" fill="var(--fill-0, #EF9F27)"/>
</g>
</svg>
