<svg preserveAspectRatio="none" width="100%" height="100%" overflow="visible" style="display: block;" viewBox="0 0 41 56" fill="none" xmlns="http://www.w3.org/2000/svg">
<g id="Vector">
<path d="M20.2971 0.0311479C21.598 -0.0631575 22.9105 0.0359573 24.0779 0.617375C25.4614 1.30594 26.8231 1.52067 28.3061 1.85765C28.9144 1.99585 29.5901 2.34379 30.1425 2.47597C31.8951 2.89544 33.0595 3.47326 34.0866 5.0068C34.4241 5.46816 34.8461 6.34973 35.1678 6.72768C35.9746 7.67542 36.7437 8.15322 37.4728 9.25268C38.2135 10.3703 38.0678 11.1304 38.5194 12.2308C38.5844 12.3887 39.4355 13.306 39.705 13.8169C40.238 14.7692 40.6891 16.406 40.5434 17.5207C40.3188 19.234 41.1347 20.3038 40.9805 21.9984C40.8566 23.3581 40.4329 24.3698 40.0856 25.6624C41.1808 26.6964 39.7244 28.1655 39.79 29.1066C39.9163 30.9198 39.7044 32.8856 39.7876 34.6634C39.9497 38.1154 40.2769 41.6027 40.4274 45.0522C38.7604 46.7983 34.1176 48.2369 31.7603 48.7672C31.7197 50.064 31.4095 53.158 30.942 54.252C30.307 55.7399 27.3087 56.4711 25.9604 55.6711C25.7595 55.5524 25.3558 55.2565 25.252 55.0008C24.9381 53.2182 24.5721 51.6779 24.0518 49.9379C22.8911 50.0445 21.3048 50.053 20.1259 50.0865C19.154 50.0901 18.2404 50.0877 17.2709 50.0183C17.1831 50.7751 16.8403 54.3013 16.3399 54.6611C15.3567 55.3673 11.1904 56.0109 10.1978 54.8931C9.57747 54.1948 10.3217 53.3102 10.8664 52.8231C10.6716 51.5951 10.2727 50.1784 10.2128 48.9468C8.13702 48.4561 2.92348 46.8202 1.68482 45.0729C1.70704 43.9582 1.87094 42.5664 1.96613 41.4218C2.06217 40.2675 2.12603 38.4959 2.3379 37.3939C1.53202 37.0609 1.12152 36.8143 0.626154 36.0606C-1.04273 33.52 1.07605 30.5265 1.76404 27.6448C1.3737 27.0057 1.2895 25.869 1.41589 25.1315C1.48224 24.7446 1.61519 24.6332 1.92121 24.4363C1.11393 22.5451 0.880153 20.1711 1.62077 18.229C1.7848 17.7988 2.13848 17.339 2.19949 16.8739C2.35393 15.6962 2.30396 14.5528 2.8726 13.4639C3.32432 12.4401 4.1812 11.7248 4.58738 10.9085C4.99394 10.0914 5.05968 9.17122 5.79278 8.24539C6.96235 6.76829 8.1692 5.78 9.63393 4.63287C10.081 4.28268 10.5876 3.68921 11.0916 3.42511C11.6321 3.14182 12.4516 3.0838 12.9924 2.7895C13.5894 2.46464 13.9222 2.11731 14.5754 1.8571C15.2422 1.59148 16.3123 1.47507 16.9031 1.22631C18.3685 0.609462 18.6908 0.24953 20.2971 0.0311479Z" fill="#5E280D"/>
<path d="M3.38722 14.3875C3.6658 13.913 3.79353 13.3744 4.1551 12.8367C4.54313 12.2596 5.14419 11.686 5.44663 11.1135C5.71811 10.5996 5.84869 9.54594 6.19569 9.03429C7.08492 7.72321 8.42702 6.60172 9.6587 5.625C10.1227 5.28631 10.7001 4.61284 11.1941 4.34113C12.3048 3.7303 13.3906 3.59095 14.4605 2.80369C14.8055 2.54987 16.269 2.27371 16.7484 2.07396C18.7539 1.238 20.1727 0.499873 22.4176 0.953136C23.3203 1.1286 24.1975 1.41736 25.028 1.81266L25.3613 1.9466C26.8146 2.38105 28.308 2.70512 29.7625 3.14462C31.0276 3.52696 32.0942 3.78144 33.0012 4.85058C33.6277 5.58956 34.0156 6.55197 34.6463 7.29698C35.5023 8.24174 36.4712 8.92386 37.0376 10.13C37.2015 10.4783 37.4091 10.8111 37.4892 11.1994C37.6125 11.6326 37.6665 12.1773 37.8492 12.5776C38.2268 13.4036 39.1034 13.9381 39.4197 14.8113C39.9485 16.2184 39.6595 17.7883 39.7924 19.2509C39.8629 20.0225 40.2435 20.8041 40.1634 21.608C40.0225 23.0306 39.6862 24.7778 39.1253 26.0912C37.3369 26.8233 35.6535 27.3725 33.7357 27.6984C33.8832 27.4542 34.1413 27.2659 34.3282 27.0458C34.86 26.4181 35.4847 25.676 35.6565 24.8536C35.7773 24.2763 35.6037 23.6223 35.716 23.0333C35.8841 22.1488 36.2866 21.2152 36.4232 20.337C35.8787 20.3687 35.4786 20.3158 34.9432 20.2345C33.9956 19.338 33.2124 19.6265 32.7832 17.8861C33.3229 17.6662 34.0611 17.5174 34.6336 17.4081C34.6767 17.4994 34.7216 17.5901 34.7671 17.6803C34.8886 17.9171 34.9359 18.0199 35.1884 18.1025C35.7482 17.9392 35.254 16.8999 34.8558 16.7229C34.5304 16.5785 34.4654 16.6272 34.1346 16.6985C33.7078 16.8767 33.1566 17.1046 32.7122 17.2176C31.9127 17.5135 30.8479 17.7481 30.0241 18.0271C28.9909 18.377 27.9692 18.7552 26.9269 19.0732C26.3046 14.2367 19.4757 13.9766 18.7285 18.9079C17.7942 18.3669 16.6933 18.0872 15.7053 18.6366C15.6456 18.1027 15.5635 17.5067 15.324 17.0198C13.6584 13.6352 9.01423 13.7564 7.70528 17.3586C7.08674 16.8879 6.75813 16.6187 6.10475 16.1831C5.95675 16.1039 4.67098 15.2529 4.56802 15.1471L4.02664 14.7774C3.84816 14.6414 3.58621 14.5022 3.38722 14.3875Z" fill="#F3C264"/>
<path d="M25.3613 1.9466C26.8146 2.38105 28.308 2.70512 29.7625 3.14462C31.0276 3.52696 32.0942 3.78144 33.0012 4.85058C33.6277 5.58956 34.0156 6.55197 34.6463 7.29698C35.5023 8.24174 36.4712 8.92386 37.0376 10.13C37.2015 10.4783 37.4091 10.8111 37.4892 11.1994C37.6125 11.6326 37.6665 12.1773 37.8492 12.5776C38.2268 13.4036 39.1034 13.9381 39.4197 14.8113C39.9485 16.2184 39.6595 17.7883 39.7924 19.2509C39.8629 20.0225 40.2435 20.8041 40.1634 21.608C40.0225 23.0306 39.6862 24.7778 39.1253 26.0912C37.3369 26.8233 35.6535 27.3725 33.7357 27.6984C33.8832 27.4542 34.1413 27.2659 34.3282 27.0458C34.86 26.4181 35.4847 25.676 35.6565 24.8536C35.7773 24.2763 35.6037 23.6223 35.716 23.0333C35.8841 22.1488 36.2866 21.2152 36.4232 20.337C35.8787 20.3687 35.4786 20.3158 34.9432 20.2345C33.9956 19.338 33.2124 19.6265 32.7832 17.8861C33.3229 17.6662 34.0611 17.5174 34.6336 17.4081C34.6767 17.4994 34.7216 17.5901 34.7671 17.6803C34.8886 17.9171 34.9359 18.0199 35.1884 18.1025C35.7482 17.9392 35.254 16.8999 34.8558 16.7229C34.5304 16.5785 34.4654 16.6272 34.1346 16.6985C33.3405 16.1399 33.4431 16.9116 33.1293 15.5911C33.601 14.7575 33.8826 14.6098 34.789 14.342C34.9632 14.2998 35.2449 14.2957 35.4337 14.2847C35.3111 12.8273 34.8952 12.3947 34.2633 11.1206C34.0368 10.6643 33.8383 9.82777 33.6052 9.33371C33.2361 8.55066 32.0633 6.32136 31.9813 5.46311L32.1343 5.38981C30.0703 3.68215 28.6297 3.69743 26.2433 2.69836C25.7826 2.50549 25.5227 2.38367 25.3613 1.9466Z" fill="#E8A749"/>
<path d="M34.789 14.342C35.3287 14.3718 36.1658 14.3733 36.6108 14.6922C37.0679 14.9676 37.1772 15.0706 37.4522 15.5285C38.4174 16.898 38.517 19.9858 36.4232 20.337C35.8787 20.3687 35.4786 20.3158 34.9432 20.2345C33.9956 19.338 33.2124 19.6265 32.7832 17.8861C33.3229 17.6662 34.0611 17.5174 34.6336 17.4081C34.6767 17.4994 34.7216 17.5901 34.7671 17.6803C34.8886 17.9171 34.9359 18.0199 35.1884 18.1025C35.7482 17.9392 35.254 16.8999 34.8558 16.7229C34.5304 16.5785 34.4654 16.6272 34.1346 16.6985C33.3405 16.1399 33.4431 16.9116 33.1293 15.5911C33.601 14.7575 33.8826 14.6098 34.789 14.342Z" fill="#965223"/>
<path d="M37.4522 15.5285C37.4115 15.6222 37.3029 15.7015 37.2088 15.7314C36.714 15.8877 36.575 15.0946 36.5131 14.778L36.6108 14.6922C37.0679 14.9676 37.1772 15.0706 37.4522 15.5285Z" fill="#6F3A1D"/>
<path d="M3.38722 14.3875C3.6658 13.913 3.79353 13.3744 4.1551 12.8367C4.54313 12.2596 5.14419 11.686 5.44663 11.1135C5.71811 10.5996 5.84869 9.54594 6.19569 9.03429C7.08492 7.72321 8.42702 6.60172 9.6587 5.625C10.1227 5.28631 10.7001 4.61284 11.1941 4.34113C12.3048 3.7303 13.3906 3.59095 14.4605 2.80369C14.8055 2.54987 16.269 2.27371 16.7484 2.07396C18.7539 1.238 20.1727 0.499873 22.4176 0.953136C22.2373 1.17462 22.2239 1.13632 21.8961 1.219C19.3003 1.54192 16.3894 3.17744 13.9493 4.15039C13.2587 4.42575 12.529 4.66703 11.8795 5.01557C11.3868 5.34123 10.939 5.77221 10.4881 6.1532C10.1424 6.4609 9.63326 6.69858 9.29883 7.00299C7.75311 8.40965 6.71515 10.163 5.75999 11.9959C5.42993 12.6293 4.49536 13.0056 4.5733 13.8814C4.4287 14.0907 4.10902 14.7089 4.02664 14.7774C3.84816 14.6414 3.58621 14.5022 3.38722 14.3875Z" fill="#F9D9A1"/>
<path d="M4.96869 13.4947C5.74798 13.249 6.28031 13.5053 6.52575 14.3163C6.67873 14.8314 6.61475 15.387 6.34867 15.8536C6.28104 15.973 6.19909 16.0836 6.10475 16.1831C5.95675 16.1039 4.67098 15.2529 4.56802 15.1471L4.02664 14.7774C4.10902 14.7089 4.4287 14.0907 4.5733 13.8814L4.96869 13.4947Z" fill="#985324"/>
<path d="M4.5733 13.8814L4.96869 13.4947L4.98404 13.5569C5.02617 13.7217 5.02733 13.8004 5.1533 13.9115C5.54218 14.0383 6.08053 14.0634 5.95031 14.5928C5.60999 15.0364 5.0867 15.142 4.56802 15.1471L4.02664 14.7774C4.10902 14.7089 4.4287 14.0907 4.5733 13.8814Z" fill="#B2662D"/>
<path d="M33.1293 15.5911C33.4431 16.9116 33.3405 16.1399 34.1346 16.6985C33.7078 16.8767 33.1566 17.1046 32.7122 17.2176C32.6351 16.5832 32.8002 16.1158 33.1293 15.5911Z" fill="#8A4C22"/>
<path d="M12.4395 10.4882C11.734 10.1623 11.0585 9.73443 10.834 8.93865C10.4136 7.44906 11.3454 5.98261 12.7827 5.53428C13.6869 5.25228 14.3022 5.66384 15.0646 6.09695C16.1574 6.36781 16.9589 7.39671 15.6824 8.1103C15.1495 9.78174 14.1983 10.3868 12.4395 10.4882Z" fill="#985324"/>
<path d="M15.0646 6.09695C16.1574 6.36781 16.9589 7.39671 15.6824 8.1103L15.6387 7.52572C15.6243 7.70726 15.6069 7.82647 15.576 8.00619C15.3371 8.06799 14.4001 7.63829 14.1823 7.47397C14.0647 6.80604 14.6367 6.98838 14.9714 6.79703C15.0815 6.73407 14.9833 6.56324 15.2212 6.33804L15.0646 6.09695Z" fill="#8A4C22"/>
<path d="M15.0646 6.09695C16.1574 6.36781 16.9589 7.39671 15.6824 8.1103L15.6387 7.52572C15.5576 6.98545 15.5443 6.7815 15.2212 6.33804L15.0646 6.09695Z" fill="#E8A749"/>
<path d="M20.7075 4.96717C21.3394 3.74747 22.4 3.4284 23.6736 3.56063C26.2342 4.00476 26.474 7.42204 23.8624 7.83323C22.1256 8.10683 20.3742 6.89316 20.7075 4.96717Z" fill="#8A4C22"/>
<path d="M20.7075 4.96717C21.3394 3.74747 22.4 3.4284 23.6736 3.56063L23.5546 3.63314L24.0045 3.74815L24.03 3.82784C23.6111 4.12865 22.9136 4.54673 22.5742 4.91427C22.4413 5.05838 21.0353 4.98075 20.7075 4.96717Z" fill="#985324"/>
<path d="M30.3981 12.7111C29.5039 12.6464 28.0785 11.4362 28.1022 10.4741C28.138 9.01549 30.6148 8.6323 31.4483 9.61176C31.7367 9.95032 31.8854 10.2812 31.9479 10.7289C31.9898 11.0026 32.0517 11.2137 32.0366 11.4974C31.9255 12.4312 31.3342 12.8729 30.3981 12.7111Z" fill="#985324"/>
<path d="M31.0586 12.3313C31.3937 12.0312 31.5964 11.4182 32.0366 11.4974C31.9255 12.4312 31.3342 12.8729 30.3981 12.7111C30.3319 12.6018 30.27 12.5779 30.1625 12.5176L30.2554 12.5646L30.3301 12.4593C30.616 12.4496 30.7854 12.3987 31.0586 12.3313Z" fill="#8A4C22"/>
<path d="M23.1952 13.3316C23.3707 13.3986 23.3731 13.4131 23.4866 13.5722C23.5055 13.6898 23.5467 13.8109 23.4751 13.9096C23.1188 14.4014 21.1312 15.2371 20.6134 15.4245C20.3068 15.2517 20.2237 15.0201 20.3335 14.6957C20.648 14.4822 21.419 14.22 21.8184 14.0232C22.2792 13.7958 22.7339 13.5087 23.1952 13.3316Z" fill="#5E280D"/>
<path d="M11.9974 12.9386C12.5188 12.9426 13.1464 13.6068 13.6143 13.8841C13.9018 14.0545 14.5614 14.447 14.7739 14.6676C14.7321 14.8528 14.6905 14.8365 14.5205 14.9963C14.3896 15.0679 14.21 15.1266 14.0692 15.056C13.3753 14.7083 11.5702 13.9487 11.9974 12.9386Z" fill="#652B10"/>
<path d="M15.5962 13.3194C16.1533 13.5302 16.0826 14.2389 15.8277 14.6714L15.6154 14.6777L15.5217 14.575C15.4738 14.2657 15.4174 13.5763 15.5962 13.3194Z" fill="#5E280D"/>
<path d="M17.7693 13.8101C18.0698 13.8258 18.0133 13.7784 18.2228 13.9273C18.3314 14.1543 18.2689 14.4651 18.247 14.7327C18.0419 14.7394 18.0206 14.7489 17.8391 14.6669C17.6345 14.3658 17.7153 14.1886 17.7693 13.8101Z" fill="#6F3A1D"/>
<path d="M18.7497 13.6558C18.8996 13.6766 18.9209 13.6643 19.0302 13.7694C19.1643 14.0942 19.191 14.4633 19.0745 14.7967C18.519 14.6332 18.6222 14.1048 18.7497 13.6558Z" fill="#5E280D"/>
<path d="M16.8924 13.4824C17.28 13.7091 17.1445 14.3318 16.9753 14.6595L16.8047 14.605C16.5672 14.3371 16.7325 13.7585 16.8924 13.4824Z" fill="#5E280D"/>
<path d="M3.17826 14.9261C3.44914 15.1491 3.72195 15.3655 3.97097 15.6131L4.05353 15.6488C4.58101 15.8261 5.14849 16.3992 5.58801 16.5925C6.48635 17.3149 6.66349 17.3479 7.54113 17.9469C7.46403 19.5971 7.58593 20.4229 8.73237 21.7111C10.1488 23.3027 12.8188 23.3235 14.3487 21.8799C15.2312 21.0473 15.4442 20.393 15.6678 19.2251C16.6145 18.9431 17.6193 18.9373 18.5069 19.4164C18.5482 19.4387 18.5894 19.4615 18.6301 19.4849C18.7892 20.8929 19.0156 21.8 20.1587 22.739C21.3443 23.7136 22.8116 24.0432 24.2831 23.517C24.9041 23.2681 26.023 22.3745 26.369 21.7912C26.7132 20.9942 26.8534 20.5694 26.9026 19.7072C28.0002 19.4443 29.2204 19.0576 30.2991 18.7118C31.149 18.4391 31.8939 18.0944 32.7832 17.8861C33.2124 19.6265 33.9956 19.338 34.9432 20.2345C35.4786 20.3158 35.8787 20.3687 36.4232 20.337C36.2866 21.2152 35.8841 22.1488 35.716 23.0333C35.6037 23.6223 35.7773 24.2763 35.6565 24.8536C35.4847 25.676 34.86 26.4181 34.3282 27.0458C34.1413 27.2659 33.8832 27.4542 33.7357 27.6984C32.7122 27.9578 31.4465 28.1766 30.4752 28.4594C30.3088 28.4882 29.8402 28.5593 29.7079 28.6101C29.1888 28.707 28.6795 28.8116 28.1538 28.8617C26.7393 29.0778 20.7949 29.7382 19.9778 30.1454C19.2882 30.4887 18.7667 31.0969 18.2604 31.6607C18.0643 31.847 17.5435 32.2312 17.2915 32.4443C17.0329 32.1697 16.8106 31.9085 16.5673 31.6199C16.039 31.0513 15.3479 30.2635 14.8979 29.6369C13.9056 29.3183 12.9022 29.0974 11.919 28.75C11.7426 28.4236 11.6864 27.9904 11.5024 27.7175C10.9651 26.921 10.4536 26.9829 10.2151 26.0029C10.0704 25.7323 9.92835 25.4523 9.79286 25.1891C9.21833 24.0734 9.11064 22.8815 8.13411 22.0109C7.78857 21.7028 7.39209 20.7638 6.8563 20.694C6.44719 20.915 6.55835 21.5544 6.53394 21.9402C6.46146 23.0856 6.48058 23.8233 6.9669 24.8791C7.18666 25.3561 7.40842 26.1047 7.57901 26.6369L6.99392 27.0184C6.52642 26.8595 6.08489 26.582 5.63069 26.3803C4.68154 25.9587 3.72389 25.5457 2.79842 25.0729C2.73201 24.8445 2.69704 24.6544 2.65188 24.4226C2.20854 22.6642 1.7312 20.9154 2.26329 19.1235C2.58534 18.039 3.02874 17.0575 3.05393 15.9222C3.06073 15.6165 3.13018 15.2302 3.17826 14.9261Z" fill="#F3C264"/>
<path d="M24.2831 23.517C24.9041 23.2681 26.023 22.3745 26.369 21.7912C26.6452 22.1838 27.9577 22.4131 27.8296 23.4365C27.7142 24.3544 26.5766 24.8518 25.7686 24.738C25.2502 24.668 24.7839 24.3859 24.4804 23.9587C24.362 23.7948 24.3305 23.709 24.2831 23.517Z" fill="#E8A749"/>
<path d="M3.17826 14.9261C3.44914 15.1491 3.72195 15.3655 3.97097 15.6131C3.89314 16.3266 3.83893 16.9317 3.61383 17.621C3.3443 18.4462 2.96992 19.1147 2.87018 19.9891C2.76813 20.8837 2.7195 21.6699 2.72733 22.565C2.7317 23.0663 2.95589 23.9555 2.8034 24.3172L2.65188 24.4226C2.20854 22.6642 1.7312 20.9154 2.26329 19.1235C2.58534 18.039 3.02874 17.0575 3.05393 15.9222C3.06073 15.6165 3.13018 15.2302 3.17826 14.9261Z" fill="#F9D9A1"/>
<path d="M10.2151 26.0029C11.4153 26.2194 12.544 27.5625 11.919 28.75C11.7426 28.4236 11.6864 27.9904 11.5024 27.7175C10.9651 26.921 10.4536 26.9829 10.2151 26.0029Z" fill="#8A4C22"/>
<path d="M28.1538 28.8617C28.5745 28.1292 28.7038 27.8842 29.5767 27.8439C29.4881 28.2607 29.6344 28.2884 29.7079 28.6101C29.1888 28.707 28.6795 28.8116 28.1538 28.8617Z" fill="#985324"/>
<path d="M16.5673 31.6199C17.0468 31.5627 17.8288 31.4421 18.2604 31.6607C18.0643 31.847 17.5435 32.2312 17.2915 32.4443C17.0329 32.1697 16.8106 31.9085 16.5673 31.6199Z" fill="#E8A749"/>
<path d="M4.05353 15.6488C4.58101 15.8261 5.14849 16.3992 5.58801 16.5925C4.80678 16.8694 4.11812 16.5088 4.05353 15.6488Z" fill="#8A4C22"/>
<path d="M29.5767 27.8439C30.046 27.9641 30.2129 28.0261 30.4752 28.4594C30.3088 28.4882 29.8402 28.5593 29.7079 28.6101C29.6344 28.2884 29.4881 28.2607 29.5767 27.8439Z" fill="#8A4C22"/>
<path d="M16.5156 21.6225C17.2452 21.5593 18.9452 22.3676 18.9033 23.2185L18.8074 23.2985C18.4893 23.3415 18.0844 22.9155 17.7177 22.6874C16.0178 21.7149 15.8683 23.1371 15.1167 22.8061C14.9091 22.202 16.0778 21.7555 16.5156 21.6225Z" fill="#652B10"/>
<path d="M32.8257 21.3769C32.9684 21.3722 33.085 21.3705 33.224 21.4124C33.3411 21.447 33.4395 21.528 33.4959 21.6368C33.757 22.1521 33.0315 22.7685 32.6011 22.9651C31.3767 22.9956 31.8107 21.7105 32.8257 21.3769Z" fill="#B2662D"/>
<path d="M5.70312 18.314C5.7688 18.3156 5.83442 18.3199 5.89974 18.3268C6.64413 18.403 6.62531 19.1659 5.95444 19.5939C4.89936 19.5784 5.19713 18.8514 5.70312 18.314Z" fill="#E8A749"/>
<path d="M33.9391 23.7432C34.1965 23.7388 34.2372 23.7208 34.4472 23.8471C34.7143 24.2446 34.3489 24.4665 34.0532 24.6783C33.7922 24.6772 33.7066 24.6638 33.5245 24.4983C33.3897 24.0937 33.6167 23.9419 33.9391 23.7432Z" fill="#E8A749"/>
<path d="M20.2825 30.6391C21.7437 30.448 23.3846 30.384 24.8173 30.1314C27.7901 29.6071 30.8072 29.1544 33.7564 28.5092C34.6148 28.3215 35.5169 28.0261 36.3607 27.7862C36.5325 28.4429 36.7425 28.6839 36.9896 29.2843C36.7304 29.3822 36.4991 29.441 36.303 29.6306L36.3303 29.7105C36.6126 29.7559 36.8281 29.6738 37.1092 29.6026C37.7223 29.4709 38.5376 29.1659 39.1914 28.9841L39.1641 32.0686C39.1641 34.3687 39.3037 35.5163 37.5147 37.3976C36.473 38.4934 36.0748 38.5336 34.9183 39.224C35.0118 38.4234 34.9802 38.0855 34.8624 37.2831C34.5535 35.7185 33.7127 34.2597 32.2727 33.4908C32.7511 33.2418 34.1516 32.1453 34.1109 31.5779C33.7922 31.5371 33.2422 32.0765 32.9587 32.2659C32.4202 32.6245 31.866 33.0811 31.3038 33.3946C30.65 33.7599 30.0253 33.8451 29.4814 34.4266C29.3989 34.5081 29.3035 34.5288 29.1961 34.5617C29.0929 34.6737 29.099 34.7383 29.0759 34.8899C28.8233 34.9672 28.5696 35.0415 28.3146 35.1115C28.1374 35.2947 27.9965 35.3343 27.764 35.436C27.4568 35.5376 27.3646 35.6168 27.0999 35.8013L26.9275 35.8475L26.9657 35.9468C26.7854 36.4509 26.3471 36.7145 26.2973 36.8411C26.2433 36.9763 26.321 37.341 26.2822 37.5297C26.2743 37.797 26.2202 38.508 26.3344 38.7035C27.0106 40.1677 27.3919 40.4696 29.0152 40.8106C29.21 40.9336 29.4274 40.8228 29.7971 40.8812C30.1358 40.8197 30.4946 40.7479 30.8346 40.7077C30.9378 40.9421 31.0507 41.1874 31.1448 41.4255C29.5603 41.8121 27.7841 42.4239 26.2415 42.984C26.0673 43.0474 25.5094 43.2075 25.4098 43.2641C25.269 43.392 25.2204 43.4328 25.062 43.5363C25.1779 43.5929 25.1803 43.588 25.3096 43.6063L25.136 43.6885C25.0152 44.0397 25.1002 47.4059 25.1026 48.0244C25.0935 48.2929 25.0492 48.9011 25.1312 49.1197C24.977 49.1915 24.8604 49.1751 24.6898 49.1757C22.7855 49.3839 19.2311 49.594 17.2879 49.3778C17.3182 45.3402 17.3795 41.3031 17.4724 37.2667C17.5125 35.9407 17.433 34.278 17.5902 33.0074C18.4662 32.3121 19.1831 31.5992 20.016 30.8577L20.2825 30.6391Z" fill="#FDFDFD"/>
<path d="M20.2825 30.6391C21.7437 30.448 23.3846 30.384 24.8173 30.1314C27.7901 29.6071 30.8072 29.1544 33.7564 28.5092C34.6148 28.3215 35.5169 28.0261 36.3607 27.7862C36.5325 28.4429 36.7425 28.6839 36.9896 29.2843C36.7304 29.3822 36.4991 29.441 36.303 29.6306L36.3303 29.7105C36.6126 29.7559 36.8281 29.6738 37.1092 29.6026C37.7223 29.4709 38.5376 29.1659 39.1914 28.9841L39.1641 32.0686C39.1641 34.3687 39.3037 35.5163 37.5147 37.3976C36.473 38.4934 36.0748 38.5336 34.9183 39.224C35.0118 38.4234 34.9802 38.0855 34.8624 37.2831C34.5535 35.7185 33.7127 34.2597 32.2727 33.4908C32.7511 33.2418 34.1516 32.1453 34.1109 31.5779C33.7922 31.5371 33.2422 32.0765 32.9587 32.2659C32.4202 32.6245 31.866 33.0811 31.3038 33.3946C30.65 33.7599 30.0253 33.8451 29.4814 34.4266C29.3989 34.5081 29.3035 34.5288 29.1961 34.5617C29.0929 34.6737 29.099 34.7383 29.0759 34.8899C28.9806 34.2013 28.5538 32.7115 28.3705 31.9578C28.0542 32.0857 26.9111 32.3809 26.5183 32.4966C26.3344 32.3529 26.3666 32.4175 26.2901 32.222C25.8311 32.3091 24.0196 32.8375 23.6087 33.0232C22.7873 33.408 21.6515 33.6254 20.7864 33.9377L20.1526 34.0613C19.8606 34.208 19.6214 34.0266 19.4053 34.1849L19.4964 34.253L19.2815 34.362C19.1443 34.2957 19.0963 34.2263 18.9834 34.1167C18.9367 33.9839 18.9561 33.9772 18.9956 33.8366C19.2499 33.5219 20.5836 33.0342 21.1197 32.7462C20.6061 32.0467 20.3827 31.6217 20.016 30.8577L20.2825 30.6391Z" fill="#FDFDFD"/>
<path d="M37.1092 29.6026C37.7223 29.4709 38.5376 29.1659 39.1914 28.9841L39.1641 32.0686C39.1641 34.3687 39.3037 35.5163 37.5147 37.3976C36.473 38.4934 36.0748 38.5336 34.9183 39.224C35.0118 38.4234 34.9802 38.0855 34.8624 37.2831C37.2719 35.814 38.6111 33.3672 37.5912 30.5429C37.4765 30.2257 37.2585 29.9157 37.1092 29.6026Z" fill="#D9D9E2"/>
<path d="M20.016 30.8577L20.2825 30.6391C20.4798 30.8759 21.5489 32.3529 21.6921 32.5958C22.6191 32.2537 23.5419 31.9627 24.4725 31.6388C25.1688 31.3959 25.6909 31.1122 26.4285 30.9496L26.5547 31.0312C26.5717 31.268 26.6015 31.1913 26.4728 31.3405C26.837 31.419 27.452 31.6047 27.7792 31.7776C27.3488 31.8988 26.7757 32.0765 26.3508 32.1727L26.2901 32.222C25.8311 32.3091 24.0196 32.8375 23.6087 33.0232C22.7873 33.408 21.6515 33.6254 20.7864 33.9377L20.1526 34.0613C19.8606 34.208 19.6214 34.0266 19.4053 34.1849L19.4964 34.253L19.2815 34.362C19.1443 34.2957 19.0963 34.2263 18.9834 34.1167C18.9367 33.9839 18.9561 33.9772 18.9956 33.8366C19.2499 33.5219 20.5836 33.0342 21.1197 32.7462C20.6061 32.0467 20.3827 31.6217 20.016 30.8577Z" fill="#652B10"/>
<path d="M22.8249 32.6506L22.8856 32.6543C23.2863 32.6762 23.3695 32.566 23.7058 32.6299C23.7987 32.7633 23.7811 32.6914 23.7647 32.8503L23.6087 33.0232C22.7873 33.408 21.6515 33.6254 20.7864 33.9377L20.1526 34.0613C19.9402 34.04 19.8236 34.068 19.69 33.9462L19.7429 33.8512C20.2 33.6047 22.3569 32.7706 22.8249 32.6506Z" fill="#D9D9E2"/>
<path d="M24.8319 31.928C26.006 31.7033 25.4638 32.0978 26.3508 32.1727L26.2901 32.222C25.8311 32.3091 24.0196 32.8375 23.6087 33.0232L23.7647 32.8503C23.7811 32.6914 23.7987 32.7633 23.7058 32.6299C23.3695 32.566 23.2863 32.6762 22.8856 32.6543L22.8249 32.6506C23.4284 32.4108 24.2115 32.0881 24.8319 31.928Z" fill="#FDFDFD"/>
<path d="M26.4728 31.3405C26.837 31.419 27.452 31.6047 27.7792 31.7776C27.3488 31.8988 26.7757 32.0765 26.3508 32.1727C25.4638 32.0978 26.006 31.7033 24.8319 31.928C25.3248 31.7131 26.1814 31.5913 26.4728 31.3405Z" fill="#D9D9E2"/>
<path d="M28.1283 31.626C28.3365 31.5286 28.8288 31.587 29.1166 31.5243C29.8183 31.3721 34.0975 30.0528 34.4126 30.3992C34.2845 30.7055 33.9561 30.7444 33.6598 30.8345C33.1238 32.0674 29.4766 32.0254 28.9775 32.5545L28.9739 32.9624C29.0947 33.5206 29.2519 33.903 29.4814 34.4266C29.3989 34.5081 29.3035 34.5288 29.1961 34.5617C29.0929 34.6737 29.099 34.7383 29.0759 34.8899C28.9806 34.2013 28.5538 32.7115 28.3705 31.9578C28.0542 32.0857 26.9111 32.3809 26.5183 32.4966C26.3344 32.3529 26.3666 32.4175 26.2901 32.222L26.3508 32.1727C26.7757 32.0765 27.3488 31.8988 27.7792 31.7776C27.9443 31.7252 27.9729 31.7082 28.1283 31.626Z" fill="#652B10"/>
<path d="M28.7457 32.1064C30.542 31.7575 31.9188 31.3399 33.6598 30.8345C33.1238 32.0674 29.4766 32.0254 28.9775 32.5545L28.9739 32.9624C28.9047 32.6707 28.827 32.3943 28.7457 32.1064Z" fill="#D9D9E2"/>
<path d="M26.4285 30.9496C27.0119 30.8315 27.7586 31.1651 28.1283 31.626C27.9729 31.7082 27.9443 31.7252 27.7792 31.7776C27.452 31.6047 26.837 31.419 26.4728 31.3405C26.6015 31.1913 26.5717 31.268 26.5547 31.0312L26.4285 30.9496Z" fill="#6F3A1D"/>
<path d="M20.016 30.8577C20.3827 31.6217 20.6061 32.0467 21.1197 32.7462C20.5836 33.0342 19.2499 33.5219 18.9956 33.8366C18.9561 33.9772 18.9367 33.9839 18.9834 34.1167C19.0963 34.2263 19.1443 34.2957 19.2815 34.362C19.4326 34.5294 19.5219 34.7444 19.5874 34.9593C19.9371 36.0971 20.2352 37.2618 20.5521 38.4119C20.889 39.6344 21.2441 40.8124 21.6193 42.0252C21.762 42.4879 21.8384 43.1265 22.0291 43.5801C22.0867 43.7177 22.4394 43.7719 22.5942 43.8053C22.3593 44.0671 22.2925 43.9283 21.969 43.9466C22.5178 44.1591 23.1655 44.2668 23.7343 44.0647L24.6164 43.837L24.6898 49.1757C22.7855 49.3839 19.2311 49.594 17.2879 49.3778C17.3182 45.3402 17.3795 41.3031 17.4724 37.2667C17.5125 35.9407 17.433 34.278 17.5902 33.0074C18.4662 32.3121 19.1831 31.5992 20.016 30.8577Z" fill="#FDFDFD"/>
<path d="M18.9834 34.1167C19.0963 34.2263 19.1443 34.2957 19.2815 34.362C19.4326 34.5294 19.5219 34.7444 19.5874 34.9593C19.9371 36.0971 20.2352 37.2618 20.5521 38.4119C20.889 39.6344 21.2441 40.8124 21.6193 42.0252C21.762 42.4879 21.8384 43.1265 22.0291 43.5801C22.0867 43.7177 22.4394 43.7719 22.5942 43.8053C22.3593 44.0671 22.2925 43.9283 21.969 43.9466C21.9004 43.9344 21.8585 43.893 21.7917 43.8498C21.6132 43.5296 21.4366 42.7484 21.3109 42.3551C20.7658 40.6553 20.3275 38.9373 19.8703 37.2137C19.5966 36.183 19.1261 35.1888 18.9834 34.1167Z" fill="#5E280D"/>
<path d="M20.1526 34.0613L20.7864 33.9377C20.8161 33.9803 20.8896 34.0795 20.909 34.1203L20.5982 34.2597C20.9625 35.6003 21.3862 36.8314 21.7492 38.2018C22.1122 39.6009 22.4947 40.9944 22.8954 42.3825C23.0077 42.7606 23.2086 43.5125 23.3403 43.8614L22.5942 43.8053C22.4394 43.7719 22.0867 43.7177 22.0291 43.5801C21.8384 43.1265 21.762 42.4879 21.6193 42.0252C21.2441 40.8124 20.889 39.6344 20.5521 38.4119C20.2352 37.2618 19.9371 36.0971 19.5874 34.9593C19.5219 34.7444 19.4326 34.5294 19.2815 34.362L19.4964 34.253L19.4053 34.1849C19.6214 34.0266 19.8606 34.208 20.1526 34.0613Z" fill="#709191"/>
<path d="M20.1526 34.0613L20.7864 33.9377C20.8161 33.9803 20.8896 34.0795 20.909 34.1203L20.5982 34.2597C20.1502 34.3821 19.9432 34.3669 19.4964 34.253L19.4053 34.1849C19.6214 34.0266 19.8606 34.208 20.1526 34.0613Z" fill="#5E280D"/>
<path d="M20.5982 34.2597L20.909 34.1203L20.9096 34.2713C21.7219 36.7467 22.25 39.2679 23.0799 41.7335C23.2396 42.2066 23.4241 43.4589 23.619 43.7877C24.1635 43.5904 24.8477 43.4151 25.4098 43.2641C25.269 43.392 25.2204 43.4328 25.062 43.5363C25.1779 43.5929 25.1803 43.588 25.3096 43.6063L25.136 43.6885C25.0152 44.0397 25.1002 47.4059 25.1026 48.0244C25.0935 48.2929 25.0492 48.9011 25.1312 49.1197C24.977 49.1915 24.8604 49.1751 24.6898 49.1757L24.6164 43.837L23.7343 44.0647C23.1655 44.2668 22.5178 44.1591 21.969 43.9466C22.2925 43.9283 22.3593 44.0671 22.5942 43.8053L23.3403 43.8614C23.2086 43.5125 23.0077 42.7606 22.8954 42.3825C22.4947 40.9944 22.1122 39.6009 21.7492 38.2018C21.3862 36.8314 20.9625 35.6003 20.5982 34.2597Z" fill="#652B10"/>
<path d="M26.9657 35.9468C26.1972 35.8073 26.2093 34.6074 26.7593 34.2013C27.4137 33.7191 28.3735 34.0546 28.2211 34.9848L28.2108 35.0439L28.3146 35.1115C28.1374 35.2947 27.9965 35.3343 27.764 35.436C27.4568 35.5376 27.3646 35.6168 27.0999 35.8013L26.9275 35.8475L26.9657 35.9468Z" fill="#D9D9E2"/>
<path d="M26.9657 35.9468C26.1972 35.8073 26.2093 34.6074 26.7593 34.2013C27.4137 33.7191 28.3735 34.0546 28.2211 34.9848L28.2108 35.0439L28.3146 35.1115C28.1374 35.2947 27.9965 35.3343 27.764 35.436L27.6541 35.2515C27.815 35.0372 28.0554 34.7791 28.056 34.5374C27.8575 34.3066 27.5892 34.2287 27.2972 34.1593C27.0714 34.2104 27.061 34.2202 26.8625 34.3468L26.8176 34.4667L26.8698 34.5276C26.9779 34.6543 27.0283 34.703 27.0192 34.8497L26.7089 34.6585L26.6203 34.6859C26.4807 35.1462 26.627 35.6174 27.0999 35.8013L26.9275 35.8475L26.9657 35.9468Z" fill="#8A4C22"/>
<path d="M26.7618 35.1334C27.0131 35.2503 27.0969 35.271 27.3597 35.1638L27.5036 35.2412C27.3008 35.4421 27.2419 35.5121 26.9512 35.4743C26.7727 35.2935 26.8267 35.3794 26.7618 35.1334Z" fill="#8A4C22"/>
<path d="M23.6087 33.0232C24.0196 32.8375 25.8311 32.3091 26.2901 32.222C26.3666 32.4175 26.3344 32.3529 26.5183 32.4966C26.3799 32.5307 25.6423 32.728 25.5853 32.7718C25.1136 33.1328 21.1124 34.0521 20.9096 34.2713L20.909 34.1203C20.8896 34.0795 20.8161 33.9803 20.7864 33.9377C21.6515 33.6254 22.7873 33.408 23.6087 33.0232Z" fill="#6F3A1D"/>
<path d="M26.2822 37.5297C26.2743 37.797 26.2202 38.508 26.3344 38.7035C25.7898 38.7899 25.663 39.2916 25.1051 39.1053C24.9582 38.9488 25.0049 39.0402 24.9727 38.8167C25.1749 38.1762 25.7437 38.3388 26.2203 38.4983C26.2203 38.2505 26.1917 37.7269 26.2822 37.5297Z" fill="#966B54"/>
<path d="M25.377 38.5263C25.5592 38.547 25.6296 38.5354 25.7631 38.6596C25.7134 38.8447 25.6933 38.807 25.4991 38.9549C25.3084 38.9641 25.2441 38.9951 25.1148 38.8672C25.1888 38.6462 25.1797 38.7047 25.377 38.5263Z" fill="#FDFDFD"/>
<path d="M29.0152 40.8106C29.21 40.9336 29.4274 40.8228 29.7971 40.8812C29.7103 41.0462 29.7 41.0967 29.5379 41.1911C29.0121 41.171 28.6388 41.4346 28.385 41.3737C28.4093 41.1552 28.878 41.0827 29.0152 40.8106Z" fill="#8A4C22"/>
<path d="M24.0251 35.8664L24.1283 35.8841C24.3341 36.2104 24.7105 37.414 24.7451 37.7872C24.5903 38.0874 23.5904 38.3358 23.1977 38.4691C22.8935 38.3352 22.4552 36.9586 22.4309 36.6207C22.6015 36.2981 23.659 35.9803 24.0251 35.8664Z" fill="#8A4C22"/>
<path d="M24.1265 36.6737L24.3535 37.2752C24.4938 37.5705 24.518 37.498 24.4482 37.7355C24.1435 38.0606 23.6378 38.1446 23.194 38.2743C23.1394 38.0825 23.0587 37.7653 22.9955 37.5857C22.9579 37.4122 22.885 37.1967 22.8322 37.0225C23.2632 36.9038 23.6943 36.7875 24.1265 36.6737Z" fill="#FDFDFD"/>
<path d="M24.1265 36.6737L24.3535 37.2752L24.2576 37.2746C23.8041 37.4274 23.5704 37.5023 23.1042 37.5881L22.9955 37.5857C22.9579 37.4122 22.885 37.1967 22.8322 37.0225C23.2632 36.9038 23.6943 36.7875 24.1265 36.6737Z" fill="#FDFDFD"/>
<path d="M23.1042 37.5881C23.1188 37.1565 23.4982 37.1151 23.8733 37.067C24.0627 37.042 24.1265 37.1498 24.2576 37.2746C23.8041 37.4274 23.5704 37.5023 23.1042 37.5881Z" fill="#985324"/>
<path d="M23.9353 36.1075C24.0658 36.2232 24.0506 36.2615 24.0269 36.3985C23.7197 36.6432 23.1169 36.7394 22.7181 36.8265C22.6398 36.7534 22.6701 36.7991 22.6367 36.6822C22.7794 36.5422 23.5413 36.32 23.8642 36.1458L23.9353 36.1075Z" fill="#FDFDFD"/>
<path d="M25.5628 39.8846C25.6599 39.8688 25.6332 39.8761 25.7358 39.9004C27.0623 41.6989 26.3799 41.4462 24.6473 41.9765C24.6249 41.9838 24.5624 42.15 24.3966 42.2182L23.9535 41.6958C24.4367 41.6313 25.961 41.3482 26.1911 40.95C26.1407 40.799 25.7395 40.1981 25.6605 40.1859C25.3813 40.1433 24.1963 40.5518 23.9092 40.6395L23.8624 40.7875C23.9474 41.0444 23.9444 41.1132 23.9371 41.3737L23.9346 41.448C23.9644 41.6307 24.0002 41.8121 24.0433 41.9917C24.2734 42.9335 25.5762 42.2036 26.2415 42.0002C26.3083 41.8121 26.3143 41.7543 26.4437 41.61L26.5056 41.6495C26.5286 41.8547 26.5104 41.8815 26.4515 42.0854C26.2045 42.2425 24.3863 42.8489 24.1417 42.8026C23.8885 42.4246 23.5734 40.9299 23.6797 40.5464C24.0269 40.3461 25.1154 40.0289 25.5628 39.8846Z" fill="#8A4C22"/>
<path d="M22.434 34.3456C22.9245 34.2896 23.1588 34.3212 23.3422 34.9124C23.3913 35.0707 23.3506 35.4128 23.2638 35.5559L22.9512 35.6107C22.2245 35.9121 21.9471 34.9891 22.434 34.3456Z" fill="#8A4C22"/>
<path d="M22.6015 34.4935C22.9026 34.5069 22.9779 34.4984 23.1157 34.776C23.1218 35.0646 23.0143 35.2515 22.9014 35.52C22.2464 35.4116 22.2628 34.9489 22.6015 34.4935Z" fill="#FDFDFD"/>
<path d="M25.4651 33.7489C25.598 33.8476 25.4238 34.1404 25.3874 34.3407C25.4754 34.527 25.4499 34.468 25.7055 34.5696L25.7389 34.6731C25.6448 34.7931 25.3789 34.8472 25.218 34.8972L25.1366 34.9447L25.0589 34.9124L25.1045 34.692C25.1888 34.2944 25.221 34.2567 24.9618 33.9693C25.051 33.8531 25.2975 33.8056 25.4651 33.7489Z" fill="#8A4C22"/>
<path d="M24.0397 34.2488C24.359 34.4223 24.3499 34.9246 24.1259 35.2058C23.9134 35.3032 24.0202 35.2959 23.7932 35.2198C23.5983 35.0293 23.5898 34.9227 23.5103 34.6622C23.4842 34.5568 23.486 34.5228 23.4769 34.4138L23.5394 34.3937C23.7052 34.6238 23.8739 35.0372 23.9947 35.3093C24.0318 34.9861 24.0111 34.6031 24.0397 34.2488Z" fill="#8A4C22"/>
<path d="M25.2089 36.9428C25.4918 36.9525 25.6023 36.9446 25.7443 37.2034C25.6951 37.4834 25.7158 37.389 25.4972 37.6539C25.2192 37.6721 25.1433 37.632 25.0359 37.383C25.0353 37.1565 25.0693 37.1376 25.2089 36.9428Z" fill="#966B54"/>
<path d="M27.8035 33.0074C27.948 32.9733 27.8818 32.966 28.0093 33.0171L28.0317 33.1109C27.832 33.3392 26.7527 33.5651 26.4006 33.6558L26.2937 33.7082L26.2579 33.6467L26.3496 33.5322C26.8413 33.4001 27.3275 33.1949 27.8035 33.0074Z" fill="#8A4C22"/>
<path d="M26.8419 41.1278C27.0416 41.2483 26.9785 41.2112 27.0744 41.4973C27.2164 41.6246 27.1357 41.5941 27.3251 41.5911C27.4751 41.4827 27.5394 41.4115 27.7227 41.3969L27.846 41.5016C27.5285 41.7055 27.3069 41.8821 26.9682 41.6629C26.8431 41.4511 26.8583 41.3835 26.8419 41.1278Z" fill="#966B54"/>
<path d="M24.5387 33.9943C24.6212 34.0211 24.637 34.0375 24.7129 34.0814C24.8398 34.4089 24.7924 34.6457 24.7305 34.9873L24.6061 34.8795C24.4895 34.5757 24.4974 34.3139 24.5387 33.9943Z" fill="#755315"/>
<path d="M10.4978 32.1679C10.8459 32.331 11.822 32.6385 11.9274 32.8814C11.8159 33.338 11.8703 33.6801 11.7939 34.06C11.7919 38.8076 11.2594 43.7232 11.2287 48.5876C8.44875 47.9106 4.71973 46.7277 2.39211 45.0625C2.4629 42.8927 2.64787 40.4343 2.80753 38.2523L2.82537 37.5662C5.82823 37.9352 7.99527 35.6381 9.75388 33.5419C10.212 33.1091 9.69433 32.8905 10.4978 32.1679Z" fill="#FDFDFD"/>
<path d="M10.4978 32.1679C10.8459 32.331 11.822 32.6385 11.9274 32.8814C11.8159 33.338 11.8703 33.6801 11.7939 34.06C11.7539 33.6978 11.7904 33.3301 11.8144 32.966C11.5155 32.9435 11.1861 32.9003 10.8854 32.8668C10.7302 33.296 10.6403 33.5103 10.4289 33.9133C8.83466 36.1178 6.88234 37.453 4.17543 38.0801C3.7979 38.1671 3.00598 37.9899 2.80753 38.2523L2.82537 37.5662C5.82823 37.9352 7.99527 35.6381 9.75388 33.5419C10.212 33.1091 9.69433 32.8905 10.4978 32.1679Z" fill="#D9D9E2"/>
<path d="M31.299 40.5372C31.4896 40.5981 31.8654 40.7199 32.0554 40.7235C32.9927 40.7418 34.5146 40.1841 35.3451 39.7445C36.0663 39.3622 37.3623 38.505 37.9069 37.9272C38.3415 37.4664 38.7823 36.8722 39.254 36.3827C39.3693 38.8399 39.5654 41.2964 39.6868 43.7542C39.7044 44.1146 39.7257 44.4659 39.7742 44.8239C38.5158 45.6367 36.6685 46.5651 35.2595 47.0126C34.4011 47.2981 33.2325 47.7383 32.3887 47.9599C30.0903 48.5632 27.5054 48.8731 25.1312 49.1197C25.0492 48.9011 25.0935 48.2929 25.1026 48.0244C25.1002 47.4059 25.0152 44.0397 25.136 43.6885L25.3096 43.6063C26.627 43.2586 27.7294 42.9213 29.0037 42.4172C29.7358 42.1274 30.6907 41.9144 31.4617 41.6593C31.4034 41.2861 31.3487 40.9116 31.299 40.5372Z" fill="#FDFDFD"/>
<path d="M31.299 40.5372C31.4896 40.5981 31.8654 40.7199 32.0554 40.7235C32.9927 40.7418 34.5146 40.1841 35.3451 39.7445C36.0663 39.3622 37.3623 38.505 37.9069 37.9272C38.3415 37.4664 38.7823 36.8722 39.254 36.3827C39.3693 38.8399 39.5654 41.2964 39.6868 43.7542C39.7044 44.1146 39.7257 44.4659 39.7742 44.8239C38.5158 45.6367 36.6685 46.5651 35.2595 47.0126C35.1757 46.3167 35.1727 45.023 35.1411 44.2693C35.0925 43.1089 34.9657 41.7335 34.9681 40.5981C33.8857 41.0419 32.881 41.3969 31.7555 41.7086C31.5139 41.7756 31.3779 42.1755 31.1005 42.2255C30.0205 42.7028 29.068 43.0833 27.951 43.4547C27.1855 43.7092 25.8439 44.0081 25.1882 44.296C24.983 44.8823 25.3394 47.6561 25.1026 48.0244C25.1002 47.4059 25.0152 44.0397 25.136 43.6885L25.3096 43.6063C26.627 43.2586 27.7294 42.9213 29.0037 42.4172C29.7358 42.1274 30.6907 41.9144 31.4617 41.6593C31.4034 41.2861 31.3487 40.9116 31.299 40.5372Z" fill="#D9D9E2"/>
<path d="M14.5981 30.3664C14.8083 30.507 15.0725 30.7791 15.2219 30.9861C15.6045 31.528 16.9692 32.9197 16.9891 33.1645C17.1165 34.7334 16.9908 36.9008 16.9593 38.4892C16.885 42.1086 16.8346 45.7292 16.8079 49.3498C15.1948 49.1623 13.3478 48.9504 11.7579 48.6789C11.7832 44.8294 12.0868 40.8435 12.2074 36.9897C12.2438 35.8256 12.3395 34.6165 12.3445 33.4579C12.3448 33.3934 12.3456 32.9709 12.4041 32.9477C13.3891 32.5563 14.0778 31.5499 14.7856 30.7213C14.7489 30.5715 14.6588 30.563 14.4856 30.4473L14.5981 30.3664Z" fill="#FDFDFD"/>
<path d="M14.5981 30.3664C14.8083 30.507 15.0725 30.7791 15.2219 30.9861L15.1644 31.0458C14.5652 31.6771 13.7138 32.6525 12.9976 33.2339C12.9133 33.3021 12.5519 33.3325 12.4252 33.3398L12.3445 33.4579C12.3448 33.3934 12.3456 32.9709 12.4041 32.9477C13.3891 32.5563 14.0778 31.5499 14.7856 30.7213C14.7489 30.5715 14.6588 30.563 14.4856 30.4473L14.5981 30.3664Z" fill="#D9D9E2"/>
<path d="M15.4814 36.3516C15.9682 36.3839 16.555 36.6073 16.4561 37.2082C16.3943 37.5833 16.1239 37.7038 15.8286 37.9029C15.1044 38.0648 14.5225 36.9702 15.4814 36.3516Z" fill="#652B10"/>
<path d="M15.5732 36.7687C15.7461 36.7291 15.9199 36.8314 15.9694 37.0025C16.0189 37.1729 15.9271 37.3531 15.7599 37.4128C15.6427 37.4542 15.5121 37.4274 15.4207 37.3428C15.3292 37.2588 15.292 37.1303 15.324 37.0098C15.3559 36.8892 15.4519 36.7961 15.5732 36.7687Z" fill="#FDFDFD"/>
<path d="M15.3059 42.9792C15.7454 42.9554 16.2588 43.121 16.3197 43.6203C16.3673 44.0105 16.1049 44.2376 15.8687 44.5061C15.0869 44.861 14.4389 43.6939 15.3059 42.9792Z" fill="#652B10"/>
<path d="M15.4327 43.4005C15.6048 43.3347 15.7977 43.42 15.865 43.5923C15.9324 43.7639 15.849 43.9582 15.6781 44.0276C15.505 44.097 15.3084 44.0123 15.2402 43.8382C15.1721 43.6641 15.2585 43.4675 15.4327 43.4005Z" fill="#FDFDFD"/>
<path d="M22.1657 16.0121C23.4193 15.7808 24.6996 16.2436 25.5173 17.2236C26.335 18.2037 26.5639 19.5493 26.1158 20.7457C25.6678 21.9421 24.6127 22.8042 23.3537 23.0021C21.4426 23.3027 19.6457 22.0073 19.3203 20.0949C18.9956 18.1826 20.2631 16.3634 22.1657 16.0121Z" fill="#F3C264"/>
<path d="M20.8714 17.5856C21.5841 17.5889 22.3138 17.5994 23.0259 17.6347C23.4502 17.6558 24.6449 17.5913 24.719 18.1108C24.6267 18.3882 24.4446 18.4167 24.2728 18.6438C24.7311 19.53 24.4907 20.0937 23.9771 20.8715C23.1527 21.7249 22.0011 21.7093 21.2247 20.8437C20.6875 20.2448 20.7888 19.3572 20.8981 18.6392C20.9442 18.3351 20.9248 18.2888 20.733 18.0655L20.6802 18.0044C20.6911 17.792 20.7354 17.7648 20.8714 17.5856Z" fill="#6F3A1D"/>
<path d="M22.3435 19.5108C22.5718 19.4176 22.8328 19.4565 23.0241 19.6123C23.2153 19.7681 23.3069 20.0161 23.2632 20.2594C23.2189 20.5027 23.0465 20.7027 22.8128 20.7813C22.4668 20.8974 22.091 20.7172 21.9647 20.3741C21.8378 20.0309 22.0054 19.6489 22.3435 19.5108Z" fill="#FDFDFD"/>
<path d="M8.28812 19.8994C7.78328 18.3932 8.35144 16.7346 9.67278 15.8576C10.9941 14.9805 12.7383 15.1041 13.9237 16.1586C15.109 17.2132 15.4391 18.9354 14.7282 20.3556C14.0172 21.7757 12.443 22.5391 10.8916 22.2159C9.67502 21.9624 8.68399 21.0806 8.28812 19.8994Z" fill="#F3C264"/>
<path d="M8.28812 19.8994C8.96615 19.8997 9.7001 20.3239 10.1724 20.79C10.7359 21.3461 10.7052 21.5684 10.8916 22.2159C9.67502 21.9624 8.68399 21.0806 8.28812 19.8994Z" fill="#F3C264"/>
<path d="M10.4304 16.7268C11.0832 16.8157 13.6353 17.0081 13.9402 17.3537C13.9641 17.6843 13.6889 17.7895 13.7076 17.892C13.8896 18.8891 13.8351 19.3813 13.2764 20.2807C11.3607 21.5755 9.8943 19.8089 10.3924 18.0083C10.4906 17.6532 10.4789 17.5387 10.2609 17.2561C10.2466 17.0148 10.3163 16.9645 10.4304 16.7268Z" fill="#6F3A1D"/>
<path d="M11.8914 18.7878C12.1018 18.7139 12.3356 18.7616 12.5005 18.9121C12.6653 19.0626 12.7346 19.2917 12.6809 19.5086C12.6271 19.7256 12.459 19.8956 12.2431 19.9513C11.9284 20.0324 11.6057 19.8504 11.5115 19.5385C11.4172 19.2266 11.5847 18.8956 11.8914 18.7878Z" fill="#FDFDFD"/>
<path d="M24.7645 49.8886C26.1656 49.7906 27.5734 49.6518 28.966 49.4521C29.6556 49.3535 30.5128 49.057 31.1757 48.9906C30.9888 50.4451 30.7053 52.3939 30.3513 53.8021C30.0496 55.0014 28.1355 55.3412 27.0222 55.1902L26.9542 55.1804C25.513 54.9923 25.6854 54.2246 25.5397 53.0843C25.462 52.4371 25.3157 51.8003 25.1033 51.1848C25.0104 50.8152 24.8823 50.2338 24.7645 49.8886Z" fill="#F3C264"/>
<path d="M24.7645 49.8886C26.1656 49.7906 27.5734 49.6518 28.966 49.4521C29.6556 49.3535 30.5128 49.057 31.1757 48.9906C30.9888 50.4451 30.7053 52.3939 30.3513 53.8021C30.0496 55.0014 28.1355 55.3412 27.0222 55.1902L26.9542 55.1804C27.1655 54.999 27.3767 54.957 27.6341 54.8608C28.4099 54.571 28.8756 54.0894 29.4693 53.5306C29.6295 52.9863 29.873 51.5227 29.3029 51.2152C28.4124 50.7343 26.0035 50.9534 25.1033 51.1848C25.0104 50.8152 24.8823 50.2338 24.7645 49.8886Z" fill="#E8A749"/>
<path d="M2.29049 27.764C3.113 28.2932 3.16934 28.4446 4.17039 28.9728C3.9051 29.2218 3.64243 29.4736 3.38236 29.7282C3.0356 30.0717 2.07407 31.0939 2.07109 31.5456C2.30269 31.5438 3.2261 30.6056 3.50116 30.3615C3.68638 32.4205 4.29296 33.1834 5.71981 34.4844C6.28013 35.0208 6.53571 35.1157 7.28622 35.3288C6.3205 36.0064 5.4425 36.748 4.2379 36.9306C2.85864 37.1407 1.91951 36.8569 1.10999 35.6917C-0.423338 33.1882 2.01312 30.1161 2.29049 27.764Z" fill="#FDFDFD"/>
<path d="M5.71981 34.4844C6.28013 35.0208 6.53571 35.1157 7.28622 35.3288C6.3205 36.0064 5.4425 36.748 4.2379 36.9306C2.85864 37.1407 1.91951 36.8569 1.10999 35.6917C1.20815 35.6832 2.12258 35.7209 2.30452 35.7355C3.52429 35.8347 4.72355 35.1967 5.71981 34.4844Z" fill="#D9D9E2"/>
<path d="M10.803 49.1629C12.9348 49.7504 14.4968 49.8892 16.731 50.0177C16.5099 51.2956 16.1698 52.9997 15.8684 54.277C15.0256 54.613 12.7165 54.9558 11.8311 54.8158L11.6793 54.7993C9.98093 54.6045 10.6497 53.7217 11.64 53.1007C11.4957 52.2989 11.2549 51.3753 11.0844 50.5516C10.9986 50.1163 10.909 49.5866 10.803 49.1629Z" fill="#F3C264"/>
<path d="M10.803 49.1629C12.9348 49.7504 14.4968 49.8892 16.731 50.0177C16.5099 51.2956 16.1698 52.9997 15.8684 54.277C15.0256 54.613 12.7165 54.9558 11.8311 54.8158C11.9652 54.7975 12.0765 54.7677 12.207 54.7354L11.9637 54.7403C13.9484 54.2289 14.8896 53.8739 14.7926 51.6469C13.9609 50.8231 12.4503 50.277 11.27 50.3093C11.1571 50.3124 11.1214 50.4646 11.0844 50.5516C10.9986 50.1163 10.909 49.5866 10.803 49.1629Z" fill="#E8A749"/>
<path d="M29.8554 35.2643L30.0332 35.2618C31.4793 36.1075 32.1604 38.2523 31.8538 39.8261C30.8352 40.1153 30.2506 40.2803 29.1997 40.0971C28.7195 40.0252 28.2715 39.9485 27.8466 39.7019C27.3755 39.428 27.0368 38.9726 26.9087 38.4417C26.4279 36.527 28.3401 35.6204 29.8554 35.2643Z" fill="#8A4C22"/>
<path d="M7.57452 27.337C11.0345 25.3963 12.6094 30.3432 9.14069 32.4625C8.90077 32.317 8.31149 32.012 8.14249 31.8507C7.43034 31.17 5.47249 28.7661 6.9034 27.932C7.17476 27.642 7.25235 27.5644 7.57452 27.337Z" fill="#8A4C22"/>
<path d="M7.57452 27.337L7.8123 27.2878L7.82147 27.3647C7.6433 27.5614 7.21944 27.8629 6.98141 27.9652L6.9034 27.932C7.17476 27.642 7.25235 27.5644 7.57452 27.337Z" fill="#985324"/>
<path d="M3.94554 30.0632C4.19449 29.688 5.45865 28.4896 5.8689 28.4704C5.73559 29.8014 6.78163 31.3989 7.77946 32.1843L7.85049 32.2391C8.38544 32.5557 8.85081 32.7633 9.41526 33.0214C8.76006 33.9657 8.41779 34.1313 7.683 34.9337C7.19382 34.7389 6.38358 34.3547 6.00161 33.9846C4.62314 32.9337 4.2246 31.665 3.94554 30.0632Z" fill="#FDFDFD"/>
<path d="M7.85049 32.2391C8.38544 32.5557 8.85081 32.7633 9.41526 33.0214C8.76006 33.9657 8.41779 34.1313 7.683 34.9337C7.19382 34.7389 6.38358 34.3547 6.00161 33.9846C6.72881 33.4701 7.31439 32.963 7.85049 32.2391Z" fill="#D9D9E2"/>
<path d="M31.7348 33.769C33.2027 34.7036 33.8031 35.6631 34.3586 37.3251C34.4642 38.1641 34.4211 38.7394 34.2615 39.5692C33.6368 39.8115 32.9903 40.041 32.3334 40.1823C32.4779 39.5467 32.5544 39.1102 32.4135 38.4618C32.1847 37.3391 31.7573 36.0697 30.8953 35.2746C30.6694 35.0658 30.395 34.8947 30.1455 34.6713L30.1055 34.6354C30.5359 34.362 31.2625 34.0113 31.7348 33.769Z" fill="#FDFDFD"/>
<path d="M34.3586 37.3251C34.4642 38.1641 34.4211 38.7394 34.2615 39.5692C33.6368 39.8115 32.9903 40.041 32.3334 40.1823C32.4779 39.5467 32.5544 39.1102 32.4135 38.4618C32.9593 38.3218 33.6089 38.0289 34.086 37.7275C34.3489 37.5613 34.2948 37.6003 34.3586 37.3251Z" fill="#D9D9E2"/>
<path d="M2.12185 25.3942C3.20012 26.0581 5.27465 27.0129 6.4427 27.5185C6.03706 27.5939 5.89641 27.586 5.54158 27.805C5.22851 28.0273 4.88024 28.3536 4.58745 28.6129C3.77853 27.9842 2.9772 27.6368 2.18383 27.0402C2.15263 26.6707 2.05064 25.7263 2.12185 25.3942Z" fill="#FDFDFD"/>
<path d="M36.3607 27.7862C37.3095 27.515 39.2382 27.0612 39.8726 26.4026C39.7335 27.2038 39.6316 27.6503 39.3189 28.4242C38.7228 28.6499 37.5602 29.1344 36.9896 29.2843C36.7425 28.6839 36.5325 28.4429 36.3607 27.7862Z" fill="#D9D9E2"/>
<path d="M8.12767 23.3403L8.2024 23.2786L8.5043 23.4424L8.68071 23.4887C8.86848 23.8347 9.68868 25.8836 9.68729 26.2289C9.53121 26.22 9.53843 26.209 9.40585 26.1193C9.27406 26.1778 9.34418 26.1652 9.18634 26.1358C8.79933 26.2933 8.61211 26.2206 8.42319 25.8877L8.33638 26.1291C8.35338 26.1764 8.341 26.2094 8.33517 26.2681C8.17047 26.3657 8.15961 26.3595 7.96104 26.3449C7.68415 26.1597 7.15279 24.433 7.03241 24.0166C7.16444 23.8921 7.22394 23.9255 7.44819 23.8934L7.51484 23.8589C7.84017 23.7944 7.92552 23.7483 8.19931 23.5635L8.23561 23.47L8.12767 23.3403Z" fill="#E8A749"/>
<path d="M7.44819 23.8934L7.51484 23.8589C7.6345 24.0391 8.33535 25.6152 8.42319 25.8877L8.33638 26.1291C8.35338 26.1764 8.341 26.2094 8.33517 26.2681C8.17047 26.3657 8.15961 26.3595 7.96104 26.3449C7.68415 26.1597 7.15279 24.433 7.03241 24.0166C7.16444 23.8921 7.22394 23.9255 7.44819 23.8934Z" fill="#E8A749"/>
<path d="M7.44819 23.8934L7.51484 23.8589C7.6345 24.0391 8.33535 25.6152 8.42319 25.8877L8.33638 26.1291C8.01761 25.6724 7.65204 24.4747 7.44819 23.8934Z" fill="#6F3A1D"/>
<path d="M8.12767 23.3403L8.2024 23.2786L8.5043 23.4424L8.68071 23.4887C8.86848 23.8347 9.68868 25.8836 9.68729 26.2289C9.53121 26.22 9.53843 26.209 9.40585 26.1193C9.27406 26.1778 9.34418 26.1652 9.18634 26.1358C8.98406 25.4993 8.56148 24.0165 8.19931 23.5635L8.23561 23.47L8.12767 23.3403Z" fill="#E8A749"/>
<path d="M8.12767 23.3403L8.2024 23.2786L8.5043 23.4424C8.43649 23.7416 9.24298 25.7014 9.40585 26.1193C9.27406 26.1778 9.34418 26.1652 9.18634 26.1358C8.98406 25.4993 8.56148 24.0165 8.19931 23.5635L8.23561 23.47L8.12767 23.3403Z" fill="#6F3A1D"/>
<path d="M11.82 29.3834C12.3996 29.5734 14.103 30.1125 14.5981 30.3664L14.4856 30.4473C14.2082 30.5338 12.828 32.0607 12.5317 32.3992C12.2803 32.3079 12.0081 32.1892 11.7581 32.0857C12.5438 30.8973 11.8968 30.7365 11.8246 29.4747L11.82 29.3834Z" fill="#FDFDFD"/>
<path d="M6.94948 22.1446C7.20262 22.0996 7.33284 22.0406 7.56972 21.9495C7.84272 22.2784 8.47832 22.7148 8.4337 23.1084L8.2024 23.2786L8.12767 23.3403C6.73792 24.2102 6.92453 23.1603 6.94948 22.1446Z" fill="#F9D9A1"/>
<path d="M10.9683 31.5377C11.0874 31.2138 11.4354 30.7195 11.738 30.5551L11.8538 30.6744C12.1327 31.4501 11.6966 31.9505 10.9629 32.1289C11.0886 32.3998 11.6737 32.401 11.9804 32.6464L12.0038 32.7742L11.9274 32.8814C11.822 32.6385 10.8459 32.331 10.4978 32.1679C10.6593 32.1362 10.6985 32.1411 10.8162 32.0236C10.8466 31.7983 10.852 31.7313 10.9683 31.5377Z" fill="#652B10"/>
<path d="M10.9683 31.5377C11.0874 31.2138 11.4354 30.7195 11.738 30.5551L11.8538 30.6744C11.8531 30.84 11.8902 30.9941 11.7861 31.086C11.6261 31.2278 11.1678 31.4787 10.9683 31.5377Z" fill="var(--fill-0, #B87B1F)"/>
</g>
</svg>
