<svg width="300" height="50" viewBox="0 0 300 50" fill="none" xmlns="http://www.w3.org/2000/svg">
<rect width="300" height="50" rx="15.498" fill="#03C75A"/>
<path d="M98.9826 19.7185H100.621V27.2225H98.9826V19.7185ZM98.9826 26.7885H99.8646C100.63 26.7885 101.363 26.7652 102.063 26.7185C102.763 26.6719 103.491 26.5692 104.247 26.4105L104.471 27.8105C103.677 27.9785 102.912 28.0859 102.175 28.1325C101.447 28.1792 100.677 28.2025 99.8646 28.2025H98.9826V26.7885ZM107.915 18.4445H109.511V31.3245H107.915V18.4445ZM102.567 22.5885H105.577V23.9325H102.567V22.5885ZM105.185 18.6965H106.739V30.7365H105.185V18.6965ZM120.163 18.4445H121.843V31.3525H120.163V18.4445ZM114.941 19.3685C115.585 19.3685 116.159 19.5552 116.663 19.9285C117.177 20.3019 117.573 20.8292 117.853 21.5105C118.143 22.1919 118.287 22.9992 118.287 23.9325C118.287 24.8659 118.143 25.6779 117.853 26.3685C117.573 27.0499 117.177 27.5772 116.663 27.9505C116.159 28.3239 115.585 28.5105 114.941 28.5105C114.297 28.5105 113.719 28.3239 113.205 27.9505C112.701 27.5772 112.305 27.0499 112.015 26.3685C111.735 25.6779 111.595 24.8659 111.595 23.9325C111.595 22.9992 111.735 22.1919 112.015 21.5105C112.305 20.8292 112.701 20.3019 113.205 19.9285C113.719 19.5552 114.297 19.3685 114.941 19.3685ZM114.941 20.8805C114.596 20.8805 114.293 20.9972 114.031 21.2305C113.77 21.4639 113.565 21.8092 113.415 22.2665C113.266 22.7239 113.191 23.2792 113.191 23.9325C113.191 24.5859 113.266 25.1412 113.415 25.5985C113.565 26.0559 113.77 26.4059 114.031 26.6485C114.293 26.8912 114.596 27.0125 114.941 27.0125C115.287 27.0125 115.59 26.8912 115.851 26.6485C116.113 26.4059 116.318 26.0559 116.467 25.5985C116.617 25.1412 116.691 24.5859 116.691 23.9325C116.691 23.2792 116.617 22.7239 116.467 22.2665C116.318 21.8092 116.113 21.4639 115.851 21.2305C115.59 20.9972 115.287 20.8805 114.941 20.8805ZM133.028 18.4445H134.68V31.3525H133.028V18.4445ZM129.976 23.0365H133.504V24.3805H129.976V23.0365ZM124.418 19.4525H126.07V22.6305H128.884V19.4525H130.522V28.2585H124.418V19.4525ZM126.07 23.9325V26.9285H128.884V23.9325H126.07ZM136.681 28.5105H148.343V29.8685H136.681V28.5105ZM141.651 25.9765H143.317V29.0565H141.651V25.9765ZM138.025 19.3125H146.985V23.4985H139.691V25.7805H138.053V22.1965H145.347V20.6425H138.025V19.3125ZM138.053 25.1085H147.279V26.4525H138.053V25.1085ZM157.408 21.9025H160.082V23.2325H157.408V21.9025ZM157.324 25.1225H160.04V26.4525H157.324V25.1225ZM161.888 18.4445H163.484V31.3245H161.888V18.4445ZM159.256 18.7385H160.81V30.7365H159.256V18.7385ZM156.358 19.9985H157.954C157.954 21.1932 157.805 22.3132 157.506 23.3585C157.217 24.4039 156.727 25.3699 156.036 26.2565C155.355 27.1339 154.422 27.9225 153.236 28.6225L152.284 27.4605C153.264 26.8632 154.053 26.2099 154.65 25.5005C155.257 24.7912 155.691 24.0119 155.952 23.1625C156.223 22.3039 156.358 21.3612 156.358 20.3345V19.9985ZM152.984 19.9985H156.932V21.3425H152.984V19.9985ZM165.163 24.7585H176.825V26.0885H165.163V24.7585ZM170.133 23.0085H171.799V25.3465H170.133V23.0085ZM170.119 18.6685H171.547V19.1165C171.547 19.5832 171.468 20.0312 171.309 20.4605C171.16 20.8805 170.931 21.2725 170.623 21.6365C170.325 21.9912 169.965 22.3085 169.545 22.5885C169.125 22.8685 168.649 23.1065 168.117 23.3025C167.595 23.4985 167.021 23.6432 166.395 23.7365L165.779 22.4345C166.321 22.3599 166.82 22.2479 167.277 22.0985C167.735 21.9492 168.136 21.7672 168.481 21.5525C168.836 21.3379 169.135 21.0999 169.377 20.8385C169.62 20.5772 169.802 20.3019 169.923 20.0125C170.054 19.7139 170.119 19.4152 170.119 19.1165V18.6685ZM170.399 18.6685H171.813V19.1165C171.813 19.4245 171.874 19.7279 171.995 20.0265C172.126 20.3159 172.313 20.5912 172.555 20.8525C172.798 21.1139 173.092 21.3519 173.437 21.5665C173.792 21.7812 174.198 21.9632 174.655 22.1125C175.113 22.2525 175.612 22.3599 176.153 22.4345L175.537 23.7365C174.921 23.6432 174.347 23.4985 173.815 23.3025C173.293 23.1065 172.817 22.8685 172.387 22.5885C171.967 22.3085 171.608 21.9912 171.309 21.6365C171.011 21.2819 170.782 20.8945 170.623 20.4745C170.474 20.0545 170.399 19.6019 170.399 19.1165V18.6685ZM166.451 27.0825H175.397V31.3385H173.731V28.3985H166.451V27.0825ZM186.288 18.4585H187.954V31.3385H186.288V18.4585ZM187.576 23.5545H189.872V24.9405H187.576V23.5545ZM177.846 20.4045H185.364V21.7345H177.846V20.4045ZM181.64 22.5465C182.266 22.5465 182.816 22.6772 183.292 22.9385C183.778 23.1999 184.16 23.5592 184.44 24.0165C184.72 24.4645 184.86 24.9872 184.86 25.5845C184.86 26.1819 184.72 26.7092 184.44 27.1665C184.16 27.6239 183.778 27.9832 183.292 28.2445C182.816 28.5059 182.266 28.6365 181.64 28.6365C181.024 28.6365 180.474 28.5059 179.988 28.2445C179.503 27.9832 179.116 27.6239 178.826 27.1665C178.546 26.7092 178.406 26.1819 178.406 25.5845C178.406 24.9872 178.546 24.4645 178.826 24.0165C179.116 23.5592 179.503 23.1999 179.988 22.9385C180.474 22.6772 181.024 22.5465 181.64 22.5465ZM181.64 23.9045C181.323 23.9045 181.038 23.9745 180.786 24.1145C180.544 24.2545 180.352 24.4505 180.212 24.7025C180.072 24.9452 180.002 25.2392 180.002 25.5845C180.002 25.9299 180.072 26.2285 180.212 26.4805C180.352 26.7325 180.544 26.9285 180.786 27.0685C181.038 27.2085 181.323 27.2785 181.64 27.2785C181.958 27.2785 182.238 27.2085 182.48 27.0685C182.732 26.9285 182.928 26.7325 183.068 26.4805C183.208 26.2285 183.278 25.9299 183.278 25.5845C183.278 25.2392 183.208 24.9452 183.068 24.7025C182.928 24.4505 182.732 24.2545 182.48 24.1145C182.238 23.9745 181.958 23.9045 181.64 23.9045ZM180.786 18.6545H182.466V20.9225H180.786V18.6545ZM199.657 18.4445H201.337V31.3245H199.657V18.4445ZM195.863 19.8025H197.515C197.515 20.7732 197.412 21.7019 197.207 22.5885C197.011 23.4659 196.689 24.2965 196.241 25.0805C195.793 25.8645 195.186 26.5925 194.421 27.2645C193.656 27.9365 192.713 28.5479 191.593 29.0985L190.711 27.7685C191.952 27.1712 192.951 26.4992 193.707 25.7525C194.463 24.9965 195.009 24.1519 195.345 23.2185C195.69 22.2759 195.863 21.2352 195.863 20.0965V19.8025ZM191.383 19.8025H196.633V21.1325H191.383V19.8025Z" fill="white"/>
<path d="M24.3971 34.5605V21.5713H26.4719L33.446 30.7597L32.3301 31.0212V21.5713H35.0326V34.5605H32.9404L26.0883 25.3025L27.0996 25.0409V34.5605H24.3971Z" fill="white"/>
</svg>
