<svg width="372" height="812" viewBox="0 0 372 812" fill="none" xmlns="http://www.w3.org/2000/svg">
<g clip-path="url(#clip0_1_3215)">
<rect width="372" height="812" fill="#FFD95E"/>
<path d="M0 36C0 24.9543 8.95431 16 20 16H352C363.046 16 372 24.9543 372 36V76H0V36Z" fill="#FEFAF4"/>
<rect width="372" height="733" transform="translate(0 76)" fill="#FEFAF4"/>
<circle cx="-3.71101" cy="803.5" r="48.289" fill="#FFD95E"/>
<circle cx="70.6652" cy="803.5" r="48.289" fill="#FFD95E"/>
<circle cx="145.041" cy="803.5" r="48.289" fill="#FFD95E"/>
<circle cx="219.417" cy="803.5" r="48.289" fill="#FFD95E"/>
<circle cx="293.794" cy="803.5" r="48.289" fill="#FFD95E"/>
<circle cx="368.17" cy="803.5" r="48.289" fill="#FFD95E"/>
<path d="M183.807 50.5978L183.824 16H188.061L188.066 74.0871C189.082 75.0011 189.109 75.7587 189.118 77.0891C189.127 78.3216 189.087 79.5614 189.063 80.794C192.433 80.9213 196.598 82.1832 198.995 84.6288C202.24 87.9403 201.794 91.9771 201.797 96.2388C203.125 96.6113 204.463 97.1676 205.727 97.7214C216.565 102.472 224.366 111.615 228.617 122.559C230.663 127.825 234.564 143.221 232.33 148.178C230.755 151.674 226.341 153.625 222.962 154.892C204.917 161.657 163.928 162.054 146.273 153.964C143.656 152.764 140.418 150.825 139.398 147.987C138.756 146.2 139.052 144.137 139.184 142.279C139.762 134.175 141.552 125.925 145.057 118.573C150.202 107.78 158.904 100.3 170.1 96.3393C170.073 92.254 169.764 88.0561 172.71 84.7786C175.037 82.1899 179.318 80.9629 182.72 80.807C182.709 79.5998 182.668 78.3906 182.664 77.1841C182.659 75.8219 182.716 75.021 183.824 74.1548C183.708 72.1445 183.839 69.3299 183.83 67.2263L183.807 50.5978Z" fill="#5D3300"/>
<path d="M185.164 73.8037L185.176 16H186.683L186.68 73.8011L185.164 73.8037Z" fill="#FFD95E"/>
<path d="M183.444 95.2953C192.394 95.0845 200.461 96.2731 208.289 100.875C210.289 102.051 213.969 104.397 215.463 106.15C225.013 114.356 230.163 129.397 230.966 141.649C231.091 143.544 231.182 145.504 230.999 147.399C230.634 146.589 230.455 146.165 229.946 145.42C229.184 144.566 228.508 144.068 227.609 143.4C226.213 142.551 224.904 141.973 223.411 141.322C205.379 134.558 171.264 134.388 152.838 139.968C150.757 140.427 147.125 141.908 145.247 142.948C143.246 144.056 141.616 145.195 140.962 147.464C140.94 147.112 140.924 146.76 140.913 146.407C140.812 143.068 141.238 139.484 141.754 136.181C143.386 125.753 146.995 116.033 154.301 108.254C161.612 100.471 172.806 95.6114 183.444 95.2953Z" fill="#FFD95E"/>
<path d="M140.962 147.464C140.94 147.112 140.924 146.76 140.913 146.407C140.812 143.068 141.238 139.484 141.754 136.181C143.386 125.753 146.995 116.033 154.301 108.254C161.612 100.471 172.806 95.6114 183.444 95.2953L183.458 95.5709C182.912 96.0059 179.63 96.6309 178.606 96.9409C177.331 97.3207 176.081 97.7778 174.862 98.3108C160.792 104.564 155.001 117.149 153.316 131.886C153.005 134.569 152.845 137.268 152.838 139.968C150.757 140.427 147.125 141.908 145.247 142.948C143.246 144.056 141.616 145.195 140.962 147.464Z" fill="#F4BF45"/>
<path d="M202.307 99.8093C202.839 99.8338 204.045 99.8289 204.498 99.9821C207.594 101.032 211.603 104.741 213.749 107.077C220.958 114.927 225.013 126.111 226.765 136.486C227.097 138.446 227.661 141.456 227.609 143.4C226.213 142.551 224.904 141.973 223.411 141.322C223.188 138.43 222.684 135.635 222.104 132.801C219.393 119.546 214.355 107.089 202.307 99.8093Z" fill="#FEF2AE"/>
<path d="M229.946 145.42C229.717 134.928 225.296 120.544 219.36 111.901C218.073 110.027 215.985 107.48 214.501 105.701C214.847 105.897 215.003 105.981 215.378 106.119L215.463 106.15C225.013 114.356 230.163 129.397 230.966 141.649C231.091 143.544 231.182 145.504 230.999 147.399C230.634 146.589 230.455 146.165 229.946 145.42Z" fill="#FEF2AE"/>
<path d="M171.948 138.194C178.225 137.605 184.534 137.418 190.835 137.638C193.912 137.743 197.007 138.097 199.931 138.199C200.202 138.225 200.657 138.282 200.912 138.286C207.904 139.076 225.012 141.206 228.956 147.101C231.032 152.081 215.648 155.592 212.364 156.163C193.656 159.418 173.508 159.484 154.967 155.178C152.271 154.552 139.982 151.104 143.252 146.616C147.763 141.405 163.383 139.052 170.275 138.365C170.575 138.285 171.583 138.225 171.948 138.194Z" fill="#F9C356"/>
<path d="M171.948 138.194C178.225 137.605 184.534 137.418 190.835 137.638C193.912 137.743 197.007 138.097 199.931 138.199C199.934 138.274 199.935 138.347 199.936 138.421C199.993 142.823 198.666 146.907 195.54 150.076C193.037 152.626 189.617 154.061 186.048 154.058C182.358 154.086 178.81 152.632 176.199 150.017C172.787 146.584 171.922 142.88 171.948 138.194Z" fill="#FEFEF3"/>
<path d="M228.956 147.101C231.032 152.081 215.648 155.592 212.364 156.163C193.656 159.418 173.508 159.484 154.967 155.178C152.271 154.552 139.982 151.104 143.252 146.616C143.261 147.791 143.535 148.514 144.375 149.343C149.13 154.035 167.523 156.01 174.413 156.52C178.906 156.864 183.412 156.999 187.917 156.923C196.813 156.765 221.945 154.813 228.051 148.49C228.436 148.087 228.743 147.617 228.956 147.101Z" fill="#FFD95E"/>
<path d="M175.303 84.5833C180.653 80.8223 194.287 80.8263 198.477 86.4111C200.521 89.3156 200.231 92.3165 200.232 95.7584L199.221 95.4582C198.422 95.2229 197.796 95.0673 196.988 94.8896C196.318 94.734 195.588 94.6103 194.908 94.4816C191.211 93.6901 186.055 93.6668 182.269 93.8432C178.166 94.2169 175.612 94.5956 171.647 95.8577C171.545 91.8361 171.482 87.0266 175.303 84.5833Z" fill="#FFD95E"/>
<path d="M175.303 84.5833C175.312 84.5888 175.321 84.5943 175.33 84.5999C175.409 84.6208 175.489 84.6418 175.568 84.6627C176.681 83.85 178.293 83.1991 179.59 82.8933C180.299 82.7261 181.348 82.4783 181.719 82.7018C181.291 83.3536 177.314 83.8007 176.844 84.4109L176.949 84.51C177.361 84.3443 177.939 84.0159 178.301 83.9102C179.565 83.5411 181.012 83.3119 182.316 83.0678C182.503 83.5956 182.307 92.5971 182.269 93.8432C178.166 94.2169 175.612 94.5956 171.647 95.8577C171.545 91.8361 171.482 87.0266 175.303 84.5833Z" fill="#F2BA41"/>
<path d="M175.303 84.5833C180.653 80.8223 194.287 80.8263 198.477 86.4111C200.521 89.3156 200.231 92.3165 200.232 95.7584L199.221 95.4582C198.422 95.2229 197.796 95.0673 196.988 94.8896C196.318 94.734 195.588 94.6103 194.908 94.4816C194.872 91.1389 194.726 87.8947 194.008 84.6164C191.163 83.7033 188.518 83.0208 185.521 82.948C184.901 82.933 182.769 82.7874 182.316 83.0678C181.012 83.3119 179.565 83.5411 178.301 83.9102C177.939 84.0159 177.361 84.3443 176.949 84.51L176.844 84.4109C177.314 83.8007 181.291 83.3536 181.719 82.7018C181.348 82.4783 180.299 82.7261 179.59 82.8933C178.293 83.1991 176.681 83.85 175.568 84.6627C175.489 84.6418 175.409 84.6208 175.33 84.5999C175.321 84.5943 175.312 84.5888 175.303 84.5833Z" fill="#FFF1A3"/>
<path d="M196.861 85.9726C197.432 86.6024 197.963 87.1451 198.285 87.9339C198.391 87.7489 198.428 86.7697 198.477 86.4111C200.521 89.3156 200.231 92.3165 200.232 95.7584L199.221 95.4582C198.422 95.2229 197.796 95.0673 196.988 94.8896C197.022 91.9207 196.885 88.9519 196.861 85.9726Z" fill="#FFD95E"/>
<path d="M198.477 86.4111C200.521 89.3156 200.231 92.3165 200.232 95.7584L199.221 95.4582C198.877 92.2295 199.1 91.3901 198.285 87.9339C198.391 87.7489 198.428 86.7697 198.477 86.4111Z" fill="#FFD95E"/>
<path d="M184.117 80.7316C184.147 79.5823 184.064 78.4678 184.055 77.3259C184.04 75.6722 184.286 75.0606 185.922 74.9133C186.412 74.9745 187.053 75.0109 187.336 75.4478C188.034 76.526 187.671 79.3118 187.684 80.703C187.114 80.653 186.487 80.5839 185.921 80.5793C185.244 80.5789 184.792 80.6421 184.117 80.7316Z" fill="#FFD95E"/>
<path d="M184.117 80.7316C184.147 79.5823 184.064 78.4678 184.055 77.3259C184.04 75.6722 184.286 75.0606 185.922 74.9133C185.835 76.6124 185.868 78.8603 185.921 80.5793C185.244 80.5789 184.792 80.6421 184.117 80.7316Z" fill="#F2BA41"/>
<path d="M263.739 209.511H269.549V198.987H284.623V209.511H291.968V221.844H284.623V229.134C284.623 231.71 285.171 232.258 288.021 232.258H293.064L292.516 245.14H285.884C273.551 245.14 269.549 242.18 269.549 231.327V221.844H263.739V209.511Z" fill="#3D2000"/>
<path d="M246.45 218.281V209.511H261.524V219.378L246.45 218.281ZM246.45 245.14V220.474H261.524V245.14H246.45Z" fill="#3D2000"/>
<path d="M207.802 245.14V209.511H222.875V245.14H207.802ZM223.423 212.087C226.328 209.511 229.562 208.415 233.399 208.415C241.238 208.415 244.253 212.307 244.253 221.68V228.86L229.179 229.957V223.927C229.179 222.831 228.795 222.557 227.808 222.557C227.041 222.557 225.89 223.105 224.52 224.146L223.423 212.087Z" fill="#3D2000"/>
<path d="M184.791 246.236C172.184 246.236 163.798 239.001 163.414 228.093H178.817C179.146 231.053 181.393 233.081 184.791 233.081C188.464 233.081 190.821 230.669 190.821 227.271C190.821 223.872 188.464 221.57 184.791 221.57C181.393 221.57 178.871 223.763 178.817 227.545L163.414 226.448C163.853 215.595 172.239 208.415 184.791 208.415C197.673 208.415 206.169 215.979 206.169 227.325C206.169 238.672 197.673 246.236 184.791 246.236Z" fill="#3D2000"/>
<path d="M132.97 209.511H138.78V198.987H153.854V209.511H161.199V221.844H153.854V229.134C153.854 231.71 154.402 232.258 157.252 232.258H162.295L161.747 245.14H155.114C142.781 245.14 138.78 242.18 138.78 231.327V221.844H132.97V209.511Z" fill="#3D2000"/>
<path d="M80.9733 227.435C89.7435 230.45 97.3077 231.217 104.214 231.217C109.257 231.217 110.353 230.834 110.353 229.518C110.353 228.203 109.147 227.874 105.146 227.874C87.3317 227.874 79 223.379 79 213.238C79 203.208 88.3183 198 106.516 198C114.464 198 122.577 199.261 129.593 201.837L128.003 215.815C119.398 213.348 112.656 212.745 106.023 212.745C101.693 212.745 100.048 213.129 100.048 214.444C100.048 215.76 101.419 216.089 104.817 216.089C124.002 216.089 131.347 220.529 131.347 230.669C131.347 241.084 123.454 246.236 107.448 246.236C97.0885 246.236 87.3317 244.921 79.3289 241.851L80.9733 227.435Z" fill="#3D2000"/>
<path d="M123.83 265.624H125.734V259.534H127.456V267.22H125.734V266.828H123.83V265.624ZM122.052 260.99C121.338 260.99 120.876 261.214 120.876 261.676C120.876 262.138 121.338 262.348 122.052 262.348C122.78 262.348 123.228 262.138 123.228 261.676C123.228 261.214 122.78 260.99 122.052 260.99ZM122.052 263.608C120.372 263.608 119.238 262.866 119.238 261.676C119.238 260.486 120.372 259.744 122.052 259.744C123.732 259.744 124.866 260.486 124.866 261.676C124.866 262.866 123.732 263.608 122.052 263.608ZM121.24 267.164V265.414C120.358 265.456 119.532 265.456 118.86 265.456L118.706 264.084C120.386 264.084 123.158 264.056 125.202 263.734L125.328 264.952C124.6 265.12 123.788 265.232 122.99 265.302V267.164H121.24ZM128.114 270.636V269.866H122.598V270.636H128.114ZM128.114 268.508V267.668H129.948V272.05H120.764V267.668H122.598V268.508H128.114ZM128.184 259.31H129.948V267.248H128.184V259.31ZM141.945 264.098V265.526H132.971V259.716H141.861V261.144H134.805V261.928H141.553V263.314H134.805V264.098H141.945ZM134.721 268.508V270.51H141.903V271.98H132.873V268.508H134.721ZM131.529 266.254H143.219V267.724H138.445V269.572H136.597V267.724H131.529V266.254ZM155.699 265.372L155.825 266.716C154.649 266.898 153.459 267.01 152.297 267.066V271.532H150.449V267.164C149.399 267.206 148.391 267.22 147.467 267.22L147.229 265.736C148.853 265.722 150.673 265.708 152.507 265.61C152.633 265.064 152.717 264.56 152.773 264.084L148.209 264.448L147.957 262.922L152.913 262.74C152.941 262.334 152.941 261.956 152.955 261.62H148.293V260.15H154.761V260.948C154.761 262.012 154.761 263.426 154.369 265.498C154.817 265.456 155.265 265.414 155.699 265.372ZM156.427 259.296H158.275V272.19H156.427V259.296ZM161.214 267.304L160.5 265.834C163.342 265.386 164.868 263.636 164.882 261.858H161.004V260.402H170.72V261.858H166.842C166.856 263.636 168.382 265.344 171.294 265.778L170.594 267.234C168.326 266.842 166.688 265.736 165.876 264.238C165.064 265.764 163.454 266.898 161.214 267.304ZM160.038 269.166H171.714V270.664H160.038V269.166ZM178.385 265.386V267.71C180.345 267.696 181.969 267.598 183.789 267.29L183.985 268.788C181.885 269.152 179.995 269.236 177.657 269.236H176.495V263.93H180.681V261.872H176.481V260.402H182.571V265.386H178.385ZM184.685 259.296H186.533V272.232H184.685V259.296ZM192.678 261.242C191.768 261.242 191.124 261.704 191.124 262.488C191.124 263.286 191.768 263.734 192.678 263.734C193.588 263.734 194.204 263.286 194.204 262.488C194.204 261.704 193.588 261.242 192.678 261.242ZM192.678 265.134C190.774 265.134 189.402 264.056 189.402 262.488C189.402 260.934 190.774 259.842 192.678 259.842C194.568 259.842 195.94 260.934 195.94 262.488C195.94 264.056 194.568 265.134 192.678 265.134ZM196.794 265.47L196.906 266.814C195.772 267.024 194.638 267.136 193.518 267.22V271.826H191.67V267.318C190.62 267.36 189.612 267.36 188.716 267.36L188.506 265.862C190.9 265.862 194.05 265.848 196.794 265.47ZM197.62 259.31H199.468V272.19H197.62V269.376H195.03V267.976H197.62V259.31ZM211.717 265.26V266.73H202.645V260.374H211.619V261.872H204.493V265.26H211.717ZM201.287 269.152H212.963V270.664H201.287V269.152ZM224.198 262.684V261.032H221.552V262.684H224.198ZM219.718 262.684V261.032H218.08V259.66H227.67V261.032H226.032V262.684H227.572V264.056H218.164V262.684H219.718ZM220.236 270.076V270.776H227.628V272.106H218.402V268.844H225.472V268.214H218.388V266.884H227.292V270.076H220.236ZM217.058 264.714H228.706V266.17H217.058V264.714ZM238.001 263.902V266.912H236.279V259.534H238.001V262.432H239.037V259.31H240.787V267.976H239.037V263.902H238.001ZM235.663 265.05L235.831 266.492C234.375 266.786 233.129 266.828 231.211 266.828H230.315V262.81H233.409V261.648H230.301V260.206H235.187V264.154H232.093V265.372C233.465 265.344 234.501 265.274 235.663 265.05ZM237.273 267.43V267.654C237.273 268.984 238.589 270.384 241.375 270.734L240.647 272.162C238.603 271.868 237.119 271.014 236.349 269.824C235.551 271.014 234.081 271.868 232.037 272.162L231.323 270.734C234.095 270.384 235.425 268.984 235.425 267.654V267.43H237.273ZM245.699 269.306V270.608H250.977V269.306H245.699ZM243.893 272.05V267.85H252.797V272.05H243.893ZM247.029 261.13V263.076H249.675V261.13H247.029ZM249.269 265.554H254.183V267.01H242.535V265.554H247.421V264.546H243.641V263.076H245.195V261.13H243.557V259.66H253.147V261.13H251.509V263.076H253.035V264.546H249.269V265.554Z" fill="#3D2000"/>
<path d="M133.825 552.028C135.279 552.131 138.786 551.986 140.563 552.001L149.961 552.026C152.704 552.05 155.71 552.135 158.424 552.092C159.73 552.138 161.938 552.239 163.174 552.213C165.749 552.252 168.322 552.323 170.891 552.424C173.283 552.59 176.749 552.706 179.194 552.782C181.515 552.894 183.96 553.103 186.282 553.281L186.609 553.288C190.591 553.645 194.31 553.709 198.291 554.268C214.555 556.55 230.964 562.096 240.885 571.167C254.251 583.387 256.665 600.842 254.084 615.444C253.108 620.972 250.289 626.869 246.296 631.741C245.603 632.57 245.186 633.441 244.362 634.223C243.448 634.995 242.745 635.857 241.861 636.637C240.937 637.453 239.746 638.205 238.761 638.982C238.355 639.232 238.21 639.339 237.871 639.627C236.76 640.332 235.76 641.087 234.664 641.79C232.487 643.185 230.144 644.218 227.487 645.164L226.548 645.544L225.551 646.024C225.597 646.427 225.668 647.377 225.796 647.729C225.826 647.956 225.838 648.17 225.93 648.389L226.019 648.903L226.502 650.6C227.56 653.273 229.171 655.912 231.836 658.108C232.618 658.753 234.317 659.603 234.738 660.455C234.814 660.61 234.661 660.924 234.584 661.093C233.269 661.736 232.243 661.773 230.622 661.917C230.528 661.926 230.097 661.959 230.035 661.972C228.854 661.987 227.175 662.026 226.02 661.974C217.822 661.61 208.612 659.209 202.194 655.821C201.334 655.367 200 654.699 199.285 654.176C198.469 653.777 196.737 652.425 195.923 651.853C195.76 651.701 195.501 651.582 195.276 651.462C194.996 651.379 190.477 651.931 189.739 652.017C186.397 652.468 182.779 653.067 179.424 653.39C176.545 653.668 173.425 654.097 170.587 654.323C168.975 654.475 167.371 654.658 165.777 654.872L165.605 654.89C163.702 655.01 159.425 655.435 157.566 655.712C154.907 655.904 152.044 656.279 149.382 656.561C145.513 656.947 141.639 657.313 137.76 657.659C122.364 658.972 102.247 659.247 87.3455 656.096C84.2302 655.438 80.8008 654.266 77.8827 653.29C77.0024 652.996 75.5414 652.416 74.7968 652.199L74.6526 652.157C74.1947 651.92 72.0586 651.131 71.32 650.808L69.4897 649.963C69.0295 649.715 68.5664 649.469 68.1003 649.225L67.125 648.751C66.7806 648.537 66.6552 648.478 66.2551 648.309C65.4555 647.788 64.6458 647.275 63.8266 646.768C63.197 646.333 62.6773 645.965 61.9734 645.578C61.6439 645.335 61.1278 645.017 60.7589 644.793C59.1937 643.844 57.9999 642.665 56.5501 641.66C52.3287 637.825 48.8943 633.826 46.1469 629.434C44.3831 626.615 43.4884 624.003 42.4357 621.073C39.8925 613.997 39.1748 606.948 39.0105 599.683C38.8603 592.337 40.3103 584.498 44.498 577.658C46.3429 574.645 51.1084 569.604 54.6245 567.23C55.2899 566.845 56.4348 566.052 57.0311 565.623C57.3032 565.521 57.9391 565.113 58.1905 564.958C59.6671 564.048 61.2228 563.263 62.8389 562.463C64.2708 561.959 65.8456 560.92 67.5818 560.294C75.7495 557.354 84.6617 555.027 93.8388 553.904C97.4568 553.461 102.059 553.246 105.756 553.031C109.748 552.686 113.766 552.74 117.711 552.495C123.105 552.162 128.484 552.292 133.825 552.028Z" fill="#FED16A"/>
<path d="M68.1003 649.225C68.7047 649.219 69.4062 649.778 70.4817 650.057L69.8873 649.799C71.797 650.371 73.4984 651.259 75.3215 651.867C79.5606 653.278 84.5698 655.008 89.0625 655.959C92.5892 656.624 96.0887 657.254 99.7453 657.521C100.851 657.635 102.338 657.454 103.403 657.567C106.009 657.844 108.316 658.145 110.996 658.161C115.078 658.186 119.29 658.201 123.372 658.094C125.788 658.031 128.318 657.632 130.747 657.549C132.952 657.347 135.623 657.454 137.732 657.183C142.514 656.568 147.344 656.216 152.135 655.727L165.945 654.226C173.08 653.477 180.191 652.849 187.267 651.842C189.035 651.59 191.454 651.539 193.335 651.379L192.952 651.443C193.726 651.363 194.546 651.269 195.32 651.219C195.891 651.544 199.177 653.849 199.285 654.176C198.469 653.777 196.737 652.425 195.923 651.853C195.76 651.701 195.501 651.582 195.276 651.462C194.996 651.379 190.477 651.931 189.739 652.017C186.397 652.468 182.779 653.067 179.424 653.39C176.545 653.668 173.425 654.097 170.587 654.323C168.975 654.475 167.371 654.658 165.777 654.872L165.605 654.89C163.702 655.01 159.425 655.435 157.566 655.712C154.907 655.904 152.044 656.279 149.382 656.561C145.513 656.947 141.639 657.313 137.76 657.659C122.364 658.972 102.247 659.247 87.3455 656.096C84.2302 655.438 80.8008 654.266 77.8827 653.29C77.0024 652.996 75.5414 652.416 74.7968 652.199L74.6526 652.157C74.1947 651.92 72.0586 651.131 71.32 650.808L69.4897 649.963C69.0295 649.715 68.5664 649.469 68.1003 649.225Z" fill="#FED16A"/>
<path d="M141.981 553.11C154.727 553.097 167.471 553.321 180.196 553.784C186.488 554.041 195.226 554.725 201.103 555.73C218.527 558.708 234.915 565.163 243.564 575.892C244.957 577.619 247.807 582.422 248.594 584.372C255.822 602.296 255.968 626.755 233.201 640.067C229.949 641.971 225.95 643.052 222.812 644.873C223.019 649.863 224.656 653.858 229.216 657.976C230.13 658.801 231.706 659.498 232.754 660.444L232.853 660.534C221.303 660.937 208.588 656.553 200.131 651.661C199.183 651.113 198.316 650.498 197.323 649.981L197.209 649.922C196.224 649.917 195.638 649.984 194.684 650.09C187.462 650.891 180.134 651.412 172.902 652.135C170.116 652.432 167.056 652.668 164.233 652.929C159.265 653.404 154.292 653.858 149.315 654.291C139.513 655.122 130.391 655.855 120.446 656.031C109.978 656.238 99.33 655.463 89.325 653.374C86.8177 652.851 82.9096 651.817 80.4762 651.065C75.2362 649.447 69.6228 646.719 65.3862 644.127C61.761 641.909 58.2778 639.017 55.1793 636.467C50.1709 631.465 46.0856 625.7 44.1991 619.809C42.3532 614.045 41.6314 607.786 41.1713 601.909C41.0138 599.897 41.1242 597.505 41.1927 595.491C41.287 592.717 41.9854 589.755 42.5276 587.006C43.3979 582.102 46.039 577.5 50.011 573.321C51.7085 571.666 53.6799 569.381 55.8146 568.005C61.3075 564.462 66.8081 561.227 74.0211 559.294C78.1615 558.185 82.7188 556.816 87.0584 556.063C93.7418 554.904 100.704 554.237 107.58 553.832C111.001 553.644 114.953 553.649 118.409 553.561C126.262 553.328 134.121 553.178 141.981 553.11Z" fill="#FEFAF4"/>
<path d="M100.869 585.315H97.8686V579.54C97.8686 578.565 98.5736 578.055 99.3686 578.055C100.164 578.055 100.869 578.565 100.869 579.54V585.315ZM87.6386 581.955V581.445C87.6386 579.27 89.4386 578.145 91.8986 578.145C94.3586 578.145 96.1736 579.255 96.1736 581.445V581.955C96.1736 584.145 94.3586 585.255 91.9136 585.255C89.4536 585.255 87.6386 584.145 87.6386 581.955ZM90.5636 581.475V581.925C90.5636 582.63 91.1486 583.05 91.8986 583.05C92.6486 583.05 93.2636 582.63 93.2636 581.925V581.475C93.2636 580.77 92.6486 580.335 91.8986 580.35C91.1486 580.365 90.5636 580.785 90.5636 581.475ZM94.1636 592.14H90.0236C88.6886 592.14 87.9386 591.315 87.9386 590.235V589.86C87.9386 588.78 88.6886 588.09 90.0236 588.09H91.7486V587.715C91.7486 587.565 91.7786 587.49 91.5536 587.49H88.9286C88.3436 587.49 88.1036 587.07 88.1036 586.635C88.1036 586.2 88.3586 585.78 88.9286 585.78H92.5886C93.9086 585.78 94.4036 586.155 94.4036 587.34V589.77H91.0436C90.8036 589.77 90.6986 589.89 90.6986 590.055V590.1C90.6986 590.28 90.8036 590.4 91.0436 590.4H94.1636C94.7486 590.4 95.0186 590.82 95.0186 591.285C95.0186 591.72 94.7636 592.14 94.1636 592.14ZM97.7936 588.105H96.0236C95.1836 588.105 94.7336 587.64 94.7336 586.95C94.7336 586.26 95.1836 585.81 96.0236 585.81H98.7686C100.644 585.81 100.989 586.32 100.989 588.12V592.14H98.1536V588.465C98.1536 588.24 98.0336 588.105 97.7936 588.105ZM114.219 578.055C115.014 578.055 115.719 578.565 115.719 579.54V592.14H112.719V586.185H110.799V587.85C110.799 590.445 109.074 591.855 106.659 591.855C104.229 591.855 102.489 590.445 102.489 587.85V582.3C102.489 579.72 104.214 578.295 106.644 578.295C109.074 578.295 110.799 579.705 110.799 582.3V583.62H112.719V579.54C112.719 578.565 113.424 578.055 114.219 578.055ZM107.919 587.985V582.15C107.919 581.22 107.304 580.725 106.644 580.74C105.969 580.755 105.369 581.235 105.369 582.15V587.985C105.369 588.945 105.969 589.41 106.644 589.41C107.304 589.41 107.919 588.945 107.919 587.985ZM130.119 586.155H130.659C131.574 586.155 131.844 586.86 131.844 587.46C131.844 588.075 131.559 588.765 130.659 588.765H130.119V592.14H127.119V579.54C127.119 578.565 127.824 578.055 128.619 578.055C129.414 578.055 130.119 578.565 130.119 579.54V581.205H130.659C131.574 581.205 131.844 581.91 131.844 582.51C131.844 583.125 131.559 583.815 130.659 583.815H130.119V586.155ZM121.494 578.295C123.924 578.295 125.649 579.705 125.649 582.3V587.85C125.649 590.445 123.924 591.855 121.509 591.855C119.079 591.855 117.339 590.445 117.339 587.85V582.3C117.339 579.72 119.064 578.295 121.494 578.295ZM122.769 587.985V582.15C122.769 581.22 122.154 580.725 121.494 580.74C120.819 580.755 120.219 581.235 120.219 582.15V587.985C120.219 588.945 120.819 589.41 121.494 589.41C122.154 589.41 122.769 588.945 122.769 587.985ZM148.333 580.2H137.413C136.738 580.2 136.378 579.84 136.378 579.225C136.378 578.625 136.723 578.25 137.413 578.25H148.333C149.023 578.25 149.368 578.625 149.368 579.225C149.368 579.84 149.008 580.2 148.333 580.2ZM148.513 583.665H137.233C136.558 583.665 136.198 583.365 136.198 582.75C136.198 582.15 136.543 581.82 137.233 581.82H138.478V581.73C138.478 580.89 139.108 580.485 140.023 580.485C140.923 580.485 141.538 580.905 141.538 581.73V581.82H144.208V581.73C144.208 580.89 144.838 580.485 145.753 580.485C146.653 580.485 147.268 580.905 147.268 581.73V581.82H148.513C149.203 581.82 149.548 582.15 149.548 582.75C149.548 583.365 149.188 583.665 148.513 583.665ZM139.723 590.505H148.858C149.473 590.505 149.698 590.895 149.698 591.33C149.698 591.765 149.488 592.14 148.858 592.14H138.163C136.873 592.14 136.273 591.36 136.273 590.385V590.34C136.273 589.365 136.858 588.66 138.163 588.66H146.188V588.39C146.188 588.255 146.128 588.195 145.963 588.195H137.278C136.723 588.195 136.423 587.82 136.423 587.385C136.423 586.95 136.678 586.575 137.278 586.575H141.343V586.065H136.918C136.228 586.065 135.853 585.765 135.853 585.135C135.853 584.52 136.213 584.205 136.918 584.205H148.828C149.533 584.205 149.893 584.52 149.893 585.135C149.893 585.765 149.518 586.065 148.828 586.065H144.403V586.575H147.598C148.873 586.575 149.278 587.055 149.278 587.97V590.04H139.723C139.573 590.04 139.498 590.16 139.498 590.28C139.498 590.385 139.573 590.505 139.723 590.505ZM156.437 585.915C155.657 585.9 155.087 585.45 155.027 584.745C154.967 584.04 155.402 583.47 156.182 583.35C158.147 583.05 159.872 581.61 160.187 579.435C160.337 578.565 160.967 578.16 161.777 578.16C162.662 578.16 163.307 578.73 163.277 579.735C163.262 580.095 163.217 580.44 163.142 580.77C165.677 580.785 168.122 582.405 168.467 585.9H165.422C165.092 584.115 163.727 583.035 161.957 583.11C160.622 584.805 158.462 585.945 156.437 585.915ZM156.017 586.53H167.537C168.437 586.53 168.797 587.145 168.797 587.76C168.797 588.39 168.422 588.99 167.537 588.99H163.307V592.215H160.247V588.99H156.017C155.132 588.99 154.757 588.39 154.757 587.76C154.757 587.145 155.117 586.53 156.017 586.53ZM187.281 579.54V585.84H184.281V579.54C184.281 578.565 184.986 578.055 185.781 578.055C186.576 578.055 187.281 578.565 187.281 579.54ZM178.326 585.705C175.866 585.705 174.051 584.58 174.051 582.36V581.565C174.051 579.36 175.851 578.22 178.311 578.22C180.771 578.22 182.586 579.345 182.586 581.565V582.36C182.586 584.58 180.771 585.705 178.326 585.705ZM176.976 581.595V582.33C176.976 583.05 177.561 583.485 178.311 583.485C179.061 583.485 179.676 583.05 179.676 582.33V581.595C179.676 580.86 179.061 580.425 178.311 580.44C177.561 580.455 176.976 580.875 176.976 581.595ZM185.331 588.15C186.996 588.54 188.061 589.95 187.956 592.14H185.226C185.316 591.3 185.106 590.64 184.536 590.325C183.741 591.585 182.466 592.455 181.236 592.5C180.456 592.53 179.931 592.185 179.826 591.675C179.796 591.48 179.781 591.3 179.826 591.135C179.706 590.61 179.436 590.295 178.986 590.19C178.221 591.435 176.961 592.29 175.671 592.32C174.906 592.35 174.366 591.96 174.261 591.435C174.141 590.775 174.441 590.265 175.086 590.1C176.256 589.755 176.796 588.765 176.841 587.505C176.886 586.605 177.576 586.245 178.326 586.26C179.091 586.275 179.721 586.68 179.721 587.58C179.721 587.745 179.706 587.895 179.691 588.06C180.681 588.15 181.431 588.6 181.956 589.5C182.301 589.02 182.466 588.36 182.481 587.535C182.496 586.62 183.216 586.245 183.966 586.26C184.731 586.275 185.361 586.68 185.361 587.58C185.361 587.775 185.346 587.97 185.331 588.15ZM198.471 581.085H190.326C189.426 581.085 189.006 580.41 189.006 579.795C189.006 579.195 189.411 578.505 190.326 578.505H199.491C201.261 578.505 201.801 579.18 201.801 580.65V582.3C201.801 584.64 201.486 586.41 201.096 587.355C200.691 588.255 199.611 588.585 198.831 588.21C198.261 587.91 198.021 587.355 198.246 586.68C198.651 585.585 198.846 584.235 198.846 582.36V581.46C198.846 581.25 198.711 581.085 198.471 581.085ZM195.936 589.38H201.291C202.191 589.38 202.551 589.995 202.551 590.61C202.551 591.255 202.176 591.84 201.291 591.84H189.771C188.886 591.84 188.511 591.255 188.511 590.61C188.511 589.995 188.871 589.38 189.771 589.38H192.876V584.835C192.876 583.86 193.611 583.56 194.406 583.56C195.186 583.56 195.936 583.875 195.936 584.835V589.38ZM204.306 592.8C204.636 592.62 204.846 592.275 204.846 591.84V591.825C204.006 591.75 203.466 591.225 203.466 590.37C203.466 589.455 204.111 588.885 205.056 588.885C206.001 588.885 206.646 589.545 206.646 590.445V590.58C206.646 592.32 205.911 593.4 204.861 593.805C204.606 593.895 204.336 593.955 204.096 593.925C203.841 593.895 203.541 593.76 203.571 593.355C203.586 593.115 203.721 592.965 203.991 592.905C204.096 592.875 204.186 592.86 204.306 592.8ZM105.883 600.2H94.963C94.288 600.2 93.928 599.84 93.928 599.225C93.928 598.625 94.273 598.25 94.963 598.25H105.883C106.573 598.25 106.918 598.625 106.918 599.225C106.918 599.84 106.558 600.2 105.883 600.2ZM106.063 603.665H94.783C94.108 603.665 93.748 603.365 93.748 602.75C93.748 602.15 94.093 601.82 94.783 601.82H96.028V601.73C96.028 600.89 96.658 600.485 97.573 600.485C98.473 600.485 99.088 600.905 99.088 601.73V601.82H101.758V601.73C101.758 600.89 102.388 600.485 103.303 600.485C104.203 600.485 104.818 600.905 104.818 601.73V601.82H106.063C106.753 601.82 107.098 602.15 107.098 602.75C107.098 603.365 106.738 603.665 106.063 603.665ZM97.273 610.505H106.408C107.023 610.505 107.248 610.895 107.248 611.33C107.248 611.765 107.038 612.14 106.408 612.14H95.713C94.423 612.14 93.823 611.36 93.823 610.385V610.34C93.823 609.365 94.408 608.66 95.713 608.66H103.738V608.39C103.738 608.255 103.678 608.195 103.513 608.195H94.828C94.273 608.195 93.973 607.82 93.973 607.385C93.973 606.95 94.228 606.575 94.828 606.575H98.893V606.065H94.468C93.778 606.065 93.403 605.765 93.403 605.135C93.403 604.52 93.763 604.205 94.468 604.205H106.378C107.083 604.205 107.443 604.52 107.443 605.135C107.443 605.765 107.068 606.065 106.378 606.065H101.953V606.575H105.148C106.423 606.575 106.828 607.055 106.828 607.97V610.04H97.273C97.123 610.04 97.048 610.16 97.048 610.28C97.048 610.385 97.123 610.505 97.273 610.505ZM120.373 598.055C121.168 598.055 121.873 598.565 121.873 599.54V612.14H118.873V606.185H116.953V607.85C116.953 610.445 115.228 611.855 112.813 611.855C110.383 611.855 108.643 610.445 108.643 607.85V602.3C108.643 599.72 110.368 598.295 112.798 598.295C115.228 598.295 116.953 599.705 116.953 602.3V603.62H118.873V599.54C118.873 598.565 119.578 598.055 120.373 598.055ZM114.073 607.985V602.15C114.073 601.22 113.458 600.725 112.798 600.74C112.123 600.755 111.523 601.235 111.523 602.15V607.985C111.523 608.945 112.123 609.41 112.798 609.41C113.458 609.41 114.073 608.945 114.073 607.985ZM136.273 606.155H136.813C137.728 606.155 137.998 606.86 137.998 607.46C137.998 608.075 137.713 608.765 136.813 608.765H136.273V612.14H133.273V599.54C133.273 598.565 133.978 598.055 134.773 598.055C135.568 598.055 136.273 598.565 136.273 599.54V601.205H136.813C137.728 601.205 137.998 601.91 137.998 602.51C137.998 603.125 137.713 603.815 136.813 603.815H136.273V606.155ZM127.648 598.295C130.078 598.295 131.803 599.705 131.803 602.3V607.85C131.803 610.445 130.078 611.855 127.663 611.855C125.233 611.855 123.493 610.445 123.493 607.85V602.3C123.493 599.72 125.218 598.295 127.648 598.295ZM128.923 607.985V602.15C128.923 601.22 128.308 600.725 127.648 600.74C126.973 600.755 126.373 601.235 126.373 602.15V607.985C126.373 608.945 126.973 609.41 127.648 609.41C128.308 609.41 128.923 608.945 128.923 607.985ZM150.557 609.38H154.787C155.687 609.38 156.047 609.995 156.047 610.61C156.047 611.255 155.672 611.84 154.787 611.84H143.267C142.382 611.84 142.007 611.255 142.007 610.61C142.007 609.995 142.367 609.38 143.267 609.38H147.497V606.8H144.902C143.102 606.8 142.757 606.23 142.757 604.52V599.66C142.757 598.685 143.507 598.325 144.302 598.325C145.052 598.325 145.832 598.745 145.832 599.69V600.305H152.207V599.66C152.207 598.685 152.942 598.325 153.737 598.325C154.502 598.325 155.267 598.7 155.267 599.66V606.8H150.557V609.38ZM145.832 602.63V603.935C145.832 604.235 145.937 604.385 146.297 604.385H152.207V602.63H145.832ZM170.102 600.605H170.567C171.482 600.605 171.752 601.31 171.752 601.91C171.752 602.525 171.467 603.215 170.567 603.215H170.102V605.84H167.102V599.54C167.102 598.565 167.807 598.055 168.602 598.055C169.397 598.055 170.102 598.565 170.102 599.54V600.605ZM162.047 603.305C161.057 604.97 159.422 605.84 158.177 605.84C157.367 605.84 156.827 605.405 156.827 604.55C156.827 603.98 157.172 603.56 157.757 603.365C159.122 602.84 159.857 601.94 159.917 600.005L159.932 599.48C159.977 598.655 160.637 598.19 161.462 598.205C162.287 598.22 162.917 598.73 162.917 599.555V600.05C162.917 600.41 162.887 600.74 162.842 601.07C165.032 601.265 166.352 602.75 166.247 605.645H163.337C163.427 604.28 162.962 603.515 162.047 603.305ZM161.072 606.305H167.042C169.217 606.305 170.342 607.52 170.342 609.245C170.342 610.97 169.217 612.185 167.042 612.185H161.072C158.867 612.185 157.772 610.94 157.772 609.245C157.772 607.55 158.867 606.305 161.072 606.305ZM161.717 610.04H166.397C167.042 610.04 167.297 609.665 167.297 609.245C167.297 608.825 167.042 608.435 166.397 608.435H161.717C161.072 608.435 160.817 608.825 160.817 609.245C160.817 609.665 161.072 610.04 161.717 610.04ZM184.952 600.605H185.417C186.332 600.605 186.602 601.31 186.602 601.91C186.602 602.525 186.317 603.215 185.417 603.215H184.952V605.99H181.952V599.54C181.952 598.565 182.657 598.055 183.452 598.055C184.247 598.055 184.952 598.565 184.952 599.54V600.605ZM180.467 599.66V605.645H174.092C172.637 605.645 172.142 605.045 172.142 603.755V599.66C172.142 598.775 172.682 598.325 173.552 598.325C174.407 598.325 174.902 598.79 174.902 599.66V599.84H177.737V599.66C177.737 598.775 178.247 598.325 179.102 598.325C179.972 598.325 180.467 598.79 180.467 599.66ZM177.722 603.53V601.88H174.902V603.14C174.902 603.485 174.977 603.53 175.322 603.53H177.722ZM176.087 609.995H184.487C185.207 609.995 185.477 610.58 185.477 611.06C185.477 611.54 185.192 612.14 184.487 612.14H174.797C173.297 612.14 172.742 611.555 172.742 610.16V608.585C172.742 607.205 173.297 606.62 174.797 606.62H184.277C184.997 606.62 185.267 607.205 185.267 607.7C185.267 608.18 184.997 608.765 184.277 608.765H176.087C175.862 608.765 175.757 608.855 175.757 609.05V609.71C175.757 609.92 175.862 609.995 176.087 609.995ZM190.742 601.1H198.812C199.682 601.1 200.012 601.67 200.012 602.27C200.012 602.885 199.667 603.485 198.812 603.485H189.317C187.757 603.485 187.247 602.855 187.247 601.58V599.675C187.247 598.67 187.982 598.22 188.792 598.22C189.617 598.22 190.307 598.685 190.307 599.675V600.785C190.307 601.025 190.397 601.1 190.742 601.1ZM187.817 604.355H199.337C200.237 604.355 200.597 604.97 200.597 605.585C200.597 606.215 200.222 606.815 199.337 606.815H187.817C186.932 606.815 186.557 606.215 186.557 605.585C186.557 604.97 186.917 604.355 187.817 604.355ZM198.872 612.14H189.452C187.757 612.14 187.307 611.585 187.307 609.965V608.81C187.307 607.79 188.027 607.415 188.867 607.415C189.707 607.415 190.382 607.805 190.382 608.81V609.44C190.382 609.77 190.457 609.815 190.787 609.815H198.872C199.787 609.815 200.132 610.37 200.132 610.97C200.132 611.585 199.772 612.14 198.872 612.14ZM99.8379 625.345H101.473V619.315C101.473 618.565 101.953 618.055 102.748 618.055C103.543 618.055 104.023 618.565 104.023 619.315V627.19H101.473V627.01H99.8379C99.2829 627.01 98.8629 626.74 98.8629 626.185C98.8629 625.645 99.2679 625.345 99.8379 625.345ZM106.018 618.055C106.813 618.055 107.323 618.565 107.323 619.345V627.19H104.698V619.345C104.698 618.565 105.223 618.055 106.018 618.055ZM98.4429 622.63H96.1029C94.5729 622.63 93.5679 621.835 93.5679 620.485V620.44C93.5679 619.105 94.5729 618.31 96.1029 618.31H98.4429C99.9729 618.31 100.843 619.105 100.843 620.44V620.485C100.843 621.835 99.9729 622.63 98.4429 622.63ZM96.1029 620.44V620.485C96.1029 620.695 96.2829 620.935 96.6729 620.935H97.7379C98.1429 620.935 98.3079 620.695 98.3079 620.485V620.44C98.3079 620.23 98.1429 619.99 97.7379 619.99H96.6729C96.2829 619.99 96.1029 620.23 96.1029 620.44ZM95.7429 627.265V624.97H94.4679C93.7779 624.97 93.4029 624.685 93.4029 624.055C93.4029 623.44 93.7629 623.11 94.4679 623.11H100.108C100.813 623.11 101.173 623.44 101.173 624.055C101.173 624.685 100.798 624.97 100.108 624.97H98.3529V627.265H95.7429ZM105.763 627.475C106.738 627.475 107.263 627.91 107.263 628.78V632.14H96.3429C94.7979 632.14 94.3479 631.555 94.3479 630.355V628.78C94.3479 627.895 94.8879 627.475 95.8629 627.475C96.5529 627.475 97.0179 627.7 97.2279 628.135H104.383C104.593 627.685 105.073 627.475 105.763 627.475ZM97.6179 630.355H104.263V629.845H97.3479V630.115C97.3479 630.31 97.4229 630.355 97.6179 630.355ZM120.883 624.565H110.698C109.423 624.565 108.883 624.04 108.883 622.885V619.885C108.883 618.73 109.423 618.205 110.698 618.205H120.688C121.288 618.205 121.603 618.595 121.603 619.105C121.603 619.63 121.273 620.005 120.688 620.005H112.183C112.003 620.005 111.883 620.11 111.883 620.275V620.605H120.688C121.243 620.605 121.513 620.965 121.513 621.415C121.513 621.865 121.228 622.21 120.688 622.21H111.883V622.525C111.883 622.72 112.003 622.81 112.183 622.81H120.883C121.483 622.81 121.798 623.185 121.798 623.695C121.798 624.22 121.468 624.565 120.883 624.565ZM109.438 625.105H121.108C121.933 625.105 122.293 625.615 122.293 626.23C122.293 626.86 121.918 627.34 121.108 627.34H116.953V629.14H113.893V627.34H109.438C108.628 627.34 108.253 626.86 108.253 626.23C108.253 625.615 108.613 625.105 109.438 625.105ZM112.483 629.86H120.568C121.483 629.86 121.828 630.385 121.828 630.985C121.828 631.615 121.468 632.14 120.568 632.14H111.148C109.453 632.14 109.003 631.585 109.003 630.04V629.14C109.003 628.165 109.723 627.79 110.563 627.79C111.403 627.79 112.078 628.18 112.078 629.14V629.515C112.078 629.815 112.153 629.86 112.483 629.86ZM138.452 624.19H137.702V628.39H135.152V619.315C135.152 618.565 135.632 618.055 136.427 618.055C137.222 618.055 137.702 618.565 137.702 619.315V621.85H138.452V619.315C138.452 618.565 138.932 618.055 139.727 618.055C140.522 618.055 141.002 618.565 141.002 619.315V628.39H138.452V624.19ZM133.502 620.74H128.507C127.772 620.74 127.352 620.17 127.352 619.585C127.352 619 127.712 618.43 128.507 618.43H133.502C134.297 618.43 134.657 619 134.657 619.585C134.657 620.17 134.237 620.74 133.502 620.74ZM133.652 626.665H128.327C127.592 626.665 127.187 626.17 127.187 625.585C127.187 625.045 127.487 624.58 128.177 624.52V622.255C128.177 621.55 128.537 621.115 129.407 621.115C130.262 621.115 130.592 621.565 130.592 622.255V624.52H131.417V622.255C131.417 621.55 131.732 621.115 132.602 621.115C133.457 621.115 133.802 621.565 133.802 622.255V624.52C134.492 624.58 134.792 625.045 134.792 625.585C134.792 626.17 134.387 626.665 133.652 626.665ZM131.627 629.83H140.087C140.987 629.83 141.332 630.385 141.332 630.985C141.332 631.6 140.972 632.14 140.087 632.14H130.382C128.702 632.14 128.252 631.555 128.252 629.95V628.585C128.252 627.625 128.957 627.16 129.797 627.16C130.637 627.16 131.297 627.64 131.297 628.585V629.515C131.297 629.785 131.372 629.83 131.627 629.83ZM150.602 620.95H152.627V619.54C152.627 618.565 153.332 618.055 154.127 618.055C154.922 618.055 155.627 618.565 155.627 619.54V625.99H152.627V623.14H150.602C149.897 623.14 149.417 622.735 149.417 622.06C149.417 621.4 149.882 620.95 150.602 620.95ZM150.137 625.84H144.197C142.877 625.84 142.472 625.345 142.472 624.145V620.11C142.472 618.91 142.877 618.43 144.197 618.43H149.492C150.362 618.43 150.677 618.925 150.677 619.525C150.677 620.125 150.347 620.62 149.492 620.62H145.652C145.442 620.62 145.352 620.71 145.352 620.92V623.38C145.352 623.59 145.442 623.68 145.652 623.68H150.137C151.007 623.68 151.292 624.175 151.292 624.76C151.292 625.375 150.992 625.84 150.137 625.84ZM145.157 626.59H153.587C155.312 626.59 155.642 627.13 155.642 628.735V632.14H145.157C143.342 632.14 143.012 631.6 143.012 629.905V628.825C143.012 627.13 143.342 626.59 145.157 626.59ZM146.297 630.085H152.687V628.975C152.687 628.705 152.612 628.63 152.357 628.63H146.297C146.042 628.63 145.967 628.69 145.967 628.975V629.725C145.967 630.025 146.042 630.085 146.297 630.085ZM173.811 625.465H162.051C161.286 625.465 160.911 625.06 160.911 624.43C160.911 623.815 161.271 623.38 162.051 623.38H166.401V622.66H163.581C162.081 622.66 161.571 622.03 161.571 620.89V619.675C161.571 618.67 162.306 618.22 163.116 618.22C163.941 618.22 164.631 618.685 164.631 619.675V620.245C164.631 620.44 164.721 620.515 165.066 620.515H173.196C174.066 620.515 174.396 620.965 174.396 621.565C174.396 622.18 174.051 622.66 173.196 622.66H169.461V623.38H173.811C174.591 623.38 174.951 623.815 174.951 624.43C174.951 625.06 174.576 625.465 173.811 625.465ZM164.901 630.43H173.916C174.531 630.43 174.756 630.85 174.756 631.285C174.756 631.72 174.546 632.14 173.916 632.14H163.221C161.931 632.14 161.331 631.255 161.331 630.25V630.085C161.331 629.05 161.916 628.315 163.221 628.315H171.246V627.985C171.246 627.85 171.156 627.745 170.946 627.745H162.336C161.781 627.745 161.481 627.34 161.481 626.905C161.481 626.47 161.736 626.05 162.336 626.05H172.656C173.931 626.05 174.336 626.53 174.336 627.445V629.86H164.901C164.676 629.86 164.556 629.98 164.556 630.145C164.556 630.325 164.676 630.43 164.901 630.43ZM189.381 632.14H186.381V619.54C186.381 618.565 187.086 618.055 187.881 618.055C188.676 618.055 189.381 618.565 189.381 619.54V632.14ZM176.151 627.82V622.315C176.151 619.72 177.951 618.295 180.411 618.295C182.871 618.295 184.686 619.705 184.686 622.315V627.82C184.686 630.445 182.871 631.855 180.426 631.855C177.966 631.855 176.151 630.445 176.151 627.82ZM179.076 622.21V627.925C179.076 628.915 179.721 629.395 180.411 629.395C181.101 629.395 181.776 628.915 181.776 627.925V622.21C181.776 621.25 181.101 620.74 180.411 620.755C179.721 620.77 179.076 621.265 179.076 622.21ZM202.731 618.055C203.526 618.055 204.231 618.565 204.231 619.54V632.14H201.231V626.185H200.256C199.431 626.185 198.921 625.675 198.921 624.91C198.921 624.16 199.416 623.62 200.256 623.62H201.231V619.54C201.231 618.565 201.936 618.055 202.731 618.055ZM194.421 629.035H198.921C199.791 629.035 200.046 629.725 200.046 630.295C200.046 630.88 199.776 631.54 198.921 631.54H193.296C191.436 631.54 191.076 631.075 191.076 629.29V620.815C191.076 619.03 191.436 618.58 193.296 618.58H198.081C198.951 618.58 199.206 619.27 199.206 619.84C199.206 620.425 198.936 621.115 198.081 621.115H194.421C194.151 621.115 194.031 621.205 194.031 621.55V623.74H197.196C198.066 623.74 198.396 624.355 198.396 624.985C198.396 625.6 198.051 626.215 197.196 626.215H194.031V628.6C194.031 628.945 194.151 629.035 194.421 629.035Z" fill="#3D2000"/>
<path d="M271.794 630.256C274.073 629.648 278.876 630.273 281.236 630.586C287.424 631.839 291.764 633.311 297.602 635.609L298.56 636.062C300.604 637.189 304.789 639.514 305.27 641.946C305.279 643.937 300.566 652.215 299.611 654.745C299.533 654.949 298.9 656.244 298.756 656.437C298.284 658.153 297.483 659.754 296.823 661.403C296.601 661.956 296.339 662.308 296.902 662.676C297.544 662.582 298.025 662.789 298.627 663.033C301.145 663.674 304.483 665.917 305.982 668.105C306.747 669.222 306.53 670.365 306.41 671.579C306.289 672.787 304.551 673.422 304.975 674.039C306.902 675.612 311.637 683.571 312.661 686.261C313.01 687.178 313.164 687.807 313.28 688.781C314.628 690.433 314.957 691.181 315.604 693.219C316.449 696.681 317.122 699.349 317.817 702.856L317.844 704.354C319.429 703.521 320.938 702.551 322.499 701.729C322.892 699.93 323.203 699.321 324.556 698.086L326.028 697.783C326.528 696.558 327.427 695.458 327.842 694.37C328.464 692.744 327.468 690.273 329.089 688.823C330.111 687.82 331.54 688.398 332.653 688.867C334.941 689.83 335.352 692.184 335.505 694.372C339.055 693.069 346.667 693.291 348.134 697.69C348.241 698.011 348.333 698.344 348.412 698.673C351.212 700.676 351.555 702.498 350.322 705.456C350.113 706.419 350.25 707.588 349.613 708.41C347.412 711.249 343.279 711.036 340.064 711.717C338.634 712.02 337.044 712.108 335.606 712.453C335.333 712.519 334.947 712.299 334.724 712.152C334.273 712.484 334.111 712.805 333.801 713.27C332.314 713.914 331.359 714.279 329.756 713.652C329.65 713.61 329.546 713.567 329.442 713.523C325.713 716.11 321.845 718.509 317.483 719.912C316.905 722.974 315.975 724.923 314.037 727.326C312.393 729.368 311.835 730.205 311.574 732.795C311.53 733.232 310.959 734.151 310.774 734.596C308.679 738.831 305.331 741.903 301.848 744.992C300.007 746.625 298.439 748.161 296.425 749.637C294.903 750.752 292.723 750.393 292.179 751.832C292.215 752.967 292.621 754.932 293.495 755.682C295.772 757.636 302.013 757.989 302.052 761.858C302.099 766.524 298.728 773.601 294.606 775.971C292.74 776.049 291.667 776.065 290.22 774.725C288.175 772.831 288.027 771.072 287.907 768.533C286.979 768.006 285.737 768.134 284.791 767.806C280.985 766.488 278.428 763.696 277.313 759.872C277.097 759.13 276.808 756.805 276.494 756.524L276.118 756.673C273.301 758.378 265.619 758.713 262.473 757.618C262.564 758.819 262.637 760.118 262.782 761.306C263.056 763.401 264.075 769.816 263.532 771.44C262.293 774.617 256.713 775.303 253.708 775.237C251.425 775.246 247.736 775.475 245.727 774.494C244.424 773.859 244.014 772.983 243.6 771.727C244.406 767.559 245.423 767.946 248.107 765.69L248.211 765.602C247.082 763.234 245.657 759.45 245.684 756.761C245.58 755.284 245.84 753.936 245.568 752.544C245.482 752.11 245.039 751.958 244.652 751.739C244.082 751.555 243.236 751.027 242.671 750.729C241.711 750.533 239.538 747.443 239.203 747.325C236.798 746.482 235.703 745.411 233.813 743.853C228.335 739.339 226.768 732.97 223.735 726.925C223.066 725.593 221.793 724.581 221.033 723.288C219.601 720.943 219.258 718.499 218.396 715.968C217.935 715.706 216.978 715.252 216.489 715.058C213.463 713.852 210.322 710.859 207.536 709.575L207.442 709.533C206.732 709.205 205.665 709.419 204.872 709.284C204.01 709.136 203.888 708.931 202.919 708.877L201.883 707.131C199.495 707.152 197.669 707.06 195.355 706.447C192.068 705.576 188.895 705.639 186.929 702.484C186.924 702.164 186.911 701.843 186.905 701.528C186.874 699.785 185.585 698.241 186.137 696.376C186.579 694.884 187.457 694.262 188.703 693.509C188.779 693.227 188.861 692.946 188.949 692.667C190.384 688.157 197.744 688.497 201.325 689.683C201.572 687.466 201.758 685.799 203.844 684.421C204.585 683.931 206.405 683.89 207.211 684.191C209.675 685.109 208.545 687.894 208.907 689.792C209.075 690.507 210.467 692.697 210.96 693.63C213.681 694.583 213.784 695.45 214.265 698.059C215.566 698.995 217.242 699.919 218.707 700.956C218.747 699.698 219.087 698.454 219.284 697.222C221.168 685.414 228.255 674.752 237.762 667.571C239.794 665.972 242.415 664.904 244.342 663.21C247.202 660.696 250.207 660.587 253.556 659.495L253.661 659.46C253.03 658.01 253.202 657.143 253.346 655.633C256.222 651.933 260.673 653.055 264.635 653.588C265.192 653.611 266.174 653.782 266.76 653.867L267.317 650.657C267.858 647.106 268.183 643.674 268.683 640.252C268.901 638.481 269.087 636.726 269.387 634.966C269.569 632.978 269.439 630.848 271.794 630.256Z" fill="#F4BF56"/>
<path d="M304.097 673.741C304.37 673.963 304.573 674.094 304.759 674.394L304.975 674.039C306.902 675.612 311.637 683.571 312.661 686.261C313.01 687.178 313.164 687.807 313.28 688.781C314.628 690.433 314.957 691.181 315.604 693.219C316.449 696.681 317.122 699.349 317.817 702.856L317.844 704.354C319.429 703.521 320.938 702.551 322.499 701.729C322.892 699.93 323.203 699.321 324.556 698.086L326.028 697.783C326.528 696.558 327.427 695.458 327.842 694.37C328.464 692.744 327.468 690.273 329.089 688.823C330.111 687.82 331.54 688.398 332.653 688.867C334.941 689.83 335.352 692.184 335.505 694.372C339.055 693.069 346.667 693.291 348.134 697.69C348.241 698.011 348.333 698.344 348.412 698.673C351.212 700.676 351.555 702.498 350.322 705.456C350.113 706.419 350.25 707.588 349.613 708.41C347.412 711.249 343.279 711.036 340.064 711.717C338.634 712.02 337.044 712.108 335.606 712.453C335.333 712.519 334.947 712.299 334.724 712.152C334.273 712.484 334.111 712.805 333.801 713.27C332.314 713.914 331.359 714.279 329.756 713.652C329.65 713.61 329.546 713.567 329.442 713.523C325.713 716.11 321.845 718.509 317.483 719.912C316.905 722.974 315.975 724.923 314.037 727.326C312.393 729.368 311.835 730.205 311.574 732.795C311.53 733.232 310.959 734.151 310.774 734.596C308.679 738.831 305.331 741.903 301.848 744.992C300.007 746.625 298.439 748.161 296.425 749.637C294.903 750.752 292.723 750.393 292.179 751.832C292.215 752.967 292.621 754.932 293.495 755.682C295.772 757.636 302.013 757.989 302.052 761.858C302.099 766.524 298.728 773.601 294.606 775.971C292.74 776.049 291.667 776.065 290.22 774.725C288.175 772.831 288.027 771.072 287.907 768.533C286.979 768.006 285.737 768.134 284.791 767.806C280.985 766.488 278.428 763.696 277.313 759.872C277.097 759.13 276.808 756.805 276.494 756.524L276.118 756.673C273.301 758.378 265.619 758.713 262.473 757.618C262.564 758.819 262.637 760.118 262.782 761.306C263.056 763.401 264.075 769.816 263.532 771.44C262.293 774.617 256.713 775.303 253.708 775.237C251.425 775.246 247.736 775.475 245.727 774.494C244.424 773.859 244.014 772.983 243.6 771.727C244.406 767.559 245.423 767.946 248.107 765.69L248.211 765.602C247.082 763.234 245.657 759.45 245.684 756.761C245.58 755.284 245.84 753.936 245.568 752.544C245.482 752.11 245.039 751.958 244.652 751.739L245.187 751.556C245.49 751.685 245.729 751.8 246.047 751.895C246.654 751.768 247.487 752.231 247.527 752.838C248.503 753.335 249.539 753.71 250.609 753.951C251.804 754.632 255.49 755.145 257.017 755.581C256.839 755.281 256.666 754.978 256.499 754.672C256.527 754.123 256.445 754.322 256.762 753.895C257.614 753.601 259.335 754.314 260.367 754.578C263.994 755.988 269.384 756.433 273.056 755.208C276.147 754.179 279.118 753.263 282.311 752.552C283.34 752.324 284.438 751.862 285.471 751.629C286.487 751.4 287.574 751.37 288.588 751.111C290.524 750.655 291.477 749.278 293.082 748.179C294.241 747.387 295.633 747.361 296.584 746.735C297.297 746.265 298.629 744.713 299.371 744.026C301.992 741.593 305.329 739.084 307.218 736.05C309.297 733.266 309.108 731.847 310.315 728.938C310.581 728.294 312.25 725.969 312.724 725.241C313.838 723.523 314.24 722.5 314.944 720.629C314.084 721.01 313.214 721.766 312.317 721.457C311.981 720.951 312.086 721.105 312.056 720.414C313.341 719.457 316.432 718.258 318.01 717.579C321.91 715.845 324.23 714.464 327.792 712.205C324.798 709.419 323.75 707.684 323.099 703.651C320.698 705.216 317.891 706.721 315.393 708.261C314.399 708.897 311.456 711.005 310.541 711.066L310.294 710.895C310.223 710.298 310.32 710.16 310.711 709.719C310.82 706.009 311.731 704.421 314.388 702.077C315.021 701.518 314.982 701.068 314.949 700.283C314.51 697.606 313.577 695.056 312.782 692.462C311.936 689.707 310.94 686.267 308.053 685.104C307.981 679.931 305.5 678.874 302.731 674.614C303.029 674.382 303.625 674.05 304.015 673.767L304.097 673.741Z" fill="#5D220A"/>
<path d="M304.097 673.741C304.37 673.963 304.573 674.094 304.759 674.394L304.975 674.039C306.902 675.612 311.637 683.571 312.661 686.261C313.01 687.178 313.164 687.807 313.28 688.781C314.628 690.433 314.957 691.181 315.604 693.219C316.449 696.681 317.122 699.349 317.817 702.856L317.549 702.599C317.227 702.933 317.437 704.641 317.469 705.157C319.327 704.192 321.161 703.05 323.017 702.036C323.585 699.56 323.701 698.712 326.471 698.227C326.958 696.688 328.03 695.572 328.43 694.338C328.867 692.99 327.94 689.845 329.861 688.929C331.369 688.211 333.841 689.816 334.413 691.225C334.944 692.529 334.89 693.6 335.08 694.904C339.206 694.262 346.875 693.062 347.898 698.775C349.288 699.93 350.068 700.403 350.517 702.329C350.873 703.867 349.363 705.351 349.528 706.275C350.053 709.214 346.65 710.021 344.447 710.452C341.227 710.94 337.958 711.763 334.569 711.494C332.745 713.653 331.899 713.769 329.2 712.999C327.003 714.993 321.617 717.814 318.848 718.971C318.531 718.481 318.294 718.087 318.01 717.579C321.91 715.845 324.23 714.464 327.792 712.205C324.798 709.419 323.75 707.684 323.099 703.651C320.698 705.216 317.891 706.721 315.393 708.261C314.399 708.897 311.456 711.005 310.541 711.066L310.294 710.895C310.223 710.298 310.32 710.16 310.711 709.719C310.82 706.009 311.731 704.421 314.388 702.077C315.021 701.518 314.982 701.068 314.949 700.283C314.51 697.606 313.577 695.056 312.782 692.462C311.936 689.707 310.94 686.267 308.053 685.104C307.981 679.931 305.5 678.874 302.731 674.614C303.029 674.382 303.625 674.05 304.015 673.767L304.097 673.741Z" fill="#5D220A"/>
<path d="M314.949 700.283C315.25 701.685 315.595 704.676 315.647 706.167C315.055 706.569 314.508 706.939 313.891 707.307C312.654 708.061 311.767 708.724 310.711 709.719C310.82 706.009 311.731 704.421 314.388 702.077C315.021 701.518 314.982 701.068 314.949 700.283Z" fill="#F1B15D"/>
<path d="M304.975 674.039C306.902 675.612 311.637 683.571 312.661 686.261C313.01 687.178 313.164 687.807 313.28 688.781C314.628 690.433 314.957 691.181 315.604 693.219L315.445 693.532C315.173 693.472 315.052 692.876 314.894 692.52C314.165 690.87 314.002 690.3 312.765 689.036C312.507 685.134 309.81 681.911 307.952 678.633C307.025 676.998 305.708 675.882 304.759 674.394L304.975 674.039Z" fill="#6B2F1B"/>
<path d="M327.4 699.952C327.679 696.83 328.823 696.889 329.632 694.106C329.907 693.16 329.195 691.382 329.978 690.227C331.787 688.878 333.36 691.112 333.654 692.688C333.768 693.292 333.828 695.663 334.415 695.955C338.341 696.264 343.697 693.725 346.549 697.929C346.645 698.073 346.739 698.218 346.828 698.366C344.824 697.904 342.884 697.845 340.869 698.316C340.405 697.687 339.082 695.706 338.201 696.211C338.431 696.932 340.04 699.027 340.569 700.233C341.166 701.598 341.499 705.361 341.726 705.704C342.399 705.631 342.406 705.005 342.51 704.461C344.722 704.462 347.212 704.294 348.531 706.423C348.32 710.02 337.973 710.18 335.072 710.432C334.265 710.502 331.577 709.173 330.912 709.62C331.116 710.81 332.591 710.612 333.011 711.489C332.821 711.87 332.449 712.111 332.048 712.218C329.359 712.938 326.478 709.172 325.56 707.347C324.833 705.9 324.374 704.367 324.319 702.746C324.277 701.553 324.522 699.35 326.104 699.365C326.525 699.705 326.396 699.53 326.529 700.123C327.001 700.135 326.99 700.157 327.4 699.952Z" fill="#FCFCFD"/>
<path d="M348.531 706.423C348.32 710.02 337.973 710.18 335.072 710.432C334.265 710.502 331.577 709.173 330.912 709.62C331.116 710.81 332.591 710.612 333.011 711.489C332.821 711.87 332.449 712.111 332.048 712.218C329.359 712.938 326.478 709.172 325.56 707.347C326.758 707.339 328.416 708.803 329.313 708.31C329.424 707.829 329.439 707.742 329.656 707.305C330.426 706.984 332.613 708.469 333.708 708.695C336.633 709.298 346.617 708.512 348.531 706.423Z" fill="#D8D2DD"/>
<path d="M326.529 700.123C327.001 700.135 326.99 700.157 327.4 699.952C327.461 700.626 327.606 701.556 327.39 702.166L327.172 702.304C326.637 701.834 326.382 700.806 326.529 700.123Z" fill="#854725"/>
<path d="M332.517 699.84C334.214 699.712 337.747 700.418 337.931 702.465L337.729 702.647C337.225 702.599 336.833 702.174 336.417 701.83C333.658 699.984 332.65 701.588 330.519 701.355L330.347 701.137L330.447 700.817C331.066 700.141 331.655 700.041 332.517 699.84Z" fill="#6B2F1B"/>
<path d="M341.48 699.527C344.458 699.255 349.125 698.974 349.443 703.04L349.449 703.136C348.927 705.376 347.898 703.642 346.467 703.366C345.222 703.126 343.966 703.536 342.714 703.23C342.341 702.88 342.467 702.932 342.431 702.231C342.195 701.283 341.919 700.406 341.48 699.527Z" fill="#FCFCFD"/>
<path d="M342.431 702.231C344.369 702.356 348.158 703.152 349.449 703.136C348.927 705.376 347.898 703.642 346.467 703.366C345.222 703.126 343.966 703.536 342.714 703.23C342.341 702.88 342.467 702.932 342.431 702.231Z" fill="#D8D2DD"/>
<path d="M260.555 760.368C260.724 761.297 261.79 770.624 261.408 771.087C259.58 773.306 249.103 773.572 246.438 772.385C243.89 769.921 250.112 767.554 251.247 766.681C251.352 766.594 250.517 765.022 250.41 764.836C249.792 763.765 249.375 762.687 248.956 761.528C251.368 761.57 253.92 761.654 256.321 761.596C257.684 761.527 259.003 761.632 260.368 761.501C260.603 761.153 260.534 760.845 260.555 760.368Z" fill="#955324"/>
<path d="M291.503 756.736C292.557 757.606 293.127 758.036 294.369 758.627C296.293 759.542 298.249 759.868 299.851 761.319C299.825 765.343 297.855 769.823 295.2 772.847C294.028 774.182 292.622 774.009 291.278 772.906C289.403 771.37 290.845 767.942 290.487 766.922C289.54 766.254 285.958 765.883 284.144 765.111C286.622 764.468 290.379 759.027 291.503 756.736Z" fill="#914F22"/>
<path d="M290.141 752.594L290.291 754.072L290.52 754.906C290.788 755.61 290.998 756.152 291.503 756.736C290.379 759.027 286.622 764.468 284.144 765.111C283.631 764.865 283.141 764.574 282.68 764.243C279.82 762.155 279.203 758.714 278.703 755.473C281.353 754.799 283.91 753.867 286.637 753.514C287.905 753.352 288.953 753.054 290.141 752.594Z" fill="#F1B54E"/>
<path d="M326.028 697.783C326.528 696.558 327.427 695.458 327.842 694.37C328.464 692.744 327.468 690.273 329.089 688.823C330.111 687.82 331.54 688.398 332.653 688.867C334.941 689.83 335.352 692.184 335.505 694.372C339.055 693.069 346.667 693.291 348.134 697.69C348.241 698.011 348.333 698.344 348.412 698.673C351.212 700.676 351.555 702.498 350.322 705.456C350.113 706.419 350.25 707.588 349.613 708.41C347.412 711.249 343.279 711.036 340.064 711.717C338.634 712.02 337.044 712.108 335.606 712.453C335.333 712.519 334.947 712.299 334.724 712.152C334.273 712.484 334.111 712.805 333.801 713.27C332.314 713.914 331.359 714.279 329.756 713.652C329.65 713.61 329.546 713.567 329.442 713.523C325.713 716.11 321.845 718.509 317.483 719.912C316.905 722.974 315.975 724.923 314.037 727.326C312.393 729.368 311.835 730.205 311.574 732.795C311.53 733.232 310.959 734.151 310.774 734.596C308.679 738.831 305.331 741.903 301.848 744.992C300.007 746.625 298.439 748.161 296.425 749.637C294.903 750.752 292.723 750.393 292.179 751.832C292.215 752.967 292.621 754.932 293.495 755.682C295.772 757.636 302.013 757.989 302.052 761.858C302.099 766.524 298.728 773.601 294.606 775.971C292.74 776.049 291.667 776.065 290.22 774.725C288.175 772.831 288.027 771.072 287.907 768.533C286.979 768.006 285.737 768.134 284.791 767.806C280.985 766.488 278.428 763.696 277.313 759.872C277.097 759.13 276.808 756.805 276.494 756.524L276.118 756.673L275.53 756.342C275.507 756.342 276.601 755.995 276.827 755.943C277.128 756.073 277.259 756.151 277.314 756.542C277.467 757.77 277.519 758.857 277.861 760.062C279.461 765.668 283.337 767.187 288.607 767.996C288.299 771.047 288.843 774.016 292.195 775.5C293.008 775.792 294.128 775.646 294.881 775.216C298.609 773.095 302.006 765.336 301.519 761.239C301.146 758.117 293.851 757.957 292.264 754.88L291.832 753.392C290.978 749.507 294.402 750.515 296.247 749.02C301.841 744.483 311.203 737.463 311.471 729.774C311.863 729.165 312.71 728.191 313.165 727.67C315.282 725.255 316.219 722.987 317.002 719.945C317.129 719.454 318.324 719.136 318.848 718.971C321.617 717.814 327.003 714.993 329.2 712.999C331.899 713.769 332.745 713.653 334.569 711.494C337.958 711.763 341.227 710.94 344.447 710.452C346.65 710.021 350.053 709.214 349.528 706.275C349.363 705.351 350.873 703.867 350.517 702.329C350.068 700.403 349.288 699.93 347.898 698.775C346.875 693.062 339.206 694.262 335.08 694.904C334.89 693.6 334.944 692.529 334.413 691.225C333.841 689.816 331.369 688.211 329.861 688.929C327.94 689.845 328.867 692.99 328.43 694.338C328.03 695.572 326.958 696.688 326.471 698.227C323.701 698.712 323.585 699.56 323.017 702.036C321.161 703.05 319.327 704.192 317.469 705.157C317.437 704.641 317.227 702.933 317.549 702.599L317.817 702.856L317.844 704.354C319.429 703.521 320.938 702.551 322.499 701.729C322.892 699.93 323.203 699.321 324.556 698.086L326.028 697.783Z" fill="#854725"/>
<path d="M247.527 752.838C248.503 753.335 249.539 753.71 250.609 753.951C251.804 754.632 255.49 755.145 257.017 755.581C258.082 755.907 259.498 756.408 260.546 756.815C260.516 757.747 260.427 759.489 260.555 760.368C260.534 760.845 260.603 761.153 260.368 761.501C259.003 761.632 257.684 761.527 256.321 761.596C253.92 761.654 251.368 761.57 248.956 761.528C248.475 760.187 248.137 758.799 247.946 757.388C247.75 756.368 247.662 755.225 247.556 754.184C247.452 753.615 247.482 753.419 247.527 752.838Z" fill="#F1B15D"/>
<path d="M247.946 757.388L248.235 757.275C250.057 758.073 255.162 759.636 256.238 760.991C256.297 761.253 256.331 761.33 256.321 761.596C253.92 761.654 251.368 761.57 248.956 761.528C248.475 760.187 248.137 758.799 247.946 757.388Z" fill="#F4BF56"/>
<path d="M245.187 751.556C245.49 751.685 245.729 751.8 246.047 751.895C246.654 751.768 247.487 752.231 247.527 752.838C247.482 753.419 247.452 753.615 247.556 754.184C247.151 754.046 246.463 754.245 246.064 754.36L246.047 755.409C246.002 758.957 247.331 762.837 248.89 765.984C246.262 767.325 243.352 769.421 244.457 772.78C245.256 775.209 252.057 774.794 254.034 774.768C255.395 774.687 257.361 774.418 258.623 774.162C260.246 773.832 262.158 773.161 262.931 771.636C263.032 771.436 263.14 771.352 263.348 771.251L263.532 771.44C262.293 774.617 256.713 775.303 253.708 775.237C251.425 775.246 247.736 775.475 245.727 774.494C244.424 773.859 244.014 772.983 243.6 771.727C244.406 767.559 245.423 767.946 248.107 765.69L248.211 765.602C247.082 763.234 245.657 759.45 245.684 756.761C245.58 755.284 245.84 753.936 245.568 752.544C245.482 752.11 245.039 751.958 244.652 751.739L245.187 751.556Z" fill="#854725"/>
<path d="M246.047 751.895C246.654 751.768 247.487 752.231 247.527 752.838C247.482 753.419 247.452 753.615 247.556 754.184C247.151 754.046 246.463 754.245 246.064 754.36C246.092 753.478 246.126 752.774 246.047 751.895Z" fill="#6B2F1B"/>
<path d="M275.53 756.342L276.118 756.673C273.301 758.378 265.619 758.713 262.473 757.618C262.564 758.819 262.637 760.118 262.782 761.306C262.416 760.812 262.41 760.439 262.288 759.826C262.249 760.109 262.319 760.3 262.376 760.591C262.07 760.116 261.998 757.916 261.866 757.062C267.389 758.097 270.135 757.93 275.53 756.342Z" fill="#854725"/>
<path d="M290.291 754.072C290.337 753.663 290.316 753.569 290.592 753.258C291.028 753.08 291.355 753.251 291.832 753.392L292.264 754.88C291.461 755.117 291.244 755.289 290.52 754.906L290.291 754.072Z" fill="#5D220A"/>
<path d="M271.794 630.256C274.073 629.648 278.876 630.273 281.236 630.586C287.424 631.839 291.764 633.311 297.602 635.609L298.56 636.062C300.604 637.189 304.789 639.514 305.27 641.946C305.279 643.937 300.566 652.215 299.611 654.745C299.533 654.949 298.9 656.244 298.756 656.437L298.6 656.39C298.445 656.593 298.168 657.027 297.962 657.083C297.735 657.684 297.491 658.545 297.037 658.945C296.625 658.967 296.727 658.936 296.298 658.656L296.526 658.891C295.979 659.769 296.098 659.598 296.008 660.59L295.992 660.779C295.793 660.585 295.878 660.697 295.811 660.379L295.638 660.805L295.458 660.769C294.667 662.294 294.28 663.97 293.362 665.702C291.653 665.893 290.354 666.008 288.624 666.056C287.147 666.049 284.406 665.54 282.782 665.331C278.747 664.627 270.601 661.339 267.855 657.989C267.412 657.447 267.612 656.834 267.716 656.132L267.762 655.948L267.26 655.645C267.255 655.327 267.218 655.277 267.136 654.972C266.438 654.248 265.119 654.243 264.079 654.109L263.905 653.963L263.91 653.802L264.635 653.588C265.192 653.611 266.174 653.782 266.76 653.867L267.317 650.657C267.858 647.106 268.183 643.674 268.683 640.252C268.901 638.481 269.087 636.726 269.387 634.966C269.569 632.978 269.439 630.848 271.794 630.256Z" fill="#7661C7"/>
<path d="M268.651 650.932C270.992 652.491 273.701 654.383 276.197 655.591C277.582 656.262 279.683 656.819 281.17 657.302C281.599 657.442 283.369 658.107 283.64 658.142C284.886 658.668 288.198 659.137 289.601 659.107L289.915 659.208C292.353 659.401 293.715 659.207 296.107 658.853C295.903 659.452 295.635 660.174 295.458 660.769C294.667 662.294 294.28 663.97 293.362 665.702C291.653 665.893 290.354 666.008 288.624 666.056C287.147 666.049 284.406 665.54 282.782 665.331C278.747 664.627 270.601 661.339 267.855 657.989C267.412 657.447 267.612 656.834 267.716 656.132L267.762 655.948C267.939 654.999 268.095 654.177 268.195 653.213C268.288 653 268.587 651.276 268.651 650.932Z" fill="#E9E7EA"/>
<path d="M302.78 639.402C304.197 640.505 304.583 640.753 304.635 642.593C304.646 642.2 304.574 641.608 304.791 641.401L305.27 641.946C305.279 643.937 300.566 652.215 299.611 654.745C299.533 654.949 298.9 656.244 298.756 656.437L298.6 656.39C298.445 656.593 298.168 657.027 297.962 657.083C297.735 657.684 297.491 658.545 297.037 658.945C296.625 658.967 296.727 658.936 296.298 658.656L296.526 658.891C295.979 659.769 296.098 659.598 296.008 660.59L295.992 660.779C295.793 660.585 295.878 660.697 295.811 660.379L295.638 660.805L295.458 660.769C295.635 660.174 295.903 659.452 296.107 658.853C293.715 659.207 292.353 659.401 289.915 659.208C290.649 657.131 298.005 644.063 297.952 643.717L297.552 643.551L297.57 643.449L297.869 643.311L297.974 643.367L297.928 643.257L297.527 643.299L297.569 643.235C297.341 643.019 297.399 643.076 297.112 642.925C297.712 642.924 298.357 642.905 298.95 642.964C300.692 643.14 301.748 643.223 303.429 642.722L303.568 642.339C303.43 641.648 302.626 640.871 302.136 640.319C302.331 639.817 302.385 639.794 302.78 639.402Z" fill="#5B4AA9"/>
<path d="M302.78 639.402C304.197 640.505 304.583 640.753 304.635 642.593C304.646 642.2 304.574 641.608 304.791 641.401L305.27 641.946C305.279 643.937 300.566 652.215 299.611 654.745C299.533 654.949 298.9 656.244 298.756 656.437L298.6 656.39C298.445 656.593 298.168 657.027 297.962 657.083C297.735 657.684 297.491 658.545 297.037 658.945C296.625 658.967 296.727 658.936 296.298 658.656C296.042 657.721 301.999 645.98 302.844 644.124C302.861 643.593 303.146 643.143 303.429 642.722L303.568 642.339C303.43 641.648 302.626 640.871 302.136 640.319C302.331 639.817 302.385 639.794 302.78 639.402Z" fill="#3D3183"/>
<path d="M304.635 642.593C304.646 642.2 304.574 641.608 304.791 641.401L305.27 641.946C305.279 643.937 300.566 652.215 299.611 654.745C299.533 654.949 298.9 656.244 298.756 656.437L298.6 656.39C298.445 656.593 298.168 657.027 297.962 657.083C298.062 656.159 300.269 652.102 300.733 651.004C301.91 648.211 303.437 645.374 304.635 642.593Z" fill="#5B4AA9"/>
<path d="M298.95 642.964C300.692 643.14 301.748 643.223 303.429 642.722C303.146 643.143 302.861 643.593 302.844 644.124C301.904 643.814 298.82 644.456 298.299 643.462C298.535 643.092 298.496 643.195 298.95 642.964Z" fill="#4A3C94"/>
<path d="M271.794 630.256C274.073 629.648 278.876 630.273 281.236 630.586C280.773 630.657 280.369 630.64 280.051 630.897L280.099 630.996L280.867 631.09C280.247 631.958 280.483 631.884 279.343 631.884C278.461 631.829 277.326 631.731 276.5 631.695C275.229 631.638 272.702 631.205 271.672 632.025C270.605 632.875 270.888 636.167 270.698 637.449C270.437 639.74 269.967 642.155 269.597 644.45C269.304 646.18 269.151 649.411 268.651 650.932C268.587 651.276 268.288 653 268.195 653.213C268.095 654.177 267.939 654.999 267.762 655.948L267.26 655.645C267.255 655.327 267.218 655.277 267.136 654.972C266.438 654.248 265.119 654.243 264.079 654.109L263.905 653.963L263.91 653.802L264.635 653.588C265.192 653.611 266.174 653.782 266.76 653.867L267.317 650.657C267.858 647.106 268.183 643.674 268.683 640.252C268.901 638.481 269.087 636.726 269.387 634.966C269.569 632.978 269.439 630.848 271.794 630.256Z" fill="#3F358C"/>
<path d="M269.387 634.966C269.569 632.978 269.439 630.848 271.794 630.256L271.77 630.545C272.376 630.749 272.512 630.535 273.184 630.623C269.822 631.274 270.545 631.525 269.991 634.817C269.806 635.919 269.608 637.108 269.39 638.21C269.359 639.096 269.296 639.531 269.14 640.409L268.683 640.252C268.901 638.481 269.087 636.726 269.387 634.966Z" fill="#5B4AA9"/>
<path d="M268.683 640.252C268.901 638.481 269.087 636.726 269.387 634.966C269.515 636.228 269.164 637.484 269.39 638.21C269.359 639.096 269.296 639.531 269.14 640.409L268.683 640.252Z" fill="#4A3C94"/>
<path d="M268.683 640.252L269.14 640.409C269.105 643.74 268.484 647.5 267.857 650.797L267.656 650.081L267.317 650.657C267.858 647.106 268.183 643.674 268.683 640.252Z" fill="#5B4AA9"/>
<path d="M267.317 650.657L267.656 650.081L267.857 650.797C267.751 652.11 267.755 653.529 267.269 654.724C267.363 655.015 267.354 655.137 267.556 655.325C267.8 654.453 267.726 653.882 268.195 653.213C268.095 654.177 267.939 654.999 267.762 655.948L267.26 655.645C267.255 655.327 267.218 655.277 267.136 654.972C266.438 654.248 265.119 654.243 264.079 654.109L263.905 653.963L263.91 653.802L264.635 653.588C265.192 653.611 266.174 653.782 266.76 653.867L267.317 650.657Z" fill="#5B64C3"/>
<path d="M271.794 630.256C274.073 629.648 278.876 630.273 281.236 630.586C280.773 630.657 280.369 630.64 280.051 630.897L280.099 630.996C279.769 631.069 278.942 630.922 278.546 630.872C276.748 630.648 274.996 630.625 273.184 630.623C272.512 630.535 272.376 630.749 271.77 630.545L271.794 630.256Z" fill="#5B64C3"/>
<path d="M281.236 630.586C287.424 631.839 291.764 633.311 297.602 635.609L298.56 636.062L298.261 636.42C297.645 636.317 297.476 636.16 297.018 636.677C296.882 636.645 295.141 635.87 294.756 635.726C292.454 634.863 290.177 634.421 288.052 633.18L287.824 633.224L287.8 633.096C286.464 632.571 282.232 631.325 280.867 631.09L280.099 630.996L280.051 630.897C280.369 630.64 280.773 630.657 281.236 630.586Z" fill="#7F7BC9"/>
<path d="M288.052 633.18C290.684 632.98 295.747 636.339 297.594 635.899C297.599 635.817 297.617 635.681 297.602 635.609L298.56 636.062L298.261 636.42C297.645 636.317 297.476 636.16 297.018 636.677C296.882 636.645 295.141 635.87 294.756 635.726C292.454 634.863 290.177 634.421 288.052 633.18Z" fill="#7965C6"/>
<path d="M298.56 636.062C300.604 637.189 304.789 639.514 305.27 641.946L304.791 641.401C304.574 641.608 304.646 642.2 304.635 642.593C304.583 640.753 304.197 640.505 302.78 639.402C302.385 639.794 302.331 639.817 302.136 640.319C300.27 638.411 299.172 638.13 297.018 636.677C297.476 636.16 297.645 636.317 298.261 636.42L298.56 636.062Z" fill="#4A3C94"/>
<path d="M298.56 636.062C300.604 637.189 304.789 639.514 305.27 641.946L304.791 641.401C304.574 641.608 304.646 642.2 304.635 642.593C304.583 640.753 304.197 640.505 302.78 639.402C301.434 638.308 299.736 637.347 298.261 636.42L298.56 636.062Z" fill="#5856A9"/>
<path d="M291.045 642.534C289.353 642.521 285.643 641.077 283.855 640.642C283.115 640.462 282.267 640.338 281.575 640.081L281.5 639.855C281.574 639.554 281.661 639.07 281.822 638.834C285.04 639.962 288.003 641.289 291.449 641.977L291.045 642.272V642.534Z" fill="#4A3C94"/>
<path d="M291.449 641.977C292.525 642.185 293.606 642.373 294.689 642.54C295.567 642.64 296.243 642.756 297.112 642.925C297.399 643.076 297.341 643.019 297.569 643.235L297.527 643.299L297.928 643.257L297.974 643.367L297.869 643.311L297.57 643.449L297.552 643.551C296.583 643.652 292.562 643.34 291.703 642.727L291.045 642.534V642.272L291.449 641.977Z" fill="#4A3C94"/>
<path d="M291.449 641.977C292.525 642.185 293.606 642.373 294.689 642.54L294.781 642.708L294.209 642.8L294.258 642.961L294.949 643.088C293.952 643.158 292.751 642.857 291.703 642.727L291.045 642.534V642.272L291.449 641.977Z" fill="#3D3183"/>
<path d="M280.867 631.09C282.232 631.325 286.464 632.571 287.8 633.096L287.824 633.224C285.533 632.441 281.753 632.258 279.343 631.884C280.483 631.884 280.247 631.958 280.867 631.09Z" fill="#7965C6"/>
<path d="M283.64 658.142C283.912 658.152 285.658 658.374 285.599 658.391C286.409 658.151 286.339 657.564 287.442 657.991L287.503 658.087C287.691 658.382 287.724 658.466 288.007 658.688C288.521 658.727 288.926 658.773 289.435 658.849L289.601 659.107C288.198 659.137 284.886 658.668 283.64 658.142Z" fill="#5B4AA9"/>
<path d="M272.007 633.208C272.951 633.608 275.637 635.526 276.451 636.217L276.277 636.278L275.816 635.919L275.635 636.045C275.65 636.389 275.565 636.487 275.407 636.791C274.864 636.57 274.557 636.289 274.002 636.141C273.783 636.369 273.824 636.803 273.792 637.191C273.703 637.086 273.574 635.949 273.54 635.715C272.934 634.965 272.171 634.156 272.007 633.208Z" fill="#5B4AA9"/>
<path d="M253.661 659.46C253.978 659.68 254.344 659.909 254.604 660.184L254.819 660.388C254.991 660.94 255.125 661.047 255.519 661.483C254.604 661.648 253.057 661.807 252.283 662.034C251.141 662.381 248.39 663.305 247.447 664.009C246.616 664.495 246.105 664.805 245.341 665.38C245.295 666.08 245.472 666.523 245.671 667.196C244.234 668.262 241.988 669.919 240.433 670.738C236.746 672.681 234.893 675.374 232.494 678.645C231.988 679.334 230.365 681.08 230.991 681.847C230.471 682.117 230.19 682.242 229.726 682.612C229.467 683.231 229.225 683.88 228.956 684.491C228.608 685.279 228.544 686.263 227.764 686.659C227.322 686.619 227.103 686.57 226.676 686.663C226.213 687.155 225.646 687.958 225.098 688.176C224.71 688.063 224.84 688.112 224.575 687.632C223.675 689.764 223.236 690.993 222.658 693.227C222.297 694.736 220.484 702.715 220.565 703.812C220.301 705.919 220.087 707.681 220.029 709.802C220.38 714.369 220.962 718.725 223.334 722.765C223.779 723.524 225.202 724.518 225.357 724.956C226.129 727.143 227.223 729.049 228.202 731.112C228.975 732.743 229.449 734.406 230.322 736.052C230.932 737.044 231.489 737.971 232.177 738.917C234.2 741.236 236.824 744.05 240 744.689C240.613 745.34 241.281 746.568 241.787 747.004C244.222 749.1 247.369 751.018 250.495 751.822C251.678 751.914 252.472 751.702 253.431 752.366C253.933 753.419 251.298 753.889 250.609 753.951C249.539 753.71 248.503 753.335 247.527 752.838C247.487 752.231 246.654 751.768 246.047 751.895C245.729 751.8 245.49 751.685 245.187 751.556L244.652 751.739C244.082 751.555 243.236 751.027 242.671 750.729C241.711 750.533 239.538 747.443 239.203 747.325C236.798 746.482 235.703 745.411 233.813 743.853C228.335 739.339 226.768 732.97 223.735 726.925C223.066 725.593 221.793 724.581 221.033 723.288C219.601 720.943 219.258 718.499 218.396 715.968C217.935 715.706 216.978 715.252 216.489 715.058C213.463 713.852 210.322 710.859 207.536 709.575L207.442 709.533C206.732 709.205 205.665 709.419 204.872 709.284C204.01 709.136 203.888 708.931 202.919 708.877L201.883 707.131C199.495 707.152 197.669 707.06 195.355 706.447C192.068 705.576 188.895 705.639 186.929 702.484C186.924 702.164 186.911 701.843 186.905 701.528C186.874 699.785 185.585 698.241 186.137 696.376C186.579 694.884 187.457 694.262 188.703 693.509C188.779 693.227 188.861 692.946 188.949 692.667C190.384 688.157 197.744 688.497 201.325 689.683C201.572 687.466 201.758 685.799 203.844 684.421C204.585 683.931 206.405 683.89 207.211 684.191C209.675 685.109 208.545 687.894 208.907 689.792C209.075 690.507 210.467 692.697 210.96 693.63C213.681 694.583 213.784 695.45 214.265 698.059C215.566 698.995 217.242 699.919 218.707 700.956C218.747 699.698 219.087 698.454 219.284 697.222C221.168 685.414 228.255 674.752 237.762 667.571C239.794 665.972 242.415 664.904 244.342 663.21C247.202 660.696 250.207 660.587 253.556 659.495L253.661 659.46Z" fill="#5D220A"/>
<path d="M254.604 660.184L254.819 660.388C254.991 660.94 255.125 661.047 255.519 661.483C254.604 661.648 253.057 661.807 252.283 662.034C251.141 662.381 248.39 663.305 247.447 664.009C246.616 664.495 246.105 664.805 245.341 665.38C245.295 666.08 245.472 666.523 245.671 667.196C244.234 668.262 241.988 669.919 240.433 670.738C236.746 672.681 234.893 675.374 232.494 678.645C231.988 679.334 230.365 681.08 230.991 681.847C230.471 682.117 230.19 682.242 229.726 682.612C229.467 683.231 229.225 683.88 228.956 684.491C228.608 685.279 228.544 686.263 227.764 686.659C227.322 686.619 227.103 686.57 226.676 686.663C226.213 687.155 225.646 687.958 225.098 688.176C224.71 688.063 224.84 688.112 224.575 687.632C223.675 689.764 223.236 690.993 222.658 693.227C222.297 694.736 220.484 702.715 220.565 703.812C220.301 705.919 220.087 707.681 220.029 709.802C219.526 709.58 219.348 709.454 218.806 709.478C218.449 709.631 218.36 709.639 218.141 709.963C218.196 707.704 218.296 705.554 218.635 703.317C218.181 702.971 217.516 702.561 217.022 702.238C217.547 702.038 217.844 701.944 218.39 701.808L218.619 701.424L218.747 701.443C219.286 701.187 219.41 699.387 219.493 698.724C220.896 687.612 226.611 677.903 234.924 670.472C238.452 667.318 241.981 665.631 245.718 662.789C247.605 661.355 252.233 660.06 254.604 660.184Z" fill="#5D220A"/>
<path d="M245.341 665.38C245.295 666.08 245.472 666.523 245.671 667.196C244.234 668.262 241.988 669.919 240.433 670.738C236.746 672.681 234.893 675.374 232.494 678.645C231.988 679.334 230.365 681.08 230.991 681.847C230.471 682.117 230.19 682.242 229.726 682.612C230.127 680.811 232.447 678.584 230.738 677.494C231.333 676.591 232.607 675.349 233.345 674.53C235.484 672.156 237.508 670.534 240.174 668.796C241.62 667.853 243.895 666.533 245.194 665.498L245.341 665.38Z" fill="#F4BF56"/>
<path d="M230.738 677.494C232.447 678.584 230.127 680.811 229.726 682.612C229.467 683.231 229.225 683.88 228.956 684.491C228.608 685.279 228.544 686.263 227.764 686.659C227.322 686.619 227.103 686.57 226.676 686.663C226.213 687.155 225.646 687.958 225.098 688.176C224.71 688.063 224.84 688.112 224.575 687.632C225.819 684.778 228.798 679.864 230.738 677.494Z" fill="#FAE0B2"/>
<path d="M253.661 659.46C253.978 659.68 254.344 659.909 254.604 660.184C252.233 660.06 247.605 661.355 245.718 662.789C241.981 665.631 238.452 667.318 234.924 670.472C226.611 677.903 220.896 687.612 219.493 698.724C219.41 699.387 219.286 701.187 218.747 701.443L218.619 701.424C217.029 700.363 215.276 699.274 213.726 698.211C213.565 696.707 213.577 696.133 212.657 694.898C211.767 694.464 211.467 694.329 210.491 694.128C209.922 692.678 209.026 691.318 208.499 690.07C207.994 688.876 208.856 684.904 207.199 684.585C202.562 683.69 201.969 687.786 201.72 690.199C197.77 689.596 190.156 688.118 189.242 693.701C186.37 695.615 185.539 697.268 187.433 700.419C186.818 704.456 190.538 704.754 193.582 705.533C196.435 706.263 199.017 706.711 201.987 706.624C203.477 708.646 204.452 709.217 207.021 708.432C208.841 710.154 213.459 712.793 215.751 714.118C216.654 714.641 218.059 715.229 218.873 715.744C219.616 718.484 220.252 721.389 221.792 723.815C222.269 724.566 223.867 725.842 224.109 726.493C224.802 728.408 225.709 730.16 226.596 731.985C227.116 733.055 227.414 734.365 227.964 735.44C230.442 740.284 234.299 745.201 239.675 746.907C241.102 749.287 242.569 750.42 245.187 751.556L244.652 751.739C244.082 751.555 243.236 751.027 242.671 750.729C241.711 750.533 239.538 747.443 239.203 747.325C236.798 746.482 235.703 745.411 233.813 743.853C228.335 739.339 226.768 732.97 223.735 726.925C223.066 725.593 221.793 724.581 221.033 723.288C219.601 720.943 219.258 718.499 218.396 715.968C217.935 715.706 216.978 715.252 216.489 715.058C213.463 713.852 210.322 710.859 207.536 709.575L207.442 709.533C206.732 709.205 205.665 709.419 204.872 709.284C204.01 709.136 203.888 708.931 202.919 708.877L201.883 707.131C199.495 707.152 197.669 707.06 195.355 706.447C192.068 705.576 188.895 705.639 186.929 702.484C186.924 702.164 186.911 701.843 186.905 701.528C186.874 699.785 185.585 698.241 186.137 696.376C186.579 694.884 187.457 694.262 188.703 693.509C188.779 693.227 188.861 692.946 188.949 692.667C190.384 688.157 197.744 688.497 201.325 689.683C201.572 687.466 201.758 685.799 203.844 684.421C204.585 683.931 206.405 683.89 207.211 684.191C209.675 685.109 208.545 687.894 208.907 689.792C209.075 690.507 210.467 692.697 210.96 693.63C213.681 694.583 213.784 695.45 214.265 698.059C215.566 698.995 217.242 699.919 218.707 700.956C218.747 699.698 219.087 698.454 219.284 697.222C221.168 685.414 228.255 674.752 237.762 667.571C239.794 665.972 242.415 664.904 244.342 663.21C247.202 660.696 250.207 660.587 253.556 659.495L253.661 659.46Z" fill="#854725"/>
<path d="M213.583 699.935L217.022 702.238C217.516 702.561 218.181 702.971 218.635 703.317C218.296 705.554 218.196 707.704 218.141 709.963C218.15 711.327 218.152 712.334 218.309 713.69C214.904 711.832 211.598 710.03 208.549 707.611C211.519 705.11 212.523 703.646 213.583 699.935Z" fill="#F1B451"/>
<path d="M230.322 736.052C230.932 737.044 231.489 737.971 232.177 738.917C230.46 738.392 230.349 737.732 230.322 736.052Z" fill="#6B2F1B"/>
<path d="M190.34 693.282C193.078 688.749 198.557 691.604 202.496 691.28C202.941 691.244 202.855 683.596 206.834 685.837C207.683 686.838 206.926 688.777 207.237 689.794C208.09 692.592 209.152 692.661 209.436 695.759C209.63 696.018 210.002 696.584 210.211 696.766C210.406 695.947 210.283 695.933 210.782 695.381C210.966 695.32 211.167 695.198 211.306 695.296C213.281 696.68 212.179 700.413 211.591 701.803C210.723 703.883 208.628 706.213 206.537 707.184C205.668 707.588 203.927 707.752 203.543 706.645C203.986 705.958 205.756 705.836 205.511 704.868C204.729 704.653 202.45 705.635 201.442 705.55C198.349 705.289 189.256 704.667 188.292 701.281C189.311 699.597 192.075 698.981 194.099 699.735C194.163 699.759 194.262 700.493 194.696 700.831L195.021 700.706C195.269 700.047 195.173 699.271 195.268 698.544C195.476 696.965 196.067 695.582 196.818 694.199C197.266 693.374 198.604 692.121 198.534 691.417C197.604 691.288 196.402 692.873 195.907 693.502C194.373 692.723 191.97 692.985 190.34 693.282Z" fill="#FCFCFD"/>
<path d="M188.292 701.281C192.458 703.377 198.603 704.534 203.295 703.743C204.403 703.556 206.027 702.079 207.155 702.443C207.559 703.111 207.384 703.274 207.887 703.559C209.517 703.396 210.11 701.789 211.591 701.803C210.723 703.883 208.628 706.213 206.537 707.184C205.668 707.588 203.927 707.752 203.543 706.645C203.986 705.958 205.756 705.836 205.511 704.868C204.729 704.653 202.45 705.635 201.442 705.55C198.349 705.289 189.256 704.667 188.292 701.281Z" fill="#D8D2DD"/>
<path d="M209.436 695.759C209.63 696.018 210.002 696.584 210.211 696.766C209.976 697.245 209.959 697.293 209.602 697.681L209.433 697.664C209.25 697.053 209.375 696.41 209.436 695.759Z" fill="#6B2F1B"/>
<path d="M198.94 697.218C199.897 696.016 201.007 695.279 202.586 695.092C203.803 694.947 206.398 695.063 206.303 696.8C205.532 697.376 203.216 694.805 199.689 697.473L198.94 697.218Z" fill="#72321A"/>
<path d="M198.94 697.218L199.689 697.473C199.342 697.778 199.195 697.978 198.759 698.059C198.638 697.713 198.755 697.674 198.94 697.218Z" fill="#A65725"/>
<path d="M187.804 698.866C187.311 697.692 187.569 696.303 188.611 695.513C190.517 694.069 193.047 694.325 195.282 694.556C194.806 695.668 194.582 696.284 194.329 697.46C194.208 698.071 194.326 698.006 193.951 698.316C192.679 698.48 191.541 698.086 190.327 698.25C189.732 698.33 188.576 699.242 187.95 699.165L187.804 698.866Z" fill="#FCFCFD"/>
<path d="M194.329 697.46C194.208 698.071 194.326 698.006 193.951 698.316C192.679 698.48 191.541 698.086 190.327 698.25C189.732 698.33 188.576 699.242 187.95 699.165L187.804 698.866C188.131 698.687 188.186 698.267 188.327 698.173C189.795 697.19 192.669 697.44 194.329 697.46Z" fill="#D8D2DD"/>
<path d="M253.346 655.633C256.222 651.933 260.673 653.055 264.635 653.588L263.91 653.802L263.905 653.963L264.079 654.109C265.119 654.243 266.438 654.248 267.136 654.972C267.218 655.277 267.255 655.327 267.26 655.645L267.762 655.948L267.716 656.132C267.612 656.834 267.412 657.447 267.855 657.989C270.601 661.339 278.747 664.627 282.782 665.331C284.406 665.54 287.147 666.049 288.624 666.056C290.354 666.008 291.653 665.893 293.362 665.702C294.28 663.97 294.667 662.294 295.458 660.769L295.638 660.805L295.811 660.379C295.878 660.697 295.793 660.585 295.992 660.779L296.008 660.59C296.098 659.598 295.979 659.769 296.526 658.891L296.298 658.656C296.727 658.936 296.625 658.967 297.037 658.945C297.491 658.545 297.735 657.684 297.962 657.083C298.168 657.027 298.445 656.593 298.6 656.39L298.756 656.437C298.284 658.153 297.483 659.754 296.823 661.403C296.601 661.956 296.339 662.308 296.902 662.676C297.544 662.582 298.025 662.789 298.627 663.033C301.145 663.674 304.483 665.917 305.982 668.105C306.747 669.222 306.53 670.365 306.41 671.579C306.289 672.787 304.551 673.422 304.975 674.039L304.759 674.394C304.573 674.094 304.37 673.963 304.097 673.741L304.015 673.767C303.625 674.05 303.029 674.382 302.731 674.614C298.938 676.073 295.774 676.428 291.724 676.19C289.851 676.077 286.362 675.725 284.553 675.296C282.262 674.664 279.694 674.225 277.258 673.58C274.216 672.88 267.785 669.997 264.881 668.553C260.692 665.799 259.141 665.395 255.519 661.483C255.125 661.047 254.991 660.94 254.819 660.388L254.604 660.184C254.344 659.909 253.978 659.68 253.661 659.46C253.03 658.01 253.202 657.143 253.346 655.633Z" fill="#7965C6"/>
<path d="M253.346 655.633C256.222 651.933 260.673 653.055 264.635 653.588L263.91 653.802L263.905 653.963L264.079 654.109C265.119 654.243 266.438 654.248 267.136 654.972C267.218 655.277 267.255 655.327 267.26 655.645C264.95 654.968 258.623 654.068 256.365 655.221C255.91 655.453 255.534 655.91 255.272 656.35C254.981 657.28 255.215 658.608 255.715 659.427C258.281 663.432 262.847 666.45 267.077 668.539C268.559 669.271 270.327 669.75 271.879 670.329C272.737 670.65 274.248 671.371 275.02 671.53C281.889 674.122 288.735 675.086 296.074 675.023C298.088 675.006 303.18 673.423 304.015 673.767C303.625 674.05 303.029 674.382 302.731 674.614C298.938 676.073 295.774 676.428 291.724 676.19C289.851 676.077 286.362 675.725 284.553 675.296C282.262 674.664 279.694 674.225 277.258 673.58C274.216 672.88 267.785 669.997 264.881 668.553C260.692 665.799 259.141 665.395 255.519 661.483C255.125 661.047 254.991 660.94 254.819 660.388L254.604 660.184C254.344 659.909 253.978 659.68 253.661 659.46C253.03 658.01 253.202 657.143 253.346 655.633Z" fill="#3D3183"/>
<path d="M253.346 655.633C256.222 651.933 260.673 653.055 264.635 653.588L263.91 653.802L263.905 653.963L264.079 654.109C261.384 653.645 254.524 652.485 253.636 656.685C253.283 658.35 254.36 659.092 254.819 660.388L254.604 660.184C254.344 659.909 253.978 659.68 253.661 659.46C253.03 658.01 253.202 657.143 253.346 655.633Z" fill="#5B4AA9"/>
<path d="M298.627 663.033C301.145 663.674 304.483 665.917 305.982 668.105C306.747 669.222 306.53 670.365 306.41 671.579C306.289 672.787 304.551 673.422 304.975 674.039L304.759 674.394C304.573 674.094 304.37 673.963 304.097 673.741L304.015 673.767C303.18 673.423 298.088 675.006 296.074 675.023C288.735 675.086 281.889 674.122 275.02 671.53C276.154 671.439 276.622 671.478 277.73 671.706L277.83 671.603L277.085 671.324C277.167 671.274 278.314 671.463 278.661 671.466H278.767C279.383 671.497 282.711 672.306 283.613 672.47C288.075 673.282 293.108 673.786 297.63 673.277C299.203 673.099 302.529 672.474 303.851 671.601C304.108 671.432 304.595 670.801 304.806 670.53C304.34 667.754 302.371 666.452 299.973 665.274C298.958 665.068 296.687 664.449 296.573 663.258C297.281 662.87 297.538 663.606 298.627 663.033Z" fill="#5241A0"/>
<path d="M298.627 663.033C301.145 663.674 304.483 665.917 305.982 668.105C306.747 669.222 306.53 670.365 306.41 671.579C306.289 672.787 304.551 673.422 304.975 674.039L304.759 674.394C304.573 674.094 304.37 673.963 304.097 673.741C304.27 673.202 304.957 672.994 305.485 672.243C305.396 671.77 305.715 671.444 305.686 671.336C305.42 670.377 305.321 668.742 305.13 667.891C304.401 666.61 298.75 662.659 297.591 663.682C297.912 664.461 298.995 664.693 299.843 665.196L299.973 665.274C298.958 665.068 296.687 664.449 296.573 663.258C297.281 662.87 297.538 663.606 298.627 663.033Z" fill="#5B4AA9"/>
<path d="M305.13 667.891C306.147 669.062 306.436 670.965 305.485 672.243C305.396 671.77 305.715 671.444 305.686 671.336C305.42 670.377 305.321 668.742 305.13 667.891Z" fill="#3D3183"/>
<path d="M255.272 656.35C255.601 657.308 256.299 657.396 256.342 657.511C257.635 660.947 260.37 663.115 263.471 664.862C267.445 667.101 271.148 669.283 275.562 670.561C276.533 670.842 277.881 671.119 278.767 671.466H278.661C278.314 671.463 277.167 671.274 277.085 671.324L277.83 671.603L277.73 671.706C276.622 671.478 276.154 671.439 275.02 671.53C274.248 671.371 272.737 670.65 271.879 670.329C270.327 669.75 268.559 669.271 267.077 668.539C262.847 666.45 258.281 663.432 255.715 659.427C255.215 658.608 254.981 657.28 255.272 656.35Z" fill="#5B4AA9"/>
<path d="M281.325 666.021C279.383 665.573 277.216 665.034 275.397 664.212C273.057 663.155 265.211 659.003 266.827 655.94L266.953 656.291L267.379 655.908C267.49 655.989 267.596 656.065 267.716 656.132C267.612 656.834 267.412 657.447 267.855 657.989C270.601 661.339 278.747 664.627 282.782 665.331C282.2 665.364 281.925 665.32 281.459 665.655L281.325 666.021Z" fill="#4E4392"/>
<path d="M282.782 665.331C284.406 665.54 287.147 666.049 288.624 666.056C289.25 666.25 289.34 665.991 289.85 666.31C289.566 666.392 289.337 666.279 289.029 666.403C289.533 666.868 289.276 666.743 290.055 666.81L289.979 666.915C287.156 667.419 284.003 667.022 281.325 666.021L281.459 665.655C281.925 665.32 282.2 665.364 282.782 665.331Z" fill="#3D3183"/>
<path d="M297.962 657.083C298.168 657.027 298.445 656.593 298.6 656.39L298.756 656.437C298.284 658.153 297.483 659.754 296.823 661.403C296.601 661.956 296.339 662.308 296.902 662.676C296.457 662.954 296.687 662.901 296.204 662.895L295.968 662.641C295.787 661.726 296.398 660.054 296.851 659.259L296.526 658.891L296.298 658.656C296.727 658.936 296.625 658.967 297.037 658.945C297.491 658.545 297.735 657.684 297.962 657.083Z" fill="#5B64C3"/>
<path d="M222.658 693.227L222.75 693.509C223.384 693.693 225.085 693.092 225.835 693.073C228.573 693.001 230.807 695.043 232.039 697.304C233.184 701.679 230.996 704.814 227.361 707.027C226.861 707.283 226.447 707.526 225.903 707.674C224.769 707.558 224.301 707.286 223.329 706.761C221.658 705.403 221.833 704.957 220.745 703.762L220.565 703.812C220.484 702.715 222.297 694.736 222.658 693.227Z" fill="#A65725"/>
<path d="M223.329 706.761C224.286 706.089 226.621 705.967 227.361 707.027C226.861 707.283 226.447 707.526 225.903 707.674C224.769 707.558 224.301 707.286 223.329 706.761Z" fill="#854725"/>
<path d="M284.553 675.296C286.362 675.725 289.851 676.077 291.724 676.19C291.35 676.261 291.467 676.163 291.289 676.396C292.254 678.389 293.179 679.337 291.815 681.544C289.646 685.059 283.888 682.252 283.245 678.984C282.972 677.59 283.765 676.411 284.553 675.296Z" fill="#AE5D27"/>
<path d="M264.881 668.553C267.785 669.997 274.216 672.88 277.258 673.58C276.981 674.114 276.47 674.59 275.947 674.888C272.179 677.04 267.064 674.827 264.93 671.406C264.63 670.467 264.166 669.361 264.881 668.553Z" fill="#A65725"/>
<path d="M232.039 697.304C233.675 698.525 234.988 699.531 235.231 701.678C235.872 707.343 230.335 708.773 225.903 707.674C226.447 707.526 226.861 707.283 227.361 707.027C230.996 704.814 233.184 701.679 232.039 697.304Z" fill="#B87B3D"/>
<path d="M247.447 664.009L247.793 664.236C248.016 665.546 247.926 665.537 248.732 666.644C247.566 667.501 246.176 668.494 244.89 669.143C240.99 671.109 237.983 674.295 234.914 677.328C233.537 678.689 232.576 680.577 230.991 681.847C230.365 681.08 231.988 679.334 232.494 678.645C234.893 675.374 236.746 672.681 240.433 670.738C241.988 669.919 244.234 668.262 245.671 667.196C245.472 666.523 245.295 666.08 245.341 665.38C246.105 664.805 246.616 664.495 247.447 664.009Z" fill="#FAE0B2"/>
<path d="M246.644 665.036C247.241 665.146 247.441 665.261 247.635 665.827C247.409 666.233 247.502 666.1 246.982 666.326C246.474 666.223 246.209 666.195 245.973 665.713C246.165 665.245 246.138 665.376 246.644 665.036Z" fill="#FCFCFD"/>
<path d="M255.519 661.483C259.141 665.395 260.692 665.799 264.881 668.553C264.166 669.361 264.63 670.467 264.93 671.406C264.118 671.344 263.278 670.895 262.573 670.554C258.741 668.698 256.701 665.214 253.988 662.174C253.698 661.849 252.732 662.005 252.283 662.034C253.057 661.807 254.604 661.648 255.519 661.483Z" fill="#F1B15D"/>
<path d="M250.495 751.822C251.583 751.604 256.472 750.39 257.084 750.947C258.056 751.829 258.487 753.52 260.367 754.578C259.335 754.314 257.614 753.601 256.762 753.895C256.445 754.322 256.527 754.123 256.499 754.672C256.666 754.978 256.839 755.281 257.017 755.581C255.49 755.145 251.804 754.632 250.609 753.951C251.298 753.889 253.933 753.419 253.431 752.366C252.472 751.702 251.678 751.914 250.495 751.822Z" fill="#D58431"/>
<path d="M311.553 723.916C310.72 726.039 309.118 726.721 308.498 728.567C308.073 729.835 307.642 733.189 307.76 734.508C308.26 734.245 309.653 729.368 310.293 728.342C311.555 726.316 313.768 723.454 314.463 721.268C313.868 721.287 313.322 721.844 312.396 721.921C311.682 721.58 311.657 721.02 312.056 720.414C312.086 721.105 311.981 720.951 312.317 721.457C313.214 721.766 314.084 721.01 314.944 720.629C314.24 722.5 313.838 723.523 312.724 725.241C312.25 725.969 310.581 728.294 310.315 728.938C309.108 731.847 309.297 733.266 307.218 736.05C307.712 734.274 307.491 729.252 308.72 727.415C309.497 726.25 310.558 725.487 311.553 723.916Z" fill="#D58431"/>
<path d="M259.486 699.141C260.977 699.06 262.683 699.231 264.186 699.332C267.43 699.548 270.641 699.241 273.876 699.336C276.64 699.418 276.784 702.572 276.577 704.631C276.284 707.556 274.835 709.464 272.589 711.287C271.89 711.768 270.932 712.166 270.123 712.419C267.464 713.268 264.571 713.014 262.103 711.715C259.907 710.554 257.81 708.706 257.169 706.246C256.499 703.676 256.146 699.903 259.486 699.141Z" fill="#5D220A"/>
<path d="M267.349 705.081C268.685 704.957 273.592 705.047 273.68 706.815C273.799 709.249 269.258 710.653 267.491 710.942C265.861 710.896 264.03 710.463 262.543 709.836C257.76 707.819 265.741 705.369 267.349 705.081Z" fill="#E37150"/>
<path d="M259.506 700.516C264.273 700.809 268.773 701.052 273.552 700.84C274.01 700.82 274.568 701.091 274.589 701.612C274.131 702.457 273.813 702.481 272.909 702.759C268.603 703.974 264.265 704.341 259.949 702.819C258.77 702.403 258.949 701.369 259.506 700.516Z" fill="#FCFCFD"/>
<path d="M295.761 719.303C298.434 719.244 300.555 721.886 300.838 724.363C300.995 725.826 300.562 727.291 299.633 728.437C298.266 730.148 295.164 731.717 293.029 731.952C286.643 731.774 286.257 724.606 289.918 720.873C291.703 719.052 293.412 719.372 295.761 719.303Z" fill="#854725"/>
<path d="M246.848 674.774C247.505 674.787 248.159 674.815 248.815 674.83C252.462 674.911 254.344 679.523 252.619 682.459C251.378 684.571 249.88 684.996 247.66 685.597C239.464 688.164 240.064 675.703 246.848 674.774Z" fill="#854725"/>
<path d="M256.152 734.975C263.771 734.186 266.977 742.817 258.886 745.478C257.756 745.819 256.211 745.65 255.129 745.136C253.696 744.44 252.608 743.199 252.113 741.694C251.022 738.447 253.117 735.934 256.152 734.975Z" fill="#854725"/>
<path d="M235.67 719.678C236.74 719.627 237.532 719.565 238.587 719.944C241.284 720.911 242.824 724.663 241.77 727.259C241.23 728.59 240.144 729.272 238.856 729.82C237.756 729.883 236.682 729.948 235.622 729.537C233.001 728.519 231.758 724.869 232.823 722.373C233.384 721.057 234.35 720.223 235.67 719.678Z" fill="#854725"/>
<path d="M288.402 704.533C290.494 704.499 292.679 705.079 293.583 707.171C293.951 708.033 293.942 709.008 293.561 709.863C292.928 711.293 291.628 712.038 290.227 712.561C287.835 712.722 285.235 711.41 284.777 708.911C284.612 707.981 284.832 707.024 285.39 706.259C286.118 705.247 287.199 704.725 288.402 704.533Z" fill="#F1B15D"/>
<path d="M243.013 703.97C245.707 703.885 249.022 705.22 248.384 708.777C248.223 709.679 246.948 710.435 246.128 710.823C241.929 711.949 237.938 706.199 243.013 703.97Z" fill="#F1B15D"/>
<path d="M249.36 693.759C252.143 693.556 254.537 694.197 255.986 696.791C256.397 697.527 256.984 700.035 255.62 700.205C253.739 700.439 254.066 697.912 252.104 696.771L251.96 696.688C248.051 695.505 248.32 698.839 246.701 700.122C243.873 700.845 244.577 695.069 249.36 693.759Z" fill="#5D220A"/>
<path d="M282.124 694.487C285.054 694.595 288.134 696.622 288.041 699.759C288.03 700.301 287.774 700.809 287.345 701.144C286.99 701.427 286.873 701.356 286.515 701.303C284.829 700.209 285.714 698.229 283.393 697.503C278.801 696.596 280.784 699.409 278.22 700.561C276.674 701.255 276.295 698.079 277.834 696.63C279.476 695.084 279.822 694.688 282.124 694.487Z" fill="#5D220A"/>
<path d="M304.862 686.268L305.086 686.254C307.138 687.344 309.915 693.198 309.319 695.488L309.271 695.443C309.506 693.363 308.206 693.446 307.398 691.664L307.311 691.468C306.665 690.253 306.44 688.903 305.288 687.938C304.881 687.597 304.608 687.28 304.467 686.761L304.24 686.707C303.143 686.997 301.575 688.254 300.63 688.949C302.036 687.376 302.908 686.994 304.862 686.268Z" fill="#FAE0B2"/>
</g>
<defs>
<clipPath id="clip0_1_3215">
<rect width="372" height="812" fill="white"/>
</clipPath>
</defs>
</svg>
