<svg width="38" height="25" viewBox="0 0 38 25" fill="none" xmlns="http://www.w3.org/2000/svg">
<path d="M5.03788 9.63639C5.30001 7.69027 4.68402 5.59911 6.54951 4.3705C7.12656 3.99044 7.57001 3.87299 8.22749 3.65122C9.01921 3.3211 9.74365 3.05133 10.5729 2.82212C13.3871 2.04207 16.0068 0.804402 18.8506 0.116945C20.1476 -0.236885 21.3376 0.293233 22.5708 0.633401C24.5955 1.1888 26.5216 1.99989 28.5266 2.61124C28.6768 2.65704 29.0609 2.82689 29.2026 2.89964C30.2552 3.43934 31.7168 3.77773 32.4823 4.69355C33.3383 5.71782 32.6059 8.86639 33.0645 9.7418C33.5753 10.1131 34.1187 10.3482 34.6439 10.6915C36.1316 11.6645 37.5827 12.6935 37.9262 14.5322C38.4136 17.1434 36.407 19.355 34.2284 20.597C33.431 21.1225 32.6602 21.712 31.8377 22.1975C29.2873 23.7029 26.4162 24.3101 23.5035 24.7223C22.6422 24.8441 21.7675 24.8468 20.9093 24.9864C20.6153 24.9447 20.259 24.99 19.9585 24.9934C19.3193 25.0042 18.6801 25.0018 18.0414 24.9861C16.7768 24.9112 15.5532 24.6926 14.3023 24.5129C12.8679 24.3068 11.4166 24.132 10.0147 23.7582C7.88594 23.1906 5.3586 21.8045 3.59331 20.517C2.98803 20.1036 1.91181 19.3743 1.42612 18.8431C0.460109 17.7864 -0.0294212 16.7642 0.00136753 15.3448C0.057192 12.7726 1.51705 11.8595 3.51917 10.5887C4.0307 10.2641 4.58217 10.0554 5.03788 9.63639Z" fill="#C68F45"/>
<path d="M3.59331 20.517C2.98803 20.1036 1.91181 19.3743 1.42612 18.8431C0.460109 17.7864 -0.0294212 16.7642 0.00136753 15.3448C0.057192 12.7726 1.51705 11.8595 3.51917 10.5887C4.0307 10.2641 4.58217 10.0554 5.03788 9.63639C5.08513 9.88438 5.11426 10.0005 5.10159 10.256C5.15608 10.453 5.15225 10.5133 5.14969 10.7195C5.25867 11.3943 5.17531 12.8852 5.1972 13.6492C5.25963 14.3837 5.37799 14.9304 5.9315 15.4822L6.0538 15.7729C6.47456 16.0113 7.12826 16.4098 7.556 16.5727C8.45132 17.0445 9.14423 17.4129 10.1353 17.683C10.644 17.8736 11.2191 18.0992 11.691 18.3629C11.9538 18.2465 12.1139 18.311 12.3951 18.2967C13.1478 18.5727 13.8691 18.9285 14.62 19.2081C16.0975 19.7582 17.6723 20.2158 19.2005 20.5945C20.333 20.6066 31.3951 15.8521 32.2804 15.0807C33.2674 14.2208 32.8935 12.1995 32.9612 11.0291C32.9654 10.7899 32.9931 10.5555 33.0171 10.3176L33.0645 9.7418C33.5753 10.1131 34.1187 10.3482 34.6439 10.6915C36.1316 11.6645 37.5827 12.6935 37.9262 14.5322C38.4136 17.1434 36.407 19.355 34.2284 20.597C33.431 21.1225 32.6602 21.712 31.8377 22.1975C29.2873 23.7029 26.4162 24.3101 23.5035 24.7223C22.6422 24.8441 21.7675 24.8468 20.9093 24.9864C20.6153 24.9447 20.259 24.99 19.9585 24.9934C19.3193 25.0042 18.6801 25.0018 18.0414 24.9861C16.7768 24.9112 15.5532 24.6926 14.3023 24.5129C12.8679 24.3068 11.4166 24.132 10.0147 23.7582C7.88594 23.1906 5.3586 21.8045 3.59331 20.517Z" fill="#ECE8DD"/>
<path d="M3.59331 20.517C2.98803 20.1036 1.91181 19.3743 1.42612 18.8431C0.460109 17.7864 -0.0294212 16.7642 0.00136753 15.3448C0.057192 12.7726 1.51705 11.8595 3.51917 10.5887C4.0307 10.2641 4.58217 10.0554 5.03788 9.63639C5.08513 9.88438 5.11426 10.0005 5.10159 10.256C2.43581 11.3362 -0.580742 13.8093 0.768209 16.8779C1.57639 18.7164 4.27876 20.2769 6.10749 21.0034C6.38507 21.1126 6.66387 21.2188 6.94379 21.3221C8.48168 21.7465 9.99853 22.2534 11.5623 22.584C12.4094 22.7631 13.2843 22.8439 14.1438 22.9502C14.9597 23.0512 15.7784 23.1709 16.5989 23.2239C19.6453 23.4208 22.6523 23.1186 25.6582 22.6578C26.4455 22.537 27.2024 22.2706 27.9886 22.1444C28.9022 22.0481 29.9318 21.6033 30.815 21.335C30.994 21.4205 31.1511 21.3932 31.3408 21.3699C31.7696 21.1884 32.2623 21.0265 32.6586 20.7848C32.7097 20.7537 32.7039 20.7243 32.7172 20.6685C32.8402 20.5946 32.9622 20.4997 33.1124 20.506C33.2371 20.5419 33.3447 20.5451 33.4235 20.6492C33.7485 20.6105 33.8715 20.513 34.2284 20.597C33.431 21.1225 32.6602 21.712 31.8377 22.1975C29.2873 23.7029 26.4162 24.3101 23.5035 24.7223C22.6422 24.8441 21.7675 24.8468 20.9093 24.9864C20.6153 24.9447 20.259 24.99 19.9585 24.9934C19.3193 25.0042 18.6801 25.0018 18.0414 24.9861C16.7768 24.9112 15.5532 24.6926 14.3023 24.5129C12.8679 24.3068 11.4166 24.132 10.0147 23.7582C7.88594 23.1906 5.3586 21.8045 3.59331 20.517Z" fill="#CABEAD"/>
<path d="M3.59331 20.517C2.98803 20.1036 1.91181 19.3743 1.42612 18.8431C0.460109 17.7864 -0.0294212 16.7642 0.00136753 15.3448C0.057192 12.7726 1.51705 11.8595 3.51917 10.5887C4.0307 10.2641 4.58217 10.0554 5.03788 9.63639C5.08513 9.88438 5.11426 10.0005 5.10159 10.256C2.43581 11.3362 -0.580742 13.8093 0.768209 16.8779C1.57639 18.7164 4.27876 20.2769 6.10749 21.0034C6.38507 21.1126 6.66387 21.2188 6.94379 21.3221L6.8787 21.4344L6.65439 21.4576C6.34645 21.2843 4.7945 20.5446 4.49876 20.4924L4.43931 20.5677C5.6413 21.2479 6.85233 22.0041 8.12895 22.5395C13.7246 24.8861 20.7693 25.2015 26.6154 23.6553C28.5937 23.1321 30.3095 22.3929 32.0876 21.4077C32.5292 21.163 33.0064 20.9305 33.4235 20.6492C33.7485 20.6105 33.8715 20.513 34.2284 20.597C33.431 21.1225 32.6602 21.712 31.8377 22.1975C29.2873 23.7029 26.4162 24.3101 23.5035 24.7223C22.6422 24.8441 21.7675 24.8468 20.9093 24.9864C20.6153 24.9447 20.259 24.99 19.9585 24.9934C19.3193 25.0042 18.6801 25.0018 18.0414 24.9861C16.7768 24.9112 15.5532 24.6926 14.3023 24.5129C12.8679 24.3068 11.4166 24.132 10.0147 23.7582C7.88594 23.1906 5.3586 21.8045 3.59331 20.517Z" fill="#7B6D5C"/>
<path d="M6.94379 21.3221C8.48168 21.7465 9.99853 22.2534 11.5623 22.584C12.4094 22.7631 13.2843 22.8439 14.1438 22.9502C14.9597 23.0512 15.7784 23.1709 16.5989 23.2239C19.6453 23.4208 22.6523 23.1186 25.6582 22.6578C26.4455 22.537 27.2024 22.2706 27.9886 22.1444C28.9022 22.0481 29.9318 21.6033 30.815 21.335C30.994 21.4205 31.1511 21.3932 31.3408 21.3699C30.994 21.6839 30.6893 21.917 30.2568 22.1045C28.2747 22.9633 25.2294 23.1723 23.0758 23.3406C22.3918 23.394 21.7116 23.5047 21.0271 23.5486C20.0027 23.6144 18.9406 23.5864 17.9163 23.5457C16.4493 23.4873 14.8999 23.3741 13.4488 23.1554C12.517 23.0151 11.5996 22.8046 10.6717 22.6488C9.89974 22.5191 9.15154 22.5102 8.39205 22.2857C7.74698 22.0951 7.2169 21.8138 6.65439 21.4576L6.8787 21.4344L6.94379 21.3221Z" fill="#A19181"/>
<path d="M32.9612 11.0291C32.9787 11.4696 32.9734 12.2876 33.024 12.682C32.8972 14.3368 35.6576 15.0382 32.4445 17.7825C32.3448 17.8679 32.2324 17.9382 32.1115 17.991L32.0625 17.8749C31.9315 17.8541 31.8223 17.8846 31.6987 17.9234C31.1223 18.1041 30.5726 18.3842 30.0037 18.5883C29.2654 18.8532 28.4648 19.0459 27.7079 19.2592C26.275 19.663 24.7963 20.1098 23.3309 20.3682C22.5873 20.4993 21.8261 20.5578 21.0745 20.629C20.4294 20.6214 19.8547 20.6922 19.2005 20.5945C20.333 20.6066 31.3951 15.8521 32.2804 15.0807C33.2674 14.2208 32.8935 12.1995 32.9612 11.0291Z" fill="#C7B59E"/>
<path d="M33.0645 9.7418C33.5753 10.1131 34.1187 10.3482 34.6439 10.6915C36.1316 11.6645 37.5827 12.6935 37.9262 14.5322C38.4136 17.1434 36.407 19.355 34.2284 20.597C33.8715 20.513 33.7485 20.6105 33.4235 20.6492C33.3447 20.5451 33.2371 20.5419 33.1124 20.506C33.2461 20.462 33.3766 20.4092 33.5034 20.348C33.8848 20.1638 34.2385 19.8801 34.5789 19.6319C35.6698 18.8359 36.7964 17.9521 37.2439 16.644C37.3648 16.3046 37.4202 16.1388 37.4852 15.7871L37.4415 15.0751C37.3366 15.2334 36.9647 15.7782 36.8289 15.8686C36.3831 16.1654 33.7074 17.3073 33.3324 17.3867C33.3788 17.2582 33.5716 16.9576 33.659 16.8452C34.8074 15.3691 34.7387 13.8109 33.024 12.682C32.9734 12.2876 32.9787 11.4696 32.9612 11.0291C32.9654 10.7899 32.9931 10.5555 33.0171 10.3176L33.0645 9.7418Z" fill="#CABEAD"/>
<path d="M33.0645 9.7418C33.5753 10.1131 34.1187 10.3482 34.6439 10.6915C36.1316 11.6645 37.5827 12.6935 37.9262 14.5322C38.4136 17.1434 36.407 19.355 34.2284 20.597C33.8715 20.513 33.7485 20.6105 33.4235 20.6492C33.3447 20.5451 33.2371 20.5419 33.1124 20.506C33.2461 20.462 33.3766 20.4092 33.5034 20.348C33.8848 20.1638 34.2385 19.8801 34.5789 19.6319C35.6698 18.8359 36.7964 17.9521 37.2439 16.644C37.3648 16.3046 37.4202 16.1388 37.4852 15.7871C37.5619 15.3743 37.4979 14.796 37.3765 14.3974C36.7224 12.2542 34.809 11.3196 33.0171 10.3176L33.0645 9.7418Z" fill="#7C6D5C"/>
<path d="M6.43772 18.4634C4.88865 17.5414 3.26601 15.8892 4.45883 14.0399C4.62156 13.7875 4.808 13.3298 5.11077 13.2198L5.1972 13.6492C5.25963 14.3837 5.37799 14.9304 5.9315 15.4822L6.0538 15.7729C5.84515 15.681 5.63104 15.6246 5.43102 15.7737C5.37503 15.9968 5.51641 16.1371 5.63919 16.3464C6.23387 17.3606 6.90398 18.0904 7.915 18.728C8.17872 18.8943 8.71444 19.1875 8.92857 19.3635C8.05232 19.3259 7.19567 18.8695 6.43772 18.4634Z" fill="#DBD3C8"/>
<path d="M5.14969 10.7195C5.25867 11.3943 5.17531 12.8852 5.1972 13.6492L5.11077 13.2198C4.808 13.3298 4.62156 13.7875 4.45883 14.0399C3.26601 15.8892 4.88865 17.5414 6.43772 18.4634L6.30675 18.5749C4.1012 17.6807 2.18122 15.0812 4.1248 13.019C4.37942 12.7489 4.80827 12.3621 5.1331 12.1874C5.13044 11.691 5.12641 11.216 5.14969 10.7195Z" fill="#CBBDA3"/>
<path d="M27.9886 22.1444L28.0866 21.9611C28.607 21.6126 30.0836 21.1885 30.7479 20.9555C32.0391 20.5022 33.1854 19.9973 34.3402 19.2586C34.7142 19.0197 35.0769 18.7547 35.4013 18.4537C35.8019 18.0819 36.8161 16.7622 37.2439 16.644C36.7964 17.9521 35.6698 18.8359 34.5789 19.6319C34.2385 19.8801 33.8848 20.1638 33.5034 20.348C33.3766 20.4092 33.2461 20.462 33.1124 20.506C32.9622 20.4997 32.8402 20.5946 32.7172 20.6685C32.7039 20.7243 32.7097 20.7537 32.6586 20.7848C32.2623 21.0265 31.7696 21.1884 31.3408 21.3699C31.1511 21.3932 30.994 21.4205 30.815 21.335C29.9318 21.6033 28.9022 22.0481 27.9886 22.1444Z" fill="#D8CAB4"/>
<path d="M32.7172 20.6685C32.7039 20.7243 32.7097 20.7537 32.6586 20.7848C32.2623 21.0265 31.7696 21.1884 31.3408 21.3699C31.1511 21.3932 30.994 21.4205 30.815 21.335C31.4425 21.102 32.0716 20.8469 32.7172 20.6685Z" fill="#7B6D5C"/>
<path d="M33.024 12.682C34.7387 13.8109 34.8074 15.3691 33.659 16.8452C33.5716 16.9576 33.3788 17.2582 33.3324 17.3867C31.4478 19.2641 27.27 20.1953 24.718 20.6232C23.8151 20.7746 22.9218 20.9361 22.0029 20.9429C21.8463 20.9438 21.6892 20.9427 21.5326 20.9394C24.295 20.4907 27.5598 20.1886 30.1401 19.0686C30.8304 18.769 31.4611 18.3629 32.1115 17.991C32.2324 17.9382 32.3448 17.8679 32.4445 17.7825C35.6576 15.0382 32.8972 14.3368 33.024 12.682Z" fill="#C1AA88"/>
<path d="M11.691 18.3629C11.9538 18.2465 12.1139 18.311 12.3951 18.2967C13.1478 18.5727 13.8691 18.9285 14.62 19.2081C16.0975 19.7582 17.6723 20.2158 19.2005 20.5945C19.8547 20.6922 20.4294 20.6214 21.0745 20.629C21.067 20.6334 21.0591 20.6375 21.0516 20.6423C20.9855 20.6844 20.9264 20.7206 20.8492 20.741C20.186 20.9162 19.2277 20.7081 18.5629 20.5905C17.9147 20.4758 17.244 20.4077 16.6048 20.2559C15.0598 19.8891 13.0858 19.112 11.691 18.3629Z" fill="#CABEAD"/>
<path d="M6.43772 18.4634C7.19567 18.8695 8.05232 19.3259 8.92857 19.3635C10.3154 19.8786 11.66 20.2938 13.1095 20.6L13.0775 20.7259C10.7058 20.2484 8.44134 19.7415 6.30675 18.5749L6.43772 18.4634Z" fill="#BBAC95"/>
<path d="M13.1095 20.6C13.4055 20.6259 13.6856 20.6928 13.9734 20.763L13.9845 20.8915L14.017 20.8849L13.9962 20.7671L14.0837 20.844C13.8814 20.9138 13.2846 20.7929 13.0775 20.7259L13.1095 20.6Z" fill="#DBD3C8"/>
<path d="M7.556 16.5727C7.98704 16.4893 8.07918 16.6406 8.45253 16.6756C8.85902 16.8025 9.57275 17.1957 9.83019 17.2573L10.1353 17.683C9.14423 17.4129 8.45132 17.0445 7.556 16.5727Z" fill="#CABEAD"/>
<path d="M9.83019 17.2573C10.648 17.5332 11.6513 17.8685 12.3951 18.2967C12.1139 18.311 11.9538 18.2465 11.691 18.3629C11.2191 18.0992 10.644 17.8736 10.1353 17.683L9.83019 17.2573Z" fill="#C1AA88"/>
<path d="M5.9315 15.4822C6.62526 15.7897 7.81103 16.3124 8.45253 16.6756C8.07918 16.6406 7.98704 16.4893 7.556 16.5727C7.12826 16.4098 6.47456 16.0113 6.0538 15.7729L5.9315 15.4822Z" fill="#EDD5B4"/>
<path d="M7.16967 4.73493C7.61936 4.46102 9.69744 3.80738 10.2981 3.59304C11.42 3.22188 12.5275 2.75128 13.6495 2.38724C14.6673 2.05697 15.7188 1.6956 16.7443 1.39872C18.0776 1.0128 19.6053 0.157593 20.9983 0.598886C23.6846 1.44981 26.3735 2.27701 28.9804 3.34526C29.9536 3.74525 31.5154 4.23564 32.0843 5.12215C32.2479 5.57747 32.275 5.95936 32.3246 6.43849C32.4902 8.08098 32.3869 9.98821 32.3224 11.6396C32.2878 12.5353 32.2655 13.7118 32.1078 14.5607C31.4888 15.305 29.3022 16.0277 28.3482 16.4627C25.9809 17.5425 23.5306 18.665 21.0867 19.567C20.521 19.8334 19.9383 19.9315 19.3587 20.1432C19.0103 20.0709 18.6614 20.0012 18.3125 19.9342C17.5311 19.825 15.08 18.7842 14.2434 18.4479C12.2305 17.633 10.1403 16.9502 8.16764 16.0521C7.46062 15.6713 6.09202 15.304 5.76831 14.5203C5.69933 14.3533 5.66513 13.5867 5.67727 13.4904C5.85359 12.094 5.35974 6.851 5.91794 5.91471C6.16867 5.35293 6.64611 5.0215 7.16967 4.73493Z" fill="#FCE9B2"/>
<path d="M32.0843 5.12215C32.2479 5.57747 32.275 5.95936 32.3246 6.43849C32.4902 8.08098 32.3869 9.98821 32.3224 11.6396C32.2878 12.5353 32.2655 13.7118 32.1078 14.5607C31.4888 15.305 29.3022 16.0277 28.3482 16.4627C25.9809 17.5425 23.5306 18.665 21.0867 19.567C20.521 19.8334 19.9383 19.9315 19.3587 20.1432C19.0103 20.0709 18.6614 20.0012 18.3125 19.9342C18.6529 19.7057 18.4772 19.02 19.2895 18.6464C19.2858 18.0081 19.2474 16.8302 19.3172 16.236C19.3817 15.3423 19.2559 14.1046 19.2799 13.1851C19.2906 12.7926 19.2362 12.3919 19.2954 11.9943L19.2511 11.9998C19.2144 11.7312 19.3081 11.2888 19.3177 10.9674C19.3971 10.4226 19.8973 9.9699 20.3192 9.63314C20.5221 9.52636 20.5818 9.50506 20.8044 9.44801C20.9925 9.33453 21.3254 9.23152 21.5443 9.15526C22.0946 9.04833 23.8796 8.40803 24.384 8.1603C24.8517 7.94889 25.7535 7.73005 26.3054 7.49911C27.4123 7.03584 28.4931 6.54927 29.5877 6.06097C29.8195 5.85689 30.9509 5.36148 31.303 5.19268C31.4942 5.10097 31.5901 5.18352 31.7744 5.2613C31.9368 5.23335 31.9544 5.2204 32.0843 5.12215Z" fill="#EAB557"/>
<path d="M19.3172 16.236C19.3694 16.7879 19.3785 18.0055 19.3497 18.5816C19.3529 18.8961 19.3651 19.2137 19.3545 19.528C19.6938 19.4649 20.8082 19.3203 21.0761 19.4881L21.0867 19.567C20.521 19.8334 19.9383 19.9315 19.3587 20.1432C19.0103 20.0709 18.6614 20.0012 18.3125 19.9342C18.6529 19.7057 18.4772 19.02 19.2895 18.6464C19.2858 18.0081 19.2474 16.8302 19.3172 16.236Z" fill="#F2D17D"/>
<path d="M19.3869 11.9389C19.4152 11.9668 19.4487 11.9998 19.4876 12.038C19.5638 13.1576 19.6075 14.7741 19.5957 15.8649C19.5899 16.3897 19.6053 18.3839 19.4882 18.6393L19.4205 18.6511L19.3497 18.5816C19.3785 18.0055 19.3694 16.7879 19.3172 16.236C19.3817 15.3423 19.2559 14.1046 19.2799 13.1851C19.2906 12.7926 19.2362 12.3919 19.2954 11.9943L19.3869 11.9389Z" fill="#C68F45"/>
<path d="M20.3192 9.63314C20.5221 9.52636 20.5818 9.50506 20.8044 9.44801C20.3975 9.84837 20.1029 10.0994 19.8243 10.6038C19.6117 10.989 19.6075 11.6982 19.3869 11.9389L19.2954 11.9943L19.2511 11.9998C19.2144 11.7312 19.3081 11.2888 19.3177 10.9674C19.3971 10.4226 19.8973 9.9699 20.3192 9.63314Z" fill="#F2D17D"/>
<path d="M32.0843 5.12215C32.2479 5.57747 32.275 5.95936 32.3246 6.43849L32.2863 6.73498C32.2133 6.61402 32.3188 6.49541 32.1845 6.37665C32.1712 6.4651 32.1499 6.63814 32.1286 6.71692L32.1446 6.60266L32.1057 6.57638C32.086 6.24003 31.9603 5.88186 31.8601 5.55619C31.6673 5.62439 31.5139 5.71034 31.3205 5.6704C31.4276 5.65611 31.5208 5.65454 31.6098 5.59801C31.6284 5.44245 31.605 5.41303 31.5331 5.27506C31.2598 5.15703 30.2056 6.02674 29.5877 6.06097C29.8195 5.85689 30.9509 5.36148 31.303 5.19268C31.4942 5.10097 31.5901 5.18352 31.7744 5.2613C31.9368 5.23335 31.9544 5.2204 32.0843 5.12215Z" fill="#FADB93"/>
<path d="M31.1112 5.91655C31.2097 5.93131 31.3232 6.01322 31.3818 6.09461C31.4478 6.1871 31.4611 6.23327 31.4436 6.34298L31.3445 6.38265C31.1921 6.33832 31.0409 6.292 30.8896 6.24374L30.8848 6.15481L31.1112 5.91655Z" fill="#F2D17D"/>
<path d="M5.91794 5.91471C6.276 6.01484 6.71317 5.85385 7.19226 6.0427C8.2769 6.47022 9.3219 6.97474 10.4066 7.39866C12.6399 8.11459 14.5209 8.62068 16.6916 9.54441C16.5392 9.58822 16.5653 9.55493 16.5078 9.65663C16.6138 9.83653 16.7699 9.8594 16.9643 9.89002C17.3143 10.0018 17.5391 10.1444 17.8518 10.3264C18.0355 10.2953 18.0867 10.2921 18.2417 10.1939L18.5735 10.5432C19.1701 10.6602 18.9449 10.9606 19.3177 10.9674C19.3081 11.2888 19.2144 11.7312 19.2511 11.9998L19.2954 11.9943C19.2362 12.3919 19.2906 12.7926 19.2799 13.1851C19.2559 14.1046 19.3817 15.3423 19.3172 16.236C19.2474 16.8302 19.2858 18.0081 19.2895 18.6464C18.4772 19.02 18.6529 19.7057 18.3125 19.9342C17.5311 19.825 15.08 18.7842 14.2434 18.4479C12.2305 17.633 10.1403 16.9502 8.16764 16.0521C7.46062 15.6713 6.09202 15.304 5.76831 14.5203C5.69933 14.3533 5.66513 13.5867 5.67727 13.4904C5.85359 12.094 5.35974 6.851 5.91794 5.91471Z" fill="#FADB93"/>
<path d="M16.9643 9.89002C17.3143 10.0018 17.5391 10.1444 17.8518 10.3264C17.8352 10.669 17.6792 10.7836 17.4443 11.0345C17.2254 10.8128 16.673 10.2496 16.7923 9.92999L16.9643 9.89002Z" fill="#FCE9B2"/>
<path d="M18.5735 10.5432C19.1701 10.6602 18.9449 10.9606 19.3177 10.9674C19.3081 11.2888 19.2144 11.7312 19.2511 11.9998L19.1281 12.0443C18.9917 11.9385 18.719 10.8665 18.5735 10.5432Z" fill="#FCE9B2"/>
<path d="M13.6706 12.2016C13.7194 12.2234 13.7984 12.3058 13.8219 12.3553C13.8718 12.4606 13.849 12.5052 13.8096 12.6052C13.655 12.7709 13.4671 12.8202 13.257 12.8882C13.1906 12.8348 13.1599 12.7927 13.1266 12.7151C13.2015 12.5003 13.4907 12.3416 13.6706 12.2016Z" fill="#F2D17D"/>
<path d="M12.6905 12.2282C12.7568 12.2393 12.8243 12.248 12.881 12.2859C12.9621 12.3401 13.0117 12.4181 13.0285 12.5139C13.0567 12.6757 12.9812 12.8172 12.8948 12.9478L12.8259 12.9667C12.7849 12.9532 12.7355 12.9488 12.7126 12.9114C12.5858 12.7045 12.6399 12.4501 12.6905 12.2282Z" fill="#F2D17D"/>
<path d="M9.92743 10.7581C9.98507 10.7766 10.0256 10.8191 10.07 10.8579C10.1061 11.128 10.0564 11.3709 9.91321 11.6044C9.82047 11.5034 9.70286 11.3418 9.69566 11.2021C9.68608 11.0154 9.81206 10.8916 9.92743 10.7581Z" fill="#F2D17D"/>
<path d="M8.28049 8.55755C8.37818 8.55719 8.46021 8.62984 8.46986 8.72536C8.4795 8.82088 8.41366 8.90798 8.31777 8.92646C8.24714 8.94007 8.17475 8.91322 8.13091 8.85705C8.08713 8.80094 8.07946 8.72526 8.1112 8.66177C8.1429 8.59822 8.20852 8.55787 8.28049 8.55755Z" fill="#F2D17D"/>
<path d="M10.4606 11.9645C10.4823 11.9738 10.504 11.9834 10.5254 11.9934C10.7398 12.0939 10.8471 12.212 10.925 12.4313L10.7614 12.4106C10.6036 12.3227 10.5356 12.1195 10.4606 11.9645Z" fill="#C68F45"/>
<path d="M7.16967 4.73493C7.37065 4.89384 7.22916 5.24182 7.621 5.46443C10.1301 6.88985 13.0051 7.31921 15.603 8.54165C16.0509 8.75237 16.7779 8.83785 17.2504 9.03334C17.7405 9.19178 18.222 9.36032 18.7403 9.38121C19.2399 9.40125 20.1045 9.20225 20.545 9.24904L20.586 9.32421C20.5008 9.4737 20.447 9.51547 20.3192 9.63314C19.8973 9.9699 19.3971 10.4226 19.3177 10.9674C18.9449 10.9606 19.1701 10.6602 18.5735 10.5432L18.2417 10.1939C18.0867 10.2921 18.0355 10.2953 17.8518 10.3264C17.5391 10.1444 17.3143 10.0018 16.9643 9.89002C16.7699 9.8594 16.6138 9.83653 16.5078 9.65663C16.5653 9.55493 16.5392 9.58822 16.6916 9.54441C14.5209 8.62068 12.6399 8.11459 10.4066 7.39866C9.3219 6.97474 8.2769 6.47022 7.19226 6.0427C6.71317 5.85385 6.276 6.01484 5.91794 5.91471C6.16867 5.35293 6.64611 5.0215 7.16967 4.73493Z" fill="#F8EFDB"/>
<path d="M16.9643 9.89002C16.7699 9.8594 16.6138 9.83653 16.5078 9.65663C16.5653 9.55493 16.5392 9.58822 16.6916 9.54441C17.1571 9.69353 17.8885 9.8817 18.2417 10.1939C18.0867 10.2921 18.0355 10.2953 17.8518 10.3264C17.5391 10.1444 17.3143 10.0018 16.9643 9.89002Z" fill="#F2D17D"/>
<path d="M21.5443 9.15526C21.9817 8.63341 22.7444 8.42514 23.3778 8.17609C23.7629 8.02456 24.0106 7.98103 24.384 8.1603C23.8796 8.40803 22.0946 9.04833 21.5443 9.15526Z" fill="#FADB93"/>
<path d="M24.0228 7.07252C24.0281 7.07404 24.0335 7.07493 24.0388 7.07702C24.148 7.12282 24.1821 7.13596 24.2215 7.24771C24.0766 7.42415 23.5109 7.54626 23.2749 7.63624C23.2137 7.63833 23.1743 7.60803 23.1242 7.57762C23.2041 7.33857 23.7911 7.20913 24.0228 7.07252Z" fill="#FADB93"/>
</svg>
