<svg width="33" height="27" viewBox="0 0 33 27" fill="none" xmlns="http://www.w3.org/2000/svg">
<path d="M14.1671 1.77556C15.036 0.957898 15.1339 -0.0133182 16.6604 0.000138287L16.9724 0.0864072C17.9121 0.420238 19.3691 1.55058 19.7749 2.46516C19.8248 2.58618 19.8737 2.7077 19.9208 2.82978L20.0192 2.90895C20.1349 2.87932 20.169 2.85849 20.2725 2.80356C20.9408 2.69987 21.0299 2.67106 21.7337 2.75586C23.0013 3.07282 23.4495 3.95828 23.8827 5.07134C24.1752 5.223 24.4606 5.37346 24.7619 5.50826C25.3957 5.45858 25.7711 5.51365 26.4003 5.57291C26.6731 5.78158 26.8312 5.88324 26.9534 6.21413C27.2132 6.36256 27.9174 6.51952 28.242 6.64616C28.7345 6.83838 29.0792 7.05262 29.526 7.32046C30.0954 7.54374 30.7609 7.98849 31.2259 8.39048C32.037 8.99842 32.5248 9.62354 32.9301 10.5379C32.9693 10.8809 33.0318 11.5741 32.9809 11.9087C32.9711 12.5552 32.6988 13.7616 32.4539 14.3724C32.231 15.2285 31.8373 16.0023 31.4796 16.7778C30.5786 18.7297 29.303 20.2483 27.7206 21.7003C27.2691 22.1145 26.6661 22.6834 26.1382 23.002C25.6872 23.2739 25.1681 23.4711 24.7148 23.7633C24.2815 24.8005 23.9877 25.399 22.8931 25.8496C21.9459 26.2397 21.0313 26.4644 20.0332 26.6816C19.843 26.723 19.5673 26.8219 19.378 26.8034C17.7433 27.2296 14.0869 26.8869 12.3958 26.4938C11.9793 26.397 11.4182 26.2132 10.9896 26.0895C10.8497 26.0492 10.2868 25.9412 10.2313 25.9112C9.32186 25.4182 8.76407 24.8337 8.3905 23.9152C7.93018 23.5837 7.44141 23.3559 6.95824 23.0276C4.93927 21.6537 3.05976 19.6298 1.86442 17.5148C1.48245 16.8391 0.533836 14.6021 0.389724 13.8594C0.14021 13.1096 -0.10697 11.8506 0.0483353 11.065C0.129019 9.09459 3.22719 7.14382 4.94021 6.59611C5.26947 6.49081 5.62346 6.32344 5.96345 6.26067C6.61078 6.0185 7.32714 5.41425 8.0491 5.20254C8.42827 5.09143 8.82656 5.12277 9.21412 5.06438C9.31113 5.04973 9.37969 4.87604 9.43473 4.77663C9.61848 4.14561 9.87265 3.68809 10.2416 3.15785C10.3801 3.09748 10.4985 3.02623 10.6291 2.95102C10.8343 2.95959 10.9952 2.92706 11.1216 3.10785C11.5404 3.08356 11.8133 3.05655 12.2279 3.15361L12.2535 3.06872C12.3823 2.98503 12.4177 3.01245 12.5917 3.00881C12.7535 3.08632 12.8841 3.14951 13.0398 3.2414L13.1765 3.29352C13.2623 2.62811 13.6802 2.19806 14.1671 1.77556Z" fill="#310803"/>
<path d="M32.5933 10.7424C32.7099 10.5472 32.716 10.5779 32.9301 10.5379C32.9693 10.8809 33.0318 11.5741 32.9809 11.9087C32.9711 12.5552 32.6988 13.7616 32.4539 14.3724C32.231 15.2285 31.8373 16.0023 31.4796 16.7778C30.5786 18.7297 29.303 20.2483 27.7206 21.7003C27.2691 22.1145 26.6661 22.6834 26.1382 23.002C25.6872 23.2739 25.1681 23.4711 24.7148 23.7633C24.2815 24.8005 23.9877 25.399 22.8931 25.8496C21.9459 26.2397 21.0313 26.4644 20.0332 26.6816C19.843 26.723 19.5673 26.8219 19.378 26.8034C17.7433 27.2296 14.0869 26.8869 12.3958 26.4938C11.9793 26.397 11.4182 26.2132 10.9896 26.0895C10.8497 26.0492 10.2868 25.9412 10.2313 25.9112C9.32186 25.4182 8.76407 24.8337 8.3905 23.9152C7.93018 23.5837 7.44141 23.3559 6.95824 23.0276C4.93927 21.6537 3.05976 19.6298 1.86442 17.5148C1.48245 16.8391 0.533836 14.6021 0.389724 13.8594C0.14021 13.1096 -0.10697 11.8506 0.0483353 11.065C0.0893768 11.6834 0.120622 12.0098 0.453618 12.573L0.514717 12.7276C0.568817 12.8975 0.633178 13.085 0.672354 13.2572L0.778684 13.1547L0.844913 13.1581C1.66108 14.2177 1.85369 14.1775 2.68525 14.9658C3.50655 15.3938 3.74767 15.6163 4.66737 15.9847C4.80915 16.0424 5.79835 16.4066 5.84545 16.4496C6.00962 16.5024 6.19851 16.5563 6.35101 16.6317C6.58607 16.7069 6.81506 16.7526 6.91207 16.9971C7.57526 18.6686 7.98241 19.873 9.70942 20.8115C12.1267 22.1255 15.2118 20.9162 16.8609 18.9334C16.9295 18.8494 17.0176 18.7474 17.1002 18.679C17.2718 18.6535 17.4747 18.045 17.6971 17.9787C17.7937 17.95 17.8287 17.9812 17.9695 17.938L17.88 17.8863C17.9868 17.8416 18.5124 17.8164 18.6462 17.8096C18.9666 17.7361 19.4162 17.8268 19.6377 17.6891C19.8313 17.6999 20.2021 17.7298 20.3802 17.7168C21.0229 17.6076 21.3321 17.6484 22.1147 17.4734C22.5214 17.361 22.9491 17.2571 23.359 17.1512C23.519 17.1248 23.9653 16.953 24.2358 16.8953L24.4573 16.8782C24.5665 16.8507 24.7768 16.828 24.8953 16.8115C25.1956 16.7548 25.4759 16.6374 25.7478 16.5032C26.175 16.422 26.8522 16.2073 27.2887 16.0817C27.5009 16.0254 27.75 15.91 27.9561 15.8222L28.2369 15.7104C29.2564 15.4288 31.2917 14.0057 31.9143 13.205C31.9488 13.173 31.9824 13.1397 32.0141 13.105C32.7039 12.3492 32.6335 11.6793 32.5933 10.7424Z" fill="#B47534"/>
<path d="M0.389724 13.8594C0.14021 13.1096 -0.10697 11.8506 0.0483353 11.065C0.0893768 11.6834 0.120622 12.0098 0.453618 12.573L0.514717 12.7276C0.568817 12.8975 0.633178 13.085 0.672354 13.2572L0.778684 13.1547L0.844913 13.1581C1.66108 14.2177 1.85369 14.1775 2.68525 14.9658L2.78273 15.2896C2.70344 15.1718 2.57285 14.9379 2.45253 14.8925C2.35692 15.0571 2.37418 15.007 2.41755 15.1863C2.54674 15.7188 2.35832 16.3727 2.28416 16.9165C2.27764 16.962 2.42595 17.2069 2.43248 17.2642C2.51969 17.4387 2.64421 17.6277 2.64888 17.8124C3.25937 18.9585 4.14689 20.026 5.12303 20.8767C5.22796 20.9684 5.65937 21.3702 5.75638 21.4285C7.25812 23.0699 10.0205 24.1408 12.1547 24.6206C12.4457 24.6857 12.7507 24.7396 13.0352 24.8277L13.0674 24.8292C13.4325 24.8483 13.8089 24.9404 14.175 24.9825C15.1749 25.0977 16.201 25.1955 17.2098 25.1854C17.852 25.179 18.5021 25.107 19.1373 25.0173C19.4274 24.9764 19.7693 24.8837 20.0575 24.882L20.0118 24.9623C19.8798 24.9834 19.829 24.9681 19.7445 25.0742C19.7599 25.1007 19.7725 25.1407 19.8028 25.1488C19.9726 25.1933 20.2389 25.1163 20.4422 25.139C21.3876 24.9709 22.2546 24.7355 23.1216 24.3203C23.3553 24.2084 24.1178 23.7868 24.3183 23.8034L24.3804 23.892C24.5021 23.7831 24.5543 23.7721 24.7148 23.7633C24.2815 24.8005 23.9877 25.399 22.8931 25.8496C21.9459 26.2397 21.0313 26.4644 20.0332 26.6816C19.843 26.723 19.5673 26.8219 19.378 26.8034C17.7433 27.2296 14.0869 26.8869 12.3958 26.4938C11.9793 26.397 11.4182 26.2132 10.9896 26.0895C10.8497 26.0492 10.2868 25.9412 10.2313 25.9112C9.32186 25.4182 8.76407 24.8337 8.3905 23.9152C7.93018 23.5837 7.44141 23.3559 6.95824 23.0276C4.93927 21.6537 3.05976 19.6298 1.86442 17.5148C1.48245 16.8391 0.533836 14.6021 0.389724 13.8594Z" fill="#6A3311"/>
<path d="M24.3804 23.892C24.5021 23.7831 24.5543 23.7721 24.7148 23.7633C24.2815 24.8005 23.9877 25.399 22.8931 25.8496C21.9459 26.2397 21.0313 26.4644 20.0332 26.6816C19.843 26.723 19.5673 26.8219 19.378 26.8034L19.3836 26.7374C19.4209 26.7148 19.4586 26.6951 19.4974 26.6753C19.6881 26.5781 19.9068 26.5638 20.1162 26.5354L20.0971 26.5017C20.0197 26.4781 19.9404 26.4597 19.8621 26.4398C19.3598 26.3784 18.5567 26.6063 18.0101 26.6281C16.4757 26.6894 14.9072 26.5828 13.3873 26.3621C12.8659 26.2863 12.351 26.1302 11.8459 25.9843C10.3633 25.5555 9.81948 25.251 8.88765 24.0194C12.0553 25.4419 15.6628 25.7498 19.0874 25.2897C19.5342 25.2296 20.0104 25.268 20.4422 25.139C21.3876 24.9709 22.2546 24.7355 23.1216 24.3203C23.3553 24.2084 24.1178 23.7868 24.3183 23.8034L24.3804 23.892Z" fill="#9C612D"/>
<path d="M24.3804 23.892C24.5021 23.7831 24.5543 23.7721 24.7148 23.7633C24.2815 24.8005 23.9877 25.399 22.8931 25.8496C21.9459 26.2397 21.0313 26.4644 20.0332 26.6816C19.843 26.723 19.5673 26.8219 19.378 26.8034L19.3836 26.7374C19.4209 26.7148 19.4586 26.6951 19.4974 26.6753C19.6881 26.5781 19.9068 26.5638 20.1162 26.5354L20.0971 26.5017C20.0197 26.4781 19.9404 26.4597 19.8621 26.4398C20.3923 26.3651 20.9054 26.2346 21.4142 26.0688C22.7947 25.6188 23.7009 25.2269 24.3804 23.892Z" fill="#511D06"/>
<path d="M0.672354 13.2572L0.778684 13.1547L0.844913 13.1581C1.66108 14.2177 1.85369 14.1775 2.68525 14.9658L2.78273 15.2896C2.70344 15.1718 2.57285 14.9379 2.45253 14.8925C2.35692 15.0571 2.37418 15.007 2.41755 15.1863C2.54674 15.7188 2.35832 16.3727 2.28416 16.9165C2.27764 16.962 2.42595 17.2069 2.43248 17.2642C2.51969 17.4387 2.64421 17.6277 2.64888 17.8124C1.89008 16.8622 1.03473 14.4078 0.672354 13.2572Z" fill="#D79D55"/>
<path d="M0.389724 13.8594C0.14021 13.1096 -0.10697 11.8506 0.0483353 11.065C0.0893768 11.6834 0.120622 12.0098 0.453618 12.573L0.514717 12.7276L0.505385 12.9768C0.434962 12.83 0.426102 12.6216 0.337489 12.5713C-0.0118302 13.0286 0.563684 13.4617 0.389724 13.8594Z" fill="#50230B"/>
<path d="M12.1547 24.6206C12.4457 24.6857 12.7507 24.7396 13.0352 24.8277C12.989 24.8598 12.9522 24.8756 12.8962 24.8851C12.6775 24.9221 12.0371 24.8248 11.8501 24.6895C11.9252 24.6234 12.0544 24.6314 12.1547 24.6206Z" fill="#602D0F"/>
<path d="M32.5994 12.9531C32.7006 12.7315 32.9142 12.0072 32.9809 11.9087C32.9711 12.5552 32.6988 13.7616 32.4539 14.3724C32.231 15.2285 31.8373 16.0023 31.4796 16.7778C30.5786 18.7297 29.303 20.2483 27.7206 21.7003C27.2691 22.1145 26.6661 22.6834 26.1382 23.002C25.6872 23.2739 25.1681 23.4711 24.7148 23.7633C24.5543 23.7721 24.5021 23.7831 24.3804 23.892L24.3183 23.8034C24.1178 23.7868 23.3553 24.2084 23.1216 24.3203C22.2546 24.7355 21.3876 24.9709 20.4422 25.139C20.2389 25.1163 19.9726 25.1933 19.8028 25.1488C19.7725 25.1407 19.7599 25.1007 19.7445 25.0742C19.829 24.9681 19.8798 24.9834 20.0118 24.9623L20.0575 24.882C20.6461 24.6833 21.2938 24.5727 21.8959 24.4095C23.5395 23.9643 25.2875 23.2437 26.5998 22.1432C28.3595 20.856 30.5711 18.0456 31.2865 15.9691C31.5454 15.2175 32.1022 13.6137 32.4525 13.0333L32.5994 12.9531Z" fill="#602D0F"/>
<path d="M32.5994 12.9531C32.7006 12.7315 32.9142 12.0072 32.9809 11.9087C32.9711 12.5552 32.6988 13.7616 32.4539 14.3724C32.4754 13.9832 32.633 13.3063 32.5994 12.9531Z" fill="#3F1405"/>
<path d="M31.4334 13.996C31.5659 13.777 32.1461 13.3153 32.3126 13.0548C32.3695 13.0461 32.4161 13.0389 32.4525 13.0333C32.1022 13.6137 31.5454 15.2175 31.2865 15.9691C30.5711 18.0456 28.3595 20.856 26.5998 22.1432L26.5523 22.0798C26.5528 22.0707 26.5551 21.9721 26.5551 21.9721C27.438 20.9275 28.061 19.64 28.8399 18.5342C29.4821 17.623 30.0212 16.7937 30.3197 15.7033C30.5613 14.8215 30.5753 14.763 31.3094 14.2323C31.3033 14.2552 31.3038 14.2423 31.3117 14.271L31.4167 14.2061L31.4334 13.996Z" fill="#B67939"/>
<path d="M2.68525 14.9658C3.50655 15.3938 3.74767 15.6163 4.66737 15.9847L4.61422 16.196L4.56666 16.2006C4.68045 17.0798 5.54652 18.926 5.98865 19.7584C6.09919 19.9663 6.33517 20.2184 6.4611 20.408L6.32585 20.4771C5.73727 19.9646 5.31566 19.3721 4.79378 18.8553C3.54948 17.624 3.12552 17.0682 2.78273 15.2896L2.68525 14.9658Z" fill="#C7873E"/>
<path d="M3.04342 15.5805L3.15162 15.626C3.29433 15.8193 3.27101 16.036 3.25562 16.2617C3.07746 16.1112 3.07653 15.7994 3.04342 15.5805Z" fill="#D09044"/>
<path d="M6.70781 20.3328C7.21943 20.5334 8.21608 21.576 8.71231 21.9951C9.64648 22.7838 11.1016 23.3884 12.289 23.7029C12.1747 23.7397 12.0427 23.7308 11.9224 23.7325C12.3935 23.7637 12.8636 23.7752 13.3356 23.7838C13.0874 23.8456 12.7852 23.8332 12.5282 23.8372C11.436 23.8544 10.8605 23.7202 9.86894 23.285C9.57885 23.1577 9.26451 23.038 8.99261 22.8766C8.52483 22.5987 7.81313 22.1232 7.50672 21.6806C7.42837 21.5675 7.41111 21.4095 7.33323 21.2854C7.23715 21.1332 7.17606 20.9996 6.98018 21.0266C6.93121 21.1285 6.94893 21.1664 6.96852 21.2739C6.89763 21.2206 6.80808 21.1314 6.80248 21.0418C6.79875 20.9825 6.83047 20.921 6.85379 20.8675C6.75445 20.6676 6.51986 20.6888 6.48161 20.4291C6.60754 20.5379 6.67003 20.6184 6.83886 20.6457L6.88923 20.599C6.88177 20.4811 6.78756 20.4109 6.70781 20.3328Z" fill="#B87836"/>
<path d="M2.43248 17.2642C3.25098 17.3555 3.66233 18.4938 4.13338 19.0888C4.63241 19.719 5.13703 20.3354 5.65378 20.9518C5.79136 21.1238 5.76291 21.2133 5.83054 21.4136L5.75638 21.4285C5.65937 21.3702 5.22796 20.9684 5.12303 20.8767C4.14689 20.026 3.25937 18.9585 2.64888 17.8124C2.64421 17.6277 2.51969 17.4387 2.43248 17.2642Z" fill="#D79D55"/>
<path d="M32.5933 10.7424C32.7099 10.5472 32.716 10.5779 32.9301 10.5379C32.9693 10.8809 33.0318 11.5741 32.9809 11.9087C32.9142 12.0072 32.7006 12.7315 32.5994 12.9531L32.4525 13.0333C32.4161 13.0389 32.3695 13.0461 32.3126 13.0548C32.1461 13.3153 31.5659 13.777 31.4334 13.996C31.0776 14.2169 30.6527 14.686 30.4886 14.7885C29.956 15.1211 27.9748 16.0755 27.4221 16.19L27.3288 16.1636L27.2887 16.0817C27.5009 16.0254 27.75 15.91 27.9561 15.8222L28.2369 15.7104C29.2564 15.4288 31.2917 14.0057 31.9143 13.205C31.9488 13.173 31.9824 13.1397 32.0141 13.105C32.7039 12.3492 32.6335 11.6793 32.5933 10.7424Z" fill="#763D15"/>
<path d="M4.61422 16.196C4.7588 16.4815 4.87258 16.9003 4.99058 17.2084C5.41358 18.3139 5.80116 19.5212 6.70781 20.3328C6.78756 20.4109 6.88177 20.4811 6.88923 20.599L6.83886 20.6457C6.67003 20.6184 6.60754 20.5379 6.48161 20.4291L6.4611 20.408C6.33517 20.2184 6.09919 19.9663 5.98865 19.7584C5.54652 18.926 4.68045 17.0798 4.56666 16.2006L4.61422 16.196Z" fill="#B67939"/>
<path d="M5.84545 16.4496C6.00962 16.5024 6.19851 16.5563 6.35101 16.6317C6.44989 17.0732 6.455 17.3293 6.00447 17.5828L5.80999 17.1814C5.82305 17.0713 5.69853 16.9178 5.69666 16.7125C5.76475 16.5737 5.83099 16.5772 5.84545 16.4496Z" fill="#D79D55"/>
<path d="M5.80999 17.1814L6.00447 17.5828C6.1192 18.1559 7.30056 19.425 7.50857 19.8819L7.48478 19.9101C7.08696 19.7159 6.02081 18.1101 5.85851 17.6384C5.77736 17.4015 5.71998 17.4175 5.80999 17.1814Z" fill="#B67939"/>
<path d="M25.7478 16.5032C26.175 16.422 26.8522 16.2073 27.2887 16.0817L27.3288 16.1636L27.4221 16.19C27.0061 16.2879 25.1947 16.9965 24.9158 16.8254C24.9088 16.8211 24.9023 16.8161 24.8953 16.8115C25.1956 16.7548 25.4759 16.6374 25.7478 16.5032Z" fill="#8F5125"/>
<path d="M24.2358 16.8953L24.4573 16.8782L24.649 16.9086L24.6663 16.9712C24.3668 17.1586 23.7214 17.1406 23.4429 17.2813L23.359 17.1512C23.519 17.1248 23.9653 16.953 24.2358 16.8953Z" fill="#B67939"/>
<path d="M22.1147 17.4734C22.5214 17.361 22.9491 17.2571 23.359 17.1512L23.4429 17.2813C23.213 17.3394 22.2304 17.6899 22.1147 17.4734Z" fill="#B67939"/>
<path d="M19.6377 17.6891C19.8313 17.6999 20.2021 17.7298 20.3802 17.7168C20.4908 17.7211 20.612 17.7127 20.7002 17.7743L20.6643 17.8141L20.5976 17.7808L20.5551 17.8287C19.912 17.839 19.2665 17.7868 18.6462 17.8096C18.9666 17.7361 19.4162 17.8268 19.6377 17.6891Z" fill="#B67939"/>
<path d="M24.1691 19.9219L24.2158 19.9507C24.2055 20.1541 23.9425 20.4344 23.8175 20.5892C22.3866 22.3636 21.2561 23.178 19.2213 24.1693C18.6043 24.4697 17.8613 24.8185 17.1739 24.8944L17.1473 24.8779C17.1594 24.8418 18.5646 24.3448 18.7586 24.2555C19.704 23.82 20.7883 23.3129 21.6106 22.6852C22.6025 21.9277 23.3935 20.8843 24.1691 19.9219Z" fill="#7E461D"/>
<path d="M18.5879 18.3772L18.6252 18.388C18.6042 18.6767 17.3394 19.8733 17.074 20.1162C16.5815 20.5667 14.4866 21.8844 13.8462 22.1102C13.3831 22.2734 12.9466 22.328 12.4578 22.3097C12.4144 22.3104 12.4172 22.3012 12.3864 22.2738C13.0809 22.2233 13.8555 22.0784 14.4535 21.7134C14.6806 21.5749 14.8816 21.3992 15.112 21.2645C15.5173 21.0274 15.9445 20.8212 16.3348 20.5604C17.2051 19.9792 17.9019 19.1527 18.5879 18.3772Z" fill="#8F5125"/>
<path d="M11.2545 22.849C11.8366 22.8299 12.5879 23.0757 13.2264 23.0903C13.4764 23.096 13.7432 23.1017 13.9899 23.0677C14.3173 23.0226 14.668 22.9067 14.9987 22.9317L15.0448 22.9959C13.9125 23.1844 12.8482 23.2814 11.7074 23.0705C11.5195 23.0358 11.3697 23.0144 11.2545 22.849Z" fill="#8F5125"/>
<path d="M27.3867 17.1845C27.4865 17.2068 27.5182 17.2085 27.5909 17.2848C27.6427 17.6965 27.2244 18.2063 27.0005 18.5268L26.9576 18.5427L26.9198 18.5116C27.0499 18.315 27.1875 18.1194 27.2957 17.9101C27.2691 17.8821 27.2253 17.8425 27.2085 17.8065C27.1488 17.6782 27.3326 17.324 27.3867 17.1845Z" fill="#8F5125"/>
<path d="M10.2788 21.7004C10.5638 21.65 10.9831 21.8218 11.2928 21.8544C11.6449 21.8916 11.9956 21.871 12.3482 21.8932L12.3883 21.9809C11.7279 22.1275 10.8786 22.0119 10.2788 21.7004Z" fill="#8F5125"/>
<path d="M18.1682 22.2755L18.2162 22.2841L18.2237 22.3506C17.8469 22.7841 16.833 23.1991 16.3092 23.446C16.2864 23.4412 16.2579 23.412 16.2392 23.3973C16.3731 23.2365 16.8787 23.0728 17.0787 22.9712C17.4607 22.777 17.8254 22.5304 18.1682 22.2755Z" fill="#7E461D"/>
<path d="M16.3176 24.0153L16.326 24.0823C16.0583 24.2663 15.042 24.2567 14.6797 24.2657L14.6755 24.2258C14.8555 24.0853 16.0158 24.0415 16.3176 24.0153Z" fill="#6A3311"/>
<path d="M20.3192 18.3118C20.328 18.364 20.328 18.4117 20.3196 18.464C20.2459 18.9363 19.8327 19.53 19.4489 19.8132C19.4204 19.6915 19.5627 19.6067 19.6396 19.5255C19.9461 19.2018 20.1214 18.7083 20.3192 18.3118Z" fill="#8F5125"/>
<path d="M26.5131 6.1004C26.6908 6.23538 26.6848 6.26865 26.9133 6.27671L26.9534 6.21413C27.2132 6.36256 27.9174 6.51952 28.242 6.64616C28.7345 6.83838 29.0792 7.05262 29.526 7.32046C30.0954 7.54374 30.7609 7.98849 31.2259 8.39048C32.037 8.99842 32.5248 9.62354 32.9301 10.5379C32.716 10.5779 32.7099 10.5472 32.5933 10.7424C32.6335 11.6793 32.7039 12.3492 32.0141 13.105C31.9824 13.1397 31.9488 13.173 31.9143 13.205C31.2917 14.0057 29.2564 15.4288 28.2369 15.7104L27.9561 15.8222C27.75 15.91 27.5009 16.0254 27.2887 16.0817C26.8522 16.2073 26.175 16.422 25.7478 16.5032C25.3425 16.2055 23.9863 16.2477 23.4709 16.1621C23.1995 16.1171 22.8889 16.1735 22.6128 16.1696C22.3376 16.1665 22.2206 16.1123 21.9627 16.0187C21.4963 16.077 21.0252 16.1564 20.5589 16.1988C20.1755 16.1973 19.3808 16.2684 19.1042 16.2485C18.6751 16.1101 18.0469 16.3147 17.7629 16.1479L17.7764 16.0716C17.893 16.0392 18.0008 16.0147 18.1076 15.9578L18.1183 15.8645L18.0353 15.8386C17.7582 15.0809 17.4015 14.9154 17.9089 13.9803L17.9686 13.9819L18.0054 14.0557C17.7158 14.4427 17.8678 15.5084 18.2148 15.796L18.2629 15.7481C18.7288 15.944 19.7212 15.9779 20.2091 15.8568C20.3849 15.8132 20.6358 15.717 20.7683 15.6996C21.1596 15.6808 21.4296 15.6509 21.8139 15.5992C22.1072 15.623 22.9812 15.4845 23.0461 15.0983C23.1925 14.2286 22.3418 13.7322 22.0364 13.172C21.9487 12.8622 21.8195 11.9997 21.6423 11.834C21.2659 11.9922 20.6204 12.1559 20.2105 12.2685C19.9316 12.3449 19.5286 12.3827 19.2558 12.5005C19.1107 12.5631 19.0426 12.8251 18.8421 12.8832L18.7003 12.7778C18.8925 12.5534 18.9205 12.641 19.1588 12.4393L19.162 12.3414C19.0599 12.2362 19.0445 12.2274 18.9041 12.1824C18.8248 12.1032 18.5711 11.9364 18.4578 11.8412C17.6906 11.1968 17.9271 10.244 17.8823 9.36894C17.8762 9.25327 17.6584 9.28225 17.5931 9.17879C17.8133 8.96768 17.8562 8.96372 17.9807 8.70196C18.1416 8.36486 18.3491 7.71222 18.7017 7.55167L18.8374 7.60757C18.7801 7.74033 18.7749 7.65821 18.698 7.7302C17.8697 8.5015 17.9634 10.6439 18.4732 11.4497C19.1844 12.5728 20.5267 12.1373 21.4716 11.7196C21.6367 11.6466 21.9072 11.457 21.9515 11.2845C21.9678 11.2599 22.1819 11.0592 22.2243 11.0154C22.5083 10.7214 22.8413 10.275 22.8978 9.85913C22.9435 9.71664 22.9691 9.56871 22.9738 9.41935C22.9938 8.93939 22.7089 8.59288 22.4034 8.26412L22.4202 8.20007C22.3442 8.12343 22.2154 8.01389 22.1907 7.91771C23.0694 8.28495 22.9575 9.04474 23.4271 9.32792C24.0227 9.68687 25.2315 10.1295 25.9036 10.225L25.9386 10.2048C26.6251 10.2209 26.8611 10.1458 27.2356 9.5618C27.2747 8.25652 26.5812 8.06209 26.2095 6.81603C26.3364 6.55266 26.4157 6.37478 26.5131 6.1004Z" fill="#3F1405"/>
<path d="M26.9534 6.21413C27.2132 6.36256 27.9174 6.51952 28.242 6.64616C28.7345 6.83838 29.0792 7.05262 29.526 7.32046C30.0954 7.54374 30.7609 7.98849 31.2259 8.39048C32.037 8.99842 32.5248 9.62354 32.9301 10.5379C32.716 10.5779 32.7099 10.5472 32.5933 10.7424C32.6335 11.6793 32.7039 12.3492 32.0141 13.105C31.9824 13.1397 31.9488 13.173 31.9143 13.205C31.9787 12.8509 32.2534 12.7235 32.2515 12.5111C31.9185 12.3222 30.6061 12.8603 30.2064 12.876C30.1304 12.8355 30.0674 12.802 30.0171 12.7753C30.2004 12.5378 30.4606 12.1213 30.6215 11.8606C30.7026 11.3817 30.7059 11.1036 30.6262 10.6246C30.5133 10.2471 30.3659 9.98746 30.1453 9.66363C29.6519 9.04122 29.0106 8.60886 28.3111 8.24581L28.0457 8.14848C27.9944 8.1235 27.8908 8.09051 27.8325 8.06991L27.389 7.9424C27.2109 7.61727 26.911 7.28446 26.7874 6.9304C26.7151 6.72201 26.7631 6.6803 26.8513 6.50877C26.8863 6.44126 26.8979 6.35289 26.9133 6.27671L26.9534 6.21413Z" fill="#D09044"/>
<path d="M26.9534 6.21413C27.2132 6.36256 27.9174 6.51952 28.242 6.64616C28.7345 6.83838 29.0792 7.05262 29.526 7.32046C29.5115 7.46254 29.5031 7.49188 29.5633 7.62073C28.6151 7.18307 27.7929 6.90279 26.8513 6.50877C26.8863 6.44126 26.8979 6.35289 26.9133 6.27671L26.9534 6.21413Z" fill="#62290D"/>
<path d="M31.2259 8.39048C32.037 8.99842 32.5248 9.62354 32.9301 10.5379C32.716 10.5779 32.7099 10.5472 32.5933 10.7424C32.4017 9.82541 31.5818 9.07445 30.9191 8.46245C30.9951 8.43549 31.1452 8.40334 31.2259 8.39048Z" fill="#3F1405"/>
<path d="M30.2321 9.56638C30.3123 9.55979 30.4965 9.51694 30.5837 9.49892C30.7735 9.69514 31.3672 10.2471 31.1858 10.5276C30.9694 10.5218 30.8267 10.517 30.6262 10.6246C30.5133 10.2471 30.3659 9.98746 30.1453 9.66363L30.2321 9.56638Z" fill="#D79D55"/>
<path d="M29.526 7.32046C30.0954 7.54374 30.7609 7.98849 31.2259 8.39048C31.1452 8.40334 30.9951 8.43549 30.9191 8.46245C30.5483 8.14028 30.0049 7.84567 29.5633 7.62073C29.5031 7.49188 29.5115 7.46254 29.526 7.32046Z" fill="#1B0200"/>
<path d="M28.7816 7.93714C29.0022 7.90405 29.5348 8.14461 29.761 8.23382C29.7736 8.33304 29.7074 8.40268 29.6412 8.48153C29.2042 8.29235 29.2405 8.2 28.7406 8.09083L28.7816 7.93714Z" fill="#B67939"/>
<path d="M27.8325 8.06991C28.1772 7.83115 28.3498 7.89847 28.7816 7.93714L28.7406 8.09083C28.5573 8.10645 28.4221 8.07664 28.3111 8.24581L28.0457 8.14848C27.9944 8.1235 27.8908 8.09051 27.8325 8.06991Z" fill="#B67939"/>
<path d="M30.2321 9.56638L30.2493 9.44976C30.4307 9.27326 30.9265 9.28206 31.1564 9.34473C30.9648 9.39367 30.774 9.44509 30.5837 9.49892C30.4965 9.51694 30.3123 9.55979 30.2321 9.56638Z" fill="#B67939"/>
<path d="M31.5268 10.4937C31.7282 10.479 31.9213 10.4852 32.1233 10.4979L32.1517 10.5337L31.9969 10.5655C31.8103 10.6066 31.6331 10.6475 31.4405 10.6471L31.4162 10.5976L31.5268 10.4937Z" fill="#B67939"/>
<path d="M30.0171 12.7753C30.0674 12.802 30.1304 12.8355 30.2064 12.876C30.6061 12.8603 31.9185 12.3222 32.2515 12.5111C32.2534 12.7235 31.9787 12.8509 31.9143 13.205C31.2917 14.0057 29.2564 15.4288 28.2369 15.7104L27.9561 15.8222C27.75 15.91 27.5009 16.0254 27.2887 16.0817C26.8522 16.2073 26.175 16.422 25.7478 16.5032C25.3425 16.2055 23.9863 16.2477 23.4709 16.1621C23.1995 16.1171 22.8889 16.1735 22.6128 16.1696C22.9192 16.043 23.1435 16.0199 23.4686 16.0147L23.4933 15.9434L23.3725 15.9172L23.3692 15.8914C23.6062 15.8055 24.0497 15.7613 24.2997 15.6817C25.141 15.4135 26.6488 15.0553 27.3857 14.6646L27.3447 14.6047C27.3839 14.5754 27.9183 14.3032 27.9911 14.2677C28.6585 13.9417 29.5726 13.3837 30.0171 12.7753Z" fill="#D79D55"/>
<path d="M23.4686 16.0147L23.5525 16.0501C24.3766 15.6067 26.57 15.2858 27.4576 15.548C27.749 15.577 27.9529 15.6357 28.2369 15.7104L27.9561 15.8222C27.75 15.91 27.5009 16.0254 27.2887 16.0817C26.8522 16.2073 26.175 16.422 25.7478 16.5032C25.3425 16.2055 23.9863 16.2477 23.4709 16.1621C23.1995 16.1171 22.8889 16.1735 22.6128 16.1696C22.9192 16.043 23.1435 16.0199 23.4686 16.0147Z" fill="#D09044"/>
<path d="M26.2557 15.5958C26.7099 15.5342 27.0042 15.5411 27.4576 15.548C27.749 15.577 27.9529 15.6357 28.2369 15.7104L27.9561 15.8222C27.7714 15.6845 26.6288 15.649 26.2557 15.5958Z" fill="#B67939"/>
<path d="M27.389 7.9424L27.8325 8.06991C27.8908 8.09051 27.9944 8.1235 28.0457 8.14848L27.8857 8.21839C28.09 8.51996 29.5801 8.80015 30.2685 10.1416C30.3323 10.2662 30.4727 10.5045 30.4713 10.6436C30.4289 11.0393 30.4909 11.5884 30.1728 11.8477C30.046 11.8757 30.094 11.8818 29.9858 11.8379C29.9313 10.8365 29.7027 10.3158 28.8082 9.79524L28.5461 9.67252C28.5125 9.59616 28.478 9.52031 28.4421 9.445C28.2873 9.34745 27.9594 9.3391 27.757 9.31606L27.7243 9.21929C27.7836 9.17551 27.7812 9.17841 27.8167 9.11435L27.6614 8.91131C27.6012 8.55821 27.5014 8.27968 27.389 7.9424Z" fill="#8F5125"/>
<path d="M27.757 9.31606C27.9893 9.24164 28.457 9.26831 28.7205 9.26831L28.8082 9.79524L28.5461 9.67252C28.5125 9.59616 28.478 9.52031 28.4421 9.445C28.2873 9.34745 27.9594 9.3391 27.757 9.31606Z" fill="#763D15"/>
<path d="M21.9627 16.0187C23.8935 15.6905 25.5123 15.3647 27.3447 14.6047L27.3857 14.6646C26.6488 15.0553 25.141 15.4135 24.2997 15.6817C24.0497 15.7613 23.6062 15.8055 23.3692 15.8914L23.3725 15.9172L23.4933 15.9434L23.4686 16.0147C23.1435 16.0199 22.9192 16.043 22.6128 16.1696C22.3376 16.1665 22.2206 16.1123 21.9627 16.0187Z" fill="#D6A380"/>
<path d="M30.4713 10.6436C30.5627 10.9002 30.5324 11.4276 30.5254 11.7194C30.3827 11.932 30.1276 12.3864 29.9051 12.4498C29.9093 12.2086 29.9947 12.191 29.9858 11.8379C30.094 11.8818 30.046 11.8757 30.1728 11.8477C30.4909 11.5884 30.4289 11.0393 30.4713 10.6436Z" fill="#7E461D"/>
<path d="M27.6614 8.91131L27.8167 9.11435C27.7812 9.17841 27.7836 9.17551 27.7243 9.21929L27.757 9.31606C27.9594 9.3391 28.2873 9.34745 28.4421 9.445C28.478 9.52031 28.5125 9.59616 28.5461 9.67252C28.2793 9.63128 27.9435 9.61671 27.6688 9.59787L27.6614 8.91131Z" fill="#602D0F"/>
<path d="M23.3814 9.54114L23.4159 9.48358C23.6622 9.60737 23.8944 9.75552 24.1458 9.87368C24.2545 9.92493 24.442 9.92686 24.5264 9.97456C25.2054 10.3595 25.8434 10.5461 26.6298 10.4063C26.7464 10.3855 26.876 10.2218 27.0626 10.1962L27.1059 10.2315C26.8839 10.549 25.7912 10.4634 25.406 10.4535C25.4456 10.5911 25.586 10.6245 25.5911 10.6549C25.6252 10.86 25.6359 11.2822 25.6429 11.4796C26.0309 11.633 26.4954 11.7765 26.7729 12.0814L26.738 12.1243C26.5556 12.0421 26.5696 12.0265 26.4148 12.0799L26.598 12.2936C26.9152 12.7901 26.9693 14.1174 26.5136 14.4422C26.0458 14.7757 24.1052 15.2668 23.5516 15.272C23.4668 15.147 23.5689 14.6987 23.5083 14.4265C23.3982 13.9351 22.5704 13.3005 22.4804 13.106L22.298 12.9648C22.2239 12.7953 22.2528 12.7411 22.3017 12.5568C22.1184 12.4603 22.0588 12.0049 21.9156 11.7057C22.3675 11.3242 23.0517 10.8087 23.242 10.2288C23.2611 10.1696 23.2965 9.69824 23.3063 9.59824L23.3814 9.54114Z" fill="#602D0F"/>
<path d="M23.3814 9.54114L23.4159 9.48358C23.6622 9.60737 23.8944 9.75552 24.1458 9.87368C24.2545 9.92493 24.442 9.92686 24.5264 9.97456C25.2054 10.3595 25.8434 10.5461 26.6298 10.4063C26.7464 10.3855 26.876 10.2218 27.0626 10.1962L27.1059 10.2315C26.8839 10.549 25.7912 10.4634 25.406 10.4535C25.4456 10.5911 25.586 10.6245 25.5911 10.6549C25.6252 10.86 25.6359 11.2822 25.6429 11.4796C26.0309 11.633 26.4954 11.7765 26.7729 12.0814L26.738 12.1243C26.5556 12.0421 26.5696 12.0265 26.4148 12.0799C25.6681 11.6746 24.7885 11.5797 23.9709 11.816C23.3446 12.0011 22.6762 12.4337 22.298 12.9648C22.2239 12.7953 22.2528 12.7411 22.3017 12.5568C22.1184 12.4603 22.0588 12.0049 21.9156 11.7057C22.3675 11.3242 23.0517 10.8087 23.242 10.2288C23.2611 10.1696 23.2965 9.69824 23.3063 9.59824L23.3814 9.54114Z" fill="#602D0F"/>
<path d="M23.3814 9.54114L23.4159 9.48358C23.6622 9.60737 23.8944 9.75552 24.1458 9.87368C24.2545 9.92493 24.442 9.92686 24.5264 9.97456C25.2054 10.3595 25.8434 10.5461 26.6298 10.4063C26.7464 10.3855 26.876 10.2218 27.0626 10.1962L27.1059 10.2315C26.8839 10.549 25.7912 10.4634 25.406 10.4535C25.4456 10.5911 25.586 10.6245 25.5911 10.6549C25.6252 10.86 25.6359 11.2822 25.6429 11.4796C26.0309 11.633 26.4954 11.7765 26.7729 12.0814L26.738 12.1243C26.5556 12.0421 26.5696 12.0265 26.4148 12.0799C25.6681 11.6746 24.7885 11.5797 23.9709 11.816C23.3446 12.0011 22.6762 12.4337 22.298 12.9648C22.2239 12.7953 22.2528 12.7411 22.3017 12.5568C23.3777 11.611 23.9434 11.4282 25.3789 11.4533C25.384 11.1725 25.3495 10.8396 25.3267 10.5551C24.733 9.9823 24.1122 10.0655 23.3814 9.54114Z" fill="#250201"/>
<path d="M26.598 12.2936C26.9152 12.7901 26.9693 14.1174 26.5136 14.4422C26.0458 14.7757 24.1052 15.2668 23.5516 15.272C23.4668 15.147 23.5689 14.6987 23.5083 14.4265C23.3982 13.9351 22.5704 13.3005 22.4804 13.106C22.6431 13.1217 23.0456 13.6363 23.1701 13.697C23.6183 13.9157 25.1942 14.9379 25.5823 14.5351C25.7413 13.8365 25.9022 14.0193 26.1606 13.4254C26.1811 13.3791 26.1429 13.0404 26.141 12.9555C26.1331 12.5748 26.3425 12.559 26.598 12.2936Z" fill="#50230B"/>
<path d="M27.4715 10.0003C27.916 9.99672 28.3824 10.0086 28.7951 10.1894C29.1025 10.3241 29.3529 10.5511 29.4728 10.866C29.6598 11.3568 29.5334 11.9912 29.3254 12.4558C29.3086 12.4251 29.3151 12.4331 29.2974 12.411C28.9103 11.9319 28.6515 11.0872 28.1445 10.7399C27.9398 10.5997 27.6702 10.5359 27.4506 10.4188C27.3508 10.3656 27.3316 10.3125 27.2971 10.2102C27.3424 10.0952 27.3759 10.0733 27.4715 10.0003Z" fill="#602D0F"/>
<path d="M0.453618 12.573C0.469008 12.4438 0.504019 12.3619 0.548325 12.2405C1.01331 13.4201 1.91202 14.1557 2.91754 14.8872C3.16612 15.068 3.64137 15.3626 3.95291 15.2375C4.02473 15.209 4.09375 15.1742 4.15951 15.1335C4.49484 15.0073 4.90899 14.8454 5.25551 14.7615L5.25411 14.7886C5.03305 14.9116 4.48318 15.1022 4.42255 15.154C4.65807 15.3379 5.0018 15.4081 5.18416 15.5451C5.87953 16.0677 6.2461 15.8199 7.0646 15.9802C7.45403 16.2037 7.65085 16.1521 8.03514 16.2966L8.15407 16.317L7.62239 16.8343C8.07945 16.8824 8.61112 16.9552 9.05465 17.0766C10.0378 17.2781 10.9696 17.3882 11.9499 17.5566L11.838 17.7089C13.8365 18.018 15.8661 18.0775 17.88 17.8863L17.9695 17.938C17.8287 17.9812 17.7937 17.95 17.6971 17.9787C17.4747 18.045 17.2718 18.6535 17.1002 18.679C17.0176 18.7474 16.9295 18.8494 16.8609 18.9334C15.2118 20.9162 12.1267 22.1255 9.70942 20.8115C7.98241 19.873 7.57526 18.6686 6.91207 16.9971C6.81506 16.7526 6.58607 16.7069 6.35101 16.6317C6.19851 16.5563 6.00962 16.5024 5.84545 16.4496C5.79835 16.4066 4.80915 16.0424 4.66737 15.9847C3.74767 15.6163 3.50655 15.3938 2.68525 14.9658C1.85369 14.1775 1.66108 14.2177 0.844913 13.1581L0.778684 13.1547L0.672354 13.2572C0.633178 13.085 0.568817 12.8975 0.514717 12.7276L0.453618 12.573Z" fill="#CC8B41"/>
<path d="M0.453618 12.573C0.469008 12.4438 0.504019 12.3619 0.548325 12.2405C1.01331 13.4201 1.91202 14.1557 2.91754 14.8872C3.16612 15.068 3.64137 15.3626 3.95291 15.2375C4.02473 15.209 4.09375 15.1742 4.15951 15.1335C4.49484 15.0073 4.90899 14.8454 5.25551 14.7615L5.25411 14.7886C5.03305 14.9116 4.48318 15.1022 4.42255 15.154C4.65807 15.3379 5.0018 15.4081 5.18416 15.5451C5.87953 16.0677 6.2461 15.8199 7.0646 15.9802C7.45403 16.2037 7.65085 16.1521 8.03514 16.2966L8.15407 16.317L7.62239 16.8343C8.07945 16.8824 8.61112 16.9552 9.05465 17.0766C8.73938 17.1091 8.25248 16.934 7.93534 16.9389L7.88637 17.0079C7.86398 17.2538 9.10176 19.2779 9.35034 19.5604C8.66709 19.443 8.1634 17.0706 7.3407 16.9214C7.27214 16.9092 7.20312 16.8988 7.13409 16.89C6.94614 17.1028 7.36775 17.7528 7.4489 17.9782C8.96557 22.1905 13.8817 22.0394 16.6026 19.0793C16.8428 18.818 17.0158 18.5423 17.2704 18.2736C17.277 18.392 17.1184 18.5887 17.1002 18.679C17.0176 18.7474 16.9295 18.8494 16.8609 18.9334C15.2118 20.9162 12.1267 22.1255 9.70942 20.8115C7.98241 19.873 7.57526 18.6686 6.91207 16.9971C6.81506 16.7526 6.58607 16.7069 6.35101 16.6317C6.19851 16.5563 6.00962 16.5024 5.84545 16.4496C5.79835 16.4066 4.80915 16.0424 4.66737 15.9847C3.74767 15.6163 3.50655 15.3938 2.68525 14.9658C1.85369 14.1775 1.66108 14.2177 0.844913 13.1581L0.778684 13.1547L0.672354 13.2572C0.633178 13.085 0.568817 12.8975 0.514717 12.7276L0.453618 12.573Z" fill="#8F5125"/>
<path d="M7.53285 16.7933C6.81135 16.5144 4.50323 15.9211 3.97482 15.4539L3.97342 15.3804C4.08582 15.2604 4.26398 15.2124 4.42255 15.154C4.65807 15.3379 5.0018 15.4081 5.18416 15.5451C5.87953 16.0677 6.2461 15.8199 7.0646 15.9802C7.45403 16.2037 7.65085 16.1521 8.03514 16.2966C7.82061 16.4676 7.71613 16.5887 7.53285 16.7933Z" fill="#F1C887"/>
<path d="M7.88637 17.0079L7.93534 16.9389C8.25248 16.934 8.73938 17.1091 9.05465 17.0766C10.0378 17.2781 10.9696 17.3882 11.9499 17.5566L11.838 17.7089C11.0839 17.6295 8.57614 17.2697 7.88637 17.0079Z" fill="#B67939"/>
<path d="M14.0836 18.4187L14.1074 18.4561C14.0981 18.5069 14.0818 18.5498 14.0486 18.5899C13.6816 19.0332 13.1117 19.4668 12.5282 19.5361C11.5115 19.6569 10.7942 19.3458 10.0168 18.7461L10.0107 18.6868C10.1572 18.6712 10.5457 19.0363 10.7089 19.1218C11.082 19.3178 11.5059 19.4084 11.9266 19.4211C13.0002 19.4534 13.3393 19.1106 14.0836 18.4187Z" fill="#8F5125"/>
<path d="M15.2934 18.4601L15.3302 18.5122C15.3246 18.5355 15.3176 18.5576 15.3083 18.5797C15.1306 19.0002 14.3639 19.5074 13.9437 19.6892L13.9194 19.6313C14.488 19.3292 14.8606 18.9232 15.2934 18.4601Z" fill="#B67939"/>
<path d="M7.26701 15.1799C10.4748 16.1608 13.2689 16.3181 16.5979 16.3382C17.2047 16.3418 18.5413 16.3404 19.1042 16.2485C19.3808 16.2684 20.1755 16.1973 20.5589 16.1988C21.0252 16.1564 21.4963 16.077 21.9627 16.0187C22.2206 16.1123 22.3376 16.1665 22.6128 16.1696C22.8889 16.1735 23.1995 16.1171 23.4709 16.1621C23.9863 16.2477 25.3425 16.2055 25.7478 16.5032C25.4759 16.6374 25.1956 16.7548 24.8953 16.8115C24.7768 16.828 24.5665 16.8507 24.4573 16.8782L24.2358 16.8953C23.9653 16.953 23.519 17.1248 23.359 17.1512C22.9491 17.2571 22.5214 17.361 22.1147 17.4734C21.3321 17.6484 21.0229 17.6076 20.3802 17.7168C20.2021 17.7298 19.8313 17.6999 19.6377 17.6891C19.4162 17.8268 18.9666 17.7361 18.6462 17.8096C18.5124 17.8164 17.9868 17.8416 17.88 17.8863C15.8661 18.0775 13.8365 18.018 11.838 17.7089L11.9499 17.5566C10.9696 17.3882 10.0378 17.2781 9.05465 17.0766C8.61112 16.9552 8.07945 16.8824 7.62239 16.8343L8.15407 16.317L8.03514 16.2966C7.65085 16.1521 7.45403 16.2037 7.0646 15.9802C6.65745 15.7519 6.19294 15.809 5.71956 15.8108C6.03297 15.7212 6.67564 15.6558 6.99605 15.5747C7.02823 15.5665 7.16441 15.2608 7.2796 15.3664C7.52212 15.5886 7.55571 15.5309 7.87145 15.5519L7.92321 15.5031C7.58229 15.2958 7.5016 15.4746 7.26701 15.1799Z" fill="#D79D55"/>
<path d="M8.15407 16.317C8.67968 15.9678 10.3539 16.8135 11.0433 16.9417C11.6943 17.0814 12.3337 17.2029 12.9955 17.2838C13.1205 17.2991 13.3691 17.3178 13.475 17.3483C13.1961 17.5055 11.7596 17.0751 11.3842 17.1326C11.3315 17.1407 11.089 17.2979 11.0232 17.337C11.4154 17.4313 13.0967 17.5995 13.5011 17.6061C13.2698 17.6207 13.0375 17.6296 12.8057 17.6331C12.5674 17.6313 12.1971 17.5824 11.9499 17.5566C10.9696 17.3882 10.0378 17.2781 9.05465 17.0766C8.61112 16.9552 8.07945 16.8824 7.62239 16.8343L8.15407 16.317Z" fill="#F1C887"/>
<path d="M20.5589 16.1988C21.0252 16.1564 21.4963 16.077 21.9627 16.0187C22.2206 16.1123 22.3376 16.1665 22.6128 16.1696C22.8889 16.1735 23.1995 16.1171 23.4709 16.1621C23.9863 16.2477 25.3425 16.2055 25.7478 16.5032C25.4759 16.6374 25.1956 16.7548 24.8953 16.8115C24.7768 16.828 24.5665 16.8507 24.4573 16.8782L24.2358 16.8953L23.8408 16.8549C23.4761 16.9033 21.5252 16.4792 21.1689 16.3466C20.9945 16.1896 20.8018 16.2118 20.5589 16.1988Z" fill="#D39552"/>
<path d="M21.1689 16.3466L21.1871 16.3215L21.2136 16.3309C21.3522 16.3786 21.4324 16.3354 21.4785 16.3474C21.91 16.4608 23.4691 16.5812 23.7666 16.7931C23.7927 16.8116 23.8179 16.8323 23.8408 16.8549C23.4761 16.9033 21.5252 16.4792 21.1689 16.3466Z" fill="#B67939"/>
<path d="M11.9499 17.5566C12.1971 17.5824 12.5674 17.6313 12.8057 17.6331C14.1615 17.8633 16.2392 17.71 17.6346 17.6906C18.4261 17.6795 18.7917 17.6009 19.6377 17.6891C19.4162 17.8268 18.9666 17.7361 18.6462 17.8096C18.5124 17.8164 17.9868 17.8416 17.88 17.8863C15.8661 18.0775 13.8365 18.018 11.838 17.7089L11.9499 17.5566Z" fill="#A15719"/>
<path d="M11.0433 16.9417C11.622 16.6992 13.468 17.25 14.2487 17.3215C13.9913 17.3347 13.7333 17.3436 13.475 17.3483C13.3691 17.3178 13.1205 17.2991 12.9955 17.2838C12.3337 17.2029 11.6943 17.0814 11.0433 16.9417Z" fill="#D09044"/>
<path d="M19.2068 7.53927C20.2977 7.33972 21.4804 7.68826 22.4034 8.26412C22.7089 8.59288 22.9938 8.93939 22.9738 9.41935C22.9691 9.56871 22.9435 9.71664 22.8978 9.85913C22.8413 10.275 22.5083 10.7214 22.2243 11.0154C22.1819 11.0592 21.9678 11.2599 21.9515 11.2845C20.9683 12.103 18.9573 12.6132 18.3977 11.0989C18.0968 10.2843 18.0483 9.2028 18.3911 8.4043C18.5161 7.97337 18.7694 7.67535 19.2068 7.53927Z" fill="#602D0F"/>
<path d="M19.2068 7.53927C20.2977 7.33972 21.4804 7.68826 22.4034 8.26412C22.7089 8.59288 22.9938 8.93939 22.9738 9.41935C22.9691 9.56871 22.9435 9.71664 22.8978 9.85913C22.7299 9.59184 22.8516 9.51087 22.7732 9.25667C22.402 8.05222 20.8238 8.07186 19.8495 8.34288C18.8859 9.32769 19.1998 9.59193 19.3561 10.8711C19.3752 11.0281 19.3607 11.1284 19.2684 11.2534L19.1523 11.2557C18.6136 10.9574 18.4998 10.1783 18.5091 9.62L18.635 9.55456C18.7297 9.41262 18.6966 9.40022 18.6919 9.20473L18.6126 9.19243C18.5413 9.05238 18.5464 8.77104 18.5385 8.60339L18.5049 8.85961C18.3184 8.69666 18.3706 8.61846 18.3911 8.4043C18.5161 7.97337 18.7694 7.67535 19.2068 7.53927Z" fill="#7E461D"/>
<path d="M18.3911 8.4043C18.5161 7.97337 18.7694 7.67535 19.2068 7.53927C19.3467 7.54673 19.5613 7.54001 19.6713 7.6113C19.5953 7.74209 19.6308 7.70089 19.4885 7.77375C19.1196 7.79435 18.6719 8.27647 18.5385 8.60339L18.5049 8.85961C18.3184 8.69666 18.3706 8.61846 18.3911 8.4043Z" fill="#975A37"/>
<path d="M18.5385 8.60339C18.6719 8.27647 19.1196 7.79435 19.4885 7.77375C18.8743 8.35104 19.0427 8.54836 18.6919 9.20473L18.6126 9.19243C18.5413 9.05238 18.5464 8.77104 18.5385 8.60339Z" fill="#C08864"/>
<path d="M18.5049 8.85961L18.5385 8.60339C18.5464 8.77104 18.5413 9.05238 18.6126 9.19243L18.6919 9.20473C18.6966 9.40022 18.7297 9.41262 18.635 9.55456L18.5091 9.62C18.5278 9.42584 18.5096 9.06796 18.5049 8.85961Z" fill="#B67939"/>
<path d="M14.1671 1.77556C15.036 0.957898 15.1339 -0.0133182 16.6604 0.000138287L16.9724 0.0864072C17.9121 0.420238 19.3691 1.55058 19.7749 2.46516C19.8248 2.58618 19.8737 2.7077 19.9208 2.82978L19.8966 2.84157C19.7902 2.89365 19.7678 2.91236 19.6811 2.99061C19.6419 2.96259 19.6298 2.95927 19.5999 2.92107C19.5953 2.99185 19.5855 3.20126 19.5696 3.25766C19.3103 3.6002 19.1452 3.93689 18.9554 4.31653C18.9484 2.72388 18.8733 2.51244 17.3525 1.74344C17.3114 1.78372 17.2736 1.81266 17.2517 1.8652L17.2475 1.91552L17.2564 2.14179L17.2578 2.16138C17.3077 2.79563 17.8338 3.27172 17.4247 3.6444C17.2559 3.79814 17.2163 3.8833 17.1687 4.10505C16.9891 4.10648 16.6165 4.23224 16.402 4.26695C15.3619 4.43506 15.0019 4.15478 14.1783 3.75242C13.9712 3.63256 13.9297 3.60214 13.7585 3.43592C13.7478 3.17895 13.696 3.01642 13.6998 2.74295C13.6014 2.90093 13.4941 3.05397 13.4428 3.23186C13.3626 3.25416 13.2567 3.28914 13.1765 3.29352C13.2623 2.62811 13.6802 2.19806 14.1671 1.77556Z" fill="#844B28"/>
<path d="M14.1671 1.77556C15.036 0.957898 15.1339 -0.0133182 16.6604 0.000138287C16.6608 0.14203 16.6608 0.224751 16.6827 0.364477C16.4323 0.365353 16.2541 0.33738 16.0764 0.511715C16.0531 0.534526 16.0307 0.557983 16.0093 0.582085L15.951 0.603698C15.7556 0.608444 15.6427 0.621763 15.5144 0.777894C15.0952 1.28846 14.8135 1.79907 14.2221 2.16253C14.0458 2.34571 13.849 2.54005 13.6998 2.74295C13.6014 2.90093 13.4941 3.05397 13.4428 3.23186C13.3626 3.25416 13.2567 3.28914 13.1765 3.29352C13.2623 2.62811 13.6802 2.19806 14.1671 1.77556Z" fill="#370B05"/>
<path d="M13.1765 3.29352C13.2623 2.62811 13.6802 2.19806 14.1671 1.77556C14.1279 1.87667 13.9586 2.22496 13.9628 2.26639C14.0365 2.23035 14.1368 2.10661 14.1563 2.02412L14.2221 2.16253C14.0458 2.34571 13.849 2.54005 13.6998 2.74295C13.6014 2.90093 13.4941 3.05397 13.4428 3.23186C13.3626 3.25416 13.2567 3.28914 13.1765 3.29352Z" fill="#050000"/>
<path d="M14.2221 2.16253C14.8135 1.79907 15.0952 1.28846 15.5144 0.777894C15.6427 0.621763 15.7556 0.608444 15.951 0.603698C15.7169 0.834071 15.4464 1.02403 15.4361 1.33915C15.4697 1.40569 15.5037 1.47602 15.5387 1.54136L15.4254 1.59275L15.4221 1.61491C15.3461 2.12902 14.9543 2.35935 14.5952 2.6965C14.543 2.74535 14.4492 2.7547 14.3919 2.79563L14.2776 2.74853C14.0523 2.8624 13.8439 3.20757 13.7585 3.43592C13.7478 3.17895 13.696 3.01642 13.6998 2.74295C13.849 2.54005 14.0458 2.34571 14.2221 2.16253Z" fill="#975A37"/>
<path d="M16.6604 0.000138287L16.9724 0.0864072C17.9121 0.420238 19.3691 1.55058 19.7749 2.46516C19.6228 2.43387 19.5622 2.4374 19.4055 2.44109C18.8514 1.52476 18.1052 0.890922 17.096 0.518242C17.0064 0.49921 16.7783 0.402404 16.6827 0.364477C16.6608 0.224751 16.6608 0.14203 16.6604 0.000138287Z" fill="#050000"/>
<path d="M16.6604 0.000138287L16.9724 0.0864072C16.95 0.268669 16.9505 0.296994 17.0475 0.447503L17.0633 0.472896C17.0745 0.488011 17.0852 0.503127 17.096 0.518242C17.0064 0.49921 16.7783 0.402404 16.6827 0.364477C16.6608 0.224751 16.6608 0.14203 16.6604 0.000138287Z" fill="#1B0200"/>
<path d="M13.7585 3.43592C13.8439 3.20757 14.0523 2.8624 14.2776 2.74853L14.3919 2.79563C14.5714 3.16992 14.7724 3.64735 14.1783 3.75242C13.9712 3.63256 13.9297 3.60214 13.7585 3.43592Z" fill="#D6A380"/>
<path d="M16.0093 0.582085C16.1996 0.576785 16.2071 0.542247 16.3143 0.636119C16.3321 0.946632 15.9412 1.49355 15.6707 1.62466C15.5695 1.59462 15.6031 1.61768 15.5387 1.54136C15.5037 1.47602 15.4697 1.40569 15.4361 1.33915C15.4464 1.02403 15.7169 0.834071 15.951 0.603698L16.0093 0.582085Z" fill="#F5D19B"/>
<path d="M19.4055 2.44109C19.5622 2.4374 19.6228 2.43387 19.7749 2.46516C19.8248 2.58618 19.8737 2.7077 19.9208 2.82978L19.8966 2.84157C19.7902 2.89365 19.7678 2.91236 19.6811 2.99061C19.6419 2.96259 19.6298 2.95927 19.5999 2.92107L19.4055 2.44109Z" fill="#1B0200"/>
<path d="M17.2517 1.8652C17.1608 1.77473 17.0433 1.79132 16.8894 1.62358L16.902 1.57427C17.0647 1.62372 17.1967 1.67916 17.3525 1.74344C17.3114 1.78372 17.2736 1.81266 17.2517 1.8652Z" fill="#50230B"/>
<path d="M20.4791 12.3125L21.6609 11.8931C21.7304 12.2309 21.8139 12.9451 22.0364 13.172C22.3418 13.7322 23.1925 14.2286 23.0461 15.0983C22.9812 15.4845 22.1072 15.623 21.8139 15.5992C21.4296 15.6509 21.1596 15.6808 20.7683 15.6996C20.6358 15.717 20.3849 15.8132 20.2091 15.8568C19.7212 15.9779 18.7288 15.944 18.2629 15.7481C17.3282 14.4836 18.5427 13.3065 19.4362 12.4788C19.6946 12.4284 19.8695 12.4214 20.1326 12.4076L20.3009 12.4101L20.4791 12.3125Z" fill="#763D15"/>
<path d="M19.4362 12.4788C19.6946 12.4284 19.8695 12.4214 20.1326 12.4076L20.3009 12.4101C20.3914 12.4977 20.3667 12.4594 20.3755 12.6069C20.1134 13.1078 19.3299 13.7609 19.2931 14.1045C19.1657 14.377 19.0692 14.5231 18.7381 14.5471C18.9377 15.3861 19.9992 15.6949 20.7683 15.6996C20.6358 15.717 20.3849 15.8132 20.2091 15.8568C19.7212 15.9779 18.7288 15.944 18.2629 15.7481C17.3282 14.4836 18.5427 13.3065 19.4362 12.4788Z" fill="#50230B"/>
<path d="M20.1326 12.4076L20.3009 12.4101C20.3914 12.4977 20.3667 12.4594 20.3755 12.6069C20.1134 13.1078 19.3299 13.7609 19.2931 14.1045C19.2544 13.8272 19.2446 13.668 18.9885 13.5265C19.0552 12.8748 19.9087 12.7205 20.1326 12.4076Z" fill="#8F5125"/>
<path d="M18.9885 13.5265C19.2446 13.668 19.2544 13.8272 19.2931 14.1045C19.1657 14.377 19.0692 14.5231 18.7381 14.5471C18.7143 14.0187 18.7166 13.9791 18.9885 13.5265Z" fill="#D6A380"/>
<path d="M20.4791 12.3125L21.6609 11.8931C21.7304 12.2309 21.8139 12.9451 22.0364 13.172C22.3418 13.7322 23.1925 14.2286 23.0461 15.0983C22.9812 15.4845 22.1072 15.623 21.8139 15.5992C21.8587 15.5249 22.0013 15.2813 22.0069 15.1984C22.0531 14.4782 21.5718 13.342 21.1852 12.7485C20.9343 12.3631 20.8708 12.3866 20.4791 12.3125Z" fill="#602D0F"/>
<path d="M26.4045 5.99587L26.5131 6.1004C26.4157 6.37478 26.3364 6.55266 26.2095 6.81603C26.5812 8.06209 27.2747 8.25652 27.2356 9.5618C26.8611 10.1458 26.6251 10.2209 25.9386 10.2048C25.8066 10.0839 25.3947 10.0807 25.1289 9.97087C24.6261 9.76294 23.8627 9.49188 23.414 9.21745C23.2391 9.1104 22.9929 8.41702 22.838 8.2596C22.63 8.0483 22.4052 8.00742 22.2248 7.76254C22.1189 7.43345 22.4701 6.90547 22.7644 6.76736C22.9929 6.56297 23.5451 6.30173 23.8468 6.21481C23.8645 6.32145 23.8631 6.38919 23.9406 6.46228C24.1663 6.26878 24.2605 6.25914 24.5441 6.23426C24.6989 6.22647 25.1023 6.19449 25.2287 6.22744C25.4003 6.25016 25.8886 6.12748 26.1895 6.13513C26.2897 6.11813 26.3284 6.06601 26.4045 5.99587Z" fill="#602D0F"/>
<path d="M25.2287 6.22744C25.4003 6.25016 25.8886 6.12748 26.1895 6.13513C25.8313 6.54362 25.8056 6.52524 25.5846 7.00704C25.3262 7.5706 25.5846 8.73767 25.1336 9.02957C24.4625 9.04137 23.0615 8.12167 22.4332 7.8672C22.0639 7.71742 22.7037 6.9139 22.7644 6.76736C22.9929 6.56297 23.5451 6.30173 23.8468 6.21481C23.8645 6.32145 23.8631 6.38919 23.9406 6.46228C24.1663 6.26878 24.2605 6.25914 24.5441 6.23426C24.6989 6.22647 25.1023 6.19449 25.2287 6.22744Z" fill="#763D15"/>
<path d="M24.5441 6.23426C24.6989 6.22647 25.1023 6.19449 25.2287 6.22744C24.7619 6.65754 24.6621 6.66371 24.0567 6.83062C23.9331 6.89072 23.9616 6.90021 23.8459 6.88136C23.8114 6.75007 23.8902 6.59477 23.9406 6.46228C24.1663 6.26878 24.2605 6.25914 24.5441 6.23426Z" fill="#C08864"/>
<path d="M23.9406 6.46228C24.1663 6.26878 24.2605 6.25914 24.5441 6.23426C24.3202 6.36864 24.0791 6.54684 24.0567 6.83062C23.9331 6.89072 23.9616 6.90021 23.8459 6.88136C23.8114 6.75007 23.8902 6.59477 23.9406 6.46228Z" fill="#B67939"/>
<path d="M23.5204 6.73781C23.5591 6.74334 23.6025 6.76716 23.6388 6.78186C23.6468 6.83255 23.6636 6.87924 23.6463 6.92827C23.5596 7.17325 23.3917 7.30418 23.1645 7.41118C23.0605 7.38842 23.0577 7.37763 22.9896 7.29501C22.9915 7.24035 22.9943 7.17993 23.0176 7.12947C23.116 6.91587 23.3142 6.82205 23.5204 6.73781Z" fill="#C08864"/>
<path d="M0.0483353 11.065C0.129019 9.09459 3.22719 7.14382 4.94021 6.59611C5.26947 6.49081 5.62346 6.32344 5.96345 6.26067C6.27033 6.38864 6.27124 6.18381 6.35798 6.3098C6.25631 6.44759 6.23486 6.47902 6.09402 6.57451C5.8557 6.83248 5.67521 7.18456 5.49285 7.48816C5.31469 7.65577 4.82359 8.08154 4.58014 8.12094C3.53778 8.8063 2.51687 9.31299 2.11298 10.663L1.84435 10.6195C1.53374 10.6396 1.34532 10.7018 1.04497 10.7874C0.861685 10.8792 0.918584 10.884 0.742292 10.855C0.710111 11.1598 1.06876 12.0418 1.21706 12.3635C1.62748 13.2523 2.53692 13.9959 3.31018 14.583C3.45383 14.6918 4.11474 15.0634 4.15951 15.1335C4.09375 15.1742 4.02473 15.209 3.95291 15.2375C3.64137 15.3626 3.16612 15.068 2.91754 14.8872C1.91202 14.1557 1.01331 13.4201 0.548325 12.2405C0.504019 12.3619 0.469008 12.4438 0.453618 12.573C0.120622 12.0098 0.0893768 11.6834 0.0483353 11.065Z" fill="#EDC086"/>
<path d="M0.0483353 11.065C0.129019 9.09459 3.22719 7.14382 4.94021 6.59611C5.26947 6.49081 5.62346 6.32344 5.96345 6.26067C6.27033 6.38864 6.27124 6.18381 6.35798 6.3098C6.25631 6.44759 6.23486 6.47902 6.09402 6.57451L5.99747 6.53114C3.72946 7.54632 -0.307018 9.08583 0.548325 12.2405C0.504019 12.3619 0.469008 12.4438 0.453618 12.573C0.120622 12.0098 0.0893768 11.6834 0.0483353 11.065Z" fill="#763D15"/>
<path d="M0.742292 10.855C0.811316 10.7911 0.879427 10.7258 0.945653 10.6592C1.05758 10.1145 2.56726 8.37043 3.14277 8.2955C3.12412 8.37467 3.11433 8.43389 3.10313 8.5144C3.53454 8.79053 4.04893 8.21449 4.58014 8.12094C3.53778 8.8063 2.51687 9.31299 2.11298 10.663L1.84435 10.6195C1.53374 10.6396 1.34532 10.7018 1.04497 10.7874C0.861685 10.8792 0.918584 10.884 0.742292 10.855Z" fill="#D79D55"/>
<path d="M1.04497 10.7874C1.02445 10.7592 1.03377 10.752 1.03284 10.7035C1.26929 10.5237 1.75246 10.4607 2.04115 10.5126L2.04628 10.56L1.84435 10.6195C1.53374 10.6396 1.34532 10.7018 1.04497 10.7874Z" fill="#B67939"/>
<path d="M9.60777 8.35384C9.87267 8.29873 9.91139 8.08721 10.3433 8.19066C10.7112 8.24693 11.5526 8.7098 11.7559 8.64864C11.2163 10.3268 12.9359 11.0602 14.1573 11.5764L14.2147 11.6657C14.7804 11.9482 14.5034 12.0789 14.648 12.6172L14.6545 12.643C14.3812 12.9925 14.2026 13.2546 14.0342 13.6627C13.5137 13.0973 13.1798 12.8733 13.1164 12.0488C12.9531 9.92042 10.8857 11.7643 10.1077 12.174C9.79525 12.034 9.73136 11.8332 9.40069 11.9381L9.34753 11.8811C8.97816 10.7379 9.6143 10.3265 9.56813 9.39926C9.55693 9.19506 9.55927 9.00741 9.56113 8.80353C9.55647 8.68063 9.59005 8.4815 9.60777 8.35384Z" fill="#784021"/>
<path d="M9.56113 8.80353C10.0457 9.20377 9.79199 9.32398 9.96688 9.60265C9.94962 9.74888 9.48138 11.8335 9.46273 11.8655C9.43194 11.8709 9.37505 11.8841 9.34753 11.8811C8.97816 10.7379 9.6143 10.3265 9.56813 9.39926C9.55693 9.19506 9.55927 9.00741 9.56113 8.80353Z" fill="#975A37"/>
<path d="M14.648 12.6172C14.3429 12.7114 13.7007 11.9911 13.6532 11.7413C13.7716 11.6544 14.0529 11.6705 14.2147 11.6657C14.7804 11.9482 14.5034 12.0789 14.648 12.6172Z" fill="#6A3311"/>
<path d="M9.60777 8.35384C9.87267 8.29873 9.91139 8.08721 10.3433 8.19066C9.9944 8.74583 10.0494 8.94416 9.96688 9.60265C9.79199 9.32398 10.0457 9.20377 9.56113 8.80353C9.55647 8.68063 9.59005 8.4815 9.60777 8.35384Z" fill="#D6A380"/>
<path d="M1.04497 10.7874C1.34532 10.7018 1.53374 10.6396 1.84435 10.6195L2.11298 10.663C2.09852 10.8661 2.07057 11.2449 2.11861 11.4443L2.16432 11.3552C2.3602 11.6804 2.56167 12.2793 2.83217 12.4638L2.98188 12.4694C3.16703 12.5835 3.43241 13.1061 3.43007 13.3362C4.49342 14.2044 5.96441 14.7647 7.26701 15.1799C7.5016 15.4746 7.58229 15.2958 7.92321 15.5031L7.87145 15.5519C7.55571 15.5309 7.52212 15.5886 7.2796 15.3664C7.16441 15.2608 7.02823 15.5665 6.99605 15.5747C6.67564 15.6558 6.03297 15.7212 5.71956 15.8108C6.19294 15.809 6.65745 15.7519 7.0646 15.9802C6.2461 15.8199 5.87953 16.0677 5.18416 15.5451C5.0018 15.4081 4.65807 15.3379 4.42255 15.154C4.48318 15.1022 5.03305 14.9116 5.25411 14.7886L5.25551 14.7615C4.90899 14.8454 4.49484 15.0073 4.15951 15.1335C4.11474 15.0634 3.45383 14.6918 3.31018 14.583C2.53692 13.9959 1.62748 13.2523 1.21706 12.3635C1.06876 12.0418 0.710111 11.1598 0.742292 10.855C0.918584 10.884 0.861685 10.8792 1.04497 10.7874Z" fill="#E7AF60"/>
<path d="M2.11861 11.4443L2.16432 11.3552C2.3602 11.6804 2.56167 12.2793 2.83217 12.4638L2.98188 12.4694C3.16703 12.5835 3.43241 13.1061 3.43007 13.3362C2.8415 12.835 2.27438 12.2161 2.11861 11.4443Z" fill="#602D0F"/>
<path d="M1.81316 12.6991C1.94981 12.6796 2.08133 12.6936 2.21332 12.7353C2.36256 12.7826 2.43531 12.8525 2.50387 12.9827C2.31312 12.9506 1.98106 12.9361 1.82202 12.8361L1.81316 12.6991Z" fill="#D79D55"/>
<path d="M8.64935 5.48043C8.80979 5.41937 9.01359 5.34858 9.16703 5.28126C9.11107 5.75804 9.09288 5.99495 9.15211 6.47017C9.11293 6.83446 9.11713 7.14742 9.02526 7.5013C8.72864 8.64362 8.00108 9.28432 6.77776 9.17511C6.34356 9.13635 6.07166 8.72113 5.76478 8.52579C5.75779 8.29956 5.74659 8.07347 5.73027 7.84771C5.97512 7.18452 6.3291 6.60971 6.90648 6.18141C7.08651 6.15228 7.18398 6.10417 7.34022 6.19537C7.69094 5.97537 8.26319 5.71619 8.65075 5.51684L8.64935 5.48043Z" fill="#8F5125"/>
<path d="M6.90648 6.18141C7.08651 6.15228 7.18398 6.10417 7.34022 6.19537C6.44384 6.86552 6.62665 6.88514 6.20738 7.74649C6.0157 8.00636 5.76851 8.20735 5.76478 8.52579C5.75779 8.29956 5.74659 8.07347 5.73027 7.84771C5.97512 7.18452 6.3291 6.60971 6.90648 6.18141Z" fill="#7E461D"/>
<path d="M8.65075 5.51684L8.7011 5.59137C8.49543 5.95548 7.60045 6.27623 7.2945 6.53904C6.85843 6.91361 6.56461 7.37076 6.33795 7.88372L6.26753 7.89049C6.24467 7.84409 6.21577 7.79668 6.20738 7.74649C6.62665 6.88514 6.44384 6.86552 7.34022 6.19537C7.69094 5.97537 8.26319 5.71619 8.65075 5.51684Z" fill="#D7A380"/>
<path d="M15.3569 12.4643C15.8191 12.4004 16.2449 12.3583 16.708 12.4367C17.1002 12.4635 17.2373 12.5731 17.568 12.7735C17.5386 13.037 17.5997 13.4328 17.6319 13.7067L17.6062 13.7319C17.235 14.0986 16.9276 14.583 16.5191 14.9699C16.2808 15.1959 15.5896 15.5546 15.4986 15.6503C15.106 15.6903 14.6946 15.433 14.5687 15.0678C14.5584 14.7907 14.5603 14.5454 14.4106 14.3039C14.1163 13.9714 14.5402 13.2407 14.8541 13.0063C14.9105 12.829 15.2118 12.5856 15.3569 12.4643Z" fill="#602D0F"/>
<path d="M15.3569 12.4643C15.8191 12.4004 16.2449 12.3583 16.708 12.4367C15.9571 12.5188 16.2248 12.7239 15.7174 12.9942C15.5416 13.203 15.3639 13.41 15.1838 13.6153C14.9534 13.9967 15.3098 15.2661 15.4986 15.6503C15.106 15.6903 14.6946 15.433 14.5687 15.0678C14.5584 14.7907 14.5603 14.5454 14.4106 14.3039C14.1163 13.9714 14.5402 13.2407 14.8541 13.0063C14.9105 12.829 15.2118 12.5856 15.3569 12.4643Z" fill="#6A3311"/>
<path d="M14.4106 14.3039C14.1163 13.9714 14.5402 13.2407 14.8541 13.0063C14.8014 13.2839 14.6298 13.6765 14.6181 13.8529C14.5869 14.3208 14.6685 14.5736 14.5687 15.0678C14.5584 14.7907 14.5603 14.5454 14.4106 14.3039Z" fill="#50230B"/>
<path d="M15.1838 13.6153L15.1293 13.5219C15.1092 13.2488 15.196 12.965 15.4674 12.8501C15.6288 12.8816 15.5821 12.873 15.7174 12.9942C15.5416 13.203 15.3639 13.41 15.1838 13.6153Z" fill="#D6A380"/>
<path d="M20.5877 3.00687C20.7127 3.00664 20.959 3.01406 21.0732 3.00456L21.7933 3.08913C22.4593 3.32065 22.8282 3.65213 23.1873 4.24459C23.1976 5.6183 21.7905 5.65484 20.7817 5.61281C20.5756 5.6042 20.3695 5.78411 20.1619 5.70185C20.12 5.43525 19.988 5.1882 19.8938 4.92437C19.9147 4.58224 19.7357 4.2056 19.6531 3.85311C19.7459 3.70541 19.8732 3.54785 19.981 3.40757C20.1867 3.15231 20.2869 3.12881 20.5877 3.00687Z" fill="#653317"/>
<path d="M19.981 3.40757C20.1867 3.15231 20.2869 3.12881 20.5877 3.00687C20.5803 3.09341 20.5579 3.19698 20.6078 3.2608C20.8191 3.27942 21.1577 3.27753 21.1353 3.54869C20.938 3.77491 20.2431 3.99261 19.9978 3.8174L19.981 3.40757Z" fill="#C08864"/>
<path d="M19.981 3.40757C20.1867 3.15231 20.2869 3.12881 20.5877 3.00687C20.5803 3.09341 20.5579 3.19698 20.6078 3.2608C20.3317 3.3956 20.1629 3.56339 19.9978 3.8174L19.981 3.40757Z" fill="#763D15"/>
<path d="M17.2475 1.91552C17.7689 2.14327 18.4653 2.45843 18.6537 3.01084C19.399 5.19544 15.6306 5.38582 14.3938 4.72101C13.8752 4.44234 13.4647 4.00473 13.4027 3.4408L13.4428 3.23186C13.4941 3.05397 13.6014 2.90093 13.6998 2.74295C13.696 3.01642 13.7478 3.17895 13.7585 3.43592C13.9297 3.60214 13.9712 3.63256 14.1783 3.75242C15.0019 4.15478 15.3619 4.43506 16.402 4.26695C16.6165 4.23224 16.9891 4.10648 17.1687 4.10505C17.2163 3.8833 17.2559 3.79814 17.4247 3.6444C17.8338 3.27172 17.3077 2.79563 17.2578 2.16138L17.2564 2.14179L17.2475 1.91552Z" fill="#6A3311"/>
<path d="M17.2564 2.14179C17.6272 2.46488 18.0899 2.78046 18.1225 3.28457C18.1262 3.34564 18.1286 3.40679 18.1295 3.46799C17.7331 3.95224 17.6976 3.84897 17.1687 4.10505C17.2163 3.8833 17.2559 3.79814 17.4247 3.6444C17.8338 3.27172 17.3077 2.79563 17.2578 2.16138L17.2564 2.14179Z" fill="#763D15"/>
<path d="M12.5917 3.00881C12.7535 3.08632 12.8841 3.14951 13.0398 3.2414L13.1765 3.29352C13.2567 3.28914 13.3626 3.25416 13.4428 3.23186L13.4027 3.4408C13.3416 3.67449 13.3738 3.70712 13.1033 3.69076C13.1224 3.98694 13.2208 4.15551 13.3752 4.3987C13.2362 4.62469 13.0319 4.52838 12.8337 4.79027C12.7111 4.95262 12.7251 5.26028 12.5907 5.3936C11.9551 5.21456 11.2345 5.15553 10.59 5.33171C10.5284 5.34853 10.4603 5.463 10.3959 5.48941C10.1842 5.2224 10.2985 4.5281 10.548 4.30602C10.4001 4.20851 10.4053 4.1233 10.3754 3.97602C10.4971 3.835 10.5466 3.61426 10.6021 3.43232L10.6702 3.38582C10.7705 3.19434 10.9211 3.17292 11.1216 3.10785C11.5404 3.08356 11.8133 3.05655 12.2279 3.15361L12.2535 3.06872C12.3823 2.98503 12.4177 3.01245 12.5917 3.00881Z" fill="#975A37"/>
<path d="M10.6702 3.38582C10.8539 3.38882 10.9723 3.37693 11.1346 3.46711C11.4047 3.8421 10.7117 4.30552 10.548 4.30602C10.4001 4.20851 10.4053 4.1233 10.3754 3.97602C10.4971 3.835 10.5466 3.61426 10.6021 3.43232L10.6702 3.38582Z" fill="#D6A380"/>
<path d="M13.4428 3.23186L13.4027 3.4408C13.3416 3.67449 13.3738 3.70712 13.1033 3.69076C13.0319 3.60039 12.8911 3.49638 12.7969 3.42043L13.0398 3.2414L13.1765 3.29352C13.2567 3.28914 13.3626 3.25416 13.4428 3.23186Z" fill="#1B0200"/>
<path d="M12.5917 3.00881C12.7535 3.08632 12.8841 3.14951 13.0398 3.2414L12.7969 3.42043C12.6038 3.30808 12.4326 3.23997 12.2279 3.15361L12.2535 3.06872C12.3823 2.98503 12.4177 3.01245 12.5917 3.00881Z" fill="#050000"/>
<path d="M4.58014 8.12094C4.82359 8.08154 5.31469 7.65577 5.49285 7.48816C5.42662 8.16587 5.40704 8.29794 5.55675 8.97979C4.67996 9.06662 3.95147 9.24372 3.36243 9.95355C2.92076 10.4844 2.71696 11.1698 2.79717 11.8522C2.81956 12.0581 2.88347 12.2866 2.98188 12.4694L2.83217 12.4638C2.56167 12.2793 2.3602 11.6804 2.16432 11.3552L2.11861 11.4443C2.07057 11.2449 2.09852 10.8661 2.11298 10.663C2.51687 9.31299 3.53778 8.8063 4.58014 8.12094Z" fill="#8F5125"/>
<path d="M16.7345 11.3326C17.3231 11.3269 17.6122 10.9672 17.9018 11.0407C18.0184 11.5478 18.372 12.0869 18.9046 12.2417L18.9041 12.1824C19.0445 12.2274 19.0599 12.2362 19.162 12.3414L19.1588 12.4393C18.9205 12.641 18.8925 12.5534 18.7003 12.7778C18.6318 12.8393 18.517 13.0086 18.4573 13.0912C18.2283 13.1306 17.9037 12.6061 17.7717 12.5546C17.5754 12.478 17.3818 12.4205 17.1682 12.3275L17.1738 12.2667C16.5409 11.9759 15.0369 12.0452 14.6545 12.643L14.648 12.6172C14.5034 12.0789 14.7804 11.9482 14.2147 11.6657L14.1573 11.5764C15.2547 11.8998 15.7355 11.6848 16.7345 11.3326Z" fill="#50230B"/>
<path d="M18.9041 12.1824C19.0445 12.2274 19.0599 12.2362 19.162 12.3414L19.1588 12.4393C18.9205 12.641 18.8925 12.5534 18.7003 12.7778C18.6318 12.8393 18.517 13.0086 18.4573 13.0912C18.2283 13.1306 17.9037 12.6061 17.7717 12.5546C17.5754 12.478 17.3818 12.4205 17.1682 12.3275L17.1738 12.2667C17.7801 12.4276 17.9653 12.5778 18.372 13.0377C18.5203 12.8366 18.9526 12.4817 18.9983 12.3207L18.9046 12.2417L18.9041 12.1824Z" fill="#1B0200"/>
<path d="M23.1873 4.24459C23.4229 4.55432 23.5059 4.82035 23.6472 5.17911C23.6701 5.46395 23.6906 5.62736 23.6481 5.90908C23.116 6.20346 22.7751 6.44568 22.2816 6.80504C21.9188 6.66407 20.3643 6.23341 20.2221 5.95018C20.1848 5.87576 20.1745 5.78323 20.1619 5.70185C20.3695 5.78411 20.5756 5.6042 20.7817 5.61281C21.7905 5.65484 23.1976 5.6183 23.1873 4.24459Z" fill="#50230B"/>
<path d="M15.4986 15.6503C15.5896 15.5546 16.2808 15.1959 16.5191 14.9699C16.9276 14.583 17.235 14.0986 17.6062 13.7319L17.6319 13.7067L17.6649 13.8179C17.7419 13.8075 17.7671 13.8044 17.8408 13.7806C17.7605 14.5589 17.1841 15.0521 18.0353 15.8386L17.9877 15.9169C17.63 16.0031 14.5099 15.9961 14.0626 15.9769C14.4394 15.1012 14.5346 15.3968 14.4106 14.3039C14.5603 14.5454 14.5584 14.7907 14.5687 15.0678C14.6946 15.433 15.106 15.6903 15.4986 15.6503Z" fill="#50230B"/>
<path d="M10.3959 5.48941C10.4603 5.463 10.5284 5.34853 10.59 5.33171C11.2345 5.15553 11.9551 5.21456 12.5907 5.3936C12.7908 5.48263 13.3085 5.59991 13.3943 5.65503C13.3607 5.68715 13.2623 5.78673 13.2311 5.80867C13.0711 5.80475 12.7055 6.03807 12.546 6.13591C12.0623 6.43209 11.0354 6.71795 10.6455 7.07247C10.6044 7.1098 10.5676 7.15164 10.5363 7.19722C10.5774 6.95109 10.6333 6.81131 10.4533 6.61228C10.3325 6.36647 10.2952 5.94595 10.2551 5.66323L10.3959 5.48941Z" fill="#5A2609"/>
<path d="M9.15211 6.47017C9.46692 6.91889 9.68517 7.16057 10.1278 7.46989L10.0098 7.61491C9.54759 7.75321 9.20946 8.02142 9.04482 8.487C8.93009 9.03628 8.07475 9.5796 7.53935 9.67127C7.26978 9.5738 6.99788 9.66177 6.71479 9.71809C5.97231 9.29554 5.42946 8.77805 5.73027 7.84771C5.74659 8.07347 5.75779 8.29956 5.76478 8.52579C6.07166 8.72113 6.34356 9.13635 6.77776 9.17511C8.00108 9.28432 8.72864 8.64362 9.02526 7.5013C9.11713 7.14742 9.11293 6.83446 9.15211 6.47017Z" fill="#6A3311"/>
<path d="M10.6291 2.95102C10.8343 2.95959 10.9952 2.92706 11.1216 3.10785C10.9211 3.17292 10.7705 3.19434 10.6702 3.38582L10.6021 3.43232C10.5466 3.61426 10.4971 3.835 10.3754 3.97602C10.4053 4.1233 10.4001 4.20851 10.548 4.30602C10.2985 4.5281 10.1842 5.2224 10.3959 5.48941L10.2551 5.66323C10.2952 5.94595 10.3325 6.36647 10.4533 6.61228C10.2878 6.76901 10.3484 6.75099 10.1511 6.80145L10.0093 6.75444C9.86425 6.73845 9.7374 6.71518 9.59422 6.68882C9.49162 5.99148 9.47856 5.46695 9.70055 4.79759C9.53126 4.83372 9.59749 4.83829 9.43473 4.77663C9.61848 4.14561 9.87265 3.68809 10.2416 3.15785C10.3801 3.09748 10.4985 3.02623 10.6291 2.95102Z" fill="#8F5125"/>
<path d="M10.6291 2.95102C10.8343 2.95959 10.9952 2.92706 11.1216 3.10785C10.9211 3.17292 10.7705 3.19434 10.6702 3.38582L10.6021 3.43232C10.2416 3.62108 9.83534 4.42279 9.70055 4.79759C9.53126 4.83372 9.59749 4.83829 9.43473 4.77663C9.61848 4.14561 9.87265 3.68809 10.2416 3.15785C10.3801 3.09748 10.4985 3.02623 10.6291 2.95102Z" fill="#050000"/>
<path d="M10.0093 6.75444C9.72294 6.44121 9.81951 6.01213 9.91511 5.64484L9.97574 5.80134L10.0723 5.83341C10.1684 5.77083 10.1879 5.76037 10.2551 5.66323C10.2952 5.94595 10.3325 6.36647 10.4533 6.61228C10.2878 6.76901 10.3484 6.75099 10.1511 6.80145L10.0093 6.75444Z" fill="#975A37"/>
<path d="M9.91511 5.64484C10.0163 5.21225 10.0704 4.39418 10.3754 3.97602C10.4053 4.1233 10.4001 4.20851 10.548 4.30602C10.2985 4.5281 10.1842 5.2224 10.3959 5.48941L10.2551 5.66323C10.1879 5.76037 10.1684 5.77083 10.0723 5.83341L9.97574 5.80134L9.91511 5.64484Z" fill="#C08864"/>
<path d="M13.4223 5.54628C13.5193 5.43715 13.8201 5.32033 13.9661 5.30448C14.161 5.28337 14.1993 5.35116 14.3411 5.46098C14.3704 5.67457 14.3742 5.76089 14.5258 5.92472C14.5062 6.19578 14.509 6.33588 14.5276 6.60749C14.2385 6.701 13.8103 6.85487 13.5277 6.9275C13.3962 6.99087 13.1891 7.0829 13.0688 7.15285C12.9872 7.23594 12.9223 7.22032 12.7833 7.24345C12.7437 6.99538 12.7605 6.63261 12.7638 6.37201L12.6929 6.31307C12.7764 6.2174 12.9195 6.22781 13.0333 6.2191L13.2311 5.80867C13.2623 5.78673 13.3607 5.68715 13.3943 5.65503L13.4223 5.54628Z" fill="#8F5125"/>
<path d="M13.4223 5.54628C13.5944 5.5084 13.5692 5.4864 13.7086 5.54064C13.738 5.75254 13.5482 5.87821 13.5095 6.0695C13.468 6.27453 13.759 6.519 13.5869 6.77044C13.572 6.79251 13.5314 6.89146 13.5277 6.9275C13.3962 6.99087 13.1891 7.0829 13.0688 7.15285C12.9872 7.23594 12.9223 7.22032 12.7833 7.24345C12.7437 6.99538 12.7605 6.63261 12.7638 6.37201L12.6929 6.31307C12.7764 6.2174 12.9195 6.22781 13.0333 6.2191L13.2311 5.80867C13.2623 5.78673 13.3607 5.68715 13.3943 5.65503L13.4223 5.54628Z" fill="#975A37"/>
<path d="M12.6929 6.31307C12.7764 6.2174 12.9195 6.22781 13.0333 6.2191C12.9946 6.4751 12.9205 6.87138 13.0161 7.11567L13.0688 7.15285C12.9872 7.23594 12.9223 7.22032 12.7833 7.24345C12.7437 6.99538 12.7605 6.63261 12.7638 6.37201L12.6929 6.31307Z" fill="#3F1405"/>
<path d="M12.6929 6.31307L12.7638 6.37201C12.7605 6.63261 12.7437 6.99538 12.7833 7.24345C12.7078 7.42567 12.2582 7.68894 11.9905 8.09185C11.5959 7.79005 11.4845 7.70138 10.9771 7.66645C10.6814 7.58866 10.3264 7.6174 10.0098 7.61491L10.1278 7.46989C10.1595 7.46528 10.2663 7.4476 10.2915 7.4499C11.165 7.25105 11.9812 6.84478 12.6929 6.31307Z" fill="#50230B"/>
<path d="M9.04482 8.487C9.15582 9.39951 9.65629 10.2557 8.17273 10.0048C7.76884 9.93657 7.81918 9.73505 7.53935 9.67127C8.07475 9.5796 8.93009 9.03628 9.04482 8.487Z" fill="#50230B"/>
<path d="M21.7337 2.75586C23.0013 3.07282 23.4495 3.95828 23.8827 5.07134C24.1752 5.223 24.4606 5.37346 24.7619 5.50826C24.6159 5.60872 24.6808 5.58553 24.4872 5.58221C24.2489 5.50673 24.15 5.46285 23.9262 5.35073C23.921 5.33018 23.8949 5.30681 23.8781 5.28741L23.7998 5.41308L23.727 5.41004L23.6472 5.17911C23.5059 4.82035 23.4229 4.55432 23.1873 4.24459C22.8282 3.65213 22.4593 3.32065 21.7933 3.08913C21.687 2.95323 21.702 2.90853 21.7337 2.75586Z" fill="#050000"/>
<path d="M13.3752 4.3987C13.4587 4.48616 13.6335 4.65828 13.7016 4.74505C13.9418 5.38557 14.2739 5.06977 14.3411 5.46098C14.1993 5.35116 14.161 5.28337 13.9661 5.30448C13.8201 5.32033 13.5193 5.43715 13.4223 5.54628L13.3943 5.65503C13.3085 5.59991 12.7908 5.48263 12.5907 5.3936C12.7251 5.26028 12.7111 4.95262 12.8337 4.79027C13.0319 4.52838 13.2362 4.62469 13.3752 4.3987Z" fill="#8F5125"/>
<path d="M16.7345 11.3326C17.8328 10.6065 17.2756 9.5765 17.6454 9.27635L17.7205 9.31534C17.7806 9.45544 17.8547 10.7088 17.9018 11.0407C17.6122 10.9672 17.3231 11.3269 16.7345 11.3326Z" fill="#3F1405"/>
<path d="M23.8468 6.21481C24.6275 6.01167 25.7082 5.45231 26.4045 5.99587C26.3284 6.06601 26.2897 6.11813 26.1895 6.13513C25.8886 6.12748 25.4003 6.25016 25.2287 6.22744C25.1023 6.19449 24.6989 6.22647 24.5441 6.23426C24.2605 6.25914 24.1663 6.26878 23.9406 6.46228C23.8631 6.38919 23.8645 6.32145 23.8468 6.21481Z" fill="#8F5125"/>
<path d="M10.7378 7.99481C11.1076 8.04029 11.532 8.05711 11.769 8.35721C11.8049 8.48634 11.789 8.52007 11.7559 8.64864C11.5526 8.7098 10.7112 8.24693 10.3433 8.19066C9.91139 8.08721 9.87267 8.29873 9.60777 8.35384C9.84422 8.04259 10.3274 8.05757 10.7378 7.99481Z" fill="#975A37"/>
<path d="M6.90648 6.18141C7.51464 5.69241 7.87236 5.48402 8.64935 5.48043L8.65075 5.51684C8.26319 5.71619 7.69094 5.97537 7.34022 6.19537C7.18398 6.10417 7.08651 6.15228 6.90648 6.18141Z" fill="#602D0F"/>
<path d="M20.2725 2.80356C20.9408 2.69987 21.0299 2.67106 21.7337 2.75586C21.702 2.90853 21.687 2.95323 21.7933 3.08913L21.0732 3.00456C20.779 2.79465 20.4968 3.20836 20.2725 2.80356Z" fill="#1B0200"/>
<path d="M9.62313 8.05751C10.125 7.95216 10.221 7.93997 10.7378 7.99481C10.3274 8.05757 9.84422 8.04259 9.60777 8.35384C9.59005 8.4815 9.55647 8.68063 9.56113 8.80353C9.55927 9.00741 9.55693 9.19506 9.56813 9.39926C9.45899 8.8075 9.0047 8.65277 9.62313 8.05751Z" fill="#763D15"/>
<path d="M17.568 12.7735C17.8805 12.9452 17.9616 13.0091 18.2167 13.2658C18.0082 13.4472 17.8753 13.574 17.6319 13.7067C17.5997 13.4328 17.5386 13.037 17.568 12.7735Z" fill="#50230B"/>
<path d="M10.4533 6.61228C10.6333 6.81131 10.5774 6.95109 10.5363 7.19722C10.1073 7.27953 9.84327 7.0091 9.59422 6.68882C9.7374 6.71518 9.86425 6.73845 10.0093 6.75444L10.1511 6.80145C10.3484 6.75099 10.2878 6.76901 10.4533 6.61228Z" fill="#602D0F"/>
<path d="M13.7016 4.74505C14.4544 5.11603 14.7739 5.06134 14.5258 5.92472C14.3742 5.76089 14.3704 5.67457 14.3411 5.46098C14.2739 5.06977 13.9418 5.38557 13.7016 4.74505Z" fill="#763D15"/>
<path d="M19.2581 4.3503C19.3715 4.23841 19.5496 3.98974 19.6531 3.85311C19.7357 4.2056 19.9147 4.58224 19.8938 4.92437C19.6489 4.66483 19.5464 4.55699 19.2581 4.3503Z" fill="#602D0F"/>
<path d="M9.40069 11.9381C9.73136 11.8332 9.79525 12.034 10.1077 12.174C10.0354 12.2021 9.74672 12.3832 9.66417 12.433C9.57976 12.1947 9.5602 12.1385 9.40069 11.9381Z" fill="#602D0F"/>
<path d="M24.4872 5.58221L24.4606 5.64673C24.254 5.75124 24.0469 5.84687 23.8851 5.6429C23.8758 5.50161 23.8763 5.48295 23.9262 5.35073C24.15 5.46285 24.2489 5.50673 24.4872 5.58221Z" fill="#7E461D"/>
<path d="M15.1689 6.55554C15.5401 6.22498 16.034 6.00332 16.3679 6.5178C16.6398 7.10339 15.8661 7.30777 16.6053 8.26968C19.5407 12.0902 12.5161 12.0692 12.0973 9.6656C11.9173 8.5559 12.1504 8.18516 13.0664 7.54787C13.3159 7.381 13.9381 7.15344 14.2328 7.01915C14.5612 6.86938 14.848 6.72301 15.1689 6.55554Z" fill="#8F5125"/>
<path d="M16.3679 6.5178C16.6398 7.10339 15.8661 7.30777 16.6053 8.26968C19.5407 12.0902 12.5161 12.0692 12.0973 9.6656L12.2237 9.52351C12.2666 9.47281 12.4 9.38318 12.4545 9.44009C13.1611 10.177 13.5948 10.2591 14.5728 10.2844C15.7537 9.47701 15.4524 8.7558 15.5028 7.4349C15.8573 6.86894 15.9328 6.89836 16.3679 6.5178Z" fill="#602D0F"/>
<path d="M15.1689 6.55554L15.4315 6.49082C15.1689 6.88069 14.6437 7.18433 14.2338 7.41669C14.2035 7.43392 14.2137 7.47674 14.2226 7.50646L14.161 7.51466C13.5939 7.41669 13.3943 7.7225 13.1117 8.13578C13.1275 7.9967 13.1131 7.97836 13.0403 7.85771C13.0478 7.79628 13.114 7.72241 13.1536 7.66886L13.0664 7.54787C13.3159 7.381 13.9381 7.15344 14.2328 7.01915C14.5612 6.86938 14.848 6.72301 15.1689 6.55554Z" fill="#975A37"/>
<path d="M13.1117 8.13578C13.3943 7.7225 13.5939 7.41669 14.161 7.51466C14.1909 7.75513 14.2012 7.90511 14.0389 8.09986C13.8509 8.32521 13.5328 8.57264 13.2264 8.44499C13.1387 8.34024 13.0972 8.29661 13.1117 8.13578Z" fill="#D6A380"/>
<path d="M13.0664 7.54787L13.1536 7.66886C13.114 7.72241 13.0478 7.79628 13.0403 7.85771C12.6383 8.24905 12.3114 8.97963 12.2237 9.52351L12.0973 9.6656C11.9173 8.5559 12.1504 8.18516 13.0664 7.54787Z" fill="#B67939"/>
<path d="M15.4315 6.49082L15.4879 6.45072C15.6661 6.92893 14.6428 7.44927 14.2226 7.50646C14.2137 7.47674 14.2035 7.43392 14.2338 7.41669C14.6437 7.18433 15.1689 6.88069 15.4315 6.49082Z" fill="#D6A380"/>
<path d="M12.1453 11.3765C12.4046 11.2815 12.5655 11.2197 12.7684 11.4527C12.836 11.8203 12.899 11.9189 12.7017 12.2231C12.6593 13.3947 15.2454 14.287 13.7259 15.9208C12.33 15.8889 10.257 15.7764 9.11478 14.9549C8.94315 14.5297 8.82003 14.122 9.01125 13.6736C9.03084 13.6273 9.05276 13.5818 9.07607 13.5371C9.24071 13.2609 9.35357 13.1648 9.59656 12.9662C9.73227 12.7419 11.0018 12.0457 11.2989 11.8911C11.6221 11.5985 11.7317 11.5141 12.1453 11.3765Z" fill="#8F5125"/>
<path d="M12.6486 14.6669C13.024 13.6431 12.552 13.3883 12.7017 12.2231C12.6593 13.3947 15.2454 14.287 13.7259 15.9208C12.33 15.8889 10.257 15.7764 9.11478 14.9549C8.94315 14.5297 8.82003 14.122 9.01125 13.6736C9.03084 13.6273 9.05276 13.5818 9.07607 13.5371C9.09939 13.7538 9.09333 14.0311 9.23184 14.1829C9.9566 14.5848 10.3768 14.7929 11.179 14.9919C11.8315 15.1614 12.1481 15.1238 12.6486 14.6669Z" fill="#602D0F"/>
<path d="M12.1453 11.3765C12.4046 11.2815 12.5655 11.2197 12.7684 11.4527C12.836 11.8203 12.899 11.9189 12.7017 12.2231C12.552 13.3883 13.024 13.6431 12.6486 14.6669C12.1481 15.1238 11.8315 15.1614 11.179 14.9919C11.7638 14.4089 11.7098 13.8128 11.8212 13.0709C11.8744 12.7167 11.9803 12.3861 12.0092 12.0157L12.3357 11.7706C12.4126 11.6743 12.4047 11.6228 12.4098 11.5032L12.3319 11.4007L12.1453 11.3765Z" fill="#7E461D"/>
<path d="M12.1453 11.3765C12.4046 11.2815 12.5655 11.2197 12.7684 11.4527C12.7362 11.5963 12.7306 11.7074 12.6122 11.7926C12.4802 11.8124 12.463 11.8134 12.3357 11.7706C12.4126 11.6743 12.4047 11.6228 12.4098 11.5032L12.3319 11.4007L12.1453 11.3765Z" fill="#8F5125"/>
<path d="M9.75278 13.4961C9.76723 13.4378 9.78496 13.3802 9.80501 13.3235C9.95938 12.8955 10.4775 12.7112 10.874 12.5257C11.3884 13.1721 10.0774 14.2113 9.71593 13.7223C9.72293 13.6351 9.72246 13.5795 9.75278 13.4961Z" fill="#D6A380"/>
<path d="M11.2989 11.8911C11.2107 12.2786 10.9705 12.1665 11.0661 12.4013L10.9211 12.4348L10.874 12.5257C10.4775 12.7112 9.95938 12.8955 9.80501 13.3235C9.78496 13.3802 9.76723 13.4378 9.75278 13.4961L9.75513 13.3142L9.67771 13.2465L9.74673 13.2776L9.71456 13.1983C9.61801 13.3249 9.55832 13.4328 9.39415 13.4697C9.52334 13.2627 9.55925 13.2111 9.59656 12.9662C9.73227 12.7419 11.0018 12.0457 11.2989 11.8911Z" fill="#975A37"/>
<path d="M11.6164 12.1797L11.5376 12.101C11.5843 11.7518 12.1174 11.5751 12.4098 11.5032C12.4047 11.6228 12.4126 11.6743 12.3357 11.7706L12.0092 12.0157L11.6164 12.1797Z" fill="#C08864"/>
<path d="M9.07607 13.5371C9.24071 13.2609 9.35357 13.1648 9.59656 12.9662C9.55925 13.2111 9.52334 13.2627 9.39415 13.4697C9.22579 13.6938 9.24304 13.906 9.23184 14.1829C9.09333 14.0311 9.09939 13.7538 9.07607 13.5371Z" fill="#7E461D"/>
<path d="M6.81366 10.0655C7.16205 9.98604 7.34161 9.91788 7.64942 10.0899L7.63683 10.7034L7.64989 10.7361C7.92179 11.41 9.33912 12.375 9.12365 12.8244C8.83683 13.4236 8.6554 13.3861 8.46512 14.2119C8.36065 14.3022 8.25618 14.3954 8.14425 14.4759C7.05665 14.627 5.48214 14.5339 4.64965 13.7411C4.56524 13.4524 4.53539 13.3584 4.52513 13.0604C4.52933 12.1443 5.30212 11.8941 5.8753 11.2807C6.14161 10.9961 6.18871 10.8688 6.40511 10.5645C6.46388 10.4395 6.70919 10.1824 6.81366 10.0655Z" fill="#7E461D"/>
<path d="M7.63683 10.7034L7.64989 10.7361C7.92179 11.41 9.33912 12.375 9.12365 12.8244C8.83683 13.4236 8.6554 13.3861 8.46512 14.2119C8.36065 14.3022 8.25618 14.3954 8.14425 14.4759C7.05665 14.627 5.48214 14.5339 4.64965 13.7411C4.56524 13.4524 4.53539 13.3584 4.52513 13.0604C5.76058 13.7174 6.9741 14.1841 8.20208 13.2109C8.98234 12.5925 7.54075 11.8023 7.63683 10.7034Z" fill="#602D0F"/>
<path d="M6.01477 12.6382C5.87672 12.7424 5.72188 12.8236 5.55725 12.8787C5.43553 12.9189 5.35204 12.9273 5.23777 12.8687C4.93276 12.3792 5.72515 11.8831 6.05674 11.6874L6.22837 11.8587C6.20645 12.2194 6.16168 12.3204 6.01477 12.6382Z" fill="#D6A380"/>
<path d="M6.81366 10.0655C7.16205 9.98604 7.34161 9.91788 7.64942 10.0899C7.57293 10.3066 7.62144 10.2589 7.46147 10.3858C7.3071 10.4275 7.2017 10.4068 7.0436 10.3698C6.92327 10.3032 6.97131 10.3172 6.81507 10.3485C6.67655 10.4601 6.51006 10.6316 6.4429 10.798L6.40511 10.5645C6.46388 10.4395 6.70919 10.1824 6.81366 10.0655Z" fill="#8F5125"/>
<path d="M6.4429 10.798C6.51006 10.6316 6.67655 10.4601 6.81507 10.3485C6.97131 10.3172 6.92327 10.3032 7.0436 10.3698C6.79548 10.7419 6.28387 11.4346 6.22837 11.8587L6.05674 11.6874C6.27081 11.457 6.41212 11.1101 6.4429 10.798Z" fill="#C08864"/>
<path d="M14.8662 5.46781L14.8018 5.16582C14.8844 5.13343 14.8582 5.13089 14.9436 5.1432C16.1963 5.32408 17.2153 5.48334 18.3636 4.80333C18.5468 4.69489 18.7548 4.44424 18.9162 4.43198C19.1252 4.53821 19.2884 4.75429 19.446 4.93347C20.1111 5.79077 19.9567 6.17317 19.897 7.19047C17.9849 7.25535 18.4536 8.07841 17.5656 9.16866C17.3403 8.9341 16.5978 7.85274 16.6011 7.50854C16.6034 7.25651 16.8012 6.85055 16.7494 6.50907C16.4472 6.01169 16.3399 6.01796 15.7644 5.95639C15.312 6.05515 15.298 6.18598 14.9753 6.28967C14.9254 6.30907 14.6731 6.51622 14.6143 6.56281C14.6614 6.15303 14.7309 5.8556 14.8662 5.46781Z" fill="#602D0F"/>
<path d="M19.446 4.93347C20.1111 5.79077 19.9567 6.17317 19.897 7.19047C17.9849 7.25535 18.4536 8.07841 17.5656 9.16866C17.3403 8.9341 16.5978 7.85274 16.6011 7.50854C16.6034 7.25651 16.8012 6.85055 16.7494 6.50907L16.7956 6.56751C16.9687 6.97604 17.5073 7.38259 17.9677 7.11005C18.4662 6.81489 19.0324 6.56866 19.4923 6.21699C19.5566 5.66413 19.4815 5.47357 19.446 4.93347Z" fill="#50230B"/>
<path d="M16.2635 5.8703C16.7672 5.99233 18.5562 5.10107 18.8016 5.24471C18.934 5.57352 18.7213 5.78099 18.4942 5.99855C18.0353 6.43888 17.4271 6.61866 16.7956 6.56751L16.7494 6.50907C16.4472 6.01169 16.3399 6.01796 15.7644 5.95639C15.8269 5.86759 16.0476 5.92827 16.2635 5.8703Z" fill="#763D15"/>
<path d="M14.8662 5.46781C14.8932 5.41597 14.9119 5.40336 14.952 5.36051L15.0527 5.3964C15.5811 5.5912 15.7724 5.56112 16.2635 5.8703C16.0476 5.92827 15.8269 5.86759 15.7644 5.95639C15.312 6.05515 15.298 6.18598 14.9753 6.28967C14.9254 6.30907 14.6731 6.51622 14.6143 6.56281C14.6614 6.15303 14.7309 5.8556 14.8662 5.46781Z" fill="#7E461D"/>
<path d="M14.8662 5.46781C14.8932 5.41597 14.9119 5.40336 14.952 5.36051L15.0527 5.3964C14.9147 5.5312 14.9688 6.07814 14.9753 6.28967C14.9254 6.30907 14.6731 6.51622 14.6143 6.56281C14.6614 6.15303 14.7309 5.8556 14.8662 5.46781Z" fill="#763D15"/>
<path d="M5.16965 9.34437C5.75403 9.27059 5.97416 9.71203 6.48205 9.92203C6.16398 10.3108 5.90793 10.7682 5.57121 11.1354C4.89495 11.8726 4.45282 11.7987 4.10211 12.8924C4.08392 12.9751 4.05827 13.0531 4.03029 13.1329L3.95147 13.1607C3.91462 13.146 3.88058 13.1299 3.847 13.1085C3.521 12.8991 3.1339 12.1608 3.06301 11.7884C2.96694 11.2854 3.13436 10.7963 3.42492 10.3847C3.85352 9.77742 4.4421 9.47087 5.16965 9.34437Z" fill="#7E461D"/>
<path d="M3.60495 10.6594C3.74486 10.3607 3.8456 10.1071 4.14968 9.94178C4.34696 9.92588 4.27327 9.91408 4.45329 10.0071C4.49154 10.2649 3.83813 10.7488 3.65251 11.0891C3.55597 10.9103 3.59282 10.8815 3.60495 10.6594Z" fill="#D6A380"/>
<path d="M3.65251 11.0891C3.54058 11.2798 3.53871 11.4934 3.37128 11.763L3.3307 11.7467C3.28826 11.4242 3.43612 10.9243 3.60495 10.6594C3.59282 10.8815 3.55597 10.9103 3.65251 11.0891Z" fill="#B67939"/>
<path d="M20.2841 6.39173C20.6003 6.35555 21.7663 6.93879 22.1235 7.08133C22.0242 7.24437 21.9361 7.41484 21.8451 7.5823C21.3382 7.38765 20.7528 7.39479 20.2613 7.15838C20.2991 6.86607 20.3527 6.6851 20.2841 6.39173Z" fill="#50230B"/>
<path d="M7.88026 10.147C8.27482 10.2286 8.67917 10.2153 9.0798 10.218C8.98279 10.655 8.90071 11.0815 8.88765 11.5299L8.88951 11.5874L8.85127 11.5973L8.88858 11.5492L8.81256 11.5721C8.3196 11.1483 7.9824 10.8057 7.88026 10.147Z" fill="#50230B"/>
<path d="M8.46698 14.5462C8.50289 14.5557 8.70623 14.9387 8.79205 15.0213C8.95155 15.1746 9.23557 15.1496 9.34471 15.2794C9.05928 15.3529 8.64933 15.0134 8.39935 14.8965C8.07848 14.7464 7.71284 14.7766 7.3831 14.8927L7.3957 14.9346C7.89426 14.9898 8.35364 15.1234 8.83588 15.2561C9.11524 15.4323 9.51074 15.473 9.82974 15.5601C9.76212 15.5849 9.70569 15.5837 9.63526 15.5808C9.21598 15.5635 9.00658 15.3835 8.62834 15.2775C8.29628 15.1845 7.46146 15.1387 7.24273 14.9028L7.27444 14.7465C7.30102 14.7517 7.3276 14.7559 7.35419 14.7591C7.76414 14.8102 8.13678 14.8021 8.46698 14.5462Z" fill="#3F1405"/>
<path d="M10.6291 2.95102C11.2107 2.64355 12.0096 2.75106 12.5917 3.00881C12.4177 3.01245 12.3823 2.98503 12.2535 3.06872L12.2279 3.15361C11.8133 3.05655 11.5404 3.08356 11.1216 3.10785C10.9952 2.92706 10.8343 2.95959 10.6291 2.95102Z" fill="#1B0200"/>
</svg>
