<svg width="35" height="34" viewBox="0 0 35 34" fill="none" xmlns="http://www.w3.org/2000/svg">
<path d="M15.3942 0.166486C17.3119 -0.245846 20.1615 0.163303 22.02 0.786262C22.6367 0.992964 23.2056 1.29195 23.8064 1.5115C24.6838 1.83214 25.9387 2.16189 26.7192 2.65969C28.1483 3.27876 29.2546 4.62877 30.0625 5.90001C30.4609 6.52697 31.0056 7.06542 31.4573 7.65362C32.2149 8.72063 33.2592 10.3811 33.5265 11.6664C33.6605 12.2348 33.9719 12.5034 34.1485 13.0169C34.4293 13.8322 34.5484 14.7474 34.7167 15.5962C34.9419 16.8837 35.0752 18.0712 34.9546 19.3863C34.8941 20.0488 34.6283 20.7056 34.4479 21.3425C33.6501 25.0063 31.4962 28.2696 28.4459 30.4733C28.1629 30.6777 27.8657 30.9094 27.564 31.0907C25.6691 32.0073 23.8367 33.2044 21.6535 33.2307C20.7829 33.2414 20.1911 33.5409 19.3792 33.73C17.7285 34.1143 16.0076 34.088 14.3696 33.6534C13.2516 33.3595 12.5598 32.9479 11.4796 32.6832L10.9043 32.5958C10.2636 32.4974 9.45467 32.1307 8.86652 31.8408C7.74529 31.2882 7.26109 30.8587 6.62911 29.7913C6.18821 29.7716 5.76505 29.6996 5.38848 29.4318C4.38098 28.7152 3.37176 27.5827 2.81733 26.4796C2.65906 26.1647 2.53418 25.587 2.37468 25.3285C1.94782 24.6367 1.70021 24.362 1.40552 23.589C1.08772 22.7554 1.02873 22.0574 0.795048 21.2709C0.600417 20.6159 0.379839 20.2863 0.213919 19.5139C-0.101791 18.0442 -0.0416053 17.0232 0.22232 15.5436C0.257527 15.3462 0.51869 14.8797 0.524104 14.7801C0.544937 14.3994 0.479824 14.0135 0.562896 13.6089C0.636895 13.2482 0.754651 12.8952 0.850118 12.5437C1.30815 10.8575 2.07928 9.32904 3.04175 7.87561C3.89394 6.58871 4.94266 5.47102 6.16518 4.52564C6.66954 4.13556 7.11555 3.70357 7.69048 3.36979C8.22655 3.05851 8.78419 2.81464 9.32959 2.52343C9.50701 2.43829 9.73453 2.19657 9.89922 2.12761C10.7323 1.77861 11.5865 1.22132 12.4208 0.92204C13.3586 0.585629 14.4205 0.370635 15.3942 0.166486Z" fill="#F9C356"/>
<path d="M6.62911 29.7913C6.18821 29.7716 5.76505 29.6996 5.38848 29.4318C4.38098 28.7152 3.37176 27.5827 2.81733 26.4796C2.65906 26.1647 2.53418 25.587 2.37468 25.3285C1.94782 24.6367 1.70021 24.362 1.40552 23.589C1.08772 22.7554 1.02873 22.0574 0.795048 21.2709C0.600417 20.6159 0.379839 20.2863 0.213919 19.5139C-0.101791 18.0442 -0.0416053 17.0232 0.22232 15.5436C0.257527 15.3462 0.51869 14.8797 0.524104 14.7801C0.544937 14.3994 0.479824 14.0135 0.562896 13.6089C0.636895 13.2482 0.754651 12.8952 0.850118 12.5437C1.30815 10.8575 2.07928 9.32904 3.04175 7.87561C3.89394 6.58871 4.94266 5.47102 6.16518 4.52564C6.66954 4.13556 7.11555 3.70357 7.69048 3.36979C8.22655 3.05851 8.78419 2.81464 9.32959 2.52343C9.50701 2.43829 9.73453 2.19657 9.89922 2.12761C10.7323 1.77861 11.5865 1.22132 12.4208 0.92204C13.3586 0.585629 14.4205 0.370635 15.3942 0.166486C15.43 0.336727 15.7889 0.699306 15.9449 0.73921C15.3088 0.82161 13.5201 1.19456 12.9715 1.47137L13.2594 1.4559C12.8789 1.58997 12.2189 1.79194 11.9249 2.04498L11.92 2.16336C11.8659 2.18517 11.8352 2.19731 11.7824 2.22292L11.8599 2.26442C11.6243 2.3979 10.63 2.85962 10.5166 2.98081C10.5284 2.84148 10.466 2.82245 10.3658 2.76485L10.362 2.69733C10.2032 2.79184 10.028 2.89712 9.86289 2.97877C6.18396 4.79775 3.60601 7.36159 2.0213 11.1807C1.47037 12.2695 1.22153 13.8073 1.04307 15.0004C1.02698 15.1079 0.907391 15.0619 0.883646 15.1535C0.795646 15.3593 0.749349 15.9184 0.774252 16.1302C0.647609 17.4279 0.57753 18.5813 0.908622 19.879C0.991171 20.2024 1.28202 20.7533 1.34108 21.0417C1.5098 21.9529 1.74363 22.7628 2.09224 23.6187C2.29792 24.1236 2.86404 24.7767 2.99643 25.1502C3.59537 26.8401 4.56374 28.2335 6.18022 29.1068C6.28849 29.1653 6.67402 29.1779 6.80929 29.2062C7.05104 29.4324 7.2646 29.8726 7.51269 30.1117C7.98222 30.5643 8.47084 30.8487 9.02661 31.1508C9.32354 31.5899 10.7197 31.9458 11.2468 31.967C11.8683 31.9675 12.188 32.1975 12.7101 32.4251C14.1978 33.0737 15.9451 33.5076 17.5789 33.3602C17.7303 33.3465 17.8961 33.344 18.0507 33.3366C18.8246 33.2481 19.4403 33.0323 20.1881 32.9242C20.5505 32.8361 20.8535 32.7439 21.2288 32.6795C22.1482 32.5222 22.9661 32.5003 23.8563 32.1994C24.5519 31.9644 25.1514 31.4937 25.734 31.2508C26.7444 30.8294 26.9897 30.7915 27.8855 30.086C28.435 29.625 29.1616 29.1676 29.6328 28.6825C30.5195 27.7696 31.4895 26.6751 32.0909 25.5489C32.8462 24.6179 33.2655 22.7217 33.6818 21.5981C33.9891 20.769 34.1604 20.1229 34.2508 19.2402C34.349 18.2812 34.2329 17.3772 34.2284 16.4297C34.2482 16.1109 34.3303 15.8769 34.669 15.7427L34.7167 15.5962C34.9419 16.8837 35.0752 18.0712 34.9546 19.3863C34.8941 20.0488 34.6283 20.7056 34.4479 21.3425C33.6501 25.0063 31.4962 28.2696 28.4459 30.4733C28.1629 30.6777 27.8657 30.9094 27.564 31.0907C25.6691 32.0073 23.8367 33.2044 21.6535 33.2307C20.7829 33.2414 20.1911 33.5409 19.3792 33.73C17.7285 34.1143 16.0076 34.088 14.3696 33.6534C13.2516 33.3595 12.5598 32.9479 11.4796 32.6832L10.9043 32.5958C10.2636 32.4974 9.45467 32.1307 8.86652 31.8408C7.74529 31.2882 7.26109 30.8587 6.62911 29.7913Z" fill="#5E1302"/>
<path d="M11.2468 31.967C11.8683 31.9675 12.188 32.1975 12.7101 32.4251C14.1978 33.0737 15.9451 33.5076 17.5789 33.3602C17.7303 33.3465 17.8961 33.344 18.0507 33.3366C16.287 33.8822 13.5488 33.13 11.9745 32.2544C11.7802 32.1464 11.46 32.0512 11.2468 31.967Z" fill="#631003"/>
<path d="M27.8855 30.086C27.6077 30.6417 26.2823 31.094 25.7511 31.3497C25.053 31.6857 24.4159 32.1077 23.6686 32.3599C23.2814 32.4907 22.7462 32.4866 22.4368 32.6036L22.4407 32.6299C22.5075 32.6325 22.6288 32.6321 22.6883 32.6488C22.5079 32.7013 22.4077 32.6758 22.2392 32.7154C22.1591 32.7343 21.8926 32.9123 21.8093 32.9212C21.2993 32.9767 20.6905 32.9808 20.1881 32.9242C20.5505 32.8361 20.8535 32.7439 21.2288 32.6795C22.1482 32.5222 22.9661 32.5003 23.8563 32.1994C24.5519 31.9644 25.1514 31.4937 25.734 31.2508C26.7444 30.8294 26.9897 30.7915 27.8855 30.086Z" fill="#631003"/>
<path d="M10.362 2.69733C10.8144 2.38617 12.4179 1.61159 12.9715 1.47137L13.2594 1.4559C12.8789 1.58997 12.2189 1.79194 11.9249 2.04498L11.92 2.16336C11.8659 2.18517 11.8352 2.19731 11.7824 2.22292L11.8599 2.26442C11.6243 2.3979 10.63 2.85962 10.5166 2.98081C10.5284 2.84148 10.466 2.82245 10.3658 2.76485L10.362 2.69733Z" fill="#F4BD70"/>
<path d="M10.9043 32.5958C10.7989 32.4833 10.7955 32.5144 10.7737 32.3883C10.9274 32.2728 11.5865 32.3597 11.6842 32.5903C11.6381 32.6743 11.5812 32.6854 11.4796 32.6832L10.9043 32.5958Z" fill="#631003"/>
<path d="M0.774252 16.1302C0.749349 15.9184 0.795646 15.3593 0.883646 15.1535C0.907391 15.0619 1.02698 15.1079 1.04307 15.0004C1.22153 13.8073 1.47037 12.2695 2.0213 11.1807C1.99345 11.3613 1.96504 11.5061 1.9712 11.6894L1.91068 11.8257C2.08014 11.8861 2.2082 11.812 2.38398 11.7489C2.86774 11.665 3.57588 11.8367 3.92967 12.1773C4.34787 12.4991 4.71073 12.864 4.93904 13.3492C4.95349 13.44 4.97302 13.5476 4.97992 13.639C5.07479 14.894 3.94995 16.4776 2.74259 16.7998C2.12782 16.6394 1.64638 16.5101 1.29778 15.8684C1.20731 15.7018 1.21933 15.5246 1.08328 15.3601L1.04472 15.3569C0.97964 15.6662 0.858593 15.7356 0.774252 16.1302Z" fill="#984819"/>
<path d="M2.38398 11.7489C2.86774 11.665 3.57588 11.8367 3.92967 12.1773C3.43923 12.0507 2.93064 11.8272 2.42758 11.868C2.20361 11.8861 2.04523 12.0415 1.87785 12.0214C1.84687 11.9276 1.86352 11.9453 1.91068 11.8257C2.08014 11.8861 2.2082 11.812 2.38398 11.7489Z" fill="#F4BD70"/>
<path d="M26.3198 3.15361L26.3714 3.12547C26.2384 2.93702 24.5786 2.35752 24.2442 2.21959C24.3251 2.11831 24.3323 2.06042 24.3843 1.947C24.3995 1.91387 24.476 1.82036 24.4859 1.82281C25.2357 2.0066 25.9461 2.36607 26.6447 2.68449C26.6695 2.67623 26.6944 2.66798 26.7192 2.65969C28.1483 3.27876 29.2546 4.62877 30.0625 5.90001C30.4609 6.52697 31.0056 7.06542 31.4573 7.65362C32.2149 8.72063 33.2592 10.3811 33.5265 11.6664C33.4959 11.8874 33.547 11.9386 33.4126 12.0956C33.2924 12.063 33.0329 11.7033 32.866 11.5885C32.5397 10.9288 32.5139 11.0347 31.9983 10.5928C31.917 10.2993 31.9192 9.6047 31.8061 9.36998C31.3711 8.42527 30.4672 7.64402 29.8829 6.7993C28.7487 5.15993 28.1636 4.12937 26.3198 3.15361Z" fill="#5E1302"/>
<path d="M15.3942 0.166486C17.3119 -0.245846 20.1615 0.163303 22.02 0.786262C22.6367 0.992964 23.2056 1.29195 23.8064 1.5115C24.6838 1.83214 25.9387 2.16189 26.7192 2.65969C26.6944 2.66798 26.6695 2.67623 26.6447 2.68449C25.9461 2.36607 25.2357 2.0066 24.4859 1.82281C24.476 1.82036 24.3995 1.91387 24.3843 1.947C24.3323 2.06042 24.3251 2.11831 24.2442 2.21959C24.5786 2.35752 26.2384 2.93702 26.3714 3.12547L26.3198 3.15361C25.0413 2.57248 23.7476 2.14242 22.4431 1.62536C20.301 0.77623 18.2394 0.476945 15.9449 0.73921C15.7889 0.699306 15.43 0.336727 15.3942 0.166486Z" fill="#631003"/>
<path d="M9.02661 31.1508C9.62197 31.417 10.3031 31.7643 10.9783 31.8012C11.4339 31.826 12.2078 31.4685 12.6373 31.5416C13.0161 31.606 13.2789 32.1237 13.7521 32.2094C13.5567 32.2126 13.2361 32.0186 13.0795 31.9098C12.8637 32.0725 12.6824 32.1077 12.6017 32.1781L12.6164 32.2351C13.4386 32.5033 14.1926 32.808 15.0398 33.0045C16.1845 33.2703 17.2499 33.2932 18.4098 33.0948C18.6666 33.0512 18.9748 33.0604 19.2329 33.0034C19.5732 32.892 19.8573 32.7465 20.2141 32.6817C22.16 32.3994 24.0334 32.2364 25.6965 31.0783C25.9524 30.9323 26.4442 30.8627 26.6769 30.7092C27.5452 30.1366 28.5792 29.4602 29.3793 28.8206C29.8706 28.4274 30.4247 27.6512 30.8693 27.1834C31.2714 26.7602 31.6186 25.9529 32.0682 25.559C32.076 25.5556 32.0835 25.5523 32.0909 25.5489C31.4895 26.6751 30.5195 27.7696 29.6328 28.6825C29.1616 29.1676 28.435 29.625 27.8855 30.086C26.9897 30.7915 26.7444 30.8294 25.734 31.2508C25.1514 31.4937 24.5519 31.9644 23.8563 32.1994C22.9661 32.5003 22.1482 32.5222 21.2288 32.6795C20.8535 32.7439 20.5505 32.8361 20.1881 32.9242C19.4403 33.0323 18.8246 33.2481 18.0507 33.3366C17.8961 33.344 17.7303 33.3465 17.5789 33.3602C15.9451 33.5076 14.1978 33.0737 12.7101 32.4251C12.188 32.1975 11.8683 31.9675 11.2468 31.967C10.7197 31.9458 9.32354 31.5899 9.02661 31.1508Z" fill="#D37F2B"/>
<path d="M4.93904 13.3492C5.51655 13.9081 5.93739 14.2215 5.91025 15.0822C5.85294 16.9009 4.15854 17.2056 2.74259 16.7998C3.94995 16.4776 5.07479 14.894 4.97992 13.639C4.97302 13.5476 4.95349 13.44 4.93904 13.3492Z" fill="#B36D33"/>
<path d="M10.5628 3.26073L10.5994 3.23542C10.6393 3.2075 10.6499 3.19914 10.6842 3.16271C10.8181 3.1455 10.8073 3.12584 10.9118 3.17156C10.9035 3.34502 10.7901 3.44971 10.6768 3.59492C10.304 3.93189 9.98581 4.10568 9.53285 4.30476C9.3374 4.41189 8.98943 4.53016 8.81709 4.66005C7.60103 5.57674 6.32546 6.46533 5.38087 7.67305C5.12247 8.00346 4.91668 8.18351 4.53675 8.36286C4.84253 7.70988 6.08409 6.264 6.64752 5.75586C7.39483 5.08193 8.64494 4.50073 9.50784 3.94588C9.84718 3.72767 10.2147 3.46055 10.5628 3.26073Z" fill="#F7F6F2"/>
<path d="M32.866 11.5885C33.0329 11.7033 33.2924 12.063 33.4126 12.0956C33.547 11.9386 33.4959 11.8874 33.5265 11.6664C33.6605 12.2348 33.9719 12.5034 34.1485 13.0169C34.4293 13.8322 34.5484 14.7474 34.7167 15.5962L34.669 15.7427C34.3303 15.8769 34.2482 16.1109 34.2284 16.4297C34.1511 16.1543 34.0981 15.5959 34.0163 15.2616C33.7106 14.0096 33.4029 12.7632 32.866 11.5885Z" fill="#631003"/>
<path d="M15.8028 0.900796C15.9453 0.903276 15.9701 0.880992 16.0791 0.9494C15.9614 1.19875 13.653 1.47397 13.2089 1.73175C12.7568 1.88882 12.3124 2.09662 11.8599 2.26442L11.7824 2.22292C11.8352 2.19731 11.8659 2.18517 11.92 2.16336L11.9249 2.04498C12.2189 1.79194 12.8789 1.58997 13.2594 1.4559C13.6354 1.26918 15.3012 0.972387 15.8028 0.900796Z" fill="#F8E6C8"/>
<path d="M15.8028 0.900796C16.0982 0.838608 17.0266 0.731589 17.2801 0.817172C17.3207 0.855299 17.3093 0.832238 17.316 0.885468C17.1365 1.1246 16.2644 1.09854 15.9773 1.14481C15.4701 1.22651 14.973 1.34603 14.4729 1.46186C14.2304 1.51498 13.369 1.75178 13.2089 1.73175C13.653 1.47397 15.9614 1.19875 16.0791 0.9494C15.9701 0.880992 15.9453 0.903276 15.8028 0.900796Z" fill="#F4BD70"/>
<path d="M10.0986 3.04556L10.1239 3.09605C9.83216 3.41566 9.34034 3.88374 8.84366 3.77265L8.86692 3.70957C9.15747 3.47255 9.7476 3.19666 10.0986 3.04556Z" fill="#FCE2B6"/>
<path d="M10.3658 2.76485C10.466 2.82245 10.5284 2.84148 10.5166 2.98081C10.7225 3.09893 11.0356 3.02853 11.1148 3.2349C11.0407 3.37971 10.821 3.49938 10.6768 3.59492C10.7901 3.44971 10.9035 3.34502 10.9118 3.17156C10.8073 3.12584 10.8181 3.1455 10.6842 3.16271C10.6499 3.19914 10.6393 3.2075 10.5994 3.23542L10.5628 3.26073C10.5007 3.22857 10.2222 3.13584 10.1239 3.09605L10.0986 3.04556C10.1335 2.94387 10.2766 2.84214 10.3658 2.76485Z" fill="#FCE2B6"/>
<path d="M19.6606 16.8747C20.2323 16.848 20.9412 16.8838 21.1013 17.5314C21.5163 19.2105 20.2308 20.84 18.746 21.3432C17.8632 21.6353 16.8995 21.5669 16.0677 21.1531C14.9269 20.63 14.2286 19.6801 14.0693 18.4466C13.8909 17.0648 15.6158 17.1712 16.5698 17.0898C17.5981 16.9922 18.6287 16.9204 19.6606 16.8747Z" fill="#5E1302"/>
<path d="M17.5637 18.9072C17.6129 18.9019 17.6621 18.8983 17.7115 18.8962C18.5737 18.8602 19.4454 19.0353 20.0987 19.6243C19.5082 20.4747 18.9464 20.6905 17.996 20.9455C17.9592 20.9489 17.9224 20.9516 17.8855 20.9536C16.7845 21.0126 16.1918 20.6739 15.4147 19.9813C16.0596 19.3013 16.6175 19.0131 17.5637 18.9072Z" fill="#ED6D49"/>
<path d="M19.035 2.46639C19.9288 2.43963 20.2706 2.60402 20.9698 3.17153C21.8788 3.90946 22.2317 5.1707 21.3965 6.10797C20.9521 6.60663 20.3134 6.69454 19.6667 6.72971C18.5031 6.71198 17.1054 6.08498 16.8159 4.84181C16.5524 3.70975 18.0237 2.64063 19.035 2.46639Z" fill="#A3541D"/>
<path d="M23.2327 12.058C24.4677 11.8704 25.6214 12.7133 25.8066 13.9384C25.9918 15.1634 25.1379 16.3045 23.9017 16.4841C22.6712 16.6629 21.5267 15.821 21.3424 14.6016C21.1581 13.3822 22.0034 12.2447 23.2327 12.058Z" fill="#5E1302"/>
<path d="M22.8917 12.8351C23.7429 12.9657 23.788 14.0116 22.9212 14.2878C22.5726 14.245 22.3204 14.0728 22.2337 13.7221C22.1845 13.5299 22.2175 13.326 22.3249 13.1586C22.467 12.9393 22.653 12.8812 22.8917 12.8351Z" fill="#F7F6F2"/>
<path d="M24.4401 14.7359C24.5645 14.6785 24.7104 14.6923 24.8216 14.7721C24.9328 14.8518 24.9917 14.9849 24.9757 15.1201C24.9596 15.2552 24.8711 15.3711 24.7442 15.423C24.554 15.5008 24.3359 15.4138 24.2532 15.227C24.1705 15.0401 24.2535 14.822 24.4401 14.7359Z" fill="#F7F6F2"/>
<path d="M11.3002 12.5031C14.1448 12.3495 14.6112 16.4616 11.8428 17.0098C10.4264 17.0678 9.58015 16.4797 9.36764 15.0314C9.18368 13.7774 9.99394 12.6233 11.3002 12.5031Z" fill="#5E1302"/>
<path d="M10.6003 13.4194C10.959 13.308 11.3412 13.5034 11.4577 13.8577C11.5742 14.212 11.3816 14.5932 11.0257 14.7128C10.7917 14.7915 10.5332 14.7393 10.3488 14.5763C10.1644 14.4134 10.0827 14.1647 10.1347 13.9253C10.1867 13.6858 10.3646 13.4926 10.6003 13.4194Z" fill="#F7F6F2"/>
<path d="M12.4131 15.2454C12.5466 15.2148 12.6861 15.259 12.7771 15.3605C12.868 15.4619 12.8958 15.6045 12.8496 15.7323C12.8034 15.8601 12.6905 15.9526 12.5552 15.9737C12.3561 16.0046 12.168 15.8737 12.1297 15.6775C12.0915 15.4813 12.2168 15.2903 12.4131 15.2454Z" fill="#F7F6F2"/>
<path d="M26.2808 21.386C27.6028 21.2681 28.3353 21.9851 28.5959 23.2444C28.6934 23.7154 28.3988 24.3643 28.1214 24.7368C27.729 25.2644 27.2699 25.4678 26.6284 25.5595C26.1056 25.5028 25.6352 25.4635 25.179 25.1598C24.7298 24.8529 24.3277 24.1953 24.2497 23.658C24.0595 22.3474 25.1476 21.5799 26.2808 21.386Z" fill="#984819"/>
<path d="M9.52131 24.916C9.0243 25.5067 8.12414 25.7011 7.37111 25.5453C6.68037 25.3774 6.16629 24.7447 5.96468 24.093C5.94366 24.025 6.04223 23.7944 6.05903 23.7178C6.10458 23.5101 6.13732 23.301 6.18448 23.0937C6.41495 22.0802 7.5862 21.6221 8.53031 21.8814C9.12757 22.0454 9.41879 22.3334 9.71191 22.8533C10.2799 23.3966 10.1409 24.462 9.52131 24.916Z" fill="#B36D33"/>
<path d="M9.71191 22.8533C10.2799 23.3966 10.1409 24.462 9.52131 24.916C9.57578 24.8169 9.62925 24.7172 9.6816 24.6169C10.0214 23.9654 9.92569 23.5218 9.71191 22.8533Z" fill="#F4BD70"/>
<path d="M10.3726 6.09449C10.8118 6.03952 11.3931 6.07599 11.7694 6.3284C12.1386 6.57738 12.3915 6.96291 12.4713 7.39849C12.6987 8.71141 11.8516 9.47159 10.626 9.681C9.72083 9.80356 8.73677 9.71261 8.53315 8.63712C8.29308 7.36936 9.10173 6.30764 10.3726 6.09449Z" fill="#984819"/>
<path d="M17.7877 27.0978C18.0697 26.3417 18.6939 25.958 19.4826 25.851C20.0008 25.7807 20.2713 25.8451 20.6687 26.1467C21.17 26.554 21.113 26.9368 21.109 27.5526C21.1296 28.3779 20.2664 29.1401 19.452 28.8207C19.2074 28.7248 18.9798 28.4415 18.7611 28.3003C18.3905 28.0611 18.0959 27.9884 17.7875 27.6538C17.7762 27.4771 17.7552 27.2699 17.7877 27.0978Z" fill="#984819"/>
<path d="M20.6687 26.1467C21.17 26.554 21.113 26.9368 21.109 27.5526C21.1296 28.3779 20.2664 29.1401 19.452 28.8207C19.2074 28.7248 18.9798 28.4415 18.7611 28.3003C18.3905 28.0611 18.0959 27.9884 17.7875 27.6538C17.7762 27.4771 17.7552 27.2699 17.7877 27.0978C17.8743 27.8503 18.2126 27.7842 18.7607 28.1445C18.996 28.2995 19.2243 28.5896 19.4939 28.6823C20.732 29.1082 21.0413 27.9268 20.9276 26.9633C20.8832 26.5864 20.8225 26.4712 20.6687 26.1467Z" fill="#D37F2B"/>
<path d="M24.7828 6.42624C24.9308 6.4087 25.1344 6.41773 25.2883 6.42043C25.9317 6.84942 26.4947 7.62437 26.5166 8.40276C26.5379 9.15861 25.8564 9.69088 25.1388 9.67337C24.2862 9.45105 22.7859 8.4621 23.445 7.44362C23.722 7.01563 24.2721 6.53985 24.7828 6.42624Z" fill="#AA5921"/>
<path d="M2.55337 10.3175C2.85736 9.63503 4.44539 6.88 5.04888 6.68466L5.10586 6.72605C5.14219 7.15182 4.3046 7.86599 4.19494 8.23497C4.06774 8.66307 3.97022 9.09895 3.83719 9.53086C3.76133 9.68082 3.73433 9.76888 3.59003 9.8334L3.51794 9.7939C3.43207 9.66534 3.42553 9.51376 3.40332 9.35907L3.35194 9.38339L3.34582 9.41374C3.06763 9.67286 2.8605 10.288 2.62924 10.3614L2.55337 10.3175Z" fill="#FCE2B6"/>
<path d="M30.6162 10.9558C31.124 10.9535 31.5559 11.7877 31.774 12.1927C32.0738 12.7488 32.2899 13.6159 32.1025 14.242C32.0782 14.3227 31.9629 14.546 31.8875 14.5838L31.9106 14.465C32.3108 14.0158 32.0857 13.1869 31.9319 12.6695C31.8852 12.5121 31.5791 11.8465 31.4398 11.7798C31.3655 11.8256 31.3588 11.8335 31.2725 11.8605C31.0773 11.7488 30.7323 11.3723 30.5908 11.1724C30.549 11.1135 30.5934 11.029 30.6162 10.9558Z" fill="#FCE2B6"/>
<path d="M18.4688 30.3083C18.6068 30.3389 18.6583 30.3362 18.7503 30.4406C18.8016 30.5661 18.7892 30.5902 18.7728 30.7306C18.5222 30.6826 18.4449 30.555 18.4688 30.3083Z" fill="#F4BD70"/>
</svg>
