<svg width="35" height="34" viewBox="0 0 35 34" fill="none" xmlns="http://www.w3.org/2000/svg">
<path d="M15.968 0.198933C16.1985 0.139834 17.1618 0.118752 17.4314 0.0981137C18.361 0.0269312 19.3181 0.046857 20.2434 0.0258949C21.3142 0.00163921 22.095 -0.0351281 23.1636 0.0755072L23.1317 0.0950643C22.9802 0.18698 22.8999 0.21423 22.7329 0.272921C22.8874 0.261675 23.1185 0.277948 23.2597 0.34353C24.0683 0.691869 24.4084 1.07783 24.6264 1.92764C24.6805 2.69801 24.7849 4.01326 24.5051 4.73011C24.6751 4.73639 24.8044 4.74053 24.9739 4.72986C24.6067 5.48165 24.3797 5.58942 24.6978 6.44714C24.9255 7.06086 25.2302 7.65285 25.4613 8.25217C26.5858 11.168 27.1833 14.1578 27.5821 17.2455C27.6061 17.4318 27.6754 18.4887 27.7157 18.5537C27.6897 18.6514 27.6009 18.9308 27.6231 19.0107L27.6634 19.0299L27.7202 19.0161L27.9759 18.5512L28.0322 18.9251C28.1004 18.8063 28.1183 18.79 28.215 18.6978L28.3359 18.7031L28.3455 18.6539L28.4565 18.6378L28.465 18.5725C28.545 18.3284 28.4991 17.7836 28.4766 17.521L28.4951 17.3941C28.6048 17.0785 29.1192 15.6574 29.5222 15.7656L29.5587 15.9173C29.6252 15.9791 29.6622 16.0257 29.7492 16.0508C29.9968 15.9652 30.1574 15.3839 30.2373 15.1494C30.3038 14.913 30.6256 14.3741 30.9146 14.4419L30.969 14.5775L31.0195 14.8324C31.3713 14.4416 32.3765 13.004 32.659 12.7866C33.1242 12.6393 33.3113 12.8101 33.4502 13.2869C33.6651 14.0248 33.6403 14.782 33.5294 15.5357C33.4563 15.9502 33.3333 16.3859 33.2697 16.7695C33.7455 16.6201 33.83 16.6 34.3173 16.5155C34.2773 17.2934 34.2108 17.9111 33.7144 18.5489C33.5883 18.7109 33.4207 18.8738 33.3746 19.0656C33.5221 19.2164 34.1433 19.1145 34.375 19.0937C34.2052 19.4748 33.7726 20.3428 33.4373 20.5848C33.3042 20.8147 33.2937 20.9871 33.2541 21.2479C33.1742 21.6499 32.5332 22.5221 32.1865 22.6989C32.0945 22.8097 31.9681 22.93 31.966 23.0678C32.0791 23.1701 32.0319 23.142 32.1968 23.1607L32.308 23.1921C32.2266 23.8103 30.1371 25.3889 29.526 25.5275C29.3339 25.6824 29.2811 25.7865 29.154 25.9929C29.0261 26.1436 28.7986 26.098 28.6417 26.2203C28.6362 26.2271 28.6306 26.2339 28.625 26.2406C28.5709 26.305 28.5231 26.3468 28.4503 26.3889C28.5441 26.4038 28.6098 26.3277 28.7037 26.4053C29.0309 26.3021 29.371 26.278 29.7106 26.2441C29.7261 26.2199 29.7414 26.1945 29.7615 26.1736C29.9484 25.9793 30.4937 26.0552 30.7589 26.0615C30.8058 26.0743 30.9364 26.0937 30.9586 26.132C31.0502 26.2902 31.0412 26.5433 31.0564 26.724C31.1761 26.7769 31.3318 26.8262 31.4162 26.9284C31.7489 27.1447 32.2143 27.3835 32.3092 27.8001C32.352 27.9886 32.2918 28.173 32.1855 28.3295C31.9329 28.7011 31.3731 29.1328 30.9664 29.3108C30.8799 29.3422 30.7859 29.3867 30.6955 29.4025L30.5107 29.8929C30.2816 30.2824 29.7839 30.5088 29.3633 30.618C29.1645 30.6697 28.96 30.7013 28.7571 30.7326C28.6488 30.8396 28.506 30.9536 28.4369 31.0899C27.9837 31.473 26.9855 31.6441 26.4072 31.5883C26.3871 31.5863 26.3671 31.5827 26.3471 31.5796C26.2981 31.4955 26.0221 31.4143 25.9223 31.3718L26.1553 31.3376L26.1931 31.2416C25.3539 31.1417 24.8283 30.6317 24.1296 30.2204C23.777 30.0128 23.3953 29.8497 23.0226 29.6813L22.8816 29.7043C22.5511 29.6738 21.4989 30.1788 21.1694 30.3332C20.752 30.5319 19.6176 30.9814 19.3243 31.2783L19.2216 31.6292C18.9522 31.8093 18.679 31.9854 18.4264 32.1886C18.6094 32.2069 18.8136 32.2095 18.9899 32.2613C18.745 32.2656 18.501 32.2621 18.2606 32.3146C18.3431 32.404 18.4776 32.4423 18.5893 32.4874L18.491 32.5279C17.7187 32.5063 17.2425 33.1686 16.4804 33.2292L16.4158 33.0467C16.7422 33.015 17.1582 32.6369 17.4229 32.4418C17.4201 32.4372 17.4174 32.4324 17.4145 32.428C17.3249 32.291 17.2753 32.265 17.1188 32.2282L16.8495 32.4412L16.8178 32.4032L16.8916 32.0214C17.5759 31.5988 18.1771 31.0909 18.8944 30.7023L18.9539 30.5868C18.9728 30.3909 18.9742 30.2186 18.9532 30.0223C17.9788 29.9685 16.9331 30.1712 15.9578 30.2662C14.5227 30.4061 13.0637 30.5104 11.6225 30.5503C10.3335 30.6568 9.04637 30.7855 7.76181 30.9362C7.29533 30.968 6.85445 30.9656 6.39082 30.8969C6.04638 30.8446 5.6615 30.7867 5.33819 30.6574C4.69528 30.4004 4.13568 29.9612 3.5327 29.6255C2.86103 29.2516 2.1534 28.9422 1.48394 28.5666C0.970021 28.2782 0.278169 27.7856 0.109351 27.1894C-0.141571 26.6121 0.112858 25.4634 0.149276 24.8033C0.193359 24.0035 0.189903 23.1645 0.254274 22.3702C0.350956 21.1773 0.214048 19.7751 0.39063 18.6058C0.394939 18.1275 0.515716 17.3056 0.590356 16.8126C0.595366 16.3743 0.750358 15.605 0.822393 15.1428C1.10683 13.3181 1.5164 11.577 2.03397 9.80861C2.21381 9.19429 2.87656 7.3648 2.91433 6.87157C3.02604 5.41144 1.88049 3.78978 2.33609 2.06071C2.46939 1.55474 2.67002 1.35258 3.11346 1.09243C3.37099 0.956041 3.79654 0.899901 4.08574 0.887574C5.91233 0.8097 7.87832 0.886587 9.66704 0.475103C10.6707 0.321323 11.1804 0.525244 12.0467 0.48746C13.0429 0.444011 14.3645 0.388484 15.3408 0.290714C15.545 0.265377 15.763 0.229268 15.968 0.198933Z" fill="#E1B272"/>
<path d="M15.968 0.198933C16.1985 0.139834 17.1618 0.118752 17.4314 0.0981137C18.361 0.0269312 19.3181 0.046857 20.2434 0.0258949C21.3142 0.00163921 22.095 -0.0351281 23.1636 0.0755072L23.1317 0.0950643C22.9802 0.18698 22.8999 0.21423 22.7329 0.272921C22.8874 0.261675 23.1185 0.277948 23.2597 0.34353C24.0683 0.691869 24.4084 1.07783 24.6264 1.92764L24.5233 2.06052C24.409 2.06957 24.3671 2.02358 24.2703 1.9573C23.9576 1.913 23.8166 2.29365 23.5614 2.32735C23.5401 2.2109 23.53 2.12879 23.5193 2.01127C23.4835 2.25326 23.51 2.56966 23.3994 2.74836C23.4367 3.34762 23.2762 4.17599 22.5687 4.23364C22.4553 4.24286 22.3927 4.21809 22.3013 4.13623C22.0121 4.21999 21.4723 4.49648 21.1559 4.40081L16.2214 5.12743C15.5506 5.23257 14.5929 5.47547 13.9387 5.5251C12.3741 5.64384 10.712 5.50601 9.13748 5.57119C7.78624 5.62714 6.5466 5.90513 5.18228 6.01475L5.17026 5.77458C5.31524 5.88226 5.35566 5.87987 5.50855 5.8706C5.96215 5.48693 5.68859 3.49645 5.58569 2.91687C5.56791 2.8168 5.19005 2.33675 5.09833 2.21377C5.84704 2.18731 6.69358 2.01605 7.44369 1.90211L11.1769 1.35891C11.4941 1.31447 11.9446 1.36311 12.2761 1.35826C12.8307 1.35015 13.1661 1.11299 13.6288 0.886577C14.6665 0.804876 16.2964 0.603332 17.3378 0.467141C16.6592 0.28468 15.7561 0.424484 15.3408 0.290714C15.545 0.265377 15.763 0.229268 15.968 0.198933Z" fill="#F1C887"/>
<path d="M15.968 0.198933C16.1985 0.139834 17.1618 0.118752 17.4314 0.0981137C18.361 0.0269312 19.3181 0.046857 20.2434 0.0258949C21.3142 0.00163921 22.095 -0.0351281 23.1636 0.0755072L23.1317 0.0950643C22.9802 0.18698 22.8999 0.21423 22.7329 0.272921C22.8874 0.261675 23.1185 0.277948 23.2597 0.34353C21.7513 0.613935 20.9617 0.438784 19.4437 0.400677C18.7434 0.383098 17.9533 0.484585 17.3378 0.467141C16.6592 0.28468 15.7561 0.424484 15.3408 0.290714C15.545 0.265377 15.763 0.229268 15.968 0.198933Z" fill="#7E461D"/>
<path d="M22.8087 3.09011C22.9467 2.47461 22.8293 1.97595 22.9226 1.47182L22.9877 1.44647L23.0761 1.54576C23.1143 1.73593 23.1272 1.67284 23.0624 1.84454C23.0511 1.70761 23.0453 1.65868 23.0103 1.52511L22.9429 1.57574C22.8566 2.1862 23.004 2.38815 23.0963 2.98198C23.1101 3.07053 23.0866 3.46187 23.0852 3.59231C23.2595 3.5253 23.244 2.9789 23.3994 2.74836C23.4367 3.34762 23.2762 4.17599 22.5687 4.23364C22.4553 4.24286 22.3927 4.21809 22.3013 4.13623C22.0121 4.21999 21.4723 4.49648 21.1559 4.40081C21.2015 4.35352 21.4658 4.31435 21.5427 4.29173C21.6481 4.26069 21.7971 3.8545 21.872 3.70771C22.0461 3.59426 21.9751 3.62031 22.2191 3.65275C22.4671 3.55918 22.6342 3.30167 22.8087 3.09011Z" fill="#F3BC6A"/>
<path d="M16.3235 0.732749C16.5604 0.802965 16.3623 1.07689 16.4849 1.2977C16.6412 1.42773 16.8798 1.43088 17.0752 1.45746C16.7979 1.79813 16.8038 2.02248 16.7768 2.44033L16.71 2.47177C16.5606 2.3149 16.4932 1.98282 16.4257 1.77486C16.356 1.9609 16.3948 2.27845 16.396 2.48119C15.1023 2.48589 13.8461 2.15369 12.5492 2.14913C11.5616 2.14566 10.466 2.50545 9.48825 2.67175C8.56561 2.82866 7.62068 2.89376 6.70536 3.08663C6.51725 3.12629 6.34092 3.17388 6.18413 3.28982L6.14105 3.2813C5.93366 3.00671 5.64236 2.72542 5.47093 2.43321L5.5592 2.43575C5.81458 2.63379 5.95359 2.95349 6.17406 3.18997C7.11012 2.85056 8.00405 2.86087 8.97353 2.69519C10.2863 2.47086 11.6266 2.01038 12.9661 2.07432C13.8516 2.11659 15.4869 2.50719 16.2358 2.39364C16.239 2.38921 16.2423 2.38492 16.2452 2.38036C16.3641 2.19473 16.377 0.975629 16.3235 0.732749Z" fill="#F5D19B"/>
<path d="M6.42661 4.96241C6.43147 4.69793 6.34391 4.40624 6.44054 4.19921L6.52735 4.21725C6.78699 4.43743 6.68635 4.46987 6.85131 4.73196L6.86694 4.75642C6.97479 4.89753 6.91733 4.97696 6.9801 5.10835C6.82291 5.54025 6.70333 5.66028 6.18706 5.65136C6.11878 5.59287 6.13822 5.60428 6.10265 5.50926C6.14253 5.29425 6.29106 5.1376 6.42661 4.96241Z" fill="#F3BC6A"/>
<path d="M6.42661 4.96241C6.70464 5.18748 6.45151 5.52969 6.18706 5.65136C6.11878 5.59287 6.13822 5.60428 6.10265 5.50926C6.14253 5.29425 6.29106 5.1376 6.42661 4.96241Z" fill="#E7AF60"/>
<path d="M7.25285 4.90161C7.17941 4.71655 7.16664 4.75826 7.19058 4.58117L7.26362 4.54559C7.43935 4.65476 7.39316 4.63872 7.50627 4.85029L7.53914 4.90704L7.60987 4.9189L7.73666 4.70479L7.77067 4.62841C7.95307 4.68596 7.96574 4.81122 7.96739 4.98576C7.91324 5.08955 7.9447 5.05632 7.85097 5.1184L7.74543 5.13689L7.69979 5.24332L7.61688 5.25398C7.5481 5.16748 7.56904 5.16355 7.48649 5.1476C7.26592 5.47795 7.47532 5.44437 7.34758 5.53545L7.39351 5.47028C7.22174 5.55369 7.29483 5.54422 7.10237 5.50057C7.03734 5.36151 7.06474 5.38363 7.11078 5.19783C7.18061 5.11008 7.10036 5.07899 7.25285 4.90161Z" fill="#F3BC6A"/>
<path d="M7.73666 4.70479L7.77067 4.62841C7.95307 4.68596 7.96574 4.81122 7.96739 4.98576C7.91324 5.08955 7.9447 5.05632 7.85097 5.1184L7.74543 5.13689C7.68827 5.14232 7.69108 5.13794 7.64073 5.10834C7.6759 4.97455 7.70785 4.84002 7.73666 4.70479Z" fill="#E7AF60"/>
<path d="M7.25285 4.90161C7.17941 4.71655 7.16664 4.75826 7.19058 4.58117L7.26362 4.54559C7.43935 4.65476 7.39316 4.63872 7.50627 4.85029L7.4066 4.95517C7.3554 4.94057 7.29793 4.92811 7.25285 4.90161Z" fill="#E7AF60"/>
<path d="M15.9181 1.55266C16.0689 1.66752 16.0982 1.70582 16.1517 1.89584C16.188 2.02459 16.1824 2.12717 16.1176 2.24094L15.9891 2.26891C15.8987 2.24146 15.7906 2.21675 15.7091 2.16928C15.6162 2.11513 15.6078 2.07586 15.5792 1.97694C15.6252 1.79949 15.7894 1.67549 15.9181 1.55266Z" fill="#F5D19B"/>
<path d="M7.88521 4.20957C7.93901 4.20633 7.99231 4.20603 8.04587 4.21325C8.40554 4.26154 8.92462 4.57305 9.14443 4.861L9.12405 5.0059C8.78431 4.81571 8.45008 4.62617 8.10177 4.45173C7.96757 4.38451 7.93235 4.35058 7.88521 4.20957Z" fill="#F3BC6A"/>
<path d="M17.3937 1.14626C17.4327 1.1647 17.4626 1.18404 17.4957 1.21198C17.6876 1.37404 17.953 1.7557 17.9656 1.99687C17.9095 2.01249 17.8683 2.0382 17.814 2.00409C17.5927 1.86532 17.4468 1.38788 17.3937 1.14626Z" fill="#F5D19B"/>
<path d="M17.2884 1.7282C17.4029 1.77776 17.405 1.7785 17.4577 1.89092C17.4625 2.04261 17.4009 2.16118 17.3396 2.29677C17.2704 2.24892 17.2389 2.17857 17.1987 2.10714C17.1762 1.95632 17.2242 1.86222 17.2884 1.7282Z" fill="#F5D19B"/>
<path d="M25.6908 25.2519C25.6724 25.2256 25.6549 25.1989 25.6379 25.1716C24.8649 23.9243 25.159 22.5018 25.9489 21.3351C26.0841 21.1355 26.2503 20.7165 26.4466 20.5987C26.6787 20.7057 26.8248 21.3651 26.9362 21.6577L26.7863 21.8417C26.8983 22.1407 27.1369 22.7366 27.144 23.0375C27.2999 23.6221 27.1303 24.4641 26.8881 24.9982C26.793 25.1746 26.51 25.5943 26.5001 25.7342C26.6415 25.7298 26.8284 25.587 26.9011 25.4715C27.2989 25.4341 28.4471 25.3137 28.7804 25.4998C28.8865 25.4706 28.9871 25.4582 29.0957 25.4419L29.2944 25.5634L29.526 25.5275C29.3339 25.6824 29.2811 25.7865 29.154 25.9929C29.0261 26.1436 28.7986 26.098 28.6417 26.2203C28.6362 26.2271 28.6306 26.2339 28.625 26.2406C28.5709 26.305 28.5231 26.3468 28.4503 26.3889C28.5441 26.4038 28.6098 26.3277 28.7037 26.4053C29.0309 26.3021 29.371 26.278 29.7106 26.2441C29.7261 26.2199 29.7414 26.1945 29.7615 26.1736C29.9484 25.9793 30.4937 26.0552 30.7589 26.0615C30.8058 26.0743 30.9364 26.0937 30.9586 26.132C31.0502 26.2902 31.0412 26.5433 31.0564 26.724C31.1761 26.7769 31.3318 26.8262 31.4162 26.9284C31.7489 27.1447 32.2143 27.3835 32.3092 27.8001C32.352 27.9886 32.2918 28.173 32.1855 28.3295C31.9329 28.7011 31.3731 29.1328 30.9664 29.3108C30.8799 29.3422 30.7859 29.3867 30.6955 29.4025L30.5107 29.8929C30.2816 30.2824 29.7839 30.5088 29.3633 30.618C29.1645 30.6697 28.96 30.7013 28.7571 30.7326C28.6488 30.8396 28.506 30.9536 28.4369 31.0899C27.9837 31.473 26.9855 31.6441 26.4072 31.5883C26.3871 31.5863 26.3671 31.5827 26.3471 31.5796C26.2981 31.4955 26.0221 31.4143 25.9223 31.3718L26.1553 31.3376L26.1931 31.2416C25.3539 31.1417 24.8283 30.6317 24.1296 30.2204C23.777 30.0128 23.3953 29.8497 23.0226 29.6813L22.8816 29.7043C22.5511 29.6738 21.4989 30.1788 21.1694 30.3332C20.752 30.5319 19.6176 30.9814 19.3243 31.2783L19.2216 31.6292C18.9522 31.8093 18.679 31.9854 18.4264 32.1886C18.6094 32.2069 18.8136 32.2095 18.9899 32.2613C18.745 32.2656 18.501 32.2621 18.2606 32.3146C18.3431 32.404 18.4776 32.4423 18.5893 32.4874L18.491 32.5279C17.7187 32.5063 17.2425 33.1686 16.4804 33.2292L16.4158 33.0467C16.7422 33.015 17.1582 32.6369 17.4229 32.4418C17.4201 32.4372 17.4174 32.4324 17.4145 32.428C17.3249 32.291 17.2753 32.265 17.1188 32.2282L16.8495 32.4412L16.8178 32.4032L16.8916 32.0214C17.5759 31.5988 18.1771 31.0909 18.8944 30.7023L18.9539 30.5868C18.9728 30.3909 18.9742 30.2186 18.9532 30.0223C18.9918 29.914 19.0081 29.7991 19.0289 29.6863L19.1411 29.6343C19.2122 29.4527 19.2041 29.2233 19.2625 29.0314C19.4902 28.283 20.0346 27.5671 20.7299 27.1925C20.9215 27.03 21.1178 26.8803 21.3226 26.7345L21.3985 26.6549C21.5073 26.7254 21.5028 26.8187 21.536 26.9408C21.6909 26.823 21.6747 26.6833 21.8634 26.5212C21.7655 26.7098 21.6465 26.8945 21.651 27.113L21.6847 27.1983C21.8633 27.0828 21.9089 26.847 22.0708 26.7178C22.342 26.4124 23.6868 25.4567 24.0589 25.6503C24.0772 25.7979 23.9102 26.3269 23.861 26.503C24.5143 25.7761 24.7663 25.5761 25.6908 25.2519Z" fill="#763D15"/>
<path d="M30.7589 26.0615C30.8058 26.0743 30.9364 26.0937 30.9586 26.132C31.0502 26.2902 31.0412 26.5433 31.0564 26.724C31.1761 26.7769 31.3318 26.8262 31.4162 26.9284C31.7489 27.1447 32.2143 27.3835 32.3092 27.8001C32.352 27.9886 32.2918 28.173 32.1855 28.3295C31.9329 28.7011 31.3731 29.1328 30.9664 29.3108C30.8799 29.3422 30.7859 29.3867 30.6955 29.4025L30.5107 29.8929C30.2816 30.2824 29.7839 30.5088 29.3633 30.618C29.1645 30.6697 28.96 30.7013 28.7571 30.7326C28.6488 30.8396 28.506 30.9536 28.4369 31.0899C27.9837 31.473 26.9855 31.6441 26.4072 31.5883C26.3871 31.5863 26.3671 31.5827 26.3471 31.5796C26.2981 31.4955 26.0221 31.4143 25.9223 31.3718L26.1553 31.3376L26.1931 31.2416C25.3539 31.1417 24.8283 30.6317 24.1296 30.2204C23.777 30.0128 23.3953 29.8497 23.0226 29.6813C23.1709 29.5269 23.4017 29.3714 23.6151 29.3371C23.794 29.3262 23.9716 29.264 24.1435 29.2155C23.8956 29.1996 23.7397 29.3115 23.5177 29.269L23.5228 29.2484C24.0139 29.0001 24.6969 28.8992 25.2429 28.8924C25.2205 28.8888 25.1981 28.8848 25.1757 28.8804C25.031 28.8529 24.9571 28.825 24.8735 28.7028C24.8861 28.6768 24.899 28.6544 24.9212 28.6351C25.4173 28.2048 26.5871 28.1514 27.2148 28.2209L26.9913 28.069L27.0513 28.0184L27.0427 27.9634C27.079 27.8476 27.2448 27.7477 27.3409 27.6683C27.5339 27.4398 27.7337 27.2195 27.938 27.001C28.1709 26.7372 28.4086 26.5887 28.7037 26.4053C29.0309 26.3021 29.371 26.278 29.7106 26.2441C29.7261 26.2199 29.7414 26.1945 29.7615 26.1736C29.9484 25.9793 30.4937 26.0552 30.7589 26.0615Z" fill="#6A3311"/>
<path d="M30.7589 26.0615C30.8058 26.0743 30.9364 26.0937 30.9586 26.132C31.0502 26.2902 31.0412 26.5433 31.0564 26.724C31.1761 26.7769 31.3318 26.8262 31.4162 26.9284C31.7489 27.1447 32.2143 27.3835 32.3092 27.8001C32.352 27.9886 32.2918 28.173 32.1855 28.3295C31.9329 28.7011 31.3731 29.1328 30.9664 29.3108C30.7736 29.3178 30.5878 29.3293 30.398 29.2857L30.3914 29.2177L30.5611 29.1245C30.3663 29.1293 30.1354 29.1533 29.9446 29.1134C29.6308 29.0478 29.3272 28.8687 29.0446 28.7243C28.364 28.3765 27.815 28.1315 27.0513 28.0184L27.0427 27.9634C27.079 27.8476 27.2448 27.7477 27.3409 27.6683C27.5339 27.4398 27.7337 27.2195 27.938 27.001C28.1709 26.7372 28.4086 26.5887 28.7037 26.4053C29.0309 26.3021 29.371 26.278 29.7106 26.2441C29.7261 26.2199 29.7414 26.1945 29.7615 26.1736C29.9484 25.9793 30.4937 26.0552 30.7589 26.0615Z" fill="#D79D55"/>
<path d="M30.7589 26.0615C30.8058 26.0743 30.9364 26.0937 30.9586 26.132C31.0502 26.2902 31.0412 26.5433 31.0564 26.724C31.1761 26.7769 31.3318 26.8262 31.4162 26.9284L31.2294 27.0426C31.2655 27.115 31.3139 27.1649 31.3693 27.2228C31.0061 27.0783 30.7355 26.9627 30.3493 27.129C29.918 27.3148 29.5935 27.7202 29.188 27.9554C28.9322 28.0292 28.6625 28.127 28.397 28.1504L28.3658 28.0955C27.9226 28.1917 27.5071 27.9229 27.0427 27.9634C27.079 27.8476 27.2448 27.7477 27.3409 27.6683C27.5339 27.4398 27.7337 27.2195 27.938 27.001C28.1709 26.7372 28.4086 26.5887 28.7037 26.4053C29.0309 26.3021 29.371 26.278 29.7106 26.2441C29.7261 26.2199 29.7414 26.1945 29.7615 26.1736C29.9484 25.9793 30.4937 26.0552 30.7589 26.0615Z" fill="#D79D55"/>
<path d="M29.7106 26.2441L30.5021 26.2745L30.5771 26.3678C30.566 26.3878 30.5614 26.413 30.544 26.4279C30.4557 26.5033 30.1125 26.5739 29.9854 26.6316C29.5721 26.8194 29.1895 27.0586 28.7872 27.2664C28.6461 27.3393 28.4859 27.3754 28.3482 27.4466C28.2549 27.4129 28.1215 27.3771 28.0424 27.3183C27.9414 27.2432 27.9534 27.115 27.938 27.001C28.1709 26.7372 28.4086 26.5887 28.7037 26.4053C29.0309 26.3021 29.371 26.278 29.7106 26.2441Z" fill="#F1C887"/>
<path d="M30.7589 26.0615C30.8058 26.0743 30.9364 26.0937 30.9586 26.132C31.0502 26.2902 31.0412 26.5433 31.0564 26.724C31.1761 26.7769 31.3318 26.8262 31.4162 26.9284L31.2294 27.0426C31.2655 27.115 31.3139 27.1649 31.3693 27.2228C31.0061 27.0783 30.7355 26.9627 30.3493 27.129C29.918 27.3148 29.5935 27.7202 29.188 27.9554C28.9322 28.0292 28.6625 28.127 28.397 28.1504L28.3658 28.0955C29.0821 27.9342 30.1607 27.1201 30.5812 26.5145C30.6366 26.4347 30.6526 26.4096 30.6364 26.3147L30.5021 26.2745L29.7106 26.2441C29.7261 26.2199 29.7414 26.1945 29.7615 26.1736C29.9484 25.9793 30.4937 26.0552 30.7589 26.0615Z" fill="#602D0F"/>
<path d="M27.938 27.001C27.9534 27.115 27.9414 27.2432 28.0424 27.3183C28.1215 27.3771 28.2549 27.4129 28.3482 27.4466C28.0799 27.5418 27.7264 27.7444 27.4472 27.7496L27.3409 27.6683C27.5339 27.4398 27.7337 27.2195 27.938 27.001Z" fill="#E5A445"/>
<path d="M29.188 27.9554C29.5935 27.7202 29.918 27.3148 30.3493 27.129C30.7355 26.9627 31.0061 27.0783 31.3693 27.2228L31.4032 27.2436C31.3304 27.5118 31.0303 27.6695 30.7948 27.8035C30.3796 28.0399 29.8198 28.1998 29.3472 28.0666C29.2769 28.0467 29.2289 28.0159 29.188 27.9554Z" fill="#F3BC6A"/>
<path d="M31.3693 27.2228C31.3139 27.1649 31.2655 27.115 31.2294 27.0426L31.4162 26.9284C31.7489 27.1447 32.2143 27.3835 32.3092 27.8001C32.352 27.9886 32.2918 28.173 32.1855 28.3295C31.9329 28.7011 31.3731 29.1328 30.9664 29.3108C30.7736 29.3178 30.5878 29.3293 30.398 29.2857L30.3914 29.2177L30.5611 29.1245C31.0404 29.0386 31.7834 28.4607 32.066 28.071C32.1474 27.9589 32.1603 27.9034 32.1424 27.7687C31.9653 27.5274 31.6677 27.3736 31.4032 27.2436L31.3693 27.2228Z" fill="#1B0200"/>
<path d="M24.1435 29.2155C25.1761 29.061 26.0905 29.1712 26.9562 29.8023C26.9782 29.8184 27.0002 29.8347 27.022 29.8512C27.3582 30.1108 28.0706 30.5785 28.2001 30.98C28.2784 31.029 28.3483 31.0631 28.4369 31.0899C27.9837 31.473 26.9855 31.6441 26.4072 31.5883C26.3871 31.5863 26.3671 31.5827 26.3471 31.5796C26.2981 31.4955 26.0221 31.4143 25.9223 31.3718L26.1553 31.3376L26.1931 31.2416C25.3539 31.1417 24.8283 30.6317 24.1296 30.2204C23.777 30.0128 23.3953 29.8497 23.0226 29.6813C23.1709 29.5269 23.4017 29.3714 23.6151 29.3371C23.794 29.3262 23.9716 29.264 24.1435 29.2155Z" fill="#D79D55"/>
<path d="M24.1435 29.2155C25.1761 29.061 26.0905 29.1712 26.9562 29.8023C26.9782 29.8184 27.0002 29.8347 27.022 29.8512C27.0221 30.1674 26.8974 30.4343 26.804 30.7312C26.1313 30.4886 25.5036 30.1289 24.8342 29.8797C24.5209 29.7631 23.7482 29.6241 23.523 29.4514L23.6151 29.3371C23.794 29.3262 23.9716 29.264 24.1435 29.2155Z" fill="#F3BC6A"/>
<path d="M26.1931 31.2416C26.8945 31.238 27.5263 31.1923 28.2001 30.98C28.2784 31.029 28.3483 31.0631 28.4369 31.0899C27.9837 31.473 26.9855 31.6441 26.4072 31.5883C26.3871 31.5863 26.3671 31.5827 26.3471 31.5796C26.2981 31.4955 26.0221 31.4143 25.9223 31.3718L26.1553 31.3376L26.1931 31.2416Z" fill="#763D15"/>
<path d="M25.2429 28.8924C25.2205 28.8888 25.1981 28.8848 25.1757 28.8804C25.031 28.8529 24.9571 28.825 24.8735 28.7028C24.8861 28.6768 24.899 28.6544 24.9212 28.6351C25.4173 28.2048 26.5871 28.1514 27.2148 28.2209C28.012 28.3269 29.0599 28.9214 29.6358 29.4741C29.6153 29.542 29.6063 29.6166 29.5931 29.6865C28.5654 30.202 27.393 28.7943 26.2819 29.0529L26.3475 29.2088L26.3982 29.118L26.4103 29.146L26.3421 29.2079C25.993 29.0386 25.6254 28.948 25.2429 28.8924Z" fill="#F3BC6A"/>
<path d="M26.3421 29.2079L26.4103 29.146L26.3982 29.118L26.3475 29.2088L26.2819 29.0529C27.393 28.7943 28.5654 30.202 29.5931 29.6865C29.6063 29.6166 29.6153 29.542 29.6358 29.4741L29.6807 29.4634C29.8899 29.6322 30.0848 29.8035 30.272 29.9962C29.8677 30.109 29.4717 30.2752 29.0609 30.3602C28.1615 30.5463 27.7164 30.1194 27.0376 29.6326C26.818 29.475 26.5697 29.3551 26.3421 29.2079Z" fill="#D79D55"/>
<path d="M29.9013 29.4386C30.1017 29.3363 30.4756 29.3761 30.6955 29.4025L30.5107 29.8929L29.9013 29.4386Z" fill="#E5A445"/>
<path d="M25.4602 24.5248C25.3338 23.3202 25.3894 22.7918 25.9331 21.7185C26.0724 21.4434 26.1986 21.1302 26.3942 20.8825C26.5253 20.9405 26.5256 21.007 26.6081 21.1579C26.6694 21.3853 26.7288 21.6132 26.7863 21.8417C26.8983 22.1407 27.1369 22.7366 27.144 23.0375C27.2999 23.6221 27.1303 24.4641 26.8881 24.9982C26.793 25.1746 26.51 25.5943 26.5001 25.7342C26.6415 25.7298 26.8284 25.587 26.9011 25.4715C27.2989 25.4341 28.4471 25.3137 28.7804 25.4998C27.5825 26.1987 26.9911 25.5892 25.5296 26.9455C25.7064 26.5198 25.9898 25.6422 26.2696 25.3466C25.9034 25.2925 25.6677 24.8229 25.4602 24.5248Z" fill="#D09044"/>
<path d="M26.2618 25.0274C26.3233 24.5323 25.8729 23.6236 25.9722 22.9717C26.0179 22.6708 26.4302 21.2979 26.6081 21.1579C26.6694 21.3853 26.7288 21.6132 26.7863 21.8417C26.8983 22.1407 27.1369 22.7366 27.144 23.0375C27.1489 23.2398 27.1812 23.4539 27.0659 23.6136C26.8687 23.7165 26.6824 23.5399 26.5676 23.3776C26.5024 23.1224 26.4495 22.9228 26.3616 22.6746C26.344 23.0196 26.3652 24.8798 26.2618 25.0274Z" fill="#F3BC6A"/>
<path d="M27.144 23.0375C27.2999 23.6221 27.1303 24.4641 26.8881 24.9982C26.8083 25.0818 26.7337 25.1422 26.6453 25.2159C26.5804 25.1375 26.6333 25.0531 26.6486 24.9395C26.7219 24.3957 26.6623 23.9125 26.5676 23.3776C26.6824 23.5399 26.8687 23.7165 27.0659 23.6136C27.1812 23.4539 27.1489 23.2398 27.144 23.0375Z" fill="#E7AF60"/>
<path d="M21.3226 26.7345C21.4726 27.1407 21.3321 28.2905 21.2348 28.7365C20.934 29.5032 20.7353 29.8769 19.9727 30.2491C19.7499 30.3752 19.5331 30.4999 19.2919 30.5884C19.2587 30.5711 19.2278 30.5601 19.2053 30.5294C19.1362 30.6056 19.11 30.6701 19.0033 30.6762L18.9539 30.5868C18.9728 30.3909 18.9742 30.2186 18.9532 30.0223C18.9918 29.914 19.0081 29.7991 19.0289 29.6863L19.1411 29.6343C19.2122 29.4527 19.2041 29.2233 19.2625 29.0314C19.4902 28.283 20.0346 27.5671 20.7299 27.1925C20.9215 27.03 21.1178 26.8803 21.3226 26.7345Z" fill="#F3BC6A"/>
<path d="M19.1411 29.6343C19.2122 29.4527 19.2041 29.2233 19.2625 29.0314C19.4902 28.283 20.0346 27.5671 20.7299 27.1925C20.622 27.6464 20.1321 28.157 19.938 28.6339C19.725 29.157 19.7636 29.6596 19.6432 30.1898L19.7035 30.2543C19.7927 30.2429 19.8857 30.2207 19.9727 30.2491C19.7499 30.3752 19.5331 30.4999 19.2919 30.5884C19.2587 30.5711 19.2278 30.5601 19.2053 30.5294C19.1362 30.6056 19.11 30.6701 19.0033 30.6762L18.9539 30.5868C18.9728 30.3909 18.9742 30.2186 18.9532 30.0223C18.9918 29.914 19.0081 29.7991 19.0289 29.6863L19.1411 29.6343Z" fill="#D09044"/>
<path d="M19.0289 29.6863L19.1411 29.6343C19.1252 29.9423 19.1576 30.2253 19.2053 30.5294C19.1362 30.6056 19.11 30.6701 19.0033 30.6762L18.9539 30.5868C18.9728 30.3909 18.9742 30.2186 18.9532 30.0223C18.9918 29.914 19.0081 29.7991 19.0289 29.6863Z" fill="#1B0200"/>
<path d="M19.3724 30.7371C20.4479 30.3467 21.4469 29.595 22.584 29.3844C22.7392 29.5289 22.8918 29.4674 23.0395 29.5783C23.007 29.6629 22.9592 29.6672 22.8816 29.7043C22.5511 29.6738 21.4989 30.1788 21.1694 30.3332C20.752 30.5319 19.6176 30.9814 19.3243 31.2783L19.2216 31.6292C18.9522 31.8093 18.679 31.9854 18.4264 32.1886C18.6094 32.2069 18.8136 32.2095 18.9899 32.2613C18.745 32.2656 18.501 32.2621 18.2606 32.3146C18.3431 32.404 18.4776 32.4423 18.5893 32.4874L18.491 32.5279C17.7187 32.5063 17.2425 33.1686 16.4804 33.2292L16.4158 33.0467C16.7422 33.015 17.1582 32.6369 17.4229 32.4418C17.4201 32.4372 17.4174 32.4324 17.4145 32.428C17.3249 32.291 17.2753 32.265 17.1188 32.2282L16.8495 32.4412L16.8178 32.4032L16.8916 32.0214C17.5759 31.5988 18.1771 31.0909 18.8944 30.7023C19.0319 30.6976 19.2575 30.6595 19.3724 30.7371Z" fill="#E7AB58"/>
<path d="M17.4229 32.4418C18.077 32.0869 18.6442 31.5982 19.3243 31.2783L19.2216 31.6292C18.9522 31.8093 18.679 31.9854 18.4264 32.1886C18.6094 32.2069 18.8136 32.2095 18.9899 32.2613C18.745 32.2656 18.501 32.2621 18.2606 32.3146C18.3431 32.404 18.4776 32.4423 18.5893 32.4874L18.491 32.5279C17.7187 32.5063 17.2425 33.1686 16.4804 33.2292L16.4158 33.0467C16.7422 33.015 17.1582 32.6369 17.4229 32.4418Z" fill="#763D15"/>
<path d="M18.8944 30.7023C19.0319 30.6976 19.2575 30.6595 19.3724 30.7371C18.5428 31.1817 17.8346 31.6052 17.1188 32.2282L16.8495 32.4412L16.8178 32.4032L16.8916 32.0214C17.5759 31.5988 18.1771 31.0909 18.8944 30.7023Z" fill="#310803"/>
<path d="M28.5176 25.929L28.4271 26.1716C28.5063 26.2286 28.5491 26.2183 28.6417 26.2203C28.6362 26.2271 28.6306 26.2339 28.625 26.2406C28.5709 26.305 28.5231 26.3468 28.4503 26.3889C28.5441 26.4038 28.6098 26.3277 28.7037 26.4053C28.4086 26.5887 28.1709 26.7372 27.938 27.001C27.7337 27.2195 27.5339 27.4398 27.3409 27.6683C27.2448 27.7477 27.079 27.8476 27.0427 27.9634L27.0513 28.0184L26.9913 28.069C26.9717 27.9956 26.9384 27.9501 26.8927 27.8899C26.5679 28.0533 25.714 28.1647 25.2759 28.3145C26.2154 27.0818 26.5228 26.5252 28.0505 25.9945L28.5176 25.929Z" fill="#E7AF60"/>
<path d="M28.5176 25.929L28.4271 26.1716C28.5063 26.2286 28.5491 26.2183 28.6417 26.2203C28.6362 26.2271 28.6306 26.2339 28.625 26.2406C28.5709 26.305 28.5231 26.3468 28.4503 26.3889C28.5441 26.4038 28.6098 26.3277 28.7037 26.4053C28.4086 26.5887 28.1709 26.7372 27.938 27.001C27.7337 27.2195 27.5339 27.4398 27.3409 27.6683C27.2448 27.7477 27.079 27.8476 27.0427 27.9634L27.0513 28.0184L26.9913 28.069C26.9717 27.9956 26.9384 27.9501 26.8927 27.8899C26.9819 27.6213 28.1703 26.4053 28.1992 26.05L28.0505 25.9945L28.5176 25.929Z" fill="#8F5125"/>
<path d="M22.4411 26.9724C22.6487 26.795 23.0049 26.492 23.2938 26.5092C23.3864 26.5148 23.4607 26.5384 23.5195 26.6159C23.5892 26.7076 23.6007 26.8242 23.5948 26.9347L23.6171 27.054C23.5061 27.4193 23.4119 27.8088 23.2151 28.1393C22.8357 28.2514 22.5336 28.4984 22.1852 28.6755C22.0584 28.7244 21.9949 28.7394 21.8624 28.6993C22.1021 28.1382 22.1788 27.535 22.4411 26.9724Z" fill="#F1C887"/>
<path d="M23.5948 26.9347L23.6171 27.054C23.5061 27.4193 23.4119 27.8088 23.2151 28.1393C22.8357 28.2514 22.5336 28.4984 22.1852 28.6755C22.6649 28.1219 23.2193 27.5624 23.5948 26.9347Z" fill="#F3BC6A"/>
<path d="M22.7955 26.4187L22.7749 26.4468C22.6206 26.6551 22.5066 26.7088 22.4411 26.9724C22.1788 27.535 22.1021 28.1382 21.8624 28.6993C21.7503 28.8772 21.6792 29.0811 21.7246 29.2905C21.7732 29.335 21.8209 29.385 21.8798 29.4154C21.7046 29.4921 21.5292 29.5703 21.3515 29.6411C21.2468 29.6828 21.1352 29.7285 21.0293 29.6838C21.0256 29.4307 21.291 29.0371 21.3666 28.7634L21.2348 28.7365C21.3321 28.2905 21.4726 27.1407 21.3226 26.7345L21.3985 26.6549C21.5073 26.7254 21.5028 26.8187 21.536 26.9408C21.6909 26.823 21.6747 26.6833 21.8634 26.5212C21.7655 26.7098 21.6465 26.8945 21.651 27.113L21.6847 27.1983C21.8633 27.0828 21.9089 26.847 22.0708 26.7178L22.2259 26.8086C22.4041 26.6511 22.5892 26.5362 22.7955 26.4187Z" fill="#D79D55"/>
<path d="M21.3226 26.7345L21.3985 26.6549C21.5073 26.7254 21.5028 26.8187 21.536 26.9408C21.6909 26.823 21.6747 26.6833 21.8634 26.5212C21.7655 26.7098 21.6465 26.8945 21.651 27.113L21.6847 27.1983C21.8633 27.0828 21.9089 26.847 22.0708 26.7178L22.2259 26.8086C21.7535 27.4521 21.5227 27.9802 21.3666 28.7634L21.2348 28.7365C21.3321 28.2905 21.4726 27.1407 21.3226 26.7345Z" fill="#8F5125"/>
<path d="M22.1852 28.6755C22.5336 28.4984 22.8357 28.2514 23.2151 28.1393C22.8561 28.6838 22.5108 29.1639 21.8798 29.4154C21.8209 29.385 21.7732 29.335 21.7246 29.2905C21.6792 29.0811 21.7503 28.8772 21.8624 28.6993C21.9949 28.7394 22.0584 28.7244 22.1852 28.6755Z" fill="#E7AF60"/>
<path d="M22.7955 26.4187C23.1816 26.1717 23.5841 25.9354 23.9445 25.652C23.7562 26.1143 23.6841 26.5626 23.6171 27.054L23.5948 26.9347C23.6007 26.8242 23.5892 26.7076 23.5195 26.6159C23.4607 26.5384 23.3864 26.5148 23.2938 26.5092C23.0049 26.492 22.6487 26.795 22.4411 26.9724C22.5066 26.7088 22.6206 26.6551 22.7749 26.4468L22.7955 26.4187Z" fill="#E5A445"/>
<path d="M29.2944 25.5634L29.526 25.5275C29.3339 25.6824 29.2811 25.7865 29.154 25.9929C29.0261 26.1436 28.7986 26.098 28.6417 26.2203C28.5491 26.2183 28.5063 26.2286 28.4271 26.1716L28.5176 25.929C28.6226 25.7719 29.0965 25.6319 29.2944 25.5634Z" fill="#D79D55"/>
<path d="M23.9365 26.7568L23.9509 26.7287C24.3269 26.011 25.2172 25.7098 25.9424 25.4894C25.8514 25.7087 25.7784 25.9264 25.7135 26.1547C25.3723 27.2056 24.8987 28.0398 23.8716 28.5596C23.5091 28.7431 23.1394 28.9151 22.7731 29.0912C22.9886 28.7596 23.2296 28.4282 23.4053 28.0741C23.6184 27.6495 23.7736 27.202 23.9365 26.7568Z" fill="#D79D55"/>
<path d="M23.9365 26.7568L23.9509 26.7287C24.3269 26.011 25.2172 25.7098 25.9424 25.4894C25.8514 25.7087 25.7784 25.9264 25.7135 26.1547C25.604 26.2241 25.4783 26.2407 25.3862 26.3116C24.9243 26.6673 24.609 27.2294 24.1692 27.6236C23.9893 27.3299 23.945 27.0954 23.9365 26.7568Z" fill="#F1C887"/>
<path d="M23.4053 28.0741C23.6184 27.6495 23.7736 27.202 23.9365 26.7568C23.945 27.0954 23.9893 27.3299 24.1692 27.6236C23.9425 27.8505 23.7514 28.0709 23.4053 28.0741Z" fill="#F3BC6A"/>
<path d="M26.2307 26.5771L26.2811 26.6576C26.1261 27.1354 25.2044 28.1964 24.7625 28.4402C24.7062 28.3487 24.7031 28.3431 24.7161 28.237C25.1716 27.6569 25.5818 26.9483 26.2307 26.5771Z" fill="#E5A445"/>
<path d="M32.659 12.7866C33.1242 12.6393 33.3113 12.8101 33.4502 13.2869C33.6651 14.0248 33.6403 14.782 33.5294 15.5357C33.4563 15.9502 33.3333 16.3859 33.2697 16.7695C33.7455 16.6201 33.83 16.6 34.3173 16.5155C34.2773 17.2934 34.2108 17.9111 33.7144 18.5489C33.5883 18.7109 33.4207 18.8738 33.3746 19.0656C33.5221 19.2164 34.1433 19.1145 34.375 19.0937C34.2052 19.4748 33.7726 20.3428 33.4373 20.5848C33.3042 20.8147 33.2937 20.9871 33.2541 21.2479L33.0552 21.2354C33.0431 21.2301 32.7322 21.1502 32.66 21.126C32.5058 21.1448 32.481 21.1508 32.3488 21.0707C31.5185 21.0342 30.4789 21.1399 29.7591 21.5673C29.6151 21.7057 29.3084 22.0267 29.145 22.0942L29.1114 22.0432L29.1248 21.992L29.0141 21.9109L28.8982 22.0604C28.8304 21.8426 28.8678 21.7061 28.903 21.4841C29.2179 20.3991 28.7576 20.1084 28.6239 19.2264L28.6211 19.2069C28.5694 19.1538 28.3832 18.7912 28.3359 18.7031L28.3455 18.6539L28.4565 18.6378L28.465 18.5725C28.545 18.3284 28.4991 17.7836 28.4766 17.521L28.4951 17.3941C28.6048 17.0785 29.1192 15.6574 29.5222 15.7656L29.5587 15.9173C29.6252 15.9791 29.6622 16.0257 29.7492 16.0508C29.9968 15.9652 30.1574 15.3839 30.2373 15.1494C30.3038 14.913 30.6256 14.3741 30.9146 14.4419L30.969 14.5775L31.0195 14.8324C31.3713 14.4416 32.3765 13.004 32.659 12.7866Z" fill="#602D0F"/>
<path d="M30.2373 15.1494C30.3038 14.913 30.6256 14.3741 30.9146 14.4419L30.969 14.5775L31.0195 14.8324C31.0481 14.948 30.9781 15.0554 30.9253 15.1656C31.0732 15.9013 31.5456 16.733 31.4831 17.3671L31.3938 17.793C31.2369 17.9637 31.1919 17.9939 31.2919 18.2304C31.0502 18.5662 30.8608 19.0071 30.7386 19.4021C30.6642 19.4285 30.698 19.4294 30.6317 19.4188C30.5991 19.5655 30.6105 19.6693 30.5898 19.7564C30.561 19.8776 30.4612 20.0712 30.4204 20.2135C30.4769 20.2451 30.5508 20.2815 30.5988 20.3217C30.3253 20.5982 30.1211 20.8497 29.8767 21.1486C29.843 21.3345 29.7549 21.3811 29.7591 21.5673C29.6151 21.7057 29.3084 22.0267 29.145 22.0942L29.1114 22.0432L29.1248 21.992L29.0141 21.9109L28.8982 22.0604C28.8304 21.8426 28.8678 21.7061 28.903 21.4841C29.2179 20.3991 28.7576 20.1084 28.6239 19.2264L28.6211 19.2069C28.5694 19.1538 28.3832 18.7912 28.3359 18.7031L28.3455 18.6539L28.4565 18.6378L28.465 18.5725C28.545 18.3284 28.4991 17.7836 28.4766 17.521L28.4951 17.3941C28.6048 17.0785 29.1192 15.6574 29.5222 15.7656L29.5587 15.9173C29.6252 15.9791 29.6622 16.0257 29.7492 16.0508C29.9968 15.9652 30.1574 15.3839 30.2373 15.1494Z" fill="#F1C887"/>
<path d="M30.2373 15.1494C30.3038 14.913 30.6256 14.3741 30.9146 14.4419L30.969 14.5775L31.0195 14.8324C31.0481 14.948 30.9781 15.0554 30.9253 15.1656C31.0732 15.9013 31.5456 16.733 31.4831 17.3671L31.3938 17.793C31.2369 17.9637 31.1919 17.9939 31.2919 18.2304C31.0502 18.5662 30.8608 19.0071 30.7386 19.4021C30.6642 19.4285 30.698 19.4294 30.6317 19.4188C30.7596 17.801 29.8514 17.4331 30.1937 16.1877L30.1707 16.1234C30.2121 16.0432 30.3421 15.6215 30.3767 15.5144C30.3282 15.3935 30.2817 15.2719 30.2373 15.1494Z" fill="#F1C887"/>
<path d="M30.6317 19.4188C30.7596 17.801 29.8514 17.4331 30.1937 16.1877C30.1946 16.3904 30.1772 16.779 30.2486 16.9483L30.2779 16.9519C31.0231 17.049 30.554 18.1106 30.9496 18.2016C31.0879 18.0626 31.2937 17.7682 31.3188 17.5693C31.0903 17.5525 31.0418 17.7671 30.837 17.7252C30.9189 17.3851 31.2629 17.4438 31.4831 17.3671L31.3938 17.793C31.2369 17.9637 31.1919 17.9939 31.2919 18.2304C31.0502 18.5662 30.8608 19.0071 30.7386 19.4021C30.6642 19.4285 30.698 19.4294 30.6317 19.4188Z" fill="#E1A748"/>
<path d="M30.2373 15.1494C30.3038 14.913 30.6256 14.3741 30.9146 14.4419L30.969 14.5775C30.7673 14.9075 30.5065 15.1791 30.3767 15.5144C30.3282 15.3935 30.2817 15.2719 30.2373 15.1494Z" fill="#7E461D"/>
<path d="M30.2373 15.1494C30.2817 15.2719 30.3282 15.3935 30.3767 15.5144C30.3421 15.6215 30.2121 16.0432 30.1707 16.1234L30.1937 16.1877C29.8514 17.4331 30.7596 17.801 30.6317 19.4188C30.5991 19.5655 30.6105 19.6693 30.5898 19.7564C30.561 19.8776 30.4612 20.0712 30.4204 20.2135C30.4769 20.2451 30.5508 20.2815 30.5988 20.3217C30.3253 20.5982 30.1211 20.8497 29.8767 21.1486C29.8797 21.0913 30.0166 20.7017 30.0475 20.607C30.2929 19.8548 30.4812 19.0347 30.31 18.2422C30.1882 17.7335 29.845 17.2847 29.6378 16.7998C29.7564 16.5302 29.4714 16.2442 29.5587 15.9173C29.6252 15.9791 29.6622 16.0257 29.7492 16.0508C29.9968 15.9652 30.1574 15.3839 30.2373 15.1494Z" fill="#8F5125"/>
<path d="M30.2373 15.1494C30.2817 15.2719 30.3282 15.3935 30.3767 15.5144C30.3421 15.6215 30.2121 16.0432 30.1707 16.1234L29.9825 16.2652C29.9151 16.2277 29.9237 16.1912 29.8947 16.0985L29.7492 16.0508C29.9968 15.9652 30.1574 15.3839 30.2373 15.1494Z" fill="#763D15"/>
<path d="M30.31 18.2422C30.4812 19.0347 30.2929 19.8548 30.0475 20.607C30.0166 20.7017 29.8797 21.0913 29.8767 21.1486C29.843 21.3345 29.7549 21.3811 29.7591 21.5673C29.6151 21.7057 29.3084 22.0267 29.145 22.0942L29.1114 22.0432L29.1248 21.992L29.3138 21.7509C29.621 21.0918 29.6665 20.7434 29.4208 20.0681C29.5861 19.9312 29.5209 19.3122 29.5252 19.0742C29.5451 18.9744 29.549 18.9317 29.6023 18.841L29.7026 18.8991L29.7031 18.9656C30.2934 19.0928 30.3089 18.6748 30.31 18.2422Z" fill="#E7AF60"/>
<path d="M29.5252 19.0742C29.5451 18.9744 29.549 18.9317 29.6023 18.841L29.7026 18.8991L29.7031 18.9656C29.7146 19.581 29.8422 21.4074 29.3138 21.7509C29.621 21.0918 29.6665 20.7434 29.4208 20.0681C29.5861 19.9312 29.5209 19.3122 29.5252 19.0742Z" fill="#D79D55"/>
<path d="M28.4951 17.3941C28.5645 17.7389 28.5157 18.5748 28.6772 18.7204L28.7384 18.699L28.7661 18.6239L28.9027 19C29.0709 19.3452 29.2632 19.7216 29.4208 20.0681C29.6665 20.7434 29.621 21.0918 29.3138 21.7509L29.1248 21.992L29.0141 21.9109L28.8982 22.0604C28.8304 21.8426 28.8678 21.7061 28.903 21.4841C29.2179 20.3991 28.7576 20.1084 28.6239 19.2264L28.6211 19.2069C28.5694 19.1538 28.3832 18.7912 28.3359 18.7031L28.3455 18.6539L28.4565 18.6378L28.465 18.5725C28.545 18.3284 28.4991 17.7836 28.4766 17.521L28.4951 17.3941Z" fill="#8F5125"/>
<path d="M28.6211 19.2069C29.3385 20.1189 29.4956 20.84 29.0141 21.9109L28.8982 22.0604C28.8304 21.8426 28.8678 21.7061 28.903 21.4841C29.2179 20.3991 28.7576 20.1084 28.6239 19.2264L28.6211 19.2069Z" fill="#E5A445"/>
<path d="M28.4951 17.3941C28.6048 17.0785 29.1192 15.6574 29.5222 15.7656L29.5587 15.9173C29.4714 16.2442 29.7564 16.5302 29.6378 16.7998C29.5547 16.6055 29.4497 16.377 29.3829 16.1799C28.7856 17.0573 28.6592 17.5409 28.7661 18.6239L28.7384 18.699L28.6772 18.7204C28.5157 18.5748 28.5645 17.7389 28.4951 17.3941Z" fill="#310803"/>
<path d="M29.4274 18.7571C29.3284 18.358 29.3375 17.9142 29.3606 17.5058C29.4323 17.7459 29.7094 18.6803 29.7026 18.8991L29.6023 18.841C29.549 18.9317 29.5451 18.9744 29.5252 19.0742C29.5209 19.3122 29.5861 19.9312 29.4208 20.0681C29.2632 19.7216 29.0709 19.3452 28.9027 19C29.0423 19.0761 29.0663 19.0944 29.2247 19.0873C29.3796 18.9602 29.343 18.9656 29.4274 18.7571Z" fill="#E7AF60"/>
<path d="M32.659 12.7866C33.1242 12.6393 33.3113 12.8101 33.4502 13.2869C33.6651 14.0248 33.6403 14.782 33.5294 15.5357C33.5144 15.3917 33.4965 15.2492 33.5116 15.1046C33.4676 15.1941 33.4951 15.1653 33.4069 15.2133L33.3262 15.0475L33.248 15.2901C33.1031 16.9715 32.4248 16.9861 31.2919 18.2304C31.1919 17.9939 31.2369 17.9637 31.3938 17.793L31.4831 17.3671C31.5456 16.733 31.0732 15.9013 30.9253 15.1656C30.9781 15.0554 31.0481 14.948 31.0195 14.8324C31.3713 14.4416 32.3765 13.004 32.659 12.7866Z" fill="#F1C887"/>
<path d="M32.659 12.7866C33.1242 12.6393 33.3113 12.8101 33.4502 13.2869C33.6651 14.0248 33.6403 14.782 33.5294 15.5357C33.5144 15.3917 33.4965 15.2492 33.5116 15.1046C33.4676 15.1941 33.4951 15.1653 33.4069 15.2133L33.3262 15.0475L33.248 15.2901C33.1031 16.9715 32.4248 16.9861 31.2919 18.2304C31.1919 17.9939 31.2369 17.9637 31.3938 17.793C31.668 17.7783 31.6798 17.2277 31.705 17.0197L31.7932 17.0739C32.2016 16.6525 32.8661 14.1228 32.9524 13.3978L32.8574 12.9324C32.8279 12.9035 32.7001 12.8162 32.659 12.7866Z" fill="#D79D55"/>
<path d="M32.659 12.7866C33.1242 12.6393 33.3113 12.8101 33.4502 13.2869C33.6651 14.0248 33.6403 14.782 33.5294 15.5357C33.5144 15.3917 33.4965 15.2492 33.5116 15.1046C33.4676 15.1941 33.4951 15.1653 33.4069 15.2133L33.3262 15.0475L33.248 15.2901C33.2498 14.6835 33.2169 13.9542 32.9524 13.3978L32.8574 12.9324C32.8279 12.9035 32.7001 12.8162 32.659 12.7866Z" fill="#6A3311"/>
<path d="M30.9253 15.1656C31.132 15.1599 31.2126 15.0687 31.356 14.932C31.3314 15.7335 31.7073 16.0915 31.705 17.0197C31.6798 17.2277 31.668 17.7783 31.3938 17.793L31.4831 17.3671C31.5456 16.733 31.0732 15.9013 30.9253 15.1656Z" fill="#8F5125"/>
<path d="M31.0195 14.8324C31.3713 14.4416 32.3765 13.004 32.659 12.7866C32.7001 12.8162 32.8279 12.9035 32.8574 12.9324C32.621 13.0159 31.4791 14.6508 31.356 14.932C31.2126 15.0687 31.132 15.1599 30.9253 15.1656C30.9781 15.0554 31.0481 14.948 31.0195 14.8324Z" fill="#602D0F"/>
<path d="M33.5751 19.3949L34.0808 19.2927C33.4923 20.2195 33.2714 20.458 32.3488 21.0707C31.5185 21.0342 30.4789 21.1399 29.7591 21.5673C29.7549 21.3811 29.843 21.3345 29.8767 21.1486C30.1211 20.8497 30.3253 20.5982 30.5988 20.3217C30.778 20.0794 30.9901 19.9473 31.2563 19.8232C31.5867 19.6576 31.9833 19.5363 32.3418 19.4507C32.7873 19.4883 32.863 19.5861 33.2047 19.8803L33.2339 19.8633C33.3701 19.7833 33.5957 19.6412 33.6364 19.4861L33.5751 19.3949Z" fill="#E5A445"/>
<path d="M31.2563 19.8232C31.5867 19.6576 31.9833 19.5363 32.3418 19.4507C32.7873 19.4883 32.863 19.5861 33.2047 19.8803C32.3857 20.4809 31.7442 20.4879 30.7754 20.5703C30.9399 20.3198 31.078 20.0693 31.2563 19.8232Z" fill="#F1C887"/>
<path d="M32.3418 19.4507C32.7523 19.358 33.141 19.4083 33.5751 19.3949L33.6364 19.4861C33.5957 19.6412 33.3701 19.7833 33.2339 19.8633L33.2047 19.8803C32.863 19.5861 32.7873 19.4883 32.3418 19.4507Z" fill="#F3BC6A"/>
<path d="M32.66 21.126C32.85 21.015 33.2248 20.7283 33.4373 20.5848C33.3042 20.8147 33.2937 20.9871 33.2541 21.2479L33.0552 21.2354C33.0431 21.2301 32.7322 21.1502 32.66 21.126Z" fill="#F1C887"/>
<path d="M31.4839 19.4614C31.4123 19.5623 31.0022 19.7996 30.8699 19.8161L30.8217 19.7335C30.8258 19.535 30.8931 19.2793 30.9806 19.1014C31.8134 17.4077 32.5519 17.2352 34.1105 16.6465L34.139 16.6891L34.0512 17.0764C33.8525 18.5133 32.9006 19.3176 31.4839 19.4614Z" fill="#F3BC6A"/>
<path d="M31.4839 19.4614C31.4913 19.4494 31.4989 19.4375 31.5068 19.4257C31.6012 19.2861 31.6895 19.2024 31.8166 19.0966C32.5355 18.4987 33.219 17.8761 33.8363 17.1733C33.8817 17.1217 33.9844 17.0902 34.0512 17.0764C33.8525 18.5133 32.9006 19.3176 31.4839 19.4614Z" fill="#E5A445"/>
<path d="M24.5051 4.73011C24.6751 4.73639 24.8044 4.74053 24.9739 4.72986C24.6067 5.48165 24.3797 5.58942 24.6978 6.44714C24.9255 7.06086 25.2302 7.65285 25.4613 8.25217C26.5858 11.168 27.1833 14.1578 27.5821 17.2455C27.6061 17.4318 27.6754 18.4887 27.7157 18.5537C27.6897 18.6514 27.6009 18.9308 27.6231 19.0107L27.6634 19.0299L27.7202 19.0161L27.9759 18.5512L28.0322 18.9251C28.1004 18.8063 28.1183 18.79 28.215 18.6978L28.3359 18.7031C28.3832 18.7912 28.5694 19.1538 28.6211 19.2069L28.6239 19.2264C28.7576 20.1084 29.2179 20.3991 28.903 21.4841C28.8678 21.7061 28.8304 21.8426 28.8982 22.0604L29.0141 21.9109L29.1248 21.992L29.1114 22.0432L29.145 22.0942C29.3084 22.0267 29.6151 21.7057 29.7591 21.5673C30.4789 21.1399 31.5185 21.0342 32.3488 21.0707C32.481 21.1508 32.5058 21.1448 32.66 21.126C32.7322 21.1502 33.0431 21.2301 33.0552 21.2354L33.2541 21.2479C33.1742 21.6499 32.5332 22.5221 32.1865 22.6989C32.0945 22.8097 31.9681 22.93 31.966 23.0678C32.0791 23.1701 32.0319 23.142 32.1968 23.1607L32.308 23.1921C32.2266 23.8103 30.1371 25.3889 29.526 25.5275L29.2944 25.5634L29.0957 25.4419C28.9871 25.4582 28.8865 25.4706 28.7804 25.4998C28.4471 25.3137 27.2989 25.4341 26.9011 25.4715C26.8284 25.587 26.6415 25.7298 26.5001 25.7342C26.51 25.5943 26.793 25.1746 26.8881 24.9982C27.1303 24.4641 27.2999 23.6221 27.144 23.0375C27.1369 22.7366 26.8983 22.1407 26.7863 21.8417L26.9362 21.6577C26.952 21.7481 27.1508 22.2298 27.2013 22.4333C27.3271 22.9406 27.3857 23.4122 27.4997 23.9179C27.66 23.5301 27.7826 23.2557 27.875 22.8427C27.4961 22.3326 27.1831 21.673 27.0593 21.044C26.9281 20.3761 27.3134 19.6906 27.2373 19.0335C27.0672 17.5983 26.9441 16.158 26.7484 14.7254C26.5689 13.4124 26.1336 12.0837 25.7402 10.8187C25.293 9.38054 24.8657 7.86356 24.2091 6.50668C24.2375 6.32351 23.9139 5.67796 23.8234 5.41034C24.0158 5.19559 24.2944 4.93689 24.5051 4.73011Z" fill="#763D15"/>
<path d="M29.7591 21.5673C30.4789 21.1399 31.5185 21.0342 32.3488 21.0707C32.481 21.1508 32.5058 21.1448 32.66 21.126C32.7322 21.1502 33.0431 21.2301 33.0552 21.2354L33.2541 21.2479C33.1742 21.6499 32.5332 22.5221 32.1865 22.6989C32.0945 22.8097 31.9681 22.93 31.966 23.0678C32.0791 23.1701 32.0319 23.142 32.1968 23.1607L32.308 23.1921C32.2266 23.8103 30.1371 25.3889 29.526 25.5275L29.2944 25.5634L29.0957 25.4419C28.9871 25.4582 28.8865 25.4706 28.7804 25.4998C28.4471 25.3137 27.2989 25.4341 26.9011 25.4715L27.4057 24.7997C27.2794 24.7554 27.2484 24.7693 27.1823 24.6769L27.2766 24.6339C27.335 24.618 28.1955 23.845 28.3569 23.712C28.4766 23.5584 28.5989 23.4054 28.7096 23.2455C28.5248 23.3032 28.4991 23.4232 28.3188 23.5001C28.4251 23.3516 28.4793 23.232 28.6262 23.1324L28.651 23.1159L28.6595 23.0377C28.595 22.8612 28.8578 22.528 28.8982 22.0604L29.0141 21.9109L29.1248 21.992L29.1114 22.0432L29.145 22.0942C29.3084 22.0267 29.6151 21.7057 29.7591 21.5673Z" fill="#D79D55"/>
<path d="M29.7591 21.5673C30.4789 21.1399 31.5185 21.0342 32.3488 21.0707C32.481 21.1508 32.5058 21.1448 32.66 21.126C32.7322 21.1502 33.0431 21.2301 33.0552 21.2354L33.2541 21.2479C33.1742 21.6499 32.5332 22.5221 32.1865 22.6989C32.027 22.8024 31.8452 22.9507 31.6629 22.947L31.5447 22.8698C31.2249 23.0189 31.0144 23.1513 30.6556 23.1477C29.6019 23.2776 29.3518 23.2565 28.3569 23.712C28.4766 23.5584 28.5989 23.4054 28.7096 23.2455C28.5248 23.3032 28.4991 23.4232 28.3188 23.5001C28.4251 23.3516 28.4793 23.232 28.6262 23.1324L28.651 23.1159L28.6595 23.0377C28.595 22.8612 28.8578 22.528 28.8982 22.0604L29.0141 21.9109L29.1248 21.992L29.1114 22.0432L29.145 22.0942C29.3084 22.0267 29.6151 21.7057 29.7591 21.5673Z" fill="#F3BC6A"/>
<path d="M33.2541 21.2479C33.1742 21.6499 32.5332 22.5221 32.1865 22.6989C32.027 22.8024 31.8452 22.9507 31.6629 22.947L31.5447 22.8698C31.2249 23.0189 31.0144 23.1513 30.6556 23.1477C30.5132 23.1455 30.3374 23.1591 30.2203 23.0878C30.4088 22.8134 31.5044 22.6708 31.5992 22.1207C31.8132 21.8044 32.2962 21.9156 32.6004 21.9668L32.9915 21.5048L33.0219 21.4482L32.947 21.2896L33.0552 21.2354L33.2541 21.2479Z" fill="#E7AF60"/>
<path d="M33.2541 21.2479C33.1742 21.6499 32.5332 22.5221 32.1865 22.6989C32.027 22.8024 31.8452 22.9507 31.6629 22.947L31.5447 22.8698C32.0089 22.5722 32.2309 22.3723 32.6004 21.9668L32.9915 21.5048L33.0219 21.4482L32.947 21.2896L33.0552 21.2354L33.2541 21.2479Z" fill="#1B0200"/>
<path d="M31.5992 22.1207C31.5044 22.6708 30.4088 22.8134 30.2203 23.0878C30.3374 23.1591 30.5132 23.1455 30.6556 23.1477C29.6019 23.2776 29.3518 23.2565 28.3569 23.712C28.4766 23.5584 28.5989 23.4054 28.7096 23.2455C28.8114 23.1112 29.0473 22.893 29.1754 22.7675C29.977 22.5333 30.8103 22.4972 31.5992 22.1207Z" fill="#D09044"/>
<path d="M29.7591 21.5673C30.4789 21.1399 31.5185 21.0342 32.3488 21.0707C32.481 21.1508 32.5058 21.1448 32.66 21.126C32.7322 21.1502 33.0431 21.2301 33.0552 21.2354L32.947 21.2896L33.0219 21.4482L32.9915 21.5048C32.5715 21.3038 31.4494 21.3333 30.9708 21.3706C29.9828 21.4475 29.178 22.2539 28.6595 23.0377C28.595 22.8612 28.8578 22.528 28.8982 22.0604L29.0141 21.9109L29.1248 21.992L29.1114 22.0432L29.145 22.0942C29.3084 22.0267 29.6151 21.7057 29.7591 21.5673Z" fill="#7E461D"/>
<path d="M31.5447 22.8698L31.6629 22.947C31.8452 22.9507 32.027 22.8024 32.1865 22.6989C32.0945 22.8097 31.9681 22.93 31.966 23.0678C32.0791 23.1701 32.0319 23.142 32.1968 23.1607C31.9614 23.2227 32.0052 23.1732 31.8955 23.3597C31.696 23.2571 31.3348 23.3309 31.1168 23.3773C31.1398 23.4503 31.1745 23.5044 31.126 23.5669C30.8708 23.8943 29.6306 24.4919 29.2651 24.5902C29.15 24.6206 29.0341 24.6475 28.9174 24.6708C28.5985 24.7042 27.8354 24.8359 27.604 24.6225L27.4057 24.7997C27.2794 24.7554 27.2484 24.7693 27.1823 24.6769L27.2766 24.6339C27.335 24.618 28.1955 23.845 28.3569 23.712C29.3518 23.2565 29.6019 23.2776 30.6556 23.1477C31.0144 23.1513 31.2249 23.0189 31.5447 22.8698Z" fill="#763D15"/>
<path d="M30.2818 23.4439L31.1168 23.3773C31.1398 23.4503 31.1745 23.5044 31.126 23.5669C30.8708 23.8943 29.6306 24.4919 29.2651 24.5902C29.15 24.6206 29.0341 24.6475 28.9174 24.6708C28.7864 24.625 28.5832 24.4905 28.5026 24.369C28.4466 23.8381 29.8267 23.5918 30.2818 23.4439Z" fill="#F1C887"/>
<path d="M27.604 24.6225L27.6225 24.6042C28.4789 23.7561 29.0526 23.4417 30.2818 23.4439C29.8267 23.5918 28.4466 23.8381 28.5026 24.369C28.5832 24.4905 28.7864 24.625 28.9174 24.6708C28.5985 24.7042 27.8354 24.8359 27.604 24.6225Z" fill="#E7AF60"/>
<path d="M32.1968 23.1607L32.308 23.1921C32.2266 23.8103 30.1371 25.3889 29.526 25.5275L29.2944 25.5634L29.0957 25.4419C30.2748 25.0813 31.1983 24.3592 31.8955 23.3597C32.0052 23.1732 31.9614 23.2227 32.1968 23.1607Z" fill="#050000"/>
<path d="M27.9759 18.5512L28.0322 18.9251C28.1004 18.8063 28.1183 18.79 28.215 18.6978L28.3359 18.7031C28.3832 18.7912 28.5694 19.1538 28.6211 19.2069L28.6239 19.2264C28.7576 20.1084 29.2179 20.3991 28.903 21.4841C28.8678 21.7061 28.8304 21.8426 28.8982 22.0604C28.8578 22.528 28.595 22.8612 28.6595 23.0377L28.651 23.1159L28.6262 23.1324C28.4793 23.232 28.4251 23.3516 28.3188 23.5001C28.303 23.454 28.2712 22.8978 28.267 22.8181C28.3118 22.615 27.8598 21.2992 27.8139 20.9329C27.7304 20.2678 27.7965 19.6608 27.7202 19.0161L27.9759 18.5512Z" fill="#E7AF60"/>
<path d="M28.0322 18.9251C28.1004 18.8063 28.1183 18.79 28.215 18.6978L28.3359 18.7031C28.3832 18.7912 28.5694 19.1538 28.6211 19.2069L28.6239 19.2264C28.7576 20.1084 29.2179 20.3991 28.903 21.4841C28.7832 21.5183 28.6782 21.5647 28.5627 21.5342C28.4804 21.1192 28.3208 20.7231 28.092 20.3665C27.8506 19.832 27.8577 19.4725 28.0322 18.9251Z" fill="#F1C887"/>
<path d="M28.092 20.3665C28.3208 20.7231 28.4804 21.1192 28.5627 21.5342C28.546 21.6725 28.5489 21.8102 28.4549 21.9064C28.3292 21.8136 28.0716 20.5177 28.092 20.3665Z" fill="#D79D55"/>
<path d="M27.6634 19.0299L27.7202 19.0161C27.7965 19.6608 27.7304 20.2678 27.8139 20.9329C27.8598 21.2992 28.3118 22.615 28.267 22.8181L28.2073 23.0746C28.1874 22.8613 27.5851 22.1993 27.3987 21.5989C27.1311 20.737 27.265 19.8277 27.6634 19.0299Z" fill="#D09044"/>
<path d="M28.2073 23.0746L28.267 22.8181C28.2712 22.8978 28.303 23.454 28.3188 23.5001C28.4991 23.4232 28.5248 23.3032 28.7096 23.2455C28.5989 23.4054 28.4766 23.5584 28.3569 23.712C28.1955 23.845 27.335 24.618 27.2766 24.6339C27.4 24.2719 27.9171 23.7497 28.2073 23.0746Z" fill="#D79D55"/>
<path d="M24.6264 1.92764C24.6805 2.69801 24.7849 4.01326 24.5051 4.73011C24.2944 4.93689 24.0158 5.19559 23.8234 5.41034C23.9139 5.67796 24.2375 6.32351 24.2091 6.50668C23.8257 6.24539 24.2316 5.60171 23.2705 5.69872C22.7697 5.77012 22.3061 5.68073 21.8146 5.69444C19.5617 5.75722 17.328 6.20566 15.0826 6.37646C14.3979 6.42853 13.6878 6.60143 12.9966 6.62774C11.9562 6.62993 10.8949 6.63666 9.8623 6.51199C9.28627 6.44244 9.37053 6.85211 9.24359 6.94389C8.60283 7.40693 5.17358 7.96878 4.95381 6.98849L5.03286 6.96776C5.75662 7.68188 8.98295 7.29098 9.21183 6.65759C8.85115 6.47821 6.16259 7.10638 5.58099 6.86731C5.44058 6.80961 4.88108 6.60577 4.80338 6.54568C5.0512 6.43352 5.6387 6.88674 5.94989 6.80632V6.71957C5.77255 6.52624 5.14733 6.38244 4.88493 6.41727C4.91559 6.39151 5.12428 6.08799 5.18228 6.01475C6.5466 5.90513 7.78624 5.62714 9.13748 5.57119C10.712 5.50601 12.3741 5.64384 13.9387 5.5251C14.5929 5.47547 15.5506 5.23257 16.2214 5.12743L21.1559 4.40081C21.4723 4.49648 22.0121 4.21999 22.3013 4.13623C22.3927 4.21809 22.4553 4.24286 22.5687 4.23364C23.2762 4.17599 23.4367 3.34762 23.3994 2.74836C23.51 2.56966 23.4835 2.25326 23.5193 2.01127C23.53 2.12879 23.5401 2.2109 23.5614 2.32735C23.8166 2.29365 23.9576 1.913 24.2703 1.9573C24.3671 2.02358 24.409 2.06957 24.5233 2.06052L24.6264 1.92764Z" fill="#D79D55"/>
<path d="M23.8234 5.41034C23.9139 5.67796 24.2375 6.32351 24.2091 6.50668C23.8257 6.24539 24.2316 5.60171 23.2705 5.69872C21.9686 5.25412 15.1694 6.36422 13.4597 6.48156C12.2871 6.56208 11.1285 6.50837 9.93073 6.44071C9.56414 6.41998 9.28051 6.53732 8.97674 6.54031C9.09536 6.44439 9.17321 6.59592 9.42293 6.36113C9.62616 6.24668 12.3343 6.3429 12.7516 6.29686C14.0748 6.15086 15.6369 6.14533 16.9302 5.89107C18.685 5.54612 20.281 5.49893 22.0587 5.46585C22.4374 5.45882 23.5311 5.58488 23.8234 5.41034Z" fill="#7E461D"/>
<path d="M6.20703 6.83086C6.79248 6.38092 8.74771 6.12844 9.42293 6.36113C9.17321 6.59592 9.09536 6.44439 8.97674 6.54031C8.0525 6.62721 7.12916 6.72408 6.20703 6.83086Z" fill="#8F5125"/>
<path d="M0.590356 16.8126C0.61355 16.9617 0.645611 17.2248 0.680126 17.356C0.769995 17.6972 0.94803 17.8798 0.957347 18.237C0.922081 19.5212 0.897484 20.8057 0.883458 22.0904C0.880152 22.9412 0.897986 23.7873 0.888167 24.6403C0.880353 25.3179 0.608992 26.0769 0.631434 26.6828C0.65032 27.0844 0.860064 27.4205 1.15201 27.6873C1.60176 28.0985 2.27082 28.3606 2.80262 28.661C4.27429 29.4923 5.73709 30.6132 7.51183 30.5318C7.55061 30.53 7.58828 30.5267 7.62705 30.5307C8.06994 30.6805 8.93336 30.4597 9.4071 30.3863C9.88074 30.4066 11.1789 30.1642 11.5217 30.3416C11.3421 30.3684 11.1674 30.3838 10.986 30.392L10.963 30.4438C11.1833 30.4729 11.4531 30.38 11.6225 30.5503C10.3335 30.6568 9.04637 30.7855 7.76181 30.9362C7.29533 30.968 6.85445 30.9656 6.39082 30.8969C6.04638 30.8446 5.6615 30.7867 5.33819 30.6574C4.69528 30.4004 4.13568 29.9612 3.5327 29.6255C2.86103 29.2516 2.1534 28.9422 1.48394 28.5666C0.970021 28.2782 0.278169 27.7856 0.109351 27.1894C-0.141571 26.6121 0.112858 25.4634 0.149276 24.8033C0.193359 24.0035 0.189903 23.1645 0.254274 22.3702C0.350956 21.1773 0.214048 19.7751 0.39063 18.6058C0.394939 18.1275 0.515716 17.3056 0.590356 16.8126Z" fill="#7E461D"/>
<path d="M0.39063 18.6058C0.424494 19.0897 0.419936 19.466 0.480049 19.9583L0.491671 19.8889C0.639599 21.3874 0.354863 23.5397 0.297906 25.0596C0.275364 25.6599 -0.0227973 26.486 0.109351 27.1894C-0.141571 26.6121 0.112858 25.4634 0.149276 24.8033C0.193359 24.0035 0.189903 23.1645 0.254274 22.3702C0.350956 21.1773 0.214048 19.7751 0.39063 18.6058Z" fill="#6A3311"/>
<path d="M3.11346 1.09243C2.97204 1.36649 2.67825 1.71137 2.61077 1.90086C2.71242 2.09662 2.7567 2.17162 2.86185 2.34893C2.86595 2.72606 2.86565 3.10323 2.861 3.48032C2.90453 3.75003 2.95913 4.04735 2.99249 4.31586C3.07815 4.99112 3.50751 6.37017 3.44334 6.86794C3.29942 7.98456 2.64724 9.42654 2.37298 10.561C1.91542 12.4537 1.43531 14.2155 1.15674 16.1527C1.05294 16.8743 1.04251 17.5672 0.957347 18.237C0.94803 17.8798 0.769995 17.6972 0.680126 17.356C0.645611 17.2248 0.61355 16.9617 0.590356 16.8126C0.595366 16.3743 0.750358 15.605 0.822393 15.1428C1.10683 13.3181 1.5164 11.577 2.03397 9.80861C2.21381 9.19429 2.87656 7.3648 2.91433 6.87157C3.02604 5.41144 1.88049 3.78978 2.33609 2.06071C2.46939 1.55474 2.67002 1.35258 3.11346 1.09243Z" fill="#744312"/>
<path d="M2.61077 1.90086C2.71242 2.09662 2.7567 2.17162 2.86185 2.34893C2.86595 2.72606 2.86565 3.10323 2.861 3.48032C2.90453 3.75003 2.95913 4.04735 2.99249 4.31586C2.87823 4.13753 2.85233 4.09566 2.83185 3.88574L2.83024 3.86855C2.7292 3.92854 2.82679 4.00597 2.62941 4.07304C2.37038 3.82998 2.4898 2.53907 2.52883 2.15595L2.61077 1.90086Z" fill="#7E461D"/>
<path d="M2.61077 1.90086C2.71242 2.09662 2.7567 2.17162 2.86185 2.34893C2.86595 2.72606 2.86565 3.10323 2.861 3.48032C2.56669 2.75196 2.56434 3.09758 2.52883 2.15595L2.61077 1.90086Z" fill="#B67939"/>
<path d="M9.66704 0.475103C10.6707 0.321323 11.1804 0.525244 12.0467 0.48746C13.0429 0.444011 14.3645 0.388484 15.3408 0.290714C15.7561 0.424484 16.6592 0.28468 17.3378 0.467141C16.2964 0.603332 14.6665 0.804876 13.6288 0.886577C12.4562 0.940435 11.2938 0.903531 10.1116 0.960084C7.961 1.06296 5.79563 1.34362 3.64097 1.40494C3.18251 1.41799 2.98252 1.95934 2.86185 2.34893C2.7567 2.17162 2.71242 2.09662 2.61077 1.90086C2.67825 1.71137 2.97204 1.36649 3.11346 1.09243C3.37099 0.956041 3.79654 0.899901 4.08574 0.887574C5.91233 0.8097 7.87832 0.886587 9.66704 0.475103Z" fill="#78481F"/>
<path d="M17.7723 29.5792C18.0651 29.7522 18.9369 29.3764 19.0124 29.5847C19.0236 29.6158 19.0258 29.6535 19.0289 29.6863C19.0081 29.7991 18.9918 29.914 18.9532 30.0223C17.9788 29.9685 16.9331 30.1712 15.9578 30.2662C14.5227 30.4061 13.0637 30.5104 11.6225 30.5503C11.4531 30.38 11.1833 30.4729 10.963 30.4438L10.986 30.392C11.1674 30.3838 11.3421 30.3684 11.5217 30.3416C11.1789 30.1642 9.88074 30.4066 9.4071 30.3863L9.46544 30.2505C9.84856 30.0983 10.4987 30.1319 10.917 30.0874C12.3918 29.8705 13.9229 29.9143 15.4099 29.8399C16.2032 29.8002 16.9875 29.6967 17.7723 29.5792Z" fill="#763D15"/>
<path d="M5.17026 5.77458C5.1128 5.29315 5.01765 4.81696 4.8855 4.35028C4.75956 3.88974 4.21143 2.56844 4.26748 2.25911C4.47703 2.12778 4.84375 2.19172 5.09833 2.21377C5.19005 2.33675 5.56791 2.8168 5.58569 2.91687C5.68859 3.49645 5.96215 5.48693 5.50855 5.8706C5.35566 5.87987 5.31524 5.88226 5.17026 5.77458Z" fill="#F5D19B"/>
<path d="M4.80338 6.54568C3.81988 6.54229 4.17918 3.77149 3.83533 3.6245C3.71766 3.79735 3.85101 4.4016 3.68335 4.5611C3.53296 4.04947 3.91694 3.43282 3.70854 2.97172C3.65249 2.84763 3.54834 2.59025 3.42491 2.53815C3.22398 2.81616 3.52981 4.68496 3.67623 5.0617C3.79616 5.37023 4.17162 5.69889 4.10138 6.07384C4.09086 6.05515 4.07538 6.02695 4.07569 6.00537C4.07749 5.69062 3.73565 5.39843 3.64497 5.15144C3.47881 4.69907 3.09835 2.51122 3.34195 2.24236L3.48312 2.24018C4.26915 2.6023 4.18674 5.31951 4.50579 6.06362C4.6161 6.32083 4.654 6.31563 4.88493 6.41727C5.14733 6.38244 5.77255 6.52624 5.94989 6.71957V6.80632C5.6387 6.88674 5.0512 6.43352 4.80338 6.54568Z" fill="#8F5125"/>
<path d="M0.631434 26.6828L0.648234 26.7085C0.838593 27.0036 0.963478 27.3008 1.18419 27.5826C1.28989 27.7176 4.75722 29.6914 5.19073 29.9071C5.51179 30.0669 5.86996 30.1513 6.20004 30.3012C6.313 30.2575 6.42566 30.1815 6.54273 30.2295C6.66541 30.2799 6.73945 30.4363 6.87531 30.4605C7.78958 30.6233 10.2032 29.7563 10.917 30.0874C10.4987 30.1319 9.84856 30.0983 9.46544 30.2505L9.4071 30.3863C8.93336 30.4597 8.06994 30.6805 7.62705 30.5307C7.58828 30.5267 7.55061 30.53 7.51183 30.5318C5.73709 30.6132 4.27429 29.4923 2.80262 28.661C2.27082 28.3606 1.60176 28.0985 1.15201 27.6873C0.860064 27.4205 0.65032 27.0844 0.631434 26.6828Z" fill="#B67939"/>
<path d="M7.62705 30.5307C8.2392 30.433 8.85198 30.3396 9.46544 30.2505L9.4071 30.3863C8.93336 30.4597 8.06994 30.6805 7.62705 30.5307Z" fill="#602D0F"/>
<path d="M18.9534 29.3211C19.0095 29.0375 19.0702 28.7701 19.1953 28.5077C19.5323 27.8009 21.2546 26.3051 21.9744 26.0524L22.0066 26.1149C21.9778 26.2539 21.9613 26.4122 21.8634 26.5212C21.6747 26.6833 21.6909 26.823 21.536 26.9408C21.5028 26.8187 21.5073 26.7254 21.3985 26.6549L21.3226 26.7345C21.1178 26.8803 20.9215 27.03 20.7299 27.1925C20.0346 27.5671 19.4902 28.283 19.2625 29.0314C19.2041 29.2233 19.2122 29.4527 19.1411 29.6343L19.0289 29.6863C19.0258 29.6535 19.0236 29.6158 19.0124 29.5847C18.9369 29.3764 18.0651 29.7522 17.7723 29.5792C18.1463 29.4629 18.5685 29.403 18.9534 29.3211Z" fill="#6A3311"/>
<path d="M11.7039 19.1157C13.2524 17.7596 17.2081 17.2462 19.2025 17.335C21.0715 17.4181 23.135 18.913 22.8717 20.9308C22.807 21.4271 22.5843 22.5147 22.1695 22.8505C21.9048 23.2507 21.1128 23.7921 20.6738 23.9749C19.549 24.4458 17.0815 25.1473 15.9285 24.8952C13.8622 24.8423 13.2856 24.5184 11.5376 23.5317C11.3634 23.5907 11.1353 23.7035 10.9895 23.5694C10.9988 23.4142 11.0807 23.3306 11.1747 23.2036C10.7824 22.0713 10.4923 21.3144 11.009 20.156C11.1008 19.7553 11.4247 19.3951 11.7039 19.1157Z" fill="#DF9E4D"/>
<path d="M12.031 22.7872C12.0507 22.8193 12.0769 22.8617 12.1094 22.9145C12.6789 23.1173 13.316 23.2535 13.8978 23.4416C13.9415 23.4557 14.0441 23.451 14.0633 23.4499L14.049 23.5377C14.3763 23.7228 16.0596 23.6997 16.5449 23.7027C16.4508 23.8263 15.6328 24.6588 15.5256 24.7154C15.6744 24.7049 15.8233 24.676 15.9451 24.7576L15.9285 24.8952C13.8622 24.8423 13.2856 24.5184 11.5376 23.5317C11.3634 23.5907 11.1353 23.7035 10.9895 23.5694C10.9988 23.4142 11.0807 23.3306 11.1747 23.2036L11.2743 23.1829C11.385 23.0538 11.3619 22.9685 11.3848 22.7791C11.4189 22.9643 11.4584 23.1486 11.5032 23.3315L11.5841 23.3791C11.7059 23.2649 11.615 23.2681 11.6927 23.1463C11.7985 23.0741 11.9426 22.8906 12.031 22.7872Z" fill="#D79D55"/>
<path d="M15.0507 19.3247C15.2074 19.1486 15.448 19.0672 15.6678 18.9704L15.7308 18.9894C15.7067 19.2059 15.3711 19.7113 15.2455 19.92C15.4632 19.8835 15.6817 19.8448 15.9006 19.8167C15.499 20.4418 15.4146 20.5394 14.7531 20.8696L14.7607 21.0162L14.8139 21.0801C14.719 21.2375 14.2927 21.662 14.1221 21.8701C12.4177 21.9776 13.3362 21.278 12.031 22.7872C11.9426 22.8906 11.7985 23.0741 11.6927 23.1463C11.8169 22.7606 12.6435 21.8742 12.9575 21.5125C12.5988 20.4178 13.277 20.6364 13.6421 19.9115C13.6599 19.8762 13.7061 19.7661 13.7349 19.7104L13.8167 19.6988C13.8551 19.7963 13.8562 19.8253 13.9383 19.8821C14.1922 19.7416 14.2819 19.0119 14.7222 18.9796C14.8195 19.1146 14.8246 19.3407 14.8443 19.5127C14.9048 19.4094 14.9525 19.3878 15.0507 19.3247Z" fill="#6A3311"/>
<path d="M14.7607 21.0162C14.5325 21.2233 14.1088 21.3241 13.8878 21.0404C13.8702 20.8368 13.8553 20.914 13.9508 20.731C14.2605 20.4998 14.5074 20.6617 14.7531 20.8696L14.7607 21.0162Z" fill="#E5A445"/>
<path d="M15.0507 19.3247C15.2719 19.3452 15.3223 19.1716 15.5069 19.22C15.4212 19.6614 14.9038 20.0026 14.5615 20.2279C14.6617 20.0213 14.824 19.7304 14.8443 19.5127C14.9048 19.4094 14.9525 19.3878 15.0507 19.3247Z" fill="#E5A445"/>
<path d="M13.6346 21.0875C13.9452 21.2865 14.2551 21.288 14.3473 21.3914C14.2943 21.8276 13.3833 21.8491 13.1258 21.5975C13.0558 21.5292 13.0763 21.4099 13.0704 21.3089L13.1799 21.4253C13.3611 21.3861 13.478 21.23 13.6346 21.0875Z" fill="#E5A445"/>
<path d="M15.4437 19.9841L15.5422 19.9562L15.5747 20.0235C15.554 20.0683 15.5323 20.1123 15.5067 20.1546C15.3177 20.4659 15.0363 20.6008 14.6955 20.6841C14.6334 20.6476 14.5508 20.6076 14.5085 20.5485C14.4553 20.474 14.4809 20.4321 14.4984 20.3485C14.6816 20.1086 15.164 20.0578 15.4437 19.9841Z" fill="#F3BC6A"/>
<path d="M14.6381 19.088C14.6803 19.1564 14.686 19.2117 14.6901 19.2904C14.7154 19.7723 14.5073 20.2121 14.1853 20.5634C14.1422 20.4632 14.1157 20.3366 14.1097 20.2282C14.088 19.8398 14.3865 19.3648 14.6381 19.088Z" fill="#E7AF60"/>
<path d="M13.8298 19.8927C13.8765 19.9083 13.9032 19.934 13.9406 19.9646C13.9571 20.1686 13.9621 20.3705 13.9639 20.575C13.8677 20.7204 13.7755 20.839 13.6434 20.9537C13.5549 20.8236 13.4904 20.6872 13.4848 20.5275C13.476 20.2747 13.6682 20.0655 13.8298 19.8927Z" fill="#E7AF60"/>
<path d="M13.0704 21.3089C13.0543 21.0924 13.0088 20.8405 13.1079 20.6553L13.1928 20.5826C13.4049 20.645 13.518 20.8434 13.4749 21.0575C13.3731 21.1604 13.2169 21.2931 13.1799 21.4253L13.0704 21.3089Z" fill="#F3BC6A"/>
<path d="M19.5699 20.8236C19.3738 21.4862 17.9581 22.5794 17.4955 23.1158L17.6385 23.2468C17.6717 23.3751 17.6753 23.3957 17.7671 23.4964L17.7778 23.5745C17.8006 23.8432 17.0077 24.1884 16.7591 24.3504C16.9933 24.3203 17.753 24.133 17.8907 24.1417C17.7591 24.3087 16.1676 24.7754 15.9451 24.7576C15.8233 24.676 15.6744 24.7049 15.5256 24.7154C15.6328 24.6588 16.4508 23.8263 16.5449 23.7027C16.0596 23.6997 14.3763 23.7228 14.049 23.5377L14.0633 23.4499C14.9069 23.491 15.707 23.5221 16.5511 23.4856C16.3415 23.3143 15.3902 22.641 15.3564 22.4773L15.4285 22.392C15.8582 22.2587 16.7769 22.5699 16.6863 23.0663C16.6419 23.2064 16.6684 23.1953 16.5696 23.2776C16.6271 23.3607 16.6506 23.3718 16.7328 23.4335C17.542 23.3608 17.8557 21.4586 18.4025 21.25C18.0831 21.9263 17.797 22.1536 17.6103 22.9063C17.8277 22.7099 18.8968 21.4758 19.003 21.4209C19.2596 21.2652 19.2807 21.0194 19.5699 20.8236Z" fill="#7E461D"/>
<path d="M17.4955 23.1158L17.6385 23.2468C17.6717 23.3751 17.6753 23.3957 17.7671 23.4964L17.7778 23.5745C17.1705 23.9139 16.6581 24.5466 16.0023 24.597L15.9686 24.5302C16.1584 24.1533 17.0451 23.6599 17.4955 23.1158Z" fill="#D79D55"/>
<path d="M16.5696 23.2776C16.2571 22.9665 15.9264 22.8469 15.6076 22.4832L15.6172 22.4156C16.0504 22.4508 16.4179 22.7532 16.6863 23.0663C16.6419 23.2064 16.6684 23.1953 16.5696 23.2776Z" fill="#E7AF60"/>
<path d="M19.3892 19.2201C19.2367 19.0022 19.2031 18.7024 19.25 18.4443C19.3717 18.5508 19.2976 18.9078 19.5011 19.1675C19.5808 19.2859 19.6899 19.4606 19.7848 19.5604L19.8458 19.4413C19.9593 19.3578 20.0807 19.3178 20.2118 19.2661C20.3116 19.3347 20.3746 19.3684 20.4416 19.4719C20.4688 19.7703 19.9511 20.6719 19.5349 20.6982L19.5699 20.8236C19.2807 21.0194 19.2596 21.2652 19.003 21.4209C18.9992 21.3249 19.0083 21.1742 19.0114 21.0733C18.9842 21.1295 18.943 21.1964 18.9113 21.2516C18.8216 21.2041 18.6003 20.7402 18.5615 20.6214C18.3436 19.9552 19.1242 19.6488 18.8674 18.9534L18.861 18.9363L18.9082 18.9003C19.074 18.9967 19.0277 18.9442 19.1115 19.1058L19.3892 19.2201Z" fill="#6A3311"/>
<path d="M19.0114 21.0733C18.9277 20.8823 18.7503 20.822 18.7137 20.6396C18.6665 20.4046 18.6661 20.0843 18.7891 19.8752L18.8622 19.8727C19.0909 20.1361 19.0625 20.4944 19.2323 20.6511L19.4224 20.6576L19.5349 20.6982L19.5699 20.8236C19.2807 21.0194 19.2596 21.2652 19.003 21.4209C18.9992 21.3249 19.0083 21.1742 19.0114 21.0733Z" fill="#E7AF60"/>
<path d="M19.1115 19.1058L19.3892 19.2201L19.6398 19.746L19.2694 20.3217L18.9461 19.7195C18.9925 19.4584 19.0077 19.3531 19.1115 19.1058Z" fill="#E5A445"/>
<path d="M19.2323 20.6511C19.377 20.3847 19.6704 19.8006 20.0478 19.9709C20.0917 20.3336 19.7022 20.525 19.4224 20.6576L19.2323 20.6511Z" fill="#E5A445"/>
<path d="M19.8458 19.4413C19.9593 19.3578 20.0807 19.3178 20.2118 19.2661C20.3116 19.3347 20.3746 19.3684 20.4416 19.4719C20.2743 19.6339 19.9932 19.8629 19.7539 19.8787L19.7019 19.8204C19.7257 19.7246 19.739 19.6486 19.7848 19.5604L19.8458 19.4413Z" fill="#E7AF60"/>
<path d="M11.7039 19.1157L11.7409 19.2321C11.6012 19.4445 11.4856 19.5143 11.3322 19.7726C11.2542 19.9039 11.1247 20.2071 11.0849 20.2643C10.8902 20.8931 11.1352 22.1766 11.3848 22.7791C11.3619 22.9685 11.385 23.0538 11.2743 23.1829L11.1747 23.2036C10.7824 22.0713 10.4923 21.3144 11.009 20.156C11.1008 19.7553 11.4247 19.3951 11.7039 19.1157Z" fill="#D09044"/>
<path d="M20.2048 18.071L20.2315 18.2101C20.3812 18.7462 20.0707 18.9345 20.2118 19.2661C20.0807 19.3178 19.9593 19.3578 19.8458 19.4413L19.7848 19.5604C19.6899 19.4606 19.5808 19.2859 19.5011 19.1675L19.6023 19.0094C19.7536 18.6861 19.9852 18.3519 20.2048 18.071Z" fill="#E5A445"/>
<path d="M20.2315 18.2101C20.3812 18.7462 20.0707 18.9345 20.2118 19.2661C20.0807 19.3178 19.9593 19.3578 19.8458 19.4413C19.8497 19.413 19.8503 19.4039 19.8648 19.3783C20.0603 19.0327 20.1426 18.5996 20.2315 18.2101Z" fill="#763D15"/>
<path d="M20.6738 23.9749L20.6569 23.8492C20.9545 23.512 21.6253 23.2286 22.0759 22.787L22.1695 22.8505C21.9048 23.2507 21.1128 23.7921 20.6738 23.9749Z" fill="#B67939"/>
<path d="M17.6385 23.2468C18.1513 23.1971 18.3338 23.1727 18.7672 23.5222L18.7574 23.5685C18.2727 23.5945 18.1917 23.3777 17.7671 23.4964C17.6753 23.3957 17.6717 23.3751 17.6385 23.2468Z" fill="#763D15"/>
<path d="M19.6023 19.0094C19.4638 18.7361 20.0076 18.1383 20.1961 17.9249L20.2459 17.9622L20.2048 18.071C19.9852 18.3519 19.7536 18.6861 19.6023 19.0094Z" fill="#7E461D"/>
<path d="M19.3308 22.6468L19.3684 22.4812C19.7071 22.1517 20.7986 20.9282 21.2401 21.2392C21.3521 21.4512 21.2986 21.7296 21.2537 21.9584C21.12 22.1076 21.0357 22.0135 20.731 22.1641L20.9 22.2559L20.9704 22.2112L21.0039 22.2618C20.9753 22.3155 20.8314 22.5809 20.7935 22.5944C20.3549 22.7507 19.9605 23.0452 19.5419 23.2242C19.6896 23.3131 19.9337 23.4426 20.0372 23.568C19.8224 23.6002 18.9102 22.9647 18.8092 22.7051L18.8494 22.6281C19.0349 22.6395 19.0379 22.6962 19.076 22.8696C19.2044 22.6885 19.1533 22.7013 19.3308 22.6468Z" fill="#8F5125"/>
<path d="M19.3308 22.6468C19.4392 22.6022 19.4839 22.5836 19.5865 22.5187C19.7706 22.5265 19.8517 22.5202 20.0165 22.5974C20.1535 22.8881 19.5392 23.2464 19.076 22.8696C19.2044 22.6885 19.1533 22.7013 19.3308 22.6468Z" fill="#E5A445"/>
<path d="M20.9 22.2559C20.7814 22.4599 20.6276 22.616 20.376 22.6057L20.3313 22.5272C20.3752 22.3701 20.5863 22.2615 20.731 22.1641L20.9 22.2559Z" fill="#E5A445"/>
<path d="M21.0343 21.1953C21.0765 21.2139 21.1115 21.2499 21.1468 21.2793C21.1368 21.4507 21.1432 21.6232 21.1458 21.7948C20.9048 22.0361 20.2113 22.3974 19.8844 22.4437C19.8185 22.4108 19.8023 22.3931 19.7676 22.3284C19.9647 21.9451 20.6774 21.4299 21.0343 21.1953Z" fill="#E5A445"/>
<path d="M14.9577 12.9333C15.1785 12.9272 15.4122 12.906 15.6187 12.9973C16.0816 13.2021 16.4034 13.6178 16.5766 14.0824C16.7753 14.6155 16.8339 15.3786 16.5875 15.9061C16.3879 16.3333 16.0938 16.5175 15.6657 16.6703C15.4087 16.7077 15.2094 16.7004 14.9652 16.607C14.5632 16.4533 14.2596 16.12 14.0865 15.7339C13.8461 15.1973 13.7888 14.467 14.0035 13.9133C14.1748 13.4716 14.5249 13.1242 14.9577 12.9333Z" fill="#FBF4D9"/>
<path d="M15.1186 13.6308C15.226 13.6359 15.3472 13.6376 15.4492 13.6731C15.6817 13.7538 15.8489 13.9882 15.9451 14.2048C16.1205 14.5998 16.1608 15.1397 15.9953 15.5443C15.8932 15.794 15.7642 15.8734 15.5219 15.9783C15.4477 15.9816 15.3714 15.985 15.2976 15.9761C15.0105 15.9416 14.8343 15.6805 14.6688 15.473C14.6108 15.0635 14.5279 14.5945 14.6481 14.1893C14.7309 13.9101 14.8677 13.7702 15.1186 13.6308Z" fill="#F5D19B"/>
<path d="M20.765 12.4551C21.0098 12.4376 21.2725 12.4179 21.5133 12.4765C21.9475 12.5824 22.1617 12.8777 22.3774 13.2356C22.3914 13.4617 22.3764 13.6894 22.3682 13.9155C22.2224 14.0545 22.1039 14.219 21.9812 14.378C22.2205 14.9151 22.5311 15.4275 22.8349 15.9303L22.2589 16.086L21.661 15.0973C21.5356 14.935 21.3657 14.6464 21.1456 14.6195C21.0478 14.6075 21.0296 14.6431 20.9567 14.7014C20.7688 15.1085 20.9168 15.7643 20.9465 16.2086C20.7311 16.2147 20.5191 16.2533 20.3067 16.2867C20.1627 15.0355 20.0028 13.7931 19.9649 12.5332C20.2281 12.4893 20.499 12.4765 20.765 12.4551Z" fill="#FBF4D9"/>
<path d="M20.8368 12.9951C20.9514 12.988 21.0807 12.9752 21.1945 12.9921C21.3635 13.0173 21.5236 13.1404 21.6236 13.2738C21.6979 13.373 21.7317 13.4855 21.7108 13.6089C21.678 13.8017 21.5351 13.9267 21.3815 14.0315L20.7751 14.135C20.7419 13.8461 20.5798 13.3929 20.6685 13.1147C20.692 13.0412 20.77 13.0262 20.8368 12.9951Z" fill="#F3BC6A"/>
<path d="M4.37633 7.04771C4.49796 7.05753 4.60982 7.07078 4.71302 7.14133C4.97216 7.31862 5.27878 7.60946 5.42756 7.88809C5.69321 8.38561 5.83628 9.42425 5.93692 10.0033C6.31603 12.1839 6.353 14.0663 6.43551 16.258C6.44523 16.516 6.54552 17.5515 6.43456 17.7078C6.20688 17.3013 6.3799 16.1325 6.28332 15.6075C6.15929 15.631 6.19245 15.6178 6.09181 15.5828C6.08275 15.5796 6.01922 15.632 6.00385 15.633C5.97249 15.6349 5.89584 15.6056 5.86268 15.5972L5.89274 15.6972C5.93532 16.2931 5.91393 16.9061 5.93422 17.5053C5.94574 17.8448 6.01046 18.1658 5.99298 18.5059C5.83859 18.2343 5.79771 15.8416 5.75783 15.335C5.634 13.761 5.48121 12.2123 5.25864 10.6483C5.16587 9.99626 5.09639 9.32494 4.93418 8.68606C4.79166 8.12446 4.56709 7.59351 4.37633 7.04771Z" fill="#F5D19B"/>
<path d="M3.88872 6.97236L3.99407 7.00634C4.02548 7.08656 4.04556 7.16808 4.0663 7.25148C4.58162 9.32557 4.87112 11.4158 5.13236 13.532C5.24372 14.4337 5.40402 15.3331 5.49364 16.2367C5.56162 16.9219 5.5536 17.6135 5.60455 18.3003C5.65835 19.0253 5.78113 19.7446 5.83393 20.4696C5.94829 22.0406 5.98552 23.6311 6.07368 25.2062C6.09702 25.6232 6.3206 27.5116 6.16445 27.7688C6.02815 27.6276 6.02754 27.2659 6.00836 27.0691C5.90912 26.0503 5.90496 25.018 5.84069 23.996L5.3945 17.6279C5.34145 16.1589 5.14318 13.997 4.84532 12.5577C4.81471 12.4098 4.74984 11.8992 4.63918 11.8266C4.49481 11.9006 4.32389 12.0052 4.16529 12.0383C4.07787 12.0566 3.96361 12.04 3.88446 12.0735C3.37906 12.2875 3.56551 13.9717 3.37615 14.4703C3.37069 13.9955 3.44012 12.8077 3.20253 12.416C3.14382 12.3193 3.06136 12.2091 3.0804 12.0973C3.11652 12.1771 3.12598 12.2271 3.20408 12.2752C3.35106 12.1267 3.21771 11.9619 3.1594 11.7939C3.0011 11.3378 3.21625 10.5798 3.29395 10.1127C3.31384 10.1212 3.29375 10.3208 3.29189 10.3536C3.26324 10.8618 3.14276 11.6154 3.37545 12.0864C3.43436 12.2056 3.49984 12.2523 3.62302 12.29C3.67652 12.2051 3.75241 12.0524 3.82665 11.9896C3.88436 11.9408 4.23502 11.9924 4.62671 11.6353C4.63081 11.3648 4.52296 11.0989 4.47863 10.832C4.33386 9.95987 4.21714 9.11351 4.03169 8.24991C3.97889 8.00412 3.94928 7.72688 3.854 7.49454C3.81573 7.40121 3.80481 7.36803 3.71138 7.32966C3.5896 7.49843 3.67336 7.68398 3.59006 7.86699C3.36553 8.36058 3.21074 10.1577 2.96829 10.4436C3.08806 9.72379 3.27366 9.02811 3.41362 8.31419C3.47945 7.97836 3.48876 7.45453 3.62116 7.15572C3.64471 7.1026 3.81939 7.03444 3.88872 6.97236Z" fill="#7E461D"/>
<path d="M18.8182 12.6943L19.4705 12.6834C19.618 13.4034 19.7747 14.3473 19.7313 15.0775C19.7085 15.4618 19.5814 15.8534 19.279 16.1109C18.9158 16.4202 18.5127 16.3799 18.0713 16.3514C17.9989 16.3087 17.9293 16.2619 17.8625 16.2111C17.1424 15.6661 17.1349 14.9974 17.0239 14.1657C16.9506 13.7545 16.9407 13.3295 16.9322 12.9128C17.1178 12.8853 17.3124 12.8896 17.5 12.8838C17.6728 13.5979 17.5425 15.041 18.0966 15.5693C18.2105 15.6798 18.3663 15.7368 18.525 15.726C18.6423 15.7189 18.7491 15.6688 18.8266 15.5805C19.242 15.1065 18.8566 13.3277 18.8182 12.6943Z" fill="#FBF4D9"/>
<path d="M10.4983 13.3554C10.6323 13.3339 10.8399 13.2953 10.9727 13.3212C11.0769 13.3415 11.1673 13.4235 11.2198 13.5136C11.2864 13.6279 11.2743 13.7028 11.2412 13.8217C10.9688 14.0783 10.1544 14.0195 9.7754 14.0392C9.76899 14.3384 9.80727 14.6428 9.83191 14.9411C10.1757 14.9145 10.5142 14.8455 10.86 14.8349C11.0367 14.8294 11.1056 14.8553 11.2297 14.9719C11.2498 15.1003 11.2562 15.1718 11.1824 15.2876C11.0105 15.5575 10.3108 15.5085 10.0141 15.5879L9.96882 15.6722C10.0124 16.1637 10.0361 16.6569 10.0815 17.1488L9.42029 17.1819C9.18008 16.0059 9.15604 14.7418 9.0562 13.5459C9.53776 13.4697 10.0127 13.4018 10.4983 13.3554Z" fill="#FBF4D9"/>
<path d="M11.8511 13.2447C11.9774 13.2395 12.0904 13.2457 12.2151 13.2659C12.399 13.4383 12.4997 15.8278 12.5375 16.2762C12.8663 16.2781 13.1714 16.1886 13.4955 16.1625C13.6779 16.1478 13.8703 16.1695 14.0109 16.2974C14.12 16.3965 14.1572 16.5248 14.1635 16.6666C14.0612 16.7907 13.937 16.7814 13.7831 16.81C13.1622 16.8967 12.5401 16.9881 11.9137 17.0227C11.826 16.5245 11.57 13.6021 11.7107 13.2962L11.8511 13.2447Z" fill="#FBF4D9"/>
<path d="M10.1033 27.0677C10.252 27.2208 10.2098 27.3697 10.3163 27.532C10.8832 27.4034 11.4182 27.2058 12.0125 27.287C12.1183 27.3014 12.1936 27.3025 12.2589 27.3887C12.2551 27.3945 12.2521 27.4009 12.2475 27.4061C12.0775 27.599 11.0948 27.7587 10.8219 27.7708C10.7866 27.7724 10.7676 27.7978 10.7401 27.8188C10.7493 27.8301 10.7584 27.843 10.77 27.8523C11.1537 28.1574 13.644 28.0654 14.2712 28.0044C14.4623 27.9812 14.8189 27.8963 14.9856 27.975C14.9422 27.9925 14.8963 28.01 14.8503 28.0196C13.9515 28.2075 11.1445 28.2657 10.3874 27.8146C10.4669 27.8074 10.5472 27.8024 10.626 27.7903L10.5833 27.7029C10.4959 27.6433 10.4011 27.6474 10.2987 27.6414C10.1671 27.551 10.1559 27.4315 10.086 27.2927C9.91784 27.3797 9.87261 27.4863 9.67629 27.5257L9.63496 27.485L9.69082 27.3776C9.8695 27.3006 9.97195 27.2051 10.1033 27.0677Z" fill="#E7AF60"/>
<path d="M3.25936 23.1109C3.40418 23.4753 3.43679 23.857 3.5753 24.2209C3.90477 25.0866 4.35392 25.967 4.95049 26.6813C5.24444 27.0333 5.58052 27.3488 5.86731 27.7065C5.76257 27.6915 5.65807 27.5526 5.58052 27.4768L5.54771 27.4383L5.4881 27.4488C5.08414 27.2194 3.83208 25.4386 3.57274 24.9715C3.42792 24.7106 3.33024 24.449 3.24828 24.163L3.44445 24.3342C3.57936 24.0021 3.25284 23.4995 3.25936 23.1109Z" fill="#B67939"/>
<path d="M9.63111 10.3517C9.74432 10.3756 9.88138 10.3583 9.99785 10.3547C9.82107 10.5205 9.7014 10.7351 9.53067 10.9088C9.16508 11.2809 8.76949 11.6299 8.39749 11.9972L8.27967 12.0823C8.16731 12.0485 8.16165 12.0452 8.09492 11.9493C8.09898 11.9264 8.10444 11.9047 8.112 11.8827C8.23674 11.5194 9.27033 10.5288 9.63111 10.3517Z" fill="#F5D19B"/>
<path d="M11.8166 6.97753C12.0415 6.94848 12.3716 6.90942 12.567 7.0428L12.581 7.12392C12.4435 7.21092 12.156 7.25088 12.0708 7.36797L12.2201 7.41411C11.9281 7.56788 11.5453 7.58801 11.2345 7.71766C10.4674 8.03759 9.73361 8.54309 9.04321 8.9989C9.22095 8.73173 9.44913 8.56187 9.66799 8.33282C9.94812 8.28015 10.2753 8.05269 10.5331 7.92389C11.1038 7.63868 11.7035 7.32114 12.3129 7.12965L12.3338 7.12322C12.0625 7.08197 11.0898 7.04913 10.8789 7.15242C10.8577 7.16284 10.8456 7.17091 10.8225 7.17729C10.7292 7.2032 10.656 7.17888 10.5817 7.12771C10.789 6.93593 11.518 7.01286 11.8166 6.97753Z" fill="#D79D55"/>
<path d="M8.98124 25.8528L9.0899 25.8474C9.30325 26.0056 9.64885 26.2139 9.76757 26.4549C9.71121 26.6219 9.63482 26.4676 9.50102 26.5516C9.38866 26.5972 9.26397 26.6142 9.1429 26.6119C8.99176 26.6091 8.79679 26.5327 8.69405 26.4194C8.60899 26.3256 8.61625 26.2476 8.62086 26.1303C8.69039 25.9747 8.83627 25.9226 8.98124 25.8528Z" fill="#F1C887"/>
<path d="M7.85537 24.6755L8.08435 24.6961C8.28207 24.8122 8.43531 24.9824 8.51912 25.1974C8.58349 25.3625 8.55684 25.4779 8.4851 25.634C8.35581 25.5812 8.21925 25.5046 8.07899 25.554C8.01026 25.6595 8.01342 25.6792 8.02298 25.7987C8.12317 25.9182 8.17517 25.9965 8.18148 26.1555C8.18384 26.2161 8.22501 26.2402 8.26519 26.284L8.38727 26.2793L8.45595 26.1887C8.44758 26.0415 8.40701 26.0237 8.31043 25.9166L8.25387 25.8909C8.41703 25.9357 8.44423 25.9345 8.54026 26.0734C8.5365 26.2017 8.52308 26.2355 8.44989 26.3413C8.33066 26.395 8.30612 26.4061 8.17146 26.3814C8.11215 26.1686 7.88763 25.9245 7.88528 25.7312C7.88262 25.5134 8.11391 25.4781 8.24485 25.342C8.19922 25.1885 8.06571 25.1242 7.96077 25.0157C7.86489 24.9166 7.85617 24.8068 7.85537 24.6755Z" fill="#F3BC6A"/>
<path d="M6.05398 28.6054C6.07863 28.6239 6.13874 28.6563 6.1428 28.6859C6.15863 28.8015 5.57072 29.7533 5.46497 29.8952L5.37039 29.7959C5.35492 29.4662 5.87409 28.8916 6.05398 28.6054Z" fill="#763D15"/>
<path d="M21.456 25.334C21.5049 25.5845 20.9396 26.3595 20.7879 26.5959L20.7671 26.534C20.8153 26.0886 21.1457 25.6392 21.456 25.334Z" fill="#7E461D"/>
<path d="M2.16906 24.4687C2.21314 24.5072 2.217 24.5344 2.23624 24.5887C2.08555 24.9377 1.74296 25.2368 1.47656 25.5039L1.42681 25.4555C1.46123 25.2275 2.01211 24.6771 2.16906 24.4687Z" fill="#B67939"/>
<path d="M21.8222 8.29236L21.8273 8.89277C21.5824 8.81161 21.342 8.70368 21.1026 8.60712L21.0703 8.59147L21.063 8.52934C21.2776 8.43726 21.4396 8.65555 21.6571 8.57842C21.7514 8.48375 21.7944 8.42361 21.8222 8.29236Z" fill="#D09044"/>
<path d="M21.1694 30.3332C21.4989 30.1788 22.5511 29.6738 22.8816 29.7043L23.0226 29.6813C23.3953 29.8497 23.777 30.0128 24.1296 30.2204C24.8283 30.6317 25.3539 31.1417 26.1931 31.2416L26.1553 31.3376L25.9223 31.3718L25.7339 31.3455L25.7052 31.3929C25.8615 31.5774 26.0924 31.6826 26.2426 31.8574L26.4111 32.0233L26.4037 32.0842C25.6824 32.1894 25.5169 32.3185 24.8843 32.4941C23.8041 32.7939 22.8009 32.7052 21.8917 32.0321C21.5093 31.7491 21.1452 31.4025 20.7274 31.1754C20.502 31.2109 20.2694 31.2289 20.0743 31.3556L20.021 31.4436C20.1728 31.7728 21.1679 32.0873 21.4785 32.5547C21.411 32.6671 21.4098 32.6637 21.2823 32.6983C21.1186 32.6488 20.9182 32.3642 20.7401 32.2614C20.2515 32.0336 19.7406 31.7763 19.2216 31.6292L19.3243 31.2783C19.6176 30.9814 20.752 30.5319 21.1694 30.3332Z" fill="#50230B"/>
<path d="M21.1694 30.3332C21.4989 30.1788 22.5511 29.6738 22.8816 29.7043C23.1127 30.1222 23.8254 30.1779 24.1055 30.535C24.5637 30.7313 24.9137 31.0612 25.2869 31.3816C25.3604 31.4739 25.4022 31.5367 25.4281 31.6541C25.3803 31.7368 25.3709 31.7693 25.2782 31.8005C25.0503 31.8771 24.7245 31.8161 24.4923 31.7818C23.0098 31.5625 23.1058 31.243 21.9526 30.6636C21.7418 30.6415 21.5093 30.5959 21.3281 30.4837L21.2376 30.5213L21.1694 30.3332Z" fill="#F1C887"/>
<path d="M21.1694 30.3332C21.4989 30.1788 22.5511 29.6738 22.8816 29.7043C23.1127 30.1222 23.8254 30.1779 24.1055 30.535C23.6196 30.3951 23.1575 30.2445 22.6469 30.2294C22.6378 30.233 22.6288 30.2367 22.6197 30.2401C22.4047 30.3227 22.1204 30.2882 21.9414 30.4344C21.9087 30.5464 21.9102 30.5547 21.9526 30.6636C21.7418 30.6415 21.5093 30.5959 21.3281 30.4837L21.2376 30.5213L21.1694 30.3332Z" fill="#8F5125"/>
<path d="M21.3281 30.4837C21.7595 30.29 22.1762 30.2221 22.6469 30.2294C22.6378 30.233 22.6288 30.2367 22.6197 30.2401C22.4047 30.3227 22.1204 30.2882 21.9414 30.4344C21.9087 30.5464 21.9102 30.5547 21.9526 30.6636C21.7418 30.6415 21.5093 30.5959 21.3281 30.4837Z" fill="#E7AF60"/>
<path d="M21.2376 30.5213L21.3281 30.4837C21.5093 30.5959 21.7418 30.6415 21.9526 30.6636C23.1058 31.243 23.0098 31.5625 24.4923 31.7818C24.7245 31.8161 25.0503 31.8771 25.2782 31.8005C25.3709 31.7693 25.3803 31.7368 25.4281 31.6541C25.4022 31.5367 25.3604 31.4739 25.2869 31.3816C25.5408 31.5519 25.7755 31.7387 26.0112 31.933C25.2487 32.0762 24.4897 32.387 23.7065 32.4025C22.4985 32.4266 21.5876 31.5091 20.7731 30.7341C20.922 30.6527 21.0821 30.5892 21.2376 30.5213Z" fill="#D79D55"/>
<path d="M23.1636 0.0755072L23.383 0.121397L23.6015 0.1953C25.4782 0.764625 25.4643 3.13175 24.9929 4.6703C24.9868 4.69023 24.9805 4.71013 24.9739 4.72986C24.8044 4.74053 24.6751 4.73639 24.5051 4.73011C24.7849 4.01326 24.6805 2.69801 24.6264 1.92764C24.4084 1.07783 24.0683 0.691869 23.2597 0.34353C23.1185 0.277948 22.8874 0.261675 22.7329 0.272921C22.8999 0.21423 22.9802 0.18698 23.1317 0.0950643L23.1636 0.0755072Z" fill="#7E461D"/>
<path d="M19.2216 31.6292C19.7406 31.7763 20.2515 32.0336 20.7401 32.2614L20.6137 32.3415L20.7121 32.4836C20.1498 32.5151 19.5425 32.3579 18.9899 32.2613C18.8136 32.2095 18.6094 32.2069 18.4264 32.1886C18.679 31.9854 18.9522 31.8093 19.2216 31.6292Z" fill="#D09044"/>
<path d="M18.9899 32.2613C19.5425 32.3579 20.1498 32.5151 20.7121 32.4836L20.6137 32.3415L20.7401 32.2614C20.9182 32.3642 21.1186 32.6488 21.2823 32.6983C21.4098 32.6637 21.411 32.6671 21.4785 32.5547L21.5656 32.6775L21.5477 32.7453C20.5221 32.7729 19.5052 32.6791 18.491 32.5279L18.5893 32.4874C18.4776 32.4423 18.3431 32.404 18.2606 32.3146C18.501 32.2621 18.745 32.2656 18.9899 32.2613Z" fill="#602D0F"/>
<path d="M27.7157 18.5537C27.8003 18.3515 28.0923 17.909 28.2365 17.7373C28.278 18.0489 28.333 18.2827 28.465 18.5725L28.4565 18.6378L28.3455 18.6539L28.3359 18.7031L28.215 18.6978C28.1183 18.79 28.1004 18.8063 28.0322 18.9251L27.9759 18.5512L27.7202 19.0161L27.6634 19.0299L27.6231 19.0107C27.6009 18.9308 27.6897 18.6514 27.7157 18.5537Z" fill="#763D15"/>
<path d="M27.9759 18.5512L28.1459 18.0873C28.1906 18.2289 28.2777 18.5369 28.3455 18.6539L28.3359 18.7031L28.215 18.6978C28.1183 18.79 28.1004 18.8063 28.0322 18.9251L27.9759 18.5512Z" fill="#E5A445"/>
<path d="M16.4804 33.2292C16.4097 33.1694 16.3234 33.102 16.2736 33.0237C16.2081 32.9207 16.1836 32.7741 16.215 32.6562C16.2968 32.3491 16.6418 32.1749 16.8916 32.0214L16.8178 32.4032L16.8495 32.4412C16.6827 32.6262 16.4745 32.7988 16.4158 33.0467L16.4804 33.2292Z" fill="#602D0F"/>
<path d="M28.6417 26.2203C28.7986 26.098 29.0261 26.1436 29.154 25.9929C29.6916 25.9994 30.2234 26.0108 30.7589 26.0615C30.4937 26.0552 29.9484 25.9793 29.7615 26.1736C29.7414 26.1945 29.7261 26.2199 29.7106 26.2441C29.371 26.278 29.0309 26.3021 28.7037 26.4053C28.6098 26.3277 28.5441 26.4038 28.4503 26.3889C28.5231 26.3468 28.5709 26.305 28.625 26.2406C28.6306 26.2339 28.6362 26.2271 28.6417 26.2203Z" fill="#763D15"/>
<path d="M17.1188 32.2282C17.2753 32.265 17.3249 32.291 17.4145 32.428C17.4174 32.4324 17.4201 32.4372 17.4229 32.4418C17.1582 32.6369 16.7422 33.015 16.4158 33.0467C16.4745 32.7988 16.6827 32.6262 16.8495 32.4412L17.1188 32.2282Z" fill="#F1C887"/>
<path d="M28.4766 17.521C28.4991 17.7836 28.545 18.3284 28.465 18.5725C28.333 18.2827 28.278 18.0489 28.2365 17.7373C28.3316 17.6886 28.4019 17.6004 28.4766 17.521Z" fill="#E5A445"/>
<path d="M26.2426 31.8574C26.0924 31.6826 25.8615 31.5774 25.7052 31.3929L25.7339 31.3455L25.9223 31.3718C26.0221 31.4143 26.2981 31.4955 26.3471 31.5796L26.2426 31.8574Z" fill="#E5A445"/>
</svg>
