<svg width="20" height="38" viewBox="0 0 20 38" fill="none" xmlns="http://www.w3.org/2000/svg">
<path d="M3.76118 4.6435C3.99084 3.91017 3.62532 2.8434 3.86683 1.89099C3.97257 1.47409 4.19221 1.18125 4.55815 0.964109C6.78318 -0.356256 11.8378 -0.132365 14.2485 0.520332C16.0913 1.01926 16.1143 1.98973 16.0067 3.68059C15.987 3.99008 15.9306 4.22238 16.0953 4.50608L16.1066 4.52512C16.1239 4.65351 16.1855 5.09547 16.1567 5.19089C15.8897 6.0128 15.3361 6.24286 15.6182 7.2308C16.0005 8.57001 17.0395 9.65125 17.762 10.8272C19.0222 12.8784 19.7655 14.7839 19.8932 17.2136C20.0514 20.2258 19.9788 23.2361 19.9812 26.2561L19.9926 30.0372C19.9967 31.5384 20.1225 34.0531 19.1463 35.2789C17.866 36.8865 15.2608 37.563 13.3069 37.8158C9.75432 38.2216 4.47465 38.1103 1.49457 35.8819C0.648576 35.2493 0.181516 34.4756 0.0955378 33.4401C0.0139233 32.4571 0.0199038 31.5739 0.0237825 30.5905C0.0313244 29.4109 0.0290615 28.2313 0.0169944 27.0518L0.00907519 20.9962C0.00196423 18.2184 -0.138531 15.6177 0.997337 13.0311C1.47684 11.9391 1.98678 10.9727 2.65554 9.97488C3.51979 8.61609 4.35597 7.99308 4.52513 6.27719C4.29235 6.01856 3.92269 5.63965 3.77815 5.33827L3.76463 5.31069C3.68577 5.14519 3.69368 4.81166 3.76118 4.6435Z" fill="#3B647D"/>
<path d="M14.8235 4.99434C15.2043 4.82281 15.2953 4.74224 15.5989 4.42519C15.614 4.67222 15.676 5.18208 15.563 5.37727L15.5334 5.37542C15.3103 5.63002 15.1497 5.6619 14.987 5.81967L14.9928 6.08221C14.9895 6.54686 14.9522 7.29853 15.1001 7.72085C15.3841 8.53144 16.0533 9.45578 16.561 10.14C18.5744 12.8204 19.3718 15.4486 19.3712 18.7956C19.3708 21.6424 19.4214 24.6117 19.323 27.4632C19.2689 29.0306 19.6515 33.4893 18.7435 34.6075C17.7128 36.0905 15.5096 36.8485 13.7997 37.1509C12.9298 37.3048 11.7766 37.5265 10.8997 37.4758C8.24237 37.6579 4.48137 37.1644 2.23167 35.6171C1.2503 34.9422 0.761533 34.0998 0.540824 32.9327C0.433621 32.7055 0.443911 32.742 0.220777 32.6338C0.144011 31.74 0.25353 29.5679 0.369676 28.6762L0.380504 28.7456C0.471869 27.8239 0.363858 26.8632 0.45226 25.9893C0.477041 25.7644 0.454254 25.5243 0.459102 25.295C0.555208 20.6152 -0.234378 15.5736 2.48098 11.4517C3.50028 9.90443 5.09723 8.27199 5.00629 6.35427C4.96519 6.23122 4.97187 5.97906 4.96901 5.83865C4.65096 5.58541 4.28383 5.36476 4.22769 4.96164C4.26594 4.78397 4.29654 4.72962 4.37875 4.56614C7.00851 6.09206 10.6308 5.94751 13.5497 5.43325C13.9274 5.36672 14.4311 5.07882 14.8235 4.99434Z" fill="#EDE3CD"/>
<path d="M6.41915 12.096L6.43202 12.129L6.49279 12.143L6.48746 12.2627C6.84823 12.5991 8.36243 12.0923 8.79011 12.1184C9.158 12.1414 10.1191 12.1588 10.4773 12.1246C12.3785 12.1789 15.7278 12.6367 17.3373 13.918C17.427 13.9894 17.5926 14.256 17.6608 14.3677C17.7679 14.8324 18.1109 16.4627 18.3649 16.7456L18.2697 16.7839C17.2414 17.5525 15.5985 18.0694 14.3256 18.2578C12.3972 18.4849 10.5893 18.6594 8.64709 18.5178C8.20707 18.4857 7.64046 18.3947 7.21768 18.388C6.57144 18.3188 5.92725 18.2316 5.28576 18.1266C4.45006 17.9587 3.62578 17.7376 2.81777 17.4645C2.87908 17.3614 3.12392 15.6336 3.22299 15.29C2.84465 15.0787 2.58828 14.9212 2.29436 14.6012L2.26155 14.5209L2.26495 14.4816C2.25573 14.2171 2.30524 14.0041 2.35249 13.7454L2.39774 13.58L2.64915 13.4574L2.80883 13.6818C3.14843 13.379 3.7144 13.003 4.1771 12.9564C4.23635 12.8045 4.3045 12.7137 4.39468 12.5796L4.44995 12.4058C4.56674 12.5047 4.51826 12.4881 4.6476 12.5104C4.93253 12.2119 5.95941 12.4256 6.41915 12.096Z" fill="#F8EFDB"/>
<path d="M10.4773 12.1246C12.3785 12.1789 15.7278 12.6367 17.3373 13.918C17.427 13.9894 17.5926 14.256 17.6608 14.3677C17.7679 14.8324 18.1109 16.4627 18.3649 16.7456L18.2697 16.7839C17.2414 17.5525 15.5985 18.0694 14.3256 18.2578C14.0536 18.1856 13.7959 16.3481 13.7381 16.0114L13.6932 15.9789C13.5932 15.9054 13.5822 15.9056 13.4499 15.9178C11.4359 16.104 9.63014 16.1093 7.60422 15.9492C7.67985 15.2867 8.12768 14.1537 8.34311 13.4773C8.48382 13.0354 8.75079 12.6121 8.79011 12.1184C9.158 12.1414 10.1191 12.1588 10.4773 12.1246Z" fill="#93B8CC"/>
<path d="M17.6608 14.3677C17.7679 14.8324 18.1109 16.4627 18.3649 16.7456L18.2697 16.7839C17.2414 17.5525 15.5985 18.0694 14.3256 18.2578C14.0536 18.1856 13.7959 16.3481 13.7381 16.0114C15.0271 15.8144 16.7379 15.3516 17.6608 14.3677Z" fill="#588CAD"/>
<path d="M13.6932 15.9789L13.7381 16.0114C13.7959 16.3481 14.0536 18.1856 14.3256 18.2578C12.3972 18.4849 10.5893 18.6594 8.64709 18.5178C8.20707 18.4857 7.64046 18.3947 7.21768 18.388C7.21827 17.9034 7.42572 16.8594 7.56616 16.386C7.70681 16.2994 7.82469 16.3239 8.00537 16.3166C9.45988 16.4287 12.3204 16.4997 13.6932 15.9789Z" fill="#93B8CC"/>
<path d="M6.49279 12.143L6.48746 12.2627C6.84823 12.5991 8.36243 12.0923 8.79011 12.1184C8.75079 12.6121 8.48382 13.0354 8.34311 13.4773C8.12768 14.1537 7.67985 15.2867 7.60422 15.9492C6.86031 15.9093 6.1457 15.736 5.42361 15.5657C5.6531 15.1771 6.10115 12.8309 6.43202 12.129L6.49279 12.143Z" fill="#ABC8DA"/>
<path d="M6.41915 12.096L6.43202 12.129C6.10115 12.8309 5.6531 15.1771 5.42361 15.5657C5.28269 15.4631 4.19437 15.2498 3.73889 15.0155C3.99235 14.3435 4.14809 13.7231 4.35894 13.0429C4.42219 12.8389 4.57768 12.801 4.6476 12.5104C4.93253 12.2119 5.95941 12.4256 6.41915 12.096Z" fill="#D9E4EB"/>
<path d="M3.22299 15.29C3.48356 15.4032 3.83295 15.5665 4.0939 15.655C4.49464 15.7357 5.01789 15.9636 5.38179 15.9578C5.36067 16.4157 5.3464 17.1404 5.28978 17.5734C5.29242 17.7566 5.29874 17.9442 5.28576 18.1266C4.45006 17.9587 3.62578 17.7376 2.81777 17.4645C2.87908 17.3614 3.12392 15.6336 3.22299 15.29Z" fill="#C0D5DF"/>
<path d="M4.0939 15.655C4.49464 15.7357 5.01789 15.9636 5.38179 15.9578C5.36067 16.4157 5.3464 17.1404 5.28978 17.5734C4.71277 17.4194 4.74656 16.6597 4.56367 16.1936C4.41461 15.8138 4.45677 15.8306 4.0939 15.655Z" fill="#D9E4EB"/>
<path d="M5.38179 15.9578C6.14061 16.0533 6.8914 16.2153 7.65841 16.2673C7.771 16.2749 7.8972 16.2865 8.00537 16.3166C7.82469 16.3239 7.70681 16.2994 7.56616 16.386C7.42572 16.8594 7.21827 17.9034 7.21768 18.388C6.57144 18.3188 5.92725 18.2316 5.28576 18.1266C5.29874 17.9442 5.29242 17.7566 5.28978 17.5734C5.3464 17.1404 5.36067 16.4157 5.38179 15.9578Z" fill="#ABC8DA"/>
<path d="M4.1771 12.9564C4.1264 13.1491 3.9149 13.541 3.81697 13.7566C3.62508 14.1789 3.57105 14.4032 3.46697 14.8516C3.09224 14.7482 2.77936 14.652 2.41212 14.5244L2.29436 14.6012L2.26155 14.5209L2.26495 14.4816C2.25573 14.2171 2.30524 14.0041 2.35249 13.7454L2.39774 13.58L2.64915 13.4574L2.80883 13.6818C3.14843 13.379 3.7144 13.003 4.1771 12.9564Z" fill="#C0D5DF"/>
<path d="M2.64915 13.4574L2.80883 13.6818C2.54637 13.9537 2.45096 14.1493 2.26495 14.4816C2.25573 14.2171 2.30524 14.0041 2.35249 13.7454L2.39774 13.58L2.64915 13.4574Z" fill="#93B8CC"/>
<path d="M14.8235 4.99434C15.2043 4.82281 15.2953 4.74224 15.5989 4.42519C15.614 4.67222 15.676 5.18208 15.563 5.37727L15.5334 5.37542C15.3103 5.63002 15.1497 5.6619 14.987 5.81967L14.9928 6.08221C14.91 6.14717 14.4272 6.49692 14.3839 6.54762C14.1726 6.62427 13.9716 6.69766 13.7563 6.76354C13.8931 6.91924 13.9144 7.19337 13.9671 7.42566C14.1666 8.59998 15.2207 9.88006 15.9077 10.8207C15.9614 10.8942 16.1922 11.2278 16.2414 11.273C16.5735 11.8099 17.272 12.8617 17.4309 13.4156L17.4011 13.5261C17.4693 13.6183 17.4472 13.5856 17.5293 13.6257C17.7142 13.7159 17.8919 14.0302 17.9838 14.2059C18.1326 14.6694 18.304 15.1607 18.3964 15.6366C18.4911 15.7765 18.5263 16.2272 18.5341 16.4045C18.5243 16.8089 18.6011 17.1914 18.4384 17.5357C18.4078 17.3195 18.404 16.9072 18.2697 16.7839L18.3649 16.7456C18.1109 16.4627 17.7679 14.8324 17.6608 14.3677C17.5926 14.256 17.427 13.9894 17.3373 13.918C15.7278 12.6367 12.3785 12.1789 10.4773 12.1246C10.1191 12.1588 9.158 12.1414 8.79011 12.1184C8.36243 12.0923 6.84823 12.5991 6.48746 12.2627L6.49279 12.143L6.43202 12.129L6.41915 12.096C5.95941 12.4256 4.93253 12.2119 4.6476 12.5104C4.51826 12.4881 4.56674 12.5047 4.44995 12.4058L4.39468 12.5796C4.3045 12.7137 4.23635 12.8045 4.1771 12.9564C3.7144 13.003 3.14843 13.379 2.80883 13.6818L2.64915 13.4574L2.39774 13.58C2.87223 12.1398 4.31161 10.483 5.07959 9.144C5.51051 8.3926 5.64729 7.69914 6.017 6.96183C6.1346 6.82904 6.15787 6.80037 6.30742 6.70821C5.77873 6.58358 5.18163 6.19292 5.05573 6.1803L5.00629 6.35427C4.96519 6.23122 4.97187 5.97906 4.96901 5.83865C4.65096 5.58541 4.28383 5.36476 4.22769 4.96164C4.26594 4.78397 4.29654 4.72962 4.37875 4.56614C7.00851 6.09206 10.6308 5.94751 13.5497 5.43325C13.9274 5.36672 14.4311 5.07882 14.8235 4.99434Z" fill="#ECE8DD"/>
<path d="M14.8235 4.99434C15.2043 4.82281 15.2953 4.74224 15.5989 4.42519C15.614 4.67222 15.676 5.18208 15.563 5.37727L15.5334 5.37542C15.3103 5.63002 15.1497 5.6619 14.987 5.81967L14.9928 6.08221C14.91 6.14717 14.4272 6.49692 14.3839 6.54762C14.1726 6.62427 13.9716 6.69766 13.7563 6.76354C10.8987 7.56221 9.09357 7.38965 6.30742 6.70821C5.77873 6.58358 5.18163 6.19292 5.05573 6.1803L5.00629 6.35427C4.96519 6.23122 4.97187 5.97906 4.96901 5.83865C4.65096 5.58541 4.28383 5.36476 4.22769 4.96164C4.26594 4.78397 4.29654 4.72962 4.37875 4.56614C7.00851 6.09206 10.6308 5.94751 13.5497 5.43325C13.9274 5.36672 14.4311 5.07882 14.8235 4.99434Z" fill="#C4C9C9"/>
<path d="M14.8509 5.84376L14.987 5.81967L14.9928 6.08221C14.91 6.14717 14.4272 6.49692 14.3839 6.54762C14.1726 6.62427 13.9716 6.69766 13.7563 6.76354C10.8987 7.56221 9.09357 7.38965 6.30742 6.70821C5.77873 6.58358 5.18163 6.19292 5.05573 6.1803L5.00629 6.35427C4.96519 6.23122 4.97187 5.97906 4.96901 5.83865C5.47351 6.08912 5.87834 6.21505 6.42658 6.34763C6.75757 6.4257 7.61982 6.64396 7.92592 6.63928C9.02666 6.94725 12.0066 6.63357 13.1263 6.32957C13.6562 6.18568 14.3346 5.93935 14.8509 5.84376Z" fill="#788B8D"/>
<path d="M4.22769 4.96164C4.37999 4.81628 4.33723 4.80971 4.50444 4.7998C4.86586 5.07992 5.08199 5.41797 5.48581 5.63357L5.51904 5.65174C5.7662 5.78448 6.3409 5.90938 6.62071 5.92445C6.56301 6.05366 6.4915 6.22686 6.42658 6.34763C5.87834 6.21505 5.47351 6.08912 4.96901 5.83865C4.65096 5.58541 4.28383 5.36476 4.22769 4.96164Z" fill="#F8EFDB"/>
<path d="M6.62071 5.92445C6.88171 5.94507 8.68897 6.16892 8.80065 6.26554L8.30945 6.21413L8.24007 6.27364C8.26178 6.43163 8.3129 6.46073 8.4298 6.56861L8.56184 6.60343C8.65099 6.53591 8.62374 6.57193 8.65003 6.44017L8.70998 6.50697L8.68601 6.60359C8.48421 6.70315 8.18709 6.61398 7.92592 6.63928C7.61982 6.64396 6.75757 6.4257 6.42658 6.34763C6.4915 6.22686 6.56301 6.05366 6.62071 5.92445Z" fill="#F8EFDB"/>
<path d="M14.8235 4.99434C15.2043 4.82281 15.2953 4.74224 15.5989 4.42519C15.614 4.67222 15.676 5.18208 15.563 5.37727L15.5334 5.37542C15.3103 5.63002 15.1497 5.6619 14.987 5.81967L14.8509 5.84376L14.6178 5.74889L14.8806 5.57339C14.961 5.51915 14.9389 5.52535 14.9841 5.41802C15.0599 5.24192 15.2609 5.11277 15.2791 4.93493L14.8461 5.06495L14.8235 4.99434Z" fill="#B4B6B0"/>
<path d="M14.9841 5.41802C15.1838 5.32276 15.2997 5.22534 15.4956 5.24732L15.5334 5.37542C15.3103 5.63002 15.1497 5.6619 14.987 5.81967L14.8509 5.84376L14.6178 5.74889L14.8806 5.57339C14.961 5.51915 14.9389 5.52535 14.9841 5.41802Z" fill="#DBD3C8"/>
<path d="M13.2353 5.81322C13.6105 5.67542 14.3383 5.36119 14.7321 5.39519C14.7706 5.39851 14.8475 5.52715 14.8806 5.57339L14.6178 5.74889C14.133 5.8281 13.7252 5.81414 13.2353 5.81322Z" fill="#949996"/>
<path d="M9.72272 11.9156C11.5903 11.8731 14.3326 12.1175 16.0873 12.7713C16.5562 12.946 16.9941 13.2364 17.4011 13.5261C17.4693 13.6183 17.4472 13.5856 17.5293 13.6257C17.7142 13.7159 17.8919 14.0302 17.9838 14.2059C18.1326 14.6694 18.304 15.1607 18.3964 15.6366C18.4911 15.7765 18.5263 16.2272 18.5341 16.4045C18.5243 16.8089 18.6011 17.1914 18.4384 17.5357C18.4078 17.3195 18.404 16.9072 18.2697 16.7839L18.3649 16.7456C18.1109 16.4627 17.7679 14.8324 17.6608 14.3677C17.5926 14.256 17.427 13.9894 17.3373 13.918C15.7278 12.6367 12.3785 12.1789 10.4773 12.1246C10.0736 12.0664 9.34633 12.06 8.911 12.0455C9.11113 11.9954 9.45628 11.9742 9.72272 11.9156Z" fill="#6892A9"/>
<path d="M18.3964 15.6366C18.4911 15.7765 18.5263 16.2272 18.5341 16.4045C18.5243 16.8089 18.6011 17.1914 18.4384 17.5357C18.4078 17.3195 18.404 16.9072 18.2697 16.7839L18.3649 16.7456C18.5833 16.4698 18.3688 16.0506 18.3964 15.6366Z" fill="#99A8AD"/>
<path d="M4.44995 12.4058C4.86998 11.6232 5.40682 10.4388 6.13656 9.94975C6.25093 9.8731 6.65911 9.7458 6.80741 9.69923C6.82508 10.6861 6.70563 11.1605 6.41915 12.096C5.95941 12.4256 4.93253 12.2119 4.6476 12.5104C4.51826 12.4881 4.56674 12.5047 4.44995 12.4058Z" fill="#F8EFDB"/>
<path d="M6.49279 12.143C7.32267 12.0574 8.96007 11.8898 9.72272 11.9156C9.45628 11.9742 9.11113 11.9954 8.911 12.0455C9.34633 12.06 10.0736 12.0664 10.4773 12.1246C10.1191 12.1588 9.158 12.1414 8.79011 12.1184C8.36243 12.0923 6.84823 12.5991 6.48746 12.2627L6.49279 12.143Z" fill="#93B8CC"/>
<path d="M2.64915 13.4574C2.73621 13.2568 4.14897 12.524 4.39468 12.5796C4.3045 12.7137 4.23635 12.8045 4.1771 12.9564C3.7144 13.003 3.14843 13.379 2.80883 13.6818L2.64915 13.4574Z" fill="#93B8CC"/>
<path d="M6.5557 7.19868C6.85959 7.27817 7.06478 7.50551 7.34432 7.57966C7.39296 7.59261 7.52958 7.48631 7.57822 7.45633L7.64739 7.49741C7.63554 7.99546 7.39135 8.8964 7.1166 9.3073C6.83847 9.48487 6.49924 9.26933 6.19363 9.36034C6.18049 9.36426 6.1674 9.36861 6.15425 9.37275C6.11315 9.007 6.46584 7.6599 6.5557 7.19868Z" fill="#F8EFDB"/>
<path d="M7.46309 9.98065C7.70406 10.1245 7.8821 10.4558 8.03854 10.6833C7.90871 10.9608 7.77549 11.1645 7.52133 11.3401C7.38897 11.3775 7.285 11.4016 7.14693 11.3898C7.08104 11.3328 7.04646 11.3151 7.02566 11.2277C6.93753 10.8566 7.27315 10.2901 7.46309 9.98065Z" fill="#F8EFDB"/>
<path d="M5.00629 6.35427L5.05573 6.1803C5.18163 6.19292 5.77873 6.58358 6.30742 6.70821C6.15787 6.80037 6.1346 6.82904 6.017 6.96183C5.64729 7.69914 5.51051 8.3926 5.07959 9.144C4.31161 10.483 2.87223 12.1398 2.39774 13.58L2.35249 13.7454C2.30524 14.0041 2.25573 14.2171 2.26495 14.4816L2.26155 14.5209L2.29436 14.6012C2.58828 14.9212 2.84465 15.0787 3.22299 15.29C3.12392 15.6336 2.87908 17.3614 2.81777 17.4645C2.50128 17.3668 1.88512 16.9246 1.5661 16.8922C1.40658 17.7404 1.41768 19.2345 1.40761 20.1339C1.38574 21.9406 1.38024 23.7475 1.39107 25.5543L1.37685 29.4193C1.37334 30.0903 1.3512 31.2879 1.4145 31.9293C1.48524 32.0984 1.48222 32.2726 1.52106 32.4489C1.65805 33.0713 1.8549 33.599 2.25704 34.0929C2.53442 34.3195 2.77248 34.5948 3.08224 34.7783L3.03973 34.9235C3.14112 35.0716 3.34852 35.1667 3.52102 35.2059C3.52872 35.2076 3.53664 35.2084 3.5445 35.2097L3.64476 35.3382L3.61007 35.4522C3.90598 35.7127 4.49786 35.7878 4.87215 35.8784C5.01227 35.9512 5.21289 36.0232 5.27328 36.1786C5.25652 36.2661 5.23842 36.3117 5.17679 36.3761C6.29591 36.6537 7.92647 37.2159 9.01666 37.3475C9.64517 37.4233 10.2716 37.3401 10.8989 37.3798L10.9288 37.4314L10.8997 37.4758C8.24237 37.6579 4.48137 37.1644 2.23167 35.6171C1.2503 34.9422 0.761533 34.0998 0.540824 32.9327C0.433621 32.7055 0.443911 32.742 0.220777 32.6338C0.144011 31.74 0.25353 29.5679 0.369676 28.6762L0.380504 28.7456C0.471869 27.8239 0.363858 26.8632 0.45226 25.9893C0.477041 25.7644 0.454254 25.5243 0.459102 25.295C0.555208 20.6152 -0.234378 15.5736 2.48098 11.4517C3.50028 9.90443 5.09723 8.27199 5.00629 6.35427Z" fill="#E5E6E3"/>
<path d="M1.57665 16.8615C1.88382 16.3991 1.92788 14.9471 2.26155 14.5209L2.29436 14.6012C2.58828 14.9212 2.84465 15.0787 3.22299 15.29C3.12392 15.6336 2.87908 17.3614 2.81777 17.4645C2.50128 17.3668 1.88512 16.9246 1.5661 16.8922L1.57665 16.8615Z" fill="#ABC8DA"/>
<path d="M1.25665 31.6297C1.30072 30.8914 1.23645 29.754 1.24119 28.9596L1.24437 21.1605C1.24765 19.6749 1.20601 18.1252 1.43335 16.6606C1.47036 16.7138 1.53738 16.8171 1.57665 16.8615L1.5661 16.8922C1.40658 17.7404 1.41768 19.2345 1.40761 20.1339C1.38574 21.9406 1.38024 23.7475 1.39107 25.5543L1.37685 29.4193C1.37334 30.0903 1.3512 31.2879 1.4145 31.9293L1.33315 31.9344L1.25665 31.6297Z" fill="#949996"/>
<path d="M5.17679 36.3761C4.73931 36.2921 4.29727 36.1993 3.87104 36.0675C3.12364 35.8363 2.06599 35.422 1.67537 34.6777L1.70511 34.6011C2.1072 34.5698 3.09258 35.2971 3.61007 35.4522C3.90598 35.7127 4.49786 35.7878 4.87215 35.8784C5.01227 35.9512 5.21289 36.0232 5.27328 36.1786C5.25652 36.2661 5.23842 36.3117 5.17679 36.3761Z" fill="#93B8CC"/>
<path d="M2.28327 13.6447C2.46385 12.0102 4.73785 10.0416 5.21692 8.43014C5.29913 8.15367 5.69072 6.91679 5.95134 6.83632L6.017 6.96183C5.64729 7.69914 5.51051 8.3926 5.07959 9.144C4.31161 10.483 2.87223 12.1398 2.39774 13.58L2.35249 13.7454L2.28327 13.6447Z" fill="#99A8AD"/>
<path d="M0.45226 25.9893C0.565713 27.5462 0.466321 29.3308 0.501444 30.9015C0.516259 31.5648 0.472893 32.2735 0.540824 32.9327C0.433621 32.7055 0.443911 32.742 0.220777 32.6338C0.144011 31.74 0.25353 29.5679 0.369676 28.6762L0.380504 28.7456C0.471869 27.8239 0.363858 26.8632 0.45226 25.9893Z" fill="#306288"/>
<path d="M2.28327 13.6447L2.35249 13.7454C2.30524 14.0041 2.25573 14.2171 2.26495 14.4816L2.26155 14.5209C1.92788 14.9471 1.88382 16.3991 1.57665 16.8615C1.53738 16.8171 1.47036 16.7138 1.43335 16.6606C1.57325 15.4213 1.75426 14.7483 2.28327 13.6447Z" fill="#588CAD"/>
<path d="M1.25665 31.6297L1.33315 31.9344L1.4145 31.9293C1.48524 32.0984 1.48222 32.2726 1.52106 32.4489C1.65805 33.0713 1.8549 33.599 2.25704 34.0929C2.07954 34.0835 1.93177 33.9134 1.81336 33.7859C1.24885 33.178 1.22638 32.4128 1.25665 31.6297Z" fill="#DBD3C8"/>
<path d="M14.3839 6.54762C14.4272 6.49692 14.91 6.14717 14.9928 6.08221C14.9895 6.54686 14.9522 7.29853 15.1001 7.72085C15.3841 8.53144 16.0533 9.45578 16.561 10.14C18.5744 12.8204 19.3718 15.4486 19.3712 18.7956C19.3708 21.6424 19.4214 24.6117 19.323 27.4632C19.2689 29.0306 19.6515 33.4893 18.7435 34.6075C18.7184 34.5813 18.664 34.5068 18.6302 34.5055C18.4417 34.4981 17.9489 34.8797 17.7706 34.9874C17.8874 34.7179 17.9124 34.4133 17.8826 34.124L17.9372 34.0756C18.0546 33.8668 18.1891 33.6668 18.318 33.4651L18.409 33.2453L18.3166 33.0971C18.7955 31.5083 18.5182 28.0753 18.5025 26.3023C18.4855 24.3592 18.4937 22.405 18.5302 20.4541C18.547 19.5593 18.3944 18.4172 18.4384 17.5357C18.6011 17.1914 18.5243 16.8089 18.5341 16.4045C18.5263 16.2272 18.4911 15.7765 18.3964 15.6366C18.304 15.1607 18.1326 14.6694 17.9838 14.2059C17.8919 14.0302 17.7142 13.7159 17.5293 13.6257C17.4472 13.5856 17.4693 13.6183 17.4011 13.5261L17.4309 13.4156C17.272 12.8617 16.5735 11.8099 16.2414 11.273C16.1922 11.2278 15.9614 10.8942 15.9077 10.8207C15.2207 9.88006 14.1666 8.59998 13.9671 7.42566C13.9144 7.19337 13.8931 6.91924 13.7563 6.76354C13.9716 6.69766 14.1726 6.62427 14.3839 6.54762Z" fill="#C8CCCC"/>
<path d="M18.5341 16.4045C19.074 17.9037 18.7132 20.347 18.8049 21.9678C18.9378 24.3183 18.986 26.6396 18.838 28.9914C18.7937 29.695 18.8629 32.8616 18.409 33.2453L18.3166 33.0971C18.7955 31.5083 18.5182 28.0753 18.5025 26.3023C18.4855 24.3592 18.4937 22.405 18.5302 20.4541C18.547 19.5593 18.3944 18.4172 18.4384 17.5357C18.6011 17.1914 18.5243 16.8089 18.5341 16.4045Z" fill="#B4B6B0"/>
<path d="M16.2414 11.273L16.3634 11.2317C16.8722 11.5175 17.8266 13.6267 17.9838 14.2059C17.8919 14.0302 17.7142 13.7159 17.5293 13.6257C17.4472 13.5856 17.4693 13.6183 17.4011 13.5261L17.4309 13.4156C17.272 12.8617 16.5735 11.8099 16.2414 11.273Z" fill="#93B8CC"/>
<path d="M18.318 33.4651L18.4593 33.4912C18.5174 33.6062 18.5123 33.6503 18.4754 33.7745C18.4258 33.9415 18.2754 34.2123 18.1118 34.2907C18.0865 34.3027 18.0605 34.3085 18.0331 34.3127L17.9587 34.254L17.9372 34.0756C18.0546 33.8668 18.1891 33.6668 18.318 33.4651Z" fill="#D9E4EB"/>
<path d="M13.7563 6.76354C13.9716 6.69766 14.1726 6.62427 14.3839 6.54762C14.0844 6.85711 14.0599 6.99915 13.9671 7.42566C13.9144 7.19337 13.8931 6.91924 13.7563 6.76354Z" fill="#93B8CC"/>
<path d="M17.7706 34.9874C17.9489 34.8797 18.4417 34.4981 18.6302 34.5055C18.664 34.5068 18.7184 34.5813 18.7435 34.6075C17.7128 36.0905 15.5096 36.8485 13.7997 37.1509C12.9298 37.3048 11.7766 37.5265 10.8997 37.4758L10.9288 37.4314L10.8989 37.3798C10.2716 37.3401 9.64517 37.4233 9.01666 37.3475C7.92647 37.2159 6.29591 36.6537 5.17679 36.3761C5.23842 36.3117 5.25652 36.2661 5.27328 36.1786C5.21289 36.0232 5.01227 35.9512 4.87215 35.8784C5.1108 35.7455 5.75617 35.967 6.03678 36.0116C6.83375 36.2166 7.63826 36.2996 8.45284 36.3933C8.45769 36.4023 8.46194 36.4115 8.46728 36.4202C8.53478 36.5295 8.73776 36.5607 8.85331 36.5779C10.0473 36.7552 11.3388 36.688 12.534 36.556C12.9096 36.5145 13.2903 36.4121 13.665 36.3901C14.1328 36.3626 14.6089 36.479 15.0715 36.3579C16.04 36.1046 16.9725 35.5875 17.7706 34.9874Z" fill="#B6C3C6"/>
<path d="M17.6392 34.1411C17.7474 34.1765 17.7779 34.1577 17.8826 34.124C17.9124 34.4133 17.8874 34.7179 17.7706 34.9874C16.9725 35.5875 16.04 36.1046 15.0715 36.3579C14.6089 36.479 14.1328 36.3626 13.665 36.3901C13.2903 36.4121 12.9096 36.5145 12.534 36.556C11.3388 36.688 10.0473 36.7552 8.85331 36.5779C8.73776 36.5607 8.53478 36.5295 8.46728 36.4202C8.46194 36.4115 8.45769 36.4023 8.45284 36.3933C10.5704 36.7374 14.0389 36.3463 15.9713 35.4038C16.3071 35.24 17.1257 34.8214 17.2512 34.46L17.6392 34.1411Z" fill="#99A8AD"/>
<path d="M17.2512 34.46C17.1257 34.8214 16.3071 35.24 15.9713 35.4038C14.0389 36.3463 10.5704 36.7374 8.45284 36.3933C7.63826 36.2996 6.83375 36.2166 6.03678 36.0116L6.08933 35.9307C8.36565 36.4114 11.71 36.4489 13.9707 35.8795C15.1316 35.5842 16.2388 35.1051 17.2512 34.46Z" fill="#949996"/>
<path d="M3.76904 35.1503C4.33317 35.416 5.74747 35.6963 6.08933 35.9307L6.03678 36.0116C5.75617 35.967 5.1108 35.7455 4.87215 35.8784C4.49786 35.7878 3.90598 35.7127 3.61007 35.4522L3.64476 35.3382L3.5445 35.2097L3.76904 35.1503Z" fill="#B4B6B0"/>
<path d="M18.3166 33.0971L18.409 33.2453L18.318 33.4651C18.1891 33.6668 18.0546 33.8668 17.9372 34.0756L17.8826 34.124C17.7779 34.1577 17.7474 34.1765 17.6392 34.1411C17.9373 33.8169 18.1476 33.5065 18.3166 33.0971Z" fill="#949996"/>
<path d="M3.08224 34.7783C3.30516 34.9252 3.52538 35.0425 3.76904 35.1503L3.5445 35.2097C3.53664 35.2084 3.52872 35.2076 3.52102 35.2059C3.34852 35.1667 3.14112 35.0716 3.03973 34.9235L3.08224 34.7783Z" fill="#DBD3C8"/>
<path d="M5.92165 29.4531C6.00423 29.0028 5.70261 28.1331 5.71737 27.5854C5.71214 27.0637 5.76004 26.5719 6.14828 26.1763C7.21347 25.091 8.38549 26.6471 9.08107 27.3855C9.1671 27.4768 9.55842 27.4395 9.68712 27.4354C9.92189 27.4383 10.44 27.4677 10.654 27.4349C11.6211 27.2744 11.8828 25.8126 13.0164 25.923C13.7639 25.9959 14.0059 26.5163 13.977 27.2133C13.9402 28.102 13.6528 28.7484 14.1149 29.5529C14.13 29.5928 14.1396 29.6325 14.1486 29.6741C14.2187 29.9995 14.2301 30.2991 14.0395 30.5865C13.6848 31.1214 13.0305 31.2252 12.5153 31.5274C11.953 31.8572 11.5902 32.3022 10.9135 32.4279C10.1312 32.5731 9.04271 32.5091 8.34681 32.0784C8.04088 31.8891 7.77298 31.6376 7.46855 31.445C7.12168 31.2255 6.73596 31.0783 6.39814 30.84C6.12808 30.6495 5.82899 30.3839 5.77587 30.0389C5.74361 29.8294 5.79871 29.622 5.92165 29.4531Z" fill="#ECE8DD"/>
<path d="M9.68712 27.4354C9.92189 27.4383 10.44 27.4677 10.654 27.4349C11.6211 27.2744 11.8828 25.8126 13.0164 25.923C13.7639 25.9959 14.0059 26.5163 13.977 27.2133C13.9402 28.102 13.6528 28.7484 14.1149 29.5529L14.0506 29.6369L14.0011 29.5801L13.8567 29.5779L13.8462 29.6573L13.8149 29.5335C13.4973 29.523 12.7295 30.2551 12.2289 30.5394C12.0487 29.1848 11.7742 29.3434 11.2296 28.294C11.0544 27.9564 12.5516 26.1137 13.4191 26.7713L13.5962 26.6809C12.8064 25.9389 12.2943 26.4779 11.6875 27.1066C11.5103 27.2902 11.1559 27.8113 10.8738 27.8345C10.3632 27.8042 9.93181 27.7302 9.40824 27.7699C9.32398 27.7427 9.24091 27.6986 9.15973 27.6625L9.13759 27.5863C9.31547 27.5027 9.49593 27.4711 9.68712 27.4354Z" fill="#34709C"/>
<path d="M13.5962 26.6809C13.6848 26.8203 13.7932 26.9516 13.7754 27.1134L13.688 27.1168C13.5615 26.9911 13.5182 26.9213 13.4191 26.7713L13.5962 26.6809Z" fill="#C0D5DF"/>
<path d="M6.82282 26.2887C7.83882 26.7759 8.20294 27.1927 8.79675 28.1558C8.13592 29.0758 7.80165 29.3558 7.64936 30.4628C7.05107 30.1369 6.49442 29.5622 6.2583 29.4378C6.52803 28.4594 5.60943 27.1208 6.82282 26.2887Z" fill="#588CAD"/>
<path d="M5.92165 29.4531L5.99111 29.5384C6.11087 29.5237 6.11992 29.5215 6.20633 29.437L6.20046 29.4934C6.18936 29.8264 6.24312 29.9975 6.47525 30.2475C7.2393 31.0701 9.08293 31.7461 10.1818 31.7719C10.5411 31.782 10.8995 31.7294 11.241 31.6161C11.6969 31.466 12.9907 30.7707 13.3354 30.4405C13.5905 30.1961 13.7249 29.8701 13.8149 29.5335L13.8462 29.6573L13.8567 29.5779L14.0011 29.5801L14.0506 29.6369L14.1149 29.5529C14.13 29.5928 14.1396 29.6325 14.1486 29.6741C14.2187 29.9995 14.2301 30.2991 14.0395 30.5865C13.6848 31.1214 13.0305 31.2252 12.5153 31.5274C11.953 31.8572 11.5902 32.3022 10.9135 32.4279C10.1312 32.5731 9.04271 32.5091 8.34681 32.0784C8.04088 31.8891 7.77298 31.6376 7.46855 31.445C7.12168 31.2255 6.73596 31.0783 6.39814 30.84C6.12808 30.6495 5.82899 30.3839 5.77587 30.0389C5.74361 29.8294 5.79871 29.622 5.92165 29.4531Z" fill="#3F7CA8"/>
<path d="M5.92165 29.4531C6.00423 29.0028 5.70261 28.1331 5.71737 27.5854C5.71214 27.0637 5.76004 26.5719 6.14828 26.1763C7.21347 25.091 8.38549 26.6471 9.08107 27.3855C9.1671 27.4768 9.55842 27.4395 9.68712 27.4354C9.49593 27.4711 9.31547 27.5027 9.13759 27.5863L9.15973 27.6625C9.24091 27.6986 9.32398 27.7427 9.40824 27.7699C9.29468 27.7996 9.09599 27.8591 9.00274 27.7842C8.20173 27.14 7.9688 26.2477 6.8061 26.2107L6.82282 26.2887C5.60943 27.1208 6.52803 28.4594 6.2583 29.4378L6.20046 29.4934L6.20633 29.437C6.11992 29.5215 6.11087 29.5237 5.99111 29.5384L5.92165 29.4531Z" fill="#3B647D"/>
<path d="M6.20633 29.437C6.15887 28.7586 5.49052 26.3227 6.8061 26.2107L6.82282 26.2887C5.60943 27.1208 6.52803 28.4594 6.2583 29.4378L6.20046 29.4934L6.20633 29.437Z" fill="#93B8CC"/>
<path d="M8.69812 28.9688C9.39354 29.4344 8.98601 29.9574 9.4299 30.2116C9.58495 30.3004 9.69694 30.2693 9.8571 30.2291C9.69301 30.0681 9.52892 29.9079 9.37264 29.7391C9.53048 29.5756 9.68445 29.4018 9.86464 29.2631C10.0232 29.3687 10.1991 29.4629 10.2853 29.6411C10.3022 29.8318 10.277 29.9825 10.231 30.1676C10.3404 30.2427 10.4508 30.2192 10.5816 30.2211C10.5986 30.1978 10.6104 30.1776 10.6193 30.1499C10.7599 29.7129 11.0279 29.4128 11.3187 29.0711C11.5037 29.2559 11.705 29.4593 11.8151 29.7007C11.9612 30.0211 11.9927 30.5045 11.8654 30.8384C11.7665 31.0978 11.5569 31.2753 11.3078 31.3826C10.4414 31.7558 9.20963 31.5786 8.36175 31.2412C8.12747 30.8417 7.91656 30.3103 8.01499 29.8401C8.1043 29.4131 8.36094 29.1986 8.69812 28.9688Z" fill="#3B647D"/>
<path d="M9.86464 29.2631C10.0232 29.3687 10.1991 29.4629 10.2853 29.6411C10.3022 29.8318 10.277 29.9825 10.231 30.1676C10.3404 30.2427 10.4508 30.2192 10.5816 30.2211L10.5902 30.299L10.5157 30.3707C10.2898 30.4025 10.0858 30.3589 9.86436 30.3179L9.8571 30.2291C9.69301 30.0681 9.52892 29.9079 9.37264 29.7391C9.53048 29.5756 9.68445 29.4018 9.86464 29.2631Z" fill="#306288"/>
<path d="M4.86722 20.0031C4.92664 20.0015 4.98983 19.9977 5.04882 20.0053C5.50834 20.0646 6.01446 21.3516 6.30579 21.7339C6.48965 21.3814 6.68057 21.0262 6.89665 20.6923C7.04899 20.457 7.23237 20.2025 7.51902 20.1434C7.65482 20.1864 7.72561 20.2244 7.79182 20.3579C7.97202 20.7213 7.992 23.4605 7.86158 23.8733C7.76057 23.9733 7.63635 24.0264 7.49262 24.0252C7.41558 24.0245 7.32562 23.9999 7.27202 23.9435C7.07539 23.7365 7.16449 23.1399 7.17376 22.8628L7.15964 21.5482C6.99367 21.8544 6.6949 22.4769 6.3714 22.6172C6.28532 22.6546 6.2308 22.6574 6.14369 22.6216C5.82892 22.4923 5.55208 21.6654 5.41482 21.35C5.33574 21.9968 5.49853 23.3175 5.17973 23.8107C5.04613 23.8929 5.0082 23.8935 4.85224 23.8808C4.75587 23.8 4.73588 23.7617 4.7194 23.6351C4.64656 23.0751 4.59409 20.3736 4.86722 20.0031Z" fill="#5994B6"/>
<path d="M14.7829 19.9899C14.7907 19.9935 14.7985 19.9969 14.8062 20.0005C14.9701 20.0779 15.0448 20.1556 15.1067 20.3263C15.0836 20.7848 14.467 21.3609 14.185 21.7179C14.4802 22.2151 15.3263 23.0763 15.4186 23.5962C15.3926 23.6521 15.3644 23.7191 15.3172 23.7599C15.2383 23.828 15.1494 23.873 15.0421 23.8542C14.6647 23.7886 14.2474 23.0229 14.0022 22.7355C13.8931 22.6076 13.8088 22.5299 13.6397 22.5163C13.544 22.6479 13.557 22.7412 13.5436 22.9019C13.5465 23.1527 13.5764 23.4296 13.5552 23.6775C13.546 23.7862 13.493 23.8779 13.407 23.9432C13.2994 24.025 13.1518 24.0177 13.0278 23.9925C12.9927 23.9527 12.9615 23.9115 12.9365 23.8642C12.6942 23.4051 12.6835 20.8688 12.8668 20.3609C12.9214 20.2095 12.9827 20.1457 13.1243 20.081L13.2668 20.139C13.5153 20.3928 13.4593 21.1698 13.4796 21.5191C13.9511 21.0515 14.2609 20.407 14.7829 19.9899Z" fill="#5288A6"/>
<path d="M10.3689 20.1568C10.451 20.179 10.5715 20.203 10.6323 20.266C10.8972 20.5399 10.7983 22.8684 10.8267 23.3824C11.2332 23.3927 11.9819 23.2374 12.3067 23.5187C12.3885 23.6595 12.3808 23.7539 12.3629 23.9121C12.2845 24.033 12.2505 24.0314 12.1193 24.0723C11.4633 24.0873 10.7645 24.1015 10.1138 24.0222C10.0551 23.4426 10.0009 20.8758 10.1253 20.3969C10.1625 20.2537 10.2532 20.2284 10.3689 20.1568Z" fill="#588CAD"/>
<path d="M8.9008 20.1199C9.03752 20.1474 9.13999 20.1946 9.26211 20.2611C9.46984 20.5392 9.38434 22.5796 9.38591 23.0252C9.38741 23.4455 9.4436 23.8131 9.13508 24.127C8.96975 24.1023 8.84806 24.0828 8.7136 23.9781C8.50474 23.5006 8.62439 21.6612 8.63737 21.0632C8.64545 20.6932 8.62514 20.3859 8.9008 20.1199Z" fill="#588CAD"/>
<path d="M4.42457 1.86764C5.81907 0.0468818 14.1844 0.0267532 15.1813 1.72919C15.3186 1.7799 15.4127 1.78195 15.4629 1.9295C15.6154 2.37793 15.5895 3.5059 15.5155 3.94905C14.0386 5.39011 8.97364 5.62926 7.07205 4.90566L7.03068 4.89788C6.26975 4.81812 5.33666 4.58316 4.72598 4.10051C4.34856 3.63434 4.42284 3.04277 4.41595 2.44278C4.29953 2.28746 4.37538 2.03465 4.42457 1.86764Z" fill="#93B8CC"/>
<path d="M15.1813 1.72919C15.3186 1.7799 15.4127 1.78195 15.4629 1.9295C15.6154 2.37793 15.5895 3.5059 15.5155 3.94905C14.0386 5.39011 8.97364 5.62926 7.07205 4.90566C7.29793 4.75192 7.19011 3.73879 7.17901 3.45394C7.63508 3.45927 8.39983 3.64065 8.95799 3.66393C10.7088 3.72535 12.6531 3.46362 14.2999 2.86063C14.5608 2.76505 15.4514 2.36732 15.2902 2.02312C15.2561 1.96066 15.2069 1.80345 15.1813 1.72919Z" fill="#6893AE"/>
<path d="M4.59264 2.09232C4.78766 1.73647 5.17591 2.03644 5.49137 1.84832C5.53813 1.82047 5.50807 1.83293 5.59087 1.84294C5.81002 2.05793 5.87402 2.12849 6.14957 2.26537C8.49667 3.01546 10.4711 2.8145 12.8278 2.51023L12.8519 2.51328C13.6953 2.61479 14.1072 1.95174 14.4267 2.20857C14.4539 2.41807 14.4673 2.34022 14.3828 2.52666C14.2599 2.62779 13.3978 2.70929 13.1475 3.03439C13.9383 2.89648 14.6781 2.54728 15.2902 2.02312C15.4514 2.36732 14.5608 2.76505 14.2999 2.86063C12.6531 3.46362 10.7088 3.72535 8.95799 3.66393C8.39983 3.64065 7.63508 3.45927 7.17901 3.45394C7.19011 3.73879 7.29793 4.75192 7.07205 4.90566L7.03068 4.89788C6.26975 4.81812 5.33666 4.58316 4.72598 4.10051C4.34856 3.63434 4.42284 3.04277 4.41595 2.44278C4.29953 2.28746 4.37538 2.03465 4.42457 1.86764L4.59264 2.09232Z" fill="#D9E4EB"/>
<path d="M4.41595 2.44278C4.6331 2.5012 4.73293 2.54719 4.93263 2.63913C5.31258 2.8291 5.79682 3.06531 6.20096 3.18391C6.52618 3.27683 6.85223 3.36684 7.17901 3.45394C7.19011 3.73879 7.29793 4.75192 7.07205 4.90566L7.03068 4.89788C6.26975 4.81812 5.33666 4.58316 4.72598 4.10051C4.34856 3.63434 4.42284 3.04277 4.41595 2.44278Z" fill="#93B8CC"/>
<path d="M6.20096 3.18391C6.52618 3.27683 6.85223 3.36684 7.17901 3.45394C7.19011 3.73879 7.29793 4.75192 7.07205 4.90566L7.03068 4.89788C6.84321 4.79816 6.39765 4.74441 6.32902 4.5441C6.24019 4.28487 6.11682 3.42116 6.20096 3.18391Z" fill="#D9E4EB"/>
<path d="M4.41595 2.44278C4.6331 2.5012 4.73293 2.54719 4.93263 2.63913C4.91846 2.97174 4.95595 3.88889 4.72598 4.10051C4.34856 3.63434 4.42284 3.04277 4.41595 2.44278Z" fill="#C0D5DF"/>
<path d="M4.41595 2.44278C4.29953 2.28746 4.37538 2.03465 4.42457 1.86764L4.59264 2.09232C4.96268 2.55092 5.94017 3.00854 6.47328 3.08133C8.11639 3.52917 10.195 3.47809 11.8614 3.25711C12.147 3.21924 12.888 3.12133 13.1475 3.03439C13.9383 2.89648 14.6781 2.54728 15.2902 2.02312C15.4514 2.36732 14.5608 2.76505 14.2999 2.86063C12.6531 3.46362 10.7088 3.72535 8.95799 3.66393C8.39983 3.64065 7.63508 3.45927 7.17901 3.45394C6.85223 3.36684 6.52618 3.27683 6.20096 3.18391C5.79682 3.06531 5.31258 2.8291 4.93263 2.63913C4.73293 2.54719 4.6331 2.5012 4.41595 2.44278Z" fill="#306288"/>
<path d="M4.42457 1.86764C5.81907 0.0468818 14.1844 0.0267532 15.1813 1.72919C15.2069 1.80345 15.2561 1.96066 15.2902 2.02312C14.6781 2.54728 13.9383 2.89648 13.1475 3.03439C13.3978 2.70929 14.2599 2.62779 14.3828 2.52666C14.4673 2.34022 14.4539 2.41807 14.4267 2.20857C14.1072 1.95174 13.6953 2.61479 12.8519 2.51328L12.8278 2.51023C13.2755 2.38565 14.198 2.19264 14.4473 1.80606C14.3272 1.80519 14.2352 1.78393 14.1424 1.83533C13.8371 1.42703 13.7632 1.44671 13.2583 1.31301C11.8707 0.868023 6.65835 0.586151 5.77983 1.82211L5.69234 1.59122L5.59087 1.84294C5.50807 1.83293 5.53813 1.82047 5.49137 1.84832C5.17591 2.03644 4.78766 1.73647 4.59264 2.09232L4.42457 1.86764Z" fill="#ABC8DA"/>
<path d="M5.69234 1.59122C7.2032 0.515472 10.7539 0.672189 12.5527 0.95887C13.3196 1.08108 13.8984 1.24733 14.4473 1.80606C14.3272 1.80519 14.2352 1.78393 14.1424 1.83533C13.8371 1.42703 13.7632 1.44671 13.2583 1.31301C11.8707 0.868023 6.65835 0.586151 5.77983 1.82211L5.69234 1.59122Z" fill="#306288"/>
<path d="M5.69234 1.59122L5.77983 1.82211C6.24915 2.30324 9.00817 2.51704 9.7622 2.51318C10.712 2.50828 12.3423 2.38104 13.2522 2.16267C13.588 2.07111 13.8451 2.01806 14.1424 1.83533C14.2352 1.78393 14.3272 1.80519 14.4473 1.80606C14.198 2.19264 13.2755 2.38565 12.8278 2.51023C10.4711 2.8145 8.49667 3.01546 6.14957 2.26537C5.87402 2.12849 5.81002 2.05793 5.59087 1.84294L5.69234 1.59122Z" fill="#306288"/>
<path d="M13.2583 1.31301C13.7632 1.44671 13.8371 1.42703 14.1424 1.83533C13.8451 2.01806 13.588 2.07111 13.2522 2.16267C13.1146 2.14428 13.1666 2.16734 13.0577 2.06506C12.9817 1.77802 12.9987 1.48379 13.2583 1.31301Z" fill="#C0D5DF"/>
</svg>
