<svg width="30" height="30" viewBox="0 0 30 30" fill="none" xmlns="http://www.w3.org/2000/svg">
<path d="M1.875 15C1.875 17.5959 2.64477 20.1335 4.08696 22.2919C5.52916 24.4503 7.579 26.1325 9.97728 27.1259C12.3756 28.1193 15.0146 28.3792 17.5606 27.8728C20.1066 27.3664 22.4452 26.1163 24.2808 24.2808C26.1163 22.4452 27.3664 20.1066 27.8728 17.5606C28.3792 15.0146 28.1193 12.3756 27.1259 9.97728C26.1325 7.579 24.4503 5.52916 22.2919 4.08696C20.1335 2.64477 17.5959 1.875 15 1.875C11.519 1.875 8.18064 3.25781 5.71922 5.71922C3.25781 8.18064 1.875 11.519 1.875 15ZM7.5 14.0625H18.8906L13.6594 8.80594L15 7.5L22.5 15L15 22.5L13.6594 21.1622L18.8906 15.9375H7.5V14.0625Z" fill="#3D2000"/>
</svg>
