<svg width="23" height="35" viewBox="0 0 23 35" fill="none" xmlns="http://www.w3.org/2000/svg">
<path d="M2.6611 5.88909C2.94623 4.96974 2.46023 1.9697 3.40627 1.47597C6.31909 -0.0442951 10.409 -0.156713 13.6271 0.11762C13.7125 0.122365 13.9213 0.128512 13.9928 0.148408C14.3511 0.173318 15.2012 0.211437 15.5187 0.268914C15.8897 0.282663 16.1732 0.334262 16.5362 0.395944C17.7404 0.734656 19.4613 0.881959 20.1508 2.06632C20.4518 2.58258 20.313 3.94455 20.3384 4.57431C20.2101 4.65001 20.1789 4.6775 20.0289 4.67384L20.0188 5.1522C20.0464 5.37596 20.0093 5.30446 20.1518 5.45457L20.3246 5.50649C20.3511 5.71375 20.4158 5.72146 20.4661 5.89184C20.6182 6.40433 20.5827 6.82235 20.1964 7.22264C19.9806 7.48517 19.9033 7.57569 19.9329 7.92848C19.934 7.94498 19.9356 7.96153 19.9372 7.97803C20.8032 9.11656 21.71 10.032 22.2962 11.3711C23.1161 13.2444 22.9624 15.4633 22.9719 17.478L22.9963 22.6513L23 26.7719C22.9968 27.5689 23.0154 29.9931 22.7127 30.5983C21.1615 33.7008 17.1865 34.7643 14.0108 34.8977C13.1581 34.9335 12.5433 35.0288 11.8103 34.9915L11.787 34.924C12.0345 34.7144 13.1989 34.9391 13.599 34.7992L13.6112 34.743L13.3102 34.5399C12.9328 34.5432 11.5883 34.6306 11.345 34.4741C9.61139 34.4441 7.88574 34.2294 6.19614 33.8336C4.89554 33.5882 2.92928 32.6093 2.03095 31.6408C1.57727 31.1963 1.26511 30.6946 0.970965 30.136C0.966725 30.382 1.15063 30.6155 1.11777 30.8346C0.94764 30.8524 0.763737 30.7167 0.617459 30.6361C0.526831 30.4634 0.440442 30.2433 0.285154 30.1231C-0.105978 29.3405 0.0217496 25.4769 0.0137997 24.4226C-0.0132298 22.6156 0.011679 20.4362 0.0461283 18.6273C0.0397685 17.7276 0.104426 16.8213 0.111316 15.9764C0.131986 13.4097 0.474364 11.6518 1.95781 9.50466C2.18888 9.07057 3.07291 8.42948 3.12961 7.9583C3.24992 6.96508 2.52436 7.06412 2.6611 5.88909Z" fill="#EFDCBD"/>
<path d="M3.14497 5.25151C3.22235 5.31993 3.50536 5.58187 3.57532 5.6154C3.62514 5.63956 3.77566 5.70879 3.81276 5.7344C4.12281 6.03801 4.71799 5.95438 5.13827 6.23454C4.84147 6.1899 4.2288 6.00129 4.04012 6.14148C4.10637 6.22888 4.16574 6.31412 4.24417 6.39026C3.8276 6.19373 3.42004 5.97805 3.02308 5.74389C3.05382 6.02453 3.07501 6.38697 3.18472 6.63715C3.38294 6.92911 4.20495 7.41087 4.51658 7.36245L4.75243 7.51229L4.69625 7.58297C4.4143 7.5249 4.22615 7.34336 4.05656 7.35959C4.02953 7.7251 4.85101 7.72887 5.01478 7.91085L4.86585 7.94713C4.4355 7.82086 4.09842 7.71405 3.71577 7.46764L3.6686 8.08861L3.61878 8.17574L3.51119 8.15752C3.54299 7.98493 3.51755 7.30174 3.51808 7.08089C2.93245 6.83869 2.95735 6.24996 2.94622 5.68291C3.02572 5.65444 3.07024 5.63611 3.14603 5.59783C3.12218 5.45753 3.11847 5.42615 3.13967 5.28408L3.14497 5.25151Z" fill="#703913"/>
<path d="M2.6611 5.88909C2.94623 4.96974 2.46023 1.9697 3.40627 1.47597C6.31909 -0.0442951 10.409 -0.156713 13.6271 0.11762C13.7125 0.122365 13.9213 0.128512 13.9928 0.148408C14.3511 0.173318 15.2012 0.211437 15.5187 0.268914C15.8897 0.282663 16.1732 0.334262 16.5362 0.395944C17.7404 0.734656 19.4613 0.881959 20.1508 2.06632C20.4518 2.58258 20.313 3.94455 20.3384 4.57431C20.2101 4.65001 20.1789 4.6775 20.0289 4.67384L20.0188 5.1522L19.987 5.14503C19.8254 5.84046 18.3409 6.24845 17.7277 6.42385C14.0453 7.47713 10.5357 7.28675 6.80033 6.69667C6.2396 6.65661 5.65501 6.44504 5.13827 6.23454C4.71799 5.95438 4.12281 6.03801 3.81276 5.7344C3.77566 5.70879 3.62514 5.63956 3.57532 5.6154C3.50536 5.58187 3.22235 5.31993 3.14497 5.25151L3.13967 5.28408C3.11847 5.42615 3.12218 5.45753 3.14603 5.59783C3.07024 5.63611 3.02572 5.65444 2.94622 5.68291L2.6611 5.88909Z" fill="#C68F45"/>
<path d="M2.6611 5.88909C2.94623 4.96974 2.46023 1.9697 3.40627 1.47597C6.31909 -0.0442951 10.409 -0.156713 13.6271 0.11762C13.7125 0.122365 13.9213 0.128512 13.9928 0.148408L13.9859 0.217207L14.0241 0.218285L13.9727 0.335125C14.0676 0.449269 14.2324 0.456871 14.3824 0.483345C11.6974 0.42754 5.47323 0.138756 3.45397 2.11387C3.42641 2.14051 3.40044 2.16855 3.37553 2.19793C3.24039 2.34297 3.24197 2.39231 3.22183 2.59568C3.38719 2.62723 3.9405 3.07232 4.27757 3.22663L4.33694 3.25925C4.56536 3.32918 4.63267 3.34789 4.83088 3.48037L4.98776 3.54712L5.40168 3.69437C5.39108 3.92864 5.27025 4.68462 5.19764 4.90811C5.30523 4.96273 5.57764 5.11596 5.68046 5.11343C6.01382 5.19565 6.36839 5.31336 6.67525 5.38696L7.25188 5.5121C7.4766 5.52294 7.74742 5.55971 7.94828 5.56607C9.89388 5.96258 13.7824 5.95525 15.7667 5.6119C16.2437 5.55782 16.8288 5.4502 17.3111 5.37499C17.733 5.25469 18.043 5.1687 18.4511 4.99481L19.1168 4.77833L19.386 4.63238C19.5572 4.50955 19.696 4.28595 19.8762 4.24379C20.0109 4.416 20.0167 4.45116 20.0289 4.67384L20.0188 5.1522L19.987 5.14503C19.8254 5.84046 18.3409 6.24845 17.7277 6.42385C14.0453 7.47713 10.5357 7.28675 6.80033 6.69667C6.2396 6.65661 5.65501 6.44504 5.13827 6.23454C4.71799 5.95438 4.12281 6.03801 3.81276 5.7344C3.77566 5.70879 3.62514 5.63956 3.57532 5.6154C3.50536 5.58187 3.22235 5.31993 3.14497 5.25151L3.13967 5.28408C3.11847 5.42615 3.12218 5.45753 3.14603 5.59783C3.07024 5.63611 3.02572 5.65444 2.94622 5.68291L2.6611 5.88909Z" fill="#692D0A"/>
<path d="M19.9419 4.39942L19.987 5.14503C19.8254 5.84046 18.3409 6.24845 17.7277 6.42385C14.0453 7.47713 10.5357 7.28675 6.80033 6.69667C6.2396 6.65661 5.65501 6.44504 5.13827 6.23454C4.71799 5.95438 4.12281 6.03801 3.81276 5.7344C4.18959 5.65687 4.47311 5.63166 4.83722 5.82118C4.9517 5.68951 4.92785 5.67538 5.06935 5.63462C5.13189 5.44068 5.17747 5.45772 5.34124 5.4155C6.15424 5.59656 7.62708 5.96767 8.41253 6.02844C9.89544 5.98795 11.2416 6.03129 12.7145 6.04434C14.7051 6.01005 18.4755 5.91241 19.9419 4.39942Z" fill="#AD6D30"/>
<path d="M5.06935 5.63462C5.13189 5.44068 5.17747 5.45772 5.34124 5.4155C6.15424 5.59656 7.62708 5.96767 8.41253 6.02844C8.60492 6.10204 8.61973 6.06986 8.7093 6.21263C8.52805 6.41132 7.93392 6.41509 7.6578 6.42647C7.27991 6.40086 6.81935 6.30925 6.43935 6.24406C5.92632 6.02192 5.39477 6.15854 5.06935 5.63462Z" fill="#EAB557"/>
<path d="M8.41253 6.02844C9.89544 5.98795 11.2416 6.03129 12.7145 6.04434L12.7426 6.2021C12.5258 6.359 7.98798 6.53673 7.6578 6.42647C7.93392 6.41509 8.52805 6.41132 8.7093 6.21263C8.61973 6.06986 8.60492 6.10204 8.41253 6.02844Z" fill="#C68F45"/>
<path d="M4.83722 5.82118C4.9517 5.68951 4.92785 5.67538 5.06935 5.63462C5.39477 6.15854 5.92632 6.02192 6.43935 6.24406L6.35511 6.30022C6.10443 6.24339 5.36032 6.03489 5.17588 6.05042L5.13666 6.08611C5.53681 6.34891 6.6461 6.51351 6.80033 6.69667C6.2396 6.65661 5.65501 6.44504 5.13827 6.23454C4.71799 5.95438 4.12281 6.03801 3.81276 5.7344C4.18959 5.65687 4.47311 5.63166 4.83722 5.82118Z" fill="#B5702C"/>
<path d="M3.22183 2.59568C3.38719 2.62723 3.9405 3.07232 4.27757 3.22663L4.33694 3.25925C4.56536 3.32918 4.63267 3.34789 4.83088 3.48037L4.98776 3.54712L5.40168 3.69437C5.39108 3.92864 5.27025 4.68462 5.19764 4.90811L5.03329 4.93977L4.76936 4.90203L4.59711 4.83053C4.35491 4.79597 4.1922 4.69196 3.97649 4.57739L3.23186 4.18459C3.21596 3.65512 3.21283 3.12537 3.22183 2.59568Z" fill="#C48237"/>
<path d="M4.33694 3.25925C4.56536 3.32918 4.63267 3.34789 4.83088 3.48037L4.98776 3.54712L5.40168 3.69437C5.39108 3.92864 5.27025 4.68462 5.19764 4.90811L5.03329 4.93977L4.76936 4.90203L4.59711 4.83053C4.35491 4.79597 4.1922 4.69196 3.97649 4.57739C4.09839 4.56224 4.14881 4.50007 4.24315 4.41758C4.29138 4.30753 4.34173 4.10917 4.37618 3.98618C4.29827 3.79154 4.33005 3.47945 4.33694 3.25925Z" fill="#C48237"/>
<path d="M4.98776 3.54712L5.40168 3.69437C5.39108 3.92864 5.27025 4.68462 5.19764 4.90811L5.03329 4.93977C4.92835 4.55544 4.96603 3.95414 4.98776 3.54712Z" fill="#C68F45"/>
<path d="M4.83088 3.48037L4.98776 3.54712C4.96603 3.95414 4.92835 4.55544 5.03329 4.93977L4.76936 4.90203C4.81547 4.62936 4.69097 4.11956 4.83088 3.48037Z" fill="#B5702C"/>
<path d="M4.37618 3.98618C4.53253 4.30489 4.445 4.55151 4.59711 4.83053C4.35491 4.79597 4.1922 4.69196 3.97649 4.57739C4.09839 4.56224 4.14881 4.50007 4.24315 4.41758C4.29138 4.30753 4.34173 4.10917 4.37618 3.98618Z" fill="#B5702C"/>
<path d="M4.27757 3.22663L4.33694 3.25925C4.33005 3.47945 4.29827 3.79154 4.37618 3.98618C4.34173 4.10917 4.29138 4.30753 4.24315 4.41758C4.02109 4.28176 3.9034 3.38768 4.27757 3.22663Z" fill="#C68F45"/>
<path d="M3.14497 5.25151C3.07289 4.99076 3.03841 4.67808 3.27638 4.50004C3.37707 4.52576 3.41735 4.5876 3.49049 4.66562C4.0809 4.9791 4.70101 5.23035 5.34124 5.4155C5.17747 5.45772 5.13189 5.44068 5.06935 5.63462C4.92785 5.67538 4.9517 5.68951 4.83722 5.82118C4.47311 5.63166 4.18959 5.65687 3.81276 5.7344C3.77566 5.70879 3.62514 5.63956 3.57532 5.6154C3.50536 5.58187 3.22235 5.31993 3.14497 5.25151Z" fill="#C68F45"/>
<path d="M3.14497 5.25151C3.07289 4.99076 3.03841 4.67808 3.27638 4.50004C3.37707 4.52576 3.41735 4.5876 3.49049 4.66562C3.25994 4.93494 3.46823 5.22324 3.64949 5.47088L3.85724 5.57694C3.85777 5.57678 4.15616 5.45056 4.2505 5.42727C4.50542 5.46059 4.66232 5.6343 4.83722 5.82118C4.47311 5.63166 4.18959 5.65687 3.81276 5.7344C3.77566 5.70879 3.62514 5.63956 3.57532 5.6154C3.50536 5.58187 3.22235 5.31993 3.14497 5.25151Z" fill="#C48237"/>
<path d="M3.22183 2.59568C3.24197 2.39231 3.24039 2.34297 3.37553 2.19793L3.43275 2.34433C4.28391 3.23564 5.59033 3.48507 6.75684 3.73972C7.00753 3.79445 7.65359 3.87678 7.8534 3.94687C9.28702 4.23738 10.9316 4.21528 12.3885 4.23307C12.6095 4.23571 12.8618 4.21015 13.0754 4.22094L14.0882 4.12545C15.1821 4.01201 16.2039 3.77105 17.2035 3.67319L17.2348 3.72414C17.1404 3.78965 17.0636 3.85004 16.9544 3.88675C16.9793 4.24019 17.0291 4.86191 16.9766 5.20262C17.1134 5.32561 17.1325 5.34193 17.3111 5.37499C16.8288 5.4502 16.2437 5.55782 15.7667 5.6119C13.7824 5.95525 9.89388 5.96258 7.94828 5.56607C7.74742 5.55971 7.4766 5.52294 7.25188 5.5121L6.67525 5.38696C6.36839 5.31336 6.01382 5.19565 5.68046 5.11343C5.57764 5.11596 5.30523 4.96273 5.19764 4.90811C5.27025 4.68462 5.39108 3.92864 5.40168 3.69437L4.98776 3.54712L4.83088 3.48037C4.63267 3.34789 4.56536 3.32918 4.33694 3.25925L4.27757 3.22663C3.9405 3.07232 3.38719 2.62723 3.22183 2.59568Z" fill="#C17C32"/>
<path d="M3.22183 2.59568C3.24197 2.39231 3.24039 2.34297 3.37553 2.19793L3.43275 2.34433C4.28391 3.23564 5.59033 3.48507 6.75684 3.73972C7.00753 3.79445 7.65359 3.87678 7.8534 3.94687C9.28702 4.23738 10.9316 4.21528 12.3885 4.23307C12.6095 4.23571 12.8618 4.21015 13.0754 4.22094L13.1528 4.32468C13.1374 4.72005 13.2328 4.98005 13.1718 5.52618L13.1241 5.50774C13.0261 5.19545 12.9726 4.76804 12.9577 4.43936L12.9567 4.40437C12.8819 4.36684 12.5618 4.38566 12.5364 4.42583C12.4039 4.63745 12.495 5.19518 12.5189 5.44002C12.3859 5.09187 12.4039 4.79856 12.4018 4.42955C11.0344 4.57442 9.52392 4.34392 8.14224 4.22374C8.21379 4.48745 8.17404 5.3331 7.94085 5.51976L7.94828 5.56607C7.74742 5.55971 7.4766 5.52294 7.25188 5.5121L6.67525 5.38696C6.36839 5.31336 6.01382 5.19565 5.68046 5.11343C5.57764 5.11596 5.30523 4.96273 5.19764 4.90811C5.27025 4.68462 5.39108 3.92864 5.40168 3.69437L4.98776 3.54712L4.83088 3.48037C4.63267 3.34789 4.56536 3.32918 4.33694 3.25925L4.27757 3.22663C3.9405 3.07232 3.38719 2.62723 3.22183 2.59568Z" fill="#985117"/>
<path d="M5.40168 3.69437L5.62057 3.7187C5.86384 3.78329 6.08484 3.84503 6.30691 3.97243L6.47863 4.01341C6.61483 4.0112 6.74256 3.99718 6.86923 4.0421L6.75422 4.12626C6.72296 4.49447 6.71394 5.06071 6.88301 5.39398L6.67525 5.38696C6.36839 5.31336 6.01382 5.19565 5.68046 5.11343C5.57764 5.11596 5.30523 4.96273 5.19764 4.90811C5.27025 4.68462 5.39108 3.92864 5.40168 3.69437Z" fill="#C68F45"/>
<path d="M5.40168 3.69437L5.62057 3.7187C5.86384 3.78329 6.08484 3.84503 6.30691 3.97243C5.96719 4.15123 6.1442 4.3388 6.05516 4.6346C5.75678 4.6952 5.82939 4.9092 5.50397 4.95153C5.64336 5.02707 5.62852 4.99093 5.68046 5.11343C5.57764 5.11596 5.30523 4.96273 5.19764 4.90811C5.27025 4.68462 5.39108 3.92864 5.40168 3.69437Z" fill="#EAB557"/>
<path d="M5.40168 3.69437L5.62057 3.7187C5.54903 3.98926 5.50662 4.65325 5.50397 4.95153C5.64336 5.02707 5.62852 4.99093 5.68046 5.11343C5.57764 5.11596 5.30523 4.96273 5.19764 4.90811C5.27025 4.68462 5.39108 3.92864 5.40168 3.69437Z" fill="#C48237"/>
<path d="M6.30691 3.97243L6.47863 4.01341C6.45637 4.26192 6.43833 4.87978 6.25124 5.02353C6.10973 4.9426 6.08749 4.79355 6.05516 4.6346C6.1442 4.3388 5.96719 4.15123 6.30691 3.97243Z" fill="#EDD5B4"/>
<path d="M7.78399 4.14923L7.96206 4.18525L8.14224 4.22374C8.21379 4.48745 8.17404 5.3331 7.94085 5.51976L7.94828 5.56607C7.74742 5.55971 7.4766 5.52294 7.25188 5.5121C7.32767 5.49075 7.4061 5.46262 7.48083 5.4376C7.71562 5.15539 7.74159 4.52676 7.78399 4.14923Z" fill="#C48237"/>
<path d="M7.96206 4.18525L8.14224 4.22374C8.21379 4.48745 8.17404 5.3331 7.94085 5.51976L7.85342 5.41811C7.85872 5.01389 7.91595 4.58866 7.96206 4.18525Z" fill="#C68F45"/>
<path d="M7.25188 5.5121C7.19941 5.22385 7.10981 4.35723 7.2969 4.1332C7.42887 4.05702 7.62658 4.11942 7.78399 4.14923C7.74159 4.52676 7.71562 5.15539 7.48083 5.4376C7.4061 5.46262 7.32767 5.49075 7.25188 5.5121Z" fill="#C68F45"/>
<path d="M6.86923 4.0421C6.94608 4.07283 7.06581 4.09597 7.07959 4.19065C7.11987 4.4652 7.10348 5.20602 6.88301 5.39398C6.71394 5.06071 6.72296 4.49447 6.75422 4.12626L6.86923 4.0421Z" fill="#FADB93"/>
<path d="M14.0882 4.12545C15.1821 4.01201 16.2039 3.77105 17.2035 3.67319L17.2348 3.72414C17.1404 3.78965 17.0636 3.85004 16.9544 3.88675C16.9793 4.24019 17.0291 4.86191 16.9766 5.20262C17.1134 5.32561 17.1325 5.34193 17.3111 5.37499C16.8288 5.4502 16.2437 5.55782 15.7667 5.6119C15.9146 5.50902 15.9172 5.54217 15.9691 5.39966L15.9076 5.28007C15.791 5.2715 15.6893 5.28153 15.5732 5.28929C15.5578 5.33701 15.5313 5.35572 15.4958 5.39519L15.4386 5.35788C15.3172 5.01625 15.4863 4.42914 15.2621 4.21121C14.5567 3.94922 14.9372 5.11929 14.7512 5.43131C14.6675 5.0953 14.7963 4.66778 14.6394 4.3824C14.4624 4.25062 14.4216 4.28982 14.1793 4.28022L14.0882 4.12545Z" fill="#703913"/>
<path d="M15.5065 4.12127L16.0772 4.06487C16.452 4.29466 16.2426 5.35744 16.8484 5.29646L16.8924 5.25888L16.9766 5.20262C17.1134 5.32561 17.1325 5.34193 17.3111 5.37499C16.8288 5.4502 16.2437 5.55782 15.7667 5.6119C15.9146 5.50902 15.9172 5.54217 15.9691 5.39966L15.9076 5.28007C15.791 5.2715 15.6893 5.28153 15.5732 5.28929C15.5663 4.89251 15.5361 4.51594 15.5065 4.12127Z" fill="#985117"/>
<path d="M15.5065 4.12127C15.6193 4.12892 15.8207 4.1147 15.8928 4.20167C16.0571 4.39858 16.1345 5.04732 16.0073 5.25269L15.9076 5.28007C15.791 5.2715 15.6893 5.28153 15.5732 5.28929C15.5663 4.89251 15.5361 4.51594 15.5065 4.12127Z" fill="#B5702C"/>
<path d="M16.0772 4.06487L16.7122 3.97514C16.7827 4.39985 16.8229 4.86075 16.8924 5.25888L16.8484 5.29646C16.2426 5.35744 16.452 4.29466 16.0772 4.06487Z" fill="#945B12"/>
<path d="M13.0754 4.22094L14.0882 4.12545L14.1793 4.28022C13.9981 4.53094 14.192 5.30473 13.9901 5.51814C13.8009 5.3366 13.8099 4.6409 13.7908 4.33853L13.1528 4.32468L13.0754 4.22094Z" fill="#985117"/>
<path d="M19.8365 2.11854C20.1121 2.42069 20.0957 3.94708 19.8762 4.24379C19.696 4.28595 19.5572 4.50955 19.386 4.63238L19.1168 4.77833L18.4511 4.99481C18.043 5.1687 17.733 5.25469 17.3111 5.37499C17.1325 5.34193 17.1134 5.32561 16.9766 5.20262C17.0291 4.86191 16.9793 4.24019 16.9544 3.88675C17.0636 3.85004 17.1404 3.78965 17.2348 3.72414L17.2035 3.67319C17.9937 3.44166 19.1597 3.18546 19.6944 2.55942L19.8365 2.11854Z" fill="#703913"/>
<path d="M17.6153 5.20577C17.6084 4.87693 17.478 3.82936 17.61 3.66329C17.8034 3.65364 17.8479 3.61434 17.9693 3.70594C17.9948 3.92183 18.0499 4.72601 18.1378 4.85364C18.2158 4.76262 18.2094 4.67431 18.2184 4.55482C18.3875 4.70245 18.1962 4.70295 18.4511 4.99481C18.043 5.1687 17.733 5.25469 17.3111 5.37499C17.1325 5.34193 17.1134 5.32561 16.9766 5.20262C17.0291 4.86191 16.9793 4.24019 16.9544 3.88675C17.0636 3.85004 17.1404 3.78965 17.2348 3.72414C17.4902 3.9768 17.3699 4.70218 17.6153 5.20577Z" fill="#945B12"/>
<path d="M18.2184 4.55482C18.1818 4.23779 18.0732 3.68821 18.3021 3.4507L18.4209 3.45658C18.5624 3.75005 18.503 4.54437 18.7203 4.64218C18.8056 4.44042 18.5576 3.67193 18.6827 3.39889C18.6991 3.36255 18.8062 3.32966 18.8533 3.31003L18.9318 3.34756L19.0256 3.82543C19.0383 4.09146 19.0415 4.53985 19.1168 4.77833L18.4511 4.99481C18.1962 4.70295 18.3875 4.70245 18.2184 4.55482Z" fill="#B5702C"/>
<path d="M19.8365 2.11854C20.1121 2.42069 20.0957 3.94708 19.8762 4.24379C19.696 4.28595 19.5572 4.50955 19.386 4.63238C19.4014 4.49111 19.4575 4.28453 19.4915 4.14094C19.5376 4.19109 19.5832 4.24969 19.6266 4.30302L19.6701 4.2367C19.6075 3.76902 19.5588 3.42222 19.6547 2.94844C19.686 2.79526 19.7527 2.71492 19.6944 2.55942L19.8365 2.11854Z" fill="#985117"/>
<path d="M19.0256 3.82543L19.1327 3.79361C19.1348 3.4619 19.0261 3.42988 19.1162 3.19544C19.2673 3.09079 19.21 3.09763 19.3696 3.11262C19.4835 3.26898 19.4766 3.89287 19.4915 4.14094C19.4575 4.28453 19.4014 4.49111 19.386 4.63238L19.1168 4.77833C19.0415 4.53985 19.0383 4.09146 19.0256 3.82543Z" fill="#A46427"/>
<path d="M13.9928 0.148408C14.3511 0.173318 15.2012 0.211437 15.5187 0.268914C15.8897 0.282663 16.1732 0.334262 16.5362 0.395944C17.7404 0.734656 19.4613 0.881959 20.1508 2.06632C20.4518 2.58258 20.313 3.94455 20.3384 4.57431C20.2101 4.65001 20.1789 4.6775 20.0289 4.67384C20.0167 4.45116 20.0109 4.416 19.8762 4.24379C20.0957 3.94708 20.1121 2.42069 19.8365 2.11854C18.4829 0.907221 16.3327 0.716609 14.6092 0.494198L14.3824 0.483345C14.2324 0.456871 14.0676 0.449269 13.9727 0.335125L14.0241 0.218285L13.9859 0.217207L13.9928 0.148408Z" fill="#020000"/>
<path d="M13.9928 0.148408C14.3511 0.173318 15.2012 0.211437 15.5187 0.268914C15.2664 0.283849 14.8429 0.254102 14.6611 0.327646C14.6389 0.389004 14.6203 0.429443 14.6092 0.494198L14.3824 0.483345C14.2324 0.456871 14.0676 0.449269 13.9727 0.335125L14.0241 0.218285L13.9859 0.217207L13.9928 0.148408Z" fill="#250300"/>
<path d="M3.43275 2.34433C4.01097 2.02228 4.21553 2.42073 4.76778 2.68709C5.14513 2.869 7.83218 3.66133 8.1152 3.61517L8.19576 3.66089C7.93129 3.73886 7.76699 3.56012 7.63768 3.69438L7.6981 3.82804C7.90585 3.84125 8.00549 3.83861 8.2 3.92639L7.8534 3.94687C7.65359 3.87678 7.00753 3.79445 6.75684 3.73972C5.59033 3.48507 4.28391 3.23564 3.43275 2.34433Z" fill="#FADB93"/>
<path d="M18.6175 1.67635C18.697 1.71603 18.7892 1.75712 18.8581 1.81319C18.9609 1.89671 18.9959 2.01096 19.0049 2.1394C19.0144 2.28082 18.9455 2.40683 18.8523 2.50647C18.1548 3.25053 14.8121 3.68215 13.7543 3.70905C13.6711 3.71477 13.6652 3.72345 13.5963 3.66904C13.8433 3.29528 17.5686 3.18173 18.5427 2.3088C18.8507 2.0328 18.6016 1.99759 18.6175 1.67635Z" fill="#B5702C"/>
<path d="M10.4732 0.838586C10.585 0.83368 10.7085 0.811843 10.8102 0.866893C10.4583 0.973758 9.99563 0.938172 9.62358 0.993061C8.67967 1.13244 7.71561 1.31986 6.77912 1.50048C6.76163 1.59268 6.76057 1.60508 6.79714 1.69087C7.24127 1.6494 7.69812 1.511 8.13536 1.41594C8.97275 1.23397 9.99775 1.0349 10.8532 1.05334C10.4249 1.17325 9.95482 1.20755 9.5144 1.27036C8.57473 1.28104 7.46281 1.60271 6.56341 1.88254C6.15055 2.01081 5.68893 2.2164 5.26229 2.25015C5.14092 2.25975 5.054 2.26822 4.96019 2.18793C4.97132 2.17187 4.97186 2.16992 4.98617 2.15321C5.5469 1.49536 9.48419 0.920164 10.4732 0.838586Z" fill="#EAB557"/>
<path d="M10.294 10.4572C10.8123 10.3494 11.7827 10.3867 12.3265 10.3971C12.8496 10.4825 13.3775 10.5094 13.891 10.6357L13.987 10.69L13.7638 10.5485C13.873 10.5077 14.659 10.6209 14.862 10.6413C14.5662 10.8243 13.9117 10.3446 14.1354 11.0679C14.2922 10.9569 14.2032 10.679 14.6839 10.7562C14.9849 10.8045 15.2722 10.9486 15.5674 11.0183C15.6681 11.0419 15.9087 10.8705 16.0189 10.8887C16.5707 10.9797 17.1563 11.1095 17.7049 11.2095C17.6227 11.2386 17.5411 11.2683 17.4589 11.2983C17.6259 11.6033 18.0266 11.361 18.281 11.4317C18.5603 11.5094 18.8258 11.6928 19.1236 11.7217C19.2832 11.9967 20.7846 12.3743 20.8689 12.9924C20.6834 13.4446 18.2147 14.5623 17.7096 14.5795L17.6725 14.3247C17.6057 14.4195 17.69 14.6029 17.6105 14.7726L16.7858 15.0743C16.6698 15.0939 16.5262 15.1123 16.4175 15.1505C14.2006 15.8573 12.0355 16.016 9.74333 15.8376C9.6013 15.8265 9.39355 15.8007 9.25628 15.8075L9.04481 15.8062C9.0623 15.8207 5.51296 15.08 5.42816 15.0935C5.337 14.5281 6.50086 11.3641 6.94552 10.9898L7.08597 10.9013C7.32871 10.8452 7.74687 10.7033 7.9472 10.8444C8.07122 10.706 8.16185 10.7238 8.32296 10.7277C8.92662 10.6684 9.72373 10.4821 10.294 10.4572Z" fill="#F8EFDB"/>
<path d="M10.294 10.4572C10.8123 10.3494 11.7827 10.3867 12.3265 10.3971C12.4055 10.5451 12.5396 10.8618 12.6578 10.9386C12.556 11.1368 12.5311 11.1146 12.5375 11.3108C12.7685 11.3832 12.7813 11.2547 12.9816 11.3621C13.0044 11.4924 12.9784 11.5489 12.9413 11.6724C12.9148 11.5761 12.8989 11.5072 12.8819 11.4089C12.7341 11.4235 12.7632 11.5828 12.5703 11.7188L12.326 11.6648C12.2507 11.7301 12.2444 11.9042 12.1951 12.0504C11.7578 12.1807 11.7764 11.6702 11.7197 11.6497C11.4754 11.5612 11.071 11.5768 10.9655 11.2189L11.0742 10.9969C11.1823 10.5512 10.5775 10.4805 10.294 10.4572Z" fill="#ECE8DD"/>
<path d="M11.0742 10.9969C11.4112 11.2421 11.3397 10.9826 11.6381 11.1534L11.3657 11.5004C11.2263 11.346 11.151 11.3161 10.9655 11.2189L11.0742 10.9969Z" fill="#DBD3C8"/>
<path d="M11.6381 11.1534C11.7807 11.317 11.7965 11.2809 11.8076 11.4573C11.6709 11.5725 11.5337 11.5695 11.3657 11.5004L11.6381 11.1534Z" fill="#FADB93"/>
<path d="M12.3265 10.3971C12.8496 10.4825 13.3775 10.5094 13.891 10.6357L13.987 10.69C13.9144 11.3922 14.235 11.1618 14.2515 11.5963L14.2 11.6205L14.0246 11.4006L13.9785 11.4406C13.9828 11.5513 14.0002 11.8037 13.979 11.9018L13.713 11.9235L13.6118 11.9796C13.4708 12.3072 13.5593 12.329 13.5842 12.6937L13.5158 12.7372C13.3802 12.666 13.4093 12.7054 13.3605 12.5936C13.4724 12.195 13.1867 12.0395 12.9413 11.6724C12.9784 11.5489 13.0044 11.4924 12.9816 11.3621C12.7813 11.2547 12.7685 11.3832 12.5375 11.3108C12.5311 11.1146 12.556 11.1368 12.6578 10.9386C12.5396 10.8618 12.4055 10.5451 12.3265 10.3971Z" fill="#EDD5B4"/>
<path d="M12.3265 10.3971C12.8496 10.4825 13.3775 10.5094 13.891 10.6357C13.8847 10.7602 13.8884 11.0214 13.8275 11.1102C13.6743 11.0589 13.6473 10.8445 13.5821 10.9131C13.3075 11.2028 12.9874 11.101 12.6578 10.9386C12.5396 10.8618 12.4055 10.5451 12.3265 10.3971Z" fill="#FCE9B2"/>
<path d="M13.6578 11.5094L13.7426 11.4513C13.8905 11.561 13.9271 11.7082 13.979 11.9018L13.713 11.9235C13.6277 11.9054 13.5402 11.882 13.4554 11.8606L13.4337 11.7524L13.6578 11.5094Z" fill="#FADB93"/>
<path d="M13.4337 11.7524C13.2487 11.6919 13.3001 11.7353 13.1825 11.59L13.1973 11.476L13.3197 11.4029C13.4814 11.4171 13.5243 11.4126 13.6578 11.5094L13.4337 11.7524Z" fill="#ECE8DD"/>
<path d="M7.08597 10.9013C7.32871 10.8452 7.74687 10.7033 7.9472 10.8444C7.80146 10.9888 7.09498 11.1041 6.94552 10.9898L7.08597 10.9013Z" fill="#C1AA88"/>
<path d="M14.66 11.2571C14.6516 11.062 14.6473 11.1262 14.7655 10.9421L14.881 10.9238C15.0761 11.0702 15.0787 11.1159 15.0533 11.3627L15.0914 11.3986C15.3125 11.3344 15.4598 11.2893 15.6914 11.2579L15.7317 11.3839C15.9495 11.4102 16.1885 12.1461 16.2362 12.3518L16.3481 12.3807L16.5081 12.5109C16.5325 12.6946 16.5521 12.6415 16.471 12.7822L16.3486 12.8303L16.003 12.9015C15.8626 13.0816 15.8366 13.0867 15.6437 13.0465C15.3808 12.8572 15.3236 12.6368 15.2388 12.3339L15.1662 12.2783C14.9356 12.3894 14.0553 12.3806 13.8624 12.1925C13.8725 12.0273 13.9329 11.9753 14.0373 11.8475L14.2403 11.84C14.3595 11.6565 14.4936 11.4497 14.6357 11.2855L14.66 11.2571Z" fill="#EDD5B4"/>
<path d="M14.66 11.2571C14.8418 11.3892 14.9701 11.7256 14.8848 11.9382C14.6882 12.152 14.6325 12.1341 14.3442 12.0819C14.1884 11.9132 14.2307 11.9122 14.0373 11.8475L14.2403 11.84C14.3595 11.6565 14.4936 11.4497 14.6357 11.2855L14.66 11.2571Z" fill="#ECE8DD"/>
<path d="M16.2362 12.3518L16.3481 12.3807L16.5081 12.5109C16.5325 12.6946 16.5521 12.6415 16.471 12.7822L16.3486 12.8303L16.003 12.9015L15.835 12.6855C16.0317 12.4473 16.0078 12.7093 16.1954 12.4331L16.2362 12.3518Z" fill="#FADB93"/>
<path d="M15.2388 12.3339L15.2924 12.3562L15.3618 12.5054C15.409 12.514 15.4975 12.5331 15.5409 12.5344L15.534 12.6654C15.6448 12.7748 15.586 12.7487 15.7641 12.749L15.835 12.6855L16.003 12.9015C15.8626 13.0816 15.8366 13.0867 15.6437 13.0465C15.3808 12.8572 15.3236 12.6368 15.2388 12.3339Z" fill="#EDD5B4"/>
<path d="M15.6538 12.5012C15.8043 12.4278 15.9034 12.3015 16.0216 12.1787L16.1048 12.209L16.1954 12.4331C16.0078 12.7093 16.0317 12.4473 15.835 12.6855L15.7641 12.749C15.586 12.7487 15.6448 12.7748 15.534 12.6654L15.5409 12.5344L15.6538 12.5012Z" fill="#FCE9B2"/>
<path d="M15.3623 12.208C15.516 12.2301 15.5891 12.2388 15.7439 12.2374C15.7529 12.3668 15.7232 12.3711 15.6538 12.5012L15.5409 12.5344C15.4975 12.5331 15.409 12.514 15.3618 12.5054L15.2924 12.3562L15.3623 12.208Z" fill="#FADB93"/>
<path d="M16.3481 12.3807C16.3216 12.0922 16.0911 11.9586 16.3857 11.701L16.3184 11.64C15.9692 11.6419 15.9215 11.3112 15.9522 11.0223C16.1038 10.98 16.1997 11.1109 16.3577 11.1148C17.3397 11.1387 17.0392 11.5048 17.2973 12.1456C17.4076 12.2142 17.424 12.2387 17.504 12.3377C17.4272 12.4395 17.3593 12.5218 17.301 12.6362C17.3986 12.8054 17.4086 12.8563 17.4553 13.0485C17.2989 13.1333 17.3466 13.0936 17.2825 13.3043C17.2814 13.1515 17.2555 13.1094 17.1961 12.9706C16.9995 12.8198 17.0694 12.8633 16.7986 12.8269V12.7045L16.7292 12.6475C16.5686 12.7121 16.558 12.7777 16.5182 12.9557L16.4085 13.0074L16.3486 12.8303L16.471 12.7822C16.5521 12.6415 16.5325 12.6946 16.5081 12.5109L16.3481 12.3807Z" fill="#EDD5B4"/>
<path d="M17.504 12.3377C17.7441 12.0221 17.2888 11.9392 17.4812 11.5751C17.7038 11.5764 18.0107 12.0242 18.166 12.1871C18.1819 11.9227 18.1506 11.8635 18.3536 11.6913C18.4977 11.7519 18.4511 11.7225 18.5449 11.8635C18.5507 12.0227 18.5264 12.4844 18.5613 12.5887L18.6334 12.5747C18.6753 12.4447 18.7124 12.3439 18.7278 12.2073C18.953 12.8103 18.6467 12.4463 18.5608 12.9036C18.6875 13.1486 18.7034 12.9957 18.8534 13.1904C18.7532 13.1415 18.7331 13.1332 18.6239 13.1133C18.3281 13.6202 17.8093 13.3556 17.4553 13.0485C17.4086 12.8563 17.3986 12.8054 17.301 12.6362C17.3593 12.5218 17.4272 12.4395 17.504 12.3377Z" fill="#FADB93"/>
<path d="M17.5718 12.513C17.6763 12.5243 17.7833 12.5354 17.8861 12.5573C18.0027 12.5822 18.1204 12.6557 18.1835 12.7608C18.2836 12.9275 18.2524 13.0541 18.2052 13.2249L18.1045 13.1861C17.9513 12.99 17.619 12.7231 17.5718 12.513Z" fill="#EDD5B4"/>
<path d="M16.7986 12.8269C17.0694 12.8633 16.9995 12.8198 17.1961 12.9706C17.2555 13.1094 17.2814 13.1515 17.2825 13.3043C17.3466 13.0936 17.2989 13.1333 17.4553 13.0485C17.8093 13.3556 18.3281 13.6202 18.6239 13.1133C18.7331 13.1332 18.7532 13.1415 18.8534 13.1904C18.8391 13.3044 18.8258 13.3969 18.8035 13.5103L18.8846 13.6084C19.2482 13.6088 19.5784 12.9707 19.836 13.5218L19.8142 13.5723C19.7353 13.5084 19.6261 13.3878 19.554 13.4187C19.3463 13.5071 19.085 13.6526 18.8873 13.7579C18.5873 13.6838 18.1045 13.4745 17.9269 13.4664C17.8199 13.5698 17.8533 13.6079 17.8358 13.8043C17.646 13.8245 17.5337 13.853 17.363 13.7656C17.257 13.6936 17.177 13.5121 17.1113 13.3907C17.0143 13.0664 16.8023 13.308 16.7986 12.8269Z" fill="#EDD5B4"/>
<path d="M16.7986 12.8269C17.0694 12.8633 16.9995 12.8198 17.1961 12.9706C17.2555 13.1094 17.2814 13.1515 17.2825 13.3043C17.4478 13.3712 17.5146 13.384 17.5968 13.5402L17.5999 13.6473C17.478 13.7692 17.5395 13.7361 17.363 13.7656C17.257 13.6936 17.177 13.5121 17.1113 13.3907C17.0143 13.0664 16.8023 13.308 16.7986 12.8269Z" fill="#FADB93"/>
<path d="M17.2825 13.3043C17.3466 13.0936 17.2989 13.1333 17.4553 13.0485C17.734 13.4257 17.8114 13.3702 17.8358 13.8043C17.646 13.8245 17.5337 13.853 17.363 13.7656C17.5395 13.7361 17.478 13.7692 17.5999 13.6473L17.5968 13.5402C17.5146 13.384 17.4478 13.3712 17.2825 13.3043Z" fill="#FCE9B2"/>
<path d="M16.5182 12.9557C16.558 12.7777 16.5686 12.7121 16.7292 12.6475L16.7986 12.7045V12.8269C16.8023 13.308 17.0143 13.0664 17.1113 13.3907L17.045 13.4937L17.1161 13.8364L17.0737 13.8707L16.6126 13.5196C16.4218 13.4348 15.9861 13.3336 15.9379 13.2908C16.0492 13.1618 16.1324 13.1494 16.2946 13.1656L16.4085 13.0074L16.5182 12.9557Z" fill="#FCE9B2"/>
<path d="M16.4085 13.0074L16.5182 12.9557C16.6295 13.0867 16.6788 13.1285 16.7085 13.297C16.6862 13.4038 16.6878 13.4464 16.6126 13.5196C16.4218 13.4348 15.9861 13.3336 15.9379 13.2908C16.0492 13.1618 16.1324 13.1494 16.2946 13.1656L16.4085 13.0074Z" fill="#FADB93"/>
<path d="M8.36269 14.9877L8.51321 15.0361C8.52169 15.2106 8.42258 15.3247 8.33779 15.4731C8.20688 15.3748 8.12049 15.3336 8.05318 15.1807C8.13851 15.0378 8.21059 15.0411 8.36269 14.9877Z" fill="#FCE9B2"/>
<path d="M10.0147 10.7268L10.0831 10.7094C10.3645 10.8045 10.4689 10.9895 10.6417 11.2255L10.6777 11.2079L10.674 11.2629L10.5362 11.2347C10.4149 11.2639 10.2866 11.3237 10.1727 11.2693C10.2389 11.1626 10.3073 11.0573 10.3778 10.9535C10.2792 10.798 10.1658 10.8413 10.028 10.7377C10.0237 10.7342 10.019 10.7304 10.0147 10.7268Z" fill="#ECE8DD"/>
<path d="M19.987 5.14503L20.0188 5.1522C20.0464 5.37596 20.0093 5.30446 20.1518 5.45457L20.3246 5.50649C20.3511 5.71375 20.4158 5.72146 20.4661 5.89184C20.6182 6.40433 20.5827 6.82235 20.1964 7.22264C19.9806 7.48517 19.9033 7.57569 19.9329 7.92848C19.934 7.94498 19.9356 7.96153 19.9372 7.97803C19.7623 7.94336 19.5508 7.93451 19.4315 7.81777C19.4443 7.98066 19.4469 8.08779 19.4978 8.24389L19.3775 8.1354L19.2614 8.15519C19.3473 8.45028 19.4151 8.65997 19.4469 8.9666C19.6176 9.35535 20.2022 10.0978 20.1741 10.3658C20.1036 10.4439 20.0734 10.4476 20.0723 10.5332C20.4634 11.0927 20.7131 11.7654 20.8922 12.4244C20.6866 12.068 19.6669 11.5409 19.2487 11.5822C18.7728 11.5541 18.0387 11.2227 17.628 11.0822C17.5119 11.0425 16.8478 11.0525 16.5288 10.9626C16.2007 10.867 15.6087 10.8379 15.3183 10.7164C14.8031 10.5013 14.5493 10.6106 14.0532 10.512C12.5676 10.2166 11.1128 10.1359 9.61401 10.403C9.331 10.4534 8.42472 10.4742 8.32296 10.7277C8.16185 10.7238 8.07122 10.706 7.9472 10.8444C7.74687 10.7033 7.32871 10.8452 7.08597 10.9013C7.00965 10.4645 7.53539 9.9988 7.4241 9.5632C7.14585 9.55069 6.43725 9.41185 6.1325 9.36068C5.6677 9.14642 5.04179 9.04926 4.55261 8.8772L4.54519 8.66207L4.48742 8.50366L4.38354 8.42677C4.29079 8.46004 4.2839 8.45902 4.23038 8.53887C4.21713 8.3411 4.06714 7.85686 3.90973 7.70918L3.80691 7.7156C3.76875 7.86285 3.75497 7.92734 3.68342 8.06148L3.6686 8.08861L3.71577 7.46764C4.09842 7.71405 4.4355 7.82086 4.86585 7.94713L5.01478 7.91085C4.85101 7.72887 4.02953 7.7251 4.05656 7.35959C4.22615 7.34336 4.4143 7.5249 4.69625 7.58297L4.75243 7.51229L4.51658 7.36245C4.20495 7.41087 3.38294 6.92911 3.18472 6.63715C3.07501 6.38697 3.05382 6.02453 3.02308 5.74389C3.42004 5.97805 3.8276 6.19373 4.24417 6.39026C4.16574 6.31412 4.10637 6.22888 4.04012 6.14148C4.2288 6.00129 4.84147 6.1899 5.13827 6.23454C5.65501 6.44504 6.2396 6.65661 6.80033 6.69667C10.5357 7.28675 14.0453 7.47713 17.7277 6.42385C18.3409 6.24845 19.8254 5.84046 19.987 5.14503Z" fill="#CDC5BA"/>
<path d="M12.2406 9.87873C13.1422 10.1214 14.4931 10.0573 15.3331 9.66084C16.4578 9.12991 17.151 8.7107 18.4198 9.15606L18.4558 9.085C18.6525 9.11746 19.0484 9.35076 19.1947 9.4923C19.2551 9.35793 19.1427 9.26913 19.0971 9.04839L19.2127 9.02321C19.2784 9.08457 19.298 9.12215 19.3473 9.19845L19.4109 9.12026L19.3245 9.1366L19.431 9.06009L19.4469 8.9666C19.6176 9.35535 20.2022 10.0978 20.1741 10.3658C20.1036 10.4439 20.0734 10.4476 20.0723 10.5332C20.4634 11.0927 20.7131 11.7654 20.8922 12.4244C20.6866 12.068 19.6669 11.5409 19.2487 11.5822C18.7728 11.5541 18.0387 11.2227 17.628 11.0822C17.5119 11.0425 16.8478 11.0525 16.5288 10.9626C16.2007 10.867 15.6087 10.8379 15.3183 10.7164C14.8031 10.5013 14.5493 10.6106 14.0532 10.512C12.5676 10.2166 11.1128 10.1359 9.61401 10.403C9.331 10.4534 8.42472 10.4742 8.32296 10.7277C8.16185 10.7238 8.07122 10.706 7.9472 10.8444C7.74687 10.7033 7.32871 10.8452 7.08597 10.9013C7.00965 10.4645 7.53539 9.9988 7.4241 9.5632C8.20424 9.56201 9.06601 9.73212 9.764 9.74393C10.5892 9.79628 11.4149 9.8412 12.2406 9.87873Z" fill="#ECE8DD"/>
<path d="M18.4198 9.15606L18.4558 9.085C18.6525 9.11746 19.0484 9.35076 19.1947 9.4923C19.2551 9.35793 19.1427 9.26913 19.0971 9.04839L19.2127 9.02321C19.2784 9.08457 19.298 9.12215 19.3473 9.19845L19.4109 9.12026L19.3245 9.1366L19.431 9.06009L19.4469 8.9666C19.6176 9.35535 20.2022 10.0978 20.1741 10.3658C20.1036 10.4439 20.0734 10.4476 20.0723 10.5332C19.458 9.79435 19.2355 9.599 18.4198 9.15606Z" fill="#B4B6B0"/>
<path d="M19.987 5.14503L20.0188 5.1522C20.0464 5.37596 20.0093 5.30446 20.1518 5.45457L20.3246 5.50649C20.3511 5.71375 20.4158 5.72146 20.4661 5.89184C20.6182 6.40433 20.5827 6.82235 20.1964 7.22264C20.1863 6.77205 20.7136 6.38901 20.2276 5.7215C20.235 6.00392 20.3251 7.04076 19.8248 6.88839C20.041 6.62824 20.2885 6.3112 20.1237 5.95928C19.978 5.92925 20.0145 5.94186 19.8561 6.00791L19.9435 6.23965L19.9165 6.25173C19.7336 6.33482 19.5142 6.46357 19.3287 6.56117C17.2167 7.67236 14.9696 7.82252 12.6434 7.87601C12.5025 7.87924 12.3556 7.89277 12.2152 7.87665C11.8617 7.82791 9.94632 7.87806 9.58274 7.9495C8.55986 8.34989 4.86159 7.08988 4.57275 7.20095L4.51658 7.36245C4.20495 7.41087 3.38294 6.92911 3.18472 6.63715C3.07501 6.38697 3.05382 6.02453 3.02308 5.74389C3.42004 5.97805 3.8276 6.19373 4.24417 6.39026C4.16574 6.31412 4.10637 6.22888 4.04012 6.14148C4.2288 6.00129 4.84147 6.1899 5.13827 6.23454C5.65501 6.44504 6.2396 6.65661 6.80033 6.69667C10.5357 7.28675 14.0453 7.47713 17.7277 6.42385C18.3409 6.24845 19.8254 5.84046 19.987 5.14503Z" fill="#DBD3C8"/>
<path d="M19.987 5.14503L20.0188 5.1522C20.0464 5.37596 20.0093 5.30446 20.1518 5.45457L20.3246 5.50649C20.3511 5.71375 20.4158 5.72146 20.4661 5.89184C20.6182 6.40433 20.5827 6.82235 20.1964 7.22264C20.1863 6.77205 20.7136 6.38901 20.2276 5.7215C20.235 6.00392 20.3251 7.04076 19.8248 6.88839C20.041 6.62824 20.2885 6.3112 20.1237 5.95928C19.978 5.92925 20.0145 5.94186 19.8561 6.00791C16.1128 8.08947 8.64201 7.74148 4.62416 6.5348C4.49484 6.49463 4.36766 6.44638 4.24417 6.39026C4.16574 6.31412 4.10637 6.22888 4.04012 6.14148C4.2288 6.00129 4.84147 6.1899 5.13827 6.23454C5.65501 6.44504 6.2396 6.65661 6.80033 6.69667C10.5357 7.28675 14.0453 7.47713 17.7277 6.42385C18.3409 6.24845 19.8254 5.84046 19.987 5.14503Z" fill="#441307"/>
<path d="M3.18472 6.63715C4.91249 6.81901 7.96415 8.00935 9.58274 7.9495C8.55986 8.34989 4.86159 7.08988 4.57275 7.20095L4.51658 7.36245C4.20495 7.41087 3.38294 6.92911 3.18472 6.63715Z" fill="#A19181"/>
<path d="M3.71577 7.46764C4.09842 7.71405 4.4355 7.82086 4.86585 7.94713L4.85527 7.98974C5.13881 8.0402 5.59672 8.17095 5.87497 8.2734C6.26769 8.31782 7.09023 8.60747 7.63718 8.67163C11.0328 9.06982 14.8148 9.1934 18.0891 8.08096C18.3101 8.06738 18.8592 7.81973 19.0897 7.72252C19.1374 7.89295 19.1496 8.04552 19.2614 8.15519C19.3473 8.45028 19.4151 8.65997 19.4469 8.9666L19.431 9.06009L19.3245 9.1366L19.4109 9.12026L19.3473 9.19845C19.298 9.12215 19.2784 9.08457 19.2127 9.02321L19.0971 9.04839C19.1427 9.26913 19.2551 9.35793 19.1947 9.4923C19.0484 9.35076 18.6525 9.11746 18.4558 9.085L18.4198 9.15606C17.151 8.7107 16.4578 9.12991 15.3331 9.66084C14.4931 10.0573 13.1422 10.1214 12.2406 9.87873C11.4149 9.8412 10.5892 9.79628 9.764 9.74393C9.06601 9.73212 8.20424 9.56201 7.4241 9.5632C7.14585 9.55069 6.43725 9.41185 6.1325 9.36068C5.6677 9.14642 5.04179 9.04926 4.55261 8.8772L4.54519 8.66207L4.48742 8.50366L4.38354 8.42677C4.29079 8.46004 4.2839 8.45902 4.23038 8.53887C4.21713 8.3411 4.06714 7.85686 3.90973 7.70918L3.80691 7.7156C3.76875 7.86285 3.75497 7.92734 3.68342 8.06148L3.6686 8.08861L3.71577 7.46764Z" fill="#C6C4C0"/>
<path d="M9.764 9.74393C9.9654 9.71762 10.3894 9.72347 10.4938 9.65953L10.4313 9.52177C10.921 9.30868 12.0366 9.25374 12.2714 9.81583L12.2406 9.87873C11.4149 9.8412 10.5892 9.79628 9.764 9.74393Z" fill="#DBD3C8"/>
<path d="M4.85527 7.98974C5.13881 8.0402 5.59672 8.17095 5.87497 8.2734C5.64283 8.31707 4.8807 8.52278 4.77417 8.2774C4.85685 8.20424 4.87645 8.18159 4.94164 8.09198L4.8102 8.03402L4.85527 7.98974Z" fill="#DBD3C8"/>
<path d="M4.48742 8.50366C4.68934 8.52313 4.81872 8.52193 5.0217 8.56323L5.06304 8.62081C4.90511 8.71414 4.72909 8.67755 4.54519 8.66207L4.48742 8.50366Z" fill="#DBD3C8"/>
<path d="M19.8248 6.88839C20.3251 7.04076 20.235 6.00392 20.2276 5.7215C20.7136 6.38901 20.1863 6.77205 20.1964 7.22264C19.9806 7.48517 19.9033 7.57569 19.9329 7.92848C19.934 7.94498 19.9356 7.96153 19.9372 7.97803C19.7623 7.94336 19.5508 7.93451 19.4315 7.81777C19.4443 7.98066 19.4469 8.08779 19.4978 8.24389L19.3775 8.1354L19.2614 8.15519C19.1496 8.04552 19.1374 7.89295 19.0897 7.72252C18.8592 7.81973 18.3101 8.06738 18.0891 8.08096C14.8148 9.1934 11.0328 9.06982 7.63718 8.67163C7.09023 8.60747 6.26769 8.31782 5.87497 8.2734C5.59672 8.17095 5.13881 8.0402 4.85527 7.98974L4.86585 7.94713L5.01478 7.91085C4.85101 7.72887 4.02953 7.7251 4.05656 7.35959C4.22615 7.34336 4.4143 7.5249 4.69625 7.58297L4.75243 7.51229C8.75068 8.61458 12.4225 8.81669 16.4949 8.06216C16.8023 8.00517 17.2046 7.88661 17.4961 7.85846C18.2131 7.6704 19.1984 7.28641 19.8248 6.88839Z" fill="#705236"/>
<path d="M19.8248 6.88839C20.3251 7.04076 20.235 6.00392 20.2276 5.7215C20.7136 6.38901 20.1863 6.77205 20.1964 7.22264C19.9806 7.48517 19.9033 7.57569 19.9329 7.92848C19.934 7.94498 19.9356 7.96153 19.9372 7.97803C19.7623 7.94336 19.5508 7.93451 19.4315 7.81777C19.4443 7.98066 19.4469 8.08779 19.4978 8.24389L19.3775 8.1354L19.2614 8.15519C19.1496 8.04552 19.1374 7.89295 19.0897 7.72252C18.8592 7.81973 18.3101 8.06738 18.0891 8.08096C17.4902 7.99238 16.0312 8.79906 15.8605 8.31806C15.9766 8.15172 17.1463 8.20025 17.4961 7.85846C18.2131 7.6704 19.1984 7.28641 19.8248 6.88839Z" fill="#703913"/>
<path d="M19.0897 7.72252L19.3038 7.59069C19.4104 7.65016 19.3854 7.66691 19.4315 7.81777C19.4443 7.98066 19.4469 8.08779 19.4978 8.24389L19.3775 8.1354L19.2614 8.15519C19.1496 8.04552 19.1374 7.89295 19.0897 7.72252Z" fill="#B4B6B0"/>
<path d="M19.9435 6.23965C19.978 6.52315 19.5625 6.68404 19.3425 6.80239C18.2359 7.39721 17.0265 7.74563 15.7799 7.85411C15.0539 7.92879 12.6413 8.13853 11.9948 8.00298C12.0499 7.91239 12.0954 7.92135 12.2152 7.87665C12.3556 7.89277 12.5025 7.87924 12.6434 7.87601C14.9696 7.82252 17.2167 7.67236 19.3287 6.56117C19.5142 6.46357 19.7336 6.33482 19.9165 6.25173L19.9435 6.23965Z" fill="#7B6D5C"/>
<path d="M19.4315 7.81777C19.5508 7.93451 19.7623 7.94336 19.9372 7.97803C20.8032 9.11656 21.71 10.032 22.2962 11.3711C23.1161 13.2444 22.9624 15.4633 22.9719 17.478L22.9963 22.6513L23 26.7719C22.9968 27.5689 23.0154 29.9931 22.7127 30.5983C21.1615 33.7008 17.1865 34.7643 14.0108 34.8977C13.1581 34.9335 12.5433 35.0288 11.8103 34.9915L11.787 34.924C12.0345 34.7144 13.1989 34.9391 13.599 34.7992L13.6112 34.743L13.3102 34.5399C12.9328 34.5432 11.5883 34.6306 11.345 34.4741C9.61139 34.4441 7.88574 34.2294 6.19614 33.8336C6.31803 33.7658 6.35195 33.7791 6.48497 33.7976C6.56818 33.7446 6.50246 33.5171 6.54539 33.3865C6.99377 32.896 8.07336 33.8434 8.50742 33.6605L8.50636 33.5106C8.62189 33.4642 8.73001 33.4574 8.85244 33.4612C9.44285 33.4798 10.0417 33.5897 10.6332 33.6316C11.6598 33.7044 12.6864 33.727 13.7151 33.8069C14.0702 33.8345 14.4226 33.8305 14.774 33.7678C15.2303 33.6864 15.6612 33.5093 16.1006 33.3652C17.4876 32.9101 18.9588 32.4826 20.0819 31.4938C21.2616 30.4553 21.4429 29.4546 21.5484 27.9272C21.6581 27.0518 21.6438 25.8045 21.6671 24.8981C21.7174 22.9704 21.6925 21.0188 21.657 19.0893C21.604 17.754 21.7275 16.4163 21.6528 15.0821C21.534 12.9665 21.0692 12.3739 19.2487 11.5822C19.6669 11.5409 20.6866 12.068 20.8922 12.4244C20.7131 11.7654 20.4634 11.0927 20.0723 10.5332C20.0734 10.4476 20.1036 10.4439 20.1741 10.3658C20.2022 10.0978 19.6176 9.35535 19.4469 8.9666C19.4151 8.65997 19.3473 8.45028 19.2614 8.15519L19.3775 8.1354L19.4978 8.24389C19.4469 8.08779 19.4443 7.98066 19.4315 7.81777Z" fill="#DBD3C8"/>
<path d="M19.4315 7.81777C19.5508 7.93451 19.7623 7.94336 19.9372 7.97803C20.8032 9.11656 21.71 10.032 22.2962 11.3711C23.1161 13.2444 22.9624 15.4633 22.9719 17.478L22.9963 22.6513L23 26.7719C22.9968 27.5689 23.0154 29.9931 22.7127 30.5983C21.1615 33.7008 17.1865 34.7643 14.0108 34.8977C13.1581 34.9335 12.5433 35.0288 11.8103 34.9915L11.787 34.924C12.0345 34.7144 13.1989 34.9391 13.599 34.7992L13.6112 34.743L13.3102 34.5399C12.9328 34.5432 11.5883 34.6306 11.345 34.4741C14.1815 34.3817 16.5866 34.4013 19.2169 33.0992C22.5739 31.4376 22.5363 29.4831 22.54 26.2178L22.5537 22.6117C22.5707 20.7398 22.5643 18.8678 22.5336 16.9961C22.4774 14.1769 22.3884 11.8432 20.4545 9.58784C20.1407 9.22217 19.7008 8.66881 19.4978 8.24389C19.4469 8.08779 19.4443 7.98066 19.4315 7.81777Z" fill="#663E16"/>
<path d="M8.32296 10.7277C8.42472 10.4742 9.331 10.4534 9.61401 10.403C11.1128 10.1359 12.5676 10.2166 14.0532 10.512C14.5493 10.6106 14.8031 10.5013 15.3183 10.7164C15.6087 10.8379 16.2007 10.867 16.5288 10.9626C16.8478 11.0525 17.5119 11.0425 17.628 11.0822C18.0387 11.2227 18.7728 11.5541 19.2487 11.5822C21.0692 12.3739 21.534 12.9665 21.6528 15.0821C21.7275 16.4163 21.604 17.754 21.657 19.0893C21.6925 21.0188 21.7174 22.9704 21.6671 24.8981C21.6438 25.8045 21.6581 27.0518 21.5484 27.9272C21.4429 29.4546 21.2616 30.4553 20.0819 31.4938C18.9588 32.4826 17.4876 32.9101 16.1006 33.3652C15.6612 33.5093 15.2303 33.6864 14.774 33.7678C14.4226 33.8305 14.0702 33.8345 13.7151 33.8069C12.6864 33.727 11.6598 33.7044 10.6332 33.6316C10.0417 33.5897 9.44285 33.4798 8.85244 33.4612C8.73001 33.4574 8.62189 33.4642 8.50636 33.5106L8.50742 33.6605C8.07336 33.8434 6.99377 32.896 6.54539 33.3865C6.50246 33.5171 6.56818 33.7446 6.48497 33.7976C6.35195 33.7791 6.31803 33.7658 6.19614 33.8336C4.89554 33.5882 2.92928 32.6093 2.03095 31.6408L2.11358 31.5283C2.12842 31.5191 2.14326 31.51 2.15863 31.5015C2.37274 31.3816 2.51849 31.4663 2.7342 31.5322C2.82165 31.4261 2.77395 31.2523 2.76494 31.1147C3.13593 31.4704 3.45445 31.6624 3.89488 31.9042C3.8228 31.7788 3.69825 31.6182 3.70355 31.4741C5.4769 32.3755 7.39017 32.9565 9.35855 33.1912C12.5703 33.5768 17.3874 33.3379 20.014 31.2133C21.1206 30.3179 21.2796 29.2151 21.428 27.8642C21.4688 27.4547 21.4487 26.6478 21.4497 26.2113L21.4614 23.1117C21.481 21.1951 21.4895 19.2785 21.4868 17.3619C21.4731 15.8417 21.7063 13.3127 20.4343 12.3404C20.1852 12.1502 19.4188 11.682 19.1236 11.7217C18.8258 11.6928 18.5603 11.5094 18.281 11.4317C18.0266 11.361 17.6259 11.6033 17.4589 11.2983C17.5411 11.2683 17.6227 11.2386 17.7049 11.2095C17.1563 11.1095 16.5707 10.9797 16.0189 10.8887C15.9087 10.8705 15.6681 11.0419 15.5674 11.0183C15.2722 10.9486 14.9849 10.8045 14.6839 10.7562C14.2032 10.679 14.2922 10.9569 14.1354 11.0679C13.9117 10.3446 14.5662 10.8243 14.862 10.6413C14.659 10.6209 13.873 10.5077 13.7638 10.5485L13.987 10.69L13.891 10.6357C13.3775 10.5094 12.8496 10.4825 12.3265 10.3971C11.7827 10.3867 10.8123 10.3494 10.294 10.4572C9.72373 10.4821 8.92662 10.6684 8.32296 10.7277Z" fill="#C1AA88"/>
<path d="M2.76494 31.1147C3.13593 31.4704 3.45445 31.6624 3.89488 31.9042C4.32735 32.1005 8.46237 33.6037 8.50742 33.6605C8.07336 33.8434 6.99377 32.896 6.54539 33.3865C6.50246 33.5171 6.56818 33.7446 6.48497 33.7976C6.35195 33.7791 6.31803 33.7658 6.19614 33.8336C4.89554 33.5882 2.92928 32.6093 2.03095 31.6408L2.11358 31.5283C2.12842 31.5191 2.14326 31.51 2.15863 31.5015C2.37274 31.3816 2.51849 31.4663 2.7342 31.5322C2.82165 31.4261 2.77395 31.2523 2.76494 31.1147Z" fill="#CABEAD"/>
<path d="M2.6611 5.88909L2.94622 5.68291C2.95735 6.24996 2.93245 6.83869 3.51808 7.08089C3.51755 7.30174 3.54299 7.98493 3.51119 8.15752L3.61878 8.17574C3.5218 8.50232 3.18155 9.15468 2.93351 9.33094C2.01822 10.6167 1.48453 11.3889 0.990574 12.9C0.804548 13.5355 0.685299 14.2845 0.664629 14.951C0.59255 17.2816 0.610039 19.6664 0.610039 21.9992L0.626471 26.1045C0.635481 27.3749 0.555453 28.9438 0.970965 30.136C0.966725 30.382 1.15063 30.6155 1.11777 30.8346C0.94764 30.8524 0.763737 30.7167 0.617459 30.6361C0.526831 30.4634 0.440442 30.2433 0.285154 30.1231C-0.105978 29.3405 0.0217496 25.4769 0.0137997 24.4226C-0.0132298 22.6156 0.011679 20.4362 0.0461283 18.6273C0.0397685 17.7276 0.104426 16.8213 0.111316 15.9764C0.131986 13.4097 0.474364 11.6518 1.95781 9.50466C2.18888 9.07057 3.07291 8.42948 3.12961 7.9583C3.24992 6.96508 2.52436 7.06412 2.6611 5.88909Z" fill="#6A360E"/>
<path d="M0.0461283 18.6273L0.0546156 18.6104C0.237992 18.2391 0.133584 17.7158 0.194003 17.6628C0.188173 17.9523 0.331801 18.6109 0.320672 18.9278C0.292582 19.7582 0.439917 23.7605 0.25866 24.2766L0.22421 24.2875C0.1993 24.0677 0.18287 23.883 0.17068 23.6609C0.147361 23.9719 0.170677 24.1604 0.0137997 24.4226C-0.0132298 22.6156 0.011679 20.4362 0.0461283 18.6273Z" fill="#703913"/>
<path d="M0.990574 12.9C0.862847 12.5386 1.2455 11.4346 1.39284 11.0828C1.60748 10.5709 2.4385 9.51367 2.93351 9.33094C2.01822 10.6167 1.48453 11.3889 0.990574 12.9Z" fill="#705236"/>
<path d="M4.23038 8.53887C4.2839 8.45902 4.29079 8.46004 4.38354 8.42677L4.48742 8.50366L4.54519 8.66207L4.55261 8.8772C5.04179 9.04926 5.6677 9.14642 6.1325 9.36068C5.52885 9.78275 4.75082 10.9393 4.47204 11.6225C3.31455 12.1921 2.81053 12.1606 1.98321 13.3947L1.78128 13.3954C2.0325 12.5023 2.24609 11.7035 2.73262 10.8967C3.23081 10.0693 3.89277 9.44669 4.23038 8.53887Z" fill="#ECE8DD"/>
<path d="M4.23038 8.53887C4.2839 8.45902 4.29079 8.46004 4.38354 8.42677L4.48742 8.50366L4.54519 8.66207L4.55261 8.8772C3.94577 9.06069 2.13373 12.1055 2.21853 12.585C2.51638 12.6488 3.83553 11.441 4.47204 11.6225C3.31455 12.1921 2.81053 12.1606 1.98321 13.3947L1.78128 13.3954C2.0325 12.5023 2.24609 11.7035 2.73262 10.8967C3.23081 10.0693 3.89277 9.44669 4.23038 8.53887Z" fill="#CABEAD"/>
<path d="M4.47204 11.6225C4.15564 12.0056 3.8912 13.6325 3.82336 14.1704C3.80746 14.2971 3.98819 14.4128 3.93042 14.5815L3.70835 14.5278C3.61613 14.3612 2.28637 13.5924 1.98321 13.3947C2.81053 12.1606 3.31455 12.1921 4.47204 11.6225Z" fill="#F8EFDB"/>
<path d="M1.67849 29.6144C1.502 28.6968 1.27728 23.7143 1.48875 22.9334L1.56454 22.9627C1.62655 23.8934 1.66047 24.8259 1.66683 25.7588C1.69121 27.4053 1.48345 29.6081 2.82857 30.8149C3.09992 31.0583 3.40252 31.2709 3.70355 31.4741C3.69825 31.6182 3.8228 31.7788 3.89488 31.9042C3.45445 31.6624 3.13593 31.4704 2.76494 31.1147C2.28742 30.7557 1.97529 30.125 1.67849 29.6144Z" fill="#C1AA88"/>
<path d="M1.78128 13.3954L1.98321 13.3947C2.28637 13.5924 3.61613 14.3612 3.70835 14.5278C3.30662 14.6072 2.38232 13.9037 2.02245 13.6643C1.64616 15.5829 1.81046 17.2601 1.54652 18.9499L1.51207 19.0293C1.38646 17.3309 1.42831 15.0478 1.78128 13.3954Z" fill="#C1AA88"/>
<path d="M18.3875 14.5246C18.8359 14.3258 20.2462 13.6801 20.7295 13.3805C20.7348 13.377 20.8 13.3927 20.8154 13.3954C20.8466 14.3466 18.6843 14.513 18.3832 14.7784C18.1214 14.8994 17.0026 15.2499 16.7858 15.0743L17.6105 14.7726C17.867 14.6826 18.1262 14.6 18.3875 14.5246Z" fill="#C1AA88"/>
<path d="M16.4175 15.1505L16.5468 15.1975L16.5712 15.2828C15.1418 15.9637 11.0073 16.1312 9.39458 15.9218L9.25628 15.8075C9.39355 15.8007 9.6013 15.8265 9.74333 15.8376C12.0355 16.016 14.2006 15.8573 16.4175 15.1505Z" fill="#C1AA88"/>
<path d="M1.67849 29.6144C1.97529 30.125 2.28742 30.7557 2.76494 31.1147C2.77395 31.2523 2.82165 31.4261 2.7342 31.5322C2.51849 31.4663 2.37274 31.3816 2.15863 31.5015C2.14326 31.51 2.12842 31.5191 2.11358 31.5283C1.98161 30.8608 1.69704 30.3169 1.67849 29.6144Z" fill="#CABEAD"/>
<path d="M5.42816 15.0935C5.51296 15.08 9.0623 15.8207 9.04481 15.8062L9.022 15.8806C7.61276 15.687 6.8003 15.5256 5.42816 15.0935Z" fill="#CABEAD"/>
<path d="M16.7896 18.415C17.1383 18.3807 17.487 18.3978 17.8363 18.4094C17.9715 18.5624 18.1241 18.7208 18.2227 18.9012C18.4278 19.2758 18.3398 19.6113 18.2301 19.9938C18.1071 20.1135 17.9571 20.2114 17.8193 20.3135C17.9513 20.603 18.1331 20.8656 18.2826 21.146C18.3848 21.3386 18.5407 21.5881 18.4765 21.8078C18.353 21.8653 18.2534 21.879 18.1188 21.8874C18.0001 21.8247 17.831 21.3671 17.7345 21.2212C17.592 20.9928 17.4282 20.671 17.2194 20.5059C17.1637 20.462 17.1155 20.469 17.0466 20.4807C16.3852 20.5935 16.9936 21.5279 16.7106 21.932C16.6422 21.9591 16.5596 21.999 16.4859 22.0014C16.3666 22.0052 16.3348 21.9683 16.25 21.8898C16.0937 21.4894 16.1817 19.0645 16.1822 18.4569L16.7896 18.415Z" fill="#945B12"/>
<path d="M16.7371 18.9308C17.0159 18.929 17.3349 18.9005 17.5851 19.047C17.6768 19.1009 17.7494 19.1876 17.7759 19.2918C17.8204 19.4646 17.7605 19.7027 17.6763 19.8564C17.3694 19.9282 17.0662 19.9558 16.753 19.9799L16.7371 18.9308Z" fill="#EDD5B4"/>
<path d="M14.2753 18.4141C14.3431 18.441 14.4152 18.4708 14.473 18.5169C14.6749 18.6776 15.7662 21.5261 15.8149 21.8975C15.7434 21.9975 15.701 22.0454 15.5796 22.0845C15.2748 22.0381 15.1863 21.638 15.0046 21.4366C14.9001 21.3209 14.7714 21.3537 14.6288 21.3505L13.7957 21.3558C13.7548 21.5308 13.7156 21.7078 13.6658 21.8805C13.6197 22.0406 13.5566 22.0843 13.4199 22.1591C13.29 22.1622 13.1846 22.1697 13.0664 22.1055C13.0648 22.099 13.0627 22.0925 13.0606 22.086C12.9556 21.6618 14.0114 18.8554 14.2753 18.4141Z" fill="#945B12"/>
<path d="M14.3177 19.5579C14.3712 19.5942 14.394 19.6229 14.4247 19.6808C14.5641 19.9452 14.8233 20.4749 14.7364 20.7659L14.6288 20.7805C14.5143 20.7868 14.3744 20.8054 14.2615 20.7856C14.1539 20.7666 14.1513 20.7437 14.0882 20.6569C14.0325 20.3744 14.2514 19.848 14.3177 19.5579Z" fill="#ECE8DD"/>
<path d="M12.6689 20.5431L12.6636 20.5799C12.6079 20.9953 12.7224 21.3423 12.5094 21.7313C12.2767 22.1551 11.9396 22.3873 11.4478 22.3132C11.071 22.2554 10.7328 22.045 10.5108 21.7297C9.68399 20.5762 10.3057 17.9743 12.1294 18.7731C12.5041 18.9373 12.6207 19.3273 12.5714 19.7127L12.5009 19.8091C12.1151 19.8271 11.6412 18.8075 11.1187 19.4194C10.6936 19.9171 10.5664 21.0013 11.0763 21.4709C11.2284 21.613 11.4324 21.6833 11.6381 21.6647C12.0801 21.6239 12.2629 21.1818 11.9942 20.8256C11.7536 20.8106 11.5973 20.8416 11.4992 20.5922L11.5697 20.4659C11.9179 20.2422 12.3822 20.2137 12.6689 20.5431Z" fill="#945B12"/>
<path d="M11.9942 20.8256C11.7536 20.8106 11.5973 20.8416 11.4992 20.5922L11.5697 20.4659C11.9179 20.2422 12.3822 20.2137 12.6689 20.5431C12.406 20.7169 12.1357 20.7244 11.9942 20.8256Z" fill="#703913"/>
<path d="M7.38591 18.4958C7.52795 18.4917 7.65356 18.4777 7.78023 18.5529C7.99487 18.8261 7.84277 20.1319 7.86079 20.5468C7.87351 20.8374 7.9106 21.249 8.14009 21.45C8.24131 21.5385 8.3648 21.5634 8.49518 21.5482C9.69137 21.4083 8.6775 19.3307 9.20113 18.7195C9.2907 18.6147 9.3331 18.5905 9.46877 18.5821C9.50163 18.6081 9.53343 18.6345 9.56258 18.6653C9.7343 18.8477 9.71893 19.0754 9.71628 19.3095C9.71469 19.8635 9.74861 20.4781 9.66593 21.0237C9.6124 21.3742 9.50216 21.766 9.20272 21.9799C8.978 22.1406 8.69181 22.1628 8.4284 22.1131C7.89576 22.0127 7.61063 21.6982 7.31913 21.2628C7.2497 20.6489 7.1702 19.03 7.38591 18.4958Z" fill="#945B12"/>
<path d="M5.24321 18.414C5.34709 18.4027 5.45097 18.394 5.55538 18.3881C5.92955 18.3667 6.44417 18.4282 6.72824 18.7001C6.80456 18.7734 6.86551 18.8743 6.86445 18.9842C6.86339 19.1099 6.84537 19.1466 6.76004 19.2357C6.43092 19.2727 6.0684 18.9216 5.72338 18.8888C5.59777 18.8769 5.48753 18.9045 5.3932 18.9923C5.29038 19.0884 5.26388 19.2525 5.25964 19.3869C5.36829 19.6913 6.07953 19.9049 6.3599 20.0577C6.59945 20.1882 6.84431 20.3606 6.92222 20.6402C6.99694 20.9076 6.92381 21.2527 6.78813 21.4889C6.6302 21.7622 6.40442 21.8791 6.11557 21.9535C5.82885 21.9697 5.55379 21.979 5.27713 21.8865C5.02804 21.8033 4.79007 21.6698 4.67241 21.4197C4.6051 21.276 4.56482 21.0653 4.6263 20.9132C4.6581 20.8347 4.68089 20.8403 4.75509 20.8105C4.98298 20.8713 5.27925 21.2562 5.45732 21.4258C5.64918 21.4029 5.86171 21.3822 6.04403 21.3157C6.17705 21.2672 6.26927 21.196 6.32651 21.0639C6.32068 20.4419 5.02433 20.1629 4.72011 19.5703C4.63319 19.4011 4.59715 19.2349 4.65545 19.0504C4.72541 18.8277 5.0397 18.5182 5.24321 18.414Z" fill="#945B12"/>
<path d="M14.2302 29.2733C14.4136 29.2113 14.4719 29.1819 14.6595 29.2281C14.7576 29.3351 14.7693 29.3682 14.7883 29.5135C14.738 29.6549 14.6935 29.7127 14.5705 29.7966L14.4587 29.7632C14.3665 29.8495 14.3013 29.8985 14.3013 30.0378C14.3018 30.1375 14.3612 30.2601 14.306 30.3421L14.4841 30.3439L14.5318 30.1667L14.6081 30.1469C14.8249 30.4497 14.8217 30.8488 14.7973 31.2069C14.7693 31.2284 14.7327 31.2652 14.6998 31.276L14.4624 31.4393C14.4364 31.5464 14.4444 31.5914 14.3484 31.652L14.1089 31.5384C13.7909 31.71 13.8227 32.1499 13.3955 32.2649C13.3049 32.2239 13.2657 32.1525 13.2105 32.0723L13.0712 32.0695L13.0092 32.1379L13.0394 32.3226C12.821 32.46 12.4246 32.2609 12.2486 32.399L12.1219 32.4274C12.1225 32.257 12.1442 32.087 12.1749 31.9199C12.3313 31.7733 12.3997 31.8642 12.5592 31.7757C12.6021 31.7516 12.4802 31.4469 12.5671 31.1525C12.6403 31.0314 12.6795 30.9651 12.8173 30.9165C13.0462 30.9969 13.2105 31.2731 13.3144 31.4903C13.3187 31.4708 13.3208 31.4566 13.3271 31.4384C13.3695 31.3182 13.4432 31.2251 13.5577 31.1721C13.6764 31.2338 13.7119 31.3197 13.7856 31.4314L13.8444 31.4008C13.8746 31.1613 13.7071 31.0232 13.5943 30.8119C13.5964 30.6155 13.6658 30.6465 13.7702 30.5012C13.9764 30.2142 13.652 30.0906 13.6144 29.8342C13.6891 29.6869 14.0744 29.371 14.2302 29.2733Z" fill="#EDD5B4"/>
<path d="M14.4841 30.3439L14.5318 30.1667L14.6081 30.1469C14.8249 30.4497 14.8217 30.8488 14.7973 31.2069C14.7693 31.2284 14.7327 31.2652 14.6998 31.276L14.4624 31.4393C14.3087 31.3365 14.2472 31.3801 14.0697 31.41C13.9573 31.3294 13.89 31.155 13.8328 31.0294C13.775 30.9022 13.6738 30.6785 13.723 30.5448C13.899 30.623 13.9594 30.8967 14.1497 31.0115C14.2631 31.0293 14.3315 31.0409 14.4375 30.9803C14.421 30.8417 14.19 30.6261 14.103 30.4913L14.1333 30.4012L14.306 30.3421L14.4841 30.3439Z" fill="#C1AA88"/>
<path d="M14.4841 30.3439L14.5318 30.1667L14.6081 30.1469C14.8249 30.4497 14.8217 30.8488 14.7973 31.2069C14.7693 31.2284 14.7327 31.2652 14.6998 31.276C14.6919 30.9505 14.6007 30.6439 14.4841 30.3439Z" fill="#EDD5B4"/>
<path d="M12.5671 31.1525C12.6403 31.0314 12.6795 30.9651 12.8173 30.9165C13.0462 30.9969 13.2105 31.2731 13.3144 31.4903C13.2153 31.5534 13.1294 31.5909 13.0171 31.6234C12.8295 31.5152 12.8146 31.2916 12.6026 31.1718C12.591 31.1652 12.5788 31.1589 12.5671 31.1525Z" fill="#FCE9B2"/>
<path d="M14.2302 29.2733C14.4136 29.2113 14.4719 29.1819 14.6595 29.2281C14.7576 29.3351 14.7693 29.3682 14.7883 29.5135C14.738 29.6549 14.6935 29.7127 14.5705 29.7966L14.4587 29.7632L14.4767 29.6201C14.3564 29.615 14.253 29.6117 14.1396 29.5657C14.1285 29.4354 14.2069 29.3884 14.2875 29.2904L14.2302 29.2733Z" fill="#FADB93"/>
<path d="M14.2302 29.2733C14.4136 29.2113 14.4719 29.1819 14.6595 29.2281C14.7576 29.3351 14.7693 29.3682 14.7883 29.5135C14.738 29.6549 14.6935 29.7127 14.5705 29.7966L14.4587 29.7632L14.4767 29.6201C14.5678 29.5738 14.6161 29.5084 14.677 29.4293L14.6633 29.3157C14.5074 29.2307 14.4576 29.2615 14.2875 29.2904L14.2302 29.2733Z" fill="#FCE9B2"/>
<path d="M14.7348 26.5712C14.8366 26.5544 15.0931 26.4915 15.1763 26.5459C15.3454 26.6566 15.3554 26.7791 15.569 26.8481C15.6512 26.8216 15.7232 26.7867 15.7996 26.7454C15.7407 26.6728 15.6782 26.6136 15.6082 26.553L15.6252 26.4909L15.8732 26.4497L15.9389 26.3524C15.8928 26.3219 15.8457 26.2921 15.7985 26.2631L15.8584 26.2705C16.0375 26.5734 16.1748 26.9023 16.3248 27.2207L16.3698 27.3354L16.4085 27.3502C16.5352 27.3992 16.5956 27.4372 16.6709 27.5527L16.638 27.6071L16.6179 27.6065C16.4096 27.6016 16.2739 27.6408 16.0831 27.7187C15.4058 27.7961 15.3512 28.0841 14.8323 28.4553C14.8864 28.6153 14.9675 28.7543 14.9192 28.9191C14.7687 28.9499 14.5827 28.9467 14.4338 28.9084L14.4322 28.944L14.3808 28.9742C14.3956 28.7871 14.3999 28.3891 14.5318 28.262C14.5981 28.2668 14.6564 28.2749 14.72 28.2948L14.7375 28.3004L14.8122 28.2292C14.7194 28.1398 14.5875 28.0269 14.5281 27.9117C14.465 27.7892 14.4979 27.6989 14.5318 27.5766C14.6755 27.4534 14.8021 27.4771 14.9823 27.4494C15.0146 27.0927 14.6044 27.0938 14.553 26.8013C14.6383 26.6429 14.6468 26.4197 14.6733 26.2422L14.6749 26.3163L14.7263 26.3538L14.7348 26.5712Z" fill="#EDD5B4"/>
<path d="M15.7174 26.8551C15.8531 26.8608 15.9178 26.8594 16.0174 26.967C16.1425 27.102 16.1372 27.1811 16.3248 27.2207L16.3698 27.3354L16.4085 27.3502C16.5352 27.3992 16.5956 27.4372 16.6709 27.5527L16.638 27.6071L16.6179 27.6065C16.4096 27.6016 16.2739 27.6408 16.0831 27.7187L15.9485 27.5302C15.8404 27.539 15.7768 27.5175 15.6787 27.4769C15.6088 27.2911 15.6872 27.052 15.7174 26.8551Z" fill="#FADB93"/>
<path d="M15.3957 26.9939C15.4174 27.2311 15.3549 27.6051 15.2579 27.8234L15.1667 27.8407C15.1598 27.8318 15.1529 27.8229 15.1461 27.8138C14.977 27.5895 14.9478 27.0974 14.9918 26.8236C15.0151 26.6776 15.0597 26.6572 15.1704 26.5749C15.2372 26.7207 15.2992 26.8655 15.3957 26.9939Z" fill="#FADB93"/>
<path d="M14.7348 26.5712C14.8366 26.5544 15.0931 26.4915 15.1763 26.5459C15.3454 26.6566 15.3554 26.7791 15.569 26.8481C15.6512 26.8216 15.7232 26.7867 15.7996 26.7454C15.7407 26.6728 15.6782 26.6136 15.6082 26.553L15.6252 26.4909L15.8732 26.4497L15.9389 26.3524C15.8928 26.3219 15.8457 26.2921 15.7985 26.2631L15.8584 26.2705C16.0375 26.5734 16.1748 26.9023 16.3248 27.2207C16.1372 27.1811 16.1425 27.102 16.0174 26.967C15.9178 26.8594 15.8531 26.8608 15.7174 26.8551L15.3957 26.9939C15.2992 26.8655 15.2372 26.7207 15.1704 26.5749C15.0077 26.6129 14.8975 26.6092 14.7348 26.5712Z" fill="#EDD5B4"/>
<path d="M14.4338 28.9084L14.5652 28.7566C14.5785 28.6408 14.5684 28.5324 14.5578 28.4169C14.6643 28.366 14.7253 28.4168 14.8323 28.4553C14.8864 28.6153 14.9675 28.7543 14.9192 28.9191C14.7687 28.9499 14.5827 28.9467 14.4338 28.9084Z" fill="#FADB93"/>
<path d="M16.2961 25.1002C16.4403 25.1389 16.6189 25.1646 16.718 25.2857C16.7509 25.5398 16.5945 25.8115 16.462 26.0251C16.4255 26.0834 16.3767 26.1036 16.3184 26.1339C16.2484 26.0063 16.4048 25.7108 16.4122 25.5431C16.312 25.3821 16.2771 25.2913 16.2961 25.1002Z" fill="#EDD5B4"/>
<path d="M13.1989 30.0781C13.2445 30.0785 13.2757 30.0823 13.3197 30.0978C13.4315 30.1379 13.4284 30.1464 13.4777 30.252C13.4549 30.4258 13.3393 30.5584 13.2397 30.6948C13.2042 30.6927 13.1628 30.6903 13.13 30.6758C13.016 30.6252 13.0033 30.5808 12.972 30.4693C13.0065 30.2996 13.0876 30.2056 13.1989 30.0781Z" fill="#FADB93"/>
<path d="M14.0347 28.0869C14.1333 28.1796 14.1619 28.1945 14.1842 28.3349C14.0681 28.5557 13.7935 28.6688 13.5736 28.7509L13.5301 28.7641L13.4824 28.7326C13.5794 28.4961 13.8561 28.2699 14.0347 28.0869Z" fill="#FADB93"/>
<path d="M12.2486 32.399L12.1341 32.4955C11.6635 32.5866 11.293 32.3833 10.8394 32.2849L10.8235 32.2498C11.4833 32.377 11.2798 32.0896 11.7785 32.0065L11.84 32.0892L11.8151 32.1882L11.4346 32.3115L11.4107 32.3756C11.5994 32.5294 11.8893 32.4534 12.1219 32.4274L12.2486 32.399Z" fill="#FADB93"/>
<path d="M9.62516 26.373C9.76666 26.4133 9.86312 26.4508 9.97389 26.5508C10.0142 26.7131 9.98873 26.7397 9.92832 26.89L9.7407 26.8963L9.64742 26.8079C9.60396 26.6527 9.60714 26.5327 9.62516 26.373Z" fill="#F8EFDB"/>
<path d="M16.0221 25.3793C16.0581 25.4137 16.0878 25.4624 16.1175 25.5028C16.108 25.717 15.985 25.8945 15.8817 26.0749L15.7131 25.8939C15.7354 25.7197 15.9415 25.59 16.0157 25.3965L16.0221 25.3793Z" fill="#EDD5B4"/>
<path d="M0.285154 30.1231C0.440442 30.2433 0.526831 30.4634 0.617459 30.6361C0.763737 30.7167 0.94764 30.8524 1.11777 30.8346C1.15063 30.6155 0.966725 30.382 0.970965 30.136C1.26511 30.6946 1.57727 31.1963 2.03095 31.6408C2.92928 32.6093 4.89554 33.5882 6.19614 33.8336C7.88574 34.2294 9.61139 34.4441 11.345 34.4741C11.5883 34.6306 12.9328 34.5432 13.3102 34.5399L13.6112 34.743L13.599 34.7992C13.1989 34.9391 12.0345 34.7144 11.787 34.924L11.8103 34.9915C11.1526 35.0297 10.4387 34.9124 9.78043 34.8593C7.43257 34.6699 5.33487 34.5424 3.23558 33.2666C2.0431 32.5422 0.645548 31.5582 0.285154 30.1231Z" fill="#705236" fill-opacity="0.988235"/>
<path d="M20.0289 4.67384C20.1789 4.6775 20.2101 4.65001 20.3384 4.57431C20.3437 4.87182 20.3591 5.2149 20.3246 5.50649L20.1518 5.45457C20.0093 5.30446 20.0464 5.37596 20.0188 5.1522L20.0289 4.67384Z" fill="#250300"/>
</svg>
