<svg preserveAspectRatio="none" width="100%" height="100%" overflow="visible" style="display: block;" viewBox="0 0 101 84" fill="none" xmlns="http://www.w3.org/2000/svg">
<g id="Vector">
<path d="M51.8732 12.327C52.1471 10.3717 52.3919 8.36204 52.6383 6.41205C52.7406 5.59844 53.1019 0.734263 53.6931 0.434691C55.4799 -0.47191 59.3731 0.268571 61.2969 0.602701C63.9826 1.22913 65.8655 1.7606 68.4441 2.70797C69.8681 3.19503 70.9866 3.70938 72.2138 4.58407C73.8723 5.76683 73.925 6.19205 73.1639 7.99138C72.0414 10.6454 70.5269 13.343 69.5225 16.0319C69.2439 16.7329 68.9778 17.4383 68.7244 18.1478C68.9692 18.2004 69.3454 18.2942 69.5816 18.3297C70.989 18.7266 71.8485 19.0759 73.0686 19.9172C74.7696 21.0906 75.6678 22.8373 73.5511 24.2343C74.3249 24.981 75.0325 25.7892 75.6654 26.6502C77.0397 28.4964 78.1504 30.6333 78.9218 32.7517C79.1265 33.2358 79.6035 33.728 79.7782 34.2056C80.9519 37.4152 82.2459 42.3856 81.6611 45.7953C84.5719 48.4793 85.496 49.8341 87.0034 53.3804C88.8107 54.1245 88.9233 54.3383 89.0162 56.2238C89.823 57.2135 90.1961 57.4681 90.8408 58.6231C91.5287 58.6572 92.3277 58.8519 92.6559 59.4802C93.6831 61.4468 94.5584 63.812 95.2858 65.893C96.0705 66.0809 97.1615 66.2067 97.9794 66.3583C100.063 66.7448 101.365 66.6076 100.909 69.1646C100.82 69.6678 100.414 69.8451 99.9858 70.0891C99.8724 71.5942 98.9043 78.5883 98.0628 79.6917C96.7947 81.3529 86.831 83.9917 84.3901 84C83.965 84.0015 82.6789 83.8302 82.2609 83.7325C78.9942 82.9686 75.6032 82.1304 72.5609 80.7473C71.7005 80.3548 71.3141 79.2885 71.1165 78.4898C69.924 79.8069 68.9629 81.0581 67.291 81.878C63.6323 83.6718 62.646 80.3654 63.7142 77.5841C60.3964 76.1162 58.593 73.9208 57.9735 70.4393C54.5353 71.5237 52.4494 72.0163 48.8175 71.0766C48.2059 72.2126 47.7311 73.4335 47.3452 74.6566C46.9344 75.9593 46.0127 80.8724 45.1956 81.4991C44.3973 82.1122 43.2166 82.0539 42.2622 81.9728C39.9072 81.7735 36.1973 80.8375 34.6523 79.0248C34.1639 78.4519 33.9255 77.7546 34.0102 77.0135C34.1043 76.1905 34.6077 75.4516 35.2771 74.9469C36.0442 74.3694 37.1042 74.1852 38.0539 74.311L38.1529 74.3247C38.5937 72.4854 39.1188 70.4249 40.0978 68.7652C38.4257 68.0445 36.9935 67.2867 35.9753 65.7808C32.0561 64.3902 27.776 59.534 26.1889 55.8441C25.4013 54.0124 25.7264 53.4546 24.5075 51.529C20.3797 51.6055 15.3583 48.4524 13.1574 45.1669C11.5734 45.4065 10.8175 44.9836 10.5508 43.4504C7.37024 43.0247 5.1135 40.2429 4.58146 37.3168C4.26566 37.1294 3.95316 36.937 3.64421 36.7393C1.81638 35.5478 0.553411 33.9146 0.138507 31.8014C-0.259866 29.7519 0.209193 27.6341 1.44131 25.9194C2.8684 23.9435 5.36058 22.2234 7.83749 21.7932C9.89532 21.4358 13.3312 22.2299 14.9827 23.3756C16.6901 24.56 18.0598 27.2749 18.3676 29.2644C18.6823 31.2991 18.1794 32.9736 16.921 34.6141C17.6866 35.8562 17.8712 36.7447 17.5223 38.1465C18.5663 39.061 18.9259 39.4157 18.6569 40.8345C20.3682 42.2256 21.2639 42.6017 23.4788 42.917C24.3199 36.418 24.6758 32.5567 28.8743 26.9841C30.5076 24.7913 32.4914 22.8617 34.7522 21.2669C35.6221 20.6636 36.5649 20.14 37.4376 19.5599C38.4079 18.9148 38.9704 18.3586 40.0866 17.8653C41.504 17.2389 42.5859 16.9504 44.1038 16.7183C41.953 11.82 49.056 13.1415 51.6465 13.6261L51.8732 12.327ZM23.4788 42.917C21.2639 42.6017 20.3682 42.2256 18.6569 40.8345C18.9259 39.4157 18.5663 39.061 17.5223 38.1465C17.8712 36.7447 17.6866 35.8562 16.921 34.6141C18.1794 32.9736 18.6823 31.2991 18.3676 29.2644C18.0598 27.2749 16.6901 24.56 14.9827 23.3756C13.3312 22.2299 9.89532 21.4358 7.83749 21.7932C5.36058 22.2234 2.8684 23.9435 1.44131 25.9194C0.209193 27.6341 -0.259866 29.7519 0.138507 31.8014C0.553411 33.9146 1.81638 35.5478 3.64421 36.7393C3.95316 36.937 4.26566 37.1294 4.58146 37.3168C5.1135 40.2429 7.37024 43.0247 10.5508 43.4504C10.8175 44.9836 11.5734 45.4065 13.1574 45.1669C15.3583 48.4524 20.3797 51.6055 24.5075 51.529C25.7264 53.4546 25.4013 54.0124 26.1889 55.8441C27.776 59.534 32.0561 64.3902 35.9753 65.7808C36.9935 67.2867 38.4257 68.0445 40.0978 68.7652C39.1188 70.4249 38.5937 72.4854 38.1529 74.3247L38.0539 74.311C37.1042 74.1852 36.0442 74.3694 35.2771 74.9469C34.6077 75.4516 34.1043 76.1905 34.0102 77.0135C33.9255 77.7546 34.1639 78.4519 34.6523 79.0248C36.1973 80.8375 39.9072 81.7735 42.2622 81.9728C43.2166 82.0539 44.3973 82.1122 45.1956 81.4991C46.0127 80.8724 46.9344 75.9593 47.3452 74.6566C47.7311 73.4335 48.2059 72.2126 48.8175 71.0766C52.4494 72.0163 54.5353 71.5237 57.9735 70.4393C58.593 73.9208 60.3964 76.1162 63.7142 77.5841C62.646 80.3654 63.6323 83.6718 67.291 81.878C68.9629 81.0581 69.924 79.8069 71.1165 78.4898C71.3141 79.2885 71.7005 80.3548 72.5609 80.7473C75.6032 82.1304 78.9942 82.9686 82.2609 83.7325C82.6789 83.8302 83.965 84.0015 84.3901 84C86.831 83.9917 96.7947 81.3529 98.0628 79.6917C98.9043 78.5883 99.8724 71.5942 99.9858 70.0891C100.414 69.8451 100.82 69.6678 100.909 69.1646C101.365 66.6076 100.063 66.7448 97.9794 66.3583C97.1615 66.2067 96.0705 66.0809 95.2858 65.893C94.5584 63.812 93.6831 61.4468 92.6559 59.4802C92.3277 58.8519 91.5287 58.6572 90.8408 58.6231C90.1961 57.4681 89.823 57.2135 89.0162 56.2238C88.9233 54.3383 88.8107 54.1245 87.0034 53.3804C85.496 49.8341 84.5719 48.4793 81.6611 45.7953C82.2459 42.3856 80.9519 37.4152 79.7782 34.2056C79.6035 33.728 79.1265 33.2358 78.9218 32.7517C78.1504 30.6333 77.0397 28.4964 75.6654 26.6502C75.0325 25.7892 74.3249 24.981 73.5511 24.2343L73.2166 24.4328L72.6585 24.7428L72.7112 24.8237C74.217 27.0805 75.7882 27.6122 75.8653 30.5686C77.6947 31.1085 78.3834 34.0322 79.0045 35.5728C80.2686 38.707 80.5055 41.726 80.5866 45.0588C79.9254 44.6623 78.5684 43.6488 77.9418 44.551C78.3008 45.0052 79.5783 45.4758 80.1222 45.8788C83.0913 48.0772 84.3563 50.1497 85.9494 53.3137C83.7297 53.463 82.1145 53.6009 80.2301 54.9498C79.0918 53.1333 78.2433 52.0223 76.3494 50.8105C75.9732 50.9621 75.6646 50.9363 75.53 51.3266C76.2447 51.7692 76.8036 52.3035 77.4105 52.8703C77.1602 53.4493 76.5533 53.7123 76.1361 54.727C75.726 55.7243 75.7882 58.5685 75.4324 59.0512C73.9573 61.0489 71.1291 63.2936 69.2494 65.0351C69.0581 65.2132 67.0304 66.0718 66.6447 66.3181C66.0394 66.7039 65.5837 67.1768 64.9799 67.4405C64.1755 67.7762 63.2498 67.7307 62.4288 67.9498C61.8101 68.115 61.0379 68.4689 60.4066 68.5568C58.7347 68.7902 57.3179 69.4328 55.7223 69.8807C53.2499 70.5749 50.328 70.4461 47.9272 69.5511C47.5913 69.4245 47.4757 69.1509 47.2183 68.9554C46.9339 68.4674 46.7643 68.2279 46.3651 67.83C44.7213 67.6224 43.8667 68.3234 42.2879 68.3681C40.3927 67.902 38.7371 67.0873 37.2971 65.7679C36.9085 65.4118 36.5702 64.8411 36.1408 64.3849C32.5606 63.4058 28.5573 58.5784 27.2101 55.2787C26.8177 54.7558 26.6232 52.3201 26.3269 51.9882C24.8115 50.2937 24.8588 49.0827 24.6269 46.9603C24.4073 44.9507 24.4522 43.5161 24.784 41.514C25.1654 39.4729 25.1789 37.7446 25.8974 35.7124C26.1344 34.8578 26.4324 33.6774 26.83 32.8941C27.6175 30.7623 29.4058 28.0741 30.8788 26.3197C31.065 26.0313 31.674 25.4022 31.9281 25.124C33.9323 22.9302 36.2735 21.6874 38.7109 20.0828C39.1979 19.647 39.5442 19.4401 40.1181 19.1266C40.6908 18.7241 42.4958 18.123 43.2388 17.9712C43.8461 17.7932 44.3054 17.9891 44.6596 17.4647C44.4832 17.2925 44.2516 16.9315 44.1038 16.7183C42.5859 16.9504 41.504 17.2389 40.0866 17.8653C38.9704 18.3586 38.4079 18.9148 37.4376 19.5599C36.5649 20.14 35.6221 20.6636 34.7522 21.2669C32.4914 22.8617 30.5076 24.7913 28.8743 26.9841C24.6758 32.5567 24.3199 36.418 23.4788 42.917Z" fill="#F5C259"/>
<path d="M44.1038 16.7183C44.2516 16.9315 44.4832 17.2925 44.6596 17.4647C44.3054 17.9891 43.8461 17.7932 43.2388 17.9712C42.4958 18.123 40.6908 18.7241 40.1181 19.1266C39.5442 19.4401 39.1979 19.647 38.7109 20.0828C36.2735 21.6874 33.9323 22.9302 31.9281 25.124C31.674 25.4022 31.065 26.0313 30.8788 26.3197C29.4058 28.0741 27.6175 30.7623 26.83 32.8941C26.4324 33.6774 26.1344 34.8578 25.8974 35.7124C25.1789 37.7446 25.1654 39.4729 24.784 41.514C24.4522 43.5161 24.4073 44.9507 24.6269 46.9603C24.8588 49.0827 24.8115 50.2937 26.3269 51.9882C26.6232 52.3201 26.8177 54.7558 27.2101 55.2787C28.5573 58.5784 32.5606 63.4058 36.1408 64.3849C36.5702 64.8411 36.9085 65.4118 37.2971 65.7679C38.7371 67.0873 40.3927 67.902 42.2879 68.3681C43.8667 68.3234 44.7213 67.6224 46.3651 67.83C46.7643 68.2279 46.9339 68.4674 47.2183 68.9554C47.4757 69.1509 47.5913 69.4245 47.9272 69.5511C50.328 70.4461 53.2499 70.5749 55.7223 69.8807C57.3179 69.4328 58.7347 68.7902 60.4066 68.5568C61.0379 68.4689 61.8101 68.115 62.4288 67.9498C63.2498 67.7307 64.1755 67.7762 64.9799 67.4405C65.5837 67.1768 66.0394 66.7039 66.6447 66.3181C67.0304 66.0718 69.0581 65.2132 69.2494 65.0351C71.1291 63.2936 73.9573 61.0489 75.4324 59.0512C75.7882 58.5685 75.726 55.7243 76.1361 54.727C76.5533 53.7123 77.1602 53.4493 77.4105 52.8703C76.8036 52.3035 76.2447 51.7692 75.53 51.3266C75.6646 50.9363 75.9732 50.9621 76.3494 50.8105C78.2433 52.0223 79.0918 53.1333 80.2301 54.9498C82.1145 53.6009 83.7297 53.463 85.9494 53.3137C84.3563 50.1497 83.0913 48.0772 80.1222 45.8788C79.5783 45.4758 78.3008 45.0052 77.9418 44.551C78.5684 43.6488 79.9254 44.6623 80.5866 45.0588C80.5055 41.726 80.2686 38.707 79.0045 35.5728C78.3834 34.0322 77.6947 31.1085 75.8653 30.5686C75.7882 27.6122 74.217 27.0805 72.7112 24.8237L72.6585 24.7428L73.2166 24.4328L73.5511 24.2343C74.3249 24.981 75.0325 25.7892 75.6654 26.6502C77.0397 28.4964 78.1504 30.6333 78.9218 32.7517C79.1265 33.2358 79.6035 33.728 79.7782 34.2056C80.9519 37.4152 82.2459 42.3856 81.6611 45.7953C84.5719 48.4793 85.496 49.8341 87.0034 53.3804C88.8107 54.1245 88.9233 54.3383 89.0162 56.2238C89.823 57.2135 90.1961 57.4681 90.8408 58.6231C91.5287 58.6572 92.3277 58.8519 92.6559 59.4802C93.6831 61.4468 94.5584 63.812 95.2858 65.893C96.0705 66.0809 97.1615 66.2067 97.9794 66.3583C100.063 66.7448 101.365 66.6076 100.909 69.1646C100.82 69.6678 100.414 69.8451 99.9858 70.0891C99.8724 71.5942 98.9043 78.5883 98.0628 79.6917C96.7947 81.3529 86.831 83.9917 84.3901 84C83.965 84.0015 82.6789 83.8302 82.2609 83.7325C78.9942 82.9686 75.6032 82.1304 72.5609 80.7473C71.7005 80.3548 71.3141 79.2885 71.1165 78.4898C69.924 79.8069 68.9629 81.0581 67.291 81.878C63.6323 83.6718 62.646 80.3654 63.7142 77.5841C60.3964 76.1162 58.593 73.9208 57.9735 70.4393C54.5353 71.5237 52.4494 72.0163 48.8175 71.0766C48.2059 72.2126 47.7311 73.4335 47.3452 74.6566C46.9344 75.9593 46.0127 80.8724 45.1956 81.4991C44.3973 82.1122 43.2166 82.0539 42.2622 81.9728C39.9072 81.7735 36.1973 80.8375 34.6523 79.0248C34.1639 78.4519 33.9255 77.7546 34.0102 77.0135C34.1043 76.1905 34.6077 75.4516 35.2771 74.9469C36.0442 74.3694 37.1042 74.1852 38.0539 74.311L38.1529 74.3247C38.5937 72.4854 39.1188 70.4249 40.0978 68.7652C38.4257 68.0445 36.9935 67.2867 35.9753 65.7808C32.0561 64.3902 27.776 59.534 26.1889 55.8441C25.4013 54.0124 25.7264 53.4546 24.5075 51.529C20.3797 51.6055 15.3583 48.4524 13.1574 45.1669C11.5734 45.4065 10.8175 44.9836 10.5508 43.4504C7.37024 43.0247 5.1135 40.2429 4.58146 37.3168C4.26566 37.1294 3.95316 36.937 3.64421 36.7393C1.81638 35.5478 0.553411 33.9146 0.138507 31.8014C-0.259866 29.7519 0.209193 27.6341 1.44131 25.9194C2.8684 23.9435 5.36058 22.2234 7.83749 21.7932C9.89532 21.4358 13.3312 22.2299 14.9827 23.3756C16.6901 24.56 18.0598 27.2749 18.3676 29.2644C18.6823 31.2991 18.1794 32.9736 16.921 34.6141C17.6866 35.8562 17.8712 36.7447 17.5223 38.1465C18.5663 39.061 18.9259 39.4157 18.6569 40.8345C20.3682 42.2256 21.2639 42.6017 23.4788 42.917C24.3199 36.418 24.6758 32.5567 28.8743 26.9841C30.5076 24.7913 32.4914 22.8617 34.7522 21.2669C35.6221 20.6636 36.5649 20.14 37.4376 19.5599C38.4079 18.9148 38.9704 18.3586 40.0866 17.8653C41.504 17.2389 42.5859 16.9504 44.1038 16.7183ZM69.6319 70.7644C69.3761 70.659 69.0148 70.5226 68.7803 70.3953C68.2182 69.4768 67.912 67.9483 69.1809 67.4125C70.5498 66.8335 72.2917 66.7956 73.7471 66.4167C74.358 65.3655 75.4182 62.6335 75.9 62.0667C76.2188 61.6931 76.6509 61.4248 77.1358 61.2982C77.4782 61.208 77.8733 61.1277 78.2213 61.0519C78.3622 59.7606 78.4913 59.3885 79.3579 58.3859C78.651 57.1703 78.6054 56.6876 79.3406 55.4644C79.1965 55.2143 79.0572 54.8839 78.814 54.7619C77.7899 55.9525 78.2402 56.9035 77.3743 58.4268C75.9771 60.8844 74.0045 62.4714 71.921 64.3652C71.218 65.0041 70.3294 65.8634 69.5485 66.3697C68.7669 66.8767 67.5909 67.1662 66.7644 67.6671C67.2965 69.7163 67.7759 71.0425 69.4981 72.4892L69.6359 72.5862L69.7288 72.5271C69.7673 72.0231 69.6776 71.2858 69.6319 70.7644ZM89.2854 64.8873C89.993 65.0131 90.7038 65.1238 91.417 65.2193C91.9601 65.3223 92.504 65.4224 93.0487 65.5186C92.7677 64.926 91.6405 61.7787 91.3941 61.5991C90.9754 63.1928 90.7432 63.9158 89.2854 64.8873Z" fill="#692109"/>
<path d="M40.9861 69.0661C41.5368 69.3116 41.9677 69.4359 42.5418 69.6102C43.5055 69.8012 45.0088 70.3195 46.0169 70.2687C46.5637 70.5014 47.2208 70.7879 47.7973 70.9228C46.5875 72.9757 46.2862 74.1193 45.6591 76.408C45.3301 76.3663 45.3198 76.1768 44.854 76.1844C44.4754 76.3761 44.1883 76.0973 43.8212 75.854C42.7877 75.1522 41.6125 74.7438 40.3812 74.5035C40.0246 74.4338 39.5878 74.4497 39.2718 74.3573C39.6597 73.0189 39.8385 72.0042 40.3514 70.6636L40.9861 69.0661Z" fill="#F1B757"/>
<path d="M40.3514 70.6636C40.8098 70.9766 41.3744 71.0364 41.8818 71.2357C43.191 71.7503 44.4963 72.6916 44.7688 74.1087C44.8704 74.6157 45.0116 75.7161 44.854 76.1844C44.4754 76.3761 44.1883 76.0973 43.8212 75.854C42.7877 75.1522 41.6125 74.7438 40.3812 74.5035C40.0246 74.4338 39.5878 74.4497 39.2718 74.3573C39.6597 73.0189 39.8385 72.0042 40.3514 70.6636Z" fill="#F5C259"/>
<path d="M34.8644 77.713C35.2788 75.5721 36.3285 74.8961 38.6452 75.2993C39.0426 75.369 39.689 75.7297 40.0613 75.713C40.3212 75.1022 39.6994 74.8802 39.26 74.499L39.2718 74.3573C39.5878 74.4497 40.0246 74.4338 40.3812 74.5035C41.6125 74.7438 42.7877 75.1522 43.8212 75.854C44.1883 76.0973 44.4754 76.3761 44.854 76.1844C45.3198 76.1768 45.3301 76.3663 45.6591 76.408C45.5827 77.1992 44.982 79.5629 44.7014 80.2813C44.2036 80.0623 42.698 79.5879 42.0938 79.4067C40.012 78.7838 37.0104 77.5948 34.8644 77.713Z" fill="#974D20"/>
<path d="M77.4105 52.8703C77.7624 53.2265 77.9292 53.4046 78.2221 53.8032C77.0248 55.2924 77.224 55.4083 76.6816 57.2339C76.41 57.9145 75.9645 58.6534 75.5347 59.2445C74.258 60.9959 72.3783 62.3683 70.8489 63.8665C69.7036 65.1427 68.356 65.6785 66.8588 66.447C66.444 66.6599 65.1122 67.6459 64.7816 67.6921C63.334 67.8922 62.0029 68.34 60.6223 68.6788C56.5236 69.6844 53.0311 71.3797 48.7049 69.9997C48.3956 69.9004 48.0351 69.8444 47.7145 69.7095C47.4899 69.6147 47.3061 69.1722 47.2183 68.9554C47.4757 69.1509 47.5913 69.4245 47.9272 69.5511C50.328 70.4461 53.2499 70.5749 55.7223 69.8807C57.3179 69.4328 58.7347 68.7902 60.4066 68.5568C61.0379 68.4689 61.8101 68.115 62.4288 67.9498C63.2498 67.7307 64.1755 67.7762 64.9799 67.4405C65.5837 67.1768 66.0394 66.7039 66.6447 66.3181C67.0304 66.0718 69.0581 65.2132 69.2494 65.0351C71.1291 63.2936 73.9573 61.0489 75.4324 59.0512C75.7882 58.5685 75.726 55.7243 76.1361 54.727C76.5533 53.7123 77.1602 53.4493 77.4105 52.8703Z" fill="#C6854A"/>
<path d="M42.2879 68.3681C43.8667 68.3234 44.7213 67.6224 46.3651 67.83C46.7643 68.2279 46.9339 68.4674 47.2183 68.9554C47.3061 69.1722 47.4899 69.6147 47.7145 69.7095C47.2326 69.6003 46.6013 69.4101 46.1265 69.4988C45.8923 69.6663 45.9706 69.5594 45.8899 69.8353C45.9274 69.9982 45.9477 70.1141 46.0169 70.2687C45.0088 70.3195 43.5055 69.8012 42.5418 69.6102C42.6896 69.5981 42.8372 69.5837 42.9845 69.5677C43.4631 69.517 44.119 69.2805 44.0129 68.7121C43.6089 68.3529 42.8841 68.5318 42.2879 68.3681Z" fill="#C6854A"/>
<path d="M1.11378 28.326C2.23412 25.5522 4.82461 23.2772 7.83859 22.6123C10.1194 22.1091 13.3549 23.0888 15.1104 24.4899C16.6183 26.0761 17.7093 28.4758 17.6377 30.658C17.5966 31.9089 17.0196 32.9686 16.3417 34.0044C15.5849 33.4292 15.1386 33.1081 14.1872 32.9074C13.0131 32.8535 12.3994 33.3795 11.9386 34.3678C11.8047 35.5229 11.9176 35.9646 12.5886 36.9079C10.3563 37.413 9.65595 38.1076 7.17062 37.4036C2.71452 36.1412 -0.180603 32.9803 1.11378 28.326Z" fill="#F5C259"/>
<path d="M1.11378 28.326L1.19391 28.6727L1.30749 28.2836L1.37621 28.3128C1.66029 29.346 1.52065 30.4485 1.90407 31.4799C2.12644 32.0781 2.46696 32.5442 2.81031 33.0849C3.03787 33.4519 3.29133 33.9244 3.70183 34.1149L3.82407 34.0657L3.91412 33.728C3.81754 34.146 3.97607 34.5805 4.32297 34.8485C4.66986 35.1166 5.14482 35.1715 5.54784 34.9902C5.95408 35.5353 8.38156 35.978 9.05402 35.9035C9.10463 35.6943 9.11361 35.6195 9.13029 35.4046C9.22955 35.0576 9.55669 34.8167 9.93051 34.8152C10.3043 34.8138 10.6335 35.0521 10.7357 35.3983C10.5709 35.4625 11.9866 34.3178 11.9386 34.3678C11.8047 35.5229 11.9176 35.9646 12.5886 36.9079C10.3563 37.413 9.65595 38.1076 7.17062 37.4036C2.71452 36.1412 -0.180603 32.9803 1.11378 28.326Z" fill="#C6854A"/>
<path d="M9.13029 35.4046C9.22955 35.0576 9.55669 34.8167 9.93051 34.8152C10.3043 34.8138 10.6335 35.0521 10.7357 35.3983C10.8322 35.7249 10.7047 36.0746 10.4174 36.2716C10.13 36.4685 9.74505 36.4701 9.45609 36.2754C9.16705 36.0807 9.03662 35.732 9.13029 35.4046Z" fill="#692109"/>
<path d="M15.1104 24.4899C16.6183 26.0761 17.7093 28.4758 17.6377 30.658C17.5966 31.9089 17.0196 32.9686 16.3417 34.0044C15.5849 33.4292 15.1386 33.1081 14.1872 32.9074C14.4513 32.926 14.5025 32.9467 14.7366 32.8509C16.7851 30.7753 16.2195 28.244 15.3034 25.7515C15.0955 25.1859 15.0023 25.0966 15.1104 24.4899Z" fill="#C6854A"/>
<path d="M3.91412 33.728C4.0329 33.2138 4.50669 32.848 5.05375 32.8481C5.6009 32.8483 6.07452 33.2142 6.19314 33.7284C6.31177 34.2426 6.04343 34.7671 5.54784 34.9902C5.14482 35.1715 4.66986 35.1166 4.32297 34.8485C3.97607 34.5805 3.81754 34.146 3.91412 33.728Z" fill="#692109"/>
<path d="M12.4964 25.024C14.3163 24.9236 15.4796 26.744 13.6478 27.6087C11.6355 27.8943 10.7738 25.9353 12.4964 25.024Z" fill="#692109"/>
<path d="M9.00459 28.8752C9.72545 29.144 11.0788 29.6851 10.5733 30.7776C10.3972 31.1582 9.85943 31.3402 9.45271 31.442C7.60741 31.5655 7.06727 29.5872 9.00459 28.8752Z" fill="#692109"/>
<path d="M6.05578 24.1928C7.75586 24.0443 8.13503 25.6116 6.47517 26.3816C4.84358 26.6651 4.44001 25.0559 6.05578 24.1928Z" fill="#692109"/>
<path d="M14.703 29.3791C15.7207 29.5731 16.3169 30.4204 15.246 31.0918C15.1334 31.0965 14.9922 31.1017 14.8814 31.0902C14.6317 31.0633 14.4059 30.935 14.2605 30.7378C13.862 30.2011 14.1982 29.6876 14.703 29.3791Z" fill="#692109"/>
<path d="M3.07684 28.03C3.45317 27.9717 3.81132 28.2061 3.89334 28.5645C3.97544 28.9228 3.75284 29.2805 3.38595 29.3799C3.12918 29.4495 2.85344 29.3765 2.6698 29.1903C2.48608 29.0041 2.42453 28.7352 2.50986 28.4919C2.59526 28.2486 2.81346 28.0708 3.07684 28.03Z" fill="#692109"/>
<path d="M91.6531 72.3195C94.0075 71.6435 96.827 70.9584 99.238 70.3423C99.1026 71.1516 98.9814 71.9633 98.8744 72.7764L98.7941 73.053C98.5729 74.477 98.3273 75.804 97.9959 77.2014C97.3764 79.8152 97.3544 79.5439 95.0386 80.4639L94.6002 80.6526C93.6658 80.9012 92.3962 81.3695 91.439 81.6833C89.4845 82.2623 86.5288 83.0694 84.4838 83.2452C84.3327 80.1994 84.202 77.1514 84.0918 74.1034C86.4808 73.7737 89.2437 72.8681 91.6531 72.3195Z" fill="#974D20"/>
<path d="M91.6531 72.3195C92.3466 72.5089 94.8158 71.5184 95.7108 71.4472C95.7045 71.6329 95.6227 72.0353 95.636 72.1823C95.7927 73.8579 94.3735 73.1493 93.621 73.8389C93.2329 73.9579 92.9354 74.036 92.5394 74.1254C92.5394 73.7184 92.5985 72.9106 92.2781 72.6309C91.8806 72.9113 91.9798 73.8063 91.9451 74.2497C90.9171 74.4596 89.8954 74.6938 88.88 74.9514C88.8485 74.549 88.8642 73.7457 88.5085 73.5092C88.1432 73.7715 88.2857 74.6551 88.3188 75.0575C87.7441 75.1545 86.1903 75.3758 85.803 75.7343C86.0518 76.0457 87.8543 75.7282 88.2597 75.6304C88.2582 76.2564 88.2778 77.0226 88.2377 77.6372C87.6213 77.7531 86.5256 77.8873 86.0778 78.2738L86.1006 78.3859C86.6043 78.5549 87.6851 78.389 88.218 78.2738C88.2125 78.9581 88.2117 79.6432 88.2164 80.3275C87.4025 80.5124 86.4351 80.7049 85.6716 80.9982C86.5768 81.1498 87.2396 81.1187 88.144 80.9353C88.1196 81.2665 88.0543 81.5749 88.1944 81.8644L88.3266 81.903C88.6934 81.5302 88.6982 81.2036 88.784 80.6981C89.0894 80.6534 89.978 80.5033 90.241 80.5018C90.6463 80.5761 90.9085 80.4654 91.317 80.4154C91.3138 80.9558 91.295 81.1664 91.439 81.6833C89.4845 82.2623 86.5288 83.0694 84.4838 83.2452C84.3327 80.1994 84.202 77.1514 84.0918 74.1034C86.4808 73.7737 89.2437 72.8681 91.6531 72.3195Z" fill="#C6854A"/>
<path d="M96.2248 73.8139C96.9836 73.6169 97.8235 73.3971 98.5343 73.0674C98.6925 72.9939 98.613 73.0205 98.7941 73.053C98.5729 74.477 98.3273 75.804 97.9959 77.2014C97.3764 79.8152 97.3544 79.5439 95.0386 80.4639C94.8544 80.3161 95.281 79.3393 95.366 79.0733C95.832 78.9301 97.2237 78.5595 97.4016 78.1419C97.0568 77.9699 96.0375 78.3079 95.6463 78.4208C95.7053 77.7471 95.8431 77.0393 95.9572 76.3686C96.5531 76.2215 97.3804 76.0844 97.7944 75.6554L97.7629 75.538C97.2017 75.3963 96.6027 75.6032 96.0383 75.7456C96.1587 75.0174 96.1957 74.5361 96.2248 73.8139Z" fill="#AF6B38"/>
<path d="M91.6531 72.3195C94.0075 71.6435 96.827 70.9584 99.238 70.3423C99.1026 71.1516 98.9814 71.9633 98.8744 72.7764C98.2124 72.4733 97.0797 72.9788 96.2815 73.1175C96.298 72.7059 96.3948 71.7958 96.0949 71.5055C95.736 71.7367 95.7053 72.9068 95.6644 73.3221C94.9882 73.513 94.3066 73.6858 93.621 73.8389C94.3735 73.1493 95.7927 73.8579 95.636 72.1823C95.6227 72.0353 95.7045 71.6329 95.7108 71.4472C94.8158 71.5184 92.3466 72.5089 91.6531 72.3195Z" fill="#AF6B38"/>
<path d="M92.0986 80.0085C92.9204 79.8167 94.0319 79.5689 94.8221 79.3249C94.7529 79.6583 94.5868 80.348 94.6002 80.6526C93.6658 80.9012 92.3962 81.3695 91.439 81.6833C91.295 81.1664 91.3138 80.9558 91.317 80.4154C90.9085 80.4654 90.6463 80.5761 90.241 80.5018C90.6794 80.379 91.1194 80.2608 91.5602 80.1479C91.5114 80.5048 91.4406 80.7708 91.5468 81.1126L91.6649 81.2074C92.0357 81.002 92.049 80.3806 92.0986 80.0085Z" fill="#AF6B38"/>
<path d="M91.5059 77.5606L91.657 77.5902C91.7318 78.0146 91.6712 78.9664 91.6555 79.4371L89.0091 80.1115L88.9044 80.0949C88.795 79.8895 88.9225 78.4769 88.9422 78.0987C89.8025 77.885 90.6353 77.7281 91.5059 77.5606Z" fill="#C6854A"/>
<path d="M91.6673 74.9825L91.742 74.9878C91.942 75.2667 91.7979 76.3974 91.7625 76.8043L89.065 77.4386L88.9705 77.3788C88.8973 77.0885 88.9312 75.8411 88.9343 75.4667L91.6673 74.9825Z" fill="#C6854A"/>
<path d="M95.2551 74.1367C95.348 74.1216 95.3212 74.1345 95.4353 74.1784C95.503 74.5104 95.3771 75.5251 95.3432 75.9108C94.5584 76.167 93.4824 76.408 92.641 76.649L92.5111 76.6368C92.3938 76.2996 92.519 75.1879 92.552 74.7551L95.2551 74.1367Z" fill="#C6854A"/>
<path d="M95.1331 76.6437C95.2078 76.9013 94.963 78.32 94.9079 78.6353C94.2137 78.8869 93.0534 79.1097 92.3261 79.2514C92.3025 78.6489 92.3639 77.8638 92.3938 77.2484C93.31 77.059 94.2231 76.8574 95.1331 76.6437Z" fill="#C6854A"/>
<path d="M70.2357 70.9046C71.9886 71.4495 74.6586 72.1633 76.4494 72.5316C76.5037 72.5445 76.8965 72.6347 76.9248 72.6476C78.8219 73.144 81.8524 73.9617 83.7289 74.1542C83.9501 76.7149 83.9438 79.3363 84.0902 81.9061C84.1138 82.3327 84.1233 82.8102 84.1091 83.2353C82.8481 83.1126 81.4769 82.6579 80.5638 82.5737L80.4119 82.501C79.1989 82.1721 77.9883 81.8333 76.7816 81.4855L74.8523 80.8648C71.736 79.7781 72.0091 79.1392 71.3062 76.0844C70.7867 74.1443 70.4726 72.9136 70.2357 70.9046Z" fill="#974D20"/>
<path d="M76.9248 72.6476C78.8219 73.144 81.8524 73.9617 83.7289 74.1542C83.9501 76.7149 83.9438 79.3363 84.0902 81.9061C84.1138 82.3327 84.1233 82.8102 84.1091 83.2353C82.8481 83.1126 81.4769 82.6579 80.5638 82.5737C80.6221 82.1137 80.5906 81.2847 80.5866 80.7959C81.2289 80.8906 81.898 81.0353 82.5309 80.9004L82.5891 80.7928C82.1775 80.3859 81.0967 80.2146 80.4993 80.0835C80.3977 79.4674 80.3796 78.7914 80.3528 78.1654C80.4174 78.0351 80.3568 77.7668 80.3379 77.5948C80.2395 77.1969 80.271 76.0851 80.2718 75.6274C80.8732 75.7562 82.2145 76.0397 82.7796 75.8881L82.7694 75.7835C82.2302 75.4092 80.8999 75.1606 80.2214 75.003C80.1836 74.5695 80.2017 74.0466 79.9105 73.7275L79.783 73.77C79.583 74.1231 79.6192 74.4702 79.583 74.8923C78.9738 74.7551 77.3861 74.4982 76.9201 74.2663C76.8249 74.0557 76.7147 72.9401 76.7422 72.7347L76.9248 72.6476Z" fill="#C6854A"/>
<path d="M80.3379 77.5948C80.9873 77.735 82.094 77.9123 82.5899 78.3041L82.6049 78.417C82.1271 78.6171 80.8779 78.2973 80.3528 78.1654C80.4174 78.0351 80.3568 77.7668 80.3379 77.5948Z" fill="#974D20"/>
<path d="M70.2357 70.9046C71.9886 71.4495 74.6586 72.1633 76.4494 72.5316C76.1739 73.1129 76.2329 73.5259 76.2455 74.1724C75.3537 73.9526 74.4587 73.7434 73.5621 73.5449C73.4811 73.1038 73.4118 72.3293 73.0631 72.0792C72.8364 72.3937 72.9474 73.0644 72.982 73.4456C72.4019 73.2819 71.8123 73.0705 71.2149 73.0811L71.1102 73.1606C71.3778 73.5684 72.5137 73.8298 72.9883 73.9571C73.082 74.6066 73.1701 75.3288 73.2961 75.9669C72.749 75.7919 72.1374 75.6069 71.5589 75.6047L71.4628 75.6782L71.5038 75.8434L71.3062 76.0844C70.7867 74.1443 70.4726 72.9136 70.2357 70.9046Z" fill="#C6854A"/>
<path d="M71.5038 75.8434C72.2468 76.1943 72.5491 76.3746 73.3787 76.505C73.5685 77.1529 73.7479 77.9835 73.9723 78.5883C73.2686 78.4034 72.4901 78.1859 71.7793 78.0388C72.5286 78.6762 73.0899 78.8891 74.0321 79.2127C74.2422 79.7993 74.3705 80.3609 74.8995 80.7345L74.8523 80.8648C71.736 79.7781 72.0091 79.1392 71.3062 76.0844L71.5038 75.8434Z" fill="#C6854A"/>
<path d="M77.3814 80.0933C78.2173 80.2942 79.0556 80.4867 79.8963 80.6701C79.9459 80.9792 80.4197 82.4707 80.4119 82.501C79.1989 82.1721 77.9883 81.8333 76.7816 81.4855C76.9421 81.465 77.1421 81.4241 77.305 81.3953L77.4719 81.3703C77.5357 81.0422 77.4034 80.4654 77.3814 80.0933Z" fill="#C6854A"/>
<path d="M74.7271 79.3984C75.3135 79.5598 76.2652 79.847 76.8343 79.9448C76.9288 80.5458 76.9799 80.8618 77.305 81.3953C77.1421 81.4241 76.9421 81.465 76.7816 81.4855L74.8523 80.8648L74.8995 80.7345C74.8444 80.2889 74.7869 79.8432 74.7271 79.3984Z" fill="#C6854A"/>
<path d="M76.8745 74.9211C77.775 75.1174 78.6802 75.294 79.5893 75.4508C79.6011 76.142 79.6129 76.771 79.6657 77.4606C78.7856 77.256 77.9064 77.0461 77.0287 76.8316C76.939 76.2958 76.9107 75.4811 76.8745 74.9211Z" fill="#C6854A"/>
<path d="M77.1224 77.5228C77.9946 77.7531 78.803 77.9199 79.6885 78.101L79.8207 80.0289C79.0863 79.8001 78.0536 79.5644 77.2893 79.3651C77.2177 78.7527 77.1618 78.1381 77.1224 77.5228Z" fill="#C6854A"/>
<path d="M73.7424 74.2231C74.5736 74.4247 75.4064 74.618 76.2424 74.8021C76.277 75.4175 76.3353 76.0639 76.3817 76.6808C76.1747 76.6626 74.3273 76.2018 74.0305 76.1329C73.9053 75.4811 73.8282 74.8794 73.7424 74.2231Z" fill="#C6854A"/>
<path d="M74.1706 76.7581C74.894 76.9695 75.6339 77.134 76.3699 77.306C76.484 77.8047 76.5738 78.6466 76.6462 79.1756C76.0086 79.1127 75.1845 78.874 74.5603 78.702C74.3674 78.076 74.2769 77.4053 74.1706 76.7581Z" fill="#C6854A"/>
<path d="M80.5567 55.4977C82.3034 54.4011 84.7561 53.7532 86.8476 54.0472C87.7693 54.1761 88.4998 55.0961 88.2944 55.9828C88.2676 56.1002 88.218 56.2116 88.148 56.3117L88.0008 56.3821C89.1453 57.2696 90.5834 59.0474 90.4944 60.5472C91.0446 64.2591 87.9921 64.6653 85.1048 64.8979C84.8081 64.9222 84.1264 65.3011 83.7998 65.3511C82.2105 65.7581 80.4843 64.2235 79.7168 63.0519C80.3686 62.9003 81.0873 62.7487 81.7311 62.5828C81.7406 62.8669 81.7185 63.2474 81.8406 63.4884L81.9846 63.574C82.8095 62.7351 82.3042 61.2368 81.7579 60.357C81.7083 60.2767 81.3801 59.9697 81.2793 60.022C80.7425 60.3032 79.8782 60.867 79.2485 60.7912C78.5448 60.1789 80.3284 58.4192 80.7582 57.9925C80.8015 57.8016 80.7921 57.8031 80.7661 57.6053L80.615 57.4931C80.3458 57.5106 80.2631 57.6462 80.0002 57.8273C79.5854 57.7606 79.4343 57.3302 79.5059 56.9664C79.6507 56.2397 79.9554 55.9039 80.5567 55.4977Z" fill="#F7F7F7"/>
<path d="M80.5567 55.4977C82.3034 54.4011 84.7561 53.7532 86.8476 54.0472C87.7693 54.1761 88.4998 55.0961 88.2944 55.9828C88.2676 56.1002 88.218 56.2116 88.148 56.3117L88.0008 56.3821C87.4324 56.558 86.6217 56.5011 86.003 56.5329C84.8774 56.5921 83.0567 56.8937 82.0342 57.334C81.4438 57.4636 81.3643 57.8698 80.7582 57.9925C80.8015 57.8016 80.7921 57.8031 80.7661 57.6053L80.615 57.4931C80.3458 57.5106 80.2631 57.6462 80.0002 57.8273C79.5854 57.7606 79.4343 57.3302 79.5059 56.9664C79.6507 56.2397 79.9554 55.9039 80.5567 55.4977Z" fill="#F7F7F7"/>
<path d="M81.839 57.1938C82.9614 56.0191 86.7492 55.3037 88.148 56.3117L88.0008 56.3821C87.4324 56.558 86.6217 56.5011 86.003 56.5329C84.8774 56.5921 83.0567 56.8937 82.0342 57.334L81.839 57.1938Z" fill="#692109"/>
<path d="M80.7582 57.9925C80.8015 57.8016 80.7921 57.8031 80.7661 57.6053L80.615 57.4931C80.3458 57.5106 80.2631 57.6462 80.0002 57.8273C79.5854 57.7606 79.4343 57.3302 79.5059 56.9664C79.6507 56.2397 79.9554 55.9039 80.5567 55.4977C80.9527 55.9774 81.4619 56.8368 81.839 57.1938L82.0342 57.334C81.4438 57.4636 81.3643 57.8698 80.7582 57.9925Z" fill="#DCD8DD"/>
<path d="M90.4944 60.5472C91.0446 64.2591 87.9921 64.6653 85.1048 64.8979C84.8081 64.9222 84.1264 65.3011 83.7998 65.3511C82.2105 65.7581 80.4843 64.2235 79.7168 63.0519C80.3686 62.9003 81.0873 62.7487 81.7311 62.5828C81.7406 62.8669 81.7185 63.2474 81.8406 63.4884L81.9846 63.574C83.3613 64.3841 84.9309 64.1037 86.3477 63.5475C87.3758 63.1436 88.6124 62.8435 89.4562 62.1099C90.0245 61.6165 90.433 61.2762 90.4944 60.5472Z" fill="#DCD8DD"/>
<path d="M65.893 68.4105C66.2795 70.1104 66.7565 71.047 67.8664 72.3861C68.3717 72.8833 69.173 73.6866 69.8248 73.9776C70.0357 74.2413 70.0633 74.28 70.1664 74.596C70.2223 75.1901 70.4891 76.5694 70.6348 77.1832C69.7217 78.5663 67.7286 80.9527 66.0709 81.274C63.4403 81.7848 64.0944 78.7065 65.0429 77.4856C65.0996 77.4129 65.1578 77.3409 65.2169 77.2696C64.4108 76.6732 63.5032 76.3466 62.6759 75.7835C61.1796 74.8779 60.2988 73.7457 59.5825 72.2149C59.2692 71.5646 59.0937 70.9341 58.9024 70.243C59.6234 70.0255 60.8994 69.6162 61.5983 69.4776C63.3403 69.132 64.2243 69.0789 65.893 68.4105Z" fill="#F5C259"/>
<path d="M67.8664 72.3861C68.3717 72.8833 69.173 73.6866 69.8248 73.9776C70.0357 74.2413 70.0633 74.28 70.1664 74.596C70.2223 75.1901 70.4891 76.5694 70.6348 77.1832C69.7217 78.5663 67.7286 80.9527 66.0709 81.274C63.4403 81.7848 64.0944 78.7065 65.0429 77.4856C65.0996 77.4129 65.1578 77.3409 65.2169 77.2696C64.4108 76.6732 63.5032 76.3466 62.6759 75.7835C64.3715 75.3341 66.052 74.9052 67.1642 73.482C67.3862 73.0977 67.5806 72.7287 67.8664 72.3861Z" fill="#9A5627"/>
<path d="M70.1664 74.596C70.1271 74.7438 70.1208 74.7559 70.0484 74.8923C69.6461 74.8771 69.4155 74.3012 69.8248 73.9776C70.0357 74.2413 70.0633 74.28 70.1664 74.596Z" fill="#974D20"/>
<path d="M65.893 68.4105C66.2795 70.1104 66.7565 71.047 67.8664 72.3861C67.5806 72.7287 67.3862 73.0977 67.1642 73.482C66.7927 73.1258 66.5857 72.565 66.2283 72.23C64.8186 70.9068 62.0667 71.6601 60.3688 72.0269C60.065 72.0921 59.8068 72.0186 59.5825 72.2149C59.2692 71.5646 59.0937 70.9341 58.9024 70.243C59.6234 70.0255 60.8994 69.6162 61.5983 69.4776C63.3403 69.132 64.2243 69.0789 65.893 68.4105Z" fill="#F1B757"/>
<path d="M14.1469 37.5975C13.5789 36.8909 12.3646 35.6367 12.6419 34.7471C13.3053 32.6192 15.6111 34.1491 16.3406 35.1998C16.9211 36.0391 17.1241 37.0689 16.9036 38.0547C16.7132 38.9377 16.219 39.6492 15.9374 40.5207C16.6672 39.9609 17.0324 39.5661 17.4479 38.7407C17.8386 39.1782 18.1674 39.5931 18.0999 40.2045C17.9152 41.8766 15.7843 43.3062 14.4175 44.0099C14.367 44.0357 14.3162 44.0612 14.2652 44.0862C12.9139 44.7511 11.7337 44.9718 10.968 43.4539L11.6799 43.219L12.056 43.0707C12.3821 42.9424 12.9604 42.6915 13.1072 42.3803C12.8622 42.334 12.859 42.3874 12.5785 42.4924C9.40532 43.8277 6.03123 40.3943 5.28667 37.6568C6.32019 38.0987 7.32403 38.4316 8.46626 38.5148C8.74656 38.5352 9.13061 38.491 9.35219 38.6081L9.33511 38.738C9.52269 38.9464 9.4542 38.8804 9.76253 38.9758C10.6539 38.3285 11.3403 38.2603 12.4114 37.8771C12.3295 38.1728 12.2597 38.4267 12.1531 38.7172C12.1914 39.1896 12.2174 39.4856 12.5551 39.8659C13.0842 38.6804 11.8552 38.5079 14.1469 37.5975Z" fill="#F7F7F7"/>
<path d="M5.28667 37.6568C6.32019 38.0987 7.32403 38.4316 8.46626 38.5148C8.74656 38.5352 9.13061 38.491 9.35219 38.6081L9.33511 38.738C9.52269 38.9464 9.4542 38.8804 9.76253 38.9758L9.23372 39.453L8.93618 39.6172C8.82937 39.6073 8.76341 39.5815 8.66816 39.5345C8.18249 39.5852 7.91368 39.6092 7.42612 39.598C8.65281 41.3262 10.084 41.6781 12.1094 42.1183C12.1553 42.1283 12.3296 42.3926 12.361 42.4433L12.5785 42.4924C9.40532 43.8277 6.03123 40.3943 5.28667 37.6568Z" fill="#DCD8DD"/>
<path d="M9.33511 38.738C9.52269 38.9464 9.4542 38.8804 9.76253 38.9758L9.23372 39.453L8.93618 39.6172C8.93059 39.2334 9.1029 39.0312 9.33511 38.738Z" fill="#712B21"/>
<path d="M10.968 43.4539L11.6799 43.219C12.3462 44.2579 13.5556 43.6019 14.4175 44.0099C14.367 44.0357 14.3162 44.0612 14.2652 44.0862C12.9139 44.7511 11.7337 44.9718 10.968 43.4539Z" fill="#DCD8DD"/>
<path d="M9.76253 38.9758C10.6539 38.3285 11.3403 38.2603 12.4114 37.8771C12.3295 38.1728 12.2597 38.4267 12.1531 38.7172C11.3909 38.769 9.90177 39.4613 9.23372 39.453L9.76253 38.9758Z" fill="#DCD8DD"/>
<path d="M99.3033 67.2071C100.098 67.4276 100.286 67.5708 100.264 68.4045C100.257 68.6864 100.262 69.1623 99.9228 69.2767C98.5131 69.7549 97.0285 70.08 95.5849 70.462L88.8926 72.1959C87.7229 72.4983 84.6145 73.4395 83.5738 73.3395C81.6005 73.0538 79.5877 72.5339 77.66 72.036C75.0152 71.3525 72.1146 70.7924 69.5249 69.9626C68.9566 69.6723 68.7322 68.2802 69.4328 67.9149C70.6655 68.4363 71.9273 68.8918 73.2119 69.2782C73.8684 69.4768 75.0538 69.6329 75.8464 69.8337C78.2307 70.3839 81.0597 71.3343 83.4896 71.5396C84.6617 71.6382 87.9197 70.6552 89.146 70.3438L94.9363 68.8804C96.1933 68.5522 97.8314 68.2408 99.0145 67.727C99.2467 67.6262 99.2459 67.4306 99.3033 67.2071Z" fill="#C6854A"/>
<path d="M18.3026 41.6692C19.9183 43.1352 21.2506 43.6241 23.4013 43.8002C23.386 46.3898 23.5343 48.0624 24.0825 50.5938C22.8899 50.4794 21.9904 50.2096 20.8862 49.8281C17.8501 48.6955 16.1275 47.3129 14.0305 44.9399C16.024 44.0567 16.978 43.3515 18.3026 41.6692Z" fill="#F1B757"/>
<path d="M85.4126 66.4167C86.3076 66.2924 93.4753 67.8922 95.0528 68.0907C93.1864 68.6583 90.4905 69.2343 88.5037 69.7655C86.9688 70.0891 85.2371 70.6802 83.6833 70.8257C82.9205 70.897 81.5367 70.4794 80.7716 70.2862C80.5418 69.4003 80.1805 68.3317 79.8798 67.4632C81.7429 67.1427 83.577 66.7266 85.4126 66.4167Z" fill="#AF6B38"/>
<path d="M35.3531 78.3086C35.5164 78.2829 35.6817 78.2707 35.8472 78.2723C36.9677 78.2783 43.3138 79.9698 44.3431 80.8876C44.5149 81.0414 44.44 81.2225 44.4076 81.415C41.4001 81.1801 38.4955 80.8133 35.8624 79.0293C35.58 78.8376 35.3905 78.6398 35.3531 78.3086Z" fill="#974D20"/>
<path d="M84.5255 65.968C85.2347 65.6232 85.903 65.6444 86.6634 65.5118C88.1952 65.2458 89.6443 65.7316 91.1533 65.9544C93.5619 66.3098 95.9533 66.8577 98.3541 67.2495C97.626 67.4534 96.6853 67.7421 95.9627 67.896C93.9689 67.3215 86.55 65.699 84.7278 66.1363C84.5523 66.0711 84.6168 66.1257 84.5255 65.968Z" fill="#AF6B38"/>
<path d="M81.2707 61.1239L81.4045 61.1937C82.0114 62.754 78.9525 61.8818 78.1315 62.9496C77.8686 64.1742 80.1592 69.5488 79.8664 70.0103L79.4311 70.0035C78.8888 69.5647 77.697 64.7547 77.3704 63.862C76.4706 61.4051 79.4956 61.3649 81.2707 61.1239Z" fill="#C6854A"/>
<path d="M91.0273 59.1702C91.2493 59.1778 91.5004 59.1778 91.7058 59.268C92.5741 59.6514 94.1885 64.6168 94.6222 65.7452C94.2806 65.6891 94.0972 65.6785 93.7839 65.5285C93.5879 65.239 93.4879 64.9396 93.3517 64.6251C92.6543 63.014 92.0852 61.3657 91.1989 59.8364C91.1478 59.7469 91.0541 59.2983 91.0273 59.1702Z" fill="#AF6B38"/>
<path d="M76.7304 61.8954L76.828 62.0091C76.7887 62.2023 76.7454 62.3956 76.6989 62.5873C76.4565 63.5983 74.476 68.3431 73.7345 68.7879C73.193 68.2597 75.3497 64.8207 75.5701 64.0257C75.6693 63.6672 76.4565 62.1182 76.7304 61.8954Z" fill="#C6854A"/>
<path d="M77.6844 67.8512L77.845 67.8444C78.1284 68.1089 78.3992 69.3518 78.5102 69.7777L76.1054 69.1479C75.6442 69.0539 75.1679 69.0312 74.8822 68.7031L74.9121 68.5416C75.3553 68.1915 76.9941 67.9869 77.6844 67.8512Z" fill="#AF6B38"/>
<path d="M79.4374 66.0681C80.0876 65.9627 80.7094 65.868 81.3517 65.7202C82.0806 66.0529 82.4215 66.2765 83.2377 66.2454L83.329 66.4053C82.2491 66.4652 80.7937 66.7986 79.709 67.0275L79.4374 66.0681Z" fill="#AF6B38"/>
<path d="M77.1767 66.4924L77.3759 66.4947C77.6585 66.7645 77.8112 66.8009 77.6766 67.1654C77.309 67.5034 76.2676 67.6171 75.7378 67.7088C75.5481 67.7391 75.5505 67.7527 75.3726 67.6951C75.3135 67.3253 75.5591 67.0707 75.785 66.7395C76.229 66.6781 76.7312 66.5743 77.1767 66.4924Z" fill="#AF6B38"/>
<path d="M78.7849 63.1572C79.4295 63.5126 79.3241 64.2121 79.9459 64.6501C80.1088 64.7646 80.4363 65.048 80.4497 65.2284C80.0663 65.2655 79.6727 65.3155 79.2886 65.3595C79.1178 64.8085 78.7187 63.6816 78.7849 63.1572Z" fill="#DCD8DD"/>
<path d="M73.1394 67.245L73.3292 67.2306C73.3913 67.4655 73.0111 68.0415 72.8655 68.3044C72.4877 68.1945 72.0461 68.1028 71.6573 68.0134C71.3707 67.9445 70.9315 67.9005 70.6277 67.8603C71.4502 67.6489 72.3098 67.4147 73.1394 67.245Z" fill="#AF6B38"/>
<path d="M76.8036 64.4705C77.0405 64.6949 77.224 65.3117 77.1507 65.6414C76.9335 65.8771 76.8705 65.8255 76.4998 65.9028L76.2455 65.9127L76.1967 65.796C76.2684 65.3655 76.5824 64.8601 76.8036 64.4705Z" fill="#DCD8DD"/>
<path d="M83.2377 66.2454C83.5636 66.1196 84.1445 66.0453 84.5255 65.968C84.6168 66.1257 84.5523 66.0711 84.7278 66.1363C84.3539 66.2666 83.7407 66.3409 83.329 66.4053L83.2377 66.2454Z" fill="#974D20"/>
<path d="M51.8732 12.327C52.1471 10.3717 52.3919 8.36204 52.6383 6.41205C52.7406 5.59844 53.1019 0.734263 53.6931 0.434691C55.4799 -0.47191 59.3731 0.268571 61.2969 0.602701C63.9826 1.22913 65.8655 1.7606 68.4441 2.70797C69.8681 3.19503 70.9866 3.70938 72.2138 4.58407C73.8723 5.76683 73.925 6.19205 73.1639 7.99138C72.0414 10.6454 70.5269 13.343 69.5225 16.0319L68.9511 16.0441L68.8338 15.9309L68.7787 15.9056C67.583 16.0827 66.3708 16.293 65.1562 16.1405C64.8335 16.0848 64.225 16.0527 63.8771 16.0245C61.6102 15.7377 58.608 14.8447 56.5213 13.9332C55.5051 13.489 53.3727 12.167 52.4352 11.5583L52.4195 11.8229C52.2172 12.2019 52.2896 12.0867 51.8732 12.327Z" fill="#6B51C8"/>
<path d="M51.8732 12.327C52.1471 10.3717 52.3919 8.36204 52.6383 6.41205C52.7406 5.59844 53.1019 0.734263 53.6931 0.434691C55.4799 -0.47191 59.3731 0.268571 61.2969 0.602701C63.9826 1.22913 65.8655 1.7606 68.4441 2.70797C68.6016 3.25801 69.1604 3.53341 69.6894 3.80456C71.5077 4.73731 71.9918 5.07 73.2205 6.69457C72.8939 6.74179 72.5869 6.76558 72.2862 6.89101C72.0461 7.4637 70.9095 7.21619 70.3191 7.27174C70.0562 7.24294 70.1633 7.29076 69.9704 7.15844C68.5512 6.96156 67.0289 6.90752 65.6222 6.61735C63.9676 6.27609 62.1989 5.75054 60.5782 5.2684C60.1594 5.14374 60.1287 5.0096 59.9721 4.65387C59.7619 4.46388 57.0227 3.26309 56.5535 3.02823C55.7199 2.58073 55.1359 2.09625 54.4574 1.47679C54.2929 1.27619 54.2425 1.55841 54.0473 1.10818C53.5348 2.11732 53.7127 4.03282 53.4648 5.13888C53.0256 7.10365 52.9972 9.66817 52.4352 11.5583L52.4195 11.8229C52.2172 12.2019 52.2896 12.0867 51.8732 12.327Z" fill="#806BD2"/>
<path d="M51.8732 12.327C52.1471 10.3717 52.3919 8.36204 52.6383 6.41205C52.7406 5.59844 53.1019 0.734263 53.6931 0.434691C55.4799 -0.47191 59.3731 0.268571 61.2969 0.602701C60.7065 0.820958 59.3353 0.444087 58.6332 0.318362C58.5663 0.469323 58.5623 0.458259 58.5899 0.618541C59.2519 0.685989 59.9107 0.775109 60.5664 0.885905L60.6294 0.96313C59.3148 0.862034 54.8628 0.188696 54.0473 1.10818C53.5348 2.11732 53.7127 4.03282 53.4648 5.13888C53.0256 7.10365 52.9972 9.66817 52.4352 11.5583L52.4195 11.8229C52.2172 12.2019 52.2896 12.0867 51.8732 12.327Z" fill="#4530A0"/>
<path d="M59.9721 4.65387C62.8405 5.89202 69.1848 7.48098 72.2862 6.89101C72.0461 7.4637 70.9095 7.21619 70.3191 7.27174C70.0562 7.24294 70.1633 7.29076 69.9704 7.15844C68.5512 6.96156 67.0289 6.90752 65.6222 6.61735C63.9676 6.27609 62.1989 5.75054 60.5782 5.2684C60.1594 5.14374 60.1287 5.0096 59.9721 4.65387Z" fill="#3E2A83"/>
<path d="M68.4441 2.70797C69.8681 3.19503 70.9866 3.70938 72.2138 4.58407C73.8723 5.76683 73.925 6.19205 73.1639 7.99138C72.0414 10.6454 70.5269 13.343 69.5225 16.0319L68.9511 16.0441L68.8338 15.9309L68.7787 15.9056C67.583 16.0827 66.3708 16.293 65.1562 16.1405C65.0988 15.9722 65.2405 15.4068 65.3326 15.2642C66.9155 12.8083 68.245 9.45408 69.9704 7.15844C70.1633 7.29076 70.0562 7.24294 70.3191 7.27174C70.9095 7.21619 72.0461 7.4637 72.2862 6.89101C72.5869 6.76558 72.8939 6.74179 73.2205 6.69457C71.9918 5.07 71.5077 4.73731 69.6894 3.80456C69.1604 3.53341 68.6016 3.25801 68.4441 2.70797Z" fill="#5B41B5"/>
<path d="M68.4441 2.70797C69.8681 3.19503 70.9866 3.70938 72.2138 4.58407C73.8723 5.76683 73.925 6.19205 73.1639 7.99138C72.0414 10.6454 70.5269 13.343 69.5225 16.0319L68.9511 16.0441L68.8338 15.9309C68.9172 15.0059 71.9918 8.71216 72.6042 7.34866C71.9454 7.37261 70.9307 7.42088 70.3191 7.27174C70.9095 7.21619 72.0461 7.4637 72.2862 6.89101C72.5869 6.76558 72.8939 6.74179 73.2205 6.69457C71.9918 5.07 71.5077 4.73731 69.6894 3.80456C69.1604 3.53341 68.6016 3.25801 68.4441 2.70797Z" fill="#433098"/>
<path d="M54.4574 1.47679C55.1359 2.09625 55.7199 2.58073 56.5535 3.02823C56.0805 3.29302 55.657 3.07158 55.1926 2.89683C54.9005 2.48274 54.4818 1.97522 54.4574 1.47679Z" fill="#5B41B5"/>
<path d="M52.4352 11.5583C53.3727 12.167 55.5051 13.489 56.5213 13.9332C58.608 14.8447 61.6102 15.7377 63.8771 16.0245C64.225 16.0527 64.8335 16.0848 65.1562 16.1405C66.3708 16.293 67.583 16.0827 68.7787 15.9056L68.8338 15.9309L68.9511 16.0441L69.5225 16.0319C69.2439 16.7329 68.9778 17.4383 68.7244 18.1478C68.9692 18.2004 69.3454 18.2942 69.5816 18.3297C70.989 18.7266 71.8485 19.0759 73.0686 19.9172C74.7696 21.0906 75.6678 22.8373 73.5511 24.2343L73.2166 24.4328L72.6585 24.7428C70.6332 25.5505 68.4929 25.8065 66.3102 25.6673C64.9744 25.5793 63.5426 25.3945 62.2092 25.2287C60.6302 24.9453 59.3825 24.641 57.8326 24.265C55.2729 23.5933 52.732 22.5276 50.3288 21.4641C49.3008 21.0452 47.018 19.5614 46.1399 18.8748C45.792 18.6026 45.023 17.8177 44.6596 17.4647C44.4832 17.2925 44.2516 16.9315 44.1038 16.7183C41.953 11.82 49.056 13.1415 51.6465 13.6261L51.8732 12.327C52.2896 12.0867 52.2172 12.2019 52.4195 11.8229L52.4352 11.5583Z" fill="#806BD2"/>
<path d="M44.1038 16.7183C41.953 11.82 49.056 13.1415 51.6465 13.6261C51.6095 13.9338 51.6662 13.8973 51.4883 14.0752L51.2954 14.1288C49.7786 13.903 46.5452 13.3309 45.1995 14.2039C44.9042 14.3955 44.6872 14.7746 44.5498 15.0882L44.6428 15.4056C44.9574 15.4323 44.7456 15.1671 45.1266 15.2906C45.4255 15.6602 45.6001 16.061 45.857 16.456C46.8561 17.9927 48.4027 18.6901 49.9289 19.5964C54.0158 22.0231 58.641 23.2519 63.3678 23.8787C66.5093 24.2934 68.7905 24.1495 71.8895 23.5628C71.9493 22.5111 69.3218 21.4757 68.5103 20.9142C67.5744 20.2661 67.3398 20.4114 66.3063 20.4016L64.6761 20.5778C64.6918 20.4142 64.6871 20.2376 64.6879 20.0719C63.6843 20.0252 63.2183 20.0271 62.2446 19.8351C62.5421 19.6341 63.7535 16.5574 63.8771 16.0245C64.225 16.0527 64.8335 16.0848 65.1562 16.1405C66.3708 16.293 67.583 16.0827 68.7787 15.9056L68.8338 15.9309L68.9511 16.0441L69.5225 16.0319C69.2439 16.7329 68.9778 17.4383 68.7244 18.1478C68.9692 18.2004 69.3454 18.2942 69.5816 18.3297C70.989 18.7266 71.8485 19.0759 73.0686 19.9172C74.7696 21.0906 75.6678 22.8373 73.5511 24.2343L73.2166 24.4328L72.6585 24.7428C70.6332 25.5505 68.4929 25.8065 66.3102 25.6673C64.9744 25.5793 63.5426 25.3945 62.2092 25.2287C60.6302 24.9453 59.3825 24.641 57.8326 24.265C55.2729 23.5933 52.732 22.5276 50.3288 21.4641C49.3008 21.0452 47.018 19.5614 46.1399 18.8748C45.792 18.6026 45.023 17.8177 44.6596 17.4647C44.4832 17.2925 44.2516 16.9315 44.1038 16.7183Z" fill="#5944AD"/>
<path d="M44.1038 16.7183C41.953 11.82 49.056 13.1415 51.6465 13.6261C51.6095 13.9338 51.6662 13.8973 51.4883 14.0752L51.2954 14.1288C49.7786 13.903 46.5452 13.3309 45.1995 14.2039C44.9042 14.3955 44.6872 14.7746 44.5498 15.0882C44.2442 16.0828 45.4539 17.299 46.1172 17.9274C49.3575 20.9977 54.0575 22.5767 58.3309 23.7433C62.9814 25.0126 67.9986 25.553 72.7026 24.2767C72.8215 24.2443 73.1001 24.3775 73.2166 24.4328L72.6585 24.7428C70.6332 25.5505 68.4929 25.8065 66.3102 25.6673C64.9744 25.5793 63.5426 25.3945 62.2092 25.2287C60.6302 24.9453 59.3825 24.641 57.8326 24.265C55.2729 23.5933 52.732 22.5276 50.3288 21.4641C49.3008 21.0452 47.018 19.5614 46.1399 18.8748C45.792 18.6026 45.023 17.8177 44.6596 17.4647C44.4832 17.2925 44.2516 16.9315 44.1038 16.7183Z" fill="#3E2A83"/>
<path d="M65.1562 16.1405C66.3708 16.293 67.583 16.0827 68.7787 15.9056C68.5921 16.5643 67.5476 19.7111 67.0501 19.8984L67.1816 20.0296L67.1509 20.1697C66.7974 20.3605 66.651 20.2957 66.3063 20.4016L64.6761 20.5778C64.6918 20.4142 64.6871 20.2376 64.6879 20.0719C63.6843 20.0252 63.2183 20.0271 62.2446 19.8351C62.5421 19.6341 63.7535 16.5574 63.8771 16.0245C64.225 16.0527 64.8335 16.0848 65.1562 16.1405Z" fill="#DCD8DD"/>
<path d="M64.6879 20.0719C65.3066 20.1003 66.4086 19.9644 67.0501 19.8984L67.1816 20.0296L67.1509 20.1697C66.7974 20.3605 66.651 20.2957 66.3063 20.4016L64.6761 20.5778C64.6918 20.4142 64.6871 20.2376 64.6879 20.0719Z" fill="#5B41B5"/>
<path d="M68.7787 15.9056L68.8338 15.9309L68.9511 16.0441L69.5225 16.0319C69.2439 16.7329 68.9778 17.4383 68.7244 18.1478C68.9692 18.2004 69.3454 18.2942 69.5816 18.3297C69.7563 19.3461 71.4849 19.4922 72.0091 20.1076C72.8238 20.6476 73.3331 20.9722 73.7818 21.8234C74.4524 23.0673 72.7782 23.3364 71.8895 23.5628C71.9493 22.5111 69.3218 21.4757 68.5103 20.9142C67.5744 20.2661 67.3398 20.4114 66.3063 20.4016C66.651 20.2957 66.7974 20.3605 67.1509 20.1697L67.1816 20.0296L67.0501 19.8984C67.5476 19.7111 68.5921 16.5643 68.7787 15.9056Z" fill="#6B51C8"/>
<path d="M72.0091 20.1076C72.8238 20.6476 73.3331 20.9722 73.7818 21.8234C73.6212 21.8793 73.6865 21.8687 73.511 21.8446C73.0702 21.4869 72.2838 20.8734 71.9666 20.4016C71.8989 20.3012 71.9532 20.2613 72.0091 20.1076Z" fill="#806BD2"/>
<path d="M52.4352 11.5583C53.3727 12.167 55.5051 13.489 56.5213 13.9332C58.608 14.8447 61.6102 15.7377 63.8771 16.0245C63.7535 16.5574 62.5421 19.6341 62.2446 19.8351L61.1048 19.6759C58.9606 19.2854 52.6564 17.23 51.8496 15.2535C51.737 15.5156 51.8244 15.4222 51.6158 15.572C51.0994 14.982 51.4843 14.8659 51.4465 14.228L51.2954 14.1288L51.4883 14.0752C51.6662 13.8973 51.6095 13.9338 51.6465 13.6261L51.8732 12.327C52.2896 12.0867 52.2172 12.2019 52.4195 11.8229L52.4352 11.5583Z" fill="#F7F7F7"/>
<path d="M51.8732 12.327C52.2896 12.0867 52.2172 12.2019 52.4195 11.8229C52.3494 12.6399 52.0503 14.4242 51.8496 15.2535C51.737 15.5156 51.8244 15.4222 51.6158 15.572C51.0994 14.982 51.4843 14.8659 51.4465 14.228L51.2954 14.1288L51.4883 14.0752C51.6662 13.8973 51.6095 13.9338 51.6465 13.6261L51.8732 12.327Z" fill="#6B51C8"/>
<path d="M51.6158 15.572C51.8244 15.4222 51.737 15.5156 51.8496 15.2535C52.6564 17.23 58.9606 19.2854 61.1048 19.6759L60.9096 19.7732C60.8702 20.0048 60.9301 20.0516 61.1024 20.2925C57.4871 19.3511 54.0898 18.6029 51.6158 15.572Z" fill="#4F3C93"/>
<path d="M61.1048 19.6759L62.2446 19.8351C63.2183 20.0271 63.6843 20.0252 64.6879 20.0719C64.6871 20.2376 64.6918 20.4142 64.6761 20.5778C64.1566 20.7624 61.6881 20.4417 61.1024 20.2925C60.9301 20.0516 60.8702 20.0048 60.9096 19.7732L61.1048 19.6759Z" fill="#3E2A83"/>
<path d="M25.8974 35.7124L25.9797 35.8755C26.997 35.741 27.6933 35.3269 28.7734 35.7212C29.8715 36.1219 30.8101 36.8611 31.4173 37.8414C31.6542 39.2124 31.6951 40.4137 30.8116 41.634C30.1139 42.5979 28.9734 43.0478 28.1277 43.8505C26.4709 43.6295 25.5256 42.9382 24.784 41.514C25.1654 39.4729 25.1789 37.7446 25.8974 35.7124Z" fill="#974D20"/>
<path d="M62.2092 25.2287C63.5426 25.3945 64.9744 25.5793 66.3102 25.6673L66.137 25.7172C66.3511 26.8307 67.2815 27.5887 66.3464 28.794C65.2688 30.182 63.6866 29.774 62.45 28.8893C61.6275 28.3004 61.2441 27.7658 61.3173 26.7513C61.4795 25.9801 61.6676 25.7544 62.2092 25.2287Z" fill="#AD5A22"/>
<path d="M50.3288 21.4641C52.732 22.5276 55.2729 23.5933 57.8326 24.265C57.2998 24.9146 56.7653 25.1786 55.9585 25.4336C53.9347 25.7862 51.933 25.0107 50.6633 23.4713C50.402 22.8231 50.1934 22.1548 50.3288 21.4641Z" fill="#974D20"/>
<path d="M31.4173 37.8414C32.3766 38.5654 33.0768 39.1339 33.2593 40.3684C33.5638 42.4274 31.8961 43.7251 29.9221 43.951C29.3481 44.0167 28.7029 43.9451 28.1277 43.8505C28.9734 43.0478 30.1139 42.5979 30.8116 41.634C31.6951 40.4137 31.6542 39.2124 31.4173 37.8414Z" fill="#C6854A"/>
<path d="M44.6596 17.4647C45.023 17.8177 45.792 18.6026 46.1399 18.8748C47.018 19.5614 49.3008 21.0452 50.3288 21.4641C50.1934 22.1548 50.402 22.8231 50.6633 23.4713C48.7781 23.0259 46.5862 20.9784 45.3448 19.6286C44.6003 18.8189 44.4695 19.2085 43.9001 18.0116C43.7026 17.9058 43.4988 17.959 43.2388 17.9712C43.8461 17.7932 44.3054 17.9891 44.6596 17.4647Z" fill="#F1B757"/>
<path d="M40.1181 19.1266L40.2988 19.3177C40.2508 19.5007 40.2232 19.5564 40.1482 19.7265C40.2773 20.1929 40.4608 20.2169 40.9218 20.4939C39.2377 21.9109 37.4105 22.5297 35.787 23.9276C34.6961 24.8668 33.6524 25.8944 32.6626 26.928C32.2503 27.3585 30.9527 29.0564 30.6161 29.3073L30.5191 29.293C30.4422 28.8875 31.3464 27.7123 31.5766 27.333C33.2449 24.5828 35.7218 23.183 38.4197 21.5425C38.755 21.3386 39.2505 21.0273 39.1981 20.6143C39.0138 20.3724 38.9356 20.2915 38.7109 20.0828C39.1979 19.647 39.5442 19.4401 40.1181 19.1266Z" fill="var(--fill-0, #FBE0B9)"/>
<path d="M57.8326 24.265C59.3825 24.641 60.6302 24.9453 62.2092 25.2287C61.6676 25.7544 61.4795 25.9801 61.3173 26.7513C61.2048 26.7093 60.4609 26.7177 60.2342 26.6924C58.9032 26.5447 56.9849 26.2595 55.9585 25.4336C56.7653 25.1786 57.2998 24.9146 57.8326 24.265Z" fill="#F1B757"/>
<path d="M30.8788 26.3197C30.9882 26.4278 31.1414 26.5389 31.0886 26.7206C30.9171 27.3119 30.4804 28.0477 30.2378 28.6195C29.7546 29.7581 29.42 30.9739 28.9124 32.0899L28.7862 32.1364C28.5843 32.0094 28.4949 31.9537 28.2775 31.8569C27.7544 32.0159 27.4801 33.182 26.83 32.8941C27.6175 30.7623 29.4058 28.0741 30.8788 26.3197Z" fill="var(--fill-0, #FBE0B9)"/>
<path d="M75.53 51.3266C75.1852 51.1334 74.9648 51.0068 75.0758 50.6211C75.5426 50.2611 75.9307 50.5544 76.3494 50.8105C75.9732 50.9621 75.6646 50.9363 75.53 51.3266Z" fill="#974D20"/>
<path d="M47.1227 38.7443C48.4318 38.6795 49.9636 38.8522 51.3119 38.842C52.791 38.8309 54.2669 38.7312 55.7365 38.7505C56.16 38.7997 56.7314 38.749 56.9873 39.1592C58.3962 41.4217 57.1573 43.9063 55.4019 45.3617C55.1028 45.5713 54.7817 45.7508 54.444 45.8974C50.8153 47.5117 45.9493 45.2922 45.8034 41.2734C45.7604 40.091 45.8525 39.2437 47.1227 38.7443Z" fill="#692109"/>
<path d="M52.0574 42.0161C53.5175 41.8468 54.7455 42.0597 56.0073 42.7825C55.2744 44.4398 54.1126 44.9176 52.3463 45.2647C50.7177 45.2791 49.5228 44.965 48.2539 43.9765C49.3071 42.7207 50.4343 42.3592 52.0574 42.0161Z" fill="#E66F51"/>
<path d="M47.3194 39.5485C48.7632 39.4888 50.4366 39.6902 51.9173 39.6717C53.1877 39.6558 54.47 39.5707 55.7365 39.5896C55.9545 39.5929 56.0931 39.6845 56.2599 39.8089C56.3985 40.2978 55.7924 40.4935 55.4082 40.6494C55.1367 40.7381 54.862 40.8198 54.5857 40.8943C52.5084 41.4526 49.5598 41.4903 47.5233 40.6961C46.9878 40.4873 47.0414 39.9529 47.3194 39.5485Z" fill="#F7F7F7"/>
<path d="M67.4862 49.8297C68.1151 49.798 69.1242 49.6886 69.6933 49.9186C72.0091 50.8568 72.6538 53.8388 70.6277 55.4288C69.813 56.0684 69.2077 56.2768 68.2474 56.6618C68.0293 56.7323 67.8058 56.7846 67.5783 56.8179C62.9255 57.4984 62.9357 50.2778 67.4862 49.8297Z" fill="#974D20"/>
<path d="M35.0424 50.0421C35.7707 50.0042 36.2953 49.9966 36.9817 50.2914C38.5476 50.9644 39.4803 52.8794 38.7044 54.4186C38.1816 55.4561 37.2794 56.0434 36.1763 56.4193C35.2998 56.514 34.5208 56.3079 33.7918 55.8388C31.0711 54.0866 31.7636 50.5703 35.0424 50.0421Z" fill="#974D20"/>
<path d="M39.808 25.2751C40.5551 25.2428 41.3177 25.2008 41.998 25.5542C43.4433 26.3052 44.0032 28.1867 43.1713 29.5575C42.4684 30.7158 41.6409 30.9738 40.38 31.3005C40.3001 31.3183 40.2201 31.3356 40.14 31.3525C35.3692 32.3531 35.955 25.8947 39.808 25.2751Z" fill="#974D20"/>
<path d="M45.993 58.6958C47.6971 58.639 49.2575 59.5309 49.7715 61.1436C49.9872 61.7992 49.9171 62.5115 49.5755 63.1163C49.0221 64.1068 48.0847 64.5706 47.0091 64.8691C46.9102 64.8828 46.8111 64.8957 46.7117 64.9055C45.8738 64.9957 45.0336 64.757 44.3803 64.2439C42.3263 62.6176 42.531 58.9383 45.993 58.6958Z" fill="#974D20"/>
<path d="M64.5533 41.6333C65.2491 41.6164 65.6939 41.5865 66.3401 41.8956C67.4342 42.4194 68.1254 43.7216 67.4665 44.8246C67.0281 45.559 66.2378 45.8822 65.4176 46.0903C62.0966 46.5204 60.7081 42.1836 64.5533 41.6333Z" fill="#F1B757"/>
<path d="M38.0217 41.56C38.6075 41.4878 38.9076 41.464 39.4821 41.7142C40.524 42.1679 41.4977 43.4957 40.8789 44.5869C40.5695 45.1324 40.0022 45.2995 39.4143 45.4607C38.2325 45.6344 36.9418 45.3028 36.4896 44.1072C36.3096 43.6168 36.3464 43.0767 36.5915 42.613C36.9132 41.9955 37.3815 41.7563 38.0217 41.56Z" fill="#F1B757"/>
<path d="M60.2492 36.0238C60.9938 35.9759 61.5865 35.9862 62.3178 36.2943C63.43 36.7627 64.6367 38.2545 64.059 39.458C64.0117 39.5758 63.7724 39.802 63.63 39.7951C62.4996 39.7403 62.7948 38.6096 61.9274 37.8927L61.851 37.8295C59.3511 36.6275 59.392 39.2672 58.4498 39.4405C57.0888 39.6909 57.0652 36.7737 60.2492 36.0238Z" fill="#692109"/>
<path d="M41.477 35.7982C42.2391 35.7259 42.7905 35.741 43.5537 36.0276C44.6457 36.4184 45.9288 37.8374 45.4504 39.0159C45.1746 39.6953 44.3974 39.4106 44.1373 38.8754C43.7866 38.1537 43.7166 37.843 42.963 37.4496L42.8784 37.4058C42.423 37.348 41.8477 37.3254 41.4112 37.4737C40.4929 37.7857 40.7345 39.1549 39.7971 39.4559C39.6764 39.4947 39.4863 39.4688 39.3864 39.3968C38.7221 38.918 38.8541 38.0118 39.2618 37.4121C39.8396 36.5114 40.4553 36.0674 41.477 35.7982Z" fill="#692109"/>
<path d="M25.7457 45.8771C25.8335 45.9086 25.9792 45.971 26.0203 46.0479C26.5204 46.9838 27.4641 50.3725 27.3284 51.2918C26.3078 50.8507 25.6676 46.9036 25.7457 45.8771Z" fill="var(--fill-0, #FBE0B9)"/>
</g>
</svg>
