<svg preserveAspectRatio="none" width="100%" height="100%" overflow="visible" style="display: block;" viewBox="0 0 277 40" fill="none" xmlns="http://www.w3.org/2000/svg">
<g id="Vector">
<path d="M11.6977 0.173991L17.9278 0.17634C17.7831 4.38845 17.9122 8.92243 17.9129 13.1626L17.9075 39.9335L11.7665 39.9163C11.491 35.6553 11.7011 30.4853 11.7011 26.1338L11.6977 0.173991Z" fill="#1C1C1C"/>
<path d="M205.754 0.17535L211.412 0.176614C211.576 3.37185 211.449 7.06251 211.447 10.2863L211.444 36.2703C211.443 37.2218 211.348 39.0548 211.504 39.9138C209.628 39.9467 207.658 39.9207 205.773 39.9128L205.754 0.17535Z" fill="#1C1C1C"/>
<path d="M32.5199 0.176936C34.3616 0.154476 36.3117 0.177675 38.162 0.179191L38.1849 39.9242C36.329 39.9339 34.4464 39.9194 32.5881 39.9157C32.3535 35.5573 32.5279 30.4973 32.5298 26.1006L32.5199 0.176936Z" fill="#1C1C1C"/>
<path d="M161.442 0.169573L167.099 0.174898C166.895 2.67299 167.037 5.9705 167.037 8.5096L167.033 34.5364C167.033 35.8846 166.912 38.6963 167.122 39.9273L161.508 39.9136L161.506 4.89411C161.508 3.46531 161.593 1.56419 161.442 0.169573Z" fill="#1C1C1C"/>
<path d="M19.7097 0.172971L25.2651 0.173692L25.2593 39.9329L19.7203 39.914C19.8621 34.9128 19.7341 29.6559 19.7338 24.6297L19.7097 0.172971Z" fill="#1C1C1C"/>
<path d="M218.076 0.17739L223.579 0.180291L223.571 24.7098C223.571 29.6935 223.44 34.959 223.605 39.9243C221.79 39.9392 219.916 39.9191 218.095 39.9147C217.957 34.9763 218.059 29.8244 218.057 24.8697L218.076 0.17739Z" fill="#1C1C1C"/>
<path d="M254.817 0.175619C256.675 0.166101 258.533 0.169658 260.391 0.186287C260.111 2.04947 260.306 6.25825 260.306 8.30475L260.298 34.997C260.298 35.9657 260.208 39.1417 260.433 39.9213C258.634 39.9518 256.638 39.9211 254.825 39.9188C254.663 34.9754 254.8 29.706 254.8 24.742L254.817 0.175619Z" fill="#1C1C1C"/>
<path d="M96.2427 0.166514L101.761 0.169836L101.742 39.9332L96.241 39.9042C96.3763 35.6055 96.2459 30.9407 96.2464 26.6153L96.2427 0.166514Z" fill="#1C1C1C"/>
<path d="M121.692 0.170592L127.181 0.189618C126.707 3.94718 127.656 38.9926 126.991 39.8831L126.583 39.924C124.95 39.9379 123.316 39.9304 121.683 39.9017C121.632 38.3333 121.643 36.7117 121.663 35.1396C121.807 23.4999 121.415 11.8045 121.692 0.170592Z" fill="#1C1C1C"/>
<path d="M242.581 0.173651L248.06 0.177965C247.865 2.72694 248.046 6.5831 248.046 9.22966L248.053 28.9415C248.053 32.418 248.21 36.5062 247.975 39.9221C246.417 39.9711 244.206 39.9205 242.596 39.9173L242.581 0.173651Z" fill="#1C1C1C"/>
<path d="M153.903 0.17603L159.363 0.179774C159.264 1.29504 159.35 3.03079 159.35 4.19931L159.329 39.8395C158.925 40.0061 154.743 39.9192 153.916 39.9134L153.903 0.17603Z" fill="#1C1C1C"/>
<path d="M85.4649 0.169403L90.9623 0.172688C90.7306 1.51967 90.8693 5.12056 90.869 6.69019L90.8658 33.1477C90.8651 34.6964 90.7153 38.4655 90.9497 39.8958C90.3894 39.9644 86.3004 39.925 85.4726 39.922C85.3764 35.1776 85.4545 30.3198 85.4541 25.5683L85.4649 0.169403Z" fill="#1C1C1C"/>
<path d="M230.269 0.173991L235.761 0.175479L235.747 39.9294L230.351 39.9091L230.364 4.19727C230.365 3.25923 230.45 0.978381 230.269 0.173991Z" fill="#1C1C1C"/>
<path d="M133.663 0.166004C135.436 0.185226 137.263 0.169074 139.04 0.167155L139.037 26.8356C139.035 30.8816 138.824 35.9626 139.064 39.9278L133.692 39.9234C133.543 35.3736 133.658 30.5467 133.658 25.9786L133.663 0.166004Z" fill="#1C1C1C"/>
<path d="M39.9892 0.171782L45.3706 0.177659C45.2431 2.0862 45.3428 4.50439 45.3429 6.44313L45.3446 32.5046C45.3436 34.9078 45.2486 37.5508 45.3552 39.9275L40.0016 39.9159L39.9892 0.171782Z" fill="#1C1C1C"/>
<path d="M168.911 0.163795C170.67 0.183289 172.488 0.170356 174.252 0.173257L174.267 26.062C174.267 30.2585 174.507 35.8016 174.189 39.9185C172.767 39.9746 170.431 39.9227 168.936 39.9225C168.71 26.7593 168.936 13.3524 168.911 0.163795Z" fill="#1C1C1C"/>
<path d="M68.8961 0.168553L74.2784 0.183003C74.1267 4.59112 74.2575 9.36381 74.2582 13.7972L74.2535 39.9329L68.9244 39.9177C68.8305 36.4596 68.9197 32.8223 68.9203 29.3509L68.8961 0.168553Z" fill="#1C1C1C"/>
<path d="M189.734 0.173008C190.271 0.169321 190.791 0.193409 191.325 0.214793C191.185 8.70943 191.321 17.3656 191.314 25.8776L191.307 35.007C191.305 36.3674 191.208 38.5969 191.355 39.8883C191.089 39.9103 190.069 39.895 189.744 39.895C189.641 35.4319 189.733 30.8106 189.733 26.3372L189.734 0.173008Z" fill="#1C1C1C"/>
<path d="M92.9638 0.17722L94.5228 0.177744C94.6135 4.86196 94.5441 9.63927 94.5442 14.3293L94.5394 39.903L92.9926 39.8911L93.0057 15.5885C93.0056 10.6672 93.1987 5.04772 92.9638 0.17722Z" fill="#1C1C1C"/>
<path d="M182.062 0.184017L183.569 0.215143C183.798 4.21894 183.624 8.93429 183.624 12.9774L183.633 39.8929L182.13 39.898C181.988 36.6739 182.104 33.0358 182.104 29.772L182.107 10.6602C182.108 7.48767 182.295 3.25323 182.062 0.184017Z" fill="#1C1C1C" fill-opacity="0.988235"/>
<path d="M185.963 0.178448C186.412 0.16165 186.846 0.12446 187.272 0.219298C187.59 0.528564 187.463 2.36159 187.463 2.89159L187.456 30.3009C187.458 33.0255 187.676 37.312 187.412 39.9097C186.982 39.9277 186.533 39.9757 186.146 39.8644C185.843 39.5405 185.955 35.71 185.955 35.093L185.963 0.178448Z" fill="#1C1C1C"/>
<path d="M149.381 0.190364L150.527 0.166004C151.064 0.351207 150.924 0.640717 150.924 1.01288C150.9 13.9275 150.891 26.8553 150.928 39.7623C150.93 39.8664 150.495 39.9604 150.36 40C150.023 39.9588 149.869 39.9329 149.546 39.8568C149.054 39.2655 149.782 4.29168 149.381 0.190364Z" fill="#1C1C1C" fill-opacity="0.984314"/>
<path d="M52.7307 0.165155C53.2308 0.178472 53.898 0.13226 54.2241 0.30583C54.3519 1.79838 54.2634 3.84038 54.2641 5.35901L54.267 14.7523C54.268 17.0431 54.3812 39.6112 54.1125 39.9037C53.6922 39.9141 53.42 39.9239 52.9986 39.8909C52.6393 39.589 52.795 29.7388 52.7947 28.6129L52.7867 7.8166L52.8127 3.02555C52.8195 2.24435 52.8967 0.903756 52.7307 0.165155Z" fill="black" fill-opacity="0.956863"/>
<path d="M226.846 0.167242C227.241 0.160233 227.859 0.111317 228.152 0.259479C228.44 0.627553 228.326 6.07973 228.326 6.99893L228.328 18.9632C228.331 25.7397 228.562 33.2151 228.278 39.9177C227.857 39.9323 227.468 39.9683 227.076 39.8685C226.754 39.5511 226.883 36.6313 226.883 36.0346L226.889 10.4559C226.887 7.09495 226.991 3.49604 226.846 0.167242Z" fill="#1C1C1C" fill-opacity="0.988235"/>
<path d="M63.5011 0.191681C63.9335 0.169006 64.4327 0.113174 64.8241 0.215433C65.0848 0.44154 64.9397 4.87895 64.9395 5.5562L64.9379 18.4151C64.9386 25.4172 65.1425 32.9288 64.8948 39.9024C64.4696 39.9265 63.9995 39.9899 63.6377 39.8604C63.3908 39.6271 63.5026 36.1063 63.5027 35.4928L63.5011 0.191681Z" fill="#1C1C1C" fill-opacity="0.984314"/>
<path d="M197.642 0.190381C198.151 0.179703 198.546 0.116945 198.951 0.263151C199.149 0.563537 199.083 7.26347 199.083 8.06089L199.088 29.4392C199.088 32.7765 198.935 36.6415 199.088 39.9236C198.706 39.9313 198.064 39.9805 197.778 39.8454C197.391 39.339 197.659 4.3137 197.642 0.190381ZM198.284 4.04579C198.263 3.7379 198.261 1.65315 198.2 1.55109L198.084 1.52578C198.097 1.86372 198.054 3.8569 198.23 4.03301L198.284 4.04579Z" fill="#1C1C1C" fill-opacity="0.956863"/>
<path d="M198.084 1.52578L198.2 1.55109C198.261 1.65315 198.263 3.7379 198.284 4.04579L198.23 4.03301C198.054 3.8569 198.097 1.86372 198.084 1.52578Z" fill="#1C1C1C" fill-opacity="0.929412"/>
<path d="M214.057 0.164563C214.735 0.143796 215.503 0.0206401 215.5 0.609928C215.475 9.13231 215.485 17.655 215.485 26.1775L215.492 34.9296C215.493 36.3224 215.587 38.5875 215.394 39.9149C214.996 39.9345 214.585 39.9826 214.227 39.8764C213.848 39.4888 214.057 4.00997 214.057 0.164563Z" fill="#1C1C1C" fill-opacity="0.988235"/>
<path d="M0 0.184442C0.419467 0.167185 0.831568 0.131867 1.23616 0.202616C1.56709 0.444465 1.43392 4.74789 1.43534 5.40125L1.44554 15.5762C1.44568 23.5898 1.62715 31.9139 1.36408 39.8908C0.869675 39.9308 0.682537 39.9559 0.192237 39.8888C0.142797 39.8506 0.082448 39.8038 0.010766 39.7484C0.00623271 37.5589 0.0092082 34.1896 0.00977486 32.1268L0 0.184442Z" fill="black" fill-opacity="0.960784"/>
<path d="M117.652 0.168788C118.039 0.158662 118.647 0.11202 118.964 0.228634C119.254 0.60574 119.142 36.564 119.063 39.9204C118.652 39.9335 118.178 39.9855 117.841 39.8492C117.404 39.2656 117.89 3.92899 117.652 0.168788Z" fill="#1C1C1C" fill-opacity="0.988235"/>
<path d="M80.7971 0.178429C81.2316 0.166955 81.7272 0.112602 82.0688 0.267867C82.3739 0.7016 82.1974 36.1829 82.1634 39.9254C81.586 39.9124 81.1867 39.9939 80.8583 39.7871C80.7209 39.44 80.7703 37.2874 80.7703 36.8008L80.7971 0.178429Z" fill="black" fill-opacity="0.976471"/>
<path d="M59.9445 0.165784C60.3891 0.154619 60.8275 0.113152 61.2184 0.244375C61.4744 0.507439 61.3614 6.41625 61.3612 7.25334L61.3622 33.0328C61.3631 35.278 61.4359 37.6964 61.3005 39.9194C60.9083 39.9323 60.3764 39.9909 60.0819 39.8467C59.7695 39.377 59.9484 3.3442 59.9445 0.165784Z" fill="#1C1C1C" fill-opacity="0.988235"/>
<path d="M113.644 0.164559C114.072 0.160937 114.589 0.112068 114.896 0.28166C115.098 0.573988 115.165 37.2515 114.96 39.8217C114.791 39.9298 114.094 40.0414 113.9 39.9C113.689 39.7456 113.62 39.4638 113.623 39.2595C113.641 37.9319 113.641 36.6046 113.641 35.2768L113.644 0.164559Z" fill="#1C1C1C" fill-opacity="0.988235"/>
<path d="M128.98 0.167226C129.397 0.157101 129.88 0.111001 130.23 0.239389C130.489 0.509453 130.383 4.59088 130.383 5.24576L130.353 39.9272C129.824 39.9153 129.412 39.982 129.082 39.7889C128.928 39.3741 128.984 37.2432 128.984 36.7236L128.98 0.167226ZM129.568 37.5733L129.577 12.8532L129.621 6.66878C129.611 4.59062 129.521 2.72072 129.705 0.643016L129.307 0.442943L129.381 26.6804L129.329 34.2315C129.317 35.7348 129.207 37.6852 129.49 39.1372C129.693 38.9691 129.554 37.8765 129.568 37.5733Z" fill="#1C1C1C"/>
<path d="M129.307 0.442943L129.705 0.643016C129.521 2.72072 129.611 4.59062 129.621 6.66878L129.577 12.8532L129.568 37.5733C129.554 37.8765 129.693 38.9691 129.49 39.1372C129.207 37.6852 129.317 35.7348 129.329 34.2315L129.381 26.6804L129.307 0.442943Z" fill="#1C1C1C" fill-opacity="0.964706"/>
<path d="M28.1388 0.171492C28.6614 0.156855 28.9383 0.133235 29.4404 0.234605C29.6668 0.570271 29.5578 7.2437 29.5565 8.32038L29.5533 32.8009C29.5537 33.8292 29.694 39.5267 29.3272 39.9393L28.3715 39.9009C28.031 39.5326 28.1559 37.8173 28.1565 37.2894L28.164 10.6699C28.1644 7.42319 28.3653 3.34368 28.1388 0.171492Z" fill="#1C1C1C" fill-opacity="0.984314"/>
<path d="M144.634 0.203032C145.049 0.176735 145.461 0.123636 145.844 0.224173C146.222 0.600174 145.971 26.9074 145.976 29.3333L146 35.905C146.005 37.0677 146.075 38.7839 145.916 39.9129C145.484 39.9272 145.178 39.9554 144.761 39.8678C144.506 39.6247 144.62 35.9275 144.623 35.2723L144.634 0.203032ZM145.368 34.8215C145.393 32.1201 145.647 4.90907 145.26 4.24793C145.247 6.84071 145.083 34.3889 145.368 34.8215Z" fill="#1C1C1C" fill-opacity="0.976471"/>
<path d="M145.368 34.8215C145.393 32.1201 145.647 4.90907 145.26 4.24793C145.247 6.84071 145.083 34.3889 145.368 34.8215Z" fill="#1C1C1C" fill-opacity="0.537255"/>
<path d="M105.151 0.194974C105.565 0.172289 105.954 0.132478 106.355 0.203153C106.858 0.734831 106.275 35.8611 106.558 39.8976C106.167 39.9114 105.561 39.8929 105.152 39.8889L105.151 0.194974Z" fill="#1C1C1C"/>
<path d="M8.57185 0.155469C9.00265 0.172903 9.32706 0.200716 9.75347 0.243391C9.86708 0.362682 9.92106 36.8909 9.82359 39.7973L9.60104 39.8885L8.75289 39.8905C8.42239 39.3366 8.59352 31.2958 8.60032 30.1546L8.58091 10.4721L8.58715 4.07721C8.59565 2.8686 8.67767 1.33227 8.57185 0.155469Z" fill="black" fill-opacity="0.898039"/>
<path d="M193.709 39.4762C193.491 28.964 193.831 18.4037 193.697 7.88624C193.683 6.80132 193.504 0.862959 193.802 0.277302C194.29 0.159433 194.568 0.192365 195.086 0.216959C195.139 0.25603 195.201 0.302466 195.273 0.356277C195.196 2.06104 195.228 5.58072 195.228 7.11024L195.235 35.7946C195.235 36.5325 195.377 39.5457 195.001 39.903C194.558 39.9596 194.153 39.8963 193.705 39.8496L193.828 39.6657C193.998 39.6703 194.115 39.6623 194.282 39.6525C194.524 39.4192 194.431 39.3208 194.422 38.9855C194.185 37.6575 194.295 35.9029 194.317 34.5321C194.336 32.7225 194.34 30.9127 194.33 29.103L194.353 7.76261C194.358 6.75304 194.093 1.50581 194.353 0.90232L194.224 0.942711C193.919 1.32953 194.057 3.83337 194.057 4.43428L194.055 28.6987C194.057 32.0257 194.136 35.5186 194.024 38.8357C193.826 39.1113 193.796 39.1806 193.709 39.4762Z" fill="#1C1C1C"/>
<path d="M56.4342 0.162461C56.8589 0.149809 57.1294 0.12733 57.5443 0.202253C57.824 0.418076 57.7108 4.82343 57.7109 5.40563L57.7133 15.5996C57.715 23.6187 57.8816 31.9125 57.6779 39.9129C57.2951 39.9248 57.06 39.942 56.678 39.8863C56.2845 39.5085 56.4631 28.8933 56.4633 27.4587L56.4342 0.162461Z" fill="#1C1C1C" fill-opacity="0.976471"/>
<path d="M194.024 38.8357C194.136 35.5186 194.057 32.0257 194.055 28.6987L194.057 4.43428C194.057 3.83337 193.919 1.32953 194.224 0.942711L194.353 0.90232C194.093 1.50581 194.358 6.75304 194.353 7.76261L194.33 29.103C194.34 30.9127 194.336 32.7225 194.317 34.5321C194.295 35.9029 194.185 37.6575 194.422 38.9855L194.024 38.8357Z" fill="#1C1C1C" fill-opacity="0.964706"/>
<path d="M194.024 38.8357L194.422 38.9855C194.431 39.3208 194.524 39.4192 194.282 39.6525C194.115 39.6623 193.998 39.6703 193.828 39.6657L193.705 39.8496L193.709 39.4762C193.796 39.1806 193.826 39.1113 194.024 38.8357Z" fill="var(--fill-0, #1C1C1C)" fill-opacity="0.937255"/>
<path d="M266.656 0.0375543L272.16 0.0404554L272.152 24.57C272.152 29.5536 272.021 34.8192 272.186 39.7845C270.371 39.7994 268.497 39.7792 266.676 39.7748C266.537 34.8364 266.639 29.6845 266.638 24.7298L266.656 0.0375543Z" fill="#1C1C1C"/>
<path d="M275.427 0.0274072C275.822 0.0203978 276.44 -0.0285185 276.733 0.119643C277.021 0.487718 276.907 5.93989 276.907 6.85909L276.909 18.8234C276.911 25.5998 277.142 33.0753 276.859 39.7779C276.438 39.7925 276.049 39.8285 275.656 39.7286C275.335 39.4113 275.464 36.4915 275.464 35.8948L275.469 10.3161C275.468 6.95511 275.571 3.3562 275.427 0.0274072Z" fill="#1C1C1C" fill-opacity="0.988235"/>
<path d="M262.637 0.0247274C263.316 0.00396117 264.084 -0.119195 264.081 0.470093C264.056 8.99247 264.065 17.5152 264.065 26.0376L264.073 34.7898C264.074 36.1826 264.167 38.4477 263.975 39.7751C263.577 39.7947 263.166 39.8428 262.807 39.7365C262.429 39.3489 262.637 3.87013 262.637 0.0247274Z" fill="#1C1C1C" fill-opacity="0.988235"/>
</g>
</svg>
