<svg preserveAspectRatio="none" width="100%" height="100%" overflow="visible" style="display: block;" viewBox="0 0 13 13" fill="none" xmlns="http://www.w3.org/2000/svg">
<g id="Checkbox" clip-path="url(#clip0_75_4463)">
<path id="Vector" fill-rule="evenodd" clip-rule="evenodd" d="M9.3164 5.52288L6.28307 8.55622C6.17474 8.66455 6.0664 8.71872 5.9039 8.71872C5.7414 8.71872 5.63307 8.66455 5.52474 8.55622L3.68307 6.71455C3.4664 6.49788 3.4664 6.17288 3.68307 5.95622C3.89974 5.73955 4.22474 5.73955 4.4414 5.95622L5.9039 7.41872L8.55807 4.76455C8.77474 4.54788 9.09974 4.54788 9.3164 4.76455C9.53307 4.98122 9.53307 5.30622 9.3164 5.52288Z" fill="var(--fill-0, #3D2000)"/>
<path id="Vector_2" d="M6.50026 1.62288C9.2086 1.62288 11.3753 3.78955 11.3753 6.49788C11.3753 9.20622 9.2086 11.3729 6.50026 11.3729C3.79193 11.3729 1.62526 9.20622 1.62526 6.49788C1.62526 3.78955 3.79193 1.62288 6.50026 1.62288ZM6.50026 0.539551C3.1961 0.539551 0.541931 3.19372 0.541931 6.49788C0.541931 9.80205 3.1961 12.4562 6.50026 12.4562C9.80443 12.4562 12.4586 9.80205 12.4586 6.49788C12.4586 3.19372 9.80443 0.539551 6.50026 0.539551Z" fill="var(--fill-0, #3D2000)"/>
</g>
<defs>
<clipPath id="clip0_75_4463">
<rect width="13" height="13" fill="white"/>
</clipPath>
</defs>
</svg>
