<svg preserveAspectRatio="none" width="100%" height="100%" overflow="visible" style="display: block;" viewBox="0 0 20 21.814" fill="none" xmlns="http://www.w3.org/2000/svg">
<g id="Group">
<g id="Vector">
</g>
<path id="Vector_2" fill-rule="evenodd" clip-rule="evenodd" d="M10 0C15.523 0 20 4.477 20 10C20 15.523 15.523 20 10 20C4.477 20 0 15.523 0 10C0 4.477 4.477 0 10 0ZM14.5 8.5C14.1022 8.5 13.7206 8.65804 13.4393 8.93934C13.158 9.22064 13 9.60218 13 10C13 10.3978 13.158 10.7794 13.4393 11.0607C13.7206 11.342 14.1022 11.5 14.5 11.5C14.8978 11.5 15.2794 11.342 15.5607 11.0607C15.842 10.7794 16 10.3978 16 10C16 9.60218 15.842 9.22064 15.5607 8.93934C15.2794 8.65804 14.8978 8.5 14.5 8.5ZM10 8.5C9.60218 8.5 9.22064 8.65804 8.93934 8.93934C8.65804 9.22064 8.5 9.60218 8.5 10C8.5 10.3978 8.65804 10.7794 8.93934 11.0607C9.22064 11.342 9.60218 11.5 10 11.5C10.3978 11.5 10.7794 11.342 11.0607 11.0607C11.342 10.7794 11.5 10.3978 11.5 10C11.5 9.60218 11.342 9.22064 11.0607 8.93934C10.7794 8.65804 10.3978 8.5 10 8.5ZM5.5 8.5C5.10218 8.5 4.72064 8.65804 4.43934 8.93934C4.15804 9.22064 4 9.60218 4 10C4 10.3978 4.15804 10.7794 4.43934 11.0607C4.72064 11.342 5.10218 11.5 5.5 11.5C5.89782 11.5 6.27936 11.342 6.56066 11.0607C6.84196 10.7794 7 10.3978 7 10C7 9.60218 6.84196 9.22064 6.56066 8.93934C6.27936 8.65804 5.89782 8.5 5.5 8.5Z" fill="var(--fill-0, #3D2000)"/>
</g>
</svg>
