<svg preserveAspectRatio="none" width="100%" height="100%" overflow="visible" style="display: block;" viewBox="0 0 24 24" fill="none" xmlns="http://www.w3.org/2000/svg">
<g id="material-symbols:local-convenience-store-outline">
<path id="Vector" d="M8.025 18H11.025V17H9.025V16H11.025V13H8.025V14H10.025V15H8.025V18ZM15.025 18H16.025V13H15.025V15H14.025V13H13.025V16H15.025V18ZM21.025 11.05V19C21.025 19.55 20.8293 20.021 20.438 20.413C20.0467 20.805 19.5757 21.0007 19.025 21H5.025C4.475 21 4.00433 20.8043 3.613 20.413C3.22167 20.0217 3.02567 19.5507 3.025 19V11.05C2.64167 10.7 2.346 10.25 2.138 9.7C1.93 9.15 1.92567 8.55 2.125 7.9L3.175 4.5C3.30833 4.06667 3.546 3.70833 3.888 3.425C4.23 3.14167 4.62567 3 5.075 3H18.975C19.425 3 19.8167 3.13767 20.15 3.413C20.4833 3.68833 20.725 4.05067 20.875 4.5L21.925 7.9C22.125 8.55 22.121 9.14167 21.913 9.675C21.705 10.2083 21.409 10.6667 21.025 11.05ZM14.225 10C14.675 10 15.0167 9.846 15.25 9.538C15.4833 9.23 15.575 8.884 15.525 8.5L14.975 5H13.025V8.7C13.025 9.05 13.1417 9.35433 13.375 9.613C13.6083 9.87167 13.8917 10.0007 14.225 10ZM9.725 10C10.1083 10 10.421 9.87067 10.663 9.612C10.905 9.35333 11.0257 9.04933 11.025 8.7V5H9.075L8.525 8.5C8.45833 8.9 8.54567 9.25 8.787 9.55C9.02833 9.85 9.341 10 9.725 10ZM5.275 10C5.575 10 5.83733 9.89167 6.062 9.675C6.28667 9.45833 6.42433 9.18333 6.475 8.85L7.025 5H5.075L4.075 8.35C3.975 8.68333 4.029 9.04167 4.237 9.425C4.445 9.80833 4.791 10 5.275 10ZM18.775 10C19.2583 10 19.6083 9.80833 19.825 9.425C20.0417 9.04167 20.0917 8.68333 19.975 8.35L18.925 5H17.025L17.575 8.85C17.625 9.18333 17.7627 9.45833 17.988 9.675C18.2133 9.89167 18.4757 10 18.775 10ZM5.025 19H19.025V11.95C18.9417 11.9833 18.8877 12 18.863 12H18.775C18.325 12 17.9293 11.925 17.588 11.775C17.2467 11.625 16.909 11.3833 16.575 11.05C16.275 11.35 15.9333 11.5833 15.55 11.75C15.1667 11.9167 14.7583 12 14.325 12C13.875 12 13.454 11.9167 13.062 11.75C12.67 11.5833 12.3243 11.35 12.025 11.05C11.7417 11.35 11.4127 11.5833 11.038 11.75C10.6633 11.9167 10.259 12 9.825 12C9.34167 12 8.90433 11.9167 8.513 11.75C8.12167 11.5833 7.77567 11.35 7.475 11.05C7.125 11.4 6.77933 11.646 6.438 11.788C6.09667 11.93 5.709 12.0007 5.275 12H5.163C5.121 12 5.075 11.9833 5.025 11.95V19Z" fill="var(--fill-0, #3D2000)"/>
</g>
</svg>
