<svg preserveAspectRatio="none" width="100%" height="100%" overflow="visible" style="display: block;" viewBox="0 0 24 24" fill="none" xmlns="http://www.w3.org/2000/svg">
<g id="mdi:present">
<path id="Vector" d="M8.79273 0.552748C6.73091 0.541839 4.72364 2.52729 5.64 4.99275H2.18182C1.60316 4.99275 1.04821 5.22262 0.63904 5.63179C0.22987 6.04096 0 6.59591 0 7.17457V9.35638C0 9.64571 0.114935 9.92319 0.31952 10.1278C0.524105 10.3324 0.801582 10.4473 1.09091 10.4473H10.9091V7.17457H13.0909V10.4473H22.9091C23.1984 10.4473 23.4759 10.3324 23.6805 10.1278C23.8851 9.92319 24 9.64571 24 9.35638V7.17457C24 6.59591 23.7701 6.04096 23.361 5.63179C22.9518 5.22262 22.3968 4.99275 21.8182 4.99275H18.36C19.6364 1.42548 14.8364 -1.09452 12.6218 1.98184L12 2.81093L11.3782 1.96002C10.6909 0.989112 9.74182 0.563658 8.79273 0.552748ZM8.72727 2.81093C9.69818 2.81093 10.1891 3.98911 9.50182 4.67639C8.81455 5.36366 7.63636 4.87275 7.63636 3.90184C7.63636 3.61251 7.7513 3.33504 7.95588 3.13045C8.16047 2.92587 8.43795 2.81093 8.72727 2.81093ZM15.2727 2.81093C16.2436 2.81093 16.7345 3.98911 16.0473 4.67639C15.36 5.36366 14.1818 4.87275 14.1818 3.90184C14.1818 3.61251 14.2968 3.33504 14.5013 3.13045C14.7059 2.92587 14.9834 2.81093 15.2727 2.81093ZM1.09091 11.5382V20.2655C1.09091 20.8441 1.32078 21.3991 1.72995 21.8083C2.13912 22.2174 2.69407 22.4473 3.27273 22.4473H20.7273C21.3059 22.4473 21.8609 22.2174 22.2701 21.8083C22.6792 21.3991 22.9091 20.8441 22.9091 20.2655V11.5382H13.0909V20.2655H10.9091V11.5382H1.09091Z" fill="var(--fill-0, #3D2000)"/>
</g>
</svg>
