<svg preserveAspectRatio="none" width="100%" height="100%" overflow="visible" style="display: block;" viewBox="0 0 121 151" fill="none" xmlns="http://www.w3.org/2000/svg">
<g id="Vector">
<path d="M89.9477 0.0253559C93.0229 -0.18664 96.9178 0.963075 99.7033 2.2642C104.382 4.45005 107.07 7.17947 108.864 12.0083C109.359 12.0324 109.854 12.0923 110.341 12.1872C113.778 12.8736 116.813 15.1117 118.738 17.9809C123.659 25.3181 120.28 35.6269 111.228 37.1623C109.302 37.4888 107.836 37.2095 105.976 36.8172C105.631 38.5351 105.101 40.2511 104.702 41.9626C104.21 44.0743 103.511 48.927 102.493 50.5758C102.883 51.0433 103.391 51.4187 103.812 51.8503C104.601 52.6596 105.508 53.7636 106.083 54.7254C106.668 55.6942 107.083 56.7575 107.307 57.8681C107.397 58.2958 107.551 59.1826 107.709 59.5442C108.103 60.444 108.845 61.2849 109.378 62.1444C110.68 64.2473 110.749 66.5242 110.638 68.9198C110.611 69.5048 110.521 70.7957 110.575 71.3371C110.752 73.0612 111.156 74.3353 110.978 76.1192C110.816 77.7347 110.254 78.9265 109.885 80.478C110.774 82.2611 109.444 84.7271 108.511 86.2717C109.379 85.8495 111.87 84.0702 112.726 84.8429C112.981 85.5523 111.964 87.1655 111.636 88.1021C112.949 88.6012 114.368 88.6134 115.64 89.1681C115.782 89.2306 115.896 89.3594 115.91 89.5194C116.018 90.6853 115.971 91.8909 115.974 93.0652L115.988 100.68L115.986 129.607C115.979 130.829 116.139 138.211 115.791 138.691C115.498 138.893 115.202 139.018 114.86 139.112C109.366 140.62 103.844 141.954 98.3155 143.3L82.0354 147.425C78.1306 148.409 71.5102 150.181 67.2655 150.998C67.0116 151.047 63.9751 150.09 63.3996 149.916L53.8974 147.022L40.0206 142.861C37.1143 142.007 34.1844 141.228 31.2932 140.323C30.1939 139.979 24.8646 138.495 24.4465 138.039C24.3113 137.891 24.32 137.617 24.311 137.42C24.1967 134.944 24.309 132.421 24.31 129.939L24.2694 98.3414C24.2688 97.1336 24.1445 90.2967 24.4493 88.8793C24.526 88.5219 27.4508 88.0586 28.3911 87.8117C27.858 87.3157 25.4057 85.5508 26.5437 84.9549C27.1268 84.6501 29.4066 84.9823 30.2563 84.8772C31.586 84.7118 32.8425 84.2637 34.1665 84.2599C34.949 84.2577 35.6234 84.8985 36.465 84.7629C36.4825 84.5251 34.4847 82.2009 34.1698 81.794C32.4027 81.9533 31.6165 80.3599 30.6923 79.0766C29.783 79.6276 28.9883 80.3271 28.1372 80.9657L23.0883 84.7423C18.7867 87.9596 14.2263 90.9772 9.85054 94.1C9.52195 94.3347 8.09097 95.3825 7.78383 95.0807C5.23713 92.5759 3.26161 89.4493 0.838705 86.8051C0.526303 86.4645 0.127402 85.9532 5.95965e-05 85.4937C-0.0134229 84.7111 2.2649 81.8344 2.56578 81.3871L11.2313 68.7729C10.6951 68.8355 10.0026 68.9068 9.4691 68.88C8.28929 68.8207 7.18423 68.2832 6.40775 67.3911C5.18352 66.0115 5.22481 64.4345 5.39576 62.6951C5.44633 62.1812 5.59902 61.4398 5.43842 60.9563C4.8576 59.2589 3.65059 58.3622 3.79431 56.4089C4.05078 52.9236 7.63577 51.5479 10.5014 50.672C15.0502 49.2817 19.6542 48.9416 24.3775 49.2627C25.1107 47.0673 27.4668 45.1761 29.6844 44.6856C29.9148 39.621 30.9169 34.7294 32.7927 29.9996C33.6231 27.9055 35.102 25.19 37.2717 24.3505C39.0367 23.6129 41.3609 24.2878 42.7111 25.5619C44.4715 27.223 45.4074 26.4257 47.5423 26.6694C48.977 26.8332 50.1967 27.8839 50.6792 29.272C51.2948 31.0435 50.9056 32.3433 50.1552 33.9764C51.3317 33.4903 52.3621 32.5686 53.4164 31.8623C54.3449 31.2402 55.3124 30.6754 56.244 30.0563C57.2797 29.3679 64.0723 24.5403 64.6846 24.5985C65.4561 24.6718 67.9858 27.5312 68.6289 28.17C68.8323 27.4249 69.0958 26.6354 69.331 25.8932C65.8935 24.8887 63.0508 21.9805 61.8716 18.6169C59.6207 12.1959 63.7322 5.45554 69.8649 3.26141C72.8486 2.19395 76.8256 2.51409 79.6476 3.91007C82.8977 1.42191 85.8779 0.329138 89.9477 0.0253559Z" fill="#571C08"/>
<path d="M65.7536 40.8926C66.3697 41.3918 66.9075 41.7835 67.5535 42.2417C70.4963 44.0964 73.66 45.5732 76.9701 46.6375C78.9937 47.3649 81.0445 47.9481 83.1008 48.5743C83.9471 48.8319 84.9958 48.9998 85.8231 49.2743C89.8618 50.22 94.232 50.8504 98.3779 51.0208C99.2729 51.0576 100.149 50.9872 101.032 50.9822C102.889 52.8533 105.053 54.916 105.769 57.5204C106.137 58.857 105.954 60.2841 107.058 61.3586C110.028 64.174 109.054 67.9578 109.212 71.5737C109.248 72.3801 109.474 73.3157 109.59 74.1303C109.926 76.4781 108.939 78.5265 108.391 80.7714C107.448 81.2659 104.126 82.3358 103.076 82.4189C99.4052 83.3486 95.6358 83.8141 91.9028 84.4215C90.3964 84.6669 88.7569 84.8124 87.2299 84.9458L80.6461 85.4982C78.6735 85.6773 77.4614 85.752 75.5382 86.325C72.9307 87.1015 70.3121 87.9177 67.7004 88.6713C65.6626 87.2989 63.0623 85.0837 61.1318 83.9269C60.1761 83.7006 54.8832 81.762 54.1644 81.2583C51.8932 80.1557 49.6534 78.989 47.4479 77.7599C46.6563 77.3186 45.3999 76.6862 44.7826 76.107C43.6768 75.7031 42.4339 74.788 41.7606 73.7783C41.3029 72.9832 41.3991 72.459 41.2055 71.6509C40.7309 69.6706 40.8163 68.1707 41.7659 66.3506C42.0296 65.845 42.375 65.2519 42.6111 64.7284C42.8705 63.709 42.6784 62.6576 43.035 61.646C43.9382 59.0834 45.3168 57.1747 47.1651 55.2381C47.4796 54.9084 48.0719 52.8523 48.4894 52.1957C49.7301 50.2445 51.4835 48.7236 53.2524 47.2592C53.5046 47.0936 53.7846 46.8515 54.0451 46.7107C55.5085 45.9197 56.7277 44.6134 58.0827 43.7466C59.001 43.1591 60.5733 43.054 61.5745 42.6101C63.0246 41.9672 64.2241 41.3326 65.7536 40.8926Z" fill="#F9C560"/>
<path d="M85.8231 49.2743C89.8618 50.22 94.232 50.8504 98.3779 51.0208C99.2729 51.0576 100.149 50.9872 101.032 50.9822C102.889 52.8533 105.053 54.916 105.769 57.5204C106.137 58.857 105.954 60.2841 107.058 61.3586C110.028 64.174 109.054 67.9578 109.212 71.5737C109.248 72.3801 109.474 73.3157 109.59 74.1303C109.926 76.4781 108.939 78.5265 108.391 80.7714C107.448 81.2659 104.126 82.3358 103.076 82.4189C102.633 82.3374 102.945 82.4799 102.57 82.3808C103.138 80.4803 105.216 74.3818 104.642 72.6596C105.562 72.1083 106.123 71.3904 106.456 70.3606C106.964 68.7671 106.811 67.036 106.032 65.5563C105.309 64.1792 104.489 63.4273 103.029 62.9846C103.249 59.8671 101.576 57.4745 100.052 54.9021C99.6098 54.1532 98.3064 52.1704 97.7087 51.5265C97.5003 51.3025 95.9072 51.4005 95.4677 51.4133C92.41 51.502 89.3873 51.3368 86.3509 50.9564C85.7661 50.8832 84.4513 50.7657 83.9236 50.6387L83.8118 50.6109C84.7372 50.3329 85.1364 49.936 85.8231 49.2743Z" fill="#EFAC4A"/>
<path d="M65.7536 40.8926C66.3697 41.3918 66.9075 41.7835 67.5535 42.2417C67.2359 43.0816 65.5399 42.9699 64.7605 43.3266C63.1712 44.0541 61.8022 44.6425 60.0725 44.9055C59.5499 44.9849 58.2447 46.1607 57.8324 46.52C56.8751 47.5354 55.6526 48.2803 54.651 49.1958C52.964 50.738 51.2267 52.3498 49.7963 54.1351C48.7081 55.6861 48.4199 57.0263 47.1431 58.7757C46.2836 59.5028 46.0387 59.4351 45.7199 60.622C45.6057 60.9384 45.4389 61.1382 45.2596 61.4036C43.9601 63.3265 43.663 65.3423 43.2823 67.5741C43.1012 68.6355 42.7892 69.8037 42.6802 70.8942C42.5784 71.6659 42.6177 73.1908 42.4533 73.8728L41.7606 73.7783C41.3029 72.9832 41.3991 72.459 41.2055 71.6509C40.7309 69.6706 40.8163 68.1707 41.7659 66.3506C42.0296 65.845 42.375 65.2519 42.6111 64.7284C42.8705 63.709 42.6784 62.6576 43.035 61.646C43.9382 59.0834 45.3168 57.1747 47.1651 55.2381C47.4796 54.9084 48.0719 52.8523 48.4894 52.1957C49.7301 50.2445 51.4835 48.7236 53.2524 47.2592C53.5046 47.0936 53.7846 46.8515 54.0451 46.7107C55.5085 45.9197 56.7277 44.6134 58.0827 43.7466C59.001 43.1591 60.5733 43.054 61.5745 42.6101C63.0246 41.9672 64.2241 41.3326 65.7536 40.8926Z" fill="#FDECBF"/>
<path d="M104.642 72.6596C102.565 73.4575 99.1619 72.1828 98.0897 70.2635C96.0076 66.5356 98.4904 61.9696 103.029 62.9846C104.489 63.4273 105.309 64.1792 106.032 65.5563C106.811 67.036 106.964 68.7671 106.456 70.3606C106.123 71.3904 105.562 72.1083 104.642 72.6596Z" fill="#945020"/>
<path d="M76.9701 46.6375C78.9937 47.3649 81.0445 47.9481 83.1008 48.5743C83.9471 48.8319 84.9958 48.9998 85.8231 49.2743C85.1364 49.936 84.7372 50.3329 83.8118 50.6109C81.4506 51.2242 79.3107 50.6618 77.8735 48.5899C77.453 47.9843 77.2272 47.3213 76.9701 46.6375Z" fill="#945020"/>
<path d="M54.1644 81.2583C55.0175 80.4841 55.6993 79.7129 56.9687 79.7914C58.2186 79.8691 59.422 80.9718 60.2151 81.8634C60.7939 82.5141 60.9566 83.1047 61.1318 83.9269C60.1761 83.7006 54.8832 81.762 54.1644 81.2583Z" fill="#945020"/>
<path d="M47.1431 58.7757C48.3037 58.6492 49.1912 58.8403 49.3521 60.2131C49.4972 61.4498 48.6813 63.2674 47.2766 63.2885C46.8679 63.2908 46.4749 63.1312 46.1832 62.8443C45.7181 62.3793 45.6685 61.614 45.6945 60.9894C45.6991 60.8667 45.7075 60.7441 45.7199 60.622C46.0387 59.4351 46.2836 59.5028 47.1431 58.7757Z" fill="#9D5920"/>
<path d="M41.7606 73.7783L42.4533 73.8728C43.9352 74.1585 44.2548 74.8222 44.7826 76.107C43.6768 75.7031 42.4339 74.788 41.7606 73.7783Z" fill="#945020"/>
<path d="M65.9063 69.8121C67.6398 69.6669 68.9942 70.7499 70.7388 71.2688C72.7018 71.8526 76.2956 70.8286 77.3329 72.9612C78.5016 75.3663 76.8743 77.8231 74.7603 79.0301C72.387 80.1412 70.118 80.0909 67.6236 78.9852C64.7944 77.7301 62.8093 74.1806 64.094 71.1526C64.3933 70.4469 65.1754 70.0178 65.9063 69.8121Z" fill="#571C08"/>
<path d="M70.7748 73.936C72.6752 73.6083 75.0652 74.2553 76.4378 75.6422C75.5443 77.6265 73.9101 78.483 71.7954 78.6507C71.4809 78.6568 71.1662 78.6552 70.8517 78.6461C69.2122 78.5874 67.1335 77.7141 66.0134 76.5025C66.0814 76.3935 66.1555 76.2891 66.2354 76.1886C67.3102 74.8245 69.0977 74.1379 70.7748 73.936Z" fill="#F68C76"/>
<path d="M61.4286 54.6135L61.3396 54.6203C58.9767 54.7814 57.1969 53.7134 57.0867 51.1971C57.0402 49.9275 57.4991 48.6915 58.3623 47.7609C59.1355 46.9196 60.2179 46.4311 61.3591 46.4086C62.7738 46.3681 63.7429 46.7944 64.7515 47.7376C66.5632 47.9184 67.5907 49.5778 67.3462 51.3108C67.1829 52.4268 66.5774 53.4297 65.6666 54.0926C64.5611 54.9088 62.6779 55.2443 61.4286 54.6135Z" fill="#945020"/>
<path d="M64.7515 47.7376C66.5632 47.9184 67.5907 49.5778 67.3462 51.3108C67.1829 52.4268 66.5774 53.4297 65.6666 54.0926C64.5611 54.9088 62.6779 55.2443 61.4286 54.6135C64.8068 54.0688 66.8217 50.7137 64.7515 47.7376Z" fill="#EFAC4A"/>
<path d="M92.7218 53.3496C93.9271 53.2672 95.273 53.5552 95.981 54.5853C97.4365 56.7042 97.1794 59.4865 94.1719 59.7538C92.099 59.5425 89.1409 57.0318 90.2663 54.7069C90.6732 53.8668 91.8762 53.5433 92.7218 53.3496Z" fill="#945020"/>
<path d="M83.3365 66.0131C85.0072 65.7841 86.8003 66.4569 88.1128 67.6433C89.061 68.5009 90.5294 71.4581 89.5386 72.7007C88.4208 73.7638 87.7113 72.721 87.5523 71.6018C87.42 70.6736 87.09 70.0494 86.5592 69.3895C85.1228 67.951 83.2969 67.811 81.7343 69.1502C81.224 69.5879 80.678 70.5174 79.9974 70.6596C79.7556 70.712 79.5024 70.6639 79.2963 70.526C78.3823 69.9105 78.5655 69.0486 79.2012 68.3084C80.3001 67.0286 81.6445 66.1825 83.3365 66.0131Z" fill="#571C08"/>
<path d="M59.3766 60.8321C60.5288 60.7112 61.959 61.146 62.9324 61.7561C64.1482 62.5323 65.0044 63.7629 65.3106 65.1746C65.4573 65.8288 65.4717 67.2626 64.5313 67.3581C63.0569 67.5079 63.1541 65.6332 62.5822 64.714C62.2117 64.1187 62.1172 63.9825 61.5158 63.5236C60.1548 62.7191 58.5133 62.7647 57.4154 64.0204C56.8662 64.6486 56.5971 65.6463 55.7055 65.7765C55.0941 65.9347 54.4395 65.2924 54.4507 64.678C54.4789 63.1189 56.4514 61.5903 57.8164 61.1312C58.3657 60.9465 58.8437 60.8829 59.3766 60.8321Z" fill="#571C08"/>
<path d="M86.8429 74.2286C90.331 73.8987 92.3811 78.5585 88.2489 79.2412C86.6718 79.2946 84.76 78.6149 84.4505 76.8561C84.354 76.325 84.4726 75.7771 84.7813 75.3343C85.2847 74.6211 86.0391 74.3856 86.8429 74.2286Z" fill="#EFAC4A"/>
<path d="M54.4346 67.2207C55.982 67.1115 57.6703 67.7407 58.1705 69.3492C58.3287 69.8573 58.2782 70.4076 58.0304 70.8783C57.6131 71.6654 56.9494 71.8688 56.1776 72.0912C52.7521 72.4091 50.2814 68.3833 54.4346 67.2207Z" fill="#EFAC4A"/>
<path d="M79.1594 5.04816C78.7465 5.47002 78.4081 5.78024 78.1853 6.33774C78.3708 6.52504 79.456 5.63515 79.6362 5.48C84.0916 1.64592 90.169 0.32074 95.7787 2.16472C99.3505 3.33871 102.487 4.80355 105.055 7.67867C106.683 9.6623 107.604 12.0173 108.468 14.4008C108.539 14.5959 108.615 14.6466 108.793 14.6897C108.991 14.4509 108.902 13.549 108.887 13.2128C110.105 13.3652 111.119 13.6917 112.264 14.1144C118.742 16.8529 121.517 24.4695 118.312 30.7576C115.813 35.1643 111.146 36.7231 106.332 35.5712C106.689 34.2262 107.024 32.8754 107.337 31.5194C107.364 31.3472 107.422 30.8814 107.61 30.8411C108.109 30.734 110.309 30.4986 110.679 30.6245L111.162 30.5132C112.022 30.3187 112.815 30.0001 113.371 29.2926C113.037 29.297 111.969 29.6055 111.587 29.7006C110.117 30.0684 108.588 30.1246 107.097 29.8657C104.096 29.3589 101.677 27.7756 99.5505 25.665C98.7117 24.8323 98.1269 23.9565 97.4471 22.9992L98.7558 22.5317C99.4744 22.2791 101.798 21.3063 102.008 20.5468L101.866 20.5042C101.277 20.6686 99.9854 21.3238 99.2265 21.5834C96.2274 22.609 92.521 23.0807 89.4298 22.345C86.1121 21.5553 82.2247 19.6006 80.4081 16.6176C79.9153 15.8964 79.5039 15.2473 78.8978 14.6134C79.8415 16.7946 79.7647 17.2435 81.3213 19.1199C78.3686 20.3527 74.6006 20.7881 71.5884 19.556C70.8307 19.2484 70.1201 18.8353 69.4775 18.3289C69.2132 18.1172 67.7259 16.587 67.6362 16.5588C67.2435 17.3012 69.7269 19.5526 70.3488 20.0196L70.4378 20.1083C70.3998 20.4082 70.3502 20.6068 70.4221 20.9C70.6617 20.8836 70.7902 20.8493 71.0029 20.9582C70.4696 22.3178 70.1353 23.2853 69.7009 24.7001L69.3225 24.5348C66.2269 23.1728 64.5312 21.589 63.2732 18.3499C62.2627 16.0273 62.3395 13.4328 63.3331 11.1137C64.5833 8.11501 66.9938 5.7528 70.0133 4.56717C73.0372 3.37429 76.2447 3.76361 79.1594 5.04816Z" fill="#FDFDFB"/>
<path d="M110.679 30.6245L111.162 30.5132C111.242 30.9343 111.205 30.8832 111.633 31.1807C112.568 31.8303 114.414 31.7258 115.488 31.5309C116.344 31.3756 117.509 30.7898 118.312 30.7576C115.813 35.1643 111.146 36.7231 106.332 35.5712C106.689 34.2262 107.024 32.8754 107.337 31.5194C107.364 31.3472 107.422 30.8814 107.61 30.8411C108.109 30.734 110.309 30.4986 110.679 30.6245Z" fill="var(--fill-0, #DBDBE7)"/>
<path d="M107.337 31.5194C107.364 31.3472 107.422 30.8814 107.61 30.8411C108.109 30.734 110.309 30.4986 110.679 30.6245C109.665 30.8814 108.905 30.8686 107.866 30.9029C108.975 32.0223 109.983 32.1158 111.25 32.9497C108.871 32.8662 108.973 32.1464 107.337 31.5194Z" fill="#773918"/>
<path d="M97.4471 22.9992L98.7558 22.5317C98.9619 23.1445 99.4683 23.4703 99.9246 23.8996C102.052 25.9031 105.487 27.8413 108.339 28.4811C109.369 28.7035 110.411 28.8647 111.46 28.9638C111.92 29.0089 113.081 28.9996 113.371 29.2926C113.037 29.297 111.969 29.6055 111.587 29.7006C110.117 30.0684 108.588 30.1246 107.097 29.8657C104.096 29.3589 101.677 27.7756 99.5505 25.665C98.7117 24.8323 98.1269 23.9565 97.4471 22.9992Z" fill="var(--fill-0, #DBDBE7)"/>
<path d="M80.4081 16.6176C80.7328 16.6286 83.0513 18.4731 83.5737 18.7807C87.5075 21.0957 91.9279 21.5879 96.4076 21.1731C97.9026 21.0346 100.622 20.1124 101.866 20.5042C101.277 20.6686 99.9854 21.3238 99.2265 21.5834C96.2274 22.609 92.521 23.0807 89.4298 22.345C86.1121 21.5553 82.2247 19.6006 80.4081 16.6176Z" fill="var(--fill-0, #DBDBE7)"/>
<path d="M105.055 7.67867C106.683 9.6623 107.604 12.0173 108.468 14.4008C108.539 14.5959 108.615 14.6466 108.793 14.6897C108.991 14.4509 108.902 13.549 108.887 13.2128C110.105 13.3652 111.119 13.6917 112.264 14.1144C111.927 14.6181 112.292 15.2395 112.499 15.743C111.058 15.4032 109.913 15.1556 108.435 15.0336C107.783 14.9798 105.978 15.0434 105.506 14.9172C105.321 14.6459 105.651 13.3965 105.738 13.1089C106.46 10.7338 105.003 9.49123 105.055 7.67867Z" fill="var(--fill-0, #DBDBE7)"/>
<path d="M63.2732 18.3499C64.2952 18.7268 66.2794 21.5258 67.9359 21.0517C68.1452 20.8488 68.0791 20.8749 68.1315 20.5072C68.7251 20.7471 69.7803 21.1287 70.4221 20.9C70.6617 20.8836 70.7902 20.8493 71.0029 20.9582C70.4696 22.3178 70.1353 23.2853 69.7009 24.7001L69.3225 24.5348C66.2269 23.1728 64.5312 21.589 63.2732 18.3499Z" fill="var(--fill-0, #DBDBE7)"/>
<path d="M70.3488 20.0196L70.4378 20.1083C70.3998 20.4082 70.3502 20.6068 70.4221 20.9C69.7803 21.1287 68.7251 20.7471 68.1315 20.5072C67.923 20.3897 67.9049 20.3928 67.74 20.2084C68.0296 19.8949 69.4785 20.3353 70.3488 20.0196Z" fill="#753616"/>
<path d="M67.5479 98.5167C73.3117 97.6701 79.0568 96.5651 84.7882 95.5303C85.4239 95.4152 86.087 95.2903 86.7227 95.2042L86.798 145.038C81.5373 146.082 76.2226 147.773 70.9828 148.952C70.1947 149.129 67.611 149.868 66.9949 149.796C67.1214 149.39 67.2109 138.61 67.0417 138.083C67.2149 137.964 67.3536 137.922 67.3648 137.689C67.4233 136.47 67.4429 135.166 67.4544 133.951L67.4892 126.097L67.5479 98.5167Z" fill="#E0C18A"/>
<path d="M49.738 94.9755C55.3643 96.0439 60.9695 97.5078 66.6753 98.5388L66.7928 127.936L66.8451 133.981C66.8534 134.926 66.8243 137.258 67.0417 138.083C67.2109 138.61 67.1214 149.39 66.9949 149.796C65.3902 149.268 63.7865 148.815 62.1769 148.313C58.0496 147.007 53.9023 145.765 49.7364 144.589L49.738 94.9755Z" fill="#FDECBF"/>
<path d="M114.466 90.3119L114.649 90.3028C114.841 90.5444 114.754 93.8638 114.755 94.4216L114.748 104.569L114.769 137.951C109.518 139.246 104.208 140.71 98.9725 141.938L98.8159 141.913C98.7467 141.671 98.7961 138.957 98.7984 138.435L98.8022 130.729C98.8372 118.201 98.8083 105.671 98.7148 93.1429C100.828 92.8701 103.01 92.3938 105.108 92.0006C108.184 91.4245 111.41 90.9444 114.466 90.3119Z" fill="#E0C18A"/>
<path d="M25.4066 89.8852C29.7141 90.8789 34.2902 91.7377 38.6646 92.6895L38.7122 141.33C34.3538 140.064 29.8 138.509 25.427 137.358C25.5351 133.063 25.4189 128.688 25.4519 124.384C25.5398 112.914 25.2893 101.345 25.4066 89.8852Z" fill="#FDECBF"/>
<path d="M81.8727 19.7639C85.56 22.7381 89.6572 24.1246 94.4077 23.619C95.1438 23.5356 95.8761 23.4185 96.6015 23.268C98.5429 26.8244 101.421 29.3374 105.346 30.4869C105.736 30.6043 106.13 30.7039 106.529 30.7854C105.388 34.3207 104.384 37.8993 103.521 41.5129C102.531 41.4428 101.544 41.3592 100.557 41.2621C100.853 40.1789 102.142 35.4106 102.003 34.5566C101.762 34.7935 100.136 40.2503 99.8866 41.0866C98.3247 40.9551 96.9886 40.7188 95.4434 40.4312C95.0472 40.4713 94.8632 40.3713 94.4974 40.2321C93.9172 39.9816 90.6435 39.4501 89.8314 39.2924C89.6671 39.2584 89.5895 39.2288 89.4329 39.1741C89.185 38.6268 91.4169 32.4683 91.2313 31.1427L90.9606 31.1601C90.5773 32.5034 90.1637 33.886 89.8344 35.2397C89.4732 36.5007 89.1059 37.7598 88.731 39.0168L86.7904 38.5318C85.2102 38.1974 83.5905 37.7403 82.0194 37.337L81.5776 37.1708C81.2149 37.0989 80.4795 36.8547 80.1487 36.6832C79.1336 36.3752 77.1542 35.6991 76.2067 35.4839L76.1101 35.5497C75.7975 35.4452 75.7664 35.499 75.6531 35.288C75.3322 35.0419 72.6501 34.0499 71.9784 33.7372C72.2059 32.6228 73.4334 28.8668 73.3588 28.2556L73.1056 28.1594C72.9725 28.7859 72.6189 29.808 72.4205 30.4402C72.0999 31.46 71.8023 32.487 71.5282 33.5203C70.5274 33.0183 69.6668 32.9031 68.7438 32.1492C69.6617 28.7216 70.8901 25.5489 71.7879 21.9773L72.0944 20.741C74.9884 21.7576 78.1663 21.5849 80.9343 20.2605C81.2476 20.1103 81.5692 19.9325 81.8727 19.7639Z" fill="#FDFDFB"/>
<path d="M81.8727 19.7639C85.56 22.7381 89.6572 24.1246 94.4077 23.619C95.1438 23.5356 95.8761 23.4185 96.6015 23.268C98.5429 26.8244 101.421 29.3374 105.346 30.4869C105.736 30.6043 106.13 30.7039 106.529 30.7854C105.388 34.3207 104.384 37.8993 103.521 41.5129C102.531 41.4428 101.544 41.3592 100.557 41.2621C100.853 40.1789 102.142 35.4106 102.003 34.5566C101.762 34.7935 100.136 40.2503 99.8866 41.0866C98.3247 40.9551 96.9886 40.7188 95.4434 40.4312C95.0472 40.4713 94.8632 40.3713 94.4974 40.2321C93.9172 39.9816 90.6435 39.4501 89.8314 39.2924C90.4268 38.4808 94.0677 39.8439 94.686 38.3565C96.0236 35.1387 97.0388 31.8136 98.098 28.4965C97.6874 27.8857 97.133 27.2823 96.7095 26.6594C96.257 25.9948 95.9019 25.3254 95.4487 24.6616C94.6761 24.6881 93.1309 24.8208 92.3788 24.751C89.823 24.5135 86.8892 23.9251 84.6422 22.642C84.1851 22.4593 82.3571 20.9875 81.9943 21.0621C80.3495 21.4012 78.3777 22.0804 76.6614 22.2513C74.8128 22.4354 73.514 22.0705 71.7879 21.9773L72.0944 20.741C74.9884 21.7576 78.1663 21.5849 80.9343 20.2605C81.2476 20.1103 81.5692 19.9325 81.8727 19.7639Z" fill="var(--fill-0, #DBDBE7)"/>
<path d="M98.2555 28.859C99.0524 29.5909 100.036 30.3195 100.907 30.9778C100.45 32.9696 99.7185 35.1056 98.9657 36.9983C98.5794 37.9702 98.4775 38.8398 97.8661 39.7298C97.2981 39.7587 96.0403 39.9367 95.6928 39.4797C95.965 38.6803 97.0441 35.0324 96.9201 34.3389C96.7726 34.0375 97.184 33.0373 97.2981 32.6574C97.6707 31.4054 97.9901 30.1382 98.2555 28.859Z" fill="#FDFDFB"/>
<path d="M96.9201 34.3389C97.0441 35.0324 95.965 38.6803 95.6928 39.4797C95.6175 39.684 95.365 40.259 95.4434 40.4312C95.0472 40.4713 94.8632 40.3713 94.4974 40.2321C94.5711 40.225 94.6594 40.2167 94.7628 40.2069C95.5308 39.3617 96.2563 34.9349 96.9201 34.3389Z" fill="#753616"/>
<path d="M80.1487 36.6832L80.186 36.5981L80.1411 36.5664C80.3716 36.274 80.8461 36.424 81.1221 35.8452C81.7996 34.4242 82.4909 32.8966 83.1274 31.4613C83.1304 31.8355 83.1236 32.2049 83.1646 32.5766C82.4506 34.046 81.9875 35.5921 81.5776 37.1708C81.2149 37.0989 80.4795 36.8547 80.1487 36.6832Z" fill="var(--fill-0, #DBDBE7)"/>
<path d="M87.8398 38.2272C88.0976 37.9062 88.2314 37.7287 88.442 37.3857C88.7637 36.862 89.1842 35.4512 89.62 35.1334L89.8344 35.2397C89.4732 36.5007 89.1059 37.7598 88.731 39.0168L86.7904 38.5318C87.252 38.353 87.3409 38.3107 87.8398 38.2272Z" fill="var(--fill-0, #DBDBE7)"/>
<path d="M76.0257 34.6158C76.3298 33.6699 77.1382 30.2228 77.7519 29.7755C77.8233 31.0361 76.4485 34.158 76.2067 35.4839L76.1101 35.5497C75.7975 35.4452 75.7664 35.499 75.6531 35.288L75.7337 35.2821C75.9458 35.1138 75.9382 34.9243 76.0257 34.6158Z" fill="#753616"/>
<path d="M76.0257 34.6158C75.9694 34.3597 75.8211 34.1797 75.8531 33.8716C75.9565 32.8735 76.6158 30.2062 77.3108 29.5532L77.4827 29.6765L77.7678 29.6208L77.7519 29.7755C77.1382 30.2228 76.3298 33.6699 76.0257 34.6158Z" fill="var(--fill-0, #DBDBE7)"/>
<path d="M83.1646 32.5766L83.3547 32.5355C83.23 33.4846 82.3069 36.1612 82.0194 37.337L81.5776 37.1708C81.9875 35.5921 82.4506 34.046 83.1646 32.5766Z" fill="#753616"/>
<path d="M83.1274 31.4613C83.3373 30.934 83.5935 30.2644 83.7783 29.7501C84.0216 29.0701 84.7608 26.372 85.1418 25.8935C84.9661 26.9851 83.176 32.114 83.3547 32.5355L83.1646 32.5766C83.1236 32.2049 83.1304 31.8355 83.1274 31.4613Z" fill="#9C9CB5"/>
<path d="M79.4484 23.8653C79.3343 25.2137 77.9047 28.2277 77.7678 29.6208L77.4827 29.6765L77.3108 29.5532C77.7366 28.9242 78.3138 26.872 78.5975 26.0222C78.8446 25.2893 79.129 24.5695 79.4484 23.8653Z" fill="#9C9CB5"/>
<path d="M73.1056 28.1594C73.2311 27.4216 74.3246 24.033 74.6356 23.1662C74.5208 24.5973 73.3307 27.4008 73.3588 28.2556L73.1056 28.1594Z" fill="#9C9CB5"/>
<path d="M90.9606 31.1601C91.1895 30.2388 91.9317 27.6815 92.2701 26.8328C92.1385 27.802 91.2032 30.6742 91.2313 31.1427L90.9606 31.1601Z" fill="#9C9CB5"/>
<path d="M97.403 93.3654L97.4882 93.3601C97.6137 93.4827 97.6197 93.5208 97.6129 93.7578C97.5733 95.0327 97.5863 96.3144 97.5893 97.5885L97.6045 107.277C97.6114 118.864 97.5095 130.72 97.676 142.287C97.0905 142.447 96.4928 142.598 95.8989 142.722C93.2328 143.276 90.6587 144.103 88.0162 144.755C87.9333 144.186 88.0094 141.518 88.0147 140.818C88.0398 137.966 88.0497 135.115 88.0428 132.264L87.9926 109.212C87.9805 104.615 88.0337 99.5431 87.855 94.9755C91.0359 94.4718 94.2229 93.8958 97.403 93.3654Z" fill="#CE3D30"/>
<path d="M39.798 92.9127C42.2644 93.2656 44.7403 94.007 47.2051 94.42C47.6794 94.5001 48.1467 94.609 48.6078 94.7469C48.4684 103.257 48.5787 111.927 48.5746 120.452L48.576 136.235C48.5797 138.901 48.5469 141.657 48.6008 144.317C47.8849 144.614 47.0951 144.116 46.6391 143.58L39.8612 141.674L39.8547 106.42C39.8484 101.987 39.7322 97.3119 39.798 92.9127Z" fill="#F05243"/>
<path d="M46.6391 143.58C47.2874 143.767 47.9926 144.02 48.6008 144.317C47.8849 144.614 47.0951 144.116 46.6391 143.58Z" fill="#753616"/>
<path d="M68.562 32.6156C77.2028 37.2937 87.5827 40.0343 97.2327 41.6637C99.2341 41.9373 101.245 42.1316 103.262 42.2462C102.932 43.5347 102.058 48.74 101.528 49.3926C100.972 49.6655 99.7246 49.5506 99.0554 49.558C93.9689 49.6149 89.5553 48.7883 84.668 47.5132C82.646 46.9556 80.3206 46.4512 78.3625 45.7266C74.3748 44.2507 69.532 42.4554 66.3889 39.551C66.5771 38.4723 66.9722 37.4445 67.3255 36.4071C67.765 35.1524 68.1772 33.8883 68.562 32.6156Z" fill="#FDFDFB"/>
<path d="M97.2327 41.6637C99.2341 41.9373 101.245 42.1316 103.262 42.2462C102.932 43.5347 102.058 48.74 101.528 49.3926C100.972 49.6655 99.7246 49.5506 99.0554 49.558C93.9689 49.6149 89.5553 48.7883 84.668 47.5132C84.8034 47.4974 84.8581 47.4733 85.0224 47.451C88.2132 47.0176 93.0085 48.1222 95.9483 46.7575C96.3977 46.5487 97.2076 42.4869 97.2327 41.6637Z" fill="var(--fill-0, #DBDBE7)"/>
<path d="M39.5331 42.3506C39.8277 42.4601 41.3371 44.6408 41.6754 45.0584C42.7475 46.3817 43.8487 47.7263 44.8575 49.0983C45.5706 50.0681 46.4503 50.964 47.1241 51.9397C46.3053 53.0089 42.7676 55.1553 41.532 56.0093L36.3682 59.5333C35.0837 60.4248 33.7174 61.4219 32.4133 62.2684C32.1926 62.2333 32.238 62.2061 32.046 61.98C30.3507 60.0091 28.6855 57.9919 26.979 56.0264C25.99 54.8873 24.8088 53.7066 23.8894 52.5252C24.7681 51.7841 27.4471 50.2032 28.5739 49.476C32.1833 47.1466 35.876 44.5727 39.5331 42.3506Z" fill="#FDECBF"/>
<path d="M23.2848 53.0776C23.744 53.3467 29.069 59.5848 29.7989 60.4136C30.5064 61.202 31.2246 61.981 31.9531 62.7501C31.561 63.2343 30.1859 65.2923 29.8975 65.5021C28.1902 66.7436 28.0553 67.3348 27.1731 69.1842C27.0154 69.5149 25.9189 70.67 25.6128 71.0722C24.7718 72.1778 23.9147 73.2997 23.053 74.394L22.721 74.7948C21.3339 73.4033 20.3052 71.9789 19.0353 70.5273C17.597 68.8833 16.1767 67.2192 14.7317 65.5839C15.4603 64.6299 16.1974 63.403 16.9018 62.4036C18.4024 60.2744 19.8447 58.1024 21.2584 55.9152C21.8926 54.9341 22.6517 54.1351 23.2848 53.0776Z" fill="#FDECBF"/>
<path d="M64.6335 25.7341C65.3074 26.2733 67.5902 28.7002 68.2073 29.3862C67.85 30.4982 67.5087 31.6653 67.1231 32.7619C66.3716 34.8993 65.5453 37.0936 65.0673 39.31C64.6189 39.5664 63.6323 39.9592 63.122 40.1981C62.6705 40.4094 61.3827 41.1268 60.9907 41.2472C59.1737 41.8055 58.4633 41.856 56.8246 42.8802L55.6558 41.4089C54.0088 39.343 52.2959 37.1064 50.6259 35.0866L64.6335 25.7341Z" fill="#FDECBF"/>
<path d="M108.799 82.0539L108.905 82.0478L108.959 82.1682C108.866 82.8525 108.332 84.4482 107.962 85.0425C106.832 85.6049 104.636 86.2343 103.372 86.6519C101.504 87.2692 99.4843 87.7858 97.5855 88.3231C97.1779 88.4381 96.3643 88.4808 95.8639 88.6027C94.7035 88.8854 93.0442 89.4455 91.8914 89.5804C90.6511 89.7267 89.6101 88.7483 88.0983 89.0912C86.4193 89.473 85.2482 90.2898 83.7814 90.9307C83.2719 91.1532 80.2537 91.5129 79.6712 91.5228C77.9078 91.5548 77.3055 90.5108 75.0972 90.76C73.8562 90.9086 72.6501 91.2698 71.5311 91.8276C71.3367 91.9229 70.0533 92.5736 69.8802 92.6079C68.0684 92.9676 65.4013 92.9524 63.5461 92.9249C63.1154 92.9181 61.8786 92.5675 61.0968 92.5157C60.1012 92.5028 59.6641 92.4593 58.7116 92.182C59.9028 91.865 61.1796 91.6927 62.3722 91.3628C66.418 90.206 70.6597 89.3282 74.6257 87.9344C77.0933 87.0672 77.7914 86.9811 80.3465 86.796L85.1463 86.4264C92.4305 85.8099 100.01 84.8284 107.042 82.71C107.63 82.5332 108.233 82.2924 108.799 82.0539Z" fill="#FDFDFB"/>
<path d="M8.50122 74.6843C8.81566 74.9259 10.3492 76.7646 10.7298 77.2021L16.1561 83.4248C13.7296 86.7388 10.8457 90.0635 8.3721 93.3806L8.00245 93.7998C5.91536 91.1471 3.29812 87.9055 1.09911 85.3679C2.47798 83.5985 3.69534 81.6012 4.98566 79.7785C6.21437 78.0426 7.32521 76.4675 8.50122 74.6843Z" fill="#FDECBF"/>
<path d="M31.9612 36.2562C32.3723 34.4908 33.1248 31.9004 33.874 30.2682C34.6364 28.6075 35.7747 26.0446 37.587 25.4474C40.6133 24.45 42.0063 26.8553 43.7788 27.6447L43.863 27.6815C44.0632 27.865 44.2002 27.9603 44.3245 28.1959C45.126 28.2227 47.3695 28.4222 47.871 29.0901C46.4666 28.826 45.4736 29.0611 44.3466 29.8885C39.4391 33.4916 36.6879 39.4156 33.7165 44.5623C33.567 44.8214 32.4625 45.4509 32.128 45.6484C32.8661 42.7699 33.3953 40.6467 34.5326 37.8551L34.2962 37.6109C33.0192 39.4359 31.7949 42.885 31.3517 45.0865C31.1641 44.9826 31.0092 44.8835 30.8287 44.7672C30.4069 43.9574 31.6092 37.4959 31.9612 36.2562Z" fill="#F05243"/>
<path d="M31.9612 36.2562C32.3723 34.4908 33.1248 31.9004 33.874 30.2682C34.6364 28.6075 35.7747 26.0446 37.587 25.4474C40.6133 24.45 42.0063 26.8553 43.7788 27.6447L43.863 27.6815C44.0632 27.865 44.2002 27.9603 44.3245 28.1959C44.0621 28.2179 43.4544 28.2742 43.2402 28.2092C40.802 27.4694 39.2454 24.377 36.556 27.624C34.6821 29.8862 33.5559 33.9122 32.306 36.5998C32.0876 37.0694 32.1734 38.0225 31.7627 38.205L31.6909 38.1706C31.8217 37.6441 32.0809 36.7479 31.9612 36.2562Z" fill="#F68C76"/>
<path d="M34.2962 37.6109C34.5698 37.2637 34.7063 37.0857 35.03 36.782L34.5326 37.8551L34.2962 37.6109Z" fill="#200201"/>
<path d="M19.271 50.3467C19.8979 50.2019 23.9307 50.1435 24.4561 50.3945L24.5322 50.5329C24.3592 50.9654 23.666 51.1475 23.2509 51.2092C21.9788 51.445 20.7696 51.6256 19.5328 52.0252C19.3245 52.0926 18.2965 52.4595 18.2108 52.4638C17.9501 52.6041 17.3544 52.8917 17.1928 53.0906C17.3733 53.173 17.4006 53.1255 17.6377 53.0867C18.1106 52.94 19.0545 52.8088 19.598 52.6992C20.567 52.5036 21.691 52.1594 22.6426 52.0371C22.4668 52.3642 22.2151 52.811 21.925 53.0535C21.6177 53.4602 20.7448 54.7385 20.453 54.9251C19.7603 55.3678 18.4915 55.7467 17.6947 56.1105C14.4816 57.5777 9.24934 60.223 7.99599 63.7803C7.95584 63.95 7.88725 64.2861 7.83417 64.437C7.53874 65.395 7.83272 66.5601 8.8479 66.9444L8.85049 67.0864C9.17307 67.2307 9.52743 67.0876 9.71313 67.4266L9.64461 67.5363C8.9641 67.5758 8.36777 67.2274 7.70239 67.0073C5.54017 65.2066 6.96788 62.7457 6.54995 60.435C6.3679 59.7853 5.83202 59.1642 5.50009 58.6058C3.26258 54.8422 7.2424 52.8457 10.2507 51.885C13.2824 50.9167 16.1174 50.4993 19.271 50.3467Z" fill="#F05243"/>
<path d="M7.70239 67.0073C5.54017 65.2066 6.96788 62.7457 6.54995 60.435C6.3679 59.7853 5.83202 59.1642 5.50009 58.6058C3.26258 54.8422 7.2424 52.8457 10.2507 51.885C13.2824 50.9167 16.1174 50.4993 19.271 50.3467L19.319 50.4224C18.4997 50.664 17.4145 50.3935 16.6384 50.8664C16.9905 50.9597 18.9624 50.6707 19.0342 50.7161C17.5949 50.9236 15.6723 51.1676 14.2939 51.5733C11.7161 52.3319 3.73557 54.6622 6.62531 58.5694C7.76048 60.1042 7.60786 60.9656 7.52764 62.838C7.3703 63.9038 7.26848 64.6703 7.32536 65.7666C7.71896 66.3499 8.09203 66.9578 8.85049 67.0864C9.17307 67.2307 9.52743 67.0876 9.71313 67.4266L9.64461 67.5363C8.9641 67.5758 8.36777 67.2274 7.70239 67.0073Z" fill="#F68C76"/>
<path d="M17.6377 53.0867C18.1106 52.94 19.0545 52.8088 19.598 52.6992C20.567 52.5036 21.691 52.1594 22.6426 52.0371C22.4668 52.3642 22.2151 52.811 21.925 53.0535L21.8911 52.9519C21.1333 52.6528 19.0779 53.8015 17.6044 53.1995L17.6565 53.1731L17.6377 53.0867Z" fill="#CE3D30"/>
<path d="M18.2108 52.4638L18.2282 52.3634C18.589 52.1689 19.9968 51.6211 20.3724 51.6223L20.1481 51.5405L20.2813 51.4636L20.5886 51.5635L20.7488 51.4799L20.6523 51.3759L20.7314 51.3063C20.9111 51.3695 21.0167 51.4294 21.2014 51.3903L21.0407 51.3211L21.0557 51.242C21.594 50.9631 22.6732 51.0812 23.2509 51.2092C21.9788 51.445 20.7696 51.6256 19.5328 52.0252C19.3245 52.0926 18.2965 52.4595 18.2108 52.4638Z" fill="#CE3D30"/>
<path d="M40.3901 41.8327C40.7944 41.4762 42.6412 40.2881 43.1808 39.9403C45.4262 38.4928 47.5436 37.0731 49.7463 35.5704L50.332 36.2867C52.2947 38.5683 53.9865 41.0627 56.0546 43.4622C54.7883 44.5932 54.0712 45.003 52.7337 45.9697C50.9433 47.2638 48.9336 49.1823 47.6285 50.962C45.3374 48.0815 43.1421 45.2102 40.8095 42.3597L40.3901 41.8327Z" fill="#F05243"/>
<path d="M40.3901 41.8327C40.7944 41.4762 42.6412 40.2881 43.1808 39.9403C45.4262 38.4928 47.5436 37.0731 49.7463 35.5704L50.332 36.2867C49.7693 36.8801 47.0076 38.3684 46.1747 38.973C45.3643 39.5613 41.6165 42.2391 40.8095 42.3597L40.3901 41.8327Z" fill="#F68C76"/>
<path d="M40.7147 74.2972C41.9982 76.1047 43.1668 78.6979 44.1655 80.7051C44.6879 81.7552 45.3015 83.1977 46.0136 84.0969C46.2144 83.9704 46.3157 83.853 46.481 83.6861C46.9968 83.7227 49.8642 85.6369 50.6598 85.8549C50.7509 85.88 51.9237 86.466 52.0362 86.5346C53.6365 87.1465 55.2117 87.9375 56.7846 88.6027C58.258 89.2261 59.7059 89.6795 61.1765 90.3706C60.4851 90.5261 59.7963 90.6922 59.1103 90.8705C58.3255 91.0816 57.5633 91.3216 56.7874 91.5617C54.7843 90.9947 53.0507 89.8845 51.1179 89.1643C49.9426 88.7269 48.9608 88.9853 47.7736 89.1986C45.2028 88.1127 45.4094 85.3946 41.7726 85.9013C41.1284 86.0736 40.7386 86.2275 40.1246 86.4721C39.4555 85.8251 38.6855 85.2262 38.0287 84.5617C36.9876 83.5093 36.061 82.3633 35.1289 81.2164C35.5427 80.8743 35.9463 80.5199 36.3391 80.1541C38.1849 78.4388 39.7667 76.6793 40.7147 74.2972Z" fill="#FDFDFB"/>
<path d="M36.3391 80.1541C37.1789 81.6073 39.7686 84.3941 41.0837 85.6163C41.2185 85.7413 41.5813 85.8465 41.7726 85.9013C41.1284 86.0736 40.7386 86.2275 40.1246 86.4721C39.4555 85.8251 38.6855 85.2262 38.0287 84.5617C36.9876 83.5093 36.061 82.3633 35.1289 81.2164C35.5427 80.8743 35.9463 80.5199 36.3391 80.1541Z" fill="var(--fill-0, #DBDBE7)"/>
<path d="M52.0362 86.5346C53.6365 87.1465 55.2117 87.9375 56.7846 88.6027C58.258 89.2261 59.7059 89.6795 61.1765 90.3706C60.4851 90.5261 59.7963 90.6922 59.1103 90.8705C59.0851 90.0567 58.9156 90.3836 58.249 90.1032C56.14 89.2169 53.5377 88.096 51.7895 86.6336L51.7912 86.5636L51.9955 86.6481L52.0362 86.5346Z" fill="var(--fill-0, #DBDBE7)"/>
<path d="M46.481 83.6861C46.5252 83.9902 46.5922 84.2119 46.4903 84.4946L46.3741 84.4985C46.2058 84.3369 46.1517 84.2836 46.0136 84.0969C46.2144 83.9704 46.3157 83.853 46.481 83.6861Z" fill="#753616"/>
<path d="M14.1003 66.3244L14.7712 67.0279C16.1355 68.6539 17.2934 70.1913 18.7516 71.777C19.8693 72.9925 20.9412 74.3749 22.0656 75.6262C20.4147 78.0708 18.4933 80.2753 16.7252 82.6124L12.4515 77.6692C11.4747 76.5406 10.6375 75.4745 9.56902 74.429L9.04889 73.9116C10.7497 71.3939 12.4336 68.8648 14.1003 66.3244Z" fill="#F05243"/>
<path d="M14.1003 66.3244L14.7712 67.0279C14.5443 67.5105 13.8035 68.3518 13.4677 68.8614C12.5846 70.2012 11.7174 71.5466 10.7748 72.8466C10.4196 73.3363 9.99715 74.0183 9.56902 74.429L9.04889 73.9116C10.7497 71.3939 12.4336 68.8648 14.1003 66.3244Z" fill="#F68C76"/>
<path d="M27.438 70.6205C27.5259 70.7179 27.6214 71.4081 27.6528 71.5841C28.0514 73.8148 29.4218 75.7321 30.9137 77.4215C30.3052 78.0403 28.9297 78.8899 28.1947 79.4744C26.5315 80.7958 24.7864 82.0219 23.067 83.2685C19.9327 85.5401 16.6493 88.1082 13.4237 90.2205C12.6527 90.7669 11.8903 91.3247 11.0797 91.8101C13.8327 88.4046 16.5214 84.948 19.1447 81.442C19.8418 80.523 20.4901 79.5636 21.2012 78.6469C21.7053 77.9968 22.2493 77.3758 22.7455 76.7311L25.8613 72.6058C26.3152 72.012 26.9402 71.1542 27.438 70.6205Z" fill="#E0C18A"/>
<path d="M43.5357 76.8797C45.7846 78.0631 48.294 79.7792 50.6424 80.9284C53.1722 82.1697 55.7452 83.3204 58.3565 84.3781C59.6805 84.9252 60.9414 85.0494 62.044 86.0271C62.8854 86.7731 63.8715 87.4711 64.7872 88.115C65.2033 88.4168 65.7055 88.7612 66.0904 89.0904C64.7382 89.4425 63.3284 89.825 61.9638 90.1062C61.3526 89.873 60.6279 89.6056 60.0697 89.2741C59.6203 89.0996 59.0638 88.9053 58.6343 88.7018C54.8851 86.927 51.0992 85.2285 47.5234 83.1116C47.1448 82.8875 46.1324 82.4227 45.8819 82.0805C45.4229 81.4549 44.9366 79.8897 44.6038 79.1727C44.2221 78.3489 43.8988 77.641 43.5357 76.8797Z" fill="#FDFDFB"/>
<path d="M64.7872 88.115C65.2033 88.4168 65.7055 88.7612 66.0904 89.0904C64.7382 89.4425 63.3284 89.825 61.9638 90.1062C61.3526 89.873 60.6279 89.6056 60.0697 89.2741C60.7691 89.2672 61.6969 88.8771 62.4195 88.7292C63.1221 88.5852 64.2801 88.5822 64.7872 88.115Z" fill="#DBDAE7"/>
<path d="M43.863 27.6815L43.9748 27.6948C44.7419 27.7828 45.8618 27.7678 46.6647 27.7418C50.9621 27.6026 50.2619 33.7172 47.8472 35.5427C47.6354 35.7028 47.3951 35.8601 47.1701 36.0099C46.9902 36.2241 45.2277 37.283 44.8394 37.5359C42.4981 39.0606 40.1897 40.6454 37.8144 42.1149C37.0475 42.5894 36.3388 43.1011 35.54 43.5264C37.5059 39.9879 39.4916 36.4779 42.1236 33.3655C43.8037 31.3788 45.4211 29.4905 48.1723 29.2899L47.871 29.0901C47.3695 28.4222 45.126 28.2227 44.3245 28.1959C44.2002 27.9603 44.0632 27.865 43.863 27.6815Z" fill="#B73526"/>
<path d="M43.863 27.6815L43.9748 27.6948C44.7419 27.7828 45.8618 27.7678 46.6647 27.7418C50.9621 27.6026 50.2619 33.7172 47.8472 35.5427C47.6354 35.7028 47.3951 35.8601 47.1701 36.0099C47.1321 35.9791 47.0741 35.893 47.0413 35.8493C47.0724 35.5982 47.6008 34.6301 47.7632 34.3584C48.2992 33.462 49.8086 29.8547 48.1723 29.2899L47.871 29.0901C47.3695 28.4222 45.126 28.2227 44.3245 28.1959C44.2002 27.9603 44.0632 27.865 43.863 27.6815Z" fill="#E55644"/>
<path d="M45.6365 54.6439C45.6792 54.7707 45.3279 55.0618 45.2182 55.1861C43.4925 57.1395 41.9836 59.6797 41.3788 62.2269C41.2128 62.9263 41.3169 64.0235 41.0522 64.6375C40.2634 66.4669 39.6761 67.4528 39.4841 69.4854C38.974 69.0923 38.6375 68.9343 38.0484 68.6979L37.2534 68.8752C36.2251 67.829 35.6646 67.3536 34.3662 66.6279C33.0918 66.0233 32.5742 65.7741 31.1592 65.649C31.5733 65.101 32.4515 63.7006 32.9105 63.3118C33.8509 62.515 35.2669 61.7334 36.321 61.0141L42.4199 56.88C43.5396 56.1134 44.4537 55.3839 45.6365 54.6439Z" fill="#E0C18A"/>
<path d="M28.6923 69.1497C28.7977 68.8432 28.9766 68.2668 29.159 68.0152C31.2277 65.1621 35.1085 68.5169 36.6971 70.1544C36.1277 71.5693 34.9048 73.8636 33.7053 74.7666C33.3508 75.1827 32.3753 76.4004 31.9632 76.6305C31.6891 76.4629 31.2208 75.681 30.9813 75.3938C29.5551 73.6823 28.4746 71.4235 28.6923 69.1497Z" fill="#945020"/>
<path d="M28.6923 69.1497C28.9491 69.4419 29.1146 69.7505 29.2912 70.0925C30.0554 71.5722 30.8788 73.0429 32.0986 74.2027C32.5695 74.6508 33.0666 75.1431 33.7053 74.7666C33.3508 75.1827 32.3753 76.4004 31.9632 76.6305C31.6891 76.4629 31.2208 75.681 30.9813 75.3938C29.5551 73.6823 28.4746 71.4235 28.6923 69.1497Z" fill="#753616"/>
<path d="M7.83417 64.437C7.85972 64.6814 7.82406 64.8094 7.95667 64.9482C10.3463 60.8137 15.157 58.2979 19.4784 56.5756C18.7646 57.8216 18.1401 58.4522 17.4337 59.5433C16.2363 61.3927 15.0472 63.1632 13.7472 64.9481C13.6709 65.053 12.6902 66.4925 12.6977 66.4848C12.2359 67.1697 11.8714 67.4672 11.0181 67.6238C9.84301 67.8395 8.66624 67.7819 7.70239 67.0073C8.36777 67.2274 8.9641 67.5758 9.64461 67.5363L9.71313 67.4266C9.52743 67.0876 9.17307 67.2307 8.85049 67.0864L8.8479 66.9444C7.83272 66.5601 7.53874 65.395 7.83417 64.437Z" fill="#B73526"/>
<path d="M8.8479 66.9444C10.5457 67.482 11.8502 66.469 12.6977 66.4848C12.2359 67.1697 11.8714 67.4672 11.0181 67.6238C9.84301 67.8395 8.66624 67.7819 7.70239 67.0073C8.36777 67.2274 8.9641 67.5758 9.64461 67.5363L9.71313 67.4266C9.52743 67.0876 9.17307 67.2307 8.85049 67.0864L8.8479 66.9444Z" fill="#CE3D30"/>
<path d="M61.8021 96.3114C64.3365 94.9039 64.4887 96.1514 66.9334 95.5311C67.6592 95.3467 68.772 94.6288 69.4763 94.2463C71.2398 93.2884 73.368 92.0326 75.3953 91.8863C76.8842 91.7789 77.4903 92.326 78.8241 92.7801C79.4758 93.0027 80.2522 93.0667 80.9358 93.1299L80.9563 93.2358L80.7754 93.3021C78.437 93.7936 76.374 94.8826 74.1231 95.6652L74.1147 96.127L73.0273 96.3175C71.4681 96.6314 68.8342 97.1991 67.3379 97.318C66.5212 97.3828 62.6932 96.5796 61.8021 96.3114Z" fill="#FDFDFB"/>
<path d="M73.0273 96.3175C73.3056 95.8687 73.6067 95.8412 74.1231 95.6652L74.1147 96.127L73.0273 96.3175Z" fill="#D5D0B8"/>
<path d="M38.7534 88.051C40.6078 87.6868 42.5228 86.3243 43.9308 87.3903C45.0806 88.2613 45.5213 89.367 46.9277 90.0856C47.2587 90.1946 47.5599 90.2982 47.9002 90.3798C46.6962 90.7981 46.2744 90.946 45.1752 91.6424C45.9112 92.2978 45.5271 92.1675 45.7678 92.883C45.1109 92.7603 44.4549 92.6338 43.7997 92.5028C43.4963 92.4616 42.7566 92.2399 42.4285 92.1507C41.7008 92.028 40.9776 91.881 40.2602 91.708C39.6281 91.6074 38.9884 91.4641 38.3607 91.3331C38.4089 91.3277 38.4783 91.2942 38.528 91.2744C38.5268 90.9863 37.1764 88.6827 36.9825 87.7119C37.9757 88.1684 37.9171 87.9222 38.7534 88.051Z" fill="#FDFDFB"/>
<path d="M46.9277 90.0856C47.2587 90.1946 47.5599 90.2982 47.9002 90.3798C46.6962 90.7981 46.2744 90.946 45.1752 91.6424C45.9112 92.2978 45.5271 92.1675 45.7678 92.883C45.1109 92.7603 44.4549 92.6338 43.7997 92.5028C43.4963 92.4616 42.7566 92.2399 42.4285 92.1507C42.7699 92.0951 43.208 91.8916 43.4685 91.676C43.9376 91.2881 46.7288 90.4384 46.9277 90.0856Z" fill="#BFB8A6"/>
<path d="M43.7997 92.5028L43.8951 92.2422C44.0902 92.0684 44.881 91.7728 45.1752 91.6424C45.9112 92.2978 45.5271 92.1675 45.7678 92.883C45.1109 92.7603 44.4549 92.6338 43.7997 92.5028Z" fill="#D5D0B8"/>
<path d="M36.9825 87.7119C37.9757 88.1684 37.9171 87.9222 38.7534 88.051C38.4036 88.1447 38.0814 88.131 37.7185 88.1394C38.2339 89.0737 39.5593 90.8423 40.2602 91.708C39.6281 91.6074 38.9884 91.4641 38.3607 91.3331C38.4089 91.3277 38.4783 91.2942 38.528 91.2744C38.5268 90.9863 37.1764 88.6827 36.9825 87.7119Z" fill="#D5D0B8"/>
<path d="M81.6856 93.2427C83.2392 92.6773 84.5684 91.8451 86.0558 91.1159C88.9249 89.71 89.3036 90.2068 92.01 91.1517L92.2959 91.3399C92.3119 91.9297 91.2511 92.7001 90.918 93.2694C85.3037 94.1404 79.7016 95.0929 74.1147 96.127L74.1231 95.6652C76.374 94.8826 78.437 93.7936 80.7754 93.3021L80.9563 93.2358L80.9358 93.1299L81.6856 93.2427Z" fill="#F3F2D6"/>
<path d="M80.9358 93.1299L81.6856 93.2427C81.1031 93.6344 80.8628 93.8036 80.1777 93.972L80.0567 93.9163C80.1366 93.6077 80.5221 93.4972 80.7754 93.3021L80.9563 93.2358L80.9358 93.1299Z" fill="#945020"/>
<path d="M28.0661 85.973C30.6228 86.2945 32.1129 85.3778 34.5126 85.515C35.6401 85.579 36.2784 86.7952 36.9825 87.7119C37.1764 88.6827 38.5268 90.9863 38.528 91.2744C38.4783 91.2942 38.4089 91.3277 38.3607 91.3331C35.8525 90.7661 32.4878 90.0323 29.9684 89.6977C29.9523 87.8696 29.3067 87.1838 28.0661 85.973Z" fill="#FDFDFB"/>
<path d="M38.0756 69.9147C38.9079 70.5331 39.7262 71.317 40.2178 72.242C39.4938 75.0973 37.8259 77.2805 35.7177 79.2466C35.2886 79.6261 34.8279 79.9743 34.4005 80.3507C33.3166 81.3056 32.1873 79.3091 31.6654 78.4053C32.4691 77.7888 33.0606 77.2653 33.8045 76.5833C35.8816 74.4519 37.1079 72.7974 38.0756 69.9147Z" fill="#FDFDFB"/>
<path d="M31.6654 78.4053C32.4691 77.7888 33.0606 77.2653 33.8045 76.5833C34.0692 77.2889 35.177 78.6941 35.7177 79.2466C35.2886 79.6261 34.8279 79.9743 34.4005 80.3507C33.3166 81.3056 32.1873 79.3091 31.6654 78.4053Z" fill="var(--fill-0, #DBDBE7)"/>
<path d="M47.9002 90.3798C50.243 89.6498 50.844 90.206 52.9929 91.2721C54.7361 92.137 56.5541 92.8922 58.4225 93.4332C58.0082 93.863 54.3031 94.0992 53.6173 94.5229C52.3595 94.2364 51.0221 94.0184 49.7509 93.7418C48.4272 93.4545 47.0948 93.1406 45.7678 92.883C45.5271 92.1675 45.9112 92.2978 45.1752 91.6424C46.2744 90.946 46.6962 90.7981 47.9002 90.3798Z" fill="#FDFDFB"/>
<path d="M99.3315 90.6587C101.29 89.0912 102.812 87.8765 105.451 87.9878C108.016 88.096 109.234 87.3012 111.288 85.9425C110.578 87.4437 110.26 88.1859 110.328 89.8898C108.187 90.3066 105.946 90.6274 103.789 90.9406C102.742 91.1304 101.018 91.5137 100.007 91.6447C99.5794 91.7164 99.1254 91.801 98.6988 91.8589L98.5505 91.801L98.5254 91.6897C98.6752 91.25 98.971 90.9399 99.3315 90.6587Z" fill="#FDFDFB"/>
<path d="M100.774 90.2304C101.524 90.2723 103.147 90.5688 103.789 90.9406C102.742 91.1304 101.018 91.5137 100.007 91.6447C100.352 90.8492 99.8493 90.9284 100.774 90.2304Z" fill="#D5D0B8"/>
<path d="M92.01 91.1517C93.8609 91.2393 94.654 90.0689 96.343 89.7023C97.438 89.4638 98.0745 89.9157 98.914 90.4803L99.3315 90.6587C98.971 90.9399 98.6752 91.25 98.5254 91.6897L98.5505 91.801L98.6988 91.8589C98.4957 91.897 98.3703 91.9206 98.1604 91.9351C95.781 92.4113 93.3187 92.9234 90.918 93.2694C91.2511 92.7001 92.3119 91.9297 92.2959 91.3399L92.01 91.1517Z" fill="#EEEDD8"/>
<path d="M98.914 90.4803L99.3315 90.6587C98.971 90.9399 98.6752 91.25 98.5254 91.6897L98.5505 91.801L98.6988 91.8589C98.4957 91.897 98.3703 91.9206 98.1604 91.9351C98.2479 91.346 98.5703 90.9498 98.914 90.4803Z" fill="#E0C18A"/>
<path d="M58.4225 93.4332C59.2884 93.5711 59.8931 93.5376 60.6316 93.6367C61.7049 93.6451 62.7602 93.9133 63.7073 94.4193C62.4121 94.6936 61.4186 95.1241 60.3504 95.9296C58.7576 95.6393 56.7502 95.2819 55.1984 94.8491C54.9273 94.8544 53.932 94.5984 53.6173 94.5229C54.3031 94.0992 58.0082 93.863 58.4225 93.4332Z" fill="#D5D0B8"/>
<path d="M58.4225 93.4332C59.2884 93.5711 59.8931 93.5376 60.6316 93.6367C59.8525 93.6595 59.4657 93.7098 58.7177 93.8516C58.1359 93.9621 55.5612 94.8018 55.1041 94.5366C55.5027 94.1998 56.5304 94.5625 57.0407 94.1762C57.0541 94.1655 57.1699 94.1335 57.1814 94.1297C57.2705 94.0169 57.3257 93.9781 57.4481 93.9026C57.0388 93.8371 54.8147 94.2951 54.5424 94.5762L55.16 94.7386L55.1984 94.8491C54.9273 94.8544 53.932 94.5984 53.6173 94.5229C54.3031 94.0992 58.0082 93.863 58.4225 93.4332Z" fill="#E0C18A"/>
<path d="M29.6726 45.8034C30.4155 45.7604 30.5636 45.9074 31.1235 46.3351C30.5572 46.795 29.7558 47.2672 29.1238 47.6829C28.2407 48.2762 27.3639 48.8785 26.4933 49.4898C26.1941 49.6933 25.9231 49.9293 25.5752 49.9332C24.8176 49.4055 26.6031 47.6341 27.0246 47.2839C27.8776 46.5752 28.5947 46.0691 29.6726 45.8034Z" fill="#F05243"/>
<path d="M67.1397 93.5368C67.5665 93.5071 68.0326 93.4957 68.4635 93.4766C67.615 93.9605 66.8393 94.4505 65.8526 94.5435C65.4685 94.3225 64.941 93.9491 64.6345 93.6329L67.1397 93.5368Z" fill="var(--fill-0, #DBDBE7)"/>
<path d="M36.9884 85.7177C37.5727 85.7718 38.3692 86.4233 38.7354 86.8447C37.8576 86.9514 37.2556 86.5643 36.9884 85.7177Z" fill="#D5D0B8"/>
<path d="M106.928 86.3304L107.11 86.3502L107.162 86.5171L107.048 86.6679C106.696 86.8135 106.419 86.8013 106.038 86.8226L105.932 86.8272L105.968 86.735C106.324 86.5247 106.537 86.4637 106.928 86.3304Z" fill="#FDFDFB"/>
<path d="M28.4361 89.0081C28.7184 89.0218 28.618 88.9632 28.7752 89.1354L28.7452 89.2992C28.4676 89.4707 28.4511 89.4006 28.0687 89.3548C27.9007 89.3373 27.9131 89.3289 27.7497 89.2718C27.8696 89.1354 28.2419 89.063 28.4361 89.0081Z" fill="#D5D0B8"/>
<path d="M111.272 89.4021C111.724 89.3305 112.038 89.3472 112.428 89.588C111.946 89.6726 111.527 89.8631 111.272 89.4021Z" fill="#E0C18A"/>
<path d="M99.4569 88.8626C99.6052 88.8405 99.5946 88.842 99.7383 88.8877C99.6227 89.0744 99.3946 89.1674 99.1946 89.2764C99.0014 89.2131 98.9353 89.2078 98.7916 89.0599C98.9254 88.9197 99.2486 88.8992 99.4569 88.8626Z" fill="var(--fill-0, #DBDBE7)"/>
</g>
</svg>
