<svg width="350" height="213" viewBox="0 0 350 213" fill="none" xmlns="http://www.w3.org/2000/svg">
<path d="M198.948 50.0254C202.023 49.8134 205.918 50.9631 208.703 52.2642C213.382 54.45 216.07 57.1795 217.864 62.0083C218.359 62.0324 218.854 62.0923 219.341 62.1872C222.778 62.8736 225.813 65.1117 227.738 67.9809C232.659 75.3181 229.28 85.6269 220.228 87.1623C218.302 87.4888 216.836 87.2095 214.976 86.8172C214.631 88.5351 214.101 90.2511 213.702 91.9626C213.21 94.0743 212.511 98.927 211.493 100.576C211.883 101.043 212.391 101.419 212.812 101.85C213.601 102.66 214.508 103.764 215.083 104.725C215.668 105.694 216.083 106.757 216.307 107.868C216.397 108.296 216.551 109.183 216.709 109.544C217.103 110.444 217.845 111.285 218.378 112.144C219.68 114.247 219.749 116.524 219.638 118.92C219.611 119.505 219.521 120.796 219.575 121.337C219.752 123.061 220.156 124.335 219.978 126.119C219.816 127.735 219.254 128.927 218.885 130.478C219.774 132.261 218.444 134.727 217.511 136.272C218.379 135.85 220.87 134.07 221.726 134.843C221.981 135.552 220.964 137.166 220.636 138.102C221.949 138.601 223.368 138.613 224.64 139.168C224.782 139.231 224.896 139.359 224.91 139.519C225.018 140.685 224.971 141.891 224.974 143.065L224.988 150.68L224.986 179.607C224.979 180.829 225.139 188.211 224.791 188.691C224.498 188.893 224.202 189.018 223.86 189.112C218.366 190.62 212.844 191.954 207.316 193.3L191.035 197.425C187.131 198.409 180.51 200.181 176.265 200.998C176.012 201.047 172.975 200.09 172.4 199.916L162.897 197.022L149.021 192.861C146.114 192.007 143.184 191.228 140.293 190.323C139.194 189.979 133.865 188.495 133.446 188.039C133.311 187.891 133.32 187.617 133.311 187.42C133.197 184.944 133.309 182.421 133.31 179.939L133.269 148.341C133.269 147.134 133.145 140.297 133.449 138.879C133.526 138.522 136.451 138.059 137.391 137.812C136.858 137.316 134.406 135.551 135.544 134.955C136.127 134.65 138.407 134.982 139.256 134.877C140.586 134.712 141.842 134.264 143.166 134.26C143.949 134.258 144.623 134.899 145.465 134.763C145.482 134.525 143.485 132.201 143.17 131.794C141.403 131.953 140.616 130.36 139.692 129.077C138.783 129.628 137.988 130.327 137.137 130.966L132.088 134.742C127.787 137.96 123.226 140.977 118.851 144.1C118.522 144.335 117.091 145.382 116.784 145.081C114.237 142.576 112.262 139.449 109.839 136.805C109.526 136.464 109.127 135.953 109 135.494C108.987 134.711 111.265 131.834 111.566 131.387L120.231 118.773C119.695 118.836 119.003 118.907 118.469 118.88C117.289 118.821 116.184 118.283 115.408 117.391C114.184 116.012 114.225 114.434 114.396 112.695C114.446 112.181 114.599 111.44 114.438 110.956C113.858 109.259 112.651 108.362 112.794 106.409C113.051 102.924 116.636 101.548 119.501 100.672C124.05 99.2817 128.654 98.9416 133.377 99.2627C134.111 97.0673 136.467 95.1762 138.684 94.6856C138.915 89.621 139.917 84.7294 141.793 79.9996C142.623 77.9055 144.102 75.19 146.272 74.3505C148.037 73.6129 150.361 74.2878 151.711 75.5619C153.472 77.223 154.407 76.4257 156.542 76.6694C157.977 76.8332 159.197 77.8839 159.679 79.272C160.295 81.0435 159.906 82.3433 159.155 83.9764C160.332 83.4903 161.362 82.5686 162.416 81.8623C163.345 81.2402 164.312 80.6754 165.244 80.0563C166.28 79.3679 173.072 74.5403 173.685 74.5985C174.456 74.6718 176.986 77.5312 177.629 78.17C177.832 77.4249 178.096 76.6354 178.331 75.8932C174.893 74.8887 172.051 71.9805 170.872 68.6169C168.621 62.1959 172.732 55.4555 178.865 53.2614C181.849 52.1939 185.826 52.5141 188.648 53.9101C191.898 51.4219 194.878 50.3291 198.948 50.0254Z" fill="#571C08"/>
<path d="M174.754 90.8926C175.37 91.3918 175.908 91.7835 176.554 92.2417C179.496 94.0964 182.66 95.5732 185.97 96.6375C187.994 97.3649 190.045 97.9481 192.101 98.5743C192.947 98.8319 193.996 98.9998 194.823 99.2743C198.862 100.22 203.232 100.85 207.378 101.021C208.273 101.058 209.149 100.987 210.032 100.982C211.889 102.853 214.053 104.916 214.769 107.52C215.137 108.857 214.954 110.284 216.058 111.359C219.028 114.174 218.054 117.958 218.212 121.574C218.248 122.38 218.474 123.316 218.59 124.13C218.926 126.478 217.939 128.526 217.391 130.771C216.448 131.266 213.126 132.336 212.076 132.419C208.405 133.349 204.636 133.814 200.903 134.421C199.396 134.667 197.757 134.812 196.23 134.946L189.646 135.498C187.674 135.677 186.461 135.752 184.538 136.325C181.931 137.102 179.312 137.918 176.7 138.671C174.663 137.299 172.062 135.084 170.132 133.927C169.176 133.701 163.883 131.762 163.164 131.258C160.893 130.156 158.653 128.989 156.448 127.76C155.656 127.319 154.4 126.686 153.783 126.107C152.677 125.703 151.434 124.788 150.761 123.778C150.303 122.983 150.399 122.459 150.205 121.651C149.731 119.671 149.816 118.171 150.766 116.351C151.03 115.845 151.375 115.252 151.611 114.728C151.871 113.709 151.678 112.658 152.035 111.646C152.938 109.083 154.317 107.175 156.165 105.238C156.48 104.908 157.072 102.852 157.489 102.196C158.73 100.245 160.483 98.7236 162.252 97.2592C162.505 97.0936 162.785 96.8515 163.045 96.7107C164.509 95.9197 165.728 94.6134 167.083 93.7466C168.001 93.1591 169.573 93.054 170.575 92.6101C172.025 91.9672 173.224 91.3326 174.754 90.8926Z" fill="#F9C560"/>
<path d="M194.823 99.2743C198.862 100.22 203.232 100.85 207.378 101.021C208.273 101.058 209.149 100.987 210.032 100.982C211.889 102.853 214.053 104.916 214.769 107.52C215.137 108.857 214.954 110.284 216.058 111.359C219.028 114.174 218.054 117.958 218.212 121.574C218.248 122.38 218.474 123.316 218.59 124.13C218.926 126.478 217.939 128.526 217.391 130.771C216.448 131.266 213.126 132.336 212.076 132.419C211.633 132.337 211.945 132.48 211.57 132.381C212.138 130.48 214.216 124.382 213.642 122.66C214.562 122.108 215.123 121.39 215.456 120.361C215.964 118.767 215.811 117.036 215.032 115.556C214.309 114.179 213.489 113.427 212.029 112.985C212.249 109.867 210.576 107.474 209.052 104.902C208.61 104.153 207.306 102.17 206.709 101.526C206.5 101.302 204.907 101.4 204.468 101.413C201.41 101.502 198.387 101.337 195.351 100.956C194.766 100.883 193.451 100.766 192.924 100.639L192.812 100.611C193.737 100.333 194.136 99.936 194.823 99.2743Z" fill="#EFAC4A"/>
<path d="M174.754 90.8926C175.37 91.3918 175.908 91.7835 176.554 92.2417C176.236 93.0816 174.54 92.9699 173.761 93.3266C172.171 94.0541 170.802 94.6425 169.073 94.9055C168.55 94.9849 167.245 96.1607 166.832 96.52C165.875 97.5354 164.653 98.2803 163.651 99.1958C161.964 100.738 160.227 102.35 158.796 104.135C157.708 105.686 157.42 107.026 156.143 108.776C155.284 109.503 155.039 109.435 154.72 110.622C154.606 110.938 154.439 111.138 154.26 111.404C152.96 113.327 152.663 115.342 152.282 117.574C152.101 118.636 151.789 119.804 151.68 120.894C151.578 121.666 151.618 123.191 151.453 123.873L150.761 123.778C150.303 122.983 150.399 122.459 150.205 121.651C149.731 119.671 149.816 118.171 150.766 116.351C151.03 115.845 151.375 115.252 151.611 114.728C151.871 113.709 151.678 112.658 152.035 111.646C152.938 109.083 154.317 107.175 156.165 105.238C156.48 104.908 157.072 102.852 157.489 102.196C158.73 100.245 160.483 98.7236 162.252 97.2592C162.505 97.0936 162.785 96.8515 163.045 96.7107C164.509 95.9197 165.728 94.6134 167.083 93.7466C168.001 93.1591 169.573 93.054 170.575 92.6101C172.025 91.9672 173.224 91.3326 174.754 90.8926Z" fill="#FDECBF"/>
<path d="M213.642 122.66C211.565 123.457 208.162 122.183 207.09 120.263C205.008 116.536 207.49 111.97 212.029 112.985C213.489 113.427 214.309 114.179 215.032 115.556C215.811 117.036 215.964 118.767 215.456 120.361C215.123 121.39 214.562 122.108 213.642 122.66Z" fill="#945020"/>
<path d="M185.97 96.6375C187.994 97.3649 190.045 97.9481 192.101 98.5743C192.947 98.8319 193.996 98.9998 194.823 99.2743C194.136 99.936 193.737 100.333 192.812 100.611C190.451 101.224 188.311 100.662 186.874 98.5899C186.453 97.9843 186.227 97.3213 185.97 96.6375Z" fill="#945020"/>
<path d="M163.164 131.258C164.017 130.484 164.699 129.713 165.969 129.791C167.219 129.869 168.422 130.972 169.215 131.863C169.794 132.514 169.957 133.105 170.132 133.927C169.176 133.701 163.883 131.762 163.164 131.258Z" fill="#945020"/>
<path d="M156.143 108.776C157.304 108.649 158.191 108.84 158.352 110.213C158.497 111.45 157.681 113.267 156.277 113.289C155.868 113.291 155.475 113.131 155.183 112.844C154.718 112.379 154.669 111.614 154.694 110.989C154.699 110.867 154.708 110.744 154.72 110.622C155.039 109.435 155.284 109.503 156.143 108.776Z" fill="#9D5920"/>
<path d="M150.761 123.778L151.453 123.873C152.935 124.159 153.255 124.822 153.783 126.107C152.677 125.703 151.434 124.788 150.761 123.778Z" fill="#945020"/>
<path d="M174.906 119.812C176.64 119.667 177.994 120.75 179.739 121.269C181.702 121.853 185.296 120.829 186.333 122.961C187.502 125.366 185.874 127.823 183.76 129.03C181.387 130.141 179.118 130.091 176.624 128.985C173.794 127.73 171.809 124.181 173.094 121.153C173.393 120.447 174.175 120.018 174.906 119.812Z" fill="#571C08"/>
<path d="M179.775 123.936C181.675 123.608 184.065 124.255 185.438 125.642C184.544 127.626 182.91 128.483 180.795 128.651C180.481 128.657 180.166 128.655 179.852 128.646C178.212 128.587 176.133 127.714 175.013 126.503C175.081 126.394 175.156 126.289 175.235 126.189C176.31 124.825 178.098 124.138 179.775 123.936Z" fill="#F68C76"/>
<path d="M170.429 104.613L170.34 104.62C167.977 104.781 166.197 103.713 166.087 101.197C166.04 99.9275 166.499 98.6915 167.362 97.7609C168.136 96.9196 169.218 96.4311 170.359 96.4086C171.774 96.3681 172.743 96.7944 173.751 97.7376C175.563 97.9184 176.591 99.5778 176.346 101.311C176.183 102.427 175.577 103.43 174.667 104.093C173.561 104.909 171.678 105.244 170.429 104.613Z" fill="#945020"/>
<path d="M173.751 97.7376C175.563 97.9184 176.591 99.5778 176.346 101.311C176.183 102.427 175.577 103.43 174.667 104.093C173.561 104.909 171.678 105.244 170.429 104.613C173.807 104.069 175.822 100.714 173.751 97.7376Z" fill="#EFAC4A"/>
<path d="M201.722 103.35C202.927 103.267 204.273 103.555 204.981 104.585C206.436 106.704 206.179 109.487 203.172 109.754C201.099 109.542 198.141 107.032 199.266 104.707C199.673 103.867 200.876 103.543 201.722 103.35Z" fill="#945020"/>
<path d="M192.336 116.013C194.007 115.784 195.8 116.457 197.113 117.643C198.061 118.501 199.529 121.458 198.539 122.701C197.421 123.764 196.711 122.721 196.552 121.602C196.42 120.674 196.09 120.049 195.559 119.389C194.123 117.951 192.297 117.811 190.734 119.15C190.224 119.588 189.678 120.517 188.997 120.66C188.756 120.712 188.502 120.664 188.296 120.526C187.382 119.91 187.566 119.049 188.201 118.308C189.3 117.029 190.645 116.183 192.336 116.013Z" fill="#571C08"/>
<path d="M168.377 110.832C169.529 110.711 170.959 111.146 171.932 111.756C173.148 112.532 174.004 113.763 174.311 115.175C174.457 115.829 174.472 117.263 173.531 117.358C172.057 117.508 172.154 115.633 171.582 114.714C171.212 114.119 171.117 113.983 170.516 113.524C169.155 112.719 167.513 112.765 166.415 114.02C165.866 114.649 165.597 115.646 164.705 115.776C164.094 115.935 163.44 115.292 163.451 114.678C163.479 113.119 165.451 111.59 166.816 111.131C167.366 110.947 167.844 110.883 168.377 110.832Z" fill="#571C08"/>
<path d="M195.843 124.229C199.331 123.899 201.381 128.558 197.249 129.241C195.672 129.295 193.76 128.615 193.451 126.856C193.354 126.325 193.473 125.777 193.781 125.334C194.285 124.621 195.039 124.386 195.843 124.229Z" fill="#EFAC4A"/>
<path d="M163.435 117.221C164.982 117.112 166.67 117.741 167.171 119.349C167.329 119.857 167.278 120.408 167.03 120.878C166.613 121.665 165.949 121.869 165.178 122.091C161.752 122.409 159.281 118.383 163.435 117.221Z" fill="#EFAC4A"/>
<path d="M188.159 55.0482C187.747 55.47 187.408 55.7802 187.185 56.3377C187.371 56.525 188.456 55.6351 188.636 55.48C193.092 51.6459 199.169 50.3207 204.779 52.1647C208.35 53.3387 211.487 54.8035 214.055 57.6787C215.683 59.6623 216.604 62.0173 217.468 64.4008C217.539 64.5959 217.615 64.6466 217.793 64.6897C217.991 64.4509 217.902 63.549 217.887 63.2128C219.105 63.3652 220.119 63.6917 221.264 64.1144C227.742 66.8529 230.517 74.4695 227.312 80.7576C224.813 85.1643 220.146 86.7231 215.332 85.5712C215.689 84.2262 216.024 82.8755 216.337 81.5194C216.364 81.3472 216.422 80.8814 216.61 80.8411C217.109 80.734 219.309 80.4986 219.679 80.6245L220.162 80.5132C221.022 80.3187 221.815 80.0001 222.371 79.2926C222.037 79.297 220.969 79.6055 220.587 79.7006C219.117 80.0684 217.588 80.1246 216.097 79.8657C213.096 79.3589 210.677 77.7756 208.55 75.665C207.712 74.8323 207.127 73.9565 206.447 72.9992L207.756 72.5317C208.474 72.2791 210.798 71.3063 211.008 70.5468L210.866 70.5042C210.277 70.6686 208.985 71.3238 208.227 71.5834C205.227 72.609 201.521 73.0807 198.43 72.345C195.112 71.5553 191.225 69.6006 189.408 66.6176C188.915 65.8964 188.504 65.2473 187.898 64.6134C188.842 66.7946 188.765 67.2435 190.321 69.1199C187.369 70.3527 183.601 70.7881 180.588 69.556C179.831 69.2484 179.12 68.8353 178.477 68.3289C178.213 68.1172 176.726 66.587 176.636 66.5588C176.243 67.3012 178.727 69.5526 179.349 70.0196L179.438 70.1083C179.4 70.4082 179.35 70.6068 179.422 70.9C179.662 70.8836 179.79 70.8493 180.003 70.9582C179.47 72.3178 179.135 73.2853 178.701 74.7001L178.323 74.5348C175.227 73.1728 173.531 71.589 172.273 68.3499C171.263 66.0273 171.339 63.4328 172.333 61.1137C173.583 58.115 175.994 55.7528 179.013 54.5672C182.037 53.3743 185.245 53.7636 188.159 55.0482Z" fill="#FDFDFB"/>
<path d="M219.679 80.6245L220.162 80.5132C220.242 80.9343 220.205 80.8832 220.633 81.1807C221.568 81.8303 223.414 81.7258 224.488 81.5309C225.344 81.3756 226.509 80.7898 227.312 80.7576C224.813 85.1643 220.146 86.7231 215.332 85.5712C215.689 84.2262 216.024 82.8755 216.337 81.5194C216.364 81.3472 216.422 80.8814 216.61 80.8411C217.109 80.734 219.309 80.4986 219.679 80.6245Z" fill="#DBDBE7"/>
<path d="M216.337 81.5194C216.364 81.3472 216.422 80.8814 216.61 80.8411C217.109 80.734 219.309 80.4986 219.679 80.6245C218.665 80.8814 217.905 80.8686 216.866 80.9029C217.975 82.0223 218.983 82.1158 220.25 82.9497C217.871 82.8661 217.973 82.1464 216.337 81.5194Z" fill="#773918"/>
<path d="M206.447 72.9992L207.756 72.5317C207.962 73.1445 208.468 73.4703 208.925 73.8996C211.052 75.9031 214.487 77.8413 217.339 78.4811C218.369 78.7035 219.411 78.8647 220.46 78.9638C220.92 79.0089 222.081 78.9996 222.371 79.2926C222.037 79.297 220.969 79.6055 220.587 79.7006C219.117 80.0684 217.588 80.1246 216.097 79.8657C213.096 79.3589 210.677 77.7756 208.55 75.665C207.712 74.8323 207.127 73.9565 206.447 72.9992Z" fill="#DBDBE7"/>
<path d="M189.408 66.6176C189.733 66.6286 192.051 68.4731 192.574 68.7807C196.507 71.0957 200.928 71.5879 205.408 71.1731C206.903 71.0346 209.622 70.1124 210.866 70.5042C210.277 70.6686 208.985 71.3238 208.227 71.5834C205.227 72.609 201.521 73.0807 198.43 72.345C195.112 71.5553 191.225 69.6006 189.408 66.6176Z" fill="#DBDBE7"/>
<path d="M214.055 57.6787C215.683 59.6623 216.604 62.0173 217.468 64.4008C217.539 64.5959 217.615 64.6466 217.793 64.6897C217.991 64.4509 217.902 63.549 217.887 63.2128C219.105 63.3652 220.119 63.6917 221.264 64.1144C220.927 64.6181 221.292 65.2395 221.499 65.743C220.058 65.4032 218.913 65.1556 217.435 65.0336C216.783 64.9798 214.978 65.0434 214.506 64.9172C214.321 64.6459 214.651 63.3965 214.738 63.1089C215.46 60.7338 214.003 59.4912 214.055 57.6787Z" fill="#DBDBE7"/>
<path d="M172.273 68.3499C173.295 68.7268 175.279 71.5258 176.936 71.0517C177.145 70.8488 177.079 70.8749 177.131 70.5072C177.725 70.7471 178.78 71.1287 179.422 70.9C179.662 70.8836 179.79 70.8493 180.003 70.9582C179.47 72.3178 179.135 73.2853 178.701 74.7001L178.323 74.5348C175.227 73.1728 173.531 71.589 172.273 68.3499Z" fill="#DBDBE7"/>
<path d="M179.349 70.0196L179.438 70.1083C179.4 70.4082 179.35 70.6068 179.422 70.9C178.78 71.1287 177.725 70.7471 177.131 70.5072C176.923 70.3897 176.905 70.3928 176.74 70.2084C177.03 69.8949 178.478 70.3353 179.349 70.0196Z" fill="#753616"/>
<path d="M176.548 148.517C182.312 147.67 188.057 146.565 193.788 145.53C194.424 145.415 195.087 145.29 195.723 145.204L195.798 195.038C190.537 196.082 185.223 197.773 179.983 198.952C179.195 199.129 176.611 199.868 175.995 199.796C176.121 199.39 176.211 188.61 176.042 188.083C176.215 187.964 176.354 187.922 176.365 187.689C176.423 186.47 176.443 185.166 176.454 183.951L176.489 176.097L176.548 148.517Z" fill="#E0C18A"/>
<path d="M158.738 144.976C164.364 146.044 169.969 147.508 175.675 148.539L175.793 177.936L175.845 183.981C175.853 184.926 175.824 187.258 176.042 188.083C176.211 188.61 176.121 199.39 175.995 199.796C174.39 199.268 172.786 198.815 171.177 198.313C167.05 197.007 162.902 195.765 158.736 194.589L158.738 144.976Z" fill="#FDECBF"/>
<path d="M223.466 140.312L223.649 140.303C223.841 140.544 223.754 143.864 223.755 144.422L223.748 154.569L223.769 187.951C218.518 189.246 213.208 190.71 207.973 191.938L207.816 191.913C207.747 191.671 207.796 188.957 207.798 188.435L207.802 180.729C207.837 168.201 207.808 155.671 207.715 143.143C209.828 142.87 212.01 142.394 214.108 142.001C217.184 141.425 220.41 140.944 223.466 140.312Z" fill="#E0C18A"/>
<path d="M134.407 139.885C138.714 140.879 143.29 141.738 147.665 142.689L147.712 191.33C143.354 190.064 138.8 188.509 134.427 187.358C134.535 183.063 134.419 178.688 134.452 174.384C134.54 162.914 134.289 151.345 134.407 139.885Z" fill="#FDECBF"/>
<path d="M190.873 69.7639C194.56 72.7381 198.657 74.1246 203.408 73.619C204.144 73.5356 204.876 73.4185 205.602 73.268C207.543 76.8244 210.421 79.3374 214.346 80.4869C214.736 80.6043 215.13 80.7039 215.529 80.7854C214.388 84.3207 213.384 87.8993 212.521 91.5129C211.531 91.4428 210.544 91.3592 209.557 91.2621C209.853 90.1789 211.142 85.4106 211.003 84.5566C210.762 84.7935 209.136 90.2503 208.887 91.0866C207.325 90.9551 205.989 90.7188 204.443 90.4312C204.047 90.4713 203.863 90.3713 203.497 90.2321C202.917 89.9816 199.644 89.4501 198.831 89.2924C198.667 89.2584 198.59 89.2288 198.433 89.1741C198.185 88.6268 200.417 82.4683 200.231 81.1427L199.961 81.1601C199.577 82.5034 199.164 83.886 198.834 85.2397C198.473 86.5007 198.106 87.7598 197.731 89.0168L195.79 88.5318C194.21 88.1974 192.59 87.7403 191.019 87.337L190.578 87.1708C190.215 87.0989 189.48 86.8547 189.149 86.6832C188.134 86.3752 186.154 85.6991 185.207 85.4839L185.11 85.5497C184.798 85.4452 184.766 85.499 184.653 85.288C184.332 85.0419 181.65 84.0499 180.978 83.7372C181.206 82.6228 182.433 78.8668 182.359 78.2556L182.106 78.1594C181.973 78.7859 181.619 79.808 181.42 80.4402C181.1 81.46 180.802 82.487 180.528 83.5203C179.527 83.0183 178.667 82.9031 177.744 82.1492C178.662 78.7216 179.89 75.5489 180.788 71.9773L181.094 70.741C183.988 71.7576 187.166 71.5849 189.934 70.2605C190.248 70.1103 190.569 69.9325 190.873 69.7639Z" fill="#FDFDFB"/>
<path d="M190.873 69.7639C194.56 72.7381 198.657 74.1246 203.408 73.619C204.144 73.5356 204.876 73.4185 205.602 73.268C207.543 76.8244 210.421 79.3374 214.346 80.4869C214.736 80.6043 215.13 80.7039 215.529 80.7854C214.388 84.3207 213.384 87.8993 212.521 91.5129C211.531 91.4428 210.544 91.3592 209.557 91.2621C209.853 90.1789 211.142 85.4106 211.003 84.5566C210.762 84.7935 209.136 90.2503 208.887 91.0866C207.325 90.9551 205.989 90.7188 204.443 90.4312C204.047 90.4713 203.863 90.3713 203.497 90.2321C202.917 89.9816 199.644 89.4501 198.831 89.2924C199.427 88.4808 203.068 89.8439 203.686 88.3565C205.024 85.1387 206.039 81.8136 207.098 78.4965C206.687 77.8857 206.133 77.2823 205.709 76.6594C205.257 75.9948 204.902 75.3254 204.449 74.6616C203.676 74.6881 202.131 74.8208 201.379 74.751C198.823 74.5135 195.889 73.9251 193.642 72.642C193.185 72.4593 191.357 70.9875 190.994 71.0621C189.35 71.4012 187.378 72.0804 185.661 72.2513C183.813 72.4354 182.514 72.0705 180.788 71.9773L181.094 70.741C183.988 71.7576 187.166 71.5849 189.934 70.2605C190.248 70.1103 190.569 69.9325 190.873 69.7639Z" fill="#DBDBE7"/>
<path d="M207.255 78.859C208.052 79.5909 209.036 80.3195 209.907 80.9778C209.45 82.9696 208.719 85.1056 207.966 86.9983C207.579 87.9702 207.478 88.8398 206.866 89.7298C206.298 89.7587 205.04 89.9367 204.693 89.4797C204.965 88.6803 206.044 85.0324 205.92 84.3389C205.773 84.0375 206.184 83.0373 206.298 82.6574C206.671 81.4054 206.99 80.1382 207.255 78.859Z" fill="#FDFDFB"/>
<path d="M205.92 84.3389C206.044 85.0324 204.965 88.6803 204.693 89.4797C204.618 89.684 204.365 90.2589 204.443 90.4312C204.047 90.4713 203.863 90.3713 203.497 90.2321C203.571 90.225 203.659 90.2167 203.763 90.2069C204.531 89.3617 205.256 84.9349 205.92 84.3389Z" fill="#753616"/>
<path d="M189.149 86.6832L189.186 86.5981L189.141 86.5664C189.372 86.274 189.846 86.424 190.122 85.8452C190.8 84.4242 191.491 82.8966 192.127 81.4613C192.13 81.8355 192.124 82.2049 192.165 82.5766C191.451 84.046 190.987 85.5921 190.578 87.1708C190.215 87.0989 189.48 86.8547 189.149 86.6832Z" fill="#DBDBE7"/>
<path d="M196.84 88.2272C197.098 87.9062 197.231 87.7287 197.442 87.3857C197.764 86.862 198.184 85.4512 198.62 85.1334L198.834 85.2397C198.473 86.5007 198.106 87.7598 197.731 89.0168L195.79 88.5318C196.252 88.353 196.341 88.3107 196.84 88.2272Z" fill="#DBDBE7"/>
<path d="M185.026 84.6158C185.33 83.6699 186.138 80.2228 186.752 79.7755C186.823 81.0361 185.448 84.158 185.207 85.4839L185.11 85.5497C184.798 85.4452 184.766 85.499 184.653 85.288L184.734 85.2821C184.946 85.1138 184.938 84.9243 185.026 84.6158Z" fill="#753616"/>
<path d="M185.026 84.6158C184.969 84.3597 184.821 84.1797 184.853 83.8716C184.956 82.8735 185.616 80.2062 186.311 79.5532L186.483 79.6765L186.768 79.6208L186.752 79.7755C186.138 80.2228 185.33 83.6699 185.026 84.6158Z" fill="#DBDBE7"/>
<path d="M192.165 82.5766L192.355 82.5355C192.23 83.4846 191.307 86.1612 191.019 87.337L190.578 87.1708C190.987 85.5921 191.451 84.046 192.165 82.5766Z" fill="#753616"/>
<path d="M192.127 81.4613C192.337 80.934 192.594 80.2644 192.778 79.7501C193.022 79.0701 193.761 76.372 194.142 75.8935C193.966 76.9851 192.176 82.114 192.355 82.5355L192.165 82.5766C192.124 82.2049 192.13 81.8355 192.127 81.4613Z" fill="#9C9CB5"/>
<path d="M188.448 73.8653C188.334 75.2137 186.905 78.2277 186.768 79.6208L186.483 79.6765L186.311 79.5532C186.737 78.9242 187.314 76.872 187.597 76.0222C187.845 75.2893 188.129 74.5695 188.448 73.8653Z" fill="#9C9CB5"/>
<path d="M182.106 78.1594C182.231 77.4216 183.325 74.033 183.636 73.1662C183.521 74.5973 182.331 77.4008 182.359 78.2556L182.106 78.1594Z" fill="#9C9CB5"/>
<path d="M199.961 81.1601C200.189 80.2388 200.932 77.6815 201.27 76.8328C201.139 77.802 200.203 80.6742 200.231 81.1427L199.961 81.1601Z" fill="#9C9CB5"/>
<path d="M206.403 143.365L206.488 143.36C206.614 143.483 206.62 143.521 206.613 143.758C206.573 145.033 206.586 146.314 206.589 147.589L206.605 157.277C206.611 168.864 206.509 180.72 206.676 192.287C206.09 192.447 205.493 192.598 204.899 192.722C202.233 193.276 199.659 194.103 197.016 194.755C196.933 194.186 197.009 191.518 197.015 190.818C197.04 187.966 197.05 185.115 197.043 182.264L196.993 159.212C196.98 154.615 197.034 149.543 196.855 144.976C200.036 144.472 203.223 143.896 206.403 143.365Z" fill="#CE3D30"/>
<path d="M148.798 142.913C151.264 143.266 153.74 144.007 156.205 144.42C156.679 144.5 157.147 144.609 157.608 144.747C157.468 153.257 157.579 161.927 157.575 170.452L157.576 186.235C157.58 188.901 157.547 191.657 157.601 194.317C156.885 194.614 156.095 194.116 155.639 193.58L148.861 191.674L148.855 156.42C148.848 151.987 148.732 147.312 148.798 142.913Z" fill="#F05243"/>
<path d="M155.639 193.58C156.287 193.767 156.993 194.02 157.601 194.317C156.885 194.614 156.095 194.116 155.639 193.58Z" fill="#753616"/>
<path d="M177.562 82.6156C186.203 87.2937 196.583 90.0343 206.233 91.6637C208.234 91.9373 210.245 92.1316 212.262 92.2462C211.932 93.5347 211.058 98.74 210.528 99.3926C209.972 99.6655 208.725 99.5506 208.055 99.558C202.969 99.6149 198.555 98.7883 193.668 97.5132C191.646 96.9556 189.321 96.4512 187.362 95.7266C183.375 94.2507 178.532 92.4554 175.389 89.551C175.577 88.4723 175.972 87.4445 176.325 86.4071C176.765 85.1524 177.177 83.8883 177.562 82.6156Z" fill="#FDFDFB"/>
<path d="M206.233 91.6637C208.234 91.9373 210.245 92.1316 212.262 92.2462C211.932 93.5347 211.058 98.74 210.528 99.3926C209.972 99.6655 208.725 99.5506 208.055 99.558C202.969 99.6149 198.555 98.7883 193.668 97.5132C193.803 97.4974 193.858 97.4733 194.022 97.451C197.213 97.0176 202.008 98.1222 204.948 96.7575C205.398 96.5487 206.208 92.4869 206.233 91.6637Z" fill="#DBDBE7"/>
<path d="M148.533 92.3506C148.828 92.4601 150.337 94.6408 150.675 95.0584C151.747 96.3817 152.849 97.7263 153.858 99.0983C154.571 100.068 155.45 100.964 156.124 101.94C155.305 103.009 151.768 105.155 150.532 106.009L145.368 109.533C144.084 110.425 142.717 111.422 141.413 112.268C141.193 112.233 141.238 112.206 141.046 111.98C139.351 110.009 137.686 107.992 135.979 106.026C134.99 104.887 133.809 103.707 132.889 102.525C133.768 101.784 136.447 100.203 137.574 99.476C141.183 97.1466 144.876 94.5727 148.533 92.3506Z" fill="#FDECBF"/>
<path d="M132.285 103.078C132.744 103.347 138.069 109.585 138.799 110.414C139.506 111.202 140.225 111.981 140.953 112.75C140.561 113.234 139.186 115.292 138.897 115.502C137.19 116.744 137.055 117.335 136.173 119.184C136.015 119.515 134.919 120.67 134.613 121.072C133.772 122.178 132.915 123.3 132.053 124.394L131.721 124.795C130.334 123.403 129.305 121.979 128.035 120.527C126.597 118.883 125.177 117.219 123.732 115.584C124.46 114.63 125.197 113.403 125.902 112.404C127.402 110.274 128.845 108.102 130.258 105.915C130.893 104.934 131.652 104.135 132.285 103.078Z" fill="#FDECBF"/>
<path d="M173.633 75.7341C174.307 76.2733 176.59 78.7002 177.207 79.3862C176.85 80.4982 176.509 81.6653 176.123 82.7619C175.372 84.8993 174.545 87.0936 174.067 89.31C173.619 89.5664 172.632 89.9592 172.122 90.1981C171.67 90.4095 170.383 91.1268 169.991 91.2472C168.174 91.8055 167.463 91.856 165.825 92.8802L164.656 91.4089C163.009 89.343 161.296 87.1064 159.626 85.0866L173.633 75.7341Z" fill="#FDECBF"/>
<path d="M217.799 132.054L217.905 132.048L217.959 132.168C217.866 132.852 217.332 134.448 216.962 135.043C215.832 135.605 213.636 136.234 212.372 136.652C210.504 137.269 208.484 137.786 206.586 138.323C206.178 138.438 205.364 138.481 204.864 138.603C203.703 138.885 202.044 139.446 200.891 139.58C199.651 139.727 198.61 138.748 197.098 139.091C195.419 139.473 194.248 140.29 192.781 140.931C192.272 141.153 189.254 141.513 188.671 141.523C186.908 141.555 186.305 140.511 184.097 140.76C182.856 140.909 181.65 141.27 180.531 141.828C180.337 141.923 179.053 142.574 178.88 142.608C177.068 142.968 174.401 142.952 172.546 142.925C172.115 142.918 170.879 142.568 170.097 142.516C169.101 142.503 168.664 142.459 167.712 142.182C168.903 141.865 170.18 141.693 171.372 141.363C175.418 140.206 179.66 139.328 183.626 137.934C186.093 137.067 186.791 136.981 189.346 136.796L194.146 136.426C201.431 135.81 209.01 134.828 216.042 132.71C216.63 132.533 217.233 132.292 217.799 132.054Z" fill="#FDFDFB"/>
<path d="M117.501 124.684C117.816 124.926 119.349 126.765 119.73 127.202L125.156 133.425C122.73 136.739 119.846 140.064 117.372 143.381L117.002 143.8C114.915 141.147 112.298 137.905 110.099 135.368C111.478 133.599 112.695 131.601 113.986 129.778C115.214 128.043 116.325 126.467 117.501 124.684Z" fill="#FDECBF"/>
<path d="M140.961 86.2562C141.372 84.4908 142.125 81.9004 142.874 80.2682C143.636 78.6075 144.775 76.0446 146.587 75.4474C149.613 74.45 151.006 76.8553 152.779 77.6447L152.863 77.6815C153.063 77.865 153.2 77.9603 153.325 78.1959C154.126 78.2227 156.369 78.4222 156.871 79.0901C155.467 78.826 154.474 79.0611 153.347 79.8885C148.439 83.4916 145.688 89.4156 142.717 94.5623C142.567 94.8214 141.463 95.4509 141.128 95.6484C141.866 92.7699 142.395 90.6467 143.533 87.8551L143.296 87.6109C142.019 89.4359 140.795 92.885 140.352 95.0865C140.164 94.9826 140.009 94.8835 139.829 94.7672C139.407 93.9574 140.609 87.4959 140.961 86.2562Z" fill="#F05243"/>
<path d="M140.961 86.2562C141.372 84.4908 142.125 81.9004 142.874 80.2682C143.636 78.6075 144.775 76.0446 146.587 75.4474C149.613 74.45 151.006 76.8553 152.779 77.6447L152.863 77.6815C153.063 77.865 153.2 77.9603 153.325 78.1959C153.062 78.2179 152.454 78.2742 152.24 78.2092C149.802 77.4694 148.245 74.377 145.556 77.624C143.682 79.8862 142.556 83.9122 141.306 86.5998C141.088 87.0694 141.173 88.0225 140.763 88.205L140.691 88.1706C140.822 87.6441 141.081 86.7479 140.961 86.2562Z" fill="#F68C76"/>
<path d="M143.296 87.6109C143.57 87.2637 143.706 87.0857 144.03 86.782L143.533 87.8551L143.296 87.6109Z" fill="#200201"/>
<path d="M128.271 100.347C128.898 100.202 132.931 100.143 133.456 100.395L133.532 100.533C133.359 100.965 132.666 101.148 132.251 101.209C130.979 101.445 129.77 101.626 128.533 102.025C128.324 102.093 127.297 102.46 127.211 102.464C126.95 102.604 126.354 102.892 126.193 103.091C126.373 103.173 126.401 103.126 126.638 103.087C127.111 102.94 128.054 102.809 128.598 102.699C129.567 102.504 130.691 102.159 131.643 102.037C131.467 102.364 131.215 102.811 130.925 103.054C130.618 103.46 129.745 104.739 129.453 104.925C128.76 105.368 127.492 105.747 126.695 106.111C123.482 107.578 118.249 110.223 116.996 113.78C116.956 113.95 116.887 114.286 116.834 114.437C116.539 115.395 116.833 116.56 117.848 116.944L117.85 117.086C118.173 117.231 118.527 117.088 118.713 117.427L118.645 117.536C117.964 117.576 117.368 117.227 116.702 117.007C114.54 115.207 115.968 112.746 115.55 110.435C115.368 109.785 114.832 109.164 114.5 108.606C112.263 104.842 116.242 102.846 119.251 101.885C122.282 100.917 125.117 100.499 128.271 100.347Z" fill="#F05243"/>
<path d="M116.702 117.007C114.54 115.207 115.968 112.746 115.55 110.435C115.368 109.785 114.832 109.164 114.5 108.606C112.263 104.842 116.242 102.846 119.251 101.885C122.282 100.917 125.117 100.499 128.271 100.347L128.319 100.422C127.5 100.664 126.415 100.394 125.638 100.866C125.99 100.96 127.962 100.671 128.034 100.716C126.595 100.924 124.672 101.168 123.294 101.573C120.716 102.332 112.736 104.662 115.625 108.569C116.76 110.104 116.608 110.966 116.528 112.838C116.37 113.904 116.268 114.67 116.325 115.767C116.719 116.35 117.092 116.958 117.85 117.086C118.173 117.231 118.527 117.088 118.713 117.427L118.645 117.536C117.964 117.576 117.368 117.227 116.702 117.007Z" fill="#F68C76"/>
<path d="M126.638 103.087C127.111 102.94 128.054 102.809 128.598 102.699C129.567 102.504 130.691 102.159 131.643 102.037C131.467 102.364 131.215 102.811 130.925 103.054L130.891 102.952C130.133 102.653 128.078 103.802 126.604 103.199L126.657 103.173L126.638 103.087Z" fill="#CE3D30"/>
<path d="M127.211 102.464L127.228 102.363C127.589 102.169 128.997 101.621 129.372 101.622L129.148 101.541L129.281 101.464L129.589 101.563L129.749 101.48L129.652 101.376L129.731 101.306C129.911 101.37 130.017 101.429 130.201 101.39L130.041 101.321L130.056 101.242C130.594 100.963 131.673 101.081 132.251 101.209C130.979 101.445 129.77 101.626 128.533 102.025C128.324 102.093 127.297 102.46 127.211 102.464Z" fill="#CE3D30"/>
<path d="M149.39 91.8327C149.794 91.4762 151.641 90.2881 152.181 89.9403C154.426 88.4928 156.544 87.0731 158.746 85.5704L159.332 86.2867C161.295 88.5683 162.986 91.0627 165.055 93.4622C163.788 94.5932 163.071 95.003 161.734 95.9697C159.943 97.2638 157.934 99.1823 156.629 100.962C154.337 98.0815 152.142 95.2102 149.809 92.3597L149.39 91.8327Z" fill="#F05243"/>
<path d="M149.39 91.8327C149.794 91.4762 151.641 90.2881 152.181 89.9403C154.426 88.4928 156.544 87.0731 158.746 85.5704L159.332 86.2867C158.769 86.8801 156.008 88.3684 155.175 88.973C154.364 89.5613 150.617 92.2391 149.809 92.3597L149.39 91.8327Z" fill="#F68C76"/>
<path d="M149.715 124.297C150.998 126.105 152.167 128.698 153.166 130.705C153.688 131.755 154.302 133.198 155.014 134.097C155.214 133.97 155.316 133.853 155.481 133.686C155.997 133.723 158.864 135.637 159.66 135.855C159.751 135.88 160.924 136.466 161.036 136.535C162.637 137.146 164.212 137.937 165.785 138.603C167.258 139.226 168.706 139.679 170.177 140.371C169.485 140.526 168.796 140.692 168.11 140.871C167.325 141.082 166.563 141.322 165.787 141.562C163.784 140.995 162.051 139.884 160.118 139.164C158.943 138.727 157.961 138.985 156.774 139.199C154.203 138.113 154.409 135.395 150.773 135.901C150.128 136.074 149.739 136.227 149.125 136.472C148.456 135.825 147.686 135.226 147.029 134.562C145.988 133.509 145.061 132.363 144.129 131.216C144.543 130.874 144.946 130.52 145.339 130.154C147.185 128.439 148.767 126.679 149.715 124.297Z" fill="#FDFDFB"/>
<path d="M145.339 130.154C146.179 131.607 148.769 134.394 150.084 135.616C150.218 135.741 150.581 135.846 150.773 135.901C150.128 136.074 149.739 136.227 149.125 136.472C148.456 135.825 147.686 135.226 147.029 134.562C145.988 133.509 145.061 132.363 144.129 131.216C144.543 130.874 144.946 130.52 145.339 130.154Z" fill="#DBDBE7"/>
<path d="M161.036 136.535C162.637 137.146 164.212 137.937 165.785 138.603C167.258 139.226 168.706 139.679 170.177 140.371C169.485 140.526 168.796 140.692 168.11 140.871C168.085 140.057 167.916 140.384 167.249 140.103C165.14 139.217 162.538 138.096 160.789 136.634L160.791 136.564L160.995 136.648L161.036 136.535Z" fill="#DBDBE7"/>
<path d="M155.481 133.686C155.525 133.99 155.592 134.212 155.49 134.495L155.374 134.498C155.206 134.337 155.152 134.284 155.014 134.097C155.214 133.97 155.316 133.853 155.481 133.686Z" fill="#753616"/>
<path d="M123.1 116.324L123.771 117.028C125.135 118.654 126.293 120.191 127.752 121.777C128.869 122.992 129.941 124.375 131.066 125.626C129.415 128.071 127.493 130.275 125.725 132.612L121.451 127.669C120.475 126.541 119.638 125.475 118.569 124.429L118.049 123.912C119.75 121.394 121.434 118.865 123.1 116.324Z" fill="#F05243"/>
<path d="M123.1 116.324L123.771 117.028C123.544 117.511 122.804 118.352 122.468 118.861C121.585 120.201 120.717 121.547 119.775 122.847C119.42 123.336 118.997 124.018 118.569 124.429L118.049 123.912C119.75 121.394 121.434 118.865 123.1 116.324Z" fill="#F68C76"/>
<path d="M136.438 120.621C136.526 120.718 136.621 121.408 136.653 121.584C137.051 123.815 138.422 125.732 139.914 127.422C139.305 128.04 137.93 128.89 137.195 129.474C135.532 130.796 133.786 132.022 132.067 133.269C128.933 135.54 125.649 138.108 122.424 140.221C121.653 140.767 120.89 141.325 120.08 141.81C122.833 138.405 125.521 134.948 128.145 131.442C128.842 130.523 129.49 129.564 130.201 128.647C130.705 127.997 131.249 127.376 131.745 126.731L134.861 122.606C135.315 122.012 135.94 121.154 136.438 120.621Z" fill="#E0C18A"/>
<path d="M152.536 126.88C154.785 128.063 157.294 129.779 159.642 130.928C162.172 132.17 164.745 133.32 167.357 134.378C168.681 134.925 169.941 135.049 171.044 136.027C171.885 136.773 172.872 137.471 173.787 138.115C174.203 138.417 174.706 138.761 175.09 139.09C173.738 139.442 172.328 139.825 170.964 140.106C170.353 139.873 169.628 139.606 169.07 139.274C168.62 139.1 168.064 138.905 167.634 138.702C163.885 136.927 160.099 135.228 156.523 133.112C156.145 132.888 155.132 132.423 154.882 132.081C154.423 131.455 153.937 129.89 153.604 129.173C153.222 128.349 152.899 127.641 152.536 126.88Z" fill="#FDFDFB"/>
<path d="M173.787 138.115C174.203 138.417 174.706 138.761 175.09 139.09C173.738 139.442 172.328 139.825 170.964 140.106C170.353 139.873 169.628 139.606 169.07 139.274C169.769 139.267 170.697 138.877 171.42 138.729C172.122 138.585 173.28 138.582 173.787 138.115Z" fill="#DBDAE7"/>
<path d="M152.863 77.6815L152.975 77.6948C153.742 77.7828 154.862 77.7678 155.665 77.7418C159.962 77.6026 159.262 83.7172 156.847 85.5427C156.635 85.7028 156.395 85.8601 156.17 86.0099C155.99 86.2241 154.228 87.283 153.839 87.5359C151.498 89.0606 149.19 90.6454 146.814 92.1149C146.047 92.5894 145.339 93.1011 144.54 93.5264C146.506 89.9879 148.492 86.4779 151.124 83.3655C152.804 81.3788 154.421 79.4905 157.172 79.2899L156.871 79.0901C156.369 78.4222 154.126 78.2227 153.325 78.1959C153.2 77.9603 153.063 77.865 152.863 77.6815Z" fill="#B73526"/>
<path d="M152.863 77.6815L152.975 77.6948C153.742 77.7828 154.862 77.7678 155.665 77.7418C159.962 77.6026 159.262 83.7172 156.847 85.5427C156.635 85.7028 156.395 85.8601 156.17 86.0099C156.132 85.9791 156.074 85.893 156.041 85.8493C156.072 85.5982 156.601 84.6301 156.763 84.3584C157.299 83.462 158.809 79.8547 157.172 79.2899L156.871 79.0901C156.369 78.4222 154.126 78.2227 153.325 78.1959C153.2 77.9603 153.063 77.865 152.863 77.6815Z" fill="#E55644"/>
<path d="M154.637 104.644C154.679 104.771 154.328 105.062 154.218 105.186C152.493 107.14 150.984 109.68 150.379 112.227C150.213 112.926 150.317 114.023 150.052 114.637C149.263 116.467 148.676 117.453 148.484 119.485C147.974 119.092 147.638 118.934 147.048 118.698L146.253 118.875C145.225 117.829 144.665 117.354 143.366 116.628C142.092 116.023 141.574 115.774 140.159 115.649C140.573 115.101 141.451 113.701 141.91 113.312C142.851 112.515 144.267 111.733 145.321 111.014L151.42 106.88C152.54 106.113 153.454 105.384 154.637 104.644Z" fill="#E0C18A"/>
<path d="M137.692 119.15C137.798 118.843 137.977 118.267 138.159 118.015C140.228 115.162 144.109 118.517 145.697 120.154C145.128 121.569 143.905 123.864 142.705 124.767C142.351 125.183 141.375 126.4 140.963 126.631C140.689 126.463 140.221 125.681 139.981 125.394C138.555 123.682 137.475 121.424 137.692 119.15Z" fill="#945020"/>
<path d="M137.692 119.15C137.949 119.442 138.115 119.751 138.291 120.092C139.055 121.572 139.879 123.043 141.099 124.203C141.57 124.651 142.067 125.143 142.705 124.767C142.351 125.183 141.375 126.4 140.963 126.631C140.689 126.463 140.221 125.681 139.981 125.394C138.555 123.682 137.475 121.424 137.692 119.15Z" fill="#753616"/>
<path d="M116.834 114.437C116.86 114.681 116.824 114.809 116.957 114.948C119.346 110.814 124.157 108.298 128.478 106.576C127.765 107.822 127.14 108.452 126.434 109.543C125.236 111.393 124.047 113.163 122.747 114.948C122.671 115.053 121.69 116.493 121.698 116.485C121.236 117.17 120.871 117.467 120.018 117.624C118.843 117.84 117.666 117.782 116.702 117.007C117.368 117.227 117.964 117.576 118.645 117.536L118.713 117.427C118.527 117.088 118.173 117.231 117.85 117.086L117.848 116.944C116.833 116.56 116.539 115.395 116.834 114.437Z" fill="#B73526"/>
<path d="M117.848 116.944C119.546 117.482 120.85 116.469 121.698 116.485C121.236 117.17 120.871 117.467 120.018 117.624C118.843 117.84 117.666 117.782 116.702 117.007C117.368 117.227 117.964 117.576 118.645 117.536L118.713 117.427C118.527 117.088 118.173 117.231 117.85 117.086L117.848 116.944Z" fill="#CE3D30"/>
<path d="M170.802 146.311C173.337 144.904 173.489 146.151 175.933 145.531C176.659 145.347 177.772 144.629 178.476 144.246C180.24 143.288 182.368 142.033 184.395 141.886C185.884 141.779 186.49 142.326 187.824 142.78C188.476 143.003 189.252 143.067 189.936 143.13L189.956 143.236L189.775 143.302C187.437 143.794 185.374 144.883 183.123 145.665L183.115 146.127L182.027 146.317C180.468 146.631 177.834 147.199 176.338 147.318C175.521 147.383 171.693 146.58 170.802 146.311Z" fill="#FDFDFB"/>
<path d="M182.027 146.317C182.306 145.869 182.607 145.841 183.123 145.665L183.115 146.127L182.027 146.317Z" fill="#D5D0B8"/>
<path d="M147.753 138.051C149.608 137.687 151.523 136.324 152.931 137.39C154.081 138.261 154.521 139.367 155.928 140.086C156.259 140.195 156.56 140.298 156.9 140.38C155.696 140.798 155.274 140.946 154.175 141.642C154.911 142.298 154.527 142.167 154.768 142.883C154.111 142.76 153.455 142.634 152.8 142.503C152.496 142.462 151.757 142.24 151.428 142.151C150.701 142.028 149.978 141.881 149.26 141.708C148.628 141.607 147.988 141.464 147.361 141.333C147.409 141.328 147.478 141.294 147.528 141.274C147.527 140.986 146.176 138.683 145.982 137.712C146.976 138.168 146.917 137.922 147.753 138.051Z" fill="#FDFDFB"/>
<path d="M155.928 140.086C156.259 140.195 156.56 140.298 156.9 140.38C155.696 140.798 155.274 140.946 154.175 141.642C154.911 142.298 154.527 142.167 154.768 142.883C154.111 142.76 153.455 142.634 152.8 142.503C152.496 142.462 151.757 142.24 151.428 142.151C151.77 142.095 152.208 141.892 152.469 141.676C152.938 141.288 155.729 140.438 155.928 140.086Z" fill="#BFB8A6"/>
<path d="M152.8 142.503L152.895 142.242C153.09 142.068 153.881 141.773 154.175 141.642C154.911 142.298 154.527 142.167 154.768 142.883C154.111 142.76 153.455 142.634 152.8 142.503Z" fill="#D5D0B8"/>
<path d="M145.982 137.712C146.976 138.168 146.917 137.922 147.753 138.051C147.404 138.145 147.081 138.131 146.718 138.139C147.234 139.074 148.559 140.842 149.26 141.708C148.628 141.607 147.988 141.464 147.361 141.333C147.409 141.328 147.478 141.294 147.528 141.274C147.527 140.986 146.176 138.683 145.982 137.712Z" fill="#D5D0B8"/>
<path d="M190.686 143.243C192.239 142.677 193.568 141.845 195.056 141.116C197.925 139.71 198.304 140.207 201.01 141.152L201.296 141.34C201.312 141.93 200.251 142.7 199.918 143.269C194.304 144.14 188.702 145.093 183.115 146.127L183.123 145.665C185.374 144.883 187.437 143.794 189.775 143.302L189.956 143.236L189.936 143.13L190.686 143.243Z" fill="#F3F2D6"/>
<path d="M189.936 143.13L190.686 143.243C190.103 143.634 189.863 143.804 189.178 143.972L189.057 143.916C189.137 143.608 189.522 143.497 189.775 143.302L189.956 143.236L189.936 143.13Z" fill="#945020"/>
<path d="M137.066 135.973C139.623 136.295 141.113 135.378 143.513 135.515C144.64 135.579 145.278 136.795 145.982 137.712C146.176 138.683 147.527 140.986 147.528 141.274C147.478 141.294 147.409 141.328 147.361 141.333C144.852 140.766 141.488 140.032 138.968 139.698C138.952 137.87 138.307 137.184 137.066 135.973Z" fill="#FDFDFB"/>
<path d="M147.076 119.915C147.908 120.533 148.726 121.317 149.218 122.242C148.494 125.097 146.826 127.281 144.718 129.247C144.289 129.626 143.828 129.974 143.4 130.351C142.317 131.306 141.187 129.309 140.665 128.405C141.469 127.789 142.061 127.265 142.804 126.583C144.882 124.452 146.108 122.797 147.076 119.915Z" fill="#FDFDFB"/>
<path d="M140.665 128.405C141.469 127.789 142.061 127.265 142.804 126.583C143.069 127.289 144.177 128.694 144.718 129.247C144.289 129.626 143.828 129.974 143.4 130.351C142.317 131.306 141.187 129.309 140.665 128.405Z" fill="#DBDBE7"/>
<path d="M156.9 140.38C159.243 139.65 159.844 140.206 161.993 141.272C163.736 142.137 165.554 142.892 167.422 143.433C167.008 143.863 163.303 144.099 162.617 144.523C161.36 144.236 160.022 144.018 158.751 143.742C157.427 143.455 156.095 143.141 154.768 142.883C154.527 142.167 154.911 142.298 154.175 141.642C155.274 140.946 155.696 140.798 156.9 140.38Z" fill="#FDFDFB"/>
<path d="M208.331 140.659C210.29 139.091 211.812 137.877 214.451 137.988C217.016 138.096 218.234 137.301 220.288 135.942C219.578 137.444 219.26 138.186 219.328 139.89C217.187 140.307 214.946 140.627 212.789 140.941C211.742 141.13 210.018 141.514 209.007 141.645C208.579 141.716 208.125 141.801 207.699 141.859L207.55 141.801L207.525 141.69C207.675 141.25 207.971 140.94 208.331 140.659Z" fill="#FDFDFB"/>
<path d="M209.774 140.23C210.524 140.272 212.147 140.569 212.789 140.941C211.742 141.13 210.018 141.514 209.007 141.645C209.352 140.849 208.849 140.928 209.774 140.23Z" fill="#D5D0B8"/>
<path d="M201.01 141.152C202.861 141.239 203.654 140.069 205.343 139.702C206.438 139.464 207.074 139.916 207.914 140.48L208.331 140.659C207.971 140.94 207.675 141.25 207.525 141.69L207.55 141.801L207.699 141.859C207.496 141.897 207.37 141.921 207.16 141.935C204.781 142.411 202.319 142.923 199.918 143.269C200.251 142.7 201.312 141.93 201.296 141.34L201.01 141.152Z" fill="#EEEDD8"/>
<path d="M207.914 140.48L208.331 140.659C207.971 140.94 207.675 141.25 207.525 141.69L207.55 141.801L207.699 141.859C207.496 141.897 207.37 141.921 207.16 141.935C207.248 141.346 207.57 140.95 207.914 140.48Z" fill="#E0C18A"/>
<path d="M167.422 143.433C168.288 143.571 168.893 143.538 169.632 143.637C170.705 143.645 171.76 143.913 172.707 144.419C171.412 144.694 170.419 145.124 169.35 145.93C167.758 145.639 165.75 145.282 164.198 144.849C163.927 144.854 162.932 144.598 162.617 144.523C163.303 144.099 167.008 143.863 167.422 143.433Z" fill="#D5D0B8"/>
<path d="M167.422 143.433C168.288 143.571 168.893 143.538 169.632 143.637C168.852 143.66 168.466 143.71 167.718 143.852C167.136 143.962 164.561 144.802 164.104 144.537C164.503 144.2 165.53 144.563 166.041 144.176C166.054 144.166 166.17 144.134 166.181 144.13C166.27 144.017 166.326 143.978 166.448 143.903C166.039 143.837 163.815 144.295 163.542 144.576L164.16 144.739L164.198 144.849C163.927 144.854 162.932 144.598 162.617 144.523C163.303 144.099 167.008 143.863 167.422 143.433Z" fill="#E0C18A"/>
<path d="M138.673 95.8034C139.416 95.7604 139.564 95.9074 140.124 96.3351C139.557 96.795 138.756 97.2672 138.124 97.6829C137.241 98.2762 136.364 98.8785 135.493 99.4898C135.194 99.6933 134.923 99.9293 134.575 99.9332C133.818 99.4055 135.603 97.6341 136.025 97.2839C136.878 96.5752 137.595 96.0691 138.673 95.8034Z" fill="#F05243"/>
<path d="M176.14 143.537C176.567 143.507 177.033 143.496 177.463 143.477C176.615 143.961 175.839 144.451 174.853 144.543C174.468 144.322 173.941 143.949 173.635 143.633L176.14 143.537Z" fill="#DBDBE7"/>
<path d="M145.988 135.718C146.573 135.772 147.369 136.423 147.735 136.845C146.858 136.951 146.256 136.564 145.988 135.718Z" fill="#D5D0B8"/>
<path d="M215.928 136.33L216.11 136.35L216.162 136.517L216.048 136.668C215.696 136.813 215.419 136.801 215.038 136.823L214.932 136.827L214.968 136.735C215.324 136.525 215.537 136.464 215.928 136.33Z" fill="#FDFDFB"/>
<path d="M137.436 139.008C137.718 139.022 137.618 138.963 137.775 139.135L137.745 139.299C137.468 139.471 137.451 139.401 137.069 139.355C136.901 139.337 136.913 139.329 136.75 139.272C136.87 139.135 137.242 139.063 137.436 139.008Z" fill="#D5D0B8"/>
<path d="M220.272 139.402C220.724 139.33 221.038 139.347 221.428 139.588C220.946 139.673 220.527 139.863 220.272 139.402Z" fill="#E0C18A"/>
<path d="M208.457 138.863C208.605 138.84 208.595 138.842 208.738 138.888C208.623 139.074 208.395 139.167 208.195 139.276C208.001 139.213 207.935 139.208 207.792 139.06C207.925 138.92 208.249 138.899 208.457 138.863Z" fill="#DBDBE7"/>
<path d="M30.4481 100.968C31.0484 101.074 32.2544 101.054 32.9058 101.063C37.5846 98.2619 43.0916 89.416 42.5872 83.5473C42.5069 82.6136 36.9475 80.417 35.8554 79.9724C35.4682 80.5087 33.8849 85.4944 33.2834 86.738C30.6223 92.24 27.2627 94.6694 23.3964 98.8291C25.3452 100.324 28.0035 100.463 30.4481 100.968Z" fill="#FFEB8A"/>
<path d="M123.352 90.0711C126.507 90.1535 130.523 84.6167 131.605 81.9761C132.548 79.6752 134.155 75.1382 133.496 72.6412C133.242 71.6799 128.76 70.3587 127.724 70.0004C127.311 70.6089 126.369 73.8637 126.119 74.7736C124.51 80.642 121.414 83.9099 117.082 87.904C119.51 89.1693 120.684 89.5373 123.352 90.0711Z" fill="#CDEBB2"/>
<path d="M26.5516 24.3339C26.7774 24.24 27.1539 23.9252 27.2705 23.7173C30.2122 18.4674 33.2823 15.3005 38.769 12.6851C37.3063 11.102 35.3671 6.86966 33.1385 7.08886C27.7523 8.38357 21.9504 14.3822 20.5429 19.7142C21.4203 20.6475 25.3953 23.5849 26.5516 24.3339Z" fill="#FFEB89"/>
<path d="M58.809 54.317C60.0558 53.6859 63.8726 52.7713 64.5334 52.0845C66.1697 50.3833 61.2061 42.9482 60.0735 41.6462C58.2515 39.5523 55.9739 37.2592 53.2833 37.0004C52.0521 37.1979 47.4248 39.3755 47.0819 40.6314C47.2437 41.3467 49.972 42.9564 50.7675 43.5258C54.6921 46.3352 56.0639 50.868 58.809 54.317Z" fill="#E5DDE9"/>
<path d="M30.0981 154.454C34.3258 153.444 39.3029 146.431 39.2166 142.157C39.2 141.333 35.253 138.844 34.1142 139.125C31.9909 145.13 29.335 147.897 24.0136 151.243C25.4111 152.174 28.5153 153.648 30.0981 154.454Z" fill="#FDEE99"/>
<path d="M109.747 124.342C110.989 123.798 111.593 120.248 112.815 118.981C114.256 117.487 116.027 117.522 117.413 116.577C115.806 115.308 113.522 115.246 112.447 113.298C111.669 111.889 111.164 110.388 110.34 109.015L110.031 109L109.742 109.319C109.274 111.913 107.877 114.385 105.442 115.656C104.729 116.028 103.464 116.271 103.082 116.801C103.661 117.513 105.575 117.725 106.549 118.466C108.422 119.888 109.376 122.098 109.747 124.342Z" fill="#FDEE99"/>
<path d="M0.056998 67.8741C2.12051 67.3588 3.94801 66.5267 6.12001 66.572C5.81817 61.6962 6.54783 58.4842 9.08029 54.2839C9.62099 53.3873 10.3763 52.9565 10.7875 52.1218C8.08978 52.2253 5.49685 54.231 3.81873 56.2189C1.05248 59.4423 -0.302925 63.6418 0.056998 67.8741Z" fill="#FDEE99"/>
<path d="M57.7691 121.329C57.9523 121.327 58.3343 121.268 58.4186 121.066C59.3683 118.788 59.8371 117.194 61.6189 115.46C60.0524 114.804 58.1744 113.742 56.6961 112.895C56.4734 112.854 56.1977 112.764 56.0099 112.897C54.7382 113.794 53.5999 117.625 53.115 119.023C54.7982 120.088 55.9555 120.56 57.7691 121.329Z" fill="#FDEE99"/>
<path d="M138.321 39.2195C139.34 39.1169 141.584 39.2498 142.853 39.2152C142.843 38.7726 142.822 38.3301 142.792 37.8884C142.65 35.986 141.977 34.9624 140.601 33.7789C139.72 33.086 138.889 32.7497 137.877 32.2802C138.209 33.8089 138.576 34.808 138.476 36.4158C138.421 37.2928 138.274 38.2201 138.314 39.0799L138.321 39.2195Z" fill="#FDEE99"/>
<path d="M98.0765 97.5816C98.6463 97.5424 100.004 96.2788 100.549 95.8236C99.9495 94.8192 99.5479 94.1555 99.0838 93.0824C99.0561 93.0332 98.8398 92.8511 98.782 92.7997L98.4168 92.8842C97.838 93.439 97.4616 94.2692 97.0798 94.9875C97.496 95.9389 97.7539 96.5944 98.0765 97.5816Z" fill="#FDEE99"/>
<path d="M71.7485 157.711C72.465 157.456 72.7917 157.252 73.0084 156.526C72.7845 155.816 72.8416 156.021 72.1546 155.496L71.7471 155.472C70.7432 156.042 71.2778 156.939 71.7485 157.711Z" fill="#FDEE99"/>
<path d="M95.2757 157.924C97.2075 157.992 101.233 155.936 103.262 155.314C100.424 152.902 98.0417 149.159 96.9742 145.592C96.584 144.289 96.1204 142.206 95.5058 141.081L95.3212 141C94.4621 141.135 89.1148 142.565 88.5146 143.082C87.92 144.116 88.0448 144.865 88.2617 146.03C89.0521 150.277 91.5917 155.46 95.2757 157.924Z" fill="#FFCFC0"/>
<path d="M109.747 22.3423C110.989 21.7979 111.593 18.2482 112.815 16.9813C114.256 15.4873 116.027 15.5219 117.413 14.5773C115.806 13.3084 113.522 13.2458 112.447 11.2982C111.669 9.88894 111.164 8.38831 110.34 7.01516L110.031 7.00038L109.742 7.31868C109.274 9.91279 107.877 12.3851 105.442 13.6556C104.729 14.0277 103.464 14.2711 103.082 14.8005C103.661 15.513 105.575 15.7252 106.549 16.4656C108.422 17.8881 109.376 20.0981 109.747 22.3423Z" fill="#FDEE99"/>
<path d="M13.9879 183.599C15.9123 182.921 18.0818 181.493 19.9837 180.486C18.6986 176.856 16.9252 174.374 13.9202 172.013C12.2202 171.813 9.59987 174.006 8.08193 175.064C9.52562 176.665 10.9639 178.168 12.1291 180.003C12.7269 180.944 13.352 182.833 13.9879 183.599Z" fill="#B7DCEA"/>
<path d="M314.092 33.6762C315.339 33.0451 319.156 32.1305 319.817 31.4437C321.453 29.7425 316.489 22.3074 315.357 21.0054C313.535 18.9115 311.257 16.6184 308.567 16.3596C307.335 16.5571 302.708 18.7347 302.365 19.9906C302.527 20.7059 305.255 22.3156 306.051 22.885C309.975 25.6945 311.347 30.2273 314.092 33.6762Z" fill="#E5DDE9"/>
<path d="M306.282 76.6081C308.213 76.6755 312.239 74.6197 314.268 73.9974C311.43 71.5854 309.048 67.8429 307.98 64.2762C307.59 62.9728 307.126 60.8896 306.512 59.7647L306.327 59.6841C305.468 59.8187 300.121 61.2486 299.521 61.7659C298.926 62.7994 299.051 63.5484 299.268 64.7138C300.058 68.961 302.598 74.144 306.282 76.6081Z" fill="#FFCFC0"/>
<path d="M247.276 123.924C249.208 123.992 253.233 121.936 255.262 121.314C252.424 118.902 250.042 115.159 248.974 111.592C248.584 110.289 248.12 108.206 247.506 107.081L247.321 107C246.462 107.135 241.115 108.565 240.515 109.082C239.92 110.116 240.045 110.865 240.262 112.03C241.052 116.277 243.592 121.46 247.276 123.924Z" fill="#FFCFC0"/>
<path d="M319.989 139.376C322.654 139.6 325.324 138.821 327.746 137.793C324.367 131.382 324.187 131.646 324.276 124.341C323.374 123.941 320.712 124.614 319.606 124.885C314.921 126.035 317.245 137.75 319.989 139.376Z" fill="#C7E9A9"/>
<path d="M343.711 92.5536C345.635 91.8757 347.804 90.4473 349.706 89.4401C348.421 85.8107 346.648 83.3282 343.643 80.9673C341.943 80.7677 339.323 82.9607 337.805 84.0183C339.248 85.6197 340.687 87.123 341.852 88.9574C342.45 89.8987 343.075 91.7877 343.711 92.5536Z" fill="#B7DCEA"/>
<path d="M247.988 183.599C249.912 182.922 252.082 181.493 253.984 180.486C252.699 176.857 250.925 174.374 247.92 172.013C246.22 171.814 243.6 174.007 242.082 175.064C243.526 176.666 244.964 178.169 246.129 180.003C246.727 180.945 247.352 182.834 247.988 183.599Z" fill="#B7DCEA"/>
<path d="M304.401 165.536C304.984 165.56 305.594 165.546 305.918 164.938C307.192 162.474 307.309 159.057 306.681 156.368C306.007 153.481 305.457 152.361 302.448 153.057C301.669 153.193 300.729 153.284 300.08 153.701C299.718 154.262 300.948 157.29 301.182 158.152C301.806 160.449 300.697 162.591 300.81 164.875C301.367 165.484 303.473 165.473 304.401 165.536Z" fill="#FECFBD"/>
<path d="M270.749 167.711C271.465 167.456 271.792 167.252 272.008 166.526C271.785 165.816 271.842 166.021 271.155 165.496L270.747 165.472C269.743 166.042 270.278 166.939 270.749 167.711Z" fill="#FDEE99"/>
<path d="M227.687 65.4096C228.394 65.162 228.626 65.124 228.89 64.4293C228.817 63.874 228.445 63.5092 228.09 63.0656C226.845 63.6086 226.848 64.4857 227.687 65.4096Z" fill="#FDEE99"/>
<path d="M101.736 190.502C101.919 190.5 102.301 190.441 102.386 190.239C103.335 187.962 103.804 186.368 105.586 184.633C104.019 183.977 102.141 182.915 100.663 182.069C100.44 182.028 100.165 181.938 99.9769 182.07C98.7052 182.967 97.5669 186.798 97.0819 188.197C98.7651 189.262 99.9224 189.733 101.736 190.502Z" fill="#FDEE99"/>
<path d="M309.134 211.996C309.734 212.101 310.94 212.082 311.591 212.09C316.27 209.29 321.777 200.444 321.273 194.575C321.192 193.641 315.633 191.445 314.541 191C314.154 191.536 312.57 196.522 311.969 197.766C309.308 203.268 305.948 205.697 302.082 209.857C304.031 211.352 306.689 211.491 309.134 211.996Z" fill="#FFEB8A"/>
<path d="M229.352 20.0708C232.507 20.1531 236.523 14.6163 237.605 11.9757C238.548 9.67483 240.155 5.13783 239.496 2.6408C239.242 1.67952 234.76 0.358278 233.724 0C233.311 0.608551 232.369 3.86328 232.119 4.77317C230.51 10.6417 227.414 13.9095 223.082 17.9036C225.51 19.1689 226.684 19.537 229.352 20.0708Z" fill="#CDEBB2"/>
</svg>
