<svg preserveAspectRatio="none" width="100%" height="100%" overflow="visible" style="display: block;" viewBox="0 0 349.706 212.09" fill="none" xmlns="http://www.w3.org/2000/svg">
<g id="Vector">
<path d="M30.4481 100.968C31.0484 101.074 32.2544 101.054 32.9058 101.063C37.5846 98.2619 43.0916 89.416 42.5872 83.5473C42.5069 82.6136 36.9475 80.417 35.8554 79.9724C35.4682 80.5087 33.8849 85.4944 33.2834 86.738C30.6223 92.24 27.2627 94.6694 23.3964 98.8291C25.3452 100.324 28.0035 100.463 30.4481 100.968Z" fill="#FFEB8A"/>
<path d="M123.352 90.0711C126.507 90.1534 130.523 84.6167 131.605 81.9761C132.548 79.6752 134.155 75.1382 133.496 72.6412C133.242 71.6799 128.76 70.3587 127.724 70.0004C127.311 70.6089 126.369 73.8637 126.119 74.7736C124.51 80.642 121.414 83.9099 117.082 87.904C119.51 89.1693 120.684 89.5373 123.352 90.0711Z" fill="var(--fill-0, #CDEBB2)"/>
<path d="M26.5516 24.3339C26.7774 24.24 27.154 23.9252 27.2705 23.7173C30.2122 18.4674 33.2823 15.3005 38.769 12.6851C37.3063 11.102 35.3671 6.86966 33.1385 7.08886C27.7523 8.38357 21.9504 14.3822 20.5429 19.7142C21.4203 20.6475 25.3953 23.5849 26.5516 24.3339Z" fill="#FFEB89"/>
<path d="M58.809 54.317C60.0558 53.6859 63.8726 52.7713 64.5334 52.0845C66.1697 50.3833 61.2061 42.9482 60.0735 41.6462C58.2515 39.5523 55.9739 37.2592 53.2833 37.0004C52.0521 37.1979 47.4248 39.3755 47.0819 40.6314C47.2437 41.3467 49.972 42.9564 50.7675 43.5258C54.6921 46.3352 56.0639 50.868 58.809 54.317Z" fill="#E5DDE9"/>
<path d="M30.0981 154.454C34.3258 153.444 39.3029 146.431 39.2166 142.157C39.2 141.333 35.253 138.844 34.1142 139.125C31.9909 145.13 29.335 147.897 24.0136 151.243C25.4111 152.174 28.5153 153.648 30.0981 154.454Z" fill="#FDEE99"/>
<path d="M109.747 124.342C110.989 123.798 111.593 120.248 112.815 118.981C114.256 117.487 116.027 117.522 117.413 116.577C115.806 115.308 113.522 115.246 112.447 113.298C111.669 111.889 111.164 110.388 110.34 109.015L110.031 109L109.742 109.319C109.274 111.913 107.877 114.385 105.442 115.656C104.729 116.028 103.464 116.271 103.082 116.801C103.661 117.513 105.575 117.725 106.549 118.466C108.422 119.888 109.376 122.098 109.747 124.342Z" fill="#FDEE99"/>
<path d="M0.056998 67.8741C2.12051 67.3588 3.94801 66.5267 6.12001 66.572C5.81817 61.6962 6.54783 58.4842 9.08029 54.2839C9.62099 53.3873 10.3763 52.9565 10.7875 52.1218C8.08978 52.2253 5.49685 54.231 3.81873 56.2189C1.05248 59.4423 -0.302925 63.6418 0.056998 67.8741Z" fill="#FDEE99"/>
<path d="M57.7691 121.329C57.9523 121.327 58.3343 121.268 58.4186 121.066C59.3683 118.788 59.8371 117.194 61.6189 115.46C60.0524 114.804 58.1744 113.742 56.6961 112.895C56.4733 112.854 56.1977 112.764 56.0099 112.897C54.7382 113.794 53.5999 117.625 53.115 119.023C54.7982 120.088 55.9555 120.56 57.7691 121.329Z" fill="#FDEE99"/>
<path d="M138.321 39.2195C139.34 39.1169 141.584 39.2498 142.853 39.2152C142.843 38.7726 142.822 38.3301 142.792 37.8884C142.65 35.986 141.977 34.9624 140.601 33.7789C139.72 33.086 138.889 32.7497 137.877 32.2802C138.209 33.8089 138.576 34.808 138.476 36.4158C138.421 37.2928 138.274 38.2201 138.314 39.0799L138.321 39.2195Z" fill="#FDEE99"/>
<path d="M98.0765 97.5816C98.6463 97.5425 100.004 96.2788 100.549 95.8236C99.9495 94.8192 99.5479 94.1555 99.0838 93.0824C99.0561 93.0332 98.8398 92.8511 98.782 92.7997L98.4168 92.8842C97.838 93.439 97.4616 94.2692 97.0798 94.9875C97.496 95.9389 97.7539 96.5944 98.0765 97.5816Z" fill="#FDEE99"/>
<path d="M71.7485 157.711C72.465 157.456 72.7918 157.252 73.0084 156.526C72.7845 155.816 72.8416 156.021 72.1546 155.496L71.7471 155.472C70.7432 156.042 71.2778 156.939 71.7485 157.711Z" fill="#FDEE99"/>
<path d="M95.2757 157.924C97.2075 157.992 101.233 155.936 103.262 155.314C100.424 152.902 98.0417 149.159 96.9742 145.592C96.584 144.289 96.1204 142.206 95.5058 141.081L95.3212 141C94.4621 141.135 89.1148 142.565 88.5146 143.082C87.92 144.116 88.0448 144.865 88.2617 146.03C89.0521 150.277 91.5917 155.46 95.2757 157.924Z" fill="#FFCFC0"/>
<path d="M109.747 22.3423C110.989 21.7979 111.593 18.2482 112.815 16.9813C114.256 15.4873 116.027 15.5219 117.413 14.5773C115.806 13.3084 113.522 13.2458 112.447 11.2982C111.669 9.88894 111.164 8.38831 110.34 7.01516L110.031 7.00038L109.742 7.31868C109.274 9.91279 107.877 12.3851 105.442 13.6556C104.729 14.0277 103.464 14.2711 103.082 14.8005C103.661 15.513 105.575 15.7252 106.549 16.4656C108.422 17.8881 109.376 20.0981 109.747 22.3423Z" fill="#FDEE99"/>
<path d="M13.9879 183.599C15.9123 182.921 18.0818 181.493 19.9837 180.486C18.6986 176.856 16.9252 174.374 13.9202 172.013C12.2202 171.813 9.59987 174.006 8.08193 175.064C9.52562 176.665 10.9639 178.168 12.1291 180.003C12.7269 180.944 13.352 182.833 13.9879 183.599Z" fill="#B7DCEA"/>
<path d="M314.092 33.6762C315.339 33.0451 319.156 32.1305 319.817 31.4437C321.453 29.7425 316.489 22.3074 315.357 21.0054C313.535 18.9115 311.257 16.6184 308.567 16.3596C307.335 16.5571 302.708 18.7347 302.365 19.9906C302.527 20.7059 305.255 22.3156 306.051 22.885C309.975 25.6945 311.347 30.2273 314.092 33.6762Z" fill="#E5DDE9"/>
<path d="M306.282 76.6081C308.213 76.6755 312.239 74.6197 314.268 73.9974C311.43 71.5854 309.048 67.8429 307.98 64.2762C307.59 62.9728 307.126 60.8896 306.512 59.7647L306.327 59.6841C305.468 59.8187 300.121 61.2486 299.521 61.7659C298.926 62.7994 299.051 63.5484 299.268 64.7138C300.058 68.961 302.598 74.144 306.282 76.6081Z" fill="#FFCFC0"/>
<path d="M247.276 123.924C249.208 123.992 253.233 121.936 255.262 121.314C252.424 118.902 250.042 115.159 248.974 111.592C248.584 110.289 248.12 108.206 247.506 107.081L247.321 107C246.462 107.135 241.115 108.565 240.515 109.082C239.92 110.116 240.045 110.865 240.262 112.03C241.052 116.277 243.592 121.46 247.276 123.924Z" fill="#FFCFC0"/>
<path d="M319.989 139.376C322.654 139.6 325.324 138.821 327.746 137.793C324.367 131.382 324.187 131.646 324.276 124.341C323.374 123.941 320.712 124.614 319.606 124.885C314.921 126.035 317.245 137.75 319.989 139.376Z" fill="#C7E9A9"/>
<path d="M343.711 92.5536C345.635 91.8757 347.804 90.4473 349.706 89.4401C348.421 85.8107 346.648 83.3282 343.643 80.9673C341.943 80.7677 339.323 82.9607 337.805 84.0183C339.248 85.6197 340.687 87.123 341.852 88.9574C342.45 89.8987 343.075 91.7877 343.711 92.5536Z" fill="#B7DCEA"/>
<path d="M247.988 183.599C249.912 182.922 252.082 181.493 253.984 180.486C252.699 176.857 250.925 174.374 247.92 172.013C246.22 171.814 243.6 174.007 242.082 175.064C243.526 176.666 244.964 178.169 246.129 180.003C246.727 180.945 247.352 182.834 247.988 183.599Z" fill="#B7DCEA"/>
<path d="M304.401 165.536C304.984 165.56 305.594 165.546 305.918 164.938C307.192 162.474 307.309 159.057 306.681 156.368C306.006 153.481 305.457 152.361 302.448 153.057C301.669 153.193 300.729 153.284 300.08 153.701C299.718 154.262 300.948 157.29 301.182 158.152C301.806 160.449 300.697 162.591 300.81 164.875C301.367 165.484 303.473 165.473 304.401 165.536Z" fill="#FECFBD"/>
<path d="M270.749 167.711C271.465 167.456 271.792 167.252 272.008 166.526C271.785 165.816 271.842 166.021 271.155 165.496L270.747 165.472C269.743 166.042 270.278 166.939 270.749 167.711Z" fill="#FDEE99"/>
<path d="M227.687 65.4096C228.394 65.162 228.626 65.124 228.89 64.4293C228.817 63.874 228.445 63.5092 228.09 63.0656C226.845 63.6086 226.848 64.4857 227.687 65.4096Z" fill="#FDEE99"/>
<path d="M101.736 190.502C101.919 190.5 102.301 190.441 102.386 190.239C103.335 187.962 103.804 186.368 105.586 184.633C104.019 183.977 102.141 182.915 100.663 182.069C100.44 182.028 100.165 181.938 99.9769 182.07C98.7052 182.967 97.5669 186.798 97.0819 188.197C98.7651 189.262 99.9224 189.733 101.736 190.502Z" fill="#FDEE99"/>
<path d="M309.134 211.996C309.734 212.101 310.94 212.082 311.591 212.09C316.27 209.29 321.777 200.444 321.273 194.575C321.192 193.641 315.633 191.445 314.541 191C314.154 191.536 312.57 196.522 311.969 197.766C309.308 203.268 305.948 205.697 302.082 209.857C304.031 211.352 306.689 211.491 309.134 211.996Z" fill="#FFEB8A"/>
<path d="M229.352 20.0708C232.507 20.1531 236.523 14.6163 237.605 11.9757C238.548 9.67483 240.155 5.13783 239.496 2.6408C239.242 1.67952 234.76 0.358278 233.724 0C233.311 0.608551 232.369 3.86328 232.119 4.77317C230.51 10.6417 227.414 13.9095 223.082 17.9036C225.51 19.1689 226.684 19.537 229.352 20.0708Z" fill="var(--fill-0, #CDEBB2)"/>
</g>
</svg>
