<svg preserveAspectRatio="none" width="100%" height="100%" overflow="visible" style="display: block;" viewBox="0 0 12 12" fill="none" xmlns="http://www.w3.org/2000/svg">
<g id="Vector">
<path d="M5.27802 0.0587599C5.93552 -0.0867691 6.91252 0.0576362 7.54973 0.277504C7.76117 0.350458 7.95619 0.455983 8.1622 0.53347C8.46301 0.646638 8.89328 0.763019 9.16088 0.938715C9.65084 1.15721 10.0301 1.63368 10.3071 2.08236C10.4437 2.30364 10.6305 2.49368 10.7854 2.70128C11.0451 3.07787 11.4031 3.66392 11.4948 4.11757C11.5408 4.31816 11.6475 4.41296 11.7081 4.59421C11.8043 4.88194 11.8452 5.20497 11.9029 5.50455C11.9801 5.95896 12.0258 6.37807 11.9844 6.84221C11.9637 7.07606 11.8725 7.30787 11.8107 7.53266C11.5372 8.82575 10.7987 9.97752 9.75287 10.7553C9.65584 10.8274 9.55394 10.9092 9.45051 10.9732C8.80082 11.2967 8.17257 11.7192 7.42406 11.7285C7.12557 11.7323 6.92265 11.838 6.64431 11.9047C6.07834 12.0403 5.48831 12.0311 4.92671 11.8777C4.5434 11.7739 4.30621 11.6287 3.93587 11.5352L3.73863 11.5044C3.51895 11.4697 3.2416 11.3403 3.03995 11.2379C2.65553 11.0429 2.48952 10.8913 2.27284 10.5146C2.12167 10.5076 1.97659 10.4822 1.84748 10.3877C1.50205 10.1348 1.15603 9.73507 0.965942 9.34574C0.911679 9.23459 0.868861 9.0307 0.814176 8.93947C0.667824 8.69531 0.58293 8.59834 0.481893 8.32554C0.372933 8.03132 0.352708 7.78497 0.272588 7.50739C0.205857 7.2762 0.13023 7.15988 0.0733437 6.88724C-0.0348996 6.36853 -0.0142647 6.00818 0.076224 5.48596C0.0882951 5.41629 0.177837 5.25165 0.179693 5.21649C0.186836 5.08213 0.164511 4.94596 0.192993 4.80313C0.218364 4.67584 0.258737 4.55125 0.291469 4.42719C0.448509 3.83208 0.712896 3.2926 1.04289 2.77963C1.33506 2.32543 1.69463 1.93095 2.11377 1.59729C2.2867 1.45961 2.43962 1.30714 2.63674 1.18934C2.82053 1.07947 3.01172 0.993404 3.19872 0.890623C3.25955 0.860574 3.33755 0.775261 3.39402 0.750921C3.67965 0.627746 3.97251 0.431055 4.25854 0.325426C4.58009 0.206693 4.94418 0.130812 5.27802 0.0587599Z" fill="#F9C356"/>
<path d="M2.27284 10.5146C2.12167 10.5076 1.97659 10.4822 1.84748 10.3877C1.50205 10.1348 1.15603 9.73507 0.965942 9.34574C0.911679 9.23459 0.868861 9.0307 0.814176 8.93947C0.667824 8.69531 0.58293 8.59834 0.481893 8.32554C0.372933 8.03132 0.352708 7.78497 0.272588 7.50739C0.205857 7.2762 0.13023 7.15988 0.0733437 6.88724C-0.0348996 6.36853 -0.0142647 6.00818 0.076224 5.48596C0.0882951 5.41629 0.177837 5.25165 0.179693 5.21649C0.186836 5.08213 0.164511 4.94596 0.192993 4.80313C0.218364 4.67584 0.258737 4.55125 0.291469 4.42719C0.448509 3.83208 0.712896 3.2926 1.04289 2.77963C1.33506 2.32543 1.69463 1.93095 2.11377 1.59729C2.2867 1.45961 2.43962 1.30714 2.63674 1.18934C2.82053 1.07947 3.01172 0.993404 3.19872 0.890623C3.25955 0.860574 3.33755 0.775261 3.39402 0.750921C3.67965 0.627746 3.97251 0.431055 4.25854 0.325426C4.58009 0.206693 4.94418 0.130812 5.27802 0.0587599C5.29027 0.118845 5.41334 0.246814 5.46681 0.260898C5.24872 0.28998 4.63545 0.421608 4.44736 0.519307L4.54609 0.513846C4.41561 0.561166 4.18933 0.632448 4.08852 0.721759L4.08687 0.763541C4.06832 0.771236 4.05779 0.775521 4.03969 0.784562L4.06624 0.799207C3.98547 0.846319 3.64457 1.00928 3.6057 1.05205C3.60972 1.00287 3.58835 0.99616 3.55398 0.975831L3.55267 0.952C3.49826 0.985355 3.43818 1.02251 3.38156 1.05133C2.12021 1.69332 1.23635 2.59821 0.693016 3.94614C0.504128 4.33041 0.418811 4.87317 0.357623 5.29426C0.352106 5.33219 0.311106 5.31596 0.302964 5.34829C0.272793 5.42091 0.25692 5.61826 0.265458 5.69303C0.222037 6.15104 0.19801 6.55811 0.311528 7.0161C0.33983 7.13026 0.439548 7.32469 0.459799 7.42647C0.517646 7.7481 0.597817 8.03393 0.717338 8.336C0.787857 8.51422 0.981956 8.74471 1.02735 8.87656C1.2327 9.47299 1.56471 9.96476 2.11893 10.273C2.15606 10.2936 2.28824 10.2981 2.33461 10.3081C2.4175 10.3879 2.49072 10.5433 2.57578 10.6277C2.73676 10.7874 2.90429 10.8878 3.09484 10.9944C3.19664 11.1494 3.67533 11.275 3.85605 11.2825C4.06913 11.2826 4.17876 11.3638 4.35775 11.4442C4.86781 11.6731 5.46689 11.8262 6.02704 11.7742C6.07897 11.7694 6.13582 11.7685 6.18881 11.7658C6.45416 11.7346 6.66523 11.6584 6.92162 11.6203C7.0459 11.5892 7.14976 11.5567 7.27845 11.5339C7.59367 11.4784 7.8741 11.4707 8.17931 11.3645C8.41781 11.2816 8.62333 11.1154 8.82307 11.0297C9.16952 10.881 9.25361 10.8676 9.56073 10.6186C9.74915 10.4559 9.99826 10.2944 10.1598 10.1232C10.4638 9.80104 10.7964 9.41472 11.0026 9.01727C11.2616 8.68869 11.4053 8.01944 11.548 7.62284C11.6534 7.33024 11.7122 7.10221 11.7431 6.79067C11.7768 6.4522 11.737 6.13312 11.7355 5.79873C11.7422 5.68619 11.7704 5.60362 11.8865 5.55625L11.9029 5.50455C11.9801 5.95896 12.0258 6.37807 11.9844 6.84221C11.9637 7.07606 11.8725 7.30787 11.8107 7.53266C11.5372 8.82575 10.7987 9.97752 9.75287 10.7553C9.65584 10.8274 9.55394 10.9092 9.45051 10.9732C8.80082 11.2967 8.17257 11.7192 7.42406 11.7285C7.12557 11.7323 6.92265 11.838 6.64431 11.9047C6.07834 12.0403 5.48831 12.0311 4.92671 11.8777C4.5434 11.7739 4.30621 11.6287 3.93587 11.5352L3.73863 11.5044C3.51895 11.4697 3.2416 11.3403 3.03995 11.2379C2.65553 11.0429 2.48952 10.8913 2.27284 10.5146Z" fill="#5E1302"/>
<path d="M3.85605 11.2825C4.06913 11.2826 4.17876 11.3638 4.35775 11.4442C4.86781 11.6731 5.46689 11.8262 6.02704 11.7742C6.07897 11.7694 6.13582 11.7685 6.18881 11.7658C5.58412 11.9584 4.64531 11.6929 4.10555 11.3839C4.03891 11.3458 3.92914 11.3122 3.85605 11.2825Z" fill="#631003"/>
<path d="M9.56073 10.6186C9.46549 10.8147 9.01106 10.9743 8.82895 11.0646C8.58961 11.1832 8.37116 11.3321 8.11496 11.4211C7.9822 11.4673 7.79871 11.4659 7.69262 11.5072L7.69394 11.5164C7.71686 11.5174 7.75844 11.5172 7.77886 11.5231C7.71698 11.5417 7.68264 11.5326 7.62487 11.5466C7.5974 11.5533 7.50604 11.6161 7.47748 11.6193C7.30261 11.6389 7.09388 11.6403 6.92162 11.6203C7.0459 11.5892 7.14976 11.5567 7.27845 11.5339C7.59367 11.4784 7.8741 11.4707 8.17931 11.3645C8.41781 11.2816 8.62333 11.1154 8.82307 11.0297C9.16952 10.881 9.25361 10.8676 9.56073 10.6186Z" fill="#631003"/>
<path d="M3.55267 0.952C3.70778 0.842178 4.25757 0.568796 4.44736 0.519307L4.54609 0.513846C4.41561 0.561166 4.18933 0.632448 4.08852 0.721759L4.08687 0.763541C4.06832 0.771236 4.05779 0.775521 4.03969 0.784562L4.06624 0.799207C3.98547 0.846319 3.64457 1.00928 3.6057 1.05205C3.60972 1.00287 3.58835 0.99616 3.55398 0.975831L3.55267 0.952Z" fill="var(--fill-0, #F4BD70)"/>
<path d="M3.73863 11.5044C3.70248 11.4647 3.70131 11.4757 3.69385 11.4312C3.74655 11.3904 3.97252 11.4211 4.00601 11.5025C3.99021 11.5321 3.97068 11.536 3.93587 11.5352L3.73863 11.5044Z" fill="#631003"/>
<path d="M0.265458 5.69303C0.25692 5.61826 0.272793 5.42091 0.302964 5.34829C0.311106 5.31596 0.352106 5.33219 0.357623 5.29426C0.418811 4.87317 0.504128 4.33041 0.693016 3.94614C0.683467 4.00987 0.673727 4.06098 0.675839 4.12568L0.655089 4.17378C0.713192 4.19508 0.757099 4.16894 0.817365 4.14669C0.983224 4.11707 1.22602 4.17765 1.34732 4.29789C1.4907 4.41145 1.61511 4.54024 1.69339 4.71147C1.69834 4.74353 1.70503 4.78149 1.7074 4.81375C1.73993 5.25671 1.35427 5.81561 0.940316 5.92936C0.729538 5.87275 0.564473 5.8271 0.444952 5.60061C0.413935 5.54181 0.418057 5.47929 0.371411 5.4212L0.358188 5.42009C0.335877 5.52923 0.294375 5.55374 0.265458 5.69303Z" fill="#984819"/>
<path d="M0.817365 4.14669C0.983224 4.11707 1.22602 4.17765 1.34732 4.29789C1.17917 4.2532 1.00479 4.17431 0.832314 4.18869C0.755522 4.19509 0.701222 4.24993 0.643836 4.24286C0.633211 4.20974 0.638922 4.216 0.655089 4.17378C0.713192 4.19508 0.757099 4.16894 0.817365 4.14669Z" fill="var(--fill-0, #F4BD70)"/>
<path d="M9.02391 1.11304L9.04163 1.10311C8.99603 1.03659 8.42695 0.832065 8.31229 0.783386C8.34005 0.74764 8.34252 0.727207 8.36035 0.687176C8.36556 0.675483 8.39177 0.642481 8.39517 0.643344C8.65223 0.70821 8.8958 0.835083 9.13533 0.947466C9.14384 0.944553 9.15237 0.941641 9.16088 0.938715C9.65084 1.15721 10.0301 1.63368 10.3071 2.08236C10.4437 2.30364 10.6305 2.49368 10.7854 2.70128C11.0451 3.07787 11.4031 3.66392 11.4948 4.11757C11.4843 4.19556 11.5018 4.21361 11.4558 4.26903C11.4145 4.25753 11.3256 4.13058 11.2683 4.09006C11.1565 3.85722 11.1476 3.8946 10.9709 3.73863C10.943 3.63506 10.9437 3.38989 10.9049 3.30705C10.7558 2.97362 10.4459 2.69789 10.2456 2.39975C9.85668 1.82115 9.65609 1.45743 9.02391 1.11304Z" fill="#5E1302"/>
<path d="M5.27802 0.0587599C5.93552 -0.0867691 6.91252 0.0576362 7.54973 0.277504C7.76117 0.350458 7.95619 0.455983 8.1622 0.53347C8.46301 0.646638 8.89328 0.763019 9.16088 0.938715C9.15237 0.941641 9.14384 0.944553 9.13533 0.947466C8.8958 0.835083 8.65223 0.70821 8.39517 0.643344C8.39177 0.642481 8.36556 0.675483 8.36035 0.687176C8.34252 0.727207 8.34005 0.74764 8.31229 0.783386C8.42695 0.832065 8.99603 1.03659 9.04163 1.10311L9.02391 1.11304C8.58558 0.907932 8.14203 0.756147 7.69478 0.573657C6.96033 0.273963 6.25352 0.168333 5.46681 0.260898C5.41334 0.246814 5.29027 0.118845 5.27802 0.0587599Z" fill="#631003"/>
<path d="M3.09484 10.9944C3.29896 11.0884 3.5325 11.2109 3.76399 11.2239C3.9202 11.2327 4.18554 11.1065 4.33279 11.1323C4.46265 11.155 4.55277 11.3378 4.71502 11.368C4.648 11.3692 4.5381 11.3007 4.48441 11.2623C4.4104 11.3197 4.34827 11.3321 4.32058 11.357L4.32562 11.3771C4.60753 11.4718 4.86602 11.5793 5.15651 11.6487C5.54897 11.7425 5.91424 11.7506 6.31192 11.6805C6.39997 11.6651 6.50563 11.6684 6.59412 11.6483C6.71082 11.6089 6.80823 11.5576 6.93054 11.5347C7.59773 11.4351 8.24003 11.3775 8.81024 10.9688C8.89798 10.9173 9.06658 10.8927 9.14635 10.8386C9.44407 10.6365 9.79857 10.3977 10.0729 10.172C10.2413 10.0332 10.4313 9.75926 10.5838 9.59413C10.7216 9.44479 10.8407 9.15984 10.9948 9.02081C10.9975 9.01962 11 9.01844 11.0026 9.01727C10.7964 9.41472 10.4638 9.80104 10.1598 10.1232C9.99826 10.2944 9.74915 10.4559 9.56073 10.6186C9.25361 10.8676 9.16952 10.881 8.82307 11.0297C8.62333 11.1154 8.41781 11.2816 8.17931 11.3645C7.8741 11.4707 7.59367 11.4784 7.27845 11.5339C7.14976 11.5567 7.0459 11.5892 6.92162 11.6203C6.66523 11.6584 6.45416 11.7346 6.18881 11.7658C6.13582 11.7685 6.07897 11.7694 6.02704 11.7742C5.46689 11.8262 4.86781 11.6731 4.35775 11.4442C4.17876 11.3638 4.06913 11.2826 3.85605 11.2825C3.67533 11.275 3.19664 11.1494 3.09484 10.9944Z" fill="#D37F2B"/>
<path d="M1.69339 4.71147C1.89139 4.90873 2.03568 5.01935 2.02637 5.32312C2.00672 5.96502 1.42579 6.07257 0.940316 5.92936C1.35427 5.81561 1.73993 5.25671 1.7074 4.81375C1.70503 4.78149 1.69834 4.74353 1.69339 4.71147Z" fill="#B36D33"/>
<path d="M3.62153 1.15085L3.63407 1.14191C3.64777 1.13206 3.65141 1.12911 3.66317 1.11625C3.70905 1.11018 3.70537 1.10324 3.74119 1.11937C3.73834 1.1806 3.69945 1.21754 3.66061 1.2688C3.53281 1.38773 3.42371 1.44907 3.26841 1.51933C3.20139 1.55714 3.08209 1.59888 3.023 1.64472C2.60607 1.96826 2.16873 2.28188 1.84487 2.70813C1.75628 2.82475 1.68572 2.8883 1.55546 2.9516C1.6603 2.72113 2.08597 2.21082 2.27915 2.03148C2.53537 1.79362 2.96398 1.58849 3.25983 1.39266C3.37618 1.31565 3.50217 1.22137 3.62153 1.15085Z" fill="#F7F6F2"/>
<path d="M11.2683 4.09006C11.3256 4.13058 11.4145 4.25753 11.4558 4.26903C11.5018 4.21361 11.4843 4.19556 11.4948 4.11757C11.5408 4.31816 11.6475 4.41296 11.7081 4.59421C11.8043 4.88194 11.8452 5.20497 11.9029 5.50455L11.8865 5.55625C11.7704 5.60362 11.7422 5.68619 11.7355 5.79873C11.709 5.70151 11.6908 5.50445 11.6627 5.38645C11.5579 4.94458 11.4524 4.50465 11.2683 4.09006Z" fill="#631003"/>
<path d="M5.41809 0.317928C5.46696 0.318803 5.47546 0.310938 5.51283 0.335082C5.47249 0.423087 4.68102 0.520224 4.52878 0.611207C4.37377 0.666641 4.2214 0.739985 4.06624 0.799207L4.03969 0.784562C4.05779 0.775521 4.06832 0.771236 4.08687 0.763541L4.08852 0.721759C4.18933 0.632448 4.41561 0.561166 4.54609 0.513846C4.67499 0.447947 5.24613 0.343195 5.41809 0.317928Z" fill="#F8E6C8"/>
<path d="M5.41809 0.317928C5.51939 0.295979 5.83769 0.258208 5.92462 0.288414C5.93853 0.30187 5.93463 0.293731 5.9369 0.312518C5.87537 0.396917 5.57637 0.387719 5.47793 0.40405C5.30405 0.432884 5.13359 0.475071 4.96214 0.51595C4.879 0.534698 4.58366 0.618275 4.52878 0.611207C4.68102 0.520224 5.47249 0.423087 5.51283 0.335082C5.47546 0.310938 5.46696 0.318803 5.41809 0.317928Z" fill="var(--fill-0, #F4BD70)"/>
<path d="M3.46239 1.0749L3.47107 1.09272C3.37103 1.20553 3.2024 1.37073 3.03211 1.33152L3.04009 1.30926C3.1397 1.22561 3.34203 1.12823 3.46239 1.0749Z" fill="#FCE2B6"/>
<path d="M3.55398 0.975831C3.58835 0.99616 3.60972 1.00287 3.6057 1.05205C3.67629 1.09374 3.78365 1.06889 3.8108 1.14173C3.78538 1.19284 3.71007 1.23508 3.66061 1.2688C3.69945 1.21754 3.73834 1.1806 3.74119 1.11937C3.70537 1.10324 3.70905 1.11018 3.66317 1.11625C3.65141 1.12911 3.64777 1.13206 3.63407 1.14191L3.62153 1.15085C3.60025 1.13949 3.50476 1.10677 3.47107 1.09272L3.46239 1.0749C3.47433 1.03901 3.52342 1.00311 3.55398 0.975831Z" fill="#FCE2B6"/>
<path d="M6.74078 5.95576C6.9368 5.94634 7.17985 5.959 7.23472 6.18754C7.377 6.78019 6.93627 7.3553 6.42721 7.53288C6.12454 7.636 5.7941 7.61186 5.50891 7.46579C5.11781 7.28117 4.87837 6.94592 4.82376 6.51056C4.7626 6.02288 5.35398 6.06044 5.68108 6.03169C6.03363 5.99724 6.38697 5.97192 6.74078 5.95576Z" fill="#5E1302"/>
<path d="M6.02185 6.67312C6.0387 6.67127 6.05559 6.66997 6.07252 6.66923C6.36812 6.65653 6.66701 6.71833 6.89099 6.92623C6.68852 7.22638 6.49591 7.30253 6.17005 7.39252C6.15744 7.39373 6.14481 7.39467 6.13217 7.39537C5.75469 7.4162 5.55149 7.29668 5.28503 7.05221C5.50615 6.81223 5.69743 6.71052 6.02185 6.67312Z" fill="#ED6D49"/>
<path d="M6.52629 0.87049C6.83274 0.861044 6.94993 0.919065 7.18963 1.11936C7.50129 1.37981 7.62231 1.82495 7.33594 2.15575C7.18357 2.33175 6.96458 2.36278 6.74286 2.37519C6.34391 2.36893 5.8647 2.14764 5.76547 1.70887C5.6751 1.30932 6.17954 0.931986 6.52629 0.87049Z" fill="#A3541D"/>
<path d="M7.96551 4.25577C8.38893 4.18957 8.78449 4.48704 8.84797 4.91942C8.91146 5.35179 8.61871 5.75454 8.19487 5.81793C7.77297 5.88102 7.38058 5.5839 7.31738 5.15352C7.25419 4.72312 7.54403 4.32167 7.96551 4.25577Z" fill="#5E1302"/>
<path d="M7.84858 4.53003C8.14043 4.57613 8.15588 4.94528 7.85871 5.04274C7.73916 5.02764 7.65272 4.96689 7.62298 4.84311C7.60611 4.77525 7.61743 4.70329 7.65425 4.64421C7.70296 4.56683 7.76674 4.54629 7.84858 4.53003Z" fill="#F7F6F2"/>
<path d="M8.37945 5.2009C8.4221 5.18064 8.47215 5.18553 8.51027 5.21367C8.54838 5.24181 8.56859 5.2888 8.56309 5.33649C8.55758 5.38418 8.52722 5.42508 8.48373 5.44341C8.41851 5.47089 8.34373 5.44016 8.31537 5.37422C8.28701 5.30827 8.31548 5.23128 8.37945 5.2009Z" fill="#F7F6F2"/>
<path d="M3.87435 4.41285C4.84963 4.35865 5.00955 5.80998 4.0604 6.00347C3.57478 6.02392 3.28462 5.81637 3.21176 5.3052C3.14869 4.86263 3.42649 4.45527 3.87435 4.41285Z" fill="#5E1302"/>
<path d="M3.63439 4.73627C3.75736 4.69695 3.88842 4.76592 3.92836 4.89095C3.96831 5.01598 3.90227 5.15055 3.78023 5.19276C3.70002 5.22053 3.61139 5.20212 3.54817 5.14459C3.48494 5.08707 3.45691 4.9993 3.47475 4.9148C3.4926 4.83029 3.55357 4.76211 3.63439 4.73627Z" fill="#F7F6F2"/>
<path d="M4.25593 5.38071C4.30168 5.36995 4.34952 5.38553 4.3807 5.42134C4.41189 5.45715 4.42142 5.50748 4.40558 5.55257C4.38973 5.59767 4.35103 5.63033 4.30465 5.63776C4.23639 5.64869 4.17188 5.60247 4.15876 5.53323C4.14564 5.46397 4.1886 5.39656 4.25593 5.38071Z" fill="#F7F6F2"/>
<path d="M9.01055 7.54799C9.46383 7.50637 9.71498 7.75945 9.80433 8.20389C9.83774 8.37013 9.73674 8.59915 9.64163 8.73065C9.50709 8.91685 9.34967 8.98864 9.12974 9.02102C8.95048 9.00099 8.78921 8.98713 8.63281 8.87994C8.47879 8.77162 8.34093 8.53953 8.31419 8.34988C8.24897 7.88732 8.62202 7.61643 9.01055 7.54799Z" fill="#984819"/>
<path d="M3.26445 8.7939C3.09404 9.00236 2.78542 9.07096 2.52724 9.01597C2.29041 8.95673 2.11416 8.73341 2.04503 8.50343C2.03783 8.47943 2.07162 8.39802 2.07738 8.37098C2.093 8.29767 2.10423 8.22389 2.12039 8.15072C2.19941 7.79302 2.60098 7.63133 2.92468 7.72283C3.12945 7.78074 3.2293 7.88239 3.3298 8.06586C3.52452 8.25763 3.47689 8.63363 3.26445 8.7939Z" fill="#B36D33"/>
<path d="M3.3298 8.06586C3.52452 8.25763 3.47689 8.63363 3.26445 8.7939C3.28312 8.75891 3.30146 8.72371 3.3194 8.68832C3.4359 8.45837 3.40309 8.30183 3.3298 8.06586Z" fill="var(--fill-0, #F4BD70)"/>
<path d="M3.55632 2.151C3.70689 2.1316 3.90619 2.14447 4.03523 2.23355C4.16181 2.32143 4.24851 2.4575 4.27586 2.61123C4.35385 3.07461 4.0634 3.34291 3.64321 3.41682C3.33286 3.46008 2.99547 3.42798 2.92565 3.04839C2.84334 2.60095 3.12059 2.22623 3.55632 2.151Z" fill="#984819"/>
<path d="M6.09864 9.56393C6.19534 9.29707 6.40933 9.16164 6.67976 9.12389C6.85741 9.09908 6.95015 9.12181 7.0864 9.22825C7.25829 9.372 7.23873 9.50712 7.23736 9.72446C7.24443 10.0157 6.94848 10.2847 6.66926 10.172C6.58539 10.1382 6.50736 10.0382 6.43237 9.98836C6.30532 9.90393 6.20431 9.87826 6.09858 9.76017C6.09469 9.69781 6.08749 9.62469 6.09864 9.56393Z" fill="#984819"/>
<path d="M7.0864 9.22825C7.25829 9.372 7.23873 9.50712 7.23736 9.72446C7.24443 10.0157 6.94848 10.2847 6.66926 10.172C6.58539 10.1382 6.50736 10.0382 6.43237 9.98836C6.30532 9.90393 6.20431 9.87826 6.09858 9.76017C6.09469 9.69781 6.08749 9.62469 6.09864 9.56393C6.12833 9.8295 6.24431 9.80618 6.43223 9.93334C6.5129 9.98806 6.59118 10.0904 6.68361 10.1232C7.10812 10.2735 7.21415 9.85651 7.17519 9.51646C7.15994 9.38345 7.13915 9.34276 7.0864 9.22825Z" fill="#D37F2B"/>
<path d="M8.49696 2.26809C8.54769 2.26189 8.61752 2.26508 8.67028 2.26603C8.89088 2.41744 9.08389 2.69095 9.0914 2.96568C9.09871 3.23245 8.86506 3.42031 8.619 3.41413C8.3267 3.33566 7.81232 2.98662 8.0383 2.62716C8.13325 2.4761 8.32187 2.30818 8.49696 2.26809Z" fill="#AA5921"/>
<path d="M0.875442 3.64146C0.979666 3.4006 1.52413 2.42824 1.73105 2.35929L1.75058 2.3739C1.76303 2.52417 1.47586 2.77623 1.43827 2.90646C1.39465 3.05756 1.36122 3.21139 1.31561 3.36383C1.2896 3.41676 1.28034 3.44784 1.23087 3.47061L1.20615 3.45667C1.17671 3.4113 1.17447 3.3578 1.16685 3.3032L1.14924 3.31178L1.14714 3.3225C1.05176 3.41395 0.980741 3.63106 0.901453 3.65697L0.875442 3.64146Z" fill="#FCE2B6"/>
<path d="M10.497 3.86676C10.6711 3.86595 10.8192 4.16038 10.8939 4.30332C10.9967 4.49957 11.0708 4.8056 11.0066 5.02658C10.9983 5.05509 10.9587 5.13387 10.9328 5.14723L10.9408 5.10529C11.078 4.94676 11.0008 4.6542 10.9481 4.47157C10.9321 4.41602 10.8271 4.18113 10.7794 4.15757C10.7539 4.17375 10.7516 4.17653 10.722 4.18607C10.6551 4.14664 10.5368 4.01377 10.4883 3.94319C10.4739 3.92241 10.4892 3.8926 10.497 3.86676Z" fill="#FCE2B6"/>
<path d="M6.33216 10.697C6.37948 10.7079 6.39713 10.7069 6.42866 10.7437C6.44625 10.788 6.44202 10.7965 6.4364 10.8461C6.35046 10.8292 6.32396 10.7841 6.33216 10.697Z" fill="var(--fill-0, #F4BD70)"/>
</g>
</svg>
