<svg preserveAspectRatio="none" width="100%" height="100%" overflow="visible" style="display: block;" viewBox="0 0 10 10" fill="none" xmlns="http://www.w3.org/2000/svg">
<g id="Group 696">
<path id="Vector" d="M4.39835 0.0489666C4.94627 -0.0723076 5.76043 0.0480302 6.29144 0.231253C6.46764 0.292048 6.63016 0.379986 6.80184 0.444558C7.05251 0.538865 7.41107 0.635849 7.63407 0.782262C8.04237 0.964342 8.35844 1.3614 8.58928 1.7353C8.7031 1.9197 8.85874 2.07806 8.98781 2.25106C9.20425 2.56489 9.50262 3.05326 9.579 3.43131C9.61729 3.59847 9.70626 3.67747 9.75671 3.82851C9.83693 4.06828 9.87096 4.33747 9.91907 4.58713C9.98339 4.9658 10.0215 5.31506 9.98702 5.70184C9.96974 5.89671 9.89379 6.08989 9.84227 6.27722C9.61431 7.35479 8.99891 8.3146 8.12739 8.96274C8.04653 9.02285 7.96162 9.09099 7.87543 9.14432C7.33402 9.41393 6.81048 9.766 6.18672 9.77373C5.93798 9.77689 5.76888 9.86497 5.53693 9.9206C5.06528 10.0336 4.5736 10.0259 4.10559 9.89806C3.78617 9.81162 3.58851 9.69055 3.2799 9.61271L3.11552 9.58701C2.93246 9.55805 2.70133 9.45021 2.53329 9.36495C2.21294 9.20242 2.0746 9.07608 1.89403 8.76215C1.76806 8.75636 1.64716 8.73518 1.53957 8.65641C1.25171 8.44565 0.963361 8.11256 0.804952 7.78812C0.759733 7.69549 0.72405 7.52558 0.67848 7.44955C0.55652 7.24609 0.485775 7.16529 0.401578 6.93795C0.310778 6.69276 0.293923 6.48747 0.227157 6.25616C0.171548 6.0635 0.108525 5.96657 0.0611198 5.73937C-0.029083 5.30711 -0.0118872 5.00681 0.06352 4.57164C0.0735793 4.51357 0.148197 4.37637 0.149744 4.34707C0.155696 4.23511 0.137093 4.12163 0.160827 4.00261C0.18197 3.89653 0.215615 3.79271 0.242891 3.68933C0.373757 3.1934 0.59408 2.74384 0.869073 2.31635C1.11255 1.93786 1.41219 1.60912 1.76148 1.33107C1.90558 1.21634 2.03301 1.08929 2.19728 0.991114C2.35044 0.899562 2.50977 0.827837 2.6656 0.742186C2.71629 0.717145 2.78129 0.646051 2.82835 0.625767C3.06638 0.523122 3.31043 0.359212 3.54879 0.271188C3.81674 0.172244 4.12015 0.10901 4.39835 0.0489666Z" fill="var(--fill-0, #F9C356)"/>
<path id="Vector_2" d="M1.89403 8.76202C1.76806 8.75623 1.64716 8.73504 1.53957 8.65627C1.25171 8.44551 0.963361 8.11242 0.804952 7.78798C0.759733 7.69535 0.72405 7.52544 0.67848 7.44942C0.55652 7.24595 0.485775 7.16515 0.401578 6.93781C0.310778 6.69263 0.293923 6.48733 0.227157 6.25602C0.171548 6.06336 0.108525 5.96643 0.0611198 5.73923C-0.029083 5.30697 -0.0118872 5.00668 0.06352 4.5715C0.0735793 4.51344 0.148197 4.37623 0.149744 4.34694C0.155696 4.23497 0.137093 4.12149 0.160827 4.00247C0.18197 3.8964 0.215615 3.79257 0.242891 3.68919C0.373757 3.19326 0.59408 2.7437 0.869073 2.31622C1.11255 1.93772 1.41219 1.60899 1.76148 1.33093C1.90558 1.2162 2.03301 1.08915 2.19728 0.990976C2.35044 0.899424 2.50977 0.827698 2.6656 0.742047C2.71629 0.717006 2.78129 0.645912 2.82835 0.625629C3.06638 0.522983 3.31043 0.359074 3.54879 0.27105C3.81674 0.172106 4.12015 0.108872 4.39835 0.0488281C4.40856 0.098899 4.51112 0.205541 4.55567 0.217277C4.37394 0.241512 3.86287 0.351203 3.70613 0.432618L3.78841 0.428067C3.67967 0.467501 3.49111 0.526903 3.4071 0.601329L3.40573 0.636146C3.39027 0.642559 3.38149 0.64613 3.36641 0.653664L3.38853 0.665869C3.32122 0.705128 3.03714 0.840926 3.00475 0.876571C3.0081 0.835592 2.99029 0.829995 2.96165 0.813055L2.96056 0.793196C2.91521 0.820992 2.86515 0.851955 2.81797 0.875973C1.76684 1.41097 1.03029 2.16503 0.577514 3.28832C0.420107 3.60853 0.349009 4.06084 0.29802 4.41175C0.293422 4.44335 0.259255 4.42983 0.25247 4.45677C0.227327 4.51729 0.2141 4.68174 0.221215 4.74405C0.185031 5.12573 0.165009 5.46496 0.259606 5.84661C0.283192 5.94175 0.36629 6.10377 0.383166 6.18859C0.431372 6.45661 0.498181 6.6948 0.597781 6.94653C0.656548 7.09504 0.818296 7.28712 0.856123 7.39699C1.02725 7.89402 1.30393 8.30383 1.76578 8.56068C1.79671 8.57789 1.90686 8.58159 1.94551 8.58991C2.01458 8.65645 2.0756 8.78593 2.14648 8.85625C2.28064 8.98936 2.42024 9.07301 2.57903 9.16187C2.66387 9.291 3.06277 9.39569 3.21337 9.40192C3.39094 9.40206 3.4823 9.46971 3.63146 9.53666C4.05651 9.72743 4.55574 9.85503 5.02253 9.8117C5.06581 9.80767 5.11318 9.80691 5.15734 9.80473C5.37847 9.77871 5.55436 9.71524 5.76801 9.68345C5.87158 9.65753 5.95814 9.63043 6.06538 9.61148C6.32806 9.56521 6.56175 9.55879 6.81609 9.47028C7.01484 9.40116 7.18611 9.26272 7.35256 9.19126C7.64127 9.06733 7.71134 9.05618 7.96727 8.84868C8.1243 8.7131 8.33188 8.57857 8.4665 8.43589C8.71985 8.16739 8.99699 7.84547 9.16884 7.51425C9.38464 7.24043 9.50443 6.68273 9.62337 6.35223C9.71117 6.1084 9.76013 5.91837 9.78594 5.65875C9.814 5.37669 9.78082 5.11079 9.77954 4.83214C9.7852 4.73836 9.80866 4.66955 9.90542 4.63007L9.91907 4.58699C9.98339 4.96566 10.0215 5.31492 9.98702 5.7017C9.96974 5.89658 9.89379 6.08975 9.84227 6.27708C9.61431 7.35465 8.99891 8.31446 8.12739 8.96261C8.04653 9.02271 7.96162 9.09085 7.87543 9.14418C7.33402 9.41379 6.81048 9.76586 6.18672 9.77359C5.93798 9.77675 5.76888 9.86483 5.53693 9.92046C5.06528 10.0335 4.5736 10.0257 4.10559 9.89793C3.78617 9.81148 3.58851 9.69041 3.2799 9.61257L3.11552 9.58688C2.93246 9.55792 2.70133 9.45008 2.53329 9.36482C2.21294 9.20228 2.0746 9.07594 1.89403 8.76202Z" fill="var(--fill-0, #5E1302)"/>
<path id="Vector_3" d="M3.21359 9.40151C3.39116 9.40165 3.48251 9.46929 3.63167 9.53625C4.05672 9.72702 4.55595 9.85462 5.02274 9.81128C5.06602 9.80726 5.11339 9.80649 5.15756 9.80432C4.65364 9.9648 3.8713 9.74357 3.42151 9.48605C3.36597 9.45427 3.2745 9.42628 3.21359 9.40151Z" fill="var(--fill-0, #631003)"/>
<path id="Vector_4" d="M7.96725 8.84905C7.88789 9.0125 7.5092 9.14552 7.35744 9.22072C7.15799 9.31956 6.97595 9.44366 6.76245 9.51784C6.65182 9.55633 6.49891 9.55513 6.4105 9.58953L6.4116 9.59726C6.4307 9.59803 6.46535 9.59792 6.48237 9.60282C6.4308 9.61828 6.40218 9.61076 6.35404 9.62241C6.33115 9.62797 6.25501 9.68033 6.23121 9.68295C6.08549 9.69928 5.91155 9.70048 5.768 9.68382C5.87157 9.65791 5.95812 9.6308 6.06536 9.61185C6.32804 9.56558 6.56173 9.55916 6.81607 9.47065C7.01482 9.40153 7.18609 9.26309 7.35254 9.19163C7.64125 9.0677 7.71132 9.05655 7.96725 8.84905Z" fill="var(--fill-0, #631003)"/>
<path id="Vector_5" d="M2.96038 0.793421C3.08964 0.701902 3.5478 0.474085 3.70595 0.432843L3.78823 0.428292C3.67949 0.467726 3.49093 0.527128 3.40692 0.601554L3.40555 0.636371C3.39009 0.642784 3.38131 0.646355 3.36623 0.653889L3.38835 0.666094C3.32104 0.705354 3.03696 0.841151 3.00457 0.876797C3.00792 0.835817 2.99011 0.830221 2.96147 0.81328L2.96038 0.793421Z" fill="var(--fill-0, #F4BD70)"/>
<path id="Vector_6" d="M3.11628 9.58774C3.08615 9.55464 3.08518 9.56378 3.07896 9.52669C3.12288 9.49271 3.31119 9.51827 3.3391 9.5861C3.32593 9.61082 3.30965 9.61408 3.28065 9.61343L3.11628 9.58774Z" fill="var(--fill-0, #631003)"/>
<path id="Vector_7" d="M0.221641 4.74396C0.214526 4.68165 0.227753 4.5172 0.252896 4.45668C0.259681 4.42974 0.293848 4.44326 0.298445 4.41166C0.349435 4.06075 0.420533 3.60844 0.57794 3.28823C0.569982 3.34133 0.561864 3.38393 0.563624 3.43784L0.546333 3.47793C0.594751 3.49567 0.63134 3.47389 0.681562 3.45535C0.819778 3.43066 1.02211 3.48115 1.12319 3.58135C1.24267 3.67598 1.34635 3.78331 1.41158 3.926C1.41571 3.95271 1.42129 3.98435 1.42326 4.01123C1.45037 4.38037 1.12898 4.84612 0.784021 4.9409C0.608373 4.89373 0.470818 4.85569 0.371218 4.66695C0.345371 4.61795 0.348806 4.56584 0.309934 4.51744L0.298915 4.51651C0.280322 4.60747 0.245738 4.62789 0.221641 4.74396Z" fill="var(--fill-0, #984819)"/>
<path id="Vector_8" d="M0.681337 3.45625C0.819554 3.43157 1.02188 3.48205 1.12296 3.58225C0.982838 3.54502 0.837528 3.47927 0.693797 3.49125C0.629803 3.49659 0.584553 3.54228 0.536731 3.53639C0.527877 3.50879 0.532635 3.51401 0.546108 3.47883C0.594527 3.49658 0.631116 3.47479 0.681337 3.45625Z" fill="var(--fill-0, #F4BD70)"/>
<path id="Vector_9" d="M7.51964 0.927139L7.5344 0.918865C7.4964 0.863437 7.02217 0.692996 6.92662 0.65243C6.94974 0.622642 6.9518 0.605614 6.96666 0.572255C6.971 0.562511 6.99285 0.53501 6.99568 0.535728C7.2099 0.589784 7.41288 0.695511 7.61248 0.789164C7.61958 0.786736 7.62668 0.784308 7.63378 0.781869C8.04208 0.963949 8.35815 1.36101 8.58899 1.7349C8.70281 1.9193 8.85845 2.07767 8.98752 2.25067C9.20396 2.5645 9.50233 3.05287 9.5787 3.43091C9.56996 3.49591 9.58457 3.51095 9.54617 3.55713C9.51182 3.54755 9.43768 3.44176 9.39 3.408C9.29677 3.21396 9.28941 3.24511 9.14209 3.11514C9.11884 3.02882 9.11948 2.82452 9.08715 2.75548C8.96288 2.47763 8.70462 2.24785 8.53768 1.9994C8.21361 1.51723 8.04645 1.21413 7.51964 0.927139Z" fill="var(--fill-0, #5E1302)"/>
<path id="Vector_10" d="M4.39802 0.0489666C4.94593 -0.0723076 5.7601 0.0480302 6.2911 0.231253C6.46731 0.292048 6.62982 0.379986 6.8015 0.444558C7.05217 0.538865 7.41073 0.635849 7.63374 0.782262C7.62664 0.784701 7.61954 0.787129 7.61244 0.789557C7.41284 0.695904 7.20986 0.590177 6.99564 0.536121C6.99281 0.535402 6.97096 0.562904 6.96662 0.572648C6.95176 0.606007 6.9497 0.623035 6.92658 0.652822C7.02212 0.693389 7.49636 0.86383 7.53436 0.919258L7.51959 0.927532C7.15431 0.756611 6.78469 0.630122 6.41199 0.478048C5.79994 0.228303 5.21093 0.140279 4.55534 0.217416C4.51078 0.205679 4.40823 0.0990375 4.39802 0.0489666Z" fill="var(--fill-0, #631003)"/>
<path id="Vector_11" d="M2.57952 9.16157C2.74962 9.23986 2.94424 9.34201 3.13714 9.35285C3.26732 9.36015 3.48844 9.25501 3.61115 9.27649C3.71937 9.29544 3.79446 9.44771 3.92967 9.47291C3.87382 9.47386 3.78224 9.41679 3.7375 9.38481C3.67582 9.43266 3.62404 9.443 3.60097 9.46372L3.60517 9.48047C3.8401 9.55936 4.0555 9.64896 4.29758 9.70677C4.62463 9.78494 4.92902 9.79169 5.26042 9.73334C5.3338 9.72049 5.42185 9.72321 5.49559 9.70645C5.59283 9.67367 5.67401 9.63089 5.77594 9.61183C6.33193 9.5288 6.86718 9.48085 7.34236 9.14024C7.41547 9.09731 7.55597 9.07682 7.62245 9.03169C7.87055 8.86327 8.16596 8.66432 8.39456 8.4762C8.53494 8.36056 8.69324 8.13228 8.82029 7.99467C8.93518 7.87022 9.03438 7.63276 9.16282 7.5169C9.16506 7.51591 9.16719 7.51493 9.16933 7.51395C8.99748 7.84517 8.72034 8.16709 8.46699 8.43559C8.33237 8.57827 8.12478 8.7128 7.96776 8.84838C7.71183 9.05588 7.64176 9.06703 7.35305 9.19096C7.18659 9.26242 7.01533 9.40086 6.81658 9.46998C6.56224 9.55849 6.32855 9.56491 6.06586 9.61118C5.95863 9.63013 5.87207 9.65723 5.7685 9.68315C5.55485 9.71494 5.37895 9.77841 5.15783 9.80443C5.11367 9.80661 5.06629 9.80737 5.02302 9.8114C4.55623 9.85473 4.057 9.72713 3.63195 9.53636C3.48278 9.46941 3.39143 9.40176 3.21386 9.40162C3.06326 9.39539 2.66436 9.2907 2.57952 9.16157Z" fill="var(--fill-0, #D37F2B)"/>
<path id="Vector_12" d="M1.4116 3.92578C1.5766 4.09017 1.69684 4.18235 1.68909 4.43549C1.67271 4.97041 1.1886 5.06004 0.78404 4.94069C1.129 4.8459 1.45038 4.38015 1.42328 4.01102C1.42131 3.98414 1.41573 3.9525 1.4116 3.92578Z" fill="var(--fill-0, #B36D33)"/>
<path id="Vector_13" d="M3.01776 0.959463L3.02822 0.952016C3.03963 0.943807 3.04266 0.941347 3.05246 0.930634C3.0907 0.925571 3.08763 0.91979 3.11748 0.933236C3.1151 0.984254 3.0827 1.01504 3.05033 1.05775C2.94383 1.15686 2.85291 1.20798 2.7235 1.26653C2.66765 1.29804 2.56823 1.33282 2.51899 1.37103C2.17155 1.64064 1.8071 1.90199 1.53722 2.2572C1.46339 2.35438 1.40459 2.40734 1.29604 2.46009C1.3834 2.26804 1.73813 1.84278 1.89911 1.69332C2.11263 1.49511 2.46981 1.32417 2.71635 1.16098C2.8133 1.0968 2.9183 1.01823 3.01776 0.959463Z" fill="var(--fill-0, #F7F6F2)"/>
<path id="Vector_14" d="M9.39035 3.4082C9.43803 3.44196 9.51217 3.54776 9.54652 3.55734C9.58492 3.51115 9.5703 3.49612 9.57905 3.43112C9.61735 3.59829 9.70631 3.67728 9.75677 3.82832C9.83699 4.0681 9.87102 4.33729 9.91912 4.58694L9.90547 4.63002C9.80872 4.6695 9.78525 4.73831 9.7796 4.83209C9.75752 4.75107 9.74237 4.58686 9.71901 4.48852C9.63164 4.1203 9.54374 3.75369 9.39035 3.4082Z" fill="var(--fill-0, #631003)"/>
<path id="Vector_15" d="M4.51502 0.264134C4.55575 0.264863 4.56283 0.258309 4.59397 0.278429C4.56035 0.351766 3.90079 0.432713 3.77393 0.508533C3.64476 0.554728 3.51777 0.615849 3.38847 0.665202L3.36635 0.652997C3.38143 0.645463 3.39021 0.641892 3.40567 0.635479L3.40705 0.600662C3.49105 0.526236 3.67962 0.466834 3.78835 0.4274C3.89577 0.372484 4.37172 0.28519 4.51502 0.264134Z" fill="var(--fill-0, #F8E6C8)"/>
<path id="Vector_16" d="M4.5155 0.265556C4.59993 0.247266 4.86517 0.21579 4.93761 0.240962C4.94921 0.252176 4.94595 0.245393 4.94785 0.261049C4.89657 0.331381 4.64741 0.323716 4.56537 0.337326C4.42047 0.361354 4.27842 0.396509 4.13555 0.430576C4.06626 0.446199 3.82014 0.515845 3.77441 0.509955C3.90128 0.434136 4.56084 0.353189 4.59445 0.279851C4.56332 0.259732 4.55623 0.266286 4.5155 0.265556Z" fill="var(--fill-0, #F4BD70)"/>
<path id="Vector_17" d="M2.88507 0.895647L2.8923 0.910498C2.80893 1.0045 2.66841 1.14217 2.52651 1.1095L2.53315 1.09094C2.61617 1.02123 2.78477 0.940089 2.88507 0.895647Z" fill="var(--fill-0, #FCE2B6)"/>
<path id="Vector_18" d="M2.96207 0.813337C2.99071 0.830278 3.00852 0.835874 3.00517 0.876854C3.06399 0.911595 3.15346 0.890888 3.17609 0.951585C3.1549 0.994176 3.09214 1.02937 3.05093 1.05747C3.08329 1.01476 3.1157 0.983974 3.11808 0.932956C3.08823 0.919511 3.09129 0.925292 3.05306 0.930354C3.04326 0.941067 3.04023 0.943528 3.02881 0.951737L3.01836 0.959184C3.00063 0.949723 2.92105 0.92245 2.89298 0.910746L2.88574 0.895896C2.89569 0.865988 2.9366 0.83607 2.96207 0.813337Z" fill="var(--fill-0, #FCE2B6)"/>
<path id="Vector_19" d="M5.61764 4.96271C5.78099 4.95486 5.98353 4.96541 6.02926 5.15587C6.14783 5.64974 5.78055 6.129 5.35634 6.27698C5.10411 6.36291 4.82874 6.34279 4.59109 6.22107C4.26517 6.06722 4.06563 5.78784 4.02013 5.42504C3.96916 5.01864 4.46198 5.04994 4.73456 5.02599C5.02835 4.99728 5.3228 4.97618 5.61764 4.96271Z" fill="var(--fill-0, #5E1302)"/>
<path id="Vector_20" d="M5.01832 5.5612C5.03236 5.55966 5.04644 5.55858 5.06054 5.55796C5.30688 5.54738 5.55595 5.59887 5.7426 5.77212C5.57387 6.02225 5.41337 6.08571 5.14181 6.1607C5.13131 6.16171 5.12079 6.16249 5.11025 6.16308C4.79568 6.18043 4.62635 6.08083 4.4043 5.87711C4.58856 5.67712 4.74797 5.59236 5.01832 5.5612Z" fill="var(--fill-0, #ED6D49)"/>
<path id="Vector_21" d="M5.43852 0.726253C5.69389 0.718381 5.79155 0.766732 5.9913 0.933646C6.25102 1.15069 6.35186 1.52164 6.11323 1.79731C5.98625 1.94397 5.80376 1.96983 5.61899 1.98017C5.28653 1.97496 4.88719 1.79055 4.8045 1.4249C4.7292 1.09195 5.14956 0.7775 5.43852 0.726253Z" fill="var(--fill-0, #A3541D)"/>
<path id="Vector_22" d="M6.63827 3.54563C6.99113 3.49046 7.32076 3.73836 7.37366 4.09867C7.42657 4.45898 7.1826 4.7946 6.82941 4.84743C6.47783 4.9 6.15083 4.6524 6.09817 4.29375C6.04551 3.93509 6.28704 3.60054 6.63827 3.54563Z" fill="var(--fill-0, #5E1302)"/>
<path id="Vector_23" d="M6.54063 3.77511C6.78384 3.81353 6.79671 4.12116 6.54907 4.20237C6.44945 4.18979 6.37741 4.13916 6.35263 4.03602C6.33857 3.97947 6.348 3.9195 6.37869 3.87027C6.41928 3.80578 6.47243 3.78867 6.54063 3.77511Z" fill="var(--fill-0, #F7F6F2)"/>
<path id="Vector_24" d="M6.98288 4.33369C7.01842 4.31681 7.06013 4.32088 7.0919 4.34433C7.12366 4.36778 7.1405 4.40694 7.13591 4.44668C7.13133 4.48642 7.10602 4.52051 7.06979 4.53578C7.01544 4.55868 6.95312 4.53307 6.92948 4.47812C6.90585 4.42316 6.92958 4.359 6.98288 4.33369Z" fill="var(--fill-0, #F7F6F2)"/>
<path id="Vector_25" d="M3.22838 3.67869C4.04111 3.63353 4.17438 4.84297 3.38342 5.00421C2.97873 5.02125 2.73693 4.84829 2.67622 4.42232C2.62366 4.05351 2.85516 3.71404 3.22838 3.67869Z" fill="var(--fill-0, #5E1302)"/>
<path id="Vector_26" d="M3.02876 3.94754C3.13123 3.91478 3.24045 3.97225 3.27374 4.07644C3.30703 4.18063 3.252 4.29277 3.15029 4.32795C3.08345 4.35109 3.00959 4.33575 2.95691 4.28781C2.90422 4.23987 2.88086 4.16673 2.89573 4.09631C2.9106 4.02589 2.96141 3.96907 3.02876 3.94754Z" fill="var(--fill-0, #F7F6F2)"/>
<path id="Vector_27" d="M3.54695 4.48382C3.58507 4.47485 3.62493 4.48784 3.65092 4.51768C3.67691 4.54752 3.68485 4.58946 3.67165 4.62703C3.65844 4.66462 3.62619 4.69183 3.58755 4.69803C3.53066 4.70713 3.4769 4.66862 3.46597 4.61092C3.45504 4.55321 3.49084 4.49703 3.54695 4.48382Z" fill="var(--fill-0, #F7F6F2)"/>
<path id="Vector_28" d="M7.50895 6.28998C7.88668 6.2553 8.09598 6.4662 8.17043 6.83656C8.19828 6.97509 8.11411 7.16595 8.03485 7.27553C7.92274 7.4307 7.79155 7.49052 7.60828 7.5175C7.45889 7.50081 7.32451 7.48926 7.19417 7.39994C7.06582 7.30967 6.95094 7.11626 6.92865 6.95822C6.8743 6.57275 7.18518 6.34701 7.50895 6.28998Z" fill="var(--fill-0, #984819)"/>
<path id="Vector_29" d="M2.72042 7.32813C2.57842 7.50185 2.32123 7.55902 2.10608 7.5132C1.90872 7.46382 1.76184 7.27773 1.70424 7.08608C1.69823 7.06608 1.7264 6.99824 1.7312 6.9757C1.74421 6.91461 1.75357 6.85313 1.76704 6.79215C1.83289 6.49407 2.16753 6.35932 2.43728 6.43558C2.60792 6.48383 2.69113 6.56855 2.77488 6.72144C2.93715 6.88124 2.89745 7.19458 2.72042 7.32813Z" fill="var(--fill-0, #B36D33)"/>
<path id="Vector_30" d="M2.77488 6.72154C2.93715 6.88134 2.89746 7.19468 2.72042 7.32824C2.73599 7.29908 2.75126 7.26975 2.76622 7.24026C2.8633 7.04863 2.83596 6.91818 2.77488 6.72154Z" fill="var(--fill-0, #F4BD70)"/>
<path id="Vector_31" d="M2.96366 1.79223C3.08914 1.77606 3.25522 1.78679 3.36275 1.86103C3.46823 1.93426 3.54048 2.04765 3.56328 2.17576C3.62826 2.56191 3.38622 2.78549 3.03607 2.84708C2.77744 2.88313 2.49628 2.85638 2.4381 2.54006C2.36951 2.16719 2.60055 1.85492 2.96366 1.79223Z" fill="var(--fill-0, #984819)"/>
<path id="Vector_32" d="M5.0817 7.9692C5.16228 7.74681 5.3406 7.63395 5.56596 7.60249C5.714 7.58181 5.79129 7.60076 5.90483 7.68946C6.04807 7.80925 6.03177 7.92185 6.03063 8.10297C6.03652 8.34568 5.7899 8.56986 5.55721 8.47594C5.48732 8.44773 5.42229 8.36441 5.3598 8.32288C5.25393 8.25253 5.16976 8.23114 5.08164 8.13272C5.0784 8.08076 5.07241 8.01982 5.0817 7.9692Z" fill="var(--fill-0, #984819)"/>
<path id="Vector_33" d="M5.90483 7.68973C6.04807 7.80953 6.03177 7.92212 6.03063 8.10325C6.03652 8.34596 5.7899 8.57014 5.55721 8.47621C5.48732 8.448 5.42229 8.36468 5.3598 8.32316C5.25393 8.2528 5.16976 8.23141 5.08164 8.133C5.0784 8.08103 5.07241 8.0201 5.0817 7.96947C5.10643 8.19078 5.20309 8.17135 5.35969 8.27731C5.42691 8.32291 5.49214 8.40822 5.56917 8.43549C5.92293 8.56075 6.01129 8.21328 5.97882 7.92991C5.96611 7.81906 5.94879 7.78516 5.90483 7.68973Z" fill="var(--fill-0, #D37F2B)"/>
<path id="Vector_34" d="M7.0812 1.89066C7.12347 1.8855 7.18166 1.88815 7.22563 1.88895C7.40946 2.01512 7.5703 2.24305 7.57657 2.47199C7.58266 2.6943 7.38795 2.85085 7.1829 2.8457C6.93931 2.78031 6.51067 2.48944 6.69898 2.18989C6.77811 2.06401 6.93529 1.92407 7.0812 1.89066Z" fill="var(--fill-0, #AA5921)"/>
<path id="Vector_35" d="M0.729632 3.03415C0.816485 2.83344 1.27021 2.02313 1.44263 1.96568L1.45891 1.97785C1.46929 2.10308 1.22998 2.31313 1.19865 2.42165C1.16231 2.54757 1.13445 2.67576 1.09644 2.8028C1.07476 2.8469 1.06705 2.8728 1.02582 2.89178L1.00522 2.88016C0.980687 2.84235 0.97882 2.79777 0.972473 2.75227L0.957795 2.75942L0.956045 2.76835C0.876563 2.84456 0.817381 3.02549 0.751308 3.04708L0.729632 3.03415Z" fill="var(--fill-0, #FCE2B6)"/>
<path id="Vector_36" d="M8.74754 3.22266C8.89261 3.22198 9.01603 3.46734 9.07833 3.58646C9.16399 3.75 9.22575 4.00502 9.1722 4.18917C9.16527 4.21293 9.13231 4.27858 9.11076 4.28972L9.11737 4.25477C9.23173 4.12266 9.1674 3.87886 9.12345 3.72667C9.11012 3.68037 9.02265 3.48463 8.98286 3.465C8.96163 3.47848 8.95971 3.4808 8.93507 3.48874C8.87928 3.45589 8.78071 3.34516 8.74028 3.28635C8.72834 3.26903 8.74103 3.24419 8.74754 3.22266Z" fill="var(--fill-0, #FCE2B6)"/>
<path id="Vector_37" d="M5.2774 8.91323C5.31684 8.92224 5.33155 8.92145 5.35783 8.95214C5.37248 8.98905 5.36896 8.99613 5.36428 9.03743C5.29266 9.02332 5.27058 8.98579 5.2774 8.91323Z" fill="var(--fill-0, #F4BD70)"/>
</g>
</svg>
