<svg preserveAspectRatio="none" width="100%" height="100%" overflow="visible" style="display: block;" viewBox="0 0 26.5957 29.25" fill="none" xmlns="http://www.w3.org/2000/svg">
<g id="Frame 1618873351">
<g id="Vector">
<path d="M0.0854321 2.45572C0.365909 1.51113 0.825352 0.885874 1.68596 0.419336C2.48039 -0.0172929 3.41769 -0.117736 4.28732 0.140531C5.15319 0.398723 6.28976 1.22135 7.1218 1.68965L14.4315 5.87255C14.803 6.08967 15.2616 6.24674 15.6158 6.46528C16.6704 7.11603 17.8265 7.71292 18.8665 8.37847C18.4458 8.75787 18.0089 9.21934 17.601 9.62367L15.4147 11.7786L13.4043 13.7651C13.1472 14.0183 12.749 14.3682 12.5189 14.6215L16.7877 18.8277C17.3874 19.4299 18.307 20.486 18.906 20.9927C18.5413 21.2039 18.1762 21.3022 17.8611 21.4779L10.4424 25.7069L6.5255 27.9805C5.69008 28.4666 5.08815 28.9758 4.11175 29.1696C2.65109 29.4595 1.16297 28.9699 0.41441 27.6271C0.284699 27.3897 0.12792 27.0717 0.102354 26.797C-0.0454043 26.0221 0.0094871 23.5781 0.0121189 22.6648L0.0343001 14.7744L0.0211419 4.1468C0.0211419 3.61951 0.00121382 2.96599 0.0854321 2.45572Z" fill="#4385F6"/>
<path d="M12.5189 14.6215L16.7877 18.8277C17.3874 19.4299 18.307 20.486 18.906 20.9927C18.5413 21.2039 18.1762 21.3022 17.8611 21.4779L10.4424 25.7069L6.5255 27.9805C5.69008 28.4666 5.08815 28.9758 4.11175 29.1696C2.65109 29.4595 1.16297 28.9699 0.41441 27.6271C0.284699 27.3897 0.12792 27.0717 0.102354 26.797C0.323051 26.6553 0.826483 26.1469 1.04267 25.9445C2.10668 24.9475 3.1188 23.8937 4.1595 22.8667L8.81895 18.2753C10.0085 17.1154 11.3605 15.8366 12.4888 14.6356L12.5189 14.6215Z" fill="#EB4137"/>
<path d="M0.0854321 2.45572C0.365909 1.51113 0.825352 0.885874 1.68596 0.419336C2.48039 -0.0172929 3.41769 -0.117736 4.28732 0.140531C5.15319 0.398723 6.28976 1.22135 7.1218 1.68965L14.4315 5.87255C14.803 6.08967 15.2616 6.24674 15.6158 6.46528C16.6704 7.11603 17.8265 7.71292 18.8665 8.37847C18.4458 8.75787 18.0089 9.21934 17.601 9.62367L15.4147 11.7786L13.4043 13.7651C13.1472 14.0183 12.749 14.3682 12.5189 14.6215L12.4888 14.6356C12.3099 14.318 10.8541 13.092 10.4939 12.6969C9.8401 11.9802 9.06107 11.209 8.36289 10.5214C7.85006 9.98732 7.23609 9.53117 6.73191 8.99125C5.54759 7.72345 4.27755 6.47252 2.99097 5.30842C2.53528 4.89589 0.521187 2.6183 0.0854321 2.45572Z" fill="#33A853"/>
<path d="M12.5189 14.6215C12.749 14.3682 13.1472 14.0183 13.4043 13.7651L15.4147 11.7786L17.601 9.62367C18.0089 9.21934 18.4458 8.75787 18.8665 8.37847C19.3229 8.57879 19.9478 8.96138 20.3933 9.21533L22.8007 10.5847C24.1583 11.3614 25.7735 11.9748 26.3837 13.5433C26.6834 14.3135 26.6646 15.1705 26.3322 15.9271C25.775 17.1799 25.2118 17.3689 24.0831 17.9861C22.6093 18.7923 21.1693 19.7156 19.6974 20.5301C19.4368 20.676 19.1639 20.86 18.906 20.9927C18.307 20.486 17.3874 19.4299 16.7877 18.8277L12.5189 14.6215Z" fill="var(--fill-0, #FDBC02)"/>
</g>
</g>
</svg>
