<svg preserveAspectRatio="none" width="100%" height="100%" overflow="visible" style="display: block;" viewBox="0 0 45.4295 46.9531" fill="none" xmlns="http://www.w3.org/2000/svg">
<g id="Frame 1618873351">
<g id="Vector">
<path d="M7.89708 2.80768C8.21163 1.72772 8.72689 1.01284 9.69206 0.479438C10.583 -0.0197714 11.6342 -0.134611 12.6095 0.160673C13.5805 0.455871 14.8552 1.3964 15.7883 1.93182L23.9861 6.71425C24.4027 6.96248 24.9171 7.14207 25.3143 7.39193C26.497 8.13594 27.7936 8.81838 28.9599 9.57933C28.4881 10.0131 27.9981 10.5407 27.5406 11.003L25.0887 13.4667L22.8341 15.738C22.5457 16.0275 22.0992 16.4276 21.8411 16.7171L26.6286 21.5262C27.3011 22.2147 28.3325 23.4222 29.0042 24.0015C28.5952 24.2429 28.1858 24.3554 27.8324 24.5563L19.5124 29.3914L15.1196 31.9909C14.1827 32.5466 13.5076 33.1288 12.4126 33.3504C10.7744 33.6818 9.10553 33.1221 8.26602 31.5868C8.12055 31.3154 7.94473 30.9518 7.91605 30.6377C7.75034 29.7518 7.8119 26.9574 7.81486 25.9133L7.83973 16.892L7.82497 4.74115C7.82497 4.13828 7.80263 3.3911 7.89708 2.80768Z" fill="#4385F6"/>
<path d="M21.8411 16.7171L26.6286 21.5262C27.3011 22.2147 28.3325 23.4222 29.0042 24.0015C28.5952 24.2429 28.1858 24.3554 27.8324 24.5563L19.5124 29.3914L15.1196 31.9909C14.1827 32.5466 13.5076 33.1288 12.4126 33.3504C10.7744 33.6818 9.10553 33.1221 8.26602 31.5868C8.12055 31.3154 7.94473 30.9518 7.91605 30.6377C8.16356 30.4757 8.72816 29.8945 8.97061 29.663C10.1639 28.5232 11.299 27.3183 12.4661 26.1441L17.6917 20.8946C19.0258 19.5684 20.542 18.1064 21.8074 16.7333L21.8411 16.7171Z" fill="#EB4137"/>
<path d="M7.89708 2.80768C8.21163 1.72772 8.72689 1.01284 9.69206 0.479438C10.583 -0.0197714 11.6342 -0.134611 12.6095 0.160673C13.5805 0.455871 14.8552 1.3964 15.7883 1.93182L23.9861 6.71425C24.4027 6.96248 24.9171 7.14207 25.3143 7.39193C26.497 8.13594 27.7936 8.81838 28.9599 9.57933C28.4881 10.0131 27.9981 10.5407 27.5406 11.003L25.0887 13.4667L22.8341 15.738C22.5457 16.0275 22.0992 16.4276 21.8411 16.7171L21.8074 16.7333C21.6067 16.3702 19.9741 14.9684 19.5701 14.5167C18.8369 13.6972 17.9632 12.8155 17.1802 12.0294C16.6051 11.4188 15.9165 10.8972 15.3511 10.2799C14.0229 8.83043 12.5985 7.4002 11.1556 6.06926C10.6446 5.5976 8.38577 2.99357 7.89708 2.80768Z" fill="#33A853"/>
<path d="M21.8411 16.7171C22.0992 16.4276 22.5457 16.0275 22.8341 15.738L25.0887 13.4667L27.5406 11.003C27.9981 10.5407 28.4881 10.0131 28.9599 9.57933C29.4718 9.80836 30.1726 10.2458 30.6722 10.5361L33.3721 12.1017C34.8947 12.9898 36.7061 13.6911 37.3904 15.4844C37.7265 16.365 37.7054 17.3449 37.3327 18.2099C36.7078 19.6422 36.0762 19.8583 34.8104 20.564C33.1575 21.4858 31.5425 22.5414 29.8918 23.4726C29.5996 23.6395 29.2934 23.8498 29.0042 24.0015C28.3325 23.4222 27.3011 22.2147 26.6286 21.5262L21.8411 16.7171Z" fill="var(--fill-0, #FDBC02)"/>
</g>
<g id="Vector_2">
<path d="M19.0788 40.4281C19.6697 40.3772 19.9799 40.6543 20.4143 40.9422L20.4168 40.5793C20.7162 40.5813 21.0157 40.5809 21.3152 40.5782C21.331 41.4866 21.3116 42.4092 21.3189 43.3202C21.3119 43.8776 21.3344 44.4164 21.3084 44.9742C21.2047 47.1963 18.3115 47.6488 17.2863 45.8104C17.249 45.7434 17.2494 45.676 17.2768 45.6041C17.3563 45.5352 17.5589 45.4674 17.6647 45.4262C17.7783 45.3925 17.9189 45.3261 18.0299 45.2776C18.134 45.3966 18.2349 45.5922 18.3501 45.7071C18.5741 45.9335 18.8801 46.0598 19.1985 46.0572C20.2687 46.0491 20.4113 45.2498 20.3962 44.4004C19.6461 45.0857 18.6739 45.1029 17.8777 44.4631C16.2978 43.1935 17.0263 40.6337 19.0788 40.4281ZM19.371 44.039C19.7259 43.9814 19.9764 43.859 20.1924 43.5583C20.4274 43.2305 20.5213 42.8222 20.4531 42.4247C20.3398 41.7235 19.8075 41.2779 19.0883 41.3246C18.7119 41.4136 18.4222 41.5824 18.2142 41.9222C18.0137 42.2466 17.9506 42.6375 18.0389 43.0085C18.2038 43.6832 18.6685 44.0558 19.371 44.039Z" fill="var(--fill-0, #626367)"/>
<path d="M30.4396 38.2122C30.486 38.2099 30.5324 38.2083 30.579 38.2076L31.9299 38.2044C32.8493 38.2058 33.6368 38.1724 34.3274 38.8626C35.1377 39.6725 35.06 41.1021 34.1556 41.8031C33.5741 42.2538 33.0662 42.3068 32.3723 42.3103C32.0321 42.3069 31.6921 42.3096 31.3521 42.3184L31.3531 44.788C31.0594 44.7641 30.713 44.8001 30.3912 44.7777C30.3654 44.3755 30.3847 43.7304 30.3847 43.314L30.3845 38.9395C30.3845 38.8185 30.3767 38.3433 30.3944 38.2415L30.4396 38.2122ZM31.3526 41.3876C32.1004 41.3933 32.9845 41.5458 33.5731 41.0386C33.9733 40.6405 33.9754 39.8785 33.5718 39.4787C33.2389 39.1494 32.8106 39.1144 32.3691 39.1262C32.0469 39.1362 31.6688 39.1159 31.3514 39.1356C31.3505 39.8276 31.3231 40.7117 31.3526 41.3876Z" fill="var(--fill-0, #626367)"/>
<path d="M3.18819 37.9816C3.86365 37.9017 4.77881 38.0606 5.33751 38.4494C5.46675 38.5394 5.83546 38.7583 5.87008 38.9094C5.83417 39.0388 5.40198 39.4379 5.27637 39.5789C4.28112 38.7296 3.01815 38.6267 1.97055 39.4544C1.4562 39.861 1.12667 40.4574 1.05598 41.1096C0.996581 41.6187 1.0664 42.0476 1.26553 42.5189C2.13129 44.5681 5.55454 44.4894 5.8224 42.0758C5.08554 42.0989 4.32144 42.0669 3.57803 42.0852C3.56979 41.8888 3.56931 41.6855 3.5664 41.4885L3.56827 41.1522C3.92565 41.1331 4.40648 41.145 4.77321 41.1451L6.75473 41.1498C6.76504 41.2555 6.77433 41.3612 6.78259 41.4671C6.9238 43.3248 5.74451 44.7791 3.86965 44.9151C2.8843 44.9957 1.90845 44.6728 1.16538 44.0203C-0.268653 42.7737 -0.396318 40.5354 0.877353 39.147C1.48342 38.4864 2.28828 38.0428 3.18819 37.9816Z" fill="var(--fill-0, #626367)"/>
<path d="M9.26547 40.4242C10.5027 40.3386 11.5774 41.2674 11.6728 42.5047C11.7683 43.742 10.8487 44.8248 9.613 44.9301C8.36334 45.0366 7.26633 44.1037 7.16982 42.8524C7.07331 41.6011 8.01426 40.5109 9.26547 40.4242ZM9.58327 43.9934C10.3068 43.903 10.8202 43.2429 10.7301 42.5189C10.6401 41.7949 9.98065 41.2809 9.25705 41.3707C8.53308 41.4606 8.01913 42.1209 8.10922 42.8453C8.19934 43.5697 8.85937 44.0838 9.58327 43.9934Z" fill="var(--fill-0, #626367)"/>
<path d="M14.2189 40.4228C15.4548 40.3515 16.5176 41.2892 16.6017 42.525C16.6859 43.7608 15.76 44.8341 14.5259 44.9312C13.7161 44.9949 12.9345 44.6185 12.479 43.9453C12.0236 43.2722 11.9647 42.4061 12.3246 41.6774C12.6846 40.9487 13.4079 40.4696 14.2189 40.4228ZM14.5314 44.0315C14.9391 43.9274 15.1908 43.7995 15.4187 43.4182C15.6157 43.0924 15.6725 42.7007 15.5763 42.3323C15.3999 41.6425 14.8772 41.2828 14.174 41.3246C12.5257 41.7031 12.795 44.1491 14.5314 44.0315Z" fill="var(--fill-0, #626367)"/>
<path d="M38.5625 40.4479C38.6428 40.4407 38.7233 40.4366 38.8038 40.4358C39.383 40.4357 39.9389 40.5865 40.3612 41.0029C40.9215 41.5552 40.8167 42.3399 40.8163 43.0647L40.8142 44.7755C40.5257 44.7605 40.2076 44.7698 39.9167 44.7724C39.9197 44.59 39.9105 44.409 39.9031 44.2268C39.6978 44.5001 39.487 44.725 39.1512 44.8308C38.3697 45.0773 37.5921 44.8166 37.1394 44.1428C37.1281 44.1225 37.1181 44.1016 37.1091 44.0801C36.7435 43.2128 37.1539 42.4698 37.9884 42.1483C38.4458 41.9721 38.944 41.9765 39.4252 42.0565C39.5391 42.0755 39.8115 42.2011 39.9222 42.2468C39.8644 41.3937 38.87 41.0933 38.2124 41.5189C38.1051 41.5884 38.0175 41.6868 37.9301 41.7797C37.7379 41.7335 37.4431 41.5939 37.2494 41.5222C37.1707 41.4932 37.1592 41.473 37.1364 41.4104C37.177 41.073 37.6738 40.7423 37.9635 40.6111C38.1623 40.5211 38.3487 40.4853 38.5625 40.4479ZM38.9159 44.0345C39.4259 43.8885 39.8519 43.5714 39.8966 42.9986C39.5477 42.8295 39.3018 42.7589 38.9064 42.7838C38.7281 42.7998 38.643 42.8096 38.4622 42.8653C38.0154 43.0028 37.7351 43.5223 38.1429 43.8747C38.3572 44.0597 38.6412 44.0492 38.9159 44.0345Z" fill="var(--fill-0, #626367)"/>
<path d="M25.4863 40.4281C26.184 40.3792 26.9085 40.7695 27.2725 41.362C27.3836 41.5429 27.6226 41.8807 27.5802 42.0967C27.5223 42.2046 24.9055 43.2381 24.6213 43.3677C24.7987 43.6351 24.9163 43.8182 25.2335 43.9573C25.6389 44.1351 26.1775 44.0467 26.521 43.7746C26.6195 43.6967 26.7191 43.523 26.834 43.4783C26.9583 43.4755 27.0817 43.5841 27.1807 43.6586C27.3177 43.7507 27.4655 43.8426 27.5832 43.9575C27.2729 44.4676 26.56 44.8535 25.9748 44.9153C25.3712 44.9851 24.7648 44.809 24.2924 44.4268C23.8154 44.0384 23.5808 43.5423 23.5176 42.9342C23.3813 41.6265 24.1521 40.5589 25.4863 40.4281ZM24.4753 42.6117C24.645 42.538 24.9163 42.4093 25.084 42.3617C25.3066 42.268 26.3574 41.8572 26.4518 41.7507C26.3812 41.4567 25.886 41.2891 25.6152 41.305C24.8965 41.3579 24.4626 41.9061 24.4753 42.6117Z" fill="var(--fill-0, #626367)"/>
<path d="M44.349 40.6153C44.6482 40.5685 45.1183 40.5847 45.4295 40.5881C45.3503 40.8711 45.1697 41.1857 45.0597 41.4627C44.7748 42.1792 44.4097 42.904 44.1318 43.6172C43.8981 44.1496 43.6587 44.6769 43.4236 45.2084C43.1932 45.729 42.9946 46.2896 42.7178 46.7868C42.3961 46.7917 42.0741 46.7943 41.7521 46.7946C41.9368 46.1431 42.4595 45.2606 42.6966 44.5745C42.5317 44.022 41.0054 40.8508 41.0209 40.6088L41.0792 40.5915C41.3862 40.6017 41.6877 40.5856 42.0106 40.6002C42.1481 40.8401 42.2828 41.2184 42.3901 41.4842L42.9081 42.7381C43.0082 42.9824 43.088 43.2153 43.1994 43.457C43.3217 43.2488 43.3671 43.0378 43.4672 42.8295C43.8024 42.1313 44.0116 41.3041 44.349 40.6153Z" fill="var(--fill-0, #626367)"/>
<path d="M35.4622 38.2085L36.4006 38.2011C36.4301 38.7689 36.3971 39.5171 36.4036 40.0989C36.4211 41.65 36.3775 43.2275 36.4089 44.777C36.0919 44.7806 35.775 44.7825 35.4581 44.7827C35.4507 44.4715 35.4489 44.147 35.4544 43.8354C35.4883 41.9696 35.4023 40.0702 35.4622 38.2085Z" fill="var(--fill-0, #626367)"/>
<path d="M22.0565 38.21C22.3581 38.2013 22.6724 38.2045 22.9753 38.2037C22.9942 38.7348 22.9804 39.3401 22.9801 39.8791L22.9792 42.9691C22.9792 43.2555 23.0168 44.5935 22.9682 44.7648L22.9338 44.7733C22.6455 44.765 22.3281 44.7704 22.0374 44.7696L22.036 40.5587C22.036 39.864 22.0083 38.884 22.0565 38.21Z" fill="var(--fill-0, #626367)"/>
</g>
</g>
</svg>
