<svg preserveAspectRatio="none" width="100%" height="100%" overflow="visible" style="display: block;" viewBox="0 0 77 67" fill="none" xmlns="http://www.w3.org/2000/svg">
<g id="Vector">
<path d="M46.4987 9.66447C46.5743 8.45955 46.7974 7.23158 46.938 5.97623C47.1301 4.26263 47.254 2.3106 47.6097 0.619121C47.6407 0.471038 47.9666 0.269671 48.098 0.219484C49.6873 -0.385919 54.0482 0.395387 55.5272 0.943911C56.6338 1.16591 57.5942 1.55024 58.6581 1.92094C58.9171 2.01116 59.5907 2.27547 59.8292 2.32572C60.6483 2.63335 63.1497 3.97768 63.3945 4.72633C63.7198 5.72232 61.5518 9.51342 61.1583 10.5813C60.8472 11.4254 60.3931 12.4512 60.0709 13.1683L59.7034 14.2227L59.6749 14.5265L59.7561 14.5899C60.9092 14.8378 61.6478 15.0915 62.6497 15.7234C64.1597 16.6754 65.2651 18.0496 63.4472 19.4748C64.8667 21.1261 67.2857 24.2267 67.4957 26.4162C69.2493 28.1925 69.8664 33.7082 69.8534 36.1907C69.8491 36.5137 69.8348 36.8364 69.8113 37.1585C72.2061 39.2436 73.6994 41.5053 74.3016 44.6751C75.2689 45.3374 75.4238 45.6757 75.2608 46.8362C76.43 48.0736 77.0435 49.5754 76.9976 51.2768C76.9586 52.7168 76.5013 53.7521 74.9634 53.9095C74.0792 54.9095 73.5785 55.0179 72.3207 54.6171C70.5114 56.1066 68.8924 54.6363 68.779 52.6375C66.9449 51.6306 67.2696 49.7601 68.3384 48.2774C67.5782 47.4354 67.7746 46.7724 68.3992 45.9384C68.1637 45.3263 68.0057 44.861 67.6513 44.3015C66.7138 45.4124 67.2473 46.2191 66.4077 47.5841C65.2682 49.4354 64.0067 50.6796 62.4105 52.1158C61.7544 52.7062 61.2457 53.3518 60.4693 53.8754C59.7449 54.3636 58.9723 54.425 58.318 54.9225C58.8031 56.8897 59.5045 58.1989 61.1447 59.4846C62.6342 60.6519 63.1783 61.572 62.0871 63.3353C61.1595 64.7945 59.639 66.4104 57.9344 66.9203C56.7448 67.2759 55.8983 66.3887 55.6703 65.3087C55.4975 64.4896 55.7094 63.8081 55.9746 63.0348C53.1479 61.6736 52.1769 60.142 51.4365 57.1797C48.8861 58.2237 46.8742 58.3575 44.2086 57.7553L44.1628 57.8296C43.2872 59.2782 42.8089 61.7523 42.3597 63.4022C42.1292 64.2486 42.0348 65.1761 41.6031 65.9568C41.266 66.5665 40.4335 66.683 39.8051 66.6768C37.8889 66.657 35.9425 66.1179 34.2822 65.1625C33.5854 64.7598 32.8976 64.1451 32.7047 63.3428C32.3845 62.0113 33.2926 60.7095 34.6165 60.4561C35.0817 60.3669 35.4837 60.3495 35.9593 60.3483C36.0635 59.8396 36.1719 59.2324 36.3094 58.7392C36.6716 57.5161 36.8911 56.961 37.4066 55.7776C36.11 55.3339 34.9468 54.583 34.2208 53.4082C31.1158 52.2911 29.2302 49.4906 28.1403 46.6008C28.0921 46.4732 26.8851 44.0586 26.9581 44.1336C25.6786 42.8126 25.3323 41.8907 24.845 40.1564C21.3467 40.1893 18.5477 38.6512 16.6768 35.6974C15.8883 35.4547 15.1411 34.7929 14.4258 34.4477C13.6656 34.0808 13.7672 33.3607 13.6992 33.2992C12.6846 32.3818 12.2215 31.5184 13.195 30.2933C12.8233 29.0858 13.043 28.459 14.0827 27.7493C13.8744 25.4508 15.8912 25.852 16.1485 25.3212C15.8696 25.1696 14.8482 25.3063 14.4943 25.328C11.8788 25.4883 9.36715 26.1963 6.99953 27.3063C6.49125 27.5446 5.99494 27.9266 5.49726 28.1916C4.58091 28.6927 4.20139 28.6119 3.24334 28.3741C2.34136 28.1502 1.54961 27.3485 1.14704 26.5296C-0.629158 22.9162 -0.0873644 17.4592 1.05342 13.7435C1.7407 11.5049 3.21037 8.29282 5.31584 7.1563C6.14055 6.71113 7.25394 6.67482 8.08274 7.1301C8.89965 7.5788 9.34776 8.56885 9.93621 9.24538C10.3149 9.6807 10.8264 10.1997 11.2476 10.5907C13.3124 12.5073 16.3593 14.5891 19.0667 15.4391C20.9805 16.0399 23.1218 16.4838 25.0764 17.091C25.2848 17.2873 25.3533 17.4131 25.5039 17.6494L25.5361 17.7166C25.8905 18.4443 26.667 18.657 27.087 19.2381C27.6382 20.0005 27.5175 21.48 27.3606 22.3607C26.949 24.3252 26.4468 25.1689 24.4207 25.3961C24.0101 25.771 23.8788 25.9394 23.3834 26.205C22.7919 26.1957 22.1651 26.0846 21.5767 25.9983L21.1605 27.2169C22.0968 28.5027 22.0593 29.5659 21.5846 31.0523C22.0876 31.8246 22.0806 32.1053 21.8246 32.9628C22.7477 33.661 23.3896 33.8231 24.4956 33.96C24.6878 28.9781 26.5459 24.2047 29.7724 20.4038C30.9827 18.9663 32.3887 17.7057 33.9493 16.6588C34.9352 16.0018 35.5779 15.709 36.4707 14.8864C37.1966 14.2175 39.4397 13.6007 40.4796 13.5079C40.6618 13.7624 40.8146 13.9767 41.0176 14.2161C41.5929 14.6413 41.8166 15.1205 42.6782 15.707C42.9254 15.7202 42.9861 15.7338 43.2216 15.6785L43.2371 15.604C43.141 15.4867 43.0406 15.3683 42.9551 15.2431L42.9093 15.1743C41.9541 14.5068 40.565 13.2236 40.8715 11.9382C40.9772 11.78 41.1901 11.5247 41.3452 11.4187C42.2178 10.8225 44.6963 11.1293 45.679 11.3315C45.8673 11.2522 46.0192 11.2985 46.2205 11.3102C46.1505 11.2042 46.0873 11.1244 46.0099 11.0243L46.0452 10.9429L46.3098 10.8594L46.373 10.5247C46.4052 10.2414 46.4287 9.93846 46.4987 9.66447Z" fill="#F4BF55"/>
<path d="M14.0827 27.7493C13.8744 25.4508 15.8912 25.852 16.1485 25.3212C15.8696 25.1696 14.8482 25.3063 14.4943 25.328C11.8788 25.4883 9.36715 26.1963 6.99953 27.3063C6.49125 27.5446 5.99494 27.9266 5.49726 28.1916C4.58091 28.6927 4.20139 28.6119 3.24334 28.3741C2.34136 28.1502 1.54961 27.3485 1.14704 26.5296C-0.629158 22.9162 -0.0873644 17.4592 1.05342 13.7435C1.7407 11.5049 3.21037 8.29282 5.31584 7.1563C6.14055 6.71113 7.25394 6.67482 8.08274 7.1301C8.89965 7.5788 9.34776 8.56885 9.93621 9.24538C10.3149 9.6807 10.8264 10.1997 11.2476 10.5907C13.3124 12.5073 16.3593 14.5891 19.0667 15.4391C20.9805 16.0399 23.1218 16.4838 25.0764 17.091C25.2848 17.2873 25.3533 17.4131 25.5039 17.6494L25.5361 17.7166C25.8905 18.4443 26.667 18.657 27.087 19.2381C27.6382 20.0005 27.5175 21.48 27.3606 22.3607C26.949 24.3252 26.4468 25.1689 24.4207 25.3961C24.0101 25.771 23.8788 25.9394 23.3834 26.205C22.7919 26.1957 22.1651 26.0846 21.5767 25.9983L21.1605 27.2169C22.0968 28.5027 22.0593 29.5659 21.5846 31.0523C22.0876 31.8246 22.0806 32.1053 21.8246 32.9628C22.7477 33.661 23.3896 33.8231 24.4956 33.96C24.6878 28.9781 26.5459 24.2047 29.7724 20.4038C30.9827 18.9663 32.3887 17.7057 33.9493 16.6588C34.9352 16.0018 35.5779 15.709 36.4707 14.8864C37.1966 14.2175 39.4397 13.6007 40.4796 13.5079C40.6618 13.7624 40.8146 13.9767 41.0176 14.2161C40.5488 14.4068 40.2515 14.323 39.865 14.4352C39.3203 14.5558 37.8212 15.1178 37.4082 15.4498C36.9676 15.7211 36.7136 15.8916 36.3004 16.2079C35.1853 16.9777 33.746 17.8565 32.719 18.707C31.1855 19.9771 28.7041 22.8539 27.9609 24.6638C27.1133 25.9995 26.6766 27.4506 26.28 28.9625C26.1274 29.3656 25.3779 33.3236 25.3937 33.7567C25.1885 35.6025 25.0596 36.9593 25.4353 38.8149C25.7131 40.1874 25.9955 41.5084 26.8885 42.6521C27.0905 42.9204 27.4172 43.1391 27.6308 43.4012C27.8389 43.8442 28.0248 44.3281 28.2137 44.7798C28.3826 45.2073 28.7454 45.69 28.9033 46.1138C29.5929 47.9657 30.4821 49.6114 31.9492 50.9726C32.749 51.7143 33.6326 51.9708 34.5283 52.5154C34.7792 52.6678 35.0627 53.2744 35.3054 53.4782C36.1911 54.2385 37.5839 55.0632 38.6858 55.3903C39.369 55.6183 40.1347 55.5601 40.5017 55.8383C40.7155 56.3668 39.5733 56.4715 39.2572 56.4771C38.9262 56.368 38.4887 56.2373 38.1726 56.1115C37.829 56.728 37.8424 56.8854 37.5994 57.4864C37.4186 58.0298 37.2079 58.614 37.1259 59.1797C37.0036 58.878 36.65 58.4591 36.3094 58.7392C36.6716 57.5161 36.8911 56.961 37.4066 55.7776C36.11 55.3339 34.9468 54.583 34.2208 53.4082C31.1158 52.2911 29.2302 49.4906 28.1403 46.6008C28.0921 46.4732 26.8851 44.0586 26.9581 44.1336C25.6786 42.8126 25.3323 41.8907 24.845 40.1564C21.3467 40.1893 18.5477 38.6512 16.6768 35.6974C15.8883 35.4547 15.1411 34.7929 14.4258 34.4477C13.6656 34.0808 13.7672 33.3607 13.6992 33.2992C12.6846 32.3818 12.2215 31.5184 13.195 30.2933C12.8233 29.0858 13.043 28.459 14.0827 27.7493Z" fill="#5C210C"/>
<path d="M3.5164 9.71428C4.47718 8.15316 6.17921 6.54055 8.03479 7.76536C9.75256 9.51651 9.8937 11.6529 10.0272 13.9813C10.3388 16.2297 9.15171 21.384 8.2304 23.48C8.04358 23.9614 7.90411 24.2443 7.66952 24.6949L7.57571 24.8362C7.35544 25.2683 7.12729 25.6199 6.86854 26.0269C3.95391 30.0085 1.32549 27.3806 0.741193 23.5421C0.0758461 19.1713 0.982036 13.3965 3.5164 9.71428Z" fill="#6C2B16"/>
<path d="M1.64726 18.2901C1.87856 15.5963 2.87398 12.4969 4.41572 10.248C4.92796 9.50084 6.25828 8.25868 7.14446 9.17983C8.34119 10.4237 8.20859 12.8663 8.38543 14.4763C8.41108 14.1852 8.39175 13.8652 8.54275 13.6432C8.77412 13.5211 8.67789 13.5504 8.96725 13.5823C9.00969 14.091 9.05666 15.2754 8.93373 15.7631L8.83112 15.8811C8.59579 15.9216 8.56245 15.9147 8.3278 15.8648C8.20084 17.6069 7.87852 19.3292 7.3669 20.9993C7.55545 21.0402 7.62311 21.0348 7.81538 21.011C7.93317 21.1021 7.902 21.0563 7.96012 21.1859C7.75763 21.8085 7.60632 22.2371 7.34645 22.8366C7.00672 22.8486 6.99798 22.737 6.83663 22.4651C6.65502 22.9142 6.07369 24.261 5.78656 24.6051C5.68655 24.4819 5.35803 24.3971 5.1983 24.3259C2.87051 23.2885 3.17549 19.8658 3.18125 17.7852C2.67099 18.0575 2.20182 18.1622 1.64726 18.2901Z" fill="#D0CBD6"/>
<path d="M8.38543 14.4763C8.41108 14.1852 8.39175 13.8652 8.54275 13.6432C8.77412 13.5211 8.67789 13.5504 8.96725 13.5823C9.00969 14.091 9.05666 15.2754 8.93373 15.7631L8.83112 15.8811C8.59579 15.9216 8.56245 15.9147 8.3278 15.8648C8.20084 17.6069 7.87852 19.3292 7.3669 20.9993L7.31547 21.0798C7.08999 21.0939 5.89493 20.1518 5.45674 19.9596C5.36609 20.0855 5.33096 20.146 5.25666 20.278L5.30716 20.3757L5.28349 20.424C5.11669 20.353 4.94332 20.2654 4.75558 20.184C3.17679 19.4883 3.88154 15.7596 5.11211 15.1448C5.54689 14.9276 7.65341 14.6697 8.38543 14.4763Z" fill="#5C210C"/>
<path d="M8.34113 15.108L8.3278 15.8648C8.20084 17.6069 7.87852 19.3292 7.3669 20.9993L7.31547 21.0798C7.08999 21.0939 5.89493 20.1518 5.45674 19.9596C5.47031 19.7963 5.54826 19.7424 5.6575 19.5844C5.84543 19.3834 5.87963 19.2823 5.99934 19.0389C6.405 19.0539 6.66531 19.0176 6.86253 18.6487C7.25927 17.9064 7.32477 16.1227 7.11013 15.3466L7.61413 15.2421C7.89556 15.2139 8.07023 15.1715 8.34113 15.108Z" fill="#D0CBD6"/>
<path d="M5.46795 15.5516C6.0701 15.1552 6.89611 15.216 7.61413 15.2421L7.11013 15.3466C7.32477 16.1227 7.25927 17.9064 6.86253 18.6487C6.66531 19.0176 6.405 19.0539 5.99934 19.0389C5.87963 19.2823 5.84543 19.3834 5.6575 19.5844C5.57044 19.2828 5.47111 19.3232 5.19706 19.272C5.71586 18.5083 6.3063 16.1378 5.46795 15.5516Z" fill="#FEFDFD"/>
<path d="M5.46795 15.5516C6.0701 15.1552 6.89611 15.216 7.61413 15.2421L7.11013 15.3466L6.03713 15.4586C6.62484 16.6276 6.4366 17.7075 6.04029 18.9187C6.0271 18.959 6.01347 18.999 5.99934 19.0389C5.87963 19.2823 5.84543 19.3834 5.6575 19.5844C5.57044 19.2828 5.47111 19.3232 5.19706 19.272C5.71586 18.5083 6.3063 16.1378 5.46795 15.5516Z" fill="#6C2B16"/>
<path d="M5.46795 15.5516C6.3063 16.1378 5.71586 18.5083 5.19706 19.272C5.01947 19.4562 5.08243 19.447 4.87467 19.4866C3.98248 18.9944 4.55686 16.172 5.46795 15.5516Z" fill="#E4543E"/>
<path d="M5.45674 19.9596C5.89493 20.1518 7.08999 21.0939 7.31547 21.0798L7.3669 20.9993C7.55545 21.0402 7.62311 21.0348 7.81538 21.011C7.93317 21.1021 7.902 21.0563 7.96012 21.1859C7.75763 21.8085 7.60632 22.2371 7.34645 22.8366C7.00672 22.8486 6.99798 22.737 6.83663 22.4651L7.09811 21.7725C6.49919 21.1799 5.82653 20.9034 5.28349 20.424L5.30716 20.3757L5.25666 20.278C5.33096 20.146 5.36609 20.0855 5.45674 19.9596Z" fill="#622916"/>
<path d="M1.64726 18.2901C2.20182 18.1622 2.67099 18.0575 3.18125 17.7852C3.17549 19.8658 2.87051 23.2885 5.1983 24.3259C5.35803 24.3971 5.68655 24.4819 5.78656 24.6051C5.55947 24.9921 5.19842 25.5499 4.84691 25.8336C2.74306 27.5317 1.94108 24.5661 1.70011 23.0234C1.44477 21.3884 1.52123 19.9305 1.64726 18.2901Z" fill="#FEFDFD"/>
<path d="M8.96663 13.3091C9.09167 13.7593 9.44621 13.633 9.58414 14.0978C9.593 14.4682 9.54901 15.0193 9.83112 15.2848C10.0708 14.9785 10.0206 14.3903 10.0272 13.9813C10.3388 16.2297 9.15171 21.384 8.2304 23.48C8.04358 23.9614 7.90411 24.2443 7.66952 24.6949L7.57571 24.8362C7.21893 25.1076 6.88899 25.8491 6.67677 26.0015C6.49435 25.8121 6.46269 25.7503 6.2084 25.6873L6.2193 25.455L6.08119 25.5218C6.15406 25.1907 6.54293 24.9677 6.64957 24.4151C6.71469 24.1845 7.21931 23.1162 7.34645 22.8366C7.60632 22.2371 7.75763 21.8085 7.96012 21.1859C7.902 21.0563 7.93317 21.1021 7.81538 21.011C7.62311 21.0348 7.55545 21.0402 7.3669 20.9993C7.87852 19.3292 8.20084 17.6069 8.3278 15.8648C8.56245 15.9147 8.59579 15.9216 8.83112 15.8811L8.93373 15.7631C9.05666 15.2754 9.00969 14.091 8.96725 13.5823L8.96663 13.3091Z" fill="#E4543E"/>
<path d="M8.3278 15.8648C8.56245 15.9147 8.59579 15.9216 8.83112 15.8811L8.93373 15.7631L8.95827 15.9867C8.85386 16.2533 8.75503 17.6063 8.67429 18.0394C8.48977 19.03 8.2563 20.2281 7.96012 21.1859C7.902 21.0563 7.93317 21.1021 7.81538 21.011C7.62311 21.0348 7.55545 21.0402 7.3669 20.9993C7.87852 19.3292 8.20084 17.6069 8.3278 15.8648Z" fill="#6C2B16"/>
<path d="M6.86854 26.0269C3.95391 30.0085 1.32549 27.3806 0.741193 23.5421C0.0758461 19.1713 0.982036 13.3965 3.5164 9.71428C3.75117 9.89793 3.7992 9.86076 4.10002 9.80692C1.64354 12.9113 0.740449 18.3443 1.07628 22.2262C1.43888 26.4174 3.74733 29.1424 6.64957 24.4151C6.54293 24.9677 6.15406 25.1907 6.08119 25.5218L6.2193 25.455L6.2084 25.6873C6.46269 25.7503 6.49435 25.8121 6.67677 26.0015C6.88899 25.8491 7.21893 25.1076 7.57571 24.8362C7.35544 25.2683 7.12729 25.6199 6.86854 26.0269Z" fill="#CA4232"/>
<path d="M3.5164 9.71428C4.47718 8.15316 6.17921 6.54055 8.03479 7.76536C9.75256 9.51651 9.8937 11.6529 10.0272 13.9813C10.0206 14.3903 10.0708 14.9785 9.83112 15.2848C9.54901 15.0193 9.593 14.4682 9.58414 14.0978C9.44621 13.633 9.09167 13.7593 8.96663 13.3091C8.92053 12.8464 8.86923 12.3842 8.81265 11.9226C8.58748 10.6064 8.33288 9.52042 7.29434 8.58297C5.87046 7.97553 4.95869 8.7015 4.10002 9.80692C3.7992 9.86076 3.75117 9.89793 3.5164 9.71428Z" fill="#E4543E"/>
<path d="M8.03479 7.76536C9.75256 9.51651 9.8937 11.6529 10.0272 13.9813C10.0206 14.3903 10.0708 14.9785 9.83112 15.2848C9.54901 15.0193 9.593 14.4682 9.58414 14.0978C9.44621 13.633 9.09167 13.7593 8.96663 13.3091C8.92053 12.8464 8.86923 12.3842 8.81265 11.9226C8.84748 11.7343 8.98887 11.5321 9.0074 11.3444C9.06162 10.7968 8.93868 10.8579 9.10462 10.322L9.09049 10.2796C8.84537 9.31087 7.82641 8.83726 7.65608 7.78996L8.03479 7.76536Z" fill="#F2B3A7"/>
<path d="M9.10462 10.322C9.50818 11.3475 9.60261 13.0011 9.58414 14.0978C9.44621 13.633 9.09167 13.7593 8.96663 13.3091C8.92053 12.8464 8.86923 12.3842 8.81265 11.9226C8.84748 11.7343 8.98887 11.5321 9.0074 11.3444C9.06162 10.7968 8.93868 10.8579 9.10462 10.322Z" fill="#F16F55"/>
<path d="M10.0355 10.1833C12.0447 12.1692 13.8006 13.662 16.3638 14.954C17.0968 15.3235 17.8213 15.6058 18.5664 15.9413C18.9655 18.5096 18.9881 20.2897 17.9468 22.7514C17.6098 23.5291 17.354 23.9789 16.8776 24.6867C13.8212 24.6034 11.7011 24.8169 8.78211 25.8844C8.54578 25.9709 7.38437 26.498 7.29007 26.4241L7.32526 26.3649C7.66531 25.9245 7.94178 25.4566 8.1918 24.9611C7.99643 24.6881 7.98893 24.6909 7.66952 24.6949C7.90411 24.2443 8.04358 23.9614 8.2304 23.48C8.38171 23.5146 8.69158 23.599 8.83155 23.589L9.10933 22.9498C10.2193 19.7703 10.8091 15.9857 10.5007 12.6132C10.4291 11.8298 10.214 10.9486 10.0355 10.1833Z" fill="#FEFDFD"/>
<path d="M9.10933 22.9498C9.31597 23.1277 10.3607 22.9086 10.728 22.8692C12.9961 22.6259 15.6881 22.4178 17.9468 22.7514C17.6098 23.5291 17.354 23.9789 16.8776 24.6867C13.8212 24.6034 11.7011 24.8169 8.78211 25.8844C8.54578 25.9709 7.38437 26.498 7.29007 26.4241L7.32526 26.3649C7.66531 25.9245 7.94178 25.4566 8.1918 24.9611C7.99643 24.6881 7.98893 24.6909 7.66952 24.6949C7.90411 24.2443 8.04358 23.9614 8.2304 23.48C8.38171 23.5146 8.69158 23.599 8.83155 23.589L9.10933 22.9498Z" fill="#D0CBD6"/>
<path d="M8.2304 23.48C8.38171 23.5146 8.69158 23.599 8.83155 23.589L8.1918 24.9611C7.99643 24.6881 7.98893 24.6909 7.66952 24.6949C7.90411 24.2443 8.04358 23.9614 8.2304 23.48Z" fill="#6C2B16"/>
<path d="M19.0551 16.0546C20.761 16.5827 22.7217 17.0466 24.4721 17.5411C24.9905 17.8903 25.2169 18.3255 25.3352 18.9332C25.3808 19.158 25.4038 19.387 25.4034 19.6165C25.4026 20.4257 25.4488 21.4474 25.1738 22.208C25.0422 22.7231 24.8603 23.1682 24.6702 23.6628C24.2701 24.5631 23.9771 25.0954 23.1586 25.661C21.3709 25.3593 19.1173 25.0097 17.3537 24.8054C17.9441 24.2088 18.1983 23.5628 18.5264 22.8059C19.3933 20.6635 19.5779 18.3058 19.0551 16.0546Z" fill="#E4543E"/>
<path d="M18.5264 22.8059C19.4754 23.0737 23.9538 24.0364 24.6702 23.6628C24.2701 24.5631 23.9771 25.0954 23.1586 25.661C21.3709 25.3593 19.1173 25.0097 17.3537 24.8054C17.9441 24.2088 18.1983 23.5628 18.5264 22.8059Z" fill="#CA4232"/>
<path d="M21.0572 17.4747C21.9915 17.568 23.0086 17.8444 23.9201 18.098C24.2479 18.1892 24.5355 18.3084 24.5899 18.6707C24.4942 18.9132 24.5334 18.8331 24.3052 19.0126C23.9945 19.0551 21.2557 18.4245 20.8895 18.2571C20.6159 17.9238 20.7833 17.7438 21.0572 17.4747Z" fill="#F2B3A7"/>
<path d="M23.6618 18.376C23.952 18.3674 24.0871 18.3326 24.2969 18.4945C24.2813 18.7456 24.2846 18.6692 24.121 18.907C23.9192 18.955 23.826 18.8699 23.6912 18.7419C23.6359 18.5752 23.6144 18.5477 23.6618 18.376Z" fill="#F5CEC5"/>
<path d="M21.3622 33.592C22.5401 34.3837 23.0006 34.5512 24.3835 34.6951C24.2639 36.7187 24.239 37.509 24.6401 39.4734C23.4416 39.3689 22.6461 39.2747 21.5033 38.8627C19.7134 38.0572 18.6779 37.0864 17.4837 35.5814C18.9039 35.5518 20.4566 34.6613 21.3622 33.592Z" fill="#F0B34E"/>
<path d="M17.7435 28.4245C18.5313 27.6245 19.5104 26.3105 20.6478 27.5045C21.142 28.0232 21.4235 28.6923 21.4172 29.4051C21.4255 30.0392 21.1269 30.5945 21.0621 31.03C21.0964 31.3095 21.0431 31.4858 21.3402 31.5924C21.7066 32.6324 21.0594 33.1762 20.3654 33.8104C20.23 33.9126 20.0752 34.0361 19.9378 34.1308C19.5796 34.4308 18.5661 34.7626 18.0712 34.9473C18.9444 33.6853 19.6575 30.7508 20.2174 29.2703C20.1758 29.2516 19.9525 29.1764 19.9314 29.1977C19.3478 29.7889 17.7658 30.1186 17.5081 29.0757C17.4525 28.8506 17.5872 28.6175 17.7435 28.4245Z" fill="#FEFDFD"/>
<path d="M20.3364 29.1534L20.369 29.5536C20.5891 30.5513 19.7003 31.8896 19.9529 32.3551C20.4884 32.0113 20.761 31.5689 21.0621 31.03C21.0964 31.3095 21.0431 31.4858 21.3402 31.5924C21.7066 32.6324 21.0594 33.1762 20.3654 33.8104C20.23 33.9126 20.0752 34.0361 19.9378 34.1308C19.5796 34.4308 18.5661 34.7626 18.0712 34.9473C18.9444 33.6853 19.6575 30.7508 20.2174 29.2703L20.3364 29.1534Z" fill="#D0CBD6"/>
<path d="M19.9529 32.3551C20.4884 32.0113 20.761 31.5689 21.0621 31.03C21.0964 31.3095 21.0431 31.4858 21.3402 31.5924C21.7066 32.6324 21.0594 33.1762 20.3654 33.8104C19.763 33.8645 19.2306 33.0672 19.7499 32.7662C19.7866 32.4885 19.7456 32.596 19.9529 32.3551Z" fill="#FEFDFD"/>
<path d="M19.9529 32.3551C20.4884 32.0113 20.761 31.5689 21.0621 31.03C21.0964 31.3095 21.0431 31.4858 21.3402 31.5924C20.73 32.2226 20.6244 32.4838 19.7499 32.7662C19.7866 32.4885 19.7456 32.596 19.9529 32.3551Z" fill="#6C2B16"/>
<path d="M20.369 29.5536C20.5891 30.5513 19.7003 31.8896 19.9529 32.3551C19.7456 32.596 19.7866 32.4885 19.7499 32.7662C19.2306 33.0672 19.763 33.8645 20.3654 33.8104C20.23 33.9126 20.0752 34.0361 19.9378 34.1308C19.7359 33.8463 19.2705 33.5109 19.1147 33.2384C18.9376 32.9286 19.6521 31.9635 19.7733 31.6284C20.0194 30.9485 20.2139 30.2537 20.369 29.5536Z" fill="#E4E1E4"/>
<path d="M17.7435 28.4245C17.7031 30.3292 19.5933 28.695 20.1848 28.7973C20.3151 28.9388 20.3097 28.954 20.3364 29.1534L20.2174 29.2703C20.1758 29.2516 19.9525 29.1764 19.9314 29.1977C19.3478 29.7889 17.7658 30.1186 17.5081 29.0757C17.4525 28.8506 17.5872 28.6175 17.7435 28.4245Z" fill="#D3C8CF"/>
<path d="M18.183 30.3314C18.5621 30.3208 18.8663 30.283 19.2439 30.2368C19.1019 30.7333 18.9893 31.1109 18.8052 31.5974C18.4639 32.695 18.0303 33.6682 17.5778 34.7245C16.7771 34.7088 14.4216 34.2143 14.2878 33.2628C14.5396 32.8838 15.1813 33.1925 15.5677 33.2757C16.2634 33.255 17.4527 33.0244 17.3751 32.2383C17.225 30.7179 17.7287 31.3166 18.183 30.3314Z" fill="#FEFDFD"/>
<path d="M18.183 30.3314C18.5621 30.3208 18.8663 30.283 19.2439 30.2368C19.1019 30.7333 18.9893 31.1109 18.8052 31.5974C17.6961 31.631 17.8398 33.501 16.6404 33.5944C16.3414 33.6177 15.8012 33.4477 15.5677 33.2757C16.2634 33.255 17.4527 33.0244 17.3751 32.2383C17.225 30.7179 17.7287 31.3166 18.183 30.3314Z" fill="#D0CBD6"/>
<path d="M13.6074 28.9875C14.2755 27.5781 15.8839 28.0153 16.9958 28.5562C17.007 28.9951 17.0027 29.198 17.1836 29.6102C17.3442 29.8041 17.5349 29.997 17.7087 30.1811C17.4641 30.4705 17.3837 30.5361 17.0822 30.77C16.8388 30.6187 16.5878 30.4799 16.3303 30.3541C15.4491 29.9216 14.6239 29.8278 13.6965 30.14C13.5797 29.6978 13.5585 29.4337 13.6074 28.9875Z" fill="#FEFDFD"/>
<path d="M13.6965 30.14C13.5797 29.6978 13.5585 29.4337 13.6074 28.9875C14.0628 29.8779 16.8106 30.5312 17.1836 29.6102C17.3442 29.8041 17.5349 29.997 17.7087 30.1811C17.4641 30.4705 17.3837 30.5361 17.0822 30.77C16.8388 30.6187 16.5878 30.4799 16.3303 30.3541C15.4491 29.9216 14.6239 29.8278 13.6965 30.14Z" fill="#E4E1E4"/>
<path d="M13.8295 30.4484C15.1117 30.2417 15.7259 30.3791 16.734 31.2243C16.9092 31.5235 16.948 31.7069 16.8608 32.0489C16.5559 33.246 14.7219 32.4439 13.9808 32.2711C13.9277 32.533 13.9751 32.5314 13.8163 32.6629C13.351 32.5206 13.1811 31.7054 13.1843 31.2691C13.3457 30.8459 13.4983 30.7287 13.8295 30.4484Z" fill="#FEFDFD"/>
<path d="M16.734 31.2243C16.9092 31.5235 16.948 31.7069 16.8608 32.0489C16.5559 33.246 14.7219 32.4439 13.9808 32.2711C13.9405 32.0461 13.8855 31.9217 14.0354 31.7444C14.1355 31.7867 14.2366 31.8268 14.3385 31.8645C15.3736 32.2445 16.3395 32.477 16.734 31.2243Z" fill="#D0CBD6"/>
<path d="M13.1843 31.2691C13.4706 31.4227 13.7544 31.5812 14.0354 31.7444C13.8855 31.9217 13.9405 32.0461 13.9808 32.2711C13.9277 32.533 13.9751 32.5314 13.8163 32.6629C13.351 32.5206 13.1811 31.7054 13.1843 31.2691Z" fill="#E4E1E4"/>
<path d="M16.0087 26.0411C16.1077 26.0398 16.2066 26.0426 16.3053 26.0496C17.1999 26.1083 17.7624 26.4345 18.3394 27.0901C18.1545 27.2943 17.4184 28.0167 17.2004 28.1114L17.0577 28.0499C16.5886 27.8404 15.9991 27.5687 15.4695 27.5527C15.1939 27.5443 14.8948 27.6459 14.6431 27.571L14.5926 27.4251C14.6861 26.5579 15.216 26.2116 16.0087 26.0411Z" fill="#FEFDFD"/>
<path d="M25.9884 19.4621C25.94 19.2131 25.8977 19.2081 25.9682 19.0039C26.8313 18.9682 26.9693 21.0705 26.9402 21.6586C26.9322 21.8158 26.923 21.9728 26.9125 22.1299C26.7772 22.5624 26.6364 22.9932 26.4904 23.4222C26.1853 23.3919 25.9351 22.9237 25.7358 22.6693L25.7778 22.4906C25.5842 22.239 25.4913 22.2078 25.1738 22.208C25.4488 21.4474 25.4026 20.4257 25.4034 19.6165L25.4898 19.6836C25.4539 20.0792 25.3924 20.3123 25.6151 20.6472L25.7286 20.6991C26.0869 20.4619 26.0084 20.0188 26.005 19.6367L25.9884 19.4621Z" fill="#E4543E"/>
<path d="M25.4034 19.6165L25.4898 19.6836C25.4539 20.0792 25.3924 20.3123 25.6151 20.6472L25.7286 20.6991C26.0869 20.4619 26.0084 20.0188 26.005 19.6367C26.1379 20.2643 25.9788 21.8818 25.7778 22.4906C25.5842 22.239 25.4913 22.2078 25.1738 22.208C25.4488 21.4474 25.4026 20.4257 25.4034 19.6165Z" fill="#6C2B16"/>
<path d="M16.8469 25.2888C18.2251 25.4845 19.6244 25.7388 21.0189 25.9408L20.6856 26.9065C19.9327 26.4802 19.6241 26.3592 18.8178 26.7672C17.7763 25.5315 17.0854 25.8235 16.7757 25.5007L16.8469 25.2888Z" fill="#CAC2CC"/>
<path d="M25.7358 22.6693C25.9351 22.9237 26.1853 23.3919 26.4904 23.4222C26.0107 24.3588 25.6997 24.5881 24.7211 24.9311C25.1746 24.0815 25.4491 23.6203 25.7358 22.6693Z" fill="#CA4232"/>
<path d="M63.4472 19.4748C64.8667 21.1261 67.2857 24.2267 67.4957 26.4162C69.2493 28.1925 69.8664 33.7082 69.8534 36.1907C69.8491 36.5137 69.8348 36.8364 69.8113 37.1585C72.2061 39.2436 73.6994 41.5053 74.3016 44.6751C75.2689 45.3374 75.4238 45.6757 75.2608 46.8362C76.43 48.0736 77.0435 49.5754 76.9976 51.2768C76.9586 52.7168 76.5013 53.7521 74.9634 53.9095C74.0792 54.9095 73.5785 55.0179 72.3207 54.6171C70.5114 56.1066 68.8924 54.6363 68.779 52.6375C66.9449 51.6306 67.2696 49.7601 68.3384 48.2774C67.5782 47.4354 67.7746 46.7724 68.3992 45.9384C68.1637 45.3263 68.0057 44.861 67.6513 44.3015C66.7138 45.4124 67.2473 46.2191 66.4077 47.5841C65.2682 49.4354 64.0067 50.6796 62.4105 52.1158C61.7544 52.7062 61.2457 53.3518 60.4693 53.8754C59.7449 54.3636 58.9723 54.425 58.318 54.9225C58.8031 56.8897 59.5045 58.1989 61.1447 59.4846C62.6342 60.6519 63.1783 61.572 62.0871 63.3353C61.1595 64.7945 59.639 66.4104 57.9344 66.9203C56.7448 67.2759 55.8983 66.3887 55.6703 65.3087C55.4975 64.4896 55.7094 63.8081 55.9746 63.0348C53.1479 61.6736 52.1769 60.142 51.4365 57.1797C48.8861 58.2237 46.8742 58.3575 44.2086 57.7553L44.1628 57.8296C43.2872 59.2782 42.8089 61.7523 42.3597 63.4022C42.1292 64.2486 42.0348 65.1761 41.6031 65.9568C41.266 66.5665 40.4335 66.683 39.8051 66.6768C37.8889 66.657 35.9425 66.1179 34.2822 65.1625C33.5854 64.7598 32.8976 64.1451 32.7047 63.3428C32.3845 62.0113 33.2926 60.7095 34.6165 60.4561C35.0817 60.3669 35.4837 60.3495 35.9593 60.3483C36.0635 59.8396 36.1719 59.2324 36.3094 58.7392C36.65 58.4591 37.0036 58.878 37.1259 59.1797C37.2079 58.614 37.4186 58.0298 37.5994 57.4864C37.8424 56.8854 37.829 56.728 38.1726 56.1115C38.4887 56.2373 38.9262 56.368 39.2572 56.4771C40.1677 56.7342 41.7244 56.9789 42.4675 57.2695C42.263 56.9009 42.0827 56.9777 41.9724 56.6344C42.0753 56.4517 42.2351 56.4114 42.434 56.3197C42.807 56.4207 43.1807 56.5192 43.5549 56.614L43.659 56.6382C43.8858 56.7565 44.1442 56.8048 44.3858 56.886C46.2087 57.5013 48.2163 57.3526 50.0399 56.8209C50.5033 56.6859 50.9358 56.3971 51.4402 56.2819C52.6447 56.008 53.835 55.6617 55.0142 55.2974C55.5638 55.1338 56.2429 55.1902 56.8104 54.9566C57.5156 54.666 57.9753 54.1369 58.5937 53.7168C58.8948 53.4132 59.9476 53.288 60.1799 53.0402C62.1379 50.9435 64.8989 49.1609 65.9541 46.3901C66.4337 45.1311 66.184 44.7284 67.1828 43.6224C66.9554 43.3008 66.8898 43.1992 66.5979 42.939C66.2788 42.4086 64.7979 41.5524 64.6814 40.9464L64.7428 40.8801C64.9745 40.8466 65.4386 41.0084 65.6375 41.1273C67.1463 42.0307 68.4902 43.7383 69.0138 45.3845C70.5071 44.4043 71.6813 44.1862 73.4707 44.4297C72.6689 41.5827 71.369 39.4179 69.0578 37.4981C68.6439 37.154 66.8712 36.3507 66.8904 35.9545C67.6061 35.5094 68.3769 36.0769 68.9419 36.519C68.9407 33.8822 68.7164 31.3992 67.7777 28.9184C67.2188 27.4412 66.9059 25.3307 65.2862 24.6557C65.3841 22.7612 63.8982 21.3797 62.7309 19.9081C63.0649 19.7466 63.1566 19.7035 63.4472 19.4748Z" fill="#5C210C"/>
<path d="M38.1726 56.1115C38.4887 56.2373 38.9262 56.368 39.2572 56.4771C40.1677 56.7342 41.7244 56.9789 42.4675 57.2695L43.3721 57.5607C42.9396 58.4839 42.6255 59.1587 42.3219 60.1265C42.141 60.7021 41.972 61.4958 41.785 62.0292C41.0853 61.8316 40.9891 62.2597 40.5027 61.7287C39.416 61.0831 38.1072 60.4146 36.8081 60.4251C36.9059 60.1934 37.0603 59.4592 37.1259 59.1797C37.2079 58.614 37.4186 58.0298 37.5994 57.4864C37.8424 56.8854 37.829 56.728 38.1726 56.1115Z" fill="#F1B258"/>
<path d="M37.5994 57.4864C37.9028 57.6667 38.2206 57.7132 38.5527 57.8049C39.648 58.1078 40.6257 58.6903 40.9276 59.8538C41.0203 60.1921 41.2208 61.3173 41.0776 61.6507C41.015 61.7963 40.9716 61.7894 40.8552 61.8384L40.5027 61.7287C39.416 61.0831 38.1072 60.4146 36.8081 60.4251C36.9059 60.1934 37.0603 59.4592 37.1259 59.1797C37.2079 58.614 37.4186 58.0298 37.5994 57.4864Z" fill="#F4BF55"/>
<path d="M36.8081 60.4251C38.1072 60.4146 39.416 61.0831 40.5027 61.7287C40.9891 62.2597 41.0853 61.8316 41.785 62.0292C41.4819 62.945 41.4501 64.2294 41.0064 65.3341C40.0896 64.7629 36.329 63.6804 35.0882 63.3143C34.6932 63.1972 33.9619 63.2207 33.5436 63.1606C33.437 63.1451 33.418 63.0367 33.3924 62.9592C33.7408 61.3694 34.4633 60.9858 36.0622 61.1649C36.4547 61.2083 37.2185 61.699 37.4902 61.3421C37.4557 60.7405 37.1295 60.9511 36.8081 60.4251Z" fill="#9A5726"/>
<path d="M69.3205 45.9019C70.5331 45.0413 71.8721 44.7996 73.3431 44.975C73.9429 45.0462 75.0663 45.6974 74.7199 46.3771C74.0829 46.2966 73.0785 46.0147 72.4409 46.26C72.2835 46.4205 72.3182 46.3288 72.3133 46.5351C72.5258 46.6702 73.2768 46.6541 73.5531 46.6826C75.9263 46.9267 76.6407 49.8561 76.3916 51.8165C76.1215 52.6938 75.9387 53.4683 74.8723 53.2075C74.5501 53.1288 74.218 54.5724 72.7737 54.1895C72.467 53.8822 72.9242 53.6821 72.8201 53.4126C72.3827 53.4113 71.7686 54.7385 70.8603 54.6065C69.6985 54.4374 69.3843 53.5916 69.3497 52.5922C69.3763 51.977 69.657 51.4547 69.6322 50.8859L69.6148 50.8029L69.4413 50.7886C69.0962 51.0086 68.9494 51.6164 68.8112 52.0185C68.6811 51.9218 68.5615 51.8122 68.4537 51.6913C67.4753 50.6102 68.3942 48.8536 69.3001 48.0395C69.6043 47.7253 69.9538 47.6355 70.0176 47.2266L69.8596 47.0116C69.5622 47.1869 68.8571 47.7662 68.6656 47.8084C67.9109 47.2036 68.8385 46.304 69.3205 45.9019Z" fill="#FEFDFD"/>
<path d="M73.6349 53.1777C74.3779 53.0117 75.0235 52.5501 75.7094 52.2075C75.9814 52.0712 76.0267 51.951 76.3916 51.8165C76.1215 52.6938 75.9387 53.4683 74.8723 53.2075C74.5501 53.1288 74.218 54.5724 72.7737 54.1895C72.467 53.8822 72.9242 53.6821 72.8201 53.4126C72.3827 53.4113 71.7686 54.7385 70.8603 54.6065C69.6985 54.4374 69.3843 53.5916 69.3497 52.5922C69.5758 52.6424 69.582 52.661 69.7524 52.8314C69.9017 52.8271 69.8999 52.8308 70.0399 52.7831C70.7518 54.1257 71.8343 53.4689 72.7823 52.8946C73.1169 53.0526 73.2731 53.0873 73.6349 53.1777Z" fill="#D0CBD6"/>
<path d="M69.3001 48.0395C69.2239 48.6987 68.4952 49.8772 68.761 50.4094C69.1861 50.5878 69.1985 50.1232 69.5802 50.5866L69.6148 50.8029L69.4413 50.7886C69.0962 51.0086 68.9494 51.6164 68.8112 52.0185C68.6811 51.9218 68.5615 51.8122 68.4537 51.6913C67.4753 50.6102 68.3942 48.8536 69.3001 48.0395Z" fill="#E4E1E4"/>
<path d="M69.3205 45.9019L69.3484 45.9322C69.4073 45.9954 69.517 46.1113 69.5913 46.1466C69.911 46.2984 69.6638 46.8133 69.8596 47.0116C69.5622 47.1869 68.8571 47.7662 68.6656 47.8084C67.9109 47.2036 68.8385 46.304 69.3205 45.9019Z" fill="#E4E1E4"/>
<path d="M69.6322 50.8859C69.7431 51.182 69.8825 52.2831 70.0399 52.7831C69.8999 52.8308 69.9017 52.8271 69.7524 52.8314C69.582 52.661 69.5758 52.6424 69.3497 52.5922C69.3763 51.977 69.657 51.4547 69.6322 50.8859Z" fill="#E4E1E4"/>
<path d="M52.1912 56.9641C52.6497 56.8513 53.1937 56.7082 53.6305 56.5384C55.0024 56.0049 56.3017 56.1462 57.6444 55.4733C58.0379 56.9864 58.2046 57.4393 59.1898 58.6698C59.4302 58.9647 59.6204 59.1872 59.8968 59.4585C60.3844 59.9524 62.0121 60.909 61.8647 61.7324C61.7067 62.6185 60.6917 63.7975 60.0808 64.5026C58.8688 65.9011 56.0842 67.4513 56.4919 64.1439C56.5558 63.6259 56.8259 63.1897 57.1518 62.7653C56.6537 62.3161 55.6778 61.8235 55.0699 61.4964C53.9224 60.7064 53.2854 59.8092 52.7191 58.5657C52.4297 58.044 52.3182 57.5415 52.1912 56.9641Z" fill="#F4BF55"/>
<path d="M59.1898 58.6698C59.4302 58.9647 59.6204 59.1872 59.8968 59.4585C60.3844 59.9524 62.0121 60.909 61.8647 61.7324C61.7067 62.6185 60.6917 63.7975 60.0808 64.5026C58.8688 65.9011 56.0842 67.4513 56.4919 64.1439C56.5558 63.6259 56.8259 63.1897 57.1518 62.7653C56.6537 62.3161 55.6778 61.8235 55.0699 61.4964C56.2311 61.4945 57.9518 60.5806 58.6352 59.6475L59.1898 58.6698Z" fill="#945123"/>
<path d="M52.1912 56.9641C52.6497 56.8513 53.1937 56.7082 53.6305 56.5384C55.0024 56.0049 56.3017 56.1462 57.6444 55.4733C58.0379 56.9864 58.2046 57.4393 59.1898 58.6698L58.6352 59.6475C57.8031 57.5267 55.2539 57.9275 53.5128 58.3774C53.2092 58.4554 52.9527 58.3625 52.7191 58.5657C52.4297 58.044 52.3182 57.5415 52.1912 56.9641Z" fill="#F1B258"/>
<path d="M33.7184 63.572C34.1707 63.5627 35.2117 63.6941 35.6207 63.8335C36.515 64.1371 40.344 65.2195 40.745 65.901L40.6761 65.9704C39.1226 66.3125 33.9478 65.2275 33.7184 63.572Z" fill="#934D20"/>
<path d="M46.4987 9.66447C46.5743 8.45955 46.7974 7.23158 46.938 5.97623C47.1301 4.26263 47.254 2.3106 47.6097 0.619121C47.6407 0.471038 47.9666 0.269671 48.098 0.219484C49.6873 -0.385919 54.0482 0.395387 55.5272 0.943911C56.6338 1.16591 57.5942 1.55024 58.6581 1.92094C58.9171 2.01116 59.5907 2.27547 59.8292 2.32572C60.6483 2.63335 63.1497 3.97768 63.3945 4.72633C63.7198 5.72232 61.5518 9.51342 61.1583 10.5813C60.8472 11.4254 60.3931 12.4512 60.0709 13.1683L59.7034 14.2227L59.6501 14.048C59.7084 13.8046 59.7449 13.5474 59.8881 13.3418C59.8819 13.1302 59.9222 13.2114 59.797 13.0763L59.678 13.1145C59.5473 13.3325 59.4729 13.5746 59.3862 13.8149L59.3162 13.8045C59.367 13.56 59.569 13.0368 59.6607 12.779C58.3527 12.9899 58.1141 13.0378 56.8055 12.9639C55.912 12.8919 54.5996 12.8374 53.7954 12.5015C53.5611 12.4762 52.9564 12.2289 52.6856 12.1612C50.556 11.6284 48.8062 10.6231 47 9.35684L46.8779 9.63981C46.7831 9.55666 46.767 9.54805 46.6567 9.48485L46.4987 9.66447Z" fill="#7560C7"/>
<path d="M59.8292 2.32572C60.6483 2.63335 63.1497 3.97768 63.3945 4.72633C63.7198 5.72232 61.5518 9.51342 61.1583 10.5813C60.8472 11.4254 60.3931 12.4512 60.0709 13.1683L59.7034 14.2227L59.6501 14.048C59.7084 13.8046 59.7449 13.5474 59.8881 13.3418C59.8819 13.1302 59.9222 13.2114 59.797 13.0763L59.678 13.1145C59.5473 13.3325 59.4729 13.5746 59.3862 13.8149L59.3162 13.8045C59.367 13.56 59.569 13.0368 59.6607 12.779C58.3527 12.9899 58.1141 13.0378 56.8055 12.9639L56.8111 12.8787C56.9306 12.6659 57.0924 12.2419 57.2045 11.9995C58.1544 9.94223 59.3856 7.95465 60.3844 5.93348C59.8732 5.90814 58.7158 5.96452 58.3006 5.73893C57.9803 5.74339 56.9988 5.55671 56.7231 5.3826C56.9257 5.37318 57.2429 5.43477 57.5032 5.4432C57.6804 5.33694 57.6166 5.40745 57.7089 5.22975C58.5689 5.34555 59.4271 5.47405 60.2834 5.61526L60.6422 5.57876C61.4123 5.59357 61.9099 5.58105 62.6857 5.52343C62.7346 5.51296 62.8238 5.47461 62.8746 5.45515C63.2377 4.58872 60.3107 3.03788 59.6836 2.64333L59.6681 2.54822L59.8292 2.32572Z" fill="#5A48AE"/>
<path d="M59.8292 2.32572C60.6483 2.63335 63.1497 3.97768 63.3945 4.72633C63.7198 5.72232 61.5518 9.51342 61.1583 10.5813C60.8472 11.4254 60.3931 12.4512 60.0709 13.1683C59.9252 13.0363 59.8769 12.9824 59.7561 12.8276C59.6192 12.1981 62.216 6.86708 62.6163 6.02065L62.5593 5.92598C62.6317 5.77344 62.6466 5.68459 62.6857 5.52343C62.7346 5.51296 62.8238 5.47461 62.8746 5.45515C63.2377 4.58872 60.3107 3.03788 59.6836 2.64333L59.6681 2.54822L59.8292 2.32572Z" fill="var(--fill-0, #45378D)"/>
<path d="M60.6422 5.57876C61.4123 5.59357 61.9099 5.58105 62.6857 5.52343C62.6466 5.68459 62.6317 5.77344 62.5593 5.92598L62.6163 6.02065C62.0877 6.00938 60.908 6.16031 60.5306 5.91384C60.5003 5.74289 60.5263 5.77672 60.6422 5.57876Z" fill="var(--fill-0, #45378D)"/>
<path d="M46.4987 9.66447C46.5743 8.45955 46.7974 7.23158 46.938 5.97623C47.1301 4.26263 47.254 2.3106 47.6097 0.619121C47.6407 0.471038 47.9666 0.269671 48.098 0.219484C49.6873 -0.385919 54.0482 0.395387 55.5272 0.943911C55.1771 0.974271 54.7136 0.777798 54.529 0.824763C54.6188 1.02235 54.8586 1.0485 55.0668 1.08611C54.5048 1.14044 53.3238 0.83226 52.7061 0.766831C51.4941 0.63839 50.1873 0.513047 48.971 0.57005C47.9046 0.619927 47.8724 1.66195 47.8458 2.49896C47.8006 3.95531 47.5056 5.41067 47.3104 6.8519C47.2479 7.30544 47.1679 9.02437 47 9.35684L46.8779 9.63981C46.7831 9.55666 46.767 9.54805 46.6567 9.48485L46.4987 9.66447Z" fill="#473C90"/>
<path d="M56.7231 5.3826C55.8407 5.25112 54.3654 4.63736 53.4193 4.48395C53.1993 4.44826 52.9471 4.35389 52.8257 4.15308L52.8622 4.00953C52.9087 3.97867 52.9645 3.94187 53.0289 3.89911C53.3846 3.98604 53.962 4.22731 54.2911 4.32849C55.4324 4.67955 56.5409 5.01097 57.7089 5.22975C57.6166 5.40745 57.6804 5.33694 57.5032 5.4432C57.2429 5.43477 56.9257 5.37318 56.7231 5.3826Z" fill="var(--fill-0, #45378D)"/>
<path d="M53.7954 12.5015C54.0506 12.4957 54.1002 12.4933 54.345 12.5591C54.7037 12.4065 55.1666 11.1542 55.9182 12.1046C56.0787 12.3076 56.0873 12.6319 56.3061 12.7873C56.2633 12.7569 56.7491 12.8493 56.8111 12.8787L56.8055 12.9639C55.912 12.8919 54.5996 12.8374 53.7954 12.5015Z" fill="#5A48AE"/>
<path d="M48.4072 1.30123C48.7876 1.46053 49.4903 1.97417 49.8831 2.23607C50.468 2.63081 51.074 2.99271 51.6986 3.32017C51.4668 3.26056 51.1298 3.08299 50.9042 2.97543C50.8292 2.87896 50.2233 2.52697 50.0665 2.50683C49.8267 2.70305 50.1136 2.53775 49.9426 2.83007C49.5243 2.83658 49.6774 2.67238 49.3081 2.63917L49.2381 2.70355L49.2288 3.28188L49.1811 3.30926C49.186 1.85762 48.5546 2.19387 48.4072 1.30123Z" fill="#5A48AE"/>
<path d="M47 9.35684C48.8062 10.6231 50.556 11.6284 52.6856 12.1612C52.9564 12.2289 53.5611 12.4762 53.7954 12.5015C54.5996 12.8374 55.912 12.8919 56.8055 12.9639C58.1141 13.0378 58.3527 12.9899 59.6607 12.779C59.569 13.0368 59.367 13.56 59.3162 13.8045L59.3862 13.8149C59.4729 13.5746 59.5473 13.3325 59.678 13.1145L59.797 13.0763C59.9222 13.2114 59.8819 13.1302 59.8881 13.3418C59.7449 13.5474 59.7084 13.8046 59.6501 14.048L59.7034 14.2227L59.6749 14.5265L59.7561 14.5899C60.9092 14.8378 61.6478 15.0915 62.6497 15.7234C64.1597 16.6754 65.2651 18.0496 63.4472 19.4748C63.1566 19.7035 63.0649 19.7466 62.7309 19.9081C60.864 20.7511 59.4785 20.7052 57.479 20.7153C56.741 20.6968 55.2354 20.4993 54.4893 20.4025C53.8468 20.1739 52.0133 19.8597 51.1378 19.6238C49.8664 19.4044 46.5595 17.9731 45.3022 17.3724C44.3895 16.8247 43.5444 16.3298 42.6782 15.707C42.9254 15.7202 42.9861 15.7338 43.2216 15.6785L43.2371 15.604C43.141 15.4867 43.0406 15.3683 42.9551 15.2431L42.9093 15.1743C41.9541 14.5068 40.565 13.2236 40.8715 11.9382C40.9772 11.78 41.1901 11.5247 41.3452 11.4187C42.2178 10.8225 44.6963 11.1293 45.679 11.3315C45.8673 11.2522 46.0192 11.2985 46.2205 11.3102C46.1505 11.2042 46.0873 11.1244 46.0099 11.0243L46.0452 10.9429L46.3098 10.8594L46.373 10.5247C46.4052 10.2414 46.4287 9.93846 46.4987 9.66447L46.6567 9.48485C46.767 9.54805 46.7831 9.55666 46.8779 9.63981L47 9.35684Z" fill="#7863C6"/>
<path d="M47 9.35684C48.8062 10.6231 50.556 11.6284 52.6856 12.1612C52.9564 12.2289 53.5611 12.4762 53.7954 12.5015C54.5996 12.8374 55.912 12.8919 56.8055 12.9639C58.1141 13.0378 58.3527 12.9899 59.6607 12.779C59.569 13.0368 59.367 13.56 59.3162 13.8045L59.2963 13.8472C58.2219 16.2357 59.0355 16.0537 56.1171 16.1057C55.4745 16.1077 54.2706 15.9134 53.5543 15.8394C52.0753 15.5448 46.6239 13.771 46.5161 12.0087C46.5805 11.9054 46.6047 11.5915 46.6245 11.4496C46.3005 11.4916 45.9869 11.4224 45.679 11.3315C45.8673 11.2522 46.0192 11.2985 46.2205 11.3102C46.1505 11.2042 46.0873 11.1244 46.0099 11.0243L46.0452 10.9429L46.3098 10.8594L46.373 10.5247C46.4052 10.2414 46.4287 9.93846 46.4987 9.66447L46.6567 9.48485C46.767 9.54805 46.7831 9.55666 46.8779 9.63981L47 9.35684Z" fill="#E8E6E8"/>
<path d="M46.373 10.5247L46.8154 10.3038L46.6245 11.4496C46.3005 11.4916 45.9869 11.4224 45.679 11.3315C45.8673 11.2522 46.0192 11.2985 46.2205 11.3102C46.1505 11.2042 46.0873 11.1244 46.0099 11.0243L46.0452 10.9429L46.3098 10.8594L46.373 10.5247Z" fill="#5A48AE"/>
<path d="M46.4987 9.66447L46.6567 9.48485C46.767 9.54805 46.7831 9.55666 46.8779 9.63981C46.8606 9.86571 46.8439 10.0783 46.8154 10.3038L46.373 10.5247C46.4052 10.2414 46.4287 9.93846 46.4987 9.66447Z" fill="var(--fill-0, #45378D)"/>
<path d="M59.7561 14.5899C60.9092 14.8378 61.6478 15.0915 62.6497 15.7234C64.1597 16.6754 65.2651 18.0496 63.4472 19.4748C63.1566 19.7035 63.0649 19.7466 62.7309 19.9081C60.864 20.7511 59.4785 20.7052 57.479 20.7153C56.741 20.6968 55.2354 20.4993 54.4893 20.4025C53.8468 20.1739 52.0133 19.8597 51.1378 19.6238C49.8664 19.4044 46.5595 17.9731 45.3022 17.3724C44.3895 16.8247 43.5444 16.3298 42.6782 15.707C42.9254 15.7202 42.9861 15.7338 43.2216 15.6785L43.2371 15.604C43.141 15.4867 43.0406 15.3683 42.9551 15.2431L42.9093 15.1743C43.019 15.2128 43.0437 15.2297 43.1193 15.3098C43.7563 15.98 44.6138 16.397 45.3853 16.887C45.9163 17.2244 46.3277 17.3868 46.938 17.5234C47.8074 17.7181 48.6085 18.0718 49.432 18.398C50.0188 18.6237 50.6427 18.7944 51.2351 19.0211L51.2543 18.9367C51.069 18.8216 50.6607 18.537 50.4866 18.5069C50.6787 18.4586 51.2809 18.6132 51.5139 18.6608C52.6862 18.9005 56.6797 19.8445 57.6661 19.4622C58.6172 19.4888 63.4081 19.3455 63.7167 18.004C64.0786 16.4282 60.2388 15.5686 59.7561 14.5899Z" fill="var(--fill-0, #45378D)"/>
<path d="M42.9093 15.1743C41.9541 14.5068 40.565 13.2236 40.8715 11.9382C40.9681 12.1089 40.9877 12.1291 41.1535 12.2349C41.7206 12.5967 41.8673 13.5245 42.3058 13.9872C43.3473 15.0866 44.6498 15.6608 45.92 16.3919C48.8558 18.0813 51.9836 18.7807 55.2961 19.2985C56.0582 19.4196 56.9071 19.3317 57.6661 19.4622C56.6797 19.8445 52.6862 18.9005 51.5139 18.6608C51.2809 18.6132 50.6787 18.4586 50.4866 18.5069C50.6607 18.537 51.069 18.8216 51.2543 18.9367L51.2351 19.0211C50.6427 18.7944 50.0188 18.6237 49.432 18.398C48.6085 18.0718 47.8074 17.7181 46.938 17.5234C46.3277 17.3868 45.9163 17.2244 45.3853 16.887C44.6138 16.397 43.7563 15.98 43.1193 15.3098C43.0437 15.2297 43.019 15.2128 42.9093 15.1743Z" fill="#5A48AE"/>
<path d="M53.3158 16.2416C52.6813 16.0017 51.7017 15.7744 51.0151 15.6408C49.9258 15.4288 46.1635 13.4083 46.0768 12.2143C46.1338 12.0075 46.1759 11.8639 46.4157 11.8824L46.5161 12.0087C46.6239 13.771 52.0753 15.5448 53.5543 15.8394C53.3604 15.9648 53.4137 15.9633 53.3158 16.2416Z" fill="#4D4491"/>
<path d="M53.5543 15.8394C54.2706 15.9134 55.4745 16.1077 56.1171 16.1057L56.1567 16.1459C56.3092 16.2966 56.3247 16.315 56.5062 16.4179L56.5359 16.5232C55.8711 16.7848 54.0085 16.4945 53.3158 16.2416C53.4137 15.9633 53.3604 15.9648 53.5543 15.8394Z" fill="var(--fill-0, #45378D)"/>
<path d="M26.28 28.9625L26.3453 29.0525C26.6365 29.0438 26.8351 28.9374 27.1321 28.883C28.2065 28.6858 29.0595 28.9014 29.8693 29.6498C30.0745 29.8394 30.5494 30.4467 30.6567 30.7003C31.2298 33.0495 29.8652 34.4834 27.9122 35.4688C27.8428 35.4632 27.7735 35.4553 27.7046 35.445C26.6144 35.2779 26.0861 34.5434 25.4767 33.7355L25.3937 33.7567C25.3779 33.3236 26.1274 29.3656 26.28 28.9625Z" fill="#934D20"/>
<path d="M36.3004 16.2079C36.4985 16.309 36.5915 16.331 36.7064 16.5094C36.7192 16.624 36.7337 16.7823 36.6302 16.8722C35.5337 17.8245 34.07 18.6124 32.922 19.4705C32.336 19.9085 30.0764 22.8294 30.045 23.384C30.2475 23.3724 30.4335 23.1889 30.6352 23.0524C30.4439 23.3004 30.3326 23.4462 30.1098 23.6687C29.7824 23.8718 29.4891 24.0438 29.2714 24.3731C29.1122 24.8502 28.9203 25.3883 28.7788 25.8648C28.2103 25.919 27.9926 26.0602 27.5155 26.0932L27.4759 26.0232C27.6123 25.6827 27.914 24.9971 27.9609 24.6638C28.7041 22.8539 31.1855 19.9771 32.719 18.707C33.746 17.8565 35.1853 16.9777 36.3004 16.2079Z" fill="#FBD68D"/>
<path d="M29.2714 24.3731C29.3456 24.1075 29.4173 23.6017 29.5765 23.4453C29.7864 23.4045 29.8793 23.5263 30.1098 23.6687C29.7824 23.8718 29.4891 24.0438 29.2714 24.3731Z" fill="#F1B258"/>
<path d="M54.4893 20.4025C55.2354 20.4993 56.741 20.6968 57.479 20.7153C57.6376 21.2189 57.9493 21.3239 58.1655 22.2376C58.0992 22.5088 58.0261 22.8642 57.8824 23.1035C56.8389 24.8384 54.5308 23.6342 53.8288 22.2295C53.8517 21.7736 53.8914 21.4708 53.9614 21.0176C54.0915 20.8882 54.2347 20.6491 54.4893 20.4025Z" fill="#AB5C26"/>
<path d="M45.3022 17.3724C46.5595 17.9731 49.8664 19.4044 51.1378 19.6238C50.7022 20.1633 50.5814 20.2558 49.9048 20.4925C48.1544 20.8935 46.9232 20.3581 45.6765 19.1015C45.3041 18.39 45.239 18.1738 45.3022 17.3724Z" fill="#934D20"/>
<path d="M30.6567 30.7003C31.3729 31.2025 32.0306 31.7277 32.1289 32.6433C32.4199 35.3545 29.9151 35.7995 27.9122 35.4688C29.8652 34.4834 31.2298 33.0495 30.6567 30.7003Z" fill="#B87A3D"/>
<path d="M37.4082 15.4498C37.5376 15.5324 37.5692 15.5103 37.5823 15.6823C37.6214 16.1955 37.7401 16.2517 38.0847 16.5559C36.9867 17.4076 35.9975 17.9855 34.8318 18.7186C34.3329 19.0323 33.7285 19.751 33.2868 20.1456C32.2291 21.0905 31.5054 21.9348 30.6352 23.0524C30.4335 23.1889 30.2475 23.3724 30.045 23.384C30.0764 22.8294 32.336 19.9085 32.922 19.4705C34.07 18.6124 35.5337 17.8245 36.6302 16.8722C36.7337 16.7823 36.7192 16.624 36.7064 16.5094C36.5915 16.331 36.4985 16.309 36.3004 16.2079C36.7136 15.8916 36.9676 15.7211 37.4082 15.4498Z" fill="#F9E5C3"/>
<path d="M41.0176 14.2161C41.5929 14.6413 41.8166 15.1205 42.6782 15.707C43.5444 16.3298 44.3895 16.8247 45.3022 17.3724C45.239 18.1738 45.3041 18.39 45.6765 19.1015C43.9899 18.1549 42.9942 17.624 41.727 16.1276C41.4421 15.8202 41.0769 15.5036 40.81 15.1866C40.3471 14.6371 40.6607 14.3998 39.865 14.4352C40.2515 14.323 40.5488 14.4068 41.0176 14.2161Z" fill="#F1B258"/>
<path d="M66.5979 42.939C66.8898 43.1992 66.9554 43.3008 67.1828 43.6224C66.184 44.7284 66.4337 45.1311 65.9541 46.3901C64.8989 49.1609 62.1379 50.9435 60.1799 53.0402C59.9476 53.288 58.8948 53.4132 58.5937 53.7168C57.9753 54.1369 57.5156 54.666 56.8104 54.9566C56.2429 55.1902 55.5638 55.1338 55.0142 55.2974C53.835 55.6617 52.6447 56.008 51.4402 56.2819C50.9358 56.3971 50.5033 56.6859 50.0399 56.8209C48.2163 57.3526 46.2087 57.5013 44.3858 56.886C44.1442 56.8048 43.8858 56.7565 43.659 56.6382C43.8672 56.5663 47.2646 57.2751 48.0837 57.1122C49.8211 56.7677 51.3429 56.1301 53.0586 55.7113C53.7043 55.5533 54.4776 55.0935 55.1418 54.925C56.8346 54.7887 57.3631 54.7304 58.5856 53.4559C58.8236 53.2081 59.9748 52.9683 60.2685 52.7236C61.0393 52.0823 61.7884 51.2161 62.5605 50.5426C62.8969 50.2353 62.7606 49.7582 63.5054 49.6046C63.6114 49.5829 64.0532 49.0581 64.1808 48.9707C65.9393 47.7644 64.7378 44.2011 66.386 43.2538C66.4895 43.3634 65.811 43.8424 65.7181 44.1955C65.4919 45.0549 65.3977 46.203 65.4095 47.0748C65.4659 46.817 65.5055 46.2148 65.7106 46.1491C65.907 46.0871 65.9114 46.0834 66.0186 45.9434C66.052 44.931 66.3978 44.4601 66.9114 43.636C66.8966 43.3981 66.6884 43.2228 66.5979 42.939Z" fill="#D4832F"/>
<path d="M51.1378 19.6238C52.0133 19.8597 53.8468 20.1739 54.4893 20.4025C54.2347 20.6491 54.0915 20.8882 53.9614 21.0176L53.9273 21.0006C53.8307 21.1118 53.7954 21.3663 53.7563 21.5288L53.6107 21.4763C52.6032 21.6668 50.6074 21.3417 49.9048 20.4925C50.5814 20.2558 50.7022 20.1633 51.1378 19.6238Z" fill="#F1B258"/>
<path d="M38.6858 55.3903C39.009 55.407 39.3028 55.4238 39.627 55.4008C40.3201 55.3507 41.9722 54.6877 42.5307 55.2949C42.9031 55.7001 43.0512 56.1747 43.5549 56.614C43.1807 56.5192 42.807 56.4207 42.434 56.3197C42.2351 56.4114 42.0753 56.4517 41.9724 56.6344C42.0827 56.9777 42.263 56.9009 42.4675 57.2695C41.7244 56.9789 40.1677 56.7342 39.2572 56.4771C39.5733 56.4715 40.7155 56.3668 40.5017 55.8383C40.1347 55.5601 39.369 55.6183 38.6858 55.3903Z" fill="#D4832F"/>
<path d="M53.5766 24.6125C53.7948 24.6287 53.8976 24.6766 54.073 24.7974C54.2793 25.3776 53.3102 25.7655 52.8876 25.9753C55.2304 28.0142 53.6343 34.4064 50.1155 32.2845C48.5621 30.995 48.8929 29.4175 48.8867 27.7754C48.8861 27.5677 48.1785 27.7644 48.3062 27.0407C48.6476 26.5856 52.962 24.7658 53.5766 24.6125Z" fill="#5C210C"/>
<path d="M50.6564 27.018C51.2884 27.3469 51.0889 28.73 50.5733 29.1103C50.3236 29.295 50.209 29.2625 49.9227 29.2483C49.3192 28.7323 49.4128 28.2243 49.5163 27.5158C49.8924 27.3679 50.2852 27.1838 50.6564 27.018Z" fill="#FEFDFD"/>
<path d="M51.8349 29.6035C52.6633 29.6451 52.6435 30.4056 52.1614 30.9099C51.3615 30.847 51.3219 30.1078 51.8349 29.6035Z" fill="#FEFDFD"/>
<path d="M37.4378 25.3239C36.8786 25.0484 35.9525 24.4762 37.0006 24.0493C37.2722 23.9387 38.4614 24.7414 38.7592 24.9212C39.3955 25.2722 42.478 26.6856 42.2277 27.3758C41.9874 27.5724 41.7595 27.6365 41.762 27.9691C41.8148 34.9125 34.9334 32.7175 37.1496 26.6618C37.2533 26.3786 37.8536 25.7196 37.7746 25.5231L37.4378 25.3239Z" fill="#5C210C"/>
<path d="M38.0952 26.2096C39.3408 26.2593 39.1987 28.0948 38.207 28.6612C36.8669 28.5714 37.2352 26.8265 38.0952 26.2096Z" fill="#FEFDFD"/>
<path d="M39.6412 29.2401C40.5389 29.224 40.5171 30.0446 40.0135 30.5622C39.8563 30.5553 39.7192 30.5459 39.5897 30.4449C39.4403 30.3303 39.3503 30.1546 39.3444 29.9664C39.3311 29.6442 39.4355 29.4667 39.6412 29.2401Z" fill="#FEFDFD"/>
<path d="M58.9593 40.3764C59.3924 40.3442 60.0665 40.2574 60.4525 40.3999C61.7884 40.8913 62.5964 42.5264 62.0518 43.8696C61.5691 45.058 60.3435 45.5277 59.2771 46.0109C56.7156 46.5952 55.4392 44.2005 56.5031 42.0685C57.0917 40.8888 57.6203 40.4458 58.9593 40.3764Z" fill="#934D20"/>
<path d="M41.9815 47.7923C45.231 47.5655 46.6772 51.3952 42.9 52.6542C42.1825 52.7354 41.7016 52.7508 41.0544 52.3525C40.4336 51.9702 39.9945 51.3524 39.8378 50.6405C39.5053 49.1678 40.6036 48.0674 41.9815 47.7923Z" fill="#934D20"/>
<path d="M37.4378 25.3239C36.4996 25.5093 35.6177 25.4786 35.0685 24.5683C34.0838 22.9362 35.6503 20.2327 37.5884 20.363C38.4724 20.4224 39.0935 20.3825 39.608 21.2247C40.4803 22.6526 40.2248 24.0623 38.7592 24.9212C38.4614 24.7414 37.2722 23.9387 37.0006 24.0493C35.9525 24.4762 36.8786 25.0484 37.4378 25.3239Z" fill="#934D20"/>
<path d="M32.799 40.7958C34.1171 40.8312 34.8653 41.5437 35.2052 42.807C35.5571 44.1156 34.8593 45.1844 33.5453 45.483C32.9099 45.4855 32.3387 45.4694 31.8239 45.0264C30.356 43.7631 30.6129 41.0338 32.799 40.7958Z" fill="#934D20"/>
<path d="M53.0537 34.0391C55.4119 33.7653 56.6097 36.8081 53.7458 37.351C52.5592 37.4574 51.6949 36.7836 51.3962 35.652C51.6577 34.6595 52.0456 34.2688 53.0537 34.0391Z" fill="#F1B258"/>
<path d="M36.0629 33.6618C38.1487 33.4555 39.8467 35.7875 37.3924 36.8705C36.1351 37.0948 35.1991 36.4739 34.8281 35.265C34.8586 35.1409 34.8933 35.018 34.9323 34.8963C35.1329 34.2881 35.51 33.939 36.0629 33.6618Z" fill="#F1B258"/>
<path d="M42.4247 33.9242C43.892 33.9559 46.021 33.944 47.5044 34.1179C47.6481 34.1348 47.746 34.3005 47.8086 34.4249C47.8421 34.8829 47.624 34.9701 47.2119 35.062C45.9987 35.0222 44.7836 34.9953 43.5704 34.9584C43.0834 34.9436 42.0926 34.9702 41.8286 34.4865C41.8137 34.0511 42.0629 33.9837 42.4247 33.9242Z" fill="#5C210C"/>
<path d="M63.9745 25.2144C64.8965 26.0506 66.2949 28.2409 65.8922 29.5027C65.7937 29.3369 65.9876 28.9052 65.8445 28.6963C65.1685 27.7092 65.0049 27.933 64.6517 26.7635C64.4175 26.383 63.9974 25.9415 63.8549 25.6434C64.5055 25.8623 64.4627 26.7199 65.0105 26.7313L65.0099 26.6455C64.78 26.1774 64.3326 25.7155 63.9565 25.3636C63.7087 25.4468 62.9676 25.7502 62.765 25.7542C63.1237 25.531 63.5773 25.3713 63.9745 25.2144Z" fill="#F9E5C3"/>
<path d="M40.4796 13.5079C40.1702 12.8362 39.8333 11.7791 40.534 11.2029C42.2302 9.80815 44.4713 10.8484 46.3098 10.8594L46.0452 10.9429L46.0099 11.0243C46.0873 11.1244 46.1505 11.2042 46.2205 11.3102C46.0192 11.2985 45.8673 11.2522 45.679 11.3315C44.6963 11.1293 42.2178 10.8225 41.3452 11.4187C41.1901 11.5247 40.9772 11.78 40.8715 11.9382C40.565 13.2236 41.9541 14.5068 42.9093 15.1743L42.9551 15.2431C43.0406 15.3683 43.141 15.4867 43.2371 15.604L43.2216 15.6785C42.9861 15.7338 42.9254 15.7202 42.6782 15.707C41.8166 15.1205 41.5929 14.6413 41.0176 14.2161C40.8146 13.9767 40.6618 13.7624 40.4796 13.5079Z" fill="var(--fill-0, #45378D)"/>
</g>
</svg>
