<svg preserveAspectRatio="none" width="100%" height="100%" overflow="visible" style="display: block;" viewBox="0 0 80 80" fill="none" xmlns="http://www.w3.org/2000/svg">
<g id="Frame 1618873549">
<rect width="80" height="80" rx="10" fill="var(--fill-0, #02C04C)"/>
<g id="Vector">
<path d="M21.7253 31.0307C26.9455 30.6126 31.5152 34.5147 31.9311 39.7456C32.347 44.9764 28.4515 49.5544 23.2312 49.9697C18.0128 50.3849 13.4462 46.4833 13.0304 41.2545C12.6147 36.0256 16.5072 31.4487 21.7253 31.0307ZM24.081 40.7758C23.2091 39.6683 22.3865 38.3118 21.5471 37.1667C21.2736 36.7937 21.0199 36.3799 20.7334 36.0151L18.0049 36.0169L18.0061 41.7476C18.006 42.7989 18.0275 43.9254 17.9958 44.9683C18.9679 44.9815 19.9401 44.9847 20.9123 44.978C20.8819 44.5496 20.9082 44.1139 20.8969 43.6877C20.8666 42.5483 20.9382 41.2979 20.8937 40.1731C21.1658 40.6378 21.565 41.1608 21.877 41.6164L24.1975 44.9658C25.0123 45.0082 26.133 44.9886 26.9634 44.9793C26.9185 42.0385 26.9496 38.9643 26.9497 36.0125C26.1026 36.0172 24.8993 36.0567 24.086 36.0049C24.0732 37.0508 24.0689 38.0968 24.0731 39.1428C24.0722 39.5254 24.0447 40.4272 24.081 40.7758Z" fill="var(--fill-0, black)"/>
<path d="M41.0805 35.3654C41.44 35.3625 41.7756 35.4223 42.1246 35.4968C45.7316 36.2661 46.8711 40.9644 44.457 43.5884C43.6425 44.4761 42.5093 45.0031 41.3071 45.0536C40.2381 45.0966 39.1098 44.781 38.3128 44.0448C38.3057 44.4465 38.3094 44.8579 38.3087 45.2605L38.3092 47.8122C37.5985 47.7884 36.7749 47.8067 36.0557 47.8108C36.0937 44.9244 36.0452 42.0167 36.0646 39.1287C36.0724 37.9508 36.045 36.7359 36.0764 35.5622C36.7836 35.5677 37.4908 35.5686 38.198 35.5648C38.2034 35.8545 38.2104 36.1442 38.219 36.4339C38.9847 35.7129 40.0505 35.4024 41.0805 35.3654ZM41.1699 43.2912C41.5868 43.2545 42.1231 43.0206 42.4601 42.7726C44.7647 41.0763 43.611 36.841 40.5631 37.1309L40.5451 37.1327C40.2213 37.1904 39.9449 37.2369 39.6421 37.3772C37.5748 38.3344 37.3927 41.5423 39.2385 42.8146C39.8666 43.2475 40.4272 43.3374 41.1699 43.2912Z" fill="var(--fill-0, black)"/>
<path d="M51.5642 35.3656C52.7845 35.3998 53.4492 35.7178 54.4056 36.4101L54.4318 35.5699C55.1271 35.5515 55.8432 35.5777 56.5505 35.5588C56.6208 38.5938 56.5574 41.8205 56.5619 44.8709C55.9575 44.8298 55.0488 44.8557 54.421 44.8571C54.4174 44.5616 54.4174 44.2661 54.421 43.9706C53.9813 44.3359 53.794 44.4833 53.2796 44.7138C52.6941 44.9266 52.3421 45.0358 51.7038 45.055C50.4604 45.0994 49.2522 44.636 48.3567 43.7709C46.4224 41.9377 46.4293 38.5218 48.3389 36.6682C49.2438 35.7901 50.3206 35.3945 51.5642 35.3656ZM52.1839 43.2905C52.8073 43.2452 53.5212 42.8028 53.9264 42.3349C55.0092 41.0841 54.9185 38.8959 53.6428 37.8009C53.0738 37.3088 52.3307 37.0672 51.5816 37.1308C51.5717 37.1318 51.5621 37.1328 51.5522 37.1338C50.9826 37.2404 50.6753 37.3097 50.1867 37.6526C48.5409 38.8072 48.5763 41.7255 50.2659 42.829C50.9124 43.2513 51.4292 43.3319 52.1839 43.2905Z" fill="var(--fill-0, black)"/>
<path d="M57.9133 35.5678C58.5886 35.5663 59.5144 35.5389 60.1663 35.5853C60.3223 35.8655 60.503 36.2744 60.6515 36.575L61.4678 38.2046C62.0254 39.3368 62.6142 40.47 63.1544 41.6098C63.2394 41.303 63.7919 40.1295 63.947 39.7754L65.7693 35.5844C66.3227 35.5337 67.4073 35.5679 68 35.5701C67.75 36.0495 67.3797 36.9715 67.154 37.4962C66.6456 38.6776 66.0049 39.9649 65.5358 41.1439C65.0502 42.1584 64.5854 43.2947 64.1211 44.3284C63.6124 45.4614 63.056 46.6564 62.5956 47.8016C61.9387 47.8128 60.9955 47.8365 60.3568 47.795C60.9555 46.578 61.5197 45.2173 62.0461 43.9662C62.1104 43.814 60.9468 41.6495 60.8121 41.3832L58.7227 37.2223C58.5802 36.9407 57.943 35.787 57.9133 35.5678Z" fill="var(--fill-0, black)"/>
</g>
</g>
</svg>
