<svg width="25" height="25" viewBox="0 0 25.3125 25.3125" fill="none" xmlns="http://www.w3.org/2000/svg" aria-hidden="true">
<circle cx="12.6562" cy="12.6562" r="12.6562" fill="#FEF4D2"/>
<path d="M13.1444 7.96657H12.1711C12.0821 7.96657 12.0093 8.03721 12.0093 8.12355V13.5255C12.0093 13.5765 12.0336 13.6236 12.076 13.6531L15.4207 16.0214C15.4936 16.0725 15.5947 16.0587 15.6473 15.9881L16.226 15.2228C16.2807 15.1502 16.2645 15.0521 16.1916 15.0031L13.3063 12.98V8.12355C13.3063 8.03721 13.2334 7.96657 13.1444 7.96657ZM17.5918 9.44215L20.7645 10.1937C20.8657 10.2172 20.9648 10.1427 20.9648 10.0426L20.981 6.87362C20.981 6.74215 20.8252 6.66759 20.72 6.75L17.5311 9.16548C17.507 9.18356 17.4887 9.20787 17.4782 9.23561C17.4677 9.26336 17.4655 9.29341 17.4718 9.32231C17.4782 9.35121 17.4928 9.37779 17.514 9.39899C17.5353 9.42019 17.5622 9.43515 17.5918 9.44215ZM20.9851 15.3504L19.8378 14.9677C19.7978 14.9544 19.754 14.9568 19.7158 14.9744C19.6776 14.992 19.6481 15.0234 19.6334 15.0619C19.595 15.162 19.5545 15.2601 19.512 15.3582C19.1519 16.1843 18.6359 16.928 17.9763 17.5657C17.324 18.2002 16.5509 18.706 15.7 19.055C14.8184 19.4164 13.8708 19.602 12.9137 19.6005C11.9466 19.6005 11.0097 19.418 10.1275 19.055C9.27656 18.706 8.5035 18.2002 7.8512 17.5657C7.19359 16.928 6.67763 16.1843 6.31544 15.3582C5.94477 14.5029 5.75486 13.5841 5.75698 12.6563C5.75698 11.7183 5.94516 10.8079 6.31949 9.95233C6.67965 9.12624 7.19562 8.38256 7.85524 7.74484C8.50755 7.1103 9.2806 6.60452 10.1316 6.25553C11.0097 5.89252 11.9486 5.71003 12.9158 5.71003C13.8829 5.71003 14.8198 5.89252 15.702 6.25553C16.5529 6.60452 17.326 7.1103 17.9783 7.74484C18.1847 7.94695 18.3789 8.15691 18.557 8.37864L19.767 7.46032C18.1746 5.48634 15.6959 4.21679 12.9117 4.21875C8.06365 4.22071 4.17064 8.03917 4.2192 12.7426C4.26776 17.3636 8.14257 21.0937 12.9158 21.0937C16.6692 21.0937 19.8661 18.7862 21.0842 15.5544C21.1146 15.472 21.07 15.3798 20.9851 15.3504Z" fill="#EF9F27"/>
</svg>
