<svg width="23" height="23" viewBox="0 0 22.5 22.5" fill="none" xmlns="http://www.w3.org/2000/svg" aria-hidden="true">
<circle cx="11.25" cy="11.25" r="11.25" fill="#FEF4D2"/>
<path d="M17.5 11.25V16.25C17.5 16.5815 17.3683 16.8995 17.1339 17.1339C16.8995 17.3683 16.5815 17.5 16.25 17.5H6.25C5.91848 17.5 5.60054 17.3683 5.36612 17.1339C5.1317 16.8995 5 16.5815 5 16.25V11.25C4.83424 11.25 4.67527 11.1842 4.55806 11.0669C4.44085 10.9497 4.375 10.7908 4.375 10.625V8.75C4.375 8.41848 4.5067 8.10054 4.74112 7.86612C4.97554 7.6317 5.29348 7.5 5.625 7.5H7.60625C7.53561 7.29921 7.49968 7.08785 7.5 6.875C7.5 6.37772 7.69754 5.90081 8.04917 5.54917C8.40081 5.19754 8.87772 5 9.375 5C10 5 10.55 5.3125 10.8938 5.775L11.25 6.25L11.6062 5.76875C11.95 5.3125 12.5 5 13.125 5C13.6223 5 14.0992 5.19754 14.4508 5.54917C14.8025 5.90081 15 6.37772 15 6.875C15.0003 7.08785 14.9644 7.29921 14.8937 7.5H16.875C17.2065 7.5 17.5245 7.6317 17.7589 7.86612C17.9933 8.10054 18.125 8.41848 18.125 8.75V10.625C18.125 10.7908 18.0592 10.9497 17.9419 11.0669C17.8247 11.1842 17.6658 11.25 17.5 11.25ZM6.25 16.25H10.625V11.25H6.25V16.25ZM16.25 16.25V11.25H11.875V16.25H16.25ZM9.375 6.25C9.20924 6.25 9.05027 6.31585 8.93306 6.43306C8.81585 6.55027 8.75 6.70924 8.75 6.875C8.75 7.04076 8.81585 7.19973 8.93306 7.31694C9.05027 7.43415 9.20924 7.5 9.375 7.5C9.54076 7.5 9.69973 7.43415 9.81694 7.31694C9.93415 7.19973 10 7.04076 10 6.875C10 6.70924 9.93415 6.55027 9.81694 6.43306C9.69973 6.31585 9.54076 6.25 9.375 6.25ZM13.125 6.25C12.9592 6.25 12.8003 6.31585 12.6831 6.43306C12.5658 6.55027 12.5 6.70924 12.5 6.875C12.5 7.04076 12.5658 7.19973 12.6831 7.31694C12.8003 7.43415 12.9592 7.5 13.125 7.5C13.2908 7.5 13.4497 7.43415 13.5669 7.31694C13.6842 7.19973 13.75 7.04076 13.75 6.875C13.75 6.70924 13.6842 6.55027 13.5669 6.43306C13.4497 6.31585 13.2908 6.25 13.125 6.25ZM5.625 8.75V10H10.625V8.75H5.625ZM11.875 8.75V10H16.875V8.75H11.875Z" fill="#EF9F27"/>
</svg>
