<svg preserveAspectRatio="none" width="100%" height="100%" overflow="visible" style="display: block;" viewBox="0 0 15 18" fill="none" xmlns="http://www.w3.org/2000/svg">
<path id="Vector" d="M7.5 5.72727C7.72101 5.72727 7.93297 5.81347 8.08926 5.96691C8.24554 6.12035 8.33333 6.32846 8.33333 6.54545C8.33333 6.76245 8.24554 6.97056 8.08926 7.124C7.93297 7.27744 7.72101 7.36364 7.5 7.36364C7.27899 7.36364 7.06702 7.27744 6.91074 7.124C6.75446 6.97056 6.66667 6.76245 6.66667 6.54545C6.66667 6.32846 6.75446 6.12035 6.91074 5.96691C7.06702 5.81347 7.27899 5.72727 7.5 5.72727ZM15 8.18182C15 12.7227 11.8 16.9691 7.5 18C3.2 16.9691 0 12.7227 0 8.18182V3.27273L7.5 0L15 3.27273V8.18182ZM7.5 4.09091C6.83696 4.09091 6.20107 4.34951 5.73223 4.80983C5.26339 5.27015 5 5.89447 5 6.54545C5 7.61727 5.69167 8.52545 6.66667 8.86091V13.9091H8.33333V12.2727H10V10.6364H8.33333V8.86091C9.30833 8.52545 10 7.61727 10 6.54545C10 5.89447 9.73661 5.27015 9.26777 4.80983C8.79893 4.34951 8.16304 4.09091 7.5 4.09091Z" fill="var(--fill-0, #3D2000)"/>
</svg>
