<svg preserveAspectRatio="none" width="100%" height="100%" overflow="visible" style="display: block;" viewBox="0 0 25 25" fill="none" xmlns="http://www.w3.org/2000/svg">
<g id="lsicon:marketplace-filled" clip-path="url(#clip0_75_4431)">
<path id="Vector" fill-rule="evenodd" clip-rule="evenodd" d="M4.16667 0C3.97338 6.48612e-06 3.7839 0.0537925 3.61944 0.155341C3.45498 0.256889 3.32201 0.402194 3.23542 0.575L0.110417 6.825C0.0378181 6.96985 1.08499e-05 7.12964 0 7.29167V11.4583C0 11.7346 0.109747 11.9996 0.305097 12.1949C0.500448 12.3903 0.765399 12.5 1.04167 12.5H2.08333V23.9583C2.08333 24.2346 2.19308 24.4996 2.38843 24.6949C2.58378 24.8903 2.84873 25 3.125 25H21.875C22.1513 25 22.4162 24.8903 22.6116 24.6949C22.8069 24.4996 22.9167 24.2346 22.9167 23.9583V12.5H23.9583C24.2346 12.5 24.4996 12.3903 24.6949 12.1949C24.8903 11.9996 25 11.7346 25 11.4583V7.29167C25 7.12964 24.9622 6.96985 24.8896 6.825L21.7646 0.575C21.678 0.402194 21.545 0.256889 21.3806 0.155341C21.2161 0.0537925 21.0266 6.48612e-06 20.8333 0H4.16667ZM22.9167 7.5375V10.4167H18.75V8.33333H16.6667V10.4167H13.5417V8.33333H11.4583V10.4167H8.33333V8.33333H6.25V10.4167H2.08333V7.5375L4.81042 2.08333H20.1896L22.9167 7.5375ZM9.375 16.6667H11.4583V14.5833H9.375V16.6667ZM13.5417 16.6667H15.625V14.5833H13.5417V16.6667ZM11.4583 19.7917H9.375V17.7083H11.4583V19.7917ZM13.5417 19.7917H15.625V17.7083H13.5417V19.7917Z" fill="var(--fill-0, #3A3434)"/>
</g>
<defs>
<clipPath id="clip0_75_4431">
<rect width="25" height="25" fill="white"/>
</clipPath>
</defs>
</svg>
