<svg preserveAspectRatio="none" width="100%" height="100%" overflow="visible" style="display: block;" viewBox="0 0 13 13" fill="none" xmlns="http://www.w3.org/2000/svg">
<g id="uis:calender">
<path id="Vector" d="M1.08333 10.2917C1.08333 11.2125 1.7875 11.9167 2.70833 11.9167H10.2917C11.2125 11.9167 11.9167 11.2125 11.9167 10.2917V5.95833H1.08333V10.2917ZM10.2917 2.16667H9.20833V1.625C9.20833 1.3 8.99167 1.08333 8.66667 1.08333C8.34167 1.08333 8.125 1.3 8.125 1.625V2.16667H4.875V1.625C4.875 1.3 4.65833 1.08333 4.33333 1.08333C4.00833 1.08333 3.79167 1.3 3.79167 1.625V2.16667H2.70833C1.7875 2.16667 1.08333 2.87083 1.08333 3.79167V4.875H11.9167V3.79167C11.9167 2.87083 11.2125 2.16667 10.2917 2.16667Z" fill="var(--fill-0, #3D2000)"/>
</g>
</svg>
