<svg preserveAspectRatio="none" width="100%" height="100%" overflow="visible" style="display: block;" viewBox="0 0 26 26" fill="none" xmlns="http://www.w3.org/2000/svg">
<g id="lsicon:paste-filled">
<path id="Vector" fill-rule="evenodd" clip-rule="evenodd" d="M8.80484 4C8.60593 4 8.41516 4.0878 8.27451 4.24408C8.13386 4.40035 8.05484 4.61232 8.05484 4.83333V7.33331H9.55484V5.66666H20.0548V17.3333H18.5548V18.9999H20.8048C21.0038 18.9999 21.1945 18.9121 21.3352 18.7558C21.4758 18.5996 21.5548 18.3876 21.5548 18.1666V4.83333C21.5548 4.61232 21.4758 4.40035 21.3352 4.24408C21.1945 4.0878 21.0038 4 20.8048 4H8.80484ZM5.75 7.30793C5.55109 7.30793 5.36032 7.39573 5.21967 7.55201C5.07902 7.70829 5 7.92025 5 8.14126V21.4745C5 21.6955 5.07902 21.9075 5.21967 22.0638C5.36032 22.22 5.55109 22.3078 5.75 22.3078H17.75C17.9489 22.3078 18.1397 22.22 18.2803 22.0638C18.421 21.9075 18.5 21.6955 18.5 21.4745V8.14126C18.5 7.92025 18.421 7.70829 18.2803 7.55201C18.1397 7.39573 17.9489 7.30793 17.75 7.30793H5.75ZM8 13.9746H15.5V12.3079H8V13.9746ZM8 17.3079H15.5V15.6412H8V17.3079Z" fill="var(--fill-0, #3D2000)"/>
</g>
</svg>
