<svg preserveAspectRatio="none" width="100%" height="100%" overflow="visible" style="display: block;" viewBox="0 0 25 25" fill="none" xmlns="http://www.w3.org/2000/svg">
<g id="ant-design:reload-time-outline" clip-path="url(#clip0_75_4421)">
<path id="Vector" d="M13.2232 5.55233H11.7813C11.6494 5.55233 11.5415 5.65698 11.5415 5.78489V13.7878C11.5415 13.8634 11.5775 13.9331 11.6404 13.9767L16.5955 17.4855C16.7034 17.561 16.8533 17.5407 16.9313 17.436L17.7886 16.3023C17.8695 16.1948 17.8455 16.0494 17.7376 15.9767L13.463 12.9797V5.78489C13.463 5.65698 13.3551 5.55233 13.2232 5.55233ZM19.812 7.73837L24.5122 8.85175C24.6621 8.88663 24.809 8.77616 24.809 8.62791L24.833 3.93314C24.833 3.73838 24.6022 3.62791 24.4463 3.75L19.722 7.32849C19.6863 7.35528 19.6592 7.39129 19.6436 7.43239C19.6281 7.47349 19.6248 7.51801 19.6342 7.56083C19.6436 7.60365 19.6653 7.64303 19.6967 7.67443C19.7282 7.70584 19.7681 7.72801 19.812 7.73837ZM24.839 16.4913L23.1393 15.9244C23.0801 15.9047 23.0152 15.9083 22.9586 15.9344C22.9021 15.9604 22.8582 16.007 22.8366 16.064C22.7796 16.2122 22.7197 16.3576 22.6567 16.5029C22.1231 17.7267 21.3587 18.8285 20.3815 19.7733C19.4151 20.7133 18.2699 21.4626 17.0092 21.9797C15.7032 22.5151 14.2994 22.7899 12.8815 22.7878C11.4486 22.7878 10.0607 22.5174 8.75373 21.9797C7.49305 21.4626 6.34778 20.7133 5.3814 19.7733C4.40718 18.8285 3.64278 17.7267 3.10621 16.5029C2.55706 15.2357 2.27572 13.8745 2.27886 12.5C2.27886 11.1105 2.55764 9.76163 3.1122 8.49419C3.64578 7.27035 4.41017 6.16861 5.3874 5.22384C6.35377 4.28378 7.49904 3.53447 8.75973 3.01744C10.0607 2.47965 11.4516 2.20931 12.8845 2.20931C14.3173 2.20931 15.7052 2.47965 17.0122 3.01744C18.2729 3.53447 19.4181 4.28378 20.3845 5.22384C20.6903 5.52326 20.978 5.8343 21.2418 6.16279L23.0344 4.80233C20.6753 1.87791 17.0032 -0.00290361 12.8785 3.36494e-06C5.69615 0.00291034 -0.0712772 5.65989 0.000665809 12.6279C0.0726088 19.4738 5.81306 25 12.8845 25C18.4451 25 23.1813 21.5814 24.9859 16.7936C25.0308 16.6715 24.9649 16.5349 24.839 16.4913Z" fill="var(--fill-0, #3A3434)"/>
</g>
<defs>
<clipPath id="clip0_75_4421">
<rect width="25" height="25" fill="white"/>
</clipPath>
</defs>
</svg>
