<svg preserveAspectRatio="none" width="100%" height="100%" overflow="visible" style="display: block;" viewBox="0 0 25 25" fill="none" xmlns="http://www.w3.org/2000/svg">
<g id="simple-line-icons:calender" clip-path="url(#clip0_75_4410)">
<path id="Vector" d="M23.4375 2.34102L17.182 2.34104V0.784009C17.182 0.352368 16.8324 0.00275879 16.4008 0.00275879C15.9691 0.00275879 15.6195 0.352368 15.6195 0.784009V2.34065H9.36953V0.784009C9.36953 0.352368 9.01992 0.00275879 8.58828 0.00275879C8.15664 0.00275879 7.80703 0.352368 7.80703 0.784009V2.34065H1.5625C0.699609 2.34065 0 3.04026 0 3.90315V23.4344C0 24.2973 0.699609 24.9969 1.5625 24.9969H23.4375C24.3004 24.9969 25 24.2973 25 23.4344V3.90315C25 3.04062 24.3004 2.34102 23.4375 2.34102ZM23.4375 23.4344H1.5625V3.90315H7.80703V4.69026C7.80703 5.12188 8.15664 5.47151 8.58828 5.47151C9.01992 5.47151 9.36953 5.12188 9.36953 4.69026V3.90354H15.6195V4.69065C15.6195 5.12229 15.9691 5.4719 16.4008 5.4719C16.8324 5.4719 17.182 5.12229 17.182 4.69065V3.90354H23.4375V23.4344ZM17.9688 12.4973H19.5312C19.9625 12.4973 20.3125 12.1473 20.3125 11.716V10.1535C20.3125 9.72227 19.9625 9.37227 19.5312 9.37227H17.9688C17.5375 9.37227 17.1875 9.72227 17.1875 10.1535V11.716C17.1875 12.1473 17.5375 12.4973 17.9688 12.4973ZM17.9688 18.7469H19.5312C19.9625 18.7469 20.3125 18.3973 20.3125 17.9656V16.4031C20.3125 15.9719 19.9625 15.6219 19.5312 15.6219H17.9688C17.5375 15.6219 17.1875 15.9719 17.1875 16.4031V17.9656C17.1875 18.3977 17.5375 18.7469 17.9688 18.7469ZM13.2812 15.6219H11.7188C11.2875 15.6219 10.9375 15.9719 10.9375 16.4031V17.9656C10.9375 18.3973 11.2875 18.7469 11.7188 18.7469H13.2812C13.7125 18.7469 14.0625 18.3973 14.0625 17.9656V16.4031C14.0625 15.9723 13.7125 15.6219 13.2812 15.6219ZM13.2812 9.37227H11.7188C11.2875 9.37227 10.9375 9.72227 10.9375 10.1535V11.716C10.9375 12.1473 11.2875 12.4973 11.7188 12.4973H13.2812C13.7125 12.4973 14.0625 12.1473 14.0625 11.716V10.1535C14.0625 9.72187 13.7125 9.37227 13.2812 9.37227ZM7.03125 9.37227H5.46875C5.0375 9.37227 4.6875 9.72227 4.6875 10.1535V11.716C4.6875 12.1473 5.0375 12.4973 5.46875 12.4973H7.03125C7.4625 12.4973 7.8125 12.1473 7.8125 11.716V10.1535C7.8125 9.72187 7.4625 9.37227 7.03125 9.37227ZM7.03125 15.6219H5.46875C5.0375 15.6219 4.6875 15.9719 4.6875 16.4031V17.9656C4.6875 18.3973 5.0375 18.7469 5.46875 18.7469H7.03125C7.4625 18.7469 7.8125 18.3973 7.8125 17.9656V16.4031C7.8125 15.9723 7.4625 15.6219 7.03125 15.6219Z" fill="var(--fill-0, #3A3434)"/>
</g>
<defs>
<clipPath id="clip0_75_4410">
<rect width="25" height="25" fill="white"/>
</clipPath>
</defs>
</svg>
