<svg width="330" height="65" viewBox="0 0 330 65" fill="none" xmlns="http://www.w3.org/2000/svg">
<rect x="0.5" y="0.5" width="329" height="64" rx="9.5" fill="#FAEFDF"/>
<rect x="0.5" y="0.5" width="329" height="64" rx="9.5" stroke="#FAEFDF"/>
<path d="M26.5 19.7273C26.721 19.7273 26.933 19.8135 27.0893 19.9669C27.2455 20.1204 27.3333 20.3285 27.3333 20.5455C27.3333 20.7624 27.2455 20.9706 27.0893 21.124C26.933 21.2774 26.721 21.3636 26.5 21.3636C26.279 21.3636 26.067 21.2774 25.9107 21.124C25.7545 20.9706 25.6667 20.7624 25.6667 20.5455C25.6667 20.3285 25.7545 20.1204 25.9107 19.9669C26.067 19.8135 26.279 19.7273 26.5 19.7273ZM34 22.1818C34 26.7227 30.8 30.9691 26.5 32C22.2 30.9691 19 26.7227 19 22.1818V17.2727L26.5 14L34 17.2727V22.1818ZM26.5 18.0909C25.837 18.0909 25.2011 18.3495 24.7322 18.8098C24.2634 19.2701 24 19.8945 24 20.5455C24 21.6173 24.6917 22.5255 25.6667 22.8609V27.9091H27.3333V26.2727H29V24.6364H27.3333V22.8609C28.3083 22.5255 29 21.6173 29 20.5455C29 19.8945 28.7366 19.2701 28.2678 18.8098C27.7989 18.3495 27.163 18.0909 26.5 18.0909Z" fill="#3D2000"/>
<path d="M48.632 17.956H50.228V26.032H48.632V17.956ZM49.784 21.124H51.704V22.444H49.784V21.124ZM43.064 27.592H50.624V28.876H43.064V27.592ZM43.064 25.192H44.672V28.168H43.064V25.192ZM44.576 18.664C45.144 18.664 45.656 18.784 46.112 19.024C46.568 19.264 46.928 19.596 47.192 20.02C47.464 20.444 47.6 20.932 47.6 21.484C47.6 22.028 47.464 22.516 47.192 22.948C46.928 23.372 46.568 23.708 46.112 23.956C45.656 24.196 45.144 24.316 44.576 24.316C44.008 24.316 43.496 24.196 43.04 23.956C42.584 23.708 42.224 23.372 41.96 22.948C41.696 22.516 41.564 22.028 41.564 21.484C41.564 20.932 41.696 20.444 41.96 20.02C42.224 19.596 42.584 19.264 43.04 19.024C43.496 18.784 44.008 18.664 44.576 18.664ZM44.576 20.044C44.304 20.044 44.056 20.104 43.832 20.224C43.616 20.336 43.444 20.5 43.316 20.716C43.188 20.924 43.124 21.18 43.124 21.484C43.124 21.788 43.188 22.048 43.316 22.264C43.444 22.472 43.616 22.636 43.832 22.756C44.056 22.868 44.304 22.924 44.576 22.924C44.856 22.924 45.104 22.868 45.32 22.756C45.544 22.636 45.72 22.472 45.848 22.264C45.976 22.048 46.04 21.788 46.04 21.484C46.04 21.18 45.976 20.924 45.848 20.716C45.72 20.5 45.544 20.336 45.32 20.224C45.104 20.104 44.856 20.044 44.576 20.044ZM60.5231 17.944H62.0351V29.056H60.5231V17.944ZM59.0711 22.228H60.9191V23.512H59.0711V22.228ZM58.0391 18.136H59.5271V28.54H58.0391V18.136ZM52.9631 19.18H54.5591V25.6H52.9631V19.18ZM52.9631 24.988H53.7311C54.2671 24.988 54.8431 24.972 55.4591 24.94C56.0831 24.9 56.7391 24.812 57.4271 24.676L57.5711 26.044C56.8511 26.172 56.1711 26.256 55.5311 26.296C54.8911 26.336 54.2911 26.356 53.7311 26.356H52.9631V24.988ZM66.0661 18.808H67.3501V20.416C67.3501 21.104 67.2901 21.776 67.1701 22.432C67.0501 23.08 66.8621 23.684 66.6061 24.244C66.3581 24.804 66.0421 25.304 65.6581 25.744C65.2741 26.176 64.8221 26.52 64.3021 26.776L63.3421 25.492C63.8141 25.276 64.2181 24.988 64.5541 24.628C64.8981 24.268 65.1821 23.86 65.4061 23.404C65.6301 22.948 65.7941 22.468 65.8981 21.964C66.0101 21.452 66.0661 20.936 66.0661 20.416V18.808ZM66.3781 18.808H67.6621V20.416C67.6621 20.92 67.7101 21.416 67.8061 21.904C67.9101 22.392 68.0661 22.856 68.2741 23.296C68.4901 23.728 68.7581 24.116 69.0781 24.46C69.3981 24.804 69.7821 25.088 70.2301 25.312L69.2581 26.584C68.7621 26.328 68.3301 25.992 67.9621 25.576C67.6021 25.152 67.3061 24.668 67.0741 24.124C66.8421 23.572 66.6661 22.984 66.5461 22.36C66.4341 21.728 66.3781 21.08 66.3781 20.416V18.808ZM70.6621 17.956H72.2701V29.068H70.6621V17.956ZM71.9221 22.228H73.8781V23.548H71.9221V22.228ZM81.7492 17.956H83.3452V25H81.7492V17.956ZM82.9132 20.788H84.8212V22.084H82.9132V20.788ZM79.7452 25.108C80.5052 25.108 81.1652 25.188 81.7252 25.348C82.2852 25.508 82.7132 25.736 83.0092 26.032C83.3132 26.328 83.4652 26.68 83.4652 27.088C83.4652 27.504 83.3132 27.86 83.0092 28.156C82.7132 28.452 82.2852 28.676 81.7252 28.828C81.1652 28.988 80.5052 29.068 79.7452 29.068C78.9772 29.068 78.3132 28.988 77.7532 28.828C77.1932 28.676 76.7612 28.452 76.4572 28.156C76.1532 27.86 76.0012 27.504 76.0012 27.088C76.0012 26.68 76.1532 26.328 76.4572 26.032C76.7612 25.736 77.1932 25.508 77.7532 25.348C78.3132 25.188 78.9772 25.108 79.7452 25.108ZM79.7452 26.32C79.0412 26.32 78.5052 26.384 78.1372 26.512C77.7772 26.632 77.5972 26.824 77.5972 27.088C77.5972 27.36 77.7772 27.56 78.1372 27.688C78.5052 27.816 79.0412 27.88 79.7452 27.88C80.4412 27.88 80.9692 27.816 81.3292 27.688C81.6972 27.56 81.8812 27.36 81.8812 27.088C81.8812 26.824 81.6972 26.632 81.3292 26.512C80.9692 26.384 80.4412 26.32 79.7452 26.32ZM74.6092 19H81.1372V20.248H74.6092V19ZM77.8732 20.62C78.4172 20.62 78.8932 20.704 79.3012 20.872C79.7092 21.032 80.0292 21.264 80.2612 21.568C80.4932 21.864 80.6092 22.212 80.6092 22.612C80.6092 23.004 80.4932 23.352 80.2612 23.656C80.0292 23.952 79.7092 24.184 79.3012 24.352C78.8932 24.512 78.4172 24.592 77.8732 24.592C77.3372 24.592 76.8612 24.512 76.4452 24.352C76.0372 24.184 75.7172 23.952 75.4852 23.656C75.2532 23.352 75.1372 23.004 75.1372 22.612C75.1372 22.212 75.2532 21.864 75.4852 21.568C75.7172 21.264 76.0372 21.032 76.4452 20.872C76.8612 20.704 77.3372 20.62 77.8732 20.62ZM77.8732 21.772C77.5212 21.772 77.2332 21.844 77.0092 21.988C76.7852 22.124 76.6732 22.332 76.6732 22.612C76.6732 22.884 76.7852 23.088 77.0092 23.224C77.2332 23.36 77.5212 23.428 77.8732 23.428C78.2332 23.428 78.5212 23.36 78.7372 23.224C78.9612 23.088 79.0732 22.884 79.0732 22.612C79.0732 22.332 78.9612 22.124 78.7372 21.988C78.5212 21.844 78.2332 21.772 77.8732 21.772ZM77.0812 17.872H78.6652V19.672H77.0812V17.872Z" fill="black"/>
<g clip-path="url(#clip0_1071_13338)">
<path fill-rule="evenodd" clip-rule="evenodd" d="M28.3154 42.5224L25.282 45.5557C25.1737 45.6641 25.0654 45.7182 24.9029 45.7182C24.7404 45.7182 24.632 45.6641 24.5237 45.5557L22.682 43.7141C22.4654 43.4974 22.4654 43.1724 22.682 42.9557C22.8987 42.7391 23.2237 42.7391 23.4404 42.9557L24.9029 44.4182L27.557 41.7641C27.7737 41.5474 28.0987 41.5474 28.3154 41.7641C28.532 41.9807 28.532 42.3057 28.3154 42.5224Z" fill="#3D2000"/>
<path d="M25.5013 38.6224C28.2096 38.6224 30.3763 40.7891 30.3763 43.4974C30.3763 46.2057 28.2096 48.3724 25.5013 48.3724C22.793 48.3724 20.6263 46.2057 20.6263 43.4974C20.6263 40.7891 22.793 38.6224 25.5013 38.6224ZM25.5013 37.5391C22.1971 37.5391 19.543 40.1932 19.543 43.4974C19.543 46.8016 22.1971 49.4557 25.5013 49.4557C28.8055 49.4557 31.4596 46.8016 31.4596 43.4974C31.4596 40.1932 28.8055 37.5391 25.5013 37.5391Z" fill="#3D2000"/>
</g>
<path d="M42.47 45.39H43.54V48.82H42.47V45.39ZM45.62 45.39H46.68V48.82H45.62V45.39ZM40.46 44.83H48.74V45.69H40.46V44.83ZM44.58 40.03C45.22 40.03 45.7833 40.1133 46.27 40.28C46.7567 40.44 47.1367 40.67 47.41 40.97C47.6833 41.27 47.82 41.6267 47.82 42.04C47.82 42.4467 47.6833 42.8033 47.41 43.11C47.1367 43.41 46.7567 43.6433 46.27 43.81C45.7833 43.97 45.22 44.05 44.58 44.05C43.94 44.05 43.3733 43.97 42.88 43.81C42.3933 43.6433 42.0133 43.41 41.74 43.11C41.4667 42.8033 41.33 42.4467 41.33 42.04C41.33 41.6267 41.4667 41.27 41.74 40.97C42.0133 40.67 42.3933 40.44 42.88 40.28C43.3733 40.1133 43.94 40.03 44.58 40.03ZM44.58 40.86C44.14 40.86 43.7567 40.91 43.43 41.01C43.11 41.1033 42.86 41.2367 42.68 41.41C42.5 41.5833 42.41 41.7933 42.41 42.04C42.41 42.2867 42.5 42.5 42.68 42.68C42.86 42.8533 43.11 42.9867 43.43 43.08C43.7567 43.1667 44.14 43.21 44.58 43.21C45.0133 43.21 45.39 43.1667 45.71 43.08C46.0367 42.9867 46.29 42.8533 46.47 42.68C46.65 42.5 46.74 42.2867 46.74 42.04C46.74 41.7933 46.65 41.5833 46.47 41.41C46.29 41.2367 46.0367 41.1033 45.71 41.01C45.39 40.91 45.0133 40.86 44.58 40.86ZM51.7492 45.32H52.7792V47.54H51.7492V45.32ZM54.7792 45.32H55.8092V47.54H54.7792V45.32ZM50.0392 40.94H57.5092V41.79H50.0392V40.94ZM49.6592 46.99H57.9392V47.85H49.6592V46.99ZM53.7792 42.28C54.7126 42.28 55.4492 42.4333 55.9892 42.74C56.5359 43.0467 56.8092 43.4733 56.8092 44.02C56.8092 44.5667 56.5359 44.9933 55.9892 45.3C55.4492 45.6 54.7126 45.75 53.7792 45.75C52.8392 45.75 52.0959 45.6 51.5492 45.3C51.0092 44.9933 50.7392 44.5667 50.7392 44.02C50.7392 43.4733 51.0092 43.0467 51.5492 42.74C52.0959 42.4333 52.8392 42.28 53.7792 42.28ZM53.7692 43.1C53.3559 43.1 53.0026 43.1367 52.7092 43.21C52.4159 43.2767 52.1892 43.38 52.0292 43.52C51.8759 43.6533 51.7992 43.82 51.7992 44.02C51.7992 44.2133 51.8759 44.38 52.0292 44.52C52.1892 44.6533 52.4159 44.7567 52.7092 44.83C53.0026 44.8967 53.3559 44.93 53.7692 44.93C54.1892 44.93 54.5459 44.8967 54.8392 44.83C55.1326 44.7567 55.3559 44.6533 55.5092 44.52C55.6692 44.38 55.7492 44.2133 55.7492 44.02C55.7492 43.82 55.6692 43.6533 55.5092 43.52C55.3559 43.38 55.1326 43.2767 54.8392 43.21C54.5459 43.1367 54.1892 43.1 53.7692 43.1ZM53.2592 39.81H54.2992V41.46H53.2592V39.81ZM65.3584 39.68H66.4084V48.82H65.3584V39.68ZM62.6684 40.65H63.7084C63.7084 41.33 63.6351 41.98 63.4884 42.6C63.3418 43.22 63.1018 43.81 62.7684 44.37C62.4418 44.9233 62.0084 45.4367 61.4684 45.91C60.9351 46.3833 60.2751 46.81 59.4884 47.19L58.9284 46.36C59.8151 45.9333 60.5318 45.4467 61.0784 44.9C61.6251 44.3533 62.0251 43.7433 62.2784 43.07C62.5384 42.39 62.6684 41.6433 62.6684 40.83V40.65ZM59.3784 40.65H63.1384V41.49H59.3784V40.65ZM74.1377 39.69H75.1877V46.3H74.1377V39.69ZM74.8777 42.36H76.4777V43.22H74.8777V42.36ZM71.6177 40.38H72.7377C72.7377 41.1867 72.5677 41.9133 72.2277 42.56C71.8877 43.2067 71.3977 43.7633 70.7577 44.23C70.1243 44.6967 69.361 45.0633 68.4677 45.33L68.0277 44.49C68.7877 44.27 69.4343 43.98 69.9677 43.62C70.5077 43.26 70.9177 42.8467 71.1977 42.38C71.4777 41.9133 71.6177 41.41 71.6177 40.87V40.38ZM68.4177 40.38H72.1677V41.23H68.4177V40.38ZM69.3977 47.79H75.5477V48.64H69.3977V47.79ZM69.3977 45.63H70.4477V48.16H69.3977V45.63ZM83.7269 39.68H84.7769V48.84H83.7269V39.68ZM79.9169 40.35C80.3702 40.35 80.7735 40.4833 81.1269 40.75C81.4869 41.0167 81.7669 41.39 81.9669 41.87C82.1669 42.35 82.2669 42.9167 82.2669 43.57C82.2669 44.23 82.1669 44.8033 81.9669 45.29C81.7669 45.77 81.4869 46.1433 81.1269 46.41C80.7735 46.67 80.3702 46.8 79.9169 46.8C79.4635 46.8 79.0569 46.67 78.6969 46.41C78.3435 46.1433 78.0635 45.77 77.8569 45.29C77.6569 44.8033 77.5569 44.23 77.5569 43.57C77.5569 42.9167 77.6569 42.35 77.8569 41.87C78.0635 41.39 78.3435 41.0167 78.6969 40.75C79.0569 40.4833 79.4635 40.35 79.9169 40.35ZM79.9169 41.3C79.6502 41.3 79.4135 41.39 79.2069 41.57C79.0069 41.75 78.8502 42.01 78.7369 42.35C78.6235 42.69 78.5669 43.0967 78.5669 43.57C78.5669 44.05 78.6235 44.46 78.7369 44.8C78.8502 45.14 79.0069 45.4033 79.2069 45.59C79.4135 45.77 79.6502 45.86 79.9169 45.86C80.1835 45.86 80.4169 45.77 80.6169 45.59C80.8169 45.4033 80.9735 45.14 81.0869 44.8C81.2002 44.46 81.2569 44.05 81.2569 43.57C81.2569 43.0967 81.2002 42.69 81.0869 42.35C80.9735 42.01 80.8169 41.75 80.6169 41.57C80.4169 41.39 80.1835 41.3 79.9169 41.3ZM91.0222 41.05H91.8622V42.33C91.8622 42.8367 91.8022 43.3333 91.6822 43.82C91.5622 44.3 91.3855 44.7533 91.1522 45.18C90.9255 45.6067 90.6522 45.9833 90.3322 46.31C90.0122 46.6367 89.6589 46.8967 89.2722 47.09L88.6622 46.26C89.0155 46.0933 89.3355 45.87 89.6222 45.59C89.9155 45.31 90.1655 44.9933 90.3722 44.64C90.5789 44.28 90.7389 43.9033 90.8522 43.51C90.9655 43.1167 91.0222 42.7233 91.0222 42.33V41.05ZM91.2422 41.05H92.0822V42.33C92.0822 42.71 92.1389 43.0867 92.2522 43.46C92.3655 43.8333 92.5255 44.1867 92.7322 44.52C92.9389 44.8533 93.1855 45.15 93.4722 45.41C93.7589 45.67 94.0822 45.8767 94.4422 46.03L93.8622 46.86C93.4622 46.68 93.1022 46.4367 92.7822 46.13C92.4622 45.8233 92.1855 45.47 91.9522 45.07C91.7255 44.6633 91.5489 44.23 91.4222 43.77C91.3022 43.3033 91.2422 42.8233 91.2422 42.33V41.05ZM88.9922 40.59H94.1122V41.46H88.9922V40.59ZM95.1722 39.69H96.2222V48.83H95.1722V39.69ZM98.3114 40.32H99.3514V44.16H98.3114V40.32ZM98.3114 43.83H99.0514C99.6914 43.83 100.351 43.8033 101.031 43.75C101.718 43.6967 102.431 43.5967 103.171 43.45L103.291 44.3C102.538 44.4533 101.808 44.56 101.101 44.62C100.401 44.6733 99.7181 44.7 99.0514 44.7H98.3114V43.83ZM103.991 39.69H105.031V46.28H103.991V39.69ZM104.721 42.33H106.321V43.22H104.721V42.33ZM99.2714 47.79H105.341V48.64H99.2714V47.79ZM99.2714 45.65H100.321V48.23H99.2714V45.65ZM115.847 39.68H116.897V48.82H115.847V39.68ZM113.157 40.65H114.197C114.197 41.33 114.123 41.98 113.977 42.6C113.83 43.22 113.59 43.81 113.257 44.37C112.93 44.9233 112.497 45.4367 111.957 45.91C111.423 46.3833 110.763 46.81 109.977 47.19L109.417 46.36C110.303 45.9333 111.02 45.4467 111.567 44.9C112.113 44.3533 112.513 43.7433 112.767 43.07C113.027 42.39 113.157 41.6433 113.157 40.83V40.65ZM109.867 40.65H113.627V41.49H109.867V40.65ZM118.546 46.84H126.826V47.71H118.546V46.84ZM119.226 40.54H126.096V41.39H119.226V40.54ZM119.266 44.37H126.076V45.21H119.266V44.37ZM120.576 41.33H121.616V44.45H120.576V41.33ZM123.706 41.33H124.746V44.45H123.706V41.33ZM128.285 45.83H129.035C129.595 45.83 130.108 45.8233 130.575 45.81C131.048 45.7967 131.505 45.77 131.945 45.73C132.392 45.69 132.848 45.6333 133.315 45.56L133.415 46.4C132.935 46.48 132.468 46.5433 132.015 46.59C131.562 46.63 131.092 46.6567 130.605 46.67C130.125 46.6767 129.602 46.68 129.035 46.68H128.285V45.83ZM128.285 40.48H132.795V41.34H129.325V46.12H128.285V40.48ZM129.075 43.04H132.445V43.87H129.075V43.04ZM134.245 39.69H135.295V48.83H134.245V39.69ZM137.904 40.08H143.744V40.92H137.904V40.08ZM143.174 40.08H144.214V40.9C144.214 41.3333 144.204 41.79 144.184 42.27C144.164 42.75 144.091 43.3 143.964 43.92L142.924 43.84C143.051 43.24 143.124 42.7067 143.144 42.24C143.164 41.7733 143.174 41.3267 143.174 40.9V40.08ZM143.494 41.76V42.53L137.804 42.79L137.664 41.92L143.494 41.76ZM136.954 44.45H145.194V45.29H136.954V44.45ZM140.174 43.23H141.224V44.99H140.174V43.23ZM137.964 47.84H144.394V48.69H137.964V47.84ZM137.964 45.98H139.004V48.2H137.964V45.98ZM146.144 44.43H154.404V45.27H146.144V44.43ZM147.174 47.79H153.484V48.64H147.174V47.79ZM147.174 45.99H148.224V48.06H147.174V45.99ZM150.274 39.98C150.927 39.98 151.497 40.0533 151.984 40.2C152.47 40.3467 152.847 40.56 153.114 40.84C153.387 41.1133 153.524 41.44 153.524 41.82C153.524 42.2067 153.387 42.54 153.114 42.82C152.847 43.0933 152.47 43.3067 151.984 43.46C151.497 43.6067 150.927 43.68 150.274 43.68C149.614 43.68 149.04 43.6067 148.554 43.46C148.067 43.3067 147.687 43.0933 147.414 42.82C147.147 42.54 147.014 42.2067 147.014 41.82C147.014 41.44 147.147 41.1133 147.414 40.84C147.687 40.56 148.067 40.3467 148.554 40.2C149.04 40.0533 149.614 39.98 150.274 39.98ZM150.274 40.82C149.827 40.82 149.44 40.86 149.114 40.94C148.787 41.02 148.534 41.1333 148.354 41.28C148.18 41.4267 148.094 41.6067 148.094 41.82C148.094 42.0333 148.18 42.2167 148.354 42.37C148.534 42.5233 148.787 42.64 149.114 42.72C149.44 42.8 149.827 42.84 150.274 42.84C150.72 42.84 151.107 42.8 151.434 42.72C151.76 42.64 152.01 42.5233 152.184 42.37C152.357 42.2167 152.444 42.0333 152.444 41.82C152.444 41.6067 152.357 41.4267 152.184 41.28C152.01 41.1333 151.76 41.02 151.434 40.94C151.107 40.86 150.72 40.82 150.274 40.82ZM159.749 41.05H160.589V42.33C160.589 42.8233 160.526 43.3133 160.399 43.8C160.279 44.28 160.106 44.7367 159.879 45.17C159.652 45.5967 159.379 45.9767 159.059 46.31C158.746 46.6367 158.399 46.8967 158.019 47.09L157.419 46.26C157.766 46.0867 158.079 45.86 158.359 45.58C158.646 45.2933 158.892 44.9733 159.099 44.62C159.312 44.26 159.472 43.8867 159.579 43.5C159.692 43.1067 159.749 42.7167 159.749 42.33V41.05ZM159.959 41.05H160.789V42.33C160.789 42.69 160.842 43.0533 160.949 43.42C161.056 43.78 161.209 44.13 161.409 44.47C161.609 44.8033 161.849 45.1067 162.129 45.38C162.416 45.6467 162.732 45.8633 163.079 46.03L162.499 46.86C162.112 46.6733 161.762 46.4233 161.449 46.11C161.142 45.79 160.876 45.4267 160.649 45.02C160.429 44.6133 160.259 44.18 160.139 43.72C160.019 43.26 159.959 42.7967 159.959 42.33V41.05ZM157.749 40.59H162.719V41.46H157.749V40.59ZM163.619 39.69H164.669V48.83H163.619V39.69ZM164.439 43.29H166.089V44.16H164.439V43.29ZM166.798 44.1H175.058V44.94H166.798V44.1ZM170.398 42.67H171.438V44.43H170.398V42.67ZM167.818 42.34H174.098V43.18H167.818V42.34ZM167.818 40.09H174.048V40.92H168.858V42.86H167.818V40.09ZM170.898 45.5C171.885 45.5 172.655 45.6467 173.208 45.94C173.768 46.2267 174.048 46.6333 174.048 47.16C174.048 47.6933 173.768 48.1033 173.208 48.39C172.655 48.6767 171.885 48.82 170.898 48.82C169.925 48.82 169.158 48.6767 168.598 48.39C168.038 48.1033 167.758 47.6933 167.758 47.16C167.758 46.6333 168.038 46.2267 168.598 45.94C169.158 45.6467 169.925 45.5 170.898 45.5ZM170.898 46.31C170.458 46.31 170.081 46.3433 169.768 46.41C169.455 46.4767 169.215 46.5733 169.048 46.7C168.888 46.82 168.808 46.9733 168.808 47.16C168.808 47.3467 168.888 47.5067 169.048 47.64C169.215 47.7667 169.455 47.8633 169.768 47.93C170.081 47.99 170.458 48.02 170.898 48.02C171.351 48.02 171.731 47.99 172.038 47.93C172.351 47.8633 172.588 47.7667 172.748 47.64C172.908 47.5067 172.988 47.3467 172.988 47.16C172.988 46.9733 172.908 46.82 172.748 46.7C172.588 46.5733 172.351 46.4767 172.038 46.41C171.731 46.3433 171.351 46.31 170.898 46.31ZM180.117 40.21C180.757 40.21 181.327 40.3167 181.827 40.53C182.334 40.7433 182.734 41.0433 183.027 41.43C183.327 41.8167 183.477 42.2667 183.477 42.78C183.477 43.3 183.327 43.7533 183.027 44.14C182.734 44.5267 182.334 44.8267 181.827 45.04C181.327 45.2533 180.757 45.36 180.117 45.36C179.484 45.36 178.911 45.2533 178.397 45.04C177.891 44.8267 177.487 44.5267 177.187 44.14C176.894 43.7533 176.747 43.3 176.747 42.78C176.747 42.2667 176.894 41.8167 177.187 41.43C177.487 41.0433 177.891 40.7433 178.397 40.53C178.911 40.3167 179.484 40.21 180.117 40.21ZM180.117 41.06C179.664 41.06 179.261 41.1333 178.907 41.28C178.554 41.42 178.274 41.62 178.067 41.88C177.867 42.1333 177.767 42.4333 177.767 42.78C177.767 43.1333 177.867 43.44 178.067 43.7C178.274 43.9533 178.554 44.15 178.907 44.29C179.261 44.43 179.664 44.5 180.117 44.5C180.571 44.5 180.974 44.43 181.327 44.29C181.681 44.15 181.957 43.9533 182.157 43.7C182.357 43.44 182.457 43.1333 182.457 42.78C182.457 42.4333 182.357 42.1333 182.157 41.88C181.957 41.62 181.681 41.42 181.327 41.28C180.974 41.1333 180.571 41.06 180.117 41.06ZM175.987 46.8H184.267V47.66H175.987V46.8ZM185.187 46.89H193.467V47.75H185.187V46.89ZM188.787 45.03H189.837V47.24H188.787V45.03ZM186.167 40.32H192.487V43.22H187.217V44.91H186.187V42.39H191.447V41.17H186.167V40.32ZM186.187 44.49H192.697V45.33H186.187V44.49ZM198.792 40.44H199.642V41.94C199.642 42.4667 199.582 42.9867 199.462 43.5C199.349 44.0067 199.182 44.48 198.962 44.92C198.749 45.36 198.485 45.7533 198.172 46.1C197.859 46.44 197.505 46.71 197.112 46.91L196.482 46.06C196.835 45.8867 197.155 45.6567 197.442 45.37C197.729 45.0767 197.972 44.7467 198.172 44.38C198.372 44.0067 198.525 43.6133 198.632 43.2C198.739 42.78 198.792 42.36 198.792 41.94V40.44ZM198.982 40.44H199.832V41.94C199.832 42.3467 199.882 42.75 199.982 43.15C200.082 43.5433 200.229 43.92 200.422 44.28C200.622 44.6333 200.859 44.95 201.132 45.23C201.405 45.51 201.712 45.7333 202.052 45.9L201.412 46.74C201.032 46.54 200.692 46.2767 200.392 45.95C200.099 45.6167 199.845 45.2367 199.632 44.81C199.425 44.3833 199.265 43.9267 199.152 43.44C199.039 42.9533 198.982 42.4533 198.982 41.94V40.44ZM202.662 39.69H203.712V48.83H202.662V39.69ZM203.482 43.3H205.132V44.18H203.482V43.3ZM207.791 42.76H208.831V44.47H207.791V42.76ZM211.081 42.76H212.121V44.47H211.081V42.76ZM205.831 44.12H214.091V44.95H205.831V44.12ZM209.941 45.55C210.928 45.55 211.698 45.69 212.251 45.97C212.811 46.25 213.091 46.6533 213.091 47.18C213.091 47.7 212.811 48.1033 212.251 48.39C211.698 48.6767 210.928 48.82 209.941 48.82C208.961 48.82 208.191 48.6767 207.631 48.39C207.078 48.1033 206.801 47.7 206.801 47.18C206.801 46.6533 207.078 46.25 207.631 45.97C208.191 45.69 208.961 45.55 209.941 45.55ZM209.941 46.34C209.501 46.34 209.124 46.3733 208.811 46.44C208.498 46.5 208.258 46.5933 208.091 46.72C207.931 46.84 207.851 46.9933 207.851 47.18C207.851 47.3667 207.931 47.5233 208.091 47.65C208.258 47.77 208.498 47.8633 208.811 47.93C209.124 47.99 209.501 48.02 209.941 48.02C210.394 48.02 210.774 47.99 211.081 47.93C211.394 47.8633 211.631 47.77 211.791 47.65C211.951 47.5233 212.031 47.3667 212.031 47.18C212.031 46.9933 211.951 46.84 211.791 46.72C211.631 46.5933 211.394 46.5 211.081 46.44C210.774 46.3733 210.394 46.34 209.941 46.34ZM209.961 39.84C210.628 39.84 211.204 39.91 211.691 40.05C212.178 40.1833 212.551 40.38 212.811 40.64C213.078 40.8933 213.211 41.2 213.211 41.56C213.211 41.92 213.078 42.23 212.811 42.49C212.551 42.7433 212.178 42.94 211.691 43.08C211.204 43.2133 210.628 43.28 209.961 43.28C209.294 43.28 208.714 43.2133 208.221 43.08C207.734 42.94 207.358 42.7433 207.091 42.49C206.831 42.23 206.701 41.92 206.701 41.56C206.701 41.2 206.831 40.8933 207.091 40.64C207.358 40.38 207.734 40.1833 208.221 40.05C208.714 39.91 209.294 39.84 209.961 39.84ZM209.961 40.64C209.508 40.64 209.118 40.6767 208.791 40.75C208.464 40.8233 208.214 40.9267 208.041 41.06C207.868 41.1933 207.781 41.36 207.781 41.56C207.781 41.7533 207.868 41.92 208.041 42.06C208.214 42.1933 208.464 42.2967 208.791 42.37C209.118 42.4433 209.508 42.48 209.961 42.48C210.414 42.48 210.801 42.4433 211.121 42.37C211.448 42.2967 211.698 42.1933 211.871 42.06C212.044 41.92 212.131 41.7533 212.131 41.56C212.131 41.36 212.044 41.1933 211.871 41.06C211.698 40.9267 211.448 40.8233 211.121 40.75C210.801 40.6767 210.414 40.64 209.961 40.64ZM219.516 43.44H220.556V44.82H219.516V43.44ZM220.016 40.08C220.456 40.08 220.846 40.1567 221.186 40.31C221.533 40.4633 221.803 40.68 221.996 40.96C222.19 41.2333 222.286 41.55 222.286 41.91C222.286 42.27 222.19 42.59 221.996 42.87C221.803 43.1433 221.533 43.3567 221.186 43.51C220.846 43.6633 220.456 43.74 220.016 43.74C219.576 43.74 219.186 43.6633 218.846 43.51C218.506 43.3567 218.24 43.1433 218.046 42.87C217.853 42.59 217.756 42.27 217.756 41.91C217.756 41.55 217.853 41.2333 218.046 40.96C218.24 40.68 218.506 40.4633 218.846 40.31C219.186 40.1567 219.576 40.08 220.016 40.08ZM220.016 40.88C219.77 40.88 219.546 40.9233 219.346 41.01C219.153 41.09 219.003 41.21 218.896 41.37C218.79 41.5233 218.736 41.7033 218.736 41.91C218.736 42.1167 218.79 42.3 218.896 42.46C219.003 42.6133 219.153 42.7333 219.346 42.82C219.546 42.9 219.77 42.94 220.016 42.94C220.27 42.94 220.493 42.9 220.686 42.82C220.88 42.7333 221.03 42.6133 221.136 42.46C221.25 42.3 221.306 42.1167 221.306 41.91C221.306 41.7033 221.25 41.5233 221.136 41.37C221.03 41.21 220.88 41.09 220.686 41.01C220.493 40.9233 220.27 40.88 220.016 40.88ZM223.386 39.69H224.426V46.67H223.386V39.69ZM224.026 42.68H225.686V43.55H224.026V42.68ZM218.516 47.79H224.746V48.64H218.516V47.79ZM218.516 46.08H219.566V48.16H218.516V46.08ZM217.376 45.39L217.256 44.55C217.776 44.55 218.353 44.5433 218.986 44.53C219.626 44.5167 220.276 44.49 220.936 44.45C221.603 44.41 222.24 44.3467 222.846 44.26L222.926 45.02C222.3 45.1333 221.656 45.2167 220.996 45.27C220.336 45.3233 219.696 45.3567 219.076 45.37C218.463 45.3833 217.896 45.39 217.376 45.39ZM228.696 45.03H229.726V47.23H228.696V45.03ZM231.596 45.02H232.626V47.22H231.596V45.02ZM226.476 46.89H234.756V47.75H226.476V46.89ZM227.456 40.32H233.776V43.2H228.506V44.91H227.476V42.38H232.736V41.17H227.456V40.32ZM227.476 44.47H233.986V45.31H227.476V44.47ZM244.461 39.68H245.501V48.84H244.461V39.68ZM242.651 43.28H244.721V44.13H242.651V43.28ZM240.151 41.95H240.971V42.59C240.971 43.07 240.914 43.54 240.801 44C240.688 44.46 240.521 44.8933 240.301 45.3C240.088 45.7 239.828 46.0533 239.521 46.36C239.214 46.6667 238.868 46.9133 238.481 47.1L237.901 46.29C238.254 46.1233 238.568 45.91 238.841 45.65C239.121 45.3833 239.358 45.0833 239.551 44.75C239.751 44.4167 239.901 44.0667 240.001 43.7C240.101 43.3333 240.151 42.9633 240.151 42.59V41.95ZM240.371 41.95H241.191V42.59C241.191 42.9433 241.241 43.2967 241.341 43.65C241.448 44.0033 241.598 44.34 241.791 44.66C241.991 44.9733 242.231 45.2567 242.511 45.51C242.791 45.7633 243.108 45.97 243.461 46.13L242.891 46.93C242.504 46.7567 242.154 46.5233 241.841 46.23C241.534 45.93 241.268 45.5867 241.041 45.2C240.821 44.8133 240.654 44.4 240.541 43.96C240.428 43.5133 240.371 43.0567 240.371 42.59V41.95ZM238.181 41.23H243.121V42.06H238.181V41.23ZM240.151 39.87H241.191V41.68H240.151V39.87ZM253.61 39.68H254.66V48.84H253.61V39.68ZM247.63 45.8H248.41C248.937 45.8 249.44 45.7933 249.92 45.78C250.407 45.76 250.89 45.7267 251.37 45.68C251.85 45.6333 252.347 45.57 252.86 45.49L252.96 46.34C252.173 46.4733 251.42 46.5633 250.7 46.61C249.98 46.65 249.217 46.67 248.41 46.67H247.63V45.8ZM247.61 40.5H251.88V43.88H248.69V46.13H247.63V43.05H250.81V41.35H247.61V40.5ZM258.809 42.77H259.859V44.27H258.809V42.77ZM262.819 39.69H263.869V44.97H262.819V39.69ZM256.489 44.8L256.349 43.97C256.903 43.97 257.506 43.9667 258.159 43.96C258.819 43.9467 259.493 43.92 260.179 43.88C260.866 43.84 261.526 43.7733 262.159 43.68L262.229 44.41C261.576 44.53 260.909 44.6167 260.229 44.67C259.549 44.7233 258.889 44.76 258.249 44.78C257.616 44.7933 257.029 44.8 256.489 44.8ZM257.139 42.24H261.549V43.08H257.139V42.24ZM257.139 40.12H261.479V40.97H258.189V42.54H257.139V40.12ZM257.799 45.36H258.829V46.19H262.839V45.36H263.869V48.71H257.799V45.36ZM258.829 46.99V47.88H262.839V46.99H258.829ZM272.019 39.68H273.069V48.82H272.019V39.68ZM266.049 40.57H267.089V46.24H266.049V40.57ZM266.049 45.62H266.829C267.515 45.62 268.222 45.59 268.949 45.53C269.675 45.47 270.419 45.36 271.179 45.2L271.299 46.09C270.512 46.25 269.749 46.36 269.009 46.42C268.269 46.48 267.542 46.51 266.829 46.51H266.049V45.62ZM280.748 39.68H281.798V48.84H280.748V39.68ZM281.568 43.19H283.218V44.06H281.568V43.19ZM275.088 45.72H275.828C276.374 45.72 276.878 45.7133 277.338 45.7C277.798 45.68 278.244 45.65 278.678 45.61C279.111 45.5633 279.551 45.5 279.998 45.42L280.108 46.29C279.648 46.3767 279.194 46.4433 278.748 46.49C278.308 46.53 277.848 46.56 277.368 46.58C276.894 46.5933 276.381 46.6 275.828 46.6H275.088V45.72ZM275.088 40.55H279.338V41.4H276.128V46.13H275.088V40.55ZM284.947 48.14C284.734 48.14 284.55 48.0633 284.397 47.91C284.25 47.75 284.177 47.5533 284.177 47.32C284.177 47.08 284.25 46.8867 284.397 46.74C284.55 46.5867 284.734 46.51 284.947 46.51C285.167 46.51 285.35 46.5867 285.497 46.74C285.65 46.8867 285.727 47.08 285.727 47.32C285.727 47.5533 285.65 47.75 285.497 47.91C285.35 48.0633 285.167 48.14 284.947 48.14Z" fill="#3D2000"/>
<defs>
<clipPath id="clip0_1071_13338">
<rect width="13" height="13" fill="white" transform="translate(19 37)"/>
</clipPath>
</defs>
</svg>
