<svg preserveAspectRatio="none" width="100%" height="100%" overflow="visible" style="display: block;" viewBox="0 0 47 65" fill="none" xmlns="http://www.w3.org/2000/svg">
<g id="Vector">
<path d="M25.4811 0.202015C26.7726 -0.104758 27.6866 -0.0149189 28.9757 0.160628C29.6765 0.24945 30.9214 0.384929 31.554 0.635462C32.5403 0.76543 36.1831 1.92101 37.1843 2.40824C38.0804 2.83306 38.5385 3.11025 39.3605 3.71092C40.1568 4.30027 40.667 4.75971 40.1778 5.81335C39.4878 7.44118 38.7781 9.0607 38.0499 10.6716C37.7369 11.3822 37.4537 12.1292 37.1311 12.8299C37.0535 13.1002 36.934 13.4876 36.7667 13.7174C36.6909 13.9888 36.615 14.0877 36.6741 14.3317L36.851 14.3988C38.2381 14.6179 39.796 15.3861 40.7244 16.4468C41.3916 17.3178 41.4263 18.3466 40.4185 18.9845L40.3193 19.1483C41.63 20.4469 44.1216 24.0728 44.2859 25.8741C44.8905 26.4667 45.0482 26.9282 45.314 27.7337C46.2513 30.575 46.7113 33.5191 46.5374 36.513C46.4813 37.4845 46.5649 37.6323 46.8277 38.5194C47.0219 39.3878 47.0703 40.5461 46.8773 41.426C46.7441 42.0668 46.5428 42.8113 46.2322 43.3917C45.9024 44.0361 45.6157 44.4715 45.17 45.0513C44.6025 45.6844 43.989 46.3504 43.2602 46.802C42.118 47.5207 41.9042 47.934 41.038 48.9671C40.6467 49.4343 39.9269 50.0428 39.4645 50.4872C38.2906 51.6162 37.4878 52.6895 35.8324 53.0506C36.2357 54.9972 36.2375 57.1515 35.937 59.1112C35.8671 59.5514 35.8044 59.8796 35.6986 60.3121C35.9268 60.3845 36.1771 60.457 36.3999 60.5391C36.8396 60.7457 37.112 60.8924 37.4908 61.2051C37.8062 61.5279 38.0176 61.7657 38.2196 62.1766C38.3677 62.5922 38.4251 62.8755 38.4 63.3223C38.3032 63.7979 38.2524 63.8985 37.9012 64.2423C37.4376 64.519 36.8808 64.7526 36.3408 64.8125C34.7177 65.1772 30.3061 65.1095 29.2762 63.7002C29.2004 63.5122 29.1538 63.3031 29.103 63.1055C29.0498 62.4706 29.0516 62.1095 29.0821 61.489C29.1149 60.9757 29.2016 60.3402 29.2607 59.8216C29.3891 58.2973 29.4154 56.9383 29.2625 55.408C25.9829 56.6706 23.8013 57.0629 20.3763 55.8884C20.2518 57.0233 20.2321 58.1679 20.3173 59.3065C20.405 60.5157 20.9589 63.369 19.8845 64.1273C18.8058 64.8879 16.6053 64.9436 15.2858 64.9496C14.2235 64.9227 12.8886 64.8538 11.9574 64.3692C10.5141 63.6176 11.0626 61.9633 12.0816 61.1392C12.6664 60.6666 13.1278 60.4714 13.8366 60.2737C13.6834 59.7173 13.589 59.0621 13.515 58.4901C13.4563 57.8181 13.3885 57.1587 13.386 56.4843C13.4095 56.074 13.4286 55.6835 13.4801 55.2751C13.4992 54.7474 13.6284 54.282 13.61 53.7699C13.6051 53.6334 13.5014 53.6016 13.3826 53.5196C13.6259 52.959 13.7329 53.2183 13.4615 52.5397L12.7705 52.0055C12.3561 51.8162 12.2368 51.927 11.8501 52.1121C10.7122 51.4551 9.99154 51.1251 9.08795 50.0362C8.73878 49.6152 8.44009 48.9863 8.01321 48.6646C6.71726 48.93 6.29139 48.5688 5.59294 47.5129C5.45082 47.4608 5.3093 47.4069 5.16832 47.3512C3.13372 46.548 1.45957 45.0495 0.591702 43.0203C-0.180526 41.2229 -0.197552 39.1889 0.544569 37.3787C0.862254 36.5901 1.42773 35.6591 2.23968 35.3154C2.30498 35.0751 2.38126 33.1637 2.46412 32.6329C2.99214 29.2506 3.37798 26.6747 5.05667 23.629C6.5525 20.9152 8.47408 18.6516 10.9472 16.7646C11.419 16.3336 12.3152 15.9884 12.7624 15.6094C14.1639 14.4213 14.9971 13.996 16.7411 13.4516C17.144 13.3159 17.4759 13.291 17.8932 13.2408C17.5862 12.3497 17.2271 11.8125 18.0239 11.0203C19.1275 9.80996 22.1627 10.484 23.5982 10.746L23.6537 10.5428C23.677 10.0679 23.8114 9.41299 23.8957 8.93115C23.9124 8.6203 23.9297 8.47075 23.9877 8.16511C24.3353 5.67428 24.5247 3.17811 24.8927 0.693198C24.9237 0.483632 25.3079 0.292873 25.4811 0.202015Z" fill="#F5C25A"/>
<path d="M21.4256 40.6018L21.6615 40.4838C21.7763 40.5671 21.7952 40.5881 21.8937 40.6917L22.7427 40.736C22.7385 40.9528 22.7618 41.0325 22.6322 41.187C22.3371 41.3343 21.958 41.2301 21.6153 41.2768C21.0871 41.3152 21.1045 41.6697 20.9618 42.1495C20.8386 42.1483 20.6555 42.086 20.5326 42.0506C20.6284 41.7518 20.71 41.5595 20.836 41.2714C20.8094 41.1235 20.9695 40.8138 21.1015 40.7372C21.3324 40.6971 21.2887 40.7402 21.4256 40.6018Z" fill="var(--fill-0, #5D1D07)"/>
<path d="M40.1604 47.3602C41.1294 47.0499 41.8516 46.7583 42.71 46.1971C42.8916 46.4546 43.035 46.5834 43.2602 46.802C42.118 47.5207 41.9042 47.934 41.038 48.9671C40.6467 49.4343 39.9269 50.0428 39.4645 50.4872C38.2906 51.6162 37.4878 52.6895 35.8324 53.0506C36.2357 54.9972 36.2375 57.1515 35.937 59.1112C35.8671 59.5514 35.8044 59.8796 35.6986 60.3121C35.9268 60.3845 36.1771 60.457 36.3999 60.5391C36.8396 60.7457 37.112 60.8924 37.4908 61.2051C37.8062 61.5279 38.0176 61.7657 38.2196 62.1766C38.3677 62.5922 38.4251 62.8755 38.4 63.3223C38.3032 63.7979 38.2524 63.8985 37.9012 64.2423C37.4376 64.519 36.8808 64.7526 36.3408 64.8125C34.7177 65.1772 30.3061 65.1095 29.2762 63.7002C29.2004 63.5122 29.1538 63.3031 29.103 63.1055C29.0498 62.4706 29.0516 62.1095 29.0821 61.489C29.1149 60.9757 29.2016 60.3402 29.2607 59.8216C29.3891 58.2973 29.4154 56.9383 29.2625 55.408C25.9829 56.6706 23.8013 57.0629 20.3763 55.8884C20.2518 57.0233 20.2321 58.1679 20.3173 59.3065C20.405 60.5157 20.9589 63.369 19.8845 64.1273C18.8058 64.8879 16.6053 64.9436 15.2858 64.9496C14.2235 64.9227 12.8886 64.8538 11.9574 64.3692C10.5141 63.6176 11.0626 61.9633 12.0816 61.1392C12.6664 60.6666 13.1278 60.4714 13.8366 60.2737C13.6834 59.7173 13.589 59.0621 13.515 58.4901C13.4563 57.8181 13.3885 57.1587 13.386 56.4843C13.4095 56.074 13.4286 55.6835 13.4801 55.2751C13.4992 54.7474 13.6284 54.282 13.61 53.7699C13.6051 53.6334 13.5014 53.6016 13.3826 53.5196C13.6259 52.959 13.7329 53.2183 13.4615 52.5397C14.5855 53.2525 15.2575 53.6777 16.5841 54.0317L16.6388 54.0323C17.377 54.3078 17.512 53.8963 17.9369 54.4186C17.992 54.9379 18.4319 54.96 18.2878 55.3242C18.5893 55.3996 19.3721 55.5607 19.6009 55.6614L19.6167 55.7237C19.7635 55.414 19.7313 55.187 19.7167 54.8528L20.3491 55.0367C20.7762 55.1583 21.2114 55.2529 21.6443 55.3523C23.0396 55.7818 25.4058 55.8584 26.7768 55.3637C29.066 54.5384 31.3676 53.9346 33.7362 53.4094C34.2972 53.2848 34.9949 52.4864 35.526 52.2043C36.032 51.9354 36.6431 51.8552 37.0977 51.5024C37.5421 51.1125 38.1288 50.5465 38.5194 50.1177C38.9328 49.6631 40.3713 48.5311 40.5887 48.0741L40.4735 48.0465C40.3892 47.8639 40.2315 47.5327 40.1604 47.3602Z" fill="#66230A"/>
<path d="M30.1639 58.4416C30.1574 58.7009 30.1155 58.9279 30.2494 59.134C30.5038 59.355 30.75 59.358 31.1287 59.6401C31.5654 59.6461 32.4172 59.6766 32.8247 59.6047C33.5218 59.5999 34.3677 59.4334 35.0081 59.1675L35.0983 58.9034C35.4961 58.9423 35.5612 58.9723 35.937 59.1112C35.8671 59.5514 35.8044 59.8796 35.6986 60.3121C35.9268 60.3845 36.1771 60.457 36.3999 60.5391C36.8396 60.7457 37.112 60.8924 37.4908 61.2051C37.8062 61.5279 38.0176 61.7657 38.2196 62.1766C38.3677 62.5922 38.4251 62.8755 38.4 63.3223C38.3032 63.7979 38.2524 63.8985 37.9012 64.2423C37.4376 64.519 36.8808 64.7526 36.3408 64.8125C34.7177 65.1772 30.3061 65.1095 29.2762 63.7002C29.2004 63.5122 29.1538 63.3031 29.103 63.1055C29.0498 62.4706 29.0516 62.1095 29.0821 61.489C29.4292 61.3812 29.462 61.4399 29.8593 61.565L29.959 60.8763C30.0869 60.0791 30.0474 59.207 30.1639 58.4416Z" fill="#955326"/>
<path d="M29.9584 63.499C31.8467 64.2051 33.7344 64.2495 35.707 64.1195L35.9023 64.1704C35.9925 64.368 35.98 64.41 35.9836 64.6346L36.063 64.7615L36.3408 64.8125C34.7177 65.1772 30.3061 65.1095 29.2762 63.7002C29.4632 63.6565 29.6777 63.6367 29.8706 63.614L29.9584 63.499Z" fill="#66230A"/>
<path d="M35.0081 59.1675L35.0983 58.9034C35.4961 58.9423 35.5612 58.9723 35.937 59.1112C35.8671 59.5514 35.8044 59.8796 35.6986 60.3121C35.9268 60.3845 36.1771 60.457 36.3999 60.5391C36.1126 60.7745 35.9173 60.9032 35.6025 61.1039C34.7022 60.8912 34.2709 61.2015 33.4573 61.0386C33.3623 61.0194 33.3748 60.9889 33.3366 60.8924C33.5959 60.442 34.3856 60.333 34.8575 60.2348C34.8981 59.8653 34.9483 59.5341 35.0081 59.1675Z" fill="var(--fill-0, #5D1D07)"/>
<path d="M38.2196 62.1766C38.3677 62.5922 38.4251 62.8755 38.4 63.3223C38.3032 63.7979 38.2524 63.8985 37.9012 64.2423C37.4376 64.519 36.8808 64.7526 36.3408 64.8125L36.063 64.7615L35.9836 64.6346C35.98 64.41 35.9925 64.368 35.9023 64.1704L35.707 64.1195C36.5612 63.9913 37.8755 63.8775 37.5583 62.6934C37.9059 62.4934 37.9376 62.4694 38.2196 62.1766Z" fill="#72280C"/>
<path d="M37.9012 64.2423C37.882 63.941 37.7638 63.6469 37.8934 63.4121C38.1234 63.2834 38.1204 63.3241 38.4 63.3223C38.3032 63.7979 38.2524 63.8985 37.9012 64.2423Z" fill="var(--fill-0, #5D1D07)"/>
<path d="M29.0821 61.489C29.4292 61.3812 29.462 61.4399 29.8593 61.565C29.8115 62.0574 29.8204 62.4323 29.7864 62.8749C29.8378 63.1306 29.8545 63.2564 29.9584 63.499L29.8706 63.614C29.6777 63.6367 29.4632 63.6565 29.2762 63.7002C29.2004 63.5122 29.1538 63.3031 29.103 63.1055C29.0498 62.4706 29.0516 62.1095 29.0821 61.489Z" fill="#72280C"/>
<path d="M29.103 63.1055C29.4841 63.142 29.471 63.1109 29.7864 62.8749C29.8378 63.1306 29.8545 63.2564 29.9584 63.499L29.8706 63.614C29.6777 63.6367 29.4632 63.6565 29.2762 63.7002C29.2004 63.5122 29.1538 63.3031 29.103 63.1055Z" fill="var(--fill-0, #5D1D07)"/>
<path d="M36.3999 60.5391C36.8396 60.7457 37.112 60.8924 37.4908 61.2051C37.2643 61.4021 37.1054 61.5477 36.851 61.7082C36.3892 61.377 36.1425 61.2644 35.6025 61.1039C35.9173 60.9032 36.1126 60.7745 36.3999 60.5391Z" fill="#72280C"/>
<path d="M37.4908 61.2051C37.8062 61.5279 38.0176 61.7657 38.2196 62.1766C37.9376 62.4694 37.9059 62.4934 37.5583 62.6934C37.3504 62.1963 37.2321 62.0729 36.851 61.7082C37.1054 61.5477 37.2643 61.4021 37.4908 61.2051Z" fill="#66230A"/>
<path d="M13.4615 52.5397C14.5855 53.2525 15.2575 53.6777 16.5841 54.0317L16.6388 54.0323C17.377 54.3078 17.512 53.8963 17.9369 54.4186C17.992 54.9379 18.4319 54.96 18.2878 55.3242C18.5893 55.3996 19.3721 55.5607 19.6009 55.6614L19.6167 55.7237L19.5407 56.2633C19.4955 57.0772 19.4295 58.1949 19.5066 59.007C19.2896 59.5856 18.1507 59.6904 17.6084 59.6533C16.8345 59.7215 15.1796 59.5407 14.5079 59.1855L14.3995 58.7237C14.2794 57.9134 14.237 57.1839 14.2159 56.3693C13.8565 56.4214 13.6558 56.3226 13.386 56.4843C13.4095 56.074 13.4286 55.6835 13.4801 55.2751C13.4992 54.7474 13.6284 54.282 13.61 53.7699C13.6051 53.6334 13.5014 53.6016 13.3826 53.5196C13.6259 52.959 13.7329 53.2183 13.4615 52.5397Z" fill="#EEAF4B"/>
<path d="M14.2425 56.3028L14.3204 55.9884C14.4788 55.971 15.2516 56.5053 15.4712 56.6149C17.2236 57.4857 18.3236 57.1551 18.4874 59.467C18.2438 59.4939 17.7892 59.5167 17.6084 59.6533C16.8345 59.7215 15.1796 59.5407 14.5079 59.1855L14.3995 58.7237C14.2794 57.9134 14.237 57.1839 14.2159 56.3693L14.2425 56.3028Z" fill="#F5C25A"/>
<path d="M13.4615 52.5397C14.5855 53.2525 15.2575 53.6777 16.5841 54.0317C16.4604 54.4857 16.1596 54.3862 16.0099 54.7797C15.4256 54.5965 15.015 54.3671 14.4605 54.1622C14.3367 54.2725 14.3425 54.4707 14.3057 54.6725C13.7872 54.7702 13.9057 55.1415 13.4801 55.2751C13.4992 54.7474 13.6284 54.282 13.61 53.7699C13.6051 53.6334 13.5014 53.6016 13.3826 53.5196C13.6259 52.959 13.7329 53.2183 13.4615 52.5397Z" fill="#66230A"/>
<path d="M16.5841 54.0317L16.6388 54.0323C17.377 54.3078 17.512 53.8963 17.9369 54.4186C17.6164 54.875 17.4655 54.8456 16.9501 55.0091C16.6653 54.9235 16.3055 54.8486 16.0099 54.7797C16.1596 54.3862 16.4604 54.4857 16.5841 54.0317Z" fill="#72280C"/>
<path d="M13.4801 55.2751C13.9057 55.1415 13.7872 54.7702 14.3057 54.6725C14.2797 55.1002 14.2079 55.9039 14.2425 56.3028L14.2159 56.3693C13.8565 56.4214 13.6558 56.3226 13.386 56.4843C13.4095 56.074 13.4286 55.6835 13.4801 55.2751Z" fill="var(--fill-0, #5D1D07)"/>
<path d="M17.9369 54.4186C17.992 54.9379 18.4319 54.96 18.2878 55.3242C17.8345 55.2241 17.3997 55.1289 16.9501 55.0091C17.4655 54.8456 17.6164 54.875 17.9369 54.4186Z" fill="#B16E32"/>
<path d="M19.5066 59.007L19.5288 59.0705C19.5368 59.3825 19.5323 59.7191 19.5919 60.0234C19.6309 60.6307 19.9172 62.9863 19.5865 63.366C19.0764 63.9518 17.0515 64.1087 16.2549 64.1488C15.8446 64.1656 15.4341 64.174 15.0235 64.1746C14.16 64.1321 12.7122 64.0716 12.0506 63.4834C11.6322 63.1115 12.1373 62.0861 12.5425 61.7681C13.6834 60.8727 14.6725 60.9655 16.0242 61.0721C16.1822 60.7463 15.7798 60.5439 15.5327 60.3917C15.0634 60.2624 14.7271 60.4133 14.5925 59.9431L14.5079 59.1855C15.1796 59.5407 16.8345 59.7215 17.6084 59.6533C18.1507 59.6904 19.2896 59.5856 19.5066 59.007Z" fill="#955325"/>
<path d="M30.0337 55.2182C31.4322 54.7857 32.8539 54.6648 34.1968 54.1545C34.4555 54.0562 34.8886 53.7262 35.1299 53.5531C35.259 54.421 35.3002 55.2523 35.3193 56.1273C35.3038 57.1581 35.2554 57.8852 35.0983 58.9034L35.0081 59.1675C34.3677 59.4334 33.5218 59.5999 32.8247 59.6047C32.4172 59.6766 31.5654 59.6461 31.1287 59.6401C30.75 59.358 30.5038 59.355 30.2494 59.134C30.1155 58.9279 30.1574 58.7009 30.1639 58.4416C30.1717 57.2252 30.1568 56.422 30.0337 55.2182Z" fill="#EEAF4B"/>
<path d="M31.3109 57.7774C32.149 57.2288 34.3259 56.4651 35.3193 56.1273C35.3038 57.1581 35.2554 57.8852 35.0983 58.9034L35.0081 59.1675C34.3677 59.4334 33.5218 59.5999 32.8247 59.6047C32.3049 59.576 31.5003 59.7012 31.1377 59.3825C30.9262 58.9543 31.1807 58.2494 31.3109 57.7774Z" fill="#F5C25A"/>
<path d="M29.2607 59.8216C29.3216 60.8248 29.8491 60.0372 29.959 60.8763L29.8593 61.565C29.462 61.4399 29.4292 61.3812 29.0821 61.489C29.1149 60.9757 29.2016 60.3402 29.2607 59.8216Z" fill="var(--fill-0, #5D1D07)"/>
<path d="M14.5925 59.9431C14.7271 60.4133 15.0634 60.2624 15.5327 60.3917C15.2321 60.5828 14.8534 60.808 14.5441 60.5516C14.4604 60.3444 14.5367 60.1719 14.5925 59.9431Z" fill="#72280C"/>
<path d="M19.7167 54.8528L20.3491 55.0367C20.1027 55.0391 20.0623 54.9978 19.8854 55.1223C19.8527 55.314 19.9801 55.5458 20.0594 55.7362C19.9176 55.8836 19.688 56.1375 19.5407 56.2633L19.6167 55.7237C19.7635 55.414 19.7313 55.187 19.7167 54.8528Z" fill="#72280C"/>
<path d="M19.5288 59.0705L19.8035 59.128C19.9607 59.4394 19.9505 59.8725 19.5919 60.0234C19.5323 59.7191 19.5368 59.3825 19.5288 59.0705Z" fill="var(--fill-0, #5D1D07)"/>
<path d="M20.5326 42.0506C20.6555 42.086 20.8386 42.1483 20.9618 42.1495C21.5132 42.3489 22.0079 42.8077 22.5492 42.7987C22.5056 43.4515 22.4811 44.1056 22.4751 44.7596L22.5038 44.8716C22.7535 44.7548 22.7821 44.8447 22.9715 45.0375L23.0713 45.688C25.0522 45.8748 27.177 45.7934 29.1783 45.87C28.7625 46.2899 28.5719 46.5031 28.5331 47.138C28.8037 47.1326 28.8742 47.129 29.1358 47.0661C29.2063 47.8956 29.4196 48.3089 29.9835 48.9432C30.0474 49.0001 30.4363 49.3361 30.4686 49.3756L30.8718 49.6229C31.971 50.1302 32.5015 50.1799 33.6998 50.1165C34.1425 49.9919 34.4071 49.9799 34.9334 49.808C35.1562 49.92 35.4161 50.0158 35.5529 50.2093C36.1771 49.8907 36.4567 49.6475 36.9794 49.1971C37.8109 49.4504 38.1043 49.5091 38.8838 48.9893C38.7237 48.827 38.7632 48.5431 38.762 48.3035C39.1455 47.7998 39.2638 47.5464 39.4699 46.9451C39.7453 46.9014 39.7142 46.8643 39.94 46.9487C39.9806 47.0182 40.0093 47.0541 40.0332 47.1296L40.0338 47.3314L40.1604 47.3602C40.2315 47.5327 40.3892 47.8639 40.4735 48.0465L40.5887 48.0741C40.3713 48.5311 38.9328 49.6631 38.5194 50.1177C38.1288 50.5465 37.5421 51.1125 37.0977 51.5024C36.6431 51.8552 36.032 51.9354 35.526 52.2043C34.9949 52.4864 34.2972 53.2848 33.7362 53.4094C31.3676 53.9346 29.066 54.5384 26.7768 55.3637C25.4058 55.8584 23.0396 55.7818 21.6443 55.3523C21.2114 55.2529 20.7762 55.1583 20.3491 55.0367L19.7167 54.8528C19.7313 55.187 19.7635 55.414 19.6167 55.7237L19.6009 55.6614C19.3721 55.5607 18.5893 55.3996 18.2878 55.3242C18.4319 54.96 17.992 54.9379 17.9369 54.4186C17.512 53.8963 17.377 54.3078 16.6388 54.0323L16.5841 54.0317C15.2575 53.6777 14.5855 53.2525 13.4615 52.5397L12.7705 52.0055C12.4537 51.6587 12.3196 51.3287 11.8819 51.028C11.4906 50.7591 11.0715 50.6465 10.7344 50.3051L10.8015 50.2512C10.776 50.0512 10.7584 50.0224 10.8454 49.8529C11.0458 49.6936 11.3683 49.7266 11.6594 49.7068C12.9289 49.6601 13.4125 49.584 14.5303 48.9102C14.6949 49.0857 14.8606 49.1534 15.0735 49.2666C15.3962 48.9803 15.5005 48.8701 15.7717 48.5341C15.6237 48.3322 15.5212 48.2765 15.3197 48.1382C15.6666 47.5824 15.7154 47.4183 15.8492 46.7696C16.1866 46.9283 16.0272 46.8283 16.407 46.7894C16.4672 46.3366 16.2996 45.9611 15.9746 45.6484L15.9505 45.5382C16.6645 45.4544 20.1015 45.7724 20.3403 45.54C20.3021 45.1699 20.272 44.7991 20.2499 44.4272C20.25 43.8259 20.277 43.4767 20.3461 42.8778L20.5326 42.0506Z" fill="#EEAF4B"/>
<path d="M20.5326 42.0506C20.6555 42.086 20.8386 42.1483 20.9618 42.1495C21.5132 42.3489 22.0079 42.8077 22.5492 42.7987C22.5056 43.4515 22.4811 44.1056 22.4751 44.7596L22.5038 44.8716C22.7535 44.7548 22.7821 44.8447 22.9715 45.0375L23.0713 45.688C25.0522 45.8748 27.177 45.7934 29.1783 45.87C28.7625 46.2899 28.5719 46.5031 28.5331 47.138C28.8037 47.1326 28.8742 47.129 29.1358 47.0661C29.2063 47.8956 29.4196 48.3089 29.9835 48.9432C29.7392 48.9024 29.3545 48.7737 29.1705 48.9366C28.9859 48.7012 28.8491 48.4053 28.7111 48.1376L26.8598 47.9387C25.2696 47.7411 23.8945 47.6519 22.3036 47.5285C22.051 47.4536 18.0544 47.4524 17.7146 47.4931L16.353 47.5081C16.2142 47.8076 15.9945 48.2909 15.7717 48.5341C15.6237 48.3322 15.5212 48.2765 15.3197 48.1382C15.6666 47.5824 15.7154 47.4183 15.8492 46.7696C16.1866 46.9283 16.0272 46.8283 16.407 46.7894C16.4672 46.3366 16.2996 45.9611 15.9746 45.6484L15.9505 45.5382C16.6645 45.4544 20.1015 45.7724 20.3403 45.54C20.3021 45.1699 20.272 44.7991 20.2499 44.4272C20.25 43.8259 20.277 43.4767 20.3461 42.8778L20.5326 42.0506Z" fill="#72280C"/>
<path d="M23.0713 45.688C25.0522 45.8748 27.177 45.7934 29.1783 45.87C28.7625 46.2899 28.5719 46.5031 28.5331 47.138C28.551 47.3722 28.5922 47.3644 28.4877 47.5069C28.0618 47.6015 27.5659 47.4296 27.103 47.3727C26.3748 47.3494 24.1854 47.1014 23.4267 47.014C23.2583 46.5654 23.1967 46.3378 23.0928 45.8688L23.0713 45.688Z" fill="#EAD0A2"/>
<path d="M20.3403 45.54C20.4321 45.9766 20.5588 46.5001 20.7432 46.9032C19.8767 46.8906 19.0101 46.896 18.1438 46.9194C17.7669 46.9271 16.8477 46.9775 16.5114 46.9206L16.407 46.7894C16.4672 46.3366 16.2996 45.9611 15.9746 45.6484L15.9505 45.5382C16.6645 45.4544 20.1015 45.7724 20.3403 45.54Z" fill="#EAD0A2"/>
<path d="M20.5326 42.0506C20.6555 42.086 20.8386 42.1483 20.9618 42.1495C21.5132 42.3489 22.0079 42.8077 22.5492 42.7987C22.5056 43.4515 22.4811 44.1056 22.4751 44.7596C22.1788 44.6812 21.863 44.5739 21.5799 44.6931C21.1662 45.1795 21.6797 45.4466 21.0237 45.6508L20.8237 45.6802C20.7479 45.2537 20.7196 44.8992 20.6835 44.4703C20.4748 44.4973 20.4496 44.4943 20.2499 44.4272C20.25 43.8259 20.277 43.4767 20.3461 42.8778L20.5326 42.0506Z" fill="#DF4934"/>
<path d="M20.2499 44.4272C20.25 43.8259 20.277 43.4767 20.3461 42.8778C20.5953 42.9437 20.5741 42.8957 20.7107 43.0568L20.7545 43.3348C20.7296 43.6971 20.6907 44.1116 20.6835 44.4703C20.4748 44.4973 20.4496 44.4943 20.2499 44.4272Z" fill="var(--fill-0, #5D1D07)"/>
<path d="M20.5326 42.0506C20.6555 42.086 20.8386 42.1483 20.9618 42.1495L20.926 42.3405C20.8881 42.5166 20.8393 42.7179 20.8091 42.8933L20.7545 43.3348L20.7107 43.0568C20.5741 42.8957 20.5953 42.9437 20.3461 42.8778L20.5326 42.0506Z" fill="#72280C"/>
<path d="M20.926 42.3405C21.2466 42.5244 21.2966 42.6801 21.1072 43.0173L20.9879 43.0868C20.8288 42.994 20.8854 43.0574 20.8091 42.8933C20.8393 42.7179 20.8881 42.5166 20.926 42.3405Z" fill="#DD543B"/>
<path d="M21.0237 45.6508C21.6797 45.4466 21.1662 45.1795 21.5799 44.6931C21.863 44.5739 22.1788 44.6812 22.4751 44.7596L22.5038 44.8716C22.7535 44.7548 22.7821 44.8447 22.9715 45.0375L23.0713 45.688L23.0928 45.8688C23.0653 46.1941 23.0563 46.3402 22.7899 46.5378C22.8496 46.7019 22.8694 46.7313 22.8604 46.911C22.6011 47.0913 21.6659 46.9176 21.2138 46.9086C21.0189 46.4294 20.9492 46.1725 20.8237 45.6802L21.0237 45.6508Z" fill="#BE3026"/>
<path d="M21.0237 45.6508C21.6797 45.4466 21.1662 45.1795 21.5799 44.6931C21.863 44.5739 22.1788 44.6812 22.4751 44.7596L22.5038 44.8716L22.5528 45.5945C22.3419 45.7041 21.4096 45.6239 21.0237 45.6508Z" fill="#DD543B"/>
<path d="M22.5038 44.8716C22.7535 44.7548 22.7821 44.8447 22.9715 45.0375L23.0713 45.688L23.0928 45.8688C23.0653 46.1941 23.0563 46.3402 22.7899 46.5378C22.6961 46.2635 22.6137 45.8784 22.5528 45.5945L22.5038 44.8716Z" fill="var(--fill-0, #5D1D07)"/>
<path d="M17.7146 47.4931C18.0544 47.4524 22.051 47.4536 22.3036 47.5285L22.097 47.5632C21.9948 47.7177 22.3759 48.4538 22.3915 48.8162C22.4172 49.3977 22.2296 49.8164 21.8549 50.2398C21.3111 50.8334 20.5517 51.2413 19.7442 51.291C17.9047 51.4048 16.3096 48.9623 17.7146 47.4931Z" fill="#964C1F"/>
<path d="M16.6388 54.0323C17.5211 54.0341 18.6162 53.5328 19.6159 53.5603C20.2569 54.1239 20.0439 54.3204 20.4959 54.8498C20.6282 55.0049 21.2354 55.0642 21.6443 55.3523C21.2114 55.2529 20.7762 55.1583 20.3491 55.0367L19.7167 54.8528C19.7313 55.187 19.7635 55.414 19.6167 55.7237L19.6009 55.6614C19.3721 55.5607 18.5893 55.3996 18.2878 55.3242C18.4319 54.96 17.992 54.9379 17.9369 54.4186C17.512 53.8963 17.377 54.3078 16.6388 54.0323Z" fill="#D58533"/>
<path d="M19.6009 55.6614C19.4217 55.4272 19.3374 55.3475 19.3333 55.0714C19.4965 54.8786 19.4391 54.9391 19.7167 54.8528C19.7313 55.187 19.7635 55.414 19.6167 55.7237L19.6009 55.6614Z" fill="#964C1F"/>
<path d="M30.4686 49.3756L30.8718 49.6229C31.971 50.1302 32.5015 50.1799 33.6998 50.1165C34.1425 49.9919 34.4071 49.9799 34.9334 49.808C35.1562 49.92 35.4161 50.0158 35.5529 50.2093C35.3408 50.3177 35.1126 50.4075 34.8886 50.4866C33.523 50.9699 32.0218 50.8843 30.7195 50.25C30.8694 50.1865 30.8724 50.1883 31.0086 50.0823C31.0003 49.8068 30.6382 49.7361 30.4686 49.3756Z" fill="#66230A"/>
<path d="M30.8718 49.6229C31.971 50.1302 32.5015 50.1799 33.6998 50.1165C32.9967 50.7058 31.3664 50.374 30.8718 49.6229Z" fill="#72280C"/>
<path d="M14.5303 48.9102C14.6949 49.0857 14.8606 49.1534 15.0735 49.2666C13.836 50.2452 12.7935 50.495 11.2153 50.3063C11.0772 50.2896 10.9393 50.271 10.8015 50.2512C10.776 50.0512 10.7584 50.0224 10.8454 49.8529C11.0458 49.6936 11.3683 49.7266 11.6594 49.7068C12.9289 49.6601 13.4125 49.584 14.5303 48.9102Z" fill="#69220B"/>
<path d="M39.4699 46.9451C39.7453 46.9014 39.7142 46.8643 39.94 46.9487C39.9806 47.0182 40.0093 47.0541 40.0332 47.1296L40.0338 47.3314L40.1604 47.3602C40.2315 47.5327 40.3892 47.8639 40.4735 48.0465C40.1407 48.1819 39.9364 48.2029 39.5828 48.2592C39.3534 48.5293 39.1652 48.7731 38.8838 48.9893C38.7237 48.827 38.7632 48.5431 38.762 48.3035C39.1455 47.7998 39.2638 47.5464 39.4699 46.9451Z" fill="var(--fill-0, #5D1D07)"/>
<path d="M29.1705 48.9366C29.3545 48.7737 29.7392 48.9024 29.9835 48.9432C30.0474 49.0001 30.4363 49.3361 30.4686 49.3756C30.6382 49.7361 31.0003 49.8068 31.0086 50.0823C30.8724 50.1883 30.8694 50.1865 30.7195 50.25C30.0385 49.8691 29.6424 49.5541 29.1705 48.9366Z" fill="var(--fill-0, #5D1D07)"/>
<path d="M25.4811 0.202015C26.7726 -0.104758 27.6866 -0.0149189 28.9757 0.160628C29.6765 0.24945 30.9214 0.384929 31.554 0.635462C32.5403 0.76543 36.1831 1.92101 37.1843 2.40824C38.0804 2.83306 38.5385 3.11025 39.3605 3.71092C40.1568 4.30027 40.667 4.75971 40.1778 5.81335C39.4878 7.44118 38.7781 9.0607 38.0499 10.6716C37.7369 11.3822 37.4537 12.1292 37.1311 12.8299L36.9274 12.7538L36.8796 12.6437L36.6293 12.4246L36.5654 12.5199C35.7363 12.8086 34.7631 12.7884 33.8939 12.7635C31.8676 12.5603 31.0445 12.326 29.1066 11.7097C27.0116 11.0433 26.1203 10.1997 24.2768 9.19917V9.1458C24.1454 9.03812 24.0474 9.00194 23.8957 8.93115C23.9124 8.6203 23.9297 8.47075 23.9877 8.16511C24.3353 5.67428 24.5247 3.17811 24.8927 0.693198C24.9237 0.483632 25.3079 0.292873 25.4811 0.202015Z" fill="#6952C6"/>
<path d="M25.4811 0.202015C26.7726 -0.104758 27.6866 -0.0149189 28.9757 0.160628C29.6765 0.24945 30.9214 0.384929 31.554 0.635462C32.5403 0.76543 36.1831 1.92101 37.1843 2.40824C38.0804 2.83306 38.5385 3.11025 39.3605 3.71092C40.1568 4.30027 40.667 4.75971 40.1778 5.81335C39.9645 5.8279 39.891 5.56593 39.7907 5.3908C39.3355 5.42704 38.9364 5.60438 38.4794 5.66517L37.5033 5.63906C37.155 5.61139 36.7906 5.55431 36.4453 5.50376C35.9776 5.47807 35.3205 5.43794 34.8695 5.3363C34.8133 5.32737 34.7482 5.31677 34.7094 5.27227C34.4824 5.0094 34.0708 5.20519 33.7225 5.0905C32.4901 4.68448 31.2165 4.28427 30.0074 3.81154L29.6197 3.49794C28.4925 3.05922 27.9704 2.68081 26.9411 2.11093C26.5898 1.82919 26.0528 1.40521 25.6555 1.21553V1.05316C25.2439 1.14491 25.2218 3.09426 25.1967 3.53357L25.1537 3.50033C25.1537 3.38546 25.1609 3.17517 25.1406 3.07257C25.1818 2.21676 25.1681 1.479 25.5337 0.695295C25.5594 0.54107 25.511 0.360552 25.4811 0.202015Z" fill="#8A7AD1"/>
<path d="M29.6197 3.49794C30.5893 3.67432 31.8712 4.27182 32.842 4.57254C33.4023 4.74623 34.1353 4.88111 34.7207 5.00239C35.6694 5.18597 39.0296 5.75022 39.6718 5.0224C39.2184 4.64854 39.0935 4.66088 39.0188 4.15089L39.2369 4.31811L39.3605 3.71092C40.1568 4.30027 40.667 4.75971 40.1778 5.81335C39.9645 5.8279 39.891 5.56593 39.7907 5.3908C39.3355 5.42704 38.9364 5.60438 38.4794 5.66517L37.5033 5.63906C37.155 5.61139 36.7906 5.55431 36.4453 5.50376C35.9776 5.47807 35.3205 5.43794 34.8695 5.3363C34.8133 5.32737 34.7482 5.31677 34.7094 5.27227C34.4824 5.0094 34.0708 5.20519 33.7225 5.0905C32.4901 4.68448 31.2165 4.28427 30.0074 3.81154L29.6197 3.49794Z" fill="#7066AE"/>
<path d="M39.3605 3.71092C40.1568 4.30027 40.667 4.75971 40.1778 5.81335C39.9645 5.8279 39.891 5.56593 39.7907 5.3908L39.9137 5.27125C39.9042 4.90968 39.5039 4.59045 39.2369 4.31811L39.3605 3.71092Z" fill="#372578"/>
<path d="M31.554 0.635462C32.5403 0.76543 36.1831 1.92101 37.1843 2.40824C37.0792 2.46514 36.882 2.56672 36.8026 2.6541C36.2112 2.36709 32.925 1.24889 32.2482 1.1167C32.1012 0.882821 31.8222 0.825502 31.5516 0.722006L31.554 0.635462Z" fill="#6D5ECB"/>
<path d="M25.4811 0.202015C26.7726 -0.104758 27.6866 -0.0149189 28.9757 0.160628C28.9256 0.439371 28.9781 0.402536 28.8109 0.554006C28.4184 0.674571 28.0552 0.548018 27.5982 0.598268C26.9949 0.543286 26.0821 0.424098 25.5337 0.695295C25.5594 0.54107 25.511 0.360552 25.4811 0.202015Z" fill="#49349D"/>
<path d="M28.9757 0.160628C29.6765 0.24945 30.9214 0.384929 31.554 0.635462L31.5516 0.722006C31.8222 0.825502 32.1012 0.882821 32.2482 1.1167C31.3234 0.873358 30.3461 0.772556 29.3939 0.701882C28.8712 0.663071 28.0689 0.705117 27.5982 0.598268C28.0552 0.548018 28.4184 0.674571 28.8109 0.554006C28.9781 0.402536 28.9256 0.439371 28.9757 0.160628Z" fill="#6952C6"/>
<path d="M37.1843 2.40824C38.0804 2.83306 38.5385 3.11025 39.3605 3.71092L39.2369 4.31811L39.0188 4.15089C38.7536 3.76638 37.293 2.95932 36.8026 2.6541C36.882 2.56672 37.0792 2.46514 37.1843 2.40824Z" fill="#49349D"/>
<path d="M38.4794 5.66517C38.9364 5.60438 39.3355 5.42704 39.7907 5.3908C39.891 5.56593 39.9645 5.8279 40.1778 5.81335C39.4878 7.44118 38.7781 9.0607 38.0499 10.6716C37.7369 11.3822 37.4537 12.1292 37.1311 12.8299L36.9274 12.7538L36.8796 12.6437L36.6293 12.4246L36.5654 12.5199C35.7363 12.8086 34.7631 12.7884 33.8939 12.7635C33.781 12.3345 35.4746 9.59584 35.7643 8.97044C36.2458 7.93147 36.9262 6.73816 37.4949 5.73351C37.2381 5.72518 36.7829 5.73213 36.5594 5.64996L36.4453 5.50376C36.7906 5.55431 37.155 5.61139 37.5033 5.63906L38.4794 5.66517Z" fill="#5945AE"/>
<path d="M38.4794 5.66517C38.9364 5.60438 39.3355 5.42704 39.7907 5.3908C39.891 5.56593 39.9645 5.8279 40.1778 5.81335C39.4878 7.44118 38.7781 9.0607 38.0499 10.6716C37.7369 11.3822 37.4537 12.1292 37.1311 12.8299L36.9274 12.7538L36.8796 12.6437L36.6293 12.4246C36.7345 12.2704 36.8599 11.9916 36.9453 11.8154C37.2243 11.2715 37.4633 10.6182 37.6634 10.0417C38.0738 8.88102 38.7435 7.3344 39.3892 6.28381L39.5828 5.84827C39.0535 5.85629 38.5839 5.83203 38.0571 5.80454C37.9017 5.82065 37.5917 5.82928 37.4675 5.7286L37.5033 5.63906L38.4794 5.66517Z" fill="#3D2B8A"/>
<path d="M37.6634 10.0417C38.0738 8.88102 38.7435 7.3344 39.3892 6.28381C39.1975 7.47125 38.7058 8.11744 38.1747 9.14245C38.0296 9.42269 37.8934 9.83499 37.6634 10.0417Z" fill="#49349D"/>
<path d="M36.9453 11.8154C37.1956 12.0906 37.2649 12.3304 36.9752 12.6197L36.8796 12.6437L36.6293 12.4246C36.7345 12.2704 36.8599 11.9916 36.9453 11.8154Z" fill="#372578"/>
<path d="M23.9877 8.16511C24.3353 5.67428 24.5247 3.17811 24.8927 0.693198C24.9237 0.483632 25.3079 0.292873 25.4811 0.202015C25.511 0.360552 25.5594 0.54107 25.5337 0.695295C25.1681 1.479 25.1818 2.21676 25.1406 3.07257C25.0599 3.35066 25.0432 4.10897 24.9697 4.4939C24.723 5.79358 24.5797 6.95419 24.465 8.26753C24.3031 8.21405 24.2744 8.2268 24.1089 8.24944L24.0599 8.25663L23.9877 8.16511Z" fill="#372578"/>
<path d="M30.0074 3.81154C31.2165 4.28427 32.4901 4.68448 33.7225 5.0905C34.0708 5.20519 34.4824 5.0094 34.7094 5.27227C34.7482 5.31677 34.8133 5.32737 34.8695 5.3363C35.3205 5.43794 35.9776 5.47807 36.4453 5.50376L36.5594 5.64996C34.7828 5.48423 33.5953 5.19489 31.8754 4.7061C31.3802 4.56541 30.5343 4.40729 30.0934 4.18377C29.9692 4.01997 30.0092 4.06668 30.0074 3.81154Z" fill="#3D2B8A"/>
<path d="M25.6555 1.21553C26.0528 1.40521 26.5898 1.82919 26.9411 2.11093C27.0976 2.4967 27.3091 2.53587 27.7033 2.76712L27.7141 2.80982C26.9166 2.88637 25.72 1.93029 25.6555 1.21553Z" fill="#5945AE"/>
<path d="M23.9877 8.16511L24.0599 8.25663L24.1089 8.24944C24.2744 8.2268 24.3031 8.21405 24.465 8.26753C24.4291 8.51842 24.3921 8.94558 24.2768 9.1458C24.1454 9.03812 24.0474 9.00194 23.8957 8.93115C23.9124 8.6203 23.9297 8.47075 23.9877 8.16511Z" fill="#372578"/>
<path d="M23.8957 8.93115C24.0474 9.00194 24.1454 9.03812 24.2768 9.1458V9.19917C26.1203 10.1997 27.0116 11.0433 29.1066 11.7097C31.0445 12.326 31.8676 12.5603 33.8939 12.7635C34.7631 12.7884 35.7363 12.8086 36.5654 12.5199L36.6293 12.4246L36.8796 12.6437L36.9274 12.7538L37.1311 12.8299C37.0535 13.1002 36.934 13.4876 36.7667 13.7174C36.6909 13.9888 36.615 14.0877 36.6741 14.3317L36.851 14.3988C38.2381 14.6179 39.796 15.3861 40.7244 16.4468C41.3916 17.3178 41.4263 18.3466 40.4185 18.9845L40.3193 19.1483C40.0368 19.3419 39.7811 19.4217 39.5983 19.5423C38.2542 20.3056 36.0499 20.3379 34.52 20.2892C33.4901 20.226 32.6633 20.1176 31.6466 19.9414C30.5558 19.7508 29.474 19.5149 28.4029 19.2342C26.2075 18.5665 24.6985 17.988 22.6203 17.0027C21.7133 16.3691 20.4808 15.8096 19.5865 15.0551C19.2246 14.7498 18.8251 14.3181 18.4841 13.975C18.2825 13.7341 18.0855 13.4893 17.8932 13.2408C17.5862 12.3497 17.2271 11.8125 18.0239 11.0203C19.1275 9.80996 22.1627 10.484 23.5982 10.746L23.6537 10.5428C23.677 10.0679 23.8114 9.41299 23.8957 8.93115Z" fill="#7661CA"/>
<path d="M23.8957 8.93115C24.0474 9.00194 24.1454 9.03812 24.2768 9.1458V9.19917C26.1203 10.1997 27.0116 11.0433 29.1066 11.7097C31.0445 12.326 31.8676 12.5603 33.8939 12.7635C34.7631 12.7884 35.7363 12.8086 36.5654 12.5199L36.6293 12.4246L36.8796 12.6437L36.9274 12.7538L37.1311 12.8299C37.0535 13.1002 36.934 13.4876 36.7667 13.7174C36.6909 13.9888 36.615 14.0877 36.6741 14.3317L36.851 14.3988C36.937 14.8137 37.103 14.7001 37.3976 14.9405C36.8008 14.8298 35.8748 15.396 35.6699 15.9422C35.6467 15.7933 35.6789 15.8553 35.5714 15.7499C35.3217 15.7383 35.1335 15.7442 34.8868 15.7543C34.7207 15.7658 34.0839 15.8063 33.9573 15.8669C33.781 15.9207 33.7243 15.9321 33.5678 16.0235C33.5421 16.1298 33.5194 16.218 33.5027 16.3262C31.8414 16.5859 28.0504 15.4209 26.5367 14.6306C25.7947 14.2794 24.3299 13.3922 23.8706 12.7532L23.8204 12.4705L24.1436 12.5591C24.048 12.4481 23.9219 12.3263 23.8174 12.2199C23.9231 11.585 24.0253 10.9769 24.1012 10.3376L23.6537 10.5428C23.677 10.0679 23.8114 9.41299 23.8957 8.93115Z" fill="#E7E6E8"/>
<path d="M26.5367 14.6306C26.4417 14.4894 26.3216 14.3674 26.324 14.2235C26.5629 14.247 26.7541 14.3948 26.9644 14.4517C27.7332 14.6601 30.1651 15.9307 30.8019 15.5309C31.9782 15.7017 32.753 15.8688 33.9573 15.8669C33.781 15.9207 33.7243 15.9321 33.5678 16.0235C33.5421 16.1298 33.5194 16.218 33.5027 16.3262C31.8414 16.5859 28.0504 15.4209 26.5367 14.6306Z" fill="#49349D"/>
<path d="M30.4375 15.7045C30.8246 15.6892 31.9668 15.7256 32.2261 16.0281C31.6705 16.1937 30.8921 16.0709 30.4375 15.7045Z" fill="#372578"/>
<path d="M36.5654 12.5199L36.6293 12.4246L36.8796 12.6437L36.9274 12.7538L37.1311 12.8299C37.0535 13.1002 36.934 13.4876 36.7667 13.7174C36.6909 13.9888 36.615 14.0877 36.6741 14.3317L36.851 14.3988C36.937 14.8137 37.103 14.7001 37.3976 14.9405C36.8008 14.8298 35.8748 15.396 35.6699 15.9422C35.6467 15.7933 35.6789 15.8553 35.5714 15.7499C35.3217 15.7383 35.1335 15.7442 34.8868 15.7543L35.5188 15.6038C35.851 14.9481 36.253 13.5434 36.5744 12.7457C36.6132 12.6606 36.5863 12.6477 36.5654 12.5199Z" fill="#7066AE"/>
<path d="M36.5654 12.5199L36.6293 12.4246L36.8796 12.6437L36.9274 12.7538L37.1311 12.8299C37.0535 13.1002 36.934 13.4876 36.7667 13.7174C36.5397 13.3471 36.5786 13.1856 36.5744 12.7457C36.6132 12.6606 36.5863 12.6477 36.5654 12.5199Z" fill="#6952C6"/>
<path d="M23.8706 12.7532L23.8204 12.4705L24.1436 12.5591C24.4184 12.7644 25.1615 13.3734 25.3998 13.507C26.8855 14.3399 29.1502 15.2377 30.8019 15.5309C30.1651 15.9307 27.7332 14.6601 26.9644 14.4517C26.7541 14.3948 26.5629 14.247 26.324 14.2235C26.3216 14.3674 26.4417 14.4894 26.5367 14.6306C25.7947 14.2794 24.3299 13.3922 23.8706 12.7532Z" fill="#5945AE"/>
<path d="M23.8957 8.93115C24.0474 9.00194 24.1454 9.03812 24.2768 9.1458V9.19917C24.2224 9.57296 24.1716 9.96826 24.1012 10.3376L23.6537 10.5428C23.677 10.0679 23.8114 9.41299 23.8957 8.93115Z" fill="#3D2B8A"/>
<path d="M18.0239 11.0203C18.1659 11.6245 18.1032 11.7924 18.1881 12.2703C18.2461 11.7525 18.2399 11.4394 18.7484 11.1991C18.6011 11.3797 18.4662 11.5037 18.4197 11.7265C18.4705 12.0488 18.7537 12.1501 18.8603 12.3734C19.6244 13.9751 20.6441 14.5704 22.1065 15.4333C26.011 17.7204 30.4339 18.9687 34.9549 19.0597C36.6741 19.082 38.1915 18.9143 39.8402 18.3422C40.3659 18.1598 40.7279 17.5833 40.3181 17.056C40.2094 16.8123 40.0858 16.6816 39.9185 16.4789C40.2781 16.6169 40.3151 16.6822 40.474 17.0322L40.5021 17.0961C40.4723 16.7939 40.4687 16.6274 40.7244 16.4468C41.3916 17.3178 41.4263 18.3466 40.4185 18.9845L40.3193 19.1483C40.0368 19.3419 39.7811 19.4217 39.5983 19.5423C38.2542 20.3056 36.0499 20.3379 34.52 20.2892C33.4901 20.226 32.6633 20.1176 31.6466 19.9414C30.5558 19.7508 29.474 19.5149 28.4029 19.2342C26.2075 18.5665 24.6985 17.988 22.6203 17.0027C21.7133 16.3691 20.4808 15.8096 19.5865 15.0551C19.2246 14.7498 18.8251 14.3181 18.4841 13.975C18.2825 13.7341 18.0855 13.4893 17.8932 13.2408C17.5862 12.3497 17.2271 11.8125 18.0239 11.0203Z" fill="#5945AE"/>
<path d="M18.0239 11.0203C18.1659 11.6245 18.1032 11.7924 18.1881 12.2703C18.6891 14.0681 20.7716 15.4796 22.3258 16.368C25.6979 18.2957 31.4184 19.8499 35.3181 19.8418C36.514 19.8293 37.704 19.6602 38.857 19.3388C39.2094 19.24 40.0159 19.0167 40.3038 18.8316L40.4185 18.9845L40.3193 19.1483C40.0368 19.3419 39.7811 19.4217 39.5983 19.5423C38.2542 20.3056 36.0499 20.3379 34.52 20.2892C33.4901 20.226 32.6633 20.1176 31.6466 19.9414C30.5558 19.7508 29.474 19.5149 28.4029 19.2342C26.2075 18.5665 24.6985 17.988 22.6203 17.0027C21.7133 16.3691 20.4808 15.8096 19.5865 15.0551C19.2246 14.7498 18.8251 14.3181 18.4841 13.975C18.2825 13.7341 18.0855 13.4893 17.8932 13.2408C17.5862 12.3497 17.2271 11.8125 18.0239 11.0203Z" fill="#372578"/>
<path d="M40.7244 16.4468C41.3916 17.3178 41.4263 18.3466 40.4185 18.9845L40.3038 18.8316C40.7572 18.378 40.7823 17.6501 40.5021 17.0961C40.4723 16.7939 40.4687 16.6274 40.7244 16.4468Z" fill="#372578"/>
<path d="M18.0239 11.0203C19.1275 9.80996 22.1627 10.484 23.5982 10.746C23.5934 10.928 23.6173 11.0811 23.536 11.2258C21.8403 11.1008 20.4829 10.5891 18.7484 11.1991C18.2399 11.4394 18.2461 11.7525 18.1881 12.2703C18.1032 11.7924 18.1659 11.6245 18.0239 11.0203Z" fill="#3D2B8A"/>
<path d="M36.851 14.3988C38.2381 14.6179 39.796 15.3861 40.7244 16.4468C40.4687 16.6274 40.4723 16.7939 40.5021 17.0961L40.474 17.0322C40.3151 16.6822 40.2781 16.6169 39.9185 16.4789C39.584 16.27 39.3122 15.9396 38.8008 15.6461C38.4143 15.4145 37.8038 15.1245 37.3976 14.9405C37.103 14.7001 36.937 14.8137 36.851 14.3988Z" fill="#3D2B8A"/>
<path d="M34.8868 15.7543C35.1335 15.7442 35.3217 15.7383 35.5714 15.7499C35.6789 15.8553 35.6467 15.7933 35.6699 15.9422C35.4262 16.138 33.9698 16.2229 33.5027 16.3262C33.5194 16.218 33.5421 16.1298 33.5678 16.0235C33.7243 15.9321 33.781 15.9207 33.9573 15.8669C34.0839 15.8063 34.7207 15.7658 34.8868 15.7543Z" fill="#5945AE"/>
<path d="M38.8008 15.6461C39.3122 15.9396 39.584 16.27 39.9185 16.4789C40.0858 16.6816 40.2094 16.8123 40.3181 17.056C40.293 17.0888 40.2411 17.1262 40.207 17.1546C40.1126 17.1196 40.0039 17.0698 39.9388 16.9921C39.6025 16.5909 38.8325 16.1837 38.8008 15.6461Z" fill="#8A7AD1"/>
<path d="M23.8706 12.7532C23.4434 12.3952 23.3317 12.0406 23.5235 11.5239L23.5802 11.5051C23.7242 11.7719 23.579 11.9082 23.8174 12.2199C23.9219 12.3263 24.048 12.4481 24.1436 12.5591L23.8204 12.4705L23.8706 12.7532Z" fill="#6952C6"/>
<path d="M35.0714 39.4615L35.1371 39.4459C35.6843 39.9322 35.7876 40.3814 36.02 41.0786C36.8145 41.3523 36.7787 41.7931 37.3277 41.65C37.9149 41.7296 37.8193 41.8877 38.0762 41.974C38.3002 42.0494 39.1043 42.0093 39.4233 42.0255C39.3271 42.0698 39.1568 42.1549 39.063 42.1842C39.2554 42.4561 39.4442 42.7304 39.63 43.0071C39.3593 43.0521 39.3098 43.0551 39.0816 43.2024L39.2154 43.427C39.5762 44.3344 39.6783 44.6949 39.6807 45.6868C39.6551 46.1156 39.6096 46.5354 39.4699 46.9451C39.2638 47.5464 39.1455 47.7998 38.762 48.3035C38.7632 48.5431 38.7237 48.827 38.8838 48.9893C38.1043 49.5091 37.8109 49.4504 36.9794 49.1971C36.4567 49.6475 36.1771 49.8907 35.5529 50.2093C35.4161 50.0158 35.1562 49.92 34.9334 49.808C34.4071 49.9799 34.1425 49.9919 33.6998 50.1165C32.5015 50.1799 31.971 50.1302 30.8718 49.6229L30.4686 49.3756C30.4363 49.3361 30.0474 49.0001 29.9835 48.9432C29.4196 48.3089 29.2063 47.8956 29.1358 47.0661C28.8742 47.129 28.8037 47.1326 28.5331 47.138C28.5719 46.5031 28.7625 46.2899 29.1783 45.87C29.4686 45.6754 29.566 45.6394 29.8927 45.5113C29.9764 45.4957 30.2852 45.4424 30.3127 45.4059C30.8252 44.7297 30.655 44.5141 31.5833 44.2703L32.0307 44.2553C32.5953 44.2355 32.9459 44.4404 33.253 44.3763C33.3754 44.2224 33.3276 44.1541 33.3193 43.9133C33.483 43.887 33.6795 43.7959 33.8372 43.7324C33.8258 43.2263 33.8945 42.655 33.9656 42.1537C34.1072 41.5302 34.1759 41.1912 34.4937 40.6432L34.7912 40.1173L34.7566 40.0388L34.8814 39.9891C35.1365 40.0867 35.2171 40.1281 35.4788 40.0712L35.4907 40.0005C35.3593 39.7621 35.2345 39.6837 35.0254 39.5172L35.0714 39.4615Z" fill="#F2F2F5"/>
<path d="M34.7912 40.1173C35.3515 40.1838 35.468 41.1151 35.5684 41.5889C35.79 42.7616 35.787 43.7229 35.5493 44.8986L35.0815 44.9273L34.9836 44.9279C34.876 45.0285 34.9376 45.0058 34.7954 45.0052C34.6466 44.7812 34.6209 44.7201 34.3832 44.6045L34.3934 44.8087L34.3217 44.8752C33.7398 44.8548 33.8533 44.187 33.8372 43.7324C33.8258 43.2263 33.8945 42.655 33.9656 42.1537C34.1072 41.5302 34.1759 41.1912 34.4937 40.6432L34.7912 40.1173Z" fill="var(--fill-0, #5D1D07)"/>
<path d="M34.7912 40.1173C35.3515 40.1838 35.468 41.1151 35.5684 41.5889C35.79 42.7616 35.787 43.7229 35.5493 44.8986L35.0815 44.9273L34.9836 44.9279C35.3575 44.0565 35.5517 43.0778 35.2482 42.1525L35.3145 42.1183C35.3241 41.9638 35.1753 41.7584 35.0911 41.6128L35.1532 41.5997L35.2058 41.5008C35.1102 41.2349 34.9716 41.2187 34.7333 41.205C34.7249 40.8462 34.7147 40.8552 34.4937 40.6432L34.7912 40.1173Z" fill="#EAD0A2"/>
<path d="M34.4937 40.6432C34.7147 40.8552 34.7249 40.8462 34.7333 41.205C34.345 41.7925 34.3229 42.3908 34.2482 43.088C34.2339 43.5797 34.2016 44.1421 34.3832 44.6045L34.3934 44.8087L34.3217 44.8752C33.7398 44.8548 33.8533 44.187 33.8372 43.7324C33.8258 43.2263 33.8945 42.655 33.9656 42.1537C34.1072 41.5302 34.1759 41.1912 34.4937 40.6432Z" fill="#F6D289"/>
<path d="M34.7333 41.205C34.9716 41.2187 35.1102 41.2349 35.2058 41.5008L35.1532 41.5997L35.0911 41.6128C34.7249 42.0578 34.7094 42.6837 34.6502 43.2503C34.5248 43.1868 34.3808 43.1383 34.2482 43.088C34.3229 42.3908 34.345 41.7925 34.7333 41.205Z" fill="#72280C"/>
<path d="M34.6502 43.2503C34.7094 42.6837 34.7249 42.0578 35.0911 41.6128C35.1753 41.7584 35.3241 41.9638 35.3145 42.1183L35.2482 42.1525C35.1317 42.2291 35.0547 42.2447 35.0403 42.3866C34.9549 43.2192 35.0481 43.7444 34.7942 44.5548C34.6586 44.0355 34.6437 43.7899 34.6502 43.2503Z" fill="#F6D289"/>
<path d="M39.6807 45.6868C39.6551 46.1156 39.6096 46.5354 39.4699 46.9451C39.2638 47.5464 39.1455 47.7998 38.762 48.3035C38.7632 48.5431 38.7237 48.827 38.8838 48.9893C38.1043 49.5091 37.8109 49.4504 36.9794 49.1971C36.4567 49.6475 36.1771 49.8907 35.5529 50.2093C35.4161 50.0158 35.1562 49.92 34.9334 49.808C36.2751 49.233 37.3187 48.3298 37.6544 46.8774C37.7076 46.6462 37.8175 46.1419 37.9585 45.9766L38.1162 45.9898C38.8791 46.6361 38.9687 46.0174 39.6807 45.6868Z" fill="#72280C"/>
<path d="M39.6807 45.6868C39.6551 46.1156 39.6096 46.5354 39.4699 46.9451C39.2638 47.5464 39.1455 47.7998 38.762 48.3035C38.5254 48.5401 37.8581 48.9348 37.5284 48.8096C37.2978 48.2723 38.4143 47.6333 38.1293 46.0605L38.1162 45.9898C38.8791 46.6361 38.9687 46.0174 39.6807 45.6868Z" fill="#DBD6E1"/>
<path d="M31.5833 44.2703L32.0307 44.2553C32.2219 44.3703 32.3019 44.3703 32.3629 44.544C32.2494 44.6859 32.2332 44.6835 32.0803 44.7716L31.8467 44.8818C31.5122 44.9597 30.8408 45.1735 31.0128 45.661C31.3569 46.6367 32.376 47.0499 33.0779 47.6854C33.0648 47.7285 33.0522 47.7716 33.0397 47.8148C32.8217 47.9837 32.6604 47.8759 32.3999 47.7806C31.5379 47.4638 30.9919 46.7307 30.4459 46.0323C30.3993 45.9731 30.2159 46.0078 30.1681 46.0174L30.2135 45.7802C30.1436 45.5945 30.1239 45.6376 29.8927 45.5113C29.9764 45.4957 30.2852 45.4424 30.3127 45.4059C30.8252 44.7297 30.655 44.5141 31.5833 44.2703Z" fill="#6F2711"/>
<path d="M31.5833 44.2703L32.0307 44.2553C32.2219 44.3703 32.3019 44.3703 32.3629 44.544C32.2494 44.6859 32.2332 44.6835 32.0803 44.7716C31.8384 44.7991 31.6657 44.8051 31.4728 44.6638C31.4357 44.4428 31.4447 44.5158 31.5833 44.2703Z" fill="var(--fill-0, #5D1D07)"/>
<path d="M35.0714 39.4615L35.1371 39.4459C35.6843 39.9322 35.7876 40.3814 36.02 41.0786C36.8145 41.3523 36.7787 41.7931 37.3277 41.65C37.9149 41.7296 37.8193 41.8877 38.0762 41.974C38.3002 42.0494 39.1043 42.0093 39.4233 42.0255C39.3271 42.0698 39.1568 42.1549 39.063 42.1842C38.7345 42.0399 38.4143 42.0303 38.1341 42.2669C37.8988 42.1944 37.75 42.1357 37.5391 42.2171C37.4621 42.6184 38.0535 43.0509 37.799 43.654L37.7082 43.6588C37.3283 43.3126 36.7864 41.8338 36.1807 41.7703C36.0983 41.6757 36.0164 41.5799 35.9364 41.4835C35.7315 41.4601 35.7876 41.4733 35.5684 41.5889C35.468 41.1151 35.3515 40.1838 34.7912 40.1173L34.7566 40.0388L34.8814 39.9891C35.1365 40.0867 35.2171 40.1281 35.4788 40.0712L35.4907 40.0005C35.3593 39.7621 35.2345 39.6837 35.0254 39.5172L35.0714 39.4615Z" fill="#66230A"/>
<path d="M35.5684 41.5889C35.7876 41.4733 35.7315 41.4601 35.9364 41.4835C36.0164 41.5799 36.0983 41.6757 36.1807 41.7703C36.2309 42.0512 36.2739 42.322 36.2817 42.6089C36.3008 43.285 36.1998 43.9606 36.1401 44.6332C36.198 44.7428 36.256 44.8524 36.3139 44.962C35.9483 45.3448 35.7518 45.4029 35.2488 45.579L35.0738 45.5089C34.9913 45.3472 35.054 45.119 35.0815 44.9273L35.5493 44.8986C35.787 43.7229 35.79 42.7616 35.5684 41.5889Z" fill="var(--fill-0, #5D1D07)"/>
<path d="M33.8372 43.7324C33.8533 44.187 33.7398 44.8548 34.3217 44.8752L34.3934 44.8087L34.3832 44.6045C34.6209 44.7201 34.6466 44.7812 34.7954 45.0052C34.9376 45.0058 34.876 45.0285 34.9836 44.9279L35.0815 44.9273C35.054 45.119 34.9913 45.3472 35.0738 45.5089L35.2488 45.579C34.2016 45.7634 33.3085 44.974 31.8467 44.8818L32.0803 44.7716C32.2332 44.6835 32.2494 44.6859 32.3629 44.544C32.3019 44.3703 32.2219 44.3703 32.0307 44.2553C32.5953 44.2355 32.9459 44.4404 33.253 44.3763C33.3754 44.2224 33.3276 44.1541 33.3193 43.9133C33.483 43.887 33.6795 43.7959 33.8372 43.7324Z" fill="#72280C"/>
<path d="M29.1783 45.87C29.4686 45.6754 29.566 45.6394 29.8927 45.5113C30.1239 45.6376 30.1436 45.5945 30.2135 45.7802L30.1681 46.0174C29.8264 46.3444 29.9077 46.4666 29.962 46.917C29.8294 47.22 29.8133 47.1589 29.4584 47.0913C29.4226 46.9224 29.3999 46.8325 29.3455 46.669C29.2392 46.7157 29.1914 46.9253 29.1358 47.0661C28.8742 47.129 28.8037 47.1326 28.5331 47.138C28.5719 46.5031 28.7625 46.2899 29.1783 45.87Z" fill="var(--fill-0, #5D1D07)"/>
<path d="M29.962 46.917C30.1233 47.2422 30.186 47.3602 30.3832 47.6525C30.6621 48.0657 31.5206 48.5694 31.523 48.9665C31.0785 49.3283 29.9764 48.0723 29.7494 47.6998C29.6305 47.5081 29.5331 47.3039 29.4584 47.0913C29.8133 47.1589 29.8294 47.22 29.962 46.917Z" fill="#66230A"/>
<path d="M38.1341 42.2669C38.4143 42.0303 38.7345 42.0399 39.063 42.1842C39.2554 42.4561 39.4442 42.7304 39.63 43.0071C39.3593 43.0521 39.3098 43.0551 39.0816 43.2024C38.7554 42.7089 38.6347 42.5765 38.1341 42.2669Z" fill="#72280C"/>
<path d="M23.8998 39.4543C25.0611 38.2451 26.6681 38.4227 25.8341 40.0197C25.9805 40.17 26.06 40.2724 26.2493 40.37L26.1358 40.5341L26.1681 40.6084C26.3807 40.6264 26.4859 40.6168 26.7003 40.6024L28.0516 40.4665C28.7768 40.3832 29.5002 40.2826 30.2213 40.1652C30.3533 40.3479 30.5564 40.6425 30.7762 40.7048C31.2081 40.6449 31.6765 40.5461 32.1072 40.4641C32.0475 40.1077 32.0116 40.1227 31.695 39.9304C32.4447 39.8094 34.5541 39.2183 35.0714 39.4615L35.0254 39.5172C35.2345 39.6837 35.3593 39.7621 35.4907 40.0005L35.4788 40.0712C35.2171 40.1281 35.1365 40.0867 34.8814 39.9891L34.7566 40.0388L34.7912 40.1173L34.4937 40.6432C34.1759 41.1912 34.1072 41.5302 33.9656 42.1537C33.8945 42.655 33.8258 43.2263 33.8372 43.7324C33.6795 43.7959 33.483 43.887 33.3193 43.9133C33.3276 44.1541 33.3754 44.2224 33.253 44.3763C32.9459 44.4404 32.5953 44.2355 32.0307 44.2553L31.5833 44.2703C30.655 44.5141 30.8252 44.7297 30.3127 45.4059C30.2852 45.4424 29.9764 45.4957 29.8927 45.5113C29.566 45.6394 29.4686 45.6754 29.1783 45.87C27.177 45.7934 25.0522 45.8748 23.0713 45.688L22.9715 45.0375C22.7821 44.8447 22.7535 44.7548 22.5038 44.8716L22.4751 44.7596C22.4811 44.1056 22.5056 43.4515 22.5492 42.7987C22.0079 42.8077 21.5132 42.3489 20.9618 42.1495C21.1045 41.6697 21.0871 41.3152 21.6153 41.2768C21.958 41.2301 22.3371 41.3343 22.6322 41.187C22.7618 41.0325 22.7385 40.9528 22.7427 40.736C22.8945 40.7342 22.8855 40.739 23.0217 40.6737C23.0814 40.4868 23.0898 40.3934 23.1167 40.1969L22.9399 39.8843C22.9291 39.7424 22.9178 39.722 22.9608 39.583L23.2475 39.483L23.2899 39.4093C23.5181 39.4351 23.6017 39.3824 23.7123 39.5944L23.8998 39.4543Z" fill="#FAF2CF"/>
<path d="M23.8998 39.4543C25.0611 38.2451 26.6681 38.4227 25.8341 40.0197C25.9805 40.17 26.06 40.2724 26.2493 40.37L26.1358 40.5341L26.1681 40.6084C26.3807 40.6264 26.4859 40.6168 26.7003 40.6024C26.7613 40.8683 26.7935 40.9324 26.9148 41.1786C25.8306 41.284 24.4452 41.3409 23.3509 41.3295L23.2141 41.8841C22.9709 42.9383 22.8706 43.957 22.9715 45.0375C22.7821 44.8447 22.7535 44.7548 22.5038 44.8716L22.4751 44.7596C22.4811 44.1056 22.5056 43.4515 22.5492 42.7987C22.0079 42.8077 21.5132 42.3489 20.9618 42.1495C21.1045 41.6697 21.0871 41.3152 21.6153 41.2768C21.958 41.2301 22.3371 41.3343 22.6322 41.187C22.7618 41.0325 22.7385 40.9528 22.7427 40.736C22.8945 40.7342 22.8855 40.739 23.0217 40.6737C23.0814 40.4868 23.0898 40.3934 23.1167 40.1969L22.9399 39.8843C22.9291 39.7424 22.9178 39.722 22.9608 39.583L23.2475 39.483L23.2899 39.4093C23.5181 39.4351 23.6017 39.3824 23.7123 39.5944L23.8998 39.4543Z" fill="#72280C"/>
<path d="M23.8998 39.4543C25.0611 38.2451 26.6681 38.4227 25.8341 40.0197C25.5474 40.3437 25.3688 40.524 24.9727 40.7258L24.4393 40.727C24.0838 40.727 23.9142 40.736 23.5623 40.7833L23.6071 40.5198C23.6525 40.2634 23.6806 40.2341 23.5743 39.9903C23.545 39.7891 23.579 39.8214 23.7123 39.5944L23.8998 39.4543Z" fill="#DD543B"/>
<path d="M23.5743 39.9903C23.9297 39.9005 24.0486 39.7136 24.4046 39.9316C24.3998 40.1682 24.3801 40.5072 24.4393 40.727C24.0838 40.727 23.9142 40.736 23.5623 40.7833L23.6071 40.5198C23.6525 40.2634 23.6806 40.2341 23.5743 39.9903Z" fill="#BE3026"/>
<path d="M24.4046 39.9316L24.4435 39.9131C24.7553 40.2401 24.8114 40.6138 24.9727 40.7258L24.4393 40.727C24.3801 40.5072 24.3998 40.1682 24.4046 39.9316Z" fill="#DF4934"/>
<path d="M21.6153 41.2768C21.9972 41.317 22.5605 41.287 22.8401 41.3535C22.9124 41.4817 22.8998 41.4128 22.8622 41.5691C22.6794 42.0069 22.6143 42.3249 22.5492 42.7987C22.0079 42.8077 21.5132 42.3489 20.9618 42.1495C21.1045 41.6697 21.0871 41.3152 21.6153 41.2768Z" fill="#DD543B"/>
<path d="M23.2475 39.483L23.2899 39.4093C23.5181 39.4351 23.6017 39.3824 23.7123 39.5944C23.579 39.8214 23.545 39.7891 23.5743 39.9903C23.6806 40.2341 23.6525 40.2634 23.6071 40.5198L23.5623 40.7833C24.0145 40.8444 24.4924 40.6204 24.8365 40.8953C24.8867 41.0948 24.8969 41.0043 24.83 41.1786C24.6107 41.2972 24.278 41.2672 24.0133 41.2702C23.7857 41.0864 23.6071 40.9672 23.3419 40.842L23.2977 40.8216C23.0838 40.524 23.1716 40.5605 23.1167 40.1969L22.9399 39.8843C22.9291 39.7424 22.9178 39.722 22.9608 39.583L23.2475 39.483Z" fill="var(--fill-0, #5D1D07)"/>
<path d="M31.695 39.9304C32.4447 39.8094 34.5541 39.2183 35.0714 39.4615L35.0254 39.5172C35.2345 39.6837 35.3593 39.7621 35.4907 40.0005L35.4788 40.0712C35.2171 40.1281 35.1365 40.0867 34.8814 39.9891L34.7566 40.0388L34.7912 40.1173L34.4937 40.6432C34.1759 41.1912 34.1072 41.5302 33.9656 42.1537L33.8109 41.9464C33.6198 41.8734 33.6938 41.8877 33.4441 41.9973C33.6514 41.1235 33.747 40.8252 34.164 40.0298C33.5068 40.1969 32.7775 40.3293 32.1072 40.4641C32.0475 40.1077 32.0116 40.1227 31.695 39.9304Z" fill="#72280C"/>
<path d="M30.2213 40.1652C30.3533 40.3479 30.5564 40.6425 30.7762 40.7048L28.7129 40.9917C28.7625 40.7192 28.7876 40.8109 28.6615 40.6198C28.4578 40.5006 28.2864 40.4988 28.0516 40.4665C28.7768 40.3832 29.5002 40.2826 30.2213 40.1652Z" fill="#72280C"/>
<path d="M26.7003 40.6024L28.0516 40.4665C28.2864 40.4988 28.4578 40.5006 28.6615 40.6198C28.7876 40.8109 28.7625 40.7192 28.7129 40.9917L26.9148 41.1786C26.7935 40.9324 26.7613 40.8683 26.7003 40.6024Z" fill="var(--fill-0, #5D1D07)"/>
<path d="M33.4441 41.9973C33.6938 41.8877 33.6198 41.8734 33.8109 41.9464L33.9656 42.1537C33.8945 42.655 33.8258 43.2263 33.8372 43.7324C33.6795 43.7959 33.483 43.887 33.3193 43.9133C33.2691 43.1629 33.3282 42.7268 33.4441 41.9973Z" fill="var(--fill-0, #5D1D07)"/>
<path d="M8.5628 41.1013C8.70927 41.0726 8.97845 40.7707 9.39279 40.6216L9.48652 40.7629C9.46973 40.8408 9.46573 40.8857 9.43479 40.9582C9.76764 41.0043 9.79118 41.1343 10.06 41.2966C9.80157 42.2788 9.65617 43.1407 9.86018 44.1559C9.92625 44.3775 9.87493 44.323 10.0344 44.4338L10.2961 44.426C10.498 44.3392 11.3354 44.0906 11.625 43.9858C12.5125 43.7127 13.2866 43.5372 14.1175 44.078C14.376 44.3422 14.4911 44.5296 14.5773 44.9022L14.5695 44.874C15.1505 45.0806 15.4363 45.1974 15.9505 45.5382L15.9746 45.6484C16.2996 45.9611 16.4672 46.3366 16.407 46.7894C16.0272 46.8283 16.1866 46.9283 15.8492 46.7696C15.7154 47.4183 15.6666 47.5824 15.3197 48.1382C15.5212 48.2765 15.6237 48.3322 15.7717 48.5341C15.5005 48.8701 15.3962 48.9803 15.0735 49.2666C14.8606 49.1534 14.6949 49.0857 14.5303 48.9102C13.4125 49.584 12.9289 49.6601 11.6594 49.7068C10.0145 49.5032 8.68711 48.8839 7.9638 47.3189L7.68985 46.5331C7.41147 46.7307 7.41243 46.7624 7.31888 47.1428C7.15568 46.5193 7.15215 46.254 7.17025 45.6053L7.09689 45.8191C6.70501 46.1905 6.09856 45.794 5.77161 45.5131L5.77711 45.1363L5.82986 44.5344C5.51659 44.5039 5.44951 44.4949 5.16504 44.626C5.22627 44.2182 5.28463 44.002 5.40052 43.6031C5.53296 43.2395 5.64252 42.9916 5.80877 42.6412L6.07078 42.2291C6.31953 42.2932 6.46212 42.316 6.59611 42.5549C7.09367 41.9404 7.43399 41.5164 8.28914 41.6026C8.30389 41.2912 8.31996 41.2732 8.5628 41.1013Z" fill="#FAFBFB"/>
<path d="M15.0151 46.2006C15.1358 45.6778 15.5025 45.5891 15.9746 45.6484C16.2996 45.9611 16.4672 46.3366 16.407 46.7894C16.0272 46.8283 16.1866 46.9283 15.8492 46.7696C15.7154 47.4183 15.6666 47.5824 15.3197 48.1382C15.5212 48.2765 15.6237 48.3322 15.7717 48.5341C15.5005 48.8701 15.3962 48.9803 15.0735 49.2666C14.8606 49.1534 14.6949 49.0857 14.5303 48.9102C13.4125 49.584 12.9289 49.6601 11.6594 49.7068C10.0145 49.5032 8.68711 48.8839 7.9638 47.3189C9.2683 48.0406 9.6508 48.4436 11.3662 48.2909C12.5104 48.1891 13.5103 47.7177 14.2407 46.7876C14.4646 46.5025 14.582 46.1354 14.8953 45.7496L14.9416 45.6933C14.9855 45.9018 15.0076 45.9904 15.0151 46.2006Z" fill="#DBD6E1"/>
<path d="M15.0151 46.2006C15.1358 45.6778 15.5025 45.5891 15.9746 45.6484C16.2996 45.9611 16.4672 46.3366 16.407 46.7894C16.0272 46.8283 16.1866 46.9283 15.8492 46.7696C15.8078 46.5534 15.7744 46.2264 15.571 46.1228C15.3698 47.2973 14.8807 47.9693 13.7772 48.5502C13.6503 48.6173 13.5179 48.5532 13.4093 48.4957C13.3949 48.4149 13.3628 48.3119 13.4336 48.2514C14.2408 47.5596 14.6776 47.2572 15.0151 46.2006Z" fill="var(--fill-0, #5D1D07)"/>
<path d="M15.3197 48.1382C15.5212 48.2765 15.6237 48.3322 15.7717 48.5341C15.5005 48.8701 15.3962 48.9803 15.0735 49.2666C14.8606 49.1534 14.6949 49.0857 14.5303 48.9102C14.8728 48.6239 15.0218 48.4724 15.3197 48.1382Z" fill="var(--fill-0, #5D1D07)"/>
<path d="M9.30426 41.2672L9.30945 41.0672L9.43479 40.9582C9.76764 41.0043 9.79118 41.1343 10.06 41.2966C9.80157 42.2788 9.65617 43.1407 9.86018 44.1559C9.92625 44.3775 9.87493 44.323 10.0344 44.4338L10.2961 44.426C10.498 44.3392 11.3354 44.0906 11.625 43.9858C12.5125 43.7127 13.2866 43.5372 14.1175 44.078C14.1074 44.4056 14.0728 44.4506 13.8322 44.6782C12.6916 43.8564 11.241 45.1292 10.0337 45.0513C9.59685 45.0237 8.92432 44.6704 8.98651 44.1601C9.10712 44.1427 9.11805 44.1511 9.21985 44.0888C9.16793 42.7694 9.21555 42.5909 9.42648 41.3008L9.30426 41.2672Z" fill="var(--fill-0, #5D1D07)"/>
<path d="M14.1175 44.078C14.376 44.3422 14.4911 44.5296 14.5773 44.9022L14.5695 44.874C15.1505 45.0806 15.4363 45.1974 15.9505 45.5382L15.9746 45.6484C15.5025 45.5891 15.1358 45.6778 15.0151 46.2006C15.0076 45.9904 14.9855 45.9018 14.9416 45.6933C14.6764 45.5484 14.7457 45.5304 14.521 45.5819C13.9805 46.0964 13.8649 46.5582 13.1689 46.9547C13.2592 46.7696 13.2871 46.7409 13.2917 46.542L13.2074 46.4791C13.0499 46.5091 12.8922 46.5378 12.7343 46.5654C13.339 46.1096 14.099 45.5214 13.8322 44.6782C14.0728 44.4506 14.1074 44.4056 14.1175 44.078Z" fill="#72280C"/>
<path d="M8.5628 41.1013C8.70927 41.0726 8.97845 40.7707 9.39279 40.6216L9.48652 40.7629C9.46973 40.8408 9.46573 40.8857 9.43479 40.9582L9.30945 41.0672L9.30426 41.2672C8.89864 41.711 8.09349 43.0533 7.82557 43.0874C7.65251 42.6214 8.1196 42.0045 8.28914 41.6026C8.30389 41.2912 8.31996 41.2732 8.5628 41.1013Z" fill="var(--fill-0, #5D1D07)"/>
<path d="M12.7343 46.5654C12.8922 46.5378 13.0499 46.5091 13.2074 46.4791L13.2917 46.542C13.2871 46.7409 13.2592 46.7696 13.1689 46.9547C12.85 47.1308 12.1663 47.5752 11.8501 47.2613C11.9118 46.9307 12.453 46.7139 12.7343 46.5654Z" fill="var(--fill-0, #5D1D07)"/>
<path d="M5.40052 43.6031C5.61026 43.5635 5.7752 43.5025 5.96224 43.5833L6.0249 43.7127C5.95991 43.9846 5.89013 44.2625 5.82986 44.5344C5.51659 44.5039 5.44951 44.4949 5.16504 44.626C5.22627 44.2182 5.28463 44.002 5.40052 43.6031Z" fill="#66230A"/>
<path d="M7.17025 45.6053C7.29086 45.4107 7.25084 45.4053 7.42736 45.3448C7.56607 45.54 7.63507 46.2528 7.68985 46.5331C7.41147 46.7307 7.41243 46.7624 7.31888 47.1428C7.15568 46.5193 7.15215 46.254 7.17025 45.6053Z" fill="#66230A"/>
<path d="M5.80877 42.6412C5.93249 42.8418 6.03912 43.0652 6.2298 43.1874L6.0249 43.7127L5.96224 43.5833C5.7752 43.5025 5.61026 43.5635 5.40052 43.6031C5.53296 43.2395 5.64252 42.9916 5.80877 42.6412Z" fill="#72280C"/>
<path d="M6.07078 42.2291C6.31953 42.2932 6.46212 42.316 6.59611 42.5549L6.2298 43.1874C6.03912 43.0652 5.93249 42.8418 5.80877 42.6412L6.07078 42.2291Z" fill="var(--fill-0, #5D1D07)"/>
<path d="M11.2735 39.6172C12.8174 39.9963 14.5958 40.4425 16.1675 40.6683C16.3848 40.3515 16.4243 40.3964 16.8248 40.2155L18.2288 40.4108C18.4682 40.4473 19.0251 40.5683 19.214 40.4796L19.1601 40.3161C19.2452 40.2586 19.5319 40.1353 19.6803 40.0478C20.0009 40.2748 20.3042 40.488 20.6771 40.6264C20.8284 40.6821 20.9811 40.6749 21.1015 40.7372C20.9695 40.8138 20.8094 41.1235 20.836 41.2714C20.71 41.5595 20.6284 41.7518 20.5326 42.0506L20.3461 42.8778C20.277 43.4767 20.25 43.8259 20.2499 44.4272C20.272 44.7991 20.3021 45.1699 20.3403 45.54C20.1015 45.7724 16.6645 45.4544 15.9505 45.5382C15.4363 45.1974 15.1505 45.0806 14.5695 44.874L14.5773 44.9022C14.4911 44.5296 14.376 44.3422 14.1175 44.078C13.2866 43.5372 12.5125 43.7127 11.625 43.9858C11.3354 44.0906 10.498 44.3392 10.2961 44.426L10.0344 44.4338C9.87493 44.323 9.92625 44.3775 9.86018 44.1559C9.65617 43.1407 9.80157 42.2788 10.06 41.2966C10.3162 40.4862 10.5524 40.0796 11.2735 39.6172Z" fill="#FAF2CF"/>
<path d="M19.6803 40.0478C20.0009 40.2748 20.3042 40.488 20.6771 40.6264C20.8284 40.6821 20.9811 40.6749 21.1015 40.7372C20.9695 40.8138 20.8094 41.1235 20.836 41.2714C20.0133 41.1606 19.085 41.0828 18.2513 40.9917C18.2788 40.7318 18.268 40.6707 18.2288 40.4108C18.4682 40.4473 19.0251 40.5683 19.214 40.4796L19.1601 40.3161C19.2452 40.2586 19.5319 40.1353 19.6803 40.0478Z" fill="#72280C"/>
<path d="M16.8248 40.2155L18.2288 40.4108C18.268 40.6707 18.2788 40.7318 18.2513 40.9917C17.5541 40.9007 16.8593 40.7929 16.1675 40.6683C16.3848 40.3515 16.4243 40.3964 16.8248 40.2155Z" fill="var(--fill-0, #5D1D07)"/>
<path d="M10.1349 43.6151C10.8076 43.6725 11.0266 43.6923 11.625 43.9858C11.3354 44.0906 10.498 44.3392 10.2961 44.426L10.0344 44.4338C9.87493 44.323 9.92625 44.3775 9.86018 44.1559C10.0031 44.0331 10.065 43.8001 10.1349 43.6151Z" fill="#F6D289"/>
<path d="M9.86018 44.1559C10.0031 44.0331 10.065 43.8001 10.1349 43.6151C10.1586 43.9858 10.1864 44.0702 10.2961 44.426L10.0344 44.4338C9.87493 44.323 9.92625 44.3775 9.86018 44.1559Z" fill="#FAF2CF"/>
<path d="M16.7411 13.4516C17.144 13.3159 17.4759 13.291 17.8932 13.2408C18.0855 13.4893 18.2825 13.7341 18.4841 13.975C18.4187 13.9915 17.724 14.136 17.7657 14.1182L17.4613 14.123C16.7022 14.3459 15.5968 14.7372 14.9274 15.1639C14.5576 15.3804 14.3568 15.4886 14.0392 15.769C13.425 16.1933 11.3733 17.4852 10.9335 17.9273C10.4513 18.2803 9.99918 18.6727 9.58168 19.1005C9.25366 19.4071 8.28585 20.4044 8.04534 20.7696C8.33585 21.4452 7.5908 22.3535 7.39403 22.9939C7.30567 23.2742 7.2497 23.3965 7.12503 23.6587C6.95083 24.1022 6.73195 25.0866 6.4381 25.2888C6.20608 25.3004 6.27419 25.2938 6.03858 25.1706C5.79491 25.4626 5.53075 25.6694 5.19096 25.8388L5.04174 25.8153C4.62286 26.6561 4.42787 27.494 4.20738 28.3998C3.894 29.7413 3.54812 31.3216 3.39614 32.69C3.30415 33.2399 3.22428 33.771 3.16143 34.3242C3.1275 34.6227 3.09148 35.5489 2.92822 35.7284L2.87302 35.7451C2.63801 35.8187 2.60211 35.8375 2.40271 35.9795C2.33473 35.8028 2.26274 35.5046 2.23968 35.3154C2.30498 35.0751 2.38126 33.1637 2.46412 32.6329C2.99214 29.2506 3.37798 26.6747 5.05667 23.629C6.5525 20.9152 8.47408 18.6516 10.9472 16.7646C11.419 16.3336 12.3152 15.9884 12.7624 15.6094C14.1639 14.4213 14.9971 13.996 16.7411 13.4516Z" fill="var(--fill-0, #5D1D07)"/>
<path d="M6.48213 23.0533C6.51355 23.2507 6.34414 23.4923 6.24103 23.6679L6.3485 23.6767C6.57992 23.203 6.85836 22.913 7.39403 22.9939C7.30567 23.2742 7.2497 23.3965 7.12503 23.6587C6.95083 24.1022 6.73195 25.0866 6.4381 25.2888C6.20608 25.3004 6.27419 25.2938 6.03858 25.1706C6.01409 24.9701 5.9976 24.7831 6.01116 24.5794C6.03404 24.2349 6.23469 24.0383 6.07711 23.7203C6.22723 23.425 6.27896 23.3191 6.48213 23.0533Z" fill="#F6D289"/>
<path d="M8.04534 20.7696C8.33585 21.4452 7.5908 22.3535 7.39403 22.9939C6.85836 22.913 6.57992 23.203 6.3485 23.6767L6.24103 23.6679C6.34414 23.4923 6.51355 23.2507 6.48213 23.0533C6.78984 22.3633 7.55794 21.3526 8.04534 20.7696Z" fill="#FAF2CF"/>
<path d="M6.07711 23.7203C6.23469 24.0383 6.03404 24.2349 6.01116 24.5794C5.9976 24.7831 6.01409 24.9701 6.03858 25.1706C5.79491 25.4626 5.53075 25.6694 5.19096 25.8388L5.04174 25.8153C5.37812 25.0109 5.60811 24.4681 6.07711 23.7203Z" fill="#FAF2CF"/>
<path d="M16.7411 13.4516C17.144 13.3159 17.4759 13.291 17.8932 13.2408C18.0855 13.4893 18.2825 13.7341 18.4841 13.975C18.4187 13.9915 17.724 14.136 17.7657 14.1182L17.4613 14.123L17.4759 14.0457L17.5521 13.9981C17.5964 13.0789 17.218 13.6854 16.7411 13.4516Z" fill="#66230A"/>
<path d="M40.3193 19.1483C41.63 20.4469 44.1216 24.0728 44.2859 25.8741C44.8905 26.4667 45.0482 26.9282 45.314 27.7337C46.2513 30.575 46.7113 33.5191 46.5374 36.513C46.4813 37.4845 46.5649 37.6323 46.8277 38.5194C46.6115 38.3807 46.2889 38.5238 46.0434 38.6035C45.8355 37.5288 45.5458 37.0249 44.6431 36.4284C42.851 35.9046 43.2411 33.4642 44.1449 32.2968C44.498 31.8405 45.2357 31.7163 45.2495 30.8653C44.9 29.2397 44.0189 26.5136 43.2041 25.0335C42.9992 24.6615 42.4024 24.284 42.1766 24.0348C42.0822 23.93 42.0039 22.9205 41.8474 22.6258C41.2829 21.5611 40.3486 20.4877 39.5983 19.5423C39.7811 19.4217 40.0368 19.3419 40.3193 19.1483Z" fill="#66230A"/>
<path d="M45.2495 30.8653C45.6043 32.7519 45.7112 34.4453 45.7029 36.3714C45.271 36.1224 44.9556 35.8807 44.6431 36.4284C42.851 35.9046 43.2411 33.4642 44.1449 32.2968C44.498 31.8405 45.2357 31.7163 45.2495 30.8653Z" fill="#EEAF4B"/>
<path d="M4.20738 28.3998C5.26808 28.1329 6.05077 27.9009 7.08411 28.5017C7.49039 28.738 8.05586 29.3805 8.25365 29.7843C8.63334 31.4621 8.47032 32.2905 7.27897 33.5899C7.01039 33.8089 6.6359 34.1459 6.31134 34.2303C5.96259 34.4022 5.73255 34.5146 5.33111 34.5275C4.93158 34.3853 4.72101 34.2984 4.38337 34.047C3.88785 33.6966 3.62703 33.231 3.39614 32.69C3.54812 31.3216 3.894 29.7413 4.20738 28.3998Z" fill="#964C1F"/>
<path d="M4.38337 34.047C4.84735 33.8762 5.87902 33.9654 6.31134 34.2303C5.96259 34.4022 5.73255 34.5146 5.33111 34.5275C4.93158 34.3853 4.72101 34.2984 4.38337 34.047Z" fill="#964C1F"/>
<path d="M2.23968 35.3154C2.26274 35.5046 2.33473 35.8028 2.40271 35.9795C1.2932 37.0754 0.821213 38.4989 0.807056 40.0448C0.804606 41.8434 1.50605 43.5713 2.76054 44.8566C3.54411 45.6472 4.30314 46.1042 5.26289 46.6079C5.1869 46.0347 5.11713 45.5879 5.13541 45.004L5.16504 44.626C5.44951 44.4949 5.51659 44.5039 5.82986 44.5344L5.77711 45.1363L5.77161 45.5131C6.09856 45.794 6.70501 46.1905 7.09689 45.8191L7.17025 45.6053C7.15215 46.254 7.15568 46.5193 7.31888 47.1428C7.41243 46.7624 7.41147 46.7307 7.68985 46.5331L7.9638 47.3189C8.68711 48.8839 10.0145 49.5032 11.6594 49.7068C11.3683 49.7266 11.0458 49.6936 10.8454 49.8529C10.7584 50.0224 10.776 50.0512 10.8015 50.2512L10.7344 50.3051C11.0715 50.6465 11.4906 50.7591 11.8819 51.028C12.3196 51.3287 12.4537 51.6587 12.7705 52.0055C12.3561 51.8162 12.2368 51.927 11.8501 52.1121C10.7122 51.4551 9.99154 51.1251 9.08795 50.0362C8.73878 49.6152 8.44009 48.9863 8.01321 48.6646C6.71726 48.93 6.29139 48.5688 5.59294 47.5129C5.45082 47.4608 5.3093 47.4069 5.16832 47.3512C3.13372 46.548 1.45957 45.0495 0.591702 43.0203C-0.180526 41.2229 -0.197552 39.1889 0.544569 37.3787C0.862254 36.5901 1.42773 35.6591 2.23968 35.3154Z" fill="var(--fill-0, #5D1D07)"/>
<path d="M5.77161 45.5131C6.09856 45.794 6.70501 46.1905 7.09689 45.8191L7.17025 45.6053C7.15215 46.254 7.15568 46.5193 7.31888 47.1428C7.46494 47.5375 7.61667 47.8327 7.8043 48.2065C6.20519 48.1172 5.83183 46.9038 5.77161 45.5131Z" fill="#DBD6E1"/>
<path d="M5.16504 44.626C5.44951 44.4949 5.51659 44.5039 5.82986 44.5344L5.77711 45.1363C5.65124 45.2597 5.63798 45.2867 5.46271 45.3256C5.26193 45.2364 5.28923 45.207 5.13541 45.004L5.16504 44.626Z" fill="var(--fill-0, #5D1D07)"/>
<path d="M31.6466 19.9414C32.6633 20.1176 33.4901 20.226 34.52 20.2892C34.8659 20.9051 35.2613 21.5712 35.0558 22.3043C34.7864 23.2698 33.6843 23.6697 32.7978 23.3307C31.8324 22.9618 30.9949 22.3625 30.9638 21.2466C31.2601 20.6384 30.968 20.6337 31.6466 19.9414Z" fill="#AA5923"/>
<path d="M22.6203 17.0027C24.6985 17.988 26.2075 18.5665 28.4029 19.2342C27.3897 20.2429 27.4058 19.9271 26.3156 20.1887C25.0116 20.2352 23.7224 19.5914 22.9327 18.5629C22.6448 17.9759 22.5844 17.6587 22.6203 17.0027Z" fill="#964C1F"/>
<path d="M18.4841 13.975C18.8251 14.3181 19.2246 14.7498 19.5865 15.0551C20.4808 15.8096 21.7133 16.3691 22.6203 17.0027C22.5844 17.6587 22.6448 17.9759 22.9327 18.5629C21.7787 17.9824 20.6877 17.5707 19.7403 16.5272C19.0275 15.742 18.8223 15.3038 17.9481 14.6235C17.8997 14.3973 17.9114 14.2447 17.7657 14.1182C17.724 14.136 18.4187 13.9915 18.4841 13.975Z" fill="#EEAF4B"/>
<path d="M14.0392 15.769C14.3568 15.4886 14.5576 15.3804 14.9274 15.1639C15.1608 15.5449 14.8051 15.6536 15.1647 15.9403C15.386 16.0733 15.4152 16.0371 15.4843 16.2239C15.1553 16.7103 12.7227 18.0276 12.1797 18.5112C11.3337 19.2646 10.5192 20.0447 9.72887 20.8672C9.16644 21.4525 8.27402 22.792 7.72384 23.1981C7.68728 23.1154 7.68931 23.0912 7.67121 23.0014C7.91165 22.2532 9.88891 19.6935 10.5558 19.1301C11.5185 18.3167 12.9103 17.6226 13.9324 16.7595C13.8211 16.5542 13.714 16.5414 13.4963 16.3939C13.5727 16.2094 13.7303 16.1501 13.9202 16.0165L14.0392 15.769Z" fill="#FAF2CF"/>
<path d="M13.9202 16.0165C14.1146 16.135 14.334 16.2618 14.5213 16.387C14.4355 16.4416 13.9999 16.7274 13.9324 16.7595C13.8211 16.5542 13.714 16.5414 13.4963 16.3939C13.5727 16.2094 13.7303 16.1501 13.9202 16.0165Z" fill="#F6D289"/>
<path d="M8.25365 29.7843C8.8171 30.239 9.30617 30.5193 9.60707 31.2078C10.2343 32.6433 9.39458 34.3326 7.81255 34.593C7.91291 34.1276 7.57987 34.1565 7.36003 33.8114C7.32407 33.755 7.42981 33.7848 7.27897 33.5899C8.47032 32.2905 8.63334 31.4621 8.25365 29.7843Z" fill="#B77A3E"/>
<path d="M35.1371 39.4459C35.4388 39.3057 36.0774 39.2458 36.4208 39.2297C37.5146 39.1782 38.339 39.8861 38.7775 40.842C38.8582 41.0211 38.937 41.202 39.0123 41.384C37.9316 41.8811 38.081 41.417 37.3277 41.65C36.7787 41.7931 36.8145 41.3523 36.02 41.0786C35.7876 40.3814 35.6843 39.9322 35.1371 39.4459Z" fill="#964C1F"/>
<path d="M28.4029 19.2342C29.474 19.5149 30.5558 19.7508 31.6466 19.9414C30.968 20.6337 31.2601 20.6384 30.9638 21.2466C30.6902 21.1213 29.0964 20.9835 28.6693 20.8485C27.882 20.5996 27.1042 20.3952 26.3156 20.1887C27.4058 19.9271 27.3897 20.2429 28.4029 19.2342Z" fill="#EEAF4B"/>
<path d="M11.2071 39.0943C13.1 39.5118 14.9122 39.9119 16.8248 40.2155C16.4243 40.3964 16.3848 40.3515 16.1675 40.6683C14.5958 40.4425 12.8174 39.9963 11.2735 39.6172C10.5524 40.0796 10.3162 40.4862 10.06 41.2966C9.79118 41.1343 9.76764 41.0043 9.43479 40.9582C9.46573 40.8857 9.46973 40.8408 9.48652 40.7629L9.39279 40.6216C10.0558 40.4455 9.93258 39.5369 11.2071 39.0943Z" fill="#662409"/>
<path d="M20.1562 38.4465L20.2584 38.48C20.8297 38.8392 21.2344 39.2171 21.705 39.6927C21.4992 40.0604 21.4469 40.1622 21.4256 40.6018C21.2887 40.7402 21.3324 40.6971 21.1015 40.7372C20.9811 40.6749 20.8284 40.6821 20.6771 40.6264C20.3042 40.488 20.0009 40.2748 19.6803 40.0478C19.5319 40.1353 19.2452 40.2586 19.1601 40.3161L18.9733 40.1418C19.2269 39.9604 19.1635 39.8711 19.1735 39.5824L19.0521 39.3495C19.3693 39.1105 19.8748 38.7104 20.1562 38.4465Z" fill="#DD543B"/>
<path d="M19.1735 39.5824C19.3384 39.7364 19.5102 39.9017 19.6803 40.0478C19.5319 40.1353 19.2452 40.2586 19.1601 40.3161L18.9733 40.1418C19.2269 39.9604 19.1635 39.8711 19.1735 39.5824Z" fill="#66230A"/>
<path d="M5.48057 39.4579C6.15405 40.2628 6.51135 40.515 7.40102 41.0678C7.87253 40.9546 8.08519 40.9043 8.5628 41.1013C8.31996 41.2732 8.30389 41.2912 8.28914 41.6026C7.43399 41.5164 7.09367 41.9404 6.59611 42.5549C6.46212 42.316 6.31953 42.2932 6.07078 42.2291L6.65842 41.5577C5.88989 41.0564 5.47669 40.6821 4.90858 39.967C5.23577 39.8136 5.31038 39.7729 5.48057 39.4579Z" fill="#72280C"/>
<path d="M20.3775 37.9734C21.135 38.3727 21.541 38.808 22.1203 39.4423C22.6639 39.3974 22.7146 39.4159 23.2475 39.483L22.9608 39.583C22.9178 39.722 22.9291 39.7424 22.9399 39.8843L23.1167 40.1969C23.0898 40.3934 23.0814 40.4868 23.0217 40.6737C22.8855 40.739 22.8945 40.7342 22.7427 40.736L21.8937 40.6917C21.7952 40.5881 21.7763 40.5671 21.6615 40.4838L21.4256 40.6018C21.4469 40.1622 21.4992 40.0604 21.705 39.6927C21.2344 39.2171 20.8297 38.8392 20.2584 38.48C20.4372 38.1355 20.1774 38.3576 20.3775 37.9734Z" fill="#66230A"/>
<path d="M22.8407 39.9196L22.9399 39.8843L23.1167 40.1969C23.0898 40.3934 23.0814 40.4868 23.0217 40.6737C22.8855 40.739 22.8945 40.7342 22.7427 40.736L21.8937 40.6917L21.8661 40.4269C21.9112 40.4485 21.9942 40.4683 22.0456 40.4832C22.3927 40.373 22.5964 40.1766 22.8407 39.9196Z" fill="#DD543B"/>
<path d="M21.8661 40.4269C22.0766 39.8286 22.272 39.8562 22.8407 39.9196C22.5964 40.1766 22.3927 40.373 22.0456 40.4832C21.9942 40.4683 21.9112 40.4485 21.8661 40.4269Z" fill="#DF4934"/>
<path d="M23.2899 39.4093C23.8311 38.8398 24.4769 38.1088 25.3323 38.098C25.6549 38.0939 25.9662 38.2163 26.1991 38.4389C26.7457 38.9691 26.6442 39.7885 26.2493 40.37C26.06 40.2724 25.9805 40.17 25.8341 40.0197C26.6681 38.4227 25.0611 38.2451 23.8998 39.4543L23.7123 39.5944C23.6017 39.3824 23.5181 39.4351 23.2899 39.4093Z" fill="#66230A"/>
<path d="M39.63 43.0071L39.9042 43.5959C40.259 44.6039 40.489 46.139 40.0332 47.1296C40.0093 47.0541 39.9806 47.0182 39.94 46.9487C39.7142 46.8643 39.7453 46.9014 39.4699 46.9451C39.6096 46.5354 39.6551 46.1156 39.6807 45.6868C39.6783 44.6949 39.5762 44.3344 39.2154 43.427L39.0816 43.2024C39.3098 43.0551 39.3593 43.0521 39.63 43.0071Z" fill="#72280C"/>
<path d="M39.63 43.0071L39.9042 43.5959C39.6975 43.7097 39.7512 43.7235 39.569 43.6905C39.434 43.5468 39.3928 43.5126 39.2154 43.427L39.0816 43.2024C39.3098 43.0551 39.3593 43.0521 39.63 43.0071Z" fill="var(--fill-0, #5D1D07)"/>
<path d="M46.0434 38.6035C46.2889 38.5238 46.6115 38.3807 46.8277 38.5194C47.0219 39.3878 47.0703 40.5461 46.8773 41.426C46.3982 41.3864 46.4759 41.3163 46.0995 41.0786C46.234 40.182 46.2393 39.4896 46.0434 38.6035Z" fill="#72280C"/>
<path d="M42.71 46.1971C43.3785 45.7119 43.7184 45.3921 44.2775 44.8129C44.5882 44.9045 44.854 44.9818 45.17 45.0513C44.6025 45.6844 43.989 46.3504 43.2602 46.802C43.035 46.5834 42.8916 46.4546 42.71 46.1971Z" fill="var(--fill-0, #5D1D07)"/>
<path d="M44.2775 44.8129C44.8486 44.1709 45.1772 43.624 45.5398 42.8622C45.8015 43.0227 46.0482 43.1473 46.2322 43.3917C45.9024 44.0361 45.6157 44.4715 45.17 45.0513C44.854 44.9818 44.5882 44.9045 44.2775 44.8129Z" fill="#72280C"/>
<path d="M18.5359 39.2231C18.4867 38.0474 19.3248 37.5874 20.3775 37.9734C20.1774 38.3576 20.4372 38.1355 20.2584 38.48L20.1562 38.4465C19.8748 38.7104 19.3693 39.1105 19.0521 39.3495L18.9591 39.0182C18.7638 39.0212 18.6414 39.0344 18.5359 39.2231Z" fill="#72280C"/>
<path d="M18.9591 39.0182C19.2963 38.3596 19.4365 38.2362 20.1562 38.4465C19.8748 38.7104 19.3693 39.1105 19.0521 39.3495L18.9591 39.0182Z" fill="#DF4934"/>
<path d="M46.0995 41.0786C46.4759 41.3163 46.3982 41.3864 46.8773 41.426C46.7441 42.0668 46.5428 42.8113 46.2322 43.3917C46.0482 43.1473 45.8015 43.0227 45.5398 42.8622C45.7991 42.2842 45.946 41.6889 46.0995 41.0786Z" fill="var(--fill-0, #5D1D07)"/>
<path d="M39.9478 40.8504C40.2966 41.0816 40.3283 41.0924 40.3755 41.5152C40.1037 41.6829 39.7249 41.9303 39.4233 42.0255C39.1043 42.0093 38.3002 42.0494 38.0762 41.974C37.8193 41.8877 37.9149 41.7296 37.3277 41.65C38.081 41.417 37.9316 41.8811 39.0123 41.384L39.9478 40.8504Z" fill="var(--fill-0, #5D1D07)"/>
<path d="M6.31134 34.2303C6.6359 34.1459 7.01039 33.8089 7.27897 33.5899C7.42981 33.7848 7.32407 33.755 7.36003 33.8114C7.57987 34.1565 7.91291 34.1276 7.81255 34.593C6.9393 34.8439 6.22323 34.6627 5.33111 34.5275C5.73255 34.5146 5.96259 34.4022 6.31134 34.2303Z" fill="#B16E32"/>
<path d="M41.8253 38.8937C42.0511 38.9033 42.2226 38.8829 42.4072 39.0021L42.4705 39.1644C42.1879 39.7591 41.9902 40.0119 41.5481 40.5042C41.2936 40.3084 41.2148 40.2293 40.9968 39.9933C41.345 39.6298 41.5714 39.3237 41.8253 38.8937Z" fill="var(--fill-0, #5D1D07)"/>
<path d="M40.9968 39.9933C41.2148 40.2293 41.2936 40.3084 41.5481 40.5042C41.1533 40.8965 40.8408 41.1918 40.3755 41.5152C40.3283 41.0924 40.2966 41.0816 39.9478 40.8504C40.3988 40.5461 40.6192 40.3796 40.9968 39.9933Z" fill="#72280C"/>
<path d="M30.2213 40.1652C30.6908 40.1035 31.2225 40.0065 31.695 39.9304C32.0116 40.1227 32.0475 40.1077 32.1072 40.4641C31.6765 40.5461 31.2081 40.6449 30.7762 40.7048C30.5564 40.6425 30.3533 40.3479 30.2213 40.1652Z" fill="var(--fill-0, #5D1D07)"/>
<path d="M4.2633 38.6966C4.47035 38.6105 4.71473 38.6719 5.0127 38.6329C5.17722 38.9614 5.27776 39.1542 5.48057 39.4579C5.31038 39.7729 5.23577 39.8136 4.90858 39.967C4.61426 39.5477 4.4455 39.1716 4.2633 38.6966Z" fill="var(--fill-0, #5D1D07)"/>
<path d="M4.2633 38.6966C4.14041 38.3891 3.98875 37.6399 4.25547 37.3963L4.39873 37.4061C4.7835 37.6957 4.86581 38.1686 5.0127 38.6329C4.71473 38.6719 4.47035 38.6105 4.2633 38.6966Z" fill="#72280C"/>
<path d="M17.4613 14.123L17.7657 14.1182C17.9114 14.2447 17.8997 14.3973 17.9481 14.6235L17.8817 14.6559C17.8335 14.5098 17.8034 14.3018 17.6422 14.2644C17.253 14.1741 16.1212 14.6756 15.8208 14.8809L15.8769 15.1224C15.7413 15.3379 15.5266 15.3893 15.2782 15.4762C15.1387 15.654 15.1346 15.6773 15.1647 15.9403C14.8051 15.6536 15.1608 15.5449 14.9274 15.1639C15.5968 14.7372 16.7022 14.3459 17.4613 14.123Z" fill="#F6D289"/>
<path d="M10.9335 17.9273C10.9783 18.4564 10.1952 19.1572 9.70934 19.2018C9.64829 19.1616 9.61955 19.1546 9.58168 19.1005C9.99918 18.6727 10.4513 18.2803 10.9335 17.9273Z" fill="#F6D289"/>
<path d="M18.5359 39.2231C18.6414 39.0344 18.7638 39.0212 18.9591 39.0182L19.0521 39.3495L19.1735 39.5824C19.1635 39.8711 19.2269 39.9604 18.9733 40.1418C18.6726 39.8232 18.6243 39.6316 18.5359 39.2231Z" fill="var(--fill-0, #5D1D07)"/>
<path d="M42.0828 38.3748C42.2901 38.4352 42.498 38.4944 42.7058 38.5522L42.4705 39.1644L42.4072 39.0021C42.2226 38.8829 42.0511 38.9033 41.8253 38.8937L42.0828 38.3748Z" fill="#72280C"/>
<path d="M42.0828 38.3748C42.2297 38.1946 42.2435 38.1481 42.4543 38.0941C42.6521 38.155 42.5744 38.0979 42.6891 38.2772L42.7058 38.5522C42.498 38.4944 42.2901 38.4352 42.0828 38.3748Z" fill="#964C1F"/>
<path d="M22.4954 30.3055C23.7224 30.3744 24.7171 30.3304 25.904 30.2691C27.0408 30.2102 26.9477 32.3938 26.8945 33.2359C26.7822 35.019 25.7983 37.5265 23.6006 37.3679C20.972 37.1196 20.4538 33.7646 20.6643 31.6598C20.771 30.593 21.2907 30.1081 22.3634 30.2985L22.4954 30.3055Z" fill="#66230A"/>
<path d="M22.3634 30.2985L22.4954 30.3055C22.628 30.4995 22.714 30.5819 22.6244 30.8084L22.4805 30.8561C22.2152 30.8258 21.8534 30.7185 21.856 30.4035C22.0336 30.2677 22.1065 30.3096 22.3634 30.2985Z" fill="var(--fill-0, #5D1D07)"/>
<path d="M22.3335 34.8157C23.0629 33.956 24.2475 33.6017 25.3431 33.686L25.9745 33.8375C25.947 33.9465 25.818 34.4391 25.8097 34.5227C25.364 35.7241 24.6083 36.9101 23.0629 36.3981C22.5964 36.2436 22.1304 35.6339 22.0115 35.158L22.3335 34.8157Z" fill="#DD543B"/>
<path d="M21.8243 30.8922C23.0784 31.131 24.3168 31.0145 25.5755 30.9676C25.686 30.9636 25.7702 31.0287 25.8497 31.0959C25.9948 31.4609 25.8031 31.6653 25.5163 31.8709C24.4978 32.3827 23.0504 32.4054 22.0241 31.9101C21.5698 31.691 21.5775 31.2723 21.8243 30.8922Z" fill="#FAFBFB"/>
<path d="M22.0115 35.158C21.8259 35.0428 21.6153 34.9011 21.7179 34.6731L21.8734 34.629C22.1065 34.6746 22.14 34.6802 22.3335 34.8157L22.0115 35.158Z" fill="var(--fill-0, #5D1D07)"/>
<path d="M30.6795 26.3044C31.8784 26.2456 32.8999 26.5688 33.6622 27.5495C33.9262 27.8896 34.0726 28.4563 33.6616 28.7409C33.4238 28.7809 33.3742 28.7391 33.1538 28.6414C33.2386 30.255 33.2876 31.3824 31.6741 32.2477C31.5224 32.2978 31.3396 32.3581 31.1842 32.3883C30.5803 32.5056 29.9554 32.3778 29.4459 32.0331C27.4787 30.6893 27.8485 26.8568 30.6795 26.3044Z" fill="#66230A"/>
<path d="M29.8186 27.7282C31.1126 27.7029 31.4029 29.2342 30.2278 29.7652C28.9943 29.7711 28.6657 28.3784 29.8186 27.7282Z" fill="#FAFBFB"/>
<path d="M31.5642 29.9836C32.3408 30.0558 32.2565 30.7274 31.7219 31.1733C30.9973 30.8444 31.0098 30.471 31.5642 29.9836Z" fill="#FAFBFB"/>
<path d="M16.2396 26.3091C20.2586 25.7327 20.7805 31.8581 17.1532 32.3835C16.094 32.4431 15.2061 31.7594 14.8435 30.7972C14.562 30.0503 14.6056 29.4794 14.6497 28.7003C13.9658 28.593 13.7238 28.2457 14.1686 27.5979C14.6184 26.9428 15.4591 26.4657 16.2396 26.3091Z" fill="#66230A"/>
<path d="M16.0158 27.7288C16.4942 27.7099 16.8451 27.7831 17.081 28.2625C17.2034 28.5138 17.2193 28.8041 17.1249 29.0673C16.9959 29.4233 16.8186 29.5503 16.4995 29.7112C16.3985 29.7173 16.2889 29.7226 16.1887 29.7096C15.9273 29.6737 15.693 29.5294 15.5431 29.3117C15.1328 28.719 15.4624 28.0746 16.0158 27.7288Z" fill="#FAFBFB"/>
<path d="M17.7303 29.9241C18.0303 29.9422 18.3481 30.1562 18.3572 30.4727C18.3661 30.784 18.2098 30.902 18.0172 31.1093C17.2012 31.0808 17.2141 30.4381 17.7303 29.9241Z" fill="#FAFBFB"/>
<path d="M39.2506 30.4837C39.219 30.4537 39.1867 30.4237 39.155 30.3937C38.5893 29.6907 37.9113 28.6284 37.8086 27.7164C37.5565 25.4761 38.5164 25.8529 39.992 24.95C40.48 24.6513 40.3474 24.9829 40.765 24.4455C40.8044 24.5428 40.8116 24.5682 40.8402 24.6678C41.5374 25.4732 42.0565 26.1515 42.4466 27.1771C43.0183 28.0321 42.771 29.3547 42.1407 30.097C41.6802 30.6388 39.974 30.4531 39.2506 30.4837Z" fill="#F6D289"/>
<path d="M40.8402 24.6678C41.5374 25.4732 42.0565 26.1515 42.4466 27.1771C42.4914 27.3993 42.5714 27.5359 42.3546 27.6437C42.0057 27.5206 41.6306 26.2263 41.4149 25.8958C41.262 25.6618 40.759 25.1986 40.5362 24.976C40.5595 24.8362 40.6981 24.7763 40.8402 24.6678Z" fill="#EAD0A2"/>
<path d="M14.5329 19.9619C15.0852 19.9166 15.8201 19.8958 16.3293 20.1493C17.4221 20.6932 17.862 22.1735 17.2967 23.2495C16.7979 24.1991 16.1626 24.4117 15.2112 24.7094C11.3495 25.6539 11.7767 20.8371 14.5329 19.9619Z" fill="#964C1F"/>
<path d="M33.5893 32.8999C36.1455 32.7926 36.7112 36.0171 33.8468 36.4031C31.4823 36.5191 30.646 33.3139 33.5893 32.8999Z" fill="#EEAF4B"/>
<path d="M13.6339 32.7892C15.8455 32.9495 16.5199 35.7321 14.0692 35.9497C13.5078 35.9001 13.1604 35.8555 12.6944 35.5301C11.7012 34.8364 11.869 33.3249 13.0205 32.9194C13.2348 32.8439 13.4121 32.8194 13.6339 32.7892Z" fill="#EEAF4B"/>
<path d="M11.8501 52.1121C12.2368 51.927 12.3561 51.8162 12.7705 52.0055L13.4615 52.5397C13.7329 53.2183 13.6259 52.959 13.3826 53.5196C12.7086 53.1524 12.262 52.7565 11.8501 52.1121Z" fill="var(--fill-0, #5D1D07)"/>
</g>
</svg>
