<svg width="330" height="301" viewBox="0 0 330 301" fill="none" xmlns="http://www.w3.org/2000/svg">
<rect width="330" height="301" rx="16" fill="white"/>
<path d="M123.993 54.02V56.16H116.973V62.68H114.333V56.16H107.353V54.02H118.953C119.173 53.06 119.313 52.16 119.413 51.34L108.973 51.88L108.673 49.64L119.593 49.3C119.633 48.64 119.633 48.02 119.633 47.42H109.273V45.32H122.173V46.98C122.173 48.88 122.173 51.02 121.553 54.02H123.993ZM130.192 57.2V60.3H140.312V62.4H127.552V57.2H130.192ZM131.952 47.08V50.18H135.732V47.08H131.952ZM135.152 53.92H142.172V56.02H125.532V53.92H132.512V52.26H127.112V50.18H129.332V47.08H126.992V44.98H140.692V47.08H138.352V50.18H140.552V52.26H135.152V53.92ZM154.822 51.12V49.28H151.202V51.12H154.822ZM157.422 45.1V53.18H148.602V45.1H151.202V47.3H154.822V45.1H157.422ZM153.042 59.38V60.54H163.082V62.58H150.422V57.5H159.962V56.38H150.402V54.38H162.562V59.38H153.042ZM162.562 47.86H164.982V50H162.562V53.66H159.922V44.3H162.562V47.86ZM178.3 60.42V58.74H170.86V60.42H178.3ZM178.3 56.7V54.78H180.94V62.52H168.24V54.78H170.86V56.7H178.3ZM180.58 51.48H182.94V53.6H166.26V51.48H177.96C178.32 49.74 178.38 48.36 178.38 47.14H168.32V45.04H180.98V46.52C180.98 47.96 180.98 49.42 180.58 51.48ZM204.07 44.32V53.6H201.43V44.32H204.07ZM200.09 51.32L198.83 53.38C196.73 52.76 195.31 51.48 194.49 49.88C193.65 51.62 192.15 53.02 189.99 53.68L188.71 51.62C191.77 50.68 193.11 48.36 193.11 46.12V44.74H195.79V46.12C195.79 48.3 197.11 50.44 200.09 51.32ZM194.45 60.54H204.55V62.58H191.83V57.52H201.47V56.44H191.81V54.42H204.09V59.4H194.45V60.54ZM210.628 48.48V56.34C211.068 56.32 211.548 56.3 212.008 56.28V48.48H210.628ZM214.368 48.48V56.1C214.808 56.06 215.248 56.02 215.648 55.96L215.848 57.88C213.028 58.48 209.328 58.54 207.088 58.54L206.808 56.4C207.248 56.4 207.748 56.4 208.268 56.4V48.48H207.128V46.36H215.528V48.48H214.368ZM220.288 44.3H222.788V62.74H220.288V53.5H218.868V61.86H216.428V44.64H218.868V51.36H220.288V44.3Z" fill="black"/>
<path d="M115.659 89.872V90.892H111.387V94.924H110.139V90.892H105.867V89.872H112.887C113.043 89.188 113.151 88.588 113.199 88.024L106.875 88.336L106.731 87.292L113.271 87.064C113.295 86.584 113.295 86.152 113.295 85.72H107.067V84.712H114.495V85.708C114.495 86.836 114.495 88.096 114.111 89.872H115.659ZM119.258 91.696V93.712H125.486V94.72H118.01V91.696H119.258ZM120.422 85.54V87.712H122.918V85.54H120.422ZM122.294 89.86H126.59V90.868H116.762V89.86H121.046V88.708H117.71V87.712H119.186V85.54H117.65V84.544H125.678V85.54H124.154V87.712H125.618V88.708H122.294V89.86ZM134.54 88.3V86.92H131.888V88.3H134.54ZM135.764 84.544V89.284H130.652V84.544H131.888V85.972H134.54V84.544H135.764ZM132.98 92.896V93.856H139.1V94.828H131.768V91.984H137.516V91.084H131.744V90.124H138.74V92.896H132.98ZM138.74 86.308H140.264V87.328H138.74V89.644H137.504V84.088H138.74V86.308ZM148.543 93.796V92.536H143.647V93.796H148.543ZM148.543 91.576V90.28H149.779V94.792H142.423V90.28H143.647V91.576H148.543ZM149.527 88.42H151.015V89.428H141.199V88.42H148.303C148.555 87.232 148.579 86.344 148.579 85.552H142.435V84.556H149.791V85.384C149.791 86.224 149.791 87.136 149.527 88.42ZM154.554 91.456C155.298 91.456 155.754 90.484 155.754 88.768C155.754 87.052 155.298 86.092 154.554 86.092C153.81 86.092 153.354 87.052 153.354 88.768C153.354 90.484 153.81 91.456 154.554 91.456ZM158.022 88.192V84.292H159.174V94.408H158.022V89.212H156.87C156.762 91.324 155.874 92.62 154.554 92.62C153.15 92.62 152.226 91.144 152.226 88.768C152.226 86.392 153.15 84.928 154.554 84.928C155.85 84.928 156.726 86.164 156.858 88.192H158.022ZM160.194 84.088H161.37V94.912H160.194V84.088ZM174.541 84.088V89.644H173.293V84.088H174.541ZM172.201 88.432L171.601 89.404C170.353 88.996 169.441 88.168 168.949 87.1C168.457 88.264 167.533 89.164 166.225 89.608L165.613 88.624C167.329 88.06 168.301 86.656 168.301 85.192V84.376H169.561V85.192C169.561 86.596 170.533 87.916 172.201 88.432ZM168.673 93.856H174.865V94.828H167.461V92.008H173.317V91.12H167.437V90.16H174.541V92.908H168.673V93.856ZM178.56 86.38V91.3C178.932 91.288 179.292 91.264 179.664 91.252V86.38H178.56ZM180.792 86.38V91.18C181.128 91.144 181.44 91.108 181.74 91.06L181.836 91.96C180.144 92.296 177.924 92.344 176.556 92.344L176.424 91.324C176.712 91.324 177.072 91.324 177.444 91.324V86.38H176.628V85.384H181.596V86.38H180.792ZM184.608 84.076H185.784V94.924H184.608V89.368H183.444V94.384H182.28V84.304H183.444V88.36H184.608V84.076ZM194.339 87.988V90.64H193.175V84.244H194.339V86.98H195.443V84.1H196.619V90.784H195.443V87.988H194.339ZM192.791 85.252V86.224H187.391V85.252H189.491V84.148H190.703V85.252H192.791ZM190.103 87.568C189.371 87.568 188.891 87.94 188.891 88.528C188.891 89.128 189.371 89.5 190.103 89.5C190.835 89.5 191.327 89.128 191.327 88.528C191.327 87.94 190.835 87.568 190.103 87.568ZM190.103 90.4C188.747 90.4 187.787 89.656 187.787 88.528C187.787 87.424 188.747 86.668 190.103 86.668C191.471 86.668 192.431 87.424 192.431 88.528C192.431 89.656 191.471 90.4 190.103 90.4ZM195.371 91.12V91.42C195.371 92.464 196.091 93.472 197.471 93.88L196.883 94.792C195.827 94.444 195.107 93.772 194.747 92.92C194.399 93.748 193.763 94.504 192.767 94.9C191.759 94.528 191.123 93.796 190.787 92.968C190.391 93.772 189.695 94.444 188.687 94.792L188.099 93.88C189.467 93.448 190.199 92.392 190.199 91.42V91.12H191.399V91.42C191.399 92.284 191.831 93.172 192.743 93.736C193.691 93.136 194.159 92.188 194.159 91.42V91.12H195.371ZM201.286 91.42C202.222 91.42 202.858 90.412 202.858 88.696C202.858 87.016 202.222 85.996 201.286 85.996C200.362 85.996 199.726 87.016 199.726 88.696C199.726 90.412 200.362 91.42 201.286 91.42ZM206.122 84.076H207.37V94.948H206.122V89.128H204.022C203.878 91.228 202.774 92.524 201.286 92.524C199.69 92.524 198.55 91.048 198.55 88.696C198.55 86.368 199.69 84.88 201.286 84.88C202.738 84.88 203.842 86.128 204.01 88.12H206.122V84.076ZM212.817 90.232V92.584H215.553V90.22C215.133 90.328 214.665 90.376 214.185 90.376C213.705 90.376 213.237 90.328 212.817 90.232ZM214.185 85.684C212.541 85.684 211.401 86.404 211.401 87.544C211.401 88.696 212.541 89.416 214.185 89.416C215.817 89.416 216.957 88.696 216.957 87.544C216.957 86.404 215.817 85.684 214.185 85.684ZM216.789 92.584H219.105V93.592H209.289V92.584H211.581V89.764C210.717 89.284 210.201 88.504 210.201 87.544C210.201 85.816 211.869 84.712 214.185 84.712C216.489 84.712 218.169 85.816 218.169 87.544C218.169 88.504 217.653 89.272 216.789 89.764V92.584ZM221.384 94.156C220.868 94.156 220.46 93.76 220.46 93.196C220.46 92.632 220.868 92.212 221.384 92.212C221.9 92.212 222.308 92.632 222.308 93.196C222.308 93.76 221.9 94.156 221.384 94.156ZM87.8205 102.988V104.764C87.8205 106.696 88.8285 108.652 90.4605 109.456L89.7045 110.44C88.5405 109.84 87.6765 108.664 87.2085 107.248C86.7405 108.748 85.8285 110.008 84.5925 110.644L83.8365 109.648C85.5285 108.82 86.5845 106.768 86.5845 104.764V102.988H87.8205ZM94.1085 106.384V107.404H92.4165V112.924H91.1805V102.088H92.4165V106.384H94.1085ZM99.8195 111.976C101.404 111.976 102.304 111.64 102.304 110.98C102.304 110.332 101.404 109.984 99.8195 109.984C98.2355 109.984 97.3475 110.332 97.3475 110.98C97.3475 111.64 98.2355 111.976 99.8195 111.976ZM99.8195 109.036C102.16 109.036 103.552 109.744 103.552 110.98C103.552 112.228 102.16 112.924 99.8195 112.924C97.4915 112.924 96.0875 112.228 96.0875 110.98C96.0875 109.744 97.4915 109.036 99.8195 109.036ZM98.4995 106.252V107.356H101.164V106.252C100.768 106.312 100.324 106.348 99.8435 106.348C99.3635 106.348 98.8955 106.312 98.4995 106.252ZM99.8435 103.228C98.2235 103.228 97.2515 103.612 97.2515 104.308C97.2515 105.004 98.2235 105.4 99.8435 105.4C101.452 105.4 102.424 105.004 102.424 104.308C102.424 103.612 101.452 103.228 99.8435 103.228ZM102.4 107.356H104.74V108.34H94.9355V107.356H97.2635V105.916C96.4475 105.568 95.9795 105.016 95.9795 104.308C95.9795 103.036 97.4675 102.268 99.8435 102.268C102.208 102.268 103.708 103.036 103.708 104.308C103.708 105.016 103.228 105.568 102.4 105.928V107.356ZM112.275 103.324V104.308H105.879V103.324H108.459V102.076H109.695V103.324H112.275ZM107.631 106.864C107.631 107.548 108.219 107.956 109.071 107.956C109.935 107.956 110.523 107.548 110.523 106.864C110.523 106.18 109.935 105.772 109.071 105.772C108.219 105.772 107.631 106.18 107.631 106.864ZM111.699 106.864C111.699 108.1 110.631 108.916 109.071 108.916C107.523 108.916 106.443 108.1 106.443 106.864C106.443 105.64 107.523 104.812 109.071 104.812C110.631 104.812 111.699 105.64 111.699 106.864ZM108.711 109.588V111.712H114.759V112.72H107.463V109.588H108.711ZM114.327 105.544H115.863V106.564H114.327V110.212H113.091V102.088H114.327V105.544ZM129.153 107.872V108.892H124.881V112.924H123.633V108.892H119.361V107.872H126.381C126.537 107.188 126.645 106.588 126.693 106.024L120.369 106.336L120.225 105.292L126.765 105.064C126.789 104.584 126.789 104.152 126.789 103.72H120.561V102.712H127.989V103.708C127.989 104.836 127.989 106.096 127.605 107.872H129.153ZM131.048 103.168H136.088C136.088 106.396 135.056 109.264 131.096 111.244L130.424 110.272C132.332 109.324 133.508 108.196 134.168 106.864L130.664 107.188L130.496 106.12L134.552 105.868C134.708 105.34 134.804 104.776 134.852 104.176H131.048V103.168ZM137.984 102.088H139.22V112.924H137.984V102.088ZM149.899 105.196V106.204H142.459V102.472H143.695V105.196H149.899ZM143.623 109.492V111.688H149.959V112.684H142.387V109.492H143.623ZM141.187 107.5H151.027V108.496H141.187V107.5ZM158.485 104.188V105.232C158.485 106.912 159.553 108.832 161.197 109.612L160.513 110.584C159.301 110.008 158.377 108.808 157.885 107.44C157.405 108.952 156.445 110.248 155.197 110.86L154.489 109.876C156.145 109.084 157.249 107.032 157.249 105.232V104.188H154.885V103.168H160.777V104.188H158.485ZM164.773 106.36V107.38H163.081V112.924H161.845V102.088H163.081V106.36H164.773ZM170.485 111.976C172.069 111.976 172.969 111.628 172.969 110.956C172.969 110.296 172.069 109.936 170.485 109.936C168.901 109.936 168.013 110.296 168.013 110.956C168.013 111.628 168.901 111.976 170.485 111.976ZM170.485 108.988C172.813 108.988 174.217 109.708 174.217 110.956C174.217 112.216 172.813 112.936 170.485 112.936C168.169 112.936 166.753 112.216 166.753 110.956C166.753 109.708 168.169 108.988 170.485 108.988ZM171.133 107.32H175.417V108.328H165.625V107.32H169.897V106.24H166.837V102.568H174.217V103.552H168.061V105.244H174.289V106.24H171.133V107.32ZM180.187 110.488V109.492H187.699V112.936H186.463V110.488H180.187ZM181.591 104.404V105.472H186.415V104.404H181.591ZM184.615 107.572H188.911V108.58H179.083V107.572H183.367V106.456H180.367V102.352H181.591V103.456H186.415V102.352H187.639V106.456H184.615V107.572ZM199.83 107.38V108.4H195.51V112.924H194.262V108.4H190.026V107.38H197.07C197.382 105.868 197.382 104.74 197.382 103.744H191.202V102.748H198.594V103.696C198.594 104.716 198.594 105.844 198.318 107.38H199.83ZM205.133 107.632V109.588C206.093 109.552 207.053 109.492 207.953 109.384L208.049 110.296C205.709 110.668 203.189 110.704 201.149 110.692L200.993 109.672C201.893 109.672 202.877 109.66 203.897 109.636V107.632H201.749V103.072H207.293V104.08H202.985V106.636H207.341V107.632H205.133ZM208.613 102.064H209.861V112.948H208.613V102.064ZM214.84 103.696C213.892 103.696 213.196 104.32 213.196 105.244C213.196 106.156 213.892 106.78 214.84 106.78C215.776 106.78 216.46 106.156 216.46 105.244C216.46 104.32 215.776 103.696 214.84 103.696ZM219.604 105.736H217.588C217.36 106.96 216.256 107.8 214.84 107.8C213.22 107.8 212.02 106.744 212.02 105.244C212.02 103.732 213.22 102.676 214.84 102.676C216.244 102.676 217.336 103.492 217.588 104.716H219.604V102.088H220.84V108.22H219.604V105.736ZM219.736 108.64V109.168C219.736 110.308 220.432 111.424 221.848 111.88L221.236 112.792C220.192 112.42 219.484 111.7 219.112 110.824C218.764 111.688 218.128 112.468 217.132 112.888C216.124 112.492 215.476 111.736 215.14 110.86C214.756 111.712 214.048 112.408 213.052 112.792L212.44 111.88C213.832 111.388 214.552 110.236 214.552 109.168V108.64H215.752V109.168C215.752 110.104 216.172 111.088 217.12 111.688C218.092 111.028 218.524 109.996 218.524 109.168V108.64H219.736ZM225.699 109.42C226.635 109.42 227.271 108.412 227.271 106.696C227.271 105.016 226.635 103.996 225.699 103.996C224.775 103.996 224.139 105.016 224.139 106.696C224.139 108.412 224.775 109.42 225.699 109.42ZM230.535 102.076H231.783V112.948H230.535V107.128H228.435C228.291 109.228 227.187 110.524 225.699 110.524C224.103 110.524 222.963 109.048 222.963 106.696C222.963 104.368 224.103 102.88 225.699 102.88C227.151 102.88 228.255 104.128 228.423 106.12H230.535V102.076ZM237.23 108.232V110.584H239.966V108.22C239.546 108.328 239.078 108.376 238.598 108.376C238.118 108.376 237.65 108.328 237.23 108.232ZM238.598 103.684C236.954 103.684 235.814 104.404 235.814 105.544C235.814 106.696 236.954 107.416 238.598 107.416C240.23 107.416 241.37 106.696 241.37 105.544C241.37 104.404 240.23 103.684 238.598 103.684ZM241.202 110.584H243.518V111.592H233.702V110.584H235.994V107.764C235.13 107.284 234.614 106.504 234.614 105.544C234.614 103.816 236.282 102.712 238.598 102.712C240.902 102.712 242.582 103.816 242.582 105.544C242.582 106.504 242.066 107.272 241.202 107.764V110.584ZM245.797 112.156C245.281 112.156 244.873 111.76 244.873 111.196C244.873 110.632 245.281 110.212 245.797 110.212C246.313 110.212 246.721 110.632 246.721 111.196C246.721 111.76 246.313 112.156 245.797 112.156ZM103.303 121.144V127.192C104.767 127.18 106.327 127.06 107.971 126.724L108.115 127.744C106.279 128.104 104.599 128.224 102.967 128.224H102.067V121.144H103.303ZM111.727 124.312V125.332H110.083V130.924H108.847V120.088H110.083V124.312H111.727ZM113.538 124.54L113.094 123.568C115.098 123.364 116.49 122.524 116.658 121.552H113.514V120.556H121.518V121.552H118.35C118.518 122.524 119.91 123.364 121.914 123.568L121.482 124.54C119.574 124.336 118.086 123.556 117.51 122.44C116.922 123.556 115.434 124.336 113.538 124.54ZM119.97 129.004C119.97 128.356 119.07 128.02 117.486 128.02C115.902 128.02 115.014 128.356 115.014 129.004C115.014 129.628 115.902 129.976 117.486 129.976C119.07 129.976 119.97 129.628 119.97 129.004ZM122.406 126.076H118.122V127.084C120.078 127.204 121.218 127.876 121.218 129.004C121.218 130.228 119.826 130.924 117.486 130.924C115.158 130.924 113.754 130.228 113.754 129.004C113.754 127.876 114.918 127.192 116.886 127.072V126.076H112.602V125.092H122.406V126.076ZM125.969 127.456C126.713 127.456 127.169 126.484 127.169 124.768C127.169 123.052 126.713 122.092 125.969 122.092C125.225 122.092 124.769 123.052 124.769 124.768C124.769 126.484 125.225 127.456 125.969 127.456ZM129.437 124.192V120.292H130.589V130.408H129.437V125.212H128.285C128.177 127.324 127.289 128.62 125.969 128.62C124.565 128.62 123.641 127.144 123.641 124.768C123.641 122.392 124.565 120.928 125.969 120.928C127.265 120.928 128.141 122.164 128.273 124.192H129.437ZM131.609 120.088H132.785V130.912H131.609V120.088ZM138.695 122.116V127.24C140.447 127.228 141.767 127.156 143.279 126.892L143.411 127.912C141.767 128.212 140.303 128.272 138.347 128.272H137.459V121.108H142.499V122.116H138.695ZM147.107 124.252V125.272H145.415V130.936H144.179V120.076H145.415V124.252H147.107ZM151.942 120.988V122.764C151.942 124.756 153.046 126.748 154.75 127.516L154.03 128.5C152.782 127.912 151.834 126.712 151.342 125.248C150.85 126.82 149.89 128.104 148.582 128.74L147.85 127.708C149.578 126.928 150.706 124.852 150.706 122.764V120.988H151.942ZM155.614 120.076H156.862V130.948H155.614V120.076ZM165.437 120.988V122.764C165.437 124.756 166.541 126.748 168.245 127.516L167.525 128.5C166.277 127.912 165.329 126.712 164.837 125.248C164.345 126.82 163.385 128.104 162.077 128.74L161.345 127.708C163.073 126.928 164.201 124.852 164.201 122.764V120.988H165.437ZM169.109 120.076H170.357V130.948H169.109V120.076ZM177.868 128.608H182.176V129.628H172.36V128.608H176.632V126.052H173.56V120.904H180.976V121.9H174.796V125.056H181.072V126.052H177.868V128.608ZM185.919 127.468C186.651 127.468 187.167 126.88 187.167 125.98C187.167 125.08 186.651 124.48 185.919 124.48C185.187 124.48 184.671 125.08 184.671 125.98C184.671 126.88 185.187 127.468 185.919 127.468ZM185.919 123.46C187.287 123.46 188.271 124.48 188.271 125.98C188.271 127.468 187.287 128.5 185.919 128.5C184.551 128.5 183.567 127.468 183.567 125.98C183.567 124.48 184.551 123.46 185.919 123.46ZM186.531 120.4V121.852H188.559V122.848H183.255V121.852H185.307V120.4H186.531ZM191.331 120.088H192.507V130.924H191.331V125.596H190.179V130.42H189.027V120.316H190.179V124.576H191.331V120.088ZM195.182 125.392L194.738 124.42C196.802 124.144 198.326 122.956 198.398 121.696H195.098V120.7H203.078V121.696H199.802C199.874 122.956 201.398 124.144 203.462 124.42L203.018 125.392C201.23 125.128 199.754 124.24 199.094 123.04C198.434 124.24 196.97 125.128 195.182 125.392ZM204.002 126.184L203.99 127.18H199.682V130.936H198.446V127.18H194.198V126.184H204.002ZM208.441 121.084V122.98C208.441 124.732 209.101 126.568 210.553 127.48L209.857 128.44C208.873 127.84 208.225 126.784 207.853 125.572C207.469 126.904 206.761 128.044 205.717 128.68L204.961 127.744C206.497 126.832 207.241 124.888 207.241 123.04V121.084H208.441ZM210.985 123.88V120.292H212.149V130.42H210.985V124.888H209.389V123.88H210.985ZM213.193 120.088H214.369V130.924H213.193V120.088ZM219.564 126.232V128.584H222.3V126.22C221.88 126.328 221.412 126.376 220.932 126.376C220.452 126.376 219.984 126.328 219.564 126.232ZM220.932 121.684C219.288 121.684 218.148 122.404 218.148 123.544C218.148 124.696 219.288 125.416 220.932 125.416C222.564 125.416 223.704 124.696 223.704 123.544C223.704 122.404 222.564 121.684 220.932 121.684ZM223.536 128.584H225.852V129.592H216.036V128.584H218.328V125.764C217.464 125.284 216.948 124.504 216.948 123.544C216.948 121.816 218.616 120.712 220.932 120.712C223.236 120.712 224.916 121.816 224.916 123.544C224.916 124.504 224.4 125.272 223.536 125.764V128.584ZM228.131 130.156C227.615 130.156 227.207 129.76 227.207 129.196C227.207 128.632 227.615 128.212 228.131 128.212C228.647 128.212 229.055 128.632 229.055 129.196C229.055 129.76 228.647 130.156 228.131 130.156Z" fill="black"/>
<path fill-rule="evenodd" clip-rule="evenodd" d="M303 31.5915L306.977 35.5687C307.188 35.7798 307.474 35.8984 307.773 35.8984C308.071 35.8984 308.358 35.7798 308.569 35.5687C308.78 35.3577 308.898 35.0715 308.898 34.773C308.898 34.4745 308.78 34.1883 308.569 33.9772L304.59 30L308.568 26.0227C308.672 25.9182 308.755 25.7942 308.812 25.6577C308.868 25.5212 308.897 25.3749 308.897 25.2271C308.897 25.0794 308.868 24.9331 308.812 24.7966C308.755 24.6601 308.672 24.5361 308.568 24.4316C308.463 24.3272 308.339 24.2443 308.203 24.1878C308.066 24.1313 307.92 24.1022 307.772 24.1023C307.624 24.1023 307.478 24.1314 307.341 24.188C307.205 24.2446 307.081 24.3275 306.976 24.432L303 28.4092L299.023 24.432C298.919 24.3245 298.795 24.2387 298.658 24.1797C298.52 24.1207 298.373 24.0896 298.223 24.0882C298.074 24.0868 297.926 24.1152 297.788 24.1717C297.649 24.2282 297.524 24.3117 297.418 24.4173C297.312 24.5229 297.229 24.6484 297.172 24.7867C297.115 24.9249 297.087 25.073 297.088 25.2224C297.089 25.3718 297.12 25.5194 297.179 25.6567C297.238 25.794 297.324 25.9182 297.431 26.022L301.41 30L297.432 33.978C297.325 34.0818 297.239 34.206 297.18 34.3433C297.121 34.4806 297.09 34.6282 297.089 34.7776C297.088 34.927 297.116 35.0751 297.173 35.2133C297.229 35.3515 297.313 35.4771 297.419 35.5827C297.524 35.6883 297.65 35.7717 297.788 35.8282C297.927 35.8847 298.075 35.9131 298.224 35.9118C298.374 35.9104 298.521 35.8793 298.658 35.8203C298.796 35.7612 298.92 35.6755 299.023 35.568L303 31.5915Z" fill="#888880"/>
<path d="M161.762 151.055C161.951 150.997 162.141 150.942 162.332 150.889C164.856 150.193 169.743 149.495 172.183 150.51C175.574 151.92 179.166 152.256 182.547 153.573C183.406 153.908 184.357 154.918 185.193 155.292C186.559 155.904 188.095 156.157 189.397 156.915C190.814 157.751 191.856 159 193.064 160.117C193.905 160.896 195.083 161.661 195.878 162.447C197.713 164.258 199.782 166.671 201.186 168.83C201.937 169.984 202.042 171.996 202.773 173.158C203.172 173.792 203.908 174.617 204.385 175.234C205.559 176.75 206.059 178.243 206.703 179.979C207.479 182.068 207.072 183.731 207.386 185.767C207.658 186.989 208.217 188.156 208.545 189.367C209.523 192.971 208.631 196.551 208.558 200.171C208.516 202.282 209.266 204.477 208.894 206.649C208.559 208.602 207.884 209.969 206.909 211.649C205.465 213.727 204.653 215.058 203.499 217.314C202.905 218.477 201.77 220.654 201.045 221.658C199.899 223.15 198.756 223.649 197.499 224.926C196.972 225.463 196.034 226.837 195.563 227.481C193.507 230.299 192.045 231.381 188.969 232.798C188.893 237.074 187.378 240.824 186.129 244.883C188.077 246.773 189.555 249.426 185.47 250.221C182.825 250.736 178.426 250.163 176.083 248.902C174.874 248.251 174.746 244.711 174.596 243.409C174.411 241.843 174.198 240.281 173.956 238.724C171.33 238.861 169.305 238.883 166.669 238.809C165.575 238.778 163.551 239.073 162.327 239.101C160.412 239.146 159.202 239.036 157.28 238.842C156.74 241.16 155.663 247.943 154.461 249.5C153.499 250.746 151.258 251.186 149.8 251.415C147.902 251.711 145.158 251.944 143.525 250.694C142.97 250.269 142.609 249.685 142.56 248.984C142.464 247.6 143.446 246.506 144.308 245.547C143.211 241.776 141.808 236.215 141.968 232.355C138.798 230.39 133.904 226.88 132.006 223.65C131.297 222.444 131.104 220.537 130.36 219.334C129.52 217.992 127.86 217.052 127.107 215.654C124.937 211.629 124.106 207.434 123.875 202.925C123.694 199.419 122.281 195.704 122.012 192.208C121.887 190.576 122.756 189.03 122.943 187.436C123.161 184.932 122.691 182.386 123.436 179.929C124.17 177.062 125.798 176.01 127.313 173.732C127.559 173.361 127.868 171.611 128.028 171.048C128.901 167.978 131.123 165.9 133.514 163.931C134.98 162.685 135.527 160.766 137.372 159.279C140.741 156.563 143.698 156.384 147.528 154.993C148.871 154.506 150.907 152.906 152.297 152.172C155.618 150.419 158.202 150.052 161.762 151.055Z" fill="#572006"/>
<path d="M163.014 152.307C165.364 151.68 169.773 151.046 171.959 152.068C175.291 153.626 178.952 153.678 182.201 155.25C182.996 155.635 183.849 156.449 184.688 156.822C185.915 157.378 187.605 157.701 188.75 158.414C189.928 159.148 191.087 160.405 192.123 161.377C193.014 162.212 194.178 162.985 195.023 163.783C196.604 165.275 198.44 167.443 199.646 169.243C200.453 170.448 200.547 172.486 201.298 173.73C201.745 174.469 202.408 175.202 202.937 175.901C204.157 177.514 204.797 178.907 205.364 180.801C205.898 182.585 205.58 184.093 205.815 185.626C206.065 187.269 207.103 188.897 207.336 190.838C207.745 193.707 207.208 196.535 206.979 199.382C206.865 200.806 207.244 202.691 207.423 204.134C207.71 206.457 207.043 208.445 205.839 210.452C205.805 210.51 205.77 210.567 205.733 210.623C204.435 212.449 203.831 213.365 202.779 215.303C201.978 216.781 200.496 219.897 199.505 221.005L199.488 221.102C198.66 221.952 196.823 223.241 196.29 223.888C194.514 226.045 194.023 227.376 191.778 229.316C189.46 231.318 187.55 231.391 185.348 232.582C182.107 234.337 180.849 235.745 176.877 236.599C173.321 237.362 170.352 237.23 166.742 237.256C165.28 237.265 163.5 237.501 161.969 237.544C157.764 237.669 153.599 236.697 149.893 234.726C148.627 234.042 147.657 232.981 146.569 232.426C145.261 231.759 143.629 231.691 142.241 230.722C141.294 230.061 140.468 229.442 139.552 228.718C137.351 226.98 134.775 225.628 133.473 223.046C132.788 221.687 132.569 219.963 131.88 218.787C130.833 217.001 129.092 216.216 128.082 214.174C126.935 211.858 125.95 208.955 125.671 206.388C125.512 204.931 125.537 203.617 125.337 202.093C124.979 199.383 124.57 196.932 123.882 194.278C123.682 193.504 123.55 192.643 123.575 191.837C123.615 190.516 124.413 188.91 124.565 187.684C124.969 184.418 124.089 182.144 125.462 178.932C126.316 176.932 128.367 175.702 128.842 174.397C129.562 172.418 128.977 171.643 130.444 169.43C132.002 167.079 133.335 166.411 135.208 164.494C136.173 163.506 136.835 161.913 138.045 160.742C141.149 157.739 145.472 157.696 148.875 156.101C151.481 154.879 152.946 152.961 156.383 152.235C159.418 151.593 160.411 152.873 163.014 152.307Z" fill="#F3BE5E"/>
<path d="M163.014 152.307C165.364 151.68 169.773 151.046 171.959 152.068C175.291 153.626 178.952 153.678 182.201 155.25C182.996 155.635 183.849 156.449 184.688 156.822C185.915 157.378 187.605 157.701 188.75 158.414C189.928 159.148 191.087 160.405 192.123 161.377C193.014 162.212 194.178 162.985 195.023 163.783C196.604 165.275 198.44 167.443 199.646 169.243C200.453 170.448 200.547 172.486 201.298 173.73C201.745 174.469 202.408 175.202 202.937 175.901C204.157 177.514 204.797 178.907 205.364 180.801C205.898 182.585 205.58 184.093 205.815 185.626C206.065 187.269 207.103 188.897 207.336 190.838C207.745 193.707 207.208 196.535 206.979 199.382C206.865 200.806 207.244 202.691 207.423 204.134C207.71 206.457 207.043 208.445 205.839 210.452C205.805 210.51 205.77 210.567 205.733 210.623C204.435 212.449 203.831 213.365 202.779 215.303C201.978 216.781 200.496 219.897 199.505 221.005C199.116 220.567 199.942 219.027 200.142 218.444C202.104 212.73 205.684 208.983 205.112 202.618L204.965 202.855L204.797 202.845L204.981 202.411C205.37 201.173 205.252 200.545 204.8 199.351C204.929 197.757 205.257 196.279 205.274 194.636C205.3 192.095 204.815 190.04 204.305 187.592C204.076 186.485 204.134 185.162 203.765 183.971C203.321 182.544 202.802 181.025 202.225 179.65C201.734 178.632 201.733 178.474 200.818 177.789C199.555 175.775 199.213 173.85 197.962 171.82C196.846 170.01 195.726 169.079 194.333 167.567C193.6 166.807 192.929 165.624 192.168 164.919C190.498 163.374 188.82 161.669 187.1 160.195C186.131 159.433 184.618 159.296 183.59 158.784C179.904 156.948 176.352 155.631 172.336 154.716C169.87 154.154 167.327 153.122 164.786 152.748C164.226 152.666 163.717 152.684 163.157 152.556L163.014 152.307Z" fill="#F9D799"/>
<path d="M201.309 197.997C202.876 197.795 203.906 197.861 204.8 199.351C205.252 200.545 205.37 201.173 204.981 202.411L204.797 202.845C204.682 202.93 204.222 203.472 204.074 203.627C202.612 205.168 200.021 205.382 198.973 203.107C198.552 202.214 198.519 201.189 198.882 200.271C199.377 199.029 200.134 198.513 201.309 197.997Z" fill="#83461D"/>
<path d="M201.309 197.997C202.876 197.795 203.906 197.861 204.8 199.351C205.252 200.545 205.37 201.173 204.981 202.411C204.906 200.456 201.938 199.317 201.309 197.997Z" fill="#A25925"/>
<path d="M202.225 179.65C202.254 180.969 202.337 182.325 201.055 183.108C200.028 183.735 199.079 183.019 198.54 182.153C197.801 180.966 197.563 178.654 198.984 177.871C199.621 177.522 200.147 177.606 200.818 177.789C201.733 178.474 201.734 178.632 202.225 179.65Z" fill="#A25925"/>
<path d="M161.335 207.54C161.073 207.462 160.699 207.548 160.49 207.456C159.736 207.122 159.659 206.257 160.129 205.646C160.351 205.357 160.688 205.179 161.052 205.157C161.947 205.107 161.938 205.546 162.457 206.005L162.581 206.114C164.735 205.196 166.447 205.889 168.457 206.881C172.468 204.939 176.729 205.093 175.426 210.804C178.616 212.333 182.292 214.001 185.768 212.365C187.311 211.655 188.196 209.761 189.877 209.89C186.444 216.054 181.002 215.008 175.538 212.451C174.834 214.41 173.806 216.614 172.428 218.199C173.335 219.13 174.016 219.462 175.192 220.06C180.037 222.521 185.28 222.66 190.55 221.749C191.261 221.625 191.985 221.187 192.698 221.107C193.206 220.798 194.421 219.957 194.91 219.835L195.023 220.024C194.651 221.1 191.557 222.957 190.479 223.485C190.138 223.649 189.794 223.805 189.446 223.954C188.121 225.528 184.865 226.048 182.926 226.257C179.252 226.654 176.059 225.537 172.828 223.954C171.586 223.346 170.428 222.651 169.099 222.223C166.076 223.485 163.757 224.559 160.493 225.233C159.038 225.534 157.885 225.636 156.491 225.874C156.251 225.622 155.965 225.384 155.701 225.154C154.582 225.309 153.726 225.379 152.591 225.345C152.217 225.333 151.36 225.25 151.083 225.274C148.859 224.965 146.657 224.341 144.705 223.225C143.807 222.711 142.01 221.572 141.572 220.6L141.678 220.47L142.053 220.546C142.772 220.638 144.916 221.383 145.781 221.649C151.36 223.364 159.345 221.825 164.389 219.123C167.748 217.323 173.244 212.164 174.306 208.36C173.232 206.353 170.931 207.141 169.336 208.035C165.542 210.164 161.997 212.662 157.786 213.967C155.715 214.618 153.497 215.16 151.332 214.523C149.934 214.12 147.406 212.371 147.077 210.895L147.193 210.704C147.712 210.665 147.957 210.94 148.345 211.269C148.465 211.37 148.584 211.473 148.701 211.577C150.307 212.784 151.39 213.247 153.408 213.372C156.379 213.228 158.808 212.098 161.455 210.903C161.07 209.574 160.974 208.876 161.335 207.54Z" fill="#572006"/>
<path d="M168.487 219.485C174.669 223.894 181.934 226.437 189.446 223.954C188.121 225.528 184.865 226.048 182.926 226.257C179.252 226.654 176.059 225.537 172.828 223.954C171.586 223.346 170.428 222.651 169.099 222.223C166.076 223.485 163.757 224.559 160.493 225.233C159.038 225.534 157.885 225.636 156.491 225.874C156.251 225.622 155.965 225.384 155.701 225.154C159.985 224.443 165.132 222.233 168.487 219.485Z" fill="#E39F44"/>
<path d="M174.306 208.36C174.404 210.904 172.471 213.629 170.786 215.457C166.587 220.012 159.539 223.558 153.322 223.97C150.084 224.185 144.532 222.672 142.053 220.546C142.772 220.638 144.916 221.383 145.781 221.649C151.36 223.364 159.345 221.825 164.389 219.123C167.748 217.323 173.244 212.164 174.306 208.36Z" fill="#E39F44"/>
<path d="M169.727 218.476C171.96 216.652 173.422 214.688 174.834 212.225C175.151 212.179 175.182 212.274 175.538 212.451C174.834 214.41 173.806 216.614 172.428 218.199C173.335 219.13 174.016 219.462 175.192 220.06C180.037 222.521 185.28 222.66 190.55 221.749C191.261 221.625 191.985 221.187 192.698 221.107C191.151 222.272 188.125 223.065 186.227 223.355C180.635 224.212 174.184 221.832 169.727 218.476Z" fill="#E39F44"/>
<path d="M161.335 207.54C161.073 207.462 160.699 207.548 160.49 207.456C159.736 207.122 159.659 206.257 160.129 205.646C160.351 205.357 160.688 205.179 161.052 205.157C161.947 205.107 161.938 205.546 162.457 206.005L162.581 206.114C162.003 206.626 161.726 206.851 161.335 207.54Z" fill="#E39F44"/>
<path d="M163.824 207.094C165.275 207.055 165.625 207.201 167.006 207.731C166.359 208.194 165.311 208.776 164.603 209.195C164.104 209.49 163.486 209.894 162.949 210.063C162.059 209.795 162.571 208.857 162.712 208.177C162.824 207.635 163.352 207.326 163.824 207.094Z" fill="#F3BE5E"/>
<path d="M131.735 178.433C135.417 177.595 138.185 178.923 139.053 182.724C139.408 184.21 139.137 185.775 138.302 187.06C137.332 188.547 135.796 189.585 134.044 189.938C132.304 190.282 130.064 190.246 128.927 188.687C126.642 186.208 127.647 181.019 130.324 179.191C130.755 178.896 131.263 178.656 131.735 178.433Z" fill="#995120"/>
<path d="M128.927 188.687C126.642 186.208 127.647 181.019 130.324 179.191C130.755 178.896 131.263 178.656 131.735 178.433L131.999 178.648C131.914 178.851 131.998 178.799 131.804 178.89C130.613 179.443 129.771 181.058 129.399 182.245L129.284 182.183C128.945 182.003 128.857 181.909 128.507 181.968C128.227 182.365 128.004 183.428 127.96 183.921C128.099 183.971 128.237 184.025 128.373 184.081L128.374 184.284L127.965 184.282C127.442 185.053 128.4 187.487 128.881 188.285L129.107 188.662L128.927 188.687Z" fill="#83461D"/>
<path d="M157.519 154.18C160.578 153.578 163.555 155.533 164.184 158.558C164.812 161.582 162.857 164.541 159.807 165.184C156.727 165.832 153.703 163.875 153.068 160.822C152.433 157.769 154.431 154.788 157.519 154.18Z" fill="#964F1F"/>
<path d="M180.212 162.913C182.047 161.121 184.55 160.848 186.782 162.104C189.261 163.925 190.726 167.652 188.246 170.042C186.906 171.504 185.99 171.363 184.168 171.276C182.573 172.083 180.176 171.233 178.81 170.17C176.373 168.273 176.274 163.005 180.212 162.913Z" fill="#83461D"/>
<path d="M180.212 162.913C182.047 161.121 184.55 160.848 186.782 162.104C189.261 163.925 190.726 167.652 188.246 170.042C187.811 169.791 186.625 170.282 186.544 169.777C186.272 168.087 186.009 167.783 184.796 166.495C184.283 166.181 183.597 165.402 183.195 164.959C181.712 164.616 180.848 164.61 179.785 163.548L180.212 162.913Z" fill="#A25925"/>
<path d="M180.212 162.913C182.047 161.121 184.55 160.848 186.782 162.104C185.978 163.203 184.485 164.031 183.643 165.05C183.945 165.676 184.459 165.896 184.796 166.495C184.283 166.181 183.597 165.402 183.195 164.959C181.712 164.616 180.848 164.61 179.785 163.548L180.212 162.913Z" fill="#995120"/>
<path d="M184.168 171.276C182.573 172.083 180.176 171.233 178.81 170.17C176.373 168.273 176.274 163.005 180.212 162.913L179.785 163.548C178.343 166.61 179.887 169.547 182.88 170.877C183.291 171.063 183.724 171.197 184.168 171.276Z" fill="#E39F44"/>
<path d="M151.882 190.947C152.465 191.128 152.564 191.166 153.092 191.465C153.491 191.892 153.567 191.967 154.062 192.296L154.189 192.257C155.162 192.269 155.26 192.327 155.998 192.966C155.647 193.075 155.056 193.284 154.716 193.322C153.79 193.983 153.097 195.111 152.929 196.231C152.641 198.157 153.769 199.441 153.926 201.452C154.065 203.232 152.514 205.369 152.587 206.533C152.779 209.586 154.119 209.894 153.408 213.372C151.39 213.247 150.307 212.784 148.701 211.577C149.594 208.939 148.216 208.303 148.379 205.759C148.487 204.214 149.618 202.813 149.534 201.252C149.463 199.927 148.819 198.87 148.479 197.575C147.984 195.695 149.179 194.02 150.103 192.494C150.092 192.513 150.121 191.702 150.124 191.653L150.373 191.457L150.409 191.389C150.888 191.219 151.391 191.086 151.882 190.947Z" fill="#ABE8F2"/>
<path d="M151.882 190.947C152.465 191.128 152.564 191.166 153.092 191.465C153.491 191.892 153.567 191.967 154.062 192.296C153.371 192.436 152.91 192.477 152.388 192.967C151.723 192.314 151.007 193.098 150.373 191.457L150.409 191.389C150.888 191.219 151.391 191.086 151.882 190.947Z" fill="#88CADB"/>
<path d="M154.189 192.257C155.162 192.269 155.26 192.327 155.998 192.966C155.647 193.075 155.056 193.284 154.716 193.322C153.902 193.264 153.149 193.255 152.388 192.967C152.91 192.477 153.371 192.436 154.062 192.296L154.189 192.257Z" fill="#572006"/>
<path d="M177.768 181.954C176.934 181.343 175.057 179.724 176.201 178.486C176.404 178.268 176.728 178.168 177.025 178.189C177.275 178.596 177.168 179.158 177.142 179.682C177.889 181.075 182.386 182.398 183.972 182.585C184.592 182.658 187.561 182.971 187.86 183.187C187.905 184.006 187.041 183.968 186.375 184.059C186.726 185.915 186.759 187.975 185.685 189.618L185.069 189.492C185.11 189.806 185.123 189.785 185.331 190.034L185.239 190.325C184.854 190.791 184.022 191.289 183.411 191.319L182.554 191.621C181.961 191.802 180.73 191.674 180.109 191.506C179.926 191.957 179.072 191.695 178.749 191.343L178.785 190.946C176.261 188.201 175.765 185.184 177.768 181.954Z" fill="#572006"/>
<path d="M179.878 189.82L179.994 190.168C180.66 190.429 182.658 189.267 182.975 190.852L183.038 190.861C183.236 191.049 183.323 191.082 183.411 191.319L182.554 191.621C181.961 191.802 180.73 191.674 180.109 191.506C179.926 191.957 179.072 191.695 178.749 191.343L178.785 190.946C179.305 190.505 179.448 190.349 179.878 189.82Z" fill="#88CADB"/>
<path d="M180.109 191.506C180.901 190.476 181.844 190.434 182.975 190.852L183.038 190.861C183.236 191.049 183.323 191.082 183.411 191.319L182.554 191.621C181.961 191.802 180.73 191.674 180.109 191.506Z" fill="#572006"/>
<path d="M179.857 189.757C180.303 189.682 180.634 189.441 181.028 189.21C182.353 189.092 182.426 189.189 183.6 189.793L183.694 189.842C184.055 189.735 184.72 189.514 185.069 189.492C185.11 189.806 185.123 189.785 185.331 190.034L185.239 190.325C184.854 190.791 184.022 191.289 183.411 191.319C183.323 191.082 183.236 191.049 183.038 190.861L182.975 190.852C182.658 189.267 180.66 190.429 179.994 190.168L179.878 189.82L179.857 189.757Z" fill="#ABE8F2"/>
<path d="M183.038 190.861C183.677 190.668 184.708 190.198 185.239 190.325C184.854 190.791 184.022 191.289 183.411 191.319C183.323 191.082 183.236 191.049 183.038 190.861Z" fill="#88CADB"/>
<path d="M179.857 189.757C179.318 189.566 178.964 189.287 178.818 188.732C178.957 187.257 181.776 186.839 181.028 189.21C180.634 189.441 180.303 189.682 179.857 189.757Z" fill="#FDFEFE"/>
<path d="M180.737 183.344C181.701 183.709 183.966 183.885 184.373 184.554C184.447 185.202 184.152 185.548 183.781 186.068C181.719 187.521 180.135 185.646 180.737 183.344Z" fill="#FDFEFE"/>
<path d="M157.258 180.497C157.087 180.051 156.9 179.732 156.984 179.277C157.249 178.917 157.078 179.028 157.505 178.92C159.353 179.5 157.999 181.717 157.078 182.602C159.852 185.902 159.812 188.801 157.458 192.288C157.051 192.922 156.712 192.861 155.998 192.966C155.26 192.327 155.162 192.269 154.189 192.257L154.062 192.296C153.567 191.967 153.491 191.892 153.092 191.465C152.564 191.166 152.465 191.128 151.882 190.947C151.391 191.086 150.888 191.219 150.409 191.389C149.049 190.665 149.093 187.436 149.189 186.156C148.581 186.17 147.671 186.231 147.195 185.818C147.204 185.124 148.502 184.943 149.066 184.82C152.02 184.174 155.292 182.939 157.258 180.497Z" fill="#572006"/>
<path d="M153.795 191.003C154.246 190.933 154.744 190.843 155.193 190.792C156.339 191.125 156.664 191.388 157.458 192.288C157.051 192.922 156.712 192.861 155.998 192.966C155.26 192.327 155.162 192.269 154.189 192.257L154.062 192.296C153.567 191.967 153.491 191.892 153.092 191.465C153.393 191.367 153.551 191.203 153.795 191.003Z" fill="#88CADB"/>
<path d="M153.795 191.003C154.246 190.933 154.744 190.843 155.193 190.792C155.209 191.245 155.288 191.617 155.05 191.977C154.718 192.211 154.609 192.195 154.189 192.257L154.062 192.296C153.567 191.967 153.491 191.892 153.092 191.465C153.393 191.367 153.551 191.203 153.795 191.003Z" fill="#ABE8F2"/>
<path d="M151.882 190.947C151.622 190.149 151.504 189.19 152.569 188.919C152.904 188.832 153.259 188.896 153.541 189.095C154.205 189.559 154.009 190.367 153.795 191.003C153.551 191.203 153.393 191.367 153.092 191.465C152.564 191.166 152.465 191.128 151.882 190.947Z" fill="#FDFEFE"/>
<path d="M155.844 183.739C156.605 184.005 157.229 184.838 157.277 185.636C157.31 186.229 157.104 186.81 156.704 187.253C156.157 187.862 155.644 187.904 154.895 187.941C153.932 187.696 152.949 186.387 153.235 185.448C153.41 184.876 155.299 184.027 155.844 183.739Z" fill="#FDFEFE"/>
<path d="M184.259 203.364C185.724 202.305 186.697 201.922 188.496 201.995C189.413 202.197 189.653 202.277 190.374 202.867C192.273 204.423 193.427 207.694 191.195 209.49C191.029 209.624 190.129 209.782 189.877 209.89C188.196 209.761 187.311 211.655 185.768 212.365C184.708 211.791 184.402 211.984 183.333 210.883C182.479 210.012 182.017 208.836 182.052 207.623C182.093 205.721 182.953 204.611 184.259 203.364Z" fill="#8E4B1F"/>
<path d="M189.973 203.936C190.357 203.882 190.43 203.851 190.797 203.938C191.67 204.68 192.078 205.297 191.524 206.374C190.091 206.432 189.281 205.079 189.973 203.936Z" fill="#A25925"/>
<path d="M133.886 204.206C135.178 203.144 136.955 202.871 138.51 203.496C140.066 204.121 141.149 205.541 141.328 207.194C141.508 208.847 140.755 210.463 139.369 211.401C137.359 212.76 134.625 212.316 133.159 210.393C131.694 208.469 132.014 205.745 133.886 204.206Z" fill="#995120"/>
<path d="M139.369 211.401C137.359 212.76 134.625 212.316 133.159 210.393C131.694 208.469 132.014 205.745 133.886 204.206C134.264 204.474 135.439 206.579 135.817 207.21C136.739 208.755 138.397 210.057 139.369 211.401Z" fill="#83461D"/>
<path d="M168.039 189.976C168.347 189.953 168.655 189.936 168.964 189.925C170.379 189.88 171.437 190.346 172.536 191.3C173.613 192.234 174.753 194.754 173.449 195.917C172.279 196.962 170.65 195.708 169.191 195.627L169.043 195.62C167.458 195.879 167.231 196.528 166.059 196.897C163.261 197.781 163.275 194.308 164.289 192.757C165.372 191.101 166.245 190.481 168.039 189.976Z" fill="#572006"/>
<path d="M165.973 192.883C166.247 192.859 166.522 192.851 166.797 192.858C168.337 192.9 169.19 193.394 170.218 194.461C169.166 194.477 168.596 194.573 167.599 194.882C166.76 195.229 165.769 196.231 164.953 196.053C164.041 195.186 164.65 193.281 165.973 192.883Z" fill="#E05028"/>
<path d="M185.069 189.492L185.685 189.618C186.69 190.965 187.657 191.138 188.116 193.053C188.589 195.022 187.6 196.401 187.764 198.322C187.873 199.375 189 200.954 188.857 201.915C188.654 201.987 188.696 202 188.496 201.995C186.697 201.922 185.724 202.305 184.259 203.364C184.54 200.452 183.755 200.347 183.362 197.689C183.076 195.758 184.927 193.406 182.554 191.621L183.411 191.319C184.022 191.289 184.854 190.791 185.239 190.325L185.331 190.034C185.123 189.785 185.11 189.806 185.069 189.492Z" fill="#ABE8F2"/>
<path d="M140.241 172.331C140.034 171.095 140.632 169.661 141.22 168.669C142.324 166.807 145.563 166.81 147.107 168.113C150.653 171.106 145.941 174.984 142.669 174.886C141.219 174.528 140.483 173.787 140.241 172.331Z" fill="#995120"/>
<path d="M140.241 172.331L140.482 172.274C141.123 173.082 142.633 173.939 142.669 174.886C141.219 174.528 140.483 173.787 140.241 172.331Z" fill="#83461D"/>
<path d="M151.083 225.274C151.36 225.25 152.217 225.333 152.591 225.345C153.726 225.379 154.582 225.309 155.701 225.154C155.965 225.384 156.251 225.622 156.491 225.874C157.449 227.607 157.857 229.296 156.576 231.032C156.275 231.373 155.774 231.826 155.385 232.056C154.566 232.545 153.585 232.694 152.656 232.472C151.502 232.197 150.51 231.47 149.906 230.458C149.27 229.384 149.217 228.384 149.513 227.209C149.996 226.179 150.18 225.98 151.083 225.274Z" fill="#995120"/>
<path d="M149.513 227.209C150.072 227.193 150.54 227.114 151.004 227.379C152.348 228.146 153.521 229.12 154.812 229.984C155.348 230.343 156.285 230.681 156.576 231.032C156.275 231.373 155.774 231.826 155.385 232.056C154.566 232.545 153.585 232.694 152.656 232.472C151.502 232.197 150.51 231.47 149.906 230.458C149.27 229.384 149.217 228.384 149.513 227.209Z" fill="#83461D"/>
<path d="M176.473 226.565C179.539 226.15 181.13 229.37 178.158 230.723C177.052 230.929 175.847 230.781 175.23 229.723C174.954 229.251 174.884 228.689 175.036 228.166C175.277 227.325 175.779 226.98 176.473 226.565Z" fill="#995120"/>
<path d="M147.064 189.278C147.391 189.334 147.255 189.265 147.492 189.478C147.393 190.261 145.408 192.998 144.555 193.391C143.877 193.703 143.596 193.669 142.923 193.499C142.212 192.981 141.654 192.047 142.274 191.258C143.305 189.947 145.519 189.527 147.064 189.278Z" fill="#ABE8F2"/>
<path d="M144.041 190.723C144.417 190.854 144.539 190.972 144.644 191.335C144.524 191.925 144.095 192.292 143.608 192.623C143.221 192.428 143.17 192.398 142.88 192.08C142.693 191.252 143.389 191.026 144.041 190.723Z" fill="#DFF2F0"/>
<path d="M187.77 187.026C189.396 187.194 195.138 187.796 192.77 190.693C190.463 191.822 188.926 189.212 187.755 187.627C187.588 187.401 187.695 187.263 187.77 187.026Z" fill="#ABE8F2"/>
<path d="M191.492 190.03C190.966 189.712 190.263 189.346 190.559 188.681C190.947 188.388 191.276 188.424 191.774 188.389C192.354 188.803 192.736 189.088 192.316 189.771C191.942 189.983 191.927 189.985 191.492 190.03Z" fill="#FDFEFE"/>
<path d="M191.492 190.03C190.966 189.712 190.263 189.346 190.559 188.681C190.947 188.388 191.276 188.424 191.774 188.389C191.305 188.955 191.305 189.322 191.492 190.03Z" fill="#DFF2F0"/>
<path d="M158.599 194.583C161.649 194.861 158.109 198.65 156.096 198.783C155.415 198.36 154.702 197.749 154.8 196.889C155.392 195.937 156.463 195.969 157.33 195.719C157.455 195.683 157.902 194.983 158.599 194.583Z" fill="#E39F44"/>
<path d="M198.184 187.861C198.28 187.856 198.377 187.853 198.474 187.851C200.1 187.823 201.212 189.034 199.737 190.375C198.112 190.511 196.638 189.281 198.184 187.861Z" fill="#E39F44"/>
<path d="M170.859 155.948C171.3 155.809 171.783 155.918 172.12 156.232C172.457 156.546 172.596 157.017 172.481 157.461C172.367 157.906 172.018 158.254 171.57 158.37C170.902 158.544 170.216 158.159 170.023 157.502C169.83 156.846 170.201 156.156 170.859 155.948Z" fill="#E39F44"/>
<path d="M198.307 209.951C198.989 209.791 199.671 210.209 199.83 210.884C199.99 211.559 199.565 212.234 198.882 212.389C198.203 212.544 197.525 212.126 197.366 211.454C197.208 210.782 197.629 210.109 198.307 209.951Z" fill="#E39F44"/>
<path d="M173.101 198.891C173.725 198.648 174.431 198.945 174.686 199.559C174.942 200.173 174.652 200.876 174.035 201.138C173.629 201.311 173.159 201.253 172.807 200.988C172.455 200.722 172.275 200.289 172.336 199.855C172.396 199.42 172.689 199.052 173.101 198.891Z" fill="#E39F44"/>
<path d="M178.642 200.931C179.265 200.808 179.871 201.208 179.996 201.824C180.121 202.44 179.718 203.041 179.096 203.165C178.472 203.29 177.864 202.891 177.739 202.273C177.614 201.656 178.018 201.055 178.642 200.931Z" fill="#E39F44"/>
<path d="M187.486 228.918C187.942 228.924 188.451 228.893 188.578 229.389C188.4 229.762 187.566 230.204 187.179 230.419C187.463 230.554 187.455 230.487 187.841 230.423L187.899 230.254L187.993 230.358C187.751 230.881 186.904 231.056 186.668 230.445C186.796 229.593 186.875 229.471 187.486 228.918Z" fill="#E39F44"/>
<path d="M143.256 232.982C143.82 233.171 145.462 233.679 145.878 233.975C149.298 236.406 151.782 237.623 155.888 238.609L154.741 243.45C154.438 244.768 153.901 247.372 153.409 248.558C152.188 249.464 149.994 249.988 148.508 250.121C147.41 250.22 144.319 250.442 144.024 248.99C143.814 247.955 145.158 246.855 145.73 246.064L145.803 245.963C145.515 243.977 144.381 239.763 143.867 237.631L143.658 236.722C143.456 235.369 143.347 234.348 143.256 232.982Z" fill="#F3BE5E"/>
<path d="M143.256 232.982C143.82 233.171 145.462 233.679 145.878 233.975C149.298 236.406 151.782 237.623 155.888 238.609L154.741 243.45C154.16 239.094 152.374 240.207 149.076 238.67C147.655 238.008 146.267 236.893 144.824 236.358C144.592 236.642 143.984 237.343 143.867 237.631L143.658 236.722C143.456 235.369 143.347 234.348 143.256 232.982Z" fill="#E39F44"/>
<path d="M143.658 236.722C143.688 236.526 143.728 236.344 143.768 236.151L143.943 236.051C144.273 236.212 144.463 236.286 144.824 236.358C144.592 236.642 143.984 237.343 143.867 237.631L143.658 236.722Z" fill="#E39F44"/>
<path d="M175.438 238.501C177.859 238.093 180.031 237.545 182.197 236.319C184.047 235.271 185.628 234.17 187.578 233.3C187.447 234.374 187.337 235.234 187.116 236.296C186.563 238.96 185.323 242.528 184.48 245.196C184.983 245.78 187.257 247.716 186.187 248.51C185.622 248.928 183.8 248.944 183.058 248.92C181.462 248.96 178.473 248.626 177.077 247.793C176.271 247.313 176.169 244.055 176.056 242.99C175.902 241.486 175.696 239.989 175.438 238.501Z" fill="#F3BE5E"/>
<path d="M175.438 238.501C177.859 238.093 180.031 237.545 182.197 236.319C184.047 235.271 185.628 234.17 187.578 233.3C187.447 234.374 187.337 235.234 187.116 236.296L186.871 236.183C185.709 236.733 184.414 237.552 183.245 238.157C182.07 238.764 179.652 239.509 178.762 240.263C177.432 241.389 178.011 245.722 178.549 246.985C179.776 248.108 181.45 248.565 183.058 248.92C181.462 248.96 178.473 248.626 177.077 247.793C176.271 247.313 176.169 244.055 176.056 242.99C175.902 241.486 175.696 239.989 175.438 238.501Z" fill="#E39F44"/>
</svg>
