<svg preserveAspectRatio="none" width="100%" height="100%" overflow="visible" style="display: block;" viewBox="0 0 87 93.5443" fill="none" xmlns="http://www.w3.org/2000/svg">
<g id="Vector">
<path d="M39.7617 0.971267C39.951 0.917634 40.1413 0.866683 40.3324 0.818199C42.8561 0.177714 47.7433 -0.464381 50.1829 0.469368C53.5742 1.76718 57.1662 2.07653 60.5467 3.2881C61.4063 3.59606 62.357 4.52541 63.1935 4.87016C64.5589 5.43299 66.0953 5.66586 67.3975 6.36384C68.8136 7.13261 69.8556 8.28218 71.0638 9.31054C71.9055 10.0271 73.0827 10.7308 73.8783 11.4541C75.7125 13.1216 77.7818 15.342 79.1864 17.3287C79.9373 18.3908 80.0422 20.2425 80.7733 21.3116C81.1725 21.8948 81.9084 22.6541 82.3853 23.2215C83.5593 24.6171 84.0585 25.9914 84.7026 27.5889C85.4785 29.5107 85.0723 31.0416 85.3855 32.9148C85.6575 34.0393 86.2168 35.1133 86.5453 36.2284C87.5227 39.5449 86.6313 42.8394 86.5583 46.1703C86.5159 48.1132 87.266 50.1335 86.8939 52.1318C86.5595 53.9296 85.8836 55.1878 84.9086 56.7335C83.4651 58.6461 82.6526 59.8711 81.4987 61.9467C80.9052 63.0172 79.7695 65.0209 79.0451 65.9445C77.899 67.3175 76.7559 67.7766 75.4987 68.9522C74.9722 69.4456 74.0335 70.7103 73.563 71.3035C71.5066 73.8961 70.0452 74.8926 66.9685 76.1959C66.893 80.1314 65.3776 83.5822 64.1295 87.3172C66.0768 89.057 67.5554 91.4984 63.4699 92.23C60.8253 92.7041 56.426 92.1763 54.0828 91.0157C52.8737 90.4172 52.7464 87.1595 52.5958 85.9613C52.4113 84.5197 52.198 83.0823 51.9563 81.6493C49.3304 81.7758 47.305 81.7962 44.6692 81.7276C43.5749 81.6997 41.5509 81.971 40.3271 81.9968C38.4118 82.0376 37.2023 81.9367 35.2801 81.7587C34.74 83.8911 33.6626 90.134 32.4607 91.566C31.4986 92.7127 29.2583 93.1181 27.7996 93.3284C25.9024 93.6008 23.1583 93.8153 21.5253 92.6655C20.9695 92.2739 20.6089 91.7365 20.5604 91.0919C20.4644 89.8176 21.4459 88.8114 22.308 87.9286C21.2109 84.4586 19.8076 79.3409 19.9684 75.7882C16.7978 73.9797 11.9038 70.75 10.0057 67.7776C9.29654 66.6674 9.10414 64.9126 8.3595 63.8056C7.52031 62.5709 5.85982 61.7053 5.10671 60.4192C2.93743 56.7153 2.10648 52.8548 1.87463 48.7054C1.69448 45.479 0.280906 42.0601 0.0123215 38.8421C-0.11308 37.3403 0.755668 35.9182 0.943241 34.4515C1.16072 32.1471 0.691257 29.804 1.43578 27.5424C2.17041 24.9039 3.79781 23.9357 5.31253 21.8395C5.55898 21.4985 5.86759 19.8875 6.02761 19.3699C6.90119 16.5443 9.12333 14.6318 11.5145 12.8203C12.9797 11.6734 13.5269 9.90802 15.3724 8.53887C18.7411 6.03969 21.698 5.87514 25.528 4.59535C26.8712 4.14655 28.9066 2.67411 30.2966 1.99898C33.6183 0.385595 36.2016 0.0481369 39.7617 0.971267Z" fill="#572006"/>
<path d="M41.0139 2.12261C43.3642 1.54616 47.7726 0.96242 49.9589 1.90303C53.2914 3.33675 56.9521 3.38438 60.2013 4.8314C60.9958 5.18527 61.8489 5.93516 62.6884 6.27798C63.9154 6.78953 65.605 7.08677 66.7497 7.74313C67.9277 8.41869 69.0866 9.57502 70.1235 10.4698C71.0142 11.2384 72.1779 11.9497 73.0231 12.6838C74.6039 14.0569 76.4401 16.0525 77.6459 17.7089C78.453 18.8174 78.5469 20.6927 79.2984 21.838C79.7447 22.5183 80.4083 23.193 80.9369 23.8357C82.1567 25.3206 82.7973 26.602 83.3637 28.3448C83.8982 29.9867 83.5803 31.3742 83.8146 32.7853C84.0654 34.2975 85.1028 35.7955 85.336 37.582C85.7445 40.2216 85.2076 42.8249 84.9792 45.4449C84.865 46.7554 85.2441 48.4898 85.4231 49.8176C85.7104 51.9559 85.0428 53.7848 83.8394 55.6319C83.8052 55.6855 83.7699 55.7381 83.7334 55.7896C82.4346 57.4693 81.8306 58.3124 80.7791 60.0963C79.978 61.4564 78.4956 64.3236 77.5053 65.3437L77.4877 65.4327C76.6601 66.2147 74.8228 67.4011 74.2903 67.9964C72.5143 69.9819 72.0232 71.2069 69.7785 72.9918C67.4603 74.8346 65.55 74.9011 63.3484 75.9974C60.107 77.6128 58.8487 78.9086 54.8774 79.6938C51.3214 80.3963 48.3523 80.2751 44.7419 80.2987C43.2801 80.3073 41.4995 80.524 39.9688 80.5637C35.7637 80.6785 31.5993 79.7839 27.8935 77.97C26.6275 77.3414 25.6574 76.3642 24.5685 75.8536C23.2614 75.2401 21.6292 75.1779 20.2405 74.2854C19.294 73.6772 18.4684 73.1076 17.5519 72.4415C15.3508 70.8422 12.7751 69.5979 11.473 67.2219C10.7878 65.9712 10.5694 64.3848 9.8801 63.3024C8.83273 61.6591 7.09241 60.9362 6.08154 59.0569C4.9355 56.9255 3.9503 54.2546 3.67065 51.8915C3.51204 50.551 3.53747 49.342 3.33659 47.9391C2.97946 45.4456 2.57029 43.1899 1.88217 40.7473C1.68164 40.0353 1.55035 39.2427 1.57472 38.5009C1.61476 37.2855 2.41286 35.8078 2.56452 34.6792C2.96851 31.6735 2.08893 29.581 3.46152 26.6247C4.31591 24.7849 6.36696 23.6523 6.84208 22.4513C7.56246 20.6307 6.97678 19.9172 8.44381 17.8809C10.0024 15.7175 11.3354 15.1025 13.2081 13.3383C14.1731 12.4292 14.835 10.9632 16.0454 9.88533C19.1485 7.12174 23.4718 7.08237 26.8746 5.61444C29.4814 4.48986 30.9462 2.72534 34.3826 2.05686C37.4184 1.46636 38.4115 2.64413 41.0139 2.12261Z" fill="#F3BE5E"/>
<path d="M41.0139 2.12261C43.3642 1.54616 47.7726 0.96242 49.9589 1.90303C53.2914 3.33675 56.9521 3.38438 60.2013 4.8314C60.9958 5.18527 61.8489 5.93516 62.6884 6.27798C63.9154 6.78953 65.605 7.08677 66.7497 7.74313C67.9277 8.41869 69.0866 9.57502 70.1235 10.4698C71.0142 11.2384 72.1779 11.9497 73.0231 12.6838C74.6039 14.0569 76.4401 16.0525 77.6459 17.7089C78.453 18.8174 78.5469 20.6927 79.2984 21.838C79.7447 22.5183 80.4083 23.193 80.9369 23.8357C82.1567 25.3206 82.7973 26.602 83.3637 28.3448C83.8982 29.9867 83.5803 31.3742 83.8146 32.7853C84.0654 34.2975 85.1028 35.7955 85.336 37.582C85.7445 40.2216 85.2076 42.8249 84.9792 45.4449C84.865 46.7554 85.2441 48.4898 85.4231 49.8176C85.7104 51.9559 85.0428 53.7848 83.8394 55.6319C83.8052 55.6855 83.7699 55.7381 83.7334 55.7896C82.4346 57.4693 81.8306 58.3124 80.7791 60.0963C79.978 61.4564 78.4956 64.3236 77.5053 65.3437C77.1162 64.9404 77.9419 63.5234 78.1417 62.9871C80.104 57.7278 83.684 54.2803 83.1118 48.4229L82.9646 48.6409L82.7974 48.6311L82.9811 48.2317C83.3697 47.0932 83.2519 46.5151 82.7997 45.416C82.9293 43.9487 83.2566 42.5889 83.2743 41.0771C83.3002 38.7386 82.8151 36.8471 82.3052 34.5942C82.0756 33.5763 82.1345 32.3584 81.7647 31.2625C81.3208 29.9488 80.8016 28.5511 80.2247 27.2862C79.7337 26.3491 79.7333 26.2033 78.8181 25.5729C77.5548 23.7195 77.2131 21.9482 75.962 20.0805C74.8464 18.4149 73.7262 17.558 72.3333 16.166C71.6002 15.4673 70.9291 14.3778 70.1678 13.7294C68.4984 12.3075 66.8202 10.7388 65.1002 9.38247C64.1308 8.68106 62.618 8.55481 61.5895 8.08327C57.9045 6.39405 54.3516 5.18216 50.3357 4.34012C47.8699 3.82299 45.3272 2.87272 42.7857 2.52925C42.226 2.45352 41.717 2.46983 41.1569 2.35237L41.0139 2.12261Z" fill="#F9D799"/>
<path d="M79.3091 44.1697C80.8757 43.9839 81.906 44.0452 82.7997 45.416C83.2519 46.5151 83.3697 47.0932 82.9811 48.2317L82.7974 48.6311C82.682 48.7098 82.2215 49.2081 82.0743 49.3512C80.6119 50.7694 78.0213 50.9657 76.9735 48.8727C76.5522 48.0509 76.519 47.1077 76.8815 46.263C77.3765 45.1196 78.1338 44.6449 79.3091 44.1697Z" fill="#83461D"/>
<path d="M79.3091 44.1697C80.8757 43.9839 81.906 44.0452 82.7997 45.416C83.2519 46.5151 83.3697 47.0932 82.9811 48.2317C82.9057 46.4329 79.938 45.3849 79.3091 44.1697Z" fill="#A25925"/>
<path d="M80.2247 27.2862C80.2539 28.4996 80.3368 29.7476 79.0549 30.4678C78.0278 31.0448 77.0795 30.3863 76.5402 29.5893C75.8011 28.4969 75.5629 26.3694 76.9838 25.6484C77.621 25.3273 78.1467 25.4052 78.8181 25.5729C79.7333 26.2033 79.7337 26.3491 80.2247 27.2862Z" fill="#A25925"/>
<path d="M39.3345 52.9524C39.0731 52.8805 38.6991 52.9599 38.4903 52.8752C37.7362 52.5673 37.659 51.7714 38.1294 51.2093C38.3505 50.9433 38.6875 50.7792 39.0524 50.7588C39.9467 50.7127 39.938 51.1171 40.4567 51.5397L40.5808 51.6394C42.7348 50.7953 44.4472 51.4324 46.457 52.3453C50.4675 50.5585 54.729 50.6998 53.4258 55.9558C56.6163 57.3632 60.2924 58.8981 63.7679 57.3921C65.3115 56.7389 66.1964 54.9958 67.8767 55.1149C64.4439 60.7871 59.0016 59.8249 53.5381 57.4715C52.8344 59.2746 51.8062 61.303 50.4281 62.7608C51.3353 63.6178 52.0156 63.9235 53.1919 64.4738C58.0367 66.7382 63.2802 66.8669 68.5501 66.0281C69.2612 65.9144 69.9846 65.5111 70.6981 65.4371C71.206 65.1528 72.4211 64.3794 72.9099 64.2668L73.0229 64.4406C72.6506 65.4306 69.5575 67.1394 68.4786 67.6253C68.1381 67.7765 67.794 67.9203 67.4465 68.0576C66.1215 69.5057 62.865 69.9841 60.9256 70.1771C57.2518 70.5418 54.0589 69.5142 50.8282 68.0576C49.5859 67.4976 48.4275 66.8583 47.0986 66.4647C44.0756 67.6253 41.7573 68.6143 38.4929 69.2343C37.0382 69.511 35.8851 69.6054 34.4911 69.8242C34.251 69.5925 33.965 69.3737 33.7013 69.1613C32.582 69.304 31.7261 69.3684 30.5907 69.3372C30.2168 69.3265 29.3604 69.2504 29.0829 69.2718C26.8593 68.9876 24.6573 68.4137 22.7047 67.3861C21.8066 66.913 20.0103 65.8651 19.5718 64.9705L19.6781 64.8514L20.0533 64.9211C20.7723 65.0059 22.9163 65.6913 23.7806 65.9358C29.3601 67.5148 37.3454 66.0978 42.3888 63.6114C45.7481 61.9552 51.2437 57.2076 52.3057 53.7065C51.2321 51.8593 48.9308 52.5845 47.3358 53.4072C43.5422 55.3669 39.997 57.6656 35.7864 58.867C33.7151 59.4656 31.4965 59.9644 29.3321 59.3787C27.9336 59.0075 25.4062 57.3975 25.0765 56.0395L25.1931 55.8636C25.7124 55.8282 25.957 56.0813 26.3454 56.3838C26.4648 56.4771 26.5836 56.5715 26.7014 56.667C28.3068 57.7783 29.3902 58.2041 31.4083 58.3189C34.3785 58.187 36.8075 57.1465 39.4545 56.047C39.0702 54.8242 38.9745 54.1816 39.3345 52.9524Z" fill="#572006"/>
<path d="M46.4867 63.945C52.6687 68.0018 59.9336 70.3423 67.4465 68.0576C66.1215 69.5057 62.865 69.9841 60.9256 70.1771C57.2518 70.5418 54.0589 69.5142 50.8282 68.0576C49.5859 67.4976 48.4275 66.8583 47.0986 66.4647C44.0756 67.6253 41.7573 68.6143 38.4929 69.2343C37.0382 69.511 35.8851 69.6054 34.4911 69.8242C34.251 69.5925 33.965 69.3737 33.7013 69.1613C37.9846 68.507 43.1317 66.4732 46.4867 63.945Z" fill="var(--fill-0, #E39F44)"/>
<path d="M52.3057 53.7065C52.404 56.0481 50.4706 58.5558 48.786 60.2377C44.5869 64.4297 37.5386 67.6927 31.322 68.0724C28.0838 68.2698 22.5315 66.8775 20.0534 64.921C20.7725 65.0057 22.9165 65.6911 23.7807 65.9357C29.3602 67.5147 37.3454 66.0978 42.3888 63.6114C45.7481 61.9552 51.2437 57.2076 52.3057 53.7065Z" fill="var(--fill-0, #E39F44)"/>
<path d="M47.7265 63.016C49.9603 61.3373 51.4222 59.5298 52.8344 57.2633C53.1509 57.2215 53.1816 57.3084 53.5381 57.4715C52.8344 59.2746 51.8062 61.303 50.4281 62.7608C51.3353 63.6178 52.0156 63.9235 53.1919 64.4738C58.0367 66.7382 63.2802 66.8669 68.5501 66.0281C69.2612 65.9144 69.9846 65.5111 70.6981 65.4371C69.1514 66.5097 66.125 67.239 64.2269 67.5061C58.6348 68.2945 52.1843 66.1042 47.7265 63.016Z" fill="var(--fill-0, #E39F44)"/>
<path d="M39.3345 52.9524C39.0731 52.8805 38.6991 52.9599 38.4903 52.8752C37.7362 52.5673 37.659 51.7714 38.1294 51.2093C38.3505 50.9433 38.6875 50.7792 39.0524 50.7588C39.9467 50.7127 39.938 51.1171 40.4567 51.5397L40.5808 51.6394C40.0028 52.1114 39.7261 52.3184 39.3345 52.9524Z" fill="var(--fill-0, #E39F44)"/>
<path d="M41.8244 52.5415C43.275 52.5061 43.6251 52.6402 45.0056 53.1283C44.3595 53.5541 43.3107 54.0894 42.603 54.4756C42.1038 54.7469 41.4862 55.1181 40.9488 55.2736C40.0587 55.0269 40.5712 54.1645 40.712 53.538C40.8242 53.0392 41.3516 52.755 41.8244 52.5415Z" fill="#F3BE5E"/>
<path d="M9.73532 26.1655C13.4172 25.3943 16.1846 26.6166 17.0528 30.115C17.4076 31.4826 17.1367 32.923 16.3024 34.105C15.3315 35.4736 13.7965 36.4284 12.0437 36.7536C10.3037 37.0698 8.06353 37.0368 6.92737 35.6023C4.64164 33.3209 5.64662 28.5457 8.32363 26.8634C8.75518 26.5922 9.26268 26.3712 9.73532 26.1655Z" fill="#995120"/>
<path d="M6.92737 35.6023C4.64164 33.3209 5.64662 28.5457 8.32363 26.8634C8.75518 26.5922 9.26268 26.3712 9.73532 26.1655L9.9986 26.3641C9.91394 26.5505 9.99754 26.503 9.80373 26.5861C8.61306 27.0958 7.77104 28.5813 7.39919 29.6736L7.28439 29.6165C6.94468 29.4511 6.85719 29.3651 6.50713 29.4194C6.22665 29.7845 6.00422 30.7631 5.96007 31.2164C6.09901 31.2625 6.23678 31.3117 6.37313 31.3638L6.37431 31.5506L5.96466 31.5489C5.44162 32.2585 6.40045 34.4982 6.88086 35.2326L7.10717 35.5798L6.92737 35.6023Z" fill="#83461D"/>
<path d="M35.5192 3.84716C38.5784 3.29302 41.555 5.09208 42.1836 7.8752C42.8123 10.6583 40.8573 13.3819 37.8066 13.9732C34.7268 14.5701 31.7025 12.7686 31.0678 9.95906C30.4332 7.14955 32.431 4.40655 35.5192 3.84716Z" fill="#964F1F"/>
<path d="M58.2122 11.8835C60.0472 10.234 62.5499 9.98307 64.7821 11.1385C67.2614 12.815 68.726 16.2449 66.2464 18.444C64.906 19.7897 63.9896 19.6592 62.168 19.5794C60.5731 20.3221 58.1764 19.5404 56.8102 18.5618C54.3732 16.8161 54.2743 11.9678 58.2122 11.8835Z" fill="#83461D"/>
<path d="M58.2122 11.8835C60.0472 10.234 62.5499 9.98307 64.7821 11.1385C67.2614 12.815 68.726 16.2449 66.2464 18.444C65.8112 18.2131 64.6252 18.6646 64.5438 18.1997C64.2721 16.6452 64.009 16.3654 62.796 15.1795C62.2832 14.8912 61.597 14.1742 61.1948 13.7666C59.7124 13.4504 58.8481 13.445 57.7852 12.4678L58.2122 11.8835Z" fill="#A25925"/>
<path d="M58.2122 11.8835C60.0472 10.234 62.5499 9.98307 64.7821 11.1385C63.978 12.1504 62.4854 12.9125 61.6425 13.85C61.9448 14.4259 62.4591 14.6281 62.796 15.1795C62.2832 14.8912 61.597 14.1742 61.1948 13.7666C59.7124 13.4504 58.8481 13.445 57.7852 12.4678L58.2122 11.8835Z" fill="#995120"/>
<path d="M62.168 19.5794C60.5731 20.3221 58.1764 19.5404 56.8102 18.5618C54.3732 16.8161 54.2743 11.9678 58.2122 11.8835L57.7852 12.4678C56.3431 15.2853 57.8867 17.9888 60.8804 19.2126C61.291 19.3839 61.7236 19.5071 62.168 19.5794Z" fill="var(--fill-0, #E39F44)"/>
<path d="M29.8815 37.6826C30.4654 37.8487 30.5636 37.8835 31.0921 38.1584C31.4909 38.5519 31.5672 38.6205 32.0621 38.9233L32.1891 38.888C33.1616 38.8991 33.2597 38.9525 33.9975 39.54C33.6469 39.6401 33.0561 39.8328 32.7162 39.8676C31.7903 40.4759 31.0967 41.5141 30.9291 42.5448C30.6409 44.3174 31.7694 45.4991 31.9261 47.3494C32.0648 48.9874 30.5142 50.954 30.5874 52.0256C30.7791 54.8349 32.1189 55.1181 31.4083 58.3189C29.3902 58.2041 28.3068 57.7783 26.7014 56.667C27.5937 54.2396 26.2157 53.6539 26.379 51.3134C26.4872 49.8916 27.6182 48.6016 27.5342 47.1656C27.4628 45.9464 26.8192 44.9732 26.4788 43.7814C25.9844 42.0513 27.1787 40.5105 28.103 39.1058C28.0915 39.1235 28.1213 38.377 28.1236 38.3314L28.3726 38.1513L28.4086 38.0887C28.8881 37.9322 29.3907 37.8104 29.8815 37.6826Z" fill="#ABE8F2"/>
<path d="M29.8815 37.6826C30.4654 37.8487 30.5636 37.8835 31.0921 38.1584C31.4909 38.5519 31.5672 38.6205 32.0621 38.9233C31.3711 39.0528 30.9096 39.0902 30.3883 39.5406C29.723 38.9401 29.0071 39.6616 28.3726 38.1513L28.4086 38.0887C28.8881 37.9322 29.3907 37.8104 29.8815 37.6826Z" fill="#88CADB"/>
<path d="M32.1891 38.888C33.1616 38.8991 33.2597 38.9525 33.9975 39.54C33.6469 39.6401 33.0561 39.8328 32.7162 39.8676C31.9018 39.814 31.1488 39.8057 30.3883 39.5406C30.9096 39.0902 31.3711 39.0528 32.0621 38.9233L32.1891 38.888Z" fill="#572006"/>
<path d="M55.7679 29.4058C54.934 28.8435 53.0569 27.3537 54.2015 26.2148C54.4035 26.0138 54.7282 25.9217 55.0253 25.9416C55.2755 26.316 55.1681 26.8335 55.1419 27.3151C55.8889 28.5976 60.386 29.8145 61.9721 29.987C62.5915 30.0543 65.5608 30.3418 65.8603 30.5405C65.9052 31.2943 65.041 31.2598 64.3754 31.3435C64.7261 33.0516 64.7594 34.9475 63.6849 36.4588L63.0689 36.3433C63.1102 36.6321 63.1233 36.613 63.3307 36.8419L63.2391 37.1095C62.8539 37.5382 62.0223 37.9966 61.4105 38.0242L60.5545 38.3026C59.9608 38.4687 58.7298 38.3516 58.109 38.1964C57.9256 38.6116 57.0722 38.3706 56.7489 38.0462L56.7854 37.6813C54.2612 35.1551 53.765 32.3786 55.7679 29.4058Z" fill="#572006"/>
<path d="M57.8784 36.6447L57.9936 36.9648C58.6603 37.205 60.658 36.1364 60.9751 37.5943L61.0383 37.6025C61.2357 37.7761 61.3231 37.8066 61.4105 38.0242L60.5545 38.3026C59.9608 38.4687 58.7298 38.3516 58.109 38.1964C57.9256 38.6116 57.0722 38.3706 56.7489 38.0462L56.7854 37.6813C57.3046 37.2755 57.4484 37.1319 57.8784 36.6447Z" fill="#88CADB"/>
<path d="M58.109 38.1964C58.9008 37.2485 59.8438 37.2102 60.9751 37.5943L61.0383 37.6025C61.2357 37.7761 61.3231 37.8066 61.4105 38.0242L60.5545 38.3026C59.9608 38.4687 58.7298 38.3516 58.109 38.1964Z" fill="#572006"/>
<path d="M57.8574 36.587C58.3027 36.518 58.6337 36.2966 59.0285 36.0836C60.3526 35.9749 60.4264 36.0644 61.6004 36.6199L61.6938 36.665C62.0555 36.5671 62.7202 36.3634 63.0689 36.3433C63.1102 36.6321 63.1233 36.613 63.3307 36.8419L63.2391 37.1095C62.8539 37.5382 62.0223 37.9966 61.4105 38.0242C61.3231 37.8066 61.2357 37.7761 61.0383 37.6025L60.9751 37.5943C60.658 36.1364 58.6603 37.205 57.9936 36.9648L57.8784 36.6447L57.8574 36.587Z" fill="#ABE8F2"/>
<path d="M61.0383 37.6025C61.677 37.4256 62.7081 36.9928 63.2391 37.1095C62.8539 37.5382 62.0223 37.9966 61.4105 38.0242C61.3231 37.8066 61.2357 37.7761 61.0383 37.6025Z" fill="#88CADB"/>
<path d="M57.8574 36.587C57.3178 36.411 56.9645 36.1542 56.8185 35.6438C56.957 34.2865 59.7764 33.9013 59.0285 36.0836C58.6337 36.2966 58.3027 36.518 57.8574 36.587Z" fill="#FDFEFE"/>
<path d="M58.7365 30.6854C59.701 31.0216 61.9665 31.1834 62.3728 31.7985C62.4473 32.3954 62.1524 32.7135 61.7807 33.192C59.7195 34.5297 58.1353 32.8041 58.7365 30.6854Z" fill="#FDFEFE"/>
<path d="M35.2583 28.0653C35.0866 27.6545 34.8998 27.3609 34.9838 26.9427C35.2486 26.6111 35.0785 26.7139 35.5047 26.614C37.3531 27.1477 35.9993 29.1881 35.0775 30.0027C37.8519 33.0397 37.8115 35.7072 35.4581 38.9162C35.0509 39.4999 34.7117 39.4439 33.9975 39.54C33.2597 38.9525 33.1616 38.8991 32.1891 38.888L32.0621 38.9233C31.5672 38.6205 31.4909 38.5519 31.0921 38.1584C30.5636 37.8835 30.4654 37.8487 29.8815 37.6826C29.3907 37.8104 28.8881 37.9322 28.4086 38.0887C27.0494 37.4225 27.0932 34.4508 27.189 33.2735C26.5809 33.2858 25.6713 33.3423 25.1947 32.962C25.2042 32.3233 26.5024 32.1566 27.0659 32.0433C30.0198 31.4493 33.2916 30.3128 35.2583 28.0653Z" fill="#572006"/>
<path d="M31.7951 37.7336C32.2457 37.6691 32.7444 37.5868 33.1929 37.5395C34.3389 37.8462 34.664 38.0876 35.4581 38.9162C35.0509 39.4999 34.7117 39.4439 33.9975 39.54C33.2597 38.9525 33.1616 38.8991 32.1891 38.888L32.0621 38.9233C31.5672 38.6205 31.4909 38.5519 31.0921 38.1584C31.3928 38.069 31.551 37.9174 31.7951 37.7336Z" fill="#88CADB"/>
<path d="M31.7951 37.7336C32.2457 37.6691 32.7444 37.5868 33.1929 37.5395C33.2093 37.9567 33.2882 38.2988 33.0498 38.6297C32.7176 38.845 32.6087 38.8307 32.1891 38.888L32.0621 38.9233C31.5672 38.6205 31.4909 38.5519 31.0921 38.1584C31.3928 38.069 31.551 37.9174 31.7951 37.7336Z" fill="#ABE8F2"/>
<path d="M29.8815 37.6826C29.6221 36.9476 29.5036 36.0656 30.5693 35.8158C30.9035 35.7357 31.2595 35.795 31.541 35.9777C32.2049 36.4052 32.0094 37.148 31.7951 37.7336C31.551 37.9174 31.3928 38.069 31.0921 38.1584C30.5636 37.8835 30.4654 37.8487 29.8815 37.6826Z" fill="#FDFEFE"/>
<path d="M33.8442 31.0489C34.6052 31.2936 35.2288 32.0599 35.277 32.7944C35.31 33.3399 35.104 33.8752 34.704 34.2825C34.157 34.8434 33.6438 34.8816 32.8951 34.916C31.9321 34.69 30.9487 33.4853 31.2352 32.6212C31.4097 32.0952 33.2988 31.3137 33.8442 31.0489Z" fill="#FDFEFE"/>
<path d="M62.2592 49.109C63.7243 48.1347 64.6967 47.782 66.4961 47.8488C67.4134 48.0354 67.6533 48.1091 68.3736 48.6518C70.2733 50.0835 71.4273 53.0939 69.1954 54.7469C69.0289 54.8702 68.1287 55.0151 67.8767 55.1149C66.1964 54.9958 65.3115 56.7389 63.7679 57.3921C62.7082 56.8644 62.402 57.0413 61.3334 56.0287C60.4791 55.2274 60.017 54.1451 60.0523 53.0285C60.0926 51.2779 60.9534 50.2565 62.2592 49.109Z" fill="#8E4B1F"/>
<path d="M67.9733 49.6355C68.3575 49.5858 68.4304 49.5568 68.797 49.6376C69.6704 50.3197 70.0775 50.8876 69.5237 51.8787C68.0908 51.9323 67.2813 50.6875 67.9733 49.6355Z" fill="#A25925"/>
<path d="M11.886 49.8836C13.1777 48.9066 14.9546 48.6556 16.5104 49.2304C18.0662 49.8053 19.149 51.1128 19.3284 52.6338C19.5079 54.1549 18.7549 55.6416 17.3686 56.5051C15.3592 57.7558 12.6252 57.3471 11.1594 55.5772C9.69357 53.8073 10.0136 51.3005 11.886 49.8836Z" fill="#995120"/>
<path d="M17.3686 56.5051C15.3592 57.7558 12.6252 57.3471 11.1594 55.5772C9.69357 53.8073 10.0136 51.3005 11.886 49.8836C12.2645 50.1303 13.4394 52.0674 13.8166 52.6488C14.7393 54.0701 16.3973 55.2683 17.3686 56.5051Z" fill="#83461D"/>
<path d="M46.039 36.7884C46.347 36.7672 46.6554 36.7516 46.9639 36.7414C48.379 36.7004 49.4372 37.1292 50.5359 38.0068C51.6126 38.8669 52.7526 41.1854 51.4491 42.256C50.2786 43.2173 48.6498 42.0631 47.1908 41.9887L47.043 41.9821C45.4581 42.2212 45.2306 42.8177 44.0591 43.158C41.2613 43.971 41.2753 40.775 42.2893 39.3474C43.3716 37.8236 44.2453 37.2532 46.039 36.7884Z" fill="#572006"/>
<path d="M43.973 39.4637C44.247 39.4414 44.5223 39.4339 44.7973 39.4411C46.3373 39.4792 47.1901 39.9342 48.2183 40.916C47.1656 40.9302 46.5955 41.0193 45.5991 41.3038C44.76 41.6225 43.769 42.5445 42.9532 42.3812C42.0415 41.5831 42.6505 39.8302 43.973 39.4637Z" fill="#E05028"/>
<path d="M63.0689 36.3433L63.6849 36.4588C64.69 37.6988 65.6568 37.8576 66.1165 39.6199C66.5893 41.432 65.6002 42.7015 65.7636 44.4692C65.8733 45.4378 66.9996 46.8909 66.8565 47.7758C66.6544 47.8417 66.696 47.8536 66.4961 47.8488C64.6967 47.782 63.7243 48.1347 62.2592 49.109C62.5399 46.4295 61.7549 46.3327 61.3616 43.8862C61.076 42.1096 62.9271 39.9447 60.5545 38.3026L61.4105 38.0242C62.0223 37.9966 62.8539 37.5382 63.2391 37.1095L63.3307 36.8419C63.1233 36.613 63.1102 36.6321 63.0689 36.3433Z" fill="#ABE8F2"/>
<path d="M18.2407 20.5507C18.0338 19.4128 18.6318 18.0932 19.2201 17.1802C20.324 15.467 23.5625 15.4694 25.1069 16.669C28.6532 19.4233 23.9413 22.9922 20.6688 22.902C19.2194 22.5718 18.4835 21.8903 18.2407 20.5507Z" fill="#995120"/>
<path d="M18.2407 20.5507L18.4819 20.4978C19.1228 21.2415 20.6333 22.0307 20.6688 22.902C19.2194 22.5718 18.4835 21.8903 18.2407 20.5507Z" fill="#83461D"/>
<path d="M29.0829 69.2718C29.3604 69.2504 30.2168 69.3265 30.5907 69.3372C31.7261 69.3684 32.582 69.304 33.7013 69.1613C33.965 69.3737 34.251 69.5925 34.4911 69.8242C35.4491 71.4193 35.857 72.9736 34.5763 74.5708C34.2753 74.885 33.7737 75.3012 33.385 75.5136C32.5656 75.9631 31.5854 76.1004 30.6556 75.8966C29.5017 75.6434 28.5097 74.9741 27.906 74.043C27.2696 73.054 27.2165 72.1337 27.513 71.0524C27.9959 70.1053 28.1801 69.9218 29.0829 69.2718Z" fill="#995120"/>
<path d="M27.513 71.0524C28.0718 71.0385 28.5403 70.9655 29.0037 71.209C30.3476 71.9148 31.5208 72.8115 32.8116 73.6064C33.3481 73.9368 34.2851 74.2479 34.5763 74.5708C34.2753 74.885 33.7737 75.3012 33.385 75.5136C32.5656 75.9631 31.5854 76.1004 30.6556 75.8966C29.5017 75.6434 28.5097 74.9741 27.906 74.043C27.2696 73.054 27.2165 72.1337 27.513 71.0524Z" fill="#83461D"/>
<path d="M54.4728 70.4603C57.5392 70.0785 59.1296 73.0412 56.1575 74.2865C55.0521 74.4764 53.8473 74.3402 53.2296 73.3662C52.9541 72.9318 52.8842 72.4147 53.0365 71.9331C53.2767 71.1597 53.7795 70.8422 54.4728 70.4603Z" fill="#995120"/>
<path d="M25.0639 36.1463C25.3906 36.1978 25.255 36.1343 25.4918 36.3305C25.3932 37.0506 23.4082 39.5699 22.5555 39.931C21.8769 40.2185 21.5961 40.187 20.9229 40.0303C20.2124 39.5542 19.6537 38.694 20.2736 37.9687C21.3052 36.762 23.5187 36.375 25.0639 36.1463Z" fill="#ABE8F2"/>
<path d="M22.0409 37.4756C22.4166 37.5966 22.539 37.7054 22.6441 38.0393C22.5242 38.5818 22.0948 38.9197 21.608 39.2242C21.2207 39.0449 21.1698 39.0175 20.8798 38.7243C20.6933 37.9626 21.3888 37.7549 22.0409 37.4756Z" fill="#DFF2F0"/>
<path d="M65.7699 34.0738C67.3957 34.2283 73.1381 34.7826 70.7705 37.4481C68.4626 38.4871 66.9256 36.0851 65.7552 34.6267C65.588 34.4185 65.6952 34.2919 65.7699 34.0738Z" fill="#ABE8F2"/>
<path d="M69.4917 36.8381C68.9664 36.5455 68.2627 36.2085 68.5586 35.5964C68.9465 35.3275 69.2755 35.3607 69.7742 35.3279C70.354 35.709 70.736 35.9715 70.3161 36.5998C69.9418 36.7946 69.9266 36.7967 69.4917 36.8381Z" fill="#FDFEFE"/>
<path d="M69.4917 36.8381C68.9664 36.5455 68.2627 36.2085 68.5586 35.5964C68.9465 35.3275 69.2755 35.3607 69.7742 35.3279C69.3053 35.8494 69.305 36.1866 69.4917 36.8381Z" fill="#DFF2F0"/>
<path d="M36.599 41.0283C39.6487 41.2845 36.1088 44.7712 34.0962 44.8936C33.4147 44.5041 32.7019 43.9419 32.8002 43.1507C33.3922 42.2741 34.4631 42.3042 35.3304 42.074C35.4549 42.0409 35.9024 41.3963 36.599 41.0283Z" fill="var(--fill-0, #E39F44)"/>
<path d="M76.1837 34.8418C76.2804 34.8375 76.377 34.8344 76.4738 34.8326C78.1 34.8072 79.2116 35.9213 77.7371 37.1561C76.112 37.2808 74.6381 36.1487 76.1837 34.8418Z" fill="var(--fill-0, #E39F44)"/>
<path d="M48.859 5.47416C49.3002 5.34587 49.7831 5.44574 50.1202 5.73503C50.4573 6.02433 50.5955 6.45747 50.4813 6.86637C50.3671 7.27526 50.0183 7.59545 49.5704 7.70272C48.9022 7.86276 48.2157 7.50856 48.0228 6.90423C47.8298 6.29989 48.2008 5.66552 48.859 5.47416Z" fill="var(--fill-0, #E39F44)"/>
<path d="M76.3073 55.1705C76.9886 55.0236 77.6713 55.4087 77.8305 56.0297C77.9896 56.6508 77.5646 57.2719 76.8823 57.4145C76.2027 57.5572 75.5247 57.1721 75.3664 56.5543C75.2079 55.9353 75.6287 55.3164 76.3073 55.1705Z" fill="var(--fill-0, #E39F44)"/>
<path d="M51.1007 44.9931C51.7247 44.7688 52.4308 45.0423 52.6863 45.6074C52.9417 46.1724 52.652 46.8196 52.0354 47.0606C51.6286 47.2197 51.1591 47.1668 50.807 46.9222C50.4549 46.6776 50.2747 46.2791 50.3356 45.8795C50.3965 45.48 50.6889 45.1412 51.1007 44.9931Z" fill="var(--fill-0, #E39F44)"/>
<path d="M56.6418 46.8703C57.2647 46.7569 57.8706 47.1245 57.9958 47.6919C58.1209 48.2591 57.7181 48.8115 57.0956 48.9262C56.472 49.041 55.8644 48.6733 55.739 48.1052C55.6137 47.537 56.0181 46.9839 56.6418 46.8703Z" fill="var(--fill-0, #E39F44)"/>
<path d="M65.4859 72.6259C65.9419 72.6313 66.4509 72.6023 66.5779 73.0593C66.4004 73.4025 65.5658 73.8091 65.179 74.0064C65.4627 74.1309 65.4548 74.0697 65.8405 74.0107L65.8991 73.8552L65.9932 73.9507C65.7514 74.4323 64.9042 74.5932 64.6678 74.0311C64.7965 73.247 64.8752 73.1344 65.4859 72.6259Z" fill="var(--fill-0, #E39F44)"/>
<path d="M21.2556 76.3652C21.8199 76.539 23.4625 77.0067 23.8779 77.2791C27.2981 79.5167 29.7815 80.6365 33.8885 81.544L32.741 85.9988C32.4383 87.212 31.9007 89.6083 31.4093 90.6992C30.1878 91.5337 27.9944 92.0153 26.5081 92.1376C25.41 92.2288 22.3188 92.4336 22.0244 91.0971C21.8145 90.1446 23.1578 89.132 23.7303 88.4047L23.8025 88.3114C23.5149 86.4836 22.3809 82.6059 21.8669 80.6441L21.6583 79.8074C21.4558 78.562 21.3472 77.6224 21.2556 76.3652Z" fill="#F3BE5E"/>
<path d="M21.2556 76.3652C21.8199 76.539 23.4625 77.0067 23.8779 77.2791C27.2981 79.5167 29.7815 80.6365 33.8885 81.544L32.741 85.9988C32.1601 81.9903 30.3737 83.0146 27.0764 81.5998C25.6552 80.9905 24.2669 79.9651 22.8236 79.4727C22.5922 79.7334 21.9838 80.3791 21.8669 80.6441L21.6583 79.8074C21.4558 78.562 21.3472 77.6224 21.2556 76.3652Z" fill="var(--fill-0, #E39F44)"/>
<path d="M21.6583 79.8074C21.6875 79.6272 21.7279 79.4598 21.7681 79.2818L21.9428 79.1895C22.2729 79.3376 22.4629 79.4062 22.8236 79.4727C22.5922 79.7334 21.9838 80.3791 21.8669 80.6441L21.6583 79.8074Z" fill="var(--fill-0, #E39F44)"/>
<path d="M53.4375 81.4444C55.8595 81.0689 58.0313 80.5648 60.197 79.4364C62.0473 78.472 63.6283 77.4584 65.5784 76.6582C65.4467 77.6461 65.337 78.4377 65.1164 79.4149C64.5632 81.867 63.3234 85.1504 62.4795 87.6057C62.9835 88.1431 65.2572 89.9248 64.1868 90.6553C63.6217 91.0404 61.7998 91.0543 61.0581 91.0329C59.4625 91.0693 56.4731 90.7626 55.0769 89.9956C54.2708 89.5537 54.1694 86.5556 54.0558 85.5752C53.9021 84.1915 53.6959 82.8142 53.4375 81.4444Z" fill="#F3BE5E"/>
<path d="M53.4375 81.4444C55.8595 81.0689 58.0313 80.5648 60.197 79.4364C62.0473 78.472 63.6283 77.4584 65.5784 76.6582C65.4467 77.6461 65.337 78.4377 65.1164 79.4149L64.8715 79.3109C63.7088 79.8172 62.4137 80.5712 61.2452 81.1279C60.07 81.6868 57.6523 82.3722 56.7622 83.0662C55.4317 84.1024 56.0108 88.0895 56.5487 89.2523C57.7762 90.2852 59.4499 90.7057 61.0581 91.0329C59.4625 91.0693 56.4731 90.7626 55.0769 89.9956C54.2708 89.5537 54.1694 86.5556 54.0558 85.5752C53.9021 84.1915 53.6959 82.8142 53.4375 81.4444Z" fill="var(--fill-0, #E39F44)"/>
</g>
</svg>
