<svg preserveAspectRatio="none" width="100%" height="100%" overflow="visible" style="display: block;" viewBox="0 0 87 101.649" fill="none" xmlns="http://www.w3.org/2000/svg">
<g id="Vector">
<path d="M39.7617 1.05542C39.951 0.99714 40.1413 0.941774 40.3324 0.889089C42.8561 0.193112 47.7433 -0.504616 50.1829 0.510036C53.5742 1.92029 57.1662 2.25645 60.5467 3.57299C61.4063 3.90764 62.357 4.9175 63.1935 5.29213C64.5589 5.90372 66.0953 6.15677 67.3975 6.91522C68.8136 7.7506 69.8556 8.99977 71.0638 10.1172C71.9055 10.8958 73.0827 11.6606 73.8783 12.4466C75.7125 14.2585 77.7818 16.6713 79.1864 18.8301C79.9373 19.9842 80.0422 21.9964 80.7733 23.158C81.1725 23.7918 81.9084 24.6169 82.3853 25.2335C83.5593 26.7499 84.0585 28.2433 84.7026 29.9792C85.4785 32.0676 85.0723 33.7312 85.3855 35.7667C85.6575 36.9885 86.2168 38.1557 86.5453 39.3673C87.5227 42.9712 86.6313 46.5511 86.5583 50.1706C86.5159 52.2819 87.266 54.4772 86.8939 56.6487C86.5595 58.6022 85.8836 59.9695 84.9086 61.6491C83.4651 63.7273 82.6526 65.0584 81.4987 67.3139C80.9052 68.4771 79.7695 70.6545 79.0451 71.6581C77.899 73.15 76.7559 73.6489 75.4987 74.9264C74.9722 75.4626 74.0335 76.8368 73.563 77.4814C71.5066 80.2986 70.0452 81.3815 66.9685 82.7977C66.893 87.0742 65.3776 90.824 64.1295 94.8826C66.0768 96.7732 67.5554 99.4261 63.4699 100.221C60.8253 100.736 56.426 100.163 54.0828 98.9015C52.8737 98.2511 52.7464 94.7112 52.5958 93.4093C52.4113 91.8427 52.198 90.2808 51.9563 88.7236C49.3304 88.8611 47.305 88.8832 44.6692 88.8086C43.5749 88.7783 41.5509 89.0732 40.3271 89.1012C38.4118 89.1455 37.2023 89.0359 35.2801 88.8425C34.74 91.1597 33.6626 97.9434 32.4607 99.4995C31.4986 100.746 29.2583 101.186 27.7996 101.415C25.9024 101.711 23.1583 101.944 21.5253 100.694C20.9695 100.269 20.6089 99.6848 20.5604 98.9843C20.4644 97.5996 21.4459 96.5063 22.308 95.547C21.2109 91.7763 19.8076 86.2152 19.9684 82.3547C16.7978 80.3895 11.9038 76.8799 10.0057 73.6501C9.29654 72.4437 9.10414 70.5368 8.3595 69.3339C7.52031 67.9923 5.85982 67.0516 5.10671 65.6541C2.93743 61.6293 2.10648 57.4343 1.87463 52.9254C1.69448 49.4194 0.280906 45.7043 0.0123215 42.2075C-0.11308 40.5756 0.755668 39.0302 0.943241 37.4365C1.16072 34.9324 0.691257 32.3863 1.43578 29.9288C2.17041 27.0616 3.79781 26.0096 5.31253 23.7318C5.55898 23.3612 5.86759 21.6106 6.02761 21.0482C6.90119 17.9778 9.12333 15.8995 11.5145 13.9311C12.9797 12.6848 13.5269 10.7665 15.3724 9.2787C18.7411 6.56298 21.698 6.38417 25.528 4.9935C26.8712 4.50581 28.9066 2.9058 30.2966 2.17218C33.6183 0.419004 36.2016 0.0523076 39.7617 1.05542Z" fill="#572006"/>
<path d="M41.0139 2.30652C43.3642 1.68012 47.7726 1.04581 49.9589 2.06792C53.2914 3.62586 56.9521 3.67761 60.2013 5.25C60.9958 5.63453 61.8489 6.4494 62.6884 6.82192C63.9154 7.3778 65.605 7.70078 66.7497 8.41401C67.9277 9.1481 69.0866 10.4046 70.1235 11.377C71.0142 12.2121 72.1779 12.985 73.0231 13.7828C74.6039 15.2748 76.4401 17.4433 77.6459 19.2432C78.453 20.4478 78.5469 22.4856 79.2984 23.7301C79.7447 24.4693 80.4083 25.2025 80.9369 25.9009C82.1567 27.5144 82.7973 28.9068 83.3637 30.8007C83.8982 32.5849 83.5803 34.0926 83.8146 35.6259C84.0654 37.2692 85.1028 38.8969 85.336 40.8382C85.7445 43.7065 85.2076 46.5353 84.9792 49.3824C84.865 50.8064 85.2441 52.6911 85.4231 54.134C85.7104 56.4575 85.0428 58.4448 83.8394 60.452C83.8052 60.5102 83.7699 60.5674 83.7334 60.6233C82.4346 62.4486 81.8306 63.3648 80.7791 65.3032C79.978 66.7811 78.4956 69.8968 77.5053 71.0053L77.4877 71.102C76.6601 71.9517 74.8228 73.2409 74.2903 73.8878C72.5143 76.0453 72.0232 77.3764 69.7785 79.316C67.4603 81.3185 65.55 81.3907 63.3484 82.582C60.107 84.3374 58.8487 85.7454 54.8774 86.5986C51.3214 87.3621 48.3523 87.2304 44.7419 87.256C43.2801 87.2654 41.4995 87.5008 39.9688 87.5439C35.7637 87.6686 31.5993 86.6965 27.8935 84.7255C26.6275 84.0425 25.6574 82.9806 24.5685 82.4258C23.2614 81.7591 21.6292 81.6915 20.2405 80.7217C19.294 80.0608 18.4684 79.4419 17.5519 78.718C15.3508 76.9801 12.7751 75.628 11.473 73.0462C10.7878 71.6872 10.5694 69.9632 9.8801 68.7871C8.83273 67.0014 7.09241 66.2158 6.08154 64.1737C4.9355 61.8577 3.9503 58.9553 3.67065 56.3875C3.51204 54.9309 3.53747 53.6171 3.33659 52.0927C2.97946 49.3831 2.57029 46.932 1.88217 44.2778C1.68164 43.5041 1.55035 42.6428 1.57472 41.8367C1.61476 40.5161 2.41286 38.9103 2.56452 37.6839C2.96851 34.4178 2.08893 32.1439 3.46152 28.9315C4.31591 26.9323 6.36696 25.7016 6.84208 24.3966C7.56246 22.4182 6.97678 21.6428 8.44381 19.4302C10.0024 17.0793 11.3354 16.4111 13.2081 14.494C14.1731 13.5062 14.835 11.9131 16.0454 10.7418C19.1485 7.73878 23.4718 7.69601 26.8746 6.10089C29.4814 4.87888 30.9462 2.96147 34.3826 2.23507C37.4184 1.59341 38.4115 2.87323 41.0139 2.30652Z" fill="#F3BE5E"/>
<path d="M41.0139 2.30652C43.3642 1.68012 47.7726 1.04581 49.9589 2.06792C53.2914 3.62586 56.9521 3.67761 60.2013 5.25C60.9958 5.63453 61.8489 6.4494 62.6884 6.82192C63.9154 7.3778 65.605 7.70078 66.7497 8.41401C67.9277 9.1481 69.0866 10.4046 70.1235 11.377C71.0142 12.2121 72.1779 12.985 73.0231 13.7828C74.6039 15.2748 76.4401 17.4433 77.6459 19.2432C78.453 20.4478 78.5469 22.4856 79.2984 23.7301C79.7447 24.4693 80.4083 25.2025 80.9369 25.9009C82.1567 27.5144 82.7973 28.9068 83.3637 30.8007C83.8982 32.5849 83.5803 34.0926 83.8146 35.6259C84.0654 37.2692 85.1028 38.8969 85.336 40.8382C85.7445 43.7065 85.2076 46.5353 84.9792 49.3824C84.865 50.8064 85.2441 52.6911 85.4231 54.134C85.7104 56.4575 85.0428 58.4448 83.8394 60.452C83.8052 60.5102 83.7699 60.5674 83.7334 60.6233C82.4346 62.4486 81.8306 63.3648 80.7791 65.3032C79.978 66.7811 78.4956 69.8968 77.5053 71.0053C77.1162 70.567 77.9419 69.0273 78.1417 68.4445C80.104 62.7295 83.684 58.9833 83.1118 52.6183L82.9646 52.8553L82.7974 52.8446L82.9811 52.4106C83.3697 51.1735 83.2519 50.5453 82.7997 49.3509C82.9293 47.7565 83.2566 46.2789 83.2743 44.6361C83.3002 42.095 82.8151 40.0397 82.3052 37.5916C82.0756 36.4854 82.1345 35.162 81.7647 33.9711C81.3208 32.5436 80.8016 31.0248 80.2247 29.6504C79.7337 28.6321 79.7333 28.4736 78.8181 27.7886C77.5548 25.7746 77.2131 23.8499 75.962 21.8204C74.8464 20.0104 73.7262 19.0792 72.3333 17.5666C71.6002 16.8075 70.9291 15.6236 70.1678 14.919C68.4984 13.3739 66.8202 11.6693 65.1002 10.1954C64.1308 9.43321 62.618 9.29602 61.5895 8.78362C57.9045 6.94804 54.3516 5.63115 50.3357 4.71616C47.8699 4.15422 45.3272 3.12162 42.7857 2.7484C42.226 2.6661 41.717 2.68382 41.1569 2.55619L41.0139 2.30652Z" fill="#F9D799"/>
<path d="M79.3091 47.9967C80.8757 47.7948 81.906 47.8614 82.7997 49.3509C83.2519 50.5453 83.3697 51.1735 82.9811 52.4106L82.7974 52.8446C82.682 52.9301 82.2215 53.4716 82.0743 53.6271C80.6119 55.1682 78.0213 55.3816 76.9735 53.1071C76.5522 52.2142 76.519 51.1893 76.8815 50.2713C77.3765 49.0289 78.1338 48.513 79.3091 47.9967Z" fill="#83461D"/>
<path d="M79.3091 47.9967C80.8757 47.7948 81.906 47.8614 82.7997 49.3509C83.2519 50.5453 83.3697 51.1735 82.9811 52.4106C82.9057 50.4559 79.938 49.3172 79.3091 47.9967Z" fill="#A25925"/>
<path d="M80.2247 29.6504C80.2539 30.9689 80.3368 32.325 79.0549 33.1076C78.0278 33.7346 77.0795 33.019 76.5402 32.153C75.8011 30.9659 75.5629 28.6541 76.9838 27.8707C77.621 27.5217 78.1467 27.6064 78.8181 27.7886C79.7333 28.4736 79.7337 28.6321 80.2247 29.6504Z" fill="#A25925"/>
<path d="M39.3345 57.5403C39.0731 57.4622 38.6991 57.5485 38.4903 57.4564C37.7362 57.1219 37.659 56.257 38.1294 55.6462C38.3505 55.3572 38.6875 55.1788 39.0524 55.1567C39.9467 55.1066 39.938 55.546 40.4567 56.0052L40.5808 56.1136C42.7348 55.1963 44.4472 55.8887 46.457 56.8806C50.4675 54.9391 54.729 55.0926 53.4258 60.804C56.6163 62.3332 60.2924 64.0012 63.7679 62.3647C65.3115 61.6549 66.1964 59.7608 67.8767 59.8902C64.4439 66.0538 59.0016 65.0083 53.5381 62.451C52.8344 64.4103 51.8062 66.6145 50.4281 68.1985C51.3353 69.1299 52.0156 69.462 53.1919 70.06C58.0367 72.5206 63.2802 72.6604 68.5501 71.7489C69.2612 71.6254 69.9846 71.1871 70.6981 71.1067C71.206 70.7978 72.4211 69.9574 72.9099 69.835L73.0229 70.0239C72.6506 71.0997 69.5575 72.9565 68.4786 73.4845C68.1381 73.6489 67.794 73.8051 67.4465 73.9543C66.1215 75.5278 62.865 76.0477 60.9256 76.2575C57.2518 76.6538 54.0589 75.5371 50.8282 73.9543C49.5859 73.3458 48.4275 72.6511 47.0986 72.2233C44.0756 73.4845 41.7573 74.5592 38.4929 75.2329C37.0382 75.5336 35.8851 75.6362 34.4911 75.874C34.251 75.6222 33.965 75.3844 33.7013 75.1536C32.582 75.3087 31.7261 75.3786 30.5907 75.3448C30.2168 75.3332 29.3604 75.2504 29.0829 75.2737C26.8593 74.9648 24.6573 74.3412 22.7047 73.2246C21.8066 72.7106 20.0103 71.5718 19.5718 70.5997L19.6781 70.4703L20.0533 70.5461C20.7723 70.6381 22.9163 71.383 23.7806 71.6487C29.3601 73.3645 37.3454 71.8247 42.3888 69.1228C45.7481 67.3232 51.2437 62.1642 52.3057 58.3597C51.2321 56.3526 48.9308 57.1405 47.3358 58.0345C43.5422 60.1641 39.997 62.662 35.7864 63.9674C33.7151 64.6178 31.4965 65.1598 29.3321 64.5234C27.9336 64.1201 25.4062 62.3706 25.0765 60.8949L25.1931 60.7037C25.7124 60.6653 25.957 60.9404 26.3454 61.2691C26.4648 61.3705 26.5836 61.473 26.7014 61.5768C28.3068 62.7843 29.3902 63.2471 31.4083 63.3718C34.3785 63.2284 36.8075 62.0978 39.4545 60.9031C39.0702 59.5743 38.9745 58.8761 39.3345 57.5403Z" fill="#572006"/>
<path d="M46.4867 69.4853C52.6687 73.8936 59.9336 76.437 67.4465 73.9543C66.1215 75.5278 62.865 76.0477 60.9256 76.2575C57.2518 76.6538 54.0589 75.5371 50.8282 73.9543C49.5859 73.3458 48.4275 72.6511 47.0986 72.2233C44.0756 73.4845 41.7573 74.5592 38.4929 75.2329C37.0382 75.5336 35.8851 75.6362 34.4911 75.874C34.251 75.6222 33.965 75.3844 33.7013 75.1536C37.9846 74.4426 43.1317 72.2327 46.4867 69.4853Z" fill="var(--fill-0, #E39F44)"/>
<path d="M52.3057 58.3597C52.404 60.9042 50.4706 63.6293 48.786 65.4569C44.5869 70.0121 37.5386 73.5578 31.322 73.9704C28.0838 74.1849 22.5315 72.672 20.0534 70.5459C20.7725 70.638 22.9165 71.3828 23.7807 71.6486C29.3602 73.3643 37.3454 71.8247 42.3888 69.1228C45.7481 67.3232 51.2437 62.1642 52.3057 58.3597Z" fill="var(--fill-0, #E39F44)"/>
<path d="M47.7265 68.4758C49.9603 66.6517 51.4222 64.6877 52.8344 62.2248C53.1509 62.1793 53.1816 62.2738 53.5381 62.451C52.8344 64.4103 51.8062 66.6145 50.4281 68.1985C51.3353 69.1299 52.0156 69.462 53.1919 70.06C58.0367 72.5206 63.2802 72.6604 68.5501 71.7489C69.2612 71.6254 69.9846 71.1871 70.6981 71.1067C69.1514 72.2723 66.125 73.0648 64.2269 73.355C58.6348 74.2117 52.1843 71.8316 47.7265 68.4758Z" fill="var(--fill-0, #E39F44)"/>
<path d="M39.3345 57.5403C39.0731 57.4622 38.6991 57.5485 38.4903 57.4564C37.7362 57.1219 37.659 56.257 38.1294 55.6462C38.3505 55.3572 38.6875 55.1788 39.0524 55.1567C39.9467 55.1066 39.938 55.546 40.4567 56.0052L40.5808 56.1136C40.0028 56.6265 39.7261 56.8514 39.3345 57.5403Z" fill="var(--fill-0, #E39F44)"/>
<path d="M41.8244 57.0939C43.275 57.0554 43.6251 57.2011 45.0056 57.7315C44.3595 58.1942 43.3107 58.7758 42.603 59.1955C42.1038 59.4904 41.4862 59.8936 40.9488 60.0627C40.0587 59.7946 40.5712 58.8574 40.712 58.1767C40.8242 57.6347 41.3516 57.3258 41.8244 57.0939Z" fill="#F3BE5E"/>
<path d="M9.73532 28.4326C13.4172 27.5945 16.1846 28.9227 17.0528 32.7242C17.4076 34.2103 17.1367 35.7755 16.3024 37.06C15.3315 38.5472 13.7965 39.5847 12.0437 39.9381C10.3037 40.2816 8.06353 40.2458 6.92737 38.6869C4.64164 36.2079 5.64662 31.0189 8.32363 29.1909C8.75518 28.8963 9.26268 28.656 9.73532 28.4326Z" fill="#995120"/>
<path d="M6.92737 38.6869C4.64164 36.2079 5.64662 31.0189 8.32363 29.1909C8.75518 28.8963 9.26268 28.656 9.73532 28.4326L9.9986 28.6484C9.91394 28.851 9.99754 28.7993 9.80373 28.8895C8.61306 29.4434 7.77104 31.0577 7.39919 32.2446L7.28439 32.1826C6.94468 32.0029 6.85719 31.9094 6.50713 31.9683C6.22665 32.3651 6.00422 33.4285 5.96007 33.9211C6.09901 33.9712 6.23678 34.0246 6.37313 34.0812L6.37431 34.2843L5.96466 34.2824C5.44162 35.0534 6.40045 37.4872 6.88086 38.2853L7.10717 38.6625L6.92737 38.6869Z" fill="#83461D"/>
<path d="M35.5192 4.18048C38.5784 3.57834 41.555 5.53328 42.1836 8.55753C42.8123 11.5818 40.8573 14.5414 37.8066 15.1838C34.7268 15.8325 31.7025 13.8749 31.0678 10.8219C30.4332 7.76901 32.431 4.78834 35.5192 4.18048Z" fill="#964F1F"/>
<path d="M58.2122 12.9131C60.0472 11.1207 62.5499 10.848 64.7821 12.1036C67.2614 13.9253 68.726 17.6524 66.2464 20.042C64.906 21.5044 63.9896 21.3625 62.168 21.2758C60.5731 22.0829 58.1764 21.2334 56.8102 20.17C54.3732 18.2731 54.2743 13.0047 58.2122 12.9131Z" fill="#83461D"/>
<path d="M58.2122 12.9131C60.0472 11.1207 62.5499 10.848 64.7821 12.1036C67.2614 13.9253 68.726 17.6524 66.2464 20.042C65.8112 19.7912 64.6252 20.2818 64.5438 19.7766C64.2721 18.0874 64.009 17.7833 62.796 16.4946C62.2832 16.1814 61.597 15.4022 61.1948 14.9593C59.7124 14.6158 58.8481 14.6099 57.7852 13.548L58.2122 12.9131Z" fill="#A25925"/>
<path d="M58.2122 12.9131C60.0472 11.1207 62.5499 10.848 64.7821 12.1036C63.978 13.2031 62.4854 14.0313 61.6425 15.05C61.9448 15.6758 62.4591 15.8955 62.796 16.4946C62.2832 16.1814 61.597 15.4022 61.1948 14.9593C59.7124 14.6158 58.8481 14.6099 57.7852 13.548L58.2122 12.9131Z" fill="#995120"/>
<path d="M62.168 21.2758C60.5731 22.0829 58.1764 21.2334 56.8102 20.17C54.3732 18.2731 54.2743 13.0047 58.2122 12.9131L57.7852 13.548C56.3431 16.6097 57.8867 19.5473 60.8804 20.8772C61.291 21.0633 61.7236 21.1972 62.168 21.2758Z" fill="var(--fill-0, #E39F44)"/>
<path d="M29.8815 40.9475C30.4654 41.128 30.5636 41.1658 31.0921 41.4645C31.4909 41.8922 31.5672 41.9667 32.0621 42.2957L32.1891 42.2574C33.1616 42.2694 33.2597 42.3274 33.9975 42.9658C33.6469 43.0746 33.0561 43.284 32.7162 43.3218C31.7903 43.9828 31.0967 45.111 30.9291 46.231C30.6409 48.1572 31.7694 49.4413 31.9261 51.4518C32.0648 53.2318 30.5142 55.3688 30.5874 56.5333C30.7791 59.586 32.1189 59.8937 31.4083 63.3718C29.3902 63.2471 28.3068 62.7843 26.7014 61.5768C27.5937 58.939 26.2157 58.3026 26.379 55.7593C26.4872 54.2143 27.6182 52.8126 27.5342 51.2522C27.4628 49.9274 26.8192 48.8698 26.4788 47.5747C25.9844 45.6947 27.1787 44.0205 28.103 42.494C28.0915 42.5132 28.1213 41.7021 28.1236 41.6525L28.3726 41.4568L28.4086 41.3888C28.8881 41.2187 29.3907 41.0864 29.8815 40.9475Z" fill="#ABE8F2"/>
<path d="M29.8815 40.9475C30.4654 41.128 30.5636 41.1658 31.0921 41.4645C31.4909 41.8922 31.5672 41.9667 32.0621 42.2957C31.3711 42.4364 30.9096 42.4771 30.3883 42.9665C29.723 42.314 29.0071 43.098 28.3726 41.4568L28.4086 41.3888C28.8881 41.2187 29.3907 41.0864 29.8815 40.9475Z" fill="#88CADB"/>
<path d="M32.1891 42.2574C33.1616 42.2694 33.2597 42.3274 33.9975 42.9658C33.6469 43.0746 33.0561 43.284 32.7162 43.3218C31.9018 43.2636 31.1488 43.2545 30.3883 42.9665C30.9096 42.4771 31.3711 42.4364 32.0621 42.2957L32.1891 42.2574Z" fill="#572006"/>
<path d="M55.7679 31.9536C54.934 31.3426 53.0569 29.7237 54.2015 28.4861C54.4035 28.2677 54.7282 28.1676 55.0253 28.1892C55.2755 28.5961 55.1681 29.1584 55.1419 29.6818C55.8889 31.0753 60.386 32.3977 61.9721 32.5851C62.5915 32.6583 65.5608 32.9707 65.8603 33.1866C65.9052 34.0058 65.041 33.9682 64.3754 34.0592C64.7261 35.9152 64.7594 37.9754 63.6849 39.6176L63.0689 39.4922C63.1102 39.806 63.1233 39.7853 63.3307 40.034L63.2391 40.3248C62.8539 40.7906 62.0223 41.2888 61.4105 41.3187L60.5545 41.6212C59.9608 41.8017 58.7298 41.6745 58.109 41.5058C57.9256 41.957 57.0722 41.6951 56.7489 41.3426L56.7854 40.9461C54.2612 38.201 53.765 35.184 55.7679 31.9536Z" fill="#572006"/>
<path d="M57.8784 39.8196L57.9936 40.1676C58.6603 40.4286 60.658 39.2674 60.9751 40.8515L61.0383 40.8605C61.2357 41.0491 61.3231 41.0822 61.4105 41.3187L60.5545 41.6212C59.9608 41.8017 58.7298 41.6745 58.109 41.5058C57.9256 41.957 57.0722 41.6951 56.7489 41.3426L56.7854 40.9461C57.3046 40.5051 57.4484 40.3491 57.8784 39.8196Z" fill="#88CADB"/>
<path d="M58.109 41.5058C58.9008 40.4758 59.8438 40.4341 60.9751 40.8515L61.0383 40.8605C61.2357 41.0491 61.3231 41.0822 61.4105 41.3187L60.5545 41.6212C59.9608 41.8017 58.7298 41.6745 58.109 41.5058Z" fill="#572006"/>
<path d="M57.8574 39.757C58.3027 39.682 58.6337 39.4415 59.0285 39.21C60.3526 39.0919 60.4264 39.1891 61.6004 39.7928L61.6938 39.8417C62.0555 39.7354 62.7202 39.514 63.0689 39.4922C63.1102 39.806 63.1233 39.7853 63.3307 40.034L63.2391 40.3248C62.8539 40.7906 62.0223 41.2888 61.4105 41.3187C61.3231 41.0822 61.2357 41.0491 61.0383 40.8605L60.9751 40.8515C60.658 39.2674 58.6603 40.4286 57.9936 40.1676L57.8784 39.8196L57.8574 39.757Z" fill="#ABE8F2"/>
<path d="M61.0383 40.8605C61.677 40.6682 62.7081 40.198 63.2391 40.3248C62.8539 40.7906 62.0223 41.2888 61.4105 41.3187C61.3231 41.0822 61.2357 41.0491 61.0383 40.8605Z" fill="#88CADB"/>
<path d="M57.8574 39.757C57.3178 39.5657 56.9645 39.2867 56.8185 38.732C56.957 37.2572 59.7764 36.8386 59.0285 39.21C58.6337 39.4415 58.3027 39.682 57.8574 39.757Z" fill="#FDFEFE"/>
<path d="M58.7365 33.3441C59.701 33.7094 61.9665 33.8852 62.3728 34.5536C62.4473 35.2023 62.1524 35.5479 61.7807 36.0678C59.7195 37.5214 58.1353 35.6463 58.7365 33.3441Z" fill="#FDFEFE"/>
<path d="M35.2583 30.497C35.0866 30.0506 34.8998 29.7315 34.9838 29.2771C35.2486 28.9168 35.0785 29.0285 35.5047 28.9199C37.3531 29.4998 35.9993 31.717 35.0775 32.6022C37.8519 35.9023 37.8115 38.8009 35.4581 42.2881C35.0509 42.9223 34.7117 42.8614 33.9975 42.9658C33.2597 42.3274 33.1616 42.2694 32.1891 42.2574L32.0621 42.2957C31.5672 41.9667 31.4909 41.8922 31.0921 41.4645C30.5636 41.1658 30.4654 41.128 29.8815 40.9475C29.3907 41.0864 28.8881 41.2187 28.4086 41.3888C27.0494 40.6649 27.0932 37.4357 27.189 36.1564C26.5809 36.1697 25.6713 36.2312 25.1947 35.8179C25.2042 35.1238 26.5024 34.9427 27.0659 34.8196C30.0198 34.1741 33.2916 32.9392 35.2583 30.497Z" fill="#572006"/>
<path d="M31.7951 41.0029C32.2457 40.9329 32.7444 40.8435 33.1929 40.7921C34.3389 41.1253 34.664 41.3876 35.4581 42.2881C35.0509 42.9223 34.7117 42.8614 33.9975 42.9658C33.2597 42.3274 33.1616 42.2694 32.1891 42.2574L32.0621 42.2957C31.5672 41.9667 31.4909 41.8922 31.0921 41.4645C31.3928 41.3674 31.551 41.2027 31.7951 41.0029Z" fill="#88CADB"/>
<path d="M31.7951 41.0029C32.2457 40.9329 32.7444 40.8435 33.1929 40.7921C33.2093 41.2454 33.2882 41.6171 33.0498 41.9767C32.7176 42.2106 32.6087 42.1951 32.1891 42.2574L32.0621 42.2957C31.5672 41.9667 31.4909 41.8922 31.0921 41.4645C31.3928 41.3674 31.551 41.2027 31.7951 41.0029Z" fill="#ABE8F2"/>
<path d="M29.8815 40.9475C29.6221 40.1488 29.5036 39.1904 30.5693 38.919C30.9035 38.8319 31.2595 38.8964 31.541 39.0949C32.2049 39.5595 32.0094 40.3666 31.7951 41.0029C31.551 41.2027 31.3928 41.3674 31.0921 41.4645C30.5636 41.1658 30.4654 41.128 29.8815 40.9475Z" fill="#FDFEFE"/>
<path d="M33.8442 33.7391C34.6052 34.005 35.2288 34.8377 35.277 35.6357C35.31 36.2286 35.104 36.8102 34.704 37.2528C34.157 37.8623 33.6438 37.9039 32.8951 37.9412C31.9321 37.6956 30.9487 36.3865 31.2352 35.4476C31.4097 34.876 33.2988 34.0268 33.8442 33.7391Z" fill="#FDFEFE"/>
<path d="M62.2592 53.3639C63.7243 52.3052 64.6967 51.922 66.4961 51.9946C67.4134 52.1973 67.6533 52.2773 68.3736 52.8671C70.2733 54.4229 71.4273 57.6941 69.1954 59.4903C69.0289 59.6243 68.1287 59.7818 67.8767 59.8902C66.1964 59.7608 65.3115 61.6549 63.7679 62.3647C62.7082 61.7913 62.402 61.9835 61.3334 60.8832C60.4791 60.0125 60.017 58.8364 60.0523 57.623C60.0926 55.7208 60.9534 54.6109 62.2592 53.3639Z" fill="#8E4B1F"/>
<path d="M67.9733 53.9361C68.3575 53.882 68.4304 53.8506 68.797 53.9383C69.6704 54.6795 70.0775 55.2966 69.5237 56.3736C68.0908 56.4319 67.2813 55.0792 67.9733 53.9361Z" fill="#A25925"/>
<path d="M11.886 54.2057C13.1777 53.144 14.9546 52.8712 16.5104 53.4959C18.0662 54.1206 19.149 55.5414 19.3284 57.1942C19.5079 58.847 18.7549 60.4625 17.3686 61.4008C15.3592 62.7599 12.6252 62.3158 11.1594 60.3926C9.69357 58.4693 10.0136 55.7453 11.886 54.2057Z" fill="#995120"/>
<path d="M17.3686 61.4008C15.3592 62.7599 12.6252 62.3158 11.1594 60.3926C9.69357 58.4693 10.0136 55.7453 11.886 54.2057C12.2645 54.4737 13.4394 56.5787 13.8166 57.2104C14.7393 58.7549 16.3973 60.0569 17.3686 61.4008Z" fill="#83461D"/>
<path d="M46.039 39.9758C46.347 39.9528 46.6554 39.9358 46.9639 39.9248C48.379 39.8802 49.4372 40.3461 50.5359 41.2998C51.6126 42.2344 52.7526 44.7538 51.4491 45.9172C50.2786 46.9618 48.6498 45.7075 47.1908 45.6267L47.043 45.6195C45.4581 45.8793 45.2306 46.5275 44.0591 46.8974C41.2613 47.7808 41.2753 44.3079 42.2893 42.7566C43.3716 41.1007 44.2453 40.4809 46.039 39.9758Z" fill="#572006"/>
<path d="M43.973 42.8829C44.247 42.8587 44.5223 42.8505 44.7973 42.8583C46.3373 42.8998 47.1901 43.3942 48.2183 44.461C47.1656 44.4765 46.5955 44.5733 45.5991 44.8825C44.76 45.2288 43.769 46.2306 42.9532 46.0532C42.0415 45.186 42.6505 43.2812 43.973 42.8829Z" fill="#E05028"/>
<path d="M63.0689 39.4922L63.6849 39.6176C64.69 40.9651 65.6568 41.1377 66.1165 43.0526C66.5893 45.0218 65.6002 46.4013 65.7636 48.3222C65.8733 49.3746 66.9996 50.9536 66.8565 51.9152C66.6544 51.9868 66.696 51.9998 66.4961 51.9946C64.6967 51.922 63.7243 52.3052 62.2592 53.3639C62.5399 50.4523 61.7549 50.3471 61.3616 47.6886C61.076 45.7581 62.9271 43.4056 60.5545 41.6212L61.4105 41.3187C62.0223 41.2888 62.8539 40.7906 63.2391 40.3248L63.3307 40.034C63.1233 39.7853 63.1102 39.806 63.0689 39.4922Z" fill="#ABE8F2"/>
<path d="M18.2407 22.3313C18.0338 21.0947 18.6318 19.6608 19.2201 18.6688C20.324 16.8071 23.5625 16.8098 25.1069 18.1132C28.6532 21.1061 23.9413 24.9843 20.6688 24.8863C19.2194 24.5275 18.4835 23.7869 18.2407 22.3313Z" fill="#995120"/>
<path d="M18.2407 22.3313L18.4819 22.2738C19.1228 23.0819 20.6333 23.9395 20.6688 24.8863C19.2194 24.5275 18.4835 23.7869 18.2407 22.3313Z" fill="#83461D"/>
<path d="M29.0829 75.2737C29.3604 75.2504 30.2168 75.3332 30.5907 75.3448C31.7261 75.3786 32.582 75.3087 33.7013 75.1536C33.965 75.3844 34.251 75.6222 34.4911 75.874C35.4491 77.6072 35.857 79.2962 34.5763 81.0318C34.2753 81.3733 33.7737 81.8255 33.385 82.0563C32.5656 82.5447 31.5854 82.6939 30.6556 82.4724C29.5017 82.1974 28.5097 81.47 27.906 80.4583C27.2696 79.3836 27.2165 78.3835 27.513 77.2086C27.9959 76.1794 28.1801 75.9801 29.0829 75.2737Z" fill="#995120"/>
<path d="M27.513 77.2086C28.0718 77.1935 28.5403 77.1141 29.0037 77.3787C30.3476 78.1457 31.5208 79.1201 32.8116 79.9838C33.3481 80.3428 34.2851 80.6809 34.5763 81.0318C34.2753 81.3733 33.7737 81.8255 33.385 82.0563C32.5656 82.5447 31.5854 82.6939 30.6556 82.4724C29.5017 82.1974 28.5097 81.47 27.906 80.4583C27.2696 79.3836 27.2165 78.3835 27.513 77.2086Z" fill="#83461D"/>
<path d="M54.4728 76.5652C57.5392 76.1503 59.1296 79.3696 56.1575 80.7229C55.0521 80.9292 53.8473 80.7812 53.2296 79.7228C52.9541 79.2508 52.8842 78.6889 53.0365 78.1656C53.2767 77.3252 53.7795 76.9802 54.4728 76.5652Z" fill="#995120"/>
<path d="M25.0639 39.2781C25.3906 39.334 25.255 39.265 25.4918 39.4782C25.3932 40.2608 23.4082 42.9983 22.5555 43.3908C21.8769 43.7032 21.5961 43.6689 20.9229 43.4986C20.2124 42.9813 19.6537 42.0465 20.2736 41.2584C21.3052 39.9471 23.5187 39.5266 25.0639 39.2781Z" fill="#ABE8F2"/>
<path d="M22.0409 40.7226C22.4166 40.8541 22.539 40.9723 22.6441 41.3352C22.5242 41.9246 22.0948 42.2918 21.608 42.6227C21.2207 42.4279 21.1698 42.3981 20.8798 42.0795C20.6933 41.2518 21.3888 41.026 22.0409 40.7226Z" fill="#DFF2F0"/>
<path d="M65.7699 37.0261C67.3957 37.1939 73.1381 37.7963 70.7705 40.6927C68.4626 41.8217 66.9256 39.2116 65.7552 37.6268C65.588 37.4006 65.6952 37.263 65.7699 37.0261Z" fill="#ABE8F2"/>
<path d="M69.4917 40.0299C68.9664 39.7119 68.2627 39.3457 68.5586 38.6806C68.9465 38.3884 69.2755 38.4244 69.7742 38.3889C70.354 38.8029 70.736 39.0882 70.3161 39.7709C69.9418 39.9826 69.9266 39.9849 69.4917 40.0299Z" fill="#FDFEFE"/>
<path d="M69.4917 40.0299C68.9664 39.7119 68.2627 39.3457 68.5586 38.6806C68.9465 38.3884 69.2755 38.4244 69.7742 38.3889C69.3053 38.9555 69.305 39.3219 69.4917 40.0299Z" fill="#DFF2F0"/>
<path d="M36.599 44.5831C39.6487 44.8615 36.1088 48.6503 34.0962 48.7833C33.4147 48.36 32.7019 47.7491 32.8002 46.8894C33.3922 45.9369 34.4631 45.9695 35.3304 45.7194C35.4549 45.6835 35.9024 44.9829 36.599 44.5831Z" fill="var(--fill-0, #E39F44)"/>
<path d="M76.1837 37.8606C76.2804 37.856 76.377 37.8526 76.4738 37.8506C78.1 37.823 79.2116 39.0337 77.7371 40.3754C76.112 40.5109 74.6381 39.2807 76.1837 37.8606Z" fill="var(--fill-0, #E39F44)"/>
<path d="M48.859 5.94846C49.3002 5.80905 49.7831 5.91757 50.1202 6.23193C50.4573 6.54629 50.5955 7.01696 50.4813 7.46129C50.3671 7.90561 50.0183 8.25354 49.5704 8.3701C48.9022 8.54401 48.2157 8.15913 48.0228 7.50243C47.8298 6.84573 48.2008 6.1564 48.859 5.94846Z" fill="var(--fill-0, #E39F44)"/>
<path d="M76.3073 59.9506C76.9886 59.791 77.6713 60.2094 77.8305 60.8843C77.9896 61.5592 77.5646 62.234 76.8823 62.3891C76.2027 62.5441 75.5247 62.1257 75.3664 61.4543C75.2079 60.7817 75.6287 60.1092 76.3073 59.9506Z" fill="var(--fill-0, #E39F44)"/>
<path d="M51.1007 48.8914C51.7247 48.6477 52.4308 48.9449 52.6863 49.5589C52.9417 50.1729 52.652 50.8762 52.0354 51.1381C51.6286 51.311 51.1591 51.2535 50.807 50.9876C50.4549 50.7219 50.2747 50.2889 50.3356 49.8547C50.3965 49.4205 50.6889 49.0524 51.1007 48.8914Z" fill="var(--fill-0, #E39F44)"/>
<path d="M56.6418 50.9313C57.2647 50.8081 57.8706 51.2075 57.9958 51.824C58.1209 52.4404 57.7181 53.0407 57.0956 53.1653C56.472 53.2901 55.8644 52.8905 55.739 52.2731C55.6137 51.6557 56.0181 51.0547 56.6418 50.9313Z" fill="var(--fill-0, #E39F44)"/>
<path d="M65.4859 78.9184C65.9419 78.9243 66.4509 78.8928 66.5779 79.3893C66.4004 79.7623 65.5658 80.2041 65.179 80.4185C65.4627 80.5538 65.4548 80.4873 65.8405 80.4232L65.8991 80.2542L65.9932 80.3579C65.7514 80.8813 64.9042 81.0561 64.6678 80.4454C64.7965 79.5933 64.8752 79.4709 65.4859 78.9184Z" fill="var(--fill-0, #E39F44)"/>
<path d="M21.2556 82.9817C21.8199 83.1705 23.4625 83.6787 23.8779 83.9748C27.2981 86.4062 29.7815 87.6231 33.8885 88.6092L32.741 93.4499C32.4383 94.7682 31.9007 97.3722 31.4093 98.5576C30.1878 99.4644 27.9944 99.9878 26.5081 100.121C25.41 100.22 22.3188 100.442 22.0244 98.99C21.8145 97.955 23.1578 96.8546 23.7303 96.0644L23.8025 95.963C23.5149 93.9768 22.3809 89.7631 21.8669 87.6313L21.6583 86.7221C21.4558 85.3688 21.3472 84.3478 21.2556 82.9817Z" fill="#F3BE5E"/>
<path d="M21.2556 82.9817C21.8199 83.1705 23.4625 83.6787 23.8779 83.9748C27.2981 86.4062 29.7815 87.6231 33.8885 88.6092L32.741 93.4499C32.1601 89.0941 30.3737 90.2072 27.0764 88.6698C25.6552 88.0078 24.2669 86.8934 22.8236 86.3584C22.5922 86.6417 21.9838 87.3434 21.8669 87.6313L21.6583 86.7221C21.4558 85.3688 21.3472 84.3478 21.2556 82.9817Z" fill="var(--fill-0, #E39F44)"/>
<path d="M21.6583 86.7221C21.6875 86.5263 21.7279 86.3444 21.7681 86.151L21.9428 86.0507C22.2729 86.2116 22.4629 86.2862 22.8236 86.3584C22.5922 86.6417 21.9838 87.3434 21.8669 87.6313L21.6583 86.7221Z" fill="var(--fill-0, #E39F44)"/>
<path d="M53.4375 88.5009C55.8595 88.093 58.0313 87.5451 60.197 86.3189C62.0473 85.2711 63.6283 84.1696 65.5784 83.3C65.4467 84.3736 65.337 85.2338 65.1164 86.2956C64.5632 88.9602 63.3234 92.5281 62.4795 95.1961C62.9835 95.7801 65.2572 97.7161 64.1868 98.5099C63.6217 98.9284 61.7998 98.9435 61.0581 98.9202C59.4625 98.9598 56.4731 98.6265 55.0769 97.7931C54.2708 97.3128 54.1694 94.055 54.0558 92.9896C53.9021 91.486 53.6959 89.9894 53.4375 88.5009Z" fill="#F3BE5E"/>
<path d="M53.4375 88.5009C55.8595 88.093 58.0313 87.5451 60.197 86.3189C62.0473 85.2711 63.6283 84.1696 65.5784 83.3C65.4467 84.3736 65.337 85.2338 65.1164 86.2956L64.8715 86.1826C63.7088 86.7327 62.4137 87.5521 61.2452 88.1571C60.07 88.7644 57.6523 89.5092 56.7622 90.2633C55.4317 91.3893 56.0108 95.7218 56.5487 96.9853C57.7762 98.1078 59.4499 98.5647 61.0581 98.9202C59.4625 98.9598 56.4731 98.6265 55.0769 97.7931C54.2708 97.3128 54.1694 94.055 54.0558 92.9896C53.9021 91.486 53.6959 89.9894 53.4375 88.5009Z" fill="var(--fill-0, #E39F44)"/>
</g>
</svg>
