<svg width="25" height="25" viewBox="0 0 25 25" fill="none" xmlns="http://www.w3.org/2000/svg" aria-hidden="true">
<circle cx="12.5" cy="12.5" r="11.25" fill="#FEF4D2"/>
<path d="M7.5 11.25V14.375L6.25 16.25V18.125H18.75V16.25L17.5 14.375V11.25C17.5 10.6755 17.3868 10.1066 17.167 9.57576C16.9471 9.04496 16.6249 8.56266 16.2186 8.15641C15.8123 7.75015 15.33 7.42789 14.7992 7.20803C14.2684 6.98816 13.6995 6.875 13.125 6.875C12.5505 6.875 11.9816 6.98816 11.4508 7.20803C10.92 7.42789 10.4377 7.75015 10.0314 8.15641C9.62515 8.56266 9.30289 9.04496 9.08303 9.57576C8.86316 10.1066 8.75 10.6755 8.75 11.25ZM10.9375 18.125H15.3125C15.3125 18.4123 15.2559 18.6967 15.146 18.9621C15.036 19.2275 14.8749 19.4687 14.6718 19.6718C14.4687 19.8749 14.2275 20.0361 13.9621 20.146C13.6967 20.2559 13.4123 20.3125 13.125 20.3125C12.8377 20.3125 12.5533 20.2559 12.2879 20.146C12.0225 20.0361 11.7813 19.8749 11.5782 19.6718C11.3751 19.4687 11.214 19.2275 11.104 18.9621C10.9941 18.6967 10.9375 18.4123 10.9375 18.125Z" stroke="#EF9F27" stroke-width="1.25" stroke-linecap="square"/>
</svg>
