<svg preserveAspectRatio="none" width="100%" height="100%" overflow="visible" style="display: block;" viewBox="0 0 50 50" fill="none" xmlns="http://www.w3.org/2000/svg">
<g id="Frame 1618873393">
<g id="Vector">
<path d="M23.7583 7.70953C23.993 7.64729 24.9739 7.62508 25.2483 7.60334C26.1948 7.52837 27.1693 7.54935 28.1115 7.52727C29.2017 7.50173 29.9967 7.463 31.0848 7.57953L31.0523 7.60013C30.898 7.69694 30.8163 7.72565 30.6462 7.78747C30.8035 7.77562 31.0388 7.79276 31.1826 7.86184C32.0059 8.22874 32.3522 8.63527 32.5742 9.53036C32.6292 10.3418 32.7355 11.7271 32.4507 12.4822C32.6237 12.4888 32.7554 12.4932 32.928 12.4819C32.5541 13.2738 32.323 13.3873 32.6469 14.2907C32.8787 14.9371 33.1889 15.5607 33.4242 16.1919C34.5692 19.2631 35.1775 22.4123 35.5836 25.6645C35.608 25.8608 35.6786 26.974 35.7196 27.0425C35.6932 27.1453 35.6027 27.4396 35.6253 27.5238L35.6663 27.5441L35.7242 27.5295L35.9846 27.0398L36.0418 27.4336C36.1114 27.3085 36.1296 27.2914 36.228 27.1943L36.3511 27.1998L36.3609 27.148L36.4739 27.131L36.4826 27.0622C36.564 26.8051 36.5173 26.2313 36.4944 25.9548L36.5132 25.8211C36.6249 25.4886 37.1486 23.9918 37.5589 24.1058L37.5961 24.2655C37.6638 24.3306 37.7015 24.3797 37.7901 24.4062C38.0422 24.316 38.2057 23.7038 38.287 23.4568C38.3548 23.2077 38.6825 22.6402 38.9767 22.7116L39.0321 22.8543L39.0835 23.1229C39.4417 22.7112 40.4652 21.197 40.7528 20.968C41.2265 20.8129 41.417 20.9927 41.5583 21.4949C41.7772 22.2722 41.7519 23.0697 41.639 23.8636C41.5646 24.3002 41.4394 24.7591 41.3746 25.1632C41.8591 25.0058 41.9451 24.9847 42.4413 24.8957C42.4005 25.715 42.3328 26.3656 41.8273 27.0374C41.699 27.208 41.5284 27.3796 41.4814 27.5817C41.6316 27.7405 42.2641 27.6332 42.5 27.6113C42.3271 28.0127 41.8867 28.9269 41.5452 29.1818C41.4097 29.424 41.399 29.6055 41.3588 29.8802C41.2774 30.3036 40.6247 31.2223 40.2717 31.4086C40.178 31.5253 40.0493 31.652 40.0472 31.7971C40.1624 31.9049 40.1143 31.8753 40.2822 31.895L40.3954 31.928C40.3125 32.5792 38.1851 34.2419 37.5629 34.3878C37.3672 34.5511 37.3135 34.6608 37.1841 34.8781C37.0539 35.0368 36.8222 34.9888 36.6625 35.1177C36.6568 35.1248 36.6512 35.1319 36.6455 35.139C36.5904 35.2068 36.5417 35.2509 36.4676 35.2952C36.5631 35.3109 36.6299 35.2307 36.7256 35.3125C37.0587 35.2037 37.405 35.1784 37.7508 35.1427C37.7666 35.1172 37.7821 35.0905 37.8026 35.0684C37.9929 34.8638 38.5482 34.9437 38.8181 34.9503C38.8659 34.9638 38.9989 34.9843 39.0215 35.0247C39.1148 35.1913 39.1056 35.4578 39.1211 35.6482C39.2429 35.7039 39.4014 35.7558 39.4874 35.8635C39.8262 36.0913 40.3 36.3428 40.3966 36.7817C40.4403 36.9801 40.379 37.1744 40.2707 37.3392C40.0135 37.7306 39.4435 38.1853 39.0295 38.3729C38.9414 38.4059 38.8456 38.4527 38.7536 38.4694L38.5654 38.9859C38.3322 39.3962 37.8254 39.6346 37.3972 39.7497C37.1948 39.8041 36.9865 39.8374 36.78 39.8704C36.6697 39.9831 36.5242 40.1032 36.4539 40.2467C35.9925 40.6503 34.9761 40.8305 34.3873 40.7717C34.3668 40.7696 34.3465 40.7658 34.3261 40.7625C34.2763 40.674 33.9953 40.5884 33.8936 40.5437L34.1308 40.5077L34.1693 40.4065C33.3149 40.3013 32.7798 39.7641 32.0683 39.3309C31.7093 39.1122 31.3207 38.9404 30.9412 38.7631L30.7976 38.7873C30.4612 38.7551 29.3898 39.2871 29.0543 39.4497C28.6293 39.659 27.4743 40.1324 27.1756 40.4452L27.0711 40.8148C26.7968 41.0044 26.5186 41.19 26.2615 41.404C26.4478 41.4232 26.6557 41.426 26.8352 41.4806C26.5858 41.4851 26.3374 41.4814 26.0926 41.5367C26.1766 41.6308 26.3135 41.6712 26.4273 41.7188L26.3272 41.7613C25.5409 41.7386 25.056 42.4362 24.2801 42.5L24.2143 42.3078C24.5466 42.2744 24.9702 41.8762 25.2397 41.6707C25.2368 41.6658 25.2341 41.6608 25.2311 41.6561C25.1399 41.5118 25.0894 41.4844 24.9301 41.4457L24.6558 41.6701L24.6236 41.6301L24.6988 41.2278C25.3954 40.7828 26.0076 40.2477 26.7379 39.8384L26.7985 39.7168C26.8177 39.5105 26.8192 39.329 26.7978 39.1222C25.8057 39.0656 24.741 39.279 23.748 39.3792C22.2867 39.5265 20.8012 39.6363 19.3338 39.6784C18.0214 39.7906 16.7109 39.9261 15.4029 40.0849C14.928 40.1183 14.4791 40.1158 14.007 40.0435C13.6563 39.9883 13.2644 39.9273 12.9353 39.7911C12.2807 39.5204 11.7109 39.0579 11.0969 38.7043C10.413 38.3105 9.69255 37.9845 9.01092 37.5889C8.48766 37.2852 7.78323 36.7663 7.61134 36.1384C7.35586 35.5303 7.61491 34.3204 7.65199 33.6251C7.69688 32.7826 7.69336 31.899 7.7589 31.0623C7.85734 29.8059 7.71794 28.3289 7.89773 27.0973C7.90212 26.5935 8.02509 25.7278 8.10109 25.2086C8.10619 24.7469 8.264 23.9366 8.33735 23.4498C8.62695 21.5278 9.04397 19.694 9.57096 17.8313C9.75406 17.1843 10.4289 15.2573 10.4673 14.7378C10.5811 13.1998 9.41468 11.4917 9.87857 9.67053C10.0143 9.13759 10.2186 8.92466 10.6701 8.65065C10.9323 8.50699 11.3656 8.44786 11.66 8.43487C13.5198 8.35285 15.5216 8.43383 17.3428 8.00042C18.3647 7.83845 18.8837 8.05323 19.7658 8.01344C20.78 7.96767 22.1257 7.90919 23.1197 7.80621C23.3276 7.77952 23.5496 7.74149 23.7583 7.70953Z" fill="#E1B272"/>
<path d="M23.7583 7.70953C23.993 7.64729 24.9739 7.62508 25.2483 7.60334C26.1948 7.52837 27.1693 7.54935 28.1115 7.52727C29.2017 7.50173 29.9967 7.463 31.0848 7.57953L31.0523 7.60013C30.898 7.69694 30.8163 7.72565 30.6462 7.78747C30.8035 7.77562 31.0388 7.79276 31.1826 7.86184C32.0059 8.22874 32.3522 8.63527 32.5742 9.53036L32.4692 9.67033C32.3528 9.67986 32.3102 9.63142 32.2115 9.56161C31.8932 9.51495 31.7496 9.91588 31.4898 9.95138C31.4681 9.82872 31.4578 9.74224 31.4469 9.61845C31.4105 9.87334 31.4375 10.2066 31.3248 10.3948C31.3628 11.026 31.1994 11.8985 30.479 11.9593C30.3636 11.969 30.2998 11.9429 30.2067 11.8567C29.9123 11.9449 29.3627 12.2361 29.0406 12.1353L24.0163 12.9007C23.3333 13.0114 22.3583 13.2673 21.6921 13.3195C20.0991 13.4446 18.4068 13.2994 16.8036 13.3681C15.4278 13.427 14.1656 13.7198 12.7765 13.8353L12.7643 13.5823C12.9119 13.6957 12.953 13.6932 13.1087 13.6835C13.5706 13.2793 13.292 11.1828 13.1873 10.5723C13.1691 10.4669 12.7844 9.96127 12.691 9.83175C13.4533 9.80387 14.3153 9.62349 15.079 9.50348L18.8801 8.93133C19.2031 8.88452 19.6617 8.93575 19.9993 8.93064C20.564 8.9221 20.9055 8.6723 21.3766 8.43382C22.4331 8.34777 24.0927 8.13548 25.153 7.99204C24.4621 7.79985 23.5426 7.94711 23.1197 7.80621C23.3276 7.77952 23.5496 7.74149 23.7583 7.70953Z" fill="#F1C887"/>
<path d="M23.7583 7.70953C23.993 7.64729 24.9739 7.62508 25.2483 7.60334C26.1948 7.52837 27.1693 7.54935 28.1115 7.52727C29.2017 7.50173 29.9967 7.463 31.0848 7.57953L31.0523 7.60013C30.898 7.69694 30.8163 7.72565 30.6462 7.78747C30.8035 7.77562 31.0388 7.79276 31.1826 7.86184C29.6468 8.14665 28.8428 7.96217 27.2972 7.92203C26.5842 7.90351 25.7797 8.01041 25.153 7.99204C24.4621 7.79985 23.5426 7.94711 23.1197 7.80621C23.3276 7.77952 23.5496 7.74149 23.7583 7.70953Z" fill="#7E461D"/>
<path d="M30.7234 10.7548C30.8639 10.1065 30.7444 9.58125 30.8394 9.05025L30.9056 9.02355L30.9956 9.12814C31.0346 9.32844 31.0477 9.26198 30.9817 9.44284C30.9702 9.29861 30.9643 9.24707 30.9287 9.10638L30.86 9.15972C30.7721 9.80271 30.9222 10.0154 31.0162 10.6409C31.0303 10.7342 31.0063 11.1464 31.005 11.2838C31.1824 11.2132 31.1666 10.6377 31.3248 10.3948C31.3628 11.026 31.1994 11.8985 30.479 11.9593C30.3636 11.969 30.2998 11.9429 30.2067 11.8567C29.9123 11.9449 29.3627 12.2361 29.0406 12.1353C29.087 12.0855 29.3561 12.0443 29.4344 12.0204C29.5417 11.9877 29.6934 11.5599 29.7696 11.4053C29.9469 11.2858 29.8746 11.3132 30.123 11.3474C30.3756 11.2489 30.5458 10.9776 30.7234 10.7548Z" fill="#F3BC6A"/>
<path d="M24.1203 8.2718C24.3615 8.34576 24.1598 8.63428 24.2846 8.86686C24.4437 9.00381 24.6867 9.00714 24.8857 9.03513C24.6033 9.39395 24.6093 9.63026 24.5818 10.0704L24.5138 10.1035C24.3617 9.93827 24.2931 9.58849 24.2244 9.36945C24.1534 9.5654 24.1929 9.89988 24.1941 10.1134C22.8768 10.1184 21.5978 9.76847 20.2773 9.76366C19.2719 9.76 18.1563 10.139 17.1608 10.3141C16.2213 10.4794 15.2592 10.548 14.3273 10.7511C14.1357 10.7929 13.9562 10.843 13.7966 10.9651L13.7527 10.9562C13.5415 10.6669 13.2449 10.3707 13.0704 10.0629L13.1603 10.0656C13.4203 10.2742 13.5618 10.6109 13.7863 10.86C14.7394 10.5025 15.6496 10.5133 16.6367 10.3388C17.9733 10.1025 19.338 9.61752 20.7019 9.68486C21.6035 9.72938 23.2685 10.1408 24.031 10.0212C24.0342 10.0165 24.0376 10.012 24.0406 10.0072C24.1616 9.81169 24.1748 8.52762 24.1203 8.2718Z" fill="#F5D19B"/>
<path d="M14.0435 12.7269C14.0484 12.4483 13.9592 12.1411 14.0576 11.923L14.146 11.942C14.4104 12.1739 14.3079 12.2081 14.4759 12.4841L14.4918 12.5099C14.6016 12.6585 14.5431 12.7422 14.607 12.8806C14.447 13.3355 14.3252 13.4619 13.7996 13.4525C13.73 13.3909 13.7498 13.4029 13.7136 13.3029C13.7542 13.0764 13.9054 12.9114 14.0435 12.7269Z" fill="#F3BC6A"/>
<path d="M14.0435 12.7269C14.3265 12.9639 14.0688 13.3244 13.7996 13.4525C13.73 13.3909 13.7498 13.4029 13.7136 13.3029C13.7542 13.0764 13.9054 12.9114 14.0435 12.7269Z" fill="#E7AF60"/>
<path d="M14.8847 12.6628C14.8099 12.4679 14.7969 12.5118 14.8213 12.3253L14.8957 12.2878C15.0746 12.4028 15.0276 12.3859 15.1428 12.6088L15.1762 12.6685L15.2482 12.681L15.3773 12.4555L15.412 12.3751C15.5977 12.4357 15.6106 12.5676 15.6123 12.7515C15.5571 12.8608 15.5891 12.8258 15.4937 12.8912L15.3863 12.9106L15.3398 13.0227L15.2554 13.034C15.1853 12.9429 15.2067 12.9387 15.1226 12.9219C14.898 13.2699 15.1112 13.2345 14.9812 13.3304L15.0279 13.2618C14.853 13.3497 14.9275 13.3397 14.7315 13.2937C14.6653 13.1472 14.6932 13.1705 14.7401 12.9748C14.8112 12.8824 14.7295 12.8497 14.8847 12.6628Z" fill="#F3BC6A"/>
<path d="M15.3773 12.4555L15.412 12.3751C15.5977 12.4357 15.6106 12.5676 15.6123 12.7515C15.5571 12.8608 15.5891 12.8258 15.4937 12.8912L15.3863 12.9106C15.3281 12.9164 15.3309 12.9117 15.2797 12.8806C15.3155 12.7397 15.348 12.598 15.3773 12.4555Z" fill="#E7AF60"/>
<path d="M14.8847 12.6628C14.8099 12.4679 14.7969 12.5118 14.8213 12.3253L14.8957 12.2878C15.0746 12.4028 15.0276 12.3859 15.1428 12.6088L15.0413 12.7192C14.9891 12.7039 14.9306 12.6907 14.8847 12.6628Z" fill="#E7AF60"/>
<path d="M23.7075 9.1354C23.8611 9.25639 23.8909 9.29673 23.9454 9.49687C23.9823 9.63248 23.9766 9.74053 23.9107 9.86037L23.7798 9.88983C23.6878 9.86091 23.5777 9.83488 23.4947 9.78488C23.4002 9.72785 23.3916 9.68648 23.3625 9.5823C23.4093 9.39538 23.5765 9.26478 23.7075 9.1354Z" fill="#F5D19B"/>
<path d="M15.5286 11.9339C15.5834 11.9305 15.6376 11.9302 15.6922 11.9378C16.0584 11.9886 16.5869 12.3168 16.8107 12.6201L16.7899 12.7727C16.444 12.5723 16.1037 12.3727 15.7491 12.189C15.6124 12.1182 15.5766 12.0824 15.5286 11.9339Z" fill="#F3BC6A"/>
<path d="M25.2099 8.70735C25.2496 8.72677 25.2801 8.74714 25.3138 8.77657C25.5092 8.94727 25.7794 9.34927 25.7922 9.60329C25.7351 9.61973 25.6932 9.64682 25.6379 9.61089C25.4126 9.46473 25.2641 8.96184 25.2099 8.70735Z" fill="#F5D19B"/>
<path d="M25.1027 9.3203C25.2193 9.3725 25.2214 9.37328 25.2751 9.49169C25.28 9.65147 25.2173 9.77635 25.1548 9.91917C25.0844 9.86876 25.0524 9.79467 25.0114 9.71944C24.9884 9.56058 25.0374 9.46146 25.1027 9.3203Z" fill="#F5D19B"/>
<path d="M33.6579 34.0977C33.6392 34.0699 33.6213 34.0418 33.6041 34.0131C32.817 32.6993 33.1164 31.2009 33.9207 29.972C34.0583 29.7618 34.2276 29.3205 34.4274 29.1964C34.6638 29.3091 34.8125 30.0036 34.9259 30.3119L34.7734 30.5056C34.8874 30.8206 35.1303 31.4483 35.1375 31.7652C35.2963 32.381 35.1236 33.2679 34.877 33.8304C34.7801 34.0162 34.492 34.4583 34.4819 34.6056C34.6259 34.601 34.8162 34.4506 34.8902 34.3289C35.2952 34.2895 36.4643 34.1627 36.8037 34.3587C36.9118 34.3279 37.0141 34.3149 37.1247 34.2977L37.327 34.4257L37.5629 34.3878C37.3672 34.5511 37.3135 34.6608 37.1841 34.8781C37.0539 35.0368 36.8222 34.9888 36.6625 35.1177C36.6568 35.1248 36.6512 35.1319 36.6455 35.139C36.5904 35.2068 36.5417 35.2509 36.4676 35.2952C36.5631 35.3109 36.6299 35.2307 36.7256 35.3125C37.0587 35.2037 37.405 35.1784 37.7508 35.1427C37.7666 35.1172 37.7821 35.0905 37.8026 35.0684C37.9929 34.8638 38.5482 34.9437 38.8181 34.9503C38.8659 34.9638 38.9989 34.9843 39.0215 35.0247C39.1148 35.1913 39.1056 35.4578 39.1211 35.6482C39.2429 35.7039 39.4014 35.7558 39.4874 35.8635C39.8262 36.0913 40.3 36.3428 40.3966 36.7817C40.4403 36.9801 40.379 37.1744 40.2707 37.3392C40.0135 37.7306 39.4435 38.1853 39.0295 38.3729C38.9414 38.4059 38.8456 38.4527 38.7536 38.4694L38.5654 38.9859C38.3322 39.3962 37.8254 39.6346 37.3972 39.7497C37.1948 39.8041 36.9865 39.8374 36.78 39.8704C36.6697 39.9831 36.5242 40.1032 36.4539 40.2467C35.9925 40.6503 34.9761 40.8305 34.3873 40.7717C34.3668 40.7696 34.3465 40.7658 34.3261 40.7625C34.2763 40.674 33.9953 40.5884 33.8936 40.5437L34.1308 40.5077L34.1693 40.4065C33.3149 40.3013 32.7798 39.7641 32.0683 39.3309C31.7093 39.1122 31.3207 38.9404 30.9412 38.7631L30.7976 38.7873C30.4612 38.7551 29.3898 39.2871 29.0543 39.4497C28.6293 39.659 27.4743 40.1324 27.1756 40.4452L27.0711 40.8148C26.7968 41.0044 26.5186 41.19 26.2615 41.404C26.4478 41.4232 26.6557 41.426 26.8352 41.4806C26.5858 41.4851 26.3374 41.4814 26.0926 41.5367C26.1766 41.6308 26.3135 41.6712 26.4273 41.7188L26.3272 41.7613C25.5409 41.7386 25.056 42.4362 24.2801 42.5L24.2143 42.3078C24.5466 42.2744 24.9702 41.8762 25.2397 41.6707C25.2368 41.6658 25.2341 41.6608 25.2311 41.6561C25.1399 41.5118 25.0894 41.4844 24.9301 41.4457L24.6558 41.6701L24.6236 41.6301L24.6988 41.2278C25.3954 40.7828 26.0076 40.2477 26.7379 39.8384L26.7985 39.7168C26.8177 39.5105 26.8192 39.329 26.7978 39.1222C26.8372 39.0082 26.8537 38.8871 26.8749 38.7684L26.9892 38.7136C27.0615 38.5223 27.0533 38.2806 27.1128 38.0785C27.3445 37.2902 27.8988 36.5362 28.6068 36.1417C28.8018 35.9704 29.0018 35.8128 29.2103 35.6593L29.2876 35.5753C29.3983 35.6496 29.3938 35.7479 29.4275 35.8765C29.5853 35.7525 29.5688 35.6053 29.7609 35.4346C29.6613 35.6332 29.5401 35.8278 29.5446 36.0579L29.579 36.1477C29.7608 36.0261 29.8072 35.7777 29.9721 35.6416C30.2482 35.32 31.6174 34.3133 31.9963 34.5172C32.015 34.6728 31.845 35.2299 31.7948 35.4154C32.46 34.6497 32.7166 34.4391 33.6579 34.0977Z" fill="#763D15"/>
<path d="M38.8181 34.9503C38.8659 34.9638 38.9989 34.9843 39.0215 35.0247C39.1148 35.1913 39.1056 35.4578 39.1211 35.6482C39.2429 35.7039 39.4014 35.7558 39.4874 35.8635C39.8262 36.0913 40.3 36.3428 40.3966 36.7817C40.4403 36.9801 40.379 37.1744 40.2707 37.3392C40.0135 37.7306 39.4435 38.1853 39.0295 38.3729C38.9414 38.4059 38.8456 38.4527 38.7536 38.4694L38.5654 38.9859C38.3322 39.3962 37.8254 39.6346 37.3972 39.7497C37.1948 39.8041 36.9865 39.8374 36.78 39.8704C36.6697 39.9831 36.5242 40.1032 36.4539 40.2467C35.9925 40.6503 34.9761 40.8305 34.3873 40.7717C34.3668 40.7696 34.3465 40.7658 34.3261 40.7625C34.2763 40.674 33.9953 40.5884 33.8936 40.5437L34.1308 40.5077L34.1693 40.4065C33.3149 40.3013 32.7798 39.7641 32.0683 39.3309C31.7093 39.1122 31.3207 38.9404 30.9412 38.7631C31.0922 38.6005 31.3272 38.4367 31.5444 38.4006C31.7267 38.3891 31.9074 38.3235 32.0825 38.2724C31.8301 38.2557 31.6713 38.3735 31.4453 38.3288L31.4505 38.3071C31.9505 38.0455 32.6459 37.9393 33.2019 37.9321C33.179 37.9283 33.1562 37.9241 33.1335 37.9195C32.9861 37.8905 32.9108 37.8612 32.8257 37.7324C32.8385 37.7051 32.8517 37.6814 32.8743 37.6612C33.3794 37.2079 34.5705 37.1516 35.2096 37.2248L34.982 37.0648L35.0431 37.0115L35.0344 36.9536C35.0713 36.8317 35.2401 36.7264 35.338 36.6428C35.5346 36.4022 35.738 36.1701 35.946 35.9399C36.1831 35.6621 36.4251 35.5057 36.7256 35.3125C37.0587 35.2037 37.405 35.1784 37.7508 35.1427C37.7666 35.1172 37.7821 35.0905 37.8026 35.0684C37.9929 34.8638 38.5482 34.9437 38.8181 34.9503Z" fill="#6A3311"/>
<path d="M38.8181 34.9503C38.8659 34.9638 38.9989 34.9843 39.0215 35.0247C39.1148 35.1913 39.1056 35.4578 39.1211 35.6482C39.2429 35.7039 39.4014 35.7558 39.4874 35.8635C39.8262 36.0913 40.3 36.3428 40.3966 36.7817C40.4403 36.9801 40.379 37.1744 40.2707 37.3392C40.0135 37.7306 39.4435 38.1853 39.0295 38.3729C38.8331 38.3802 38.6439 38.3923 38.4507 38.3464L38.444 38.2747L38.6168 38.1766C38.4184 38.1816 38.1833 38.207 37.9891 38.1649C37.6696 38.0958 37.3604 37.9071 37.0727 37.755C36.3797 37.3888 35.8207 37.1307 35.0431 37.0115L35.0344 36.9536C35.0713 36.8317 35.2401 36.7264 35.338 36.6428C35.5346 36.4022 35.738 36.1701 35.946 35.9399C36.1831 35.6621 36.4251 35.5057 36.7256 35.3125C37.0587 35.2037 37.405 35.1784 37.7508 35.1427C37.7666 35.1172 37.7821 35.0905 37.8026 35.0684C37.9929 34.8638 38.5482 34.9437 38.8181 34.9503Z" fill="#D79D55"/>
<path d="M38.8181 34.9503C38.8659 34.9638 38.9989 34.9843 39.0215 35.0247C39.1148 35.1913 39.1056 35.4578 39.1211 35.6482C39.2429 35.7039 39.4014 35.7558 39.4874 35.8635L39.2972 35.9837C39.334 36.06 39.3833 36.1126 39.4397 36.1735C39.0698 36.0213 38.7943 35.8996 38.4011 36.0748C37.9619 36.2705 37.6316 36.6974 37.2187 36.9451C36.9582 37.0229 36.6836 37.1259 36.4133 37.1505L36.3816 37.0928C35.9303 37.1941 35.5073 36.9109 35.0344 36.9536C35.0713 36.8317 35.2401 36.7264 35.338 36.6428C35.5346 36.4022 35.738 36.1701 35.946 35.9399C36.1831 35.6621 36.4251 35.5057 36.7256 35.3125C37.0587 35.2037 37.405 35.1784 37.7508 35.1427C37.7666 35.1172 37.7821 35.0905 37.8026 35.0684C37.9929 34.8638 38.5482 34.9437 38.8181 34.9503Z" fill="#D79D55"/>
<path d="M37.7508 35.1427L38.5566 35.1747L38.6331 35.273C38.6218 35.2941 38.6171 35.3206 38.5993 35.3363C38.5094 35.4157 38.16 35.4901 38.0306 35.5509C37.6098 35.7486 37.2203 36.0006 36.8106 36.2195C36.6669 36.2962 36.5038 36.3343 36.3636 36.4093C36.2686 36.3738 36.1328 36.3361 36.0523 36.2742C35.9494 36.1951 35.9617 36.06 35.946 35.9399C36.1831 35.6621 36.4251 35.5057 36.7256 35.3125C37.0587 35.2037 37.405 35.1784 37.7508 35.1427Z" fill="#F1C887"/>
<path d="M38.8181 34.9503C38.8659 34.9638 38.9989 34.9843 39.0215 35.0247C39.1148 35.1913 39.1056 35.4578 39.1211 35.6482C39.2429 35.7039 39.4014 35.7558 39.4874 35.8635L39.2972 35.9837C39.334 36.06 39.3833 36.1126 39.4397 36.1735C39.0698 36.0213 38.7943 35.8996 38.4011 36.0748C37.9619 36.2705 37.6316 36.6974 37.2187 36.9451C36.9582 37.0229 36.6836 37.1259 36.4133 37.1505L36.3816 37.0928C37.1109 36.9229 38.2091 36.0653 38.6372 35.4275C38.6936 35.3435 38.71 35.317 38.6934 35.217L38.5566 35.1747L37.7508 35.1427C37.7666 35.1172 37.7821 35.0905 37.8026 35.0684C37.9929 34.8638 38.5482 34.9437 38.8181 34.9503Z" fill="#602D0F"/>
<path d="M35.946 35.9399C35.9617 36.06 35.9494 36.1951 36.0523 36.2742C36.1328 36.3361 36.2686 36.3738 36.3636 36.4093C36.0904 36.5095 35.7305 36.723 35.4463 36.7284L35.338 36.6428C35.5346 36.4022 35.738 36.1701 35.946 35.9399Z" fill="var(--fill-0, #E5A445)"/>
<path d="M37.2187 36.9451C37.6316 36.6974 37.9619 36.2705 38.4011 36.0748C38.7943 35.8996 39.0698 36.0213 39.4397 36.1735L39.4741 36.1955C39.4001 36.478 39.0945 36.6441 38.8547 36.7852C38.432 37.0342 37.862 37.2026 37.3808 37.0623C37.3092 37.0414 37.2604 37.0089 37.2187 36.9451Z" fill="#F3BC6A"/>
<path d="M39.4397 36.1735C39.3833 36.1126 39.334 36.06 39.2972 35.9837L39.4874 35.8635C39.8262 36.0913 40.3 36.3428 40.3966 36.7817C40.4403 36.9801 40.379 37.1744 40.2707 37.3392C40.0135 37.7306 39.4435 38.1853 39.0295 38.3729C38.8331 38.3802 38.6439 38.3923 38.4507 38.3464L38.444 38.2747L38.6168 38.1766C39.1048 38.0861 39.8612 37.4775 40.1491 37.067C40.2319 36.9489 40.245 36.8904 40.2268 36.7486C40.0465 36.4944 39.7435 36.3324 39.4741 36.1955L39.4397 36.1735Z" fill="#1B0200"/>
<path d="M32.0825 38.2724C33.1338 38.1097 34.0649 38.2257 34.9463 38.8905C34.9688 38.9074 34.9911 38.9246 35.0133 38.942C35.3556 39.2155 36.081 39.7081 36.2128 40.131C36.2926 40.1826 36.3637 40.2185 36.4539 40.2467C35.9925 40.6503 34.9761 40.8305 34.3873 40.7717C34.3668 40.7696 34.3465 40.7658 34.3261 40.7625C34.2763 40.674 33.9953 40.5884 33.8936 40.5437L34.1308 40.5077L34.1693 40.4065C33.3149 40.3013 32.7798 39.7641 32.0683 39.3309C31.7093 39.1122 31.3207 38.9404 30.9412 38.7631C31.0922 38.6005 31.3272 38.4367 31.5444 38.4006C31.7267 38.3891 31.9074 38.3235 32.0825 38.2724Z" fill="#D79D55"/>
<path d="M32.0825 38.2724C33.1338 38.1097 34.0649 38.2257 34.9463 38.8905C34.9688 38.9074 34.9911 38.9246 35.0133 38.942C35.0134 39.2751 34.8864 39.5562 34.7914 39.869C34.1064 39.6134 33.4673 39.2345 32.7858 38.972C32.4668 38.8492 31.68 38.7029 31.4507 38.521L31.5444 38.4006C31.7267 38.3891 31.9074 38.3235 32.0825 38.2724Z" fill="#F3BC6A"/>
<path d="M34.1693 40.4065C34.8835 40.4027 35.5268 40.3546 36.2128 40.131C36.2926 40.1826 36.3637 40.2185 36.4539 40.2467C35.9925 40.6503 34.9761 40.8305 34.3873 40.7717C34.3668 40.7696 34.3465 40.7658 34.3261 40.7625C34.2763 40.674 33.9953 40.5884 33.8936 40.5437L34.1308 40.5077L34.1693 40.4065Z" fill="#763D15"/>
<path d="M33.2019 37.9321C33.179 37.9283 33.1562 37.9241 33.1335 37.9195C32.9861 37.8905 32.9108 37.8612 32.8257 37.7324C32.8385 37.7051 32.8517 37.6814 32.8743 37.6612C33.3794 37.2079 34.5705 37.1516 35.2096 37.2248C36.0213 37.3364 37.0883 37.9627 37.6746 38.5448C37.6537 38.6163 37.6446 38.6949 37.6311 38.7685C36.5848 39.3115 35.391 37.8288 34.2598 38.1011L34.3265 38.2654L34.3781 38.1697L34.3905 38.1992L34.3211 38.2644C33.9656 38.0861 33.5913 37.9907 33.2019 37.9321Z" fill="#F3BC6A"/>
<path d="M34.3211 38.2644L34.3905 38.1992L34.3781 38.1697L34.3265 38.2654L34.2598 38.1011C35.391 37.8288 36.5848 39.3115 37.6311 38.7685C37.6446 38.6949 37.6537 38.6163 37.6746 38.5448L37.7203 38.5335C37.9333 38.7113 38.1318 38.8917 38.3224 39.0947C37.9108 39.2136 37.5075 39.3886 37.0893 39.4782C36.1736 39.6742 35.7203 39.2245 35.0292 38.7117C34.8056 38.5458 34.5528 38.4195 34.3211 38.2644Z" fill="#D79D55"/>
<path d="M37.945 38.5074C38.149 38.3997 38.5297 38.4416 38.7536 38.4694L38.5654 38.9859L37.945 38.5074Z" fill="var(--fill-0, #E5A445)"/>
<path d="M33.4231 33.3318C33.2944 32.0629 33.351 31.5065 33.9046 30.3759C34.0464 30.0861 34.175 29.7563 34.3741 29.4954C34.5075 29.5564 34.5079 29.6264 34.5918 29.7854C34.6543 30.025 34.7148 30.265 34.7734 30.5056C34.8874 30.8206 35.1303 31.4483 35.1375 31.7652C35.2963 32.381 35.1236 33.2679 34.877 33.8304C34.7801 34.0162 34.492 34.4583 34.4819 34.6056C34.6259 34.601 34.8162 34.4506 34.8902 34.3289C35.2952 34.2895 36.4643 34.1627 36.8037 34.3587C35.584 35.0949 34.9818 34.4529 33.4938 35.8814C33.6738 35.4331 33.9624 34.5088 34.2473 34.1974C33.8744 34.1403 33.6344 33.6458 33.4231 33.3318Z" fill="#D09044"/>
<path d="M34.2393 33.8611C34.3019 33.3397 33.8433 32.3825 33.9444 31.6959C33.991 31.3789 34.4108 29.9329 34.5918 29.7854C34.6543 30.025 34.7148 30.265 34.7734 30.5056C34.8874 30.8206 35.1303 31.4483 35.1375 31.7652C35.1425 31.9783 35.1754 32.2038 35.058 32.3719C34.8573 32.4804 34.6675 32.2943 34.5507 32.1234C34.4843 31.8546 34.4304 31.6443 34.3409 31.3829C34.3229 31.7463 34.3446 33.7057 34.2393 33.8611Z" fill="#F3BC6A"/>
<path d="M35.1375 31.7652C35.2963 32.381 35.1236 33.2679 34.877 33.8304C34.7957 33.9184 34.7198 33.9821 34.6298 34.0597C34.5637 33.9771 34.6175 33.8882 34.6331 33.7686C34.7078 33.1958 34.6471 32.6868 34.5507 32.1234C34.6675 32.2943 34.8573 32.4804 35.058 32.3719C35.1754 32.2038 35.1425 31.9783 35.1375 31.7652Z" fill="#E7AF60"/>
<path d="M29.2103 35.6593C29.363 36.087 29.2199 37.2981 29.1209 37.7679C28.8146 38.5754 28.6123 38.9691 27.8358 39.3611C27.609 39.494 27.3883 39.6253 27.1427 39.7185C27.1089 39.7003 27.0774 39.6887 27.0544 39.6564C26.9841 39.7366 26.9575 39.8045 26.8488 39.811L26.7985 39.7168C26.8177 39.5105 26.8192 39.329 26.7978 39.1222C26.8372 39.0082 26.8537 38.8871 26.8749 38.7684L26.9892 38.7136C27.0615 38.5223 27.0533 38.2806 27.1128 38.0785C27.3445 37.2902 27.8988 36.5362 28.6068 36.1417C28.8018 35.9704 29.0018 35.8128 29.2103 35.6593Z" fill="#F3BC6A"/>
<path d="M26.9892 38.7136C27.0615 38.5223 27.0533 38.2806 27.1128 38.0785C27.3445 37.2902 27.8988 36.5362 28.6068 36.1417C28.497 36.6197 27.9981 37.1576 27.8005 37.6598C27.5836 38.2108 27.6229 38.7402 27.5003 39.2987L27.5618 39.3666C27.6525 39.3546 27.7472 39.3312 27.8358 39.3611C27.609 39.494 27.3883 39.6253 27.1427 39.7185C27.1089 39.7003 27.0774 39.6887 27.0544 39.6564C26.9841 39.7366 26.9575 39.8045 26.8488 39.811L26.7985 39.7168C26.8177 39.5105 26.8192 39.329 26.7978 39.1222C26.8372 39.0082 26.8537 38.8871 26.8749 38.7684L26.9892 38.7136Z" fill="#D09044"/>
<path d="M26.8749 38.7684L26.9892 38.7136C26.9729 39.038 27.0059 39.336 27.0544 39.6564C26.9841 39.7366 26.9575 39.8045 26.8488 39.811L26.7985 39.7168C26.8177 39.5105 26.8192 39.329 26.7978 39.1222C26.8372 39.0082 26.8537 38.8871 26.8749 38.7684Z" fill="#1B0200"/>
<path d="M27.2246 39.8752C28.3197 39.4639 29.3368 38.6722 30.4946 38.4503C30.6526 38.6025 30.808 38.5378 30.9584 38.6545C30.9253 38.7437 30.8767 38.7482 30.7976 38.7873C30.4612 38.7551 29.3898 39.2871 29.0543 39.4497C28.6293 39.659 27.4743 40.1324 27.1756 40.4452L27.0711 40.8148C26.7968 41.0044 26.5186 41.19 26.2615 41.404C26.4478 41.4232 26.6557 41.426 26.8352 41.4806C26.5858 41.4851 26.3374 41.4814 26.0926 41.5367C26.1766 41.6308 26.3135 41.6712 26.4273 41.7188L26.3272 41.7613C25.5409 41.7386 25.056 42.4362 24.2801 42.5L24.2143 42.3078C24.5466 42.2744 24.9702 41.8762 25.2397 41.6707C25.2368 41.6658 25.2341 41.6608 25.2311 41.6561C25.1399 41.5118 25.0894 41.4844 24.9301 41.4457L24.6558 41.6701L24.6236 41.6301L24.6988 41.2278C25.3954 40.7828 26.0076 40.2477 26.7379 39.8384C26.878 39.8335 27.1076 39.7934 27.2246 39.8752Z" fill="#E7AB58"/>
<path d="M25.2397 41.6707C25.9056 41.2969 26.4832 40.7821 27.1756 40.4452L27.0711 40.8148C26.7968 41.0044 26.5186 41.19 26.2615 41.404C26.4478 41.4232 26.6557 41.426 26.8352 41.4806C26.5858 41.4851 26.3374 41.4814 26.0926 41.5367C26.1766 41.6308 26.3135 41.6712 26.4273 41.7188L26.3272 41.7613C25.5409 41.7386 25.056 42.4362 24.2801 42.5L24.2143 42.3078C24.5466 42.2744 24.9702 41.8762 25.2397 41.6707Z" fill="#763D15"/>
<path d="M26.7379 39.8384C26.878 39.8335 27.1076 39.7934 27.2246 39.8752C26.3799 40.3434 25.6588 40.7895 24.9301 41.4457L24.6558 41.6701L24.6236 41.6301L24.6988 41.2278C25.3954 40.7828 26.0076 40.2477 26.7379 39.8384Z" fill="#310803"/>
<path d="M36.5361 34.8108L36.4439 35.0664C36.5246 35.1263 36.5682 35.1155 36.6625 35.1177C36.6568 35.1248 36.6512 35.1319 36.6455 35.139C36.5904 35.2068 36.5417 35.2509 36.4676 35.2952C36.5631 35.3109 36.6299 35.2307 36.7256 35.3125C36.4251 35.5057 36.1831 35.6621 35.946 35.9399C35.738 36.1701 35.5346 36.4022 35.338 36.6428C35.2401 36.7264 35.0713 36.8317 35.0344 36.9536L35.0431 37.0115L34.982 37.0648C34.9621 36.9875 34.9282 36.9396 34.8817 36.8762C34.5509 37.0483 33.6815 37.1656 33.2354 37.3235C34.192 36.025 34.505 35.4388 36.0605 34.8798L36.5361 34.8108Z" fill="#E7AF60"/>
<path d="M36.5361 34.8108L36.4439 35.0664C36.5246 35.1263 36.5682 35.1155 36.6625 35.1177C36.6568 35.1248 36.6512 35.1319 36.6455 35.139C36.5904 35.2068 36.5417 35.2509 36.4676 35.2952C36.5631 35.3109 36.6299 35.2307 36.7256 35.3125C36.4251 35.5057 36.1831 35.6621 35.946 35.9399C35.738 36.1701 35.5346 36.4022 35.338 36.6428C35.2401 36.7264 35.0713 36.8317 35.0344 36.9536L35.0431 37.0115L34.982 37.0648C34.9621 36.9875 34.9282 36.9396 34.8817 36.8762C34.9725 36.5932 36.1825 35.3125 36.212 34.9382L36.0605 34.8798L36.5361 34.8108Z" fill="#8F5125"/>
<path d="M30.3491 35.9098C30.5604 35.723 30.9232 35.4038 31.2173 35.4219C31.3116 35.4278 31.3872 35.4527 31.4471 35.5343C31.5181 35.6309 31.5298 35.7537 31.5238 35.87L31.5465 35.9958C31.4334 36.3805 31.3376 36.7907 31.1372 37.1388C30.7509 37.2569 30.4433 37.5171 30.0885 37.7037C29.9595 37.7551 29.8948 37.771 29.7599 37.7287C30.0039 37.1377 30.0821 36.5023 30.3491 35.9098Z" fill="#F1C887"/>
<path d="M31.5238 35.87L31.5465 35.9958C31.4334 36.3805 31.3376 36.7907 31.1372 37.1388C30.7509 37.2569 30.4433 37.5171 30.0885 37.7037C30.577 37.1206 31.1414 36.5313 31.5238 35.87Z" fill="#F3BC6A"/>
<path d="M30.7099 35.3266L30.689 35.3562C30.5318 35.5756 30.4158 35.6321 30.3491 35.9098C30.0821 36.5023 30.0039 37.1377 29.7599 37.7287C29.6458 37.9161 29.5733 38.1309 29.6196 38.3515C29.6691 38.3983 29.7176 38.451 29.7776 38.483C29.5993 38.5638 29.4207 38.6461 29.2397 38.7207C29.1331 38.7646 29.0194 38.8128 28.9117 38.7657C28.9078 38.4991 29.1781 38.0846 29.2551 37.7963L29.1209 37.7679C29.2199 37.2981 29.363 36.087 29.2103 35.6593L29.2876 35.5753C29.3983 35.6496 29.3938 35.7479 29.4275 35.8765C29.5853 35.7525 29.5688 35.6053 29.7609 35.4346C29.6613 35.6332 29.5401 35.8278 29.5446 36.0579L29.579 36.1477C29.7608 36.0261 29.8072 35.7777 29.9721 35.6416L30.13 35.7373C30.3114 35.5714 30.4999 35.4503 30.7099 35.3266Z" fill="#D79D55"/>
<path d="M29.2103 35.6593L29.2876 35.5753C29.3983 35.6496 29.3938 35.7479 29.4275 35.8765C29.5853 35.7525 29.5688 35.6053 29.7609 35.4346C29.6613 35.6332 29.5401 35.8278 29.5446 36.0579L29.579 36.1477C29.7608 36.0261 29.8072 35.7777 29.9721 35.6416L30.13 35.7373C29.649 36.4151 29.4141 36.9713 29.2551 37.7963L29.1209 37.7679C29.2199 37.2981 29.363 36.087 29.2103 35.6593Z" fill="#8F5125"/>
<path d="M30.0885 37.7037C30.4433 37.5171 30.7509 37.2569 31.1372 37.1388C30.7717 37.7124 30.4201 38.2181 29.7776 38.483C29.7176 38.451 29.6691 38.3983 29.6196 38.3515C29.5733 38.1309 29.6458 37.9161 29.7599 37.7287C29.8948 37.771 29.9595 37.7551 30.0885 37.7037Z" fill="#E7AF60"/>
<path d="M30.7099 35.3266C31.1031 35.0664 31.5129 34.8176 31.8798 34.519C31.6881 35.006 31.6147 35.4782 31.5465 35.9958L31.5238 35.87C31.5298 35.7537 31.5181 35.6309 31.4471 35.5343C31.3872 35.4527 31.3116 35.4278 31.2173 35.4219C30.9232 35.4038 30.5604 35.723 30.3491 35.9098C30.4158 35.6321 30.5318 35.5756 30.689 35.3562L30.7099 35.3266Z" fill="var(--fill-0, #E5A445)"/>
<path d="M37.327 34.4257L37.5629 34.3878C37.3672 34.5511 37.3135 34.6608 37.1841 34.8781C37.0539 35.0368 36.8222 34.9888 36.6625 35.1177C36.5682 35.1155 36.5246 35.1263 36.4439 35.0664L36.5361 34.8108C36.643 34.6454 37.1256 34.4978 37.327 34.4257Z" fill="#D79D55"/>
<path d="M31.8717 35.6827L31.8864 35.6531C32.2692 34.8972 33.1757 34.58 33.9141 34.3478C33.8214 34.5788 33.7471 34.8081 33.681 35.0485C33.3336 36.1555 32.8514 37.0341 31.8057 37.5816C31.4366 37.7749 31.0601 37.956 30.6872 38.1416C30.9066 37.7922 31.1519 37.4432 31.3309 37.0702C31.5478 36.623 31.7059 36.1516 31.8717 35.6827Z" fill="#D79D55"/>
<path d="M31.8717 35.6827L31.8864 35.6531C32.2692 34.8972 33.1757 34.58 33.9141 34.3478C33.8214 34.5788 33.7471 34.8081 33.681 35.0485C33.5695 35.1216 33.4416 35.1391 33.3478 35.2138C32.8775 35.5885 32.5564 36.1805 32.1087 36.5957C31.9255 36.2863 31.8804 36.0394 31.8717 35.6827Z" fill="#F1C887"/>
<path d="M31.3309 37.0702C31.5478 36.623 31.7059 36.1516 31.8717 35.6827C31.8804 36.0394 31.9255 36.2863 32.1087 36.5957C31.8779 36.8347 31.6833 37.0668 31.3309 37.0702Z" fill="#F3BC6A"/>
<path d="M34.2076 35.4934L34.2589 35.5782C34.1011 36.0815 33.1627 37.199 32.7127 37.4558C32.6554 37.3594 32.6522 37.3536 32.6654 37.2418C33.1292 36.6308 33.547 35.8844 34.2076 35.4934Z" fill="var(--fill-0, #E5A445)"/>
<path d="M40.7528 20.968C41.2265 20.8129 41.417 20.9927 41.5583 21.4949C41.7772 22.2722 41.7519 23.0697 41.639 23.8636C41.5646 24.3002 41.4394 24.7591 41.3746 25.1632C41.8591 25.0058 41.9451 24.9847 42.4413 24.8957C42.4005 25.715 42.3328 26.3656 41.8273 27.0374C41.699 27.208 41.5284 27.3796 41.4814 27.5817C41.6316 27.7405 42.2641 27.6332 42.5 27.6113C42.3271 28.0127 41.8867 28.9269 41.5452 29.1818C41.4097 29.424 41.399 29.6055 41.3588 29.8802L41.1562 29.8671C41.1439 29.8615 40.8273 29.7773 40.7538 29.7518C40.5968 29.7716 40.5716 29.778 40.4369 29.6936C39.5916 29.6552 38.533 29.7664 37.8001 30.2166C37.6536 30.3625 37.3413 30.7005 37.1749 30.7716L37.1407 30.7179L37.1543 30.664L37.0416 30.5786L36.9237 30.736C36.8545 30.5066 36.8927 30.3629 36.9285 30.129C37.2491 28.9862 36.7805 28.6801 36.6444 27.751L36.6415 27.7305C36.5889 27.6745 36.3992 27.2926 36.3511 27.1998L36.3609 27.148L36.4739 27.131L36.4826 27.0622C36.564 26.8051 36.5173 26.2313 36.4944 25.9548L36.5132 25.8211C36.6249 25.4886 37.1486 23.9918 37.5589 24.1058L37.5961 24.2655C37.6638 24.3306 37.7015 24.3797 37.7901 24.4062C38.0422 24.316 38.2057 23.7038 38.287 23.4568C38.3548 23.2077 38.6825 22.6402 38.9767 22.7116L39.0321 22.8543L39.0835 23.1229C39.4417 22.7112 40.4652 21.197 40.7528 20.968Z" fill="#602D0F"/>
<path d="M38.287 23.4568C38.3548 23.2077 38.6825 22.6402 38.9767 22.7116L39.0321 22.8543L39.0835 23.1229C39.1126 23.2446 39.0413 23.3577 38.9875 23.4738C39.1381 24.2487 39.6191 25.1247 39.5555 25.7926L39.4646 26.2412C39.3049 26.421 39.259 26.4529 39.3608 26.7019C39.1148 27.0557 38.9219 27.52 38.7974 27.9361C38.7217 27.9639 38.7562 27.9649 38.6886 27.9536C38.6554 28.1081 38.6671 28.2175 38.646 28.3092C38.6167 28.4369 38.515 28.6408 38.4735 28.7907C38.531 28.8239 38.6063 28.8624 38.6551 28.9047C38.3767 29.1959 38.1688 29.4608 37.9199 29.7756C37.8856 29.9715 37.7958 30.0205 37.8001 30.2166C37.6536 30.3625 37.3413 30.7005 37.1749 30.7716L37.1407 30.7179L37.1543 30.664L37.0416 30.5786L36.9237 30.736C36.8545 30.5066 36.8927 30.3629 36.9285 30.129C37.2491 28.9862 36.7805 28.6801 36.6444 27.751L36.6415 27.7305C36.5889 27.6745 36.3992 27.2926 36.3511 27.1998L36.3609 27.148L36.4739 27.131L36.4826 27.0622C36.564 26.8051 36.5173 26.2313 36.4944 25.9548L36.5132 25.8211C36.6249 25.4886 37.1486 23.9918 37.5589 24.1058L37.5961 24.2655C37.6638 24.3306 37.7015 24.3797 37.7901 24.4062C38.0422 24.316 38.2057 23.7038 38.287 23.4568Z" fill="#F1C887"/>
<path d="M38.287 23.4568C38.3548 23.2077 38.6825 22.6402 38.9767 22.7116L39.0321 22.8543L39.0835 23.1229C39.1126 23.2446 39.0413 23.3577 38.9875 23.4738C39.1381 24.2487 39.6191 25.1247 39.5555 25.7926L39.4646 26.2412C39.3049 26.421 39.259 26.4529 39.3608 26.7019C39.1148 27.0557 38.9219 27.52 38.7974 27.9361C38.7217 27.9639 38.7562 27.9649 38.6886 27.9536C38.8189 26.2496 37.8941 25.8622 38.2427 24.5503L38.2192 24.4827C38.2614 24.3982 38.3938 23.954 38.429 23.8411C38.3796 23.7139 38.3323 23.5857 38.287 23.4568Z" fill="#F1C887"/>
<path d="M38.6886 27.9536C38.8189 26.2496 37.8941 25.8622 38.2427 24.5503C38.2435 24.7638 38.2258 25.1731 38.2986 25.3515L38.3284 25.3553C39.0872 25.4575 38.6096 26.5758 39.0123 26.6715C39.1532 26.5252 39.3626 26.2151 39.3882 26.0056C39.1556 25.9879 39.1062 26.214 38.8977 26.1698C38.9811 25.8116 39.3314 25.8734 39.5555 25.7926L39.4646 26.2412C39.3049 26.421 39.259 26.4529 39.3608 26.7019C39.1148 27.0557 38.9219 27.52 38.7974 27.9361C38.7217 27.9639 38.7562 27.9649 38.6886 27.9536Z" fill="#E1A748"/>
<path d="M38.287 23.4568C38.3548 23.2077 38.6825 22.6402 38.9767 22.7116L39.0321 22.8543C38.8267 23.202 38.5612 23.488 38.429 23.8411C38.3796 23.7139 38.3323 23.5857 38.287 23.4568Z" fill="#7E461D"/>
<path d="M38.287 23.4568C38.3323 23.5857 38.3796 23.7139 38.429 23.8411C38.3938 23.954 38.2614 24.3982 38.2192 24.4827L38.2427 24.5503C37.8941 25.8622 38.8189 26.2496 38.6886 27.9536C38.6554 28.1081 38.6671 28.2175 38.646 28.3092C38.6167 28.4369 38.515 28.6408 38.4735 28.7907C38.531 28.8239 38.6063 28.8624 38.6551 28.9047C38.3767 29.1959 38.1688 29.4608 37.9199 29.7756C37.923 29.7153 38.0623 29.3049 38.0938 29.2052C38.3437 28.4129 38.5354 27.5491 38.3611 26.7143C38.2371 26.1785 37.8877 25.7058 37.6767 25.1951C37.7974 24.9111 37.5072 24.6099 37.5961 24.2655C37.6638 24.3306 37.7015 24.3797 37.7901 24.4062C38.0422 24.316 38.2057 23.7038 38.287 23.4568Z" fill="#8F5125"/>
<path d="M38.287 23.4568C38.3323 23.5857 38.3796 23.7139 38.429 23.8411C38.3938 23.954 38.2614 24.3982 38.2192 24.4827L38.0277 24.6319C37.959 24.5925 37.9678 24.554 37.9382 24.4564L37.7901 24.4062C38.0422 24.316 38.2057 23.7038 38.287 23.4568Z" fill="#763D15"/>
<path d="M38.3611 26.7143C38.5354 27.5491 38.3437 28.4129 38.0938 29.2052C38.0623 29.3049 37.923 29.7153 37.9199 29.7756C37.8856 29.9715 37.7958 30.0205 37.8001 30.2166C37.6536 30.3625 37.3413 30.7005 37.1749 30.7716L37.1407 30.7179L37.1543 30.664L37.3468 30.4101C37.6595 29.7158 37.7058 29.3488 37.4558 28.6376C37.624 28.4934 37.5577 27.8414 37.5621 27.5907C37.5823 27.4856 37.5863 27.4406 37.6406 27.3451L37.7426 27.4063L37.7432 27.4763C38.3442 27.6103 38.36 27.17 38.3611 26.7143Z" fill="#E7AF60"/>
<path d="M37.5621 27.5907C37.5823 27.4856 37.5863 27.4406 37.6406 27.3451L37.7426 27.4063L37.7432 27.4763C37.7549 28.1245 37.8848 30.0482 37.3468 30.4101C37.6595 29.7158 37.7058 29.3488 37.4558 28.6376C37.624 28.4934 37.5577 27.8414 37.5621 27.5907Z" fill="#D79D55"/>
<path d="M36.5132 25.8211C36.5839 26.1842 36.5341 27.0646 36.6986 27.218L36.7609 27.1955L36.7891 27.1164L36.9282 27.5125C37.0994 27.8761 37.2952 28.2726 37.4558 28.6376C37.7058 29.3488 37.6595 29.7158 37.3468 30.4101L37.1543 30.664L37.0416 30.5786L36.9237 30.736C36.8545 30.5066 36.8927 30.3629 36.9285 30.129C37.2491 28.9862 36.7805 28.6801 36.6444 27.751L36.6415 27.7305C36.5889 27.6745 36.3992 27.2926 36.3511 27.1998L36.3609 27.148L36.4739 27.131L36.4826 27.0622C36.564 26.8051 36.5173 26.2313 36.4944 25.9548L36.5132 25.8211Z" fill="#8F5125"/>
<path d="M36.6415 27.7305C37.3719 28.691 37.5318 29.4506 37.0416 30.5786L36.9237 30.736C36.8545 30.5066 36.8927 30.3629 36.9285 30.129C37.2491 28.9862 36.7805 28.6801 36.6444 27.751L36.6415 27.7305Z" fill="var(--fill-0, #E5A445)"/>
<path d="M36.5132 25.8211C36.6249 25.4886 37.1486 23.9918 37.5589 24.1058L37.5961 24.2655C37.5072 24.6099 37.7974 24.9111 37.6767 25.1951C37.5921 24.9905 37.4852 24.7497 37.4172 24.5421C36.8089 25.4663 36.6803 25.9756 36.7891 27.1164L36.7609 27.1955L36.6986 27.218C36.5341 27.0646 36.5839 26.1842 36.5132 25.8211Z" fill="#310803"/>
<path d="M37.4625 27.2567C37.3617 26.8364 37.3709 26.3688 37.3944 25.9387C37.4674 26.1916 37.7496 27.1758 37.7426 27.4063L37.6406 27.3451C37.5863 27.4406 37.5823 27.4856 37.5621 27.5907C37.5577 27.8414 37.624 28.4934 37.4558 28.6376C37.2952 28.2726 37.0994 27.8761 36.9282 27.5125C37.0703 27.5927 37.0948 27.612 37.256 27.6045C37.4138 27.4707 37.3765 27.4763 37.4625 27.2567Z" fill="#E7AF60"/>
<path d="M40.7528 20.968C41.2265 20.8129 41.417 20.9927 41.5583 21.4949C41.7772 22.2722 41.7519 23.0697 41.639 23.8636C41.6237 23.712 41.6055 23.5618 41.6209 23.4096C41.5761 23.5038 41.6041 23.4735 41.5143 23.524L41.4321 23.3494L41.3525 23.605C41.205 25.3759 40.5144 25.3913 39.3608 26.7019C39.259 26.4529 39.3049 26.421 39.4646 26.2412L39.5555 25.7926C39.6191 25.1247 39.1381 24.2487 38.9875 23.4738C39.0413 23.3577 39.1126 23.2446 39.0835 23.1229C39.4417 22.7112 40.4652 21.197 40.7528 20.968Z" fill="#F1C887"/>
<path d="M40.7528 20.968C41.2265 20.8129 41.417 20.9927 41.5583 21.4949C41.7772 22.2722 41.7519 23.0697 41.639 23.8636C41.6237 23.712 41.6055 23.5618 41.6209 23.4096C41.5761 23.5038 41.6041 23.4735 41.5143 23.524L41.4321 23.3494L41.3525 23.605C41.205 25.3759 40.5144 25.3913 39.3608 26.7019C39.259 26.4529 39.3049 26.421 39.4646 26.2412C39.7438 26.2257 39.7558 25.6458 39.7815 25.4267L39.8712 25.4838C40.2871 25.0399 40.9637 22.3754 41.0516 21.6118L40.9548 21.1216C40.9248 21.0912 40.7947 20.9992 40.7528 20.968Z" fill="#D79D55"/>
<path d="M40.7528 20.968C41.2265 20.8129 41.417 20.9927 41.5583 21.4949C41.7772 22.2722 41.7519 23.0697 41.639 23.8636C41.6237 23.712 41.6055 23.5618 41.6209 23.4096C41.5761 23.5038 41.6041 23.4735 41.5143 23.524L41.4321 23.3494L41.3525 23.605C41.3544 22.966 41.3209 22.1978 41.0516 21.6118L40.9548 21.1216C40.9248 21.0912 40.7947 20.9992 40.7528 20.968Z" fill="#6A3311"/>
<path d="M38.9875 23.4738C39.1981 23.4678 39.2801 23.3717 39.4261 23.2278C39.4011 24.0719 39.7838 24.4491 39.7815 25.4267C39.7558 25.6458 39.7438 26.2257 39.4646 26.2412L39.5555 25.7926C39.6191 25.1247 39.1381 24.2487 38.9875 23.4738Z" fill="#8F5125"/>
<path d="M39.0835 23.1229C39.4417 22.7112 40.4652 21.197 40.7528 20.968C40.7947 20.9992 40.9248 21.0912 40.9548 21.1216C40.7141 21.2095 39.5514 22.9315 39.4261 23.2278C39.2801 23.3717 39.1981 23.4678 38.9875 23.4738C39.0413 23.3577 39.1126 23.2446 39.0835 23.1229Z" fill="#602D0F"/>
<path d="M41.6855 27.9285L42.2004 27.8209C41.6013 28.797 41.3764 29.0483 40.4369 29.6936C39.5916 29.6552 38.533 29.7664 37.8001 30.2166C37.7958 30.0205 37.8856 29.9715 37.9199 29.7756C38.1688 29.4608 38.3767 29.1959 38.6551 28.9047C38.8376 28.6494 39.0536 28.5103 39.3246 28.3796C39.661 28.2052 40.0648 28.0774 40.4299 27.9872C40.8835 28.0269 40.9605 28.1298 41.3084 28.4397L41.3381 28.4219C41.4768 28.3376 41.7065 28.1879 41.7479 28.0246L41.6855 27.9285Z" fill="var(--fill-0, #E5A445)"/>
<path d="M39.3246 28.3796C39.661 28.2052 40.0648 28.0774 40.4299 27.9872C40.8835 28.0269 40.9605 28.1298 41.3084 28.4397C40.4745 29.0724 39.8213 29.0797 38.8349 29.1666C39.0024 28.9027 39.143 28.6388 39.3246 28.3796Z" fill="#F1C887"/>
<path d="M40.4299 27.9872C40.8478 27.8896 41.2435 27.9426 41.6855 27.9285L41.7479 28.0246C41.7065 28.1879 41.4768 28.3376 41.3381 28.4219L41.3084 28.4397C40.9605 28.1298 40.8835 28.0269 40.4299 27.9872Z" fill="#F3BC6A"/>
<path d="M40.7538 29.7518C40.9473 29.6349 41.3289 29.3329 41.5452 29.1818C41.4097 29.424 41.399 29.6055 41.3588 29.8802L41.1562 29.8671C41.1439 29.8615 40.8273 29.7773 40.7538 29.7518Z" fill="#F1C887"/>
<path d="M39.5563 27.9985C39.4834 28.1048 39.0658 28.3547 38.9312 28.3721L38.8821 28.2851C38.8862 28.0761 38.9548 27.8067 39.0438 27.6194C39.8919 25.8353 40.6438 25.6536 42.2306 25.0336L42.2597 25.0785L42.1703 25.4864C41.968 26.9999 40.9988 27.847 39.5563 27.9985Z" fill="#F3BC6A"/>
<path d="M39.5563 27.9985C39.5639 27.9859 39.5717 27.9734 39.5797 27.961C39.6758 27.8139 39.7656 27.7257 39.8951 27.6143C40.627 26.9845 41.323 26.3288 41.9515 25.5885C41.9978 25.5341 42.1023 25.5009 42.1703 25.4864C41.968 26.9999 40.9988 27.847 39.5563 27.9985Z" fill="var(--fill-0, #E5A445)"/>
<path d="M32.4507 12.4822C32.6237 12.4888 32.7554 12.4932 32.928 12.4819C32.5541 13.2738 32.323 13.3873 32.6469 14.2907C32.8787 14.9371 33.1889 15.5607 33.4242 16.1919C34.5692 19.2631 35.1775 22.4123 35.5836 25.6645C35.608 25.8608 35.6786 26.974 35.7196 27.0425C35.6932 27.1453 35.6027 27.4396 35.6253 27.5238L35.6663 27.5441L35.7242 27.5295L35.9846 27.0398L36.0418 27.4336C36.1114 27.3085 36.1296 27.2914 36.228 27.1943L36.3511 27.1998C36.3992 27.2926 36.5889 27.6745 36.6415 27.7305L36.6444 27.751C36.7805 28.6801 37.2491 28.9862 36.9285 30.129C36.8927 30.3629 36.8545 30.5066 36.9237 30.736L37.0416 30.5786L37.1543 30.664L37.1407 30.7179L37.1749 30.7716C37.3413 30.7005 37.6536 30.3625 37.8001 30.2166C38.533 29.7664 39.5916 29.6552 40.4369 29.6936C40.5716 29.778 40.5968 29.7716 40.7538 29.7518C40.8273 29.7773 41.1439 29.8615 41.1562 29.8671L41.3588 29.8802C41.2774 30.3036 40.6247 31.2223 40.2717 31.4086C40.178 31.5253 40.0493 31.652 40.0472 31.7971C40.1624 31.9049 40.1143 31.8753 40.2822 31.895L40.3954 31.928C40.3125 32.5792 38.1851 34.2419 37.5629 34.3878L37.327 34.4257L37.1247 34.2977C37.0141 34.3149 36.9118 34.3279 36.8037 34.3587C36.4643 34.1627 35.2952 34.2895 34.8902 34.3289C34.8162 34.4506 34.6259 34.601 34.4819 34.6056C34.492 34.4583 34.7801 34.0162 34.877 33.8304C35.1236 33.2679 35.2963 32.381 35.1375 31.7652C35.1303 31.4483 34.8874 30.8206 34.7734 30.5056L34.9259 30.3119C34.942 30.4071 35.1444 30.9144 35.1958 31.1288C35.324 31.6631 35.3836 32.1599 35.4997 32.6925C35.6629 32.2841 35.7877 31.9951 35.8819 31.56C35.4961 31.0227 35.1774 30.328 35.0513 29.6655C34.9177 28.9619 35.31 28.2399 35.2325 27.5478C35.0593 26.0362 34.934 24.5191 34.7347 23.0101C34.552 21.6271 34.1087 20.2277 33.7082 18.8952C33.2529 17.3804 32.8178 15.7826 32.1493 14.3534C32.1782 14.1605 31.8487 13.4805 31.7565 13.1987C31.9525 12.9725 32.2361 12.7 32.4507 12.4822Z" fill="#763D15"/>
<path d="M37.8001 30.2166C38.533 29.7664 39.5916 29.6552 40.4369 29.6936C40.5716 29.778 40.5968 29.7716 40.7538 29.7518C40.8273 29.7773 41.1439 29.8615 41.1562 29.8671L41.3588 29.8802C41.2774 30.3036 40.6247 31.2223 40.2717 31.4086C40.178 31.5253 40.0493 31.652 40.0472 31.7971C40.1624 31.9049 40.1143 31.8753 40.2822 31.895L40.3954 31.928C40.3125 32.5792 38.1851 34.2419 37.5629 34.3878L37.327 34.4257L37.1247 34.2977C37.0141 34.3149 36.9118 34.3279 36.8037 34.3587C36.4643 34.1627 35.2952 34.2895 34.8902 34.3289L35.4039 33.6213C35.2754 33.5746 35.2438 33.5893 35.1766 33.492L35.2725 33.4467C35.332 33.43 36.2081 32.6157 36.3725 32.4756C36.4944 32.3139 36.6189 32.1527 36.7316 31.9843C36.5434 32.0451 36.5172 32.1715 36.3337 32.2524C36.442 32.096 36.4971 31.9701 36.6466 31.8652L36.6719 31.8478L36.6806 31.7655C36.6149 31.5795 36.8825 31.2286 36.9237 30.736L37.0416 30.5786L37.1543 30.664L37.1407 30.7179L37.1749 30.7716C37.3413 30.7005 37.6536 30.3625 37.8001 30.2166Z" fill="#D79D55"/>
<path d="M37.8001 30.2166C38.533 29.7664 39.5916 29.6552 40.4369 29.6936C40.5716 29.778 40.5968 29.7716 40.7538 29.7518C40.8273 29.7773 41.1439 29.8615 41.1562 29.8671L41.3588 29.8802C41.2774 30.3036 40.6247 31.2223 40.2717 31.4086C40.1093 31.5175 39.9242 31.6738 39.7385 31.6699L39.6182 31.5886C39.2926 31.7456 39.0783 31.8851 38.713 31.8813C37.6401 32.0181 37.3855 31.9959 36.3725 32.4756C36.4944 32.3139 36.6189 32.1527 36.7316 31.9843C36.5434 32.0451 36.5172 32.1715 36.3337 32.2524C36.442 32.096 36.4971 31.9701 36.6466 31.8652L36.6719 31.8478L36.6806 31.7655C36.6149 31.5795 36.8825 31.2286 36.9237 30.736L37.0416 30.5786L37.1543 30.664L37.1407 30.7179L37.1749 30.7716C37.3413 30.7005 37.6536 30.3625 37.8001 30.2166Z" fill="#F3BC6A"/>
<path d="M41.3588 29.8802C41.2774 30.3036 40.6247 31.2223 40.2717 31.4086C40.1093 31.5175 39.9242 31.6738 39.7385 31.6699L39.6182 31.5886C39.2926 31.7456 39.0783 31.8851 38.713 31.8813C38.568 31.8789 38.389 31.8933 38.2697 31.8182C38.4617 31.5292 39.5772 31.379 39.6738 30.7995C39.8916 30.4663 40.3834 30.5835 40.6931 30.6374L41.0914 30.1508L41.1223 30.0912L41.046 29.9241L41.1562 29.8671L41.3588 29.8802Z" fill="#E7AF60"/>
<path d="M41.3588 29.8802C41.2774 30.3036 40.6247 31.2223 40.2717 31.4086C40.1093 31.5175 39.9242 31.6738 39.7385 31.6699L39.6182 31.5886C40.0908 31.2751 40.3169 31.0646 40.6931 30.6374L41.0914 30.1508L41.1223 30.0912L41.046 29.9241L41.1562 29.8671L41.3588 29.8802Z" fill="#1B0200"/>
<path d="M39.6738 30.7995C39.5772 31.379 38.4617 31.5292 38.2697 31.8182C38.389 31.8933 38.568 31.8789 38.713 31.8813C37.6401 32.0181 37.3855 31.9959 36.3725 32.4756C36.4944 32.3139 36.6189 32.1527 36.7316 31.9843C36.8352 31.8428 37.0755 31.613 37.2058 31.4808C38.022 31.2342 38.8705 31.1961 39.6738 30.7995Z" fill="#D09044"/>
<path d="M37.8001 30.2166C38.533 29.7664 39.5916 29.6552 40.4369 29.6936C40.5716 29.778 40.5968 29.7716 40.7538 29.7518C40.8273 29.7773 41.1439 29.8615 41.1562 29.8671L41.046 29.9241L41.1223 30.0912L41.0914 30.1508C40.6638 29.9391 39.5212 29.9702 39.0339 30.0095C38.0279 30.0905 37.2086 30.9399 36.6806 31.7655C36.6149 31.5795 36.8825 31.2286 36.9237 30.736L37.0416 30.5786L37.1543 30.664L37.1407 30.7179L37.1749 30.7716C37.3413 30.7005 37.6536 30.3625 37.8001 30.2166Z" fill="#7E461D"/>
<path d="M39.6182 31.5886L39.7385 31.6699C39.9242 31.6738 40.1093 31.5175 40.2717 31.4086C40.178 31.5253 40.0493 31.652 40.0472 31.7971C40.1624 31.9049 40.1143 31.8753 40.2822 31.895C40.0425 31.9603 40.0871 31.9082 39.9754 32.1046C39.7723 31.9965 39.4046 32.0742 39.1825 32.1231C39.206 32.2 39.2414 32.257 39.1919 32.3228C38.9321 32.6676 37.6694 33.2971 37.2971 33.4007C37.18 33.4327 37.062 33.461 36.9432 33.4855C36.6185 33.5207 35.8415 33.6594 35.6059 33.4347L35.4039 33.6213C35.2754 33.5746 35.2438 33.5893 35.1766 33.492L35.2725 33.4467C35.332 33.43 36.2081 32.6157 36.3725 32.4756C37.3855 31.9959 37.6401 32.0181 38.713 31.8813C39.0783 31.8851 39.2926 31.7456 39.6182 31.5886Z" fill="#763D15"/>
<path d="M38.3323 32.1933L39.1825 32.1231C39.206 32.2 39.2414 32.257 39.1919 32.3228C38.9321 32.6676 37.6694 33.2971 37.2971 33.4007C37.18 33.4327 37.062 33.461 36.9432 33.4855C36.8098 33.4373 36.6029 33.2956 36.5208 33.1677C36.4638 32.6084 37.8691 32.3491 38.3323 32.1933Z" fill="#F1C887"/>
<path d="M35.6059 33.4347L35.6247 33.4154C36.4967 32.522 37.0809 32.1909 38.3323 32.1933C37.8691 32.3491 36.4638 32.6084 36.5208 33.1677C36.6029 33.2956 36.8098 33.4373 36.9432 33.4855C36.6185 33.5207 35.8415 33.6594 35.6059 33.4347Z" fill="#E7AF60"/>
<path d="M40.2822 31.895L40.3954 31.928C40.3125 32.5792 38.1851 34.2419 37.5629 34.3878L37.327 34.4257L37.1247 34.2977C38.3252 33.9179 39.2656 33.1573 39.9754 32.1046C40.0871 31.9082 40.0425 31.9603 40.2822 31.895Z" fill="#050000"/>
<path d="M35.9846 27.0398L36.0418 27.4336C36.1114 27.3085 36.1296 27.2914 36.228 27.1943L36.3511 27.1998C36.3992 27.2926 36.5889 27.6745 36.6415 27.7305L36.6444 27.751C36.7805 28.6801 37.2491 28.9862 36.9285 30.129C36.8927 30.3629 36.8545 30.5066 36.9237 30.736C36.8825 31.2286 36.6149 31.5795 36.6806 31.7655L36.6719 31.8478L36.6466 31.8652C36.4971 31.9701 36.442 32.096 36.3337 32.2524C36.3176 32.2039 36.2852 31.618 36.2809 31.5342C36.3266 31.3202 35.8663 29.9343 35.8196 29.5484C35.7346 28.8479 35.8019 28.2086 35.7242 27.5295L35.9846 27.0398Z" fill="#E7AF60"/>
<path d="M36.0418 27.4336C36.1114 27.3085 36.1296 27.2914 36.228 27.1943L36.3511 27.1998C36.3992 27.2926 36.5889 27.6745 36.6415 27.7305L36.6444 27.751C36.7805 28.6801 37.2491 28.9862 36.9285 30.129C36.8065 30.1651 36.6997 30.2139 36.5821 30.1818C36.4982 29.7447 36.3357 29.3275 36.1028 28.9519C35.857 28.3889 35.8642 28.0102 36.0418 27.4336Z" fill="#F1C887"/>
<path d="M36.1028 28.9519C36.3357 29.3275 36.4982 29.7447 36.5821 30.1818C36.565 30.3275 36.5679 30.4725 36.4723 30.5738C36.3442 30.4761 36.082 29.1111 36.1028 28.9519Z" fill="#D79D55"/>
<path d="M35.6663 27.5441L35.7242 27.5295C35.8019 28.2086 35.7346 28.8479 35.8196 29.5484C35.8663 29.9343 36.3266 31.3202 36.2809 31.5342L36.2202 31.8043C36.1999 31.5796 35.5866 30.8824 35.3968 30.2499C35.1244 29.3421 35.2607 28.3844 35.6663 27.5441Z" fill="#D09044"/>
<path d="M36.2202 31.8043L36.2809 31.5342C36.2852 31.618 36.3176 32.2039 36.3337 32.2524C36.5172 32.1715 36.5434 32.0451 36.7316 31.9843C36.6189 32.1527 36.4944 32.3139 36.3725 32.4756C36.2081 32.6157 35.332 33.43 35.2725 33.4467C35.3981 33.0654 35.9246 32.5154 36.2202 31.8043Z" fill="#D79D55"/>
<path d="M32.5742 9.53036C32.6292 10.3418 32.7355 11.7271 32.4507 12.4822C32.2361 12.7 31.9525 12.9725 31.7565 13.1987C31.8487 13.4805 32.1782 14.1605 32.1493 14.3534C31.7589 14.0782 32.1722 13.4002 31.1936 13.5024C30.6837 13.5776 30.2116 13.4835 29.7112 13.4979C27.4174 13.564 25.143 14.0364 22.8569 14.2163C22.1597 14.2711 21.4367 14.4532 20.7329 14.4809C19.6736 14.4833 18.593 14.4903 17.5416 14.359C16.9551 14.2858 17.0409 14.7173 16.9117 14.8139C16.2592 15.3017 12.7676 15.8934 12.5439 14.8609L12.6244 14.8391C13.3613 15.5913 16.6463 15.1795 16.8793 14.5124C16.5121 14.3234 13.7746 14.9851 13.1825 14.7333C13.0395 14.6725 12.4698 14.4578 12.3907 14.3945C12.643 14.2764 13.2412 14.7537 13.5581 14.669V14.5777C13.3775 14.374 12.7409 14.2226 12.4738 14.2593C12.505 14.2321 12.7174 13.9124 12.7765 13.8353C14.1656 13.7198 15.4278 13.427 16.8036 13.3681C18.4068 13.2994 20.0991 13.4446 21.6921 13.3195C22.3583 13.2673 23.3333 13.0114 24.0163 12.9007L29.0406 12.1353C29.3627 12.2361 29.9123 11.9449 30.2067 11.8567C30.2998 11.9429 30.3636 11.969 30.479 11.9593C31.1994 11.8985 31.3628 11.026 31.3248 10.3948C31.4375 10.2066 31.4105 9.87334 31.4469 9.61845C31.4578 9.74224 31.4681 9.82872 31.4898 9.95138C31.7496 9.91588 31.8932 9.51495 32.2115 9.56161C32.3102 9.63142 32.3528 9.67986 32.4692 9.67033L32.5742 9.53036Z" fill="#D79D55"/>
<path d="M31.7565 13.1987C31.8487 13.4805 32.1782 14.1605 32.1493 14.3534C31.7589 14.0782 32.1722 13.4002 31.1936 13.5024C29.868 13.0341 22.9452 14.2034 21.2044 14.327C20.0105 14.4118 18.8308 14.3552 17.6113 14.2839C17.238 14.2621 16.9492 14.3857 16.64 14.3889C16.7607 14.2878 16.84 14.4474 17.0943 14.2001C17.3012 14.0796 20.0586 14.1809 20.4834 14.1324C21.8307 13.9787 23.4212 13.9728 24.738 13.705C26.5247 13.3417 28.1498 13.292 29.9597 13.2571C30.3453 13.2497 31.4589 13.3825 31.7565 13.1987Z" fill="#7E461D"/>
<path d="M13.8199 14.6949C14.416 14.221 16.4068 13.955 17.0943 14.2001C16.84 14.4474 16.7607 14.2878 16.64 14.3889C15.6989 14.4804 14.7588 14.5824 13.8199 14.6949Z" fill="#8F5125"/>
<path d="M8.10109 25.2086C8.12471 25.3656 8.15735 25.6427 8.19249 25.7809C8.28399 26.1403 8.46527 26.3326 8.47475 26.7088C8.43885 28.0615 8.4138 29.4145 8.39952 30.7676C8.39615 31.6638 8.41431 32.5549 8.40432 33.4535C8.39636 34.1672 8.12006 34.9666 8.14291 35.6048C8.16214 36.0278 8.3757 36.3817 8.67296 36.6628C9.13088 37.0959 9.81211 37.3719 10.3536 37.6883C11.852 38.564 13.3414 39.7446 15.1484 39.6588C15.1879 39.657 15.2262 39.6535 15.2657 39.6577C15.7167 39.8155 16.5958 39.5829 17.0781 39.5056C17.5604 39.5271 18.8822 39.2717 19.2312 39.4585C19.0484 39.4868 18.8704 39.503 18.6858 39.5116L18.6623 39.5662C18.8866 39.5969 19.1613 39.499 19.3338 39.6784C18.0214 39.7906 16.7109 39.9261 15.4029 40.0849C14.928 40.1183 14.4791 40.1158 14.007 40.0435C13.6563 39.9883 13.2644 39.9273 12.9353 39.7911C12.2807 39.5204 11.7109 39.0579 11.0969 38.7043C10.413 38.3105 9.69255 37.9845 9.01092 37.5889C8.48766 37.2852 7.78323 36.7663 7.61134 36.1384C7.35586 35.5303 7.61491 34.3204 7.65199 33.6251C7.69688 32.7826 7.69336 31.899 7.7589 31.0623C7.85734 29.8059 7.71794 28.3289 7.89773 27.0973C7.90212 26.5935 8.02509 25.7278 8.10109 25.2086Z" fill="#7E461D"/>
<path d="M7.89773 27.0973C7.93221 27.6071 7.92757 28.0034 7.98878 28.5219L8.00061 28.4488C8.15123 30.0272 7.86132 32.2942 7.80332 33.895C7.78037 34.5274 7.47679 35.3974 7.61134 36.1384C7.35586 35.5303 7.61491 34.3204 7.65199 33.6251C7.69688 32.7826 7.69336 31.899 7.7589 31.0623C7.85734 29.8059 7.71794 28.3289 7.89773 27.0973Z" fill="#6A3311"/>
<path d="M10.6701 8.65065C10.5261 8.93931 10.2269 9.30257 10.1582 9.50216C10.2617 9.70835 10.3068 9.78735 10.4139 9.97411C10.4181 10.3713 10.4178 10.7686 10.413 11.1658C10.4573 11.4499 10.5129 11.763 10.5469 12.0459C10.6341 12.7571 11.0713 14.2096 11.0059 14.7339C10.8594 15.9101 10.1954 17.4289 9.91612 18.6238C9.45024 20.6174 8.96141 22.4731 8.67777 24.5135C8.57209 25.2736 8.56146 26.0034 8.47475 26.7088C8.46527 26.3326 8.28399 26.1403 8.19249 25.7809C8.15735 25.6427 8.12471 25.3656 8.10109 25.2086C8.10619 24.7469 8.264 23.9366 8.33735 23.4498C8.62695 21.5278 9.04397 19.694 9.57096 17.8313C9.75406 17.1843 10.4289 15.2573 10.4673 14.7378C10.5811 13.1998 9.41468 11.4917 9.87857 9.67053C10.0143 9.13759 10.2186 8.92466 10.6701 8.65065Z" fill="#744312"/>
<path d="M10.1582 9.50216C10.2617 9.70835 10.3068 9.78735 10.4139 9.97411C10.4181 10.3713 10.4178 10.7686 10.413 11.1658C10.4573 11.4499 10.5129 11.763 10.5469 12.0459C10.4306 11.858 10.4042 11.8139 10.3833 11.5928L10.3817 11.5747C10.2788 11.6379 10.3782 11.7195 10.1772 11.7901C9.91347 11.5341 10.0351 10.1744 10.0748 9.77084L10.1582 9.50216Z" fill="#7E461D"/>
<path d="M10.1582 9.50216C10.2617 9.70835 10.3068 9.78735 10.4139 9.97411C10.4181 10.3713 10.4178 10.7686 10.413 11.1658C10.1134 10.3986 10.111 10.7627 10.0748 9.77084L10.1582 9.50216Z" fill="#B67939"/>
<path d="M17.3428 8.00042C18.3647 7.83845 18.8837 8.05323 19.7658 8.01344C20.78 7.96767 22.1257 7.90919 23.1197 7.80621C23.5426 7.94711 24.4621 7.79985 25.153 7.99204C24.0927 8.13548 22.4331 8.34777 21.3766 8.43382C20.1827 8.49055 18.9992 8.45168 17.7955 8.51125C15.6058 8.6196 13.401 8.91522 11.2072 8.97981C10.7404 8.99356 10.5368 9.56375 10.4139 9.97411C10.3068 9.78735 10.2617 9.70835 10.1582 9.50216C10.2269 9.30257 10.5261 8.93931 10.6701 8.65065C10.9323 8.50699 11.3656 8.44786 11.66 8.43487C13.5198 8.35285 15.5216 8.43383 17.3428 8.00042Z" fill="#78481F"/>
<path d="M25.5955 38.6555C25.8936 38.8377 26.7812 38.4419 26.858 38.6614C26.8695 38.6941 26.8717 38.7338 26.8749 38.7684C26.8537 38.8871 26.8372 39.0082 26.7978 39.1222C25.8057 39.0656 24.741 39.279 23.748 39.3792C22.2867 39.5265 20.8012 39.6363 19.3338 39.6784C19.1613 39.499 18.8866 39.5969 18.6623 39.5662L18.6858 39.5116C18.8704 39.503 19.0484 39.4868 19.2312 39.4585C18.8822 39.2717 17.5604 39.5271 17.0781 39.5056L17.1375 39.3626C17.5276 39.2022 18.1896 39.2377 18.6155 39.1908C20.1171 38.9623 21.676 39.0085 23.1901 38.9301C23.9978 38.8883 24.7964 38.7793 25.5955 38.6555Z" fill="#763D15"/>
<path d="M12.7643 13.5823C12.7058 13.0752 12.6089 12.5737 12.4743 12.0821C12.3461 11.597 11.788 10.2053 11.8451 9.8795C12.0584 9.74117 12.4318 9.80852 12.691 9.83175C12.7844 9.96127 13.1691 10.4669 13.1873 10.5723C13.292 11.1828 13.5706 13.2793 13.1087 13.6835C12.953 13.6932 12.9119 13.6957 12.7643 13.5823Z" fill="#F5D19B"/>
<path d="M12.3907 14.3945C11.3893 14.3909 11.7552 11.4725 11.4051 11.3177C11.2853 11.4997 11.421 12.1362 11.2503 12.3042C11.0972 11.7653 11.4882 11.1158 11.276 10.6301C11.2189 10.4994 11.1129 10.2283 10.9872 10.1734C10.7826 10.4662 11.094 12.4346 11.2431 12.8315C11.3652 13.1564 11.7475 13.5026 11.676 13.8975C11.6652 13.8778 11.6495 13.8481 11.6498 13.8254C11.6516 13.4939 11.3036 13.1861 11.2112 12.926C11.0421 12.4495 10.6547 10.145 10.9027 9.86186L11.0464 9.85956C11.8468 10.241 11.7629 13.103 12.0877 13.8868C12.2 14.1577 12.2386 14.1522 12.4738 14.2593C12.7409 14.2226 13.3775 14.374 13.5581 14.5777V14.669C13.2412 14.7537 12.643 14.2764 12.3907 14.3945Z" fill="#8F5125"/>
<path d="M8.14291 35.6048L8.16002 35.6318C8.35384 35.9427 8.481 36.2557 8.70572 36.5525C8.81334 36.6947 12.3437 38.7737 12.7851 39.0009C13.112 39.1692 13.4767 39.2581 13.8128 39.416C13.9278 39.37 14.0425 39.2899 14.1617 39.3405C14.2866 39.3935 14.362 39.5583 14.5003 39.5838C15.4312 39.7552 17.8887 38.842 18.6155 39.1908C18.1896 39.2377 17.5276 39.2022 17.1375 39.3626L17.0781 39.5056C16.5958 39.5829 15.7167 39.8155 15.2657 39.6577C15.2262 39.6535 15.1879 39.657 15.1484 39.6588C13.3414 39.7446 11.852 38.564 10.3536 37.6883C9.81211 37.3719 9.13088 37.0959 8.67296 36.6628C8.3757 36.3817 8.16214 36.0278 8.14291 35.6048Z" fill="#B67939"/>
<path d="M15.2657 39.6577C15.889 39.5548 16.5129 39.4565 17.1375 39.3626L17.0781 39.5056C16.5958 39.5829 15.7167 39.8155 15.2657 39.6577Z" fill="#602D0F"/>
<path d="M26.798 38.3837C26.8551 38.0849 26.917 37.8033 27.0443 37.527C27.3874 36.7824 29.1411 35.2069 29.8739 34.9407L29.9067 35.0066C29.8774 35.153 29.8606 35.3198 29.7609 35.4346C29.5688 35.6053 29.5853 35.7525 29.4275 35.8765C29.3938 35.7479 29.3983 35.6496 29.2876 35.5753L29.2103 35.6593C29.0018 35.8128 28.8018 35.9704 28.6068 36.1417C27.8988 36.5362 27.3445 37.2902 27.1128 38.0785C27.0533 38.2806 27.0615 38.5223 26.9892 38.7136L26.8749 38.7684C26.8717 38.7338 26.8695 38.6941 26.858 38.6614C26.7812 38.4419 25.8936 38.8377 25.5955 38.6555C25.9762 38.533 26.4061 38.4699 26.798 38.3837Z" fill="#6A3311"/>
<path d="M19.4167 27.6344C20.9933 26.206 25.0209 25.6653 27.0517 25.7588C28.9547 25.8464 31.0556 27.4209 30.7875 29.5462C30.7216 30.069 30.495 31.2145 30.0725 31.5683C29.803 31.9898 28.9967 32.56 28.5497 32.7526C27.4044 33.2486 24.892 33.9874 23.7181 33.7219C21.6142 33.6661 21.0272 33.325 19.2474 32.2857C19.07 32.3478 18.8378 32.4667 18.6893 32.3255C18.6988 32.162 18.7822 32.0739 18.8779 31.9401C18.4785 30.7476 18.1831 29.9503 18.7092 28.7301C18.8026 28.3081 19.1325 27.9287 19.4167 27.6344Z" fill="#DF9E4D"/>
<path d="M19.7497 31.5016C19.7698 31.5353 19.7964 31.58 19.8296 31.6357C20.4094 31.8493 21.0581 31.9928 21.6505 32.1908C21.695 32.2057 21.7994 32.2008 21.819 32.1996L21.8044 32.292C22.1377 32.487 23.8516 32.4627 24.3457 32.4659C24.2499 32.596 23.417 33.4729 23.3078 33.5325C23.4594 33.5214 23.611 33.491 23.735 33.5769L23.7181 33.7219C21.6142 33.6661 21.0272 33.325 19.2474 32.2857C19.07 32.3478 18.8378 32.4667 18.6893 32.3255C18.6988 32.162 18.7822 32.0739 18.8779 31.9401L18.9792 31.9183C19.092 31.7824 19.0685 31.6926 19.0918 31.493C19.1265 31.6881 19.1667 31.8822 19.2123 32.0749L19.2948 32.125C19.4187 32.0047 19.3262 32.0081 19.4053 31.8798C19.5131 31.8038 19.6598 31.6105 19.7497 31.5016Z" fill="#D79D55"/>
<path d="M22.8244 27.8545C22.9839 27.669 23.2289 27.5833 23.4527 27.4814L23.5168 27.5014C23.4923 27.7294 23.1505 28.2618 23.0227 28.4816C23.2443 28.4431 23.4668 28.4023 23.6897 28.3727C23.2808 29.0312 23.1948 29.134 22.5213 29.4818L22.5291 29.6362L22.5832 29.7034C22.4867 29.8692 22.0526 30.3164 21.8788 30.5356C20.1434 30.6489 21.0787 29.912 19.7497 31.5016C19.6598 31.6105 19.5131 31.8038 19.4053 31.8798C19.5318 31.4735 20.3734 30.54 20.6931 30.1589C20.3278 29.0059 21.0184 29.2361 21.3902 28.4726C21.4082 28.4354 21.4553 28.3194 21.4847 28.2608L21.568 28.2486C21.607 28.3512 21.6082 28.3818 21.6917 28.4417C21.9502 28.2937 22.0415 27.525 22.4898 27.491C22.589 27.6333 22.5942 27.8713 22.6142 28.0525C22.6758 27.9438 22.7244 27.921 22.8244 27.8545Z" fill="#6A3311"/>
<path d="M22.5291 29.6362C22.2967 29.8543 21.8653 29.9604 21.6403 29.6617C21.6224 29.4473 21.6072 29.5285 21.7044 29.3358C22.0198 29.0923 22.2712 29.2628 22.5213 29.4818L22.5291 29.6362Z" fill="var(--fill-0, #E5A445)"/>
<path d="M22.8244 27.8545C23.0496 27.8762 23.1009 27.6933 23.2889 27.7442C23.2015 28.2092 22.6748 28.5686 22.3263 28.8058C22.4283 28.5883 22.5935 28.2819 22.6142 28.0525C22.6758 27.9438 22.7244 27.921 22.8244 27.8545Z" fill="var(--fill-0, #E5A445)"/>
<path d="M21.3825 29.7113C21.6988 29.9209 22.0143 29.9225 22.1081 30.0314C22.0542 30.4908 21.1266 30.5135 20.8645 30.2485C20.7932 30.1765 20.814 30.0508 20.808 29.9445L20.9196 30.0671C21.104 30.0257 21.223 29.8614 21.3825 29.7113Z" fill="var(--fill-0, #E5A445)"/>
<path d="M23.2245 28.5491L23.3248 28.5197L23.3579 28.5906C23.3368 28.6378 23.3147 28.6841 23.2886 28.7287C23.0962 29.0566 22.8096 29.1986 22.4627 29.2864C22.3995 29.248 22.3153 29.2058 22.2722 29.1435C22.2181 29.0651 22.2442 29.021 22.262 28.9329C22.4485 28.6803 22.9398 28.6267 23.2245 28.5491Z" fill="#F3BC6A"/>
<path d="M22.4042 27.6053C22.4472 27.6773 22.453 27.7355 22.4572 27.8184C22.4829 28.326 22.2711 28.7893 21.9432 29.1593C21.8994 29.0538 21.8724 28.9204 21.8663 28.8062C21.8442 28.3971 22.148 27.8967 22.4042 27.6053Z" fill="#E7AF60"/>
<path d="M21.5812 28.4528C21.6288 28.4693 21.6559 28.4963 21.6941 28.5286C21.7108 28.7434 21.716 28.9561 21.7178 29.1715C21.6199 29.3246 21.5259 29.4495 21.3915 29.5703C21.3013 29.4334 21.2357 29.2897 21.23 29.1214C21.221 28.8552 21.4167 28.6349 21.5812 28.4528Z" fill="#E7AF60"/>
<path d="M20.808 29.9445C20.7917 29.7165 20.7453 29.4511 20.8462 29.256L20.9327 29.1795C21.1486 29.2452 21.2638 29.4542 21.2199 29.6797C21.1162 29.7881 20.9572 29.9278 20.9196 30.0671L20.808 29.9445Z" fill="#F3BC6A"/>
<path d="M27.4257 29.4333C27.2261 30.1312 25.7847 31.2827 25.3136 31.8477L25.4592 31.9856C25.493 32.1208 25.4966 32.1425 25.5901 32.2485L25.601 32.3308C25.6242 32.6138 24.8169 32.9774 24.5638 33.1481C24.8022 33.1164 25.5757 32.9191 25.716 32.9282C25.582 33.1041 23.9615 33.5957 23.735 33.5769C23.611 33.491 23.4594 33.5214 23.3078 33.5325C23.417 33.4729 24.2499 32.596 24.3457 32.4659C23.8516 32.4627 22.1377 32.487 21.8044 32.292L21.819 32.1996C22.678 32.2428 23.4925 32.2756 24.3521 32.2372C24.1386 32.0568 23.17 31.3476 23.1357 31.1752L23.209 31.0853C23.6465 30.9449 24.582 31.2727 24.4897 31.7955C24.4444 31.9431 24.4714 31.9314 24.3708 32.0181C24.4294 32.1056 24.4533 32.1174 24.537 32.1823C25.3609 32.1057 25.6803 30.1022 26.2371 29.8824C25.9119 30.5948 25.6206 30.8342 25.4305 31.627C25.6519 31.4201 26.7403 30.1203 26.8485 30.0625C27.1098 29.8985 27.1313 29.6395 27.4257 29.4333Z" fill="#7E461D"/>
<path d="M25.3136 31.8477L25.4592 31.9856C25.493 32.1208 25.4966 32.1425 25.5901 32.2485L25.601 32.3308C24.9827 32.6883 24.461 33.3547 23.7933 33.4078L23.759 33.3374C23.9522 32.9404 24.855 32.4208 25.3136 31.8477Z" fill="#D79D55"/>
<path d="M24.3708 32.0181C24.0527 31.6904 23.716 31.5644 23.3914 31.1814L23.4012 31.1101C23.8422 31.1472 24.2164 31.4657 24.4897 31.7955C24.4444 31.9431 24.4714 31.9314 24.3708 32.0181Z" fill="#E7AF60"/>
<path d="M27.2417 27.7444C27.0865 27.5148 27.0522 27.199 27.1 26.9272C27.2239 27.0394 27.1485 27.4154 27.3557 27.689C27.4368 27.8137 27.5479 27.9977 27.6445 28.1028L27.7067 27.9774C27.8222 27.8894 27.9458 27.8472 28.0793 27.7928C28.1809 27.865 28.2451 27.9006 28.3133 28.0096C28.341 28.3239 27.8139 29.2735 27.3901 29.3013L27.4257 29.4333C27.1313 29.6395 27.1098 29.8985 26.8485 30.0625C26.8446 29.9613 26.8539 29.8026 26.8571 29.6963C26.8294 29.7555 26.7874 29.826 26.7551 29.8841C26.6638 29.8341 26.4385 29.3455 26.399 29.2204C26.1771 28.5186 26.9719 28.1959 26.7104 27.4634L26.7039 27.4455L26.752 27.4075C26.9208 27.5091 26.8736 27.4537 26.9589 27.624L27.2417 27.7444Z" fill="#6A3311"/>
<path d="M26.8571 29.6963C26.7718 29.4951 26.5912 29.4316 26.554 29.2395C26.5059 28.992 26.5055 28.6546 26.6307 28.4344L26.7051 28.4317C26.938 28.7092 26.9091 29.0866 27.082 29.2517L27.2755 29.2585L27.3901 29.3013L27.4257 29.4333C27.1313 29.6395 27.1098 29.8985 26.8485 30.0625C26.8446 29.9613 26.8539 29.8026 26.8571 29.6963Z" fill="#E7AF60"/>
<path d="M26.9589 27.624L27.2417 27.7444L27.4969 28.2983L27.1198 28.9047L26.7906 28.2704C26.8378 27.9954 26.8533 27.8844 26.9589 27.624Z" fill="var(--fill-0, #E5A445)"/>
<path d="M27.082 29.2517C27.2293 28.971 27.528 28.3558 27.9123 28.5352C27.957 28.9172 27.5605 29.1188 27.2755 29.2585L27.082 29.2517Z" fill="var(--fill-0, #E5A445)"/>
<path d="M27.7067 27.9774C27.8222 27.8894 27.9458 27.8472 28.0793 27.7928C28.1809 27.865 28.2451 27.9006 28.3133 28.0096C28.1429 28.1802 27.8567 28.4215 27.6131 28.4381L27.5601 28.3766C27.5844 28.2757 27.5979 28.1957 27.6445 28.1028L27.7067 27.9774Z" fill="#E7AF60"/>
<path d="M19.4167 27.6344L19.4544 27.757C19.3121 27.9807 19.1944 28.0542 19.0382 28.3263C18.9588 28.4646 18.827 28.784 18.7864 28.8442C18.5882 29.5066 18.8377 30.8585 19.0918 31.493C19.0685 31.6926 19.092 31.7824 18.9792 31.9183L18.8779 31.9401C18.4785 30.7476 18.1831 29.9503 18.7092 28.7301C18.8026 28.3081 19.1325 27.9287 19.4167 27.6344Z" fill="#D09044"/>
<path d="M28.0721 26.534L28.0993 26.6806C28.2517 27.2452 27.9356 27.4436 28.0793 27.7928C27.9458 27.8472 27.8222 27.8894 27.7067 27.9774L27.6445 28.1028C27.5479 27.9977 27.4368 27.8137 27.3557 27.689L27.4587 27.5224C27.6127 27.1819 27.8486 26.8299 28.0721 26.534Z" fill="var(--fill-0, #E5A445)"/>
<path d="M28.0993 26.6806C28.2517 27.2452 27.9356 27.4436 28.0793 27.7928C27.9458 27.8472 27.8222 27.8894 27.7067 27.9774C27.7106 27.9475 27.7112 27.938 27.7259 27.911C27.9251 27.547 28.0088 27.0908 28.0993 26.6806Z" fill="#763D15"/>
<path d="M28.5497 32.7526L28.5325 32.6202C28.8355 32.2649 29.5185 31.9665 29.9773 31.5013L30.0725 31.5683C29.803 31.9898 28.9967 32.56 28.5497 32.7526Z" fill="#B67939"/>
<path d="M25.4592 31.9856C25.9813 31.9333 26.1671 31.9076 26.6084 32.2757L26.5984 32.3245C26.1049 32.3518 26.0224 32.1235 25.5901 32.2485C25.4966 32.1425 25.493 32.1208 25.4592 31.9856Z" fill="#763D15"/>
<path d="M27.4587 27.5224C27.3177 27.2346 27.8714 26.6049 28.0633 26.3802L28.114 26.4195L28.0721 26.534C27.8486 26.8299 27.6127 27.1819 27.4587 27.5224Z" fill="#7E461D"/>
<path d="M27.1823 31.3537L27.2206 31.1792C27.5654 30.8322 28.6768 29.5435 29.1263 29.8711C29.2403 30.0944 29.1859 30.3876 29.1401 30.6286C29.004 30.7858 28.9181 30.6866 28.6079 30.8452L28.78 30.9419L28.8517 30.8949L28.8858 30.9481C28.8567 31.0047 28.7101 31.2843 28.6716 31.2985C28.225 31.4632 27.8234 31.7733 27.3972 31.9619C27.5476 32.0555 27.7962 32.1919 27.9015 32.324C27.6828 32.3579 26.754 31.6885 26.6511 31.4151L26.6922 31.3339C26.881 31.346 26.8841 31.4057 26.9228 31.5883C27.0535 31.3977 27.0016 31.411 27.1823 31.3537Z" fill="#8F5125"/>
<path d="M27.1823 31.3537C27.2927 31.3067 27.3381 31.2871 27.4426 31.2188C27.63 31.227 27.7127 31.2204 27.8804 31.3017C28.0199 31.6078 27.3945 31.9852 26.9228 31.5883C27.0535 31.3977 27.0016 31.411 27.1823 31.3537Z" fill="var(--fill-0, #E5A445)"/>
<path d="M28.78 30.9419C28.6593 31.1569 28.5026 31.3212 28.2465 31.3103L28.2009 31.2277C28.2456 31.0622 28.4606 30.9479 28.6079 30.8452L28.78 30.9419Z" fill="var(--fill-0, #E5A445)"/>
<path d="M28.9168 29.8248C28.9598 29.8444 28.9954 29.8823 29.0313 29.9133C29.0211 30.0938 29.0276 30.2755 29.0302 30.4563C28.7849 30.7104 28.0787 31.091 27.7459 31.1397C27.6788 31.1051 27.6624 31.0864 27.627 31.0183C27.8276 30.6146 28.5533 30.0719 28.9168 29.8248Z" fill="var(--fill-0, #E5A445)"/>
<path d="M22.7296 21.1225C22.9545 21.1161 23.1924 21.0938 23.4026 21.19C23.874 21.4056 24.2016 21.8435 24.378 22.3329C24.5803 22.8944 24.64 23.6982 24.3891 24.2537C24.1859 24.7038 23.8864 24.8978 23.4506 25.0586C23.1889 25.0981 22.986 25.0903 22.7373 24.992C22.328 24.8301 22.0189 24.4791 21.8426 24.0723C21.5979 23.5072 21.5395 22.7379 21.7581 22.1548C21.9326 21.6896 22.2889 21.3236 22.7296 21.1225Z" fill="#FBF4D9"/>
<path d="M22.8935 21.8572C23.0029 21.8626 23.1262 21.8643 23.2301 21.9017C23.4669 21.9868 23.6371 22.2337 23.735 22.4617C23.9136 22.8778 23.9546 23.4465 23.7861 23.8727C23.6821 24.1357 23.5508 24.2193 23.3041 24.3298C23.2286 24.3333 23.1509 24.3369 23.0757 24.3275C22.7834 24.2911 22.604 24.0161 22.4355 23.7976C22.3764 23.3663 22.292 22.8723 22.4144 22.4455C22.4987 22.1514 22.638 22.004 22.8935 21.8572Z" fill="#F5D19B"/>
<path d="M28.6425 20.6189C28.8918 20.6004 29.1593 20.5797 29.4044 20.6414C29.8465 20.7529 30.0646 21.064 30.2842 21.4409C30.2985 21.6791 30.2833 21.9189 30.2749 22.1571C30.1264 22.3035 30.0058 22.4768 29.8809 22.6442C30.1245 23.2099 30.4408 23.7496 30.7501 24.2793L30.1636 24.4432L29.5549 23.4018C29.4271 23.231 29.2542 22.927 29.03 22.8986C28.9305 22.886 28.912 22.9234 28.8377 22.9848C28.6464 23.4136 28.7971 24.1044 28.8273 24.5723C28.608 24.5788 28.3922 24.6194 28.1759 24.6547C28.0292 23.3368 27.8664 22.0282 27.8279 20.7012C28.0959 20.6549 28.3717 20.6414 28.6425 20.6189Z" fill="#FBF4D9"/>
<path d="M28.7157 21.1876C28.8324 21.1801 28.964 21.1666 29.0799 21.1845C29.2519 21.211 29.415 21.3406 29.5167 21.4812C29.5924 21.5857 29.6268 21.7042 29.6055 21.8341C29.5721 22.0372 29.4266 22.1688 29.2703 22.2793L28.6529 22.3883C28.6191 22.0839 28.4539 21.6066 28.5443 21.3136C28.5682 21.2361 28.6476 21.2204 28.7157 21.1876Z" fill="#F3BC6A"/>
<path d="M11.9559 14.9233C12.0797 14.9336 12.1936 14.9476 12.2987 15.0219C12.5626 15.2086 12.8748 15.515 13.0262 15.8085C13.2967 16.3325 13.4424 17.4265 13.5449 18.0364C13.9309 20.3331 13.9685 22.3159 14.0525 24.6244C14.0624 24.8961 14.1645 25.9868 14.0515 26.1515C13.8197 25.7233 13.9959 24.4922 13.8976 23.9393C13.7713 23.964 13.805 23.9501 13.7026 23.9132C13.6933 23.9099 13.6287 23.9651 13.613 23.9661C13.5811 23.9682 13.503 23.9372 13.4693 23.9284L13.4999 24.0337C13.5432 24.6614 13.5215 25.307 13.5421 25.9382C13.5538 26.2958 13.6197 26.6339 13.6019 26.9921C13.4447 26.706 13.4031 24.1859 13.3625 23.6523C13.2364 21.9944 13.0809 20.3631 12.8543 18.7158C12.7598 18.029 12.689 17.3219 12.5239 16.649C12.3788 16.0574 12.1501 15.4982 11.9559 14.9233Z" fill="#F5D19B"/>
<path d="M11.4594 14.8439L11.5667 14.8797C11.5987 14.9642 11.6191 15.0501 11.6402 15.1379C12.1649 17.3225 12.4597 19.5241 12.7257 21.7532C12.8391 22.7029 13.0023 23.6502 13.0935 24.602C13.1627 25.3237 13.1546 26.0521 13.2064 26.7755C13.2612 27.5392 13.3862 28.2968 13.44 29.0605C13.5564 30.7152 13.5943 32.3904 13.6841 34.0494C13.7079 34.4887 13.9355 36.4778 13.7765 36.7486C13.6377 36.6 13.6371 36.2189 13.6176 36.0116C13.5166 34.9385 13.5123 33.8512 13.4469 32.7748L12.9926 26.0673C12.9386 24.52 12.7367 22.243 12.4334 20.7269C12.4023 20.5711 12.3362 20.0333 12.2235 19.9568C12.0765 20.0348 11.9025 20.145 11.741 20.1799C11.652 20.1991 11.5357 20.1817 11.4551 20.2169C10.9405 20.4423 11.1303 22.2162 10.9375 22.7414C10.932 22.2414 11.0027 20.9902 10.7608 20.5777C10.701 20.4758 10.617 20.3597 10.6364 20.242C10.6732 20.326 10.6828 20.3787 10.7623 20.4294C10.912 20.2729 10.7762 20.0994 10.7168 19.9225C10.5557 19.442 10.7747 18.6436 10.8538 18.1516C10.8741 18.1606 10.8536 18.3708 10.8517 18.4054C10.8226 18.9406 10.6999 19.7344 10.9368 20.2305C10.9968 20.3561 11.0635 20.4053 11.1889 20.445C11.2434 20.3555 11.3206 20.1947 11.3962 20.1286C11.455 20.0772 11.812 20.1315 12.2108 19.7554C12.215 19.4705 12.1052 19.1903 12.0601 18.9093C11.9127 17.9906 11.7938 17.0992 11.605 16.1896C11.5512 15.9307 11.5211 15.6387 11.4241 15.3939C11.3851 15.2956 11.374 15.2607 11.2789 15.2203C11.1549 15.398 11.2402 15.5935 11.1553 15.7862C10.9267 16.3061 10.7691 18.1991 10.5223 18.5002C10.6442 17.742 10.8332 17.0092 10.9757 16.2573C11.0427 15.9035 11.0522 15.3518 11.187 15.0371C11.211 14.9811 11.3888 14.9093 11.4594 14.8439Z" fill="#7E461D"/>
<path d="M26.6603 20.8708L27.3245 20.8593C27.4747 21.6177 27.6343 22.6119 27.5901 23.381C27.5668 23.7858 27.4374 24.1983 27.1295 24.4695C26.7597 24.7953 26.3493 24.7528 25.8999 24.7228C25.8262 24.6779 25.7553 24.6285 25.6873 24.575C24.9541 24.001 24.9464 23.2966 24.8334 22.4206C24.7588 21.9875 24.7487 21.5398 24.74 21.1009C24.9291 21.072 25.1272 21.0765 25.3182 21.0704C25.4941 21.8225 25.3615 23.3426 25.9256 23.899C26.0416 24.0154 26.2003 24.0754 26.3619 24.064C26.4812 24.0566 26.59 24.0038 26.6689 23.9108C27.0918 23.4116 26.6995 21.538 26.6603 20.8708Z" fill="#FBF4D9"/>
<path d="M18.1892 21.5671C18.3256 21.5445 18.537 21.5038 18.6722 21.5311C18.7783 21.5525 18.8704 21.6388 18.9238 21.7337C18.9916 21.8542 18.9793 21.933 18.9456 22.0583C18.6682 22.3286 17.839 22.2666 17.4531 22.2874C17.4466 22.6025 17.4856 22.9232 17.5107 23.2373C17.8607 23.2093 18.2054 23.1367 18.5575 23.1254C18.7373 23.1197 18.8075 23.147 18.9339 23.2698C18.9543 23.4051 18.9608 23.4804 18.8857 23.6023C18.7107 23.8865 17.9983 23.8349 17.6961 23.9186L17.6501 24.0073C17.6944 24.5251 17.7186 25.0445 17.7648 25.5627L17.0916 25.5975C16.847 24.3589 16.8225 23.0274 16.7209 21.7678C17.2112 21.6875 17.6947 21.6161 18.1892 21.5671Z" fill="#FBF4D9"/>
<path d="M19.5666 21.4506C19.6952 21.445 19.8102 21.4516 19.9372 21.4729C20.1244 21.6545 20.227 24.1712 20.2655 24.6436C20.6003 24.6456 20.9109 24.5513 21.2409 24.5238C21.4266 24.5083 21.6225 24.5312 21.7657 24.6659C21.8767 24.7703 21.9147 24.9054 21.921 25.0548C21.8169 25.1855 21.6904 25.1758 21.5337 25.2058C20.9015 25.2971 20.2681 25.3934 19.6303 25.4298C19.541 24.9051 19.2803 21.827 19.4237 21.5048L19.5666 21.4506Z" fill="#FBF4D9"/>
<path d="M17.787 36.0102C17.9384 36.1714 17.8955 36.3283 18.0039 36.4992C18.581 36.3637 19.1258 36.1556 19.7309 36.2411C19.8386 36.2563 19.9153 36.2575 19.9817 36.3483C19.9779 36.3544 19.9749 36.3611 19.9702 36.3666C19.7971 36.5698 18.7965 36.738 18.5187 36.7507C18.4827 36.7524 18.4634 36.7791 18.4354 36.8013C18.4447 36.8132 18.454 36.8268 18.4659 36.8366C18.8565 37.1579 21.3921 37.0611 22.0307 36.9968C22.2252 36.9724 22.5883 36.8829 22.758 36.9658C22.7138 36.9843 22.6671 37.0027 22.6203 37.0128C21.7051 37.2107 18.8471 37.272 18.0763 36.7969C18.1572 36.7893 18.239 36.7841 18.3192 36.7713L18.2757 36.6792C18.1868 36.6164 18.0902 36.6208 17.9859 36.6145C17.8519 36.5192 17.8406 36.3933 17.7693 36.2472C17.5982 36.3388 17.5521 36.4511 17.3522 36.4926L17.3101 36.4497L17.367 36.3366C17.5489 36.2555 17.6533 36.1549 17.787 36.0102Z" fill="#E7AF60"/>
<path d="M10.8186 31.8426C10.9661 32.2263 10.9993 32.6284 11.1403 33.0117C11.4758 33.9235 11.9331 34.8508 12.5405 35.6032C12.8398 35.9739 13.182 36.3062 13.474 36.683C13.3673 36.6672 13.2609 36.5209 13.182 36.441L13.1486 36.4005L13.0879 36.4115C12.6766 36.1699 11.4018 34.2943 11.1377 33.8022C10.9902 33.5274 10.8908 33.252 10.8073 32.9507L11.0071 33.131C11.1444 32.7812 10.812 32.2518 10.8186 31.8426Z" fill="#B67939"/>
<path d="M17.3062 18.4033C17.4215 18.4286 17.561 18.4103 17.6796 18.4066C17.4996 18.5811 17.3778 18.8072 17.204 18.9901C16.8317 19.382 16.4289 19.7496 16.0502 20.1365L15.9302 20.2262C15.8158 20.1905 15.81 20.1871 15.7421 20.086C15.7462 20.062 15.7518 20.0391 15.7595 20.0159C15.8865 19.6333 16.9389 18.5899 17.3062 18.4033Z" fill="#F5D19B"/>
<path d="M19.5314 14.8494C19.7604 14.8188 20.0966 14.7776 20.2955 14.9181L20.3098 15.0036C20.1698 15.0952 19.877 15.1373 19.7903 15.2606L19.9423 15.3092C19.645 15.4712 19.2552 15.4924 18.9388 15.6289C18.1577 15.9659 17.4106 16.4984 16.7076 16.9785C16.8886 16.6971 17.1209 16.5181 17.3438 16.2769C17.629 16.2214 17.9622 15.9818 18.2246 15.8462C18.8057 15.5458 19.4163 15.2113 20.0368 15.0096L20.058 15.0028C19.7818 14.9594 18.7914 14.9248 18.5767 15.0336C18.5551 15.0446 18.5428 15.0531 18.5192 15.0598C18.4243 15.0871 18.3498 15.0615 18.2741 15.0076C18.4852 14.8056 19.2274 14.8866 19.5314 14.8494Z" fill="#D79D55"/>
<path d="M16.6445 34.7306L16.7552 34.7249C16.9724 34.8915 17.3243 35.1109 17.4452 35.3647C17.3878 35.5406 17.31 35.3781 17.1738 35.4666C17.0594 35.5146 16.9324 35.5326 16.8091 35.5301C16.6552 35.5271 16.4567 35.4467 16.3521 35.3274C16.2655 35.2285 16.2729 35.1464 16.2776 35.0228C16.3484 34.8589 16.4969 34.804 16.6445 34.7306Z" fill="#F1C887"/>
<path d="M15.4982 33.4905L15.7313 33.5122C15.9327 33.6345 16.0887 33.8138 16.174 34.0402C16.2396 34.2141 16.2124 34.3356 16.1394 34.5C16.0077 34.4444 15.8687 34.3638 15.7259 34.4158C15.6559 34.527 15.6591 34.5477 15.6689 34.6735C15.7709 34.7994 15.8238 34.8819 15.8302 35.0493C15.8326 35.1132 15.8746 35.1386 15.9155 35.1847L16.0398 35.1798L16.1097 35.0843C16.1012 34.9292 16.0599 34.9106 15.9615 34.7977L15.9039 34.7706C16.0701 34.8179 16.0978 34.8166 16.1955 34.9628C16.1917 35.098 16.178 35.1337 16.1035 35.245C15.9821 35.3016 15.9571 35.3133 15.82 35.2873C15.7596 35.0631 15.531 34.806 15.5286 34.6024C15.5259 34.3731 15.7614 34.3359 15.8948 34.1926C15.8483 34.0309 15.7124 33.9631 15.6055 33.8488C15.5079 33.7444 15.499 33.6287 15.4982 33.4905Z" fill="#F3BC6A"/>
<path d="M13.6641 37.6298C13.6891 37.6493 13.7504 37.6834 13.7545 37.7146C13.7706 37.8364 13.172 38.8389 13.0643 38.9884L12.968 38.8838C12.9523 38.5365 13.4809 37.9313 13.6641 37.6298Z" fill="#763D15"/>
<path d="M29.3461 34.184C29.3959 34.4479 28.8203 35.2642 28.6659 35.5132L28.6447 35.4481C28.6938 34.9789 29.0302 34.5056 29.3461 34.184Z" fill="#7E461D"/>
<path d="M9.7085 33.2726C9.75338 33.3133 9.75731 33.3419 9.77689 33.3991C9.62347 33.7667 9.27465 34.0817 9.0034 34.363L8.95275 34.312C8.9878 34.0719 9.5487 33.4922 9.7085 33.2726Z" fill="#B67939"/>
<path d="M29.719 16.2343L29.7241 16.8667C29.4748 16.7812 29.23 16.6675 28.9862 16.5658L28.9534 16.5493L28.946 16.4839C29.1645 16.3869 29.3295 16.6168 29.5509 16.5356C29.6469 16.4359 29.6907 16.3725 29.719 16.2343Z" fill="#D09044"/>
<path d="M29.0543 39.4497C29.3898 39.2871 30.4612 38.7551 30.7976 38.7873L30.9412 38.7631C31.3207 38.9404 31.7093 39.1122 32.0683 39.3309C32.7798 39.7641 33.3149 40.3013 34.1693 40.4065L34.1308 40.5077L33.8936 40.5437L33.7018 40.516L33.6726 40.5659C33.8317 40.7602 34.0668 40.8711 34.2197 41.0552L34.3913 41.2299L34.3838 41.2941C33.6494 41.4048 33.4809 41.5408 32.8367 41.7257C31.7369 42.0415 30.7155 41.9481 29.7897 41.2391C29.4004 40.941 29.0297 40.576 28.6042 40.3368C28.3748 40.3742 28.1379 40.3932 27.9393 40.5266L27.885 40.6193C28.0396 40.966 29.0528 41.2973 29.369 41.7896C29.3002 41.9079 29.2991 41.9044 29.1693 41.9408C29.0026 41.8887 28.7985 41.5889 28.6172 41.4806C28.1197 41.2407 27.5995 40.9697 27.0711 40.8148L27.1756 40.4452C27.4743 40.1324 28.6293 39.659 29.0543 39.4497Z" fill="#50230B"/>
<path d="M29.0543 39.4497C29.3898 39.2871 30.4612 38.7551 30.7976 38.7873C31.0329 39.2274 31.7586 39.2861 32.0438 39.6622C32.5103 39.8691 32.8667 40.2165 33.2467 40.554C33.3215 40.6512 33.364 40.7174 33.3904 40.841C33.3418 40.9281 33.3322 40.9624 33.2378 40.9952C33.0058 41.0758 32.674 41.0116 32.4376 40.9755C30.9282 40.7445 31.0259 40.408 29.8517 39.7977C29.6371 39.7744 29.4004 39.7264 29.2159 39.6082L29.1237 39.6478L29.0543 39.4497Z" fill="#F1C887"/>
<path d="M29.0543 39.4497C29.3898 39.2871 30.4612 38.7551 30.7976 38.7873C31.0329 39.2274 31.7586 39.2861 32.0438 39.6622C31.5491 39.5149 31.0786 39.3563 30.5587 39.3404C30.5494 39.3441 30.5403 39.348 30.531 39.3517C30.3121 39.4386 30.0226 39.4023 29.8404 39.5563C29.8071 39.6742 29.8086 39.683 29.8517 39.7977C29.6371 39.7744 29.4004 39.7264 29.2159 39.6082L29.1237 39.6478L29.0543 39.4497Z" fill="#8F5125"/>
<path d="M29.2159 39.6082C29.6551 39.4042 30.0794 39.3327 30.5587 39.3404C30.5494 39.3441 30.5403 39.348 30.531 39.3517C30.3121 39.4386 30.0226 39.4023 29.8404 39.5563C29.8071 39.6742 29.8086 39.683 29.8517 39.7977C29.6371 39.7744 29.4004 39.7264 29.2159 39.6082Z" fill="#E7AF60"/>
<path d="M29.1237 39.6478L29.2159 39.6082C29.4004 39.7264 29.6371 39.7744 29.8517 39.7977C31.0259 40.408 30.9282 40.7445 32.4376 40.9755C32.674 41.0116 33.0058 41.0758 33.2378 40.9952C33.3322 40.9624 33.3418 40.9281 33.3904 40.841C33.364 40.7174 33.3215 40.6512 33.2467 40.554C33.5051 40.7334 33.7442 40.9301 33.9841 41.1347C33.2078 41.2856 32.435 41.6129 31.6376 41.6293C30.4076 41.6547 29.4801 40.6883 28.6508 39.872C28.8024 39.7862 28.9654 39.7193 29.1237 39.6478Z" fill="#D79D55"/>
<path d="M31.0848 7.57953L31.3082 7.62787L31.5306 7.70571C33.4415 8.30537 33.4273 10.7986 32.9473 12.4192C32.9411 12.4402 32.9347 12.4611 32.928 12.4819C32.7554 12.4932 32.6237 12.4888 32.4507 12.4822C32.7355 11.7271 32.6292 10.3418 32.5742 9.53036C32.3522 8.63527 32.0059 8.22874 31.1826 7.86184C31.0388 7.79276 30.8035 7.77562 30.6462 7.78747C30.8163 7.72565 30.898 7.69694 31.0523 7.60013L31.0848 7.57953Z" fill="#7E461D"/>
<path d="M27.0711 40.8148C27.5995 40.9697 28.1197 41.2407 28.6172 41.4806L28.4885 41.5651L28.5887 41.7147C28.0162 41.7479 27.3978 41.5823 26.8352 41.4806C26.6557 41.426 26.4478 41.4232 26.2615 41.404C26.5186 41.19 26.7968 41.0044 27.0711 40.8148Z" fill="#D09044"/>
<path d="M26.8352 41.4806C27.3978 41.5823 28.0162 41.7479 28.5887 41.7147L28.4885 41.5651L28.6172 41.4806C28.7985 41.5889 29.0026 41.8887 29.1693 41.9408C29.2991 41.9044 29.3002 41.9079 29.369 41.7896L29.4577 41.9189L29.4394 41.9903C28.3952 42.0195 27.3598 41.9207 26.3272 41.7613L26.4273 41.7188C26.3135 41.6712 26.1766 41.6308 26.0926 41.5367C26.3374 41.4814 26.5858 41.4851 26.8352 41.4806Z" fill="#602D0F"/>
<path d="M35.7196 27.0425C35.8057 26.8294 36.1031 26.3634 36.2499 26.1826C36.2922 26.5108 36.3481 26.7571 36.4826 27.0622L36.4739 27.131L36.3609 27.148L36.3511 27.1998L36.228 27.1943C36.1296 27.2914 36.1114 27.3085 36.0418 27.4336L35.9846 27.0398L35.7242 27.5295L35.6663 27.5441L35.6253 27.5238C35.6027 27.4396 35.6932 27.1453 35.7196 27.0425Z" fill="#763D15"/>
<path d="M35.9846 27.0398L36.1576 26.5512C36.2031 26.7004 36.2919 27.0247 36.3609 27.148L36.3511 27.1998L36.228 27.1943C36.1296 27.2914 36.1114 27.3085 36.0418 27.4336L35.9846 27.0398Z" fill="var(--fill-0, #E5A445)"/>
<path d="M24.2801 42.5C24.2081 42.4371 24.1202 42.3661 24.0695 42.2836C24.0028 42.1751 23.9779 42.0206 24.0099 41.8965C24.0931 41.5731 24.4443 41.3896 24.6988 41.2278L24.6236 41.6301L24.6558 41.6701C24.4861 41.8649 24.274 42.0467 24.2143 42.3078L24.2801 42.5Z" fill="#602D0F"/>
<path d="M36.6625 35.1177C36.8222 34.9888 37.0539 35.0368 37.1841 34.8781C37.7315 34.885 38.2729 34.897 38.8181 34.9503C38.5482 34.9437 37.9929 34.8638 37.8026 35.0684C37.7821 35.0905 37.7666 35.1172 37.7508 35.1427C37.405 35.1784 37.0587 35.2037 36.7256 35.3125C36.6299 35.2307 36.5631 35.3109 36.4676 35.2952C36.5417 35.2509 36.5904 35.2068 36.6455 35.139C36.6512 35.1319 36.6568 35.1248 36.6625 35.1177Z" fill="#763D15"/>
<path d="M24.9301 41.4457C25.0894 41.4844 25.1399 41.5118 25.2311 41.6561C25.2341 41.6608 25.2368 41.6658 25.2397 41.6707C24.9702 41.8762 24.5466 42.2744 24.2143 42.3078C24.274 42.0467 24.4861 41.8649 24.6558 41.6701L24.9301 41.4457Z" fill="#F1C887"/>
<path d="M36.4944 25.9548C36.5173 26.2313 36.564 26.8051 36.4826 27.0622C36.3481 26.7571 36.2922 26.5108 36.2499 26.1826C36.3467 26.1313 36.4182 26.0383 36.4944 25.9548Z" fill="var(--fill-0, #E5A445)"/>
<path d="M34.2197 41.0552C34.0668 40.8711 33.8317 40.7602 33.6726 40.5659L33.7018 40.516L33.8936 40.5437C33.9953 40.5884 34.2763 40.674 34.3261 40.7625L34.2197 41.0552Z" fill="var(--fill-0, #E5A445)"/>
</g>
</g>
</svg>
