<svg preserveAspectRatio="none" width="100%" height="100%" overflow="visible" style="display: block;" viewBox="0 0 91 69" fill="none" xmlns="http://www.w3.org/2000/svg">
<g id="Vector">
<path d="M66.132 0.520844C67.2255 -0.257919 69.2622 0.0122984 70.5423 0.21689C72.7254 0.506303 76.6615 1.50468 78.6496 2.46367C79.7318 2.88607 83.2399 4.38092 82.7853 5.94583C82.5271 6.83408 81.8373 8.04351 81.4734 8.91305C80.836 10.3523 80.2448 11.8307 79.5887 13.26C79.4531 13.7198 78.9162 14.9342 78.9503 15.2688C79.1247 15.4902 80.1971 15.7795 80.539 15.9226C81.8228 16.4598 83.9891 17.6474 83.7492 19.2936C83.6814 19.7608 83.4845 20.07 83.1155 20.3504C83.028 20.4162 82.9387 20.4799 82.8484 20.5416C83.4372 21.2003 84.077 21.93 84.569 22.6688C85.2851 23.7438 86.0413 24.8601 86.5759 26.0376C86.8046 26.5404 86.9481 27.0536 87.1567 27.5587C87.3321 27.9454 87.6525 28.2558 87.8119 28.6516C88.7983 31.1005 89.4577 33.7235 89.5934 36.365C89.6326 37.1264 89.6743 37.8396 89.5728 38.6012C89.4596 39.448 89.2342 40.2767 89.034 41.1075C88.8731 41.7744 88.7249 42.4502 88.5785 43.1211C88.1819 44.4912 88.0173 44.1096 89.0387 45.0674C89.3329 45.3442 89.6069 45.6418 89.8585 45.9578C90.6723 46.996 91.1498 48.3171 90.9576 49.6331C90.6597 51.6749 89.3127 52.9839 87.7147 54.1187C87.341 54.3839 86.9369 54.6388 86.5819 54.9109C86.4533 57.4107 84.9755 59.1085 82.3195 58.4793C80.9122 58.1464 80.2056 57.3622 79.4947 56.176C78.3531 56.6381 77.2638 57.3089 76.2111 57.9443C76.0175 58.0615 76.2083 58.6954 76.2401 58.8994C76.5057 60.5907 76.5759 62.3104 76.5183 64.0204C77.3574 64.5563 78.0308 65.284 78.2726 66.2672C78.4134 66.8404 78.3741 67.4697 78.0561 67.9799C77.7727 68.4346 77.3466 68.6311 76.8396 68.7497C75.5175 69.0592 70.9562 69.0765 69.8534 68.3683C69.5887 68.1979 69.3352 67.8917 69.2417 67.5901C68.875 66.4077 69.0691 65.0254 69.063 63.8024C69.0569 62.5933 68.9713 61.1691 68.7249 59.9861C67.1745 60.3731 65.822 60.5197 64.2188 60.3591C63.6159 60.2984 63.0369 60.1883 62.4341 60.1463C62.4051 61.2307 62.3513 62.3268 62.3714 63.4112C62.3953 64.7001 62.6614 66.1005 62.3798 67.3712C62.2709 67.8618 62.08 68.1881 61.646 68.4537C60.5633 69.1171 55.9557 69.0989 54.7098 68.8076C54.1346 68.6731 53.6248 68.4379 53.3119 67.9141C53.0164 67.4193 53.0075 66.7405 53.1496 66.1957C53.4036 65.222 54.1612 64.5642 54.9979 64.0801C54.5854 62.514 54.9334 59.8312 55.1742 58.2421C53.7356 57.6642 52.4771 57.0937 51.6699 55.7045C51.1531 55.936 50.9108 56.0509 50.3393 56.0541C49.0766 56.0611 47.812 56.0443 46.5492 56.042L40.3252 56.0569L3.64576 56.0635C2.92581 56.0616 2.10851 56.0929 1.39778 56.0275C0.362929 55.9323 0.0229331 55.1126 0.0160581 54.2219C-0.00198505 51.8841 0.0253651 49.5603 0.0186913 47.229L0.00970704 29.3201L0.0192338 21.3522C0.0146786 19.9663 -0.0219925 18.5696 0.0197669 17.1842C0.0329368 16.7474 0.369659 16.3779 0.721792 16.1459C1.22832 15.8123 1.89439 15.9443 2.4679 15.9196C2.91393 15.9129 3.37291 15.9262 3.82044 15.9278L9.4454 15.9325C9.44615 15.3599 9.37351 14.6033 9.76665 14.1501C10.4421 13.3714 12.0322 13.5547 12.2726 14.6532C12.361 15.0572 12.3478 15.5145 12.3707 15.9314C16.237 15.872 20.2355 15.921 24.1098 15.9198L39.9662 15.9281C39.9768 15.5293 39.9578 15.1081 39.9989 14.7158C40.1143 13.6142 41.5998 13.4038 42.3521 13.9701C42.9724 14.437 42.8003 15.249 42.8983 15.9401C44.3224 15.9234 45.7467 15.9198 47.1708 15.9295C48.3241 15.9263 50.1069 15.836 51.2499 16.0252C51.6521 16.0918 51.9388 16.6181 52.1175 16.9644C52.3934 16.7653 52.7039 16.5961 52.9864 16.404C53.3891 16.1299 53.7843 15.8082 54.2001 15.5569C55.5283 14.7538 56.9388 14.3554 58.4518 14.094C57.5543 12.2009 58.5214 11.2888 60.5577 11.088C61.256 11.0192 63.3582 11.1982 64.0106 11.4348C64.1799 11.4409 64.4521 11.4805 64.627 11.5014C64.7688 10.9903 64.7641 10.5887 64.8286 10.0703C64.8543 9.86494 64.9077 9.7234 64.9324 9.48028C64.9044 9.28511 65.3491 6.44131 65.4062 5.94979C65.5905 4.36294 65.7972 2.64505 65.9693 1.04082C65.9899 0.852438 66.0544 0.692759 66.132 0.520844Z" fill="#6C1905"/>
<path d="M66.132 0.520844C67.2255 -0.257919 69.2622 0.0122984 70.5423 0.21689C72.7254 0.506303 76.6615 1.50468 78.6496 2.46367C79.7318 2.88607 83.2399 4.38092 82.7853 5.94583C82.5271 6.83408 81.8373 8.04351 81.4734 8.91305C80.836 10.3523 80.2448 11.8307 79.5887 13.26C79.4531 13.7198 78.9162 14.9342 78.9503 15.2688C79.1247 15.4902 80.1971 15.7795 80.539 15.9226C81.8228 16.4598 83.9891 17.6474 83.7492 19.2936C83.6814 19.7608 83.4845 20.07 83.1155 20.3504C83.028 20.4162 82.9387 20.4799 82.8484 20.5416C82.5627 20.7139 82.2938 20.832 81.9926 20.9705C83.2623 22.4961 84.663 23.703 84.7248 25.7675C85.0096 25.9455 85.4352 26.1829 85.633 26.4518C86.5558 27.7041 86.9795 29.2427 87.5094 30.6834C88.369 33.0203 88.614 35.3756 88.6201 37.848C88.6234 39.0848 88.2834 40.022 87.9929 41.1962C87.8017 41.9714 87.6899 42.9556 87.4055 43.6891C86.2925 43.0288 85.807 42.8324 84.664 42.2771C84.1696 42.2123 83.8867 42.1999 83.6454 42.7193C84.2407 43.0485 84.8992 43.2778 85.4913 43.623C87.0431 44.5468 88.311 45.3131 89.3371 46.8373C90.3234 48.3026 90.3328 49.3773 89.5003 50.9696C89.1341 51.6703 87.1862 53.7877 86.4136 53.8027C86.2803 53.6085 86.2368 53.446 86.0829 53.2364C85.4988 52.4377 84.8468 51.7347 83.9826 51.2282C83.737 51.0839 83.1216 50.929 83.0846 50.717C83.557 50.0308 85.4731 49.3642 85.4824 48.3115C85.4838 48.1649 85.2308 47.9838 85.0727 47.9838C84.9946 48.0286 84.8903 48.1145 84.8136 48.0683C84.3001 47.7574 82.8391 46.5451 82.2208 46.6823C81.7816 47.1982 83.7295 48.3904 84.1154 48.6892L84.0738 48.7293C83.7052 49.0818 83.2188 49.3796 82.8232 49.7068C81.1101 51.1222 79.4909 51.5634 79.0798 54.0347C79.0798 54.5277 79.0789 54.8007 79.1453 55.2918C77.8335 55.7993 77.1104 56.4047 75.9132 57.0391C75.25 57.3902 73.8661 57.5405 73.0916 57.7506C72.1773 58.0339 71.5922 58.2645 70.6391 58.4251C69.9671 58.6095 69.2997 58.8943 68.6566 59.0805C67.5608 59.3975 65.4712 59.7191 64.3675 59.4936C64.1187 59.2472 62.87 59.236 62.4444 59.0553C62.298 58.9932 61.4417 58.7257 61.3046 58.7211L61.2565 58.6618C61.2406 58.0302 60.8023 57.3519 60.1083 57.3566C59.3927 57.3612 58.7001 57.6203 58.0028 57.7487C57.7039 57.8038 57.3878 57.8224 57.0833 57.8635C56.552 57.7604 55.8253 57.5778 55.3623 57.3173C54.9021 57.1768 54.3226 56.8328 53.9007 56.6036C53.3849 56.323 52.8227 55.929 52.4528 55.4758C52.1979 55.1635 52.0969 54.797 51.798 54.4889C51.2466 54.4758 50.7369 54.4469 50.2505 54.1579C48.9676 53.3961 47.8073 52.2879 47.0235 51.0172C46.6652 50.4365 46.5291 49.7619 46.2055 49.1653C45.8122 48.5995 45.3782 48.1411 45.018 47.5445C44.1309 46.0731 43.8473 44.5556 43.3813 42.9426C43.1342 42.0869 42.5101 41.3835 42.4146 40.3742C42.3258 39.4354 42.2015 38.5047 42.2383 37.5503C42.2443 36.839 42.3431 36.1285 42.427 35.4226C42.427 35.4179 42.427 35.4133 42.4271 35.4087C42.5306 34.8209 42.5098 34.2038 42.5749 33.6C42.6694 32.723 42.8999 31.9612 43.1899 31.1312C43.2841 30.8614 43.2391 30.6291 43.3381 30.4029C44.1089 26.3767 47.1563 21.9111 50.4029 19.4025C51.1021 18.8625 51.9355 18.3044 52.6698 17.8069C53.1286 17.496 53.6851 17.2302 54.1121 16.8727L54.1631 16.8293C55.1279 16.0485 56.495 15.4867 57.6993 15.2044C58.1384 15.1224 58.6608 15.0125 59.0972 14.9631C59.042 14.7815 58.5935 14.2668 58.4518 14.094C57.5543 12.2009 58.5214 11.2888 60.5577 11.088C61.256 11.0192 63.3582 11.1982 64.0106 11.4348C64.1799 11.4409 64.4521 11.4805 64.627 11.5014C64.7688 10.9903 64.7641 10.5887 64.8286 10.0703C64.8543 9.86494 64.9077 9.7234 64.9324 9.48028C64.9044 9.28511 65.3491 6.44131 65.4062 5.94979C65.5905 4.36294 65.7972 2.64505 65.9693 1.04082C65.9899 0.852438 66.0544 0.692759 66.132 0.520844Z" fill="#F8C55A"/>
<path d="M66.132 0.520844C67.2255 -0.257919 69.2622 0.0122984 70.5423 0.21689C72.7254 0.506303 76.6615 1.50468 78.6496 2.46367C79.7318 2.88607 83.2399 4.38092 82.7853 5.94583C82.5271 6.83408 81.8373 8.04351 81.4734 8.91305C80.836 10.3523 80.2448 11.8307 79.5887 13.26C79.2524 13.4372 79.2898 13.5277 78.9129 13.5258L78.9157 13.571C78.6491 13.5238 77.6553 13.6968 77.2723 13.7198C76.5525 13.763 76.0979 13.7456 75.3842 13.6422C73.889 13.6187 70.2659 12.512 68.8787 11.8681C67.624 11.2801 66.4276 10.5751 65.3057 9.76238L65.4067 9.67962L65.2912 9.65884C65.1728 9.54779 65.1513 9.51777 65.0077 9.44882L64.9324 9.48028C64.9044 9.28511 65.3491 6.44131 65.4062 5.94979C65.5905 4.36294 65.7972 2.64505 65.9693 1.04082C65.9899 0.852438 66.0544 0.692759 66.132 0.520844Z" fill="#6A53CB"/>
<path d="M70.5423 0.21689C72.7254 0.506303 76.6615 1.50468 78.6496 2.46367C78.911 2.75706 79.1098 2.59873 79.077 3.02259L79.1743 3.15377C80.0363 3.6216 82.1932 4.7455 82.3588 5.77254C82.3265 5.89709 82.305 6.04881 82.2199 6.13774L82.1048 6.30756C81.9725 6.2465 81.3982 6.38809 81.2298 6.42679C80.6714 6.55488 79.6401 6.12859 79.3324 6.18437L79.1088 6.12522C78.5528 5.98359 77.8943 5.8977 77.29 5.75471L77.0113 5.65131C77.0225 5.65617 76.4024 5.53181 76.3607 5.5228C75.8458 5.4123 75.3337 5.29242 74.8235 5.16321C73.7305 4.78471 72.7582 4.62273 71.6905 4.08785L71.4019 3.86208C70.5386 3.54385 69.3993 2.99472 68.564 2.56762C67.8438 2.16198 67.4533 1.82359 66.8528 1.27303L66.7634 1.19265C66.7185 1.05726 66.7195 1.11574 66.7952 0.958196C67.2339 0.576582 69.6677 0.71933 70.3926 0.718583C70.0788 0.50923 68.6468 0.569832 68.1697 0.558208C68.6921 0.413775 69.7168 0.522324 70.2865 0.427383C70.3272 0.420609 70.3529 0.327853 70.3749 0.276778L70.5423 0.21689Z" fill="#8876D4"/>
<path d="M70.5423 0.21689C72.7254 0.506303 76.6615 1.50468 78.6496 2.46367C78.911 2.75706 79.1098 2.59873 79.077 3.02259L79.1743 3.15377C77.0828 2.10701 72.7502 0.787691 70.3926 0.718583C70.0788 0.50923 68.6468 0.569832 68.1697 0.558208C68.6921 0.413775 69.7168 0.522324 70.2865 0.427383C70.3272 0.420609 70.3529 0.327853 70.3749 0.276778L70.5423 0.21689Z" fill="#6350C0"/>
<path d="M80.1742 6.03485C80.3655 6.02449 80.7948 6.00133 80.9814 6.03209C81.371 6.19711 81.8382 6.08886 82.2199 6.13774L82.1048 6.30756C81.9725 6.2465 81.3982 6.38809 81.2298 6.42679C80.6714 6.55488 79.6401 6.12859 79.3324 6.18437L79.1088 6.12522C79.498 6.10739 79.7889 6.08116 80.1742 6.03485Z" fill="#4B2B9C"/>
<path d="M71.4019 3.86208C71.712 3.89865 72.5501 4.21683 72.8896 4.33209C73.5149 4.53907 74.1425 4.73733 74.7734 4.92686L74.722 5.04972L74.8235 5.16321C73.7305 4.78471 72.7582 4.62273 71.6905 4.08785L71.4019 3.86208Z" fill="#6B6F9F"/>
<path d="M74.7734 4.92686C75.6807 5.1535 76.5347 5.44166 77.385 5.65682L77.0113 5.65131C77.0225 5.65617 76.4024 5.53181 76.3607 5.5228C75.8458 5.4123 75.3337 5.29242 74.8235 5.16321L74.722 5.04972L74.7734 4.92686Z" fill="#6B6F9F"/>
<path d="M77.0113 5.65131L77.385 5.65682C78.0678 5.86777 79.447 6.01622 80.1742 6.03485C79.7889 6.08116 79.498 6.10739 79.1088 6.12522C78.5528 5.98359 77.8943 5.8977 77.29 5.75471L77.0113 5.65131Z" fill="#40268A"/>
<path d="M80.9814 6.03209C81.4926 5.98037 81.8728 5.95871 82.3588 5.77254C82.3265 5.89709 82.305 6.04881 82.2199 6.13774C81.8382 6.08886 81.371 6.19711 80.9814 6.03209Z" fill="#40268A"/>
<path d="M78.6496 2.46367C79.7318 2.88607 83.2399 4.38092 82.7853 5.94583C82.5271 6.83408 81.8373 8.04351 81.4734 8.91305C80.836 10.3523 80.2448 11.8307 79.5887 13.26C79.2524 13.4372 79.2898 13.5277 78.9129 13.5258L78.9157 13.571C78.6491 13.5238 77.6553 13.6968 77.2723 13.7198C76.5525 13.763 76.0979 13.7456 75.3842 13.6422C75.8374 13.5296 75.6045 13.4078 75.7991 13.1139C76.8406 11.543 77.7371 9.83642 78.6159 8.17058C78.8254 7.77411 79.6369 6.60973 79.6322 6.26485C79.5326 6.23712 79.4325 6.21028 79.3324 6.18437C79.6401 6.12859 80.6714 6.55488 81.2298 6.42679C81.3982 6.38809 81.9725 6.2465 82.1048 6.30756L82.2199 6.13774C82.305 6.04881 82.3265 5.89709 82.3588 5.77254C82.1932 4.7455 80.0363 3.6216 79.1743 3.15377L79.077 3.02259C79.1098 2.59873 78.911 2.75706 78.6496 2.46367Z" fill="#5942B8"/>
<path d="M78.6496 2.46367C79.7318 2.88607 83.2399 4.38092 82.7853 5.94583C82.5271 6.83408 81.8373 8.04351 81.4734 8.91305C80.836 10.3523 80.2448 11.8307 79.5887 13.26C79.2524 13.4372 79.2898 13.5277 78.9129 13.5258C79.1271 12.8096 79.3927 12.2371 79.685 11.5565C80.0232 10.7696 80.2799 9.95592 80.6877 9.19539C81.1938 8.25321 81.5618 7.22691 82.1048 6.30756L82.2199 6.13774C82.305 6.04881 82.3265 5.89709 82.3588 5.77254C82.1932 4.7455 80.0363 3.6216 79.1743 3.15377L79.077 3.02259C79.1098 2.59873 78.911 2.75706 78.6496 2.46367Z" fill="#301E7B"/>
<path d="M66.132 0.520844C67.2255 -0.257919 69.2622 0.0122984 70.5423 0.21689L70.3749 0.276778C70.3529 0.327853 70.3272 0.420609 70.2865 0.427383C69.7168 0.522324 68.6921 0.413775 68.1697 0.558208C67.6338 0.540922 66.6133 0.365287 66.5212 1.07746C66.3888 2.10249 66.2583 3.12839 66.1573 4.15731C66.0151 5.76937 65.6906 7.34707 65.5035 8.9525C65.4749 9.20089 65.4492 9.43234 65.4067 9.67962L65.2912 9.65884C65.1728 9.54779 65.1513 9.51777 65.0077 9.44882L64.9324 9.48028C64.9044 9.28511 65.3491 6.44131 65.4062 5.94979C65.5905 4.36294 65.7972 2.64505 65.9693 1.04082C65.9899 0.852438 66.0544 0.692759 66.132 0.520844Z" fill="#40268A"/>
<path d="M71.6905 4.08785C72.7582 4.62273 73.7305 4.78471 74.8235 5.16321C75.3337 5.29242 75.8458 5.4123 76.3607 5.5228C76.4024 5.53181 77.0225 5.65617 77.0113 5.65131L77.29 5.75471C76.8476 5.70882 76.2962 5.69529 75.8327 5.62825C75.156 5.53036 72.0688 4.74825 71.6554 4.43353C71.6086 4.28139 71.6446 4.25875 71.6905 4.08785Z" fill="#4B2B9C"/>
<path d="M67.5739 2.35595C67.3803 2.09856 66.7471 1.57354 66.8528 1.27303C67.4533 1.82359 67.8438 2.16198 68.564 2.56762C68.1805 2.55443 67.9359 2.47188 67.5739 2.35595Z" fill="#5942B8"/>
<path d="M64.9324 9.48028L65.0077 9.44882C65.1513 9.51777 65.1728 9.54779 65.2912 9.65884L65.4067 9.67962L65.3057 9.76238C66.4276 10.5751 67.624 11.2801 68.8787 11.8681C70.2659 12.512 73.889 13.6187 75.3842 13.6422C76.0979 13.7456 76.5525 13.763 77.2723 13.7198C77.6553 13.6968 78.6491 13.5238 78.9157 13.571L78.9129 13.5258C79.2898 13.5277 79.2524 13.4372 79.5887 13.26C79.4531 13.7198 78.9162 14.9342 78.9503 15.2688C79.1247 15.4902 80.1971 15.7795 80.539 15.9226C81.8228 16.4598 83.9891 17.6474 83.7492 19.2936C83.6814 19.7608 83.4845 20.07 83.1155 20.3504C83.028 20.4162 82.9387 20.4799 82.8484 20.5416C82.5627 20.7139 82.2938 20.832 81.9926 20.9705C80.2809 21.7527 78.5804 21.8402 76.7152 21.7714C75.8907 21.7405 74.3539 21.4712 73.4695 21.3606C72.5267 21.2453 70.9964 20.8381 70.0531 20.6044C69.6228 20.4507 69.0799 20.3101 68.6332 20.1833C66.8425 19.6748 65.1869 18.7738 63.4663 18.1263C61.9842 17.4424 60.1574 16.2312 59.0972 14.9631C59.042 14.7815 58.5935 14.2668 58.4518 14.094C57.5543 12.2009 58.5214 11.2888 60.5577 11.088C61.256 11.0192 63.3582 11.1982 64.0106 11.4348C64.1799 11.4409 64.4521 11.4805 64.627 11.5014C64.7688 10.9903 64.7641 10.5887 64.8286 10.0703C64.8543 9.86494 64.9077 9.7234 64.9324 9.48028Z" fill="#8876D4"/>
<path d="M65.142 11.0951C65.1719 10.8833 65.2308 9.84337 65.3057 9.76238C66.4276 10.5751 67.624 11.2801 68.8787 11.8681C70.2659 12.512 73.889 13.6187 75.3842 13.6422C76.0979 13.7456 76.5525 13.763 77.2723 13.7198C77.6553 13.6968 78.6491 13.5238 78.9157 13.571C78.7375 14.0741 78.4368 14.8538 78.209 15.3472C78.065 15.7627 77.819 16.6897 77.4182 16.8403C77.0333 16.9848 75.9155 17.001 75.4838 16.9994C74.3109 17.0373 72.1479 16.6227 70.9964 16.3307C70.8758 16.2747 70.6386 16.2011 70.5072 16.1619C69.2524 15.7877 68.1071 15.306 66.9407 14.7047C66.184 14.2772 65.4413 13.7267 64.8436 13.095C64.9596 12.4308 65.0592 11.764 65.142 11.0951Z" fill="#F8F8F4"/>
<path d="M58.4518 14.094C57.5543 12.2009 58.5214 11.2888 60.5577 11.088C61.256 11.0192 63.3582 11.1982 64.0106 11.4348C64.1921 11.51 64.3474 11.549 64.4624 11.7007L64.4358 11.777C63.9134 11.9648 63.0313 11.6353 62.4589 11.7243L62.0263 11.6805C60.9534 11.6897 58.7146 11.5815 58.8451 13.2272L58.8713 13.2263C58.9176 12.9462 58.9461 12.704 59.1645 12.5014L59.222 12.5057C59.2674 12.6184 59.3151 12.7304 59.3642 12.8416C59.186 12.9687 59.0948 13.0037 59.0509 13.1951L59.0976 13.3259C59.158 13.1145 59.1177 13.1187 59.2571 13.0192C59.3474 13.0404 59.4746 13.071 59.519 13.1704C60.2893 14.9041 61.3921 15.5139 62.927 16.3989C65.4661 17.863 67.9682 18.9559 70.8463 19.5651C74.3848 20.314 78.5327 20.9973 82.0197 19.6975C82.4621 19.533 82.8311 19.4446 83.0449 18.9916C83.0407 18.5913 82.616 18.1469 82.4186 17.7916C81.6834 16.9464 80.0171 16.2241 79.0036 15.7885C78.6992 15.6576 78.5102 15.4747 78.209 15.3472C78.4368 14.8538 78.7375 14.0741 78.9157 13.571L78.9129 13.5258C79.2898 13.5277 79.2524 13.4372 79.5887 13.26C79.4531 13.7198 78.9162 14.9342 78.9503 15.2688C79.1247 15.4902 80.1971 15.7795 80.539 15.9226C81.8228 16.4598 83.9891 17.6474 83.7492 19.2936C83.6814 19.7608 83.4845 20.07 83.1155 20.3504C83.028 20.4162 82.9387 20.4799 82.8484 20.5416C82.5627 20.7139 82.2938 20.832 81.9926 20.9705C80.2809 21.7527 78.5804 21.8402 76.7152 21.7714C75.8907 21.7405 74.3539 21.4712 73.4695 21.3606C72.5267 21.2453 70.9964 20.8381 70.0531 20.6044C69.6228 20.4507 69.0799 20.3101 68.6332 20.1833C66.8425 19.6748 65.1869 18.7738 63.4663 18.1263C61.9842 17.4424 60.1574 16.2312 59.0972 14.9631C59.042 14.7815 58.5935 14.2668 58.4518 14.094Z" fill="#40268A"/>
<path d="M82.4186 17.7916C82.7236 18.0437 82.9611 18.3862 83.1117 18.7504C83.3549 19.3392 82.9579 19.2888 82.8587 19.5155C82.906 19.6099 82.9074 19.6395 82.9831 19.7074C83.0514 19.5966 83.101 19.5069 83.1852 19.4078C83.1889 19.6589 83.202 20.4831 82.8194 20.4575C82.6819 20.3412 82.7184 20.3487 82.6483 20.1515C82.3214 20.6282 81.487 20.7217 80.9506 20.8441C78.2577 21.4586 75.1462 21.2767 72.4626 20.675C68.0014 19.6745 62.949 18.1894 59.7136 14.7839C58.9578 13.9899 57.985 12.7057 59.3675 11.8736C59.8651 11.574 61.4852 11.523 62.0263 11.6805C60.9534 11.6897 58.7146 11.5815 58.8451 13.2272L58.8713 13.2263C58.9176 12.9462 58.9461 12.704 59.1645 12.5014L59.222 12.5057C59.2674 12.6184 59.3151 12.7304 59.3642 12.8416C59.186 12.9687 59.0948 13.0037 59.0509 13.1951L59.0976 13.3259C59.158 13.1145 59.1177 13.1187 59.2571 13.0192C59.3474 13.0404 59.4746 13.071 59.519 13.1704C60.2893 14.9041 61.3921 15.5139 62.927 16.3989C65.4661 17.863 67.9682 18.9559 70.8463 19.5651C74.3848 20.314 78.5327 20.9973 82.0197 19.6975C82.4621 19.533 82.8311 19.4446 83.0449 18.9916C83.0407 18.5913 82.616 18.1469 82.4186 17.7916Z" fill="#5942B8"/>
<path d="M64.9324 9.48028L65.0077 9.44882C65.1513 9.51777 65.1728 9.54779 65.2912 9.65884L65.4067 9.67962L65.3057 9.76238C65.2308 9.84337 65.1719 10.8833 65.142 11.0951C64.9119 11.4246 64.6874 11.6716 64.7346 12.0967C64.259 11.9935 62.7128 11.8084 62.4589 11.7243C63.0313 11.6353 63.9134 11.9648 64.4358 11.777L64.4624 11.7007C64.3474 11.549 64.1921 11.51 64.0106 11.4348C64.1799 11.4409 64.4521 11.4805 64.627 11.5014C64.7688 10.9903 64.7641 10.5887 64.8286 10.0703C64.8543 9.86494 64.9077 9.7234 64.9324 9.48028Z" fill="#5942B8"/>
<path d="M64.7346 12.0967C64.6874 11.6716 64.9119 11.4246 65.142 11.0951C65.0592 11.764 64.9596 12.4308 64.8436 13.095C65.4413 13.7267 66.184 14.2772 66.9407 14.7047C66.4763 14.8085 65.7069 13.9389 65.3141 13.7151L65.2996 13.7744C65.6022 14.073 66.1063 14.5598 66.4683 14.7676C66.5366 14.8066 66.4931 14.7575 66.5422 14.8452L66.4711 14.8596C66.3902 14.8107 66.3107 14.7592 66.2331 14.7051C65.9029 14.4754 64.5298 13.308 64.3722 12.8805C64.3432 12.8022 64.3815 12.533 64.468 12.4148L64.5387 12.4301C64.5915 12.5922 64.6191 12.8174 64.8038 12.8971C64.8702 12.766 64.8506 12.5213 64.7641 12.3985C64.7805 12.2627 64.7898 12.2222 64.7346 12.0967Z" fill="#6A53CB"/>
<path d="M70.9964 16.3307C72.1479 16.6227 74.3109 17.0373 75.4838 16.9994L75.6106 17.0599C75.496 17.2532 74.4549 16.9026 74.106 17.19C74.2407 17.4192 75.1897 17.3246 75.3903 17.3962C74.606 17.4735 73.0131 17.3926 72.3176 17.0187L72.3606 17.0106C72.6179 17.1202 73.217 17.2376 73.4995 17.2248L73.4948 17.0507C73.3629 16.9693 73.1496 16.8296 72.9958 16.8403C72.2493 16.8923 71.7031 16.5992 70.9945 16.3991L70.9964 16.3307Z" fill="#4B2B9C"/>
<path d="M43.3381 30.4029L43.386 30.4901L43.6893 30.3575C45.2851 29.6499 46.9477 30.6355 47.8232 31.98C48.0725 33.4671 48.022 34.1252 47.1287 35.4152C46.6638 36.087 45.7458 36.9211 44.9222 37.0708C44.8675 37.0811 44.8118 37.0881 44.7557 37.0918C44.1479 36.9659 43.7865 36.839 43.2982 36.4498C42.9026 36.1346 42.8121 35.7222 42.5077 35.3932L42.427 35.4226C42.427 35.4179 42.427 35.4133 42.4271 35.4087C42.5306 34.8209 42.5098 34.2038 42.5749 33.6C42.6694 32.723 42.8999 31.9612 43.1899 31.1312C43.2841 30.8614 43.2391 30.6291 43.3381 30.4029Z" fill="#984E1F"/>
<path d="M79.0798 54.0347C79.0798 54.5277 79.0789 54.8007 79.1453 55.2918C77.8335 55.7993 77.1104 56.4047 75.9132 57.0391C75.25 57.3902 73.8661 57.5405 73.0916 57.7506C72.1773 58.0339 71.5922 58.2645 70.6391 58.4251C69.9671 58.6095 69.2997 58.8943 68.6566 59.0805C67.5608 59.3975 65.4712 59.7191 64.3675 59.4936C64.1187 59.2472 62.87 59.236 62.4444 59.0553C62.298 58.9932 61.4417 58.7257 61.3046 58.7211L61.2565 58.6618C61.2406 58.0302 60.8023 57.3519 60.1083 57.3566C59.3927 57.3612 58.7001 57.6203 58.0028 57.7487C57.7039 57.8038 57.3878 57.8224 57.0833 57.8635C56.552 57.7604 55.8253 57.5778 55.3623 57.3173C55.7958 57.378 56.9009 57.7165 57.313 57.7244C58.0519 57.7384 59.1248 57.3183 59.9105 57.2646C60.6036 57.217 60.7013 57.4359 61.2307 57.8729C62.4177 57.8551 63.6374 57.9877 64.837 57.9069C66.3682 57.8038 67.9668 57.9807 69.4802 57.7137C69.7253 57.6707 70.0405 57.695 70.2911 57.6353C71.5646 57.1264 72.8961 56.7875 74.1757 56.2978C74.4035 56.2124 74.7945 56.2329 75.0054 56.1442C75.5353 55.9211 76.0829 55.789 76.6063 55.5448C77.3887 55.1807 78.0921 54.698 78.9166 54.432C79.0574 54.3867 78.9213 54.1757 79.0798 54.0347Z" fill="#EBA83E"/>
<path d="M63.4663 18.1263C65.1869 18.7738 66.8425 19.6748 68.6332 20.1833C69.0799 20.3101 69.6228 20.4507 70.0531 20.6044C69.779 20.7076 69.6612 20.9236 69.4367 21.0592C68.8357 21.4222 67.8639 21.6062 67.1712 21.6025C65.5685 21.4409 63.7899 20.4821 63.5341 18.7494C63.5037 18.5448 63.4854 18.3325 63.4663 18.1263Z" fill="#AA5617"/>
<path d="M47.8232 31.98C48.6005 32.7227 49.3937 33.3139 49.4077 34.4856C49.4264 36.0741 47.985 37.3092 46.4426 37.299C45.8996 37.2955 45.2851 37.1924 44.7557 37.0918C44.8118 37.0881 44.8675 37.0811 44.9222 37.0708C45.7458 36.9211 46.6638 36.087 47.1287 35.4152C48.022 34.1252 48.0725 33.4671 47.8232 31.98Z" fill="#BF7233"/>
<path d="M73.4695 21.3606C74.3539 21.4712 75.8907 21.7405 76.7152 21.7714C76.7789 22.0347 76.9089 22.3473 77.0075 22.6053C76.553 23.3986 74.193 23.7633 73.5444 24.3553C73.0547 23.9433 72.804 23.7826 72.6455 23.15C72.8237 22.1096 72.5384 22.2917 73.4695 21.3606Z" fill="#984E1F"/>
<path d="M67.1712 21.6025C67.8639 21.6062 68.8357 21.4222 69.4367 21.0592C69.6612 20.9236 69.779 20.7076 70.0531 20.6044C70.9964 20.8381 72.5267 21.2453 73.4695 21.3606C72.5384 22.2917 72.8237 22.1096 72.6455 23.15C72.6062 23.0363 72.616 22.7688 72.6151 22.6359C71.0095 22.5951 69.5036 22.2389 68.0075 21.7071C67.7905 21.6299 67.3831 21.7039 67.1712 21.6025Z" fill="#EBA83E"/>
<path d="M54.1959 16.9212C54.2922 16.8405 54.3965 16.7222 54.5312 16.7441C54.7519 16.7799 55.7369 17.2491 55.8776 17.3553C55.316 17.681 54.679 18.2312 54.1739 18.4917C51.7265 19.7544 49.9077 21.7235 48.1562 23.8047C47.7049 24.3405 47.4837 24.7573 46.8841 25.2062C47.2947 24.2836 48.8432 21.9229 49.5934 21.1925C50.4843 20.3836 51.4674 19.6809 52.4743 19.0286C53.0781 18.6376 54.2164 18.1144 54.5302 17.463C54.4414 17.1736 54.07 17.2891 54.1959 16.9212Z" fill="#F7EFDB"/>
<path d="M54.1631 16.8293C55.1279 16.0485 56.495 15.4867 57.6993 15.2044C58.108 15.2325 58.9919 16.2374 59.2786 16.5605C58.238 16.576 57.7788 16.5505 56.7957 16.9313C56.3435 17.1065 56.3294 17.0222 55.8776 17.3553C55.7369 17.2491 54.7519 16.7799 54.5312 16.7441C54.3965 16.7222 54.2922 16.8405 54.1959 16.9212L54.1631 16.8293Z" fill="#F8D17A"/>
<path d="M77.0075 22.6053C77.1825 23.1854 77.2362 23.6383 76.9257 24.2027C76.6806 24.6423 76.2691 24.9649 75.7827 25.0976C74.9694 25.3137 74.1631 24.8328 73.5444 24.3553C74.193 23.7633 76.553 23.3986 77.0075 22.6053Z" fill="#BF7233"/>
<path d="M83.6454 42.7193C83.3938 42.6777 82.9153 42.5322 83.0318 42.193C83.4012 41.8151 84.2562 42.0388 84.664 42.2771C84.1696 42.2123 83.8867 42.1999 83.6454 42.7193Z" fill="#984E1F"/>
<path d="M69.2576 45.2092C71.6629 44.9224 70.937 48.826 70.9702 50.2894C70.9889 51.0947 70.8168 53.2028 69.5503 52.8989C68.3947 52.6221 66.2836 51.8752 65.5287 50.9187C64.6135 51.4411 64.15 51.4439 63.2563 50.8841C62.2232 51.7828 60.525 52.7696 59.1678 53.018C57.4883 53.004 57.8817 50.0644 57.7484 48.9567C57.6352 48.0174 57.4804 45.1046 59.0612 45.2569C60.3674 45.3827 62.3934 46.5586 63.2642 47.5352C63.9475 46.8551 64.5485 46.9358 65.2977 47.4689C65.9763 46.6361 68.1875 45.5234 69.2576 45.2092Z" fill="#40268A"/>
<path d="M65.8327 47.9469C66.4954 47.2696 68.7899 45.9499 69.6892 45.9219C69.8006 45.9181 69.9596 45.9317 70.0419 46.0166C70.4263 46.4134 70.3043 49.3119 70.2491 49.9342C70.2084 50.3945 70.1462 50.8538 70.0919 51.3132C70.2018 51.6072 70.1925 51.6955 70.1415 52.0208C69.3273 52.5231 68.7763 52.3476 68.2226 51.5904C67.4659 51.2366 66.5974 50.9164 65.9637 50.3819L66.126 49.9295C66.1648 49.5112 66.1723 49.1396 66.1779 48.7214C66.1119 48.3451 66.0932 48.2434 65.8327 47.9469Z" fill="#8876D4"/>
<path d="M66.1779 48.7214L66.4356 48.5855C66.994 48.284 67.8919 48.3731 67.5982 49.0818C67.4317 49.4823 66.4094 49.7208 66.2396 48.846C66.3102 49.1621 66.3252 49.6588 66.126 49.9295C66.1648 49.5112 66.1723 49.1396 66.1779 48.7214Z" fill="#5942B8"/>
<path d="M69.9193 52.0965C70.0045 51.8178 70.0405 51.6007 70.0919 51.3132C70.2018 51.6072 70.1925 51.6955 70.1415 52.0208C69.3273 52.5231 68.7763 52.3476 68.2226 51.5904C68.7866 51.7118 69.1411 51.9639 69.9193 52.0965Z" fill="#4B2B9C"/>
<path d="M58.6964 45.9751C58.8236 45.9714 59.1285 45.9634 59.2398 45.9961C60.2888 46.3047 62.0272 47.1356 62.8424 47.805C62.6703 48.1103 62.4916 48.4086 62.3831 48.7419C62.3251 49.1593 62.3059 49.3245 62.3784 49.7376C62.4659 50.0154 62.6155 50.2932 62.7736 50.5373C62.0309 51.0135 61.0717 51.3925 60.2729 51.7711C59.8572 51.9686 59.4779 52.1847 59.0621 52.3826L58.6566 51.9452C58.333 50.6717 58.3844 49.2676 58.3479 47.9642C58.3255 47.1683 58.3592 46.6968 58.6964 45.9751Z" fill="#8876D4"/>
<path d="M62.3831 48.7419C62.3251 49.1593 62.3059 49.3245 62.3784 49.7376C62.1399 49.5999 60.9861 49.7148 61.213 48.9721C61.4627 48.6864 62.0047 48.9511 62.3831 48.7419Z" fill="#5942B8"/>
<path d="M63.9307 47.7747C65.3622 47.5833 65.7673 49.0729 65.221 50.1428C65.0681 50.4421 64.8043 50.5182 64.4966 50.5751C63.7249 50.5158 63.3461 50.3277 62.9729 49.6293C62.9602 48.7704 63.0842 48.1467 63.9307 47.7747Z" fill="#7864CF"/>
<path d="M61.4206 33.717C61.8224 33.6825 62.4902 33.8326 62.9368 33.8504C64.4704 33.9158 66.0142 33.9309 67.5468 33.8522C68.1515 33.8211 68.3016 34.1703 68.3138 34.6825C68.3503 36.1998 68.0813 37.0826 67.0015 38.152C66.2373 38.8863 65.0648 39.0825 64.0471 38.9334C63.0926 38.7908 62.2344 38.2724 61.6652 37.4941C61.0535 36.6626 60.8758 35.4028 60.9038 34.3544C60.9108 34.077 61.1975 33.8646 61.4206 33.717Z" fill="#6C1905"/>
<path d="M65.4562 35.3659C66.0259 35.2964 66.7031 35.3699 67.2648 35.454C67.1147 37.0407 66.0235 38.0998 64.3899 37.9459C63.4363 37.7965 63.014 37.5825 62.4013 36.8169C63.1646 35.9514 64.3287 35.4945 65.4562 35.3659Z" fill="#DC8571"/>
<path d="M78.4527 41.5191C80.1003 41.6313 81.3462 43.0531 81.2387 44.698C81.1316 46.343 79.7107 47.5912 78.0626 47.4885C76.407 47.3858 75.1504 45.9606 75.2579 44.3086C75.366 42.6566 76.798 41.4063 78.4527 41.5191Z" fill="#984E1F"/>
<path d="M55.0812 21.3585C55.6765 21.3039 56.3196 21.3666 56.8154 21.7043C58.3372 22.7412 58.2619 24.9027 56.8027 25.9564C56.242 26.3616 55.7214 26.4303 55.0718 26.5613C55.0134 26.574 54.9544 26.5854 54.895 26.5953C51.3065 27.1931 51.5418 21.8456 55.0812 21.3585Z" fill="#984E1F"/>
<path d="M52.3649 44.0573C53.8432 43.8173 55.2374 44.8171 55.4815 46.2925C55.7256 47.7677 54.7276 49.1616 53.2502 49.409C51.7676 49.6569 50.3651 48.6565 50.12 47.1762C49.8754 45.6958 50.8809 44.2982 52.3649 44.0573Z" fill="#BF7233"/>
<path d="M71.9313 30.5081C73.2221 30.4424 74.3899 30.883 74.9338 32.1618C75.0596 32.4572 75.1836 32.9615 75.0381 33.2649C74.9988 33.3708 74.7079 33.6804 74.5896 33.672C73.6865 33.6071 73.8773 32.4793 73.0299 31.9761L72.9771 31.9452C72.7123 31.8463 72.5402 31.841 72.2825 31.8283C71.1737 31.5807 70.9347 33.2942 70.2977 33.3871C69.3001 33.5327 69.4849 32.1862 69.9628 31.6567C70.6302 30.9178 70.9889 30.6611 71.9313 30.5081Z" fill="#6C1905"/>
<path d="M56.611 30.3187C56.9781 30.301 57.2213 30.2986 57.5828 30.3829C58.3105 30.5492 58.9405 31.0018 59.3296 31.638C59.6266 32.1204 59.9661 32.9963 59.259 33.2742C58.521 33.5641 58.3746 32.4386 57.9509 32.0628C57.6852 31.8274 57.609 31.7911 57.2807 31.6678C56.0998 31.5455 55.756 31.9964 55.293 32.9812C55.1097 33.3508 54.6757 33.4018 54.3563 33.1694C53.8348 32.7896 54.2665 31.8635 54.5616 31.471C55.1041 30.7491 55.7443 30.445 56.611 30.3187Z" fill="#6C1905"/>
<path d="M44.3998 27.4688C45.0821 26.0373 45.6836 24.8432 46.6554 23.5876C46.8551 23.3301 47.0352 22.993 47.2891 22.7935C47.3289 22.8699 47.37 22.9458 47.4126 23.021L47.5141 22.9816C47.4682 23.3572 47.0113 23.8584 46.8149 24.3069C46.4183 25.2137 46.3477 26.1946 45.9207 27.0653C45.8412 27.2274 45.7836 27.233 45.6522 27.2655C44.6598 27.3254 45.1724 27.432 44.6317 27.9422C44.3918 28.3086 44.2289 29.3276 43.8105 29.3606C43.7163 29.1428 44.2347 27.7132 44.3998 27.4688Z" fill="#F5DEA9"/>
<path d="M44.8254 27.3719C44.9325 27.1888 45.0686 26.8425 45.2842 26.8518C45.4652 27.0555 45.4165 27.123 45.6522 27.2655C44.6598 27.3254 45.1724 27.432 44.6317 27.9422C44.3918 28.3086 44.2289 29.3276 43.8105 29.3606C43.7163 29.1428 44.2347 27.7132 44.3998 27.4688L44.4699 27.569C44.6504 27.5432 44.6678 27.4917 44.8254 27.3719Z" fill="#F8D17A"/>
<path d="M83.1735 26.4108L83.2941 26.4318C84.331 27.2007 85.1621 28.8517 85.358 30.1159C85.4469 30.6901 85.4497 31.0251 85.1073 31.4916L85.0755 31.4794L85.12 31.4043C85.4333 30.8689 85.4043 30.4642 85.2434 29.8492C85.1476 29.5191 84.9914 28.8913 84.8043 28.6231L84.7313 28.6172C84.5835 28.8671 84.8052 29.6246 84.8702 29.9492C84.6766 29.7773 84.5639 28.9799 84.3628 28.6012C83.9508 27.8262 83.4901 27.4159 82.8873 26.7952C82.9588 26.6804 83.0879 26.5224 83.1735 26.4108Z" fill="#F5DEA9"/>
<path d="M70.6391 58.4251C71.5922 58.2645 72.1773 58.0339 73.0916 57.7506C73.1697 58.0549 73.8965 58.4237 74.1809 58.4358C74.5054 58.3756 74.9016 58.2907 75.2229 58.2487C75.3342 59.0282 75.4675 59.8662 75.5432 60.6467C75.6428 61.6756 75.6237 62.7534 75.6092 63.7888C74.3721 63.4401 72.0244 64.2412 70.8748 64.4139C70.6892 64.3322 70.0667 64.0853 69.9642 63.9588C69.9633 62.4253 69.8417 61.2213 69.5714 59.7163C70.054 59.5894 70.4099 59.4568 70.879 59.2822C71.0741 58.7799 71.0385 58.7827 70.6391 58.4251Z" fill="#F3C155"/>
<path d="M70.6391 58.4251C71.5922 58.2645 72.1773 58.0339 73.0916 57.7506C73.1697 58.0549 73.8965 58.4237 74.1809 58.4358C72.9153 58.5852 72.0955 58.8915 70.879 59.2822C71.0741 58.7799 71.0385 58.7827 70.6391 58.4251Z" fill="#984E1F"/>
<path d="M56.0072 58.5539C57.1273 59.0581 58.0421 59.0637 59.2141 59.3555C59.5157 59.4306 59.9254 59.4344 60.2154 59.5613C60.6195 59.7383 61.1007 60.0328 61.5591 59.9693C61.6236 60.0818 61.5492 60.7102 61.5366 60.8932C61.4566 61.9412 61.4473 62.9929 61.5081 64.0423C61.155 64.0871 60.9174 64.201 60.6022 64.356C59.6897 64.3107 58.9517 64.0895 58.0631 63.927C57.2947 63.794 56.5151 63.7333 55.735 63.7464C55.7888 63.2156 55.6826 62.4617 55.7116 61.8819C55.7668 60.7653 55.894 59.6654 56.0072 58.5539Z" fill="#F0C056"/>
<path d="M55.735 63.7464C56.5151 63.7333 57.2947 63.794 58.0631 63.927C58.9517 64.0895 59.6897 64.3107 60.6022 64.356C60.9174 64.201 61.155 64.0871 61.5081 64.0423C61.6213 64.884 61.6161 65.8106 61.6198 66.6616C61.6208 66.91 61.6184 67.3231 61.4253 67.5042C60.8276 68.0644 57.682 68.1662 56.8074 68.1349C56.1372 68.1111 54.4409 68.0504 54.0013 67.5257C53.8395 67.332 53.8643 66.938 53.9017 66.7008C54.0069 66.03 54.44 65.4362 54.9923 65.0511C55.569 64.6492 56.1989 64.6622 56.8649 64.7808L56.8518 64.7253C56.7377 64.2468 56.7204 64.1917 56.3098 63.9387C56.0413 63.9265 55.7813 64.0185 55.735 63.7464Z" fill="#984E1F"/>
<path d="M70.8748 64.4139C72.0244 64.2412 74.3721 63.4401 75.6092 63.7888C75.4445 63.9634 74.252 63.9093 74.4203 64.6562C74.6944 64.876 75.192 64.6137 75.5222 64.6767C76.8219 64.9246 77.4701 65.9217 77.4453 67.1513C77.1867 67.5999 76.8864 67.7787 76.3935 67.909C75.1639 68.2348 71.2013 68.1783 70.1939 67.5915C70.0246 67.493 69.9656 67.3847 69.9226 67.1952C69.7355 66.375 69.9661 64.8648 69.9642 63.9588C70.0667 64.0853 70.6892 64.3322 70.8748 64.4139Z" fill="#984E1F"/>
<path d="M57.0833 57.8635C57.3878 57.8224 57.7039 57.8038 58.0028 57.7487C58.7001 57.6203 59.3927 57.3612 60.1083 57.3566C60.8023 57.3519 61.2406 58.0302 61.2565 58.6618L61.3046 58.7211C61.4417 58.7257 62.298 58.9932 62.4444 59.0553C62.87 59.236 64.1187 59.2472 64.3675 59.4936C62.9135 59.4675 61.7545 58.9227 60.3562 58.6833C60.1799 58.6529 59.9764 58.8326 59.9086 59.0007C59.9759 59.5193 61.1625 59.7173 61.5591 59.9693C61.1007 60.0328 60.6195 59.7383 60.2154 59.5613C59.9254 59.4344 59.5157 59.4306 59.2141 59.3555C58.0421 59.0637 57.1273 59.0581 56.0072 58.5539C56.6409 58.5595 57.3359 58.9325 57.9911 58.7159C58.2479 58.631 58.4405 58.3747 58.3344 58.1049C58.1192 57.8813 57.5945 57.9788 57.1511 57.8789L57.0833 57.8635Z" fill="#BF7233"/>
<path d="M2.57575 22.8679C6.09506 22.8189 9.73906 22.8662 13.2656 22.8661L38.0068 22.8511L45.7869 22.8298C44.7529 24.2174 44.257 25.0957 43.5399 26.6894C43.51 26.7585 43.4231 26.973 43.3888 27.0245C42.8198 28.3061 42.2906 29.807 42.0351 31.1886C42.0079 31.3303 41.9887 31.4689 41.9355 31.6025C41.8832 31.831 41.8094 32.1177 41.777 32.344C41.7878 33.1459 41.6174 33.4888 41.6895 34.4522C41.71 34.7529 41.6695 34.7925 41.51 35.0518C41.2726 35.939 41.2591 36.3036 41.2393 37.2411L41.2546 39.0209C41.3281 39.7261 41.4518 40.34 41.5626 41.0374C41.6835 41.413 42.123 42.4275 42.1685 42.6941C42.0745 42.6982 42.0586 42.7007 41.9667 42.6855C41.7469 42.8449 41.5454 42.7041 41.2865 42.6698L41.251 42.6653C40.8125 42.4953 40.3755 42.3211 39.9402 42.143C39.7673 42.0656 39.7401 42.0541 39.6044 41.9236C38.8957 41.3704 39.3915 40.0817 37.5482 39.1065C37.4385 39.086 37.0553 38.9105 36.8291 38.8504C36.2922 38.7666 35.8556 38.8186 35.3331 38.9542C35.0827 39.0192 34.9778 39.2409 34.8899 39.2488C34.5028 38.6418 33.7075 37.7181 33.4138 37.2123C33.2958 37.0767 33.2555 37.0385 33.1822 36.8764C32.8792 36.4171 32.3944 35.6458 32.0021 35.2967C32.0032 33.7607 30.974 33.6065 29.8328 32.9933C29.3992 32.9356 29.4883 32.7147 28.8059 32.8086C28.7254 33.1326 28.8262 33.5137 28.8866 33.847C29.1511 35.1387 28.7429 35.847 30.2377 36.4642C30.3867 36.6933 30.5325 36.9244 30.6751 37.1573C30.7618 37.2752 30.8433 37.3778 30.9126 37.5069C31.2465 37.9673 31.5333 38.3706 31.8366 38.8503C31.8958 38.9344 31.9556 39.0178 32.0125 39.1035C32.1401 39.2898 32.275 39.4765 32.3843 39.6733C31.0001 40.226 30.2949 41.8748 30.4163 43.2987C30.4331 43.434 30.4456 43.5032 30.4371 43.6383C30.5311 44.1934 30.6528 44.6619 30.9478 45.1512C31.0118 45.2442 31.0661 45.3164 31.1148 45.4193C31.5911 46.0017 32.4423 46.8438 33.1915 47.0306C33.2399 47.0474 33.4424 47.1141 33.4777 47.1314C33.7553 47.2061 34.1667 47.3013 34.4551 47.3032C34.7533 47.2887 34.8739 47.2784 35.1635 47.2154C35.4522 47.3265 35.9681 47.862 36.286 48.0716C37.3347 48.7639 38.3419 49.1322 39.5351 49.5028L39.7977 49.5075C40.0376 49.5523 40.3017 49.6079 40.5404 49.6452L42.0165 49.5878L42.1897 49.5649C43.2482 49.3651 43.7409 49.1971 44.6299 48.6C44.8745 48.9137 45.1481 49.2367 45.3099 49.599C45.352 49.697 45.4001 49.7988 45.4305 49.9001C45.6214 51.0396 47.1366 52.7444 47.9074 53.5669C46.3477 53.4838 44.0665 53.5553 42.4605 53.5562L3.10956 53.5693C2.84298 53.3699 2.79097 53.3107 2.57963 53.0497C2.53398 51.8061 2.56878 50.3791 2.56831 49.1163L2.57575 22.8679Z" fill="#F8F8F4"/>
<path d="M28.7578 45.4337C29.5093 45.3944 30.3557 45.4158 31.1148 45.4193C31.5911 46.0017 32.4423 46.8438 33.1915 47.0306C33.1347 47.5623 33.1963 49.0402 33.1872 49.6779L28.7729 49.6672C28.7006 48.453 28.7439 46.6735 28.7578 45.4337Z" fill="#F8F8F4"/>
<path d="M28.7648 39.1215C29.8323 39.0802 30.9669 39.1546 32.0125 39.1035C32.1401 39.2898 32.275 39.4765 32.3843 39.6733C31.0001 40.226 30.2949 41.8748 30.4163 43.2987C30.2306 43.3948 29.0472 43.3467 28.7606 43.3435C28.7497 41.9362 28.7511 40.5288 28.7648 39.1215Z" fill="#F8F8F4"/>
<path d="M29.8328 32.9933C30.0853 32.9452 32.8363 32.9687 33.1788 33.0002C33.1797 33.35 33.1971 36.8489 33.1822 36.8764C32.8792 36.4171 32.3944 35.6458 32.0021 35.2967C32.0032 33.7607 30.974 33.6065 29.8328 32.9933Z" fill="#F8F8F4"/>
<path d="M35.1635 47.2154C35.4522 47.3265 35.9681 47.862 36.286 48.0716C37.3347 48.7639 38.3419 49.1322 39.5351 49.5028L39.5067 49.634C39.3695 49.7428 35.6398 49.6685 35.1546 49.6653C35.1101 49.2181 35.0884 47.6015 35.1635 47.2154Z" fill="#F8F8F4"/>
<path d="M41.4987 26.9902C41.7946 26.9768 43.2389 26.8659 43.3888 27.0245C42.8198 28.3061 42.2906 29.807 42.0351 31.1886C41.8733 31.2607 41.7216 31.2926 41.5544 31.2336C41.4187 31.0712 41.4953 27.4889 41.4987 26.9902Z" fill="#F8F8F4"/>
<path d="M30.9478 45.1512C31.0118 45.2442 31.0661 45.3164 31.1148 45.4193C30.3557 45.4158 29.5093 45.3944 28.7578 45.4337C28.7439 46.6735 28.7006 48.453 28.7729 49.6672L33.1872 49.6779C33.1963 49.0402 33.1347 47.5623 33.1915 47.0306C33.2399 47.0474 33.4424 47.1141 33.4777 47.1314C33.391 47.3452 33.4486 49.4081 33.4023 49.8973C32.7498 49.9234 28.8233 49.9687 28.5797 49.8212C28.458 49.5719 28.4597 45.5823 28.5645 45.1912C28.8813 45.0305 30.5299 45.122 30.9478 45.1512Z" fill="#DC8571"/>
<path d="M31.8366 38.8503C31.8958 38.9344 31.9556 39.0178 32.0125 39.1035C30.9669 39.1546 29.8323 39.0802 28.7648 39.1215C28.7511 40.5288 28.7497 41.9362 28.7606 43.3435C29.0472 43.3467 30.2306 43.3948 30.4163 43.2987C30.4331 43.434 30.4456 43.5032 30.4371 43.6383C29.9312 43.5826 28.9747 43.736 28.6014 43.547C28.4551 43.2246 28.4871 39.488 28.4988 38.8663C29.1997 38.8027 30.1991 38.8874 30.9128 38.8691C31.1591 38.8628 31.6175 38.9074 31.8366 38.8503Z" fill="#DC8571"/>
<path d="M28.7537 35.1861C28.7973 34.8527 28.6894 34.0398 28.7956 33.8472L28.8866 33.847C29.1511 35.1387 28.7429 35.847 30.2377 36.4642C30.3867 36.6933 30.5325 36.9244 30.6751 37.1573C30.4837 37.261 29.0835 37.2172 28.769 37.2157C28.7512 36.5393 28.7461 35.8626 28.7537 35.1861Z" fill="#F8F8F4"/>
<path d="M37.5482 39.1065C37.7051 39.074 38.0652 39.09 38.2405 39.0925C38.6765 39.1351 39.1669 39.1254 39.6083 39.128C39.6119 39.5235 39.726 41.7222 39.6044 41.9236C38.8957 41.3704 39.3915 40.0817 37.5482 39.1065Z" fill="#F8F8F4"/>
<path d="M28.582 32.7769C28.6802 32.7009 28.7481 32.6281 28.8838 32.6386C29.3941 32.6781 29.9188 32.678 30.4275 32.7117C31.276 32.7679 32.3145 32.628 33.1406 32.7352C33.2272 32.746 33.3125 32.7647 33.3956 32.7912C33.4815 32.9542 33.4738 36.8615 33.4138 37.2123C33.2958 37.0767 33.2555 37.0385 33.1822 36.8764C33.1971 36.8489 33.1797 33.35 33.1788 33.0002C32.8363 32.9687 30.0853 32.9452 29.8328 32.9933C29.3992 32.9356 29.4883 32.7147 28.8059 32.8086L28.7148 32.7639L28.582 32.7769Z" fill="#DC8571"/>
<path d="M28.7148 32.7639L28.8059 32.8086C28.7254 33.1326 28.8262 33.5137 28.8866 33.847L28.7956 33.8472C28.6894 34.0398 28.7973 34.8527 28.7537 35.1861C28.7461 35.8626 28.7512 36.5393 28.769 37.2157C29.0835 37.2172 30.4837 37.261 30.6751 37.1573C30.7618 37.2752 30.8433 37.3778 30.9126 37.5069C30.4574 37.5061 28.8873 37.562 28.601 37.3965C28.4502 37.03 28.4601 33.1013 28.582 32.7769L28.7148 32.7639Z" fill="#CC7A6C"/>
<path d="M28.7148 32.7639L28.8059 32.8086C28.7254 33.1326 28.8262 33.5137 28.8866 33.847L28.7956 33.8472C28.6894 34.0398 28.7973 34.8527 28.7537 35.1861C28.7016 34.8672 28.6524 33.0032 28.7148 32.7639Z" fill="#E8C2C6"/>
<path d="M34.4551 47.3032C34.7533 47.2887 34.8739 47.2784 35.1635 47.2154C35.0884 47.6015 35.1101 49.2181 35.1546 49.6653C35.6398 49.6685 39.3695 49.7428 39.5067 49.634L39.5351 49.5028L39.7977 49.5075C39.7707 49.5827 39.7532 49.8571 39.6891 49.8581C38.8323 49.8716 35.5831 49.9584 34.948 49.8413C34.7033 49.4001 34.9971 48.1211 34.822 47.4026C34.7103 47.3088 34.6202 47.3256 34.4551 47.3032Z" fill="#DC8571"/>
<path d="M41.2546 26.6977C41.9876 26.6474 42.7861 26.7134 43.5399 26.6894C43.51 26.7585 43.4231 26.973 43.3888 27.0245C43.2389 26.8659 41.7946 26.9768 41.4987 26.9902C41.4953 27.4889 41.4187 31.0712 41.5544 31.2336C41.7216 31.2926 41.8733 31.2607 42.0351 31.1886C42.0079 31.3303 41.9887 31.4689 41.9355 31.6025L41.8864 31.4974C41.7124 31.4144 41.4611 31.4368 41.2576 31.4355L41.2546 26.6977Z" fill="#DC8571"/>
<path d="M42.1897 49.5649C43.2482 49.3651 43.7409 49.1971 44.6299 48.6C44.8745 48.9137 45.1481 49.2367 45.3099 49.599C45.1663 49.7549 44.2202 49.6975 43.9639 49.6877C43.5997 49.6447 42.3687 49.7605 42.1897 49.5649Z" fill="#F8F8F4"/>
<path d="M36.8291 38.8504L38.192 38.8863C38.5396 38.8623 39.5731 38.7863 39.8482 38.9325C40.0032 39.3224 39.8209 41.8809 39.9402 42.143C39.7673 42.0656 39.7401 42.0541 39.6044 41.9236C39.726 41.7222 39.6119 39.5235 39.6083 39.128C39.1669 39.1254 38.6765 39.1351 38.2405 39.0925C38.0652 39.09 37.7051 39.074 37.5482 39.1065C37.4385 39.086 37.0553 38.9105 36.8291 38.8504Z" fill="#DA918C"/>
<path d="M36.8291 38.8504L38.192 38.8863C38.5535 38.9165 39.3773 38.9489 39.7377 38.935L39.7762 38.9864C39.5286 39.1176 38.5888 39.0552 38.2405 39.0925C38.0652 39.09 37.7051 39.074 37.5482 39.1065C37.4385 39.086 37.0553 38.9105 36.8291 38.8504Z" fill="#DC8571"/>
<path d="M41.5843 32.6657C41.7417 32.537 41.6956 32.5639 41.777 32.344C41.7878 33.1459 41.6174 33.4888 41.6895 34.4522C41.71 34.7529 41.6695 34.7925 41.51 35.0518L41.4184 34.6698C41.3806 34.8341 41.3955 34.9094 41.286 34.9986L41.2081 34.9898C41.268 34.3622 41.0882 33.2826 41.2688 32.7927C41.4042 32.6536 41.3492 32.6966 41.5843 32.6657Z" fill="#C5949D"/>
<path d="M41.5843 32.6657C41.7417 32.537 41.6956 32.5639 41.777 32.344C41.7878 33.1459 41.6174 33.4888 41.6895 34.4522L41.507 34.226C41.5749 33.9222 41.4155 33.2047 41.5843 32.6657Z" fill="#BC5E54"/>
<path d="M41.507 34.226L41.6895 34.4522C41.71 34.7529 41.6695 34.7925 41.51 35.0518L41.4184 34.6698C41.4517 34.4896 41.3788 34.4363 41.507 34.226Z" fill="#E8C2C6"/>
<path d="M45.3099 49.599C45.352 49.697 45.4001 49.7988 45.4305 49.9001C44.0604 49.8487 42.4831 49.9986 41.1491 49.7101C40.951 49.6672 40.747 49.6723 40.5404 49.6452L42.0165 49.5878L42.1897 49.5649C42.3687 49.7605 43.5997 49.6447 43.9639 49.6877C44.2202 49.6975 45.1663 49.7549 45.3099 49.599Z" fill="#DC8571"/>
<path d="M42.0165 49.5878L42.1897 49.5649C42.3687 49.7605 43.5997 49.6447 43.9639 49.6877C43.6912 49.7208 41.797 49.76 41.5917 49.6896C41.7324 49.6522 41.874 49.6181 42.0165 49.5878Z" fill="#E8C2C6"/>
<path d="M41.4678 41.2924C41.4896 41.1942 41.5233 41.13 41.5626 41.0374C41.6835 41.413 42.123 42.4275 42.1685 42.6941C42.0745 42.6982 42.0586 42.7007 41.9667 42.6855C41.8242 42.6796 41.7227 42.6866 41.5919 42.6331C41.3811 42.3852 41.4982 41.7443 41.4678 41.2924Z" fill="#F8F8F4"/>
<path d="M41.2773 40.7793L41.3284 40.6138C41.4145 40.7016 41.4514 41.1452 41.4678 41.2924C41.4982 41.7443 41.3811 42.3852 41.5919 42.6331C41.7227 42.6866 41.8242 42.6796 41.9667 42.6855C41.7469 42.8449 41.5454 42.7041 41.2865 42.6698L41.251 42.6653C41.3717 42.3955 41.2948 41.1433 41.2773 40.7793Z" fill="#BC5E54"/>
<path d="M41.2081 34.9898L41.286 34.9986C41.3955 34.9094 41.3806 34.8341 41.4184 34.6698L41.51 35.0518C41.2726 35.939 41.2591 36.3036 41.2393 37.2411C41.1507 36.8386 41.1703 35.4255 41.2081 34.9898Z" fill="#DA918C"/>
<path d="M41.2546 39.0209C41.3281 39.7261 41.4518 40.34 41.5626 41.0374C41.5233 41.13 41.4896 41.1942 41.4678 41.2924C41.4514 41.1452 41.4145 40.7016 41.3284 40.6138L41.2773 40.7793C41.2062 40.5397 41.2488 39.3395 41.2546 39.0209Z" fill="#DA918C"/>
<path d="M13.687 32.8859C13.9593 32.6226 14.189 32.5013 14.5152 32.7998C14.898 33.1501 13.9237 33.8341 13.7329 34.0739C13.7733 34.6205 13.8124 36.8542 13.7359 37.3175C13.7233 37.3936 13.7073 37.427 13.6392 37.4685C13.4419 37.5889 9.33404 37.5488 8.97846 37.4584C8.90611 37.44 8.84443 37.4208 8.81038 37.351C8.72839 37.1832 8.73672 32.9883 8.80837 32.7881C9.08463 32.6016 12.9653 32.7107 13.5538 32.771C13.5538 32.771 13.671 32.8721 13.687 32.8859Z" fill="#F8F8F4"/>
<path d="M13.687 32.8859C13.9593 32.6226 14.189 32.5013 14.5152 32.7998C14.898 33.1501 13.9237 33.8341 13.7329 34.0739C13.6362 34.1597 13.4822 34.2817 13.4143 34.3818C12.8651 34.9136 11.1781 36.8129 10.6616 36.9251C10.2348 36.8192 9.44395 35.3543 9.19131 34.9359C10.017 33.9734 10.3923 35.1125 10.8209 35.83C11.2291 35.2291 12.9207 33.577 13.4812 33.034C13.5319 33.0099 13.6369 32.924 13.687 32.8859Z" fill="#6C1905"/>
<path d="M13.7329 34.0739C13.7733 34.6205 13.8124 36.8542 13.7359 37.3175C13.7233 37.3936 13.7073 37.427 13.6392 37.4685C13.4419 37.5889 9.33404 37.5488 8.97846 37.4584C8.90611 37.44 8.84443 37.4208 8.81038 37.351C8.72839 37.1832 8.73672 32.9883 8.80837 32.7881C9.08463 32.6016 12.9653 32.7107 13.5538 32.771C13.5538 32.771 13.671 32.8721 13.687 32.8859C13.6369 32.924 13.5319 33.0099 13.4812 33.034C13.1651 32.9591 9.50058 32.9787 9.04567 33.0022C9.01345 34.0129 8.95204 36.2323 9.06115 37.2053C10.5177 37.2184 11.9743 37.2196 13.4308 37.2088C13.4354 36.893 13.4836 34.5122 13.4143 34.3818C13.4822 34.2817 13.6362 34.1597 13.7329 34.0739Z" fill="#DC8571"/>
<path d="M13.6848 45.1802C13.9446 44.9336 14.2937 44.6434 14.624 44.997C14.9897 45.3884 13.9754 46.1707 13.7314 46.3999C13.7963 47.1155 13.7526 49.1368 13.7445 49.8996C13.149 49.9314 9.24467 49.9407 8.83741 49.8352C8.7247 49.599 8.78166 45.6344 8.78077 45.1642C9.44521 45.0954 13.0975 45.0722 13.6848 45.1802Z" fill="#F8F8F4"/>
<path d="M13.6848 45.1802C13.9446 44.9336 14.2937 44.6434 14.624 44.997C14.9897 45.3884 13.9754 46.1707 13.7314 46.3999C13.6103 46.5007 13.5021 46.5778 13.4108 46.7057C12.9962 47.0987 11.0904 49.1943 10.762 49.2423C10.2773 49.0524 9.35186 47.6934 9.32132 47.1454C9.30701 46.8891 9.65295 46.7421 9.90957 46.7818C10.1405 46.9297 10.6672 47.8284 10.8492 48.1211C11.4968 47.3037 12.5719 46.2262 13.3324 45.4936C13.3794 45.4637 13.6276 45.232 13.6848 45.1802Z" fill="#6C1905"/>
<path d="M8.78077 45.1642C9.44521 45.0954 13.0975 45.0722 13.6848 45.1802C13.6276 45.232 13.3794 45.4637 13.3324 45.4936C13.0612 45.3859 9.56578 45.4273 9.04838 45.4451C9.01625 46.3401 9.00723 47.236 9.02126 48.1318C9.02416 48.5711 9.01013 49.255 9.07448 49.6746C10.4345 49.6602 12.1195 49.7134 13.432 49.6508C13.4369 49.2965 13.4929 46.8597 13.4108 46.7057C13.5021 46.5778 13.6103 46.5007 13.7314 46.3999C13.7963 47.1155 13.7526 49.1368 13.7445 49.8996C13.149 49.9314 9.24467 49.9407 8.83741 49.8352C8.7247 49.599 8.78166 45.6344 8.78077 45.1642Z" fill="#DC8571"/>
<path d="M26.6768 26.8623C26.9661 26.5612 27.2671 26.2779 27.6991 26.5889C27.9422 27.0603 27.3847 27.3345 27.1468 27.6755C27.0854 28.8976 27.1474 30.2231 27.1187 31.4646C26.8706 31.4807 26.5922 31.4785 26.3416 31.4727C24.9474 31.4404 23.5216 31.5155 22.1321 31.4585C22.0993 30.9119 22.0429 27.0541 22.1941 26.7904C22.2329 26.7228 22.3854 26.702 22.4562 26.6919C23.0226 26.6117 23.663 26.6917 24.2375 26.6933C24.9235 26.6951 25.7042 26.5992 26.3779 26.7163C26.4978 26.7372 26.5818 26.7891 26.6768 26.8623Z" fill="#F8F8F4"/>
<path d="M26.6768 26.8623C26.9661 26.5612 27.2671 26.2779 27.6991 26.5889C27.9422 27.0603 27.3847 27.3345 27.1468 27.6755C27.0839 27.7357 26.9286 27.8757 26.8856 27.9383C26.4009 28.4196 25.9204 28.905 25.4441 29.3946C25.1724 29.6794 24.2129 30.8127 23.8874 30.8023C23.3233 30.5791 21.8031 28.1159 23.1397 28.3474C23.4867 28.5725 23.8281 29.2547 24.0246 29.6323C24.8533 28.6657 25.6218 27.9023 26.5254 27.0085L26.6768 26.8623Z" fill="#6C1905"/>
<path d="M22.1321 31.4585C22.0993 30.9119 22.0429 27.0541 22.1941 26.7904C22.2329 26.7228 22.3854 26.702 22.4562 26.6919C23.0226 26.6117 23.663 26.6917 24.2375 26.6933C24.9235 26.6951 25.7042 26.5992 26.3779 26.7163C26.4978 26.7372 26.5818 26.7891 26.6768 26.8623L26.5254 27.0085C26.1685 26.959 25.2447 27.0041 24.8424 27.0074C24.0253 27.0141 23.1764 26.9881 22.3644 27.0036C22.3351 28.4264 22.3561 29.7976 22.3718 31.221C23.7924 31.2373 25.4633 31.2636 26.8774 31.2199C26.8859 30.126 26.8887 29.0322 26.8856 27.9383C26.9286 27.8757 27.0839 27.7357 27.1468 27.6755C27.0854 28.8976 27.1474 30.2231 27.1187 31.4646C26.8706 31.4807 26.5922 31.4785 26.3416 31.4727C24.9474 31.4404 23.5216 31.5155 22.1321 31.4585Z" fill="#DC8571"/>
<path d="M22.243 32.6999C22.9507 32.7055 26.5825 32.6426 27.0463 32.7779C27.1845 32.9334 27.1566 33.3234 27.1479 33.5322C27.0975 34.7475 27.1573 35.961 27.127 37.1748C27.1227 37.3488 27.0877 37.3712 26.9891 37.4968C26.4515 37.5743 22.5743 37.5786 22.213 37.4303C22.0321 37.0793 22.1591 33.6539 22.1244 33.0242C22.1147 32.8476 22.1375 32.8027 22.243 32.6999Z" fill="#DC8571"/>
<path d="M22.4336 32.9915C23.8001 32.9408 25.5143 32.9707 26.8949 32.9895C26.8853 33.6504 26.9698 36.8131 26.8358 37.2199L22.3653 37.2193L22.3641 37.1878C22.3253 36.1468 22.3598 34.1913 22.3712 33.0584C22.392 33.0361 22.4128 33.0138 22.4336 32.9915Z" fill="#F8F8F4"/>
<path d="M35.0824 32.7091C36.363 32.654 37.6956 32.7364 38.9823 32.6914C39.2059 32.6835 39.7187 32.6714 39.8532 32.8584C39.9103 33.2628 39.9277 37.0143 39.8639 37.2981C39.8353 37.4256 39.7633 37.4766 39.6556 37.5407C38.7548 37.5162 37.8538 37.5037 36.9527 37.5032C36.717 37.5021 34.9336 37.5634 34.9092 37.3556C34.7749 36.2121 34.9225 34.9718 34.8758 33.8081C34.863 33.4891 34.8017 33.1363 34.8776 32.8349C34.8953 32.7559 35.0154 32.7337 35.0824 32.7091Z" fill="#DC8571"/>
<path d="M35.6169 32.9878C36.7973 32.9591 38.3914 32.9543 39.5645 33.0017C39.5766 33.1083 39.5855 33.2152 39.5911 33.3223C39.6171 33.7815 39.6892 37.0262 39.5232 37.2118L39.2978 37.2186L35.1317 37.2259C35.1113 36.4054 35.1312 35.5421 35.1236 34.7176C35.1199 34.316 35.1035 33.433 35.1537 33.0695C35.2781 32.9794 35.453 32.9951 35.6169 32.9878Z" fill="#F8F8F4"/>
<path d="M16.0147 32.7024C16.8339 32.7184 20.2606 32.6148 20.7255 32.8089C20.9018 33.0339 20.7114 36.291 20.8154 36.8303C20.8635 37.0804 20.7962 37.3466 20.603 37.5345C19.9344 37.5332 16.2403 37.5942 15.8659 37.4348C15.7201 36.9457 15.8047 33.5371 15.8063 32.813C15.8064 32.7716 15.952 32.7279 16.0147 32.7024Z" fill="#DC8571"/>
<path d="M16.5137 32.9909C17.7962 32.9566 19.2831 32.9668 20.5681 32.9913C20.5574 34.0704 20.5778 35.15 20.5719 36.2292C20.5703 36.5321 20.5828 36.8358 20.5335 37.1358C20.4245 37.2436 20.4252 37.206 20.2164 37.2137L16.0462 37.222C16.0361 36.7056 15.9919 33.4039 16.0708 33.0683C16.1978 32.9768 16.3482 32.996 16.5137 32.9909Z" fill="#F8F8F4"/>
<path d="M18.2378 45.1275C18.7642 45.1236 20.3506 45.0548 20.715 45.2364C20.896 45.4651 20.8139 49.3012 20.8042 49.8838C20.1898 49.936 19.0799 49.9048 18.4238 49.9034C17.6778 49.8903 16.9199 49.9267 16.1747 49.8987C16.0038 49.8926 15.9404 49.8735 15.8442 49.7615C15.7818 49.3357 15.7606 45.5879 15.8469 45.2293C16.1815 45.0671 17.7629 45.1289 18.2378 45.1275Z" fill="#DA8673"/>
<path d="M16.1532 45.4525C17.5239 45.3938 19.1746 45.4299 20.5599 45.4419C20.5389 46.7925 20.604 48.2345 20.5598 49.5887C20.5581 49.6419 20.5299 49.641 20.4821 49.6765L16.0453 49.6858C16.0099 48.8614 16.0476 47.9469 16.0355 47.1123C16.0308 46.7906 16.02 45.7797 16.0686 45.5086L16.1532 45.4525Z" fill="#F8F8F4"/>
<path d="M22.1729 38.864C22.6553 38.8078 26.7571 38.8317 27.0649 38.9421C27.245 39.2775 27.0641 42.7067 27.1166 43.3734C27.1217 43.4387 27.0543 43.568 27.0135 43.6262C26.5464 43.7048 22.6293 43.6626 22.3128 43.5517C22.243 43.5272 22.2044 43.5189 22.1727 43.4505C22.0949 43.2827 22.07 39.1032 22.1729 38.864Z" fill="#DC8571"/>
<path d="M22.395 39.1275C23.75 39.0949 25.4953 39.0804 26.8479 39.1363C26.9131 40.3264 26.8599 42.1103 26.8443 43.3287C25.4649 43.3853 23.7615 43.3573 22.38 43.3305C22.34 42.0361 22.3859 40.4381 22.395 39.1275Z" fill="#F8F8F4"/>
<path d="M16.0041 26.6793C16.6872 26.6666 20.3898 26.6375 20.7486 26.8101C20.8533 27.0229 20.8234 27.5184 20.8111 27.7653C20.7528 28.943 20.866 30.1285 20.7902 31.3016C20.7839 31.4004 20.7189 31.4204 20.649 31.4667L17.844 31.4631C17.451 31.4647 16.205 31.4979 15.8819 31.4169C15.7488 31.0927 15.7919 27.3891 15.8231 26.7859C15.8254 26.7416 15.9436 26.7059 16.0041 26.6793Z" fill="#DC8571"/>
<path d="M16.3002 27.0147C17.4582 26.979 19.4193 26.959 20.5663 27.0193C20.5402 28.0718 20.6634 30.0561 20.5025 31.1397C20.4929 31.2047 20.4255 31.201 20.3385 31.225L16.0609 31.2245C16.0123 30.4422 16.0103 27.9291 16.1135 27.0671C16.118 27.0301 16.2427 27.024 16.3002 27.0147Z" fill="#F8F8F4"/>
<path d="M8.78727 38.862C9.1936 38.8215 10.3012 38.8463 10.7554 38.8509C11.7072 38.8606 12.8156 38.8207 13.7532 38.8718C13.7613 39.9907 13.7984 42.2844 13.72 43.4993C13.6749 43.5476 13.636 43.5893 13.6033 43.6245C12.6212 43.7227 11.4189 43.5945 10.4136 43.6489C10.0341 43.6694 9.14987 43.6831 8.8441 43.5215C8.74579 43.3031 8.74032 39.3517 8.78727 38.862Z" fill="#DC8571"/>
<path d="M9.02547 39.1295C10.4989 39.107 11.9725 39.107 13.4459 39.1295C13.5135 40.3299 13.4736 42.1091 13.461 43.3351C12.0997 43.3524 10.3662 43.4028 9.02869 43.3342C8.9938 41.9907 9.01059 40.4746 9.02547 39.1295Z" fill="#F8F8F4"/>
<path d="M22.359 45.1219C23.2393 45.1383 24.1198 45.141 25.0002 45.1297C25.4738 45.126 26.696 45.0498 27.0567 45.2563C27.2222 45.6034 27.0644 48.5015 27.1375 49.0729C27.1635 49.2755 27.1562 49.7269 26.9774 49.909C26.2495 49.902 22.602 49.9584 22.1934 49.8123C22.176 49.7797 22.1652 49.7633 22.1537 49.7297C22.0881 49.5388 22.0772 45.3962 22.1616 45.2248C22.2003 45.1462 22.2789 45.1466 22.359 45.1219Z" fill="#DC8571"/>
<path d="M22.3952 45.4553C23.6332 45.3822 25.6138 45.4226 26.8804 45.4465C26.8151 46.7995 26.9243 48.2751 26.8647 49.6756H22.3658C22.3455 49.0458 22.277 45.9027 22.3952 45.4553Z" fill="#F8F8F4"/>
<path d="M15.8508 38.865C16.3223 38.8292 20.4261 38.8325 20.7733 38.9325C20.8637 39.2917 20.7777 40.674 20.7829 41.1247C20.7882 41.589 20.8953 43.3605 20.6984 43.6116C20.2821 43.691 19.2847 43.6333 18.8188 43.629C18.5061 43.5605 15.8115 43.8082 15.8245 43.4158C15.8439 42.8324 15.6926 39.181 15.8508 38.865Z" fill="#DC8571"/>
<path d="M16.0776 39.1364C17.233 39.0623 19.3585 39.0961 20.5406 39.1343C20.5644 40.5319 20.5704 41.9298 20.5587 43.3276C19.1645 43.3689 17.4363 43.3693 16.048 43.3305C16.0302 42.2887 15.988 40.094 16.0776 39.1364Z" fill="#F8F8F4"/>
<path d="M35.0399 26.6784C36.1151 26.631 37.2886 26.7314 38.3753 26.6893C38.7439 26.6751 39.526 26.6599 39.8252 26.816C39.9405 27.0459 39.8859 28.5827 39.8686 28.9136C39.8336 29.5817 40.0394 30.9399 39.6966 31.4632C39.0996 31.4927 35.2358 31.4866 34.9722 31.3961C34.776 31.1513 34.9357 27.6789 34.8776 27.1255C34.8552 26.912 34.895 26.819 35.0399 26.6784Z" fill="#DC8571"/>
<path d="M35.1949 27.0101C36.3582 26.9577 37.5491 27.0041 38.7148 26.989C39.0073 26.9852 39.3069 26.9933 39.5976 27.026C39.6335 27.5751 39.7001 30.9967 39.5633 31.2155L35.1446 31.2238C35.1195 30.7659 35.0824 27.1697 35.1949 27.0101Z" fill="#F8F8F4"/>
<path d="M8.94021 26.6847C10.292 26.696 12.4745 26.612 13.7444 26.7271C13.7816 27.319 13.8228 30.9537 13.7104 31.394L13.5988 31.4482C13.3754 31.4643 13.0984 31.4647 12.8739 31.4591C11.5287 31.426 10.13 31.5126 8.7906 31.4375C8.69757 30.5689 8.77179 27.8095 8.77811 26.7721C8.77834 26.732 8.88582 26.7055 8.94021 26.6847Z" fill="#DC8571"/>
<path d="M9.02247 27.0026C10.4973 26.988 11.9722 26.9911 13.4469 27.012C13.4771 27.5863 13.5035 30.7774 13.4211 31.202C12.2986 31.2896 10.2048 31.2284 9.01962 31.2306C8.99558 29.8214 8.99652 28.4118 9.02247 27.0026Z" fill="#F8F8F4"/>
<path d="M28.586 26.6807C28.6196 26.6789 28.6533 26.6776 28.687 26.677C29.902 26.6558 31.1251 26.6828 32.3408 26.6706C32.644 26.6675 33.2216 26.6393 33.4452 26.8526C33.5061 27.1043 33.4584 28.3001 33.4358 28.6169C33.3899 29.2606 33.5675 30.9146 33.3774 31.4603C32.7889 31.4702 28.8256 31.5467 28.5933 31.3688C28.5384 31.3267 28.5173 31.1945 28.5053 31.1311C28.3962 30.5497 28.4957 29.8374 28.494 29.2422C28.4918 28.4905 28.4173 27.7 28.4868 26.9531C28.4965 26.8484 28.5271 26.7671 28.586 26.6807Z" fill="#DC8571"/>
<path d="M28.766 26.9997C30.2326 26.9794 31.6993 26.9797 33.1659 27.0006C33.1789 28.3526 33.2253 29.8916 33.1711 31.2262C31.7041 31.2171 30.2369 31.2187 28.7699 31.231C28.7163 29.9923 28.7306 28.2405 28.766 26.9997Z" fill="#F8F8F4"/>
<path d="M35.5296 16.5914C36.8152 16.5635 38.7032 16.5215 39.9682 16.587C40.0073 17.6007 40.0721 18.1556 39.64 19.0506C39.4244 19.4973 39.8404 20.4387 40.2017 20.7043C40.9342 21.4123 42.2097 21.2916 42.8336 20.5338C43.5005 19.724 43.1991 18.9518 42.8921 18.0899C42.8369 17.9351 42.8604 17.346 42.8675 17.1533L42.8599 16.8427C42.868 16.6797 42.8411 16.6895 42.9213 16.5816C43.5662 16.5144 48.9494 16.5283 49.3988 16.6404C49.6593 16.8635 49.6771 17.0164 49.6991 17.3697C49.7257 17.7852 49.7159 18.2619 49.7169 18.6816C48.912 19.2533 47.8199 20.3465 47.1334 21.0855C46.8752 21.3637 46.5333 21.8686 46.2677 22.1853L17.9984 22.1689L8.57083 22.1787C6.61928 22.1744 4.51471 22.1278 2.57313 22.169L2.57126 18.1593C2.56653 17.7757 2.5438 17.1854 2.62144 16.8251C2.72134 16.7096 2.7805 16.5893 2.94578 16.5902C5.11335 16.6024 7.32296 16.5379 9.48754 16.5833L9.48688 17.1252C9.49338 17.38 9.51583 17.8663 9.45419 18.096C9.34082 18.5187 9.1104 18.7961 9.08617 19.2573C9.06106 19.7451 9.23167 20.2227 9.56026 20.5845C9.89012 20.9512 10.3549 21.1687 10.8483 21.1871C11.3335 21.2079 11.8048 21.0751 12.1401 20.7431C13.0958 19.7969 12.6301 19.1187 12.3867 18.0275C12.3502 17.8634 12.3806 17.3293 12.3894 17.1278L12.3845 16.8091C12.3976 16.6658 12.3736 16.6829 12.4488 16.5897C12.8812 16.5481 13.7466 16.5744 14.2052 16.5749C15.1367 16.5758 16.1115 16.5626 17.0405 16.5883L29.2566 16.5776L33.3817 16.5809C33.9898 16.5811 34.9431 16.5525 35.5296 16.5914Z" fill="#8876D4"/>
<path d="M35.5296 16.5914C36.8152 16.5635 38.7032 16.5215 39.9682 16.587L39.9348 16.7394C39.9369 16.9167 39.9614 17.0997 39.8811 17.2486C39.3386 17.2709 38.7311 17.2354 38.1765 17.2315L34.4099 17.2038L23.7912 17.1976C21.9438 17.1984 19.9257 17.2164 18.0944 17.1989C17.1088 17.1895 13.1404 17.3299 12.3894 17.1278L12.3845 16.8091C12.3976 16.6658 12.3736 16.6829 12.4488 16.5897C12.8812 16.5481 13.7466 16.5744 14.2052 16.5749C15.1367 16.5758 16.1115 16.5626 17.0405 16.5883L29.2566 16.5776L33.3817 16.5809C33.9898 16.5811 34.9431 16.5525 35.5296 16.5914Z" fill="#B6B3E5"/>
<path d="M35.5296 16.5914C36.8152 16.5635 38.7032 16.5215 39.9682 16.587L39.9348 16.7394C38.8384 16.8101 37.6866 16.7517 36.5848 16.7771C35.9778 16.7911 35.3362 16.7855 34.7299 16.7662C34.3547 16.8061 33.2149 16.7756 32.7831 16.7756L21.7386 16.777C20.4245 16.7777 19.0042 16.8004 17.6952 16.7644C17.0617 16.7828 12.5761 16.7289 12.3845 16.8091C12.3976 16.6658 12.3736 16.6829 12.4488 16.5897C12.8812 16.5481 13.7466 16.5744 14.2052 16.5749C15.1367 16.5758 16.1115 16.5626 17.0405 16.5883L29.2566 16.5776L33.3817 16.5809C33.9898 16.5811 34.9431 16.5525 35.5296 16.5914Z" fill="#9991CB"/>
<path d="M2.62144 16.8251C2.72134 16.7096 2.7805 16.5893 2.94578 16.5902C5.11335 16.6024 7.32296 16.5379 9.48754 16.5833L9.48688 17.1252L9.44357 17.1446C9.41383 17.1664 9.38408 17.1881 9.35434 17.2099C7.80659 17.2678 5.04048 17.1407 3.57967 17.2606C3.14716 17.5461 2.93137 17.9396 2.57126 18.1593C2.56653 17.7757 2.5438 17.1854 2.62144 16.8251Z" fill="#B6B3E5"/>
<path d="M2.62144 16.8251C2.72134 16.7096 2.7805 16.5893 2.94578 16.5902C5.11335 16.6024 7.32296 16.5379 9.48754 16.5833L9.48688 17.1252L9.44357 17.1446C9.44404 16.9816 9.46761 16.8601 9.37202 16.7553C7.92295 16.7747 6.47369 16.7812 5.02453 16.7747C4.41561 16.7743 3.15782 16.7378 2.62144 16.8251Z" fill="#9991CB"/>
<path d="M42.8599 16.8427C42.868 16.6797 42.8411 16.6895 42.9213 16.5816C43.5662 16.5144 48.9494 16.5283 49.3988 16.6404L49.432 16.847C49.4535 17.0002 49.4938 17.0964 49.4405 17.2224C49.1678 17.2531 47.6034 17.2498 47.3074 17.2371C46.1802 17.189 43.874 17.3431 42.8675 17.1533L42.8599 16.8427Z" fill="#B6B3E5"/>
<path d="M42.8599 16.8427C42.868 16.6797 42.8411 16.6895 42.9213 16.5816C43.5662 16.5144 48.9494 16.5283 49.3988 16.6404L49.432 16.847C49.2679 16.7397 43.2058 16.6926 42.8599 16.8427Z" fill="#9991CB"/>
<path d="M1.55456 16.5985C1.7043 16.5844 1.78845 16.5602 1.92253 16.6144C1.99289 16.7513 1.9302 17.1334 1.9251 17.3048C1.86489 19.3284 1.88354 21.3775 1.89198 23.4008L1.91228 50.5877C1.91245 51.358 1.89184 52.1894 1.93573 52.9531C1.95945 53.3653 2.06106 53.636 2.38797 53.8788C2.72999 54.1332 2.95869 54.2023 3.39092 54.2055C4.44961 54.2135 5.51504 54.1929 6.57331 54.1883L12.2653 54.1897L43.7092 54.1635L46.8785 54.1724C47.3125 54.1757 48.2535 54.2069 48.6286 54.1607C49.2174 54.6696 49.6448 54.9188 50.2935 55.3273C49.9895 55.3563 49.6598 55.3595 49.3525 55.3689L6.74252 55.3586L3.38947 55.3642C2.73106 55.3651 1.95757 55.3847 1.3137 55.3385C0.531543 54.833 0.653042 54.431 0.630238 53.5912C0.612499 52.9381 0.622563 52.2827 0.624677 51.6292L0.641925 23.1475C0.6428 22.4204 0.525631 17.4765 0.786757 17.0611C0.974672 16.7621 1.22597 16.6579 1.55456 16.5985Z" fill="#D7B68E"/>
<path d="M82.6015 51.0741C83.1529 51.1936 84.23 51.7118 84.6659 52.0899C85.2004 52.553 85.7537 53.2532 85.7845 53.9936C85.8192 54.8189 85.4885 56.4337 84.9422 57.0788C84.4905 57.6133 83.86 57.6815 83.2132 57.7342C81.1442 57.6385 79.498 55.76 80.0952 53.679C80.481 52.3331 81.4505 51.7174 82.6015 51.0741Z" fill="#984E1F"/>
<path d="M39.3088 42.8605C40.4945 43.4407 41.2137 43.8825 42.5597 43.6499C42.9178 44.3505 43.1726 45.5423 43.4426 46.3243C43.6744 46.9956 43.8999 47.4549 44.2151 48.094C43.2084 48.4324 42.3882 48.6826 41.319 48.7111C39.6621 48.7237 37.6242 47.9936 36.3835 46.9027C37.0193 46.7122 37.3019 46.364 37.7458 45.8976C38.6223 44.9768 38.9476 44.0436 39.3088 42.8605Z" fill="#F0C156"/>
<path d="M32.7975 40.6374C33.6736 40.6723 34.5337 42.1683 34.9292 42.8933C35.6932 44.2937 35.2634 45.413 33.8597 46.1081C30.8601 45.8871 30.58 41.0843 32.7975 40.6374Z" fill="#984E1F"/>
<path d="M36.2867 39.7533C37.4825 39.763 38.1362 40.8502 38.421 41.8934C38.7249 43.0068 38.6382 43.6817 38.0401 44.6502C37.4563 45.5957 37.1847 45.9186 36.0942 46.2052C35.7957 46.2776 35.4902 46.3173 35.1862 46.3621C36.0978 45.5353 36.3051 44.9378 36.2207 43.7382C38.8984 42.655 34.187 39.9898 36.2867 39.7533Z" fill="#984E1F"/>
<path d="M41.1533 14.2997C41.3312 14.2903 41.5352 14.2871 41.7085 14.3326C41.8723 14.3756 42.0592 14.4769 42.1373 14.6348C42.2878 14.9391 42.3302 19.5254 42.1981 19.8986C42.1214 20.1152 41.8772 20.231 41.6858 20.3284C41.1408 20.4166 40.9049 20.2835 40.5474 19.9035C40.5099 19.2003 40.5024 15.201 40.6555 14.6909C40.7185 14.4816 40.9733 14.3864 41.1533 14.2997Z" fill="var(--fill-0, #D0D1D1)"/>
<path d="M10.7144 14.3477C10.868 14.3366 11.0457 14.3267 11.1971 14.3595C11.4032 14.4043 11.554 14.5146 11.657 14.6977C11.7876 14.9302 11.8655 19.5195 11.7016 19.9619C11.6333 20.1465 11.3672 20.2744 11.2029 20.3627C10.8495 20.3936 10.5962 20.2511 10.2707 20.1163L10.0505 19.6996C10.2003 18.3608 10.0305 16.9007 10.0775 15.5483C10.101 14.8711 10.0487 14.6305 10.7144 14.3477Z" fill="var(--fill-0, #D0D1D1)"/>
<path d="M31.6978 35.8715C31.8477 36.0388 31.9866 36.2255 32.1166 36.4125C32.9221 37.5718 33.815 38.7016 34.5371 39.9125C34.6707 40.1366 34.7802 40.5503 34.8563 40.8089L34.4623 40.4365C33.8297 39.8682 33.3974 40.0567 32.8307 39.2331C32.1715 38.2754 31.504 37.3847 30.9053 36.377C31.2606 36.2502 31.4181 36.1142 31.6978 35.8715Z" fill="#9991CB"/>
<path d="M30.5905 33.841L30.6318 33.8597C31.0803 34.0579 31.6578 34.7064 31.462 35.2321C31.2694 35.7495 30.8613 35.824 30.4175 36.0291C30.1064 36.0265 29.4619 35.2877 29.4775 34.9562C29.5027 34.4213 30.2297 34.2298 30.5905 33.841Z" fill="var(--fill-0, #D0D1D1)"/>
<path d="M50.2757 16.5996C50.3842 16.5925 50.4937 16.5918 50.6022 16.5975C50.8281 16.6112 51.2364 16.7334 51.3673 16.9136C51.6339 17.2804 51.2046 17.5264 50.966 17.6997C50.6915 17.8791 50.5381 17.9898 50.2874 18.2005C50.2898 17.872 50.2131 16.761 50.2757 16.5996Z" fill="#D7B68E"/>
<path d="M34.9239 40.8875C35.3386 41.0992 36.7637 42.3403 36.273 42.8984C36.1956 42.9824 36.1636 43.038 36.0527 43.0571C35.9179 42.9177 35.0497 41.169 34.9239 40.8875Z" fill="#9991CB"/>
<path d="M29.3547 33.3681C29.58 33.4049 29.9312 33.4934 29.9715 33.7503L29.8716 33.8245C29.8257 33.8484 29.7795 33.8719 29.7331 33.8951C29.5621 33.9795 29.5648 33.9976 29.4254 33.9515C29.3413 33.8019 29.3593 33.5522 29.3547 33.3681Z" fill="var(--fill-0, #D0D1D1)"/>
</g>
</svg>
