<svg preserveAspectRatio="none" width="100%" height="100%" overflow="visible" style="display: block;" viewBox="0 0 307 14" fill="none" xmlns="http://www.w3.org/2000/svg">
<g id="&#236;&#155;&#148;&#235;&#179;&#132; &#235;&#132;&#152;&#234;&#185;&#128;">
<path id="Vector" d="M6.97487 14C6.73367 14 6.49246 13.9199 6.33166 13.6795L0.301508 7.67096C-0.100503 7.27039 -0.100503 6.70959 0.301508 6.30901L6.33166 0.300429C6.73367 -0.100143 7.29648 -0.100143 7.69849 0.300429C8.1005 0.701001 8.1005 1.2618 7.69849 1.66238L2.23116 7.03004L7.61809 12.3977C8.0201 12.7983 8.0201 13.3591 7.61809 13.7597C7.45729 13.9199 7.21608 14 6.97487 14Z" fill="var(--fill-0, #5D3300)"/>
<path id="Vector_2" d="M300.025 14C300.266 14 300.508 13.9199 300.668 13.6795L306.698 7.67096C307.101 7.27039 307.101 6.70959 306.698 6.30901L300.668 0.300429C300.266 -0.100143 299.704 -0.100143 299.302 0.300429C298.899 0.701001 298.899 1.2618 299.302 1.66238L304.769 7.03004L299.382 12.3977C298.98 12.7983 298.98 13.3591 299.382 13.7597C299.543 13.9199 299.784 14 300.025 14Z" fill="var(--fill-0, #5D3300)"/>
</g>
</svg>
