<svg preserveAspectRatio="none" width="100%" height="100%" overflow="visible" style="display: block;" viewBox="0 0 25.531 25.531" fill="none" xmlns="http://www.w3.org/2000/svg">
<g id="Vector">
<path d="M11.2294 0.125016C12.6283 -0.184608 14.7069 0.122626 16.0626 0.590412C16.5125 0.745627 16.9274 0.970139 17.3657 1.135C18.0057 1.37577 18.9212 1.62338 19.4905 1.99719C20.5329 2.46206 21.3399 3.47579 21.9293 4.43038C22.2199 4.90117 22.6172 5.30549 22.9467 5.74718C23.4993 6.54841 24.2611 7.79528 24.4561 8.76045C24.5539 9.18724 24.781 9.38893 24.9098 9.77455C25.1146 10.3867 25.2015 11.074 25.3243 11.7114C25.4886 12.6782 25.5858 13.5698 25.4978 14.5573C25.4537 15.0549 25.2598 15.5481 25.1282 16.0263C24.5462 18.7775 22.9751 21.228 20.75 22.8827C20.5436 23.0362 20.3268 23.2101 20.1067 23.3463C18.7244 24.0346 17.3878 24.9335 15.7953 24.9533C15.1602 24.9613 14.7285 25.1862 14.1363 25.3282C12.9322 25.6168 11.6768 25.597 10.482 25.2707C9.66644 25.05 9.16181 24.7409 8.37389 24.5422L7.95423 24.4766C7.48685 24.4026 6.89676 24.1273 6.46773 23.9096C5.64985 23.4946 5.29664 23.1721 4.83564 22.3706C4.51403 22.3558 4.20535 22.3017 3.93066 22.1006C3.19573 21.5625 2.45955 20.7121 2.05512 19.8838C1.93967 19.6473 1.84857 19.2135 1.73222 19.0194C1.42085 18.5 1.24023 18.2937 1.02527 17.7132C0.793445 17.0873 0.750414 16.5631 0.579952 15.9726C0.437978 15.4807 0.277075 15.2332 0.156045 14.6532C-0.0742517 13.5496 -0.0303493 12.7829 0.162173 11.6718C0.187855 11.5236 0.378362 11.1733 0.382311 11.0985C0.397507 10.8126 0.35001 10.5229 0.410607 10.219C0.464586 9.94822 0.550484 9.68315 0.620123 9.4192C0.954238 8.15304 1.51674 7.00527 2.21883 5.91387C2.84046 4.94753 3.60545 4.10825 4.49722 3.39835C4.86514 3.10543 5.19048 2.78105 5.60987 2.53041C6.0009 2.29667 6.40768 2.11355 6.80552 1.89487C6.93494 1.83094 7.10091 1.64943 7.22104 1.59764C7.82876 1.33558 8.45183 0.917103 9.06039 0.692369C9.7445 0.439755 10.5191 0.278314 11.2294 0.125016Z" fill="#F9C356"/>
<path d="M4.83564 22.3706C4.51403 22.3558 4.20535 22.3017 3.93066 22.1006C3.19573 21.5625 2.45955 20.7121 2.05512 19.8838C1.93967 19.6473 1.84857 19.2135 1.73222 19.0194C1.42085 18.5 1.24023 18.2937 1.02527 17.7132C0.793445 17.0873 0.750414 16.5631 0.579952 15.9726C0.437978 15.4807 0.277075 15.2332 0.156045 14.6532C-0.0742517 13.5496 -0.0303493 12.7829 0.162173 11.6718C0.187855 11.5236 0.378362 11.1733 0.382311 11.0985C0.397507 10.8126 0.35001 10.5229 0.410607 10.219C0.464586 9.94822 0.550484 9.68315 0.620123 9.4192C0.954238 8.15304 1.51674 7.00527 2.21883 5.91387C2.84046 4.94753 3.60545 4.10825 4.49722 3.39835C4.86514 3.10543 5.19048 2.78105 5.60987 2.53041C6.0009 2.29667 6.40768 2.11355 6.80552 1.89487C6.93494 1.83094 7.10091 1.64943 7.22104 1.59764C7.82876 1.33558 8.45183 0.917103 9.06039 0.692369C9.7445 0.439755 10.5191 0.278314 11.2294 0.125016C11.2555 0.252852 11.5173 0.525116 11.6311 0.55508C11.1671 0.616955 9.86229 0.897005 9.4621 1.10487L9.67216 1.09325C9.39456 1.19393 8.91313 1.34558 8.69866 1.5356L8.69515 1.62449C8.65568 1.64086 8.63327 1.64998 8.59476 1.66922L8.65124 1.70038C8.47939 1.80061 7.75411 2.14732 7.67142 2.23832C7.67997 2.1337 7.63449 2.11941 7.56137 2.07616L7.55859 2.02546C7.44282 2.09642 7.315 2.17547 7.19454 2.23679C4.51092 3.60268 2.63042 5.52789 1.47445 8.39573C1.07257 9.21328 0.891054 10.3681 0.760872 11.264C0.749134 11.3447 0.661902 11.3101 0.64458 11.3789C0.580388 11.5334 0.546617 11.9533 0.564782 12.1124C0.472402 13.0868 0.421283 13.9529 0.6628 14.9273C0.723016 15.1702 0.935174 15.5839 0.978259 15.8004C1.10133 16.4847 1.2719 17.0928 1.52619 17.7355C1.67623 18.1147 2.08919 18.6051 2.18576 18.8856C2.62266 20.1545 3.32905 21.2008 4.5082 21.8566C4.58718 21.9005 4.8684 21.91 4.96707 21.9312C5.14342 22.1011 5.2992 22.4317 5.48018 22.6112C5.82268 22.951 6.1791 23.1646 6.58451 23.3915C6.80111 23.7212 7.81955 23.9884 8.20405 24.0043C8.6574 24.0047 8.89064 24.1774 9.27146 24.3484C10.3567 24.8354 11.6312 25.1612 12.823 25.0505C12.9335 25.0403 13.0544 25.0383 13.1672 25.0328C13.7317 24.9663 14.1808 24.8043 14.7263 24.7231C14.9907 24.657 15.2117 24.5877 15.4855 24.5394C16.1561 24.4212 16.7528 24.4048 17.4021 24.1789C17.9096 24.0024 18.3468 23.6489 18.7718 23.4665C19.5089 23.1501 19.6878 23.1216 20.3412 22.5919C20.7421 22.2457 21.2721 21.9022 21.6158 21.538C22.2626 20.8525 22.9702 20.0306 23.4089 19.1849C23.9599 18.4859 24.2657 17.062 24.5694 16.2182C24.7935 15.5957 24.9185 15.1105 24.9844 14.4477C25.0561 13.7276 24.9714 13.0487 24.9681 12.3373C24.9825 12.0978 25.0425 11.9222 25.2895 11.8214L25.3243 11.7114C25.4886 12.6782 25.5858 13.5698 25.4978 14.5573C25.4537 15.0549 25.2598 15.5481 25.1282 16.0263C24.5462 18.7775 22.9751 21.228 20.75 22.8827C20.5436 23.0362 20.3268 23.2101 20.1067 23.3463C18.7244 24.0346 17.3878 24.9335 15.7953 24.9533C15.1602 24.9613 14.7285 25.1862 14.1363 25.3282C12.9322 25.6168 11.6768 25.597 10.482 25.2707C9.66644 25.05 9.16181 24.7409 8.37389 24.5422L7.95423 24.4766C7.48685 24.4026 6.89676 24.1273 6.46773 23.9096C5.64985 23.4946 5.29664 23.1721 4.83564 22.3706Z" fill="#5E1302"/>
<path d="M8.20405 24.0043C8.6574 24.0047 8.89064 24.1774 9.27146 24.3484C10.3567 24.8354 11.6312 25.1612 12.823 25.0505C12.9335 25.0403 13.0544 25.0383 13.1672 25.0328C11.8806 25.4425 9.88326 24.8777 8.73488 24.2202C8.5931 24.139 8.35956 24.0676 8.20405 24.0043Z" fill="#631003"/>
<path d="M20.3412 22.5919C20.1386 23.0092 19.1717 23.3488 18.7843 23.5408C18.2751 23.7931 17.8103 24.11 17.2652 24.2994C16.9828 24.3976 16.5924 24.3946 16.3667 24.4824L16.3695 24.5021C16.4182 24.5041 16.5067 24.5038 16.5501 24.5163C16.4185 24.5558 16.3454 24.5366 16.2225 24.5663C16.1641 24.5805 15.9697 24.7142 15.9089 24.7209C15.5369 24.7626 15.0928 24.7656 14.7263 24.7231C14.9907 24.657 15.2117 24.5877 15.4855 24.5394C16.1561 24.4212 16.7528 24.4048 17.4021 24.1789C17.9096 24.0024 18.3468 23.6489 18.7718 23.4665C19.5089 23.1501 19.6878 23.1216 20.3412 22.5919Z" fill="#631003"/>
<path d="M7.55859 2.02546C7.88859 1.7918 9.05832 1.21016 9.4621 1.10487L9.67216 1.09325C9.39456 1.19393 8.91313 1.34558 8.69866 1.5356L8.69515 1.62449C8.65568 1.64086 8.63327 1.64998 8.59476 1.66922L8.65124 1.70038C8.47939 1.80061 7.75411 2.14732 7.67142 2.23832C7.67997 2.1337 7.63449 2.11941 7.56137 2.07616L7.55859 2.02546Z" fill="var(--fill-0, #F4BD70)"/>
<path d="M7.95423 24.4766C7.87732 24.3921 7.87484 24.4154 7.85896 24.3207C7.97109 24.2339 8.45186 24.2992 8.52311 24.4724C8.4895 24.5355 8.44794 24.5438 8.37389 24.5422L7.95423 24.4766Z" fill="#631003"/>
<path d="M0.564782 12.1124C0.546617 11.9533 0.580388 11.5334 0.64458 11.3789C0.661902 11.3101 0.749134 11.3447 0.760872 11.264C0.891054 10.3681 1.07257 9.21328 1.47445 8.39573C1.45413 8.53132 1.43341 8.64006 1.4379 8.77771L1.39375 8.88006C1.51737 8.92536 1.61079 8.86974 1.73901 8.82241C2.09189 8.75939 2.60845 8.88828 2.86652 9.14409C3.17158 9.3857 3.43627 9.65972 3.60281 10.024C3.61335 10.0922 3.6276 10.173 3.63263 10.2416C3.70184 11.1841 2.88131 12.3732 2.0006 12.6152C1.55215 12.4947 1.20096 12.3976 0.94667 11.9157C0.88068 11.7906 0.88945 11.6576 0.790207 11.534L0.762074 11.5317C0.714604 11.7639 0.626305 11.816 0.564782 12.1124Z" fill="#984819"/>
<path d="M1.73901 8.82241C2.09189 8.75939 2.60845 8.88828 2.86652 9.14409C2.50877 9.04903 2.13777 8.88117 1.77081 8.91177C1.60743 8.92539 1.4919 9.04205 1.36981 9.02702C1.34721 8.95655 1.35936 8.96987 1.39375 8.88006C1.51737 8.92536 1.61079 8.86974 1.73901 8.82241Z" fill="var(--fill-0, #F4BD70)"/>
<path d="M19.1991 2.36807L19.2368 2.34695C19.1398 2.20544 17.929 1.77028 17.6851 1.66671C17.7441 1.59066 17.7494 1.54719 17.7873 1.46202C17.7984 1.43714 17.8542 1.36693 17.8614 1.36876C18.4083 1.50677 18.9265 1.7767 19.4361 2.01581C19.4543 2.00961 19.4724 2.00342 19.4905 1.99719C20.5329 2.46206 21.3399 3.47579 21.9293 4.43038C22.2199 4.90117 22.6172 5.30549 22.9467 5.74718C23.4993 6.54841 24.2611 7.79528 24.4561 8.76045C24.4338 8.9264 24.4711 8.96478 24.373 9.08269C24.2853 9.05823 24.096 8.78813 23.9743 8.70194C23.7363 8.20655 23.7175 8.28607 23.3414 7.95424C23.282 7.73387 23.2836 7.21227 23.2011 7.03601C22.8838 6.32662 22.2245 5.73998 21.7983 5.10566C20.9709 3.87464 20.5441 3.10079 19.1991 2.36807Z" fill="#5E1302"/>
<path d="M11.2294 0.125016C12.6283 -0.184608 14.7069 0.122626 16.0626 0.590412C16.5125 0.745627 16.9274 0.970139 17.3657 1.135C18.0057 1.37577 18.9212 1.62338 19.4905 1.99719C19.4724 2.00342 19.4543 2.00961 19.4361 2.01581C18.9265 1.7767 18.4083 1.50677 17.8614 1.36876C17.8542 1.36693 17.7984 1.43714 17.7873 1.46202C17.7494 1.54719 17.7441 1.59066 17.6851 1.66671C17.929 1.77028 19.1398 2.20544 19.2368 2.34695L19.1991 2.36807C18.2665 1.9317 17.3228 1.60876 16.3713 1.2205C14.8086 0.582879 13.3049 0.358143 11.6311 0.55508C11.5173 0.525116 11.2555 0.252852 11.2294 0.125016Z" fill="#631003"/>
<path d="M6.58451 23.3915C7.0188 23.5913 7.51567 23.8522 8.00818 23.8798C8.34053 23.8985 8.90507 23.63 9.21835 23.6849C9.49465 23.7332 9.68638 24.122 10.0316 24.1864C9.88898 24.1888 9.65517 24.0431 9.54095 23.9614C9.38348 24.0836 9.25128 24.11 9.19237 24.1629L9.2031 24.2056C9.80289 24.4071 10.3528 24.6358 10.9709 24.7834C11.8059 24.983 12.583 25.0002 13.4291 24.8512C13.6165 24.8184 13.8412 24.8254 14.0295 24.7826C14.2778 24.6989 14.485 24.5897 14.7453 24.541C16.1648 24.329 17.5313 24.2066 18.7445 23.337C18.9312 23.2274 19.2899 23.1751 19.4596 23.0599C20.093 22.6299 20.8472 22.1219 21.4309 21.6416C21.7893 21.3464 22.1934 20.7636 22.5178 20.4123C22.8111 20.0945 23.0644 19.4883 23.3923 19.1925C23.398 19.1899 23.4035 19.1874 23.4089 19.1849C22.9702 20.0306 22.2626 20.8525 21.6158 21.538C21.2721 21.9022 20.7421 22.2457 20.3412 22.5919C19.6878 23.1216 19.5089 23.1501 18.7718 23.4665C18.3468 23.6489 17.9096 24.0024 17.4021 24.1789C16.7528 24.4048 16.1561 24.4212 15.4855 24.5394C15.2117 24.5877 14.9907 24.657 14.7263 24.7231C14.1808 24.8043 13.7317 24.9663 13.1672 25.0328C13.0544 25.0383 12.9335 25.0403 12.823 25.0505C11.6312 25.1612 10.3567 24.8354 9.27146 24.3484C8.89064 24.1774 8.6574 24.0047 8.20405 24.0043C7.81955 23.9884 6.80111 23.7212 6.58451 23.3915Z" fill="#D37F2B"/>
<path d="M3.60281 10.024C4.02408 10.4437 4.33107 10.6791 4.31127 11.3254C4.26946 12.6911 3.03347 12.9199 2.0006 12.6152C2.88131 12.3732 3.70184 11.1841 3.63263 10.2416C3.6276 10.173 3.61335 10.0922 3.60281 10.024Z" fill="#B36D33"/>
<path d="M7.70509 2.44852L7.73178 2.42951C7.76092 2.40855 7.76865 2.40227 7.79368 2.37491C7.89129 2.36199 7.88348 2.34723 7.95968 2.38156C7.95361 2.51181 7.87087 2.59042 7.78824 2.69947C7.51632 2.9525 7.2842 3.083 6.95379 3.23249C6.81122 3.31293 6.55739 3.40174 6.43168 3.49928C5.54462 4.18763 4.61415 4.85488 3.92511 5.76177C3.73662 6.00988 3.5865 6.14508 3.30936 6.27976C3.53241 5.78943 4.43807 4.7037 4.84907 4.32214C5.3942 3.81608 6.3061 3.37964 6.93555 2.963C7.18308 2.79914 7.45115 2.59856 7.70509 2.44852Z" fill="#F7F6F2"/>
<path d="M23.9743 8.70194C24.096 8.78813 24.2853 9.05823 24.373 9.08269C24.4711 8.96478 24.4338 8.9264 24.4561 8.76045C24.5539 9.18724 24.781 9.38893 24.9098 9.77455C25.1146 10.3867 25.2015 11.074 25.3243 11.7114L25.2895 11.8214C25.0425 11.9222 24.9825 12.0978 24.9681 12.3373C24.9117 12.1304 24.8731 11.7112 24.8134 11.4601C24.5904 10.52 24.3659 9.584 23.9743 8.70194Z" fill="#631003"/>
<path d="M11.5274 0.676417C11.6314 0.678279 11.6495 0.661546 11.729 0.712914C11.6432 0.900151 9.95924 1.10682 9.63534 1.30039C9.30555 1.41833 8.98136 1.57438 8.65124 1.70038L8.59476 1.66922C8.63327 1.64998 8.65568 1.64086 8.69515 1.62449L8.69866 1.5356C8.91313 1.34558 9.39456 1.19393 9.67216 1.09325C9.94642 0.953042 11.1616 0.730175 11.5274 0.676417Z" fill="#F8E6C8"/>
<path d="M11.5274 0.676417C11.7429 0.629719 12.4201 0.549357 12.6051 0.613623C12.6347 0.642253 12.6264 0.624936 12.6312 0.664907C12.5003 0.844472 11.8642 0.824903 11.6547 0.859649C11.2848 0.920996 10.9221 1.01075 10.5573 1.09773C10.3805 1.13761 9.75209 1.31543 9.63534 1.30039C9.95924 1.10682 11.6432 0.900151 11.729 0.712914C11.6495 0.661546 11.6314 0.678279 11.5274 0.676417Z" fill="var(--fill-0, #F4BD70)"/>
<path d="M7.3665 2.28694L7.38497 2.32486C7.17213 2.56485 6.81336 2.91634 6.45106 2.83292L6.46803 2.78555C6.67997 2.60757 7.11044 2.40041 7.3665 2.28694Z" fill="#FCE2B6"/>
<path d="M7.56137 2.07616C7.63449 2.11941 7.67997 2.1337 7.67142 2.23832C7.82159 2.32702 8.05001 2.27415 8.10778 2.42912C8.05369 2.53786 7.89347 2.62772 7.78824 2.69947C7.87087 2.59042 7.95361 2.51181 7.95968 2.38156C7.88348 2.34723 7.89129 2.36199 7.79368 2.37491C7.76865 2.40227 7.76092 2.40855 7.73178 2.42951L7.70509 2.44852C7.65982 2.42436 7.45665 2.35474 7.38497 2.32486L7.3665 2.28694C7.39191 2.21059 7.49636 2.1342 7.56137 2.07616Z" fill="#FCE2B6"/>
<path d="M14.3415 12.6714C14.7586 12.6513 15.2757 12.6782 15.3924 13.1645C15.6952 14.4254 14.7575 15.649 13.6744 16.0268C13.0304 16.2462 12.3274 16.1948 11.7206 15.8841C10.8885 15.4913 10.3791 14.778 10.2629 13.8517C10.1328 12.8141 11.391 12.8941 12.0869 12.8329C12.837 12.7596 13.5888 12.7057 14.3415 12.6714Z" fill="#5E1302"/>
<path d="M12.812 14.1976C12.8478 14.1937 12.8838 14.1909 12.9198 14.1893C13.5487 14.1623 14.1846 14.2938 14.6611 14.7361C14.2303 15.3747 13.8206 15.5367 13.1273 15.7282C13.1004 15.7307 13.0736 15.7327 13.0467 15.7342C12.2436 15.7785 11.8112 15.5243 11.2443 15.0041C11.7148 14.4935 12.1217 14.2772 12.812 14.1976Z" fill="#ED6D49"/>
<path d="M13.8852 1.85204C14.5372 1.83194 14.7865 1.95538 15.2965 2.38153C15.9596 2.93565 16.2171 3.88273 15.6078 4.58654C15.2836 4.96098 14.8177 5.027 14.346 5.05341C13.4972 5.04009 12.4776 4.56928 12.2665 3.63576C12.0742 2.78569 13.1475 1.98287 13.8852 1.85204Z" fill="#A3541D"/>
<path d="M16.9472 9.05448C17.8481 8.91364 18.6897 9.54654 18.8248 10.4665C18.9598 11.3864 18.337 12.2432 17.4352 12.3781C16.5376 12.5123 15.7028 11.8802 15.5683 10.9645C15.4339 10.0488 16.0505 9.19469 16.9472 9.05448Z" fill="#5E1302"/>
<path d="M16.6985 9.63799C17.3194 9.73608 17.3523 10.5215 16.72 10.7288C16.4657 10.6967 16.2818 10.5674 16.2185 10.3041C16.1826 10.1597 16.2067 10.0066 16.285 9.88093C16.3887 9.71629 16.5243 9.67259 16.6985 9.63799Z" fill="#F7F6F2"/>
<path d="M17.8279 11.0653C17.9187 11.0222 18.0252 11.0326 18.1063 11.0925C18.1874 11.1524 18.2304 11.2523 18.2186 11.3538C18.2069 11.4553 18.1423 11.5423 18.0498 11.5813C17.9111 11.6397 17.752 11.5744 17.6916 11.4341C17.6313 11.2938 17.6918 11.13 17.8279 11.0653Z" fill="#F7F6F2"/>
<path d="M8.243 9.38868C10.318 9.27338 10.6582 12.3612 8.63883 12.7729C7.60562 12.8164 6.9883 12.3748 6.83328 11.2872C6.69909 10.3456 7.29014 9.47893 8.243 9.38868Z" fill="#5E1302"/>
<path d="M7.73246 10.0768C7.99407 9.99314 8.27293 10.1399 8.3579 10.4059C8.4429 10.6719 8.3024 10.9582 8.04274 11.048C7.87209 11.1071 7.68352 11.0679 7.549 10.9455C7.41449 10.8231 7.35485 10.6364 7.39281 10.4566C7.43078 10.2768 7.5605 10.1318 7.73246 10.0768Z" fill="#F7F6F2"/>
<path d="M9.05484 11.4479C9.15217 11.425 9.25395 11.4581 9.32029 11.5343C9.38664 11.6105 9.40693 11.7176 9.37321 11.8135C9.33949 11.9095 9.25716 11.979 9.15849 11.9948C9.01325 12.018 8.87601 11.9197 8.8481 11.7724C8.82018 11.625 8.91158 11.4816 9.05484 11.4479Z" fill="#F7F6F2"/>
<path d="M19.1707 16.0589C20.135 15.9704 20.6694 16.5088 20.8595 17.4544C20.9306 17.8081 20.7157 18.2954 20.5133 18.5751C20.2271 18.9713 19.8922 19.124 19.4242 19.1929C19.0428 19.1503 18.6997 19.1208 18.367 18.8928C18.0393 18.6623 17.746 18.1685 17.6891 17.765C17.5503 16.7809 18.344 16.2046 19.1707 16.0589Z" fill="#984819"/>
<path d="M6.94537 18.7097C6.58282 19.1532 5.9262 19.2992 5.3769 19.1822C4.87303 19.0561 4.49804 18.581 4.35097 18.0917C4.33564 18.0407 4.40754 17.8675 4.41979 17.8099C4.45302 17.654 4.47691 17.497 4.5113 17.3413C4.67942 16.5803 5.5338 16.2362 6.22248 16.4309C6.65816 16.5541 6.87059 16.7704 7.08441 17.1608C7.4987 17.5688 7.39736 18.3687 6.94537 18.7097Z" fill="#B36D33"/>
<path d="M7.08441 17.1608C7.4987 17.5688 7.39736 18.3687 6.94537 18.7097C6.98511 18.6353 7.02411 18.5604 7.06229 18.4851C7.31016 17.9958 7.24035 17.6628 7.08441 17.1608Z" fill="var(--fill-0, #F4BD70)"/>
<path d="M7.56635 4.57642C7.88671 4.53514 8.31073 4.56252 8.58528 4.75206C8.85458 4.93902 9.03904 5.22852 9.09724 5.5556C9.26315 6.54149 8.6452 7.11231 7.75122 7.26956C7.09091 7.36159 6.37309 7.2933 6.22455 6.4857C6.04943 5.53373 6.63931 4.73647 7.56635 4.57642Z" fill="#984819"/>
<path d="M12.9753 20.348C13.1811 19.7803 13.6364 19.4921 14.2117 19.4118C14.5897 19.359 14.787 19.4074 15.0769 19.6338C15.4426 19.9397 15.401 20.2271 15.3981 20.6896C15.4131 21.3092 14.7835 21.8816 14.1894 21.6418C14.0109 21.5698 13.8449 21.357 13.6854 21.251C13.4151 21.0714 13.2002 21.0168 12.9752 20.7655C12.9669 20.6329 12.9516 20.4773 12.9753 20.348Z" fill="#984819"/>
<path d="M15.0769 19.6338C15.4426 19.9397 15.401 20.2271 15.3981 20.6896C15.4131 21.3092 14.7835 21.8816 14.1894 21.6418C14.0109 21.5698 13.8449 21.357 13.6854 21.251C13.4151 21.0714 13.2002 21.0168 12.9752 20.7655C12.9669 20.6329 12.9516 20.4773 12.9753 20.348C13.0385 20.913 13.2853 20.8634 13.6851 21.134C13.8567 21.2504 14.0232 21.4682 14.2199 21.5378C15.1231 21.8576 15.3487 20.9705 15.2658 20.247C15.2333 19.964 15.1891 19.8775 15.0769 19.6338Z" fill="#D37F2B"/>
<path d="M18.078 4.82553C18.1859 4.81236 18.3345 4.81914 18.4467 4.82117C18.916 5.1433 19.3267 5.72522 19.3427 6.30972C19.3582 6.8773 18.8611 7.27698 18.3376 7.26384C17.7157 7.09689 16.6213 6.35428 17.1021 5.58949C17.3041 5.26811 17.7054 4.91084 18.078 4.82553Z" fill="#AA5921"/>
<path d="M1.86257 7.7475C2.08432 7.23504 3.24272 5.16626 3.68294 5.01958L3.7245 5.05066C3.751 5.37037 3.14001 5.90665 3.06003 6.18372C2.96724 6.50519 2.8961 6.83249 2.79906 7.15682C2.74372 7.26942 2.72403 7.33555 2.61877 7.384L2.56618 7.35434C2.50354 7.25781 2.49877 7.14398 2.48257 7.02782L2.44509 7.04608L2.44063 7.06887C2.2377 7.26345 2.08661 7.72537 1.91791 7.78049L1.86257 7.7475Z" fill="#FCE2B6"/>
<path d="M22.3332 8.22684C22.7035 8.22512 23.0186 8.85154 23.1777 9.15566C23.3964 9.57319 23.5541 10.2243 23.4174 10.6944C23.3997 10.7551 23.3155 10.9227 23.2605 10.9511L23.2774 10.8619C23.5693 10.5246 23.4051 9.90219 23.2929 9.51362C23.2589 9.39543 23.0355 8.89568 22.9339 8.84556C22.8798 8.87998 22.8749 8.8859 22.8119 8.90619C22.6695 8.8223 22.4179 8.53961 22.3146 8.38945C22.2841 8.34523 22.3165 8.28182 22.3332 8.22684Z" fill="#FCE2B6"/>
<path d="M13.4722 22.7588C13.5728 22.7818 13.6104 22.7798 13.6775 22.8581C13.7149 22.9524 13.7059 22.9705 13.694 23.0759C13.5111 23.0399 13.4547 22.9441 13.4722 22.7588Z" fill="var(--fill-0, #F4BD70)"/>
</g>
</svg>
