<svg width="70" height="70" viewBox="0 0 70 70" fill="none" xmlns="http://www.w3.org/2000/svg">
<rect width="70" height="70" rx="35" fill="#D7FFC2"/>
<path d="M53.7563 42.4542C53.295 41.2907 52.6858 40.1914 51.9437 39.1834C50.9993 38.0589 50.3607 36.71 50.0896 35.2667C50.0896 29.2459 50.0896 27.2042 46.7979 23.2667C45.7067 21.9808 44.3583 20.9376 42.8396 20.2042L41.3188 19.4751C41.2337 19.4232 41.1623 19.3518 41.1104 19.2667C41.0591 19.2069 41.0233 19.1354 41.0063 19.0584C40.7852 17.6285 40.035 16.3339 38.9045 15.431C37.7739 14.5281 36.3454 14.0828 34.9021 14.1834C33.5053 14.1271 32.1356 14.5798 31.0474 15.4572C29.9592 16.3347 29.2265 17.5773 28.9854 18.9542C28.9635 19.0626 28.9131 19.1633 28.8396 19.2459C28.789 19.3136 28.7252 19.3703 28.6521 19.4126L27.0271 20.2042C25.4921 20.9302 24.1341 21.9825 23.0479 23.2876C19.7771 27.2042 19.7771 29.2459 19.7771 35.2667C19.5345 36.6225 18.9461 37.8926 18.0688 38.9542C17.3028 39.9879 16.6856 41.124 16.2354 42.3292C15.9553 43.1411 15.8586 44.005 15.9523 44.8588C16.0459 45.7125 16.3276 46.5349 16.7771 47.2667C17.2524 47.8724 17.8702 48.351 18.5754 48.66C19.2806 48.969 20.0513 49.0987 20.8188 49.0376H26.6937C26.784 49.5987 26.9368 50.1403 27.1521 50.6626C27.5646 51.698 28.1896 52.6355 28.9854 53.4126C29.7563 54.2042 30.6854 54.823 31.7146 55.2251C32.6729 55.6167 33.7 55.823 34.7354 55.8292H35.0688C37.2477 55.8146 39.3342 54.9471 40.8813 53.4126C41.6601 52.6317 42.2761 51.7041 42.6938 50.6834C42.9049 50.1501 43.0646 49.6015 43.1729 49.0376H49.2979C50.0188 49.0299 50.7295 48.8664 51.3813 48.5584C52.1129 48.1889 52.7425 47.6451 53.2146 46.9751C53.6854 46.3036 53.9726 45.5208 54.0479 44.7042C54.1408 43.9416 54.0405 43.1679 53.7563 42.4542ZM34.8604 42.8084C34.446 42.8084 34.0486 42.6438 33.7556 42.3508C33.4625 42.0577 33.2979 41.6603 33.2979 41.2459C33.2979 40.8315 33.4625 40.4341 33.7556 40.141C34.0486 39.848 34.446 39.6834 34.8604 39.6834C35.2748 39.6834 35.6722 39.848 35.9653 40.141C36.2583 40.4341 36.4229 40.8315 36.4229 41.2459C36.4229 41.6603 36.2583 42.0577 35.9653 42.3508C35.6722 42.6438 35.2748 42.8084 34.8604 42.8084ZM39.3604 33.3917C39.1173 33.9565 38.7631 34.4667 38.3188 34.8917C37.8563 35.3022 37.3188 35.6209 36.7354 35.8292C36.665 35.8676 36.6071 35.9255 36.5688 35.9959C36.5027 36.0708 36.4657 36.1669 36.4646 36.2667V36.9959C36.4646 37.4103 36.3 37.8077 36.0069 38.1008C35.7139 38.3938 35.3165 38.5584 34.9021 38.5584C34.4877 38.5584 34.0903 38.3938 33.7972 38.1008C33.5042 37.8077 33.3396 37.4103 33.3396 36.9959V36.2042C33.3498 35.459 33.5819 34.7337 34.0063 34.1209C34.431 33.54 35.0182 33.0979 35.6938 32.8501C35.8762 32.7828 36.0454 32.684 36.1938 32.5584C36.3076 32.4319 36.4056 32.292 36.4854 32.1417C36.5295 31.9709 36.5295 31.7917 36.4854 31.6209C36.4829 31.4424 36.4476 31.2658 36.3813 31.1001C36.2505 30.9078 36.0886 30.7388 35.9021 30.6001C35.6903 30.438 35.4381 30.3371 35.1729 30.3084C34.7766 30.2238 34.3631 30.2829 34.0063 30.4751C33.6555 30.645 33.3753 30.9325 33.2146 31.2876C33.1322 31.4786 33.0125 31.6514 32.8626 31.7957C32.7127 31.94 32.5356 32.053 32.3415 32.1282C32.1475 32.2033 31.9404 32.239 31.7324 32.2332C31.5244 32.2274 31.3196 32.1802 31.1301 32.0944C30.9405 32.0086 30.7699 31.8859 30.6283 31.7335C30.4866 31.5811 30.3768 31.4019 30.3051 31.2066C30.2335 31.0112 30.2015 30.8035 30.211 30.5957C30.2205 30.3878 30.2713 30.1839 30.3604 29.9959C30.8194 29.0133 31.5878 28.2084 32.5479 27.7042C33.5134 27.1971 34.6211 27.0284 35.6938 27.2251C36.4396 27.3397 37.1521 27.6167 37.7771 28.0376C38.3854 28.4834 38.8833 29.0584 39.2354 29.7251C39.5194 30.2947 39.669 30.9219 39.6729 31.5584C39.7021 32.1855 39.5958 32.8105 39.3604 33.3917Z" fill="#43BB65"/>
</svg>
