<svg width="300" height="50" viewBox="0 0 300 50" fill="none" xmlns="http://www.w3.org/2000/svg">
<rect width="300" height="50" rx="15.498" fill="#FEE500"/>
<path d="M103.491 19.7193H105.115C105.115 20.6993 105.031 21.6419 104.863 22.5473C104.704 23.4433 104.415 24.2973 103.995 25.1093C103.584 25.9213 103.001 26.6819 102.245 27.3913C101.489 28.1006 100.518 28.7586 99.3326 29.3653L98.4366 28.0913C99.4446 27.5873 100.275 27.0459 100.929 26.4673C101.582 25.8793 102.095 25.2539 102.469 24.5913C102.842 23.9193 103.103 23.1959 103.253 22.4213C103.411 21.6466 103.491 20.8113 103.491 19.9153V19.7193ZM99.2206 19.7193H104.471V21.0493H99.2206V19.7193ZM103.477 22.8833V24.1573L98.7726 24.6193L98.5486 23.1913L103.477 22.8833ZM106.823 18.4453H108.489V31.3113H106.823V18.4453ZM108.055 23.4433H110.351V24.8153H108.055V23.4433ZM116.229 19.7193H117.853C117.853 20.6993 117.769 21.6419 117.601 22.5473C117.443 23.4433 117.153 24.2973 116.733 25.1093C116.323 25.9213 115.739 26.6819 114.983 27.3913C114.227 28.1006 113.257 28.7586 112.071 29.3653L111.175 28.0913C112.183 27.5873 113.014 27.0459 113.667 26.4673C114.321 25.8793 114.834 25.2539 115.207 24.5913C115.581 23.9193 115.842 23.1959 115.991 22.4213C116.15 21.6466 116.229 20.8113 116.229 19.9153V19.7193ZM111.959 19.7193H117.209V21.0493H111.959V19.7193ZM116.215 22.8833V24.1573L111.511 24.6193L111.287 23.1913L116.215 22.8833ZM119.561 18.4453H121.227V31.3113H119.561V18.4453ZM120.793 23.4433H123.089V24.8153H120.793V23.4433ZM128.912 25.7113H130.578V28.7213H128.912V25.7113ZM129.752 19.1593C130.667 19.1593 131.484 19.3039 132.202 19.5933C132.921 19.8826 133.486 20.2886 133.896 20.8113C134.316 21.3339 134.526 21.9499 134.526 22.6593C134.526 23.3686 134.316 23.9893 133.896 24.5213C133.486 25.0439 132.921 25.4499 132.202 25.7393C131.484 26.0286 130.667 26.1733 129.752 26.1733C128.838 26.1733 128.021 26.0286 127.302 25.7393C126.584 25.4499 126.014 25.0439 125.594 24.5213C125.184 23.9893 124.978 23.3686 124.978 22.6593C124.978 21.9499 125.184 21.3339 125.594 20.8113C126.014 20.2886 126.584 19.8826 127.302 19.5933C128.021 19.3039 128.838 19.1593 129.752 19.1593ZM129.752 20.4753C129.136 20.4753 128.59 20.5639 128.114 20.7413C127.648 20.9186 127.279 21.1706 127.008 21.4973C126.747 21.8146 126.616 22.2019 126.616 22.6593C126.616 23.1073 126.747 23.4993 127.008 23.8353C127.279 24.1619 127.648 24.4139 128.114 24.5913C128.59 24.7593 129.136 24.8433 129.752 24.8433C130.368 24.8433 130.91 24.7593 131.376 24.5913C131.852 24.4139 132.221 24.1619 132.482 23.8353C132.753 23.4993 132.888 23.1073 132.888 22.6593C132.888 22.2019 132.753 21.8146 132.482 21.4973C132.221 21.1706 131.852 20.9186 131.376 20.7413C130.91 20.5639 130.368 20.4753 129.752 20.4753ZM123.942 28.4413H135.604V29.7993H123.942V28.4413ZM136.681 28.5113H148.343V29.8693H136.681V28.5113ZM141.651 25.9773H143.317V29.0573H141.651V25.9773ZM138.025 19.3133H146.985V23.4993H139.691V25.7813H138.053V22.1973H145.347V20.6433H138.025V19.3133ZM138.053 25.1093H147.279V26.4533H138.053V25.1093ZM157.408 21.9033H160.082V23.2333H157.408V21.9033ZM157.324 25.1233H160.04V26.4533H157.324V25.1233ZM161.888 18.4453H163.484V31.3253H161.888V18.4453ZM159.256 18.7393H160.81V30.7373H159.256V18.7393ZM156.358 19.9993H157.954C157.954 21.1939 157.805 22.3139 157.506 23.3593C157.217 24.4046 156.727 25.3706 156.036 26.2573C155.355 27.1346 154.422 27.9233 153.236 28.6233L152.284 27.4613C153.264 26.8639 154.053 26.2106 154.65 25.5013C155.257 24.7919 155.691 24.0126 155.952 23.1633C156.223 22.3046 156.358 21.3619 156.358 20.3353V19.9993ZM152.984 19.9993H156.932V21.3433H152.984V19.9993ZM165.163 24.7593H176.825V26.0893H165.163V24.7593ZM170.133 23.0093H171.799V25.3473H170.133V23.0093ZM170.119 18.6693H171.547V19.1173C171.547 19.5839 171.468 20.0319 171.309 20.4613C171.16 20.8813 170.931 21.2733 170.623 21.6373C170.325 21.9919 169.965 22.3093 169.545 22.5893C169.125 22.8693 168.649 23.1073 168.117 23.3033C167.595 23.4993 167.021 23.6439 166.395 23.7373L165.779 22.4353C166.321 22.3606 166.82 22.2486 167.277 22.0993C167.735 21.9499 168.136 21.7679 168.481 21.5533C168.836 21.3386 169.135 21.1006 169.377 20.8393C169.62 20.5779 169.802 20.3026 169.923 20.0133C170.054 19.7146 170.119 19.4159 170.119 19.1173V18.6693ZM170.399 18.6693H171.813V19.1173C171.813 19.4253 171.874 19.7286 171.995 20.0273C172.126 20.3166 172.313 20.5919 172.555 20.8533C172.798 21.1146 173.092 21.3526 173.437 21.5673C173.792 21.7819 174.198 21.9639 174.655 22.1133C175.113 22.2533 175.612 22.3606 176.153 22.4353L175.537 23.7373C174.921 23.6439 174.347 23.4993 173.815 23.3033C173.293 23.1073 172.817 22.8693 172.387 22.5893C171.967 22.3093 171.608 21.9919 171.309 21.6373C171.011 21.2826 170.782 20.8953 170.623 20.4753C170.474 20.0553 170.399 19.6026 170.399 19.1173V18.6693ZM166.451 27.0833H175.397V31.3393H173.731V28.3993H166.451V27.0833ZM186.288 18.4593H187.954V31.3393H186.288V18.4593ZM187.576 23.5553H189.872V24.9413H187.576V23.5553ZM177.846 20.4053H185.364V21.7353H177.846V20.4053ZM181.64 22.5473C182.266 22.5473 182.816 22.6779 183.292 22.9393C183.778 23.2006 184.16 23.5599 184.44 24.0173C184.72 24.4653 184.86 24.9879 184.86 25.5853C184.86 26.1826 184.72 26.7099 184.44 27.1673C184.16 27.6246 183.778 27.9839 183.292 28.2453C182.816 28.5066 182.266 28.6373 181.64 28.6373C181.024 28.6373 180.474 28.5066 179.988 28.2453C179.503 27.9839 179.116 27.6246 178.826 27.1673C178.546 26.7099 178.406 26.1826 178.406 25.5853C178.406 24.9879 178.546 24.4653 178.826 24.0173C179.116 23.5599 179.503 23.2006 179.988 22.9393C180.474 22.6779 181.024 22.5473 181.64 22.5473ZM181.64 23.9053C181.323 23.9053 181.038 23.9753 180.786 24.1153C180.544 24.2553 180.352 24.4513 180.212 24.7033C180.072 24.9459 180.002 25.2399 180.002 25.5853C180.002 25.9306 180.072 26.2293 180.212 26.4813C180.352 26.7333 180.544 26.9293 180.786 27.0693C181.038 27.2093 181.323 27.2793 181.64 27.2793C181.958 27.2793 182.238 27.2093 182.48 27.0693C182.732 26.9293 182.928 26.7333 183.068 26.4813C183.208 26.2293 183.278 25.9306 183.278 25.5853C183.278 25.2399 183.208 24.9459 183.068 24.7033C182.928 24.4513 182.732 24.2553 182.48 24.1153C182.238 23.9753 181.958 23.9053 181.64 23.9053ZM180.786 18.6553H182.466V20.9233H180.786V18.6553ZM199.657 18.4453H201.337V31.3253H199.657V18.4453ZM195.863 19.8033H197.515C197.515 20.7739 197.412 21.7026 197.207 22.5893C197.011 23.4666 196.689 24.2973 196.241 25.0813C195.793 25.8653 195.186 26.5933 194.421 27.2653C193.656 27.9373 192.713 28.5486 191.593 29.0993L190.711 27.7693C191.952 27.1719 192.951 26.4999 193.707 25.7533C194.463 24.9973 195.009 24.1526 195.345 23.2193C195.69 22.2766 195.863 21.2359 195.863 20.0973V19.8033ZM191.383 19.8033H196.633V21.1333H191.383V19.8033Z" fill="#191C1E"/>
<path fill-rule="evenodd" clip-rule="evenodd" d="M19.6614 23.2524C19.6614 17.9472 24.1001 13.8237 29.3703 13.8237C34.6405 13.8237 39.0792 17.9472 39.0792 23.2524C39.0792 28.5577 34.6405 32.6812 29.3703 32.6812C28.9566 32.6812 28.5497 32.6567 28.1496 32.6078L23.8653 35.7455C23.7932 35.7984 23.7097 35.8256 23.6249 35.8236C23.5401 35.8217 23.4576 35.7908 23.3872 35.7347C23.3168 35.6785 23.2615 35.5995 23.228 35.507C23.1944 35.4146 23.184 35.3126 23.1981 35.2133L23.8 30.9787C21.3251 29.2942 19.6614 26.4844 19.6614 23.2524ZM22.0886 21.1572C22.0886 20.9488 22.1583 20.7489 22.2825 20.6016C22.4066 20.4542 22.575 20.3714 22.7506 20.3714H25.3985C25.574 20.3714 25.7424 20.4542 25.8665 20.6016C25.9907 20.7489 26.0604 20.9488 26.0604 21.1572C26.0604 21.3656 25.9907 21.5654 25.8665 21.7128C25.7424 21.8601 25.574 21.9429 25.3985 21.9429H24.7365V25.8715C24.7365 26.0799 24.6667 26.2798 24.5426 26.4271C24.4185 26.5745 24.2501 26.6573 24.0745 26.6573C23.8989 26.6573 23.7306 26.5745 23.6064 26.4271C23.4823 26.2798 23.4125 26.0799 23.4125 25.8715V21.9429H22.7506C22.575 21.9429 22.4066 21.8601 22.2825 21.7128C22.1583 21.5654 22.0886 21.3656 22.0886 21.1572ZM28.0013 20.8722C27.953 20.7247 27.8682 20.5979 27.7581 20.5085C27.648 20.4191 27.5178 20.3713 27.3844 20.3713C27.251 20.3713 27.1207 20.4191 27.0106 20.5085C26.9005 20.5979 26.8158 20.7247 26.7674 20.8722L25.2228 25.5866C25.1913 25.6827 25.176 25.7853 25.1779 25.8885C25.1798 25.9917 25.1988 26.0934 25.2338 26.1878C25.2688 26.2823 25.3191 26.3677 25.3819 26.439C25.4447 26.5104 25.5187 26.5664 25.5997 26.6038C25.6807 26.6412 25.7672 26.6594 25.8541 26.6571C25.941 26.6549 26.0267 26.6324 26.1063 26.5908C26.1858 26.5493 26.2578 26.4896 26.3179 26.415C26.378 26.3405 26.4252 26.2527 26.4567 26.1565L26.6359 25.6096H28.1328L28.312 26.1565C28.3672 26.327 28.4708 26.4694 28.6049 26.5591C28.739 26.6488 28.8952 26.6802 29.0467 26.6479C29.1982 26.6157 29.3355 26.5218 29.435 26.3824C29.5345 26.243 29.59 26.0668 29.5918 25.8841C29.5946 26.0901 29.6654 26.2866 29.7891 26.4312C29.9128 26.5758 30.0793 26.657 30.2529 26.6573H32.0182C32.1937 26.6573 32.3621 26.5745 32.4862 26.4271C32.6104 26.2798 32.6801 26.0799 32.6801 25.8715C32.6801 26.0799 32.7499 26.2798 32.874 26.4271C32.9982 26.5745 33.1665 26.6573 33.3421 26.6573C33.5177 26.6573 33.686 26.5745 33.8102 26.4271C33.9343 26.2798 34.0041 26.0799 34.0041 25.8715V24.6248L34.17 24.4289L35.4728 26.3629C35.5271 26.4435 35.5943 26.5106 35.6706 26.5604C35.7468 26.6102 35.8305 26.6417 35.917 26.6531C36.0034 26.6644 36.0909 26.6555 36.1745 26.6267C36.2581 26.598 36.336 26.55 36.4039 26.4854C36.4719 26.4209 36.5284 26.3411 36.5704 26.2507C36.6123 26.1602 36.6388 26.0608 36.6484 25.9582C36.658 25.8556 36.6505 25.7517 36.6263 25.6525C36.602 25.5533 36.5616 25.4608 36.5072 25.3802L35.1118 23.3111L36.4578 21.7124C36.5747 21.5635 36.6384 21.3665 36.6353 21.1629C36.6323 20.9594 36.5628 20.7651 36.4416 20.6212C36.3203 20.4772 36.1566 20.3948 35.9852 20.3912C35.8137 20.3876 35.6477 20.4631 35.5222 20.6019L34.0041 22.4039V21.1572C34.0041 20.9488 33.9343 20.7489 33.8102 20.6016C33.686 20.4542 33.5177 20.3714 33.3421 20.3714C33.1665 20.3714 32.9982 20.4542 32.874 20.6016C32.7499 20.7489 32.6801 20.9488 32.6801 21.1572V25.8715C32.6801 25.6631 32.6104 25.4633 32.4862 25.3159C32.3621 25.1686 32.1937 25.0858 32.0182 25.0858H30.9149V21.1572C30.9149 20.9488 30.8451 20.7489 30.721 20.6016C30.5968 20.4542 30.4285 20.3714 30.2529 20.3714C30.0773 20.3714 29.909 20.4542 29.7848 20.6016C29.6607 20.7489 29.5909 20.9488 29.5909 21.1572V25.8527C29.5882 25.7617 29.573 25.6718 29.5459 25.5866L28.0013 20.8722ZM27.3844 23.3258L27.6183 24.0392H27.1505L27.3844 23.3268V23.3258Z" fill="#412625"/>
</svg>
