<svg width="300" height="50" viewBox="0 0 300 50" fill="none" xmlns="http://www.w3.org/2000/svg">
<rect x="0.484311" y="0.484311" width="299.031" height="49.0314" rx="15.0136" fill="white"/>
<rect x="0.484311" y="0.484311" width="299.031" height="49.0314" rx="15.0136" stroke="#BECABE" stroke-width="0.968622"/>
<path d="M99.1159 30.3295C98.1825 30.3295 97.3472 30.1242 96.6099 29.7135C95.8819 29.2935 95.3032 28.6869 94.8739 27.8935C94.4445 27.1002 94.2299 26.1342 94.2299 24.9955C94.2299 24.1462 94.3559 23.3902 94.6079 22.7275C94.8599 22.0649 95.2052 21.5002 95.6439 21.0335C96.0919 20.5669 96.6099 20.2122 97.1979 19.9695C97.7952 19.7269 98.4392 19.6055 99.1299 19.6055C99.8672 19.6055 100.493 19.7409 101.006 20.0115C101.519 20.2822 101.939 20.5855 102.266 20.9215L101.272 22.0975C101.011 21.8455 100.717 21.6355 100.39 21.4675C100.073 21.2902 99.6712 21.2015 99.1859 21.2015C98.5792 21.2015 98.0472 21.3555 97.5899 21.6635C97.1325 21.9622 96.7732 22.3915 96.5119 22.9515C96.2599 23.5022 96.1339 24.1649 96.1339 24.9395C96.1339 25.7235 96.2505 26.4002 96.4839 26.9695C96.7265 27.5295 97.0812 27.9635 97.5479 28.2715C98.0239 28.5702 98.6072 28.7195 99.2979 28.7195C99.5872 28.7195 99.8625 28.6822 100.124 28.6075C100.385 28.5235 100.595 28.4115 100.754 28.2715V26.0455H98.8079V24.5195H102.42V29.0975C102.075 29.4429 101.613 29.7369 101.034 29.9795C100.455 30.2129 99.8159 30.3295 99.1159 30.3295ZM107.586 30.3295C106.942 30.3295 106.335 30.1709 105.766 29.8535C105.206 29.5269 104.753 29.0602 104.408 28.4535C104.062 27.8375 103.89 27.1049 103.89 26.2555C103.89 25.3875 104.062 24.6502 104.408 24.0435C104.753 23.4369 105.206 22.9749 105.766 22.6575C106.335 22.3309 106.942 22.1675 107.586 22.1675C108.071 22.1675 108.533 22.2609 108.972 22.4475C109.42 22.6249 109.816 22.8909 110.162 23.2455C110.507 23.5909 110.778 24.0155 110.974 24.5195C111.179 25.0235 111.282 25.6022 111.282 26.2555C111.282 27.1049 111.109 27.8375 110.764 28.4535C110.418 29.0602 109.961 29.5269 109.392 29.8535C108.832 30.1709 108.23 30.3295 107.586 30.3295ZM107.586 28.8175C107.968 28.8175 108.295 28.7149 108.566 28.5095C108.836 28.2949 109.042 27.9962 109.182 27.6135C109.331 27.2215 109.406 26.7689 109.406 26.2555C109.406 25.7329 109.331 25.2802 109.182 24.8975C109.042 24.5055 108.836 24.2069 108.566 24.0015C108.295 23.7869 107.968 23.6795 107.586 23.6795C107.212 23.6795 106.89 23.7869 106.62 24.0015C106.349 24.2069 106.139 24.5055 105.99 24.8975C105.85 25.2802 105.78 25.7329 105.78 26.2555C105.78 26.7689 105.85 27.2215 105.99 27.6135C106.139 27.9962 106.349 28.2949 106.62 28.5095C106.89 28.7149 107.212 28.8175 107.586 28.8175ZM116.127 30.3295C115.483 30.3295 114.877 30.1709 114.307 29.8535C113.747 29.5269 113.295 29.0602 112.949 28.4535C112.604 27.8375 112.431 27.1049 112.431 26.2555C112.431 25.3875 112.604 24.6502 112.949 24.0435C113.295 23.4369 113.747 22.9749 114.307 22.6575C114.877 22.3309 115.483 22.1675 116.127 22.1675C116.613 22.1675 117.075 22.2609 117.513 22.4475C117.961 22.6249 118.358 22.8909 118.703 23.2455C119.049 23.5909 119.319 24.0155 119.515 24.5195C119.721 25.0235 119.823 25.6022 119.823 26.2555C119.823 27.1049 119.651 27.8375 119.305 28.4535C118.96 29.0602 118.503 29.5269 117.933 29.8535C117.373 30.1709 116.771 30.3295 116.127 30.3295ZM116.127 28.8175C116.51 28.8175 116.837 28.7149 117.107 28.5095C117.378 28.2949 117.583 27.9962 117.723 27.6135C117.873 27.2215 117.947 26.7689 117.947 26.2555C117.947 25.7329 117.873 25.2802 117.723 24.8975C117.583 24.5055 117.378 24.2069 117.107 24.0015C116.837 23.7869 116.51 23.6795 116.127 23.6795C115.754 23.6795 115.432 23.7869 115.161 24.0015C114.891 24.2069 114.681 24.5055 114.531 24.8975C114.391 25.2802 114.321 25.7329 114.321 26.2555C114.321 26.7689 114.391 27.2215 114.531 27.6135C114.681 27.9962 114.891 28.2949 115.161 28.5095C115.432 28.7149 115.754 28.8175 116.127 28.8175ZM124.193 33.5635C123.577 33.5635 123.022 33.4889 122.527 33.3395C122.042 33.1902 121.659 32.9662 121.379 32.6675C121.099 32.3689 120.959 31.9955 120.959 31.5475C120.959 31.2209 121.052 30.9129 121.239 30.6235C121.435 30.3435 121.715 30.1009 122.079 29.8955V29.8255C121.883 29.6949 121.715 29.5269 121.575 29.3215C121.444 29.1069 121.379 28.8409 121.379 28.5235C121.379 28.2249 121.463 27.9495 121.631 27.6975C121.808 27.4362 122.014 27.2309 122.247 27.0815V27.0255C121.976 26.8202 121.734 26.5402 121.519 26.1855C121.304 25.8309 121.197 25.4249 121.197 24.9675C121.197 24.3702 121.342 23.8615 121.631 23.4415C121.92 23.0215 122.298 22.7042 122.765 22.4895C123.232 22.2749 123.731 22.1675 124.263 22.1675C124.496 22.1675 124.711 22.1862 124.907 22.2235C125.103 22.2609 125.276 22.3075 125.425 22.3635H128.211V23.7215H126.811C126.932 23.8709 127.03 24.0575 127.105 24.2815C127.189 24.5055 127.231 24.7529 127.231 25.0235C127.231 25.5929 127.1 26.0782 126.839 26.4795C126.578 26.8715 126.218 27.1702 125.761 27.3755C125.313 27.5715 124.814 27.6695 124.263 27.6695C124.114 27.6695 123.946 27.6555 123.759 27.6275C123.582 27.5902 123.404 27.5389 123.227 27.4735C123.115 27.5669 123.022 27.6695 122.947 27.7815C122.882 27.8935 122.849 28.0382 122.849 28.2155C122.849 28.4209 122.938 28.5889 123.115 28.7195C123.302 28.8409 123.633 28.9015 124.109 28.9015H125.495C126.419 28.9015 127.124 29.0555 127.609 29.3635C128.094 29.6622 128.337 30.1475 128.337 30.8195C128.337 31.3329 128.169 31.7949 127.833 32.2055C127.497 32.6255 127.016 32.9569 126.391 33.1995C125.766 33.4422 125.033 33.5635 124.193 33.5635ZM124.263 26.5215C124.515 26.5215 124.744 26.4609 124.949 26.3395C125.154 26.2089 125.318 26.0315 125.439 25.8075C125.56 25.5742 125.621 25.2942 125.621 24.9675C125.621 24.6409 125.56 24.3655 125.439 24.1415C125.318 23.9082 125.154 23.7355 124.949 23.6235C124.753 23.5022 124.524 23.4415 124.263 23.4415C124.02 23.4415 123.796 23.5022 123.591 23.6235C123.395 23.7355 123.236 23.9035 123.115 24.1275C122.994 24.3515 122.933 24.6315 122.933 24.9675C122.933 25.2942 122.994 25.5742 123.115 25.8075C123.236 26.0315 123.395 26.2089 123.591 26.3395C123.796 26.4609 124.02 26.5215 124.263 26.5215ZM124.459 32.3735C124.888 32.3735 125.257 32.3129 125.565 32.1915C125.882 32.0795 126.125 31.9302 126.293 31.7435C126.47 31.5569 126.559 31.3515 126.559 31.1275C126.559 30.8195 126.442 30.6095 126.209 30.4975C125.976 30.3949 125.64 30.3435 125.201 30.3435H124.137C123.932 30.3435 123.74 30.3342 123.563 30.3155C123.395 30.3062 123.236 30.2829 123.087 30.2455C122.882 30.3949 122.732 30.5582 122.639 30.7355C122.546 30.9129 122.499 31.0902 122.499 31.2675C122.499 31.6129 122.676 31.8835 123.031 32.0795C123.386 32.2755 123.862 32.3735 124.459 32.3735ZM131.345 30.3295C130.916 30.3295 130.571 30.2409 130.309 30.0635C130.048 29.8769 129.861 29.6202 129.749 29.2935C129.637 28.9575 129.581 28.5702 129.581 28.1315V18.9755H131.415V28.2155C131.415 28.4395 131.457 28.5982 131.541 28.6915C131.625 28.7755 131.714 28.8175 131.807 28.8175C131.845 28.8175 131.882 28.8175 131.919 28.8175C131.957 28.8082 132.013 28.7989 132.087 28.7895L132.311 30.1615C132.199 30.2082 132.064 30.2455 131.905 30.2735C131.756 30.3109 131.569 30.3295 131.345 30.3295ZM137.039 30.3295C136.32 30.3295 135.671 30.1662 135.093 29.8395C134.514 29.5129 134.052 29.0462 133.707 28.4395C133.371 27.8329 133.203 27.1049 133.203 26.2555C133.203 25.6209 133.301 25.0562 133.497 24.5615C133.702 24.0575 133.973 23.6282 134.309 23.2735C134.654 22.9095 135.037 22.6342 135.457 22.4475C135.886 22.2609 136.329 22.1675 136.787 22.1675C137.487 22.1675 138.075 22.3262 138.551 22.6435C139.027 22.9515 139.386 23.3855 139.629 23.9455C139.871 24.4962 139.993 25.1355 139.993 25.8635C139.993 26.0409 139.983 26.2089 139.965 26.3675C139.955 26.5169 139.937 26.6429 139.909 26.7455H134.995C135.041 27.2029 135.167 27.5902 135.373 27.9075C135.578 28.2249 135.839 28.4722 136.157 28.6495C136.483 28.8175 136.857 28.9015 137.277 28.9015C137.603 28.9015 137.911 28.8549 138.201 28.7615C138.49 28.6589 138.779 28.5189 139.069 28.3415L139.699 29.4895C139.335 29.7322 138.924 29.9329 138.467 30.0915C138.009 30.2502 137.533 30.3295 137.039 30.3295ZM134.967 25.4995H138.425C138.425 24.9115 138.289 24.4495 138.019 24.1135C137.748 23.7682 137.347 23.5955 136.815 23.5955C136.525 23.5955 136.25 23.6702 135.989 23.8195C135.727 23.9595 135.503 24.1695 135.317 24.4495C135.139 24.7295 135.023 25.0795 134.967 25.4995ZM141.06 28.5095H152.722V29.8675H141.06V28.5095ZM146.03 25.9755H147.696V29.0555H146.03V25.9755ZM142.404 19.3115H151.364V23.4975H144.07V25.7795H142.432V22.1955H149.726V20.6415H142.404V19.3115ZM142.432 25.1075H151.658V26.4515H142.432V25.1075ZM161.787 21.9015H164.461V23.2315H161.787V21.9015ZM161.703 25.1215H164.419V26.4515H161.703V25.1215ZM166.267 18.4435H167.863V31.3235H166.267V18.4435ZM163.635 18.7375H165.189V30.7355H163.635V18.7375ZM160.737 19.9975H162.333C162.333 21.1922 162.184 22.3122 161.885 23.3575C161.596 24.4029 161.106 25.3689 160.415 26.2555C159.734 27.1329 158.801 27.9215 157.615 28.6215L156.663 27.4595C157.643 26.8622 158.432 26.2089 159.029 25.4995C159.636 24.7902 160.07 24.0109 160.331 23.1615C160.602 22.3029 160.737 21.3602 160.737 20.3335V19.9975ZM157.363 19.9975H161.311V21.3415H157.363V19.9975ZM169.542 24.7575H181.204V26.0875H169.542V24.7575ZM174.512 23.0075H176.178V25.3455H174.512V23.0075ZM174.498 18.6675H175.926V19.1155C175.926 19.5822 175.847 20.0302 175.688 20.4595C175.539 20.8795 175.31 21.2715 175.002 21.6355C174.703 21.9902 174.344 22.3075 173.924 22.5875C173.504 22.8675 173.028 23.1055 172.496 23.3015C171.973 23.4975 171.399 23.6422 170.774 23.7355L170.158 22.4335C170.699 22.3589 171.199 22.2469 171.656 22.0975C172.113 21.9482 172.515 21.7662 172.86 21.5515C173.215 21.3369 173.513 21.0989 173.756 20.8375C173.999 20.5762 174.181 20.3009 174.302 20.0115C174.433 19.7129 174.498 19.4142 174.498 19.1155V18.6675ZM174.778 18.6675H176.192V19.1155C176.192 19.4235 176.253 19.7269 176.374 20.0255C176.505 20.3149 176.691 20.5902 176.934 20.8515C177.177 21.1129 177.471 21.3509 177.816 21.5655C178.171 21.7802 178.577 21.9622 179.034 22.1115C179.491 22.2515 179.991 22.3589 180.532 22.4335L179.916 23.7355C179.3 23.6422 178.726 23.4975 178.194 23.3015C177.671 23.1055 177.195 22.8675 176.766 22.5875C176.346 22.3075 175.987 21.9902 175.688 21.6355C175.389 21.2809 175.161 20.8935 175.002 20.4735C174.853 20.0535 174.778 19.6009 174.778 19.1155V18.6675ZM170.83 27.0815H179.776V31.3375H178.11V28.3975H170.83V27.0815ZM190.667 18.4575H192.333V31.3375H190.667V18.4575ZM191.955 23.5535H194.251V24.9395H191.955V23.5535ZM182.225 20.4035H189.743V21.7335H182.225V20.4035ZM186.019 22.5455C186.644 22.5455 187.195 22.6762 187.671 22.9375C188.156 23.1989 188.539 23.5582 188.819 24.0155C189.099 24.4635 189.239 24.9862 189.239 25.5835C189.239 26.1809 189.099 26.7082 188.819 27.1655C188.539 27.6229 188.156 27.9822 187.671 28.2435C187.195 28.5049 186.644 28.6355 186.019 28.6355C185.403 28.6355 184.852 28.5049 184.367 28.2435C183.882 27.9822 183.494 27.6229 183.205 27.1655C182.925 26.7082 182.785 26.1809 182.785 25.5835C182.785 24.9862 182.925 24.4635 183.205 24.0155C183.494 23.5582 183.882 23.1989 184.367 22.9375C184.852 22.6762 185.403 22.5455 186.019 22.5455ZM186.019 23.9035C185.702 23.9035 185.417 23.9735 185.165 24.1135C184.922 24.2535 184.731 24.4495 184.591 24.7015C184.451 24.9442 184.381 25.2382 184.381 25.5835C184.381 25.9289 184.451 26.2275 184.591 26.4795C184.731 26.7315 184.922 26.9275 185.165 27.0675C185.417 27.2075 185.702 27.2775 186.019 27.2775C186.336 27.2775 186.616 27.2075 186.859 27.0675C187.111 26.9275 187.307 26.7315 187.447 26.4795C187.587 26.2275 187.657 25.9289 187.657 25.5835C187.657 25.2382 187.587 24.9442 187.447 24.7015C187.307 24.4495 187.111 24.2535 186.859 24.1135C186.616 23.9735 186.336 23.9035 186.019 23.9035ZM185.165 18.6535H186.845V20.9215H185.165V18.6535ZM204.036 18.4435H205.716V31.3235H204.036V18.4435ZM200.242 19.8015H201.894C201.894 20.7722 201.791 21.7009 201.586 22.5875C201.39 23.4649 201.068 24.2955 200.62 25.0795C200.172 25.8635 199.565 26.5915 198.8 27.2635C198.035 27.9355 197.092 28.5469 195.972 29.0975L195.09 27.7675C196.331 27.1702 197.33 26.4982 198.086 25.7515C198.842 24.9955 199.388 24.1509 199.724 23.2175C200.069 22.2749 200.242 21.2342 200.242 20.0955V19.8015ZM195.762 19.8015H201.012V21.1315H195.762V19.8015Z" fill="#191C1E"/>
<path d="M37.5435 27.3568C37.5435 26.7718 37.491 26.2093 37.3935 25.6693H29.6235V28.8643H34.0635C33.8685 29.8918 33.2835 30.7618 32.406 31.3468V33.4243H35.0835C36.6435 31.9843 37.5435 29.8693 37.5435 27.3568Z" fill="#4285F4"/>
<path d="M29.8545 35.3221C32.082 35.3221 33.9495 34.5871 35.3145 33.3271L32.637 31.2496C31.902 31.7446 30.9645 32.0446 29.8545 32.0446C27.7095 32.0446 25.887 30.5971 25.2345 28.6471H22.4895V30.7771C23.847 33.4696 26.6295 35.3221 29.8545 35.3221Z" fill="#34A853"/>
<path d="M25.2623 28.806C25.0973 28.311 24.9998 27.786 24.9998 27.2385C24.9998 26.691 25.0973 26.166 25.2623 25.671V23.541H22.5173C21.9548 24.651 21.6323 25.9035 21.6323 27.2385C21.6323 28.5735 21.9548 29.826 22.5173 30.936L25.2623 28.806Z" fill="#FBBC05"/>
<path d="M29.8545 22.4161C31.0695 22.4161 32.1495 22.8361 33.012 23.6611L35.3745 21.2986C33.942 19.9486 32.082 19.1311 29.8545 19.1311C26.6295 19.1311 23.847 20.9836 22.4895 23.6836L25.2345 25.8136C25.887 23.8636 27.7095 22.4161 29.8545 22.4161Z" fill="#EA4335"/>
</svg>
