<svg width="83" height="77" viewBox="0 0 83 77" fill="none" xmlns="http://www.w3.org/2000/svg">
<rect x="0.425" y="0.425" width="75.65" height="75.65" rx="11.475" fill="white"/>
<rect x="0.425" y="0.425" width="75.65" height="75.65" rx="11.475" stroke="#FAEFDF" stroke-width="0.85"/>
<path d="M25.8524 60.4133H26.8639V61.5523H25.8524V60.4133ZM22.8434 59.8183H29.8814V60.5663H22.8434V59.8183ZM25.8524 56.4353H26.8639V57.3788H25.8524V56.4353ZM25.7929 57.4383H26.6854V57.5828C26.6854 57.8718 26.6118 58.1325 26.4644 58.3648C26.3171 58.5971 26.1018 58.7983 25.8184 58.9683C25.5351 59.1383 25.1923 59.2743 24.7899 59.3763C24.3876 59.4783 23.9314 59.5463 23.4214 59.5803L23.1324 58.8238C23.5858 58.8068 23.9768 58.7615 24.3054 58.6878C24.6398 58.6141 24.9174 58.5235 25.1384 58.4158C25.3594 58.3025 25.5238 58.175 25.6314 58.0333C25.7391 57.8916 25.7929 57.7415 25.7929 57.5828V57.4383ZM26.0309 57.4383H26.9149V57.5828C26.9149 57.7415 26.9688 57.8916 27.0764 58.0333C27.1841 58.175 27.3484 58.3025 27.5694 58.4158C27.7904 58.5235 28.0681 58.6141 28.4024 58.6878C28.7368 58.7615 29.1278 58.8068 29.5754 58.8238L29.2949 59.5803C28.7849 59.5463 28.3259 59.4783 27.9179 59.3763C27.5156 59.2743 27.1728 59.1383 26.8894 58.9683C26.6118 58.7983 26.3993 58.5971 26.2519 58.3648C26.1046 58.1325 26.0309 57.8718 26.0309 57.5828V57.4383ZM23.5149 57.0813H29.2014V57.8293H23.5149V57.0813ZM23.6509 61.1018H29.0229V62.9718H24.6539V63.7708H23.6594V62.2918H28.0284V61.8328H23.6509V61.1018ZM23.6594 63.4733H29.2354V64.2128H23.6594V63.4733ZM34.6493 57.9568H36.3068V58.7813H34.6493V57.9568ZM32.4818 56.8603H33.3063V57.6168C33.3063 58.1268 33.2269 58.6056 33.0683 59.0533C32.9096 59.501 32.6688 59.892 32.3458 60.2263C32.0284 60.555 31.6289 60.8043 31.1473 60.9743L30.6118 60.1753C31.0368 60.0336 31.3881 59.8325 31.6658 59.5718C31.9434 59.3055 32.1474 59.0051 32.2778 58.6708C32.4138 58.3308 32.4818 57.9795 32.4818 57.6168V56.8603ZM32.6858 56.8603H33.5018V57.6763C33.5018 57.9256 33.5386 58.1693 33.6123 58.4073C33.6859 58.6453 33.7964 58.8691 33.9438 59.0788C34.0911 59.2885 34.2753 59.4755 34.4963 59.6398C34.7229 59.8041 34.9864 59.9373 35.2868 60.0393L34.7598 60.8298C34.3008 60.6711 33.9154 60.4331 33.6038 60.1158C33.2978 59.7985 33.0683 59.4301 32.9153 59.0108C32.7623 58.5915 32.6858 58.1466 32.6858 57.6763V56.8603ZM31.8613 61.4758H37.1653V64.2808H36.1453V62.2833H31.8613V61.4758ZM36.1453 56.4608H37.1653V61.1018H36.1453V56.4608ZM41.6526 59.4528H42.9531V60.2773H41.6526V59.4528ZM39.8931 58.5773H40.6666V58.8408C40.6666 59.2431 40.6298 59.6398 40.5561 60.0308C40.4881 60.4218 40.3833 60.793 40.2416 61.1443C40.0999 61.49 39.9186 61.8045 39.6976 62.0878C39.4823 62.3655 39.2216 62.595 38.9156 62.7763L38.3461 62.0113C38.6181 61.8526 38.8533 61.6571 39.0516 61.4248C39.2499 61.1868 39.4114 60.9261 39.5361 60.6428C39.6608 60.3595 39.7514 60.0648 39.8081 59.7588C39.8648 59.4528 39.8931 59.1468 39.8931 58.8408V58.5773ZM40.0886 58.5773H40.8536V58.8408C40.8536 59.1355 40.8819 59.433 40.9386 59.7333C41.0009 60.028 41.0944 60.3085 41.2191 60.5748C41.3494 60.8355 41.5109 61.0763 41.7036 61.2973C41.9019 61.5126 42.1371 61.694 42.4091 61.8413L41.8566 62.5893C41.4486 62.374 41.1143 62.0736 40.8536 61.6883C40.5929 61.2973 40.4003 60.8581 40.2756 60.3708C40.1509 59.8778 40.0886 59.3678 40.0886 58.8408V58.5773ZM38.6181 57.8038H42.1286V58.6198H38.6181V57.8038ZM39.8931 56.7243H40.8621V58.4583H39.8931V56.7243ZM44.1941 56.4523H45.1546V64.2723H44.1941V56.4523ZM42.6216 56.5968H43.5651V63.9068H42.6216V56.5968ZM47.1004 57.1663H52.0304V57.9823H47.1004V57.1663ZM46.2929 62.4788H53.3564V63.3118H46.2929V62.4788ZM51.6054 57.1663H52.5999V58.0928C52.5999 58.4725 52.5943 58.855 52.5829 59.2403C52.5773 59.6256 52.5489 60.0393 52.4979 60.4813C52.4526 60.9233 52.3704 61.4248 52.2514 61.9858L51.2484 61.8923C51.3674 61.371 51.4524 60.895 51.5034 60.4643C51.5544 60.028 51.5828 59.6171 51.5884 59.2318C51.5998 58.8408 51.6054 58.4611 51.6054 58.0928V57.1663ZM51.8264 59.3168V60.0648L47.0069 60.3113L46.8794 59.4953L51.8264 59.3168Z" fill="#222222"/>
<path d="M44.569 10.2002C45.7773 10.5221 46.2895 10.6629 46.7541 11.8813L46.7716 11.9235C47.2045 12.3178 47.417 12.6443 47.5681 13.2303C47.9015 13.8995 48.035 14.2878 48.2739 15.003C49.3413 15.0008 49.8266 15.0285 50.9113 15.1899C51.8705 15.2426 53.1939 15.2853 54.0459 15.7637C56.4131 17.0478 56.3316 20.1286 56.3838 22.4708C56.382 23.0591 56.3825 23.6314 56.3531 24.2201L56.7638 36.7972C56.8236 38.6138 56.9746 40.3658 56.9384 42.1893C57.1408 47.4098 54.496 48.5662 49.8419 48.8587C45.5717 49.1273 41.2928 49.3999 37.0154 49.6276C33.2026 49.8306 29.3266 50.3574 25.5069 50.0625C23.1371 49.8704 21.3472 48.0798 20.8733 45.7925C20.2192 42.6351 20.1683 39.3133 19.9115 36.1007C19.6311 32.5942 19.3053 29.0903 19.0617 25.5838C18.9715 23.1375 17.7627 18.2324 20.3303 16.7059L20.3203 17.0923C20.61 16.947 21.1033 16.5541 21.3822 16.346C21.4032 16.515 21.4281 16.6523 21.4251 16.823L21.5758 17.3331C21.6903 16.7728 21.7876 16.7601 22.2525 16.4935C22.5517 16.3836 23.1312 16.2669 23.4614 16.1898C23.0801 15.9703 22.7611 15.9607 22.3309 15.9033C24.1154 15.3348 25.7679 15.4293 27.3619 15.0205C26.7808 13.3871 27.0085 11.8895 28.4555 10.871C29.4516 10.3601 30.312 10.1863 31.3181 10.7266C32.5897 11.7609 33.0438 12.7034 33.5829 14.2179L33.6373 14.675C36.3706 14.4746 39.2394 14.3836 41.9965 14.2249C41.7825 13.3687 41.868 12.4307 42.2972 11.6515C42.4841 11.2619 42.7803 11.0207 43.0915 10.7144C43.6476 10.4871 43.9879 10.3426 44.569 10.2002Z" fill="#FDF5E6"/>
<path d="M44.569 10.2002C45.7773 10.5221 46.2895 10.6629 46.7541 11.8813L46.7716 11.9235C47.2045 12.3178 47.417 12.6443 47.5681 13.2303C47.9015 13.8995 48.035 14.2878 48.2739 15.003C49.3413 15.0008 49.8266 15.0285 50.9113 15.1899C51.8706 15.2426 53.1939 15.2853 54.0459 15.7637C56.4131 17.0478 56.3316 20.1286 56.3838 22.4708C56.382 23.0591 56.3825 23.6314 56.3531 24.2201C55.1435 24.6033 52.7902 24.663 51.4774 24.7669C47.9323 25.0476 44.3663 25.0877 40.8193 25.2885L29.4266 25.9147C27.006 26.065 24.0255 26.3515 21.6526 26.3318C20.3167 25.7884 20.4895 26.5119 19.0617 25.5838C18.9715 23.1375 17.7627 18.2324 20.3303 16.7059L20.3203 17.0923C20.61 16.947 21.1033 16.5541 21.3822 16.346C21.4032 16.515 21.4281 16.6523 21.4251 16.823L21.5758 17.3331C21.6903 16.7728 21.7876 16.7601 22.2525 16.4935C22.5517 16.3836 23.1312 16.2669 23.4614 16.1898C23.0801 15.9703 22.7611 15.9607 22.3309 15.9033C24.1154 15.3348 25.7679 15.4293 27.3619 15.0205C26.7808 13.3871 27.0085 11.8895 28.4555 10.871C29.4516 10.3601 30.312 10.1863 31.3181 10.7266C32.5897 11.7609 33.0438 12.7034 33.5829 14.2179L33.6373 14.675C36.3706 14.4746 39.2394 14.3836 41.9965 14.2249C41.7825 13.3687 41.868 12.4307 42.2972 11.6515C42.4841 11.2619 42.7803 11.0207 43.0915 10.7144C43.6476 10.4871 43.9879 10.3426 44.569 10.2002Z" fill="#FED63A"/>
<path d="M19.0617 25.584C18.9715 23.1377 17.7627 18.2326 20.3303 16.7061L20.3203 17.0925C20.61 16.9472 21.1033 16.5543 21.3822 16.3462C21.4032 16.5152 21.4281 16.6525 21.4251 16.8232L21.5758 17.3333C21.5905 17.9697 21.4076 18.685 21.4509 19.2857C21.5384 20.4979 21.7881 21.7342 21.9517 22.9424C21.8727 23.3797 21.8794 23.7333 22.1296 24.0932C22.5585 24.2823 23.2823 24.2512 23.7608 24.2257C33.7554 23.6957 43.7223 23.0209 53.7337 22.838C54.5495 22.823 55.5759 22.6188 56.3838 22.471C56.382 23.0593 56.3825 23.6316 56.3531 24.2203C55.1435 24.6035 52.7902 24.6632 51.4774 24.7671C47.9323 25.0478 44.3663 25.0879 40.8193 25.2887L29.4266 25.9149C27.006 26.0652 24.0255 26.3517 21.6526 26.332C20.3167 25.7886 20.4895 26.5121 19.0617 25.584Z" fill="#FDB706"/>
<path d="M19.0617 25.584C18.9715 23.1377 17.7627 18.2326 20.3303 16.7061L20.3203 17.0925C20.61 16.9472 21.1033 16.5543 21.3822 16.3462C21.4032 16.5152 21.4281 16.6525 21.4251 16.8232C21.0171 20.2844 21.8043 22.9315 21.6526 26.332C20.3167 25.7886 20.4895 26.5121 19.0617 25.584Z" fill="#FBBB0D"/>
<path d="M28.4563 10.8707C29.4524 10.3599 30.3128 10.1861 31.319 10.7264C32.5906 11.7607 33.0446 12.7032 33.5837 14.2177L33.6381 14.6747C33.6259 14.9206 33.5799 14.8808 33.6764 15.0256L33.77 15.9267C33.7359 17.1256 33.9017 19.55 32.4742 19.8863C29.5602 20.9194 29.4763 17.7892 28.2604 16.3438L27.887 15.8507C27.7197 15.4471 27.6875 15.3234 27.3627 15.0203C26.7816 13.3869 27.0093 11.8893 28.4563 10.8707Z" fill="#FDB706"/>
<path d="M27.3627 15.0206C26.7816 13.3873 27.0093 11.8897 28.4563 10.8711C28.2838 11.6371 28.2762 12.2618 28.7964 12.9048C29.7627 14.0994 29.945 16.1815 30.1244 17.7064C30.4609 20.5653 31.3829 19.1021 32.4742 19.8867C29.5602 20.9197 29.4763 17.7896 28.2604 16.3441L27.887 15.851C27.7197 15.4474 27.6875 15.3238 27.3627 15.0206Z" fill="#EF9600"/>
<path d="M29.5523 11.5288C30.73 11.0495 30.975 11.3045 31.8102 12.193C31.5871 12.9043 31.5329 13.173 31.8296 13.9078C31.7408 14.3698 31.725 14.7435 31.4233 15.0846C31.0057 15.3008 30.678 15.1817 30.1638 15.1665C30.0606 14.4703 29.2466 11.7706 29.3058 11.5694L29.5523 11.5288Z" fill="#FEF4A2"/>
<path d="M31.8299 13.9076C31.5332 13.1728 31.5874 12.9041 31.8105 12.1929C32.48 13.0858 32.6049 13.5894 33.1377 14.4154L33.1707 14.6195C33.0052 15.2263 32.3625 15.4384 32.0465 16.131C31.8517 16.5578 31.805 16.7938 31.6816 17.2342L30.4308 17.5146L30.4584 17.1842C30.3463 16.5137 30.2482 15.8409 30.1641 15.1664C30.6783 15.1816 31.006 15.3007 31.4236 15.0845C31.7253 14.7434 31.7411 14.3697 31.8299 13.9076Z" fill="#FEDE52"/>
<path d="M33.1706 14.6196C33.3654 15.3896 33.3066 17.6986 33.0032 18.4356C32.603 18.6861 32.2962 18.3442 32.1604 18.4087C31.3426 18.7973 31.7207 19.1471 30.5406 19.1582C30.4923 18.6662 30.4041 17.9889 30.4307 17.5147L31.6815 17.2344C31.8049 16.7939 31.8515 16.5579 32.0463 16.1311C32.3623 15.4385 33.005 15.2265 33.1706 14.6196Z" fill="#FED63A"/>
<path d="M31.3188 10.7266C32.5904 11.7608 33.0444 12.7033 33.5835 14.2178L33.3098 14.2276L33.1378 14.4155C32.605 13.5895 32.4801 13.0858 31.8106 12.1929C30.9754 11.3044 30.7304 11.0494 29.5527 11.5287C30.1637 10.823 30.3555 11.0757 31.3188 10.7266Z" fill="#EF9F27"/>
<path d="M44.5681 10.2002C45.7764 10.5221 46.2886 10.6629 46.7531 11.8813L46.7707 11.9235C47.2036 12.3178 47.4161 12.6443 47.5672 13.2303C47.9006 13.8995 48.0341 14.2878 48.2729 15.003C49.3404 15.0008 49.8256 15.0285 50.9104 15.1899L50.7815 15.2078C49.7917 15.3394 48.7487 14.9881 48.2594 15.5544L48.236 16.1599C48.3992 18.5733 47.6593 20.4497 45.0262 18.9795C44.5354 18.3216 43.7247 16.6383 43.6272 15.8105C43.3786 15.2063 43.2534 15.071 42.7264 14.7538L41.9955 14.2249C41.7815 13.3687 41.8671 12.4307 42.2963 11.6515C42.4831 11.2619 42.7794 11.0207 43.0905 10.7144C43.6467 10.4871 43.987 10.3426 44.5681 10.2002Z" fill="#FBBB0D"/>
<path d="M44.5693 10.2002C45.7776 10.5221 46.2899 10.6629 46.7544 11.8813L46.7719 11.9235C47.2049 12.3178 47.4173 12.6443 47.5684 13.2303C47.6053 13.4521 47.7234 14.0693 47.7287 14.2608C47.8758 14.8565 47.8675 15.0074 47.8614 15.6233C46.7287 15.9142 47.2124 16.9875 46.1468 17.4214C45.4349 17.4213 45.2985 17.0942 44.9646 16.545C44.8832 15.6637 44.8913 14.7436 44.881 13.8564L44.7768 13.598C44.4512 13.1979 43.9269 11.6264 43.4645 11.1975C43.2892 11.0348 43.2561 10.9761 43.1281 10.7733L43.0918 10.7144C43.6479 10.4871 43.9882 10.3426 44.5693 10.2002Z" fill="#FEDE52"/>
<path d="M44.5693 10.2002C45.7776 10.5221 46.2899 10.6629 46.7544 11.8813L45.9865 11.2678C46.1915 11.9956 45.9294 13.7746 45.2356 14.2073L45.1094 14.1482L44.881 13.8564L44.7768 13.598C44.4512 13.1979 43.9269 11.6264 43.4645 11.1975C43.2892 11.0348 43.2561 10.9761 43.1281 10.7733L43.0918 10.7144C43.6479 10.4871 43.9882 10.3426 44.5693 10.2002Z" fill="#FEF4A2"/>
<path d="M44.5693 10.2002C45.7776 10.5221 46.2899 10.6629 46.7544 11.8813L45.9865 11.2678C45.381 11.0263 45.1049 11.1662 44.4819 11.3431L44.3372 11.4754C44.4826 12.0365 44.6216 12.5992 44.7544 13.1635L44.7768 13.598C44.4512 13.1979 43.9269 11.6264 43.4645 11.1975C43.2892 11.0348 43.2561 10.9761 43.1281 10.7733L43.0918 10.7144C43.6479 10.4871 43.9882 10.3426 44.5693 10.2002Z" fill="#FED63A"/>
<path d="M45.9859 11.2681L46.7538 11.8816L46.7713 11.9237C47.3406 14.0282 47.0385 13.3267 46.9455 15.2747C46.5369 15.6466 45.057 15.3467 45.1087 14.1484L45.2349 14.2076C45.9287 13.7748 46.1909 11.9958 45.9859 11.2681Z" fill="#FEEC8B"/>
<path d="M42.2963 11.6519C42.8843 12.4944 44.3545 14.8331 43.6272 15.8109C43.3786 15.2067 43.2534 15.0714 42.7264 14.7542L41.9955 14.2253C41.7815 13.3691 41.8671 12.4311 42.2963 11.6519Z" fill="#EF9600"/>
<path d="M44.9648 16.5452C45.2987 17.0944 45.4351 17.4215 46.147 17.4217C47.2126 16.9878 46.7289 15.9144 47.8616 15.6235C47.8923 16.3133 48.0196 17.0326 47.5982 17.5726C46.4437 17.6287 45.8432 18.5363 45.0667 17.3477C45.0245 17.1861 44.9861 16.7341 44.9648 16.5452Z" fill="#FED63A"/>
<path d="M45.0662 17.3477C45.8426 18.5363 46.4431 17.6287 47.5977 17.5726C47.5023 17.8119 47.4083 18.0238 47.259 18.2363C47.0288 18.5654 46.6707 18.7815 46.273 18.8311C45.3109 18.9435 45.1232 18.0675 45.0662 17.3477Z" fill="#EF9F27"/>
<path d="M41.9961 14.2251L42.7269 14.754L42.6387 14.81L42.8151 15.4602L42.7309 15.5999C41.2187 15.4986 35.321 15.6859 33.7688 15.9271L33.6751 15.026C33.5787 14.8813 33.6247 14.921 33.6369 14.6752C36.3702 14.4748 39.239 14.3838 41.9961 14.2251Z" fill="#FEF4A2"/>
<path d="M41.9961 14.2251L42.7269 14.754L42.6387 14.81C39.6502 14.8511 36.6622 14.9231 33.6751 15.026C33.5787 14.8813 33.6247 14.921 33.6369 14.6752C36.3702 14.4748 39.239 14.3838 41.9961 14.2251Z" fill="#EF9F27"/>
<path d="M27.3613 15.0205C27.6861 15.3236 27.7183 15.4473 27.8856 15.8509L28.259 16.344C27.9085 16.4617 24.1556 16.7942 23.2382 16.9583C22.6073 16.9131 22.5604 17.0082 22.252 16.4935C22.5512 16.3837 23.1306 16.2669 23.4608 16.1898C23.0795 15.9703 22.7605 15.9607 22.3303 15.9033C24.1149 15.3348 25.7673 15.4294 27.3613 15.0205Z" fill="#FEF4A2"/>
<path d="M27.3611 15.0205C27.6859 15.3236 27.7181 15.4473 27.8854 15.8509C26.1839 15.788 24.7154 16.1892 23.4606 16.1898C23.0793 15.9703 22.7603 15.9607 22.3301 15.9033C24.1146 15.3348 25.7671 15.4294 27.3611 15.0205Z" fill="#EF9F27"/>
<path d="M50.9107 15.1899C51.8699 15.2427 53.1933 15.2853 54.0453 15.7638L54.2806 16.3052L54.197 16.478C51.9026 16.0584 50.6206 15.9036 48.313 16.1511L48.2363 16.1599L48.2598 15.5545C48.749 14.9881 49.792 15.3395 50.7818 15.2079L50.9107 15.1899Z" fill="#FEEC8B"/>
<path d="M21.5749 17.3332C21.6894 16.7729 21.7867 16.7602 22.2516 16.4937C22.5601 17.0083 22.6069 16.9132 23.2379 16.9584C22.4959 17.168 22.7512 17.0042 22.3235 17.5534C21.5626 18.5305 22.3154 22.5195 22.1527 22.8827L21.9508 22.9423C21.7872 21.7341 21.5375 20.4978 21.45 19.2856C21.4067 18.6849 21.5896 17.9696 21.5749 17.3332Z" fill="#FEEC8B"/>
<path d="M19.0625 25.584C20.4903 26.512 20.3175 25.7885 21.6534 26.332L22.6225 37.8333C22.8499 40.4906 22.6357 44.8246 24.7881 46.6486C25.682 47.4061 26.7966 48.0752 27.9642 48.2672C32.5181 48.4979 37.1225 47.8149 41.6695 47.5238C44.7757 47.3249 47.8848 47.2355 50.9869 46.9897C54.5293 46.7091 56.1718 45.7848 56.9392 42.1895C57.1416 47.41 54.4968 48.5663 49.8428 48.8589C45.5725 49.1275 41.2937 49.4001 37.0162 49.6278C33.2034 49.8308 29.3274 50.3576 25.5077 50.0626C23.1379 49.8706 21.348 48.0799 20.8742 45.7927C20.22 42.6353 20.1691 39.3134 19.9123 36.1009C19.6319 32.5944 19.3061 29.0904 19.0625 25.584Z" fill="#D2BCA7"/>
<path d="M45.406 29.2512C46.3197 29.7111 46.9834 30.6668 47.5081 31.5056C47.4089 31.8403 47.3014 32.1702 47.1148 32.4674C46.2877 33.7847 39.5202 41.6018 38.4341 41.7633C37.0014 41.9763 34.7861 39.4084 33.7663 38.5255C32.8686 37.6741 32.1221 36.9572 31.2949 36.0413C31.3595 35.932 31.4278 35.8249 31.4997 35.7201C34.3675 31.5816 35.3016 34.6374 38.025 36.8383C40.0599 34.9529 43.2905 30.4853 45.406 29.2512Z" fill="#EF9F27"/>
<path d="M21.3828 16.346C21.6699 16.0527 21.9379 15.943 22.3315 15.9033C22.7618 15.9607 23.0807 15.9703 23.4621 16.1898C23.1319 16.2669 22.5524 16.3837 22.2532 16.4935C21.7883 16.7601 21.691 16.7728 21.5764 17.3331L21.4258 16.823C21.4287 16.6524 21.4039 16.515 21.3828 16.346Z" fill="#FBBB0D"/>
<rect x="0.425" y="0.425" width="81.6" height="75.65" rx="9.575" fill="white"/>
<rect x="0.425" y="0.425" width="81.6" height="75.65" rx="9.575" stroke="#FAEFDF" stroke-width="0.85"/>
<path d="M29.2528 60.4135H30.2643V61.5525H29.2528V60.4135ZM26.2438 59.8185H33.2818V60.5665H26.2438V59.8185ZM29.2528 56.4355H30.2643V57.379H29.2528V56.4355ZM29.1933 57.4385H30.0858V57.583C30.0858 57.872 30.0122 58.1327 29.8648 58.365C29.7175 58.5974 29.5022 58.7985 29.2188 58.9685C28.9355 59.1385 28.5927 59.2745 28.1903 59.3765C27.788 59.4785 27.3318 59.5465 26.8218 59.5805L26.5328 58.824C26.9862 58.807 27.3772 58.7617 27.7058 58.688C28.0402 58.6144 28.3178 58.5237 28.5388 58.416C28.7598 58.3027 28.9242 58.1752 29.0318 58.0335C29.1395 57.8919 29.1933 57.7417 29.1933 57.583V57.4385ZM29.4313 57.4385H30.3153V57.583C30.3153 57.7417 30.3692 57.8919 30.4768 58.0335C30.5845 58.1752 30.7488 58.3027 30.9698 58.416C31.1908 58.5237 31.4685 58.6144 31.8028 58.688C32.1372 58.7617 32.5282 58.807 32.9758 58.824L32.6953 59.5805C32.1853 59.5465 31.7263 59.4785 31.3183 59.3765C30.916 59.2745 30.5732 59.1385 30.2898 58.9685C30.0122 58.7985 29.7997 58.5974 29.6523 58.365C29.505 58.1327 29.4313 57.872 29.4313 57.583V57.4385ZM26.9153 57.0815H32.6018V57.8295H26.9153V57.0815ZM27.0513 61.102H32.4233V62.972H28.0543V63.771H27.0598V62.292H31.4288V61.833H27.0513V61.102ZM27.0598 63.4735H32.6358V64.213H27.0598V63.4735ZM38.0497 57.957H39.7072V58.7815H38.0497V57.957ZM35.8822 56.8605H36.7067V57.617C36.7067 58.127 36.6273 58.6059 36.4687 59.0535C36.31 59.5012 36.0692 59.8922 35.7462 60.2265C35.4288 60.5552 35.0293 60.8045 34.5477 60.9745L34.0122 60.1755C34.4372 60.0339 34.7885 59.8327 35.0662 59.572C35.3438 59.3057 35.5478 59.0054 35.6782 58.671C35.8142 58.331 35.8822 57.9797 35.8822 57.617V56.8605ZM36.0862 56.8605H36.9022V57.6765C36.9022 57.9259 36.939 58.1695 37.0127 58.4075C37.0863 58.6455 37.1968 58.8694 37.3442 59.079C37.4915 59.2887 37.6757 59.4757 37.8967 59.64C38.1233 59.8044 38.3868 59.9375 38.6872 60.0395L38.1602 60.83C37.7012 60.6714 37.3158 60.4334 37.0042 60.116C36.6982 59.7987 36.4687 59.4304 36.3157 59.011C36.1627 58.5917 36.0862 58.1469 36.0862 57.6765V56.8605ZM35.2617 61.476H40.5657V64.281H39.5457V62.2835H35.2617V61.476ZM39.5457 56.461H40.5657V61.102H39.5457V56.461ZM45.053 59.453H46.3535V60.2775H45.053V59.453ZM43.2935 58.5775H44.067V58.841C44.067 59.2434 44.0302 59.64 43.9565 60.031C43.8885 60.422 43.7837 60.7932 43.642 61.1445C43.5003 61.4902 43.319 61.8047 43.098 62.088C42.8827 62.3657 42.622 62.5952 42.316 62.7765L41.7465 62.0115C42.0185 61.8529 42.2537 61.6574 42.452 61.425C42.6503 61.187 42.8118 60.9264 42.9365 60.643C43.0612 60.3597 43.1518 60.065 43.2085 59.759C43.2652 59.453 43.2935 59.147 43.2935 58.841V58.5775ZM43.489 58.5775H44.254V58.841C44.254 59.1357 44.2823 59.4332 44.339 59.7335C44.4013 60.0282 44.4948 60.3087 44.6195 60.575C44.7498 60.8357 44.9113 61.0765 45.104 61.2975C45.3023 61.5129 45.5375 61.6942 45.8095 61.8415L45.257 62.5895C44.849 62.3742 44.5147 62.0739 44.254 61.6885C43.9933 61.2975 43.8007 60.8584 43.676 60.371C43.5513 59.878 43.489 59.368 43.489 58.841V58.5775ZM42.0185 57.804H45.529V58.62H42.0185V57.804ZM43.2935 56.7245H44.2625V58.4585H43.2935V56.7245ZM47.5945 56.4525H48.555V64.2725H47.5945V56.4525ZM46.022 56.597H46.9655V63.907H46.022V56.597ZM50.5008 57.1665H55.4308V57.9825H50.5008V57.1665ZM49.6933 62.479H56.7568V63.312H49.6933V62.479ZM55.0058 57.1665H56.0003V58.093C56.0003 58.4727 55.9947 58.8552 55.9833 59.2405C55.9777 59.6259 55.9493 60.0395 55.8983 60.4815C55.853 60.9235 55.7708 61.425 55.6518 61.986L54.6488 61.8925C54.7678 61.3712 54.8528 60.8952 54.9038 60.4645C54.9548 60.0282 54.9832 59.6174 54.9888 59.232C55.0002 58.841 55.0058 58.4614 55.0058 58.093V57.1665ZM55.2268 59.317V60.065L50.4073 60.3115L50.2798 59.4955L55.2268 59.317Z" fill="#222222"/>
<path d="M47.7007 9C48.9011 9.3223 49.41 9.46323 49.8715 10.6832L49.8889 10.7255C50.319 11.1203 50.5301 11.4471 50.6802 12.0339C51.0114 12.704 51.1441 13.0928 51.3814 13.8089C52.4418 13.8066 52.9239 13.8343 54.0015 13.9959C54.9545 14.0487 56.2692 14.0914 57.1157 14.5705C59.4674 15.8561 59.3864 18.9408 59.4382 21.2859C59.4365 21.875 59.437 22.448 59.4078 23.0374L59.8158 35.6303C59.8752 37.4491 60.0252 39.2034 59.9892 41.0292C60.1903 46.2562 57.5628 47.414 52.9392 47.7069C48.6969 47.9758 44.4459 48.2488 40.1965 48.4768C36.4086 48.68 32.5579 49.2075 28.7632 48.9122C26.4089 48.7198 24.6307 46.927 24.1599 44.6368C23.51 41.4755 23.4595 38.1495 23.2043 34.9329C22.9258 31.4221 22.6021 27.9137 22.3601 24.4029C22.2705 21.9535 21.0696 17.0422 23.6205 15.5138L23.6105 15.9007C23.8983 15.7553 24.3884 15.3619 24.6654 15.1535C24.6863 15.3227 24.711 15.4602 24.7081 15.6311L24.8578 16.1418C24.9716 15.5808 25.0682 15.5681 25.5301 15.3012C25.8273 15.1912 26.403 15.0743 26.7311 14.9971C26.3522 14.7773 26.0353 14.7677 25.6079 14.7102C27.3808 14.141 29.0225 14.2357 30.6061 13.8263C30.0287 12.1909 30.255 10.6914 31.6925 9.6716C32.6821 9.16008 33.5369 8.98609 34.5364 9.5271C35.7997 10.5626 36.2508 11.5064 36.7864 13.0227L36.8405 13.4804C39.5559 13.2797 42.4059 13.1886 45.145 13.0297C44.9324 12.1725 45.0174 11.2333 45.4437 10.4531C45.6294 10.063 45.9237 9.82157 46.2328 9.51485C46.7853 9.28722 47.1234 9.1426 47.7007 9Z" fill="#FDF5E6"/>
<path d="M47.7007 9C48.9011 9.3223 49.41 9.46323 49.8715 10.6832L49.8889 10.7255C50.319 11.1203 50.5301 11.4471 50.6802 12.0339C51.0114 12.704 51.1441 13.0928 51.3814 13.8089C52.4418 13.8066 52.9239 13.8343 54.0015 13.9959C54.9545 14.0487 56.2692 14.0914 57.1157 14.5705C59.4674 15.8561 59.3864 18.9408 59.4383 21.2859C59.4365 21.875 59.437 22.448 59.4078 23.0374C58.2061 23.4211 55.8681 23.4809 54.5639 23.585C51.042 23.866 47.4993 23.9061 43.9755 24.1072L32.6573 24.7342C30.2525 24.8847 27.2915 25.1715 24.9341 25.1518C23.6069 24.6077 23.7786 25.3321 22.3601 24.4029C22.2705 21.9535 21.0696 17.0422 23.6205 15.5138L23.6105 15.9007C23.8983 15.7553 24.3884 15.3619 24.6654 15.1535C24.6863 15.3227 24.711 15.4602 24.7081 15.6311L24.8578 16.1418C24.9716 15.5808 25.0682 15.5681 25.5301 15.3012C25.8273 15.1912 26.403 15.0743 26.7311 14.9971C26.3522 14.7773 26.0353 14.7677 25.6079 14.7102C27.3808 14.141 29.0225 14.2357 30.6061 13.8263C30.0287 12.1909 30.255 10.6914 31.6925 9.6716C32.6821 9.16008 33.5369 8.98609 34.5365 9.5271C35.7997 10.5626 36.2508 11.5064 36.7864 13.0227L36.8405 13.4804C39.5559 13.2797 42.4059 13.1886 45.145 13.0297C44.9324 12.1725 45.0174 11.2333 45.4437 10.4531C45.6294 10.063 45.9237 9.82157 46.2328 9.51485C46.7853 9.28722 47.1234 9.1426 47.7007 9Z" fill="#FED63A"/>
<path d="M22.3601 24.4029C22.2705 21.9536 21.0696 17.0423 23.6205 15.5139L23.6105 15.9008C23.8983 15.7554 24.3884 15.3619 24.6654 15.1536C24.6863 15.3228 24.711 15.4603 24.7081 15.6312L24.8578 16.1419C24.8723 16.7791 24.6907 17.4953 24.7337 18.0968C24.8206 19.3104 25.0687 20.5483 25.2312 21.758C25.1528 22.1958 25.1594 22.5499 25.4079 22.9102C25.834 23.0996 26.5532 23.0684 27.0285 23.043C36.9578 22.5123 46.8595 21.8367 56.8055 21.6535C57.616 21.6385 58.6356 21.4341 59.4383 21.286C59.4365 21.8751 59.437 22.4481 59.4078 23.0375C58.2061 23.4212 55.8681 23.481 54.5639 23.5851C51.042 23.8661 47.4993 23.9062 43.9755 24.1073L32.6573 24.7343C30.2525 24.8847 27.2915 25.1716 24.9341 25.1519C23.6069 24.6077 23.7786 25.3322 22.3601 24.4029Z" fill="#FDB706"/>
<path d="M22.3601 24.4029C22.2705 21.9536 21.0696 17.0423 23.6205 15.5139C23.9083 15.3685 24.3884 15.3619 24.6654 15.1536C24.6863 15.3228 24.711 15.4603 24.7081 15.6312C24.3028 19.0967 25.0848 21.7471 24.9341 25.1519C23.6069 24.6077 23.7786 25.3322 22.3601 24.4029Z" fill="#FBBB0D"/>
<path d="M31.6933 9.67163C32.6829 9.16011 33.5377 8.98611 34.5373 9.52713C35.8006 10.5627 36.2516 11.5064 36.7872 13.0227L36.8413 13.4804C36.8292 13.7266 36.7834 13.6867 36.8792 13.8317L36.9723 14.7339C36.9384 15.9343 37.1031 18.3618 35.685 18.6985C32.79 19.7328 32.7066 16.5988 31.4987 15.1515L31.1278 14.6578C30.9615 14.2537 30.9295 14.1299 30.6069 13.8264C30.0296 12.1909 30.2558 10.6915 31.6933 9.67163Z" fill="#FDB706"/>
<path d="M30.6069 13.8261C30.0296 12.1907 30.2558 10.6912 31.6933 9.67139C31.5219 10.4384 31.5144 11.0638 32.0311 11.7076C32.9912 12.9037 33.1723 14.9884 33.3505 16.5153C33.6848 19.3777 34.6008 17.9127 35.685 18.6982C32.79 19.7326 32.7066 16.5985 31.4987 15.1512L31.1278 14.6576C30.9615 14.2534 30.9295 14.1296 30.6069 13.8261Z" fill="#EF9600"/>
<path d="M32.7812 10.3303C33.9511 9.85046 34.1945 10.1058 35.0243 10.9954C34.8026 11.7076 34.7488 11.9766 35.0436 12.7123C34.9554 13.1749 34.9396 13.5491 34.6399 13.8907C34.2251 14.1071 33.8995 13.9878 33.3886 13.9726C33.2861 13.2756 32.4775 10.5725 32.5363 10.371L32.7812 10.3303Z" fill="#FEF4A2"/>
<path d="M35.0436 12.712C34.7489 11.9763 34.8027 11.7073 35.0243 10.9951C35.6895 11.8891 35.8135 12.3934 36.3429 13.2204L36.3757 13.4248C36.2112 14.0324 35.5727 14.2447 35.2588 14.9382C35.0653 15.3655 35.0189 15.6018 34.8963 16.0428L33.6537 16.3235L33.6811 15.9927C33.5697 15.3214 33.4723 14.6477 33.3887 13.9723C33.8996 13.9875 34.2251 14.1068 34.64 13.8904C34.9397 13.5488 34.9554 13.1746 35.0436 12.712Z" fill="#FEDE52"/>
<path d="M36.3773 13.4248C36.5708 14.1957 36.5124 16.5076 36.211 17.2456C35.8133 17.4964 35.5086 17.154 35.3737 17.2186C34.5612 17.6077 34.9369 17.958 33.7645 17.969C33.7165 17.4764 33.6288 16.7983 33.6553 16.3235L34.8979 16.0428C35.0205 15.6018 35.0668 15.3655 35.2604 14.9382C35.5743 14.2447 36.2128 14.0324 36.3773 13.4248Z" fill="#FED63A"/>
<path d="M34.5358 9.52686C35.7991 10.5624 36.2501 11.5061 36.7857 13.0225L36.5137 13.0322L36.3429 13.2204C35.8135 12.3933 35.6895 11.8891 35.0243 10.9951C34.1946 10.1055 33.9512 9.85011 32.7812 10.33C33.3882 9.62343 33.5788 9.87639 34.5358 9.52686Z" fill="#EF9F27"/>
<path d="M47.7008 9C48.9012 9.3223 49.4101 9.46323 49.8716 10.6832L49.889 10.7255C50.3191 11.1203 50.5302 11.4471 50.6803 12.0339C51.0115 12.704 51.1442 13.0928 51.3814 13.8089C52.4419 13.8066 52.924 13.8343 54.0016 13.9959L53.8736 14.0139C52.8902 14.1457 51.8541 13.7939 51.368 14.3609L51.3448 14.9671C51.5069 17.3836 50.7718 19.2623 48.156 17.7903C47.6683 17.1315 46.8629 15.4462 46.766 14.6173C46.5191 14.0123 46.3947 13.8769 45.8711 13.5593L45.1451 13.0297C44.9325 12.1725 45.0175 11.2333 45.4438 10.4531C45.6295 10.063 45.9238 9.82157 46.2329 9.51485C46.7854 9.28722 47.1235 9.1426 47.7008 9Z" fill="#FBBB0D"/>
<path d="M47.7003 9C48.9007 9.3223 49.4096 9.46323 49.8711 10.6832L49.8885 10.7254C50.3186 11.1203 50.5297 11.4471 50.6798 12.0339C50.7164 12.256 50.8337 12.8739 50.839 13.0657C50.9852 13.6621 50.9769 13.8133 50.9708 14.4299C49.8456 14.7212 50.3261 15.7958 49.2674 16.2303C48.5602 16.2302 48.4247 15.9026 48.093 15.3527C48.0121 14.4703 48.0201 13.5491 48.0099 12.6608L47.9064 12.402C47.583 12.0015 47.0621 10.428 46.6027 9.99854C46.4285 9.83561 46.3956 9.77685 46.2685 9.57384L46.2324 9.51485C46.7849 9.28722 47.123 9.1426 47.7003 9Z" fill="#FEDE52"/>
<path d="M47.7003 9C48.9007 9.3223 49.4096 9.46323 49.8711 10.6832L49.1082 10.069C49.3119 10.7976 49.0514 12.5789 48.3622 13.0121L48.2368 12.9529L48.0099 12.6608L47.9064 12.402C47.583 12.0015 47.0621 10.428 46.6027 9.99854C46.4285 9.83561 46.3956 9.77685 46.2685 9.57384L46.2324 9.51485C46.7849 9.28722 47.123 9.1426 47.7003 9Z" fill="#FEF4A2"/>
<path d="M47.7003 9C48.9007 9.3223 49.4096 9.46323 49.8711 10.6832L49.1082 10.069C48.5067 9.82717 48.2324 9.96726 47.6134 10.1444L47.4697 10.2768C47.6141 10.8386 47.7523 11.402 47.8842 11.967L47.9064 12.402C47.583 12.0015 47.0621 10.428 46.6027 9.99854C46.4285 9.83561 46.3956 9.77685 46.2685 9.57384L46.2324 9.51485C46.7849 9.28722 47.123 9.1426 47.7003 9Z" fill="#FED63A"/>
<path d="M49.109 10.0688L49.8719 10.6831L49.8893 10.7253C50.4549 12.8324 50.1548 12.13 50.0624 14.0805C49.6565 14.4529 48.1863 14.1526 48.2376 12.9528L48.363 13.012C49.0522 12.5788 49.3127 10.7975 49.109 10.0688Z" fill="#FEEC8B"/>
<path d="M45.4438 10.4531C46.028 11.2967 47.4886 13.6383 46.766 14.6174C46.5191 14.0124 46.3947 13.8769 45.8711 13.5594L45.1451 13.0298C44.9325 12.1725 45.0175 11.2333 45.4438 10.4531Z" fill="#EF9600"/>
<path d="M48.0938 15.3525C48.4254 15.9024 48.5609 16.2299 49.2681 16.2301C50.3268 15.7956 49.8463 14.7209 50.9715 14.4297C51.0021 15.1203 51.1285 15.8406 50.7099 16.3812C49.5629 16.4374 48.9663 17.3461 48.195 16.156C48.153 15.9942 48.1149 15.5417 48.0938 15.3525Z" fill="#FED63A"/>
<path d="M48.1953 16.1562C48.9666 17.3464 49.5633 16.4376 50.7103 16.3815C50.6155 16.621 50.5221 16.8332 50.3739 17.046C50.1452 17.3755 49.7894 17.5919 49.3943 17.6416C48.4385 17.7541 48.252 16.877 48.1953 16.1562Z" fill="#EF9F27"/>
<path d="M45.1444 13.0298L45.8705 13.5594L45.7829 13.6154L45.9581 14.2664L45.8745 14.4063C44.3721 14.3048 38.513 14.4924 36.9709 14.7339L36.8779 13.8317C36.782 13.6868 36.8278 13.7266 36.8399 13.4804C39.5553 13.2798 42.4054 13.1887 45.1444 13.0298Z" fill="#FEF4A2"/>
<path d="M45.1444 13.0298L45.8705 13.5594L45.7829 13.6154C42.8138 13.6566 39.8454 13.7286 36.8779 13.8317C36.782 13.6868 36.8278 13.7266 36.8399 13.4804C39.5553 13.2798 42.4054 13.1887 45.1444 13.0298Z" fill="#EF9F27"/>
<path d="M30.6053 13.8262C30.9279 14.1297 30.9599 14.2535 31.1262 14.6576L31.4971 15.1513C31.1489 15.2692 27.4205 15.602 26.5091 15.7664C25.8823 15.7211 25.8357 15.8164 25.5293 15.301C25.8265 15.191 26.4022 15.0741 26.7303 14.9969C26.3514 14.7771 26.0345 14.7675 25.6071 14.7101C27.38 14.1409 29.0217 14.2355 30.6053 13.8262Z" fill="#FEF4A2"/>
<path d="M30.6056 13.8262C30.9282 14.1297 30.9602 14.2535 31.1264 14.6576C29.4361 14.5946 27.9772 14.9963 26.7306 14.9969C26.3517 14.7771 26.0348 14.7675 25.6074 14.7101C27.3803 14.1409 29.022 14.2355 30.6056 13.8262Z" fill="#EF9F27"/>
<path d="M54.0006 13.9961C54.9536 14.0489 56.2683 14.0916 57.1147 14.5706L57.3485 15.1127L57.2655 15.2858C54.9861 14.8656 53.7124 14.7106 51.4199 14.9585L51.3438 14.9673L51.367 14.3611C51.8531 13.794 52.8892 14.1458 53.8726 14.0141L54.0006 13.9961Z" fill="#FEEC8B"/>
<path d="M24.8572 16.1414C24.971 15.5804 25.0677 15.5677 25.5296 15.3008C25.836 15.8161 25.8825 15.7208 26.5094 15.7662C25.7722 15.976 26.0259 15.8119 25.6009 16.3619C24.845 17.3402 25.5929 21.3341 25.4313 21.6978L25.2307 21.7575C25.0682 20.5478 24.8201 19.3099 24.7332 18.0963C24.6901 17.4948 24.8718 16.7786 24.8572 16.1414Z" fill="#FEEC8B"/>
<path d="M22.3594 24.4028C23.7779 25.332 23.6062 24.6076 24.9333 25.1517L25.8961 36.6675C26.122 39.3281 25.9093 43.6675 28.0476 45.4938C28.9356 46.2522 30.0429 46.9222 31.2029 47.1145C35.7271 47.3454 40.3013 46.6616 44.8187 46.3701C47.9045 46.171 50.9933 46.0814 54.0751 45.8354C57.5943 45.5543 59.2261 44.6289 59.9885 41.0291C60.1896 46.2562 57.5621 47.414 52.9385 47.7069C48.6961 47.9758 44.4452 48.2487 40.1957 48.4767C36.4079 48.68 32.5572 49.2074 28.7625 48.9121C26.4082 48.7198 24.63 46.9269 24.1592 44.6368C23.5093 41.4755 23.4588 38.1495 23.2036 34.9329C22.9251 31.422 22.6014 27.9137 22.3594 24.4028Z" fill="#D2BCA7"/>
<path d="M48.5325 28.0747C49.4402 28.5352 50.0996 29.492 50.6209 30.3319C50.5223 30.667 50.4156 30.9973 50.2302 31.2949C49.4085 32.6138 42.6852 40.4408 41.6062 40.6024C40.1828 40.8157 37.9821 38.2446 36.9689 37.3606C36.077 36.5081 35.3354 35.7904 34.5137 34.8733C34.5779 34.7639 34.6457 34.6566 34.7171 34.5517C37.5662 30.408 38.4941 33.4676 41.1998 35.6713C43.2214 33.7835 46.4309 29.3103 48.5325 28.0747Z" fill="#EF9F27"/>
<path d="M24.666 15.1532C24.9513 14.8596 25.2175 14.7497 25.6085 14.71C26.036 14.7674 26.3528 14.777 26.7317 14.9968C26.4036 15.074 25.828 15.1909 25.5307 15.3009C25.0688 15.5678 24.9722 15.5805 24.8584 16.1415L24.7087 15.6308C24.7116 15.4599 24.6869 15.3225 24.666 15.1532Z" fill="#FBBB0D"/>
</svg>
