<svg width="154" height="81" viewBox="0 0 154 81" fill="none" xmlns="http://www.w3.org/2000/svg">
<path d="M54.9703 0.057573C63.9479 -0.536074 71.131 3.51372 77.1192 9.77637C88.3936 -2.06527 105.476 -1.7063 117.25 9.40706C120.706 12.6702 122.628 16.8211 123.859 21.3739C124.344 20.6769 124.824 20.0011 125.371 19.3445C129.327 14.8562 135.473 18.6821 140.682 17.5177C144.271 16.7155 146.798 14.3463 150.139 13.8166C152.718 13.408 154.167 15.7217 153.985 18.1466C153.765 21.0699 151.62 23.2603 149.563 25.198C152.552 27.1759 151.123 30.282 149.139 32.3101C147.562 33.9248 145.791 34.9379 143.789 35.9009L143.836 36.2423C144.493 40.801 139.73 43.1882 135.807 43.1747C135.763 43.2825 135.72 43.3888 135.675 43.4952C134.096 47.2392 130.27 47.2886 127.005 45.8689C125.633 49.243 121.661 47.7094 119.51 46.1399C114.664 55.0461 105.081 62.8636 97.035 69.0037C94.1011 71.2621 91.052 73.3677 87.9026 75.3131C85.1903 76.9664 76.7106 81.9984 73.9138 80.8242C59.5681 74.7964 41.0693 58.9848 33.455 46.1609C31.3653 47.4054 28.054 48.6769 26.5081 45.9542C25.8743 45.7745 23.5033 47.1957 21.8566 46.6881C19.626 46.0007 19.057 45.7865 18.0347 43.5027C17.8657 43.1253 16.4151 43.1163 15.8653 43.004C12.4093 42.3031 9.81808 39.9968 10.4101 36.2423C7.5927 34.8556 2.83073 32.0781 3.02996 28.1659C3.08834 27.0213 3.76957 26.3485 4.63954 25.7003C3.91776 25.0737 3.23489 24.4037 2.59468 23.694C1.13045 22.0956 -0.145032 20.0908 0.0133364 17.8598C0.0220182 17.0849 0.371989 15.6588 1.08689 15.2231C5.26448 12.6772 9.52005 17.9243 13.9749 18.2396C17.9125 18.5183 20.4163 17.5107 24.139 17.6509C26.663 17.746 28.1979 19.4673 29.6581 21.2412C29.8612 19.9013 30.2932 18.4991 30.7659 17.2295C34.5693 7.01271 44.3778 0.932468 54.9703 0.057573Z" fill="#58230A"/>
<path d="M34.4138 42.8018C29.2423 34.0241 30.26 18.8382 37.0226 11.1913C45.6449 1.4418 61.7942 -0.836641 71.9214 8.06312C73.0519 8.76205 75.1212 10.9729 75.972 12.0716C75.2431 13.098 74.3988 14.0087 74.4181 15.2571C75.0625 14.9372 77.45 12.2053 78.1625 11.5032C85.9043 3.87914 95.1819 1.22945 105.622 5.03064C124.631 10.896 126.156 33.569 115.756 47.7259C107.375 59.1301 94.6939 68.4646 82.5783 75.5872C80.8255 76.5935 75.7938 79.126 74.0409 78.3981C72.8422 77.9009 70.0775 76.6684 68.9779 75.8238C66.1796 74.6062 54.6705 66.3949 52.6292 64.0766C50.0959 62.1672 42.9837 55.3591 41.2104 52.8806C38.9549 50.6971 35.8475 45.6203 34.4138 42.8018Z" fill="#F5C161"/>
<path d="M105.622 5.03064C124.631 10.896 126.156 33.569 115.756 47.7259C107.375 59.1301 94.6939 68.4646 82.5783 75.5872C80.8255 76.5935 75.7938 79.126 74.0409 78.3981C72.8422 77.9009 70.0775 76.6684 68.9779 75.8238C69.5836 75.9002 70.2816 76.2386 70.8625 76.4782C82.0604 73.8514 101.43 57.02 108.658 48.1752C117.952 36.8039 120.328 16.0688 107.242 6.09333C106.657 5.76446 106.169 5.41373 105.622 5.03064Z" fill="#DD9B44"/>
<path d="M118.796 25.2355C121.082 25.3389 121.85 27.1711 119.802 28.7108C117.139 28.6679 117.047 26.8686 118.796 25.2355Z" fill="#D18B3A"/>
<path d="M34.4138 42.8018C29.2423 34.0241 30.26 18.8382 37.0226 11.1913C45.6449 1.4418 61.7942 -0.836641 71.9214 8.06312C71.9573 8.52722 71.8881 8.31367 72.1669 8.71562L72.0351 8.83917C71.3364 8.69466 70.989 7.93164 70.2334 7.54496C69.3616 7.09882 68.478 6.70346 67.5312 6.42535C58.9946 3.91883 50.4233 4.97133 42.9302 9.78805C37.4015 13.342 34.8377 19.2114 33.5183 25.3809C32.4044 30.59 33.677 37.3431 36.1926 42.038C38.4783 46.1834 39.7832 48.2351 42.582 51.9731C41.8374 51.5343 42.085 51.5238 41.4367 51.6706C41.0556 52.1019 41.0607 52.3669 41.2104 52.8806C38.9549 50.6971 35.8475 45.6203 34.4138 42.8018Z" fill="#FAD89B"/>
<path d="M74.4181 15.2571C75.0625 14.9372 77.45 12.2053 78.1625 11.5032C85.9043 3.87914 95.1819 1.22945 105.622 5.03064C106.169 5.41373 106.657 5.76446 107.242 6.09333C106.772 6.28353 105.296 5.96396 104.732 5.88354C98.4555 4.99022 93.1401 5.28315 87.3173 7.97867C85.0511 9.02774 82.8657 10.1381 80.8165 11.6969C79.1849 12.7385 76.2391 16.3326 74.3711 15.7705L74.1522 15.5042C74.3114 15.2911 74.2231 15.3251 74.4181 15.2571Z" fill="#FAD89B"/>
<path d="M41.2104 52.8806C41.0607 52.3669 41.0556 52.1019 41.4367 51.6706C42.085 51.5238 41.8374 51.5343 42.582 51.9731C44.4161 54.2464 46.2577 56.5377 48.1422 58.7781C48.9046 59.6842 52.7907 63.0059 52.8641 63.855L52.6292 64.0766C50.0959 62.1672 42.9837 55.3591 41.2104 52.8806Z" fill="#FAD89B"/>
<path d="M47.301 29.1277C44.8644 27.7336 43.5449 24.9759 43.9878 22.2028C44.4306 19.4297 46.5431 17.2205 49.2926 16.6553C52.042 16.0902 54.854 17.2871 56.3537 19.6609C59.2145 22.0941 59.5845 25.9202 57.1057 28.7758C55.897 30.173 54.1783 31.0265 52.3351 31.1445C50.6882 31.2366 48.3013 30.4672 47.301 29.1277Z" fill="#58230A"/>
<path d="M56.3537 19.6609C59.2145 22.0941 59.5845 25.9202 57.1057 28.7758C55.897 30.173 54.1783 31.0265 52.3351 31.1445C50.6882 31.2366 48.3013 30.4672 47.301 29.1277C49.9912 30.6668 53.3833 30.1747 55.5256 27.9343C57.6681 25.694 58.0095 22.2817 56.3537 19.6609Z" fill="#DD9B44"/>
<path d="M49.3804 18.6622C51.5667 18.2631 53.4306 18.8228 54.7536 20.6368L55.3475 20.5305C56.9385 21.8302 55.1152 27.7293 51.1369 27.9774C50.3538 28.031 49.5699 27.8844 48.8589 27.5515L48.6917 27.4878C46.2743 26.5577 45.2343 24.185 46.146 21.806C46.719 20.4413 46.7241 20.2106 47.9583 19.3212C48.3486 18.9974 48.8929 18.8437 49.3804 18.6622Z" fill="#7B3D19"/>
<path d="M54.7536 20.6368L55.3475 20.5305C56.9385 21.8302 55.1152 27.7293 51.1369 27.9774C50.3538 28.031 49.5699 27.8844 48.8589 27.5515C51.9941 27.0715 55.0157 23.9275 54.7536 20.6368Z" fill="#6D3314"/>
<path d="M46.146 21.806C46.719 20.4413 46.7241 20.2106 47.9583 19.3212C48.4795 19.6535 48.566 19.7486 48.9848 20.208C48.3123 20.911 47.0152 22.7514 46.146 21.806Z" fill="#B67140"/>
<path d="M49.3804 18.6622C49.9178 18.6595 50.3934 18.5774 50.805 18.8716C50.6267 19.2985 49.4623 19.9106 48.9848 20.208C48.566 19.7486 48.4795 19.6535 47.9583 19.3212C48.3486 18.9974 48.8929 18.8437 49.3804 18.6622Z" fill="#935026"/>
<path d="M94.381 13.4311C96.2791 10.3757 98.3537 9.53766 101.891 10.1771C103.489 10.2612 104.894 11.3908 105.92 12.5087C108.571 15.3963 107.797 19.6321 104.982 22.0941C103.015 23.8136 99.394 24.8021 97.5334 22.4803C97.3852 22.2963 97.2505 22.101 97.1308 21.8961C95.8794 21.0555 95.4258 20.6411 94.5517 19.4186C94.4484 19.2139 94.3541 19.0047 94.2688 18.7916C93.5473 16.9626 93.6401 15.2255 94.381 13.4311Z" fill="#58230A"/>
<path d="M98.5558 11.9804C99.5228 11.7 101.02 11.773 101.951 12.2795C105.386 14.1467 103.686 19.7258 100.304 20.4992C98.8477 20.8322 97.514 20.2118 96.535 19.0757L96.4048 18.9274C96.3793 18.8973 96.3539 18.8674 96.3285 18.8373C95.7507 19.4922 95.3839 19.4029 94.5517 19.4186C94.4484 19.2139 94.3541 19.0047 94.2688 18.7916C93.5473 16.9626 93.6401 15.2255 94.381 13.4311C95.2327 13.4055 95.589 13.4998 95.9512 14.3398C96.6413 12.9627 97.243 12.5709 98.5558 11.9804Z" fill="#7B3D19"/>
<path d="M94.381 13.4311C95.2327 13.4055 95.589 13.4998 95.9512 14.3398L95.8974 14.5995C95.4079 15.7233 95.5591 16.9855 96.0006 18.0999C96.1009 18.3495 96.2102 18.5954 96.3285 18.8373C95.7507 19.4922 95.3839 19.4029 94.5517 19.4186C94.4484 19.2139 94.3541 19.0047 94.2688 18.7916C93.5473 16.9626 93.6401 15.2255 94.381 13.4311Z" fill="#58230A"/>
<path d="M98.5558 11.9804L99.0438 12.1662C99.1021 13.081 97.0065 14.7074 96.2042 14.8973C95.9138 14.7527 95.9962 14.8654 95.8974 14.5995L95.9512 14.3398C96.6413 12.9627 97.243 12.5709 98.5558 11.9804Z" fill="#B67140"/>
<path d="M101.891 10.1771C103.489 10.2612 104.894 11.3908 105.92 12.5087C108.571 15.3963 107.797 19.6321 104.982 22.0941C103.015 23.8136 99.394 24.8021 97.5334 22.4803C97.3852 22.2963 97.2505 22.101 97.1308 21.8961C104.838 25.2019 109.924 14.1287 101.891 10.1771Z" fill="#DD9B44"/>
<path d="M68.399 44.1212C66.553 42.6371 65.7434 40.2095 66.3275 37.9136C66.9114 35.6163 68.7817 33.8719 71.1126 33.4499C73.4435 33.0277 75.8062 34.0058 77.1581 35.9518C78.1416 36.6107 78.9125 38.2431 79.1939 39.3828C80.6533 45.2998 71.2393 50.3092 68.399 44.1212Z" fill="#58230A"/>
<path d="M77.1581 35.9518C78.1416 36.6107 78.9125 38.2431 79.1939 39.3828C80.6533 45.2998 71.2393 50.3092 68.399 44.1212C70.7426 46.0067 74.1149 45.8838 76.3154 43.8321C78.5143 41.7804 78.8736 38.4228 77.1581 35.9518Z" fill="#DD9B44"/>
<path d="M71.3749 35.2434C75.6697 34.8196 78.0787 39.0848 75.097 41.9616C74.1448 42.8647 72.8683 43.3454 71.557 43.293C68.4838 43.1552 67.4287 40.4266 68.2903 37.8223C69.2008 36.0941 69.5328 35.8829 71.3749 35.2434Z" fill="#7B3D19"/>
<path d="M71.3749 35.2434L71.9603 35.6613L71.9636 35.847C70.9469 36.6482 69.8027 37.5108 68.8329 38.3509L68.2903 37.8223C69.2008 36.0941 69.5328 35.8829 71.3749 35.2434Z" fill="#B67140"/>
<path d="M90.6509 54.9009C89.7078 53.9649 89.1241 53.1097 88.8606 51.7769C88.5912 50.447 88.8651 49.0632 89.621 47.9355C90.3814 46.7779 91.5804 45.9812 92.9426 45.7281C94.5936 45.4286 95.8974 45.8868 97.2251 46.8213L98.0633 47.6345C100.85 49.5724 100.687 51.4804 99.5437 54.3063C97.6457 57.8362 92.8797 58.4292 90.6509 54.9009Z" fill="#58230A"/>
<path d="M94.3017 47.323C94.9199 47.4893 95.3106 47.5746 95.8929 47.8682C97.4601 49.499 97.2116 50.6851 95.4947 52.2576C94.7358 52.9525 93.4111 53.8316 92.4127 54.0113C91.9471 54.0712 91.3589 53.1412 91.061 53.0064C90.4967 51.708 90.1824 50.3646 90.9966 49.0767C91.7675 47.5372 92.733 47.335 94.3017 47.323Z" fill="#7B3D19"/>
<path d="M90.9966 49.0767C91.7675 47.5372 92.733 47.335 94.3017 47.323L94.3765 47.5941C93.5757 47.9655 92.1552 48.7323 91.3319 49.1816C91.2197 49.1471 91.1089 49.1127 90.9966 49.0767Z" fill="#935026"/>
<path d="M97.2251 46.8213L98.0633 47.6345C100.85 49.5724 100.687 51.4804 99.5437 54.3063C99.1755 53.6429 98.8312 53.3029 98.8596 52.5497L98.7129 52.9974C98.3402 52.6425 98.3058 52.7084 98.0289 52.2471L97.972 52.1513C97.3358 52.0854 95.7327 54.6433 94.3975 54.7391C93.3093 54.8185 91.1942 54.2239 91.061 53.0064C91.3589 53.1412 91.9471 54.0712 92.4127 54.0113C93.4111 53.8316 94.7358 52.9525 95.4947 52.2576C97.2116 50.6851 97.4601 49.499 95.8929 47.8682C96.6383 47.6675 96.8209 47.4638 97.2251 46.8213Z" fill="#6D3314"/>
<path d="M98.0633 47.6345C100.85 49.5724 100.687 51.4804 99.5437 54.3063C99.1755 53.6429 98.8312 53.3029 98.8596 52.5497C99.391 50.4545 99.0902 49.4661 98.0633 47.6345Z" fill="#DD9B44"/>
<path d="M98.8596 52.5497C98.8312 53.3029 99.1755 53.6429 99.5437 54.3063C97.6457 57.8362 92.8797 58.4292 90.6509 54.9009C93.6461 56.5812 97.1876 56.6216 98.7129 52.9974L98.8596 52.5497Z" fill="#DD9B44"/>
<path d="M70.1989 71.3789C68.6112 70.2557 67.8336 68.3013 68.2148 66.3919C68.5959 64.484 70.0644 62.9789 71.9619 62.5521C73.8597 62.1238 75.831 62.8546 76.992 64.4151C82.0768 67.3429 76.6956 76.0784 71.7135 72.7582C71.2078 72.4212 70.4974 71.9046 70.1989 71.3789Z" fill="#58230A"/>
<path d="M76.992 64.4151C82.0768 67.3429 76.6956 76.0784 71.7135 72.7582C71.2078 72.4212 70.4974 71.9046 70.1989 71.3789C72.1755 72.7792 74.8756 72.5321 76.5669 70.7993C78.2584 69.0651 78.4395 66.359 76.992 64.4151Z" fill="#DD9B44"/>
<path d="M71.8182 64.4031C72.7212 64.1291 72.8828 64.186 73.7751 64.3881C74.6692 64.6038 75.0545 64.8299 75.6527 65.5323C76.128 66.5432 76.4097 67.4028 76.0077 68.5215C75.7325 69.2778 75.1633 69.8918 74.4291 70.2228C73.6245 70.5867 72.7053 70.5972 71.8916 70.2557C71.2871 70.0041 70.7103 69.4859 70.2653 69.0067C69.6876 68.1516 69.4122 66.8412 70.1539 66.001C70.6267 65.092 70.9745 64.9273 71.8182 64.4031Z" fill="#7B3D19"/>
<path d="M75.6527 65.5323C76.128 66.5432 76.4097 67.4028 76.0077 68.5215C75.7325 69.2778 75.1633 69.8918 74.4291 70.2228C73.6245 70.5867 72.7053 70.5972 71.8916 70.2557C71.2871 70.0041 70.7103 69.4859 70.2653 69.0067C73.0323 69.5444 74.5572 67.8955 75.6527 65.5323Z" fill="#6D3314"/>
<path d="M71.8182 64.4031C72.7212 64.1291 72.8828 64.186 73.7751 64.3881C73.0743 66.043 72.1549 66.0085 70.6481 66.4548C70.4702 66.356 70.3043 66.1553 70.1539 66.001C70.6267 65.092 70.9745 64.9273 71.8182 64.4031Z" fill="#6D3314"/>
<path d="M71.8182 64.4031L72.4352 64.5634L72.5396 64.7865C72.1359 65.4889 71.261 65.8213 70.6481 66.4548C70.4702 66.356 70.3043 66.1553 70.1539 66.001C70.6267 65.092 70.9745 64.9273 71.8182 64.4031Z" fill="#B67140"/>
<path d="M52.0432 56.7444C50.1178 56.1289 48.8669 54.2704 49.0198 52.2546C49.173 50.2374 50.6897 48.59 52.6861 48.271C54.6825 47.9535 56.636 49.0483 57.4077 50.9173C58.802 52.4852 58.886 55.2828 57.2168 56.7384C56.436 57.4153 55.4161 57.7478 54.3871 57.6624C53.5023 57.5936 52.763 57.2386 52.0432 56.7444Z" fill="#58230A"/>
<path d="M57.4077 50.9173C58.802 52.4852 58.886 55.2828 57.2168 56.7384C56.436 57.4153 55.4161 57.7478 54.3871 57.6624C53.5023 57.5936 52.763 57.2386 52.0432 56.7444C53.6615 57.2626 55.4328 56.7938 56.5838 55.5433C57.7349 54.2929 58.0562 52.4882 57.4077 50.9173Z" fill="#DD9B44"/>
<path d="M53.8737 49.9738C57.6873 50.5459 55.3149 55.771 52.3415 55.103C51.3533 54.8814 50.7697 53.4991 50.6463 52.5871C50.8607 50.2793 51.8467 50.0786 53.8737 49.9738Z" fill="#7B3D19"/>
<path d="M50.6463 52.5871C50.8607 50.2793 51.8467 50.0786 53.8737 49.9738C53.2316 50.7061 51.6238 52.6051 50.6463 52.5871Z" fill="#B67140"/>
<path d="M86.0555 27.6427C85.1185 27.1702 84.5736 26.1644 84.6904 25.1212C84.8071 24.078 85.56 23.2176 86.5779 22.9642C87.5973 22.7108 88.6645 23.118 89.2573 23.985C90.4952 25.0357 91.4667 26.4299 90.094 27.9147C89.5821 28.4619 88.8561 28.759 88.1077 28.7284C87.3652 28.7043 86.4671 28.2646 86.0555 27.6427Z" fill="#58230A"/>
<path d="M89.2573 23.985C90.4952 25.0357 91.4667 26.4299 90.094 27.9147C89.5821 28.4619 88.8561 28.759 88.1077 28.7284C87.3652 28.7043 86.4671 28.2646 86.0555 27.6427C87.0779 28.1579 88.3188 27.916 89.0717 27.0546C89.8261 26.1932 89.9024 24.9306 89.2573 23.985Z" fill="#DD9B44"/>
<path d="M86.8623 23.9628C88.9295 23.8488 89.5911 26.1777 88.1002 26.9622C86.3279 26.375 85.1649 25.6786 86.8623 23.9628Z" fill="#6D3314"/>
<path d="M87.1362 24.6039C87.4566 24.6042 87.7439 24.6223 88.0628 24.6394C88.5373 24.9674 88.3756 24.7579 88.5852 25.2744C88.5134 25.8522 88.4684 25.8694 88.0583 26.3202C87.738 26.3949 87.7035 26.3691 87.3712 26.3354C87.0464 25.7982 87.3368 25.3553 87.1362 24.6039Z" fill="#7B3D19"/>
<path d="M108.351 34.5334C107.308 34.3136 106.524 33.4481 106.407 32.3875C106.29 31.3271 106.866 30.3114 107.838 29.8696C108.808 29.4278 109.953 29.6598 110.676 30.4447C114.417 31.926 111.258 36.8503 108.351 34.5334Z" fill="#58230A"/>
<path d="M110.676 30.4447C114.417 31.926 111.258 36.8503 108.351 34.5334C109.402 34.7552 110.474 34.2713 111.005 33.3377C111.535 32.4043 111.402 31.2348 110.676 30.4447Z" fill="#DD9B44"/>
<path d="M107.41 31.676C108.347 29.7053 109.995 30.5783 110.182 32.5708C109.481 33.2091 108.39 33.2891 107.628 32.7073C107.297 32.0741 107.344 32.3465 107.41 31.676Z" fill="#6D3314"/>
<path d="M107.41 31.676C108.034 31.471 108.48 31.2398 109.092 31.4064C109.222 31.5965 109.269 31.6416 109.362 31.8512C108.802 31.9153 108.014 32.1463 107.633 32.0256L107.41 31.676Z" fill="#935026"/>
<path d="M58.9339 13.9842C57.3093 11.0718 59.2931 8.28642 62.5808 10.4985C64.6706 12.1596 63.7238 15.2427 61.2914 15.3959C60.6784 15.4379 60.0745 15.2312 59.6157 14.8224C59.3106 14.5464 59.1386 14.3309 58.9339 13.9842Z" fill="#58230A"/>
<path d="M62.5808 10.4985C64.6706 12.1596 63.7238 15.2427 61.2914 15.3959C60.6784 15.4379 60.0745 15.2312 59.6157 14.8224C59.3106 14.5464 59.1386 14.3309 58.9339 13.9842C61.937 15.4045 63.5735 13.5413 62.5808 10.4985Z" fill="#DD9B44"/>
<path d="M59.8781 11.1266C60.6347 11.0898 60.9257 11.0029 61.4721 11.5576C61.4962 12.0569 61.4231 12.6214 60.9991 12.9487L61.0151 13.1848C60.1218 13.2051 59.5534 12.8959 59.2683 12.0562C59.429 11.4306 59.36 11.6377 59.8781 11.1266Z" fill="#6D3314"/>
<path d="M36.9155 38.0484C36.0727 37.7968 35.4604 37.0675 35.3575 36.1929C35.2547 35.3198 35.6812 34.4681 36.4425 34.0275C37.2036 33.5869 38.1538 33.6415 38.8597 34.1662C39.48 34.3964 40.0438 34.896 40.3366 35.486C40.581 35.9743 40.6082 36.5433 40.4118 37.054C39.9137 38.3689 38.4438 38.7298 37.2285 38.1952C37.1229 38.1488 37.0186 38.0993 36.9155 38.0484Z" fill="#6F371A"/>
<path d="M38.8597 34.1662C39.48 34.3964 40.0438 34.896 40.3366 35.486C40.581 35.9743 40.6082 36.5433 40.4118 37.054C39.9137 38.3689 38.4438 38.7298 37.2285 38.1952C37.1229 38.1488 37.0186 38.0993 36.9155 38.0484C37.9401 38.3539 39.0364 37.8792 39.5154 36.9237C39.9945 35.9668 39.718 34.8046 38.8597 34.1662Z" fill="#DD9B44"/>
<path d="M103.462 48.0913C104.063 47.8787 104.73 48.0104 105.206 48.4328C105.682 48.8551 105.892 49.502 105.753 50.1235C105.615 50.7435 105.149 51.2408 104.54 51.4205C103.63 51.6885 102.672 51.1824 102.38 50.2808C102.088 49.3777 102.569 48.4073 103.462 48.0913Z" fill="#DD9B44"/>
<path d="M99.3177 39.8725C100.132 39.597 101.014 40.0343 101.289 40.849C101.563 41.6636 101.126 42.5457 100.312 42.8198C99.4973 43.0938 98.6172 42.6566 98.3417 41.8434C98.0678 41.0302 98.5049 40.1481 99.3177 39.8725Z" fill="#DD9B44"/>
<path d="M60.1212 45.3163C60.9091 45.1201 61.7116 45.5813 61.9395 46.3616C62.1674 47.1418 61.7396 47.9625 60.9699 48.2216C60.4437 48.3983 59.8627 48.274 59.4561 47.8951C59.0496 47.5162 58.8827 46.9456 59.0214 46.408C59.1603 45.8704 59.5823 45.451 60.1212 45.3163Z" fill="#DD9B44"/>
<path d="M81.52 56.3955C82.2669 56.1663 83.0588 56.5842 83.2908 57.3315C83.5228 58.0773 83.1082 58.871 82.3627 59.1061C81.6143 59.3427 80.8165 58.9249 80.583 58.1746C80.3494 57.4243 80.7701 56.6261 81.52 56.3955Z" fill="#58230A"/>
<path d="M88.2738 8.45714C88.9744 8.19402 89.7557 8.54759 90.0222 9.24802C90.2871 9.94829 89.9369 10.7315 89.2378 10.9996C88.5343 11.2692 87.747 10.9162 87.4805 10.2122C87.2141 9.50831 87.5688 8.72147 88.2738 8.45714Z" fill="#58230A"/>
<path d="M124.315 23.9047C124.92 22.8781 126.382 20.5974 127.312 19.8678C130.539 17.3367 135.621 20.1354 139.791 19.4014C142.629 19.1435 145.02 17.8544 147.448 16.4823C148.963 15.6267 149.835 15.1828 151.543 15.6866C152.103 16.2649 152.488 16.7282 152.468 17.5938C152.392 20.9838 146.678 26.3106 143.846 27.6599C143.439 27.9112 142.646 28.2807 142.559 28.6474C143.629 29.0823 146.871 27.2252 148.168 26.7456L148.316 26.6913C149.202 26.855 149.72 27.793 149.494 28.6094C148.795 31.1258 144.792 33.9238 142.477 34.866C141.106 35.5025 138.642 36.0791 137.821 36.6122L137.863 36.8069C138.513 37.0675 139.04 36.9986 139.731 36.9732L142.538 36.479C141.748 41.0736 137.224 42.4633 133.132 41.4884L132.795 41.6906C132.719 42.0425 132.704 42.1234 133.009 42.4274C133.638 42.7614 133.957 42.8108 133.964 43.5431C133.675 44.0193 133.383 44.2335 132.927 44.536C129.828 46.5907 126.954 43.4757 124.821 43.0774L124.633 43.2346C124.772 44.3069 126.056 44.8011 125.318 45.809C123.672 46.7 121.679 45.8554 120.38 44.7307C122.009 41.6352 122.842 39.1656 123.718 35.82C124.291 34.1334 124.302 31.1066 124.8 29.8515C125.767 27.4174 129.056 24.2499 131.505 23.2052C132.599 22.7382 133.421 22.6344 134.244 22.2591C129.988 21.525 126.787 25.3602 124.645 28.4177C124.57 26.831 124.499 25.4803 124.315 23.9047Z" fill="#FEFDFD"/>
<path d="M123.718 35.82C124.805 37.7759 124.769 39.4427 124.796 41.6621C128.134 43.4712 129.2 44.6978 132.894 42.7838L133.009 42.4274C133.638 42.7614 133.957 42.8108 133.964 43.5431C133.675 44.0193 133.383 44.2335 132.927 44.536C129.828 46.5907 126.954 43.4757 124.821 43.0774L124.633 43.2346C124.772 44.3069 126.056 44.8011 125.318 45.809C123.672 46.7 121.679 45.8554 120.38 44.7307C122.009 41.6352 122.842 39.1656 123.718 35.82Z" fill="#DADBE6"/>
<path d="M151.543 15.6866C152.103 16.2649 152.488 16.7282 152.468 17.5938C152.392 20.9838 146.678 26.3106 143.846 27.6599C143.671 27.4853 143.595 27.5479 143.261 27.5338C143.478 26.745 148.511 22.7375 149.513 20.924C150.771 18.646 150.834 18.2239 151.543 15.6866Z" fill="#DADBE6"/>
<path d="M148.316 26.6913C149.202 26.855 149.72 27.793 149.494 28.6094C148.795 31.1258 144.792 33.9238 142.477 34.866C143.025 32.8109 148.03 31.4758 148.316 26.6913Z" fill="#DADBE6"/>
<path d="M139.731 36.9732L142.538 36.479C141.748 41.0736 137.224 42.4633 133.132 41.4884L134.09 41.4809C135.853 41.4749 140.886 39.2809 140.868 37.2876C140.468 36.9147 140.378 37.0226 139.731 36.9732Z" fill="#DADBE6"/>
<path d="M138.917 25.9365C140.58 26.8244 139.959 28.8966 138.992 30.088C137.518 31.9041 135.892 32.5878 133.63 32.8997L133.177 32.7284L133.114 32.5352C133.549 32.1873 134.223 32.1322 134.766 31.9487C136.112 31.4942 137.783 30.4354 138.504 29.172C139.226 27.9097 139.212 27.2586 138.917 25.9365Z" fill="#5F270C"/>
<path d="M134.043 34.6651C134.374 35.0308 134.575 35.5879 134.501 36.0656C134.048 39.0039 130.791 39.7662 128.518 39.6598C128.262 39.4651 128.285 39.4622 128.152 39.1626C129.235 38.312 132.77 40.0792 134.043 34.6651Z" fill="#63280D"/>
<path d="M1.93336 16.7254C2.50022 16.255 3.02292 15.921 3.79037 16.0419C5.53541 16.3168 7.06595 17.5164 8.62553 18.2802C11.2955 19.5877 14.5238 20.3081 17.4959 19.9197C23.6551 19.1149 25.8005 17.9458 29.1544 23.8515C28.924 25.3463 28.8216 26.5101 28.7139 28.0217C28.3694 28.0812 28.0578 28.1369 27.7084 28.1737L28.698 29.5476C28.7345 31.9173 28.9245 33.5145 29.3845 35.8589C30.0821 39.1881 31.0141 41.6516 32.6246 44.6768C31.7305 45.2564 29.6157 46.6491 28.4155 45.5259C27.7324 44.8865 28.8022 43.3844 28.2998 43.0863C25.5931 43.7438 23.0481 47.2482 19.8945 43.8232L19.7764 43.2691C19.9575 42.7659 20.4459 42.5517 20.9254 42.2417C21.1414 41.728 21.1168 41.9901 20.9627 41.424C17.6425 41.8718 13.808 42.1054 12.092 38.4558C11.8628 37.9691 11.6643 37.3146 11.8613 36.7919C12.2162 36.7036 12.8524 36.9537 13.2383 37.069C14.0963 37.1813 15.3936 37.4404 16.1589 37.0286L16.0753 36.7994C15.4834 36.3397 14.4872 36.1345 13.7388 35.9263C10.8327 35.1281 5.41057 32.19 4.77635 28.8009C4.6346 28.043 5.09279 27.1733 5.9448 27.1465C7.12193 27.6744 10.066 29.0656 11.1724 28.9726L11.2539 28.7795C10.8888 28.47 10.8575 28.4447 10.4382 28.2185C7.6581 26.7933 -0.307589 20.2697 1.93336 16.7254Z" fill="#FEFDFD"/>
<path d="M29.3845 35.8589C30.0821 39.1881 31.0141 41.6516 32.6246 44.6768C31.7305 45.2564 29.6157 46.6491 28.4155 45.5259C27.7324 44.8865 28.8022 43.3844 28.2998 43.0863C25.5931 43.7438 23.0481 47.2482 19.8945 43.8232C20.6214 43.3424 21.0281 43.2481 21.8632 43.4862C24.429 44.214 26.0924 43.1702 28.2304 41.8523C28.3082 39.5805 28.3694 37.9107 29.3845 35.8589Z" fill="#DADBE6"/>
<path d="M1.93336 16.7254C2.14607 17.1395 2.21417 17.1436 2.33482 17.3473C3.14267 18.7112 3.48636 20.0708 4.48252 21.4151C6.22442 23.7659 8.71295 25.5035 10.8348 27.5073C10.7928 27.9203 10.762 27.8312 10.4382 28.2185C7.6581 26.7933 -0.307589 20.2697 1.93336 16.7254Z" fill="#DADBE6"/>
<path d="M13.7388 35.9263C10.8327 35.1281 5.41057 32.19 4.77635 28.8009C4.6346 28.043 5.09279 27.1733 5.9448 27.1465C5.10117 29.9342 9.72138 33.3464 11.6972 34.5739C12.3779 34.9963 13.2411 35.3108 13.7388 35.9263Z" fill="#DADBE6"/>
<path d="M20.9627 41.424C17.6425 41.8718 13.808 42.1054 12.092 38.4558C11.8628 37.9691 11.6643 37.3146 11.8613 36.7919C12.2162 36.7036 12.8524 36.9537 13.2383 37.069L13.0375 37.3775C13.216 38.1922 14.3214 39.4607 15.0635 39.9099C16.4685 40.7621 19.3074 41.2323 20.9627 41.424Z" fill="#DADBE6"/>
<path d="M18.9316 22.6551C24.0365 22.6735 25.5946 24.2373 28.7139 28.0217C28.3694 28.0812 28.0578 28.1369 27.7084 28.1737C25.6984 25.775 24.1965 24.3791 21.1965 23.3449C20.476 23.0964 19.7044 22.948 19.0256 22.6916L18.9316 22.6551Z" fill="#64280A"/>
<path d="M14.5327 26.4358L14.7432 26.676C14.7392 27.0459 14.7369 27.448 14.8062 27.8046C15.6346 32.0604 19.1862 31.6679 20.8374 32.8512L20.7317 33.1595C17.603 32.9984 12.0167 29.9607 14.5327 26.4358Z" fill="#66290C"/>
<path d="M19.6194 34.9499L19.8947 35.0847C21.3806 40.0297 23.3473 38.0379 25.2021 39.2525L25.2088 39.6568C22.2687 40.3832 18.5548 38.1727 19.6194 34.9499Z" fill="#652A0F"/>
</svg>
