<svg width="83" height="77" viewBox="0 0 83 77" fill="none" xmlns="http://www.w3.org/2000/svg">
<rect x="0.425" y="0.425" width="81.6" height="75.65" rx="9.575" fill="white"/>
<rect x="0.425" y="0.425" width="81.6" height="75.65" rx="9.575" stroke="#FAEFDF" stroke-width="0.85"/>
<path d="M35.4742 13.207C35.6141 13.1968 37.0588 12.9407 37.3354 12.9008C39.407 12.6022 40.6236 12.7886 42.6467 13.0987C43.6286 13.4245 44.66 13.7677 45.5757 14.2568C47.6639 15.4206 49.6452 17.2396 50.6898 19.4245C51.027 20.094 51.3918 21.0405 51.5416 21.7723C52.962 22.1189 55.469 22.377 56.4817 23.5703C57.8084 24.3655 58.8663 26.5567 59.2013 28.0163C60.0024 31.5039 59.0977 33.5241 56.5026 35.7262C57.2762 36.5626 58.0641 37.4108 58.8343 38.2331C60.2933 39.7896 60.9467 42.9568 59.069 44.4529C56.4982 46.5007 52.043 46.8173 48.9157 46.589C46.1663 46.3881 41.8302 45.467 42.2666 41.8841C42.4274 40.5645 42.9718 38.6104 44.1586 37.8348L44.811 37.1589C44.2236 36.8779 43.233 36.4973 42.8319 36.0595C42.2941 36.0085 40.8759 36.2776 40.0539 36.2843C39.8533 38.866 39.4996 40.4618 37.4973 42.2888C37.2626 42.5029 36.8362 42.729 36.6466 42.9259C37.234 43.2824 37.7486 43.5753 38.2797 44.0195C39.5745 45.5214 40.3767 46.3514 38.5321 48.0026C37.7739 48.6808 35.1425 49.5684 34.1298 49.494C32.2543 49.8768 29.1931 49.8206 27.322 49.39C26.9903 49.3753 26.4349 49.1872 26.0911 49.1129C23.2437 48.4987 21.5919 46.1806 24.09 43.8089C24.6024 43.3801 24.7567 43.243 25.3495 42.9546C24.0503 41.6509 23.2161 40.707 22.5913 38.8663C22.1792 37.6499 22.026 35 22.6045 33.869C22.9693 32.2259 24.6465 30.4111 26.079 29.5939C26.6101 29.291 27.2437 29.2491 27.733 28.8429C26.7545 27.0675 26.5848 24.944 26.8867 22.9609C27.3121 18.7068 30.1165 15.7833 33.7066 13.8766C34.2841 13.6443 34.8901 13.4263 35.4742 13.207ZM44.0991 35.4391C44.3977 35.6238 45.3531 36.148 45.5294 36.3184L47.4677 35.7343C47.125 35.3035 46.7162 34.6137 46.411 34.1327C45.838 34.5212 44.7393 35.3114 44.0991 35.4391Z" fill="#FFCB2B"/>
<path d="M30.2598 28.4972C34.9177 28.3763 38.8792 31.5713 40.1034 36.0177C41.1327 36.0269 41.8588 36.0258 42.877 35.7326L42.8319 36.0595C42.2941 36.0084 40.8759 36.2776 40.0539 36.2843C39.8533 38.866 39.4996 40.4618 37.4973 42.2887C37.2626 42.5029 36.8362 42.729 36.6466 42.9259C37.234 43.2823 37.7486 43.5753 38.2797 44.0195C39.5745 45.5214 40.3767 46.3514 38.5321 48.0026C37.7739 48.6808 35.1425 49.5684 34.1298 49.494C32.2543 49.8768 29.1931 49.8206 27.322 49.39C26.9903 49.3753 26.4349 49.1872 26.0911 49.1129C23.2437 48.4987 21.5919 46.1806 24.09 43.8089C24.6024 43.3801 24.7567 43.243 25.3495 42.9545C24.0503 41.6509 23.2161 40.707 22.5913 38.8663C22.1792 37.6499 22.026 35 22.6045 33.869C22.9693 32.2259 24.6465 30.4111 26.079 29.5939C26.6101 29.291 27.2437 29.2491 27.733 28.8428L27.841 28.8242L27.9082 28.9139C28.2278 28.9394 29.8311 28.575 30.2598 28.4972Z" fill="#531E00"/>
<path d="M27.8419 28.8241L27.9091 28.9138C28.2287 28.9393 29.832 28.5748 30.2607 28.4971L30.2067 28.7127C32.2673 28.5434 34.8051 29.5371 36.3633 30.8753C37.3947 31.7706 38.2289 32.8727 38.8129 34.1109C38.7523 35.8318 38.7534 38.2714 37.3506 39.5356C35.474 41.2282 33.1346 40.7009 30.9009 40.6965C28.621 40.6921 24.0997 39.2939 23.7548 36.6218C23.4859 35.4538 24.081 33.399 24.2341 31.8624C23.9939 32.046 23.9708 31.9836 23.8308 32.0595C23.4562 32.2616 22.9074 33.5164 22.73 33.8865L22.6055 33.8688C22.9702 32.2257 24.6474 30.4109 26.0799 29.5938C26.611 29.2909 27.2447 29.2489 27.7339 28.8427L27.8419 28.8241Z" fill="#833D0C"/>
<path d="M27.8419 28.8241L27.9091 28.9138C28.2287 28.9393 29.832 28.5748 30.2607 28.4971L30.2067 28.7127C29.6943 28.8533 28.881 29.032 28.4733 29.3313C28.308 30.0785 25.9543 31.9723 25.3328 32.8561C24.8457 33.55 24.2121 36.1054 23.9499 36.3989L23.7548 36.6218C23.4859 35.4538 24.081 33.399 24.2341 31.8624C23.9939 32.046 23.9708 31.9836 23.8308 32.0595C23.4562 32.2616 22.9074 33.5164 22.73 33.8865L22.6055 33.8688C22.9702 32.2257 24.6474 30.4109 26.0799 29.5938C26.611 29.2909 27.2447 29.2489 27.7339 28.8427L27.8419 28.8241Z" fill="#7A3305"/>
<path d="M28.472 29.3315C28.3067 30.0787 25.9529 31.9726 25.3314 32.8563C24.8444 33.5502 24.2107 36.1057 23.9485 36.3991C23.2532 33.6154 26.1623 30.4702 28.472 29.3315Z" fill="#F69F17"/>
<path d="M25.3498 42.9546C25.719 43.1817 26.0848 43.4373 26.4959 43.5635C26.5091 44.207 26.4474 43.8979 26.2038 44.4507L26.5587 44.8649L27.0909 45.1777C29.8634 46.0354 32.7461 45.6512 35.5164 45.1053C35.4833 44.5899 35.4172 44.6993 35.6354 44.2932C36.3737 43.7445 37.166 44.1082 38.1787 44.0281L38.2801 44.0195C39.5748 45.5214 40.3771 46.3514 38.5324 48.0026C37.7743 48.6808 35.1428 49.5685 34.1301 49.494C32.2546 49.8769 29.1934 49.8206 27.3223 49.39C26.9906 49.3753 26.4352 49.1873 26.0914 49.113C23.244 48.4988 21.5922 46.1807 24.0903 43.809C24.6027 43.3802 24.757 43.2431 25.3498 42.9546Z" fill="#FFCB25"/>
<path d="M25.3498 42.9546C25.719 43.1817 26.0848 43.4373 26.4959 43.5635C26.5091 44.207 26.4474 43.8979 26.2038 44.4507L26.5587 44.8649L27.0909 45.1777C26.4915 45.2212 25.8071 45.247 25.2231 45.3616C24.2865 45.5452 24.4606 46.1025 24.6556 46.7482C29.9593 51.1659 41.8845 46.8125 37.2597 44.5372C36.8751 44.6774 35.8679 45.0811 35.5164 45.1053C35.4833 44.5899 35.4172 44.6993 35.6354 44.2932C36.3737 43.7445 37.166 44.1082 38.1787 44.0281L38.2801 44.0195C39.5748 45.5214 40.3771 46.3514 38.5324 48.0026C37.7743 48.6808 35.1428 49.5685 34.1301 49.494C32.2546 49.8769 29.1934 49.8206 27.3223 49.39C26.9906 49.3753 26.4352 49.1873 26.0914 49.113C23.244 48.4988 21.5922 46.1807 24.0903 43.809C24.6027 43.3802 24.757 43.2431 25.3498 42.9546Z" fill="#FBBB0D"/>
<path d="M35.5163 45.1051C35.4833 44.5897 35.4172 44.699 35.6353 44.2929C36.3736 43.7443 37.1659 44.108 38.1786 44.0279L38.28 44.0193C39.5748 45.5212 40.377 46.3512 38.5324 48.0024C37.7742 48.6806 35.1428 49.5682 34.1301 49.4938C32.2546 49.8766 29.1934 49.8204 27.3223 49.3898C27.7719 49.2517 29.0226 49.2067 29.5956 49.1446C31.9515 48.8888 36.1544 48.9276 37.8756 47.1324C38.5434 46.4373 38.5136 45.9436 38.4706 45.0791C37.9902 44.4632 38.0255 44.4694 37.2596 44.537C36.875 44.6772 35.8679 45.0809 35.5163 45.1051Z" fill="#F69F17"/>
<path d="M35.5152 45.1051C35.4821 44.5897 35.416 44.699 35.6342 44.2929C36.3725 43.7443 37.1648 44.108 38.1775 44.0279L38.2788 44.0193C39.5736 45.5212 40.3758 46.3512 38.5312 48.0024C37.773 48.6806 35.1416 49.5682 34.1289 49.4938L34.1972 49.2849C36.2524 48.8561 40.1698 48.1042 38.4695 45.0791C37.989 44.4632 38.0243 44.4694 37.2584 44.537C36.8739 44.6772 35.8667 45.0809 35.5152 45.1051Z" fill="#E08201"/>
<path d="M24.6544 46.7482C24.1189 46.2175 23.7398 45.939 24.1222 45.19C24.8925 44.6142 25.6528 44.7416 26.5575 44.8649L27.0897 45.1776C26.4903 45.2212 25.806 45.247 25.2219 45.3616C24.2853 45.5452 24.4594 46.1025 24.6544 46.7482Z" fill="#FDB706"/>
<path d="M25.3495 42.9546C25.7186 43.1817 26.0845 43.4373 26.4955 43.5635C26.5087 44.207 26.447 43.8979 26.2035 44.4507C25.539 44.0409 24.8768 43.7745 24.09 43.809C24.6024 43.3802 24.7566 43.2431 25.3495 42.9546Z" fill="#E08201"/>
<path d="M36.6463 42.9258C37.2336 43.2823 37.7482 43.5752 38.2793 44.0194L38.178 44.028C37.1653 44.1081 36.373 43.7444 35.6347 44.293C35.4165 44.6991 35.4826 44.5898 35.5157 45.1052C32.7454 45.6511 29.8627 46.0353 27.0902 45.1775L26.5579 44.8648L26.2031 44.4506C26.4467 43.8978 26.5084 44.2069 26.4951 43.5633C29.6015 44.3239 33.8506 44.8841 36.6463 42.9258Z" fill="#BE6401"/>
<path d="M42.8774 35.7325C43.3314 35.4619 43.4041 35.4321 43.9176 35.314L44.0994 35.439C44.3981 35.6237 45.3534 36.1479 45.5297 36.3183L47.4681 35.7341C48.8224 36.4756 53.7921 36.5626 55.3977 36.1221C55.6225 36.0605 56.223 35.8195 56.5029 35.726C57.2765 36.5625 58.0644 37.4107 58.8346 38.233C60.2936 39.7895 60.9471 42.9566 59.0694 44.4528C56.4985 46.5006 52.0433 46.8172 48.916 46.5888C46.1667 46.3879 41.8305 45.4669 42.2669 41.884C42.4278 40.5643 42.9721 38.6103 44.1589 37.8347L44.8113 37.1587C44.2239 36.8778 43.2333 36.4972 42.8322 36.0594L42.8774 35.7325Z" fill="#EF9600"/>
<path d="M42.8771 35.7325C43.3311 35.4619 43.4038 35.4321 43.9173 35.314L44.0991 35.439C44.3978 35.6237 45.3532 36.1479 45.5295 36.3183C45.7223 36.5132 45.7719 36.5377 46.0298 36.6318L46.0562 36.7103L45.9945 36.7113L46.0308 36.9608L46.0694 36.7861L46.1686 36.8658C45.9041 37.1387 45.1493 37.2302 44.9388 37.3347C44.7251 37.4407 44.7217 37.8172 44.1586 37.8347L44.811 37.1587C44.2237 36.8778 43.233 36.4972 42.8319 36.0594L42.8771 35.7325Z" fill="#F69F17"/>
<path d="M47.3482 36.9527C47.616 36.93 47.5918 36.9709 47.811 37.0966C49.5675 38.1039 52.3191 37.8112 54.3026 37.868C55.5765 37.9045 56.0128 37.4121 57.3242 37.8669C59.6415 40.4105 58.1352 41.8095 55.6106 42.904C52.4304 43.7087 48.9053 43.597 45.9422 42.1046C44.0766 41.1651 44.7587 39.5784 45.5069 38.1482C45.8816 37.432 46.6232 37.1471 47.3482 36.9527Z" fill="#FBBB0D"/>
<path d="M47.1829 37.2287C47.4749 37.2253 47.9521 37.2698 47.9003 37.6747C47.7725 38.6736 47.7372 41.1923 46.3003 41.0963C43.9531 40.147 45.5454 37.9276 47.1829 37.2287Z" fill="#FEEC8B"/>
<path d="M51.5408 21.7725C52.9612 22.1191 55.4681 22.3771 56.4808 23.5705C57.8076 24.3656 58.8654 26.5568 59.2004 28.0164C60.0015 31.5041 59.0968 33.5243 56.5018 35.7263C56.2219 35.8198 55.6213 36.0608 55.3965 36.1224C53.791 36.5629 48.8212 36.4759 47.4669 35.7344C47.1242 35.3036 46.7154 34.6139 46.4102 34.1328C49.6267 32.3536 51.4163 28.9032 51.8075 25.3343C51.9133 24.4854 51.6532 22.6985 51.5408 21.7725Z" fill="#713007"/>
<path d="M51.541 21.7725C52.9614 22.1191 55.4684 22.3771 56.481 23.5705C55.5786 23.3984 55.238 22.6486 54.2298 22.776C54.0865 23.3027 54.0127 23.7949 53.6303 24.164C53.1598 24.6196 52.8612 25.2092 52.2661 25.5639C52.1846 25.5112 52.1096 25.463 52.0193 25.4266L51.9036 25.9516L51.8077 25.3343C51.9135 24.4854 51.6534 22.6985 51.541 21.7725Z" fill="#8E4008"/>
<path d="M57.9836 29.7964C58.1356 30.9189 57.2882 32.3445 56.4375 33.0341C55.091 34.1264 53.4832 34.1979 51.8358 34.0338L51.8689 33.8997C53.87 32.6752 56.3086 35.6779 57.9836 29.7964Z" fill="#7A3305"/>
<path d="M35.4734 13.207C35.6134 13.1968 37.058 12.9407 37.3346 12.9008C39.4063 12.6022 40.6228 12.7886 42.646 13.0987C43.6278 13.4245 44.6592 13.7677 45.5749 14.2569C47.6631 15.4206 49.6444 17.2396 50.6891 19.4245C50.4257 19.2331 50.1623 19.0403 49.9001 18.8462C49.7557 18.7585 48.6802 17.4671 48.4819 17.2481L48.4885 17.4832L48.3441 17.5999C47.9353 17.6184 47.2543 17.0332 46.8907 16.768C44.6658 14.8178 40.8509 14.1449 37.9781 14.3863C35.1858 14.6208 32.4827 15.8513 30.4959 17.8302L30.2777 17.7736C30.097 17.4756 30.1709 17.4508 30.216 17.0434C31.4458 15.8398 32.0948 15.3881 33.5814 14.4869L33.7059 13.8766C34.2833 13.6443 34.8894 13.4263 35.4734 13.207Z" fill="#FEEC8B"/>
<path d="M45.5762 14.2568C47.6644 15.4205 49.6456 17.2396 50.6903 19.4245C50.4269 19.2331 50.1636 19.0403 49.9013 18.8462C49.757 18.7585 48.6814 17.4671 48.4831 17.248C47.7194 16.4936 46.8346 15.5696 45.8891 15.0734C45.8472 14.6626 45.801 14.6071 45.5762 14.2568Z" fill="#EF9F27"/>
<path d="M35.4746 13.207C35.6146 13.1968 37.0592 12.9407 37.3358 12.9008C39.4075 12.6022 40.624 12.7886 42.6472 13.0987C42.3629 13.2242 42.1811 13.3091 41.9122 13.4654C40.1788 13.1708 37.8372 13.239 36.117 13.5878C35.9242 13.3712 35.7479 13.3268 35.4746 13.207Z" fill="#EF9F27"/>
<path d="M42.6471 13.0986C43.6289 13.4244 44.6604 13.7676 45.5761 14.2568C45.8009 14.6071 45.8472 14.6626 45.889 15.0733C44.6086 14.43 43.2785 13.8922 41.9121 13.4653C42.181 13.309 42.3628 13.2241 42.6471 13.0986Z" fill="#FED63A"/>
<path d="M33.7067 13.8766C34.2841 13.6444 34.8902 13.4263 35.4742 13.207C35.7475 13.3269 35.9238 13.3713 36.1166 13.5879C35.364 13.8373 34.2709 14.169 33.5822 14.4869L33.7067 13.8766Z" fill="#FED63A"/>
<path d="M26.8867 22.9608C27.3121 18.7067 30.1165 15.7833 33.7067 13.8765L33.5821 14.4868C32.0956 15.388 31.4466 15.8397 30.2168 17.0433C29.6151 17.6506 29.1038 18.2573 28.7248 19.0336C27.6107 20.7453 27.473 21.9584 27.2967 23.9399C27.2669 23.7505 27.1842 22.7426 27.1953 22.7723C27.0035 22.9328 27.0663 22.9064 27.0278 23.2504L26.8867 22.9608Z" fill="#EF9F27"/>
<path d="M46.8906 16.7681C47.2543 17.0333 47.9353 17.6185 48.3441 17.6L48.4884 17.4833L48.4818 17.2481C48.6802 17.4672 49.7557 18.7586 49.9 18.8463L50.0433 19.3913C49.1353 19.9536 48.0256 18.182 47.6025 17.6144C47.3138 17.2272 47.176 17.337 46.8906 16.7681Z" fill="#FED63A"/>
<path d="M26.8874 22.9611L27.0285 23.2507C27.067 22.9067 27.0042 22.9331 27.196 22.7726C27.1849 22.7429 27.2676 23.7508 27.2974 23.9402C27.2797 24.8349 27.2235 26.0286 27.304 26.9131C27.3425 27.3476 27.9354 28.3591 27.8417 28.8245L27.7337 28.8431C26.7552 27.0677 26.5855 24.9442 26.8874 22.9611Z" fill="#FDB706"/>
<path d="M28.7247 19.0338C29.1038 18.2574 29.6151 17.6508 30.2168 17.0435C30.1716 17.4509 30.0978 17.4757 30.2785 17.7737L30.4967 17.8303C30.1495 18.2309 29.4146 19.1712 28.9749 19.3098C28.8195 19.1927 28.8129 19.2042 28.7247 19.0338Z" fill="#FEDE52"/>
<path d="M43.4355 23.4704C44.2785 23.1746 45.2008 23.6199 45.4983 24.4662C45.7947 25.3124 45.3551 26.2408 44.5143 26.5425C43.6691 26.8457 42.7391 26.4011 42.4404 25.5506C42.1418 24.7001 42.5881 23.7675 43.4355 23.4704Z" fill="#FEF5E0"/>
<path d="M34.1876 23.2762C34.4873 23.2575 34.8157 23.239 35.1011 23.3529C35.5 23.5165 35.8173 23.8345 35.9815 24.2352C36.149 24.6545 36.1435 25.1241 35.9661 25.5396C35.6774 26.2214 35.3457 26.365 34.7209 26.6069C32.5148 26.656 32.3771 24.4176 34.1876 23.2762Z" fill="#FEF5E0"/>
<path d="M38.8825 23.4369C39.7046 23.2121 40.5542 23.6867 40.7977 24.5064C41.0423 25.3262 40.5906 26.1917 39.7817 26.4567C39.2396 26.634 38.6445 26.5025 38.228 26.1129C37.8103 25.7233 37.6362 25.137 37.7718 24.5812C37.9084 24.0254 38.3338 23.5874 38.8825 23.4369Z" fill="#FEF5E0"/>
<path d="M30.4496 56.911H31.4696V62.6485H30.4496V56.911ZM26.3101 63.7705H31.6736V64.578H26.3101V63.7705ZM26.3101 62.13H27.3216V64.238H26.3101V62.13ZM26.9561 58.441H27.7891V58.73C27.7891 59.1947 27.7041 59.6338 27.5341 60.0475C27.3641 60.4555 27.1148 60.8125 26.7861 61.1185C26.4575 61.4245 26.0523 61.6512 25.5706 61.7985L25.0861 61.008C25.3978 60.9117 25.6698 60.7842 25.9021 60.6255C26.1401 60.4668 26.3356 60.2883 26.4886 60.09C26.6473 59.886 26.7635 59.6707 26.8371 59.444C26.9165 59.2117 26.9561 58.9737 26.9561 58.73V58.441ZM27.1431 58.441H27.9676V58.73C27.9676 58.9567 28.0073 59.1777 28.0866 59.393C28.166 59.6083 28.285 59.8123 28.4436 60.005C28.6023 60.1977 28.7978 60.3677 29.0301 60.515C29.2681 60.6623 29.543 60.7813 29.8546 60.872L29.3786 61.6625C28.8913 61.5208 28.4805 61.3055 28.1461 61.0165C27.8175 60.7218 27.5681 60.379 27.3981 59.988C27.2281 59.597 27.1431 59.1777 27.1431 58.73V58.441ZM25.3326 57.846H29.5911V58.645H25.3326V57.846ZM26.9561 56.9535H27.9761V58.186H26.9561V56.9535ZM33.645 57.3785H38.541V58.1775H33.645V57.3785ZM32.8205 60.7105H39.884V61.535H32.8205V60.7105ZM35.8125 61.28H36.8325V64.731H35.8125V61.28ZM38.031 57.3785H39.034V58.067C39.034 58.3447 39.0283 58.6393 39.017 58.951C39.0113 59.257 38.9858 59.597 38.9405 59.971C38.9008 60.3393 38.83 60.7502 38.728 61.2035L37.7335 61.0845C37.8865 60.4385 37.9743 59.8747 37.997 59.393C38.0197 58.9113 38.031 58.4693 38.031 58.067V57.3785ZM42.5573 62.9885H49.6378V63.813H42.5573V62.9885ZM45.5833 61.4075H46.5948V63.4135H45.5833V61.4075ZM45.5833 58.5345H46.4758V58.7045C46.4758 59.0898 46.3993 59.4468 46.2463 59.7755C46.0933 60.1042 45.8723 60.3988 45.5833 60.6595C45.3 60.9202 44.9571 61.1383 44.5548 61.314C44.1525 61.484 43.6991 61.6058 43.1948 61.6795L42.8208 60.872C43.2741 60.8153 43.6708 60.719 44.0108 60.583C44.3565 60.4413 44.6455 60.2713 44.8778 60.073C45.1101 59.8747 45.2858 59.6593 45.4048 59.427C45.5238 59.1947 45.5833 58.9538 45.5833 58.7045V58.5345ZM45.7108 58.5345H46.6033V58.7045C46.6033 58.9538 46.6628 59.1947 46.7818 59.427C46.9008 59.6593 47.0765 59.8747 47.3088 60.073C47.5411 60.2713 47.8273 60.4413 48.1673 60.583C48.513 60.719 48.9096 60.8153 49.3573 60.872L48.9918 61.6795C48.4875 61.6058 48.0313 61.484 47.6233 61.314C47.221 61.1383 46.8753 60.9202 46.5863 60.6595C46.303 60.3988 46.0848 60.1042 45.9318 59.7755C45.7845 59.4468 45.7108 59.0898 45.7108 58.7045V58.5345ZM43.1693 58.016H49.0088V58.8235H43.1693V58.016ZM45.5833 57.03H46.5948V58.339H45.5833V57.03ZM56.0971 56.9025H57.0576V64.7225H56.0971V56.9025ZM54.9751 59.954H56.3351V60.77H54.9751V59.954ZM54.3461 57.0555H55.2811V64.3485H54.3461V57.0555ZM50.6061 62.0875H51.1416C51.4816 62.0875 51.8018 62.0818 52.1021 62.0705C52.4025 62.0592 52.6943 62.0393 52.9776 62.011C53.2666 61.977 53.5641 61.9317 53.8701 61.875L53.9551 62.6995C53.6435 62.7618 53.3375 62.81 53.0371 62.844C52.7425 62.878 52.4421 62.9007 52.1361 62.912C51.8301 62.9177 51.4986 62.9205 51.1416 62.9205H50.6061V62.0875ZM50.6061 57.829H53.4961V58.645H51.6091V62.4785H50.6061V57.829Z" fill="#222222"/>
</svg>
