<svg width="45" height="28" viewBox="0 0 45 28" fill="none" xmlns="http://www.w3.org/2000/svg">
<path d="M1.34547 3.03092C2.03777 2.97946 3.0198 3.00743 3.72545 3.0089L7.66005 3.01258L38.8935 3.01193C39.757 3.01102 40.6336 2.99829 41.4966 3.03203C41.8633 3.04637 42.148 3.1595 42.4377 3.37711C42.8311 3.67255 42.9218 4.07687 42.954 4.55614C43.0079 5.35488 42.9535 6.21196 42.9581 7.02227L42.9752 13.1169V22.3174C42.9732 23.4531 42.9696 24.6076 42.9969 25.7429C43.023 26.8439 42.9142 27.8378 41.5651 27.9266C39.5535 28.0287 37.0527 27.9691 35.0104 27.9716L8.74772 27.9852C6.47414 27.9867 4.20142 28.0125 1.92815 27.9923C1.39348 27.9872 0.345008 27.8509 0.203495 27.1893C-0.0661299 25.9283 0.0418306 24.4137 0.0431909 23.1067L0.0395133 16.8939L0.0460136 9.47835C0.0351318 7.99075 -0.0285968 6.49573 0.015182 5.00773C0.0475249 3.9086 0.277603 3.37883 1.34547 3.03092Z" fill="#60250E"/>
<path d="M0.579571 4.06182C1.0034 4.72386 1.02119 4.77674 1.65802 5.31312C3.6996 6.77294 5.71177 8.49088 7.73068 9.99509C8.15199 10.309 9.29201 11.2934 9.62279 11.4782C9.76561 11.5028 9.86813 11.54 9.9967 11.483C10.0279 11.3373 9.98063 11.2733 9.93206 11.116C11.9367 12.6596 13.9292 14.2188 15.9094 15.794C16.1958 14.5759 16.6793 14.4764 17.3675 13.5509C17.6814 13.129 17.8539 12.6024 18.2812 12.1203L18.47 12.1933C18.5431 12.3621 18.4986 12.3725 18.5231 12.5173C18.2681 12.9385 18.0121 13.3787 17.7175 13.7739C17.2461 14.4062 16.5717 14.8849 16.4045 15.698C16.2181 16.6045 16.7629 17.2439 17.2686 17.9262L17.3749 18.112C17.1821 18.0974 17.193 18.0646 17.0675 18.1489C17.0539 18.256 17.0428 18.3635 17.0342 18.4711C17.106 18.7019 17.18 18.9236 17.2279 19.1605C17.4195 20.0013 17.5861 20.4165 18.3196 20.9179C18.5514 21.0139 18.7951 21.077 19.0441 21.1068C19.4348 21.1497 20.4675 21.0593 20.7075 21.1119C22.8213 21.5765 24.2788 21.6593 25.3423 19.4428C25.4596 19.1978 25.8531 18.4933 26.0662 18.2585C26.4607 17.609 26.6138 17.3802 26.845 16.6429L27.3095 16.3404C27.7267 16.7384 28.3891 17.2101 28.8637 17.5691L31.5262 19.5695C34.4466 21.7527 37.5243 24.0082 40.3993 26.2429C40.8684 26.5772 41.5273 27.056 41.9742 27.4247C40.9122 27.4974 39.5535 27.4681 38.4724 27.4711L6.28301 27.4731L2.73783 27.4863C2.24135 27.4827 1.57782 27.4989 1.10033 27.4539C1.08058 27.4489 1.01177 27.4115 0.990457 27.4009L1.02637 27.357C0.98718 27.1822 0.956702 27.2035 0.800428 27.0514C0.709898 27.0287 0.725062 27.0257 0.642341 26.9717C0.44521 26.6096 0.542291 23.5794 0.537707 22.9108L0.517806 12.8051L0.523246 7.46856C0.523447 6.34069 0.47297 5.18373 0.579571 4.06182Z" fill="#FEFAF4"/>
<path d="M0.579571 4.06182C1.0034 4.72386 1.02119 4.77674 1.65802 5.31312C3.6996 6.77294 5.71177 8.49088 7.73068 9.99509C8.15199 10.309 9.29201 11.2934 9.62279 11.4782C9.76561 11.5028 9.86813 11.54 9.9967 11.483C10.0279 11.3373 9.98063 11.2733 9.93206 11.116C11.9367 12.6596 13.9292 14.2188 15.9094 15.794C16.1958 14.5759 16.6793 14.4764 17.3675 13.5509C17.6814 13.129 17.8539 12.6024 18.2812 12.1203L18.47 12.1933C18.5431 12.3621 18.4986 12.3725 18.5231 12.5173C18.2681 12.9385 18.0121 13.3787 17.7175 13.7739C17.2461 14.4062 16.5717 14.8849 16.4045 15.698C16.2181 16.6045 16.7629 17.2439 17.2686 17.9262L17.3749 18.112C17.1821 18.0974 17.193 18.0646 17.0675 18.1489C17.0539 18.256 17.0428 18.3635 17.0342 18.4711C16.9184 18.1873 15.9839 16.6283 15.7912 16.3818C15.2388 16.6076 11.6143 19.4973 10.9668 19.9852C9.00102 21.4452 7.04332 22.9153 5.09377 24.3965C4.23412 25.0415 3.04055 25.8747 2.24704 26.5308C2.00881 26.7106 1.263 27.262 1.10033 27.4539C1.08058 27.4489 1.01177 27.4115 0.990457 27.4009L1.02637 27.357C0.98718 27.1822 0.956702 27.2035 0.800428 27.0514C0.709898 27.0287 0.725062 27.0257 0.642341 26.9717C0.44521 26.6096 0.542291 23.5794 0.537707 22.9108L0.517806 12.8051L0.523246 7.46856C0.523447 6.34069 0.47297 5.18373 0.579571 4.06182Z" fill="#FAEFDF"/>
<path d="M9.93206 11.116C11.9367 12.6596 13.9292 14.2188 15.9094 15.794C16.1958 14.5759 16.6793 14.4764 17.3675 13.5509C17.6814 13.129 17.8539 12.6024 18.2812 12.1203L18.47 12.1933C18.5431 12.3621 18.4986 12.3725 18.5231 12.5173C18.2681 12.9385 18.0121 13.3787 17.7175 13.7739C17.2461 14.4062 16.5717 14.8849 16.4045 15.698C16.2181 16.6045 16.7629 17.2439 17.2686 17.9262L17.3749 18.112C17.1821 18.0974 17.193 18.0646 17.0675 18.1489C17.0539 18.256 17.0428 18.3635 17.0342 18.4711C16.9184 18.1873 15.9839 16.6283 15.7912 16.3818C15.2388 16.6076 11.6143 19.4973 10.9668 19.9852C9.00102 21.4452 7.04332 22.9153 5.09377 24.3965C4.23412 25.0415 3.04055 25.8747 2.24704 26.5308C2.00881 26.7106 1.263 27.262 1.10033 27.4539C1.08058 27.4489 1.01177 27.4115 0.990457 27.4009L1.02637 27.357C0.98718 27.1822 0.956702 27.2035 0.800428 27.0514C1.01126 26.8343 1.6424 26.3717 1.91888 26.1611L14.482 16.7368C14.7331 16.5348 15.1598 16.2581 15.4352 16.0672C13.536 14.491 11.5479 13.0224 9.62279 11.4782C9.76561 11.5028 9.86813 11.54 9.9967 11.483C10.0279 11.3373 9.98063 11.2733 9.93206 11.116Z" fill="#60250E"/>
<path d="M1.65802 5.31312C3.6996 6.77294 5.71177 8.49088 7.73068 9.99509C8.15199 10.309 9.29201 11.2934 9.62279 11.4782C11.5479 13.0224 13.536 14.491 15.4352 16.0672C15.1598 16.2581 14.7331 16.5348 14.482 16.7368C14.2383 16.3091 12.7887 15.197 12.3534 14.8173L4.21114 7.72122C3.55628 7.14105 2.01193 6.02935 1.65802 5.31312Z" fill="#E9C991"/>
<path d="M40.3993 26.2429C40.8684 26.5772 41.5273 27.056 41.9742 27.4247C40.9122 27.4974 39.5535 27.4681 38.4724 27.4711L6.28301 27.4731L2.73783 27.4863C2.24135 27.4827 1.57782 27.4989 1.10033 27.4539C1.263 27.262 2.00881 26.7106 2.24704 26.5308C2.34705 26.6156 2.40196 26.6585 2.54347 26.654C3.57784 26.6212 4.60284 26.5994 5.63776 26.604C11.5194 26.6414 17.4013 26.6116 23.2823 26.5141C27.0093 26.5 30.7358 26.4661 34.4623 26.4131C36.2613 26.4 38.0698 26.4323 39.8689 26.3899C40.1087 26.3843 40.2386 26.4136 40.3993 26.2429Z" fill="#E9C991"/>
<path d="M26.0662 18.2585L26.1559 18.2812L26.2612 18.2019C26.2254 18.8574 26.0294 19.067 25.7407 19.5806C24.4768 21.8275 23.1342 22.0992 20.7672 21.5164C20.0818 21.3477 18.8286 21.624 18.3196 20.9179C18.5514 21.0139 18.7951 21.077 19.0441 21.1068C19.4348 21.1497 20.4675 21.0593 20.7075 21.1119C22.8213 21.5765 24.2788 21.6593 25.3423 19.4428C25.4596 19.1978 25.8531 18.4933 26.0662 18.2585Z" fill="#E9C991"/>
<path d="M0.996249 3.74916C1.15701 3.64887 1.34809 3.51397 1.53545 3.51069C2.87879 3.48706 4.23774 3.49902 5.58018 3.50488L11.067 3.4816L29.173 3.48054L37.0064 3.4962C38.0225 3.48812 39.0386 3.48771 40.0548 3.49504C40.5359 3.49893 41.6084 3.43423 41.9878 3.7077C42.1178 4.29338 39.7837 5.89844 39.2991 6.27216L36.4698 8.47886C34.6542 9.88575 32.8471 11.3033 31.0476 12.7313C29.6808 13.8047 28.2763 14.8667 26.9398 15.9778C26.9221 15.5344 26.9241 14.889 26.7136 14.495C26.4324 14.342 26.3105 13.8708 25.9297 13.8123C25.8476 13.9299 25.8748 13.8956 25.8944 14.0824C26.9382 15.1844 26.4798 17.2176 25.5463 18.2125C24.8788 19.2539 24.4536 20.5922 23.1271 20.8881C22.3634 21.0583 21.6415 20.7568 20.8709 20.6478C20.095 20.5382 19.0785 20.823 18.414 20.3998C17.8807 20.0604 17.7778 19.415 17.6306 18.864C17.6465 19.0711 17.6678 19.1372 17.5845 19.3246C17.3988 19.4069 17.3541 19.3034 17.2279 19.1605C17.18 18.9236 17.106 18.7019 17.0342 18.4711C17.0428 18.3635 17.0539 18.256 17.0675 18.1489C17.193 18.0646 17.1821 18.0974 17.3749 18.112L17.2686 17.9262C16.7629 17.2439 16.2181 16.6045 16.4045 15.698C16.5717 14.8849 17.2461 14.4062 17.7175 13.7739C18.0121 13.3787 18.2681 12.9385 18.5231 12.5173C18.4986 12.3725 18.5431 12.3621 18.47 12.1933L18.2812 12.1203C17.8539 12.6024 17.6814 13.129 17.3675 13.5509C16.6793 14.4764 16.1958 14.5759 15.9094 15.794C13.9292 14.2188 11.9367 12.6596 9.93206 11.116C9.37276 10.6183 8.59023 10.047 7.98736 9.57435C6.60256 8.48522 5.2101 7.40604 3.80993 6.33685C2.70846 5.48594 1.75213 4.94607 0.996249 3.74916Z" fill="#FEFAF4"/>
<path d="M19.5143 11.289C20.0766 11.0922 20.9802 11.2572 21.5886 11.2126C22.1271 11.1732 22.5639 11.0899 23.109 11.0951C23.2929 11.2134 23.4919 11.2706 23.5402 11.4069C23.4264 11.5055 23.4228 11.5031 23.2939 11.5638C23.8994 11.7234 24.0999 12.0447 24.3433 12.5749C24.4974 12.9221 24.5705 13.0307 24.8158 13.3283C25.2007 13.6456 25.4999 13.8077 25.8944 14.0824C26.9382 15.1844 26.4798 17.2176 25.5463 18.2125C24.8788 19.2539 24.4536 20.5922 23.1271 20.8881C22.3634 21.0583 21.6415 20.7568 20.8709 20.6478C20.095 20.5382 19.0785 20.823 18.414 20.3998C17.8807 20.0604 17.7778 19.415 17.6306 18.864C17.6465 19.0711 17.6678 19.1372 17.5845 19.3246C17.3988 19.4069 17.3541 19.3034 17.2279 19.1605C17.18 18.9236 17.106 18.7019 17.0342 18.4711C17.0428 18.3635 17.0539 18.256 17.0675 18.1489C17.193 18.0646 17.1821 18.0974 17.3749 18.112L17.2686 17.9262C16.7629 17.2439 16.2181 16.6045 16.4045 15.698C16.5717 14.8849 17.2461 14.4062 17.7175 13.7739C18.0121 13.3787 18.2681 12.9385 18.5231 12.5173C18.4986 12.3725 18.5431 12.3621 18.47 12.1933L18.2812 12.1203C18.6607 11.7086 18.9678 11.4445 19.5143 11.289Z" fill="#723314"/>
<path d="M19.5143 11.289C20.0766 11.0922 20.9802 11.2572 21.5886 11.2126C22.1271 11.1732 22.5639 11.0899 23.109 11.0951C23.2929 11.2134 23.4919 11.2706 23.5402 11.4069C23.4264 11.5055 23.4228 11.5031 23.2939 11.5638C23.8994 11.7234 24.0999 12.0447 24.3433 12.5749C24.4974 12.9221 24.5705 13.0307 24.8158 13.3283C25.2007 13.6456 25.4999 13.8077 25.8944 14.0824C26.9382 15.1844 26.4798 17.2176 25.5463 18.2125L25.4314 18.2171C25.3352 18.3549 25.2969 18.4635 25.1604 18.4953L25.1528 18.4024L25.0818 18.4145C24.8878 18.3171 24.9528 18.3751 24.8339 18.1959C25.368 17.1399 25.4425 16.4459 25.2919 15.2571L25.1851 14.9758C24.9281 14.9824 24.9387 14.9753 24.7412 15.1187L24.6435 14.7354C24.4642 14.3925 24.2843 14.1244 24.0087 13.8511C23.8163 13.8082 23.7841 13.7668 23.6218 13.8294L23.5785 13.887C23.38 13.7168 23.1856 13.5955 22.9674 13.4525C22.108 13.2261 20.83 13.0686 20.0603 13.597C19.8423 13.5639 19.7859 13.5301 19.6664 13.3807L19.743 13.3111L19.7284 13.2137C19.6094 13.0953 19.5302 13.1126 19.3428 13.0739C18.5377 13.5812 18.6467 13.6845 18.1135 14.3319C17.4496 15.6005 17.489 16.3737 17.8906 17.7211C17.6645 17.6585 17.395 17.7141 17.2686 17.9262C16.7629 17.2439 16.2181 16.6045 16.4045 15.698C16.5717 14.8849 17.2461 14.4062 17.7175 13.7739C18.0121 13.3787 18.2681 12.9385 18.5231 12.5173C18.4986 12.3725 18.5431 12.3621 18.47 12.1933L18.2812 12.1203C18.6607 11.7086 18.9678 11.4445 19.5143 11.289Z" fill="#FED16A"/>
<path d="M19.8877 12.7503C20.8474 12.4184 21.2609 12.3014 22.2767 12.4425C22.8037 12.6101 23.2289 12.7381 23.7039 13.0369C23.8319 13.1371 24.0022 13.2619 24.1186 13.3694C24.0032 13.631 24.0707 13.5603 23.8727 13.7113L24.0087 13.8511C23.8163 13.8082 23.7841 13.7668 23.6218 13.8294L23.5785 13.887C23.38 13.7168 23.1856 13.5955 22.9674 13.4525C22.108 13.2261 20.83 13.0686 20.0603 13.597C19.8423 13.5639 19.7859 13.5301 19.6664 13.3807L19.743 13.3111L19.7284 13.2137C19.6094 13.0953 19.5302 13.1126 19.3428 13.0739L19.537 12.929C19.6577 12.8775 19.7719 12.8125 19.8877 12.7503Z" fill="#723314"/>
<path d="M20.4645 12.9887C21.2578 12.8435 22.0042 12.8504 22.7881 13.0429C22.9201 13.1951 23.0309 13.2449 22.9674 13.4525C22.108 13.2261 20.83 13.0686 20.0603 13.597C19.8423 13.5639 19.7859 13.5301 19.6664 13.3807L19.743 13.3111C20.0306 13.1515 20.1538 13.1017 20.4645 12.9887Z" fill="#A35C28"/>
<path d="M19.8877 12.7503C20.8474 12.4184 21.2609 12.3014 22.2767 12.4425L22.3347 12.649C22.113 12.9674 20.6505 12.5976 20.3255 12.8323C20.4316 12.9006 20.3907 12.8767 20.5331 12.8875L20.4645 12.9887C20.1538 13.1017 20.0306 13.1515 19.743 13.3111L19.7284 13.2137C19.6094 13.0953 19.5302 13.1126 19.3428 13.0739L19.537 12.929C19.6577 12.8775 19.7719 12.8125 19.8877 12.7503Z" fill="#652A0F"/>
<path d="M23.1276 13.1845C23.2344 13.0234 23.514 13.0532 23.7039 13.0369C23.8319 13.1371 24.0022 13.2619 24.1186 13.3694C24.0032 13.631 24.0707 13.5603 23.8727 13.7113L24.0087 13.8511C23.8163 13.8082 23.7841 13.7668 23.6218 13.8294L23.5785 13.887C23.38 13.7168 23.1856 13.5955 22.9674 13.4525C23.0309 13.2449 22.9201 13.1951 22.7881 13.0429C22.8984 13.0868 23.0223 13.1327 23.1276 13.1845Z" fill="#52200B"/>
<path d="M22.7881 13.0429C22.8984 13.0868 23.0223 13.1327 23.1276 13.1845L23.8727 13.7113L24.0087 13.8511C23.8163 13.8082 23.7841 13.7668 23.6218 13.8294L23.5785 13.887C23.38 13.7168 23.1856 13.5955 22.9674 13.4525C23.0309 13.2449 22.9201 13.1951 22.7881 13.0429Z" fill="#8E4A1F"/>
<path d="M19.5143 11.289C20.0766 11.0922 20.9802 11.2572 21.5886 11.2126C22.1271 11.1732 22.5639 11.0899 23.109 11.0951C23.2929 11.2134 23.4919 11.2706 23.5402 11.4069C23.4264 11.5055 23.4228 11.5031 23.2939 11.5638C22.6722 11.5178 22.0823 11.6211 21.4551 11.6447C20.9839 11.6626 20.3576 11.5929 19.9077 11.6574C19.6854 11.6588 19.4175 11.7182 19.2331 11.6007C19.1785 11.6539 19.2052 11.6441 19.1667 11.6542C19.2315 11.5068 19.3928 11.4603 19.5143 11.289Z" fill="#60250E"/>
<path d="M19.8877 12.7503C20.1518 12.4229 21.1267 12.3469 21.3973 12.0752C21.1949 12.0968 20.9946 12.1721 20.8373 12.1134L20.843 12.0711C21.653 11.761 22.5861 12.1261 23.2914 12.4951C23.4853 12.5966 23.8606 12.5996 24.0158 12.747C23.8939 12.7656 23.8314 12.7594 23.711 12.7544L23.6818 12.8001C23.972 12.9594 24.2752 13.3048 24.376 13.6199L24.1186 13.3694C24.0022 13.2619 23.8319 13.1371 23.7039 13.0369C23.2289 12.7381 22.8037 12.6101 22.2767 12.4425C21.2609 12.3014 20.8474 12.4184 19.8877 12.7503Z" fill="#FED16A"/>
<path d="M24.1186 13.3694L24.376 13.6199C24.583 13.9077 24.8037 14.2021 24.9861 14.5046C24.7649 14.5057 24.8012 14.4688 24.6833 14.5829L24.6435 14.7354C24.4642 14.3925 24.2843 14.1244 24.0087 13.8511L23.8727 13.7113C24.0707 13.5603 24.0032 13.631 24.1186 13.3694Z" fill="#60250E"/>
<path d="M18.2812 12.1203C18.6607 11.7086 18.9678 11.4445 19.5143 11.289C19.3928 11.4603 19.2315 11.5068 19.1667 11.6542C19.2052 11.6441 19.1785 11.6539 19.2331 11.6007C19.4175 11.7182 19.6854 11.6588 19.9077 11.6574C19.2163 11.8166 18.9481 11.9151 18.5231 12.5173C18.4986 12.3725 18.5431 12.3621 18.47 12.1933L18.2812 12.1203Z" fill="#723314"/>
<path d="M18.1135 14.3319C18.3256 13.7294 18.2968 13.32 19.0255 12.9898C19.2182 12.9025 19.3324 12.9217 19.537 12.929L19.3428 13.0739C18.5377 13.5812 18.6467 13.6845 18.1135 14.3319Z" fill="#FED16A"/>
<path d="M24.6435 14.7354L24.6833 14.5829C24.8012 14.4688 24.7649 14.5057 24.9861 14.5046L25.1851 14.9758C24.9281 14.9824 24.9387 14.9753 24.7412 15.1187L24.6435 14.7354Z" fill="#60250E"/>
<path d="M18.1135 14.3319C18.6467 13.6845 18.5377 13.5812 19.3428 13.0739C19.5302 13.1126 19.6094 13.0953 19.7284 13.2137L19.743 13.3111L19.6664 13.3807C19.7859 13.5301 19.8423 13.5639 20.0603 13.597L19.9174 13.6764C19.3081 14.0067 18.9179 14.2218 18.715 14.9622C18.5578 15.5359 18.4901 16.405 18.4256 17.0126L18.4457 17.0919C18.5607 17.3989 18.658 17.6338 18.9171 17.8519L19.0435 18.0545C19.9654 18.9408 20.0905 19.2716 21.5316 19.2539C22.1432 19.2463 22.647 19.1276 23.1745 18.7771C23.443 18.7352 23.6314 18.6398 23.8138 18.7292C24.0309 18.5681 24.3166 18.1746 24.4627 17.9423C24.9186 17.1636 25.1292 16.4242 24.8662 15.544C24.837 15.4031 24.7851 15.2571 24.7412 15.1187C24.9387 14.9753 24.9281 14.9824 25.1851 14.9758L25.2919 15.2571C25.4425 16.4459 25.368 17.1399 24.8339 18.1959C24.9528 18.3751 24.8878 18.3171 25.0818 18.4145L25.1528 18.4024L25.1604 18.4953C25.2969 18.4635 25.3352 18.3549 25.4314 18.2171L25.5463 18.2125C24.8788 19.2539 24.4536 20.5922 23.1271 20.8881C22.3634 21.0583 21.6415 20.7568 20.8709 20.6478C20.095 20.5382 19.0785 20.823 18.414 20.3998C17.8807 20.0604 17.7778 19.415 17.6306 18.864C17.6465 19.0711 17.6678 19.1372 17.5845 19.3246C17.3988 19.4069 17.3541 19.3034 17.2279 19.1605C17.18 18.9236 17.106 18.7019 17.0342 18.4711C17.0428 18.3635 17.0539 18.256 17.0675 18.1489C17.193 18.0646 17.1821 18.0974 17.3749 18.112L17.2686 17.9262C17.395 17.7141 17.6645 17.6585 17.8906 17.7211C17.489 16.3737 17.4496 15.6005 18.1135 14.3319Z" fill="#60250E"/>
<path d="M17.2686 17.9262C17.395 17.7141 17.6645 17.6585 17.8906 17.7211C18.8067 19.4953 20.2096 20.2028 22.1619 20.0715L22.5689 19.968C23.2243 19.7311 23.6405 19.4862 24.1735 19.0418C24.4596 18.7372 24.6123 18.5463 24.8339 18.1959C24.9528 18.3751 24.8878 18.3171 25.0818 18.4145L25.1528 18.4024L25.1604 18.4953C25.2969 18.4635 25.3352 18.3549 25.4314 18.2171L25.5463 18.2125C24.8788 19.2539 24.4536 20.5922 23.1271 20.8881C22.3634 21.0583 21.6415 20.7568 20.8709 20.6478C20.095 20.5382 19.0785 20.823 18.414 20.3998C17.8807 20.0604 17.7778 19.415 17.6306 18.864C17.6465 19.0711 17.6678 19.1372 17.5845 19.3246C17.3988 19.4069 17.3541 19.3034 17.2279 19.1605C17.18 18.9236 17.106 18.7019 17.0342 18.4711C17.0428 18.3635 17.0539 18.256 17.0675 18.1489C17.193 18.0646 17.1821 18.0974 17.3749 18.112L17.2686 17.9262Z" fill="#FFD95E"/>
<path d="M24.1735 19.0418C24.3614 19.2307 24.2415 19.3832 24.2153 19.6397C23.708 19.9316 23.6133 20.0745 23.0334 20.2634C22.8364 20.2048 22.7589 20.1887 22.579 20.0862L22.5689 19.968C23.2243 19.7311 23.6405 19.4862 24.1735 19.0418Z" fill="#FED16A"/>
<path d="M17.0342 18.4711C17.0428 18.3635 17.0539 18.256 17.0675 18.1489C17.193 18.0646 17.1821 18.0974 17.3749 18.112C17.4913 18.3873 17.5803 18.5681 17.6306 18.864C17.6465 19.0711 17.6678 19.1372 17.5845 19.3246C17.3988 19.4069 17.3541 19.3034 17.2279 19.1605C17.18 18.9236 17.106 18.7019 17.0342 18.4711Z" fill="#52200B"/>
<path d="M24.8339 18.1959C24.9528 18.3751 24.8878 18.3171 25.0818 18.4145C24.8153 18.7857 24.6002 19.4215 24.2153 19.6397C24.2415 19.3832 24.3614 19.2307 24.1735 19.0418C24.4596 18.7372 24.6123 18.5463 24.8339 18.1959Z" fill="#FED16A"/>
<path d="M22.1619 20.0715L22.5689 19.968L22.579 20.0862C22.7589 20.1887 22.8364 20.2048 23.0334 20.2634C22.7704 20.3321 22.5075 20.4104 22.248 20.3129C22.1437 20.1594 22.1639 20.2397 22.1619 20.0715Z" fill="#FED16A"/>
<path d="M18.6566 18.1246L18.7134 17.9777C18.8472 17.9267 18.8596 17.9747 19.0435 18.0545C19.9654 18.9408 20.0905 19.2716 21.5316 19.2539C22.1432 19.2463 22.647 19.1276 23.1745 18.7771C23.443 18.7352 23.6314 18.6398 23.8138 18.7292C22.6072 19.9983 20.3962 19.8347 19.1383 18.7231C18.9634 18.5686 18.7942 18.3161 18.6566 18.1246Z" fill="#A35C28"/>
<path d="M18.0919 16.9318C17.9927 16.4162 18.009 15.8849 18.1397 15.3763C18.3716 14.5062 18.8861 13.8299 19.6664 13.3807C19.7859 13.5301 19.8423 13.5639 20.0603 13.597L19.9174 13.6764C19.3081 14.0067 18.9179 14.2218 18.715 14.9622C18.5578 15.5359 18.4901 16.405 18.4256 17.0126L18.0919 16.9318Z" fill="#8E4A1F"/>
<path d="M18.0919 16.9318L18.4256 17.0126L18.4457 17.0919C18.5607 17.3989 18.658 17.6338 18.9171 17.8519L19.0435 18.0545C18.8596 17.9747 18.8472 17.9267 18.7134 17.9777L18.6566 18.1246C18.4079 17.8161 18.2167 17.303 18.0919 16.9318Z" fill="#8E4A1F"/>
<path d="M24.7412 15.1187C24.9387 14.9753 24.9281 14.9824 25.1851 14.9758L25.2919 15.2571C25.1538 15.4511 25.1276 15.5692 24.8662 15.544C24.837 15.4031 24.7851 15.2571 24.7412 15.1187Z" fill="#52200B"/>
<path d="M20.9322 13.4825C22.0782 13.8431 22.7694 13.3696 23.8727 14.6203L23.8284 14.7683L23.7674 14.7698L23.6521 14.593C23.6087 14.7238 23.7181 15.0364 23.7589 15.1834C24.1412 16.5581 23.904 17.3267 22.6359 18.0433C22.0757 18.3595 21.0861 18.4453 20.4631 18.258C19.8951 18.0868 19.2641 17.3454 18.9703 16.8414C18.9004 16.7217 18.8508 16.3995 18.8323 16.2545C19.078 15.7106 18.8178 15.0157 19.2737 14.5915C19.5456 14.3385 19.8773 14.1713 20.1594 13.9006C20.44 13.6739 20.5793 13.5952 20.9322 13.4825Z" fill="#E9C991"/>
<path d="M20.2986 15.2687C20.4771 15.2046 20.6764 15.242 20.8195 15.3667C20.9627 15.4915 21.0274 15.6839 20.9888 15.8702C20.9501 16.0561 20.8141 16.2071 20.6331 16.2641C20.361 16.35 20.0703 16.202 19.9792 15.9308C19.8881 15.6596 20.0301 15.3652 20.2986 15.2687Z" fill="#723314"/>
<path d="M22.5654 14.4001C22.8218 14.3314 23.0863 14.4794 23.1629 14.7344C23.2395 14.9895 23.1004 15.2591 22.8485 15.3435C22.6782 15.4006 22.4908 15.3602 22.3593 15.2384C22.2274 15.1167 22.1724 14.9329 22.2153 14.7582C22.2581 14.5839 22.3921 14.4466 22.5654 14.4001Z" fill="#8E4A1F"/>
<path d="M21.1431 17.0858C21.2968 17.0252 21.4712 17.052 21.5996 17.1565C21.7276 17.2606 21.7901 17.4262 21.7629 17.5893C21.7352 17.7524 21.6223 17.8883 21.4666 17.9449C21.2313 18.0302 20.971 17.91 20.8826 17.6752C20.794 17.4403 20.9101 17.1777 21.1431 17.0858Z" fill="#8E4A1F"/>
<path d="M22.6601 16.5308C22.8243 16.4641 23.0122 16.5384 23.0868 16.6995C23.1614 16.8611 23.0969 17.0525 22.9397 17.1353C22.8309 17.1924 22.6999 17.1848 22.5981 17.1156C22.4969 17.0469 22.4415 16.9272 22.4541 16.805C22.4672 16.6823 22.5463 16.5773 22.6601 16.5308Z" fill="#60250E"/>
<path d="M20.7419 14.1102C20.8832 14.0632 21.0359 14.1375 21.0868 14.2779C21.1378 14.4178 21.0684 14.5733 20.9303 14.6284C20.8371 14.6657 20.7311 14.6491 20.6535 14.5854C20.576 14.5213 20.5393 14.4203 20.5577 14.3218C20.5761 14.2228 20.6467 14.1415 20.7419 14.1102Z" fill="#723314"/>
<path d="M18.8323 16.2545C18.8508 16.3995 18.9004 16.7217 18.9703 16.8414C19.2641 17.3454 19.8951 18.0868 20.4631 18.258C21.0861 18.4453 22.0757 18.3595 22.6359 18.0433C23.904 17.3267 24.1412 16.5581 23.7589 15.1834C23.7181 15.0364 23.6087 14.7238 23.6521 14.593L23.7674 14.7698L23.8284 14.7683L23.8727 14.6203C24.1145 14.8577 24.2652 16.0394 24.2788 16.3884C24.3261 17.6469 22.9463 18.9362 21.6959 18.8559C20.2719 18.8044 20.0867 18.9983 19.285 17.7575C19.1585 17.5358 19.0159 17.3196 18.8781 17.1045C18.7988 16.7702 18.7666 16.5889 18.8323 16.2545Z" fill="#D99547"/>
<path d="M23.5785 13.887L23.6218 13.8294C23.7841 13.7668 23.8163 13.8082 24.0087 13.8511C24.2843 14.1244 24.4642 14.3925 24.6435 14.7354L24.7412 15.1187C24.7851 15.2571 24.837 15.4031 24.8662 15.544C25.1292 16.4242 24.9186 17.1636 24.4627 17.9423L24.3362 17.8232C24.4445 17.606 24.5916 16.2152 24.5941 15.9207C24.6017 14.9617 24.1941 14.5147 23.5785 13.887Z" fill="#A35C28"/>
<path d="M18.4457 17.0919C18.4873 16.9535 18.4633 16.9469 18.5565 16.8757C18.6794 16.9788 18.7419 17.0192 18.8781 17.1045C19.0159 17.3196 19.1585 17.5358 19.285 17.7575C19.1334 17.8585 19.108 17.8474 18.9171 17.8519C18.658 17.6338 18.5607 17.3989 18.4457 17.0919Z" fill="#60250E"/>
<path d="M24.3362 17.8232L24.4627 17.9423C24.3166 18.1746 24.0309 18.5681 23.8138 18.7292C23.6314 18.6398 23.443 18.7352 23.1745 18.7771C23.5271 18.5413 24.0536 18.1302 24.3362 17.8232Z" fill="#8E4A1F"/>
<path d="M23.109 11.0951C24.4002 11.2429 24.4551 12.1279 25.1171 12.9664C25.5921 13.5681 26.4037 13.5981 26.7136 14.495C26.4324 14.342 26.3105 13.8708 25.9297 13.8123C25.8476 13.9299 25.8748 13.8956 25.8944 14.0824C25.4999 13.8077 25.2007 13.6456 24.8158 13.3283C24.5705 13.0307 24.4974 12.9221 24.3433 12.5749C24.0999 12.0447 23.8994 11.7234 23.2939 11.5638C23.4228 11.5031 23.4264 11.5055 23.5402 11.4069C23.4919 11.2706 23.2929 11.2134 23.109 11.0951Z" fill="#723314"/>
<path d="M24.3433 12.5749C24.3397 12.3883 24.3004 12.2611 24.3951 12.1423C24.6173 12.2289 24.9589 12.9553 25.0637 13.1821C24.9584 13.2849 24.9498 13.2791 24.8158 13.3283C24.5705 13.0307 24.4974 12.9221 24.3433 12.5749Z" fill="#60250E"/>
<path d="M41.946 4.78749C42.1001 4.56967 42.2961 4.27585 42.4608 4.0751C42.548 5.3117 42.481 7.36215 42.482 8.65552L42.5097 23.441C42.5107 24.2864 42.5717 26.2737 42.3898 26.9868L42.3283 27.0126C42.088 26.8994 41.4296 26.4242 41.2568 26.2348C39.753 25.1798 38.2275 23.9748 36.754 22.8709L28.3886 16.6348C28.1443 16.4596 27.8808 16.248 27.6395 16.0631C30.8149 13.3851 34.2834 10.9108 37.5207 8.29695C38.5097 7.49856 39.627 6.57962 40.6553 5.86193C40.9752 5.54144 41.5147 5.2355 41.946 4.78749Z" fill="#FAEFDF"/>
<path d="M41.946 4.78749C42.1001 4.56967 42.2961 4.27585 42.4608 4.0751C42.548 5.3117 42.481 7.36215 42.482 8.65552L42.5097 23.441C42.5107 24.2864 42.5717 26.2737 42.3898 26.9868L42.3283 27.0126C42.088 26.8994 41.4296 26.4242 41.2568 26.2348C41.6064 25.9858 41.5747 23.2617 41.5858 22.7699C41.6114 20.972 41.6477 19.1741 41.6946 17.3762L42.018 8.50224C42.0397 7.77829 42.2855 5.22762 41.946 4.78749Z" fill="#E9C991"/>
<path d="M40.6553 5.86193C40.4457 6.35402 39.3172 7.2215 38.8835 7.60042L35.6728 10.3691C33.7383 12.0314 31.8658 13.7643 29.8939 15.3844C29.6592 15.5773 28.4708 16.5096 28.3886 16.6348C28.1443 16.4596 27.8808 16.248 27.6395 16.0631C30.8149 13.3851 34.2834 10.9108 37.5207 8.29695C38.5097 7.49856 39.627 6.57962 40.6553 5.86193Z" fill="#E9C991"/>
<circle cx="41" cy="4" r="3.75" fill="#E33232" stroke="#5D3300" stroke-width="0.5"/>
</svg>
