<svg width="83" height="77" viewBox="0 0 83 77" fill="none" xmlns="http://www.w3.org/2000/svg">
<rect x="0.425" y="0.425" width="81.6" height="75.65" rx="9.575" fill="white"/>
<rect x="0.425" y="0.425" width="81.6" height="75.65" rx="9.575" stroke="#FAEFDF" stroke-width="0.85"/>
<path d="M55.0175 48.5003H27.233C26.7728 48.5003 26.4017 48.1292 26.4017 47.6691V13.8313C26.4017 13.3711 26.7728 13 27.233 13H55.0175C55.4777 13 55.8488 13.3711 55.8488 13.8313V47.6691C55.8488 48.1292 55.4777 48.5003 55.0175 48.5003Z" fill="#FFD95E"/>
<path d="M30.3622 19.1095C30.9708 18.8394 31.6685 19.1244 32.3335 19.1362C33.0786 19.1511 33.803 18.8156 34.5482 18.8572C35.2815 18.8958 35.9554 19.2936 36.6857 19.3559C37.603 19.4301 38.4758 18.97 39.3872 18.8542C40.6846 18.688 42.0146 19.2194 43.2971 18.9492M30.3355 24.5928C30.8521 24.4533 31.4043 24.4533 31.9208 24.5869C32.4077 24.7145 32.8679 24.958 33.3696 24.9698C34.0108 24.9847 34.5957 24.6165 35.2221 24.4859C36.7183 24.1712 38.3066 25.2103 39.7524 24.7175M44.2501 24.6581C45.1199 24.3701 46.058 24.7145 46.9724 24.7442C47.4058 24.759 47.8363 24.6997 48.2638 24.6433C48.8071 24.572 49.3533 24.4978 49.8966 24.4265M30.383 29.1112C31.051 28.9955 31.7397 28.8767 32.4018 29.0222C32.7788 29.1053 33.141 29.2715 33.5269 29.2775C33.9633 29.2834 34.373 29.0875 34.7976 28.9865C35.372 28.8507 35.9741 28.8911 36.5254 29.1023M40.7261 29.2775C40.7261 29.2775 41.2783 28.8084 42.736 29.1172C43.493 29.2775 44.2857 29.4259 45.0427 29.2567C45.3396 29.1914 45.6216 29.0667 45.9185 29.0044C46.2451 28.939 46.5805 28.948 46.913 28.9569C47.4533 28.9747 47.9966 28.9895 48.5369 29.0073M30.2197 33.8731C31.1282 33.2734 32.3543 33.9592 33.423 33.7484C33.9129 33.6505 34.3522 33.3655 34.8421 33.2764C35.4447 33.1665 36.0533 33.3625 36.6619 33.4367C37.039 33.4842 37.419 33.4812 37.799 33.4812C38.1938 33.4812 38.5916 33.4812 38.9865 33.4783C40.3254 33.4753 41.6732 33.4723 42.9824 33.1992M30.0238 38.1689C30.7036 37.9076 31.4251 37.6523 32.1435 37.7651C32.8322 37.875 33.4735 38.3173 34.1652 38.2283C34.4443 38.1926 34.7055 38.068 34.9697 37.97C35.5605 37.7473 36.1899 37.6375 36.8193 37.6494M44.9507 38.2728C45.3307 37.8423 45.9838 37.8008 46.5508 37.8869C47.1179 37.973 47.6879 38.154 48.2519 38.0501C48.6022 37.9878 48.9229 37.8156 49.2732 37.7562C50.0154 37.6286 50.8258 37.9967 51.5116 37.679M30.0416 44.0203C30.478 43.578 31.2024 43.6136 31.8021 43.7828C32.4018 43.952 32.9955 44.2281 33.613 44.1628C34.1504 44.1064 34.6343 43.7947 35.1716 43.7294C35.7535 43.6551 36.3265 43.8748 36.8965 44.0144C37.6832 44.2103 38.5026 44.2578 39.3071 44.1598" stroke="#5D3300" stroke-miterlimit="10" stroke-linecap="round"/>
<path opacity="0.3" d="M55.8874 26.7742L42.2638 38.287L42.252 38.2959C41.9343 38.566 39.2565 43.7673 39.2565 43.7673C39.0309 44.3135 39.5356 44.8835 40.1204 44.747C40.1204 44.747 47.1653 42.6065 47.3612 42.4521L55.8488 35.4221L55.8874 26.7742Z" fill="#5D3300"/>
<path d="M38.7574 43.7354L39.4966 39.8256L40.0043 37.1329C40.1052 36.4442 40.0993 36.1651 40.3991 35.7406L42.5752 32.6531L49.2282 37.3407L47.0491 40.4312C46.871 40.6865 46.488 40.9418 45.8735 41.2684L43.5104 42.6518L40.0755 44.6646C39.4224 45.009 38.6505 44.4657 38.7574 43.7354Z" fill="#FFECB3"/>
<path d="M40.076 44.664L42.9201 42.9956C42.9201 42.9956 41.6524 43.144 40.6549 42.4404C39.6574 41.7368 39.3695 40.4929 39.3695 40.4929L38.7549 43.7318C38.651 44.4651 39.4229 45.0084 40.076 44.664Z" fill="#616161"/>
<path d="M55.8489 23.7583L53.1384 21.8494L42.0502 37.5867C42.0502 37.5867 41.973 38.7742 42.7923 39.3501C43.6117 39.9261 44.7606 39.4956 44.7606 39.4956L55.8489 23.7583Z" fill="#FFC107"/>
<path d="M57.8203 25.1479L47.0319 40.4548C45.0042 41.2801 44.7845 39.4603 44.7845 39.4603L55.8491 23.7585L57.8203 25.1479Z" fill="#FFA000"/>
<path d="M53.138 21.8462L42.0735 37.5479C42.0735 37.5479 39.6628 37.9665 40.411 35.7221L51.1667 20.4568L53.138 21.8462Z" fill="#FDD835"/>
<path opacity="0.2" d="M51.1672 20.4597C51.1672 20.4597 52.699 22.051 53.8836 22.8941C56.1517 24.5061 57.8201 25.1474 57.8201 25.1474L57.4995 25.6046C56.9058 25.4858 55.3769 25.0821 53.7144 23.9124C52.0429 22.7338 51.1286 21.4602 50.8109 20.9644L51.1672 20.4597Z" fill="#4E342E"/>
<path d="M42.0949 38.0324L42.0503 37.5871L41.6674 37.5811L52.8922 21.6746L53.388 22.0249L42.0949 38.0324Z" fill="#F19534"/>
<path d="M44.7602 39.4959L44.306 39.6117L55.3201 23.9812L55.8188 24.3315L44.8909 39.8403L44.7602 39.4959Z" fill="#D1762C"/>
<path d="M52.8265 18.1056L54.774 22.1936L59.4765 22.7933L61.7179 19.6791C62.2939 18.8627 62.2256 17.5802 60.0643 16.0572L58.7611 15.1398C56.8937 13.8217 55.6409 14.178 55.065 14.9914L52.8265 18.1056Z" fill="#EF5350"/>
<path d="M58.5299 24.9609C58.426 25.1064 58.2597 25.1954 58.0816 25.1954C58.0816 25.1954 56.1608 24.9549 54.0352 23.4557C51.9066 21.9565 51.0041 20.294 51.0041 20.294C50.9447 20.1248 50.9715 19.9378 51.0754 19.7923L52.6547 17.5509C52.72 17.4559 52.824 17.3965 52.9397 17.3876C52.9783 17.3846 53.0169 17.3846 53.0585 17.3817C53.2129 17.3787 53.3524 17.4678 53.4207 17.6073C53.4207 17.6073 54.5874 19.1481 56.2736 20.3356C57.9599 21.5231 59.8629 22.0545 59.8629 22.0545C60.0172 22.0693 60.1508 22.1673 60.1983 22.3157V22.3187C60.2369 22.4345 60.2191 22.5621 60.1479 22.6631L58.5299 24.9609Z" fill="#94D1E0"/>
<path d="M61.8102 18.3573C62.1304 17.9029 61.147 16.6587 59.6137 15.5783C58.0805 14.4979 56.578 13.9903 56.2578 14.4447C55.9376 14.899 56.9211 16.1432 58.4543 17.2236C59.9876 18.3041 61.4901 18.8116 61.8102 18.3573Z" fill="#FF8383"/>
<path d="M53.1563 19.2285C54.1301 20.5051 55.5373 21.4462 57.087 21.8648C57.1879 21.8915 57.3868 21.8974 57.4284 21.7994C57.4581 21.7252 57.4284 21.553 57.2146 21.461C56.4427 21.1285 55.5521 20.5585 54.3735 19.4957C53.1949 18.4329 52.8624 17.7233 52.6784 17.9133C52.524 18.0737 52.9693 18.9851 53.1563 19.2285ZM54.617 21.4105C54.9257 21.5887 54.5427 22.0874 53.474 21.5382C52.711 21.1463 52.0401 20.4754 51.8412 19.6412C51.8174 19.5432 51.8026 19.3027 51.9006 19.2166C52.2123 18.9435 52.3102 19.4512 52.9485 20.1162C53.4413 20.6327 53.9935 21.0543 54.617 21.4105Z" fill="#B9E4EA"/>
<path d="M34.515 55.6527H35.4755V63.4727H34.515V55.6527ZM33.41 58.7127H34.77V59.5287H33.41V58.7127ZM32.764 55.8057H33.7075V63.0987H32.764V55.8057ZM29.1345 56.5452H30.1375V61.0587H29.1345V56.5452ZM29.1345 60.6677H29.6615C30.0468 60.6677 30.4576 60.6536 30.894 60.6252C31.336 60.5969 31.8035 60.5346 32.2965 60.4382L32.39 61.3137C31.88 61.4101 31.3983 61.4724 30.945 61.5007C30.4916 61.5291 30.0638 61.5432 29.6615 61.5432H29.1345V60.6677ZM39.1518 56.1882H42.5348V56.9957H39.1518V56.1882ZM42.0588 56.1882H43.0448V56.6387C43.0448 56.9674 43.0306 57.3782 43.0023 57.8712C42.9796 58.3586 42.8974 58.9592 42.7558 59.6732H41.7443C41.9029 58.9706 41.9936 58.3699 42.0163 57.8712C42.0446 57.3726 42.0588 56.9617 42.0588 56.6387V56.1882ZM42.1863 57.7267V58.4577L39.1008 58.7127L38.9648 57.8712L42.1863 57.7267ZM40.5033 59.8687H41.5233V63.0562H40.5033V59.8687ZM44.1328 55.6527H45.1443V63.4727H44.1328V55.6527ZM38.6248 60.3872L38.4973 59.5627C39.0186 59.5627 39.5683 59.5599 40.1463 59.5542C40.7299 59.5429 41.3193 59.5231 41.9143 59.4947C42.5149 59.4607 43.0986 59.4126 43.6653 59.3502L43.7333 60.0897C43.1553 60.1747 42.5688 60.2399 41.9738 60.2852C41.3844 60.3249 40.8064 60.3532 40.2398 60.3702C39.6731 60.3816 39.1348 60.3872 38.6248 60.3872ZM46.3676 61.6877H53.4481V62.5122H46.3676V61.6877ZM49.3681 56.7322H50.2181V57.2337C50.2181 57.5567 50.1699 57.8684 50.0736 58.1687C49.9773 58.4634 49.8356 58.7382 49.6486 58.9932C49.4616 59.2426 49.2378 59.4692 48.9771 59.6732C48.7164 59.8716 48.4246 60.0416 48.1016 60.1832C47.7786 60.3249 47.4301 60.4326 47.0561 60.5062L46.6566 59.6902C46.9853 59.6392 47.2884 59.5571 47.5661 59.4437C47.8438 59.3304 48.0931 59.1944 48.3141 59.0357C48.5351 58.8771 48.7221 58.7014 48.8751 58.5087C49.0338 58.3161 49.1556 58.1121 49.2406 57.8967C49.3256 57.6814 49.3681 57.4604 49.3681 57.2337V56.7322ZM49.5721 56.7322H50.4221V57.2337C50.4221 57.4604 50.4646 57.6814 50.5496 57.8967C50.6346 58.1064 50.7564 58.3076 50.9151 58.5002C51.0738 58.6929 51.2636 58.8686 51.4846 59.0272C51.7113 59.1802 51.9663 59.3134 52.2496 59.4267C52.5329 59.5344 52.8418 59.6109 53.1761 59.6562L52.7766 60.4637C52.3969 60.3957 52.0428 60.2937 51.7141 60.1577C51.3854 60.0161 51.0908 59.8461 50.8301 59.6477C50.5694 59.4494 50.3428 59.2256 50.1501 58.9762C49.9631 58.7269 49.8186 58.4549 49.7166 58.1602C49.6203 57.8656 49.5721 57.5567 49.5721 57.2337V56.7322ZM46.9456 56.3412H52.8446V57.1572H46.9456V56.3412Z" fill="#222222"/>
</svg>
