<svg width="330" height="277" viewBox="0 0 330 277" fill="none" xmlns="http://www.w3.org/2000/svg">
<rect width="330" height="277" rx="16" fill="white"/>
<path d="M111.713 41.38V43.96H119.593V41.38H111.713ZM116.973 49.44H124.013V51.58H107.333V49.44H114.333V46.06H109.093V36.44H111.713V39.3H119.593V36.44H122.193V46.06H116.973V49.44ZM133.832 38.02C131.412 38.02 129.872 38.74 129.872 40.04C129.872 41.36 131.412 42.06 133.832 42.06C136.232 42.06 137.772 41.36 137.772 40.04C137.772 38.74 136.232 38.02 133.832 38.02ZM133.832 44.16C129.892 44.16 127.172 42.56 127.172 40.04C127.172 37.54 129.892 35.92 133.832 35.92C137.752 35.92 140.492 37.54 140.492 40.04C140.492 42.56 137.752 44.16 133.832 44.16ZM142.212 45.54V47.68H138.352V53.7H135.672V47.68H131.972V53.7H129.312V47.68H125.532V45.54H142.212ZM164.722 45.02V47.16H157.702V53.68H155.062V47.16H148.082V45.02H159.682C159.902 44.06 160.042 43.16 160.142 42.34L149.702 42.88L149.402 40.64L160.322 40.3C160.362 39.64 160.362 39.02 160.362 38.42H150.002V36.32H162.902V37.98C162.902 39.88 162.902 42.02 162.282 45.02H164.722ZM167.5 37.06H176.24C176.24 42.74 174.7 47.56 167.8 51.02L166.4 48.94C169.4 47.44 171.3 45.74 172.38 43.7L166.9 44.2L166.56 41.98L173.22 41.6C173.4 40.84 173.54 40.04 173.62 39.16H167.5V37.06ZM178.94 35.28H181.6V53.7H178.94V35.28ZM200.89 42.06V40.16H193.31V42.06H200.89ZM203.49 36V44.16H190.69V36H193.31V38.1H200.89V36H203.49ZM205.47 45.9V48H198.39V53.74H195.75V48H188.79V45.9H205.47ZM208.608 43.02L207.708 40.96C211.168 40.64 212.988 39.36 213.408 38.06H208.488V35.98H222.128V38.06H217.208C217.628 39.36 219.428 40.66 222.928 40.96L221.988 43.02C218.548 42.68 216.268 41.36 215.308 39.58C214.328 41.36 212.068 42.68 208.608 43.02ZM208.828 49.76V47.68H221.628V53.74H218.988V49.76H208.828ZM216.608 44.24H223.648V46.36H206.988V44.24H213.968V41.88H216.608V44.24Z" fill="black"/>
<path d="M90.4808 83.356V81.184H88.8248V80.188H90.4808V78.892H88.8248V77.884H90.4808V75.088H91.7168V83.356H90.4808ZM88.7768 76.324V77.308H82.7648V76.324H85.2008V75.064H86.4368V76.324H88.7768ZM84.4928 79.912C84.4928 80.62 85.0328 81.04 85.8128 81.04C86.6048 81.04 87.1448 80.62 87.1448 79.912C87.1448 79.216 86.6048 78.772 85.8128 78.772C85.0328 78.772 84.4928 79.216 84.4928 79.912ZM88.3088 79.912C88.3088 81.16 87.2888 82.012 85.8128 82.012C84.3488 82.012 83.3288 81.16 83.3288 79.912C83.3288 78.652 84.3488 77.812 85.8128 77.812C87.2888 77.812 88.3088 78.652 88.3088 79.912ZM85.9088 84.712H91.9688V85.72H84.6608V82.66H85.9088V84.712ZM96.9599 77.296V77.896C96.9599 79.852 97.6439 81.628 99.2159 82.444L98.4959 83.392C97.4639 82.828 96.7919 81.844 96.3959 80.644C96.0239 82.024 95.3279 83.128 94.2599 83.764L93.5039 82.84C95.0759 81.928 95.7599 80.044 95.7599 77.896V77.296H93.8039V76.276H98.7719V77.296H96.9599ZM101.784 75.076H102.96V85.924H101.784V80.38H100.596V85.42H99.4319V75.28H100.596V79.36H101.784V75.076ZM109.482 78.628V80.404H114.618V78.628H109.482ZM112.662 83.584H116.97V84.604H107.154V83.584H111.426V81.4H108.258V75.808H109.482V77.632H114.618V75.808H115.842V81.4H112.662V83.584ZM122.957 76.48C121.397 76.48 120.377 77.008 120.377 77.872C120.377 78.748 121.397 79.276 122.957 79.276C124.505 79.276 125.525 78.748 125.525 77.872C125.525 77.008 124.505 76.48 122.957 76.48ZM122.957 80.272C120.665 80.272 119.105 79.336 119.105 77.872C119.105 76.42 120.665 75.484 122.957 75.484C125.237 75.484 126.797 76.42 126.797 77.872C126.797 79.336 125.237 80.272 122.957 80.272ZM127.889 81.196L127.901 82.216H125.453V85.924H124.193V82.216H121.721V85.924H120.461V82.216H118.061V81.196H127.889ZM135.4 76.324V77.308H129.004V76.324H131.584V75.076H132.82V76.324H135.4ZM130.756 79.864C130.756 80.548 131.344 80.956 132.196 80.956C133.06 80.956 133.648 80.548 133.648 79.864C133.648 79.18 133.06 78.772 132.196 78.772C131.344 78.772 130.756 79.18 130.756 79.864ZM134.824 79.864C134.824 81.1 133.756 81.916 132.196 81.916C130.648 81.916 129.568 81.1 129.568 79.864C129.568 78.64 130.648 77.812 132.196 77.812C133.756 77.812 134.824 78.64 134.824 79.864ZM131.836 82.588V84.712H137.884V85.72H130.588V82.588H131.836ZM137.452 78.544H138.988V79.564H137.452V83.212H136.216V75.088H137.452V78.544ZM152.279 80.872V81.892H148.007V85.924H146.759V81.892H142.487V80.872H149.507C149.663 80.188 149.771 79.588 149.819 79.024L143.495 79.336L143.351 78.292L149.891 78.064C149.915 77.584 149.915 77.152 149.915 76.72H143.687V75.712H151.115V76.708C151.115 77.836 151.115 79.096 150.731 80.872H152.279ZM154.174 76.168H159.214C159.214 79.396 158.182 82.264 154.222 84.244L153.55 83.272C155.458 82.324 156.634 81.196 157.294 79.864L153.79 80.188L153.622 79.12L157.678 78.868C157.834 78.34 157.93 77.776 157.978 77.176H154.174V76.168ZM161.11 75.088H162.346V85.924H161.11V75.088ZM176.272 79.084L175.792 80.08C173.992 79.792 172.516 78.88 171.808 77.632C171.112 78.892 169.612 79.792 167.812 80.08L167.332 79.084C169.54 78.772 171.148 77.44 171.148 76.012V75.436H172.456V76.012C172.456 77.416 174.088 78.772 176.272 79.084ZM176.692 81.1V82.108H172.384V85.936H171.148V82.108H166.9V81.1H176.692ZM184.119 79.72L184.251 80.728C182.619 81.016 181.203 81.076 179.127 81.076H178.251V77.896H181.923V76.732H178.227V75.736H183.147V78.832H179.463V80.068C181.323 80.056 182.631 79.996 184.119 79.72ZM182.775 84.976C184.299 84.976 185.175 84.604 185.175 83.908C185.175 83.224 184.299 82.852 182.775 82.852C181.239 82.852 180.375 83.224 180.375 83.908C180.375 84.604 181.239 84.976 182.775 84.976ZM182.775 81.892C185.019 81.892 186.387 82.636 186.387 83.908C186.387 85.18 185.019 85.924 182.775 85.924C180.531 85.924 179.163 85.18 179.163 83.908C179.163 82.636 180.531 81.892 182.775 81.892ZM187.815 77.692H186.279V78.952H187.815V79.972H186.279V81.64H185.043V75.076H186.279V76.672H187.815V77.692ZM196.406 75.076H197.654V85.948H196.406V75.076ZM191.882 75.88C193.502 75.88 194.678 77.368 194.678 79.696C194.678 82.048 193.502 83.524 191.882 83.524C190.274 83.524 189.098 82.048 189.098 79.696C189.098 77.368 190.274 75.88 191.882 75.88ZM191.882 76.996C190.946 76.996 190.286 78.016 190.286 79.696C190.286 81.4 190.946 82.42 191.882 82.42C192.83 82.42 193.49 81.4 193.49 79.696C193.49 78.016 192.83 76.996 191.882 76.996ZM209.601 79.252V77.872H204.645V79.252H209.601ZM210.837 75.508V80.248H203.409V75.508H204.645V76.876H209.601V75.508H210.837ZM212.049 81.424V82.42H207.717V85.936H206.481V82.42H202.221V81.424H212.049ZM214.064 79.564L213.632 78.592C215.636 78.376 217.028 77.5 217.208 76.504H214.052V75.508H222.056V76.504H218.876C219.044 77.5 220.448 78.388 222.452 78.592L222.008 79.564C220.112 79.348 218.624 78.556 218.048 77.428C217.46 78.556 215.972 79.348 214.064 79.564ZM214.232 83.392V82.396H221.744V85.936H220.508V83.392H214.232ZM218.648 80.452H222.968V81.448H213.14V80.452H217.412V78.916H218.648V80.452ZM226.711 82.468C227.443 82.468 227.959 81.88 227.959 80.98C227.959 80.08 227.443 79.48 226.711 79.48C225.979 79.48 225.463 80.08 225.463 80.98C225.463 81.88 225.979 82.468 226.711 82.468ZM226.711 78.46C228.079 78.46 229.063 79.48 229.063 80.98C229.063 82.468 228.079 83.5 226.711 83.5C225.343 83.5 224.359 82.468 224.359 80.98C224.359 79.48 225.343 78.46 226.711 78.46ZM227.323 75.4V76.852H229.351V77.848H224.047V76.852H226.099V75.4H227.323ZM232.123 75.088H233.299V85.924H232.123V80.596H230.971V85.42H229.819V75.316H230.971V79.576H232.123V75.088ZM238.518 81.232V83.584H241.254V81.22C240.834 81.328 240.366 81.376 239.886 81.376C239.406 81.376 238.938 81.328 238.518 81.232ZM239.886 76.684C238.242 76.684 237.102 77.404 237.102 78.544C237.102 79.696 238.242 80.416 239.886 80.416C241.518 80.416 242.658 79.696 242.658 78.544C242.658 77.404 241.518 76.684 239.886 76.684ZM242.49 83.584H244.806V84.592H234.99V83.584H237.282V80.764C236.418 80.284 235.902 79.504 235.902 78.544C235.902 76.816 237.57 75.712 239.886 75.712C242.19 75.712 243.87 76.816 243.87 78.544C243.87 79.504 243.354 80.272 242.49 80.764V83.584ZM247.085 85.156C246.569 85.156 246.161 84.76 246.161 84.196C246.161 83.632 246.569 83.212 247.085 83.212C247.601 83.212 248.009 83.632 248.009 84.196C248.009 84.76 247.601 85.156 247.085 85.156ZM45 97.168L44.604 96.232C46.632 96.076 48.048 95.32 48.264 94.432H45.024V93.46H53.04V94.432H49.788C50.004 95.32 51.408 96.076 53.436 96.232L53.052 97.168C51.168 97.012 49.668 96.34 49.02 95.344C48.384 96.34 46.896 97.012 45 97.168ZM46.524 102.004V102.88H53.004V103.828H45.3V101.128H51.48V100.324H45.276V99.4H52.692V102.004H46.524ZM44.112 97.6H53.928V98.584H44.112V97.6ZM55.7151 93.724H60.6111C60.6111 96.544 58.8471 98.368 55.6311 99.196L55.1511 98.224C57.7191 97.588 59.0991 96.34 59.2911 94.72H55.7151V93.724ZM62.7951 102.808V101.62H58.1631V102.808H62.7951ZM62.7951 100.66V99.448H64.0191V103.804H56.9271V99.448H58.1631V100.66H62.7951ZM62.7711 93.076H64.0191V98.932H62.7711V96.712H60.6231V95.704H62.7711V93.076ZM71.7702 97.396V93.352H72.9342V103.408H71.7702V98.392H69.7782C69.1422 99.64 68.1102 100.732 66.6102 101.632L65.9022 100.756C68.1582 99.412 69.2262 97.636 69.4062 95.416H66.4182V94.42H70.6302C70.6302 95.476 70.4862 96.472 70.1742 97.396H71.7702ZM74.0382 93.088H75.2262V103.924H74.0382V93.088ZM83.7405 98.428H85.5045V93.292H86.6685V99.748H85.5045V99.268H83.7405V98.428ZM82.2525 94.324C81.4965 94.324 81.0045 94.6 81.0045 95.068C81.0045 95.548 81.4965 95.824 82.2525 95.824C83.0205 95.824 83.5125 95.548 83.5125 95.068C83.5125 94.6 83.0205 94.324 82.2525 94.324ZM82.2525 96.688C80.8485 96.688 79.8885 96.064 79.8885 95.068C79.8885 94.096 80.8485 93.46 82.2525 93.46C83.6685 93.46 84.6165 94.096 84.6165 95.068C84.6165 96.064 83.6685 96.688 82.2525 96.688ZM81.7005 99.736V98.116C80.8725 98.152 80.1165 98.164 79.5045 98.164L79.3845 97.216C80.8485 97.216 83.2245 97.192 84.9885 96.904L85.0605 97.744C84.3885 97.888 83.6445 97.996 82.8885 98.044V99.736H81.7005ZM87.4605 102.82V101.968H82.4445V102.82H87.4605ZM87.4605 101.032V100.156H88.6845V103.792H81.2205V100.156H82.4445V101.032H87.4605ZM87.5085 93.076H88.6845V99.772H87.5085V93.076ZM99.0636 97.216V98.188H91.6116V93.46H99.0036V94.432H92.8476V95.344H98.7396V96.28H92.8476V97.216H99.0636ZM92.7996 100.804V102.712H99.0996V103.72H91.5636V100.804H92.7996ZM90.3636 98.968H100.204V99.964H95.9916V101.764H94.7556V99.964H90.3636V98.968ZM111.022 98.224L111.094 99.148C110.062 99.28 108.994 99.388 107.926 99.436V103.324H106.678V99.496C105.718 99.532 104.794 99.544 103.954 99.544L103.798 98.524C105.226 98.524 106.846 98.512 108.478 98.416C108.598 97.852 108.694 97.348 108.742 96.88L104.662 97.216L104.482 96.172L108.826 95.968C108.862 95.548 108.874 95.176 108.874 94.852H104.734V93.844H110.086V94.408C110.086 95.26 110.086 96.508 109.726 98.344C110.17 98.32 110.59 98.272 111.022 98.224ZM111.706 93.088H112.942V103.912H111.706V93.088ZM115.713 99.796L115.209 98.812C117.321 98.464 119.037 96.976 119.037 95.344V95.092H115.593V94.084H123.777V95.092H120.333V95.344C120.333 96.976 122.061 98.44 124.209 98.764L123.705 99.748C121.929 99.412 120.393 98.428 119.685 97.036C118.989 98.44 117.465 99.46 115.713 99.796ZM114.789 101.548H124.605V102.556H114.789V101.548ZM134.415 96.016V94.3H131.919V96.016H134.415ZM130.683 96.016V94.3H129.147V93.352H137.175V94.3H135.651V96.016H137.115V96.964H129.207V96.016H130.683ZM138.087 98.692H133.791V99.568H136.851V102.088H130.683V102.904H137.163V103.828H129.459V101.236H135.639V100.48H129.423V99.568H132.543V98.692H128.259V97.708H138.087V98.692ZM146.69 95.164V95.104H140.222V94.096H147.938V95.164C147.938 96.508 147.938 98.008 147.518 100.252L146.27 100.12C146.69 97.996 146.69 96.46 146.69 95.164ZM144.098 101.488H148.994V102.508H139.202V101.488H142.85V97.672H144.098V101.488ZM150.458 105.4L150.146 104.62C150.962 104.284 151.442 103.684 151.454 102.976C151.406 102.988 151.37 102.988 151.322 102.988C150.83 102.988 150.398 102.676 150.398 102.1C150.398 101.56 150.83 101.212 151.358 101.212C152.03 101.212 152.426 101.776 152.426 102.7C152.426 103.96 151.694 104.932 150.458 105.4ZM157.915 95.092V100.264C159.679 100.252 160.867 100.192 162.247 99.94L162.367 100.936C160.867 101.224 159.547 101.296 157.531 101.296H156.679V94.084H161.599V95.092H157.915ZM163.915 93.076H165.151V103.948H163.915V97.948H161.011V96.928H163.915V93.076ZM173.881 97.264V94.756H171.241V97.264H173.881ZM175.093 93.772V98.248H170.017V93.772H175.093ZM171.889 99.52V102.628C172.513 102.592 173.197 102.496 173.845 102.28L174.049 103.264C173.065 103.6 172.129 103.648 171.253 103.648H170.689V99.52H171.889ZM176.377 103.072C176.917 103.072 177.325 102.82 177.325 102.4C177.325 101.968 176.917 101.728 176.377 101.728C175.825 101.728 175.417 101.968 175.417 102.4C175.417 102.82 175.825 103.072 176.377 103.072ZM176.377 100.864C177.565 100.864 178.417 101.464 178.417 102.4C178.417 103.336 177.565 103.924 176.377 103.924C175.177 103.924 174.325 103.336 174.325 102.4C174.325 101.464 175.177 100.864 176.377 100.864ZM176.977 98.752V99.616H179.089V100.528H173.653V99.616H175.777V98.752H176.977ZM178.105 95.452H179.641V96.472H178.105V98.56H176.869V93.088H178.105V95.452ZM185.461 94.42C183.865 94.42 182.869 94.864 182.869 95.62C182.869 96.388 183.865 96.832 185.461 96.832C187.045 96.832 188.041 96.388 188.041 95.62C188.041 94.864 187.045 94.42 185.461 94.42ZM185.461 97.828C183.121 97.828 181.597 97 181.597 95.62C181.597 94.252 183.121 93.424 185.461 93.424C187.801 93.424 189.325 94.252 189.325 95.62C189.325 97 187.801 97.828 185.461 97.828ZM183.037 100.564V102.712H189.265V103.72H181.789V100.564H183.037ZM180.553 98.704H190.357V99.712H180.553V98.704ZM203.851 98.872V99.892H199.579V103.924H198.331V99.892H194.059V98.872H201.079C201.235 98.188 201.343 97.588 201.391 97.024L195.067 97.336L194.923 96.292L201.463 96.064C201.487 95.584 201.487 95.152 201.487 94.72H195.259V93.712H202.687V94.708C202.687 95.836 202.687 97.096 202.303 98.872H203.851ZM205.746 94.168H210.786C210.786 97.396 209.754 100.264 205.794 102.244L205.122 101.272C207.03 100.324 208.206 99.196 208.866 97.864L205.362 98.188L205.194 97.12L209.25 96.868C209.406 96.34 209.502 95.776 209.55 95.176H205.746V94.168ZM212.682 93.088H213.918V103.924H212.682V93.088ZM223.253 94.936V94.204H217.121V93.352H224.477V95.74H218.357V96.508H224.669V97.372H217.145V94.936H223.253ZM218.273 102.124V102.952H224.837V103.804H217.049V101.32H223.289V100.552H217.025V99.7H224.513V102.124H218.273ZM215.885 98.056H225.713V98.968H215.885V98.056ZM231.695 94.936V98.152H236.855V94.936H231.695ZM234.899 101.584H239.207V102.592H229.391V101.584H233.663V99.136H230.483V93.952H238.067V99.136H234.899V101.584ZM243.19 100.42C244.126 100.42 244.786 99.4 244.786 97.708C244.786 96.016 244.126 94.996 243.19 94.996C242.242 94.996 241.594 96.016 241.594 97.708C241.594 99.4 242.242 100.42 243.19 100.42ZM243.19 93.88C244.81 93.88 245.974 95.368 245.974 97.708C245.974 100.048 244.81 101.524 243.19 101.524C241.57 101.524 240.406 100.048 240.406 97.708C240.406 95.368 241.57 93.88 243.19 93.88ZM250.39 97.324V98.344H248.698V103.936H247.462V93.088H248.698V97.324H250.39ZM253.557 96.628V98.404H258.693V96.628H253.557ZM256.737 101.584H261.045V102.604H251.229V101.584H255.501V99.4H252.333V93.808H253.557V95.632H258.693V93.808H259.917V99.4H256.737V101.584ZM265.473 94.084V95.98C265.473 97.732 266.133 99.568 267.585 100.48L266.889 101.44C265.905 100.84 265.257 99.784 264.885 98.572C264.501 99.904 263.793 101.044 262.749 101.68L261.993 100.744C263.529 99.832 264.273 97.888 264.273 96.04V94.084H265.473ZM268.017 96.88V93.292H269.181V103.42H268.017V97.888H266.421V96.88H268.017ZM270.225 93.088H271.401V103.924H270.225V93.088ZM276.596 99.232V101.584H279.332V99.22C278.912 99.328 278.444 99.376 277.964 99.376C277.484 99.376 277.016 99.328 276.596 99.232ZM277.964 94.684C276.32 94.684 275.18 95.404 275.18 96.544C275.18 97.696 276.32 98.416 277.964 98.416C279.596 98.416 280.736 97.696 280.736 96.544C280.736 95.404 279.596 94.684 277.964 94.684ZM280.568 101.584H282.884V102.592H273.068V101.584H275.36V98.764C274.496 98.284 273.98 97.504 273.98 96.544C273.98 94.816 275.648 93.712 277.964 93.712C280.268 93.712 281.948 94.816 281.948 96.544C281.948 97.504 281.432 98.272 280.568 98.764V101.584ZM284.971 100.18L284.779 95.38L284.743 93.964H286.135L286.087 95.38L285.895 100.18H284.971ZM285.427 103.156C284.911 103.156 284.515 102.76 284.515 102.196C284.515 101.632 284.911 101.212 285.427 101.212C285.955 101.212 286.363 101.632 286.363 102.196C286.363 102.76 285.955 103.156 285.427 103.156Z" fill="black"/>
<path fill-rule="evenodd" clip-rule="evenodd" d="M303 31.5915L306.977 35.5688C307.188 35.7798 307.474 35.8984 307.773 35.8984C308.071 35.8984 308.358 35.7798 308.569 35.5688C308.78 35.3577 308.898 35.0715 308.898 34.773C308.898 34.4746 308.78 34.1883 308.569 33.9773L304.59 30L308.568 26.0228C308.672 25.9183 308.755 25.7942 308.812 25.6577C308.868 25.5212 308.897 25.3749 308.897 25.2271C308.897 25.0794 308.868 24.9331 308.812 24.7966C308.755 24.6601 308.672 24.5361 308.568 24.4316C308.463 24.3272 308.339 24.2444 308.203 24.1878C308.066 24.1313 307.92 24.1023 307.772 24.1023C307.624 24.1023 307.478 24.1315 307.341 24.188C307.205 24.2446 307.081 24.3275 306.976 24.432L303 28.4093L299.023 24.432C298.919 24.3245 298.795 24.2388 298.658 24.1797C298.52 24.1207 298.373 24.0896 298.223 24.0882C298.074 24.0869 297.926 24.1153 297.788 24.1718C297.649 24.2283 297.524 24.3117 297.418 24.4173C297.312 24.5229 297.229 24.6485 297.172 24.7867C297.115 24.9249 297.087 25.0731 297.088 25.2224C297.089 25.3718 297.12 25.5195 297.179 25.6567C297.238 25.794 297.324 25.9182 297.431 26.022L301.41 30L297.432 33.978C297.325 34.0819 297.239 34.206 297.18 34.3433C297.121 34.4806 297.09 34.6282 297.089 34.7776C297.088 34.927 297.116 35.0751 297.173 35.2133C297.229 35.3516 297.313 35.4771 297.419 35.5827C297.524 35.6883 297.65 35.7718 297.788 35.8283C297.927 35.8848 298.075 35.9132 298.224 35.9118C298.374 35.9104 298.521 35.8793 298.658 35.8203C298.796 35.7613 298.92 35.6755 299.023 35.568L303 31.5915Z" fill="#888880"/>
<path d="M161.762 121.761C161.951 121.708 162.141 121.657 162.332 121.608C164.856 120.968 169.743 120.326 172.183 121.26C175.574 122.557 179.166 122.867 182.547 124.078C183.406 124.386 184.357 125.316 185.193 125.66C186.559 126.223 188.095 126.456 189.397 127.154C190.814 127.923 191.856 129.072 193.064 130.101C193.905 130.817 195.083 131.521 195.878 132.244C197.713 133.912 199.782 136.132 201.186 138.119C201.937 139.181 202.042 141.033 202.773 142.102C203.172 142.685 203.908 143.444 204.385 144.012C205.559 145.407 206.059 146.782 206.703 148.379C207.479 150.301 207.072 151.832 207.386 153.705C207.658 154.829 208.217 155.904 208.545 157.019C209.523 160.335 208.631 163.63 208.558 166.96C208.516 168.903 209.266 170.924 208.894 172.922C208.559 174.72 207.884 175.978 206.909 177.524C205.465 179.436 204.653 180.661 203.499 182.737C202.905 183.807 201.77 185.811 201.045 186.735C199.899 188.108 198.756 188.567 197.499 189.742C196.972 190.236 196.034 191.5 195.563 192.094C193.507 194.686 192.045 195.683 188.969 196.986C188.893 200.922 187.378 204.372 186.129 208.107C188.077 209.847 189.555 212.289 185.47 213.02C182.825 213.494 178.426 212.966 176.083 211.806C174.874 211.207 174.746 207.95 174.596 206.752C174.411 205.31 174.198 203.872 173.956 202.439C171.33 202.566 169.305 202.586 166.669 202.518C165.575 202.49 163.551 202.761 162.327 202.787C160.412 202.828 159.202 202.727 157.28 202.549C156.74 204.681 155.663 210.924 154.461 212.356C153.499 213.503 151.258 213.908 149.8 214.119C147.902 214.391 145.158 214.606 143.525 213.456C142.97 213.064 142.609 212.527 142.56 211.882C142.464 210.608 143.446 209.602 144.308 208.719C143.211 205.249 141.808 200.131 141.968 196.578C138.798 194.77 133.904 191.54 132.006 188.568C131.297 187.458 131.104 185.703 130.36 184.596C129.52 183.361 127.86 182.495 127.107 181.209C124.937 177.505 124.106 173.645 123.875 169.496C123.694 166.269 122.281 162.85 122.012 159.632C121.887 158.13 122.756 156.708 122.943 155.242C123.161 152.937 122.691 150.594 123.436 148.333C124.17 145.694 125.798 144.726 127.313 142.63C127.559 142.289 127.868 140.678 128.028 140.16C128.901 137.335 131.123 135.422 133.514 133.61C134.98 132.464 135.527 130.698 137.372 129.329C140.741 126.83 143.698 126.665 147.528 125.386C148.871 124.937 150.907 123.464 152.297 122.789C155.618 121.176 158.202 120.838 161.762 121.761Z" fill="#572006"/>
<path d="M163.014 122.913C165.364 122.336 169.773 121.753 171.959 122.693C175.291 124.127 178.952 124.175 182.201 125.622C182.996 125.975 183.849 126.725 184.688 127.068C185.915 127.58 187.605 127.877 188.75 128.533C189.928 129.209 191.087 130.365 192.123 131.26C193.014 132.029 194.178 132.74 195.023 133.474C196.604 134.847 198.44 136.843 199.646 138.499C200.453 139.608 200.547 141.483 201.298 142.628C201.745 143.308 202.408 143.983 202.937 144.626C204.157 146.111 204.797 147.392 205.364 149.135C205.898 150.777 205.58 152.164 205.815 153.575C206.065 155.088 207.103 156.586 207.336 158.372C207.745 161.012 207.208 163.615 206.979 166.235C206.865 167.546 207.244 169.28 207.423 170.608C207.71 172.746 207.043 174.575 205.839 176.422C205.805 176.476 205.77 176.528 205.733 176.58C204.435 178.26 203.831 179.103 202.779 180.886C201.978 182.247 200.496 185.114 199.505 186.134L199.488 186.223C198.66 187.005 196.823 188.191 196.29 188.787C194.514 190.772 194.023 191.997 191.778 193.782C189.46 195.625 187.55 195.691 185.348 196.788C182.107 198.403 180.849 199.699 176.877 200.484C173.321 201.187 170.352 201.065 166.742 201.089C165.28 201.097 163.5 201.314 161.969 201.354C157.764 201.469 153.599 200.574 149.893 198.76C148.627 198.132 147.657 197.154 146.569 196.644C145.261 196.03 143.629 195.968 142.241 195.076C141.294 194.467 140.468 193.898 139.552 193.232C137.351 191.632 134.775 190.388 133.473 188.012C132.788 186.761 132.569 185.175 131.88 184.093C130.833 182.449 129.092 181.726 128.082 179.847C126.935 177.716 125.95 175.045 125.671 172.682C125.512 171.341 125.537 170.132 125.337 168.729C124.979 166.236 124.57 163.98 123.882 161.537C123.682 160.825 123.55 160.033 123.575 159.291C123.615 158.076 124.413 156.598 124.565 155.469C124.969 152.464 124.089 150.371 125.462 147.415C126.316 145.575 128.367 144.442 128.842 143.241C129.562 141.421 128.977 140.707 130.444 138.671C132.002 136.508 133.335 135.893 135.208 134.128C136.173 133.219 136.835 131.753 138.045 130.675C141.149 127.912 145.472 127.873 148.875 126.405C151.481 125.28 152.946 123.515 156.383 122.847C159.418 122.257 160.411 123.434 163.014 122.913Z" fill="#F3BE5E"/>
<path d="M163.014 122.913C165.364 122.336 169.773 121.753 171.959 122.693C175.291 124.127 178.952 124.175 182.201 125.622C182.996 125.975 183.849 126.725 184.688 127.068C185.915 127.58 187.605 127.877 188.75 128.533C189.928 129.209 191.087 130.365 192.123 131.26C193.014 132.029 194.178 132.74 195.023 133.474C196.604 134.847 198.44 136.843 199.646 138.499C200.453 139.608 200.547 141.483 201.298 142.628C201.745 143.308 202.408 143.983 202.937 144.626C204.157 146.111 204.797 147.392 205.364 149.135C205.898 150.777 205.58 152.164 205.815 153.575C206.065 155.088 207.103 156.586 207.336 158.372C207.745 161.012 207.208 163.615 206.979 166.235C206.865 167.546 207.244 169.28 207.423 170.608C207.71 172.746 207.043 174.575 205.839 176.422C205.805 176.476 205.77 176.528 205.733 176.58C204.435 178.26 203.831 179.103 202.779 180.886C201.978 182.247 200.496 185.114 199.505 186.134C199.116 185.731 199.942 184.314 200.142 183.777C202.104 178.518 205.684 175.07 205.112 169.213L204.965 169.431L204.797 169.421L204.981 169.022C205.37 167.883 205.252 167.305 204.8 166.206C204.929 164.739 205.257 163.379 205.274 161.867C205.3 159.529 204.815 157.637 204.305 155.384C204.076 154.366 204.134 153.149 203.765 152.053C203.321 150.739 202.802 149.341 202.225 148.076C201.734 147.139 201.733 146.993 200.818 146.363C199.555 144.51 199.213 142.738 197.962 140.871C196.846 139.205 195.726 138.348 194.333 136.956C193.6 136.258 192.929 135.168 192.168 134.52C190.498 133.098 188.82 131.529 187.1 130.173C186.131 129.471 184.618 129.345 183.59 128.873C179.904 127.184 176.352 125.972 172.336 125.13C169.87 124.613 167.327 123.663 164.786 123.319C164.226 123.244 163.717 123.26 163.157 123.143L163.014 122.913Z" fill="#F9D799"/>
<path d="M201.309 164.96C202.876 164.774 203.906 164.835 204.8 166.206C205.252 167.305 205.37 167.883 204.981 169.022L204.797 169.421C204.682 169.5 204.222 169.998 204.074 170.141C202.612 171.56 200.021 171.756 198.973 169.663C198.552 168.841 198.519 167.898 198.882 167.053C199.377 165.91 200.134 165.435 201.309 164.96Z" fill="#83461D"/>
<path d="M201.309 164.96C202.876 164.774 203.906 164.835 204.8 166.206C205.252 167.305 205.37 167.883 204.981 169.022C204.906 167.223 201.938 166.175 201.309 164.96Z" fill="#A25925"/>
<path d="M202.225 148.076C202.254 149.29 202.337 150.538 201.055 151.258C200.028 151.835 199.079 151.176 198.54 150.379C197.801 149.287 197.563 147.16 198.984 146.439C199.621 146.117 200.147 146.195 200.818 146.363C201.733 146.993 201.734 147.139 202.225 148.076Z" fill="#A25925"/>
<path d="M161.335 173.743C161.073 173.671 160.699 173.75 160.49 173.665C159.736 173.357 159.659 172.562 160.129 171.999C160.351 171.733 160.688 171.569 161.052 171.549C161.947 171.503 161.938 171.907 162.457 172.33L162.581 172.43C164.735 171.585 166.447 172.223 168.457 173.135C172.468 171.349 176.729 171.49 175.426 176.746C178.616 178.153 182.292 179.688 185.768 178.182C187.311 177.529 188.196 175.786 189.877 175.905C186.444 181.577 181.002 180.615 175.538 178.262C174.834 180.065 173.806 182.093 172.428 183.551C173.335 184.408 174.016 184.714 175.192 185.264C180.037 187.528 185.28 187.657 190.55 186.818C191.261 186.705 191.985 186.301 192.698 186.227C193.206 185.943 194.421 185.17 194.91 185.057L195.023 185.231C194.651 186.221 191.557 187.93 190.479 188.415C190.138 188.567 189.794 188.71 189.446 188.848C188.121 190.296 184.865 190.774 182.926 190.967C179.252 191.332 176.059 190.304 172.828 188.848C171.586 188.288 170.428 187.648 169.099 187.255C166.076 188.415 163.757 189.404 160.493 190.024C159.038 190.301 157.885 190.396 156.491 190.614C156.251 190.383 155.965 190.164 155.701 189.951C154.582 190.094 153.726 190.159 152.591 190.127C152.217 190.117 151.36 190.041 151.083 190.062C148.859 189.778 146.657 189.204 144.705 188.176C143.807 187.703 142.01 186.655 141.572 185.761L141.678 185.642L142.053 185.711C142.772 185.796 144.916 186.481 145.781 186.726C151.36 188.305 159.345 186.888 164.389 184.402C167.748 182.745 173.244 177.998 174.306 174.497C173.232 172.65 170.931 173.375 169.336 174.197C165.542 176.157 161.997 178.456 157.786 179.657C155.715 180.256 153.497 180.755 151.332 180.169C149.934 179.798 147.406 178.188 147.077 176.83L147.193 176.654C147.712 176.618 147.957 176.871 148.345 177.174C148.465 177.267 148.584 177.362 148.701 177.457C150.307 178.568 151.39 178.994 153.408 179.109C156.379 178.977 158.808 177.937 161.455 176.837C161.07 175.614 160.974 174.972 161.335 173.743Z" fill="#572006"/>
<path d="M168.487 184.735C174.669 188.792 181.934 191.132 189.446 188.848C188.121 190.296 184.865 190.774 182.926 190.967C179.252 191.332 176.059 190.304 172.828 188.848C171.586 188.288 170.428 187.648 169.099 187.255C166.076 188.415 163.757 189.404 160.493 190.024C159.038 190.301 157.885 190.396 156.491 190.614C156.251 190.383 155.965 190.164 155.701 189.951C159.985 189.297 165.132 187.263 168.487 184.735Z" fill="#E39F44"/>
<path d="M174.306 174.497C174.404 176.838 172.471 179.346 170.786 181.028C166.587 185.22 159.539 188.483 153.322 188.863C150.084 189.06 144.532 187.668 142.053 185.711C142.772 185.796 144.916 186.481 145.781 186.726C151.36 188.305 159.345 186.888 164.389 184.402C167.748 182.745 173.244 177.998 174.306 174.497Z" fill="#E39F44"/>
<path d="M169.727 183.806C171.96 182.127 173.422 180.32 174.834 178.053C175.151 178.012 175.182 178.099 175.538 178.262C174.834 180.065 173.806 182.093 172.428 183.551C173.335 184.408 174.016 184.714 175.192 185.264C180.037 187.528 185.28 187.657 190.55 186.818C191.261 186.705 191.985 186.301 192.698 186.227C191.151 187.3 188.125 188.029 186.227 188.296C180.635 189.085 174.184 186.894 169.727 183.806Z" fill="#E39F44"/>
<path d="M161.335 173.743C161.073 173.671 160.699 173.75 160.49 173.665C159.736 173.357 159.659 172.562 160.129 171.999C160.351 171.733 160.688 171.569 161.052 171.549C161.947 171.503 161.938 171.907 162.457 172.33L162.581 172.43C162.003 172.902 161.726 173.109 161.335 173.743Z" fill="#E39F44"/>
<path d="M163.824 173.332C165.275 173.296 165.625 173.43 167.006 173.918C166.359 174.344 165.311 174.88 164.603 175.266C164.104 175.537 163.486 175.908 162.949 176.064C162.059 175.817 162.571 174.955 162.712 174.328C162.824 173.829 163.352 173.545 163.824 173.332Z" fill="#F3BE5E"/>
<path d="M131.735 146.956C135.417 146.184 138.185 147.407 139.053 150.905C139.408 152.273 139.137 153.713 138.302 154.895C137.332 156.264 135.796 157.219 134.044 157.544C132.304 157.86 130.064 157.827 128.927 156.392C126.642 154.111 127.647 149.336 130.324 147.654C130.755 147.382 131.263 147.161 131.735 146.956Z" fill="#995120"/>
<path d="M128.927 156.392C126.642 154.111 127.647 149.336 130.324 147.654C130.755 147.382 131.263 147.161 131.735 146.956L131.999 147.154C131.914 147.341 131.998 147.293 131.804 147.376C130.613 147.886 129.771 149.371 129.399 150.464L129.284 150.407C128.945 150.241 128.857 150.155 128.507 150.21C128.227 150.575 128.004 151.553 127.96 152.007C128.099 152.053 128.237 152.102 128.373 152.154L128.374 152.341L127.965 152.339C127.442 153.049 128.4 155.288 128.881 156.023L129.107 156.37L128.927 156.392Z" fill="#83461D"/>
<path d="M157.519 124.637C160.578 124.083 163.555 125.882 164.184 128.665C164.812 131.448 162.857 134.172 159.807 134.763C156.727 135.36 153.703 133.559 153.068 130.749C152.433 127.94 154.431 125.197 157.519 124.637Z" fill="#964F1F"/>
<path d="M180.212 132.674C182.047 131.024 184.55 130.773 186.782 131.929C189.261 133.605 190.726 137.035 188.246 139.234C186.906 140.58 185.99 140.449 184.168 140.37C182.573 141.112 180.176 140.331 178.81 139.352C176.373 137.606 176.274 132.758 180.212 132.674Z" fill="#83461D"/>
<path d="M180.212 132.674C182.047 131.024 184.55 130.773 186.782 131.929C189.261 133.605 190.726 137.035 188.246 139.234C187.811 139.003 186.625 139.455 186.544 138.99C186.272 137.435 186.009 137.156 184.796 135.97C184.283 135.681 183.597 134.964 183.195 134.557C181.712 134.241 180.848 134.235 179.785 133.258L180.212 132.674Z" fill="#A25925"/>
<path d="M180.212 132.674C182.047 131.024 184.55 130.773 186.782 131.929C185.978 132.941 184.485 133.703 183.643 134.64C183.945 135.216 184.459 135.418 184.796 135.97C184.283 135.681 183.597 134.964 183.195 134.557C181.712 134.241 180.848 134.235 179.785 133.258L180.212 132.674Z" fill="#995120"/>
<path d="M184.168 140.37C182.573 141.112 180.176 140.331 178.81 139.352C176.373 137.606 176.274 132.758 180.212 132.674L179.785 133.258C178.343 136.075 179.887 138.779 182.88 140.003C183.291 140.174 183.724 140.297 184.168 140.37Z" fill="#E39F44"/>
<path d="M151.882 158.473C152.465 158.639 152.564 158.674 153.092 158.949C153.491 159.342 153.567 159.411 154.062 159.713L154.189 159.678C155.162 159.689 155.26 159.743 155.998 160.33C155.647 160.43 155.056 160.623 154.716 160.658C153.79 161.266 153.097 162.304 152.929 163.335C152.641 165.108 153.769 166.289 153.926 168.14C154.065 169.778 152.514 171.744 152.587 172.816C152.779 175.625 154.119 175.908 153.408 179.109C151.39 178.994 150.307 178.568 148.701 177.457C149.594 175.03 148.216 174.444 148.379 172.104C148.487 170.682 149.618 169.392 149.534 167.956C149.463 166.737 148.819 165.763 148.479 164.572C147.984 162.841 149.179 161.301 150.103 159.896C150.092 159.914 150.121 159.167 150.124 159.122L150.373 158.941L150.409 158.879C150.888 158.722 151.391 158.601 151.882 158.473Z" fill="#ABE8F2"/>
<path d="M151.882 158.473C152.465 158.639 152.564 158.674 153.092 158.949C153.491 159.342 153.567 159.411 154.062 159.713C153.371 159.843 152.91 159.88 152.388 160.331C151.723 159.73 151.007 160.452 150.373 158.941L150.409 158.879C150.888 158.722 151.391 158.601 151.882 158.473Z" fill="#88CADB"/>
<path d="M154.189 159.678C155.162 159.689 155.26 159.743 155.998 160.33C155.647 160.43 155.056 160.623 154.716 160.658C153.902 160.604 153.149 160.596 152.388 160.331C152.91 159.88 153.371 159.843 154.062 159.713L154.189 159.678Z" fill="#572006"/>
<path d="M177.768 150.196C176.934 149.634 175.057 148.144 176.201 147.005C176.404 146.804 176.728 146.712 177.025 146.732C177.275 147.106 177.168 147.624 177.142 148.105C177.889 149.388 182.386 150.605 183.972 150.777C184.592 150.845 187.561 151.132 187.86 151.331C187.905 152.085 187.041 152.05 186.375 152.134C186.726 153.842 186.759 155.738 185.685 157.249L185.069 157.134C185.11 157.422 185.123 157.403 185.331 157.632L185.239 157.9C184.854 158.328 184.022 158.787 183.411 158.814L182.554 159.093C181.961 159.259 180.73 159.142 180.109 158.987C179.926 159.402 179.072 159.161 178.749 158.836L178.785 158.471C176.261 155.945 175.765 153.169 177.768 150.196Z" fill="#572006"/>
<path d="M179.878 157.435L179.994 157.755C180.66 157.995 182.658 156.927 182.975 158.384L183.038 158.393C183.236 158.566 183.323 158.597 183.411 158.814L182.554 159.093C181.961 159.259 180.73 159.142 180.109 158.987C179.926 159.402 179.072 159.161 178.749 158.836L178.785 158.471C179.305 158.066 179.448 157.922 179.878 157.435Z" fill="#88CADB"/>
<path d="M180.109 158.987C180.901 158.039 181.844 158 182.975 158.384L183.038 158.393C183.236 158.566 183.323 158.597 183.411 158.814L182.554 159.093C181.961 159.259 180.73 159.142 180.109 158.987Z" fill="#572006"/>
<path d="M179.857 157.377C180.303 157.308 180.634 157.087 181.028 156.874C182.353 156.765 182.426 156.855 183.6 157.41L183.694 157.455C184.055 157.357 184.72 157.154 185.069 157.134C185.11 157.422 185.123 157.403 185.331 157.632L185.239 157.9C184.854 158.328 184.022 158.787 183.411 158.814C183.323 158.597 183.236 158.566 183.038 158.393L182.975 158.384C182.658 156.927 180.66 157.995 179.994 157.755L179.878 157.435L179.857 157.377Z" fill="#ABE8F2"/>
<path d="M183.038 158.393C183.677 158.216 184.708 157.783 185.239 157.9C184.854 158.328 184.022 158.787 183.411 158.814C183.323 158.597 183.236 158.566 183.038 158.393Z" fill="#88CADB"/>
<path d="M179.857 157.377C179.318 157.201 178.964 156.944 178.818 156.434C178.957 155.077 181.776 154.691 181.028 156.874C180.634 157.087 180.303 157.308 179.857 157.377Z" fill="#FDFEFE"/>
<path d="M180.737 151.476C181.701 151.812 183.966 151.974 184.373 152.589C184.447 153.186 184.152 153.504 183.781 153.982C181.719 155.32 180.135 153.594 180.737 151.476Z" fill="#FDFEFE"/>
<path d="M157.258 148.856C157.087 148.445 156.9 148.151 156.984 147.733C157.249 147.401 157.078 147.504 157.505 147.404C159.353 147.938 157.999 149.978 157.078 150.793C159.852 153.83 159.812 156.497 157.458 159.706C157.051 160.29 156.712 160.234 155.998 160.33C155.26 159.743 155.162 159.689 154.189 159.678L154.062 159.713C153.567 159.411 153.491 159.342 153.092 158.949C152.564 158.674 152.465 158.639 151.882 158.473C151.391 158.601 150.888 158.722 150.409 158.879C149.049 158.213 149.093 155.241 149.189 154.064C148.581 154.076 147.671 154.132 147.195 153.752C147.204 153.113 148.502 152.947 149.066 152.833C152.02 152.239 155.292 151.103 157.258 148.856Z" fill="#572006"/>
<path d="M153.795 158.524C154.246 158.459 154.744 158.377 155.193 158.33C156.339 158.636 156.664 158.878 157.458 159.706C157.051 160.29 156.712 160.234 155.998 160.33C155.26 159.743 155.162 159.689 154.189 159.678L154.062 159.713C153.567 159.411 153.491 159.342 153.092 158.949C153.393 158.859 153.551 158.708 153.795 158.524Z" fill="#88CADB"/>
<path d="M153.795 158.524C154.246 158.459 154.744 158.377 155.193 158.33C155.209 158.747 155.288 159.089 155.05 159.42C154.718 159.635 154.609 159.621 154.189 159.678L154.062 159.713C153.567 159.411 153.491 159.342 153.092 158.949C153.393 158.859 153.551 158.708 153.795 158.524Z" fill="#ABE8F2"/>
<path d="M151.882 158.473C151.622 157.738 151.504 156.856 152.569 156.606C152.904 156.526 153.259 156.585 153.541 156.768C154.205 157.195 154.009 157.938 153.795 158.524C153.551 158.708 153.393 158.859 153.092 158.949C152.564 158.674 152.465 158.639 151.882 158.473Z" fill="#FDFEFE"/>
<path d="M155.844 151.839C156.605 152.084 157.229 152.85 157.277 153.585C157.31 154.13 157.104 154.665 156.704 155.073C156.157 155.634 155.644 155.672 154.895 155.706C153.932 155.48 152.949 154.275 153.235 153.411C153.41 152.885 155.299 152.104 155.844 151.839Z" fill="#FDFEFE"/>
<path d="M184.259 169.899C185.724 168.925 186.697 168.572 188.496 168.639C189.413 168.826 189.653 168.899 190.374 169.442C192.273 170.874 193.427 173.884 191.195 175.537C191.029 175.66 190.129 175.805 189.877 175.905C188.196 175.786 187.311 177.529 185.768 178.182C184.708 177.655 184.402 177.831 183.333 176.819C182.479 176.018 182.017 174.935 182.052 173.819C182.093 172.068 182.953 171.047 184.259 169.899Z" fill="#8E4B1F"/>
<path d="M189.973 170.426C190.357 170.376 190.43 170.347 190.797 170.428C191.67 171.11 192.078 171.678 191.524 172.669C190.091 172.722 189.281 171.478 189.973 170.426Z" fill="#A25925"/>
<path d="M133.886 170.674C135.178 169.697 136.955 169.446 138.51 170.021C140.066 170.596 141.149 171.903 141.328 173.424C141.508 174.945 140.755 176.432 139.369 177.295C137.359 178.546 134.625 178.137 133.159 176.367C131.694 174.597 132.014 172.091 133.886 170.674Z" fill="#995120"/>
<path d="M139.369 177.295C137.359 178.546 134.625 178.137 133.159 176.367C131.694 174.597 132.014 172.091 133.886 170.674C134.264 170.92 135.439 172.858 135.817 173.439C136.739 174.86 138.397 176.058 139.369 177.295Z" fill="#83461D"/>
<path d="M168.039 157.579C168.347 157.557 168.655 157.542 168.964 157.532C170.379 157.491 171.437 157.919 172.536 158.797C173.613 159.657 174.753 161.976 173.449 163.046C172.279 164.008 170.65 162.853 169.191 162.779L169.043 162.772C167.458 163.011 167.231 163.608 166.059 163.948C163.261 164.761 163.275 161.565 164.289 160.138C165.372 158.614 166.245 158.043 168.039 157.579Z" fill="#572006"/>
<path d="M165.973 160.254C166.247 160.232 166.522 160.224 166.797 160.231C168.337 160.269 169.19 160.724 170.218 161.706C169.166 161.72 168.596 161.809 167.599 162.094C166.76 162.413 165.769 163.335 164.953 163.171C164.041 162.373 164.65 160.62 165.973 160.254Z" fill="#E05028"/>
<path d="M185.069 157.134L185.685 157.249C186.69 158.489 187.657 158.648 188.116 160.41C188.589 162.222 187.6 163.492 187.764 165.259C187.873 166.228 189 167.681 188.857 168.566C188.654 168.632 188.696 168.644 188.496 168.639C186.697 168.572 185.724 168.925 184.259 169.899C184.54 167.22 183.755 167.123 183.362 164.676C183.076 162.9 184.927 160.735 182.554 159.093L183.411 158.814C184.022 158.787 184.854 158.328 185.239 157.9L185.331 157.632C185.123 157.403 185.11 157.422 185.069 157.134Z" fill="#ABE8F2"/>
<path d="M140.241 141.341C140.034 140.203 140.632 138.883 141.22 137.97C142.324 136.257 145.563 136.26 147.107 137.459C150.653 140.213 145.941 143.782 142.669 143.692C141.219 143.362 140.483 142.68 140.241 141.341Z" fill="#995120"/>
<path d="M140.241 141.341L140.482 141.288C141.123 142.032 142.633 142.821 142.669 143.692C141.219 143.362 140.483 142.68 140.241 141.341Z" fill="#83461D"/>
<path d="M151.083 190.062C151.36 190.041 152.217 190.117 152.591 190.127C153.726 190.159 154.582 190.094 155.701 189.951C155.965 190.164 156.251 190.383 156.491 190.614C157.449 192.209 157.857 193.764 156.576 195.361C156.275 195.675 155.774 196.091 155.385 196.304C154.566 196.753 153.585 196.891 152.656 196.687C151.502 196.434 150.51 195.764 149.906 194.833C149.27 193.844 149.217 192.924 149.513 191.843C149.996 190.895 150.18 190.712 151.083 190.062Z" fill="#995120"/>
<path d="M149.513 191.843C150.072 191.829 150.54 191.756 151.004 191.999C152.348 192.705 153.521 193.602 154.812 194.397C155.348 194.727 156.285 195.038 156.576 195.361C156.275 195.675 155.774 196.091 155.385 196.304C154.566 196.753 153.585 196.891 152.656 196.687C151.502 196.434 150.51 195.764 149.906 194.833C149.27 193.844 149.217 192.924 149.513 191.843Z" fill="#83461D"/>
<path d="M176.473 191.251C179.539 190.869 181.13 193.831 178.158 195.077C177.052 195.267 175.847 195.13 175.23 194.156C174.954 193.722 174.884 193.205 175.036 192.723C175.277 191.95 175.779 191.632 176.473 191.251Z" fill="#995120"/>
<path d="M147.064 156.936C147.391 156.988 147.255 156.924 147.492 157.121C147.393 157.841 145.408 160.36 144.555 160.721C143.877 161.009 143.596 160.977 142.923 160.82C142.212 160.344 141.654 159.484 142.274 158.759C143.305 157.552 145.519 157.165 147.064 156.936Z" fill="#ABE8F2"/>
<path d="M144.041 158.266C144.417 158.387 144.539 158.496 144.644 158.829C144.524 159.372 144.095 159.71 143.608 160.014C143.221 159.835 143.17 159.808 142.88 159.514C142.693 158.753 143.389 158.545 144.041 158.266Z" fill="#DFF2F0"/>
<path d="M187.77 154.864C189.396 155.018 195.138 155.573 192.77 158.238C190.463 159.277 188.926 156.875 187.755 155.417C187.588 155.209 187.695 155.082 187.77 154.864Z" fill="#ABE8F2"/>
<path d="M191.492 157.628C190.966 157.336 190.263 156.999 190.559 156.387C190.947 156.118 191.276 156.151 191.774 156.118C192.354 156.499 192.736 156.762 192.316 157.39C191.942 157.585 191.927 157.587 191.492 157.628Z" fill="#FDFEFE"/>
<path d="M191.492 157.628C190.966 157.336 190.263 156.999 190.559 156.387C190.947 156.118 191.276 156.151 191.774 156.118C191.305 156.64 191.305 156.977 191.492 157.628Z" fill="#DFF2F0"/>
<path d="M158.599 161.818C161.649 162.075 158.109 165.561 156.096 165.684C155.415 165.294 154.702 164.732 154.8 163.941C155.392 163.064 156.463 163.094 157.33 162.864C157.455 162.831 157.902 162.186 158.599 161.818Z" fill="#E39F44"/>
<path d="M198.184 155.632C198.28 155.628 198.377 155.625 198.474 155.623C200.1 155.597 201.212 156.712 199.737 157.946C198.112 158.071 196.638 156.939 198.184 155.632Z" fill="#E39F44"/>
<path d="M170.859 126.264C171.3 126.136 171.783 126.236 172.12 126.525C172.457 126.814 172.596 127.248 172.481 127.657C172.367 128.065 172.018 128.386 171.57 128.493C170.902 128.653 170.216 128.299 170.023 127.694C169.83 127.09 170.201 126.456 170.859 126.264Z" fill="#E39F44"/>
<path d="M198.307 175.961C198.989 175.814 199.671 176.199 199.83 176.82C199.99 177.441 199.565 178.062 198.882 178.205C198.203 178.347 197.525 177.962 197.366 177.344C197.208 176.725 197.629 176.107 198.307 175.961Z" fill="#E39F44"/>
<path d="M173.101 165.783C173.725 165.559 174.431 165.832 174.686 166.398C174.942 166.963 174.652 167.61 174.035 167.851C173.629 168.01 173.159 167.957 172.807 167.712C172.455 167.468 172.275 167.069 172.336 166.67C172.396 166.27 172.689 165.931 173.101 165.783Z" fill="#E39F44"/>
<path d="M178.642 167.66C179.265 167.547 179.871 167.915 179.996 168.482C180.121 169.049 179.718 169.602 179.096 169.716C178.472 169.831 177.864 169.464 177.739 168.895C177.614 168.327 178.018 167.774 178.642 167.66Z" fill="#E39F44"/>
<path d="M187.486 193.416C187.942 193.421 188.451 193.392 188.578 193.849C188.4 194.193 187.566 194.599 187.179 194.797C187.463 194.921 187.455 194.86 187.841 194.801L187.899 194.645L187.993 194.741C187.751 195.222 186.904 195.383 186.668 194.821C186.796 194.037 186.875 193.925 187.486 193.416Z" fill="#E39F44"/>
<path d="M143.256 197.155C143.82 197.329 145.462 197.797 145.878 198.069C149.298 200.307 151.782 201.427 155.888 202.334L154.741 206.789C154.438 208.002 153.901 210.398 153.409 211.489C152.188 212.324 149.994 212.805 148.508 212.928C147.41 213.019 144.319 213.224 144.024 211.887C143.814 210.935 145.158 209.922 145.73 209.195L145.803 209.102C145.515 207.274 144.381 203.396 143.867 201.434L143.658 200.598C143.456 199.352 143.347 198.413 143.256 197.155Z" fill="#F3BE5E"/>
<path d="M143.256 197.155C143.82 197.329 145.462 197.797 145.878 198.069C149.298 200.307 151.782 201.427 155.888 202.334L154.741 206.789C154.16 202.78 152.374 203.805 149.076 202.39C147.655 201.781 146.267 200.755 144.824 200.263C144.592 200.524 143.984 201.169 143.867 201.434L143.658 200.598C143.456 199.352 143.347 198.413 143.256 197.155Z" fill="#E39F44"/>
<path d="M143.658 200.598C143.688 200.417 143.728 200.25 143.768 200.072L143.943 199.98C144.273 200.128 144.463 200.196 144.824 200.263C144.592 200.524 143.984 201.169 143.867 201.434L143.658 200.598Z" fill="#E39F44"/>
<path d="M175.438 202.235C177.859 201.859 180.031 201.355 182.197 200.227C184.047 199.262 185.628 198.249 187.578 197.448C187.447 198.436 187.337 199.228 187.116 200.205C186.563 202.657 185.323 205.941 184.48 208.396C184.983 208.933 187.257 210.715 186.187 211.445C185.622 211.831 183.8 211.844 183.058 211.823C181.462 211.86 178.473 211.553 177.077 210.786C176.271 210.344 176.169 207.346 176.056 206.365C175.902 204.982 175.696 203.604 175.438 202.235Z" fill="#F3BE5E"/>
<path d="M175.438 202.235C177.859 201.859 180.031 201.355 182.197 200.227C184.047 199.262 185.628 198.249 187.578 197.448C187.447 198.436 187.337 199.228 187.116 200.205L186.871 200.101C185.709 200.607 184.414 201.361 183.245 201.918C182.07 202.477 179.652 203.162 178.762 203.856C177.432 204.893 178.011 208.88 178.549 210.042C179.776 211.075 181.45 211.496 183.058 211.823C181.462 211.86 178.473 211.553 177.077 210.786C176.271 210.344 176.169 207.346 176.056 206.365C175.902 204.982 175.696 203.604 175.438 202.235Z" fill="#E39F44"/>
</svg>
