<svg preserveAspectRatio="none" width="100%" height="100%" overflow="visible" style="display: block;" viewBox="0 0 20 20" fill="none" xmlns="http://www.w3.org/2000/svg">
<g id="lsicon:paste-filled">
<path id="Vector" fill-rule="evenodd" clip-rule="evenodd" d="M6.875 2.5C6.70924 2.5 6.55027 2.56585 6.43306 2.68306C6.31585 2.80027 6.25 2.95924 6.25 3.125V5H7.5V3.75H16.25V12.5H15V13.75H16.875C17.0408 13.75 17.1997 13.6842 17.3169 13.5669C17.4342 13.4497 17.5 13.2908 17.5 13.125V3.125C17.5 2.95924 17.4342 2.80027 17.3169 2.68306C17.1997 2.56585 17.0408 2.5 16.875 2.5H6.875ZM3.125 6.25C2.95924 6.25 2.80027 6.31585 2.68306 6.43306C2.56585 6.55027 2.5 6.70924 2.5 6.875V16.875C2.5 17.0408 2.56585 17.1997 2.68306 17.3169C2.80027 17.4342 2.95924 17.5 3.125 17.5H13.125C13.2908 17.5 13.4497 17.4342 13.5669 17.3169C13.6842 17.1997 13.75 17.0408 13.75 16.875V6.875C13.75 6.70924 13.6842 6.55027 13.5669 6.43306C13.4497 6.31585 13.2908 6.25 13.125 6.25H3.125ZM5 11.25H11.25V10H5V11.25ZM5 13.75H11.25V12.5H5V13.75Z" fill="var(--fill-0, #888880)"/>
</g>
</svg>
