<svg width="12" height="12" viewBox="0 0 12 12" fill="none" xmlns="http://www.w3.org/2000/svg">
  <path fill-rule="evenodd" clip-rule="evenodd" d="M5.91181 7.50332L9.88906 11.4806C10.1001 11.6916 10.3863 11.8102 10.6848 11.8102C10.9833 11.8102 11.2695 11.6916 11.4806 11.4806C11.6916 11.2695 11.8102 10.9833 11.8102 10.6848C11.8102 10.3864 11.6916 10.1001 11.4806 9.88907L7.50181 5.91183L11.4798 1.93458C11.5843 1.83008 11.6671 1.70603 11.7236 1.56951C11.7801 1.43299 11.8092 1.28669 11.8092 1.13894C11.8091 0.991186 11.78 0.84489 11.7234 0.7084C11.6668 0.571911 11.5839 0.447901 11.4794 0.343451C11.3749 0.239001 11.2509 0.156156 11.1144 0.0996469C10.9779 0.0431377 10.8315 0.0140707 10.6838 0.0141055C10.536 0.0141404 10.3898 0.0432762 10.2533 0.0998497C10.1168 0.156423 9.99276 0.239327 9.88831 0.343826L5.91181 4.32108L1.93456 0.343826C1.83084 0.236329 1.70674 0.150567 1.56951 0.0915427C1.43228 0.0325188 1.28468 0.00141517 1.1353 4.71778e-05C0.985927 -0.00132081 0.837775 0.0270739 0.69949 0.0835747C0.561206 0.140076 0.435559 0.223551 0.32988 0.32913C0.224201 0.434709 0.140608 0.560278 0.0839764 0.698509C0.0273453 0.83674 -0.00118917 0.984865 3.79626e-05 1.13424C0.0012651 1.28362 0.0322291 1.43125 0.0911236 1.56854C0.150018 1.70582 0.235664 1.83 0.343062 1.93383L4.32181 5.91183L0.343813 9.88982C0.236414 9.99365 0.150768 10.1178 0.0918739 10.2551C0.0329794 10.3924 0.00201504 10.54 0.000787908 10.6894C-0.000439225 10.8388 0.0280952 10.9869 0.0847264 11.1251C0.141358 11.2634 0.224951 11.3889 0.33063 11.4945C0.436309 11.6001 0.561956 11.6836 0.70024 11.7401C0.838524 11.7966 0.986677 11.825 1.13605 11.8236C1.28543 11.8222 1.43303 11.7911 1.57026 11.7321C1.70749 11.6731 1.83159 11.5873 1.93531 11.4798L5.91181 7.50332Z" fill="#888880"/>
</svg>
