<svg preserveAspectRatio="none" width="100%" height="100%" overflow="visible" style="display: block;" viewBox="0 0 110 115" fill="none" xmlns="http://www.w3.org/2000/svg">
<g id="Vector">
<path d="M58.9541 0.106039C63.8723 -0.464808 65.7065 1.36635 69.7966 3.27034C73.1515 4.74603 77.6621 6.02549 80.6287 8.2138C85.3586 11.7033 92.8049 20.7649 93.8858 26.4938C95.2234 27.7936 95.5703 29.4531 96.1172 31.1693C97.5851 35.772 98.2223 40.7153 97.8779 45.5391C97.7656 47.1253 97.0446 49.6334 96.7028 51.2769C96.9002 51.2682 97.0962 51.2608 97.2936 51.2547C99.4476 51.1886 101.996 51.4021 104.078 51.2593C111.514 50.7493 109.828 56.3552 109.852 61.7723L109.899 103.146C109.908 106.028 109.983 109.049 109.833 111.929C109.79 112.785 109.557 113.222 108.983 113.849C108.297 114.596 107.241 114.817 106.226 114.876C104.285 114.987 102.145 114.939 100.182 114.939L10.2134 114.953C9.38166 114.957 8.48651 114.997 7.65275 114.969C5.08427 114.885 0.421469 115.758 0.151633 111.965C-0.0409411 109.258 0.0680541 106.385 0.0708918 103.635L0.0560598 66.682C0.0395497 62.7935 -0.0797672 58.6747 0.0902348 54.7951C0.272103 50.6457 5.3919 51.2334 8.31766 51.251C10.7858 51.2872 13.2544 51.2708 15.7219 51.2017C14.2642 46.1783 14.6257 44.7475 14.9879 39.7106C15.639 30.6559 18.4078 22.9244 24.2029 15.8771C26.3205 13.3021 28.8203 11.0855 31.4871 9.09471C32.2985 8.39917 33.9435 7.72121 34.6708 7.05555C38.2058 3.82036 42.3707 3.30539 46.9118 2.26046C50.7956 1.36687 54.8511 0.500574 58.9541 0.106039Z" fill="#62230C"/>
<path d="M37.1952 7.28075C38.4159 6.45287 39.5809 5.84943 40.992 5.38504C42.8016 4.78936 44.6929 4.41876 46.5454 3.98296C49.938 3.18483 53.3399 2.39576 56.7988 1.94379C58.7065 1.69465 60.8953 1.44732 62.8069 1.82892C65.1557 2.29758 67.4697 4.06639 69.674 4.99866C71.948 6.02354 74.3859 6.71469 76.5696 7.66908C80.6249 9.44035 83.7179 12.853 86.3157 16.3279C87.1399 17.4286 88.0634 18.5037 88.858 19.6596C89.539 20.6526 89.5661 22.476 89.9298 23.1615C90.0485 23.384 91.6286 24.3935 92.1148 25.2814C92.881 26.6808 93.2138 27.876 93.74 29.2893C95.3652 33.6455 96.1895 37.4071 96.2436 42.0795C96.2604 43.5938 96.3313 45.5014 95.9947 46.9949C95.6825 48.3729 95.2105 49.7411 94.9293 51.1609H90.5477C89.2514 43.5503 74.6529 42.0406 72.8703 51.1532L37.3391 51.1586C35.3215 41.9339 20.6891 43.7415 19.6699 51.1621L17.2884 51.1533C16.8379 49.3176 16.2945 47.3539 16.208 45.4738C16.1147 43.4422 16.4554 41.4166 16.5914 39.3909C16.4434 38.4525 17.8182 31.7449 18.1756 30.7072C18.5454 29.8673 18.9802 28.1307 19.3462 27.1396C20.1556 24.9473 21.0837 23.3055 22.3019 21.3305C24.0497 18.4665 27.0305 14.8113 29.5933 12.6528C31.3038 11.0745 35.0722 8.95138 37.1952 7.28075Z" fill="#F7C45D"/>
<path d="M16.5914 39.3909C16.4434 38.4525 17.8182 31.7449 18.1756 30.7072L18.2944 31.3426L18.4992 31.4607C20.095 30.9609 21.3672 30.5769 22.9204 31.4872C24.4053 32.3573 28.1284 35.7962 28.5213 37.4244C30.1216 44.056 20.7017 45.1741 17.3982 41.2099C17.0797 40.8307 16.8797 39.4663 16.5914 39.3909Z" fill="#A95D28"/>
<path d="M49.0049 35.526C50.4191 35.448 52.5589 35.6711 54.0682 35.6961C55.5064 35.7199 62.0304 35.0942 62.7024 36.1684C64.6875 39.3424 62.9449 43.2622 60.3033 45.4747C59.4572 46.0465 58.5117 46.4539 57.5159 46.6761C52.9298 47.7289 47.7877 45.4241 46.9082 40.4869C46.5236 38.3277 46.3385 36.0843 49.0049 35.526Z" fill="#62230C"/>
<path d="M56.6737 40.3302C58.108 40.2738 60.0092 40.8092 61.2694 41.4854C60.164 44.2396 57.8152 45.1173 55.0111 45.2255C53.1314 45.1067 51.7719 44.6505 50.3221 43.4357C50.4218 43.2856 50.53 43.1414 50.6461 43.0036C52.0805 41.3099 54.5403 40.5459 56.6737 40.3302Z" fill="#EA6B4A"/>
<path d="M48.9279 36.7979C52.7269 36.7071 56.7936 37.1782 60.6541 36.8661C61.1933 36.8226 61.6486 37.0162 61.5712 37.6421C61.263 38.0553 61.0824 38.1048 60.6206 38.3441C59.6171 38.5693 58.3144 39.0322 57.3341 39.1714C55.4187 39.4429 49.5231 39.6445 48.6417 37.7307C48.6063 37.2549 48.6588 37.224 48.9279 36.7979Z" fill="#FBF9EC"/>
<path d="M58.5607 6.04321C60.1085 6.02924 61.1907 6.23854 62.4986 7.16899C64.5804 8.64882 66.3308 11.5163 64.4785 13.9123C63.2751 15.4688 61.9337 15.8458 60.066 16.1061C58.2808 16.1421 56.5331 15.5915 55.0884 14.538C50.5419 11.1679 53.7971 6.69866 58.5607 6.04321Z" fill="#A55923"/>
<path d="M37.5904 15.7211C38.2082 15.6537 38.8614 15.6382 39.4845 15.6528C42.5176 15.7274 44.3018 19.3234 42.9346 21.9013C42.0433 23.5816 40.759 24.1165 39.0427 24.6452C37.9648 24.9673 36.9952 25.1237 35.9008 24.754C35.0728 24.4732 34.4015 23.8554 34.0514 23.0522C32.7212 20.0791 34.8683 16.9639 37.5904 15.7211Z" fill="#944C20"/>
<path d="M71.0361 21.3606C64.663 17.5385 72.5968 12.7978 75.2939 16.2499C76.5902 17.6199 77.1474 19.9585 75.5261 21.3506C74.8541 21.9258 73.9731 22.1937 73.096 22.0899C72.3582 22.0079 71.6965 21.6804 71.0361 21.3606Z" fill="#944C20"/>
<path d="M75.2939 16.2499C76.5902 17.6199 77.1474 19.9585 75.5261 21.3506C74.8541 21.9258 73.9731 22.1937 73.096 22.0899C72.3582 22.0079 71.6965 21.6804 71.0361 21.3606C71.6978 19.9583 72.3363 19.8938 73.5823 19.0876C74.3755 18.5736 74.9831 18.0636 75.6654 17.4118C75.5635 16.9263 75.4758 16.7174 75.2939 16.2499Z" fill="#B36D33"/>
<path d="M67.7973 31.5251C68.4771 31.4597 69.2755 31.5317 69.9655 31.766C71.672 32.345 73.5449 34.4645 72.9606 36.3639C72.9 36.5597 72.6407 36.8711 72.4163 36.927C70.3822 37.4313 71.0787 34.3989 69.2471 33.9643C69.202 33.9437 69.1568 33.9231 69.1117 33.9026C65.0177 33.1585 66.4855 37.1548 64.08 36.5687C62.6805 35.3447 63.9639 33.2149 65.2383 32.4458C66.2276 31.8489 66.67 31.7073 67.7973 31.5251Z" fill="#62230C"/>
<path d="M40.9377 31.2641C41.4726 31.2338 42.0803 31.243 42.6093 31.348C43.8888 31.6061 45.016 32.3577 45.7484 33.4409C46.3673 34.3707 46.9432 35.7292 45.7444 36.4319C44.2326 36.6347 44.2933 34.2536 42.1986 33.5556C38.9472 33.3708 39.5943 35.5097 38.3391 36.5205C37.416 36.8197 36.3793 36.0668 36.7249 35.0127C37.4055 32.9368 38.7841 31.6071 40.9377 31.2641Z" fill="#62230C"/>
<path d="M37.3496 7.30249C38.5223 7.00898 38.5482 7.94991 39.734 8.46087C37.4467 10.7 34.2988 11.524 32.1188 13.9295C31.633 14.4658 30.7377 15.1848 30.1574 15.6384C30.0034 15.403 30.0579 14.938 30.0633 14.627L29.6766 14.795L29.7562 14.8346L29.712 14.9071L29.6462 14.7081C30.9684 12.4175 36.7262 10.7725 37.1576 8.83406C36.8179 7.92171 36.7658 8.00709 37.3496 7.30249Z" fill="#F9EECA"/>
<path d="M56.4673 2.18737C57.3857 2.01649 58.8548 1.81379 59.4959 2.58579C59.55 2.94216 59.5887 2.97256 59.4275 3.29802C58.7774 3.59282 57.2231 3.80393 56.4583 3.93574C55.3851 4.077 54.5743 4.14375 53.5045 4.20532C55.042 2.79509 54.0969 2.52111 56.4673 2.18737Z" fill="#F9EECA"/>
<path d="M22.4759 21.6806C22.6394 22.2023 22.5222 22.1027 22.8877 22.3616C23.2848 22.2686 23.622 21.8287 23.9228 21.5157L23.8082 21.9616C23.5606 22.7323 22.8691 25.5557 22.0664 25.6517L21.7036 25.3343C20.9954 25.3859 20.3249 27.0481 19.4257 27.8769C19.9587 26.0354 21.3873 23.2852 22.4759 21.6806Z" fill="#FAD790"/>
<path d="M29.6462 14.7081L29.712 14.9071L29.7562 14.8346L29.6766 14.795L30.0633 14.627C30.0579 14.938 30.0034 15.403 30.1574 15.6384C28.4095 17.4697 26.9045 19.1872 25.4238 21.2438C25.2659 21.4632 24.9563 21.6361 24.7057 21.7361C24.2296 20.6794 28.7667 15.7966 29.4325 14.6718L29.6462 14.7081Z" fill="#EBCF9D"/>
<path d="M74.0479 7.58681C75.4938 7.42731 78.089 8.47898 79.0448 9.67345C79.1544 9.80953 78.9403 10.1239 78.8629 10.2893C77.9317 9.88507 74.4903 8.45052 73.9383 7.86441L74.0479 7.58681Z" fill="#FAD790"/>
<path d="M22.491 21.5246C23.2304 20.3459 23.7013 19.4762 24.781 18.5762L25.0312 18.5346C25.3244 19.2544 24.2139 20.8266 23.9228 21.5157C23.622 21.8287 23.2848 22.2686 22.8877 22.3616C22.5222 22.1027 22.6394 22.2023 22.4759 21.6806L22.491 21.5246Z" fill="#EBCF9D"/>
<path d="M87.5578 24.8502C89.0514 25.4092 90.4303 28.905 90.6199 30.4455L90.5257 30.5412C90.4509 29.9448 90.4174 29.858 90.1659 29.3102C89.152 28.9576 87.8609 26.5329 87.3966 25.5335L87.5255 25.4851L88.4787 25.983C88.0312 25.5191 87.9254 25.3833 87.5578 24.8502Z" fill="#EBCF9D"/>
<path d="M37.2764 52.4651C40.6674 52.4854 72.464 52.3257 72.9258 52.5729L73.0651 53.0614C74.4852 57.7345 78.752 58.9881 83.2097 57.7265C86.1944 56.882 88.1331 54.9552 89.9272 52.5223L100.118 52.4773C102.143 52.4709 105.884 52.2252 107.594 53.0781C105.608 56.0528 103.831 56.9842 101.061 59.1365L91.893 66.2635L74.7844 79.6391C72.8368 81.1578 70.7962 82.8601 68.8434 84.3283C68.7853 82.3854 68.7699 80.6442 67.311 79.1631C66.6003 78.4413 64.5559 77.2732 64.1406 76.6386C62.6057 74.2987 61.7015 71.7919 58.366 71.904C57.3212 71.9392 56.0004 72.2067 54.9393 72.237C54.0914 72.2556 51.6482 71.92 50.9257 72.1845C50.1724 72.7244 49.416 72.8183 48.4131 73.5049C49.3898 73.2986 49.9729 73.0752 50.951 73.273C48.5915 73.8532 48.166 74.4035 46.6926 76.394C46.7729 75.9212 46.8256 75.7792 46.7506 75.3172C46.5179 75.2933 45.8565 76.05 45.5173 76.275C45.1297 76.8753 44.7054 77.6279 44.2958 78.1697C42.5653 80.4618 41.385 81.009 40.5997 83.8988C31.9788 77.056 23.3168 70.2652 14.6142 63.5271C12.4087 61.8107 10.1934 60.1072 7.96812 58.4166C5.38159 56.442 4.17893 55.8569 2.42551 53.114C4.07097 52.1262 7.52853 52.4542 9.55269 52.4608L20.2663 52.506C23.4017 56.9649 28.5934 59.8494 34.022 57.1655C35.3008 56.5332 36.1802 55.3426 36.8446 54.1072C37.0528 53.5476 37.1476 53.0451 37.2764 52.4651Z" fill="#F9EECA"/>
<path d="M37.2764 52.4651C40.6674 52.4854 72.464 52.3257 72.9258 52.5729L73.0651 53.0614L73.0586 53.8827C72.7736 54.091 70.1539 53.9879 69.5644 53.9975C61.3094 54.1322 53.0308 54.4333 44.7742 54.3047C43.193 54.2801 38.0974 54.5313 36.8446 54.1072C37.0528 53.5476 37.1476 53.0451 37.2764 52.4651Z" fill="#FBF9EC"/>
<path d="M45.5173 76.275C46.6606 74.1446 48.435 72.4283 50.9257 72.1845C50.1724 72.7244 49.416 72.8183 48.4131 73.5049C49.3898 73.2986 49.9729 73.0752 50.951 73.273C48.5915 73.8532 48.166 74.4035 46.6926 76.394C46.7729 75.9212 46.8256 75.7792 46.7506 75.3172C46.5179 75.2933 45.8565 76.05 45.5173 76.275Z" fill="var(--fill-0, #662C12)"/>
<path d="M5.62652 111.399C7.87137 109.527 11.6339 106.875 14.0432 105.058L31.7693 91.6951L38.1317 86.9206C38.5374 86.6153 39.9401 85.4524 40.2279 85.3347C40.9097 85.6037 41.0706 86.7304 41.4279 87.407C41.9009 88.3021 42.8192 89.2697 43.2097 90.1377C44.5985 93.228 43.7468 94.8061 46.7168 96.9275C49.1388 97.8641 50.98 97.3117 53.451 97.5355C55.4857 97.7192 57.0826 98.5652 59.1863 98.1564C63.4557 97.326 64.7804 92.7907 67.1266 89.4262C67.8192 88.2219 68.223 87.4134 68.6705 86.0707L69.7875 85.3437C72.4756 87.5182 75.5067 89.716 78.2851 91.8038L95.2646 104.562C97.8327 106.497 100.761 108.598 103.254 110.576C104.371 111.338 106.277 112.737 107.313 113.618C105.787 113.799 103.979 113.744 102.417 113.745L26.187 113.752C18.536 113.752 10.1758 113.927 2.58351 113.739C3.59772 112.889 4.55994 112.182 5.62652 111.399Z" fill="#F9EECA"/>
<path d="M103.254 110.576C104.371 111.338 106.277 112.737 107.313 113.618C105.787 113.799 103.979 113.744 102.417 113.745L26.187 113.752C18.536 113.752 10.1758 113.927 2.58351 113.739C3.59772 112.889 4.55994 112.182 5.62652 111.399C6.03643 111.665 14.7079 111.488 15.9748 111.501C44.015 111.546 72.0551 111.387 100.093 111.023C100.984 111.005 102.528 111.021 103.254 110.576Z" fill="#EBCF9D"/>
<path d="M67.1266 89.4262C67.5032 91.7572 65.4962 94.1619 64.1844 95.9121C63.0584 97.4165 61.4229 98.8174 59.5113 99.1227C58.7658 99.2404 58.0099 99.2766 57.2567 99.2314C55.9591 99.1563 54.4171 98.8032 53.1094 98.6053C51.2028 98.3155 47.9767 98.5445 46.7168 96.9275C49.1388 97.8641 50.98 97.3117 53.451 97.5355C55.4857 97.7192 57.0826 98.5652 59.1863 98.1564C63.4557 97.326 64.7804 92.7907 67.1266 89.4262Z" fill="#EBCF9D"/>
<path d="M37.0071 86.2751C34.0256 88.7367 29.3699 91.9745 26.1824 94.3482L4.64147 110.553C4.10489 110.963 2.09015 112.596 1.56996 112.527C0.99636 111.158 1.2266 99.5599 1.22479 97.185L1.2115 72.8198L1.2204 62.5771C1.21757 61.0542 1.07994 55.4321 1.42923 54.3087C1.70681 54.4171 1.84275 54.6547 2.01224 54.957C2.40371 55.6552 3.07946 56.1986 3.68272 56.7508C5.71023 58.1246 8.32269 60.2624 10.3027 61.7941L22.3876 71.2106C27.6945 75.3872 34.3382 80.2148 39.3337 84.5715C38.7221 85.0203 37.6075 85.8922 37.0071 86.2751Z" fill="#F9EECA"/>
<path d="M3.68272 56.7508C5.71023 58.1246 8.32269 60.2624 10.3027 61.7941L22.3876 71.2106C27.6945 75.3872 34.3382 80.2148 39.3337 84.5715C38.7221 85.0203 37.6075 85.8922 37.0071 86.2751C36.4046 85.3593 32.0296 81.7567 31.0038 80.8641L10.9175 63.4552C9.46536 62.1744 4.33732 58.119 3.68272 56.7508Z" fill="#EBCF9D"/>
<path d="M107.464 55.5835C107.723 55.1544 108.004 54.5541 108.413 54.3353C108.662 54.6138 108.674 54.8481 108.675 55.2707C108.683 58.6166 108.676 61.9869 108.675 65.3316L108.684 85.4666L108.71 102.024C108.714 104.155 108.936 111.07 108.411 112.612C107.904 112.552 105.849 111.045 105.546 110.631C101.84 108.174 96.8253 104.142 93.1518 101.385L72.5569 86.0021C71.9932 85.6529 71.2451 85.0165 70.7059 84.5818C72.4575 82.9636 75.1275 80.9689 77.0455 79.4736L98.2094 62.9607C100.313 61.3071 102.898 59.1584 105.062 57.6568C105.945 56.9486 106.662 56.3889 107.464 55.5835Z" fill="#F9EECA"/>
<path d="M107.464 55.5835C107.723 55.1544 108.004 54.5541 108.413 54.3353C108.662 54.6138 108.674 54.8481 108.675 55.2707C108.683 58.6166 108.676 61.9869 108.675 65.3316L108.684 85.4666L108.71 102.024C108.714 104.155 108.936 111.07 108.411 112.612C107.904 112.552 105.849 111.045 105.546 110.631C105.772 110.528 105.718 110.551 105.914 110.391C106.437 107.374 106.321 106.082 106.391 103.04L106.556 95.5305C106.677 89.1442 106.85 82.7579 107.073 76.3747L107.575 62.2279C107.654 60.1869 107.639 57.9241 107.743 55.8725C107.749 55.7277 107.592 55.6749 107.464 55.5835Z" fill="#EBCF9D"/>
<path d="M105.062 57.6568C104.061 59.044 100.688 61.9094 99.3289 63.075L92.9545 68.558C87.3501 73.3398 81.8734 78.2757 76.1968 82.9752C75.6938 83.3917 72.691 85.7913 72.5569 86.0021C71.9932 85.6529 71.2451 85.0165 70.7059 84.5818C72.4575 82.9636 75.1275 80.9689 77.0455 79.4736L98.2094 62.9607C100.313 61.3071 102.898 59.1584 105.062 57.6568Z" fill="#EBCF9D"/>
<path d="M50.951 73.273C52.208 73.1869 53.5244 73.2852 54.7928 73.3078C56.9084 73.3774 59.1334 72.3417 60.9353 73.8626C61.9801 74.7448 62.3722 76.4972 63.1423 77.2702C65.4446 79.5809 67.5239 79.3209 67.6838 83.2934C67.6915 83.4862 67.6928 83.6802 67.6877 83.8742C67.6799 85.3605 67.3755 86.7679 66.5707 88.0395C66.2134 89.1972 65.2009 90.095 64.6424 91.0806C63.4273 93.2292 62.4135 95.7879 59.8712 96.6623C57.4876 97.4838 54.9595 96.3506 52.5473 96.2057C50.8661 96.0595 48.7913 96.6378 47.2182 95.8086C45.1462 94.7168 45.3059 91.7223 44.3852 89.8621C43.7059 88.4897 42.4138 87.3668 41.9837 85.931C41.0856 82.9325 43.2105 81.0931 44.9945 79.079C45.6963 78.2628 46.2202 77.3197 46.6926 76.394C48.166 74.4035 48.5915 73.8532 50.951 73.273Z" fill="#B36D33"/>
<path d="M67.6877 83.8742C67.6799 85.3605 67.3755 86.7679 66.5707 88.0395C66.9202 86.2311 66.5926 85.5365 67.6877 83.8742Z" fill="#944C20"/>
<path d="M45.4866 82.093C46.6923 78.1826 50.1701 75.4166 54.2417 75.1306C58.3131 74.8447 62.1413 77.0972 63.8788 80.8007C64.3882 81.8886 64.6978 83.0593 64.7894 84.2571C65.0344 87.4186 63.7549 90.5076 61.3494 92.5657C58.1905 95.2679 53.6861 95.7025 50.0713 93.6561C48.9345 93.0119 47.936 92.1491 47.1336 91.1169C46.3816 90.1493 45.8152 89.0498 45.4633 87.8739C44.8981 85.9879 44.9063 83.9751 45.4866 82.093Z" fill="var(--fill-0, #662C12)"/>
<path d="M48.4299 82.9403C48.4355 82.591 48.5327 81.8653 48.7082 81.604C49.5916 80.2833 52.0523 78.4452 53.5406 78.0254C56.9987 79.0169 56.9549 77.5297 59.7745 79.9289C60.7096 81.3026 61.4667 84.2326 61.1469 85.8961C60.845 87.4742 59.5449 88.5608 58.2795 89.4339C56.6762 90.5386 54.4066 90.7366 52.5342 90.4015C51.1344 90.1506 50.0076 88.4677 49.1261 87.4639C48.3932 86.6295 48.1345 86.6036 47.9982 85.4239C47.9694 85.8508 47.932 86.2195 47.9615 86.6489C47.7526 86.6282 47.4091 86.6386 47.1879 86.6373L47.092 86.4342C47.2172 85.5274 47.3113 85.0268 47.5428 84.1433L47.6523 84.0256C48.1434 83.8303 48.1237 83.5534 48.4299 82.9403Z" fill="#EDB052"/>
<path d="M47.6523 84.0256C48.1434 83.8303 48.1237 83.5534 48.4299 82.9403C48.4211 83.9842 48.3999 84.4331 47.9982 85.4239C47.9694 85.8508 47.932 86.2195 47.9615 86.6489C47.7526 86.6282 47.4091 86.6386 47.1879 86.6373L47.092 86.4342C47.2172 85.5274 47.3113 85.0268 47.5428 84.1433L47.6523 84.0256Z" fill="#62230C"/>
<path d="M51.8931 82.5289C52.6073 82.3103 53.3626 82.7165 53.5756 83.4344C53.7884 84.1524 53.3775 84.9065 52.6601 85.1148C51.9502 85.3204 51.2077 84.9143 50.9971 84.2028C50.7863 83.4926 51.1864 82.745 51.8931 82.5289Z" fill="#62230C"/>
<path d="M57.4398 80.4528C57.8552 80.2575 58.3453 80.3053 58.7155 80.5783C59.0857 80.8512 59.2779 81.3039 59.2172 81.7606C59.1566 82.2172 58.8522 82.6053 58.424 82.7708C57.792 83.014 57.0813 82.7126 56.8156 82.0878C56.5498 81.4631 56.8259 80.74 57.4398 80.4528Z" fill="#944C20"/>
<path d="M54.0098 87.1896C54.6064 86.9451 55.2884 87.2258 55.5425 87.8183C55.7966 88.412 55.5309 89.1015 54.9432 89.368C54.5537 89.5439 54.0994 89.496 53.7551 89.2412C53.411 88.9877 53.2306 88.566 53.2834 88.1404C53.3362 87.7148 53.614 87.3513 54.0098 87.1896Z" fill="#944C20"/>
<path d="M57.89 85.746C58.3208 85.5817 58.8019 85.79 58.9799 86.2156C59.1566 86.6412 58.9657 87.1301 58.5478 87.3216C58.2653 87.4509 57.9338 87.416 57.6849 87.2297C57.436 87.0435 57.307 86.7356 57.3496 86.4264C57.3934 86.1186 57.5998 85.8573 57.89 85.746Z" fill="#62230C"/>
<path d="M49.4846 85.6555C49.8588 85.5403 50.2585 85.7331 50.4027 86.0979C50.547 86.4627 50.3875 86.8779 50.0361 87.0512C49.7827 87.1767 49.4806 87.1482 49.2545 86.9788C49.0284 86.808 48.9165 86.526 48.9652 86.2466C49.0136 85.9672 49.2143 85.7395 49.4846 85.6555Z" fill="#62230C"/>
<path d="M52.8414 79.6702C53.0658 79.5395 53.3428 79.5421 53.5658 79.6741C53.7888 79.8073 53.9229 80.0505 53.9168 80.3105C53.9106 80.5692 53.7649 80.8059 53.536 80.9275C53.1906 81.1112 52.7622 80.9844 52.5729 80.6416C52.3835 80.2976 52.503 79.8668 52.8414 79.6702Z" fill="#62230C"/>
<path d="M45.4866 82.093C46.6923 78.1826 50.1701 75.4166 54.2417 75.1306C58.3131 74.8447 62.1413 77.0972 63.8788 80.8007C64.3882 81.8886 64.6978 83.0593 64.7894 84.2571C65.0344 87.4186 63.7549 90.5076 61.3494 92.5657C60.996 92.294 60.7857 92.1595 60.5045 91.8193L60.7019 91.5825C61.6048 91.025 62.5257 89.6306 62.9617 88.6682C62.6895 88.1624 62.6728 87.513 62.6083 86.9322C62.7437 86.6075 62.7953 85.856 62.7824 85.477C62.6973 82.9817 62.4599 81.2289 60.6451 79.4063C58.78 77.5336 56.5111 77.5044 54.0251 77.4204C52.3746 77.3645 49.8967 78.8682 48.7994 80.0401C47.5836 81.3376 47.5977 82.3453 47.6523 84.0256L47.5428 84.1433C47.3113 85.0268 47.2172 85.5274 47.092 86.4342C46.7243 86.7964 46.7182 86.8727 46.6388 87.3888L46.4831 87.2815L46.437 87.363C45.9134 87.3487 45.7953 87.4897 45.4633 87.8739C44.8981 85.9879 44.9063 83.9751 45.4866 82.093Z" fill="#944C20"/>
<path d="M45.4866 82.093C46.6923 78.1826 50.1701 75.4166 54.2417 75.1306C58.3131 74.8447 62.1413 77.0972 63.8788 80.8007C63.5705 80.8253 63.3409 80.8421 63.0313 80.8978L62.9114 81.1216C58.9335 73.9419 48.9556 75.0288 46.261 83.0166L46.278 83.2469C46.7884 83.1253 46.8302 83.0179 47.209 83.1822C47.3482 83.5314 47.4327 83.785 47.5428 84.1433C47.3113 85.0268 47.2172 85.5274 47.092 86.4342C46.7243 86.7964 46.7182 86.8727 46.6388 87.3888L46.4831 87.2815L46.437 87.363C45.9134 87.3487 45.7953 87.4897 45.4633 87.8739C44.8981 85.9879 44.9063 83.9751 45.4866 82.093Z" fill="#62230C"/>
<path d="M46.278 83.2469C46.7884 83.1253 46.8302 83.0179 47.209 83.1822C47.3482 83.5314 47.4327 83.785 47.5428 84.1433C47.3113 85.0268 47.2172 85.5274 47.092 86.4342C46.7243 86.7964 46.7182 86.8727 46.6388 87.3888L46.4831 87.2815C45.9757 86.1005 45.985 84.4783 46.278 83.2469Z" fill="#944C20"/>
<path d="M63.7743 84.0579C64.2257 84.2002 64.2515 84.2183 64.7146 84.1886L64.7894 84.2571C65.0344 87.4186 63.7549 90.5076 61.3494 92.5657C60.996 92.294 60.7857 92.1595 60.5045 91.8193L60.7019 91.5825C61.6048 91.025 62.5257 89.6306 62.9617 88.6682C63.8117 87.2052 63.8491 85.6904 63.7743 84.0579Z" fill="#61260F"/>
<path d="M63.8788 80.8007C64.3882 81.8886 64.6978 83.0593 64.7894 84.2571L64.7146 84.1886C64.2515 84.2183 64.2257 84.2002 63.7743 84.0579C63.5163 82.9092 63.3461 82.2224 62.9114 81.1216L63.0313 80.8978C63.3409 80.8421 63.5705 80.8253 63.8788 80.8007Z" fill="var(--fill-0, #662C12)"/>
<path d="M46.4831 87.2815L46.6388 87.3888C46.7182 86.8727 46.7243 86.7964 47.092 86.4342L47.1879 86.6373C47.4019 87.8183 47.7143 88.2568 48.2004 89.333C49.3883 89.9682 49.5888 90.7805 50.4254 91.4454C52.9345 93.4362 56.9149 92.9304 59.5049 91.3122C59.955 91.2954 60.1305 91.2708 60.5651 91.3626L60.7019 91.5825L60.5045 91.8193C60.7857 92.1595 60.996 92.294 61.3494 92.5657C58.1905 95.2679 53.6861 95.7025 50.0713 93.6561C48.9345 93.0119 47.936 92.1491 47.1336 91.1169C46.3816 90.1493 45.8152 89.0498 45.4633 87.8739C45.7953 87.4897 45.9134 87.3487 46.437 87.363L46.4831 87.2815Z" fill="#944C20"/>
<path d="M51.1843 92.9136C54.5275 94.3947 57.5882 93.8566 60.5045 91.8193C60.7857 92.1595 60.996 92.294 61.3494 92.5657C58.1905 95.2679 53.6861 95.7025 50.0713 93.6561L50.0945 93.4155C50.425 93.0352 50.6373 93.074 51.1843 92.9136Z" fill="#5C240D"/>
<path d="M45.4633 87.8739C45.7953 87.4897 45.9134 87.3487 46.437 87.363C46.9451 88.8143 47.2493 89.324 48.1438 90.5813C47.8471 90.9254 47.5911 90.9992 47.1336 91.1169C46.3816 90.1493 45.8152 89.0498 45.4633 87.8739Z" fill="var(--fill-0, #662C12)"/>
<path d="M48.1438 90.5813C49.2024 91.6408 49.8388 92.2707 51.1843 92.9136C50.6373 93.074 50.425 93.0352 50.0945 93.4155L50.0713 93.6561C48.9345 93.0119 47.936 92.1491 47.1336 91.1169C47.5911 90.9992 47.8471 90.9254 48.1438 90.5813Z" fill="#62230C"/>
<path d="M59.7745 79.9289C60.5535 80.467 60.7289 80.6119 61.3765 81.3014C61.7802 84.001 62.8262 86.279 61.0978 88.5349C60.0092 89.954 58.3105 91.4752 56.4892 91.6602C54.9281 91.818 52.1936 91.9008 50.9265 90.9202C49.8368 90.0768 48.3392 87.9205 47.9615 86.6489C47.932 86.2195 47.9694 85.8508 47.9982 85.4239C48.1345 86.6036 48.3932 86.6295 49.1261 87.4639C50.0076 88.4677 51.1344 90.1506 52.5342 90.4015C54.4066 90.7366 56.6762 90.5386 58.2795 89.4339C59.5449 88.5608 60.845 87.4742 61.1469 85.8961C61.4667 84.2326 60.7096 81.3026 59.7745 79.9289Z" fill="#DB9441"/>
<path d="M62.6083 86.9322C62.6728 87.513 62.6895 88.1624 62.9617 88.6682C62.5257 89.6306 61.6048 91.025 60.7019 91.5825L60.5651 91.3626C60.1305 91.2708 59.955 91.2954 59.5049 91.3122C61.49 90.0122 61.953 89.1791 62.6083 86.9322Z" fill="#944C20"/>
<path d="M77.4299 47.1842C79.7465 46.1127 82.3907 46.0024 84.7885 46.8771C85.9468 47.3047 87.0096 47.9606 87.9125 48.8059C88.3704 49.3198 89.1159 50.1176 88.9379 50.8677C87.7758 55.7755 78.8268 58.943 75.4126 54.6696C74.3949 53.3331 73.9022 51.527 74.6451 49.9438C75.0321 48.9778 75.9504 48.1079 76.8211 47.5629L77.4299 47.1842Z" fill="#F7C45D"/>
<path d="M87.9125 48.8059C88.3704 49.3198 89.1159 50.1176 88.9379 50.8677C87.7758 55.7755 78.8268 58.943 75.4126 54.6696C79.4524 56.4021 87.9731 54.289 87.9125 48.8059Z" fill="#EDB052"/>
<path d="M77.4299 47.1842C78.1058 47.0879 78.4463 47.0009 79.1119 47.1622L79.3234 47.3402C79.1777 48.4335 77.2429 48.9503 76.6225 50.4741C76.6289 51.2493 76.2213 52.5503 75.4552 52.899C74.3704 52.6043 74.6077 50.8215 74.6451 49.9438C75.0321 48.9778 75.9504 48.1079 76.8211 47.5629L77.4299 47.1842Z" fill="#EBCF9D"/>
<path d="M76.8211 47.5629C75.597 48.9043 76.0278 49.0526 75.4087 50.5657L75.7105 52.3364C75.9621 51.806 76.3387 50.9535 76.6225 50.4741C76.6289 51.2493 76.2213 52.5503 75.4552 52.899C74.3704 52.6043 74.6077 50.8215 74.6451 49.9438C75.0321 48.9778 75.9504 48.1079 76.8211 47.5629Z" fill="#FAD790"/>
<path d="M22.404 48.7366C24.4976 46.9577 27.223 46.11 29.9529 46.3884C31.9153 46.5742 34.3144 47.5896 35.2446 49.4413C35.5487 49.8132 35.6315 50.156 35.7943 50.6095C36.2537 52.7964 35.389 54.4402 33.6124 55.7097C29.9269 58.2412 22.1268 55.2786 21.2044 50.8526C21.0398 50.0625 21.9057 49.2434 22.404 48.7366Z" fill="#F7C45D"/>
<path d="M22.404 48.7366C22.5448 53.3439 27.424 54.9795 31.3191 55.3675C31.9468 55.4299 33.0888 55.4456 33.6124 55.7097C29.9269 58.2412 22.1268 55.2786 21.2044 50.8526C21.0398 50.0625 21.9057 49.2434 22.404 48.7366Z" fill="#EDB052"/>
<path d="M34.1469 52.3431C33.5488 48.4183 31.8789 49.3985 30.478 47.4787L30.5363 47.2601C31.934 46.5326 33.2689 47.8507 34.3218 48.6562C34.7143 49.519 35.2364 51.5322 34.425 52.2629L34.1469 52.3431Z" fill="#EBCF9D"/>
<path d="M34.3218 48.6562C34.5862 48.9134 34.925 49.2893 35.2446 49.4413C35.5487 49.8132 35.6315 50.156 35.7943 50.6095C35.7721 50.9575 35.7532 51.3056 35.7382 51.6539C35.7176 52.1271 35.6921 52.2054 35.4932 52.6427C35.0215 52.9699 34.5299 52.7212 34.1469 52.3431L34.425 52.2629C35.2364 51.5322 34.7143 49.519 34.3218 48.6562Z" fill="#FAD790"/>
<path d="M104.308 110.366C105.046 110.52 106.771 111.908 107.013 112.626C106.205 112.308 104.439 111.338 104.308 110.366Z" fill="var(--fill-0, #662C12)"/>
</g>
</svg>
