<svg preserveAspectRatio="none" width="100%" height="100%" overflow="visible" style="display: block;" viewBox="0 0 25 24" fill="none" xmlns="http://www.w3.org/2000/svg">
<g id="&#236;&#191;&#160;&#237;&#130;&#164;">
<path d="M10.9959 0.11752C12.3657 -0.173538 14.4011 0.115272 15.7286 0.555008C16.1691 0.700916 16.5754 0.911965 17.0046 1.06694C17.6313 1.29328 18.5277 1.52604 19.0852 1.87743C20.1059 2.31442 20.8961 3.26737 21.4732 4.16471C21.7578 4.60727 22.1468 4.98735 22.4695 5.40255C23.0106 6.15574 23.7565 7.32784 23.9475 8.23514C24.0432 8.63633 24.2656 8.82593 24.3918 9.18842C24.5923 9.76388 24.6774 10.4099 24.7977 11.0091C24.9585 11.9179 25.0537 12.7561 24.9676 13.6844C24.9244 14.1521 24.7345 14.6157 24.6057 15.0653C24.0358 17.6515 22.4973 19.955 20.3185 21.5106C20.1163 21.6548 19.904 21.8184 19.6886 21.9464C18.335 22.5934 17.0262 23.4384 15.4668 23.457C14.8449 23.4645 14.4222 23.6759 13.8423 23.8094C12.6632 24.0807 11.434 24.0621 10.264 23.7554C9.46542 23.5479 8.97128 23.2573 8.19974 23.0705L7.78881 23.0088C7.33115 22.9393 6.75333 22.6805 6.33323 22.4759C5.53235 22.0858 5.18649 21.7826 4.73508 21.0292C4.42015 21.0153 4.11789 20.9644 3.84892 20.7754C3.12927 20.2696 2.4084 19.4701 2.01238 18.6915C1.89933 18.4692 1.81013 18.0614 1.6962 17.8789C1.3913 17.3906 1.21444 17.1967 1.00394 16.6511C0.776944 16.0626 0.734808 15.5699 0.567891 15.0148C0.42887 14.5524 0.271313 14.3198 0.152799 13.7745C-0.0727075 12.7371 -0.0297181 12.0164 0.1588 10.9719C0.183948 10.8326 0.370493 10.5033 0.37436 10.433C0.389241 10.1643 0.342731 9.89191 0.402068 9.60626C0.454925 9.35168 0.539036 9.10251 0.607227 8.85438C0.934394 7.66415 1.4852 6.58521 2.17268 5.55925C2.78139 4.65086 3.53047 3.8619 4.4037 3.19457C4.76396 2.91922 5.08254 2.61428 5.4932 2.37867C5.87611 2.15895 6.27442 1.98681 6.66399 1.78125C6.79072 1.72115 6.95324 1.55052 7.07087 1.50184C7.66595 1.25549 8.27606 0.86211 8.87197 0.650852C9.54185 0.413386 10.3004 0.261625 10.9959 0.11752Z" fill="#F9C356"/>
<path d="M4.73508 21.0292C4.42015 21.0153 4.11789 20.9644 3.84892 20.7754C3.12927 20.2696 2.4084 19.4701 2.01238 18.6915C1.89933 18.4692 1.81013 18.0614 1.6962 17.8789C1.3913 17.3906 1.21444 17.1967 1.00394 16.6511C0.776944 16.0626 0.734808 15.5699 0.567891 15.0148C0.42887 14.5524 0.271313 14.3198 0.152799 13.7745C-0.0727075 12.7371 -0.0297181 12.0164 0.1588 10.9719C0.183948 10.8326 0.370493 10.5033 0.37436 10.433C0.389241 10.1643 0.342731 9.89191 0.402068 9.60626C0.454925 9.35168 0.539036 9.10251 0.607227 8.85438C0.934394 7.66415 1.4852 6.58521 2.17268 5.55925C2.78139 4.65086 3.53047 3.8619 4.4037 3.19457C4.76396 2.91922 5.08254 2.61428 5.4932 2.37867C5.87611 2.15895 6.27442 1.98681 6.66399 1.78125C6.79072 1.72115 6.95324 1.55052 7.07087 1.50184C7.66595 1.25549 8.27606 0.86211 8.87197 0.650852C9.54185 0.413386 10.3004 0.261625 10.9959 0.11752C11.0214 0.23769 11.2778 0.493628 11.3892 0.521795C10.9348 0.57996 9.65719 0.843216 9.26532 1.03861L9.47102 1.02769C9.19919 1.12233 8.72777 1.2649 8.51776 1.44352L8.51432 1.52708C8.47568 1.54247 8.45373 1.55104 8.41602 1.56912L8.47133 1.59841C8.30305 1.69264 7.59285 2.01855 7.51188 2.1041C7.52026 2.00575 7.47572 1.99232 7.40412 1.95166L7.4014 1.904C7.28803 1.97071 7.16288 2.04502 7.04492 2.10266C4.41711 3.38665 2.57572 5.19641 1.44378 7.89229C1.05027 8.66081 0.872523 9.74634 0.745049 10.5885C0.733555 10.6644 0.648137 10.6319 0.631176 10.6966C0.568318 10.8418 0.535249 11.2365 0.553037 11.3861C0.462578 12.3021 0.412522 13.1162 0.649016 14.0322C0.70798 14.2605 0.915726 14.6494 0.957915 14.8529C1.07843 15.4962 1.24545 16.0679 1.49445 16.672C1.64137 17.0284 2.04574 17.4894 2.14031 17.7531C2.56812 18.946 3.25981 19.9295 4.41444 20.546C4.49178 20.5873 4.76716 20.5961 4.86378 20.6161C5.03645 20.7758 5.189 21.0866 5.36621 21.2553C5.70159 21.5748 6.0506 21.7756 6.44758 21.9888C6.65967 22.2987 7.65693 22.55 8.03344 22.5649C8.47736 22.5653 8.70574 22.7276 9.07865 22.8883C10.1413 23.3462 11.3893 23.6524 12.5563 23.5484C12.6645 23.5387 12.783 23.5369 12.8934 23.5317C13.4462 23.4692 13.8859 23.3169 14.42 23.2406C14.679 23.1784 14.8953 23.1133 15.1634 23.0679C15.8201 22.9568 16.4044 22.9414 17.0402 22.729C17.5371 22.5631 17.9653 22.2308 18.3814 22.0594C19.1032 21.7619 19.2784 21.7352 19.9182 21.2372C20.3107 20.9118 20.8297 20.5889 21.1663 20.2465C21.7996 19.6021 22.4925 18.8294 22.9221 18.0345C23.4616 17.3774 23.7611 16.0389 24.0584 15.2457C24.2779 14.6605 24.4003 14.2044 24.4649 13.5813C24.535 12.9044 24.4521 12.2662 24.4489 11.5975C24.463 11.3724 24.5217 11.2072 24.7635 11.1125L24.7977 11.0091C24.9585 11.9179 25.0537 12.7561 24.9676 13.6844C24.9244 14.1521 24.7345 14.6157 24.6057 15.0653C24.0358 17.6515 22.4973 19.955 20.3185 21.5106C20.1163 21.6548 19.904 21.8184 19.6886 21.9464C18.335 22.5934 17.0262 23.4384 15.4668 23.457C14.8449 23.4645 14.4222 23.6759 13.8423 23.8094C12.6632 24.0807 11.434 24.0621 10.264 23.7554C9.46542 23.5479 8.97128 23.2573 8.19974 23.0705L7.78881 23.0088C7.33115 22.9393 6.75333 22.6805 6.33323 22.4759C5.53235 22.0858 5.18649 21.7826 4.73508 21.0292Z" fill="#5E1302"/>
<path d="M8.03344 22.5649C8.47736 22.5653 8.70574 22.7276 9.07865 22.8883C10.1413 23.3462 11.3893 23.6524 12.5563 23.5484C12.6645 23.5387 12.783 23.5369 12.8934 23.5317C11.6336 23.9168 9.67772 23.3859 8.55323 22.7678C8.41439 22.6916 8.18571 22.6244 8.03344 22.5649Z" fill="#631003"/>
<path d="M19.9182 21.2372C19.7198 21.6294 18.773 21.9487 18.3936 22.1292C17.895 22.3664 17.4399 22.6642 16.9062 22.8423C16.6296 22.9346 16.2473 22.9317 16.0263 23.0143L16.029 23.0329C16.0768 23.0347 16.1634 23.0344 16.206 23.0462C16.077 23.0833 16.0055 23.0653 15.8851 23.0932C15.8279 23.1066 15.6376 23.2322 15.5781 23.2385C15.2138 23.2777 14.7789 23.2806 14.42 23.2406C14.679 23.1784 14.8953 23.1133 15.1634 23.0679C15.8201 22.9568 16.4044 22.9414 17.0402 22.729C17.5371 22.5631 17.9653 22.2308 18.3814 22.0594C19.1032 21.7619 19.2784 21.7352 19.9182 21.2372Z" fill="#631003"/>
<path d="M7.4014 1.904C7.72454 1.68436 8.86994 1.13759 9.26532 1.03861L9.47102 1.02769C9.19919 1.12233 8.72777 1.2649 8.51776 1.44352L8.51432 1.52708C8.47568 1.54247 8.45373 1.55104 8.41602 1.56912L8.47133 1.59841C8.30305 1.69264 7.59285 2.01855 7.51188 2.1041C7.52026 2.00575 7.47572 1.99232 7.40412 1.95166L7.4014 1.904Z" fill="var(--fill-0, #F4BD70)"/>
<path d="M7.78881 23.0088C7.7135 22.9294 7.71107 22.9513 7.69552 22.8623C7.80532 22.7808 8.27609 22.8421 8.34586 23.0049C8.31295 23.0642 8.27225 23.0721 8.19974 23.0705L7.78881 23.0088Z" fill="#631003"/>
<path d="M0.553037 11.3861C0.535249 11.2365 0.568318 10.8418 0.631176 10.6966C0.648137 10.6319 0.733555 10.6644 0.745049 10.5885C0.872523 9.74634 1.05027 8.66081 1.44378 7.89229C1.42389 8.01975 1.4036 8.12197 1.408 8.25136L1.36477 8.34757C1.48582 8.39016 1.57729 8.33787 1.70284 8.29338C2.04838 8.23414 2.5542 8.3553 2.80691 8.59577C3.10562 8.82289 3.36481 9.08048 3.52789 9.42293C3.53821 9.48706 3.55215 9.56299 3.55709 9.6275C3.62485 10.5134 2.82139 11.6312 1.95899 11.8587C1.51987 11.7455 1.17598 11.6542 0.926983 11.2012C0.862365 11.0836 0.870953 10.9586 0.773774 10.8424L0.746226 10.8402C0.699743 11.0585 0.61328 11.1075 0.553037 11.3861Z" fill="#984819"/>
<path d="M1.70284 8.29338C2.04838 8.23414 2.5542 8.3553 2.80691 8.59577C2.4566 8.50641 2.09332 8.34861 1.73399 8.37738C1.57401 8.39019 1.46088 8.49985 1.34132 8.48572C1.31919 8.41948 1.33109 8.43199 1.36477 8.34757C1.48582 8.39016 1.57729 8.33787 1.70284 8.29338Z" fill="var(--fill-0, #F4BD70)"/>
<path d="M18.7998 2.22607L18.8367 2.20622C18.7417 2.07319 17.5561 1.66413 17.3173 1.56677C17.3751 1.49528 17.3802 1.45441 17.4174 1.37435C17.4282 1.35097 17.4829 1.28496 17.4899 1.28669C18.0255 1.41642 18.5329 1.67017 19.0319 1.89493C19.0497 1.88911 19.0674 1.88328 19.0852 1.87743C20.1059 2.31442 20.8961 3.26737 21.4732 4.16471C21.7578 4.60727 22.1468 4.98735 22.4695 5.40255C23.0106 6.15574 23.7565 7.32784 23.9475 8.23514C23.9256 8.39113 23.9622 8.42721 23.8662 8.53805C23.7803 8.51506 23.5949 8.26116 23.4757 8.18013C23.2426 7.71445 23.2242 7.7892 22.856 7.47727C22.7978 7.27011 22.7994 6.77979 22.7186 6.6141C22.4079 5.94725 21.7623 5.39578 21.3449 4.7995C20.5348 3.6423 20.1169 2.91485 18.7998 2.22607Z" fill="#5E1302"/>
<path d="M10.9959 0.11752C12.3657 -0.173538 14.4011 0.115272 15.7286 0.555008C16.1691 0.700916 16.5754 0.911965 17.0046 1.06694C17.6313 1.29328 18.5277 1.52604 19.0852 1.87743C19.0674 1.88328 19.0497 1.88911 19.0319 1.89493C18.5329 1.67017 18.0255 1.41642 17.4899 1.28669C17.4829 1.28496 17.4282 1.35097 17.4174 1.37435C17.3802 1.45441 17.3751 1.49528 17.3173 1.56677C17.5561 1.66413 18.7417 2.07319 18.8367 2.20622L18.7998 2.22607C17.8866 1.81587 16.9626 1.51229 16.0308 1.14731C14.5007 0.547927 13.0282 0.336667 11.3892 0.521795C11.2778 0.493628 11.0214 0.23769 10.9959 0.11752Z" fill="#631003"/>
<path d="M6.44758 21.9888C6.87283 22.1767 7.35937 22.4219 7.84164 22.4479C8.16707 22.4654 8.71988 22.2131 9.02665 22.2646C9.2972 22.3101 9.48494 22.6755 9.82296 22.736C9.68333 22.7383 9.45438 22.6013 9.34253 22.5246C9.18834 22.6394 9.05889 22.6643 9.0012 22.714L9.01171 22.7542C9.59903 22.9435 10.1375 23.1586 10.7427 23.2973C11.5603 23.4849 12.3213 23.5011 13.1498 23.3611C13.3333 23.3302 13.5534 23.3368 13.7378 23.2965C13.9809 23.2179 14.1838 23.1152 14.4386 23.0695C15.8286 22.8702 17.1667 22.7551 18.3547 21.9376C18.5375 21.8346 18.8887 21.7854 19.0549 21.6771C19.6752 21.2729 20.4137 20.7954 20.9852 20.3439C21.3361 20.0664 21.7319 19.5185 22.0495 19.1883C22.3367 18.8896 22.5847 18.3197 22.9058 18.0416C22.9114 18.0392 22.9168 18.0369 22.9221 18.0345C22.4925 18.8294 21.7996 19.6021 21.1663 20.2465C20.8297 20.5889 20.3107 20.9118 19.9182 21.2372C19.2784 21.7352 19.1032 21.7619 18.3814 22.0594C17.9653 22.2308 17.5371 22.5631 17.0402 22.729C16.4044 22.9414 15.8201 22.9568 15.1634 23.0679C14.8953 23.1133 14.679 23.1784 14.42 23.2406C13.8859 23.3169 13.4462 23.4692 12.8934 23.5317C12.783 23.5369 12.6645 23.5387 12.5563 23.5484C11.3893 23.6524 10.1413 23.3462 9.07865 22.8883C8.70574 22.7276 8.47736 22.5653 8.03344 22.5649C7.65693 22.55 6.65967 22.2987 6.44758 21.9888Z" fill="#D37F2B"/>
<path d="M3.52789 9.42293C3.94039 9.81747 4.241 10.0387 4.22161 10.6462C4.18067 11.93 2.97039 12.1451 1.95899 11.8587C2.82139 11.6312 3.62485 10.5134 3.55709 9.6275C3.55215 9.56299 3.53821 9.48706 3.52789 9.42293Z" fill="#B36D33"/>
<path d="M7.54485 2.30169L7.57099 2.28382C7.59952 2.26412 7.60709 2.25822 7.6316 2.2325C7.72718 2.22035 7.71953 2.20648 7.79415 2.23875C7.7882 2.36119 7.70718 2.43509 7.62627 2.53759C7.36001 2.77545 7.13272 2.89813 6.80918 3.03866C6.66957 3.11427 6.42102 3.19776 6.29792 3.28945C5.42931 3.93652 4.51819 4.56376 3.84348 5.41627C3.65891 5.6495 3.51191 5.7766 3.24054 5.90319C3.45895 5.44227 4.34578 4.42164 4.74823 4.06296C5.28202 3.58725 6.17495 3.17699 6.79131 2.78533C7.0337 2.63129 7.2962 2.44274 7.54485 2.30169Z" fill="#F7F6F2"/>
<path d="M23.4757 8.18013C23.5949 8.26116 23.7803 8.51506 23.8662 8.53805C23.9622 8.42721 23.9256 8.39113 23.9475 8.23514C24.0432 8.63633 24.2656 8.82593 24.3918 9.18842C24.5923 9.76388 24.6774 10.4099 24.7977 11.0091L24.7635 11.1125C24.5217 11.2072 24.463 11.3724 24.4489 11.5975C24.3937 11.403 24.3558 11.0089 24.2974 10.7729C24.079 9.88916 23.8592 9.0093 23.4757 8.18013Z" fill="#631003"/>
<path d="M11.2877 0.635856C11.3895 0.637607 11.4072 0.621877 11.4851 0.670164C11.401 0.846174 9.75212 1.04045 9.43496 1.22241C9.11203 1.33328 8.79458 1.47997 8.47133 1.59841L8.41602 1.56912C8.45373 1.55104 8.47568 1.54247 8.51432 1.52708L8.51776 1.44352C8.72777 1.2649 9.19919 1.12233 9.47102 1.02769C9.73957 0.895894 10.9294 0.686391 11.2877 0.635856Z" fill="#F8E6C8"/>
<path d="M11.2877 0.635856C11.4987 0.591958 12.1618 0.516415 12.343 0.576827C12.3719 0.603741 12.3638 0.587462 12.3686 0.625036C12.2404 0.793834 11.6174 0.775438 11.4124 0.808101C11.0501 0.865769 10.695 0.950141 10.3378 1.0319C10.1646 1.0694 9.54928 1.23655 9.43496 1.22241C9.75212 1.04045 11.401 0.846174 11.4851 0.670164C11.4072 0.621877 11.3895 0.637607 11.2877 0.635856Z" fill="var(--fill-0, #F4BD70)"/>
<path d="M7.2133 2.14981L7.23139 2.18545C7.02297 2.41105 6.67167 2.74146 6.3169 2.66304L6.33352 2.61852C6.54105 2.45121 6.96257 2.25647 7.2133 2.14981Z" fill="#FCE2B6"/>
<path d="M7.40412 1.95166C7.47572 1.99232 7.52026 2.00575 7.51188 2.1041C7.65893 2.18748 7.8826 2.13778 7.93917 2.28346C7.8862 2.38568 7.72931 2.47015 7.62627 2.53759C7.70718 2.43509 7.7882 2.36119 7.79415 2.23875C7.71953 2.20648 7.72718 2.22035 7.6316 2.2325C7.60709 2.25822 7.59952 2.26412 7.57099 2.28382L7.54485 2.30169C7.50053 2.27899 7.30158 2.21354 7.23139 2.18545L7.2133 2.14981C7.23819 2.07803 7.34046 2.00622 7.40412 1.95166Z" fill="#FCE2B6"/>
<path d="M14.0433 11.9115C14.4517 11.8927 14.958 11.918 15.0723 12.3751C15.3688 13.5604 14.4506 14.7106 13.39 15.0658C12.7595 15.272 12.071 15.2237 11.4769 14.9316C10.6621 14.5623 10.1633 13.8918 10.0495 13.0211C9.92208 12.0458 11.1541 12.1209 11.8356 12.0634C12.5701 11.9945 13.3062 11.9438 14.0433 11.9115Z" fill="#5E1302"/>
<path d="M12.5455 13.3462C12.5806 13.3425 12.6158 13.3399 12.6511 13.3385C13.2669 13.3131 13.8896 13.4367 14.3562 13.8525C13.9344 14.4528 13.5332 14.6051 12.8543 14.785C12.828 14.7875 12.8017 14.7893 12.7754 14.7907C11.9889 14.8324 11.5656 14.5934 11.0105 14.1044C11.4711 13.6245 11.8696 13.421 12.5455 13.3462Z" fill="#ED6D49"/>
<path d="M13.5964 1.74098C14.2349 1.72209 14.479 1.83813 14.9784 2.23872C15.6277 2.75962 15.8798 3.64991 15.2832 4.31151C14.9658 4.6635 14.5095 4.72556 14.0476 4.75038C13.2165 4.73787 12.2181 4.29528 12.0114 3.41774C11.8231 2.61865 12.8741 1.86397 13.5964 1.74098Z" fill="#A3541D"/>
<path d="M16.5948 8.51154C17.4769 8.37914 18.301 8.97408 18.4333 9.83884C18.5655 10.7036 17.9556 11.5091 17.0726 11.6359C16.1937 11.762 15.3762 11.1678 15.2445 10.307C15.1129 9.44625 15.7167 8.64333 16.5948 8.51154Z" fill="#5E1302"/>
<path d="M16.3512 9.06005C16.9592 9.15226 16.9914 9.89055 16.3723 10.0855C16.1233 10.0553 15.9432 9.93377 15.8812 9.68622C15.8461 9.5505 15.8696 9.40658 15.9464 9.28842C16.0478 9.13366 16.1807 9.09258 16.3512 9.06005Z" fill="#F7F6F2"/>
<path d="M17.4572 10.4018C17.546 10.3613 17.6503 10.3711 17.7297 10.4273C17.8091 10.4836 17.8512 10.5776 17.8398 10.673C17.8283 10.7684 17.765 10.8502 17.6744 10.8868C17.5386 10.9418 17.3828 10.8803 17.3237 10.7484C17.2646 10.6165 17.3239 10.4626 17.4572 10.4018Z" fill="#F7F6F2"/>
<path d="M8.07157 8.82569C10.1034 8.71731 10.4366 11.62 8.45917 12.0069C7.44745 12.0478 6.84296 11.6327 6.69117 10.6104C6.55977 9.72526 7.13853 8.91053 8.07157 8.82569Z" fill="#5E1302"/>
<path d="M7.57165 9.47253C7.82783 9.39391 8.10088 9.53185 8.18409 9.78191C8.26732 10.032 8.12974 10.3011 7.87548 10.3855C7.70838 10.4411 7.52373 10.4042 7.39201 10.2892C7.2603 10.1741 7.20189 9.9986 7.23907 9.82959C7.27625 9.66059 7.40327 9.52422 7.57165 9.47253Z" fill="#F7F6F2"/>
<path d="M8.86653 10.7614C8.96184 10.7399 9.0615 10.7711 9.12647 10.8427C9.19143 10.9143 9.2113 11.015 9.17828 11.1051C9.14527 11.1953 9.06465 11.2607 8.96803 11.2755C8.82581 11.2974 8.69143 11.2049 8.66409 11.0665C8.63676 10.9279 8.72625 10.7931 8.86653 10.7614Z" fill="#F7F6F2"/>
<path d="M18.772 15.096C19.7163 15.0127 20.2395 15.5189 20.4257 16.4078C20.4953 16.7403 20.2849 17.1983 20.0867 17.4613C19.8064 17.8337 19.4785 17.9773 19.0203 18.042C18.6468 18.002 18.3109 17.9743 17.985 17.7599C17.6642 17.5432 17.3769 17.0791 17.3212 16.6998C17.1853 15.7746 17.9625 15.2329 18.772 15.096Z" fill="#984819"/>
<path d="M6.80093 17.5878C6.44593 18.0047 5.80295 18.1419 5.26508 18.0319C4.77169 17.9135 4.4045 17.4668 4.26049 17.0069C4.24547 16.9589 4.31588 16.796 4.32788 16.742C4.36041 16.5953 4.3838 16.4478 4.41748 16.3014C4.58211 15.586 5.41872 15.2627 6.09308 15.4457C6.51969 15.5615 6.7277 15.7648 6.93708 16.1317C7.34275 16.5153 7.24352 17.2673 6.80093 17.5878Z" fill="#B36D33"/>
<path d="M6.93708 16.1317C7.34275 16.5153 7.24352 17.2673 6.80093 17.5878C6.83984 17.5178 6.87804 17.4474 6.91542 17.3766C7.15813 16.9167 7.08978 16.6037 6.93708 16.1317Z" fill="var(--fill-0, #F4BD70)"/>
<path d="M7.409 4.302C7.7227 4.26319 8.1379 4.28893 8.40674 4.46711C8.67043 4.64286 8.85106 4.915 8.90805 5.22246C9.07051 6.14923 8.46541 6.68583 7.59002 6.83364C6.94345 6.92016 6.24055 6.85596 6.0951 6.09679C5.92363 5.2019 6.50124 4.45245 7.409 4.302Z" fill="#984819"/>
<path d="M12.7055 19.1279C12.907 18.5941 13.3528 18.3233 13.9162 18.2478C14.2863 18.1982 14.4795 18.2436 14.7633 18.4565C15.1214 18.744 15.0807 19.0142 15.0778 19.4489C15.0926 20.0314 14.476 20.5695 13.8943 20.344C13.7196 20.2763 13.557 20.0764 13.4008 19.9767C13.1361 19.8079 12.9256 19.7565 12.7054 19.5203C12.6973 19.3956 12.6823 19.2494 12.7055 19.1279Z" fill="#984819"/>
<path d="M14.7633 18.4565C15.1214 18.744 15.0807 19.0142 15.0778 19.4489C15.0926 20.0314 14.476 20.5695 13.8943 20.344C13.7196 20.2763 13.557 20.0764 13.4008 19.9767C13.1361 19.8079 12.9256 19.7565 12.7054 19.5203C12.6973 19.3956 12.6823 19.2494 12.7055 19.1279C12.7673 19.659 13.009 19.6124 13.4005 19.8667C13.5685 19.9761 13.7316 20.1809 13.9242 20.2463C14.8086 20.5469 15.0295 19.713 14.9483 19.0329C14.9165 18.7669 14.8732 18.6855 14.7633 18.4565Z" fill="#D37F2B"/>
<path d="M17.702 4.53617C17.8077 4.52379 17.9532 4.53016 18.0631 4.53207C18.5227 4.83488 18.9248 5.38191 18.9404 5.93136C18.9556 6.4649 18.4689 6.84062 17.9563 6.82826C17.3473 6.67133 16.2757 5.97325 16.7464 5.25432C16.9443 4.95221 17.3372 4.61636 17.702 4.53617Z" fill="#AA5921"/>
<path d="M1.82384 7.28292C2.04097 6.8012 3.17528 4.85647 3.60635 4.71859L3.64704 4.7478C3.67299 5.04834 3.07471 5.55246 2.99639 5.81292C2.90553 6.11511 2.83587 6.42279 2.74085 6.72767C2.68666 6.83352 2.66738 6.89568 2.56431 6.94122L2.51281 6.91334C2.45148 6.8226 2.44681 6.7156 2.43094 6.6064L2.39425 6.62357L2.38987 6.64499C2.19117 6.8279 2.04321 7.26212 1.87803 7.31394L1.82384 7.28292Z" fill="#FCE2B6"/>
<path d="M21.8687 7.73352C22.2314 7.7319 22.5399 8.32076 22.6957 8.60665C22.9098 8.99914 23.0642 9.6112 22.9304 10.0532C22.913 10.1102 22.8306 10.2677 22.7768 10.2945L22.7933 10.2106C23.0792 9.89353 22.9184 9.30841 22.8085 8.94314C22.7752 8.83204 22.5565 8.36226 22.457 8.31514C22.4039 8.34749 22.3991 8.35306 22.3375 8.37213C22.1981 8.29327 21.9516 8.02754 21.8506 7.88638C21.8207 7.84481 21.8524 7.78521 21.8687 7.73352Z" fill="#FCE2B6"/>
<path d="M13.192 21.3941C13.2906 21.4157 13.3274 21.4138 13.393 21.4875C13.4297 21.576 13.4209 21.5931 13.4092 21.6922C13.2301 21.6583 13.1749 21.5682 13.192 21.3941Z" fill="var(--fill-0, #F4BD70)"/>
</g>
</svg>
