<svg preserveAspectRatio="none" width="100%" height="100%" overflow="visible" style="display: block;" viewBox="0 0 86 84" fill="none" xmlns="http://www.w3.org/2000/svg">
<g id="Vector">
<path d="M42.2583 0.0927562C43.2557 -0.0709243 45.4163 0.00478865 46.4232 0.144143C47.7679 0.369958 48.7823 0.638769 50.0451 1.09973C50.7913 1.37222 52.2518 2.06626 52.8982 2.18544C56.9258 2.9269 60.8686 3.36835 63.67 6.8063C64.243 7.51052 64.8396 8.3822 65.4456 9.13422C66.2813 9.81591 67.1912 10.3926 67.9911 11.08C68.5924 11.6343 69.4195 12.3906 69.8477 13.0721C71.23 14.916 71.0983 15.706 71.9292 17.6675C72.0609 17.9805 73.5157 19.5735 73.9749 20.2568C74.9828 21.9205 75.1823 22.8818 75.409 24.8145C75.6151 24.7135 76.2804 24.3862 76.431 24.2587C77.1885 23.6203 77.7785 22.7185 78.8098 22.4963C80.8594 21.7958 83.4829 22.8755 84.677 24.6291C86.1027 25.9361 86.2504 28.6986 85.7121 30.4492C84.9988 32.1715 84.5378 32.6199 83.1074 33.7681C82.9804 34.1894 82.7687 34.975 82.6162 35.3578L82.1881 36.3604C82.5607 36.6451 83.4819 37.2744 83.4321 37.8486C83.2646 39.7884 81.2339 41.9608 80.1094 43.4953C80.0896 43.5086 80.0708 43.522 80.051 43.5353C79.4892 44.4907 78.392 45.7729 77.6947 46.6483C75.3855 49.5505 72.9521 52.0666 70.3069 54.6614L70.7012 56.8573C71.1143 59.8763 71.6281 63.3951 71.8341 66.4462C71.9744 67.2504 72.0017 68.1575 72.0835 68.9815C72.0703 69.8829 71.9565 70.2874 71.0409 70.6249C68.3054 72.3117 64.5103 73.0783 61.4388 73.957C61.2328 74.0155 61.213 74.2153 61.1499 74.3917C60.9147 74.6971 60.2089 75.1846 59.8655 75.4156C59.7817 75.8267 59.6726 76.3038 59.6048 76.712C60.0508 76.9826 60.2616 77.0967 60.5769 77.5418L60.2673 78.7675L59.9605 79.9225C60.7688 80.8587 61.7945 81.9298 60.8422 83.1499C60.5025 83.412 60.3623 83.5544 59.9351 83.6524C58.2902 84.3643 54.0613 83.8872 52.472 83.0811C51.7267 82.7039 51.6044 82.0043 51.418 81.2774C51.1819 80.1035 50.5269 77.174 50.4601 76.1699L50.3359 75.9012C49.8889 75.8059 47.1459 76.0709 46.4025 76.0737C43.2793 76.085 38.8654 76.25 35.8624 75.7154C35.642 76.8459 35.4005 78.0075 35.2112 79.139L34.7418 81.4056C34.5381 82.1608 34.41 82.6257 33.656 83.0424C32.77 83.5317 31.3342 83.676 30.3159 83.8099C27.249 84.1833 22.9353 83.8542 26.2687 79.9027C25.9731 78.8372 25.7248 77.7595 25.5243 76.6724C25.2994 75.7418 25.1688 74.8084 25.0208 73.8627C24.7153 73.6591 22.5586 73.1527 21.9566 72.9774C19.9119 72.3815 15.3758 71.0304 13.9471 69.5736C13.4041 69.0202 14.2737 63.9768 14.4253 62.8322C14.5771 61.6885 14.7989 60.5175 15.0006 59.3785C15.1777 58.3413 15.3825 57.3089 15.6147 56.2821C15.6999 55.7852 15.8349 55.2978 15.9605 54.8094C11.4467 50.8267 7.54138 45.8748 3.94579 41.0643C3.34552 40.2611 2.09699 38.375 2.27757 37.3113C2.4031 36.572 3.00995 36.2152 3.5866 35.8349L3.47246 35.5168C3.1624 34.8332 3.01061 34.0829 2.82975 33.3502C2.3935 33.2177 1.71438 32.4605 1.40968 32.1295C1.19343 31.8419 0.99836 31.539 0.825873 31.2232C-0.962795 28.0235 0.264471 24.3874 3.44094 22.6655C4.60995 22.1061 5.94834 21.7706 7.23329 22.15C8.49452 22.5225 9.23303 23.9629 9.85315 24.2139C10.3529 24.4019 10.7943 24.7189 11.1323 25.1329C12.6393 26.9444 10.9178 29.9252 11.474 30.5587C11.5956 30.505 11.7527 30.4378 11.7938 30.2863C11.9325 29.5771 12.7599 27.6419 12.752 27.0518C12.713 24.1633 13.0165 22.4592 14.6496 19.9431C15.1143 19.2967 15.5775 18.6618 16.0134 17.995C16.3716 17.084 16.576 15.573 17.0782 14.7358C18.5639 12.2596 20.7104 10.2052 22.8891 8.34759C23.6737 7.67863 24.2036 6.96451 25.1045 6.2782C25.9388 5.73285 26.7952 5.445 27.6819 5.02015C28.4206 4.6134 29.1476 4.14432 29.8656 3.70052C32.1274 2.30273 34.8849 2.37259 37.2666 1.68525C39.213 1.12359 39.9449 0.378254 42.2583 0.0927562Z" fill="#F4C260"/>
<path d="M72.698 35.182L74.9959 37.0388L76.1609 37.9064C76.7189 38.3015 77.4011 38.8155 77.9667 39.1754C78.3083 39.4036 78.647 39.6351 78.9839 39.8698C78.7383 40.2247 78.4569 40.1944 78.0749 40.3773C78.7712 40.8276 79.3867 41.1674 80.1112 41.564C79.7866 41.9992 79.0197 42.9708 78.8051 43.4089C78.68 43.7271 78.6235 43.8038 78.6452 44.1329L78.7628 44.2971C79.3885 44.3722 79.6351 43.6382 80.051 43.5353C79.4892 44.4907 78.392 45.7729 77.6947 46.6483C75.3855 49.5505 72.9521 52.0666 70.3069 54.6614L70.7012 56.8573C71.1143 59.8763 71.6281 63.3951 71.8341 66.4462C71.9744 67.2504 72.0017 68.1575 72.0835 68.9815C72.0703 69.8829 71.9565 70.2874 71.0409 70.6249C68.3054 72.3117 64.5103 73.0783 61.4388 73.957C61.2328 74.0155 61.213 74.2153 61.1499 74.3917C60.9147 74.6971 60.2089 75.1846 59.8655 75.4156C59.7817 75.8267 59.6726 76.3038 59.6048 76.712C60.0508 76.9826 60.2616 77.0967 60.5769 77.5418L60.2673 78.7675L59.9605 79.9225C60.7688 80.8587 61.7945 81.9298 60.8422 83.1499C60.5025 83.412 60.3623 83.5544 59.9351 83.6524C58.2902 84.3643 54.0613 83.8872 52.472 83.0811C51.7267 82.7039 51.6044 82.0043 51.418 81.2774C51.1819 80.1035 50.5269 77.174 50.4601 76.1699L50.3359 75.9012C49.8889 75.8059 47.1459 76.0709 46.4025 76.0737C43.2793 76.085 38.8654 76.25 35.8624 75.7154C35.642 76.8459 35.4005 78.0075 35.2112 79.139L34.7418 81.4056C34.5381 82.1608 34.41 82.6257 33.656 83.0424C32.77 83.5317 31.3342 83.676 30.3159 83.8099C27.249 84.1833 22.9353 83.8542 26.2687 79.9027C25.9731 78.8372 25.7248 77.7595 25.5243 76.6724C25.2994 75.7418 25.1688 74.8084 25.0208 73.8627C25.8269 73.94 26.0949 73.2338 26.726 73.1009C26.9306 72.885 26.8672 72.8765 26.9159 72.5059C26.687 71.4961 27.016 64.7188 27.1731 63.5799C27.2033 62.3306 27.3534 60.9389 27.4635 59.683C27.9736 59.7245 28.0655 59.7189 28.5291 59.9697C28.6371 58.7628 28.7475 57.6587 28.9135 56.4594C28.9829 56.036 28.9438 55.7654 29.2094 55.442L29.2679 55.2874C28.7029 53.9372 36.6257 51.4594 37.6996 51.1237L39.545 50.5561C46.1296 48.5951 52.6385 47.221 59.1804 45.3772L61.1264 44.7778L61.0916 44.6878C60.91 44.2184 60.8827 43.9363 60.4978 43.7668L60.4658 43.7008C60.8808 43.6512 61.4878 43.4436 61.9056 43.3162L63.2832 42.8249C64.1499 42.5409 65.1041 42.1626 65.966 41.8391C66.5927 41.3636 68.4173 38.2962 69.1033 37.3633C69.5767 36.709 70.0632 36.0646 70.5628 35.4302C71.022 35.7222 71.0917 35.6857 71.6365 35.6199L71.7843 35.5746C72.0779 35.489 72.1004 35.6416 72.49 35.5863L72.698 35.182Z" fill="#FDFDFD"/>
<path d="M67.3662 71.0153C68.1172 70.7381 68.9462 70.3732 69.6933 70.062C70.0105 70.641 70.4264 70.4694 71.0409 70.6249C68.3054 72.3117 64.5103 73.0783 61.4388 73.957C61.2328 74.0155 61.213 74.2153 61.1499 74.3917C60.9147 74.6971 60.2089 75.1846 59.8655 75.4156C59.7817 75.8267 59.6726 76.3038 59.6048 76.712C60.0508 76.9826 60.2616 77.0967 60.5769 77.5418L60.2673 78.7675L59.9605 79.9225C60.7688 80.8587 61.7945 81.9298 60.8422 83.1499C60.5025 83.412 60.3623 83.5544 59.9351 83.6524C58.2902 84.3643 54.0613 83.8872 52.472 83.0811C51.7267 82.7039 51.6044 82.0043 51.418 81.2774C51.1819 80.1035 50.5269 77.174 50.4601 76.1699L50.3359 75.9012C49.8889 75.8059 47.1459 76.0709 46.4025 76.0737C43.2793 76.085 38.8654 76.25 35.8624 75.7154C35.642 76.8459 35.4005 78.0075 35.2112 79.139L34.7418 81.4056C34.5381 82.1608 34.41 82.6257 33.656 83.0424C32.77 83.5317 31.3342 83.676 30.3159 83.8099C27.249 84.1833 22.9353 83.8542 26.2687 79.9027C25.9731 78.8372 25.7248 77.7595 25.5243 76.6724C25.2994 75.7418 25.1688 74.8084 25.0208 73.8627C25.8269 73.94 26.0949 73.2338 26.726 73.1009C26.9306 72.885 26.8672 72.8765 26.9159 72.5059C27.4248 72.4494 27.4921 72.4503 28.0054 72.5559C28.0222 72.983 27.9592 73.0632 28.166 73.3969L28.4526 73.5082L28.9422 73.5789C41.2784 76.3349 55.4371 75.0224 67.3662 71.0153Z" fill="#66260A"/>
<path d="M26.9159 72.5059C27.4248 72.4494 27.4921 72.4503 28.0054 72.5559C28.0222 72.983 27.9592 73.0632 28.166 73.3969L28.4526 73.5082C28.4273 73.9042 28.4131 74.2729 28.1488 74.5934L28.6054 74.7019C30.6577 75.1252 32.7249 75.4722 34.8028 75.7418C34.5428 76.8865 34.2892 78.0886 34.0078 79.2229C34.3771 79.0268 34.796 79.1069 35.2112 79.139L34.7418 81.4056C34.5381 82.1608 34.41 82.6257 33.656 83.0424C32.77 83.5317 31.3342 83.676 30.3159 83.8099C27.249 84.1833 22.9353 83.8542 26.2687 79.9027C25.9731 78.8372 25.7248 77.7595 25.5243 76.6724C25.2994 75.7418 25.1688 74.8084 25.0208 73.8627C25.8269 73.94 26.0949 73.2338 26.726 73.1009C26.9306 72.885 26.8672 72.8765 26.9159 72.5059Z" fill="#F4C260"/>
<path d="M26.9159 72.5059C27.4248 72.4494 27.4921 72.4503 28.0054 72.5559C28.0222 72.983 27.9592 73.0632 28.166 73.3969L28.4526 73.5082C28.4273 73.9042 28.4131 74.2729 28.1488 74.5934L28.6054 74.7019C30.6577 75.1252 32.7249 75.4722 34.8028 75.7418C34.5428 76.8865 34.2892 78.0886 34.0078 79.2229L33.857 80.0705L33.7171 80.6739C32.8326 79.9357 33.0631 80.2374 32.9279 79.0626L32.9037 78.9626C32.7082 78.4195 32.5615 78.281 32.1022 77.9396C31.2662 77.3711 27.4469 76.085 26.5646 76.1454L26.4956 75.9606C26.2863 76.3801 25.9825 76.4471 25.5243 76.6724C25.2994 75.7418 25.1688 74.8084 25.0208 73.8627C25.8269 73.94 26.0949 73.2338 26.726 73.1009C26.9306 72.885 26.8672 72.8765 26.9159 72.5059Z" fill="#E8A74B"/>
<path d="M26.9159 72.5059C27.4248 72.4494 27.4921 72.4503 28.0054 72.5559C28.0222 72.983 27.9592 73.0632 28.166 73.3969L28.4526 73.5082C28.4273 73.9042 28.4131 74.2729 28.1488 74.5934C27.4668 74.4313 26.8597 74.2889 26.1889 74.0758C26.267 74.7075 26.3693 75.3364 26.4956 75.9606C26.2863 76.3801 25.9825 76.4471 25.5243 76.6724C25.2994 75.7418 25.1688 74.8084 25.0208 73.8627C25.8269 73.94 26.0949 73.2338 26.726 73.1009C26.9306 72.885 26.8672 72.8765 26.9159 72.5059Z" fill="var(--fill-0, #551C05)"/>
<path d="M26.4956 75.9606L26.5646 76.1454C26.8134 77.5813 27.2446 78.94 27.4887 80.3138C26.9692 80.8333 26.3887 81.2755 26.2813 81.9949C26.5377 82.7954 27.5171 82.7407 28.2455 82.7643C28.2223 82.7445 29.8195 83.2677 29.9668 83.4978C29.9175 83.4205 30.29 83.7788 30.3159 83.8099C27.249 84.1833 22.9353 83.8542 26.2687 79.9027C25.9731 78.8372 25.7248 77.7595 25.5243 76.6724C25.9825 76.4471 26.2863 76.3801 26.4956 75.9606Z" fill="#5F2209"/>
<path d="M34.0078 79.2229C34.3771 79.0268 34.796 79.1069 35.2112 79.139L34.7418 81.4056C34.5381 82.1608 34.41 82.6257 33.656 83.0424C32.77 83.5317 31.3342 83.676 30.3159 83.8099C30.29 83.7788 29.9175 83.4205 29.9668 83.4978C29.8195 83.2677 28.2223 82.7445 28.2455 82.7643C29.1829 82.7454 29.9185 82.7501 30.8454 82.5766C31.9326 82.406 32.4582 82.3371 33.4587 81.845C33.5554 81.5272 33.6462 81.0124 33.7171 80.6739L33.857 80.0705L34.0078 79.2229Z" fill="#66260A"/>
<path d="M34.0078 79.2229C34.3771 79.0268 34.796 79.1069 35.2112 79.139L34.7418 81.4056C34.6546 81.333 34.5684 81.2595 34.4831 81.185C34.035 80.7908 33.8948 80.672 33.857 80.0705L34.0078 79.2229Z" fill="#5F2209"/>
<path d="M32.9279 79.0626C33.0631 80.2374 32.8326 79.9357 33.7171 80.6739C33.6462 81.0124 33.5554 81.5272 33.4587 81.845C32.4582 82.3371 31.9326 82.406 30.8454 82.5766C31.24 82.191 31.9591 81.9572 32.4349 81.5065C33.0522 80.9219 32.9204 79.9036 32.9279 79.0626Z" fill="#E8A74B"/>
<path d="M32.1022 77.9396C32.5615 78.281 32.7082 78.4195 32.9037 78.9626C32.4698 78.9938 32.3434 78.924 32.0692 78.5893C31.9809 78.1716 31.9713 78.3432 32.1022 77.9396Z" fill="#FCD593"/>
<path d="M59.5737 76.7733L59.6048 76.712C60.0508 76.9826 60.2616 77.0967 60.5769 77.5418L60.2673 78.7675L59.9605 79.9225C60.7688 80.8587 61.7945 81.9298 60.8422 83.1499C60.5025 83.412 60.3623 83.5544 59.9351 83.6524C58.2902 84.3643 54.0613 83.8872 52.472 83.0811C51.7267 82.7039 51.6044 82.0043 51.418 81.2774C51.8302 80.8946 51.9939 80.723 52.344 80.2836L52.2988 80.0083C52.6084 79.4953 52.5905 79.3803 53.0309 78.8985C54.1469 77.6756 57.9994 76.7733 59.5737 76.7733Z" fill="#F4C260"/>
<path d="M52.344 80.2836C52.4644 81.0765 52.4541 81.6366 53.1683 82.1297C54.0124 82.7124 56.1861 82.8331 57.225 82.8632C57.544 83.0556 58.0964 82.8896 58.23 82.9707C59.0534 83.4695 58.9329 83.5317 59.9351 83.6524C58.2902 84.3643 54.0613 83.8872 52.472 83.0811C51.7267 82.7039 51.6044 82.0043 51.418 81.2774C51.8302 80.8946 51.9939 80.723 52.344 80.2836Z" fill="#66260A"/>
<path d="M59.0289 79.1719C59.6058 79.1003 59.7093 78.907 60.2673 78.7675L59.9605 79.9225C60.7688 80.8587 61.7945 81.9298 60.8422 83.1499C60.6813 82.5163 60.2964 82.7096 60.1327 82.0524C59.459 80.5938 58.644 81.0539 59.0289 79.1719Z" fill="var(--fill-0, #551C05)"/>
<path d="M60.1327 82.0524C60.2964 82.7096 60.6813 82.5163 60.8422 83.1499C60.5025 83.412 60.3623 83.5544 59.9351 83.6524C58.9329 83.5317 59.0534 83.4695 58.23 82.9707C58.0964 82.8896 57.544 83.0556 57.225 82.8632C58.1237 82.8444 59.7158 82.9905 60.1327 82.0524Z" fill="#743211"/>
<path d="M59.5737 76.7733L59.6048 76.712C60.0508 76.9826 60.2616 77.0967 60.5769 77.5418L60.2673 78.7675C59.7093 78.907 59.6058 79.1003 59.0289 79.1719C59.2463 78.3865 59.4053 77.5719 59.5737 76.7733Z" fill="#743211"/>
<path d="M51.531 76.4386C51.4717 76.1755 51.4246 76.0709 51.4961 75.8088C51.5921 75.7607 59.0929 74.5632 60.08 74.3539L59.8655 75.4156C59.7817 75.8267 59.6726 76.3038 59.6048 76.712L59.5737 76.7733C57.9994 76.7733 54.1469 77.6756 53.0309 78.8985C52.5905 79.3803 52.6084 79.4953 52.2988 80.0083L52.344 80.2836C51.9939 80.723 51.8302 80.8946 51.418 81.2774C51.1819 80.1035 50.5269 77.174 50.4601 76.1699C50.9786 76.3679 51.1197 76.2151 51.531 76.4386Z" fill="#E8A74B"/>
<path d="M50.4601 76.1699C50.9786 76.3679 51.1197 76.2151 51.531 76.4386C51.7728 77.5427 52.024 78.9523 52.2988 80.0083L52.344 80.2836C51.9939 80.723 51.8302 80.8946 51.418 81.2774C51.1819 80.1035 50.5269 77.174 50.4601 76.1699Z" fill="var(--fill-0, #551C05)"/>
<path d="M28.4526 73.5082L28.9422 73.5789C28.9103 73.9523 28.947 74.4925 28.6054 74.7019L28.1488 74.5934C28.4131 74.2729 28.4273 73.9042 28.4526 73.5082Z" fill="#5F2209"/>
<path d="M77.531 40.0366L78.0749 40.3773C78.7712 40.8276 79.3867 41.1674 80.1112 41.564C79.7866 41.9992 79.0197 42.9708 78.8051 43.4089C78.68 43.7271 78.6235 43.8038 78.6452 44.1329L78.7628 44.2971C79.3885 44.3722 79.6351 43.6382 80.051 43.5353C79.4892 44.4907 78.392 45.7729 77.6947 46.6483C75.3855 49.5505 72.9521 52.0666 70.3069 54.6614L70.7012 56.8573C71.1143 59.8763 71.6281 63.3951 71.8341 66.4462C71.9744 67.2504 72.0017 68.1575 72.0835 68.9815C72.0703 69.8829 71.9565 70.2874 71.0409 70.6249C70.4264 70.4694 70.0105 70.641 69.6933 70.062C68.9462 70.3732 68.1172 70.7381 67.3662 71.0153C67.4773 70.1969 67.3512 68.3074 67.3022 67.4117C67.163 65.0432 67.0058 62.6747 66.8308 60.3081C66.7517 59.1588 66.5758 57.3777 66.859 56.2604C67.784 52.6078 70.7906 49.6882 72.9925 46.7521C73.9495 45.4766 74.852 44.2472 75.7412 42.943C76.2079 42.2589 77.3259 40.7985 77.531 40.0366Z" fill="#D9DBE9"/>
<path d="M69.1588 55.3996C68.9575 55.6259 68.7439 55.773 68.4503 55.8305L68.3016 55.7183C68.327 55.0979 69.5183 53.9882 69.9785 53.5186C72.3291 51.1209 74.5951 48.6214 76.7048 46.0082C77.4011 45.1459 78.0758 44.2407 78.8051 43.4089C78.68 43.7271 78.6235 43.8038 78.6452 44.1329L78.7628 44.2971C79.3885 44.3722 79.6351 43.6382 80.051 43.5353C79.4892 44.4907 78.392 45.7729 77.6947 46.6483C75.3855 49.5505 72.9521 52.0666 70.3069 54.6614L70.7012 56.8573C70.3906 57.0515 69.9888 57.3674 69.6548 57.3645C69.5795 56.779 69.5343 55.7739 69.1588 55.3996Z" fill="#66260A"/>
<path d="M69.1588 55.3996C68.9001 55.4298 68.7777 55.4835 68.5604 55.6155C68.5133 55.295 69.1212 54.6708 69.4327 54.5784L69.3028 54.7886C69.5127 54.8773 69.9869 54.7142 70.3069 54.6614L70.7012 56.8573C70.3906 57.0515 69.9888 57.3674 69.6548 57.3645C69.5795 56.779 69.5343 55.7739 69.1588 55.3996Z" fill="var(--fill-0, #551C05)"/>
<path d="M70.7012 56.8573C71.1143 59.8763 71.6281 63.3951 71.8341 66.4462C71.9744 67.2504 72.0017 68.1575 72.0835 68.9815C71.6356 68.7986 71.4013 68.7882 70.9232 68.727C70.8649 68.3112 70.8301 67.7775 70.7906 67.3504C70.48 64.0136 70.1008 60.6843 69.6548 57.3645C69.9888 57.3674 70.3906 57.0515 70.7012 56.8573Z" fill="#66260A"/>
<path d="M71.8341 66.4462C71.9744 67.2504 72.0017 68.1575 72.0835 68.9815C71.6356 68.7986 71.4013 68.7882 70.9232 68.727C70.8649 68.3112 70.8301 67.7775 70.7906 67.3504C71.1058 66.7979 71.5293 66.9836 71.8341 66.4462Z" fill="#5F2209"/>
<path d="M70.9232 68.727C71.4013 68.7882 71.6356 68.7986 72.0835 68.9815C72.0703 69.8829 71.9565 70.2874 71.0409 70.6249C70.4264 70.4694 70.0105 70.641 69.6933 70.062C70.5355 69.6792 70.9439 69.7 70.9232 68.727Z" fill="#743211"/>
<path d="M61.9056 43.3162L63.2832 42.8249C63.5166 43.2054 63.5655 43.5448 63.8873 43.8219L65.3713 43.2761L64.6477 44.5217C64.483 44.8874 63.8403 46.4357 63.6558 46.6125L63.5664 46.6302L63.4714 47.127C62.0175 48.1782 55.6394 50.9154 54.0049 50.8418C53.827 50.7353 53.8345 50.756 53.6896 50.6137C52.8653 50.7485 51.5517 51.4651 50.7678 51.5452C48.2083 51.9337 45.517 52.7483 42.8172 53.1698L40.0699 53.6487C39.5707 53.7242 36.4803 54.1126 36.2391 54.2305C35.2462 54.3002 29.8994 54.8744 29.2679 55.2874C28.7029 53.9372 36.6257 51.4594 37.6996 51.1237L39.545 50.5561C46.1296 48.5951 52.6385 47.221 59.1804 45.3772L61.1264 44.7778L61.0916 44.6878C60.91 44.2184 60.8827 43.9363 60.4978 43.7668L60.4658 43.7008C60.8808 43.6512 61.4878 43.4436 61.9056 43.3162Z" fill="#FDFDFD"/>
<path d="M58.485 48.7375C59.7949 48.3668 62.5586 46.7861 63.5664 46.6302L63.4714 47.127C62.0175 48.1782 55.6394 50.9154 54.0049 50.8418C53.827 50.7353 53.8345 50.756 53.6896 50.6137C55.1981 49.9207 56.9417 49.4115 58.485 48.7375Z" fill="#66260A"/>
<path d="M63.8873 43.8219L65.3713 43.2761L64.6477 44.5217C64.483 44.8874 63.8403 46.4357 63.6558 46.6125L63.5664 46.6302C62.5586 46.7861 59.7949 48.3668 58.485 48.7375C59.1371 47.7857 64.1085 45.5622 63.8901 43.8752L63.8873 43.8219Z" fill="#D9DBE9"/>
<path d="M61.9056 43.3162L63.2832 42.8249C63.5166 43.2054 63.5655 43.5448 63.8873 43.8219L63.8901 43.8752C62.9651 44.1658 62.0439 44.4667 61.1264 44.7778L61.0916 44.6878C60.91 44.2184 60.8827 43.9363 60.4978 43.7668L60.4658 43.7008C60.8808 43.6512 61.4878 43.4436 61.9056 43.3162Z" fill="#743211"/>
<path d="M63.8864 46.954C62.8456 48.9913 55.6309 51.4047 53.2163 52.1826C47.9024 53.8844 42.4258 55.0272 36.8751 55.592C35.0985 55.756 33.3035 55.9248 31.5184 55.8918C31.1196 55.8842 30.8622 55.8494 30.4593 55.9069C29.9478 55.8154 29.8761 55.7673 29.436 55.5109L29.2094 55.442L29.2679 55.2874C29.8994 54.8744 35.2462 54.3002 36.2391 54.2305C36.4803 54.1126 39.5707 53.7242 40.0699 53.6487L42.8172 53.1698C45.517 52.7483 48.2083 51.9337 50.7678 51.5452C51.5517 51.4651 52.8653 50.7485 53.6896 50.6137C53.8345 50.756 53.827 50.7353 54.0049 50.8418C55.6394 50.9154 62.0175 48.1782 63.4714 47.127L63.8864 46.954Z" fill="#D9DBE9"/>
<path d="M50.7678 51.5452C50.6963 51.7875 50.6897 51.9299 50.3716 52.0487C48.3824 52.7907 45.5556 53.4564 43.4769 53.8269C43.2783 53.3687 43.299 53.4847 42.8172 53.1698C45.517 52.7483 48.2083 51.9337 50.7678 51.5452Z" fill="#66260A"/>
<path d="M36.2391 54.2305C36.8182 54.2531 37.0439 54.2427 37.3889 54.7377C35.3444 55.031 33.2753 55.1658 31.2216 55.3808C30.6279 55.443 30.0334 55.5043 29.436 55.5109L29.2094 55.442L29.2679 55.2874C29.8994 54.8744 35.2462 54.3002 36.2391 54.2305Z" fill="#5F2209"/>
<path d="M36.2391 54.2305C36.4803 54.1126 39.5707 53.7242 40.0699 53.6487C40.2281 54.0136 40.2664 54.1456 40.6296 54.3276C39.7609 54.4539 38.2478 54.7113 37.3889 54.7377C37.0439 54.2427 36.8182 54.2531 36.2391 54.2305Z" fill="#66260A"/>
<path d="M40.0699 53.6487L42.8172 53.1698C43.299 53.4847 43.2783 53.3687 43.4769 53.8269C42.5312 54.0108 41.5817 54.1777 40.6296 54.3276C40.2664 54.1456 40.2281 54.0136 40.0699 53.6487Z" fill="var(--fill-0, #551C05)"/>
<path d="M27.1731 63.5799C27.1858 63.9136 27.1835 64.1088 27.2564 64.4379C27.5448 64.5689 27.7466 64.4803 28.2079 64.6246C28.003 66.6536 27.9448 70.4826 28.0054 72.5559C27.4921 72.4503 27.4248 72.4494 26.9159 72.5059C26.687 71.4961 27.016 64.7188 27.1731 63.5799Z" fill="#66260A"/>
<path d="M69.1033 37.3633C69.332 37.4535 69.8458 37.6801 70.0622 37.6968C69.4779 38.6435 67.481 41.7569 66.7875 42.5024C66.6003 42.2626 66.2521 41.9624 65.966 41.8391C66.5927 41.3636 68.4173 38.2962 69.1033 37.3633Z" fill="#66260A"/>
<path d="M27.4635 59.683C27.9736 59.7245 28.0655 59.7189 28.5291 59.9697C28.3974 61.4198 28.2403 63.1622 28.2079 64.6246C27.7466 64.4803 27.5448 64.5689 27.2564 64.4379C27.1835 64.1088 27.1858 63.9136 27.1731 63.5799C27.2033 62.3306 27.3534 60.9389 27.4635 59.683Z" fill="#5F2209"/>
<path d="M65.966 41.8391C66.2521 41.9624 66.6003 42.2626 66.7875 42.5024C66.2831 43.2731 65.7806 44.0613 65.2499 44.8121L64.6477 44.5217L65.3713 43.2761L63.8873 43.8219C63.5655 43.5448 63.5166 43.2054 63.2832 42.8249C64.1499 42.5409 65.1041 42.1626 65.966 41.8391Z" fill="var(--fill-0, #551C05)"/>
<path d="M76.1609 37.9064C76.7189 38.3015 77.4011 38.8155 77.9667 39.1754C78.3083 39.4036 78.647 39.6351 78.9839 39.8698C78.7383 40.2247 78.4569 40.1944 78.0749 40.3773L77.531 40.0366C77.0285 39.7043 76.4583 39.3494 76.0019 38.9651C76.2023 38.638 76.1599 38.2917 76.1609 37.9064Z" fill="#743211"/>
<path d="M69.1033 37.3633C69.5767 36.709 70.0632 36.0646 70.5628 35.4302C71.022 35.7222 71.0917 35.6857 71.6365 35.6199C71.4069 35.9302 70.2683 37.541 70.0622 37.6968C69.8458 37.6801 69.332 37.4535 69.1033 37.3633Z" fill="#743211"/>
<path d="M72.698 35.182L74.9959 37.0388C74.5169 37.0637 73.9825 36.9443 73.5929 37.1339C72.9379 36.654 72.3818 36.1225 71.7843 35.5746C72.0779 35.489 72.1004 35.6416 72.49 35.5863L72.698 35.182Z" fill="#743211"/>
<path d="M73.5929 37.1339C73.9825 36.9443 74.5169 37.0637 74.9959 37.0388L76.1609 37.9064C76.1599 38.2917 76.2023 38.638 76.0019 38.9651C75.3817 38.6146 74.1547 37.5953 73.5929 37.1339Z" fill="#5F2209"/>
<path d="M64.6477 44.5217L65.2499 44.8121C65.0278 45.1653 64.0012 46.6581 63.8864 46.954L63.4714 47.127L63.5664 46.6302L63.6558 46.6125C63.8403 46.4357 64.483 44.8874 64.6477 44.5217Z" fill="#743211"/>
<path d="M29.2094 55.442L29.436 55.5109C29.8761 55.7673 29.9478 55.8154 30.4593 55.9069C29.9455 56.3227 29.5339 56.2491 28.9135 56.4594C28.9829 56.036 28.9438 55.7654 29.2094 55.442Z" fill="#EDECF0"/>
<path d="M31.3909 56.3981C31.917 56.2095 32.5039 56.3189 32.9268 56.6847C33.3497 57.0506 33.5432 57.6172 33.4332 58.166C33.3232 58.7147 32.9267 59.1616 32.3955 59.336C31.5901 59.6 30.7225 59.1663 30.4479 58.363C30.1732 57.5606 30.5932 56.6847 31.3909 56.3981Z" fill="#651F09"/>
<path d="M31.5437 56.9676C32.0279 56.7705 32.5805 57.0015 32.7801 57.4862C32.9797 57.9698 32.7515 58.5252 32.2694 58.7279C31.7836 58.9316 31.2249 58.7006 31.0239 58.2131C30.8227 57.7256 31.0558 57.1665 31.5437 56.9676Z" fill="#FDFDFD"/>
<path d="M44.7199 56.5886C45.5151 56.3029 46.3912 56.7159 46.6782 57.5126C46.9652 58.3083 46.5549 59.1871 45.7616 59.4765C44.9646 59.7679 44.0838 59.3549 43.7959 58.5554C43.507 57.7568 43.922 56.8742 44.7199 56.5886Z" fill="#5F2209"/>
<path d="M44.8046 57.1458C45.117 56.993 45.4878 57.0232 45.772 57.225C46.0562 57.4267 46.2077 57.7671 46.1681 58.1141C46.1277 58.4601 45.9018 58.7571 45.58 58.8882C45.1039 59.0815 44.5609 58.8618 44.352 58.3922C44.1431 57.9227 44.3426 57.3721 44.8046 57.1458Z" fill="#FDFDFD"/>
<path d="M31.4339 63.6591C32.2553 63.463 33.0791 63.974 33.2699 64.798C33.4608 65.6221 32.9457 66.4443 32.1219 66.631C31.3054 66.8148 30.4933 66.3047 30.3042 65.4873C30.1149 64.6708 30.6197 63.8533 31.4339 63.6591Z" fill="#5F2209"/>
<path d="M31.5215 64.2304C32.0012 64.0956 32.5021 64.3615 32.6604 64.8348C32.8187 65.3091 32.5789 65.8229 32.115 66.0058C31.7935 66.1322 31.4287 66.07 31.1661 65.8456C30.9036 65.6202 30.7861 65.2695 30.8604 64.931C30.9347 64.5935 31.1889 64.3238 31.5215 64.2304Z" fill="#FDFDFD"/>
<path d="M44.7962 63.941C45.5866 63.6959 46.4288 64.1286 46.6895 64.9159C46.9511 65.7023 46.5361 66.5546 45.756 66.8318C45.2366 67.0166 44.6588 66.9053 44.2447 66.5423C43.8307 66.1784 43.6453 65.6193 43.7601 65.08C43.874 64.5407 44.2701 64.1051 44.7962 63.941Z" fill="#66260A"/>
<path d="M44.878 64.4963C45.1904 64.3653 45.549 64.4134 45.8162 64.6217C46.0844 64.8301 46.219 65.1657 46.17 65.5014C46.1211 65.838 45.8953 66.1209 45.58 66.2434C45.1001 66.4301 44.56 66.1954 44.368 65.7173C44.176 65.2393 44.4028 64.6953 44.878 64.4963Z" fill="#FDFDFD"/>
<path d="M14.6496 19.9431C15.2607 20.6634 15.1788 20.0768 15.8793 20.2505C14.9949 21.7322 14.0976 23.2995 13.9988 25.0793C13.9699 25.5984 14.0817 26.9281 13.9581 27.379C13.5339 28.9266 13.187 29.8925 12.9601 31.5C13.3501 32.1842 13.8571 33.0206 14.1968 33.7136C14.3637 34.2159 14.4411 34.4274 14.5157 34.9544L14.7597 35.3447C14.5403 35.5386 14.1828 35.8352 13.996 36.0422C14.1909 36.3456 14.9902 37.6374 15.162 37.8447C16.0474 39.2632 16.9049 40.6992 17.7338 42.1516C18.5102 43.5381 19.3956 45.2536 20.2168 46.5762C20.9637 48.1894 25.7199 50.4392 27.2706 51.3359C28.049 51.7856 29.5446 52.1317 30.0358 52.9001C27.6274 54.2314 27.9706 55.6749 27.6183 58.1547C27.5497 58.6374 27.4859 59.1993 27.4635 59.683C27.3534 60.9389 27.2033 62.3306 27.1731 63.5799C27.016 64.7188 26.687 71.4961 26.9159 72.5059C26.8672 72.8765 26.9306 72.885 26.726 73.1009C26.0949 73.2338 25.8269 73.94 25.0208 73.8627C24.7153 73.6591 22.5586 73.1527 21.9566 72.9774C19.9119 72.3815 15.3758 71.0304 13.9471 69.5736C13.4041 69.0202 14.2737 63.9768 14.4253 62.8322C14.5771 61.6885 14.7989 60.5175 15.0006 59.3785C15.1777 58.3413 15.3825 57.3089 15.6147 56.2821C15.6999 55.7852 15.8349 55.2978 15.9605 54.8094C11.4467 50.8267 7.54138 45.8748 3.94579 41.0643C3.34552 40.2611 2.09699 38.375 2.27757 37.3113C2.4031 36.572 3.00995 36.2152 3.5866 35.8349L3.47246 35.5168C3.1624 34.8332 3.01061 34.0829 2.82975 33.3502C2.3935 33.2177 1.71438 32.4605 1.40968 32.1295C1.19343 31.8419 0.99836 31.539 0.825873 31.2232C-0.962795 28.0235 0.264471 24.3874 3.44094 22.6655C4.60995 22.1061 5.94834 21.7706 7.23329 22.15C8.49452 22.5225 9.23303 23.9629 9.85315 24.2139C10.3529 24.4019 10.7943 24.7189 11.1323 25.1329C12.6393 26.9444 10.9178 29.9252 11.474 30.5587C11.5956 30.505 11.7527 30.4378 11.7938 30.2863C11.9325 29.5771 12.7599 27.6419 12.752 27.0518C12.713 24.1633 13.0165 22.4592 14.6496 19.9431Z" fill="#FDFDFD"/>
<path d="M8.83799 37.9034C8.9336 38.2693 8.991 38.5343 9.14655 38.8829C8.59201 39.247 8.06109 39.5999 7.48595 39.9331L6.76533 40.3362L5.60968 40.9569L5.48029 41.0954C5.00499 40.7305 5.03133 40.9781 4.77406 40.4594C5.38506 40.0424 6.46336 39.4374 7.12724 39.0326L8.83799 37.9034Z" fill="#66260A"/>
<path d="M5.60968 40.9569C5.44961 40.556 5.46147 40.7188 5.52207 40.3258C5.93724 39.9015 6.31129 40.0438 6.76533 40.3362L5.60968 40.9569Z" fill="var(--fill-0, #551C05)"/>
<path d="M14.6496 19.9431C15.2607 20.6634 15.1788 20.0768 15.8793 20.2505C14.9949 21.7322 14.0976 23.2995 13.9988 25.0793C13.9699 25.5984 14.0817 26.9281 13.9581 27.379C13.5339 28.9266 13.187 29.8925 12.9601 31.5C13.3501 32.1842 13.8571 33.0206 14.1968 33.7136C14.3637 34.2159 14.4411 34.4274 14.5157 34.9544L14.7597 35.3447C14.5403 35.5386 14.1828 35.8352 13.996 36.0422L13.6822 35.4843C13.1708 35.0943 13.2792 35.5106 12.7075 35.102C11.4462 36.0748 10.1558 37.0089 8.83799 37.9034L7.12724 39.0326C6.56658 38.2169 5.79232 36.7605 5.52724 35.8152C4.84294 36.2593 4.36218 36.6182 3.72267 37.113C3.68098 36.691 3.64476 36.2538 3.5866 35.8349L3.47246 35.5168C3.1624 34.8332 3.01061 34.0829 2.82975 33.3502C2.3935 33.2177 1.71438 32.4605 1.40968 32.1295C1.19343 31.8419 0.99836 31.539 0.825873 31.2232C-0.962795 28.0235 0.264471 24.3874 3.44094 22.6655C4.60995 22.1061 5.94834 21.7706 7.23329 22.15C8.49452 22.5225 9.23303 23.9629 9.85315 24.2139C10.3529 24.4019 10.7943 24.7189 11.1323 25.1329C12.6393 26.9444 10.9178 29.9252 11.474 30.5587C11.5956 30.505 11.7527 30.4378 11.7938 30.2863C11.9325 29.5771 12.7599 27.6419 12.752 27.0518C12.713 24.1633 13.0165 22.4592 14.6496 19.9431Z" fill="#8D4819"/>
<path d="M14.6496 19.9431C15.2607 20.6634 15.1788 20.0768 15.8793 20.2505C14.9949 21.7322 14.0976 23.2995 13.9988 25.0793C13.9699 25.5984 14.0817 26.9281 13.9581 27.379C13.5339 28.9266 13.187 29.8925 12.9601 31.5C13.3501 32.1842 13.8571 33.0206 14.1968 33.7136C14.3637 34.2159 14.4411 34.4274 14.5157 34.9544L14.7597 35.3447C14.5403 35.5386 14.1828 35.8352 13.996 36.0422L13.6822 35.4843C13.1708 35.0943 13.2792 35.5106 12.7075 35.102C11.4462 36.0748 10.1558 37.0089 8.83799 37.9034L7.12724 39.0326C6.56658 38.2169 5.79232 36.7605 5.52724 35.8152L5.90967 35.5696L7.62541 34.514C8.46366 34.0231 9.48983 33.4194 10.2753 32.8587C9.97285 32.2284 10.5077 32.4124 10.263 31.6522C10.6935 31.2844 10.2885 30.7747 10.0709 30.3533C10.517 28.2724 11.7896 26.6251 9.40645 25.1609L9.55099 25.0744C9.98301 25.2043 10.0787 25.4392 10.4577 25.7528C10.7953 25.7249 10.8422 25.7388 11.1225 25.5706L11.1324 25.4127C10.7041 25.0645 10.2461 24.6073 9.85315 24.2139C10.3529 24.4019 10.7943 24.7189 11.1323 25.1329C12.6393 26.9444 10.9178 29.9252 11.474 30.5587C11.5956 30.505 11.7527 30.4378 11.7938 30.2863C11.9325 29.5771 12.7599 27.6419 12.752 27.0518C12.713 24.1633 13.0165 22.4592 14.6496 19.9431Z" fill="var(--fill-0, #551C05)"/>
<path d="M10.2753 32.8587C10.7885 32.5195 11.3051 32.1855 11.8251 31.8567C12.3712 32.5998 12.9259 33.6629 13.3842 34.4878L12.7075 35.102C11.4462 36.0748 10.1558 37.0089 8.83799 37.9034L7.12724 39.0326C6.56658 38.2169 5.79232 36.7605 5.52724 35.8152L5.90967 35.5696L7.62541 34.514C8.46366 34.0231 9.48983 33.4194 10.2753 32.8587Z" fill="#FDFDFD"/>
<path d="M3.44094 22.6655C4.60995 22.1061 5.94834 21.7706 7.23329 22.15C8.49452 22.5225 9.23303 23.9629 9.85315 24.2139C10.2461 24.6073 10.7041 25.0645 11.1324 25.4127L11.1225 25.5706C10.8422 25.7388 10.7953 25.7249 10.4577 25.7528C10.0787 25.4392 9.98301 25.2043 9.55099 25.0744L9.40645 25.1609C8.52143 25.0634 6.47606 25.1242 6.85698 26.5111C7.46488 27.2485 9.0149 27.2874 9.15897 27.8683C8.83357 28.3308 8.50497 28.2071 8.22907 28.564C7.92936 28.9516 7.86198 29.838 7.50778 30.1238L7.29577 30.0609C6.91147 29.4368 7.3033 28.4059 7.21146 28.1809C7.08762 27.8776 6.08893 27.4929 5.93621 26.8507C5.43437 24.7398 7.64827 24.4145 7.90206 23.9051C7.45866 22.8696 5.48433 23.1413 4.62708 23.3134C4.0142 22.8977 4.0015 23.512 3.44094 22.6655Z" fill="#5F2209"/>
<path d="M1.40968 32.1295C1.19343 31.8419 0.99836 31.539 0.825873 31.2232C-0.962795 28.0235 0.264471 24.3874 3.44094 22.6655C4.0015 23.512 4.0142 22.8977 4.62708 23.3134C1.75324 24.4543 0.221181 27.0338 1.43781 30.035C1.59373 30.4269 1.78024 30.806 1.99545 31.1686C2.08061 31.3805 2.13943 31.5058 2.18356 31.734C1.81939 31.6945 1.93373 31.6573 1.63806 31.8015L1.40968 32.1295Z" fill="#591F08"/>
<path d="M2.82975 33.3502C3.33827 33.304 3.68211 33.6178 4.0986 33.9156L4.0923 34.244L4.37084 35.2431L5.1403 34.7457C5.44613 35.0457 5.63414 35.2364 5.90967 35.5696L5.52724 35.8152C4.84294 36.2593 4.36218 36.6182 3.72267 37.113C3.68098 36.691 3.64476 36.2538 3.5866 35.8349L3.47246 35.5168C3.1624 34.8332 3.01061 34.0829 2.82975 33.3502Z" fill="#5F2209"/>
<path d="M2.82975 33.3502C3.33827 33.304 3.68211 33.6178 4.0986 33.9156L4.0923 34.244C3.86655 34.9325 3.50455 34.5281 3.47246 35.5168C3.1624 34.8332 3.01061 34.0829 2.82975 33.3502Z" fill="var(--fill-0, #551C05)"/>
<path d="M7.14766 33.5467C7.62211 33.1427 9.6418 32.0073 10.263 31.6522C10.5077 32.4124 9.97285 32.2284 10.2753 32.8587C9.48983 33.4194 8.46366 34.0231 7.62541 34.514C7.30753 34.1028 7.27968 34.0491 7.14766 33.5467Z" fill="#66260A"/>
<path d="M1.99545 31.1686C2.74967 32.1197 3.31333 32.3137 4.01448 33.1702C4.07405 33.2429 4.09333 33.7799 4.0986 33.9156C3.68211 33.6178 3.33827 33.304 2.82975 33.3502C2.3935 33.2177 1.71438 32.4605 1.40968 32.1295L1.63806 31.8015C1.93373 31.6573 1.81939 31.6945 2.18356 31.734C2.13943 31.5058 2.08061 31.3805 1.99545 31.1686Z" fill="#66260A"/>
<path d="M7.14766 33.5467C7.27968 34.0491 7.30753 34.1028 7.62541 34.514L5.90967 35.5696C5.63414 35.2364 5.44613 35.0457 5.1403 34.7457C5.8325 34.3075 6.42995 33.9455 7.14766 33.5467Z" fill="var(--fill-0, #551C05)"/>
<path d="M3.5866 35.8349C3.64476 36.2538 3.68098 36.691 3.72267 37.113C4.36218 36.6182 4.84294 36.2593 5.52724 35.8152C5.79232 36.7605 6.56658 38.2169 7.12724 39.0326C6.46336 39.4374 5.38506 40.0424 4.77406 40.4594C5.03133 40.9781 5.00499 40.7305 5.48029 41.0954C7.80119 44.3857 10.3531 47.5062 13.1166 50.4336C14.0859 51.4688 15.2943 52.5654 16.1976 53.5639C16.2592 53.9269 16.2015 53.9806 16.4103 54.1833L16.8774 54.2163C16.9548 54.3851 16.9693 54.3936 16.9926 54.5765L16.6592 56.2058C16.3949 56.1181 16.2421 55.9776 16.0197 55.8107C15.8586 55.9653 15.752 56.1086 15.6147 56.2821C15.6999 55.7852 15.8349 55.2978 15.9605 54.8094C11.4467 50.8267 7.54138 45.8748 3.94579 41.0643C3.34552 40.2611 2.09699 38.375 2.27757 37.3113C2.4031 36.572 3.00995 36.2152 3.5866 35.8349Z" fill="var(--fill-0, #551C05)"/>
<path d="M3.72267 37.113C4.36218 36.6182 4.84294 36.2593 5.52724 35.8152C5.79232 36.7605 6.56658 38.2169 7.12724 39.0326C6.46336 39.4374 5.38506 40.0424 4.77406 40.4594C4.56582 39.8002 3.45063 38.532 3.39266 37.6605C3.37309 37.3671 3.51678 37.3129 3.72267 37.113Z" fill="#D9DBE9"/>
<path d="M7.48595 39.9331C8.64395 42.164 13.3106 48.3288 15.1846 49.7626C16.2293 49.5602 16.6603 49.5237 17.7183 49.6241C17.0712 50.4421 16.5633 52.5654 16.1976 53.5639C15.2943 52.5654 14.0859 51.4688 13.1166 50.4336C10.3531 47.5062 7.80119 44.3857 5.48029 41.0954L5.60968 40.9569L6.76533 40.3362L7.48595 39.9331Z" fill="#D9DBE9"/>
<path d="M14.4253 62.8322C15.0041 63.0349 15.0139 63.2678 15.4586 63.5092C15.2444 65.1478 14.9229 67.3089 14.8137 68.9353C17.3883 70.5806 20.7968 71.4678 23.7062 72.2787C24.3641 72.4626 26.187 72.8821 26.726 73.1009C26.0949 73.2338 25.8269 73.94 25.0208 73.8627C24.7153 73.6591 22.5586 73.1527 21.9566 72.9774C19.9119 72.3815 15.3758 71.0304 13.9471 69.5736C13.4041 69.0202 14.2737 63.9768 14.4253 62.8322Z" fill="#5F2209"/>
<path d="M12.7075 35.102C13.2792 35.5106 13.1708 35.0943 13.6822 35.4843C12.2713 36.7465 10.7538 37.8836 9.14655 38.8829C8.991 38.5343 8.9336 38.2693 8.83799 37.9034C10.1558 37.0089 11.4462 36.0748 12.7075 35.102Z" fill="#5F2209"/>
<path d="M15.6147 56.2821C15.752 56.1086 15.8586 55.9653 16.0197 55.8107C16.2421 55.9776 16.3949 56.1181 16.6592 56.2058C16.385 57.5993 16.1363 58.9985 15.9131 60.4015C15.8727 60.0036 15.9377 59.9923 15.7318 59.7321C15.413 59.6302 15.3492 59.6038 15.0661 59.4209L15.0006 59.3785C15.1777 58.3413 15.3825 57.3089 15.6147 56.2821Z" fill="#66260A"/>
<path d="M14.4253 62.8322C14.5771 61.6885 14.7989 60.5175 15.0006 59.3785L15.0661 59.4209C15.3492 59.6038 15.413 59.6302 15.7318 59.7321C15.9377 59.9923 15.8727 60.0036 15.9131 60.4015L15.4586 63.5092C15.0139 63.2678 15.0041 63.0349 14.4253 62.8322Z" fill="var(--fill-0, #551C05)"/>
<path d="M17.7183 49.6241C18.085 50.2233 17.1563 53.6525 16.9926 54.5765C16.9693 54.3936 16.9548 54.3851 16.8774 54.2163L16.4103 54.1833C16.2015 53.9806 16.2592 53.9269 16.1976 53.5639C16.5633 52.5654 17.0712 50.4421 17.7183 49.6241Z" fill="#5F2209"/>
<path d="M72.2821 19.9038L72.3517 19.7814C72.6566 20.1275 72.953 20.5862 73.351 20.6465C73.5995 20.5069 73.7425 20.422 73.9749 20.2568C74.9828 21.9205 75.1823 22.8818 75.409 24.8145C75.6151 24.7135 76.2804 24.3862 76.431 24.2587C77.1885 23.6203 77.7785 22.7185 78.8098 22.4963C80.8594 21.7958 83.4829 22.8755 84.677 24.6291C86.1027 25.9361 86.2504 28.6986 85.7121 30.4492C84.9988 32.1715 84.5378 32.6199 83.1074 33.7681C82.9804 34.1894 82.7687 34.975 82.6162 35.3578L82.1881 36.3604C82.5607 36.6451 83.4819 37.2744 83.4321 37.8486C83.2646 39.7884 81.2339 41.9608 80.1094 43.4953C80.0896 43.5086 80.0708 43.522 80.051 43.5353C79.6351 43.6382 79.3885 44.3722 78.7628 44.2971L78.6452 44.1329C78.6235 43.8038 78.68 43.7271 78.8051 43.4089C79.0197 42.9708 79.7866 41.9992 80.1112 41.564C79.3867 41.1674 78.7712 40.8276 78.0749 40.3773C78.4569 40.1944 78.7383 40.2247 78.9839 39.8698C78.647 39.6351 78.3083 39.4036 77.9667 39.1754C77.4011 38.8155 76.7189 38.3015 76.1609 37.9064L74.9959 37.0388L72.698 35.182L72.0619 34.5987L72.6858 33.4557C72.9332 33.0623 73.1403 32.7225 73.3642 32.3149C73.0669 32.008 72.8382 31.9795 72.4703 31.6942C73.5901 30.2563 73.9843 31.4275 74.7127 30.2005C74.07 28.1562 74.1509 27.7864 74.2572 25.6347C73.9382 22.9569 73.9674 22.1526 72.2821 19.9038Z" fill="#8D4819"/>
<path d="M80.0237 34.8834L80.0915 34.9185C80.4829 35.1229 81.0137 35.5695 81.3233 35.6242L81.4682 35.4766C81.9302 35.4555 82.0497 35.346 82.6162 35.3578L82.1881 36.3604C82.5607 36.6451 83.4819 37.2744 83.4321 37.8486C83.2646 39.7884 81.2339 41.9608 80.1094 43.4953C80.0896 43.5086 80.0708 43.522 80.051 43.5353C79.6351 43.6382 79.3885 44.3722 78.7628 44.2971L78.6452 44.1329C78.6235 43.8038 78.68 43.7271 78.8051 43.4089C79.0197 42.9708 79.7866 41.9992 80.1112 41.564C79.3867 41.1674 78.7712 40.8276 78.0749 40.3773C78.4569 40.1944 78.7383 40.2247 78.9839 39.8698C78.647 39.6351 78.3083 39.4036 77.9667 39.1754C78.5671 38.6074 79.5005 36.8091 79.7819 36.0118L79.3754 35.7292C79.7113 35.3806 79.7753 35.2819 80.0237 34.8834Z" fill="#5F2209"/>
<path d="M79.7819 36.0118C80.5902 36.5311 81.678 37.2718 82.3499 37.9436C81.9123 38.9819 81.3581 39.9665 80.6965 40.8782C80.1319 40.5311 79.5607 40.1949 78.9839 39.8698C78.647 39.6351 78.3083 39.4036 77.9667 39.1754C78.5671 38.6074 79.5005 36.8091 79.7819 36.0118Z" fill="#D9DBE9"/>
<path d="M73.3642 32.3149C73.4903 32.2129 73.6352 32.0468 73.7416 32.0919C74.7023 32.499 76.4667 33.7816 77.2788 34.3265L79.3754 35.7292L79.7819 36.0118C79.5005 36.8091 78.5671 38.6074 77.9667 39.1754C77.4011 38.8155 76.7189 38.3015 76.1609 37.9064L74.9959 37.0388L72.698 35.182L72.0619 34.5987L72.6858 33.4557C72.9332 33.0623 73.1403 32.7225 73.3642 32.3149Z" fill="#FDFDFD"/>
<path d="M72.2821 19.9038L72.3517 19.7814C72.6566 20.1275 72.953 20.5862 73.351 20.6465C73.5995 20.5069 73.7425 20.422 73.9749 20.2568C74.9828 21.9205 75.1823 22.8818 75.409 24.8145C75.6151 24.7135 76.2804 24.3862 76.431 24.2587C77.1885 23.6203 77.7785 22.7185 78.8098 22.4963L78.8823 22.5055C79.3754 22.5642 80.0633 22.4066 80.4726 22.8091L80.323 22.7256L80.4547 22.8883C80.1837 23.1892 79.7348 23.2295 79.2963 23.3508C78.6197 23.6199 78.4014 23.6944 77.8481 24.1992C80.3559 25.0193 81.0108 26.4428 78.7976 28.3098C78.76 28.3415 78.7741 28.6104 78.7835 28.6676C78.7703 29.0114 78.8079 29.1753 78.599 29.4183C78.2753 29.4238 78.36 29.4083 78.0326 29.2062C77.7239 28.1622 76.5081 28.5378 76.653 27.7145C77.339 27.5046 78.7167 27.4084 79.0291 26.7704C79.6501 25.4994 77.2732 24.9255 76.4761 25.3419C75.6659 25.7653 75.5041 26.2081 75.2509 26.9505C74.9931 26.2567 74.5574 26.7964 74.2572 25.6347C73.9382 22.9569 73.9674 22.1526 72.2821 19.9038Z" fill="#5F2209"/>
<path d="M74.2572 25.6347C74.5574 26.7964 74.9931 26.2567 75.2509 26.9505C75.122 28.6426 75.5473 29.0352 75.8419 30.5339C75.6819 30.8795 75.4768 31.2928 75.3319 31.6379C75.951 32.2168 77.02 32.8678 77.7653 33.3445C77.5442 33.7256 77.4369 33.9028 77.2788 34.3265C76.4667 33.7816 74.7023 32.499 73.7416 32.0919C73.6352 32.0468 73.4903 32.2129 73.3642 32.3149C73.0669 32.008 72.8382 31.9795 72.4703 31.6942C73.5901 30.2563 73.9843 31.4275 74.7127 30.2005C74.07 28.1562 74.1509 27.7864 74.2572 25.6347Z" fill="#60240B"/>
<path d="M81.981 33.1507C83.4998 32.3858 84.0305 31.4597 84.7448 29.9753C85.219 30.1081 85.3527 30.1098 85.7121 30.4492C84.9988 32.1715 84.5378 32.6199 83.1074 33.7681C82.9804 34.1894 82.7687 34.975 82.6162 35.3578C82.0497 35.346 81.9302 35.4555 81.4682 35.4766C81.7646 34.6752 81.8465 33.9882 81.981 33.1507Z" fill="#61240B"/>
<path d="M83.6278 24.9077C83.8442 24.5834 83.8009 24.5394 84.0983 24.3845C84.3345 24.4649 84.4521 24.5195 84.677 24.6291C86.1027 25.9361 86.2504 28.6986 85.7121 30.4492C85.3527 30.1098 85.219 30.1081 84.7448 29.9753C85.3724 28.0162 84.9433 26.4443 83.6278 24.9077Z" fill="#66260A"/>
<path d="M78.8098 22.4963C80.8594 21.7958 83.4829 22.8755 84.677 24.6291C84.4521 24.5195 84.3345 24.4649 84.0983 24.3845C83.8009 24.5394 83.8442 24.5834 83.6278 24.9077C82.0996 23.543 81.2546 23.2619 79.2963 23.3508C79.7348 23.2295 80.1837 23.1892 80.4547 22.8883L80.323 22.7256L80.4726 22.8091C80.0633 22.4066 79.3754 22.5642 78.8823 22.5055L78.8098 22.4963Z" fill="var(--fill-0, #551C05)"/>
<path d="M77.7653 33.3445L79.8798 34.7067L80.0237 34.8834C79.7753 35.2819 79.7113 35.3806 79.3754 35.7292L77.2788 34.3265C77.4369 33.9028 77.5442 33.7256 77.7653 33.3445Z" fill="var(--fill-0, #551C05)"/>
<path d="M79.8798 34.7067C80.5168 34.4562 80.561 33.7249 81.981 33.1507C81.8465 33.9882 81.7646 34.6752 81.4682 35.4766L81.3233 35.6242C81.0137 35.5695 80.4829 35.1229 80.0915 34.9185L80.0237 34.8834L79.8798 34.7067Z" fill="#743211"/>
<path d="M78.7835 28.6676C78.8578 29.2237 78.9416 30.0504 78.3967 30.3958C77.9544 30.2297 78.0429 29.6358 78.0326 29.2062C78.36 29.4083 78.2753 29.4238 78.599 29.4183C78.8079 29.1753 78.7703 29.0114 78.7835 28.6676Z" fill="#66260A"/>
<path d="M14.7597 35.3447L15.4004 36.3353L15.6384 36.7442L16.0501 37.3711C16.1548 37.5523 16.7694 38.6388 16.8528 38.7321C17.1089 39.2024 17.4038 39.78 17.6987 40.2131C18.4159 40.4875 20.5906 41.9261 20.9101 42.6023C21.8709 43.0516 22.7747 43.4351 23.7556 43.8403C25.2384 44.4013 26.9169 45.0803 28.4108 45.5604C29.2234 45.9649 29.9704 46.109 30.6752 46.4274C33.6176 47.5248 36.8446 48.3504 39.6765 49.4275C45.3937 47.5638 51.2618 46.2389 57.1017 44.7799L57.943 44.5018L58.389 44.3836C58.9743 44.9002 58.9677 44.663 59.1804 45.3772C52.6385 47.221 46.1296 48.5951 39.545 50.5561L37.6996 51.1237C36.6257 51.4594 28.7029 53.9372 29.2679 55.2874L29.2094 55.442C28.9438 55.7654 28.9829 56.036 28.9135 56.4594C28.7475 57.6587 28.6371 58.7628 28.5291 59.9697C28.0655 59.7189 27.9736 59.7245 27.4635 59.683C27.4859 59.1993 27.5497 58.6374 27.6183 58.1547C27.9706 55.6749 27.6274 54.2314 30.0358 52.9001C29.5446 52.1317 28.049 51.7856 27.2706 51.3359C25.7199 50.4392 20.9637 48.1894 20.2168 46.5762C19.3956 45.2536 18.5102 43.5381 17.7338 42.1516C16.9049 40.6992 16.0474 39.2632 15.162 37.8447C14.9902 37.6374 14.1909 36.3456 13.996 36.0422C14.1828 35.8352 14.5403 35.5386 14.7597 35.3447Z" fill="#66260A"/>
<path d="M19.7594 43.265C22.4298 44.4751 25.1414 45.5919 27.8893 46.6133C30.6526 47.6089 33.4326 48.5576 36.2278 49.4591C35.0796 50.2695 32.1152 51.1058 30.6584 51.2265C28.1795 50.2063 25.7631 49.0398 23.4219 47.7332C22.9967 46.9027 19.889 44.5026 19.7594 43.265Z" fill="#FDFDFD"/>
<path d="M20.2168 46.5762L20.3026 46.6202C21.3479 47.1666 22.5115 48.0126 23.5659 48.617C26.0671 50.0263 28.6703 51.2463 31.3537 52.2656C31.0489 52.4155 30.3201 52.7992 30.0358 52.9001C29.5446 52.1317 28.049 51.7856 27.2706 51.3359C25.7199 50.4392 20.9637 48.1894 20.2168 46.5762Z" fill="#D9DBE9"/>
<path d="M36.2278 49.4591L36.3169 49.4543C36.6677 49.5643 37.2816 49.6966 37.4994 49.9242C37.3605 50.1366 37.1242 50.1677 36.8669 50.2516C35.3329 50.7249 33.7459 51.2359 32.2758 51.8865C31.7816 51.6885 31.1285 51.4481 30.6584 51.2265C32.1152 51.1058 35.0796 50.2695 36.2278 49.4591Z" fill="#D9DBE9"/>
<path d="M36.3169 49.4543C36.9679 48.4938 39.2774 49.2713 39.6101 50.2563L39.545 50.5561L37.6996 51.1237L37.4922 51.0766C37.2242 50.7843 37.0318 50.6137 36.8669 50.2516C37.1242 50.1677 37.3605 50.1366 37.4994 49.9242C37.2816 49.6966 36.6677 49.5643 36.3169 49.4543Z" fill="var(--fill-0, #551C05)"/>
<path d="M19.0271 42.8872C19.3589 43.0214 19.4591 43.071 19.7594 43.265C19.889 44.5026 22.9967 46.9027 23.4219 47.7332C22.6394 47.3831 21.2764 46.5752 20.4811 46.1359C20.0044 45.1942 19.518 43.9187 19.0271 42.8872Z" fill="#D9DBE9"/>
<path d="M17.6987 40.2131C18.4159 40.4875 20.5906 41.9261 20.9101 42.6023C19.1723 41.8861 18.5859 41.8782 17.6987 40.2131Z" fill="#E8A74B"/>
<path d="M65.4456 9.13422C66.2813 9.81591 67.1912 10.3926 67.9911 11.08C68.5924 11.6343 69.4195 12.3906 69.8477 13.0721C71.23 14.916 71.0983 15.706 71.9292 17.6675C72.0609 17.9805 73.5157 19.5735 73.9749 20.2568C73.7425 20.422 73.5995 20.5069 73.351 20.6465C72.953 20.5862 72.6566 20.1275 72.3517 19.7814L72.2821 19.9038C73.9674 22.1526 73.9382 22.9569 74.2572 25.6347C74.1509 27.7864 74.07 28.1562 74.7127 30.2005C73.9843 31.4275 73.5901 30.2563 72.4703 31.6942C72.8382 31.9795 73.0669 32.008 73.3642 32.3149C73.1403 32.7225 72.9332 33.0623 72.6858 33.4557L72.0619 34.5987L72.698 35.182L72.49 35.5863C72.1004 35.6416 72.0779 35.489 71.7843 35.5746L71.6365 35.6199C71.0917 35.6857 71.022 35.7222 70.5628 35.4302C70.0632 36.0646 69.5767 36.709 69.1033 37.3633C68.4173 38.2962 66.5927 41.3636 65.966 41.8391C65.1041 42.1626 64.1499 42.5409 63.2832 42.8249L61.9056 43.3162C62.218 42.5628 63.6398 41.9681 64.3541 41.2911C65.87 39.8551 68.2555 37.971 69.2304 36.1607C69.5974 35.1061 69.3678 33.8884 69.524 32.7762C69.6491 31.882 70.5393 30.7475 70.0312 29.9915C73.0104 28.8328 72.538 25.0495 71.1284 22.7988C70.6626 22.1445 70.1799 21.83 69.4741 21.4968L69.3574 21.4287C69.395 21.3583 69.4364 21.2914 69.444 21.2082C69.7517 18.7589 68.374 17.3491 67.338 15.4396C66.3358 13.5906 64.9111 12.2213 63.8666 10.5436L63.8026 10.4397C63.9767 10.2866 64.1423 10.301 64.3823 10.2721L64.4933 10.2593L64.6495 10.0611L64.7069 10.0396L64.7549 9.90312C65.0448 9.66184 65.2207 9.43584 65.4456 9.13422Z" fill="#E8A74B"/>
<path d="M69.8477 13.0721C71.23 14.916 71.0983 15.706 71.9292 17.6675C72.0609 17.9805 73.5157 19.5735 73.9749 20.2568C73.7425 20.422 73.5995 20.5069 73.351 20.6465C72.953 20.5862 72.6566 20.1275 72.3517 19.7814L72.2821 19.9038C70.0105 17.823 70.7605 16.5382 68.9735 13.7388C69.4477 13.6487 69.4346 13.8184 69.7668 13.5887L69.8477 13.0721Z" fill="#5C1C08"/>
<path d="M65.4456 9.13422C66.2813 9.81591 67.1912 10.3926 67.9911 11.08C67.2496 11.433 67.561 11.5517 67.1583 11.9114C66.5466 11.462 65.1972 10.5171 64.7069 10.0396L64.7549 9.90312C65.0448 9.66184 65.2207 9.43584 65.4456 9.13422Z" fill="var(--fill-0, #551C05)"/>
<path d="M67.9911 11.08C68.5924 11.6343 69.4195 12.3906 69.8477 13.0721L69.7668 13.5887C69.4346 13.8184 69.4477 13.6487 68.9735 13.7388C68.5058 13.1923 67.6965 12.4086 67.1583 11.9114C67.561 11.5517 67.2496 11.433 67.9911 11.08Z" fill="#66260A"/>
<path d="M71.2385 33.7858C71.9574 33.605 71.8765 33.2485 72.442 33.2266L72.6858 33.4557L72.0619 34.5987L72.698 35.182L72.49 35.5863C72.1004 35.6416 72.0779 35.489 71.7843 35.5746L71.6365 35.6199C71.0917 35.6857 71.022 35.7222 70.5628 35.4302C71.1246 34.685 70.8367 34.4565 71.2385 33.7858Z" fill="var(--fill-0, #551C05)"/>
<path d="M72.4703 31.6942C72.8382 31.9795 73.0669 32.008 73.3642 32.3149C73.1403 32.7225 72.9332 33.0623 72.6858 33.4557L72.442 33.2266C71.8765 33.2485 71.9574 33.605 71.2385 33.7858C71.4794 33.2354 72.1334 32.2396 72.4703 31.6942Z" fill="#743211"/>
<path d="M42.2583 0.0927562C43.2557 -0.0709243 45.4163 0.00478865 46.4232 0.144143C47.7679 0.369958 48.7823 0.638769 50.0451 1.09973C50.7913 1.37222 52.2518 2.06626 52.8982 2.18544C56.9258 2.9269 60.8686 3.36835 63.67 6.8063C64.243 7.51052 64.8396 8.3822 65.4456 9.13422C65.2207 9.43584 65.0448 9.66184 64.7549 9.90312L64.7069 10.0396L64.6495 10.0611L64.4933 10.2593L64.3823 10.2721C64.1423 10.301 63.9767 10.2866 63.8026 10.4397C62.8212 8.92368 62.2199 7.85683 60.8102 6.66543C60.1628 6.11839 59.905 5.97177 59.8786 5.23955C57.1365 3.66921 53.9729 4.04494 51.1207 2.78368C49.5539 2.09077 47.9175 1.51912 46.2143 1.29896C44.7886 1.11218 44.0518 1.12698 42.6328 1.20458C41.3832 1.39409 39.4971 1.83865 38.4703 2.54297C37.1345 3.06654 36.5457 2.98545 35.3307 3.27255C33.997 3.50016 31.6533 4.06512 30.5207 4.742C28.7698 5.78848 28.5734 6.1265 26.6321 6.79206C24.8186 7.82006 24.7752 8.29508 23.3807 9.51014C21.1998 11.4105 18.607 13.6865 17.6869 16.5458C17.5109 17.0925 17.4003 17.7615 17.2158 18.3353C16.6947 18.0203 16.6179 17.9584 16.0134 17.995C16.3716 17.084 16.576 15.573 17.0782 14.7358C18.5639 12.2596 20.7104 10.2052 22.8891 8.34759C23.6737 7.67863 24.2036 6.96451 25.1045 6.2782C25.9388 5.73285 26.7952 5.445 27.6819 5.02015C28.4206 4.6134 29.1476 4.14432 29.8656 3.70052C32.1274 2.30273 34.8849 2.37259 37.2666 1.68525C39.213 1.12359 39.9449 0.378254 42.2583 0.0927562Z" fill="#5F2209"/>
<path d="M59.8786 5.23955C61.4802 6.15686 62.4664 7.11933 63.5617 8.60933C63.8657 9.02381 64.3277 9.70521 64.6495 10.0611L64.4933 10.2593L64.3823 10.2721C64.1423 10.301 63.9767 10.2866 63.8026 10.4397C62.8212 8.92368 62.2199 7.85683 60.8102 6.66543C60.1628 6.11839 59.905 5.97177 59.8786 5.23955Z" fill="#E8A74B"/>
<path d="M42.2583 0.0927562C43.2557 -0.0709243 45.4163 0.00478865 46.4232 0.144143C46.4288 0.359116 46.4476 0.451328 46.3667 0.653949C45.6487 1.17497 45.0578 0.69383 44.4263 0.430112C44.2579 0.359775 43.267 0.734752 43.0261 0.796509C42.6328 0.897395 42.597 0.974331 42.2197 0.777179C42.0652 0.431903 42.104 0.560981 42.2583 0.0927562Z" fill="#66260A"/>
<path d="M42.6328 1.20458C44.0518 1.12698 44.7886 1.11218 46.2143 1.29896L46.1427 1.48932C45.2798 1.72994 44.447 1.73531 43.6133 1.99913C41.6225 2.49036 40.4832 3.07172 38.5974 3.68411C37.1952 4.13942 34.9329 4.20712 33.4278 4.68873C31.7011 5.24134 30.9007 5.9812 29.416 6.91228C28.7108 7.35457 27.3808 7.64912 26.6809 8.0621C24.1721 9.5421 22.1198 11.593 20.6131 14.0719C19.3371 16.1712 19.0268 17.6271 18.1701 19.8231C17.8631 20.6099 16.9821 21.669 16.5575 22.7338C15.6126 23.9731 15.0564 25.2874 16.1283 26.6994C15.4195 28.2905 14.6793 30.5933 14.6638 32.3217L14.6365 32.4164C14.4592 33.0513 14.625 33.0422 14.1968 33.7136C13.8571 33.0206 13.3501 32.1842 12.9601 31.5C13.187 29.8925 13.5339 28.9266 13.9581 27.379C14.0817 26.9281 13.9699 25.5984 13.9988 25.0793C14.0976 23.2995 14.9949 21.7322 15.8793 20.2505C15.1788 20.0768 15.2607 20.6634 14.6496 19.9431C15.1143 19.2967 15.5775 18.6618 16.0134 17.995C16.6179 17.9584 16.6947 18.0203 17.2158 18.3353C17.4003 17.7615 17.5109 17.0925 17.6869 16.5458C18.607 13.6865 21.1998 11.4105 23.3807 9.51014C24.7752 8.29508 24.8186 7.82006 26.6321 6.79206C28.5734 6.1265 28.7698 5.78848 30.5207 4.742C31.6533 4.06512 33.997 3.50016 35.3307 3.27255C36.5457 2.98545 37.1345 3.06654 38.4703 2.54297C39.4971 1.83865 41.3832 1.39409 42.6328 1.20458Z" fill="#FCD593"/>
<path d="M14.6496 19.9431C15.1143 19.2967 15.5775 18.6618 16.0134 17.995C16.6179 17.9584 16.6947 18.0203 17.2158 18.3353C16.8319 19.0148 16.3844 19.6561 15.8793 20.2505C15.1788 20.0768 15.2607 20.6634 14.6496 19.9431Z" fill="#66260A"/>
<path d="M35.3307 3.27255C36.5457 2.98545 37.1345 3.06654 38.4703 2.54297C37.8095 3.37636 37.3227 3.50176 36.2391 3.53438C35.7632 3.54862 35.6959 3.57399 35.3307 3.27255Z" fill="#F9D795"/>
<path d="M70.0312 29.9915C67.8311 30.2351 65.7665 29.7317 64.4914 27.7738C63.8327 26.756 63.6144 25.5144 63.8854 24.3324C64.531 21.5251 66.7781 20.7523 69.3574 21.4287L69.4741 21.4968C70.1799 21.83 70.6626 22.1445 71.1284 22.7988C72.538 25.0495 73.0104 28.8328 70.0312 29.9915Z" fill="#974F1E"/>
<path d="M69.4741 21.4968C70.1799 21.83 70.6626 22.1445 71.1284 22.7988L70.2645 23.0869C69.9427 22.6227 69.4816 22.0587 69.4741 21.4968Z" fill="#743211"/>
<path d="M23.7556 43.8403C24.337 41.7129 25.8756 40.374 28.1542 41.0157C29.1473 41.3045 29.9855 41.9764 30.4847 42.8838C30.998 43.8179 31.0247 44.6723 30.9081 45.7127L30.6752 46.4274C29.9704 46.109 29.2234 45.9649 28.4108 45.5604C26.9169 45.0803 25.2384 44.4013 23.7556 43.8403Z" fill="#9A5221"/>
<path d="M30.9081 45.7127C30.9514 45.8152 30.9785 45.8318 31.0491 45.9216C32.2768 46.2743 36.2863 47.5856 37.2077 47.6427C42.3928 47.964 48.1405 46.3407 53.1354 45.043C54.5365 44.679 56.1127 44.4083 57.4123 43.9956C57.3144 44.2477 57.2109 44.5367 57.1017 44.7799C51.2618 46.2389 45.3937 47.5638 39.6765 49.4275C36.8446 48.3504 33.6176 47.5248 30.6752 46.4274L30.9081 45.7127Z" fill="#E8A74B"/>
<path d="M16.5575 22.7338C20.4895 19.7526 20.6423 29.3946 16.1283 26.6994C15.0564 25.2874 15.6126 23.9731 16.5575 22.7338Z" fill="#995423"/>
<path d="M57.4123 43.9956C57.5854 43.5722 57.8536 43.1946 58.1971 42.8926C59.4542 41.7748 60.8874 42.108 61.9056 43.3162C61.4878 43.4436 60.8808 43.6512 60.4658 43.7008L60.4978 43.7668C60.8827 43.9363 60.91 44.2184 61.0916 44.6878L61.1264 44.7778L59.1804 45.3772C58.9677 44.663 58.9743 44.9002 58.389 44.3836L57.943 44.5018L57.1017 44.7799C57.2109 44.5367 57.3144 44.2477 57.4123 43.9956Z" fill="#9A5221"/>
<path d="M60.4978 43.7668C60.8827 43.9363 60.91 44.2184 61.0916 44.6878L61.1264 44.7778L59.1804 45.3772C58.9677 44.663 58.9743 44.9002 58.389 44.3836C59.0835 44.1456 59.7902 43.9608 60.4978 43.7668Z" fill="var(--fill-0, #551C05)"/>
<path d="M57.943 44.5018C58.3486 43.72 59.6961 43.3331 60.4658 43.7008L60.4978 43.7668C59.7902 43.9608 59.0835 44.1456 58.389 44.3836L57.943 44.5018Z" fill="#8D4819"/>
<path d="M15.6384 36.7442C16.0774 36.1011 15.3972 35.2123 16.2052 34.5522C17.7103 34.6251 17.4407 37.3771 17.5934 38.4652C17.6065 38.5585 17.5621 38.6538 17.5132 38.7318L17.4156 38.7159C17.182 38.6796 17.0564 38.6285 16.8528 38.7321C16.7694 38.6388 16.1548 37.5523 16.0501 37.3711L15.6384 36.7442Z" fill="#E8A74B"/>
<path d="M14.6638 32.3217C14.6824 33.2629 14.7013 33.7477 15.0262 34.6387C15.1956 35.0503 15.572 35.8151 15.5294 36.2175L15.4004 36.3353L14.7597 35.3447L14.5157 34.9544C14.4411 34.4274 14.3637 34.2159 14.1968 33.7136C14.625 33.0422 14.4592 33.0513 14.6365 32.4164L14.6638 32.3217Z" fill="#F9D795"/>
<path d="M26.9862 16.2352C23.4164 13.6943 27.6999 6.68146 32.4387 10.3584C32.7162 10.2774 32.951 10.2244 33.2242 10.379C36.6687 12.3278 34.4973 16.1744 31.4771 16.9417C30.8396 17.1036 29.9681 17.1518 29.374 16.7885C28.321 16.8851 27.8937 16.7951 26.9862 16.2352Z" fill="#8D4819"/>
<path d="M26.9862 16.2352C23.4164 13.6943 27.6999 6.68146 32.4387 10.3584L32.4439 10.4401C32.0715 11.0746 31.9491 10.8961 31.5684 11.2798C32.0448 11.2738 31.8929 11.0997 32.1774 11.3171C31.8436 11.5535 30.6753 11.4461 30.3704 11.667C30.2642 11.744 29.8141 12.7439 29.6717 12.9499C29.3103 13.473 27.0595 15.8089 26.9862 16.2352Z" fill="#9A5221"/>
<path d="M32.4387 10.3584C32.7162 10.2774 32.951 10.2244 33.2242 10.379C36.6687 12.3278 34.4973 16.1744 31.4771 16.9417C30.8396 17.1036 29.9681 17.1518 29.374 16.7885C32.4842 16.1437 34.4027 13.312 32.4439 10.4401L32.4387 10.3584Z" fill="#E8A74B"/>
<path d="M46.9097 25.4586C49.5784 22.7841 53.1231 24.9489 53.0902 28.4326C53.0704 30.5314 51.6815 32.7341 49.4005 32.688C48.4746 32.6755 47.5938 32.2911 46.9539 31.621C45.6948 30.2863 45.5753 28.3493 46.1371 26.6782C46.4232 26.1113 46.5078 25.9405 46.9097 25.4586Z" fill="#5F2209"/>
<path d="M47.8488 26.03C48.5696 25.7145 49.3497 25.7164 49.6932 26.5464C49.8738 26.9953 49.8578 27.4997 49.6489 27.9363C49.1041 29.0569 47.3679 28.8547 47.3068 27.1532L47.3388 26.801L47.5232 26.4459L47.8488 26.03Z" fill="#FDFDFD"/>
<path d="M47.5232 26.4459C47.9297 26.5074 47.9457 26.4414 48.2045 26.6658C47.958 27.0723 47.6587 26.9996 47.3068 27.1532L47.3388 26.801L47.5232 26.4459Z" fill="#EDECF0"/>
<path d="M46.1371 26.6782C46.4232 26.1113 46.5078 25.9405 46.9097 25.4586C47.398 25.6149 47.5543 25.6078 47.8488 26.03L47.5232 26.4459L47.3388 26.801C46.8824 26.7991 46.5794 26.82 46.1371 26.6782Z" fill="#743211"/>
<path d="M50.4591 29.4133C50.9005 29.3557 51.3061 29.668 51.3635 30.1109C51.4199 30.5537 51.1085 30.9593 50.6662 31.0166C50.2248 31.0738 49.8202 30.7615 49.7628 30.3189C49.7054 29.8762 50.0169 29.4708 50.4591 29.4133Z" fill="#FDFDFD"/>
<path d="M29.3116 23.6338C34.2976 23.1661 35.1307 30.4835 30.6184 31.993C25.5449 32.4776 24.8015 25.0228 29.3116 23.6338Z" fill="#5F2209"/>
<path d="M28.9732 25.0334C30.8228 25.3627 30.8751 27.1652 29.2721 27.919C27.4806 27.7011 27.3227 25.8111 28.9732 25.0334Z" fill="#FDFDFD"/>
<path d="M30.7766 28.7691C31.194 28.6392 31.6381 28.8694 31.7734 29.2859C31.9086 29.7022 31.6848 30.1503 31.2711 30.2913C30.9984 30.3843 30.6969 30.323 30.482 30.131C30.2671 29.939 30.172 29.646 30.2329 29.3639C30.2939 29.082 30.5017 28.8547 30.7766 28.7691Z" fill="#FDFDFD"/>
<path d="M48.0144 4.61236C49.0862 4.61066 50.0865 4.87805 50.9136 5.58727C51.6401 6.20268 52.0861 7.08737 52.1492 8.03834C52.2245 8.99298 51.9055 9.93669 51.2665 10.6487C50.381 11.6435 49.4127 11.9033 48.1471 11.9778C42.8727 11.7547 42.2554 5.0473 48.0144 4.61236Z" fill="#9A5221"/>
<path d="M60.7001 18.8758C59.3451 19.1982 58.1716 18.4997 57.208 17.6334C53.955 14.7107 59.0694 11.7876 61.3043 14.2294C62.0994 15.0983 62.2311 16.2552 62.1897 17.3954C61.9056 18.0777 61.6656 18.4924 60.9335 18.786C60.8563 18.8174 60.7792 18.8473 60.7001 18.8758Z" fill="#9A5221"/>
<path d="M60.7001 18.8758C60.8328 18.2752 61.3212 17.1597 62.027 17.1586L62.1897 17.3954C61.9056 18.0777 61.6656 18.4924 60.9335 18.786C60.8563 18.8174 60.7792 18.8473 60.7001 18.8758Z" fill="#743211"/>
<path d="M53.2323 32.8683C54.5949 32.7913 55.9998 33.3179 56.3508 34.7847C56.4712 35.2876 56.3809 35.8178 56.1014 36.2523C55.6563 36.9587 55.0485 37.2176 54.2975 37.4049C52.9594 37.4529 51.3428 36.9328 51.0002 35.4589C50.8817 34.958 50.9711 34.4302 51.2477 33.9967C51.6994 33.2955 52.4635 33.025 53.2323 32.8683Z" fill="#E8A74B"/>
<path d="M25.5887 31.7549C28.7322 31.4086 30.3289 35.2538 26.6174 36.2718C25.0645 36.2876 24.3238 35.8941 23.4385 34.6276L23.3537 33.4894C23.8726 32.3582 24.4202 32.0179 25.5887 31.7549Z" fill="#E8A74B"/>
<path d="M35.4771 30.2463C36.6114 30.6857 36.1247 33.2888 39.3136 30.6466C40.0635 31.3046 41.9011 32.8771 42.8144 31.1506C42.997 30.8056 42.9264 30.696 43.315 30.5177L43.507 30.617C43.7215 30.95 43.7093 31.0279 43.714 31.4297C42.7476 33.564 40.8086 33.0858 39.2842 31.9694C38.0724 32.6899 36.9574 32.9075 35.6963 32.1115C35.0411 31.698 35.0262 30.822 35.4771 30.2463Z" fill="#66260A"/>
<path d="M48.2628 42.8691C50.6605 42.8858 50.7828 45.5319 48.0953 45.9599C45.4379 45.7776 45.7654 43.3384 48.2628 42.8691Z" fill="#9A5221"/>
<path d="M49.0448 21.151C49.6028 20.9451 49.9247 20.9105 50.2484 21.4846C50.2756 21.9617 50.19 22.0664 49.8249 22.3729C48.883 22.7725 47.9382 23.1675 46.9915 23.5576C46.4495 23.6721 46.2698 23.7266 45.8802 23.3204C45.6835 22.6001 46.2171 22.3585 46.7478 22.1105C47.5251 21.8201 48.2911 21.5 49.0448 21.151Z" fill="#66260A"/>
<path d="M46.9915 23.5576C46.4495 23.6721 46.2698 23.7266 45.8802 23.3204C45.6835 22.6001 46.2171 22.3585 46.7478 22.1105C46.9661 22.526 46.9577 23.0709 46.9915 23.5576Z" fill="var(--fill-0, #551C05)"/>
<path d="M49.0448 21.151C49.6028 20.9451 49.9247 20.9105 50.2484 21.4846C50.2756 21.9617 50.19 22.0664 49.8249 22.3729C49.4532 22.1215 49.2942 21.6067 49.0448 21.151Z" fill="var(--fill-0, #551C05)"/>
<path d="M30.0743 20.4704C30.9316 20.5387 33.5994 21.7638 33.8488 22.6242C33.7741 23.0366 33.8044 22.9028 33.5126 23.2631C32.5962 23.2451 30.0569 22.0675 29.7687 21.1215C29.7822 20.792 29.8579 20.7463 30.0743 20.4704Z" fill="#5F2209"/>
<path d="M64.275 31.9229C64.7869 31.8923 64.9488 31.8359 65.3186 32.1488C65.599 32.9656 64.6185 33.9038 64.0134 34.3605C62.2867 34.5779 62.5502 32.5963 64.275 31.9229Z" fill="#B86E34"/>
<path d="M36.6389 4.84873C38.0689 4.93585 38.2444 6.16826 36.6496 6.83034C36.5801 6.82789 36.5107 6.82402 36.4413 6.81865C36.0102 6.78385 35.8248 6.709 35.5558 6.38927C35.2425 5.53683 35.9493 5.10207 36.6389 4.84873Z" fill="#9A5221"/>
<path d="M18.7765 29.8603C19.1447 29.7943 19.5192 29.936 19.7519 30.2292C19.9846 30.5225 20.038 30.92 19.8908 31.2645C19.7437 31.609 19.4198 31.8448 19.0475 31.8786C18.5051 31.9278 18.0202 31.5402 17.9475 30.9993C17.875 30.4585 18.2404 29.9563 18.7765 29.8603Z" fill="#E8A74B"/>
<path d="M66.3659 35.201C66.8355 35.1703 66.924 35.162 67.2138 35.5433C67.3333 36.2395 66.8543 36.5946 66.3377 36.9101C66.0074 36.8925 65.8239 36.8201 65.6113 36.5715C65.4108 35.9225 65.903 35.535 66.3659 35.201Z" fill="#E8A74B"/>
<path d="M59.8655 75.4156C60.2089 75.1846 60.9147 74.6971 61.1499 74.3917C61.006 75.4778 60.7971 76.4678 60.5769 77.5418C60.2616 77.0967 60.0508 76.9826 59.6048 76.712C59.6726 76.3038 59.7817 75.8267 59.8655 75.4156Z" fill="var(--fill-0, #551C05)"/>
</g>
</svg>
