<svg preserveAspectRatio="none" width="100%" height="100%" overflow="visible" style="display: block;" viewBox="0 0 15.2754 15.2754" fill="none" xmlns="http://www.w3.org/2000/svg">
<g id="Group">
<path id="Vector" d="M0.898551 7.63768C0.898551 8.52268 1.07286 9.39901 1.41154 10.2166C1.75021 11.0343 2.24661 11.7772 2.8724 12.403C3.49818 13.0288 4.2411 13.5252 5.05873 13.8638C5.87636 14.2025 6.75269 14.3768 7.63768 14.3768C8.52268 14.3768 9.39901 14.2025 10.2166 13.8638C11.0343 13.5252 11.7772 13.0288 12.403 12.403C13.0288 11.7772 13.5252 11.0343 13.8638 10.2166C14.2025 9.39901 14.3768 8.52268 14.3768 7.63768C14.3768 5.85035 13.6668 4.13623 12.403 2.8724C11.1391 1.60856 9.42501 0.898551 7.63768 0.898551C5.85035 0.898551 4.13623 1.60856 2.8724 2.8724C1.60856 4.13623 0.898551 5.85035 0.898551 7.63768Z" stroke="var(--stroke-0, #EF9F27)" stroke-width="1.7971" stroke-linecap="round" stroke-linejoin="round"/>
<path id="Vector_2" d="M7.63683 3.89367V7.63763L9.88321 9.88401" stroke="var(--stroke-0, #EF9F27)" stroke-width="1.7971" stroke-linecap="round" stroke-linejoin="round"/>
</g>
</svg>
