<svg width="19" height="19" viewBox="0 0 19 19" fill="none" xmlns="http://www.w3.org/2000/svg">
<path d="M8.35687 0.0930365C9.39791 -0.137384 10.9448 0.0912574 11.9537 0.439381C12.2885 0.554892 12.5973 0.721973 12.9235 0.844661C13.3998 1.02384 14.081 1.20811 14.5047 1.4863C15.2805 1.83225 15.881 2.58667 16.3196 3.29706C16.5359 3.64742 16.8316 3.94832 17.0768 4.27702C17.4881 4.87329 18.055 5.8012 18.2001 6.51948C18.2729 6.83709 18.4419 6.98719 18.5378 7.27417C18.6902 7.72973 18.7548 8.24119 18.8462 8.71554C18.9684 9.43502 19.0408 10.0986 18.9753 10.8335C18.9425 11.2038 18.7982 11.5708 18.7003 11.9267C18.2672 13.9741 17.0979 15.7977 15.442 17.0292C15.2884 17.1434 15.1271 17.2729 14.9633 17.3742C13.9346 17.8865 12.9399 18.5554 11.7548 18.5701C11.2822 18.5761 10.9609 18.7434 10.5202 18.8491C9.62404 19.0639 8.68983 19.0492 7.80062 18.8063C7.19372 18.6421 6.81817 18.412 6.2318 18.2641L5.91949 18.2153C5.57168 18.1603 5.13253 17.9554 4.81325 17.7934C4.20459 17.4846 3.94173 17.2446 3.59866 16.6481C3.35931 16.6371 3.1296 16.5968 2.92518 16.4472C2.37825 16.0467 1.83039 15.4139 1.52941 14.7974C1.44349 14.6214 1.3757 14.2986 1.28911 14.1542C1.05739 13.7676 0.922972 13.614 0.762998 13.1821C0.590478 12.7163 0.558454 12.3262 0.431597 11.8867C0.325941 11.5206 0.206198 11.3365 0.116128 10.9048C-0.0552577 10.0835 -0.0225858 9.51295 0.120688 8.68611C0.139801 8.57579 0.281575 8.31511 0.284514 8.25944C0.295823 8.04671 0.260476 7.8311 0.305572 7.60496C0.345743 7.40341 0.409668 7.20615 0.461493 7.00972C0.710139 6.06745 1.12875 5.21329 1.65124 4.40107C2.11385 3.68193 2.68316 3.05733 3.34681 2.52904C3.62061 2.31105 3.86273 2.06964 4.17483 1.88312C4.46584 1.70917 4.76856 1.57289 5.06464 1.41015C5.16095 1.36258 5.28446 1.2275 5.37386 1.18896C5.82612 0.993931 6.28981 0.682504 6.74269 0.515258C7.2518 0.327264 7.82828 0.20712 8.35687 0.0930365Z" fill="#F9C356"/>
<path d="M3.59866 16.6481C3.35931 16.6371 3.1296 16.5968 2.92518 16.4472C2.37825 16.0467 1.83039 15.4139 1.52941 14.7974C1.44349 14.6214 1.3757 14.2986 1.28911 14.1542C1.05739 13.7676 0.922972 13.614 0.762998 13.1821C0.590478 12.7163 0.558454 12.3262 0.431597 11.8867C0.325941 11.5206 0.206198 11.3365 0.116128 10.9048C-0.0552577 10.0835 -0.0225858 9.51295 0.120688 8.68611C0.139801 8.57579 0.281575 8.31511 0.284514 8.25944C0.295823 8.04671 0.260476 7.8311 0.305572 7.60496C0.345743 7.40341 0.409668 7.20615 0.461493 7.00972C0.710139 6.06745 1.12875 5.21329 1.65124 4.40107C2.11385 3.68193 2.68316 3.05733 3.34681 2.52904C3.62061 2.31105 3.86273 2.06964 4.17483 1.88312C4.46584 1.70917 4.76856 1.57289 5.06464 1.41015C5.16095 1.36258 5.28446 1.2275 5.37386 1.18896C5.82612 0.993931 6.28981 0.682504 6.74269 0.515258C7.2518 0.327264 7.82828 0.20712 8.35687 0.0930365C8.37627 0.188171 8.57112 0.390788 8.65578 0.413088C8.31048 0.459135 7.33946 0.667546 7.04165 0.822236L7.19797 0.813589C6.99138 0.888514 6.63311 1.00138 6.4735 1.14279L6.47088 1.20894C6.44151 1.22112 6.42483 1.22791 6.39617 1.24222L6.43821 1.26541C6.31032 1.34001 5.77057 1.59802 5.70903 1.66575C5.7154 1.58789 5.68155 1.57725 5.62713 1.54507L5.62506 1.50733C5.5389 1.56015 5.44379 1.61898 5.35414 1.66461C3.357 2.6811 1.95755 4.11383 1.09728 6.24806C0.798203 6.85648 0.663118 7.71585 0.566237 8.38258C0.557502 8.44263 0.492584 8.41694 0.479693 8.46812C0.431922 8.58311 0.406789 8.89557 0.420308 9.01396C0.351559 9.73915 0.313516 10.3837 0.493252 11.1088C0.538064 11.2896 0.695952 11.5974 0.728015 11.7586C0.819606 12.2678 0.946543 12.7204 1.13578 13.1987C1.24744 13.4808 1.55476 13.8458 1.62663 14.0545C1.95177 14.9989 2.47746 15.7775 3.35498 16.2655C3.41375 16.2983 3.62304 16.3053 3.69647 16.3211C3.82771 16.4475 3.94364 16.6935 4.07832 16.8271C4.33321 17.08 4.59845 17.239 4.90016 17.4078C5.06135 17.6532 5.81927 17.8521 6.10541 17.8639C6.44279 17.8642 6.61636 17.9927 6.89977 18.1199C7.70737 18.4824 8.6559 18.7248 9.54281 18.6425C9.62503 18.6348 9.71504 18.6334 9.79895 18.6292C10.2191 18.5798 10.5533 18.4592 10.9592 18.3988C11.156 18.3496 11.3205 18.2981 11.5242 18.2621C12.0233 18.1742 12.4673 18.162 12.9506 17.9938C13.3282 17.8625 13.6536 17.5994 13.9699 17.4637C14.5184 17.2282 14.6516 17.207 15.1378 16.8128C15.4362 16.5552 15.8306 16.2995 16.0864 16.0284C16.5677 15.5183 17.0943 14.9066 17.4208 14.2773C17.8308 13.7571 18.0584 12.6974 18.2844 12.0695C18.4512 11.6062 18.5442 11.2452 18.5933 10.7519C18.6466 10.216 18.5836 9.71077 18.5811 9.18133C18.5919 9.00314 18.6365 8.87241 18.8203 8.7974L18.8462 8.71554C18.9684 9.43502 19.0408 10.0986 18.9753 10.8335C18.9425 11.2038 18.7982 11.5708 18.7003 11.9267C18.2672 13.9741 17.0979 15.7977 15.442 17.0292C15.2884 17.1434 15.1271 17.2729 14.9633 17.3742C13.9346 17.8865 12.9399 18.5554 11.7548 18.5701C11.2822 18.5761 10.9609 18.7434 10.5202 18.8491C9.62404 19.0639 8.68983 19.0492 7.80062 18.8063C7.19372 18.6421 6.81817 18.412 6.2318 18.2641L5.91949 18.2153C5.57168 18.1603 5.13253 17.9554 4.81325 17.7934C4.20459 17.4846 3.94173 17.2446 3.59866 16.6481Z" fill="#5E1302"/>
<path d="M6.10541 17.8639C6.44279 17.8642 6.61636 17.9927 6.89977 18.1199C7.70737 18.4824 8.6559 18.7248 9.54281 18.6425C9.62503 18.6348 9.71504 18.6334 9.79895 18.6292C8.84152 18.9342 7.35507 18.5138 6.50045 18.0245C6.39494 17.9642 6.22114 17.911 6.10541 17.8639Z" fill="#631003"/>
<path d="M15.1378 16.8128C14.987 17.1233 14.2675 17.3761 13.9792 17.5189C13.6002 17.7067 13.2543 17.9425 12.8487 18.0835C12.6385 18.1566 12.348 18.1543 12.18 18.2197L12.1821 18.2344C12.2184 18.2358 12.2842 18.2356 12.3165 18.2449C12.2186 18.2743 12.1642 18.26 12.0727 18.2821C12.0292 18.2927 11.8846 18.3922 11.8393 18.3972C11.5625 18.4282 11.232 18.4305 10.9592 18.3988C11.156 18.3496 11.3205 18.2981 11.5242 18.2621C12.0233 18.1742 12.4673 18.162 12.9506 17.9938C13.3282 17.8625 13.6536 17.5994 13.9699 17.4637C14.5184 17.2282 14.6516 17.207 15.1378 16.8128Z" fill="#631003"/>
<path d="M5.62506 1.50733C5.87065 1.33345 6.74115 0.900594 7.04165 0.822236L7.19797 0.813589C6.99138 0.888514 6.63311 1.00138 6.4735 1.14279L6.47088 1.20894C6.44151 1.22112 6.42483 1.22791 6.39617 1.24222L6.43821 1.26541C6.31032 1.34001 5.77057 1.59802 5.70903 1.66575C5.7154 1.58789 5.68155 1.57725 5.62713 1.54507L5.62506 1.50733Z" fill="#F4BD70"/>
<path d="M5.91949 18.2153C5.86226 18.1524 5.86041 18.1698 5.8486 18.0993C5.93204 18.0348 6.28983 18.0833 6.34285 18.2122C6.31784 18.2592 6.28691 18.2654 6.2318 18.2641L5.91949 18.2153Z" fill="#631003"/>
<path d="M0.420308 9.01396C0.406789 8.89557 0.431922 8.58311 0.479693 8.46812C0.492584 8.41694 0.557502 8.44263 0.566237 8.38258C0.663118 7.71585 0.798203 6.85648 1.09728 6.24806C1.08216 6.34897 1.06673 6.42989 1.07008 6.53233L1.03722 6.60849C1.12922 6.64221 1.19874 6.60082 1.29416 6.56559C1.55677 6.51869 1.94119 6.61461 2.13325 6.80499C2.36027 6.98479 2.55726 7.18871 2.68119 7.45982C2.68904 7.51059 2.69964 7.5707 2.70339 7.62177C2.75489 8.32313 2.14426 9.20805 1.48883 9.38815C1.1551 9.29851 0.893748 9.22624 0.704507 8.86763C0.655398 8.77454 0.661924 8.67554 0.588068 8.58357L0.567131 8.58181C0.531804 8.75462 0.466093 8.79343 0.420308 9.01396Z" fill="#984819"/>
<path d="M1.29416 6.56559C1.55677 6.51869 1.94119 6.61461 2.13325 6.80499C1.86701 6.73424 1.59092 6.60932 1.31783 6.63209C1.19624 6.64223 1.11027 6.72905 1.01941 6.71786C1.00258 6.66542 1.01163 6.67533 1.03722 6.60849C1.12922 6.64221 1.19874 6.60082 1.29416 6.56559Z" fill="#F4BD70"/>
<path d="M14.2879 1.76231L14.3159 1.74659C14.2437 1.64128 13.3427 1.31744 13.1611 1.24036C13.2051 1.18376 13.209 1.15141 13.2372 1.08803C13.2455 1.06952 13.287 1.01726 13.2923 1.01863C13.6994 1.12133 14.085 1.32221 14.4643 1.50016C14.4778 1.49554 14.4913 1.49093 14.5047 1.4863C15.2805 1.83225 15.881 2.58667 16.3196 3.29706C16.5359 3.64742 16.8316 3.94832 17.0768 4.27702C17.4881 4.87329 18.055 5.8012 18.2001 6.51948C18.1835 6.64298 18.2112 6.67154 18.1383 6.75929C18.073 6.74109 17.9322 6.54008 17.8416 6.47594C17.6644 6.10727 17.6504 6.16645 17.3705 5.9195C17.3263 5.75551 17.3276 5.36733 17.2662 5.23616C17.03 4.70824 16.5393 4.27166 16.2222 3.79961C15.6064 2.88349 15.2888 2.30759 14.2879 1.76231Z" fill="#5E1302"/>
<path d="M8.35687 0.0930365C9.39791 -0.137384 10.9448 0.0912574 11.9537 0.439381C12.2885 0.554892 12.5973 0.721973 12.9235 0.844661C13.3998 1.02384 14.081 1.20811 14.5047 1.4863C14.4913 1.49093 14.4778 1.49554 14.4643 1.50016C14.085 1.32221 13.6994 1.12133 13.2923 1.01863C13.287 1.01726 13.2455 1.06952 13.2372 1.08803C13.209 1.15141 13.2051 1.18376 13.1611 1.24036C13.3427 1.31744 14.2437 1.64128 14.3159 1.74659L14.2879 1.76231C13.5938 1.43756 12.8915 1.19723 12.1834 0.908291C11.0205 0.433775 9.90141 0.266528 8.65578 0.413088C8.57112 0.390788 8.37627 0.188171 8.35687 0.0930365Z" fill="#631003"/>
<path d="M4.90016 17.4078C5.22335 17.5566 5.59312 17.7507 5.95965 17.7712C6.20698 17.7851 6.62711 17.5854 6.86025 17.6262C7.06587 17.6622 7.20855 17.9515 7.46545 17.9994C7.35933 18.0012 7.18533 17.8927 7.10032 17.832C6.98313 17.9229 6.88475 17.9425 6.84091 17.9819L6.8489 18.0137C7.29526 18.1636 7.70453 18.3339 8.16447 18.4437C8.78586 18.5922 9.36421 18.605 9.99387 18.4942C10.1333 18.4698 10.3006 18.4749 10.4407 18.4431C10.6255 18.3808 10.7797 18.2995 10.9734 18.2633C12.0297 18.1055 13.0467 18.0144 13.9496 17.3673C14.0885 17.2857 14.3554 17.2468 14.4817 17.161C14.9531 16.8411 15.5144 16.463 15.9487 16.1056C16.2155 15.8859 16.5162 15.4522 16.7576 15.1907C16.9759 14.9542 17.1644 14.5031 17.4084 14.2829C17.4127 14.2811 17.4167 14.2792 17.4208 14.2773C17.0943 14.9066 16.5677 15.5183 16.0864 16.0284C15.8306 16.2995 15.4362 16.5552 15.1378 16.8128C14.6516 17.207 14.5184 17.2282 13.9699 17.4637C13.6536 17.5994 13.3282 17.8625 12.9506 17.9938C12.4673 18.162 12.0233 18.1742 11.5242 18.2621C11.3205 18.2981 11.156 18.3496 10.9592 18.3988C10.5533 18.4592 10.2191 18.5798 9.79895 18.6292C9.71504 18.6334 9.62503 18.6348 9.54281 18.6425C8.6559 18.7248 7.70737 18.4824 6.89977 18.1199C6.61636 17.9927 6.44279 17.8642 6.10541 17.8639C5.81927 17.8521 5.06135 17.6532 4.90016 17.4078Z" fill="#D37F2B"/>
<path d="M2.68119 7.45982C2.9947 7.77216 3.22316 7.94731 3.20842 8.42828C3.17731 9.44462 2.25749 9.61491 1.48883 9.38815C2.14426 9.20805 2.75489 8.32313 2.70339 7.62177C2.69964 7.5707 2.68904 7.51059 2.68119 7.45982Z" fill="#B36D33"/>
<path d="M5.73409 1.82218L5.75395 1.80803C5.77564 1.79243 5.78139 1.78775 5.80002 1.7674C5.87266 1.75778 5.86684 1.7468 5.92355 1.77234C5.91903 1.86928 5.85746 1.92778 5.79596 2.00893C5.59361 2.19723 5.42087 2.29435 5.17498 2.4056C5.06887 2.46547 4.87998 2.53156 4.78642 2.60415C4.12628 3.11641 3.43382 3.61298 2.92104 4.28788C2.78077 4.47252 2.66905 4.57314 2.46281 4.67336C2.6288 4.30846 3.30279 3.50047 3.60865 3.21651C4.01434 2.8399 4.69297 2.51511 5.1614 2.20505C5.34561 2.08311 5.54511 1.93384 5.73409 1.82218Z" fill="#F7F6F2"/>
<path d="M17.8416 6.47594C17.9322 6.54008 18.073 6.74109 18.1383 6.75929C18.2112 6.67154 18.1835 6.64298 18.2001 6.51948C18.2729 6.83709 18.4419 6.98719 18.5378 7.27417C18.6902 7.72973 18.7548 8.24119 18.8462 8.71554L18.8203 8.7974C18.6365 8.87241 18.5919 9.00314 18.5811 9.18133C18.5392 9.02738 18.5104 8.71538 18.466 8.52854C18.3 7.82892 18.133 7.13236 17.8416 6.47594Z" fill="#631003"/>
<path d="M8.57864 0.503386C8.65602 0.504772 8.66948 0.492319 8.72864 0.530547C8.66478 0.669887 7.41161 0.823687 7.17057 0.967744C6.92514 1.05552 6.68388 1.17164 6.43821 1.26541L6.39617 1.24222C6.42483 1.22791 6.44151 1.22112 6.47088 1.20894L6.4735 1.14279C6.63311 1.00138 6.99138 0.888514 7.19797 0.813589C7.40207 0.709249 8.30638 0.543393 8.57864 0.503386Z" fill="#F8E6C8"/>
<path d="M8.57864 0.503386C8.73904 0.468634 9.243 0.408829 9.38064 0.456655C9.40267 0.477961 9.39649 0.465074 9.4001 0.49482C9.30267 0.628452 8.82926 0.613889 8.67339 0.639746C8.39808 0.6854 8.12819 0.752195 7.85672 0.816922C7.72508 0.846606 7.25746 0.978936 7.17057 0.967744C7.41161 0.823687 8.66478 0.669887 8.72864 0.530547C8.66948 0.492319 8.65602 0.504772 8.57864 0.503386Z" fill="#F4BD70"/>
<path d="M5.48211 1.70193L5.49585 1.73015C5.33746 1.90875 5.07047 2.17032 4.80085 2.10824L4.81347 2.07299C4.9712 1.94054 5.29155 1.78637 5.48211 1.70193Z" fill="#FCE2B6"/>
<path d="M5.62713 1.54507C5.68155 1.57725 5.7154 1.58789 5.70903 1.66575C5.82079 1.73176 5.99078 1.69241 6.03377 1.80774C5.99351 1.88866 5.87428 1.95554 5.79596 2.00893C5.85746 1.92778 5.91903 1.86928 5.92355 1.77234C5.86684 1.7468 5.87266 1.75778 5.80002 1.7674C5.78139 1.78775 5.77564 1.79243 5.75395 1.80803L5.73409 1.82218C5.7004 1.8042 5.5492 1.75238 5.49585 1.73015L5.48211 1.70193C5.50102 1.64511 5.57875 1.58826 5.62713 1.54507Z" fill="#FCE2B6"/>
<path d="M10.6729 9.42995C10.9833 9.41504 11.3681 9.43508 11.455 9.79694C11.6803 10.7353 10.9824 11.6459 10.1764 11.9271C9.69718 12.0903 9.17399 12.0521 8.72244 11.8208C8.1032 11.5285 7.72408 10.9977 7.63762 10.3084C7.54078 9.53622 8.47714 9.59569 8.99504 9.55018C9.55324 9.49563 10.1127 9.45554 10.6729 9.42995Z" fill="#5E1302"/>
<path d="M9.5346 10.5658C9.56127 10.5628 9.58802 10.5608 9.61482 10.5596C10.0829 10.5395 10.5561 10.6374 10.9107 10.9665C10.5901 11.4418 10.2852 11.5623 9.76924 11.7048C9.74928 11.7067 9.72929 11.7082 9.70927 11.7093C9.11159 11.7423 8.78985 11.5531 8.36796 11.166C8.71806 10.786 9.02093 10.625 9.5346 10.5658Z" fill="#ED6D49"/>
<path d="M10.3333 1.37828C10.8185 1.36332 11.0041 1.45519 11.3836 1.77232C11.877 2.1847 12.0687 2.88951 11.6152 3.41328C11.374 3.69194 11.0272 3.74107 10.6762 3.76072C10.0445 3.75081 9.28577 3.40043 9.12865 2.70571C8.98558 2.0731 9.78428 1.47564 10.3333 1.37828Z" fill="#A3541D"/>
<path d="M12.6121 6.7383C13.2825 6.63348 13.9088 7.10448 14.0093 7.78908C14.1098 8.47367 13.6463 9.11135 12.9752 9.21172C12.3072 9.31161 11.6859 8.84117 11.5858 8.15974C11.4858 7.47828 11.9447 6.84264 12.6121 6.7383Z" fill="#5E1302"/>
<path d="M12.4269 7.17254C12.889 7.24554 12.9135 7.83002 12.443 7.98434C12.2537 7.96043 12.1168 7.86424 12.0697 7.66826C12.043 7.56082 12.0609 7.44688 12.1192 7.35333C12.1964 7.23081 12.2973 7.19829 12.4269 7.17254Z" fill="#F7F6F2"/>
<path d="M13.2675 8.23476C13.335 8.20268 13.4142 8.21042 13.4746 8.25497C13.5349 8.29953 13.5669 8.37394 13.5582 8.44944C13.5495 8.52495 13.5014 8.58971 13.4326 8.61874C13.3293 8.66224 13.2109 8.61359 13.166 8.50918C13.1211 8.40476 13.1662 8.28286 13.2675 8.23476Z" fill="#F7F6F2"/>
<path d="M6.13439 6.98701C7.67858 6.9012 7.93179 9.19914 6.42897 9.5055C5.66007 9.53788 5.20065 9.20926 5.08529 8.3999C4.98543 7.69916 5.42528 7.05417 6.13439 6.98701Z" fill="#5E1302"/>
<path d="M5.75445 7.49909C5.94915 7.43684 6.15667 7.54604 6.21991 7.74401C6.28316 7.94197 6.1786 8.15504 5.98537 8.22188C5.85837 8.26583 5.71803 8.23669 5.61793 8.14561C5.51783 8.05453 5.47344 7.91556 5.50169 7.78176C5.52995 7.64796 5.62648 7.54 5.75445 7.49909Z" fill="#F7F6F2"/>
<path d="M6.73856 8.51946C6.811 8.50242 6.88674 8.52709 6.93611 8.58379C6.98549 8.6405 7.00059 8.72018 6.97549 8.79156C6.9504 8.86297 6.88913 8.91469 6.8157 8.92646C6.70761 8.94375 6.60548 8.87058 6.58471 8.76095C6.56393 8.65129 6.63195 8.54455 6.73856 8.51946Z" fill="#F7F6F2"/>
<path d="M14.2667 11.951C14.9844 11.8851 15.382 12.2858 15.5235 12.9895C15.5764 13.2527 15.4165 13.6153 15.2659 13.8235C15.0529 14.1183 14.8036 14.232 14.4554 14.2833C14.1716 14.2516 13.9163 14.2296 13.6686 14.0599C13.4248 13.8884 13.2065 13.5209 13.1641 13.2206C13.0609 12.4883 13.6515 12.0594 14.2667 11.951Z" fill="#984819"/>
<path d="M5.16871 13.9237C4.8989 14.2537 4.41024 14.3624 4.00146 14.2753C3.62649 14.1815 3.34742 13.8279 3.23797 13.4638C3.22656 13.4258 3.28007 13.2969 3.28919 13.254C3.31391 13.138 3.33169 13.0212 3.35729 12.9053C3.4824 12.3389 4.11823 12.0829 4.63074 12.2278C4.95497 12.3195 5.11305 12.4805 5.27218 12.7709C5.58049 13.0746 5.50508 13.6699 5.16871 13.9237Z" fill="#B36D33"/>
<path d="M5.27218 12.7709C5.58049 13.0746 5.50508 13.6699 5.16871 13.9237C5.19828 13.8683 5.22731 13.8125 5.25572 13.7565C5.44018 13.3924 5.38823 13.1446 5.27218 12.7709Z" fill="#F4BD70"/>
<path d="M5.63084 3.40575C5.86925 3.37503 6.1848 3.3954 6.38912 3.53646C6.58953 3.6756 6.7268 3.89104 6.77012 4.13445C6.89359 4.86814 6.43371 5.29295 5.76842 5.40997C5.27702 5.47846 4.74282 5.42763 4.63228 4.82662C4.50196 4.11817 4.94094 3.52486 5.63084 3.40575Z" fill="#984819"/>
<path d="M9.65618 15.1429C9.80929 14.7204 10.1481 14.5059 10.5763 14.4462C10.8576 14.4069 11.0044 14.4429 11.2201 14.6114C11.4923 14.839 11.4613 15.0529 11.4592 15.3971C11.4703 15.8582 11.0018 16.2842 10.5597 16.1057C10.4269 16.0521 10.3033 15.8938 10.1846 15.8149C9.98343 15.6812 9.82349 15.6406 9.65608 15.4536C9.64992 15.3549 9.63853 15.2391 9.65618 15.1429Z" fill="#984819"/>
<path d="M11.2201 14.6114C11.4923 14.839 11.4613 15.0529 11.4592 15.3971C11.4703 15.8582 11.0018 16.2842 10.5597 16.1057C10.4269 16.0521 10.3033 15.8938 10.1846 15.8149C9.98343 15.6812 9.82349 15.6406 9.65608 15.4536C9.64992 15.3549 9.63853 15.2391 9.65618 15.1429C9.70318 15.5634 9.88683 15.5265 10.1844 15.7278C10.3121 15.8144 10.436 15.9765 10.5824 16.0283C11.2545 16.2663 11.4224 15.6061 11.3607 15.0677C11.3366 14.8571 11.3037 14.7927 11.2201 14.6114Z" fill="#D37F2B"/>
<path d="M13.4535 3.59114C13.5338 3.58133 13.6444 3.58638 13.7279 3.58789C14.0772 3.82762 14.3828 4.26068 14.3947 4.69566C14.4063 5.11805 14.0363 5.41549 13.6468 5.40571C13.1839 5.28147 12.3695 4.72882 12.7273 4.15967C12.8776 3.9205 13.1763 3.65462 13.4535 3.59114Z" fill="#AA5921"/>
<path d="M1.38612 5.76565C1.55114 5.38428 2.41321 3.84471 2.74082 3.73555L2.77175 3.75867C2.79147 3.9966 2.33678 4.3957 2.27726 4.6019C2.2082 4.84113 2.15526 5.08471 2.08305 5.32607C2.04186 5.40987 2.02721 5.45908 1.94887 5.49514L1.90974 5.47306C1.86312 5.40122 1.85957 5.31651 1.84752 5.23007L1.81963 5.24366L1.8163 5.26062C1.66529 5.40542 1.55284 5.74918 1.4273 5.7902L1.38612 5.76565Z" fill="#FCE2B6"/>
<path d="M16.6202 6.12237C16.8959 6.12109 17.1304 6.58727 17.2487 6.8136C17.4115 7.12432 17.5288 7.60887 17.4271 7.95875C17.4139 8.00389 17.3513 8.12862 17.3103 8.14978L17.3229 8.08338C17.5402 7.83238 17.418 7.36916 17.3345 7.07999C17.3091 6.99203 17.1429 6.62012 17.0673 6.58282C17.027 6.60843 17.0233 6.61284 16.9765 6.62794C16.8705 6.56551 16.6832 6.35513 16.6064 6.24339C16.5837 6.21047 16.6079 6.16329 16.6202 6.12237Z" fill="#FCE2B6"/>
<path d="M10.0259 16.937C10.1008 16.9541 10.1288 16.9526 10.1787 17.0109C10.2066 17.081 10.1999 17.0945 10.191 17.173C10.0549 17.1462 10.0129 17.0749 10.0259 16.937Z" fill="#F4BD70"/>
</svg>
