<svg preserveAspectRatio="none" width="100%" height="100%" overflow="visible" style="display: block;" viewBox="0 0 117 146" fill="none" xmlns="http://www.w3.org/2000/svg">
<g id="&#237;&#128;&#180;&#236;&#166;&#136; &#236;&#191;&#160;&#237;&#130;&#164;">
<path d="M64.9654 4.16696C66.5264 2.78856 67.8487 1.86951 69.8137 1.12825C78.1283 -2.00826 89.9006 1.50666 93.3249 10.2798C104.287 10.7376 109.766 24.0348 101.785 31.543C99.3301 33.8518 94.8645 34.8507 91.6682 33.8995C90.8684 37.7607 90.3874 41.7231 89.6467 45.5938C89.5467 46.1166 89.2983 46.5907 88.9933 47.0253C91.2632 48.7627 92.8842 50.3536 93.9848 53.0693C94.2368 53.6913 94.3092 54.8141 94.6142 55.248C96.3143 57.6674 97.3424 58.1272 97.753 61.3053C97.9666 62.7341 97.8495 64.1696 98.0153 65.6023C98.1924 67.1326 98.7639 68.6977 98.7197 70.2633C98.6579 72.452 97.7779 74.161 98.4137 76.3492C98.5357 76.7694 97.317 79.8028 97.212 80.4122C96.876 81.6978 96.8936 82.4844 96.3846 83.759C97.1961 85.4222 97.6355 86.4025 97.8758 88.2671C97.9908 89.1592 97.5437 91.1429 97.7647 91.5257C98.8584 91.2956 99.8882 91.3736 100.832 92.0065C103.626 93.8808 106.326 95.9286 109.061 97.877C110.623 98.9785 112.174 100.095 113.715 101.225C114.728 101.958 116.152 102.911 116.969 103.802C117.064 109.628 117.279 109.048 111.765 108.87C111.796 112.409 111.837 145.251 111.418 145.665C110.906 146.169 106.1 145.951 105.201 145.866C105.15 145.862 105.098 145.855 105.047 145.848C103.692 144.884 103.115 143.593 102.093 142.517C95.6097 142.371 88.6921 142.493 82.1854 142.507L27.6187 142.5C23.7299 142.496 18.8559 142.352 15.0681 142.517C14.2104 143.311 13.6249 144.132 12.8199 145.028C11.3671 146.645 8.12192 145.698 6.15778 145.941C5.91239 145.971 5.51693 145.834 5.33608 145.673C5.09588 144.478 5.2267 142.59 5.2336 141.303L5.21657 134.995C5.17156 126.334 5.13998 117.47 4.97162 108.823C3.79195 108.975 1.22161 108.989 0.0562375 108.836C0.0319592 107.343 -0.0554237 105.223 0.0532152 103.788C0.809702 102.977 2.62641 101.803 3.60786 101.115L14.3101 93.5985C15.7185 92.6037 16.9274 91.3849 18.7646 91.4841C20.749 91.5913 23.5286 91.182 25.4205 91.5914C23.9267 88.3736 25.0138 84.9388 27.0061 82.1922C27.5479 81.4454 28.217 80.8058 28.725 80.1219L28.8308 79.4079C28.8536 78.5342 29.0374 78.157 29.626 77.5343C29.9651 75.0164 28.0966 73.6485 30.2053 71.2606C29.7223 68.2606 29.811 67.2288 30.9547 64.4002C31.1412 63.9391 31.2668 61.8657 31.3687 61.3079C31.8603 58.6157 32.9334 56.3796 34.7559 54.3691C35.2098 53.8684 35.5949 51.0877 36.3913 50.4442C38.1641 47.6718 40.5446 45.9492 42.9366 43.8737C45.1388 41.9626 46.2113 41.4476 48.9024 40.4029C50.0182 39.9698 51.0704 39.1762 52.3967 38.7136C52.7259 36.2727 53.8442 33.2737 54.5081 30.8176C54.9269 29.2691 55.4201 26.8566 55.9565 25.4931C54.5927 25.2872 53.5276 24.7792 52.4398 23.9518C40.9656 15.2239 52.0962 -0.817251 64.9654 4.16696ZM54.8955 103.449L54.8794 103.51C55.4399 103.597 55.7916 103.763 56.1813 103.347L55.4319 103.174C55.1566 103.436 55.2913 103.357 54.8955 103.449Z" fill="#66210B"/>
<path d="M29.2331 80.9753L29.69 81.4379L30.5028 82.467C30.8992 83.0043 31.3027 83.5651 31.709 84.0924C30.8983 84.2746 30.2345 84.3948 29.568 84.9205C29.4745 85.1695 29.5025 85.2018 29.5759 85.4724C28.5564 87.0021 27.707 87.7947 27.2203 89.6056C27.0366 89.3614 26.1196 87.5573 26.0012 87.2225C26.1888 85.7368 26.7374 84.771 27.5063 83.5289C28.1189 82.7137 28.6758 81.8313 29.2331 80.9753Z" fill="#FCFCFC"/>
<path d="M29.2331 80.9753L29.69 81.4379C29.0146 81.8671 29.121 83.4037 27.9762 83.7174C27.818 83.6597 27.6547 83.6069 27.5063 83.5289C28.1189 82.7137 28.6758 81.8313 29.2331 80.9753Z" fill="#E4E9F2"/>
<path d="M33.2971 80.0272C33.4281 80.1595 33.5622 80.2886 33.6995 80.4143L33.6015 80.5137C33.5099 80.727 33.427 80.8011 33.5628 81.0227C34.6421 82.7825 36.1861 84.7681 37.4542 86.3371C37.2766 86.396 37.1225 86.4695 36.9413 86.446C36.3243 86.2841 36.1047 86.2164 35.4556 86.2114L34.9549 86.1535L34.6967 86.2392C34.1397 86.0284 31.9271 82.876 31.528 82.2014C31.5044 81.8347 31.5144 81.6588 31.3475 81.3215C32.0357 80.6972 32.4895 80.4312 33.2971 80.0272Z" fill="#53330C"/>
<path d="M32.0998 81.7036L32.9434 80.8215C33.5689 81.6686 36.6119 85.7457 36.9413 86.446C36.3243 86.2841 36.1047 86.2164 35.4556 86.2114C34.3694 84.6969 33.1222 83.2121 32.0998 81.7036Z" fill="#F9C55F"/>
<path d="M31.528 82.2014L31.7118 82.043C32.1603 82.1926 34.636 85.5838 34.9549 86.1535L34.6967 86.2392C34.1397 86.0284 31.9271 82.876 31.528 82.2014Z" fill="#F9C55F"/>
<path d="M30.3599 78.1373C30.8106 77.9273 31.0052 77.797 31.4933 77.8446C31.9523 78.0264 32.0879 78.2324 32.2826 78.6829C32.3132 78.7542 32.3426 78.826 32.3707 78.8982C32.3885 79.2906 32.3308 79.1673 32.5408 79.4228L32.83 79.4454L33.2971 80.0272C32.4895 80.4312 32.0357 80.6972 31.3475 81.3215L30.9416 81.6351C30.8435 81.8491 30.6471 82.309 30.5028 82.467L29.69 81.4379L29.2331 80.9753L28.725 80.1219L28.8308 79.4079L29.3603 79.3661C29.63 78.7705 29.8891 78.5723 30.3599 78.1373Z" fill="#F7B5AF"/>
<path d="M28.8308 79.4079L29.3603 79.3661C29.5578 79.7572 29.7662 80.3521 30.203 80.4752C30.6519 80.6294 30.5055 80.5265 30.7581 81.0236L30.699 81.359C30.7822 81.4644 30.8381 81.5517 30.9416 81.6351C30.8435 81.8491 30.6471 82.309 30.5028 82.467L29.69 81.4379L29.2331 80.9753L28.725 80.1219L28.8308 79.4079Z" fill="#6C280E"/>
<path d="M32.83 79.4454L33.2971 80.0272C32.4895 80.4312 32.0357 80.6972 31.3475 81.3215L30.9416 81.6351C30.8381 81.5517 30.7822 81.4644 30.699 81.359L30.7581 81.0236C31.4109 80.4418 32.1197 79.9541 32.83 79.4454Z" fill="#D9DAE8"/>
<path d="M32.3707 78.8982C32.3885 79.2906 32.3308 79.1673 32.5408 79.4228L32.83 79.4454C32.1197 79.9541 31.4109 80.4418 30.7581 81.0236C30.5055 80.5265 30.6519 80.6294 30.203 80.4752C30.8703 80.0865 31.8312 79.4451 32.3707 78.8982Z" fill="var(--fill-0, #7C3121)"/>
<path d="M27.3824 92.6476C25.9894 90.6186 25.6746 89.6866 26.0012 87.2225C26.1196 87.5573 27.0366 89.3614 27.2203 89.6056C27.17 90.7331 27.229 91.5377 27.3824 92.6476Z" fill="#D9DAE8"/>
<path d="M33.6015 80.5137C34.3819 81.2433 38.0048 86.2664 38.6299 87.3072C38.2241 86.9888 37.8322 86.6898 37.4542 86.3371C36.1861 84.7681 34.6421 82.7825 33.5628 81.0227C33.427 80.8011 33.5099 80.727 33.6015 80.5137Z" fill="#EFB14A"/>
<path d="M29.626 77.5343L29.6823 77.7357L29.436 78.1318C29.5278 78.1981 29.6288 78.2675 29.7163 78.3376L30.3599 78.1373C29.8891 78.5723 29.63 78.7705 29.3603 79.3661L28.8308 79.4079C28.8536 78.5342 29.0374 78.157 29.626 77.5343Z" fill="#6C280E"/>
<path d="M6.02547 108.856C7.82704 109.101 12.7856 108.901 14.7781 108.882L101.417 108.842C104.408 108.843 107.756 108.779 110.721 108.903C110.594 110.281 110.789 112.778 110.681 113.547C110.47 121.174 110.634 129.008 110.477 136.647C110.422 139.306 110.578 142.177 110.444 144.803C108.934 144.847 107.421 144.835 105.911 144.767C105.96 143.816 106.2 142.302 105.658 141.58C104.933 141.07 102.218 141.358 101.155 141.366L91.8997 141.384L27.2123 141.359C21.9282 141.357 16.322 141.239 11.0781 141.338C10.9849 142.488 10.9921 143.595 10.9876 144.745C9.46639 144.838 7.92062 144.813 6.39824 144.782C6.32802 143.367 6.37274 141.775 6.35192 140.335C6.28086 136.738 6.24746 133.139 6.25169 129.541L6.10931 111.257C6.04594 110.408 6.02912 109.707 6.02547 108.856Z" fill="#CB955B"/>
<path d="M6.02547 108.856C7.82704 109.101 12.7856 108.901 14.7781 108.882L101.417 108.842C104.408 108.843 107.756 108.779 110.721 108.903C110.594 110.281 110.789 112.778 110.681 113.547C105.319 113.596 99.8129 113.361 94.444 113.242C84.8204 113.083 75.198 112.851 65.5778 112.546L6.10931 111.257C6.04594 110.408 6.02912 109.707 6.02547 108.856Z" fill="#B37A49"/>
<path d="M32.3662 72.9716C32.1623 72.8469 31.824 72.6362 31.7618 72.3946C31.3879 70.9417 31.2237 68.5048 31.5401 67.0464C31.7313 66.1657 32.2718 65.0025 32.374 64.2539C32.6218 62.4389 32.4506 61.3035 33.1811 59.6055C33.9896 57.726 34.9916 56.4445 36.0714 54.7717C36.3062 54.4078 36.7827 52.8999 36.9948 52.4024C38.2277 49.5101 40.5833 47.6132 42.9253 45.6507C43.823 45.0002 45.0278 43.6734 46.0239 43.2281C48.3182 42.2024 50.7773 40.8894 53.0602 39.9216C53.6667 40.3758 54.4368 40.8473 55.0838 41.2644L55.3889 41.4475C57.252 42.3672 58.7259 43.0176 60.7105 43.6905C61.6769 44.018 63.6875 44.5214 64.4853 44.8875C65.9222 45.1202 67.4935 45.5695 68.9391 45.8973C70.1109 46.1631 71.5468 46.3998 72.6743 46.7116C76.5711 47.2598 80.5215 47.8722 84.4798 47.7602C85.4994 47.6934 86.5449 47.6374 87.5592 47.5311C89.5755 49.1993 91.4507 50.7309 92.4625 53.2666C92.7224 53.9179 93.0194 55.491 93.3231 55.9345C95.0762 58.4946 96.1895 58.7973 96.4195 62.2107C96.4943 63.3222 96.6227 64.9744 96.7417 66.1542C96.8713 67.4383 97.4774 69.3024 97.381 70.5928C97.276 71.9993 96.8129 73.6264 96.5303 75.0339C95.5538 75.5848 94.8788 75.8362 93.8674 76.2821C92.9194 76.6055 92.3236 76.7655 91.3444 76.9832C87.2812 78.4035 81.7094 79.4899 77.4402 80.2291C74.3617 80.7621 70.9995 81.0707 67.9067 81.7225C66.3421 82.0522 64.7273 82.7913 63.2058 83.3064C61.6272 83.8408 60.0472 84.3298 58.474 84.878C57.8757 84.5367 52.1989 81.1939 51.9529 80.83C49.4049 80.2983 47.4402 79.9515 45.0365 78.9372C43.4325 78.344 36.2214 75.4584 35.2589 74.4167C34.4435 74.2648 33.1171 73.4191 32.3662 72.9716Z" fill="#F9C55F"/>
<path d="M84.4798 47.7602C85.4994 47.6934 86.5449 47.6374 87.5592 47.5311C89.5755 49.1993 91.4507 50.7309 92.4625 53.2666C92.7224 53.9179 93.0194 55.491 93.3231 55.9345C95.0762 58.4946 96.1895 58.7973 96.4195 62.2107C96.4943 63.3222 96.6227 64.9744 96.7417 66.1542C96.8713 67.4383 97.4774 69.3024 97.381 70.5928C97.276 71.9993 96.8129 73.6264 96.5303 75.0339C95.5538 75.5848 94.8788 75.8362 93.8674 76.2821C92.9194 76.6055 92.3236 76.7655 91.3444 76.9832C91.0897 76.2469 92.8104 70.1162 92.3638 68.1362L92.1283 67.9933C92.7018 67.661 92.8402 67.498 93.2879 67.0263C93.5461 66.6243 93.8345 66.1312 93.9629 65.6741C94.3924 64.1626 94.201 62.5424 93.4314 61.1726C92.9496 60.3134 92.0389 59.2779 91.0829 58.9406C90.7646 58.8283 90.4129 58.8754 90.0513 58.7645C90.3604 58.7392 90.2706 58.7921 90.4573 58.6073C90.2304 57.3064 90.1844 56.2591 89.5066 55.0673C88.4581 53.2235 87.1542 51.5445 85.8943 49.8429C85.4613 49.2582 84.7001 48.4256 84.4798 47.7602Z" fill="#E6AE6B"/>
<path d="M93.2879 67.0263C93.9551 66.6628 93.7587 66.5958 94.1161 66.054L94.1515 66.0961C94.3138 66.286 94.3875 66.3453 94.5823 66.4996C94.862 67.3075 94.2224 69.1105 94.1323 69.9634C93.9158 72.0128 93.9682 74.1965 93.8674 76.2821C92.9194 76.6055 92.3236 76.7655 91.3444 76.9832C91.0897 76.2469 92.8104 70.1162 92.3638 68.1362L92.1283 67.9933C92.7018 67.661 92.8402 67.498 93.2879 67.0263Z" fill="#EFB14A"/>
<path d="M32.3662 72.9716C32.1623 72.8469 31.824 72.6362 31.7618 72.3946C31.3879 70.9417 31.2237 68.5048 31.5401 67.0464C31.7313 66.1657 32.2718 65.0025 32.374 64.2539C32.6218 62.4389 32.4506 61.3035 33.1811 59.6055C33.9896 57.726 34.9916 56.4445 36.0714 54.7717C36.3062 54.4078 36.7827 52.8999 36.9948 52.4024C38.2277 49.5101 40.5833 47.6132 42.9253 45.6507C43.823 45.0002 45.0278 43.6734 46.0239 43.2281C48.3182 42.2024 50.7773 40.8894 53.0602 39.9216C53.6667 40.3758 54.4368 40.8473 55.0838 41.2644C54.2459 42.0341 48.1605 43.8661 47.5316 44.3984C43.5082 47.8034 37.8934 52.8683 36.5987 58.1705C35.7549 58.6805 35.2911 58.8462 35.2697 59.9389C35.1712 61.0274 34.0443 62.1875 33.7524 63.363C33.6151 63.9154 33.6043 66.0143 33.4726 66.2836C33.0666 67.114 33.0034 72.3562 32.8853 72.6305L32.3662 72.9716Z" fill="#FCD799"/>
<path d="M92.1283 67.9933C91.6677 68.0629 90.5632 68.0972 90.0919 68.0789C88.5793 68.0336 87.1523 67.3664 86.1478 66.2346C84.454 64.338 84.6831 61.2547 86.5846 59.5534C87.5866 58.6568 88.7862 58.6744 90.0513 58.7645C90.4129 58.8754 90.7646 58.8283 91.0829 58.9406C92.0389 59.2779 92.9496 60.3134 93.4314 61.1726C94.201 62.5424 94.3924 64.1626 93.9629 65.6741C93.8345 66.1312 93.5461 66.6243 93.2879 67.0263C92.8402 67.498 92.7018 67.661 92.1283 67.9933Z" fill="#944F1E"/>
<path d="M64.4853 44.8875C65.9222 45.1202 67.4935 45.5695 68.9391 45.8973C70.1109 46.1631 71.5468 46.3998 72.6743 46.7116C71.5867 48.668 68.5844 48.5582 66.7797 47.8035C66.2292 47.5733 65.73 47.1587 65.2653 46.7864C64.8963 46.1307 64.5856 45.6354 64.4853 44.8875Z" fill="#944F1E"/>
<path d="M55.3889 41.4475C57.252 42.3672 58.7259 43.0176 60.7105 43.6905C61.6769 44.018 63.6875 44.5214 64.4853 44.8875C64.5856 45.6354 64.8963 46.1307 65.2653 46.7864C63.5427 47.0485 56.5756 43.8166 55.382 42.1614C55.2083 41.9205 55.3213 41.713 55.3889 41.4475Z" fill="#EFB14A"/>
<path d="M45.0365 78.9372C46.3689 76.9757 48.1118 76.9278 49.9185 78.2761C50.8118 78.9428 51.6435 79.7221 51.9529 80.83C49.4049 80.2983 47.4402 79.9515 45.0365 78.9372Z" fill="#944F1E"/>
<path d="M36.5987 58.1705C40.2154 57.8922 38.926 62.281 36.652 62.4942C35.434 62.6084 35.2962 60.8631 35.2697 59.9389C35.2911 58.8462 35.7549 58.6805 36.5987 58.1705Z" fill="#9E5A23"/>
<path d="M32.8853 72.6305C33.8732 72.9638 34.9216 73.2873 35.2589 74.4167C34.4435 74.2648 33.1171 73.4191 32.3662 72.9716L32.8853 72.6305Z" fill="#944F1E"/>
<path d="M72.8105 61.9753C73.6219 62.0051 74.1861 61.9928 74.9305 62.4077C77.0713 63.5941 77.424 66.8044 76.268 68.7869C75.6485 69.849 74.801 70.4222 73.6275 70.7189C68.3481 70.9917 68.1451 62.7087 72.8105 61.9753Z" fill="#6C280E"/>
<path d="M71.8497 63.4395C73.7799 63.4261 74.2602 65.3314 72.7255 66.2032C72.6406 66.2136 72.5555 66.2222 72.4704 66.229C70.6318 66.3722 70.6876 64.5539 71.8497 63.4395Z" fill="#FCFCFC"/>
<path d="M73.8517 67.4513C74.1067 67.3025 74.4225 67.3038 74.6763 67.4549C74.93 67.6061 75.0817 67.8832 75.0722 68.1784C75.0628 68.4736 74.8937 68.7403 74.6308 68.8749C74.2395 69.0752 73.7598 68.9276 73.5489 68.5421C73.3378 68.1565 73.472 67.673 73.8517 67.4513Z" fill="#FCFCFC"/>
<path d="M49.0518 45.495C49.9416 45.4435 50.7974 45.547 51.6016 45.9565C52.4507 46.3791 53.0884 47.1329 53.3642 48.0403C53.645 48.9729 53.5387 49.9792 53.0693 50.8327C52.3485 52.1604 51.2564 52.8907 49.8546 53.3077C48.8056 53.3263 48.0572 53.4215 47.0928 52.9264C46.2705 52.4994 45.6526 51.7619 45.376 50.8775C44.5725 48.2773 46.6704 46.1445 49.0518 45.495Z" fill="#944E1E"/>
<path d="M50.8171 60.0193C55.2616 59.4949 56.5209 67.3257 51.4792 68.7388C46.4438 69.0371 45.9396 60.8649 50.8171 60.0193Z" fill="#6C280E"/>
<path d="M49.6366 61.5852C51.5633 61.4165 52.0112 63.0534 50.6879 64.2752C48.8035 64.6842 48.2525 62.8423 49.6366 61.5852Z" fill="#FCFCFC"/>
<path d="M51.7946 65.3595C52.0463 65.2374 52.3449 65.2639 52.5713 65.4284C52.7976 65.5929 52.9147 65.8689 52.8761 66.146C52.8374 66.4231 52.6493 66.6564 52.3866 66.7529C52.0075 66.8919 51.5859 66.7094 51.4279 66.3377C51.2701 65.966 51.4313 65.5359 51.7946 65.3595Z" fill="#FCFCFC"/>
<path d="M79.8097 50.1149C80.8495 49.9918 81.5288 50.0529 82.4221 50.6787C83.2422 51.2574 83.7963 52.1406 83.9604 53.1308C84.295 55.0536 83.2809 55.9196 81.5192 56.1929C79.9282 55.9831 78.2089 54.9709 77.6358 53.4397C76.9137 51.5103 78.3179 50.6806 79.8097 50.1149Z" fill="#944F1E"/>
<path d="M56.9121 68.9069C58.7118 69.0253 57.3806 72.0355 61.4067 69.2609C61.9216 69.7687 62.3839 70.2472 62.9539 70.6969C64.4091 71.8451 65.1465 70.0053 66.0999 69.841L66.323 70.0048C66.4703 70.3672 66.4395 70.5213 66.4177 70.9014C64.9113 72.8535 62.9381 72.7628 61.3444 70.9449C60.751 71.239 59.826 71.5577 59.1819 71.7977C57.7353 71.467 56.2379 70.6073 56.9121 68.9069Z" fill="#66210B"/>
<path d="M75.088 59.2943C75.4982 59.2508 75.6601 59.2053 76.0436 59.359C76.3475 59.668 76.3188 59.5512 76.3875 59.9292C76.052 60.9519 71.0635 62.0857 70.0578 61.9104C69.4572 61.2649 69.1926 60.8474 69.5413 59.9759C69.852 59.7344 69.7101 59.772 70.0682 59.8136C70.4079 59.9918 70.4948 60.3685 70.643 60.7406C72.0499 60.181 73.6245 59.8757 75.088 59.2943Z" fill="#6C280E"/>
<path d="M49.1311 56.8091L49.1781 56.8157C50.169 56.9464 52.8133 58.9944 54.1316 59.0892C54.448 59.112 54.3397 58.7859 54.9305 58.6225C55.2979 58.737 55.1705 58.6488 55.4074 58.9602C55.4625 59.4182 55.3095 59.6818 55.1313 60.1089C54.2674 60.8425 52.8449 60.1309 51.9856 59.6871C51.1726 59.2671 49.1775 58.4336 48.7333 57.6529C48.7609 57.1856 48.8153 57.2544 49.1311 56.8091Z" fill="#6C280E"/>
<path d="M65.2585 5.31409C66.4337 4.55295 67.6605 3.60425 68.8717 2.94283C75.5736 -0.717189 84.6307 1.65238 89.761 6.89841C91.2337 8.54512 91.9009 10.2054 92.842 12.1872C92.9635 12.0495 93.1372 11.6411 93.3511 11.3554C94.1962 11.5248 95.8795 11.9337 96.7014 12.2068C99.624 13.2927 101.997 15.4933 103.299 18.326C104.706 21.4324 104.543 24.6252 103.159 27.6783C101.476 31.1973 97.4067 33.2576 93.6001 33.0301C93.0986 33.0002 92.7625 33.0329 92.2707 32.8764L92.0481 32.678C92.0121 31.9201 92.5377 29.7975 92.7394 28.9245C93.2484 28.858 93.1994 28.6949 93.2332 28.2818C94.8411 27.9463 95.3075 28.085 97.0468 27.4421L96.7332 26.9702C91.4655 27.8624 87.4735 26.7136 83.8819 22.6285C83.5608 22.2632 83.1275 21.8784 82.9247 21.443C83.069 21.1687 83.1401 21.2007 83.4573 21.0396C83.3734 20.873 83.2672 20.4863 83.2065 20.2909C77.9507 21.9986 71.2183 21.4853 67.177 17.3874C66.5483 16.7612 65.5868 15.5761 64.9504 15.0885L64.8541 15.1813L65.0375 15.6134C65.7116 16.8285 66.0925 17.4305 67.0121 18.4444L67.0436 18.4785C64.9322 19.5782 60.2012 20.5173 57.9856 19.3837C55.678 18.7489 55.2264 18.0723 53.529 16.4193C54.4455 18.3056 54.9043 18.7419 56.6304 19.9304C57.1565 20.15 56.9909 20.0563 57.3434 20.5634C56.9307 21.7244 56.5257 23.2191 56.1682 24.4242C53.0824 23.0282 52.1877 22.6741 50.3465 19.7503C47.1621 14.7121 49.679 9.04414 54.3978 5.99924C57.4572 4.02499 61.0743 4.35533 64.4725 5.15397C64.8481 5.14931 64.9177 5.18414 65.2585 5.31409Z" fill="#FCFCFC"/>
<path d="M97.0468 27.4421L97.5818 27.1652L97.5489 27.2691C97.3771 27.7935 97.2133 27.9772 96.8736 28.4127C97.5963 29.6233 101.713 28.0683 102.712 27.5625C102.786 27.5251 103.084 27.6452 103.159 27.6783C101.476 31.1973 97.4067 33.2576 93.6001 33.0301C93.0986 33.0002 92.7625 33.0329 92.2707 32.8764L92.0481 32.678C92.0121 31.9201 92.5377 29.7975 92.7394 28.9245C93.2484 28.858 93.1994 28.6949 93.2332 28.2818C94.8411 27.9463 95.3075 28.085 97.0468 27.4421Z" fill="#D9DAE8"/>
<path d="M92.7394 28.9245C93.2484 28.858 93.1994 28.6949 93.2332 28.2818C93.9587 29.1272 95.1265 29.3179 96.0171 29.924L95.9158 30.071C94.3568 29.7826 94.1699 29.6528 92.7394 28.9245Z" fill="var(--fill-0, #7C3121)"/>
<path d="M83.4573 21.0396L84.0016 20.8457C85.1741 22.927 90.0634 25.046 92.2851 25.6652C93.5152 26.008 96.7798 25.8996 97.5642 26.5514C97.5752 26.5605 97.5874 26.5681 97.5989 26.5764L96.7332 26.9702C91.4655 27.8624 87.4735 26.7136 83.8819 22.6285C83.5608 22.2632 83.1275 21.8784 82.9247 21.443C83.069 21.1687 83.1401 21.2007 83.4573 21.0396Z" fill="#D9DAE8"/>
<path d="M67.177 17.3874C68.3957 17.2726 69.1638 18.3994 70.3672 18.7689C71.9975 19.2694 73.8641 19.6142 75.5553 19.7934C77.0352 19.9369 78.526 19.928 80.0041 19.7671C81.4716 19.6115 84.5647 18.8132 85.7324 19.0748C85.822 19.0949 85.9001 19.1005 85.9917 19.0968C85.1188 19.5088 84.1185 20.017 83.2065 20.2909C77.9507 21.9986 71.2183 21.4853 67.177 17.3874Z" fill="#D9DAE8"/>
<path d="M50.3465 19.7503C50.8393 19.5923 50.6964 19.554 51.0892 19.7517C51.9435 20.1817 53.023 21.2709 54.0406 20.9751C54.2749 20.907 54.2945 20.8065 54.4688 20.5975L54.4124 20.4637C55.5563 20.7405 56.1974 20.8138 57.3434 20.5634C56.9307 21.7244 56.5257 23.2191 56.1682 24.4242C53.0824 23.0282 52.1877 22.6741 50.3465 19.7503Z" fill="#D9DAE8"/>
<path d="M65.0375 15.6134C65.7116 16.8285 66.0925 17.4305 67.0121 18.4444L67.0436 18.4785C64.9322 19.5782 60.2012 20.5173 57.9856 19.3837C58.4859 18.7728 59.749 18.9426 60.5697 18.888C61.4073 18.8337 62.2357 18.6816 63.0381 18.4351C65.7543 17.5973 64.3411 16.9363 65.0375 15.6134Z" fill="#D9DAE8"/>
<path d="M89.761 6.89841C91.2337 8.54512 91.9009 10.2054 92.842 12.1872L93.1957 12.9425L93.1365 13.1011C92.7898 13.2661 90.6633 13.2261 90.1507 13.2275C90.4312 11.4391 90.3974 9.67485 89.8661 7.91741C89.7381 7.49387 89.5857 7.33463 89.761 6.89841Z" fill="#D9DAE8"/>
<path d="M93.3511 11.3554C94.1962 11.5248 95.8795 11.9337 96.7014 12.2068C96.536 12.651 96.6541 12.9447 96.7602 13.3917C96.3162 13.5327 93.6448 13.2776 93.1365 13.1011L93.1957 12.9425L92.842 12.1872C92.9635 12.0495 93.1372 11.6411 93.3511 11.3554Z" fill="#D9DAE8"/>
<path d="M92.842 12.1872C92.9635 12.0495 93.1372 11.6411 93.3511 11.3554C93.3688 11.8206 93.4597 12.5723 93.1957 12.9425L92.842 12.1872Z" fill="#6C280E"/>
<path d="M85.9917 19.0968C86.4796 18.9003 87.0196 18.6677 87.5176 18.5155C86.4167 19.46 85.3242 20.2315 84.0016 20.8457L83.4573 21.0396C83.3734 20.873 83.2672 20.4863 83.2065 20.2909C84.1185 20.017 85.1188 19.5088 85.9917 19.0968Z" fill="var(--fill-0, #7C3121)"/>
<path d="M56.6304 19.9304C57.1565 20.15 56.9909 20.0563 57.3434 20.5634C56.1974 20.8138 55.5563 20.7405 54.4124 20.4637C54.1599 20.2331 54.191 20.3323 54.1702 20.0643C54.7384 19.8875 55.9233 20.3452 56.6304 19.9304Z" fill="var(--fill-0, #7C3121)"/>
<path d="M64.4725 5.15397C64.8481 5.14931 64.9177 5.18414 65.2585 5.31409C64.6029 5.9573 64.0181 6.50703 63.3275 7.11193C63.6392 6.47027 64.1075 5.79749 64.4725 5.15397Z" fill="#834332"/>
<path d="M97.5989 26.5764C97.9394 26.4951 97.8567 26.463 98.1422 26.5586C97.9695 26.8847 97.8635 26.9457 97.5818 27.1652L97.0468 27.4421L96.7332 26.9702L97.5989 26.5764Z" fill="#6C1E12"/>
<path d="M64.7856 89.1148C64.877 88.8614 64.8777 88.8488 65.0651 88.6617L65.2251 88.7852L65.3318 89.0762C65.6928 89.1743 67.6858 89.1586 68.088 89.1144C69.106 89.2471 69.9788 89.2123 70.9466 89.303C72.2998 89.4299 73.9781 89.622 75.3147 89.8544C75.1606 90.3229 74.9056 90.5158 74.5494 90.864C73.6664 92.5859 74.0602 91.5911 74.0041 93.2971C74.024 93.8287 74.2479 94.327 74.5815 94.7377C75.5006 96.0928 76.6635 96.5673 78.1834 96.9745L78.4991 97.0355C79.3164 97.1464 80.2463 97.2949 81.058 97.3714L81.4928 97.3797C82.218 97.2816 82.8896 97.1883 83.6208 97.1365C84.183 97.6439 86.5671 100.201 86.6508 100.793C86.8808 101.079 87.0617 101.138 86.962 101.472C87.3981 101.537 87.2701 101.455 87.496 101.737C87.1994 102.093 86.1196 102.008 85.6544 101.987C81.1718 101.793 76.5553 102.077 72.0836 101.826C70.182 102.089 67.8826 101.792 66.0832 101.941C64.5771 102.052 63.1102 102.061 61.601 102.027C61.3721 102.022 61.1556 102.407 61.0631 102.579L60.9167 102.531L60.8761 102.423C60.4282 102.871 59.9602 102.78 59.2526 102.81L60.1073 102.886L59.6673 103.044L59.7496 103.198C59.2955 103.219 57.9151 103.109 57.6809 103.303C57.305 103.333 56.8496 103.338 56.4661 103.352L56.1813 103.347L55.4319 103.174C55.1566 103.436 55.2913 103.357 54.8955 103.449L54.8794 103.51C53.3669 103.644 50.3551 103.561 48.7709 103.56L37.1463 103.535L20.4603 103.54C17.4297 103.545 14.2062 103.609 11.1885 103.529C8.88308 103.585 4.1768 103.378 2.17142 103.663C2.40675 103.442 2.68396 103.19 2.94292 102.999C5.87125 100.809 8.93408 98.8289 11.9337 96.7483C13.8369 95.4284 15.6668 93.94 17.6634 92.7412C20.0988 92.6335 23.4382 92.6906 25.8954 92.7355C27.285 94.0693 28.5249 95.4329 30.3678 96.0721C31.0311 96.3022 31.5305 96.397 32.2085 96.666C32.3692 96.9387 32.7378 97.0425 33.0515 97.1797C33.1789 97.0525 33.4644 96.7081 33.6313 96.7324C36.3261 97.1251 37.4466 97.219 39.7649 95.5057C39.8658 95.3707 40.4092 94.9259 40.5707 94.7881C40.7673 94.6126 40.7921 94.551 40.9326 94.3236L41.8765 92.6699C41.6313 91.6917 42.1805 91.7575 42.2675 91.0297L42.3828 90.7973C42.3178 90.5418 42.4641 89.7345 42.6143 89.5164C42.6724 89.6962 42.6408 89.6284 42.7849 89.7716C44.0024 89.7201 45.5527 89.5149 46.7595 89.3099C46.8352 89.8266 46.7454 89.7326 47.052 90.0738C47.4352 90.1694 47.7097 90.1723 48.1016 90.1928L48.5066 90.1893C49.0572 89.9917 49.1545 89.8549 49.4302 89.3836C49.5865 89.1091 50.2308 88.9691 50.5216 88.8929C51.156 89.4939 52.5917 89.1635 53.6137 89.2634C54.2596 89.2588 55.0127 89.2069 55.6661 89.1766C56.0014 89.4262 56.1685 89.5198 56.5366 89.7171L56.9955 89.7382C56.6311 89.8278 56.3273 89.8476 56.1095 90.1273C56.891 90.4638 57.4902 90.7432 58.2425 91.1394C58.6604 90.9477 59.1708 90.6954 59.5887 90.5279C60.8862 89.9516 62.2651 89.6618 63.6517 89.3944C64.0423 89.319 64.4269 89.3037 64.7856 89.1148Z" fill="#FCFCFC"/>
<path d="M17.6634 92.7412C20.0988 92.6335 23.4382 92.6906 25.8954 92.7355C27.285 94.0693 28.5249 95.4329 30.3678 96.0721C31.0311 96.3022 31.5305 96.397 32.2085 96.666C32.3692 96.9387 32.7378 97.0425 33.0515 97.1797C32.3321 97.9847 30.426 99.9869 29.87 100.747C29.7659 100.928 29.5449 101.289 29.4767 101.467C29.1563 101.661 29.2492 101.546 29.1281 101.9L29.1786 102.09L30.1556 101.997C32.0744 101.868 34.6592 101.93 36.6243 101.932C38.6546 101.927 40.6846 101.881 42.7129 101.793C43.7685 101.563 45.6932 101.012 46.6304 101.033L46.6998 101.178C47.6409 101.2 54.1557 101.48 54.5858 101.705L54.5592 101.932C54.8703 102.061 55.0053 102.085 55.2141 102.35C55.1594 102.683 55.2044 102.556 54.9602 102.853L55.4319 103.174C55.1566 103.436 55.2913 103.357 54.8955 103.449L54.8794 103.51C53.3669 103.644 50.3551 103.561 48.7709 103.56L37.1463 103.535L20.4603 103.54C17.4297 103.545 14.2062 103.609 11.1885 103.529C8.88308 103.585 4.1768 103.378 2.17142 103.663C2.40675 103.442 2.68396 103.19 2.94292 102.999C5.87125 100.809 8.93408 98.8289 11.9337 96.7483C13.8369 95.4284 15.6668 93.94 17.6634 92.7412Z" fill="#E6AE6B"/>
<path d="M28.7191 100.525C28.8522 101.118 28.2589 101.64 28.4162 102.159C28.7035 102.218 28.8909 102.151 29.1786 102.09L30.1556 101.997C32.0744 101.868 34.6592 101.93 36.6243 101.932C38.6546 101.927 40.6846 101.881 42.7129 101.793C43.7685 101.563 45.6932 101.012 46.6304 101.033L46.6998 101.178C47.6409 101.2 54.1557 101.48 54.5858 101.705L54.5592 101.932C54.8703 102.061 55.0053 102.085 55.2141 102.35C55.1594 102.683 55.2044 102.556 54.9602 102.853L55.4319 103.174C55.1566 103.436 55.2913 103.357 54.8955 103.449L54.8794 103.51C53.3669 103.644 50.3551 103.561 48.7709 103.56L37.1463 103.535L20.4603 103.54C17.4297 103.545 14.2062 103.609 11.1885 103.529C13.3944 103.298 27.3504 103.656 27.859 103.276L27.7407 103.088C27.6373 102.95 27.6378 102.855 27.6092 102.685C28.0366 102.008 28.4993 100.799 28.7191 100.525Z" fill="#6C1E12"/>
<path d="M34.9614 102.866C36.6501 102.924 39.0808 102.757 40.8566 102.706C43.7822 102.625 46.7089 102.592 49.6355 102.607C51.0059 102.605 53.692 102.549 54.9602 102.853L55.4319 103.174C55.1566 103.436 55.2913 103.357 54.8955 103.449L54.8794 103.51C53.3669 103.644 50.3551 103.561 48.7709 103.56L37.1463 103.535L20.4603 103.54C17.4297 103.545 14.2062 103.609 11.1885 103.529C13.3944 103.298 27.3504 103.656 27.859 103.276L27.7407 103.088C28.6657 102.887 32.0208 102.832 32.9158 102.964C33.5982 102.941 34.2801 102.909 34.9614 102.866Z" fill="#CB955B"/>
<path d="M27.7407 103.088C28.6657 102.887 32.0208 102.832 32.9158 102.964C33.5629 103.247 34.907 103.151 35.6514 103.128L35.6537 103.26C34.9034 103.402 33.5172 103.107 33.0068 103.254L33.0299 103.362C36.08 103.607 41.1415 103.392 44.2935 103.411C47.6076 103.431 51.6675 103.576 54.8955 103.449L54.8794 103.51C53.3669 103.644 50.3551 103.561 48.7709 103.56L37.1463 103.535L20.4603 103.54C17.4297 103.545 14.2062 103.609 11.1885 103.529C13.3944 103.298 27.3504 103.656 27.859 103.276L27.7407 103.088Z" fill="#B37A49"/>
<path d="M42.7129 101.793C43.7685 101.563 45.6932 101.012 46.6304 101.033L46.6998 101.178C47.6409 101.2 54.1557 101.48 54.5858 101.705L54.5592 101.932C51.027 101.673 46.5085 102 42.7129 101.793Z" fill="#B5A8A7"/>
<path d="M28.7191 100.525C28.8522 101.118 28.2589 101.64 28.4162 102.159C28.7035 102.218 28.8909 102.151 29.1786 102.09L30.1556 101.997C30.2245 102.19 30.2927 102.326 30.2841 102.531C30.7984 102.859 34.0878 102.701 34.9614 102.866C34.2801 102.909 33.5982 102.941 32.9158 102.964C32.0208 102.832 28.6657 102.887 27.7407 103.088C27.6373 102.95 27.6378 102.855 27.6092 102.685C28.0366 102.008 28.4993 100.799 28.7191 100.525Z" fill="#66210B"/>
<path d="M32.2085 96.666C32.3692 96.9387 32.7378 97.0425 33.0515 97.1797C32.3321 97.9847 30.426 99.9869 29.87 100.747C29.7659 100.928 29.5449 101.289 29.4767 101.467C29.1563 101.661 29.2492 101.546 29.1281 101.9L29.1786 102.09C28.8909 102.151 28.7035 102.218 28.4162 102.159C28.2589 101.64 28.8522 101.118 28.7191 100.525C29.3932 99.3764 31.4017 98.0662 32.2085 96.666Z" fill="#6C280E"/>
<path d="M50.5216 88.8929C51.156 89.4939 52.5917 89.1635 53.6137 89.2634C54.2596 89.2588 55.0127 89.2069 55.6661 89.1766C56.0014 89.4262 56.1685 89.5198 56.5366 89.7171L56.9955 89.7382C56.6311 89.8278 56.3273 89.8476 56.1095 90.1273C56.891 90.4638 57.4902 90.7432 58.2425 91.1394C58.6604 90.9477 59.1708 90.6954 59.5887 90.5279L59.6895 91.3438C59.2963 91.5338 58.898 91.7133 58.4953 91.8822L57.8874 91.8562C57.9914 94.5319 58.0129 98.6059 57.9012 101.229L56.8282 100.726L56.5181 101.065C56.2672 101.064 56.1465 101.078 55.9172 101.182L54.5578 100.796L54.5995 101.106L54.4438 101.298C51.7904 100.988 49.3554 100.572 46.6304 101.033C45.6932 101.012 43.7685 101.563 42.7129 101.793C40.6846 101.881 38.6546 101.927 36.6243 101.932C34.6592 101.93 32.0744 101.868 30.1556 101.997L29.1786 102.09L29.1281 101.9C29.2492 101.546 29.1563 101.661 29.4767 101.467C29.5449 101.289 29.7659 100.928 29.87 100.747C30.426 99.9869 32.3321 97.9847 33.0515 97.1797C33.1789 97.0525 33.4644 96.7081 33.6313 96.7324C36.3261 97.1251 37.4466 97.219 39.7649 95.5057C39.8658 95.3707 40.4092 94.9259 40.5707 94.7881C40.7673 94.6126 40.7921 94.551 40.9326 94.3236L41.8765 92.6699C41.6313 91.6917 42.1805 91.7575 42.2675 91.0297L42.3828 90.7973C42.3178 90.5418 42.4641 89.7345 42.6143 89.5164C42.6724 89.6962 42.6408 89.6284 42.7849 89.7716C44.0024 89.7201 45.5527 89.5149 46.7595 89.3099C46.8352 89.8266 46.7454 89.7326 47.052 90.0738C47.4352 90.1694 47.7097 90.1723 48.1016 90.1928L48.5066 90.1893C49.0572 89.9917 49.1545 89.8549 49.4302 89.3836C49.5865 89.1091 50.2308 88.9691 50.5216 88.8929Z" fill="#FCFCFC"/>
<path d="M29.4767 101.467C38.8009 101.533 45.3144 98.4758 54.5578 100.796L54.5995 101.106L54.4438 101.298C51.7904 100.988 49.3554 100.572 46.6304 101.033C45.6932 101.012 43.7685 101.563 42.7129 101.793C40.6846 101.881 38.6546 101.927 36.6243 101.932C34.6592 101.93 32.0744 101.868 30.1556 101.997L29.1786 102.09L29.1281 101.9C29.2492 101.546 29.1563 101.661 29.4767 101.467Z" fill="#D9DAE8"/>
<path d="M29.87 100.747C39.0391 100.899 47.7381 96.8432 56.8282 100.726L56.5181 101.065C56.2672 101.064 56.1465 101.078 55.9172 101.182L54.5578 100.796C45.3144 98.4758 38.8009 101.533 29.4767 101.467C29.5449 101.289 29.7659 100.928 29.87 100.747Z" fill="#6C280E"/>
<path d="M50.5216 88.8929C51.156 89.4939 52.5917 89.1635 53.6137 89.2634C54.2596 89.2588 55.0127 89.2069 55.6661 89.1766C56.0014 89.4262 56.1685 89.5198 56.5366 89.7171L56.9955 89.7382C56.6311 89.8278 56.3273 89.8476 56.1095 90.1273L55.3551 89.8598C54.9092 89.8739 54.3047 89.8604 53.8971 90.0018L54.0234 90.0122C53.6721 90.0552 53.4309 90.0928 53.075 90.075L52.8978 90.338C51.6814 90.1373 49.7801 90.187 48.5066 90.1893C49.0572 89.9917 49.1545 89.8549 49.4302 89.3836C49.5865 89.1091 50.2308 88.9691 50.5216 88.8929Z" fill="#6C280E"/>
<path d="M50.5216 88.8929C51.156 89.4939 52.5917 89.1635 53.6137 89.2634C53.1015 89.3484 49.9072 89.453 49.4302 89.3836C49.5865 89.1091 50.2308 88.9691 50.5216 88.8929Z" fill="#B5A8A7"/>
<path d="M56.5366 89.7171L56.9955 89.7382C56.6311 89.8278 56.3273 89.8476 56.1095 90.1273L55.3551 89.8598C55.6435 89.727 56.1964 89.7336 56.5366 89.7171Z" fill="#B5A8A7"/>
<path d="M41.8765 92.6699C41.6313 91.6917 42.1805 91.7575 42.2675 91.0297C42.9485 92.0213 43.5598 95.1878 42.8985 96.1603C42.6645 95.9855 42.6487 95.9395 42.5236 95.673L42.1407 95.5744L42.0594 95.5083L42.2103 94.8956C41.7197 94.7132 41.3842 94.6026 40.9326 94.3236L41.8765 92.6699Z" fill="#6C280E"/>
<path d="M41.8765 92.6699C42.3099 93.3353 42.2201 94.1016 42.2103 94.8956C41.7197 94.7132 41.3842 94.6026 40.9326 94.3236L41.8765 92.6699Z" fill="#FCD799"/>
<path d="M52.8978 90.338L53.075 90.075C53.4309 90.0928 53.6721 90.0552 54.0234 90.0122L53.8971 90.0018C54.3047 89.8604 54.9092 89.8739 55.3551 89.8598L56.1095 90.1273C56.891 90.4638 57.4902 90.7432 58.2425 91.1394C58.6604 90.9477 59.1708 90.6954 59.5887 90.5279L59.6895 91.3438C59.2963 91.5338 58.898 91.7133 58.4953 91.8822L57.8874 91.8562C56.4111 91.0095 54.5669 90.5978 52.8978 90.338Z" fill="#66210B"/>
<path d="M42.6143 89.5164C42.6724 89.6962 42.6408 89.6284 42.7849 89.7716C44.0024 89.7201 45.5527 89.5149 46.7595 89.3099C46.8352 89.8266 46.7454 89.7326 47.052 90.0738C47.4352 90.1694 47.7097 90.1723 48.1016 90.1928C46.1517 90.339 44.3169 90.6096 42.3828 90.7973C42.3178 90.5418 42.4641 89.7345 42.6143 89.5164Z" fill="#6C280E"/>
<path d="M40.5707 94.7881C40.7673 94.6126 40.7921 94.551 40.9326 94.3236C41.3842 94.6026 41.7197 94.7132 42.2103 94.8956L42.0594 95.5083L42.1407 95.5744L41.4985 96.1907C41.1711 96.3446 40.7918 96.3089 40.4179 96.3131L40.2595 96.0572C40.2658 95.8677 40.2317 95.8044 40.172 95.629L39.7649 95.5057C39.8658 95.3707 40.4092 94.9259 40.5707 94.7881Z" fill="#E4E9F2"/>
<path d="M40.5707 94.7881C40.7673 94.6126 40.7921 94.551 40.9326 94.3236C41.3842 94.6026 41.7197 94.7132 42.2103 94.8956L42.0594 95.5083C41.4549 95.2637 41.1292 95.0968 40.5707 94.7881Z" fill="var(--fill-0, #7C3121)"/>
<path d="M40.2595 96.0572C40.5938 95.8952 41.2663 95.8421 41.4985 96.1907C41.1711 96.3446 40.7918 96.3089 40.4179 96.3131L40.2595 96.0572Z" fill="#9C5744"/>
<path d="M42.1407 95.5744L42.5236 95.673C42.6487 95.9395 42.6645 95.9855 42.8985 96.1603L42.2896 96.4414C41.8563 96.42 40.7946 96.3937 40.4179 96.3131C40.7918 96.3089 41.1711 96.3446 41.4985 96.1907L42.1407 95.5744Z" fill="#92807C"/>
<path d="M42.1407 95.5744L42.5236 95.673C42.2952 96.1031 42.4043 96.048 42.0278 96.2485C41.8691 96.2328 41.6494 96.2174 41.4985 96.1907L42.1407 95.5744Z" fill="#D9DAE8"/>
<path d="M48.7385 97.9369C48.7944 97.7739 48.8579 97.6136 48.9288 97.4565C49.3347 96.5505 49.7238 95.3256 50.931 95.904L50.9689 96.1017C50.4266 96.6112 49.8835 96.0735 49.4592 96.9356C49.9562 97.7134 52.159 97.1744 53.2923 97.4946C53.4934 97.2978 53.4307 97.3705 53.4643 97.0147C53.9659 96.4766 54.6762 96.5865 55.3247 96.8573C55.4667 97.1221 55.4428 97.0033 55.4404 97.3074L55.6525 97.8145L55.7377 97.9707L55.6636 98.0339C54.9637 98.6382 55.0156 99.3831 54.0534 99.0391C53.7948 98.6951 53.7809 98.5802 53.6703 98.169C52.8365 97.655 51.0622 97.8421 49.655 97.5905C49.5025 97.905 49.6486 98.3461 49.7127 98.746C49.4283 98.7196 48.9981 98.193 48.7385 97.9369Z" fill="#834332"/>
<path d="M53.4643 97.0147C53.9659 96.4766 54.6762 96.5865 55.3247 96.8573C55.4667 97.1221 55.4428 97.0033 55.4404 97.3074C54.8568 97.4092 53.977 97.366 53.4643 97.0147Z" fill="var(--fill-0, #7C3121)"/>
<path d="M53.2923 97.4946C53.4934 97.2978 53.4307 97.3705 53.4643 97.0147C53.977 97.366 54.8568 97.4092 55.4404 97.3074L55.6525 97.8145C54.7711 97.7216 54.1597 97.9841 53.2923 97.4946Z" fill="#D9DAE8"/>
<path d="M53.6703 98.169C54.0319 98.142 54.293 98.0725 54.5761 98.2687C54.5898 98.6901 54.3923 98.7747 54.0534 99.0391C53.7948 98.6951 53.7809 98.5802 53.6703 98.169Z" fill="#D5C4BE"/>
<path d="M36.9941 98.0676C37.6886 97.5381 38.5084 98.2083 39.1053 97.9159C39.6903 97.8863 40.1798 97.8142 40.7196 98.0682L40.9146 98.3038C41.0272 98.0871 40.1012 99.0971 40.2499 98.9677C39.6364 99.0899 37.3299 99.2803 36.7621 99.0797L36.666 98.8021C36.7852 98.5904 36.8978 98.297 36.9941 98.0676Z" fill="#D9DAE8"/>
<path d="M36.666 98.8021C37.1086 98.6587 39.8615 98.6999 40.2499 98.9677C39.6364 99.0899 37.3299 99.2803 36.7621 99.0797L36.666 98.8021Z" fill="#834332"/>
<path d="M36.9941 98.0676C37.6886 97.5381 38.5084 98.2083 39.1053 97.9159L39.1784 98.2237C38.6209 97.956 37.8097 98.5298 36.9941 98.0676Z" fill="#92807C"/>
<path d="M39.1053 97.9159C39.6903 97.8863 40.1798 97.8142 40.7196 98.0682C40.315 98.308 39.649 98.2605 39.1784 98.2237L39.1053 97.9159Z" fill="#834332"/>
<path d="M51.9213 91.0112C52.3343 91.1194 52.7387 91.226 53.1424 91.3659C53.6426 91.5393 54.4141 92.206 54.938 92.1808C55.1291 91.9797 55.1602 91.945 55.3902 91.7941L55.6189 91.9133C55.81 92.2558 55.7537 92.4611 55.7128 92.8533C55.0043 93.1454 54.8959 92.551 54.37 92.5365C53.7635 92.5196 52.9385 92.6895 52.3162 92.6348C51.9889 92.606 51.9031 92.4454 51.7396 92.2276C51.6101 91.7857 51.7743 91.4529 51.9213 91.0112Z" fill="#834332"/>
<path d="M52.0501 91.6326C52.6844 91.6148 53.5093 91.6823 53.8212 92.2591C53.139 92.2147 52.5588 92.4337 52.0744 92.0191L52.0501 91.6326Z" fill="#D5C4BE"/>
<path d="M46.9262 95.459L47.1544 95.4109L47.2969 95.5783L47.2518 95.9022C46.7195 96.02 45.23 96.6599 44.6711 96.5189C44.5827 96.4966 44.6487 96.2959 44.2887 96.1778C44.1185 96.4453 43.9926 96.6211 43.802 96.8724C43.5147 96.6286 43.4842 96.5952 43.4085 96.228C43.6066 95.7481 44.3798 95.4439 44.845 95.5754C44.9331 95.7696 45.0663 96.2165 45.2842 96.031C45.9339 95.4783 46.0705 95.4517 46.9262 95.459Z" fill="#834332"/>
<path d="M47.4111 92.3054C47.133 91.8718 47.1047 91.9824 47.1701 91.5808C47.6799 90.9436 48.8904 90.8593 49.0903 91.7761C48.8103 92.7042 48.3581 92.8225 47.559 92.4615L47.4111 92.3054Z" fill="#9C5744"/>
<path d="M47.4111 92.3054C47.6927 91.8664 47.5554 91.9568 47.9929 91.7347L48.1978 91.7958C48.1743 92.2336 47.9274 92.2851 47.559 92.4615L47.4111 92.3054Z" fill="#D9DAE8"/>
<path d="M44.1376 91.3257C44.6326 91.3297 44.8357 91.2934 45.1824 91.5382L45.2169 91.814C45.0047 92.2867 44.867 92.3901 44.4858 92.7521L42.9223 92.2044C43.3011 91.9122 43.7452 91.6082 44.1376 91.3257Z" fill="#9C5744"/>
<path d="M34.6121 98.7811C34.1379 98.99 33.5815 99.263 33.0834 99.3697L33.0949 99.2355C33.6627 98.6984 33.6484 98.8517 34.2537 98.5004C34.2049 98.259 34.1917 98.1824 34.1841 97.9371C34.5511 97.866 34.6431 98.0008 35.047 98.1924L35.2131 98.3222C35.3633 98.5926 35.5096 98.8773 35.4204 99.171C34.9969 99.1422 35.0176 99.0622 34.6121 98.7811Z" fill="#834332"/>
<path d="M45.0294 97.3095L45.2925 97.4479L45.2576 97.6086C44.557 97.996 44.0851 98.0814 43.2717 98.052C43.1398 98.0472 42.9287 98.2638 42.7962 98.3713C42.6378 98.3227 42.5228 98.2551 42.3746 98.1809L42.3286 97.9964C42.8549 97.3032 44.0824 97.9371 45.0294 97.3095Z" fill="#834332"/>
<path d="M55.0443 94.0149C55.4708 94.1094 55.8323 94.3896 55.9075 94.826C55.6943 95.287 55.7149 95.17 55.2162 95.4844C55.0413 95.6535 55.1436 95.5919 54.8855 95.6496C54.7506 95.3067 55.0133 95.0286 55.027 94.5206L55.0443 94.0149Z" fill="#834332"/>
<path d="M48.8581 93.714C49.3176 93.9048 49.2856 93.8131 49.5428 94.1641C49.4628 94.5804 49.4321 94.5046 49.1029 94.8674C48.7594 94.7933 48.5356 94.6563 48.3591 94.3601C48.4766 93.9252 48.4517 94.0474 48.8581 93.714Z" fill="#9C5744"/>
<path d="M51.3672 93.9019C51.7442 93.8413 51.7887 93.8465 52.1447 93.985C52.4014 94.2906 52.3613 94.1535 52.3358 94.4953C51.9627 94.8372 51.4116 94.6311 51.091 94.3173L51.3672 93.9019Z" fill="#AF644C"/>
<path d="M47.0384 97.0033C47.3143 97.167 47.2259 97.0719 47.3658 97.371L47.2432 97.6856C46.7502 97.9263 46.9072 97.8595 46.257 97.6821L45.9528 97.6777L45.9489 97.546C46.1402 97.3145 46.4937 97.359 46.9616 97.0541L47.0384 97.0033Z" fill="#834332"/>
<path d="M44.7538 94.0984C45.0905 94.0963 45.2128 94.1098 45.5451 94.1663C45.7944 94.4702 45.7218 94.3725 45.7254 94.8431C45.3469 94.8263 45.0717 94.8448 44.7392 94.6637C44.6228 94.3567 44.649 94.4725 44.7538 94.0984Z" fill="#AF644C"/>
<path d="M47.3876 94.1368L47.6664 94.1491L47.7468 94.2837C47.4741 94.5685 47.0116 94.5928 46.6149 94.6435L46.4699 94.6865L46.4855 94.4784C46.9137 94.1325 46.7914 94.2333 47.3876 94.1368Z" fill="#9C5744"/>
<path d="M50.4652 94.6259C50.3289 94.7298 50.4056 94.6874 50.1793 94.6805C49.9621 94.351 49.9049 94.0247 50.0832 93.6642L50.283 93.6127L50.4792 93.8598L50.4652 94.6259Z" fill="#9C5744"/>
<path d="M50.4792 93.8598C50.7033 93.8691 51.1634 93.876 51.3672 93.9019L51.091 94.3173L51.0014 94.5523L50.6644 94.4474L50.4652 94.6259L50.4792 93.8598Z" fill="#E4E9F2"/>
<path d="M53.4154 94.4637L53.5321 94.3922C53.8238 94.5821 54.1443 94.6322 54.4865 94.7174L54.4664 94.9002C54.0466 94.8432 53.6782 94.9138 53.34 94.744L53.4154 94.4637Z" fill="#795658"/>
<path d="M35.047 98.1924C35.4887 97.9245 35.3528 97.9255 35.8236 97.9199L35.8609 98.0621C35.5939 98.257 35.5406 98.262 35.2131 98.3222L35.047 98.1924Z" fill="#92807C"/>
<path d="M57.8874 91.8562L58.4953 91.8822C58.3653 92.7135 58.3973 100.885 58.5675 101.291L58.4933 101.424L58.9066 101.76C59.8041 101.413 60.8226 101.134 61.8112 100.755C62.0143 100.884 62.1743 100.964 62.3242 101.153C64.3377 100.864 67.5775 100.979 69.6417 101.141C70.5885 101.189 71.3819 101.121 72.0836 101.826C70.182 102.089 67.8826 101.792 66.0832 101.941C64.5771 102.052 63.1102 102.061 61.601 102.027C61.3721 102.022 61.1556 102.407 61.0631 102.579L60.9167 102.531L60.8761 102.423C60.4282 102.871 59.9602 102.78 59.2526 102.81L60.1073 102.886L59.6673 103.044L59.7496 103.198C59.2955 103.219 57.9151 103.109 57.6809 103.303C57.305 103.333 56.8496 103.338 56.4661 103.352L56.1813 103.347L55.4319 103.174L54.9602 102.853C55.2044 102.556 55.1594 102.683 55.2141 102.35C55.0053 102.085 54.8703 102.061 54.5592 101.932L54.5858 101.705C54.1557 101.48 47.6409 101.2 46.6998 101.178L46.6304 101.033C49.3554 100.572 51.7904 100.988 54.4438 101.298L54.5995 101.106L54.5578 100.796L55.9172 101.182C56.1465 101.078 56.2672 101.064 56.5181 101.065L56.8282 100.726L57.9012 101.229C58.0129 98.6059 57.9914 94.5319 57.8874 91.8562Z" fill="var(--fill-0, #7C3121)"/>
<path d="M69.6417 101.141C70.5885 101.189 71.3819 101.121 72.0836 101.826C70.182 102.089 67.8826 101.792 66.0832 101.941C64.7876 101.905 62.6421 101.895 61.4327 101.7C63.374 101.396 65.1067 101.457 67.0645 101.408C67.86 101.388 68.7131 101.45 69.4932 101.347L69.6417 101.141Z" fill="#B5A8A7"/>
<path d="M59.2526 102.81C58.6446 102.788 56.6162 102.73 56.1224 102.555C57.9409 102.296 59.0428 102.364 60.8761 102.423C60.4282 102.871 59.9602 102.78 59.2526 102.81Z" fill="#7B604B"/>
<path d="M58.9066 101.76C59.8041 101.413 60.8226 101.134 61.8112 100.755C62.0143 100.884 62.1743 100.964 62.3242 101.153C61.0337 101.483 60.3559 102.021 58.9066 101.76Z" fill="#B5A8A7"/>
<path d="M54.5578 100.796L55.9172 101.182C56.2487 101.293 56.9995 101.487 57.1779 101.752C56.743 101.993 54.9175 101.527 54.4438 101.298L54.5995 101.106L54.5578 100.796Z" fill="#B5A8A7"/>
<path d="M61.8112 100.755C68.0308 99.3964 70.9366 99.6929 77.2769 100.649C78.432 100.823 81.5835 101.28 82.6054 101.221C83.1985 100.841 83.9115 101.14 85.1814 100.728L86.6508 100.793C86.8808 101.079 87.0617 101.138 86.962 101.472C87.3981 101.537 87.2701 101.455 87.496 101.737C87.1994 102.093 86.1196 102.008 85.6544 101.987C81.1718 101.793 76.5553 102.077 72.0836 101.826C71.3819 101.121 70.5885 101.189 69.6417 101.141C67.5775 100.979 64.3377 100.864 62.3242 101.153C62.1743 100.964 62.0143 100.884 61.8112 100.755Z" fill="#D9DAE8"/>
<path d="M85.1814 100.728L86.6508 100.793C86.8808 101.079 87.0617 101.138 86.962 101.472C85.5075 101.495 84.0515 101.358 82.6054 101.221C83.1985 100.841 83.9115 101.14 85.1814 100.728Z" fill="#6C1E12"/>
<path d="M58.5675 101.291C64.9771 97.7526 72.8816 99.3358 79.7081 100.225C81.5271 100.448 83.3524 100.615 85.1814 100.728C83.9115 101.14 83.1985 100.841 82.6054 101.221C81.5835 101.28 78.432 100.823 77.2769 100.649C70.9366 99.6929 68.0308 99.3964 61.8112 100.755C60.8226 101.134 59.8041 101.413 58.9066 101.76L58.4933 101.424L58.5675 101.291Z" fill="#6C280E"/>
<path d="M64.7856 89.1148C64.877 88.8614 64.8777 88.8488 65.0651 88.6617L65.2251 88.7852L65.3318 89.0762C65.6928 89.1743 67.6858 89.1586 68.088 89.1144C69.106 89.2471 69.9788 89.2123 70.9466 89.303C72.2998 89.4299 73.9781 89.622 75.3147 89.8544C75.1606 90.3229 74.9056 90.5158 74.5494 90.864C74.1383 90.647 73.5483 90.5962 73.0788 90.5425C68.6832 90.0398 63.8911 89.7137 59.6895 91.3438L59.5887 90.5279C60.8862 89.9516 62.2651 89.6618 63.6517 89.3944C64.0423 89.319 64.4269 89.3037 64.7856 89.1148Z" fill="#72290E"/>
<path d="M74.0041 93.2971C74.024 93.8287 74.2479 94.327 74.5815 94.7377C73.9113 95.0517 73.8331 94.9952 73.1428 94.7355C72.7456 94.145 72.8842 93.8404 73.4303 93.4123L74.0041 93.2971Z" fill="#834332"/>
<path d="M72.3235 93.613C72.7827 93.7846 72.6901 93.2731 73.4303 93.4123C72.8842 93.8404 72.7456 94.145 73.1428 94.7355C72.9391 94.7962 72.5675 94.9195 72.3717 94.9463C72.2344 94.4155 72.2795 94.1656 72.3235 93.613Z" fill="#E4E9F2"/>
<path d="M78.1834 96.9745L78.4991 97.0355C78.528 97.529 78.8377 97.9179 79.1089 98.337L79.0465 98.542L78.8159 98.5683C77.9905 98.159 77.966 97.7907 78.1834 96.9745Z" fill="#834332"/>
<path d="M72.3717 94.9463C72.0358 94.9127 71.8537 94.9257 71.5954 94.6992C71.4091 94.1663 71.5938 93.7056 72.0961 93.4328L72.3235 93.613C72.2795 94.1656 72.2344 94.4155 72.3717 94.9463Z" fill="#9C5744"/>
<path d="M81.058 97.3714L81.4928 97.3797L81.4429 97.592C81.118 97.7458 81.2066 97.7237 81.0115 98.1153C80.4044 98.1667 79.9629 98.4791 79.5541 98.3473L79.5487 98.1563C79.8737 97.838 80.3304 97.9022 80.8532 97.8705C81.0917 97.666 81.0212 97.7692 81.058 97.3714Z" fill="#795658"/>
<path d="M81.0115 98.1153C81.2066 97.7237 81.118 97.7458 81.4429 97.592C81.8657 97.7601 82.1518 97.7803 82.3562 98.1016C82.0333 98.3057 81.3843 98.1808 81.0115 98.1153Z" fill="var(--fill-0, #7C3121)"/>
<path d="M65.0183 95.4995C65.7615 95.3752 68.2643 94.9074 68.8416 95.3184C68.564 95.7155 67.2816 96.1766 66.8174 96.2892C66.305 96.4135 65.5899 96.0193 65.0892 95.7941L65.0183 95.4995Z" fill="#834332"/>
<path d="M60.8429 91.3811C60.9418 91.468 61.0441 91.5508 61.1497 91.6294C62.3582 92.5169 64.0217 91.2627 64.758 91.8405C64.4572 92.2017 63.9284 92.1388 63.5217 92.0804C62.2002 92.2457 61.7242 92.8124 60.515 92.9545C60.4329 92.9641 60.3454 92.8094 60.284 92.7318C60.2375 92.2558 60.6053 91.8041 60.8429 91.3811Z" fill="#9C5744"/>
<path d="M68.4765 91.0188C69.2163 90.9448 70.1846 91.1958 70.344 92.0317L70.1955 92.2233C69.7758 92.3501 69.6259 92.3447 69.1923 92.3629C68.4444 92.413 67.6627 92.4161 67.5994 91.4653L67.7653 91.3591C68.0119 91.4652 68.1063 91.5962 68.2895 91.7886L68.4621 91.7092C68.3964 91.3867 68.3748 91.3283 68.4765 91.0188Z" fill="#834332"/>
<path d="M68.9313 91.1438C69.1058 91.1833 69.2219 91.2543 69.3799 91.3352C69.4988 91.6414 69.4743 91.5231 69.3221 91.9174L68.6981 91.7286L68.6397 91.5611L68.9313 91.1438Z" fill="#E4E9F2"/>
<path d="M60.8628 97.3099C61.4386 97.5413 61.249 97.4222 61.6454 97.9751C62.1981 98.1614 62.7222 97.452 63.159 97.8897C62.9114 98.1419 62.9399 98.0763 62.5641 98.1878C61.9042 98.4289 60.6581 99.0721 60.174 98.2884C60.2189 97.9072 60.6007 97.5602 60.8628 97.3099Z" fill="#834332"/>
<path d="M69.9991 97.3558C70.4297 97.2987 70.7554 97.3675 71.1739 97.4545C71.7838 97.5814 72.4605 97.0814 73.015 97.4474C73.1301 97.8329 73.0926 97.7273 72.9496 98.1689C72.5946 98.1686 72.1223 97.8663 72.1003 97.8679C71.488 97.9147 70.1852 98.1745 69.9991 97.3558Z" fill="#9C5744"/>
<path d="M64.3976 95.9074C64.0987 96.0796 63.5855 96.255 63.2309 96.2584C62.8704 96.1075 62.9811 96.2105 62.8046 95.8806C63.098 95.0017 63.9446 95.3837 64.5914 95.585L64.3976 95.9074Z" fill="#9C5744"/>
<path d="M69.3214 94.9881C69.8663 95.1085 70.1324 95.1012 70.6378 95.3489C70.8375 95.6866 70.767 95.6371 70.7213 96.1055C69.8661 96.2408 69.3131 95.894 69.3214 94.9881Z" fill="var(--fill-0, #7C3121)"/>
<path d="M66.233 94.0914C66.0469 94.4421 65.704 94.6434 65.315 94.6798C64.9241 94.5138 65.0486 94.6265 64.8443 94.259C64.9015 93.8809 64.8292 94.0217 65.1537 93.74C65.6035 93.6129 65.7124 93.651 66.176 93.7328L66.233 94.0914Z" fill="#944F1E"/>
<path d="M71.541 90.9359L71.6926 91.0525C71.8671 91.5086 72.241 92.0199 72.1889 92.3598L72.0059 92.4518L71.8856 92.3044C71.4282 92.001 71.3126 92.1027 70.8197 91.8651C70.8475 91.5427 71.2701 91.2163 71.541 90.9359Z" fill="var(--fill-0, #7C3121)"/>
<path d="M73.8526 97.0073C74.7859 97.1267 74.8896 97.8381 74.4195 98.5305C74.1204 98.2733 73.832 98.0617 73.6383 97.7186C73.5896 97.2839 73.5819 97.4349 73.8526 97.0073Z" fill="#834332"/>
<path d="M68.2687 96.7772C68.4768 96.8052 68.591 96.8501 68.7864 96.9152C69.1122 97.2258 69.1766 97.7248 69.283 98.1725C68.2665 98.1821 68.1333 97.6473 68.2687 96.7772Z" fill="var(--fill-0, #7C3121)"/>
<path d="M68.9961 93.3778C69.7194 93.6746 69.872 93.9676 69.7862 94.6914C69.3769 94.5541 69.3223 94.534 69.0331 94.2106C68.8777 93.8226 68.8845 93.7728 68.9961 93.3778Z" fill="#9C5744"/>
<path d="M66.3555 90.9453C66.7191 91.2705 66.6179 91.1073 66.7582 91.5555C66.7132 91.9231 66.6804 91.959 66.4227 92.2288C66.1467 92.0101 66.0989 91.9717 65.9015 91.6818C65.9517 91.2621 66.0093 91.3245 66.3555 90.9453Z" fill="#9C5744"/>
<path d="M64.7025 97.3431C64.7444 97.3504 64.9382 97.4537 64.9903 97.48L64.9588 97.6658C64.6246 97.9921 64.5122 97.9909 64.0479 98.0776C63.8316 97.9477 63.7892 97.9124 63.602 97.7421C63.6905 97.5716 64.3807 97.4511 64.7025 97.3431Z" fill="#834332"/>
<path d="M81.1852 98.7574C81.7534 98.7128 82.6002 98.6566 83.1322 98.8581L83.1396 99.1063C82.5852 99.0981 81.5161 99.2104 81.1852 98.7574Z" fill="#834332"/>
<path d="M66.2459 97.3344C66.6689 97.2968 67.0252 97.1962 67.2943 97.5444L67.225 97.9573C67.0373 97.9651 66.8706 97.9289 66.6852 97.8993C66.3113 97.614 66.426 97.7638 66.2459 97.3344Z" fill="#9C5744"/>
<path d="M63.2099 93.6777C63.593 93.7902 63.766 93.8358 63.8734 94.2041L63.7146 94.491L63.0571 94.2664L62.9716 94.0628L63.2099 93.6777Z" fill="#AF644C"/>
<path d="M75.7611 97.8068C76.3687 97.6955 76.6263 97.7329 77.1272 98.0923C76.4157 98.2154 76.2605 98.3421 75.7611 97.8068Z" fill="#AF644C"/>
<path d="M61.5173 94.1094C61.8729 94.0763 62.2048 94.0067 62.5181 94.1748L62.5423 94.4205C62.0394 94.5321 62.0356 94.617 61.6211 94.4716L61.5173 94.1094Z" fill="var(--fill-0, #7C3121)"/>
<path d="M66.176 93.7328C66.5703 93.7545 66.7234 93.6993 67.0246 93.8861C66.6185 94.0879 66.4928 93.9825 66.233 94.0914L66.176 93.7328Z" fill="#AF857D"/>
<path d="M70.9082 93.7114C71.0338 93.6441 71.1901 93.6916 71.2572 93.8173C71.3243 93.943 71.2766 94.0992 71.1509 94.1661C71.0253 94.2329 70.8694 94.1854 70.8024 94.0599C70.7355 93.9345 70.7828 93.7785 70.9082 93.7114Z" fill="#834332"/>
<path d="M64.5914 95.585L65.0183 95.4995L65.0892 95.7941C64.8815 95.8238 64.5926 95.8546 64.3976 95.9074L64.5914 95.585Z" fill="#AF857D"/>
<path d="M67.7181 93.82L67.9558 93.7139L68.0824 93.8977L67.838 94.0236L67.7181 93.82Z" fill="#AF857D"/>
<path d="M67.7238 19.0544C71.3744 22.196 77.3824 22.9953 81.9183 21.6766C84.7108 25.9783 87.2508 26.8983 91.8633 28.3076C90.8877 31.4906 90.4255 34.8432 89.5341 38.0521C89.4756 38.263 89.3596 38.3194 89.1959 38.4275C89.4266 38.9158 89.4129 38.716 89.3026 39.2299C89.1177 40.2363 88.4753 45.7494 87.8972 45.8957C83.3581 47.043 76.6737 46.0836 72.1996 45.1848C66.4594 44.1053 58.3138 42.3805 53.7077 38.6622C54.2035 36.7202 54.8666 33.876 55.4662 31.9868C55.3838 31.8561 55.423 31.844 55.45 31.6449C55.8217 30.7633 56.0764 29.583 56.3562 28.6385C57.043 26.3201 57.5692 24.0196 58.0913 21.6612C58.1143 21.2697 58.0845 20.8873 58.2994 20.5831C58.9086 20.5214 59.7851 20.9081 60.4594 20.9699C62.793 21.1839 65.7401 20.1913 67.7238 19.0544Z" fill="#FCFCFC"/>
<path d="M53.7077 38.6622C54.2035 36.7202 54.8666 33.876 55.4662 31.9868C58.0161 33.359 65.4112 35.7087 68.3385 36.3692C70.0931 36.8188 73.2673 37.5214 75.0677 37.7006L75.2885 37.6465L75.2866 37.4229L75.6406 37.2095C76.079 37.4146 76.2083 37.4225 76.7028 37.2415C76.7807 37.2132 76.8582 37.1836 76.9352 37.1528C77.3759 37.1977 77.8077 37.2332 78.2415 37.3256C79.0082 37.4636 80.624 37.8182 81.3044 37.5572C81.6126 37.592 81.6507 37.6398 81.8864 37.848C82.8077 37.9167 85.256 38.321 85.9906 38.0931L86.1368 37.7692C86.5585 37.8402 86.6096 37.816 86.7553 38.2687C87.349 38.3274 88.8132 38.3206 89.1959 38.4275C89.4266 38.9158 89.4129 38.716 89.3026 39.2299C89.1177 40.2363 88.4753 45.7494 87.8972 45.8957C83.3581 47.043 76.6737 46.0836 72.1996 45.1848C66.4594 44.1053 58.3138 42.3805 53.7077 38.6622Z" fill="#FCFCFC"/>
<path d="M83.4551 38.8874C84.4811 38.9964 88.8507 39.0331 89.3026 39.2299C89.1177 40.2363 88.4753 45.7494 87.8972 45.8957C83.3581 47.043 76.6737 46.0836 72.1996 45.1848C74.0105 44.3106 80.8375 45.0746 82.3896 43.9375C83.2142 43.3333 83.3059 39.9762 83.4551 38.8874Z" fill="#D9DAE8"/>
<path d="M76.9352 37.1528C77.3759 37.1977 77.8077 37.2332 78.2415 37.3256C79.0082 37.4636 80.624 37.8182 81.3044 37.5572C81.6126 37.592 81.6507 37.6398 81.8864 37.848C82.8077 37.9167 85.256 38.321 85.9906 38.0931L86.1368 37.7692C86.5585 37.8402 86.6096 37.816 86.7553 38.2687C87.349 38.3274 88.8132 38.3206 89.1959 38.4275C89.4266 38.9158 89.4129 38.716 89.3026 39.2299C88.8507 39.0331 84.4811 38.9964 83.4551 38.8874C80.9284 38.5869 77.5177 38.308 75.0677 37.7006L75.2885 37.6465L75.2866 37.4229L75.6406 37.2095C76.079 37.4146 76.2083 37.4225 76.7028 37.2415C76.7807 37.2132 76.8582 37.1836 76.9352 37.1528Z" fill="#6C280E"/>
<path d="M67.7238 19.0544C71.3744 22.196 77.3824 22.9953 81.9183 21.6766C84.7108 25.9783 87.2508 26.8983 91.8633 28.3076C90.8877 31.4906 90.4255 34.8432 89.5341 38.0521C89.4756 38.263 89.3596 38.3194 89.1959 38.4275C88.8132 38.3206 87.349 38.3274 86.7553 38.2687C86.6096 37.816 86.5585 37.8402 86.1368 37.7692L85.9906 38.0931C85.256 38.321 82.8077 37.9167 81.8864 37.848C81.8025 37.357 82.6448 33.2835 82.8176 32.4026L82.6139 32.1901L82.4505 31.9388L81.997 31.9352C82.4169 31.0963 83.2037 27.676 83.6398 26.3966C82.5624 25.3615 81.5294 24.0693 80.8569 22.7355C78.5318 23.4178 73.8415 23.0446 71.5306 22.1176C70.9159 21.8724 70.3165 21.5904 69.7359 21.273C69.4503 21.113 67.921 19.9543 67.7214 20.0512C65.5734 21.0951 63.0797 21.8792 60.6703 21.8459C59.7552 21.8333 59.0585 21.5662 58.0913 21.6612C58.1143 21.2697 58.0845 20.8873 58.2994 20.5831C58.9086 20.5214 59.7851 20.9081 60.4594 20.9699C62.793 21.1839 65.7401 20.1913 67.7238 19.0544Z" fill="#D9DAE8"/>
<path d="M83.9723 26.7109C84.7399 27.509 85.5501 28.0852 86.4296 28.7477C85.9383 30.6979 85.439 32.6458 84.8773 34.577C84.6968 35.1979 84.4937 36.3053 84.2721 36.8364C83.4985 37.0365 82.3117 37.2265 81.9552 37.8036C81.9323 37.8184 81.9093 37.8332 81.8864 37.848C81.8025 37.357 82.6448 33.2835 82.8176 32.4026C83.0609 30.3484 83.88 28.6198 83.9723 26.7109Z" fill="#FCFCFC"/>
<path d="M87.6628 31.4263C87.8908 33.4366 87.1502 36.2255 86.7553 38.2687C86.6096 37.816 86.5585 37.8402 86.1368 37.7692C86.6531 35.6559 87.3035 33.5681 87.6628 31.4263Z" fill="#834332"/>
<path d="M59.5103 27.6433L59.83 27.6977C59.4997 29.4039 58.9851 31.3011 58.7143 32.9334C59.9305 33.2851 61.2638 33.6481 62.4318 34.1166C62.8702 32.508 63.3171 30.9016 63.7723 29.2977C63.8586 29.1908 64.1217 28.9782 64.2387 28.8775C64.0627 29.9556 63.2374 33.1455 62.8795 34.2375C64.1395 34.5778 65.2814 34.8874 66.5638 35.1451C67.9832 34.7765 67.5031 34.1592 68.6227 33.7049C68.8621 32.8452 69.1224 32.0807 69.3112 31.2004C69.4875 31.1861 69.5485 31.1455 69.6555 31.2247C69.4815 31.9767 68.6017 35.3417 68.7941 35.7841L69.2677 36.0931L69.2208 36.188C68.9782 36.2344 68.5606 36.3008 68.3385 36.3692C65.4112 35.7087 58.0161 33.359 55.4662 31.9868C55.3838 31.8561 55.423 31.844 55.45 31.6449C56.069 31.8282 56.4344 31.9652 57.0219 32.2077C57.9163 31.7708 57.9309 31.3341 58.6014 30.9118C58.8753 30.3416 59.3502 28.3438 59.5103 27.6433Z" fill="#6C1E12"/>
<path d="M66.5638 35.1451C67.9832 34.7765 67.5031 34.1592 68.6227 33.7049C68.5161 34.1768 68.3917 35.0489 68.0792 35.358C67.5621 35.5048 67.132 35.2978 66.5638 35.1451Z" fill="#E4E9F2"/>
<path d="M57.0219 32.2077C57.9163 31.7708 57.9309 31.3341 58.6014 30.9118L58.1838 32.7037C57.8117 32.5382 57.4009 32.3446 57.0219 32.2077Z" fill="#E4E9F2"/>
<path d="M81.997 31.9352L82.4505 31.9388L82.6139 32.1901L82.8176 32.4026C82.6448 33.2835 81.8025 37.357 81.8864 37.848C81.6507 37.6398 81.6126 37.592 81.3044 37.5572C80.624 37.8182 79.0082 37.4636 78.2415 37.3256C78.9469 36.7957 79.7758 36.7802 80.6653 36.6494C80.8284 36.1823 81.9153 32.3724 81.997 31.9352Z" fill="#E4E9F2"/>
<path d="M82.6139 32.1901L82.8176 32.4026C82.6448 33.2835 81.8025 37.357 81.8864 37.848C81.6507 37.6398 81.6126 37.592 81.3044 37.5572C81.3337 37.0631 82.3382 32.612 82.6139 32.1901Z" fill="#834332"/>
<path d="M68.7941 35.7841C70.6424 36.0699 72.4228 36.523 74.2936 36.7754L74.9404 36.9988C75.2463 37.1397 75.3076 37.1547 75.6406 37.2095L75.2866 37.4229L75.2885 37.6465L75.0677 37.7006C73.2673 37.5214 70.0931 36.8188 68.3385 36.3692C68.5606 36.3008 68.9782 36.2344 69.2208 36.188L69.2677 36.0931L68.7941 35.7841Z" fill="#6C280E"/>
<path d="M76.9185 29.7965L77.1794 30.2554C77.0033 31.2754 75.8102 36.5502 75.9645 36.9906C76.3578 37.1036 76.5318 37.1146 76.9352 37.1528C76.8582 37.1836 76.7807 37.2132 76.7028 37.2415C76.2083 37.4225 76.079 37.4146 75.6406 37.2095C75.3076 37.1547 75.2463 37.1397 74.9404 36.9988L75.1461 36.8767C75.4442 36.3375 75.7189 34.7936 75.8603 34.1323C76.1912 32.6818 76.544 31.2364 76.9185 29.7965Z" fill="#6C1E12"/>
<path d="M69.3112 31.2004C69.074 30.5247 70.5266 25.481 71.0638 24.8624C70.7937 25.6 70.7893 26.6991 70.5011 27.4605C70.122 28.4621 70.0005 30.2984 69.6555 31.2247C69.5485 31.1455 69.4875 31.1861 69.3112 31.2004Z" fill="#D9DAE8"/>
<path d="M63.7723 29.2977C63.5851 28.6232 64.9693 23.7131 65.2985 23.4392C65.4268 23.6376 64.35 28.314 64.2387 28.8775C64.1217 28.9782 63.8586 29.1908 63.7723 29.2977Z" fill="#D9DAE8"/>
<path d="M74.2936 36.7754C75.0027 35.7099 74.3888 34.6799 75.8603 34.1323C75.7189 34.7936 75.4442 36.3375 75.1461 36.8767L74.9404 36.9988L74.2936 36.7754Z" fill="#E4E9F2"/>
<path d="M59.5103 27.6433C59.6168 26.4445 60.4835 23.4825 61.0632 22.3914C60.6422 24.1579 60.2312 25.9267 59.83 27.6977L59.5103 27.6433Z" fill="#D9DAE8"/>
<path d="M77.0481 29.096C77.1833 28.3587 77.5227 26.6086 77.838 25.9622C77.857 26.7346 77.4497 28.6927 77.2961 29.5132L77.0481 29.096Z" fill="#D9DAE8"/>
<path d="M77.0481 29.096L77.2961 29.5132L77.1794 30.2554L76.9185 29.7965L77.0481 29.096Z" fill="#795658"/>
<path d="M1.18366 104.434C13.8102 104.628 26.7471 104.453 39.3957 104.464L115.752 104.464C115.743 105.352 115.772 106.787 115.601 107.614C114.442 107.752 112.225 107.707 111.019 107.704L103.663 107.688L28.5362 107.701C19.4826 107.706 10.2401 107.81 1.20239 107.686C1.1238 106.412 1.10574 105.715 1.18366 104.434Z" fill="#CB955B"/>
<path d="M97.0501 92.7401C98.0336 92.7018 98.8179 92.6832 99.7987 92.7241C101.49 93.7553 104.08 95.8433 105.771 97.0716C108.298 98.9075 112.573 101.593 114.812 103.596C111.896 103.343 107.97 103.601 104.943 103.524C103.868 103.371 101.374 103.417 100.192 103.416L92.0773 103.415C91.5987 103.415 89.3427 103.458 89.0017 103.347L88.9844 102.963C89.0214 102.518 88.769 102.447 88.653 102.077C88.1027 100.323 86.8736 99.2179 85.5725 97.9975C87.4092 98.0904 88.7777 97.6802 90.309 96.7081C90.463 96.6103 90.9047 96.5865 91.095 96.5928C93.892 95.63 95.21 95.2058 97.0501 92.7401Z" fill="#E6AE6B"/>
<path d="M89.926 78.7964C91.9276 78.1838 95.5349 77.0463 97.4301 76.152C96.9424 77.6022 96.8749 79.0181 95.5436 79.5887C94.2628 80.1378 92.8955 80.6643 91.5851 81.1269C89.4111 81.8945 85.7264 83.4148 83.5465 83.8241C79.7456 84.8107 76.1828 85.7781 72.3228 86.619C70.4448 87.028 68.0977 87.3102 66.3869 87.7163L66.8696 87.8168C66.8121 87.8409 66.5748 87.935 66.5403 87.9621C66.8955 88.3126 67.1924 87.9886 67.6454 88.3113C66.8435 88.4936 66.0364 88.6517 65.2251 88.7852L65.0651 88.6617C64.8777 88.8488 64.877 88.8614 64.7856 89.1148C64.4269 89.3037 64.0423 89.319 63.6517 89.3944C62.2651 89.6618 60.8862 89.9516 59.5887 90.5279C59.1708 90.6954 58.6604 90.9477 58.2425 91.1394C57.4902 90.7432 56.891 90.4638 56.1095 90.1273C56.3273 89.8476 56.6311 89.8278 56.9955 89.7382L56.5366 89.7171C56.1685 89.5198 56.0014 89.4262 55.6661 89.1766C55.0127 89.2069 54.2596 89.2588 53.6137 89.2634C52.5917 89.1635 51.156 89.4939 50.5216 88.8929C53.2799 87.8001 56.7221 86.8969 59.635 85.8564C62.2707 85.164 65.5405 83.4041 68.1673 82.9498C75.4008 81.6985 82.8501 80.835 89.926 78.7964Z" fill="#FCFCFC"/>
<path d="M89.926 78.7964C91.9276 78.1838 95.5349 77.0463 97.4301 76.152C96.9424 77.6022 96.8749 79.0181 95.5436 79.5887C94.2628 80.1378 92.8955 80.6643 91.5851 81.1269C89.4111 81.8945 85.7264 83.4148 83.5465 83.8241C83.5537 83.7583 83.6277 83.2664 83.6618 83.2474C84.9647 82.5238 90.3306 80.7212 90.1836 78.9685L89.926 78.7964Z" fill="#D9DAE8"/>
<path d="M66.3869 87.7163L66.8696 87.8168C66.8121 87.8409 66.5748 87.935 66.5403 87.9621C66.8955 88.3126 67.1924 87.9886 67.6454 88.3113C66.8435 88.4936 66.0364 88.6517 65.2251 88.7852L65.0651 88.6617C64.8777 88.8488 64.877 88.8614 64.7856 89.1148C64.4269 89.3037 64.0423 89.319 63.6517 89.3944C62.2651 89.6618 60.8862 89.9516 59.5887 90.5279C59.1708 90.6954 58.6604 90.9477 58.2425 91.1394C57.4902 90.7432 56.891 90.4638 56.1095 90.1273C56.3273 89.8476 56.6311 89.8278 56.9955 89.7382L56.5366 89.7171C56.1685 89.5198 56.0014 89.4262 55.6661 89.1766C59.4871 88.7368 62.5768 88.4103 66.3869 87.7163Z" fill="#6C280E"/>
<path d="M56.9955 89.7382C59.1936 89.6922 62.2687 89.0247 64.6135 88.8817L64.7856 89.1148C64.4269 89.3037 64.0423 89.319 63.6517 89.3944C62.2651 89.6618 60.8862 89.9516 59.5887 90.5279C59.1708 90.6954 58.6604 90.9477 58.2425 91.1394C57.4902 90.7432 56.891 90.4638 56.1095 90.1273C56.3273 89.8476 56.6311 89.8278 56.9955 89.7382Z" fill="#D1D3D6"/>
<path d="M30.4389 72.9178C36.5024 77.6133 44.7107 80.0905 51.9403 82.3637C52.8084 82.6366 55.9498 84.8316 57.0315 85.4581C55.9967 85.8073 53.4217 86.8647 52.5191 86.5902L52.3205 86.6836L52.3369 87.0063C51.587 87.2878 50.4589 87.5742 49.8416 87.8591C48.7064 88.2807 47.7837 88.646 46.7595 89.3099C45.5527 89.5149 44.0024 89.7201 42.7849 89.7716C42.6408 89.6284 42.6724 89.6962 42.6143 89.5164C42.8791 86.1876 39.6918 86.2625 38.0242 84.8821C37.5391 84.4806 34.6754 80.733 34.6755 80.2069L35.0628 80.1721L35.2149 80.1235C34.979 79.9555 34.744 79.8337 34.6358 79.5786L34.7728 79.4831C34.9924 79.6214 35.0966 79.674 35.3347 79.7777L35.4817 79.6587C32.1478 77.4528 30.496 77.3438 30.4389 72.9178Z" fill="#FCFCFC"/>
<path d="M42.6143 89.5164C42.8791 86.1876 39.6918 86.2625 38.0242 84.8821C37.5391 84.4806 34.6754 80.733 34.6755 80.2069L35.0628 80.1721C35.438 80.8285 41.5046 83.5363 42.5109 83.8075C42.5605 83.8211 42.6105 83.8334 42.6607 83.8446C43.3383 84.8981 43.8768 84.9323 45.071 85.3714C46.5676 85.9577 48.8419 86.5408 49.8416 87.8591C48.7064 88.2807 47.7837 88.646 46.7595 89.3099C45.5527 89.5149 44.0024 89.7201 42.7849 89.7716C42.6408 89.6284 42.6724 89.6962 42.6143 89.5164Z" fill="#FCFCFC"/>
<path d="M35.0628 80.1721L35.2149 80.1235C34.979 79.9555 34.744 79.8337 34.6358 79.5786L34.7728 79.4831C34.9924 79.6214 35.0966 79.674 35.3347 79.7777L35.4817 79.6587C40.5253 81.9321 45.4113 84.3902 50.7578 85.9374C51.0889 86.0333 52.3388 86.4014 52.5191 86.5902L52.3205 86.6836L52.3369 87.0063C51.587 87.2878 50.4589 87.5742 49.8416 87.8591C48.8419 86.5408 46.5676 85.9577 45.071 85.3714C43.8768 84.9323 43.3383 84.8981 42.6607 83.8446C42.6105 83.8334 42.5605 83.8211 42.5109 83.8075C41.5046 83.5363 35.438 80.8285 35.0628 80.1721Z" fill="#6C280E"/>
<path d="M45.071 85.3714L45.1008 85.3148C45.0141 85.1862 45.0358 85.221 44.9846 85.0751C45.1928 85.0478 45.8157 85.1485 46.1994 85.1357L46.2797 85.1323C46.6436 85.1768 52.0166 86.8404 52.3369 87.0063C51.587 87.2878 50.4589 87.5742 49.8416 87.8591C48.8419 86.5408 46.5676 85.9577 45.071 85.3714Z" fill="#DFE1EE"/>
<path d="M42.6607 83.8446C43.4885 84.1149 45.5913 84.7571 46.2797 85.1323L46.1994 85.1357C45.8157 85.1485 45.1928 85.0478 44.9846 85.0751C45.0358 85.221 45.0141 85.1862 45.1008 85.3148L45.071 85.3714C43.8768 84.9323 43.3383 84.8981 42.6607 83.8446Z" fill="#D9DAE8"/>
<path d="M92.9323 81.5963C93.2275 81.6346 93.7017 81.5978 93.7445 81.9854L94.2937 82.8674C95.1663 84.009 95.5509 84.5157 96.1053 85.823C97.6075 89.1289 96.8184 92.7652 93.3659 94.6103C92.5629 95.0395 91.2738 95.1509 90.3684 95.5427C90.3499 95.5047 90.259 93.5185 90.2145 93.1763C89.9368 90.9905 88.5142 88.1393 86.8471 86.6668C87.6239 86.5465 89.8456 86.3408 90.3112 85.8105C90.303 85.3875 90.2649 85.5808 89.989 85.2336C90.0242 85.2778 89.9805 84.6101 89.9673 84.5236C89.5774 84.6147 89.4456 84.891 89.1383 85.2391C87.9974 85.3941 86.9691 85.5489 85.8126 85.5442C83.9984 85.5367 81.423 85.8023 80.2993 87.4208C78.968 87.6554 75.8759 88.5605 75.3147 89.8544C73.9781 89.622 72.2998 89.4299 70.9466 89.303C69.9788 89.2123 69.106 89.2471 68.088 89.1144C67.6858 89.1586 65.6928 89.1743 65.3318 89.0762L65.2251 88.7852C66.0364 88.6517 66.8435 88.4936 67.6454 88.3113C68.544 88.3746 71.7137 87.3508 73.2222 87.4187C73.8258 87.2691 74.2853 87.179 74.8923 87.0764C75.8231 86.7818 77.2116 86.4858 78.1892 86.2459C82.3988 85.1473 87.2687 83.7656 91.2904 82.2288L92.9323 81.5963Z" fill="#FCFCFC"/>
<path d="M96.1053 85.823C97.6075 89.1289 96.8184 92.7652 93.3659 94.6103C92.5629 95.0395 91.2738 95.1509 90.3684 95.5427C90.3499 95.5047 90.259 93.5185 90.2145 93.1763C91.6878 91.593 92.9714 91.9411 94.5262 90.0464C95.7986 88.4958 95.32 86.5589 96.1053 85.823Z" fill="#D9DAE8"/>
<path d="M67.6454 88.3113C68.544 88.3746 71.7137 87.3508 73.2222 87.4187C72.7078 87.6842 72.6283 87.7383 72.2084 88.1358C71.3928 88.1039 70.2357 89.3347 69.6806 88.6111C69.9779 88.5012 70.2746 88.3895 70.5705 88.2762L70.5116 88.1396C68.8382 88.4022 67.6035 88.6534 65.8772 88.8903C66.2569 89.2181 67.6963 88.7001 68.088 89.1144C67.6858 89.1586 65.6928 89.1743 65.3318 89.0762L65.2251 88.7852C66.0364 88.6517 66.8435 88.4936 67.6454 88.3113Z" fill="#D9DAE8"/>
<path d="M74.8923 87.0764C75.8231 86.7818 77.2116 86.4858 78.1892 86.2459C77.9917 86.401 77.1666 86.9131 77.1581 86.9238L77.2498 87.1381C76.1422 87.6054 73.7207 87.4415 73.1534 87.8378C72.8301 88.0635 72.6084 88.1734 72.2084 88.1358C72.6283 87.7383 72.7078 87.6842 73.2222 87.4187C73.8258 87.2691 74.2853 87.179 74.8923 87.0764Z" fill="#E4E9F2"/>
<path d="M74.8923 87.0764C75.8231 86.7818 77.2116 86.4858 78.1892 86.2459C77.9917 86.401 77.1666 86.9131 77.1581 86.9238C75.9345 87.5703 75.9759 86.8402 74.8923 87.0764Z" fill="#D9DAE8"/>
<path d="M92.9323 81.5963C93.2275 81.6346 93.7017 81.5978 93.7445 81.9854C93.478 82.2869 93.4646 82.3921 93.3609 82.7655C92.5164 82.5658 92.1061 82.6609 91.2904 82.2288L92.9323 81.5963Z" fill="#D9DAE8"/>
<path d="M93.3609 82.7655C93.4646 82.3921 93.478 82.2869 93.7445 81.9854L94.2937 82.8674C93.8184 83.0011 93.7383 82.927 93.3609 82.7655Z" fill="#D9DAE8"/>
<path d="M34.1468 87.4385C35.3838 87.3804 36.0752 87.3346 37.2623 87.8312C38.4615 88.3327 39.704 89.2772 40.2016 90.5059C40.5412 91.3641 40.5335 92.3209 40.1801 93.1736C39.6644 94.3936 38.7741 94.9538 37.622 95.4224C36.6513 95.7775 35.3415 95.7881 34.3582 95.4839C33.4287 95.2065 32.6556 94.5567 32.2222 93.689C31.6637 92.5965 31.4849 90.7717 31.9207 89.6213C32.4168 88.3119 33.0092 87.9924 34.1468 87.4385Z" fill="#944F1E"/>
<path d="M80.9826 88.6065C83.2212 88.6439 85.5152 94.6678 84.3464 95.7033C83.2248 96.0414 80.2985 95.9112 79.1063 95.7429C78.1287 95.5445 76.8936 95.2807 75.9959 94.8885C75.4865 94.237 75.3772 93.866 75.113 93.107C75.6522 89.8827 78.1094 89.0334 80.9826 88.6065Z" fill="#944F1E"/>
<path d="M81.7996 87.3159C83.0001 87.0071 83.7942 86.8481 85.024 86.7587C85.2395 86.8768 85.4511 87.0018 85.6586 87.1335C87.5287 88.3171 88.6009 91.1081 89.066 93.1657C89.3751 97.194 88.892 96.1256 85.8698 96.906C85.8742 95.8191 85.8284 94.9998 85.7407 93.9137C85.0878 91.1585 84.1795 88.9563 81.7996 87.3159Z" fill="#FCFCFC"/>
<path d="M89.066 93.1657C89.3751 97.194 88.892 96.1256 85.8698 96.906C85.8742 95.8191 85.8284 94.9998 85.7407 93.9137C86.9797 94.0962 87.7942 93.4371 89.066 93.1657Z" fill="#D9DAE8"/>
<path d="M62.2374 102.642C63.2539 102.586 64.4455 102.6 65.4677 102.617C73.2805 102.745 81.1786 102.747 88.9844 102.963L89.0017 103.347C89.3427 103.458 91.5987 103.415 92.0773 103.415L100.192 103.416C101.374 103.417 103.868 103.371 104.943 103.524C101.135 103.626 97.006 103.534 93.1751 103.528L69.088 103.54C67.7719 103.551 62.0742 103.42 61.1894 103.713L60.7727 103.51C61.5546 103.244 61.5959 103.177 62.2374 102.642Z" fill="#C8A16F"/>
<path d="M32.2976 85.0917L33.2447 86.2976C31.813 87.1456 31.0264 88.282 30.6065 89.8926C30.4377 90.563 30.3533 91.2519 30.3552 91.9433C30.0131 92.3426 29.2441 91.2375 28.4309 91.1226C28.6785 88.0413 29.5009 86.5146 32.2976 85.0917Z" fill="#FCFCFC"/>
<path d="M28.4309 91.1226C29.2441 91.2375 30.0131 92.3426 30.3552 91.9433C30.3954 92.028 30.5343 92.775 30.5637 92.9089C30.758 93.7954 31.0115 94.4313 31.4631 95.2176C28.6911 94.3985 28.6009 93.9742 28.4309 91.1226Z" fill="#D9DAE8"/>
<path d="M92.9323 81.5963C93.7932 81.2253 94.9377 80.6628 95.7579 80.1782C95.5973 81.0359 95.4672 81.899 95.3678 82.7659C94.8712 82.4168 94.3567 81.9678 93.7445 81.9854C93.7017 81.5978 93.2275 81.6346 92.9323 81.5963Z" fill="#D9DAE8"/>
<path d="M39.6435 87.026C40.2863 87.1957 40.8606 87.6085 41.3685 88.0186C41.5902 88.5629 41.7868 89.1764 41.7286 89.7632C41.1995 89.5543 40.0364 87.6208 39.6435 87.026Z" fill="#944F1E"/>
<path d="M57.6809 103.303C58.4117 103.289 60.18 103.221 60.7727 103.51L61.1894 103.713C60.741 103.855 57.1188 103.806 56.5392 103.581L56.4661 103.352C56.8496 103.338 57.305 103.333 57.6809 103.303Z" fill="#834332"/>
<path d="M12.357 142.443C12.6824 142.462 12.821 142.436 13.0741 142.636C13.022 142.986 12.7832 143.136 12.5037 143.445C12.3919 143.622 12.4662 143.547 12.2449 143.644C12.1888 143.545 12.1605 143.476 12.1423 143.36C12.0886 143.038 12.1659 142.708 12.357 142.443Z" fill="#B37A49"/>
<path d="M104.121 142.459C104.614 142.51 104.637 142.567 104.827 142.977C104.816 143.383 104.824 143.462 104.636 143.83C104.392 143.449 104.221 143.169 104.014 142.768L104.121 142.459Z" fill="#CB955B"/>
<path d="M55.4319 103.174L56.1813 103.347C55.7916 103.763 55.4399 103.597 54.8794 103.51L54.8955 103.449C55.2913 103.357 55.1566 103.436 55.4319 103.174Z" fill="#B37A49" fill-opacity="0.984314"/>
<path d="M18.5285 12.6778C22.9327 12.229 25.4005 16.7119 25.5637 16.7358C25.7764 16.7671 26.1935 16.6582 26.417 16.631C27.6791 16.4779 28.9015 16.6098 29.9783 17.3532C31.7889 18.6032 32.7911 20.9481 32.4103 23.1203C32.3213 23.6277 31.8645 24.4813 32.0019 24.9586C32.248 25.813 33.4917 26.346 33.8128 28.0892C34.2049 30.2176 33.4173 32.8035 31.3343 33.7561C30.6761 34.0571 29.5566 34.2406 29.0763 34.7632C28.7603 35.1071 28.7923 36.4435 28.1066 37.4087C27.1439 38.7361 25.6905 39.6234 24.0698 39.873C22.4905 40.125 20.9768 39.7319 19.7027 38.7965C19.2251 39.2485 18.656 39.6624 18.1318 40.0646C14.2985 42.137 10.1315 40.2826 8.83263 36.1791C8.49209 36.1486 8.15216 36.1115 7.81304 36.0679C3.0584 35.4344 0.737426 28.9808 4.82571 26.0187C1.4268 20.8024 7.44239 14.4523 12.3615 16.5419C12.5971 16.0532 12.8982 15.5989 13.2566 15.1916C14.6696 13.5586 16.418 12.8339 18.5285 12.6778Z" fill="#66210B"/>
<path d="M18.2977 13.8208C21.3618 13.5556 23.5408 15.5878 24.9341 18.0461C26.1101 17.648 27.0363 17.4282 28.2812 17.8522C29.4419 18.2477 30.3988 19.0869 30.9427 20.186C31.7967 21.9512 31.3072 23.5376 30.728 25.2428C33.8369 27.6625 33.53 32.2548 29.4465 33.4415C29.1793 33.519 28.4538 33.4965 28.1415 33.4956C27.7629 35.8323 27.3058 37.7468 24.6905 38.5678C22.7565 39.1749 21.1912 38.4528 19.5099 37.5523C19.2182 37.8946 18.9512 38.1296 18.6188 38.4324C17.0377 39.6864 14.5484 40.0592 12.7159 39.163C10.9243 38.2868 10.161 37.0068 9.51999 35.2222C7.92122 35.0354 6.5028 34.7479 5.31075 33.554C4.38476 32.6211 3.87533 31.3534 3.89826 30.039C3.91728 28.2965 4.63014 27.301 5.80716 26.1745C5.30181 24.9451 4.86722 23.6645 4.99488 22.3174C5.12691 20.8565 5.8506 19.5132 6.99792 18.5993C8.9116 17.0505 10.5625 17.1717 12.7838 17.4039C14.1945 15.2482 15.7244 14.1535 18.2977 13.8208Z" fill="#FCFCFC"/>
<path d="M17.4021 19.2119C19.2564 19.1338 21.2781 19.5524 22.1267 21.1795C23.7454 24.2834 21.3827 25.8953 19.5722 27.8508C19.2279 28.2227 19.6015 29.6933 18.6209 30.1284C16.7963 30.9379 16.9638 28.3677 17.3036 27.3227C18.0402 25.7763 22.8087 22.3201 18.1045 21.4579C16.5796 21.1785 16.493 24.0871 14.9537 23.9494C12.4662 22.4664 15.5515 19.7173 17.4021 19.2119Z" fill="#6C280E"/>
<path d="M18.1973 31.1508C19.8739 31.4122 20.2058 33.2009 18.5225 34.0176C16.5237 33.7329 16.4605 32.0638 18.1973 31.1508Z" fill="#6C280E"/>
<path d="M10.5608 26.0479C10.8137 26.1825 10.8368 26.206 10.959 26.4649C10.9052 26.8353 10.4334 27.2035 10.1438 27.478L10.1955 27.5402C10.5476 27.9651 11.0446 28.4595 10.9938 29.0019L10.7771 29.0642C10.3906 28.9838 10.1081 28.5775 9.83705 28.2687L9.64604 28.2657L9.04129 29.0751L8.62536 29.0473L8.50377 28.8436C8.58494 28.3973 9.08251 27.8647 9.38158 27.4875C9.03154 27.142 8.46588 26.7454 8.60673 26.2402C8.95993 26.2701 9.38394 26.6116 9.69161 26.8224C9.92703 26.7751 10.3514 26.2629 10.5608 26.0479Z" fill="#66210B"/>
<path d="M24.7886 31.7831C25.0204 31.9619 25.3654 32.1899 25.352 32.5201C25.7851 32.6723 26.6351 32.9047 26.7147 33.3907C26.1445 33.6788 23.9846 33.2554 23.878 32.3773C24.0481 32.0292 24.4165 31.9386 24.7886 31.7831Z" fill="#66210B"/>
<path d="M24.7886 31.7831C25.1157 31.5981 26.5066 30.831 26.8222 31.2275C26.6894 31.951 25.8 32.0374 25.352 32.5201C25.3654 32.1899 25.0204 31.9619 24.7886 31.7831Z" fill="#66210B"/>
<path d="M22.2289 31.3944C22.4595 31.2408 22.7695 31.2918 22.9388 31.5111C23.108 31.7305 23.0786 32.0433 22.8715 32.2274C22.7242 32.3583 22.5161 32.3962 22.3321 32.3255C22.148 32.2547 22.0188 32.0872 21.9971 31.8913C21.9754 31.6953 22.0649 31.5036 22.2289 31.3944Z" fill="#6C1E12"/>
<path d="M22.3068 33.213C22.5168 33.0952 22.7823 33.1706 22.8992 33.3809C23.016 33.5911 22.9397 33.8565 22.729 33.9725C22.5193 34.088 22.2558 34.0122 22.1395 33.8029C22.0234 33.5938 22.0982 33.33 22.3068 33.213Z" fill="var(--fill-0, #7C3121)"/>
<path d="M29.834 38.0958C30.6902 37.8698 31.3191 37.8567 32.1227 38.3172C32.8468 38.7312 33.3743 39.4188 33.5865 40.2256C33.872 41.335 33.268 42.8066 32.2175 43.2333C31.4657 43.6332 30.674 43.7935 29.8372 43.5307C28.2673 42.8754 27.8432 41.6666 28.0323 40.0601L28.4189 39.2124C28.9327 38.5702 29.0683 38.3528 29.834 38.0958Z" fill="#FCFCFC"/>
<path d="M29.834 38.0958C30.6902 37.8698 31.3191 37.8567 32.1227 38.3172C32.8468 38.7312 33.3743 39.4188 33.5865 40.2256C33.872 41.335 33.268 42.8066 32.2175 43.2333C31.4657 43.6332 30.674 43.7935 29.8372 43.5307C28.2673 42.8754 27.8432 41.6666 28.0323 40.0601C28.2573 40.3117 28.3583 40.4098 28.6712 40.5615L28.7691 40.9605C29.1529 44.2947 34.9285 42.4718 31.8505 39.1103L30.7179 38.7052C30.0325 38.7193 30.12 38.6455 29.834 38.0958Z" fill="#66210B"/>
<path d="M29.8372 43.5307L30.1383 43.285C30.6596 43.1641 31.6978 43.1097 32.2175 43.2333C31.4657 43.6332 30.674 43.7935 29.8372 43.5307Z" fill="#6C1E12"/>
<path d="M28.4189 39.2124C28.9327 38.5702 29.0683 38.3528 29.834 38.0958C30.12 38.6455 30.0325 38.7193 30.7179 38.7052C29.8371 38.8768 29.6558 39.0334 29.0106 39.6669C28.8412 39.3117 28.7582 39.3237 28.4189 39.2124Z" fill="#6C280E"/>
<path d="M28.4189 39.2124C28.7582 39.3237 28.8412 39.3117 29.0106 39.6669C28.8371 40.2261 28.8127 40.3738 28.7691 40.9605L28.6712 40.5615C28.3583 40.4098 28.2573 40.3117 28.0323 40.0601L28.4189 39.2124Z" fill="#6C280E"/>
<path d="M33.6185 45.4934C33.2072 44.8552 33.2811 44.0194 33.7979 43.4631C34.3146 42.907 35.1429 42.7719 35.8095 43.1351C36.4762 43.4984 36.8118 44.2673 36.6247 45.0031C36.4315 45.7631 35.733 46.2844 34.9495 46.2536C34.4084 46.2323 33.9117 45.9486 33.6185 45.4934Z" fill="#6C1E12"/>
<path d="M34.5689 45.3998C34.1647 44.8858 33.9088 44.4112 34.4969 43.8786C35.2744 43.5225 35.5998 43.9012 35.9908 44.5089C35.6838 45.2023 35.5254 45.5367 34.6722 45.5026L34.5689 45.3998Z" fill="#FCFCFC"/>
<path d="M35.9908 44.5089L36.0438 44.706L36.3382 44.6149C36.5807 44.7978 36.5013 44.7113 36.6247 45.0031C36.4315 45.7631 35.733 46.2844 34.9495 46.2536C34.8949 45.9915 34.6707 46.1827 34.6722 45.5026C35.5254 45.5367 35.6838 45.2023 35.9908 44.5089Z" fill="#6C280E"/>
<path d="M33.6185 45.4934C33.8175 45.3009 33.8442 45.2526 34.0964 45.1572L34.5689 45.3998L34.6722 45.5026C34.6707 46.1827 34.8949 45.9915 34.9495 46.2536C34.4084 46.2323 33.9117 45.9486 33.6185 45.4934Z" fill="var(--fill-0, #7C3121)"/>
</g>
</svg>
