<svg preserveAspectRatio="none" width="100%" height="100%" overflow="visible" style="display: block;" viewBox="0 0 120 150" fill="none" xmlns="http://www.w3.org/2000/svg">
<g id="&#237;&#128;&#180;&#236;&#166;&#136; &#236;&#191;&#160;&#237;&#130;&#164;">
<path d="M66.6312 4.28112C68.2323 2.86496 69.5884 1.92073 71.6038 1.15916C80.1316 -2.06328 92.2058 1.54794 95.7178 10.5614C106.961 11.0318 112.581 24.6932 104.394 32.4072C101.877 34.7792 97.2969 35.8055 94.0187 34.8282C93.1983 38.7952 92.7051 42.8662 91.9453 46.8429C91.8427 47.3801 91.588 47.8671 91.2751 48.3136C93.6033 50.0986 95.2658 51.7331 96.3946 54.5233C96.6531 55.1623 96.7274 56.3158 97.0402 56.7616C98.7839 59.2473 99.8384 59.7197 100.259 62.9849C100.479 64.4529 100.359 65.9277 100.529 67.3996C100.71 68.9719 101.296 70.5798 101.251 72.1883C101.188 74.4369 100.285 76.1928 100.937 78.441C101.062 78.8727 99.8123 81.9892 99.7046 82.6153C99.36 83.9361 99.378 84.7443 98.856 86.0538C99.6883 87.7625 100.139 88.7697 100.385 90.6853C100.503 91.6019 100.045 93.64 100.272 94.0332C101.393 93.7969 102.449 93.877 103.417 94.5272C106.283 96.4529 109.052 98.5567 111.857 100.559C113.459 101.69 115.05 102.837 116.631 103.998C117.67 104.752 119.13 105.73 119.968 106.646C120.065 112.631 120.286 112.036 114.631 111.852C114.663 115.489 114.705 149.231 114.275 149.656C113.75 150.174 108.821 149.949 107.899 149.863C107.846 149.858 107.793 149.851 107.74 149.844C106.35 148.853 105.759 147.527 104.711 146.422C98.0613 146.271 90.9662 146.397 84.2927 146.411L28.3268 146.404C24.3384 146.4 19.3394 146.252 15.4545 146.422C14.5748 147.237 13.9742 148.081 13.1487 149.001C11.6586 150.663 8.33017 149.69 6.31567 149.94C6.06399 149.97 5.65839 149.83 5.4729 149.664C5.22654 148.436 5.36072 146.496 5.3678 145.174L5.35033 138.694C5.30417 129.796 5.27178 120.688 5.0991 111.805C3.88918 111.961 1.25293 111.975 0.0576795 111.818C0.0327787 110.284 -0.0568449 108.106 0.0545797 106.632C0.830464 105.799 2.69376 104.592 3.70037 103.885L14.677 96.1628C16.1215 95.1408 17.3614 93.8886 19.2457 93.9905C21.2811 94.1006 24.1319 93.6801 26.0723 94.1007C24.5402 90.7948 25.6552 87.2659 27.6986 84.4441C28.2543 83.6768 28.9405 83.0197 29.4615 82.317L29.57 81.5834C29.5934 80.6858 29.7819 80.2983 30.3857 79.6585C30.7335 77.0716 28.817 75.6663 30.9798 73.2129C30.4844 70.1308 30.5754 69.0707 31.7484 66.1646C31.9397 65.6909 32.0685 63.5607 32.173 62.9876C32.6772 60.2216 33.7778 57.9242 35.6471 55.8587C36.1126 55.3442 36.5076 52.4873 37.3244 51.8262C39.1426 48.9778 41.5842 47.2081 44.0375 45.0757C46.2962 43.1123 47.3962 42.5832 50.1563 41.5098C51.3007 41.0649 52.3799 40.2495 53.7402 39.7742C54.0778 37.2664 55.2249 34.1853 55.9058 31.6619C56.3352 30.0709 56.8411 27.5924 57.3913 26.1915C55.9925 25.98 54.9001 25.4581 53.7844 24.608C42.016 15.641 53.432 -0.839642 66.6312 4.28112ZM56.3031 106.283L56.2866 106.346C56.8615 106.435 57.2221 106.606 57.6218 106.179L56.8532 106C56.5709 106.27 56.709 106.189 56.3031 106.283Z" fill="#66210B"/>
<path d="M29.9827 83.1938L30.4513 83.6691L31.2849 84.7264C31.6915 85.2784 32.1054 85.8545 32.5221 86.3963C31.6906 86.5835 31.0098 86.707 30.3261 87.2471C30.2303 87.5029 30.259 87.5361 30.3343 87.8141C29.2887 89.3857 28.4175 90.2 27.9183 92.0605C27.7298 91.8097 26.7894 89.9561 26.6679 89.6121C26.8603 88.0858 27.423 87.0935 28.2116 85.8174C28.8399 84.9799 29.4111 84.0732 29.9827 83.1938Z" fill="#FCFCFC"/>
<path d="M29.9827 83.1938L30.4513 83.6691C29.7585 84.11 29.8677 85.6887 28.6935 86.011C28.5313 85.9517 28.3638 85.8975 28.2116 85.8174C28.8399 84.9799 29.4111 84.0732 29.9827 83.1938Z" fill="#E4E9F2"/>
<path d="M34.1509 82.2197C34.2853 82.3557 34.4228 82.4883 34.5636 82.6174L34.4631 82.7196C34.3692 82.9387 34.2841 83.0148 34.4234 83.2425C35.5304 85.0505 37.1139 87.0905 38.4146 88.7025C38.2325 88.763 38.0743 88.8386 37.8886 88.8144C37.2557 88.6481 37.0305 88.5785 36.3647 88.5734L35.8512 88.5139L35.5864 88.6019C35.0151 88.3853 32.7458 85.1465 32.3364 84.4534C32.3122 84.0768 32.3225 83.896 32.1512 83.5495C32.8571 82.908 33.3226 82.6348 34.1509 82.2197Z" fill="#53330C"/>
<path d="M32.9229 83.942L33.7881 83.0357C34.4297 83.906 37.5507 88.0949 37.8886 88.8144C37.2557 88.6481 37.0305 88.5785 36.3647 88.5734C35.2506 87.0173 33.9715 85.4919 32.9229 83.942Z" fill="#F9C55F"/>
<path d="M32.3364 84.4534L32.5249 84.2908C32.985 84.4444 35.5241 87.9286 35.8512 88.5139L35.5864 88.6019C35.0151 88.3853 32.7458 85.1465 32.3364 84.4534Z" fill="#F9C55F"/>
<path d="M31.1384 80.2781C31.6007 80.0623 31.8003 79.9284 32.3008 79.9773C32.7715 80.1641 32.9106 80.3757 33.1103 80.8386C33.1418 80.9119 33.1719 80.9856 33.2008 81.0598C33.219 81.4629 33.1597 81.3362 33.3752 81.5988L33.6718 81.622L34.1509 82.2197C33.3226 82.6348 32.8571 82.908 32.1512 83.5495L31.735 83.8717C31.6343 84.0916 31.433 84.564 31.2849 84.7264L30.4513 83.6691L29.9827 83.1938L29.4615 82.317L29.57 81.5834L30.1132 81.5406C30.3897 80.9286 30.6555 80.7249 31.1384 80.2781Z" fill="#F7B5AF"/>
<path d="M29.57 81.5834L30.1132 81.5406C30.3157 81.9423 30.5294 82.5535 30.9774 82.68C31.4378 82.8384 31.2877 82.7327 31.5468 83.2434L31.4861 83.588C31.5715 83.6963 31.6288 83.786 31.735 83.8717C31.6343 84.0916 31.433 84.564 31.2849 84.7264L30.4513 83.6691L29.9827 83.1938L29.4615 82.317L29.57 81.5834Z" fill="#6C280E"/>
<path d="M33.6718 81.622L34.1509 82.2197C33.3226 82.6348 32.8571 82.908 32.1512 83.5495L31.735 83.8717C31.6288 83.786 31.5715 83.6963 31.4861 83.588L31.5468 83.2434C32.2164 82.6457 32.9433 82.1446 33.6718 81.622Z" fill="#D9DAE8"/>
<path d="M33.2008 81.0598C33.219 81.4629 33.1597 81.3362 33.3752 81.5988L33.6718 81.622C32.9433 82.1446 32.2164 82.6457 31.5468 83.2434C31.2877 82.7327 31.4378 82.8384 30.9774 82.68C31.6619 82.2806 32.6473 81.6216 33.2008 81.0598Z" fill="var(--fill-0, #7C3121)"/>
<path d="M28.0846 95.1859C26.6558 93.1013 26.333 92.1437 26.6679 89.6121C26.7894 89.9561 27.7298 91.8097 27.9183 92.0605C27.8666 93.2189 27.9272 94.0456 28.0846 95.1859Z" fill="#D9DAE8"/>
<path d="M34.4631 82.7196C35.2635 83.4691 38.9793 88.6299 39.6204 89.6991C39.2042 89.3721 38.8023 89.0649 38.4146 88.7025C37.1139 87.0905 35.5304 85.0505 34.4234 83.2425C34.2841 83.0148 34.3692 82.9387 34.4631 82.7196Z" fill="#EFB14A"/>
<path d="M30.3857 79.6585L30.4434 79.8654L30.1908 80.2724C30.2849 80.3405 30.3885 80.4118 30.4782 80.4838L31.1384 80.2781C30.6555 80.7249 30.3897 80.9286 30.1132 81.5406L29.57 81.5834C29.5934 80.6858 29.7819 80.2983 30.3857 79.6585Z" fill="#6C280E"/>
<path d="M6.17997 111.838C8.02774 112.09 13.1134 111.885 15.1571 111.866L104.018 111.824C107.086 111.825 110.519 111.759 113.56 111.886C113.43 113.302 113.629 115.868 113.519 116.658C113.303 124.494 113.471 132.542 113.31 140.39C113.253 143.122 113.414 146.072 113.276 148.77C111.727 148.815 110.176 148.803 108.627 148.733C108.677 147.756 108.924 146.2 108.368 145.459C107.624 144.935 104.839 145.231 103.749 145.239L94.2561 145.258L27.91 145.232C22.4905 145.23 16.7405 145.109 11.3622 145.211C11.2666 146.392 11.2739 147.53 11.2693 148.711C9.70912 148.806 8.12371 148.781 6.5623 148.749C6.49028 147.295 6.53614 145.659 6.51479 144.18C6.44191 140.484 6.40765 136.787 6.41199 133.09L6.26596 114.305C6.20096 113.433 6.18371 112.713 6.17997 111.838Z" fill="#CB955B"/>
<path d="M6.17997 111.838C8.02774 112.09 13.1134 111.885 15.1571 111.866L104.018 111.824C107.086 111.825 110.519 111.759 113.56 111.886C113.43 113.302 113.629 115.868 113.519 116.658C108.019 116.708 102.372 116.467 96.8657 116.345C86.9953 116.181 77.1262 115.943 67.2593 115.63L6.26596 114.305C6.20096 113.433 6.18371 112.713 6.17997 111.838Z" fill="#B37A49"/>
<path d="M33.1961 74.9708C32.987 74.8427 32.64 74.6262 32.5762 74.378C32.1927 72.8853 32.0243 70.3816 32.3488 68.8833C32.5449 67.9785 33.0992 66.7833 33.2041 66.0143C33.4583 64.1496 33.2826 62.983 34.0319 61.2385C34.8611 59.3075 35.8888 57.991 36.9963 56.2723C37.2372 55.8984 37.7258 54.3492 37.9434 53.8381C39.2079 50.8665 41.6239 48.9177 44.0259 46.9014C44.9466 46.233 46.1824 44.8699 47.204 44.4124C49.5571 43.3586 52.0792 42.0096 54.4207 41.0154C55.0427 41.482 55.8326 41.9664 56.4962 42.3949L56.8091 42.583C58.72 43.5279 60.2317 44.1961 62.2672 44.8875C63.2583 45.224 65.3205 45.7412 66.1388 46.1173C67.6125 46.3564 69.2241 46.8179 70.7067 47.1547C71.9086 47.4278 73.3813 47.6711 74.5378 47.9914C78.5345 48.5546 82.5861 49.1838 86.646 49.0687C87.6917 49.0001 88.764 48.9425 89.8043 48.8333C91.8723 50.5472 93.7956 52.1208 94.8333 54.7259C95.0999 55.3951 95.4046 57.0113 95.716 57.4669C97.514 60.0972 98.6559 60.4082 98.8918 63.9151C98.9685 65.0571 99.1002 66.7546 99.2222 67.9666C99.3552 69.2859 99.9768 71.2011 99.878 72.5268C99.7702 73.9718 99.2953 75.6435 99.0054 77.0896C98.0038 77.6556 97.3116 77.9139 96.2742 78.372C95.302 78.7043 94.6909 78.8687 93.6865 79.0923C89.5192 80.5515 83.8045 81.6677 79.4259 82.4272C76.2684 82.9748 72.82 83.2918 69.6479 83.9615C68.0432 84.3003 66.3869 85.0595 64.8264 85.5888C63.2074 86.1378 61.5869 86.6402 59.9733 87.2034C59.3597 86.8528 53.5373 83.4184 53.285 83.0445C50.6717 82.4982 48.6566 82.1419 46.1912 81.0998C44.5461 80.4904 37.1502 77.5257 36.163 76.4555C35.3266 76.2995 33.9663 75.4306 33.1961 74.9708Z" fill="#F9C55F"/>
<path d="M86.646 49.0687C87.6917 49.0001 88.764 48.9425 89.8043 48.8333C91.8723 50.5472 93.7956 52.1208 94.8333 54.7259C95.0999 55.3951 95.4046 57.0113 95.716 57.4669C97.514 60.0972 98.6559 60.4082 98.8918 63.9151C98.9685 65.0571 99.1002 66.7546 99.2222 67.9666C99.3552 69.2859 99.9768 71.2011 99.878 72.5268C99.7702 73.9718 99.2953 75.6435 99.0054 77.0896C98.0038 77.6556 97.3116 77.9139 96.2742 78.372C95.302 78.7043 94.6909 78.8687 93.6865 79.0923C93.4254 78.3359 95.1902 72.0372 94.7321 70.0029L94.4906 69.8561C95.0788 69.5147 95.2207 69.3472 95.6799 68.8626C95.9447 68.4496 96.2405 67.9431 96.3722 67.4733C96.8127 65.9205 96.6165 64.2559 95.827 62.8485C95.3329 61.9658 94.3989 60.9019 93.4184 60.5555C93.0919 60.44 92.7312 60.4885 92.3604 60.3745C92.6773 60.3485 92.5852 60.4029 92.7767 60.213C92.544 58.8764 92.4968 57.8005 91.8016 56.576C90.7262 54.6816 89.3889 52.9567 88.0967 51.2085C87.6526 50.6077 86.8719 49.7524 86.646 49.0687Z" fill="#E6AE6B"/>
<path d="M95.6799 68.8626C96.3642 68.4891 96.1628 68.4203 96.5294 67.8637L96.5656 67.9069C96.7322 68.102 96.8077 68.163 97.0075 68.3215C97.2943 69.1516 96.6383 71.0039 96.5459 71.8802C96.3239 73.9858 96.3776 76.2293 96.2742 78.372C95.302 78.7043 94.6909 78.8687 93.6865 79.0923C93.4254 78.3359 95.1902 72.0372 94.7321 70.0029L94.4906 69.8561C95.0788 69.5147 95.2207 69.3472 95.6799 68.8626Z" fill="#EFB14A"/>
<path d="M33.1961 74.9708C32.987 74.8427 32.64 74.6262 32.5762 74.378C32.1927 72.8853 32.0243 70.3816 32.3488 68.8833C32.5449 67.9785 33.0992 66.7833 33.2041 66.0143C33.4583 64.1496 33.2826 62.983 34.0319 61.2385C34.8611 59.3075 35.8888 57.991 36.9963 56.2723C37.2372 55.8984 37.7258 54.3492 37.9434 53.8381C39.2079 50.8665 41.6239 48.9177 44.0259 46.9014C44.9466 46.233 46.1824 44.8699 47.204 44.4124C49.5571 43.3586 52.0792 42.0096 54.4207 41.0154C55.0427 41.482 55.8326 41.9664 56.4962 42.3949C55.6368 43.1857 49.3954 45.0679 48.7503 45.6148C44.6238 49.1131 38.865 54.3167 37.5371 59.7642C36.6717 60.2882 36.196 60.4584 36.1741 61.5811C36.073 62.6994 34.9173 63.8913 34.6178 65.099C34.4771 65.6665 34.4659 67.8229 34.3309 68.0996C33.9144 68.9527 33.8497 74.3386 33.7285 74.6204L33.1961 74.9708Z" fill="#FCD799"/>
<path d="M94.4906 69.8561C94.0181 69.9276 92.8853 69.9629 92.402 69.9441C90.8505 69.8976 89.3869 69.2121 88.3567 68.0493C86.6195 66.1007 86.8544 62.9329 88.8047 61.185C89.8325 60.2638 91.0628 60.2819 92.3604 60.3745C92.7312 60.4885 93.0919 60.44 93.4184 60.5555C94.3989 60.9019 95.3329 61.9658 95.827 62.8485C96.6165 64.2559 96.8127 65.9205 96.3722 67.4733C96.2405 67.9431 95.9447 68.4496 95.6799 68.8626C95.2207 69.3472 95.0788 69.5147 94.4906 69.8561Z" fill="#944F1E"/>
<path d="M66.1388 46.1173C67.6125 46.3564 69.2241 46.8179 70.7067 47.1547C71.9086 47.4278 73.3813 47.6711 74.5378 47.9914C73.4223 50.0014 70.343 49.8886 68.492 49.1132C67.9274 48.8767 67.4154 48.4507 66.9388 48.0682C66.5603 47.3945 66.2417 46.8856 66.1388 46.1173Z" fill="#944F1E"/>
<path d="M56.8091 42.583C58.72 43.5279 60.2317 44.1961 62.2672 44.8875C63.2583 45.224 65.3205 45.7412 66.1388 46.1173C66.2417 46.8856 66.5603 47.3945 66.9388 48.0682C65.172 48.3375 58.0262 45.0171 56.802 43.3165C56.6239 43.069 56.7398 42.8558 56.8091 42.583Z" fill="#EFB14A"/>
<path d="M46.1912 81.0998C47.5578 79.0846 49.3455 79.0354 51.1985 80.4206C52.1147 81.1056 52.9677 81.9062 53.285 83.0445C50.6717 82.4982 48.6566 82.1419 46.1912 81.0998Z" fill="#944F1E"/>
<path d="M37.5371 59.7642C41.2465 59.4782 39.9241 63.9873 37.5918 64.2064C36.3426 64.3237 36.2012 62.5306 36.1741 61.5811C36.196 60.4584 36.6717 60.2882 37.5371 59.7642Z" fill="#9E5A23"/>
<path d="M33.7285 74.6204C34.7418 74.9628 35.8171 75.2952 36.163 76.4555C35.3266 76.2995 33.9663 75.4306 33.1961 74.9708L33.7285 74.6204Z" fill="#944F1E"/>
<path d="M74.6774 63.6732C75.5096 63.7039 76.0883 63.6912 76.8518 64.1175C79.0475 65.3364 79.4092 68.6346 78.2235 70.6715C77.5882 71.7627 76.7189 72.3516 75.5154 72.6564C70.1006 72.9366 69.8924 64.4267 74.6774 63.6732Z" fill="#6C280E"/>
<path d="M73.692 65.1776C75.6717 65.1638 76.1643 67.1213 74.5902 68.0169C74.5031 68.0277 74.4159 68.0365 74.3286 68.0435C72.4429 68.1906 72.5001 66.3225 73.692 65.1776Z" fill="#FCFCFC"/>
<path d="M75.7453 69.2993C76.0068 69.1464 76.3307 69.1478 76.5911 69.303C76.8513 69.4583 77.0068 69.743 76.9971 70.0463C76.9874 70.3495 76.8141 70.6236 76.5444 70.7618C76.1431 70.9677 75.6511 70.8161 75.4347 70.42C75.2182 70.0238 75.3559 69.5271 75.7453 69.2993Z" fill="#FCFCFC"/>
<path d="M50.3096 46.7415C51.2221 46.6885 52.0999 46.7948 52.9247 47.2155C53.7956 47.6498 54.4496 48.4242 54.7325 49.3565C55.0205 50.3146 54.9114 51.3485 54.43 52.2253C53.6908 53.5895 52.5706 54.3398 51.1329 54.7682C50.057 54.7873 49.2895 54.8851 48.3003 54.3765C47.4569 53.9378 46.8231 53.18 46.5395 52.2714C45.7154 49.6 47.8671 47.4087 50.3096 46.7415Z" fill="#944E1E"/>
<path d="M52.1201 61.6637C56.6785 61.1249 57.9702 69.1703 52.7992 70.622C47.6346 70.9285 47.1175 62.5325 52.1201 61.6637Z" fill="#6C280E"/>
<path d="M50.9093 63.2724C52.8854 63.0991 53.3448 64.7809 51.9875 66.0361C50.0549 66.4564 49.4898 64.564 50.9093 63.2724Z" fill="#FCFCFC"/>
<path d="M53.1226 67.1502C53.3808 67.0247 53.687 67.0519 53.9192 67.221C54.1513 67.39 54.2715 67.6735 54.2319 67.9582C54.1922 68.2429 53.9993 68.4826 53.7298 68.5817C53.341 68.7246 52.9086 68.5371 52.7466 68.1552C52.5847 67.7733 52.75 67.3314 53.1226 67.1502Z" fill="#FCFCFC"/>
<path d="M81.8561 51.4879C82.9226 51.3614 83.6192 51.4242 84.5355 52.0672C85.3766 52.6617 85.9449 53.5692 86.1132 54.5865C86.4564 56.5619 85.4163 57.4516 83.6094 57.7324C81.9777 57.5169 80.2142 56.4769 79.6264 54.9038C78.8858 52.9215 80.326 52.0691 81.8561 51.4879Z" fill="#944F1E"/>
<path d="M58.3714 70.7947C60.2172 70.9164 58.8519 74.0091 62.9812 71.1585C63.5093 71.6802 63.9835 72.1718 64.5681 72.6338C66.0607 73.8134 66.817 71.9232 67.7948 71.7544L68.0236 71.9227C68.1747 72.295 68.143 72.4534 68.1207 72.8439C66.5757 74.8495 64.5519 74.7563 62.9173 72.8886C62.3087 73.1908 61.36 73.5182 60.6994 73.7648C59.2157 73.425 57.6798 72.5417 58.3714 70.7947Z" fill="#66210B"/>
<path d="M77.0133 60.9188C77.434 60.8741 77.6001 60.8274 77.9935 60.9853C78.3051 61.3028 78.2757 61.1827 78.3461 61.5711C78.0021 62.6218 72.8857 63.7867 71.8541 63.6066C71.2382 62.9433 70.9667 62.5145 71.3244 61.6191C71.643 61.371 71.4976 61.4095 71.8649 61.4523C72.2132 61.6354 72.3023 62.0224 72.4543 62.4047C73.8974 61.8298 75.5124 61.5161 77.0133 60.9188Z" fill="#6C280E"/>
<path d="M50.3909 58.3655L50.4391 58.3723C51.4554 58.5066 54.1675 60.6106 55.5196 60.7081C55.8441 60.7315 55.733 60.3965 56.339 60.2286C56.7158 60.3462 56.5852 60.2556 56.8281 60.5756C56.8846 61.0461 56.7277 61.3169 56.5449 61.7557C55.6589 62.5094 54.1999 61.7783 53.3186 61.3223C52.4847 60.8908 50.4385 60.0345 49.9829 59.2324C50.0112 58.7524 50.0669 58.823 50.3909 58.3655Z" fill="#6C280E"/>
<path d="M66.9318 5.45968C68.1371 4.67769 69.3953 3.70299 70.6376 3.02346C77.5114 -0.736838 86.8008 1.69765 92.0626 7.08741C93.5731 8.77924 94.2573 10.485 95.2226 12.5211C95.3471 12.3796 95.5253 11.96 95.7447 11.6665C96.6115 11.8406 98.3379 12.2607 99.1809 12.5412C102.178 13.6569 104.612 15.9178 105.948 18.8281C107.391 22.0196 107.224 25.2999 105.805 28.4366C104.078 32.0521 99.9044 34.1687 96.0001 33.9351C95.4858 33.9043 95.141 33.9379 94.6367 33.7772L94.4083 33.5733C94.3714 32.7946 94.9105 30.6139 95.1173 29.717C95.6394 29.6487 95.5892 29.4811 95.6238 29.0567C97.2729 28.712 97.7513 28.8545 99.5352 28.194L99.2135 27.7091C93.8107 28.6258 89.7164 27.4455 86.0327 23.2484C85.7034 22.8732 85.2589 22.4778 85.0509 22.0305C85.199 21.7486 85.2719 21.7815 85.5973 21.616C85.5112 21.4449 85.4023 21.0476 85.34 20.8468C79.9494 22.6013 73.0444 22.0739 68.8995 17.8638C68.2547 17.2204 67.2685 16.0029 66.6158 15.5019L66.517 15.5972L66.7052 16.0411C67.3965 17.2895 67.7872 17.908 68.7304 18.9497L68.7626 18.9848C66.5972 20.1146 61.7449 21.0794 59.4725 19.9147C57.1056 19.2626 56.6425 18.5674 54.9015 16.8692C55.8415 18.8071 56.3121 19.2554 58.0825 20.4764C58.6221 20.7021 58.4522 20.6058 58.8137 21.1268C58.3904 22.3196 57.975 23.8552 57.6085 25.0933C54.4435 23.6591 53.5258 23.2953 51.6374 20.2914C48.3714 15.1152 50.9528 9.29192 55.7926 6.1636C58.9305 4.13527 62.6403 4.47465 66.1256 5.29517C66.5109 5.29039 66.5823 5.32618 66.9318 5.45968Z" fill="#FCFCFC"/>
<path d="M99.5352 28.194L100.084 27.9095L100.05 28.0162C99.874 28.555 99.7059 28.7437 99.3575 29.1912C100.099 30.4349 104.321 28.8373 105.346 28.3177C105.422 28.2792 105.727 28.4027 105.805 28.4366C104.078 32.0521 99.9044 34.1687 96.0001 33.9351C95.4858 33.9043 95.141 33.9379 94.6367 33.7772L94.4083 33.5733C94.3714 32.7946 94.9105 30.6139 95.1173 29.717C95.6394 29.6487 95.5892 29.4811 95.6238 29.0567C97.2729 28.712 97.7513 28.8545 99.5352 28.194Z" fill="#D9DAE8"/>
<path d="M95.1173 29.717C95.6394 29.6487 95.5892 29.4811 95.6238 29.0567C96.3679 29.9252 97.5657 30.1211 98.479 30.7438L98.3752 30.8948C96.7762 30.5985 96.5846 30.4652 95.1173 29.717Z" fill="var(--fill-0, #7C3121)"/>
<path d="M85.5973 21.616L86.1555 21.4168C87.3581 23.5552 92.3728 25.7322 94.6514 26.3684C95.9131 26.7205 99.2614 26.6091 100.066 27.2788C100.077 27.2882 100.09 27.296 100.101 27.3045L99.2135 27.7091C93.8107 28.6258 89.7164 27.4455 86.0327 23.2484C85.7034 22.8732 85.2589 22.4778 85.0509 22.0305C85.199 21.7486 85.2719 21.7815 85.5973 21.616Z" fill="#D9DAE8"/>
<path d="M68.8995 17.8638C70.1494 17.7459 70.9372 18.9035 72.1715 19.2831C73.8436 19.7973 75.7581 20.1516 77.4926 20.3357C79.0105 20.4831 80.5395 20.474 82.0555 20.3087C83.5606 20.1488 86.7331 19.3287 87.9306 19.5974C88.0226 19.6181 88.1027 19.6238 88.1967 19.62C87.3014 20.0433 86.2754 20.5655 85.34 20.8468C79.9494 22.6013 73.0444 22.0739 68.8995 17.8638Z" fill="#D9DAE8"/>
<path d="M51.6374 20.2914C52.1428 20.1291 51.9963 20.0897 52.3991 20.2929C53.2754 20.7346 54.3826 21.8536 55.4262 21.5498C55.6666 21.4798 55.6867 21.3766 55.8655 21.1619L55.8076 21.0243C56.9808 21.3088 57.6384 21.384 58.8137 21.1268C58.3904 22.3196 57.975 23.8552 57.6085 25.0933C54.4435 23.6591 53.5258 23.2953 51.6374 20.2914Z" fill="#D9DAE8"/>
<path d="M66.7052 16.0411C67.3965 17.2895 67.7872 17.908 68.7304 18.9497L68.7626 18.9848C66.5972 20.1146 61.7449 21.0794 59.4725 19.9147C59.9856 19.2871 61.281 19.4616 62.1228 19.4055C62.9818 19.3496 63.8315 19.1934 64.6545 18.9402C67.4403 18.0795 65.9909 17.4003 66.7052 16.0411Z" fill="#D9DAE8"/>
<path d="M92.0626 7.08741C93.5731 8.77924 94.2573 10.485 95.2226 12.5211L95.5854 13.2971L95.5246 13.4601C95.169 13.6296 92.988 13.5885 92.4622 13.5899C92.75 11.7525 92.7152 9.93992 92.1703 8.13433C92.039 7.69918 91.8828 7.53558 92.0626 7.08741Z" fill="#D9DAE8"/>
<path d="M95.7447 11.6665C96.6115 11.8406 98.3379 12.2607 99.1809 12.5412C99.0113 12.9976 99.1324 13.2993 99.2413 13.7586C98.7858 13.9035 96.0459 13.6414 95.5246 13.4601L95.5854 13.2971L95.2226 12.5211C95.3471 12.3796 95.5253 11.96 95.7447 11.6665Z" fill="#D9DAE8"/>
<path d="M95.2226 12.5211C95.3471 12.3796 95.5253 11.96 95.7447 11.6665C95.7629 12.1444 95.8561 12.9167 95.5854 13.2971L95.2226 12.5211Z" fill="#6C280E"/>
<path d="M88.1967 19.62C88.697 19.4182 89.2509 19.1792 89.7617 19.0228C88.6325 19.9931 87.512 20.7858 86.1555 21.4168L85.5973 21.616C85.5112 21.4449 85.4023 21.0476 85.34 20.8468C86.2754 20.5655 87.3014 20.0433 88.1967 19.62Z" fill="var(--fill-0, #7C3121)"/>
<path d="M58.0825 20.4764C58.6221 20.7021 58.4522 20.6058 58.8137 21.1268C57.6384 21.384 56.9808 21.3088 55.8076 21.0243C55.5487 20.7874 55.5806 20.8893 55.5592 20.614C56.1419 20.4324 57.3572 20.9026 58.0825 20.4764Z" fill="var(--fill-0, #7C3121)"/>
<path d="M66.1256 5.29517C66.5109 5.29039 66.5823 5.32618 66.9318 5.45968C66.2594 6.12051 65.6596 6.6853 64.9513 7.30678C65.271 6.64754 65.7513 5.95633 66.1256 5.29517Z" fill="#834332"/>
<path d="M100.101 27.3045C100.451 27.221 100.366 27.188 100.659 27.2863C100.482 27.6213 100.373 27.684 100.084 27.9095L99.5352 28.194L99.2135 27.7091L100.101 27.3045Z" fill="#6C1E12"/>
<path d="M66.4467 91.5563C66.5406 91.2959 66.5413 91.283 66.7334 91.0908L66.8976 91.2177L67.007 91.5167C67.3772 91.6174 69.4213 91.6013 69.8339 91.5559C70.878 91.6922 71.7732 91.6565 72.7657 91.7497C74.1537 91.88 75.8749 92.0774 77.2459 92.3162C77.0878 92.7975 76.8262 92.9957 76.461 93.3534C75.5553 95.1225 75.9592 94.1005 75.9016 95.8531C75.9221 96.3993 76.1517 96.9113 76.4938 97.3332C77.4365 98.7254 78.6292 99.213 80.1881 99.6314L80.5119 99.694C81.3501 99.808 82.3039 99.9606 83.1364 100.039L83.5824 100.048C84.3262 99.9468 85.015 99.8509 85.765 99.7978C86.3415 100.319 88.7867 102.946 88.8726 103.554C89.1085 103.848 89.294 103.909 89.1918 104.252C89.6391 104.319 89.5078 104.235 89.7394 104.525C89.4353 104.89 88.3278 104.802 87.8506 104.782C83.2531 104.582 78.5183 104.874 73.9319 104.616C71.9815 104.886 69.6232 104.581 67.7776 104.734C66.2329 104.848 64.7285 104.857 63.1805 104.822C62.9458 104.817 62.7237 105.213 62.6288 105.389L62.4786 105.34L62.437 105.229C61.9777 105.689 61.4976 105.596 60.7719 105.626L61.6485 105.705L61.1972 105.868L61.2816 106.025C60.8159 106.047 59.4001 105.934 59.1599 106.133C58.7744 106.164 58.3072 106.169 57.914 106.184L57.6218 106.179L56.8532 106C56.5709 106.27 56.709 106.189 56.3031 106.283L56.2866 106.346C54.7353 106.484 51.6463 106.398 50.0215 106.397L38.0988 106.372L20.9849 106.376C17.8766 106.382 14.5704 106.447 11.4754 106.365C9.11086 106.423 4.2839 106.21 2.22709 106.504C2.46846 106.276 2.75278 106.017 3.01838 105.821C6.0218 103.571 9.16316 101.537 12.2396 99.399C14.1917 98.0429 16.0686 96.5137 18.1163 95.2821C20.6142 95.1714 24.0392 95.23 26.5594 95.2762C27.9846 96.6465 29.2563 98.0475 31.1465 98.7042C31.8267 98.9406 32.339 99.0381 33.0344 99.3143C33.1992 99.5945 33.5773 99.7012 33.8989 99.8422C34.0296 99.7115 34.3225 99.3577 34.4936 99.3826C37.2575 99.7861 38.4068 99.8826 40.7845 98.1223C40.888 97.9836 41.4453 97.5266 41.611 97.3851C41.8126 97.2048 41.838 97.1414 41.9822 96.9078L42.9503 95.2088C42.6988 94.2038 43.262 94.2714 43.3512 93.5236L43.4695 93.2849C43.4029 93.0224 43.553 92.193 43.707 91.9689C43.7665 92.1537 43.7341 92.0839 43.882 92.2311C45.1306 92.1782 46.7207 91.9673 47.9585 91.7568C48.0361 92.2876 47.944 92.1911 48.2585 92.5416C48.6514 92.6398 48.9331 92.6428 49.335 92.6639L49.7504 92.6602C50.3151 92.4572 50.4149 92.3167 50.6977 91.8325C50.8579 91.5504 51.5187 91.4066 51.817 91.3284C52.4677 91.9458 53.9402 91.6063 54.9884 91.7089C55.6509 91.7042 56.4233 91.6509 57.0935 91.6198C57.4374 91.8762 57.6087 91.9724 57.9863 92.1751L58.457 92.1968C58.0832 92.2889 57.7716 92.3092 57.5482 92.5965C58.3498 92.9423 58.9643 93.2294 59.7359 93.6363C60.1645 93.4395 60.688 93.1802 61.1166 93.0081C62.4474 92.416 63.8616 92.1183 65.2838 91.8435C65.6844 91.7661 66.0788 91.7504 66.4467 91.5563Z" fill="#FCFCFC"/>
<path d="M18.1163 95.2821C20.6142 95.1714 24.0392 95.23 26.5594 95.2762C27.9846 96.6465 29.2563 98.0475 31.1465 98.7042C31.8267 98.9406 32.339 99.0381 33.0344 99.3143C33.1992 99.5945 33.5773 99.7012 33.8989 99.8422C33.1612 100.669 31.2062 102.726 30.6359 103.507C30.5292 103.694 30.3025 104.064 30.2325 104.247C29.9039 104.446 29.9991 104.328 29.8749 104.692L29.9268 104.887L30.9288 104.792C32.8968 104.659 35.5478 104.723 37.5633 104.725C39.6457 104.72 41.7277 104.672 43.8081 104.582C44.8907 104.346 46.8649 103.78 47.8261 103.801L47.8972 103.95C48.8625 103.973 55.5443 104.261 55.9854 104.491L55.9581 104.724C56.2772 104.857 56.4157 104.882 56.6299 105.154C56.5737 105.496 56.6199 105.366 56.3694 105.671L56.8532 106C56.5709 106.27 56.709 106.189 56.3031 106.283L56.2866 106.346C54.7353 106.484 51.6463 106.398 50.0215 106.397L38.0988 106.372L20.9849 106.376C17.8766 106.382 14.5704 106.447 11.4754 106.365C9.11086 106.423 4.2839 106.21 2.22709 106.504C2.46846 106.276 2.75278 106.017 3.01838 105.821C6.0218 103.571 9.16316 101.537 12.2396 99.399C14.1917 98.0429 16.0686 96.5137 18.1163 95.2821Z" fill="#E6AE6B"/>
<path d="M29.4555 103.279C29.592 103.888 28.9835 104.424 29.1448 104.958C29.4395 105.019 29.6317 104.95 29.9268 104.887L30.9288 104.792C32.8968 104.659 35.5478 104.723 37.5633 104.725C39.6457 104.72 41.7277 104.672 43.8081 104.582C44.8907 104.346 46.8649 103.78 47.8261 103.801L47.8972 103.95C48.8625 103.973 55.5443 104.261 55.9854 104.491L55.9581 104.724C56.2772 104.857 56.4157 104.882 56.6299 105.154C56.5737 105.496 56.6199 105.366 56.3694 105.671L56.8532 106C56.5709 106.27 56.709 106.189 56.3031 106.283L56.2866 106.346C54.7353 106.484 51.6463 106.398 50.0215 106.397L38.0988 106.372L20.9849 106.376C17.8766 106.382 14.5704 106.447 11.4754 106.365C13.7379 106.128 28.0517 106.496 28.5733 106.105L28.452 105.913C28.346 105.77 28.3464 105.672 28.3171 105.498C28.7554 104.802 29.23 103.561 29.4555 103.279Z" fill="#6C1E12"/>
<path d="M35.8578 105.684C37.5898 105.744 40.0829 105.572 41.9042 105.52C44.9048 105.437 47.9066 105.403 50.9082 105.418C52.3137 105.416 55.0687 105.359 56.3694 105.671L56.8532 106C56.5709 106.27 56.709 106.189 56.3031 106.283L56.2866 106.346C54.7353 106.484 51.6463 106.398 50.0215 106.397L38.0988 106.372L20.9849 106.376C17.8766 106.382 14.5704 106.447 11.4754 106.365C13.7379 106.128 28.0517 106.496 28.5733 106.105L28.452 105.913C29.4007 105.705 32.8419 105.649 33.7598 105.784C34.4597 105.762 35.1591 105.728 35.8578 105.684Z" fill="#CB955B"/>
<path d="M28.452 105.913C29.4007 105.705 32.8419 105.649 33.7598 105.784C34.4235 106.075 35.802 105.977 36.5656 105.954L36.5679 106.089C35.7984 106.235 34.3766 105.931 33.8531 106.083L33.8768 106.194C37.0051 106.445 42.1964 106.225 45.4292 106.244C48.8283 106.265 52.9923 106.414 56.3031 106.283L56.2866 106.346C54.7353 106.484 51.6463 106.398 50.0215 106.397L38.0988 106.372L20.9849 106.376C17.8766 106.382 14.5704 106.447 11.4754 106.365C13.7379 106.128 28.0517 106.496 28.5733 106.105L28.452 105.913Z" fill="#B37A49"/>
<path d="M43.8081 104.582C44.8907 104.346 46.8649 103.78 47.8261 103.801L47.8972 103.95C48.8625 103.973 55.5443 104.261 55.9854 104.491L55.9581 104.724C52.3353 104.458 47.7011 104.795 43.8081 104.582Z" fill="#B5A8A7"/>
<path d="M29.4555 103.279C29.592 103.888 28.9835 104.424 29.1448 104.958C29.4395 105.019 29.6317 104.95 29.9268 104.887L30.9288 104.792C30.9995 104.99 31.0694 105.13 31.0606 105.34C31.5881 105.677 34.9618 105.515 35.8578 105.684C35.1591 105.728 34.4597 105.762 33.7598 105.784C32.8419 105.649 29.4007 105.705 28.452 105.913C28.346 105.77 28.3464 105.672 28.3171 105.498C28.7554 104.802 29.23 103.561 29.4555 103.279Z" fill="#66210B"/>
<path d="M33.0344 99.3143C33.1992 99.5945 33.5773 99.7012 33.8989 99.8422C33.1612 100.669 31.2062 102.726 30.6359 103.507C30.5292 103.694 30.3025 104.064 30.2325 104.247C29.9039 104.446 29.9991 104.328 29.8749 104.692L29.9268 104.887C29.6317 104.95 29.4395 105.019 29.1448 104.958C28.9835 104.424 29.592 103.888 29.4555 103.279C30.1469 102.099 32.2069 100.753 33.0344 99.3143Z" fill="#6C280E"/>
<path d="M51.817 91.3284C52.4677 91.9458 53.9402 91.6063 54.9884 91.7089C55.6509 91.7042 56.4233 91.6509 57.0935 91.6198C57.4374 91.8762 57.6087 91.9724 57.9863 92.1751L58.457 92.1968C58.0832 92.2889 57.7716 92.3092 57.5482 92.5965C58.3498 92.9423 58.9643 93.2294 59.7359 93.6363C60.1645 93.4395 60.688 93.1802 61.1166 93.0081L61.22 93.8463C60.8167 94.0415 60.4082 94.226 59.9951 94.3995L59.3717 94.3728C59.4784 97.1218 59.5005 101.307 59.3858 104.002L58.2854 103.486L57.9672 103.834C57.71 103.833 57.5861 103.847 57.351 103.954L55.9567 103.557L55.9995 103.876L55.8398 104.074C53.1184 103.755 50.621 103.327 47.8261 103.801C46.8649 103.78 44.8907 104.346 43.8081 104.582C41.7277 104.672 39.6457 104.72 37.5633 104.725C35.5478 104.723 32.8968 104.659 30.9288 104.792L29.9268 104.887L29.8749 104.692C29.9991 104.328 29.9039 104.446 30.2325 104.247C30.3025 104.064 30.5292 103.694 30.6359 103.507C31.2062 102.726 33.1612 100.669 33.8989 99.8422C34.0296 99.7115 34.3225 99.3577 34.4936 99.3826C37.2575 99.7861 38.4068 99.8826 40.7845 98.1223C40.888 97.9836 41.4453 97.5266 41.611 97.3851C41.8126 97.2048 41.838 97.1414 41.9822 96.9078L42.9503 95.2088C42.6988 94.2038 43.262 94.2714 43.3512 93.5236L43.4695 93.2849C43.4029 93.0224 43.553 92.193 43.707 91.9689C43.7665 92.1537 43.7341 92.0839 43.882 92.2311C45.1306 92.1782 46.7207 91.9673 47.9585 91.7568C48.0361 92.2876 47.944 92.1911 48.2585 92.5416C48.6514 92.6398 48.9331 92.6428 49.335 92.6639L49.7504 92.6602C50.3151 92.4572 50.4149 92.3167 50.6977 91.8325C50.8579 91.5504 51.5187 91.4066 51.817 91.3284Z" fill="#FCFCFC"/>
<path d="M30.2325 104.247C39.7958 104.315 46.4763 101.174 55.9567 103.557L55.9995 103.876L55.8398 104.074C53.1184 103.755 50.621 103.327 47.8261 103.801C46.8649 103.78 44.8907 104.346 43.8081 104.582C41.7277 104.672 39.6457 104.72 37.5633 104.725C35.5478 104.723 32.8968 104.659 30.9288 104.792L29.9268 104.887L29.8749 104.692C29.9991 104.328 29.9039 104.446 30.2325 104.247Z" fill="#D9DAE8"/>
<path d="M30.6359 103.507C40.0401 103.663 48.9621 99.4964 58.2854 103.486L57.9672 103.834C57.71 103.833 57.5861 103.847 57.351 103.954L55.9567 103.557C46.4763 101.174 39.7958 104.315 30.2325 104.247C30.3025 104.064 30.5292 103.694 30.6359 103.507Z" fill="#6C280E"/>
<path d="M51.817 91.3284C52.4677 91.9458 53.9402 91.6063 54.9884 91.7089C55.6509 91.7042 56.4233 91.6509 57.0935 91.6198C57.4374 91.8762 57.6087 91.9724 57.9863 92.1751L58.457 92.1968C58.0832 92.2889 57.7716 92.3092 57.5482 92.5965L56.7745 92.3217C56.3172 92.3362 55.6971 92.3224 55.2791 92.4676L55.4086 92.4783C55.0483 92.5224 54.801 92.5611 54.4359 92.5428L54.2542 92.813C53.0066 92.6068 51.0566 92.6578 49.7504 92.6602C50.3151 92.4572 50.4149 92.3167 50.6977 91.8325C50.8579 91.5504 51.5187 91.4066 51.817 91.3284Z" fill="#6C280E"/>
<path d="M51.817 91.3284C52.4677 91.9458 53.9402 91.6063 54.9884 91.7089C54.4631 91.7963 51.1869 91.9038 50.6977 91.8325C50.8579 91.5504 51.5187 91.4066 51.817 91.3284Z" fill="#B5A8A7"/>
<path d="M57.9863 92.1751L58.457 92.1968C58.0832 92.2889 57.7716 92.3092 57.5482 92.5965L56.7745 92.3217C57.0703 92.1853 57.6373 92.192 57.9863 92.1751Z" fill="#B5A8A7"/>
<path d="M42.9503 95.2088C42.6988 94.2038 43.262 94.2714 43.3512 93.5236C44.0498 94.5424 44.6767 97.7957 43.9985 98.7948C43.7585 98.6152 43.7423 98.568 43.6139 98.2942L43.2213 98.1928L43.1378 98.125L43.2926 97.4955C42.7894 97.3081 42.4453 97.1945 41.9822 96.9078L42.9503 95.2088Z" fill="#6C280E"/>
<path d="M42.9503 95.2088C43.3947 95.8924 43.3027 96.6798 43.2926 97.4955C42.7894 97.3081 42.4453 97.1945 41.9822 96.9078L42.9503 95.2088Z" fill="#FCD799"/>
<path d="M54.2542 92.813L54.4359 92.5428C54.801 92.5611 55.0483 92.5224 55.4086 92.4783L55.2791 92.4676C55.6971 92.3224 56.3172 92.3362 56.7745 92.3217L57.5482 92.5965C58.3498 92.9423 58.9643 93.2294 59.7359 93.6363C60.1645 93.4395 60.688 93.1802 61.1166 93.0081L61.22 93.8463C60.8167 94.0415 60.4082 94.226 59.9951 94.3995L59.3717 94.3728C57.8576 93.5029 55.9661 93.08 54.2542 92.813Z" fill="#66210B"/>
<path d="M43.707 91.9689C43.7665 92.1537 43.7341 92.0839 43.882 92.2311C45.1306 92.1782 46.7207 91.9673 47.9585 91.7568C48.0361 92.2876 47.944 92.1911 48.2585 92.5416C48.6514 92.6398 48.9331 92.6428 49.335 92.6639C47.3351 92.8141 45.4532 93.092 43.4695 93.2849C43.4029 93.0224 43.553 92.193 43.707 91.9689Z" fill="#6C280E"/>
<path d="M41.611 97.3851C41.8126 97.2048 41.838 97.1414 41.9822 96.9078C42.4453 97.1945 42.7894 97.3081 43.2926 97.4955L43.1378 98.125L43.2213 98.1928L42.5625 98.826C42.2268 98.9842 41.8378 98.9475 41.4543 98.9519L41.2918 98.6889C41.2983 98.4942 41.2633 98.4292 41.2021 98.2489L40.7845 98.1223C40.888 97.9836 41.4453 97.5266 41.611 97.3851Z" fill="#E4E9F2"/>
<path d="M41.611 97.3851C41.8126 97.2048 41.838 97.1414 41.9822 96.9078C42.4453 97.1945 42.7894 97.3081 43.2926 97.4955L43.1378 98.125C42.5179 97.8737 42.1838 97.7022 41.611 97.3851Z" fill="var(--fill-0, #7C3121)"/>
<path d="M41.2918 98.6889C41.6346 98.5225 42.3244 98.4679 42.5625 98.826C42.2268 98.9842 41.8378 98.9475 41.4543 98.9519L41.2918 98.6889Z" fill="#9C5744"/>
<path d="M43.2213 98.1928L43.6139 98.2942C43.7423 98.568 43.7585 98.6152 43.9985 98.7948L43.3739 99.0836C42.9296 99.0616 41.8406 99.0346 41.4543 98.9519C41.8378 98.9475 42.2268 98.9842 42.5625 98.826L43.2213 98.1928Z" fill="#92807C"/>
<path d="M43.2213 98.1928L43.6139 98.2942C43.3797 98.7361 43.4916 98.6795 43.1054 98.8855C42.9427 98.8694 42.7173 98.8535 42.5625 98.826L43.2213 98.1928Z" fill="#D9DAE8"/>
<path d="M49.9882 100.62C50.0456 100.453 50.1107 100.288 50.1833 100.127C50.5997 99.1957 50.9988 97.9373 52.2369 98.5315L52.2758 98.7347C51.7196 99.2581 51.1626 98.7057 50.7274 99.5914C51.2371 100.391 53.4964 99.8367 54.6588 100.166C54.865 99.9635 54.8007 100.038 54.8352 99.6727C55.3496 99.1197 56.0782 99.2327 56.7433 99.511C56.8889 99.783 56.8644 99.661 56.8619 99.9733L57.0795 100.494L57.1668 100.655L57.0909 100.72C56.3731 101.341 56.4262 102.106 55.4393 101.753C55.1742 101.399 55.1599 101.281 55.0464 100.859C54.1913 100.33 52.3715 100.523 50.9282 100.264C50.7717 100.587 50.9216 101.041 50.9874 101.451C50.6956 101.424 50.2545 100.883 49.9882 100.62Z" fill="#834332"/>
<path d="M54.8352 99.6727C55.3496 99.1197 56.0782 99.2327 56.7433 99.511C56.8889 99.783 56.8644 99.661 56.8619 99.9733C56.2634 100.078 55.361 100.034 54.8352 99.6727Z" fill="var(--fill-0, #7C3121)"/>
<path d="M54.6588 100.166C54.865 99.9635 54.8007 100.038 54.8352 99.6727C55.361 100.034 56.2634 100.078 56.8619 99.9733L57.0795 100.494C56.1755 100.399 55.5484 100.669 54.6588 100.166Z" fill="#D9DAE8"/>
<path d="M55.0464 100.859C55.4174 100.831 55.6852 100.759 55.9755 100.961C55.9896 101.394 55.787 101.481 55.4393 101.753C55.1742 101.399 55.1599 101.281 55.0464 100.859Z" fill="#D5C4BE"/>
<path d="M37.9427 100.754C38.6549 100.21 39.4957 100.899 40.108 100.598C40.708 100.568 41.21 100.494 41.7637 100.755L41.9637 100.997C42.0792 100.774 41.1294 101.812 41.282 101.679C40.6527 101.805 38.287 102 37.7047 101.794L37.6061 101.509C37.7284 101.291 37.8439 100.99 37.9427 100.754Z" fill="#D9DAE8"/>
<path d="M37.6061 101.509C38.0601 101.362 40.8836 101.404 41.282 101.679C40.6527 101.805 38.287 102 37.7047 101.794L37.6061 101.509Z" fill="#834332"/>
<path d="M37.9427 100.754C38.6549 100.21 39.4957 100.899 40.108 100.598L40.1829 100.915C39.6112 100.64 38.7791 101.229 37.9427 100.754Z" fill="#92807C"/>
<path d="M40.108 100.598C40.708 100.568 41.21 100.494 41.7637 100.755C41.3487 101.001 40.6657 100.953 40.1829 100.915L40.108 100.598Z" fill="#834332"/>
<path d="M53.2526 93.5047C53.6762 93.6158 54.091 93.7253 54.505 93.869C55.0181 94.0472 55.8094 94.7322 56.3467 94.7063C56.5426 94.4997 56.5745 94.464 56.8104 94.309L57.045 94.4314C57.2411 94.7834 57.1833 94.9943 57.1413 95.3973C56.4147 95.6974 56.3035 95.0867 55.7641 95.0717C55.142 95.0543 54.2959 95.2289 53.6576 95.1727C53.322 95.1431 53.2339 94.9781 53.0663 94.7544C52.9334 94.3004 53.1018 93.9584 53.2526 93.5047Z" fill="#834332"/>
<path d="M53.3847 94.1431C54.0353 94.1248 54.8813 94.1941 55.2012 94.7867C54.5015 94.7411 53.9065 94.9662 53.4097 94.5401L53.3847 94.1431Z" fill="#D5C4BE"/>
<path d="M48.1295 98.0744L48.3634 98.0249L48.5096 98.1969L48.4634 98.5296C47.9174 98.6507 46.3898 99.3081 45.8165 99.1633C45.7259 99.1403 45.7936 98.9341 45.4243 98.8128C45.2497 99.0877 45.1206 99.2683 44.9251 99.5265C44.6305 99.276 44.5992 99.2417 44.5215 98.8644C44.7247 98.3714 45.5178 98.0588 45.9948 98.1939C46.0852 98.3934 46.2219 98.8526 46.4453 98.662C47.1117 98.0941 47.2518 98.0668 48.1295 98.0744Z" fill="#834332"/>
<path d="M48.6267 94.8343C48.3416 94.3888 48.3125 94.5025 48.3796 94.0898C48.9024 93.4352 50.144 93.3486 50.349 94.2905C50.0619 95.244 49.598 95.3656 48.7785 94.9947L48.6267 94.8343Z" fill="#9C5744"/>
<path d="M48.6267 94.8343C48.9156 94.3833 48.7748 94.4762 49.2235 94.248L49.4336 94.3107C49.4095 94.7605 49.1563 94.8135 48.7785 94.9947L48.6267 94.8343Z" fill="#D9DAE8"/>
<path d="M45.2694 93.8277C45.777 93.8319 45.9854 93.7946 46.341 94.0461L46.3763 94.3294C46.1586 94.8151 46.0174 94.9213 45.6265 95.2932L44.0228 94.7306C44.4114 94.4304 44.8668 94.118 45.2694 93.8277Z" fill="#9C5744"/>
<path d="M35.4996 101.487C35.0132 101.702 34.4425 101.983 33.9317 102.092L33.9435 101.954C34.5259 101.402 34.5112 101.56 35.132 101.199C35.082 100.951 35.0684 100.872 35.0606 100.62C35.437 100.547 35.5314 100.686 35.9456 100.883L36.116 101.016C36.27 101.294 36.4201 101.586 36.3286 101.888C35.8942 101.858 35.9155 101.776 35.4996 101.487Z" fill="#834332"/>
<path d="M46.184 99.9755L46.4538 100.118L46.418 100.283C45.6995 100.681 45.2155 100.769 44.3813 100.738C44.246 100.733 44.0295 100.956 43.8935 101.066C43.7311 101.016 43.6131 100.947 43.4611 100.871L43.414 100.681C43.9537 99.9691 45.2127 100.62 46.184 99.9755Z" fill="#834332"/>
<path d="M56.4557 96.5906C56.8932 96.6877 57.2639 96.9756 57.341 97.424C57.1224 97.8976 57.1434 97.7773 56.632 98.1004C56.4526 98.2742 56.5575 98.2108 56.2928 98.2701C56.1544 97.9179 56.4239 97.6321 56.4379 97.1102L56.4557 96.5906Z" fill="#834332"/>
<path d="M50.1109 96.2815C50.5822 96.4776 50.5493 96.3833 50.8131 96.7439C50.7311 97.1716 50.6995 97.0937 50.3619 97.4665C50.0096 97.3904 49.7801 97.2496 49.5991 96.9453C49.7196 96.4985 49.6941 96.624 50.1109 96.2815Z" fill="#9C5744"/>
<path d="M52.6843 96.4745C53.071 96.4122 53.1166 96.4177 53.4818 96.56C53.7451 96.8739 53.7039 96.733 53.6777 97.0843C53.295 97.4355 52.7298 97.2237 52.401 96.9014L52.6843 96.4745Z" fill="#AF644C"/>
<path d="M48.2446 99.6609C48.5275 99.8292 48.4368 99.7314 48.5803 100.039L48.4546 100.362C47.9489 100.609 48.11 100.541 47.4431 100.358L47.1311 100.354L47.1271 100.218C47.3233 99.9807 47.6858 100.026 48.1657 99.7131L48.2446 99.6609Z" fill="#834332"/>
<path d="M45.9014 96.6765C46.2467 96.6743 46.3721 96.6882 46.7129 96.7462C46.9686 97.0585 46.8942 96.9581 46.8978 97.4415C46.5096 97.4242 46.2274 97.4433 45.8864 97.2572C45.767 96.9419 45.7938 97.0608 45.9014 96.6765Z" fill="#AF644C"/>
<path d="M48.6026 96.7159L48.8886 96.7285L48.9711 96.8668C48.6914 97.1594 48.217 97.1844 47.8101 97.2365L47.6615 97.2807L47.6774 97.0669C48.1166 96.7115 47.9912 96.8151 48.6026 96.7159Z" fill="#9C5744"/>
<path d="M51.7592 97.2184C51.6194 97.3252 51.698 97.2816 51.4659 97.2745C51.2432 96.9359 51.1845 96.6007 51.3674 96.2303L51.5723 96.1774L51.7735 96.4313L51.7592 97.2184Z" fill="#9C5744"/>
<path d="M51.7735 96.4313C52.0034 96.4409 52.4753 96.448 52.6843 96.4745L52.401 96.9014L52.3091 97.1427L51.9634 97.035L51.7592 97.2184L51.7735 96.4313Z" fill="#E4E9F2"/>
<path d="M54.785 97.0517L54.9047 96.9783C55.2039 97.1734 55.5326 97.2249 55.8836 97.3124L55.863 97.5003C55.4324 97.4417 55.0546 97.5142 54.7077 97.3397L54.785 97.0517Z" fill="#795658"/>
<path d="M35.9456 100.883C36.3987 100.607 36.2593 100.608 36.7421 100.603L36.7804 100.749C36.5066 100.949 36.4519 100.954 36.116 101.016L35.9456 100.883Z" fill="#92807C"/>
<path d="M59.3717 94.3728L59.9951 94.3995C59.8618 95.2536 59.8947 103.649 60.0692 104.066L59.9931 104.203L60.417 104.548C61.3375 104.191 62.3822 103.904 63.3961 103.515C63.6044 103.648 63.7685 103.73 63.9223 103.924C65.9874 103.627 69.3103 103.746 71.4274 103.912C72.3984 103.961 73.2122 103.891 73.9319 104.616C71.9815 104.886 69.6232 104.581 67.7776 104.734C66.2329 104.848 64.7285 104.857 63.1805 104.822C62.9458 104.817 62.7237 105.213 62.6288 105.389L62.4786 105.34L62.437 105.229C61.9777 105.689 61.4976 105.596 60.7719 105.626L61.6485 105.705L61.1972 105.868L61.2816 106.025C60.8159 106.047 59.4001 105.934 59.1599 106.133C58.7744 106.164 58.3072 106.169 57.914 106.184L57.6218 106.179L56.8532 106L56.3694 105.671C56.6199 105.366 56.5737 105.496 56.6299 105.154C56.4157 104.882 56.2772 104.857 55.9581 104.724L55.9854 104.491C55.5443 104.261 48.8625 103.973 47.8972 103.95L47.8261 103.801C50.621 103.327 53.1184 103.755 55.8398 104.074L55.9995 103.876L55.9567 103.557L57.351 103.954C57.5861 103.847 57.71 103.833 57.9672 103.834L58.2854 103.486L59.3858 104.002C59.5005 101.307 59.4784 97.1218 59.3717 94.3728Z" fill="var(--fill-0, #7C3121)"/>
<path d="M71.4274 103.912C72.3984 103.961 73.2122 103.891 73.9319 104.616C71.9815 104.886 69.6232 104.581 67.7776 104.734C66.4489 104.696 64.2483 104.687 63.0079 104.486C64.999 104.174 66.7761 104.237 68.7841 104.186C69.6 104.166 70.475 104.23 71.275 104.124L71.4274 103.912Z" fill="#B5A8A7"/>
<path d="M60.7719 105.626C60.1483 105.604 58.0679 105.545 57.5614 105.365C59.4266 105.099 60.5567 105.169 62.437 105.229C61.9777 105.689 61.4976 105.596 60.7719 105.626Z" fill="#7B604B"/>
<path d="M60.417 104.548C61.3375 104.191 62.3822 103.904 63.3961 103.515C63.6044 103.648 63.7685 103.73 63.9223 103.924C62.5987 104.263 61.9035 104.816 60.417 104.548Z" fill="#B5A8A7"/>
<path d="M55.9567 103.557L57.351 103.954C57.691 104.068 58.461 104.267 58.644 104.539C58.1979 104.787 56.3257 104.308 55.8398 104.074L55.9995 103.876L55.9567 103.557Z" fill="#B5A8A7"/>
<path d="M63.3961 103.515C69.7752 102.12 72.7555 102.424 79.2584 103.406C80.4431 103.585 83.6754 104.054 84.7235 103.994C85.3318 103.604 86.0631 103.911 87.3655 103.488L88.8726 103.554C89.1085 103.848 89.294 103.909 89.1918 104.252C89.6391 104.319 89.5078 104.235 89.7394 104.525C89.4353 104.89 88.3278 104.802 87.8506 104.782C83.2531 104.582 78.5183 104.874 73.9319 104.616C73.2122 103.891 72.3984 103.961 71.4274 103.912C69.3103 103.746 65.9874 103.627 63.9223 103.924C63.7685 103.73 63.6044 103.648 63.3961 103.515Z" fill="#D9DAE8"/>
<path d="M87.3655 103.488L88.8726 103.554C89.1085 103.848 89.294 103.909 89.1918 104.252C87.7 104.276 86.2067 104.135 84.7235 103.994C85.3318 103.604 86.0631 103.911 87.3655 103.488Z" fill="#6C1E12"/>
<path d="M60.0692 104.066C66.6431 100.431 74.7504 102.057 81.7519 102.971C83.6176 103.2 85.4896 103.372 87.3655 103.488C86.0631 103.911 85.3318 103.604 84.7235 103.994C83.6754 104.054 80.4431 103.585 79.2584 103.406C72.7555 102.424 69.7752 102.12 63.3961 103.515C62.3822 103.904 61.3375 104.191 60.417 104.548L59.9931 104.203L60.0692 104.066Z" fill="#6C280E"/>
<path d="M66.4467 91.5563C66.5406 91.2959 66.5413 91.283 66.7334 91.0908L66.8976 91.2177L67.007 91.5167C67.3772 91.6174 69.4213 91.6013 69.8339 91.5559C70.878 91.6922 71.7732 91.6565 72.7657 91.7497C74.1537 91.88 75.8749 92.0774 77.2459 92.3162C77.0878 92.7975 76.8262 92.9957 76.461 93.3534C76.0393 93.1305 75.4341 93.0783 74.9526 93.0231C70.4443 92.5067 65.5293 92.1716 61.22 93.8463L61.1166 93.0081C62.4474 92.416 63.8616 92.1183 65.2838 91.8435C65.6844 91.7661 66.0788 91.7504 66.4467 91.5563Z" fill="#72290E"/>
<path d="M75.9016 95.8531C75.9221 96.3993 76.1517 96.9113 76.4938 97.3332C75.8065 97.6559 75.7262 97.5978 75.0183 97.331C74.6109 96.7243 74.7531 96.4114 75.3131 95.9715L75.9016 95.8531Z" fill="#834332"/>
<path d="M74.1779 96.1777C74.649 96.354 74.5539 95.8285 75.3131 95.9715C74.7531 96.4114 74.6109 96.7243 75.0183 97.331C74.8093 97.3933 74.4282 97.52 74.2274 97.5476C74.0866 97.0022 74.1328 96.7455 74.1779 96.1777Z" fill="#E4E9F2"/>
<path d="M80.1881 99.6314L80.5119 99.694C80.5416 100.201 80.8592 100.601 81.1373 101.031L81.0734 101.242L80.8368 101.269C79.9903 100.848 79.9651 100.47 80.1881 99.6314Z" fill="#834332"/>
<path d="M74.2274 97.5476C73.8828 97.513 73.6961 97.5264 73.4312 97.2937C73.2401 96.7462 73.4295 96.2729 73.9448 95.9926L74.1779 96.1777C74.1328 96.7455 74.0866 97.0022 74.2274 97.5476Z" fill="#9C5744"/>
<path d="M83.1364 100.039L83.5824 100.048L83.5312 100.266C83.1979 100.424 83.2888 100.401 83.0887 100.803C82.4661 100.856 82.0132 101.177 81.5939 101.042L81.5884 100.846C81.9217 100.518 82.3902 100.584 82.9264 100.552C83.171 100.342 83.0987 100.448 83.1364 100.039Z" fill="#795658"/>
<path d="M83.0887 100.803C83.2888 100.401 83.1979 100.424 83.5312 100.266C83.9648 100.438 84.2582 100.459 84.4679 100.789C84.1367 100.999 83.471 100.871 83.0887 100.803Z" fill="var(--fill-0, #7C3121)"/>
<path d="M66.6854 98.1159C67.4477 97.9882 70.0147 97.5076 70.6068 97.9298C70.3221 98.3379 69.0068 98.8116 68.5306 98.9273C68.0051 99.055 67.2717 98.6499 66.7581 98.4186L66.6854 98.1159Z" fill="#834332"/>
<path d="M62.403 93.8847C62.5044 93.9739 62.6093 94.0591 62.7177 94.1398C63.9571 95.0516 65.6633 93.763 66.4185 94.3567C66.1099 94.7278 65.5676 94.6631 65.1504 94.6031C63.7951 94.773 63.3069 95.3552 62.0666 95.5012C61.9825 95.5111 61.8927 95.3521 61.8297 95.2724C61.7821 94.7834 62.1593 94.3192 62.403 93.8847Z" fill="#9C5744"/>
<path d="M70.2323 93.5125C70.9911 93.4364 71.9842 93.6943 72.1477 94.5532L71.9953 94.75C71.5649 94.8802 71.4112 94.8747 70.9665 94.8934C70.1994 94.9449 69.3976 94.9481 69.3327 93.9712L69.5029 93.8621C69.7558 93.9711 69.8526 94.1057 70.0405 94.3034L70.2175 94.2218C70.1501 93.8905 70.128 93.8305 70.2323 93.5125Z" fill="#834332"/>
<path d="M70.6988 93.6409C70.8777 93.6814 70.9969 93.7545 71.1589 93.8376C71.2808 94.1521 71.2557 94.0306 71.0996 94.4357L70.4596 94.2417L70.3997 94.0696L70.6988 93.6409Z" fill="#E4E9F2"/>
<path d="M62.4234 99.9759C63.014 100.214 62.8194 100.091 63.2261 100.659C63.793 100.851 64.3304 100.122 64.7784 100.572C64.5245 100.831 64.5538 100.763 64.1683 100.878C63.4915 101.126 62.2134 101.786 61.717 100.981C61.7629 100.59 62.1546 100.233 62.4234 99.9759Z" fill="#834332"/>
<path d="M71.794 100.023C72.2356 99.9644 72.5697 100.035 72.9989 100.124C73.6244 100.255 74.3184 99.7412 74.8872 100.117C75.0053 100.513 74.9667 100.405 74.8201 100.858C74.456 100.858 73.9716 100.548 73.949 100.549C73.321 100.597 71.9848 100.864 71.794 100.023Z" fill="#9C5744"/>
<path d="M66.0488 98.535C65.7423 98.7119 65.2159 98.8921 64.8522 98.8956C64.4824 98.7406 64.596 98.8464 64.4149 98.5075C64.7159 97.6045 65.5842 97.9969 66.2476 98.2037L66.0488 98.535Z" fill="#9C5744"/>
<path d="M71.0988 97.5906C71.6577 97.7143 71.9307 97.7067 72.449 97.9612C72.6538 98.3082 72.5816 98.2573 72.5347 98.7386C71.6576 98.8775 71.0903 98.5212 71.0988 97.5906Z" fill="var(--fill-0, #7C3121)"/>
<path d="M67.9313 96.6692C67.7404 97.0296 67.3887 97.2364 66.9897 97.2738C66.5888 97.1032 66.7165 97.219 66.507 96.8415C66.5656 96.4529 66.4915 96.5976 66.8243 96.3082C67.2857 96.1776 67.3973 96.2168 67.8729 96.3008L67.9313 96.6692Z" fill="#944F1E"/>
<path d="M73.3754 93.4273L73.5309 93.5471C73.7098 94.0157 74.0933 94.541 74.0399 94.8902L73.8522 94.9847L73.7289 94.8332C73.2597 94.5216 73.1412 94.6261 72.6356 94.382C72.6641 94.0508 73.0976 93.7154 73.3754 93.4273Z" fill="var(--fill-0, #7C3121)"/>
<path d="M75.7462 99.6651C76.7035 99.7877 76.8098 100.519 76.3277 101.23C76.0209 100.966 75.7251 100.748 75.5264 100.396C75.4766 99.9492 75.4686 100.104 75.7462 99.6651Z" fill="#834332"/>
<path d="M70.0192 99.4286C70.2326 99.4574 70.3497 99.5035 70.5501 99.5704C70.8843 99.8895 70.9504 100.402 71.0595 100.862C70.0169 100.872 69.8803 100.323 70.0192 99.4286Z" fill="var(--fill-0, #7C3121)"/>
<path d="M70.7652 95.9361C71.507 96.2411 71.6636 96.5421 71.5756 97.2857C71.1558 97.1446 71.0998 97.124 70.8032 96.7917C70.6437 96.393 70.6507 96.3419 70.7652 95.9361Z" fill="#9C5744"/>
<path d="M68.0569 93.437C68.4298 93.771 68.3261 93.6034 68.4699 94.0639C68.4238 94.4415 68.3901 94.4785 68.1259 94.7556C67.8427 94.5309 67.7937 94.4915 67.5913 94.1936C67.6428 93.7624 67.7019 93.8266 68.0569 93.437Z" fill="#9C5744"/>
<path d="M66.3615 100.01C66.4045 100.017 66.6033 100.124 66.6567 100.151L66.6245 100.342C66.2816 100.677 66.1664 100.676 65.6902 100.765C65.4683 100.631 65.4249 100.595 65.2328 100.42C65.3236 100.245 66.0314 100.121 66.3615 100.01Z" fill="#834332"/>
<path d="M83.2668 101.463C83.8497 101.417 84.7182 101.36 85.2638 101.567L85.2713 101.822C84.7028 101.813 83.6062 101.928 83.2668 101.463Z" fill="#834332"/>
<path d="M67.9445 100.001C68.3783 99.9625 68.7438 99.8591 69.0198 100.217L68.9488 100.641C68.7562 100.649 68.5852 100.612 68.3951 100.581C68.0116 100.288 68.1292 100.442 67.9445 100.001Z" fill="#9C5744"/>
<path d="M64.8307 96.2443C65.2236 96.3598 65.401 96.4067 65.5111 96.785L65.3483 97.0798L64.674 96.849L64.5863 96.6399L64.8307 96.2443Z" fill="#AF644C"/>
<path d="M77.7037 100.486C78.3268 100.372 78.5911 100.411 79.1048 100.78C78.3751 100.906 78.2159 101.036 77.7037 100.486Z" fill="#AF644C"/>
<path d="M63.0947 96.6877C63.4594 96.6537 63.7998 96.5822 64.1211 96.7549L64.146 97.0073C63.6301 97.122 63.6262 97.2093 63.2011 97.0599L63.0947 96.6877Z" fill="var(--fill-0, #7C3121)"/>
<path d="M67.8729 96.3008C68.2773 96.3231 68.4342 96.2664 68.7431 96.4583C68.3267 96.6657 68.1977 96.5574 67.9313 96.6692L67.8729 96.3008Z" fill="#AF857D"/>
<path d="M72.7264 96.2788C72.8552 96.2097 73.0155 96.2585 73.0843 96.3876C73.1531 96.5168 73.1042 96.6773 72.9752 96.7459C72.8464 96.8146 72.6865 96.7658 72.6179 96.6369C72.5492 96.508 72.5978 96.3477 72.7264 96.2788Z" fill="#834332"/>
<path d="M66.2476 98.2037L66.6854 98.1159L66.7581 98.4186C66.5452 98.4491 66.2488 98.4807 66.0488 98.535L66.2476 98.2037Z" fill="#AF857D"/>
<path d="M69.4544 96.3904L69.6982 96.2814L69.8281 96.4702L69.5774 96.5996L69.4544 96.3904Z" fill="#AF857D"/>
<path d="M69.4603 19.5764C73.2045 22.8041 79.3666 23.6253 84.0188 22.2704C86.8829 26.69 89.488 27.6352 94.2188 29.0831C93.2182 32.3534 92.7441 35.7979 91.8299 39.0946C91.7698 39.3113 91.6508 39.3693 91.483 39.4803C91.7196 39.982 91.7055 39.7767 91.5924 40.3047C91.4028 41.3387 90.7439 47.0029 90.1509 47.1531C85.4955 48.3319 78.6397 47.3461 74.0509 46.4227C68.1635 45.3136 59.809 43.5417 55.0848 39.7214C55.5933 37.7262 56.2734 34.8041 56.8884 32.8632C56.8039 32.7288 56.8441 32.7164 56.8718 32.5119C57.253 31.6062 57.5143 30.3935 57.8012 29.4231C58.5057 27.0412 59.0454 24.6776 59.5808 22.2547C59.6045 21.8525 59.5738 21.4596 59.7942 21.1471C60.419 21.0836 61.318 21.4809 62.0097 21.5444C64.4031 21.7643 67.4257 20.7445 69.4603 19.5764Z" fill="#FCFCFC"/>
<path d="M55.0848 39.7214C55.5933 37.7262 56.2734 34.8041 56.8884 32.8632C59.5037 34.2729 67.0884 36.687 70.0908 37.3656C71.8904 37.8275 75.1459 38.5494 76.9925 38.7335L77.2189 38.6779L77.217 38.4482L77.5801 38.2289C78.0297 38.4396 78.1623 38.4478 78.6695 38.2618C78.7494 38.2327 78.829 38.2023 78.9079 38.1707C79.3599 38.2169 79.8027 38.2533 80.2477 38.3483C81.034 38.49 82.6913 38.8543 83.3891 38.5862C83.7053 38.6219 83.7443 38.6711 83.986 38.885C84.931 38.9555 87.4421 39.3709 88.1955 39.1368L88.3454 38.804C88.778 38.8769 88.8303 38.8521 88.9798 39.3172C89.5888 39.3774 91.0904 39.3704 91.483 39.4803C91.7196 39.982 91.7055 39.7767 91.5924 40.3047C91.4028 41.3387 90.7439 47.0029 90.1509 47.1531C85.4955 48.3319 78.6397 47.3461 74.0509 46.4227C68.1635 45.3136 59.809 43.5417 55.0848 39.7214Z" fill="#FCFCFC"/>
<path d="M85.595 39.9528C86.6473 40.0648 91.129 40.1025 91.5924 40.3047C91.4028 41.3387 90.7439 47.0029 90.1509 47.1531C85.4955 48.3319 78.6397 47.3461 74.0509 46.4227C75.9083 45.5246 82.9103 46.3095 84.5021 45.1412C85.3479 44.5205 85.442 41.0715 85.595 39.9528Z" fill="#D9DAE8"/>
<path d="M78.9079 38.1707C79.3599 38.2169 79.8027 38.2533 80.2477 38.3483C81.034 38.49 82.6913 38.8543 83.3891 38.5862C83.7053 38.6219 83.7443 38.6711 83.986 38.885C84.931 38.9555 87.4421 39.3709 88.1955 39.1368L88.3454 38.804C88.778 38.8769 88.8303 38.8521 88.9798 39.3172C89.5888 39.3774 91.0904 39.3704 91.483 39.4803C91.7196 39.982 91.7055 39.7767 91.5924 40.3047C91.129 40.1025 86.6473 40.0648 85.595 39.9528C83.0035 39.6441 79.5053 39.3575 76.9925 38.7335L77.2189 38.6779L77.217 38.4482L77.5801 38.2289C78.0297 38.4396 78.1623 38.4478 78.6695 38.2618C78.7494 38.2327 78.829 38.2023 78.9079 38.1707Z" fill="#6C280E"/>
<path d="M69.4603 19.5764C73.2045 22.8041 79.3666 23.6253 84.0188 22.2704C86.8829 26.69 89.488 27.6352 94.2188 29.0831C93.2182 32.3534 92.7441 35.7979 91.8299 39.0946C91.7698 39.3113 91.6508 39.3693 91.483 39.4803C91.0904 39.3704 89.5888 39.3774 88.9798 39.3172C88.8303 38.8521 88.778 38.8769 88.3454 38.804L88.1955 39.1368C87.4421 39.3709 84.931 38.9555 83.986 38.885C83.9 38.3805 84.7639 34.1954 84.9411 33.2903L84.7322 33.072L84.5646 32.8138L84.0995 32.8102C84.5301 31.9483 85.3372 28.4343 85.7845 27.1198C84.6794 26.0563 83.6199 24.7288 82.9301 23.3584C80.5455 24.0593 75.7349 23.6759 73.3648 22.7236C72.7343 22.4717 72.1195 22.1819 71.524 21.8558C71.2311 21.6915 69.6625 20.501 69.4578 20.6005C67.2548 21.673 64.6971 22.4787 62.226 22.4445C61.2874 22.4314 60.5728 22.157 59.5808 22.2547C59.6045 21.8525 59.5738 21.4596 59.7942 21.1471C60.419 21.0836 61.318 21.4809 62.0097 21.5444C64.4031 21.7643 67.4257 20.7445 69.4603 19.5764Z" fill="#D9DAE8"/>
<path d="M86.1254 27.4428C86.9127 28.2626 87.7437 28.8546 88.6457 29.5353C88.1418 31.5389 87.6298 33.5402 87.0537 35.5243C86.8685 36.1622 86.6603 37.2999 86.4329 37.8456C85.6394 38.0512 84.4222 38.2464 84.0566 38.8393C84.0331 38.8545 84.0096 38.8697 83.986 38.885C83.9 38.3805 84.7639 34.1954 84.9411 33.2903C85.1906 31.1799 86.0307 29.4039 86.1254 27.4428Z" fill="#FCFCFC"/>
<path d="M89.9106 32.2873C90.1444 34.3527 89.3848 37.218 88.9798 39.3172C88.8303 38.8521 88.778 38.8769 88.3454 38.804C88.875 36.6328 89.5421 34.4878 89.9106 32.2873Z" fill="#834332"/>
<path d="M61.0362 28.4007L61.3641 28.4565C61.0253 30.2094 60.4975 32.1586 60.2198 33.8357C61.4671 34.1971 62.8347 34.5699 64.0326 35.0513C64.4823 33.3986 64.9406 31.7482 65.4075 30.1004C65.496 29.9906 65.7658 29.7722 65.8859 29.6687C65.7053 30.7763 64.8589 34.0536 64.4917 35.1755C65.7841 35.5251 66.9552 35.8432 68.2705 36.108C69.7263 35.7293 69.2339 35.0951 70.3822 34.6283C70.6278 33.7451 70.8948 32.9597 71.0884 32.0552C71.2693 32.0405 71.3318 31.9988 71.4416 32.0801C71.2631 32.8528 70.3607 36.3099 70.5581 36.7645L71.0438 37.082L70.9957 37.1794C70.7469 37.2271 70.3185 37.2953 70.0908 37.3656C67.0884 36.687 59.5037 34.2729 56.8884 32.8632C56.8039 32.7288 56.8441 32.7164 56.8718 32.5119C57.5067 32.7002 57.8815 32.8409 58.484 33.0901C59.4013 32.6412 59.4163 32.1926 60.104 31.7587C60.3849 31.1729 60.872 29.1204 61.0362 28.4007Z" fill="#6C1E12"/>
<path d="M68.2705 36.108C69.7263 35.7293 69.2339 35.0951 70.3822 34.6283C70.2729 35.1132 70.1453 36.0091 69.8248 36.3267C69.2944 36.4776 68.8534 36.2648 68.2705 36.108Z" fill="#E4E9F2"/>
<path d="M58.484 33.0901C59.4013 32.6412 59.4163 32.1926 60.104 31.7587L59.6757 33.5997C59.294 33.4296 58.8727 33.2308 58.484 33.0901Z" fill="#E4E9F2"/>
<path d="M84.0995 32.8102L84.5646 32.8138L84.7322 33.072L84.9411 33.2903C84.7639 34.1954 83.9 38.3805 83.986 38.885C83.7443 38.6711 83.7053 38.6219 83.3891 38.5862C82.6913 38.8543 81.034 38.49 80.2477 38.3483C80.9711 37.8039 81.8213 37.7879 82.7336 37.6535C82.901 37.1736 84.0157 33.2593 84.0995 32.8102Z" fill="#E4E9F2"/>
<path d="M84.7322 33.072L84.9411 33.2903C84.7639 34.1954 83.9 38.3805 83.986 38.885C83.7443 38.6711 83.7053 38.6219 83.3891 38.5862C83.4192 38.0785 84.4494 33.5055 84.7322 33.072Z" fill="#834332"/>
<path d="M70.5581 36.7645C72.4537 37.0581 74.2798 37.5237 76.1986 37.7829L76.8619 38.0124C77.1757 38.1572 77.2386 38.1726 77.5801 38.2289L77.217 38.4482L77.2189 38.6779L76.9925 38.7335C75.1459 38.5494 71.8904 37.8275 70.0908 37.3656C70.3185 37.2953 70.7469 37.2271 70.9957 37.1794L71.0438 37.082L70.5581 36.7645Z" fill="#6C280E"/>
<path d="M78.8908 30.6129L79.1583 31.0844C78.9777 32.1322 77.754 37.5516 77.9123 38.004C78.3157 38.1201 78.4942 38.1314 78.9079 38.1707C78.829 38.2023 78.7494 38.2327 78.6695 38.2618C78.1623 38.4478 78.0297 38.4396 77.5801 38.2289C77.2386 38.1726 77.1757 38.1572 76.8619 38.0124L77.0729 37.8871C77.3787 37.3331 77.6604 35.7468 77.8054 35.0675C78.1448 33.5772 78.5067 32.0922 78.8908 30.6129Z" fill="#6C1E12"/>
<path d="M71.0884 32.0552C70.8451 31.361 72.335 26.1791 72.8859 25.5435C72.6089 26.3014 72.6044 27.4306 72.3088 28.2128C71.92 29.2418 71.7954 31.1285 71.4416 32.0801C71.3318 31.9988 71.2693 32.0405 71.0884 32.0552Z" fill="#D9DAE8"/>
<path d="M65.4075 30.1004C65.2155 29.4074 66.6352 24.3627 66.9729 24.0814C67.1044 24.2852 66 29.0897 65.8859 29.6687C65.7658 29.7722 65.496 29.9906 65.4075 30.1004Z" fill="#D9DAE8"/>
<path d="M76.1986 37.7829C76.9259 36.6883 76.2962 35.63 77.8054 35.0675C77.6604 35.7468 77.3787 37.3331 77.0729 37.8871L76.8619 38.0124L76.1986 37.7829Z" fill="#E4E9F2"/>
<path d="M61.0362 28.4007C61.1455 27.169 62.0344 24.1259 62.6289 23.0048C62.1971 24.8198 61.7756 26.637 61.3641 28.4565L61.0362 28.4007Z" fill="#D9DAE8"/>
<path d="M79.0237 29.8931C79.1623 29.1356 79.5105 27.3376 79.8338 26.6735C79.8533 27.467 79.4356 29.4788 79.278 30.3218L79.0237 29.8931Z" fill="#D9DAE8"/>
<path d="M79.0237 29.8931L79.278 30.3218L79.1583 31.0844L78.8908 30.6129L79.0237 29.8931Z" fill="#795658"/>
<path d="M1.21401 107.295C14.1643 107.495 27.4329 107.314 40.4058 107.326L118.72 107.326C118.711 108.238 118.74 109.713 118.566 110.562C117.376 110.705 115.103 110.658 113.866 110.654L106.321 110.638L29.2679 110.652C19.9822 110.657 10.5026 110.764 1.23322 110.636C1.15261 109.328 1.1341 108.611 1.21401 107.295Z" fill="#CB955B"/>
<path d="M99.5386 95.2809C100.547 95.2416 101.352 95.2224 102.358 95.2645C104.092 96.3239 106.749 98.4691 108.483 99.7311C111.075 101.617 115.459 104.376 117.756 106.435C114.766 106.174 110.739 106.44 107.633 106.36C106.532 106.203 103.974 106.25 102.761 106.249L94.4382 106.249C93.9473 106.248 91.6336 106.292 91.2838 106.178L91.266 105.784C91.304 105.327 91.0452 105.254 90.9262 104.874C90.3618 103.072 89.1012 101.936 87.7666 100.682C89.6505 100.778 91.054 100.356 92.6246 99.3577C92.7826 99.2572 93.2356 99.2327 93.4308 99.2392C96.2995 98.25 97.6513 97.8142 99.5386 95.2809Z" fill="#E6AE6B"/>
<path d="M92.2318 80.9552C94.2847 80.3258 97.9845 79.1572 99.9283 78.2383C99.4281 79.7283 99.3589 81.1829 97.9935 81.7693C96.6798 82.3333 95.2774 82.8743 93.9334 83.3496C91.7037 84.1382 87.9245 85.7002 85.6887 86.1206C81.7903 87.1343 78.1362 88.1282 74.1772 88.9921C72.2511 89.4123 69.8438 89.7022 68.0891 90.1195L68.5842 90.2227C68.5252 90.2475 68.2819 90.3442 68.2464 90.372C68.6108 90.7321 68.9153 90.3992 69.3799 90.7308C68.5575 90.9181 67.7296 91.0805 66.8976 91.2177L66.7334 91.0908C66.5413 91.283 66.5406 91.2959 66.4467 91.5563C66.0788 91.7504 65.6844 91.7661 65.2838 91.8435C63.8616 92.1183 62.4474 92.416 61.1166 93.0081C60.688 93.1802 60.1645 93.4395 59.7359 93.6363C58.9643 93.2294 58.3498 92.9423 57.5482 92.5965C57.7716 92.3092 58.0832 92.2889 58.457 92.1968L57.9863 92.1751C57.6087 91.9724 57.4374 91.8762 57.0935 91.6198C56.4233 91.6509 55.6509 91.7042 54.9884 91.7089C53.9402 91.6063 52.4677 91.9458 51.817 91.3284C54.646 90.2056 58.1765 89.2776 61.1641 88.2087C63.8674 87.4972 67.221 85.6892 69.9152 85.2224C77.3342 83.9368 84.9745 83.0496 92.2318 80.9552Z" fill="#FCFCFC"/>
<path d="M92.2318 80.9552C94.2847 80.3258 97.9845 79.1572 99.9283 78.2383C99.4281 79.7283 99.3589 81.1829 97.9935 81.7693C96.6798 82.3333 95.2774 82.8743 93.9334 83.3496C91.7037 84.1382 87.9245 85.7002 85.6887 86.1206C85.6961 86.053 85.772 85.5477 85.807 85.5282C87.1432 84.7848 92.6468 82.9328 92.496 81.132L92.2318 80.9552Z" fill="#D9DAE8"/>
<path d="M68.0891 90.1195L68.5842 90.2227C68.5252 90.2475 68.2819 90.3442 68.2464 90.372C68.6108 90.7321 68.9153 90.3992 69.3799 90.7308C68.5575 90.9181 67.7296 91.0805 66.8976 91.2177L66.7334 91.0908C66.5413 91.283 66.5406 91.2959 66.4467 91.5563C66.0788 91.7504 65.6844 91.7661 65.2838 91.8435C63.8616 92.1183 62.4474 92.416 61.1166 93.0081C60.688 93.1802 60.1645 93.4395 59.7359 93.6363C58.9643 93.2294 58.3498 92.9423 57.5482 92.5965C57.7716 92.3092 58.0832 92.2889 58.457 92.1968L57.9863 92.1751C57.6087 91.9724 57.4374 91.8762 57.0935 91.6198C61.0124 91.168 64.1813 90.8325 68.0891 90.1195Z" fill="#6C280E"/>
<path d="M58.457 92.1968C60.7114 92.1495 63.8653 91.4638 66.2703 91.3169L66.4467 91.5563C66.0788 91.7504 65.6844 91.7661 65.2838 91.8435C63.8616 92.1183 62.4474 92.416 61.1166 93.0081C60.688 93.1802 60.1645 93.4395 59.7359 93.6363C58.9643 93.2294 58.3498 92.9423 57.5482 92.5965C57.7716 92.3092 58.0832 92.2889 58.457 92.1968Z" fill="#D1D3D6"/>
<path d="M31.2194 74.9155C37.4383 79.7397 45.8572 82.2848 53.2721 84.6202C54.1625 84.9006 57.3844 87.1557 58.4938 87.7994C57.4325 88.1582 54.7915 89.2446 53.8657 88.9625L53.6621 89.0585L53.6789 89.3901C52.9098 89.6792 51.7527 89.9735 51.1195 90.2662C49.9553 90.6993 49.0089 91.0747 47.9585 91.7568C46.7207 91.9673 45.1306 92.1782 43.882 92.2311C43.7341 92.0839 43.7665 92.1537 43.707 91.9689C43.9785 88.5489 40.7095 88.6258 38.9992 87.2077C38.5017 86.7951 35.5645 82.9448 35.5646 82.4043L35.9618 82.3686L36.1178 82.3186C35.8759 82.146 35.6348 82.0209 35.5239 81.7588L35.6644 81.6607C35.8896 81.8028 35.9966 81.8568 36.2407 81.9634L36.3915 81.8411C32.9721 79.5748 31.2779 79.4628 31.2194 74.9155Z" fill="#FCFCFC"/>
<path d="M43.707 91.9689C43.9785 88.5489 40.7095 88.6258 38.9992 87.2077C38.5017 86.7951 35.5645 82.9448 35.5646 82.4043L35.9618 82.3686C36.3467 83.043 42.5688 85.825 43.6009 86.1036C43.6518 86.1176 43.7031 86.1302 43.7546 86.1417C44.4496 87.224 45.0018 87.2592 46.2267 87.7103C47.7617 88.3127 50.0942 88.9118 51.1195 90.2662C49.9553 90.6993 49.0089 91.0747 47.9585 91.7568C46.7207 91.9673 45.1306 92.1782 43.882 92.2311C43.7341 92.0839 43.7665 92.1537 43.707 91.9689Z" fill="#FCFCFC"/>
<path d="M35.9618 82.3686L36.1178 82.3186C35.8759 82.146 35.6348 82.0209 35.5239 81.7588L35.6644 81.6607C35.8896 81.8028 35.9966 81.8568 36.2407 81.9634L36.3915 81.8411C41.5644 84.1768 46.5757 86.7022 52.0593 88.2919C52.3989 88.3904 53.6808 88.7686 53.8657 88.9625L53.6621 89.0585L53.6789 89.3901C52.9098 89.6792 51.7527 89.9735 51.1195 90.2662C50.0942 88.9118 47.7617 88.3127 46.2267 87.7103C45.0018 87.2592 44.4496 87.224 43.7546 86.1417C43.7031 86.1302 43.6518 86.1176 43.6009 86.1036C42.5688 85.825 36.3467 83.043 35.9618 82.3686Z" fill="#6C280E"/>
<path d="M46.2267 87.7103L46.2572 87.6522C46.1683 87.5201 46.1905 87.5558 46.1381 87.406C46.3516 87.3779 46.9905 87.4814 47.384 87.4682L47.4664 87.4647C47.8396 87.5104 53.3503 89.2196 53.6789 89.3901C52.9098 89.6792 51.7527 89.9735 51.1195 90.2662C50.0942 88.9118 47.7617 88.3127 46.2267 87.7103Z" fill="#DFE1EE"/>
<path d="M43.7546 86.1417C44.6036 86.4194 46.7603 87.0792 47.4664 87.4647L47.384 87.4682C46.9905 87.4814 46.3516 87.3779 46.1381 87.406C46.1905 87.5558 46.1683 87.5201 46.2572 87.6522L46.2267 87.7103C45.0018 87.2592 44.4496 87.224 43.7546 86.1417Z" fill="#D9DAE8"/>
<path d="M95.3152 83.8318C95.618 83.8711 96.1043 83.8334 96.1482 84.2316L96.7115 85.1378C97.6064 86.3106 98.0009 86.8312 98.5696 88.1743C100.11 91.5708 99.3009 95.3067 95.7599 97.2024C94.9363 97.6433 93.6142 97.7578 92.6856 98.1603C92.6665 98.1212 92.5733 96.0807 92.5277 95.7291C92.2429 93.4834 90.7838 90.554 89.074 89.0412C89.8706 88.9176 92.1493 88.7063 92.6268 88.1614C92.6185 87.7269 92.5793 87.9255 92.2964 87.5687C92.3325 87.6142 92.2877 86.9282 92.2742 86.8393C91.8743 86.9329 91.7391 87.2168 91.4239 87.5744C90.2537 87.7336 89.199 87.8927 88.0129 87.8879C86.1522 87.8802 83.5107 88.153 82.3583 89.8159C80.9928 90.0569 77.8214 90.9868 77.2459 92.3162C75.8749 92.0774 74.1537 91.88 72.7657 91.7497C71.7732 91.6565 70.878 91.6922 69.8339 91.5559C69.4213 91.6013 67.3772 91.6174 67.007 91.5167L66.8976 91.2177C67.7296 91.0805 68.5575 90.9181 69.3799 90.7308C70.3015 90.7958 73.5525 89.744 75.0997 89.8137C75.7188 89.6601 76.1901 89.5675 76.8126 89.462C77.7673 89.1593 79.1914 88.8552 80.194 88.6088C84.5116 87.4801 89.5064 86.0605 93.6312 84.4816L95.3152 83.8318Z" fill="#FCFCFC"/>
<path d="M98.5696 88.1743C100.11 91.5708 99.3009 95.3067 95.7599 97.2024C94.9363 97.6433 93.6142 97.7578 92.6856 98.1603C92.6665 98.1212 92.5733 96.0807 92.5277 95.7291C94.0388 94.1024 95.3553 94.46 96.95 92.5134C98.255 90.9203 97.7641 88.9304 98.5696 88.1743Z" fill="#D9DAE8"/>
<path d="M69.3799 90.7308C70.3015 90.7958 73.5525 89.744 75.0997 89.8137C74.5722 90.0865 74.4906 90.1421 74.0599 90.5505C73.2234 90.5177 72.0366 91.7822 71.4673 91.0388C71.7722 90.9259 72.0765 90.8112 72.38 90.6947L72.3196 90.5544C70.6033 90.8242 69.337 91.0822 67.5663 91.3256C67.9558 91.6624 69.4321 91.1302 69.8339 91.5559C69.4213 91.6013 67.3772 91.6174 67.007 91.5167L66.8976 91.2177C67.7296 91.0805 68.5575 90.9181 69.3799 90.7308Z" fill="#D9DAE8"/>
<path d="M76.8126 89.462C77.7673 89.1593 79.1914 88.8552 80.194 88.6088C79.9915 88.7681 79.1452 89.2943 79.1365 89.3053L79.2305 89.5255C78.0945 90.0055 75.6109 89.8372 75.0291 90.2443C74.6975 90.4762 74.4702 90.5891 74.0599 90.5505C74.4906 90.1421 74.5722 90.0865 75.0997 89.8137C75.7188 89.6601 76.1901 89.5675 76.8126 89.462Z" fill="#E4E9F2"/>
<path d="M76.8126 89.462C77.7673 89.1593 79.1914 88.8552 80.194 88.6088C79.9915 88.7681 79.1452 89.2943 79.1365 89.3053C77.8816 89.9695 77.924 89.2194 76.8126 89.462Z" fill="#D9DAE8"/>
<path d="M95.3152 83.8318C95.618 83.8711 96.1043 83.8334 96.1482 84.2316C95.8749 84.5414 95.8611 84.6495 95.7547 85.033C94.8886 84.8279 94.4678 84.9256 93.6312 84.4816L95.3152 83.8318Z" fill="#D9DAE8"/>
<path d="M95.7547 85.033C95.8611 84.6495 95.8749 84.5414 96.1482 84.2316L96.7115 85.1378C96.224 85.2751 96.1419 85.199 95.7547 85.033Z" fill="#D9DAE8"/>
<path d="M35.0223 89.8341C36.2911 89.7744 37.0002 89.7273 38.2178 90.2375C39.4477 90.7528 40.7221 91.7231 41.2325 92.9855C41.5807 93.8673 41.5728 94.8502 41.2104 95.7263C40.6814 96.9797 39.7683 97.5553 38.5866 98.0367C37.5911 98.4015 36.2477 98.4124 35.2392 98.0999C34.2858 97.8149 33.4929 97.1473 33.0484 96.2558C32.4756 95.1334 32.2922 93.2586 32.7392 92.0767C33.248 90.7314 33.8556 90.4031 35.0223 89.8341Z" fill="#944F1E"/>
<path d="M83.0591 91.0341C85.3551 91.0725 87.7079 97.2615 86.5091 98.3253C85.3588 98.6726 82.3575 98.5389 81.1347 98.366C80.132 98.1622 78.8653 97.8911 77.9445 97.4882C77.4221 96.8189 77.3099 96.4377 77.039 95.6578C77.592 92.3452 80.1122 91.4727 83.0591 91.0341Z" fill="#944F1E"/>
<path d="M83.8971 89.7082C85.1283 89.3909 85.9428 89.2275 87.2041 89.1357C87.4251 89.257 87.6422 89.3855 87.855 89.5208C89.773 90.7367 90.8728 93.6043 91.3497 95.7182C91.6668 99.8569 91.1713 98.7592 88.0716 99.5609C88.0761 98.4443 88.0291 97.6025 87.9392 96.4867C87.2696 93.656 86.338 91.3935 83.8971 89.7082Z" fill="#FCFCFC"/>
<path d="M91.3497 95.7182C91.6668 99.8569 91.1713 98.7592 88.0716 99.5609C88.0761 98.4443 88.0291 97.6025 87.9392 96.4867C89.2099 96.6742 90.0453 95.997 91.3497 95.7182Z" fill="#D9DAE8"/>
<path d="M63.8333 105.454C64.8758 105.396 66.098 105.411 67.1463 105.428C75.1595 105.559 83.2601 105.562 91.266 105.784L91.2838 106.178C91.6336 106.292 93.9473 106.248 94.4382 106.249L102.761 106.249C103.974 106.25 106.532 106.203 107.633 106.36C103.728 106.465 99.4933 106.371 95.5642 106.364L70.8595 106.377C69.5096 106.388 63.6658 106.253 62.7583 106.554L62.331 106.346C63.133 106.073 63.1753 106.004 63.8333 105.454Z" fill="#C8A16F"/>
<path d="M33.1257 87.423L34.0971 88.6619C32.6287 89.5332 31.822 90.7007 31.3912 92.3554C31.2181 93.0442 31.1316 93.752 31.1335 94.4623C30.7826 94.8725 29.9939 93.7372 29.1598 93.6191C29.4138 90.4534 30.2574 88.8848 33.1257 87.423Z" fill="#FCFCFC"/>
<path d="M29.1598 93.6191C29.9939 93.7372 30.7826 94.8725 31.1335 94.4623C31.1747 94.5493 31.3173 95.3168 31.3474 95.4544C31.5466 96.3651 31.8066 97.0185 32.2699 97.8263C29.4268 96.9847 29.3343 96.5488 29.1598 93.6191Z" fill="#D9DAE8"/>
<path d="M95.3152 83.8318C96.1981 83.4507 97.372 82.8727 98.2133 82.3749C98.0485 83.256 97.9151 84.1428 97.8131 85.0335C97.3038 84.6748 96.7761 84.2135 96.1482 84.2316C96.1043 83.8334 95.618 83.8711 95.3152 83.8318Z" fill="#D9DAE8"/>
<path d="M40.66 89.4103C41.3193 89.5847 41.9083 90.0087 42.4292 90.4301C42.6566 90.9893 42.8582 91.6196 42.7985 92.2224C42.2559 92.0078 41.063 90.0214 40.66 89.4103Z" fill="#944F1E"/>
<path d="M59.1599 106.133C59.9095 106.119 61.7231 106.049 62.331 106.346L62.7583 106.554C62.2985 106.7 58.5834 106.65 57.9889 106.419L57.914 106.184C58.3072 106.169 58.7744 106.164 59.1599 106.133Z" fill="#834332"/>
<path d="M12.6738 146.346C13.0076 146.365 13.1497 146.339 13.4094 146.544C13.3559 146.903 13.111 147.057 12.8243 147.375C12.7096 147.557 12.7859 147.48 12.5588 147.579C12.5013 147.478 12.4723 147.406 12.4537 147.288C12.3986 146.957 12.4779 146.618 12.6738 146.346Z" fill="#B37A49"/>
<path d="M106.79 146.362C107.297 146.414 107.32 146.472 107.515 146.894C107.503 147.312 107.511 147.392 107.319 147.771C107.068 147.379 106.894 147.092 106.681 146.68L106.79 146.362Z" fill="#CB955B"/>
<path d="M56.8532 106L57.6218 106.179C57.2221 106.606 56.8615 106.435 56.2866 106.346L56.3031 106.283C56.709 106.189 56.5709 106.27 56.8532 106Z" fill="#B37A49" fill-opacity="0.984314"/>
<path d="M19.0036 13.0252C23.5207 12.5641 26.0518 17.1697 26.2192 17.1944C26.4373 17.2264 26.8651 17.1146 27.0944 17.0866C28.3889 16.9293 29.6426 17.0649 30.7469 17.8286C32.604 19.1129 33.6319 21.5221 33.2413 23.7537C33.1501 24.275 32.6815 25.1521 32.8225 25.6424C33.0749 26.5202 34.3505 27.0679 34.6798 28.8588C35.082 31.0455 34.2741 33.7022 32.1378 34.681C31.4626 34.9902 30.3144 35.1787 29.8219 35.7156C29.4977 36.0689 29.5306 37.442 28.8273 38.4336C27.8399 39.7974 26.3493 40.709 24.687 40.9654C23.0672 41.2243 21.5147 40.8204 20.2079 39.8594C19.7181 40.3238 19.1344 40.749 18.5967 41.1623C14.6651 43.2914 10.3913 41.3863 9.05911 37.1703C8.70984 37.1389 8.36119 37.1008 8.01338 37.0561C3.13682 36.4052 0.756335 29.7748 4.94944 26.7315C1.46338 21.3723 7.63322 14.8483 12.6784 16.9951C12.9201 16.493 13.2289 16.0262 13.5965 15.6078C15.0457 13.93 16.8389 13.1856 19.0036 13.0252Z" fill="#66210B"/>
<path d="M18.7669 14.1994C21.9095 13.9269 24.1445 16.0149 25.5734 18.5405C26.7795 18.1315 27.7296 17.9057 29.0063 18.3413C30.1968 18.7477 31.1783 19.6098 31.7361 20.739C32.612 22.5526 32.11 24.1824 31.5159 25.9344C34.7045 28.4204 34.3897 33.1385 30.2016 34.3577C29.9275 34.4373 29.1834 34.4143 28.8631 34.4133C28.4748 36.814 28.006 38.7809 25.3236 39.6245C23.34 40.2482 21.7346 39.5063 20.0102 38.5811C19.711 38.9328 19.4371 39.1743 19.0962 39.4854C17.4746 40.7737 14.9214 41.1567 13.0419 40.236C11.2044 39.3357 10.4215 38.0207 9.76409 36.1872C8.12433 35.9953 6.66954 35.6999 5.44692 34.4733C4.49719 33.5148 3.9747 32.2123 3.99822 30.862C4.01773 29.0717 4.74886 28.049 5.95606 26.8916C5.43775 25.6285 4.99202 24.3129 5.12296 22.9288C5.25837 21.4279 6.00061 20.0478 7.17735 19.1088C9.1401 17.5176 10.8333 17.6422 13.1115 17.8807C14.5585 15.666 16.1276 14.5413 18.7669 14.1994Z" fill="#FCFCFC"/>
<path d="M17.8483 19.7383C19.7502 19.658 21.8237 20.0881 22.6941 21.7598C24.3542 24.9487 21.931 26.6048 20.074 28.6139C19.7209 28.996 20.1041 30.5068 19.0983 30.9538C17.227 31.7855 17.3987 29.1449 17.7472 28.0712C18.5027 26.4825 23.3936 22.9316 18.5687 22.0458C17.0047 21.7587 16.9159 24.747 15.3372 24.6055C12.7859 23.0819 15.9503 20.2575 17.8483 19.7383Z" fill="#6C280E"/>
<path d="M18.6639 32.0042C20.3835 32.2728 20.7239 34.1105 18.9974 34.9496C16.9474 34.657 16.8825 32.9423 18.6639 32.0042Z" fill="#6C280E"/>
<path d="M10.8316 26.7615C11.091 26.8998 11.1146 26.9239 11.24 27.1899C11.1848 27.5705 10.7009 27.9488 10.4039 28.2308L10.4569 28.2947C10.818 28.7313 11.3278 29.2392 11.2757 29.7964L11.0535 29.8605C10.657 29.7779 10.3672 29.3605 10.0893 29.0432L9.89337 29.0401L9.27311 29.8717L8.84652 29.8431L8.72181 29.6338C8.80507 29.1753 9.3154 28.6281 9.62213 28.2406C9.26312 27.8856 8.68295 27.4782 8.82741 26.9591C9.18967 26.9899 9.62456 27.3407 9.94011 27.5572C10.1816 27.5087 10.6168 26.9824 10.8316 26.7615Z" fill="#66210B"/>
<path d="M25.4242 32.6539C25.662 32.8376 26.0158 33.0718 26.0021 33.411C26.4463 33.5674 27.3181 33.8062 27.3997 34.3055C26.8149 34.6015 24.5996 34.1665 24.4902 33.2644C24.6647 32.9067 25.0426 32.8136 25.4242 32.6539Z" fill="#66210B"/>
<path d="M25.4242 32.6539C25.7597 32.4638 27.1863 31.6756 27.51 32.0831C27.3737 32.8264 26.4615 32.9152 26.0021 33.411C26.0158 33.0718 25.662 32.8376 25.4242 32.6539Z" fill="#66210B"/>
<path d="M22.7989 32.2545C23.0354 32.0967 23.3534 32.1491 23.527 32.3744C23.7005 32.5998 23.6703 32.9212 23.458 33.1103C23.3068 33.2448 23.0934 33.2838 22.9047 33.2111C22.7159 33.1384 22.5834 32.9663 22.5611 32.765C22.5389 32.5637 22.6306 32.3667 22.7989 32.2545Z" fill="#6C1E12"/>
<path d="M22.8788 34.1229C23.0941 34.002 23.3665 34.0794 23.4863 34.2954C23.6062 34.5115 23.5279 34.7841 23.3118 34.9033C23.0967 35.0219 22.8264 34.944 22.7072 34.729C22.5881 34.5142 22.6648 34.2431 22.8788 34.1229Z" fill="var(--fill-0, #7C3121)"/>
<path d="M30.599 39.1395C31.4772 38.9074 32.1222 38.8939 32.9463 39.367C33.6891 39.7923 34.2301 40.4988 34.4477 41.3277C34.7405 42.4675 34.121 43.9794 33.0436 44.4178C32.2725 44.8286 31.4605 44.9933 30.6023 44.7233C28.9921 44.0501 28.5571 42.8082 28.7511 41.1577L29.1475 40.2867C29.6746 39.627 29.8136 39.4036 30.599 39.1395Z" fill="#FCFCFC"/>
<path d="M30.599 39.1395C31.4772 38.9074 32.1222 38.8939 32.9463 39.367C33.6891 39.7923 34.2301 40.4988 34.4477 41.3277C34.7405 42.4675 34.121 43.9794 33.0436 44.4178C32.2725 44.8286 31.4605 44.9933 30.6023 44.7233C28.9921 44.0501 28.5571 42.8082 28.7511 41.1577C28.9819 41.4161 29.0854 41.517 29.4064 41.6727L29.5068 42.0827C29.9005 45.5082 35.8241 43.6354 32.6672 40.1818L31.5055 39.7656C30.8026 39.7801 30.8923 39.7043 30.599 39.1395Z" fill="#66210B"/>
<path d="M30.6023 44.7233L30.9111 44.4709C31.4457 44.3467 32.5106 44.2907 33.0436 44.4178C32.2725 44.8286 31.4605 44.9933 30.6023 44.7233Z" fill="#6C1E12"/>
<path d="M29.1475 40.2867C29.6746 39.627 29.8136 39.4036 30.599 39.1395C30.8923 39.7043 30.8026 39.7801 31.5055 39.7656C30.6022 39.942 30.4162 40.1028 29.7545 40.7537C29.5807 40.3887 29.4956 40.401 29.1475 40.2867Z" fill="#6C280E"/>
<path d="M29.1475 40.2867C29.4956 40.401 29.5807 40.3887 29.7545 40.7537C29.5765 41.3281 29.5515 41.4799 29.5068 42.0827L29.4064 41.6727C29.0854 41.517 28.9819 41.4161 28.7511 41.1577L29.1475 40.2867Z" fill="#6C280E"/>
<path d="M34.4805 46.7398C34.0587 46.0841 34.1345 45.2254 34.6645 44.6539C35.1945 44.0825 36.044 43.9438 36.7277 44.3169C37.4115 44.6901 37.7557 45.4802 37.5638 46.2361C37.3656 47.0169 36.6493 47.5524 35.8457 47.5208C35.2907 47.4989 34.7812 47.2075 34.4805 46.7398Z" fill="#6C1E12"/>
<path d="M35.4553 46.6436C35.0408 46.1155 34.7783 45.6279 35.3815 45.0808C36.1789 44.7149 36.5126 45.104 36.9136 45.7283C36.5988 46.4407 36.4363 46.7843 35.5612 46.7493L35.4553 46.6436Z" fill="#FCFCFC"/>
<path d="M36.9136 45.7283L36.968 45.9308L37.2699 45.8372C37.5187 46.0252 37.4372 45.9363 37.5638 46.2361C37.3656 47.0169 36.6493 47.5524 35.8457 47.5208C35.7896 47.2515 35.5597 47.4479 35.5612 46.7493C36.4363 46.7843 36.5988 46.4407 36.9136 45.7283Z" fill="#6C280E"/>
<path d="M34.4805 46.7398C34.6846 46.542 34.712 46.4924 34.9707 46.3944L35.4553 46.6436L35.5612 46.7493C35.5597 47.4479 35.7896 47.2515 35.8457 47.5208C35.2907 47.4989 34.7812 47.2075 34.4805 46.7398Z" fill="var(--fill-0, #7C3121)"/>
</g>
</svg>
