<svg preserveAspectRatio="none" width="100%" height="100%" overflow="visible" style="display: block;" viewBox="0 0 33.2402 29" fill="none" xmlns="http://www.w3.org/2000/svg">
<g id="Vector">
<path d="M14.2702 1.90709C15.1454 1.02885 15.2441 -0.0143047 16.7816 0.00014853L17.0959 0.0928078C18.0425 0.451367 19.5101 1.66544 19.9188 2.64777C19.9691 2.77775 20.0184 2.90827 20.0659 3.03939L20.165 3.12443C20.2815 3.0926 20.3158 3.07023 20.4201 3.01123C21.0933 2.89986 21.183 2.86892 21.8919 2.96C23.1687 3.30044 23.6202 4.25148 24.0566 5.44699C24.3512 5.60989 24.6387 5.7715 24.9421 5.91628C25.5806 5.86292 25.9587 5.92207 26.5925 5.98572C26.8673 6.20985 27.0265 6.31904 27.1496 6.67443C27.4113 6.83386 28.1206 7.00245 28.4476 7.13847C28.9437 7.34492 29.2909 7.57504 29.7409 7.86272C30.3145 8.10253 30.9849 8.58023 31.4532 9.012C32.2702 9.66497 32.7616 10.3364 33.1698 11.3185C33.2093 11.6869 33.2722 12.4314 33.221 12.7909C33.2111 13.4852 32.9368 14.781 32.6902 15.437C32.4656 16.3565 32.0691 17.1877 31.7088 18.0206C30.8012 20.1171 29.5163 21.7481 27.9224 23.3077C27.4676 23.7526 26.8602 24.3637 26.3284 24.7058C25.8742 24.9979 25.3513 25.2097 24.8947 25.5235C24.4583 26.6376 24.1623 27.2804 23.0597 27.7644C22.1056 28.1834 21.1844 28.4247 20.1791 28.658C19.9874 28.7025 19.7098 28.8087 19.519 28.7889C17.8725 29.2466 14.1894 28.8785 12.486 28.4563C12.0665 28.3524 11.5014 28.1549 11.0696 28.0221C10.9287 27.9788 10.3617 27.8628 10.3058 27.8306C9.38972 27.301 8.82787 26.6732 8.45158 25.6867C7.98791 25.3306 7.49558 25.086 7.00889 24.7333C4.97523 23.2577 3.08203 21.0838 1.87799 18.8122C1.49325 18.0864 0.537722 15.6837 0.392561 14.886C0.141231 14.0807 -0.107748 12.7285 0.0486871 11.8847C0.129958 9.76827 3.25068 7.67299 4.97617 7.08471C5.30783 6.97161 5.66439 6.79184 6.00686 6.72442C6.65891 6.46431 7.38048 5.8153 8.1077 5.58791C8.48962 5.46857 8.89081 5.50223 9.2812 5.43952C9.37891 5.42378 9.44797 5.23722 9.50341 5.13046C9.6885 4.45269 9.94452 3.96128 10.3161 3.39176C10.4556 3.32692 10.575 3.2504 10.7065 3.16962C10.9132 3.17882 11.0753 3.14388 11.2026 3.33806C11.6244 3.31197 11.8993 3.28297 12.3169 3.38721L12.3427 3.29603C12.4724 3.20615 12.5081 3.2356 12.6833 3.23169C12.8463 3.31494 12.9779 3.3828 13.1348 3.4815L13.2724 3.53748C13.3589 2.82279 13.7798 2.36088 14.2702 1.90709Z" fill="#310803"/>
<path d="M32.8306 11.5381C32.9481 11.3285 32.9542 11.3615 33.1698 11.3185C33.2093 11.6869 33.2722 12.4314 33.221 12.7909C33.2111 13.4852 32.9368 14.781 32.6902 15.437C32.4656 16.3565 32.0691 17.1877 31.7088 18.0206C30.8012 20.1171 29.5163 21.7481 27.9224 23.3077C27.4676 23.7526 26.8602 24.3637 26.3284 24.7058C25.8742 24.9979 25.3513 25.2097 24.8947 25.5235C24.4583 26.6376 24.1623 27.2804 23.0597 27.7644C22.1056 28.1834 21.1844 28.4247 20.1791 28.658C19.9874 28.7025 19.7098 28.8087 19.519 28.7889C17.8725 29.2466 14.1894 28.8785 12.486 28.4563C12.0665 28.3524 11.5014 28.1549 11.0696 28.0221C10.9287 27.9788 10.3617 27.8628 10.3058 27.8306C9.38972 27.301 8.82787 26.6732 8.45158 25.6867C7.98791 25.3306 7.49558 25.086 7.00889 24.7333C4.97523 23.2577 3.08203 21.0838 1.87799 18.8122C1.49325 18.0864 0.537722 15.6837 0.392561 14.886C0.141231 14.0807 -0.107748 12.7285 0.0486871 11.8847C0.0900274 12.5489 0.1215 12.8994 0.45692 13.5044L0.518463 13.6704C0.572957 13.8529 0.637787 14.0542 0.677248 14.2392L0.784353 14.1291L0.851063 14.1327C1.67317 15.2709 1.86719 15.2277 2.7048 16.0744C3.53207 16.5341 3.77495 16.7731 4.70135 17.1687C4.84416 17.2307 5.84056 17.6219 5.888 17.6681C6.05336 17.7248 6.24363 17.7827 6.39724 17.8636C6.63401 17.9445 6.86467 17.9936 6.96238 18.2561C7.6304 20.0514 8.04052 21.345 9.7801 22.3531C12.2149 23.7644 15.3225 22.4655 16.9837 20.3358C17.0527 20.2456 17.1415 20.1361 17.2246 20.0627C17.3975 20.0353 17.6019 19.3817 17.826 19.3105C17.9232 19.2796 17.9584 19.3132 18.1003 19.2667L18.0101 19.2112C18.1177 19.1632 18.6471 19.1362 18.782 19.1288C19.1047 19.0499 19.5576 19.1473 19.7807 18.9994C19.9757 19.011 20.3491 19.0432 20.5286 19.0292C21.1759 18.9118 21.4874 18.9557 22.2757 18.7677C22.6853 18.647 23.1161 18.5354 23.529 18.4216C23.6902 18.3933 24.1398 18.2088 24.4122 18.1468L24.6354 18.1285C24.7453 18.0989 24.9572 18.0746 25.0765 18.0568C25.379 17.9959 25.6614 17.8698 25.9352 17.7257C26.3656 17.6384 27.0477 17.4078 27.4874 17.2729C27.7011 17.2125 27.952 17.0885 28.1596 16.9942L28.4424 16.8741C29.4694 16.5717 31.5195 15.0432 32.1466 14.1832C32.1814 14.1488 32.2152 14.113 32.2471 14.0758C32.9419 13.264 32.871 12.5444 32.8306 11.5381Z" fill="#B47534"/>
<path d="M0.392561 14.886C0.141231 14.0807 -0.107748 12.7285 0.0486871 11.8847C0.0900274 12.5489 0.1215 12.8994 0.45692 13.5044L0.518463 13.6704C0.572957 13.8529 0.637787 14.0542 0.677248 14.2392L0.784353 14.1291L0.851063 14.1327C1.67317 15.2709 1.86719 15.2277 2.7048 16.0744L2.80299 16.4222C2.72312 16.2956 2.59158 16.0444 2.47038 15.9957C2.37408 16.1725 2.39146 16.1186 2.43515 16.3112C2.56528 16.8831 2.37549 17.5854 2.30079 18.1696C2.29422 18.2184 2.44361 18.4814 2.45018 18.543C2.53803 18.7305 2.66346 18.9335 2.66816 19.1318C3.2831 20.3628 4.17708 21.5094 5.16032 22.4232C5.26602 22.5216 5.70057 22.9531 5.79828 23.0158C7.31096 24.7788 10.0934 25.929 12.2431 26.4444C12.5363 26.5143 12.8435 26.5721 13.1301 26.6668L13.1625 26.6684C13.5303 26.689 13.9094 26.7878 14.2782 26.8331C15.2854 26.9568 16.3189 27.0618 17.335 27.051C17.9819 27.0442 18.6368 26.9667 19.2766 26.8704C19.5688 26.8265 19.9132 26.7269 20.2035 26.7251L20.1575 26.8114C20.0245 26.834 19.9733 26.8176 19.8883 26.9315C19.9038 26.96 19.9165 27.003 19.947 27.0116C20.118 27.0595 20.3862 26.9767 20.5911 27.0012C21.5433 26.8206 22.4166 26.5678 23.2899 26.1218C23.5253 26.0016 24.2934 25.5488 24.4954 25.5667L24.5579 25.6618C24.6805 25.5448 24.7331 25.533 24.8947 25.5235C24.4583 26.6376 24.1623 27.2804 23.0597 27.7644C22.1056 28.1834 21.1844 28.4247 20.1791 28.658C19.9874 28.7025 19.7098 28.8087 19.519 28.7889C17.8725 29.2466 14.1894 28.8785 12.486 28.4563C12.0665 28.3524 11.5014 28.1549 11.0696 28.0221C10.9287 27.9788 10.3617 27.8628 10.3058 27.8306C9.38972 27.301 8.82787 26.6732 8.45158 25.6867C7.98791 25.3306 7.49558 25.086 7.00889 24.7333C4.97523 23.2577 3.08203 21.0838 1.87799 18.8122C1.49325 18.0864 0.537722 15.6837 0.392561 14.886Z" fill="#6A3311"/>
<path d="M24.5579 25.6618C24.6805 25.5448 24.7331 25.533 24.8947 25.5235C24.4583 26.6376 24.1623 27.2804 23.0597 27.7644C22.1056 28.1834 21.1844 28.4247 20.1791 28.658C19.9874 28.7025 19.7098 28.8087 19.519 28.7889L19.5247 28.7179C19.5622 28.6937 19.6003 28.6725 19.6393 28.6513C19.8314 28.5469 20.0518 28.5314 20.2627 28.501L20.2434 28.4648C20.1654 28.4394 20.0856 28.4197 20.0067 28.3983C19.5007 28.3324 18.6918 28.5771 18.1412 28.6006C16.5956 28.6664 15.0158 28.5519 13.4848 28.3148C12.9595 28.2335 12.4409 28.0658 11.9321 27.909C10.4387 27.4485 9.89096 27.1214 8.95235 25.7986C12.1431 27.3265 15.7768 27.6572 19.2264 27.163C19.6764 27.0985 20.156 27.1397 20.5911 27.0012C21.5433 26.8206 22.4166 26.5678 23.2899 26.1218C23.5253 26.0016 24.2934 25.5488 24.4954 25.5667L24.5579 25.6618Z" fill="#9C612D"/>
<path d="M24.5579 25.6618C24.6805 25.5448 24.7331 25.533 24.8947 25.5235C24.4583 26.6376 24.1623 27.2804 23.0597 27.7644C22.1056 28.1834 21.1844 28.4247 20.1791 28.658C19.9874 28.7025 19.7098 28.8087 19.519 28.7889L19.5247 28.7179C19.5622 28.6937 19.6003 28.6725 19.6393 28.6513C19.8314 28.5469 20.0518 28.5314 20.2627 28.501L20.2434 28.4648C20.1654 28.4394 20.0856 28.4197 20.0067 28.3983C20.5408 28.3181 21.0576 28.1779 21.5701 27.9998C22.9606 27.5165 23.8734 27.0956 24.5579 25.6618Z" fill="#511D06"/>
<path d="M0.677248 14.2392L0.784353 14.1291L0.851063 14.1327C1.67317 15.2709 1.86719 15.2277 2.7048 16.0744L2.80299 16.4222C2.72312 16.2956 2.59158 16.0444 2.47038 15.9957C2.37408 16.1725 2.39146 16.1186 2.43515 16.3112C2.56528 16.8831 2.37549 17.5854 2.30079 18.1696C2.29422 18.2184 2.44361 18.4814 2.45018 18.543C2.53803 18.7305 2.66346 18.9335 2.66816 19.1318C1.90383 18.1112 1.04226 15.4751 0.677248 14.2392Z" fill="#D79D55"/>
<path d="M0.392561 14.886C0.141231 14.0807 -0.107748 12.7285 0.0486871 11.8847C0.0900274 12.5489 0.1215 12.8994 0.45692 13.5044L0.518463 13.6704L0.509064 13.9381C0.438128 13.7804 0.429204 13.5565 0.339946 13.5025C-0.0119163 13.9937 0.567787 14.4589 0.392561 14.886Z" fill="#50230B"/>
<path d="M12.2431 26.4444C12.5363 26.5143 12.8435 26.5721 13.1301 26.6668C13.0836 26.7012 13.0465 26.7183 12.9901 26.7284C12.7698 26.7682 12.1248 26.6637 11.9364 26.5183C12.012 26.4474 12.1421 26.456 12.2431 26.4444Z" fill="#602D0F"/>
<path d="M32.8367 13.9126C32.9386 13.6746 33.1538 12.8967 33.221 12.7909C33.2111 13.4852 32.9368 14.781 32.6902 15.437C32.4656 16.3565 32.0691 17.1877 31.7088 18.0206C30.8012 20.1171 29.5163 21.7481 27.9224 23.3077C27.4676 23.7526 26.8602 24.3637 26.3284 24.7058C25.8742 24.9979 25.3513 25.2097 24.8947 25.5235C24.7331 25.533 24.6805 25.5448 24.5579 25.6618L24.4954 25.5667C24.2934 25.5488 23.5253 26.0016 23.2899 26.1218C22.4166 26.5678 21.5433 26.8206 20.5911 27.0012C20.3862 26.9767 20.118 27.0595 19.947 27.0116C19.9165 27.003 19.9038 26.96 19.8883 26.9315C19.9733 26.8176 20.0245 26.834 20.1575 26.8114L20.2035 26.7251C20.7964 26.5117 21.4488 26.3929 22.0553 26.2176C23.7108 25.7395 25.4715 24.9654 26.7935 23.7834C28.5659 22.4009 30.7936 19.3823 31.5143 17.152C31.775 16.3447 32.3359 14.6221 32.6887 13.9987L32.8367 13.9126Z" fill="#602D0F"/>
<path d="M32.8367 13.9126C32.9386 13.6746 33.1538 12.8967 33.221 12.7909C33.2111 13.4852 32.9368 14.781 32.6902 15.437C32.7118 15.019 32.8705 14.292 32.8367 13.9126Z" fill="#3F1405"/>
<path d="M31.6623 15.0327C31.7957 14.7975 32.3801 14.3016 32.5478 14.0218C32.6051 14.0124 32.6521 14.0048 32.6887 13.9987C32.3359 14.6221 31.775 16.3447 31.5143 17.152C30.7936 19.3823 28.5659 22.4009 26.7935 23.7834L26.7456 23.7154C26.7461 23.7056 26.7484 23.5997 26.7484 23.5997C27.6377 22.4777 28.2653 21.0948 29.0498 19.9071C29.6967 18.9284 30.2398 18.0377 30.5404 16.8665C30.7838 15.9194 30.7979 15.8566 31.5373 15.2865C31.5312 15.3111 31.5317 15.2973 31.5397 15.3281L31.6454 15.2584L31.6623 15.0327Z" fill="#B67939"/>
<path d="M2.7048 16.0744C3.53207 16.5341 3.77495 16.7731 4.70135 17.1687L4.64781 17.3957L4.5999 17.4007C4.71452 18.345 5.5869 20.3279 6.03225 21.222C6.14358 21.4452 6.38129 21.7161 6.50813 21.9197L6.37189 21.9939C5.77904 21.4435 5.35436 20.8071 4.82868 20.252C3.57532 18.9295 3.14827 18.3325 2.80299 16.4222L2.7048 16.0744Z" fill="#C7873E"/>
<path d="M3.06558 16.7346L3.17456 16.7835C3.31831 16.9911 3.29482 17.2239 3.27932 17.4663C3.09987 17.3046 3.09893 16.9697 3.06558 16.7346Z" fill="#D09044"/>
<path d="M6.75664 21.8389C7.27198 22.0544 8.27589 23.1742 8.77573 23.6244C9.7167 24.4715 11.1824 25.1209 12.3785 25.4587C12.2634 25.4982 12.1304 25.4886 12.0092 25.4904C12.4837 25.5239 12.9572 25.5363 13.4326 25.5455C13.1827 25.6119 12.8783 25.5986 12.6194 25.6029C11.5192 25.6213 10.9395 25.4772 9.94078 25.0098C9.64858 24.8731 9.33195 24.7445 9.05807 24.5712C8.58688 24.2726 7.87001 23.762 7.56136 23.2866C7.48244 23.1651 7.46506 22.9954 7.38661 22.8621C7.28983 22.6986 7.2283 22.5551 7.03099 22.5841C6.98166 22.6936 6.99952 22.7343 7.01925 22.8498C6.94784 22.7925 6.85764 22.6967 6.852 22.6004C6.84825 22.5368 6.88019 22.4707 6.90368 22.4133C6.80361 22.1985 6.56732 22.2213 6.5288 21.9424C6.65564 22.0592 6.71859 22.1457 6.88865 22.175L6.93938 22.1249C6.93186 21.9982 6.83697 21.9228 6.75664 21.8389Z" fill="#B87836"/>
<path d="M2.45018 18.543C3.27464 18.6411 3.68899 19.8638 4.16347 20.5028C4.66613 21.1796 5.17442 21.8417 5.69494 22.5038C5.83352 22.6885 5.80487 22.7847 5.87298 22.9998L5.79828 23.0158C5.70057 22.9531 5.26602 22.5216 5.16032 22.4232C4.17708 21.5094 3.2831 20.3628 2.66816 19.1318C2.66346 18.9335 2.53803 18.7305 2.45018 18.543Z" fill="#D79D55"/>
<path d="M32.8306 11.5381C32.9481 11.3285 32.9542 11.3615 33.1698 11.3185C33.2093 11.6869 33.2722 12.4314 33.221 12.7909C33.1538 12.8967 32.9386 13.6746 32.8367 13.9126L32.6887 13.9987C32.6521 14.0048 32.6051 14.0124 32.5478 14.0218C32.3801 14.3016 31.7957 14.7975 31.6623 15.0327C31.3038 15.27 30.8759 15.7738 30.7105 15.8839C30.174 16.2412 28.1784 17.2663 27.6217 17.3892L27.5278 17.3609L27.4874 17.2729C27.7011 17.2125 27.952 17.0885 28.1596 16.9942L28.4424 16.8741C29.4694 16.5717 31.5195 15.0432 32.1466 14.1832C32.1814 14.1488 32.2152 14.113 32.2471 14.0758C32.9419 13.264 32.871 12.5444 32.8306 11.5381Z" fill="#763D15"/>
<path d="M4.64781 17.3957C4.79344 17.7024 4.90805 18.1521 5.02691 18.4831C5.45299 19.6705 5.84339 20.9673 6.75664 21.8389C6.83697 21.9228 6.93186 21.9982 6.93938 22.1249L6.88865 22.175C6.71859 22.1457 6.65564 22.0592 6.5288 21.9424L6.50813 21.9197C6.38129 21.7161 6.14358 21.4452 6.03225 21.222C5.5869 20.3279 4.71452 18.345 4.5999 17.4007L4.64781 17.3957Z" fill="#B67939"/>
<path d="M5.888 17.6681C6.05336 17.7248 6.24363 17.7827 6.39724 17.8636C6.49684 18.3378 6.50199 18.613 6.04818 18.8852L5.85228 18.4541C5.86544 18.3359 5.74001 18.171 5.73813 17.9505C5.80672 17.8013 5.87344 17.8051 5.888 17.6681Z" fill="#D79D55"/>
<path d="M5.85228 18.4541L6.04818 18.8852C6.16375 19.5008 7.3537 20.8639 7.56322 21.3547L7.53926 21.3849C7.13855 21.1764 6.06464 19.4516 5.90116 18.945C5.81941 18.6905 5.76162 18.7077 5.85228 18.4541Z" fill="#B67939"/>
<path d="M25.9352 17.7257C26.3656 17.6384 27.0477 17.4078 27.4874 17.2729L27.5278 17.3609L27.6217 17.3892C27.2027 17.4944 25.3781 18.2555 25.0972 18.0717C25.0901 18.0671 25.0835 18.0618 25.0765 18.0568C25.379 17.9959 25.6614 17.8698 25.9352 17.7257Z" fill="#8F5125"/>
<path d="M24.4122 18.1468L24.6354 18.1285L24.8284 18.1611L24.8458 18.2283C24.5442 18.4296 23.894 18.4103 23.6136 18.5614L23.529 18.4216C23.6902 18.3933 24.1398 18.2088 24.4122 18.1468Z" fill="#B67939"/>
<path d="M22.2757 18.7677C22.6853 18.647 23.1161 18.5354 23.529 18.4216L23.6136 18.5614C23.382 18.6238 22.3922 19.0003 22.2757 18.7677Z" fill="#B67939"/>
<path d="M19.7807 18.9994C19.9757 19.011 20.3491 19.0432 20.5286 19.0292C20.6399 19.0338 20.7621 19.0248 20.8509 19.0909L20.8147 19.1337L20.7475 19.0979L20.7048 19.1494C20.0569 19.1604 19.4068 19.1043 18.782 19.1288C19.1047 19.0499 19.5576 19.1473 19.7807 18.9994Z" fill="#B67939"/>
<path d="M24.3451 21.3976L24.392 21.4286C24.3817 21.647 24.1167 21.948 23.9908 22.1143C22.5496 24.0201 21.4108 24.8949 19.3612 25.9596C18.7397 26.2823 17.9913 26.6569 17.2989 26.7384L17.2721 26.7207C17.2843 26.682 18.6998 26.1481 18.8952 26.0522C19.8474 25.5845 20.9397 25.0397 21.7679 24.3656C22.7671 23.552 23.5638 22.4313 24.3451 21.3976Z" fill="#7E461D"/>
<path d="M18.7232 19.7385L18.7608 19.7501C18.7397 20.0602 17.4656 21.3454 17.1983 21.6063C16.7023 22.0902 14.592 23.5055 13.947 23.748C13.4805 23.9232 13.0408 23.9819 12.5485 23.9623C12.5048 23.963 12.5076 23.9531 12.4766 23.9237C13.1761 23.8695 13.9564 23.7138 14.5587 23.3218C14.7874 23.173 14.9899 22.9844 15.222 22.8396C15.6302 22.585 16.0605 22.3636 16.4537 22.0834C17.3303 21.4591 18.0322 20.5715 18.7232 19.7385Z" fill="#8F5125"/>
<path d="M11.3365 24.5415C11.9228 24.521 12.6796 24.785 13.3227 24.8007C13.5745 24.8068 13.8432 24.813 14.0917 24.7764C14.4215 24.728 14.7748 24.6035 15.1078 24.6303L15.1543 24.6993C14.0137 24.9018 12.9417 25.0059 11.7926 24.7794C11.6033 24.7421 11.4525 24.7192 11.3365 24.5415Z" fill="#8F5125"/>
<path d="M27.586 18.4574C27.6866 18.4813 27.7185 18.4832 27.7918 18.5651C27.8439 19.0073 27.4225 19.5549 27.1971 19.8991L27.1538 19.9163L27.1158 19.8828C27.2469 19.6717 27.3854 19.4616 27.4944 19.2368C27.4677 19.2067 27.4235 19.1642 27.4066 19.1255C27.3464 18.9876 27.5315 18.6073 27.586 18.4574Z" fill="#8F5125"/>
<path d="M10.3537 23.3078C10.6407 23.2537 11.063 23.4382 11.375 23.4733C11.7296 23.5131 12.0829 23.4911 12.4381 23.5149L12.4785 23.6091C11.8133 23.7666 10.9578 23.6424 10.3537 23.3078Z" fill="#8F5125"/>
<path d="M18.3005 23.9256L18.3488 23.9348L18.3564 24.0062C17.9768 24.4718 16.9555 24.9176 16.4279 25.1828C16.4049 25.1776 16.3763 25.1463 16.3575 25.1304C16.4923 24.9577 17.0015 24.7819 17.2031 24.6728C17.5878 24.4642 17.9552 24.1993 18.3005 23.9256Z" fill="#7E461D"/>
<path d="M16.4364 25.7942L16.4448 25.8662C16.1752 26.0638 15.1515 26.0535 14.7865 26.0632L14.7823 26.0203C14.9636 25.8694 16.1324 25.8224 16.4364 25.7942Z" fill="#6A3311"/>
<path d="M20.4671 19.6682C20.476 19.7243 20.476 19.7756 20.4675 19.8317C20.3933 20.339 19.9771 20.9767 19.5905 21.2809C19.5618 21.1501 19.7051 21.059 19.7826 20.9719C20.0913 20.6241 20.2679 20.0941 20.4671 19.6682Z" fill="#8F5125"/>
<path d="M26.7061 6.55228C26.8851 6.69726 26.879 6.73299 27.1092 6.74165L27.1496 6.67443C27.4113 6.83386 28.1206 7.00245 28.4476 7.13847C28.9437 7.34492 29.2909 7.57504 29.7409 7.86272C30.3145 8.10253 30.9849 8.58023 31.4532 9.012C32.2702 9.66497 32.7616 10.3364 33.1698 11.3185C32.9542 11.3615 32.9481 11.3285 32.8306 11.5381C32.871 12.5444 32.9419 13.264 32.2471 14.0758C32.2152 14.113 32.1814 14.1488 32.1466 14.1832C31.5195 15.0432 29.4694 16.5717 28.4424 16.8741L28.1596 16.9942C27.952 17.0885 27.7011 17.2125 27.4874 17.2729C27.0477 17.4078 26.3656 17.6384 25.9352 17.7257C25.527 17.4059 24.1609 17.4512 23.6418 17.3593C23.3684 17.311 23.0555 17.3715 22.7774 17.3674C22.5002 17.364 22.3823 17.3058 22.1225 17.2053C21.6528 17.2679 21.1783 17.3532 20.7085 17.3987C20.3224 17.3971 19.5219 17.4734 19.2433 17.4521C18.8111 17.3034 18.1783 17.5232 17.8922 17.3441L17.9058 17.2621C18.0233 17.2273 18.1318 17.201 18.2394 17.1399L18.2502 17.0397L18.1666 17.0118C17.8875 16.198 17.5281 16.0203 18.0392 15.0159L18.0994 15.0176L18.1365 15.0969C17.8448 15.5125 17.9979 16.6572 18.3474 16.9661L18.3958 16.9147C18.8651 17.125 19.8648 17.1615 20.3562 17.0314C20.5333 16.9846 20.786 16.8813 20.9194 16.8625C21.3136 16.8423 21.5856 16.8103 21.9727 16.7547C22.2682 16.7802 23.1485 16.6315 23.2138 16.2167C23.3613 15.2825 22.5045 14.7494 22.1968 14.1478C22.1084 13.8149 21.9783 12.8885 21.7998 12.7106C21.4207 12.8805 20.7705 13.0564 20.3576 13.1773C20.0767 13.2594 19.6708 13.3 19.396 13.4264C19.2499 13.4937 19.1813 13.7751 18.9793 13.8376L18.8365 13.7244C19.03 13.4833 19.0582 13.5774 19.2982 13.3607L19.3015 13.2556C19.1987 13.1426 19.1831 13.1331 19.0417 13.0847C18.9619 12.9997 18.7063 12.8206 18.5922 12.7184C17.8194 12.0261 18.0576 11.0028 18.0125 10.0629C18.0064 9.93869 17.787 9.96983 17.7212 9.8587C17.9429 9.63196 17.9862 9.6277 18.1116 9.34656C18.2737 8.98448 18.4827 8.2835 18.8379 8.11105L18.9746 8.17109C18.9168 8.31369 18.9116 8.22549 18.8341 8.3028C17.9998 9.13124 18.0942 11.4324 18.6077 12.2978C19.3241 13.5041 20.6761 13.0364 21.6279 12.5877C21.7942 12.5093 22.0666 12.3057 22.1113 12.1203C22.1277 12.094 22.3433 11.8784 22.3861 11.8314C22.6722 11.5156 23.0076 11.0361 23.0644 10.5894C23.1105 10.4364 23.1363 10.2775 23.141 10.1171C23.1612 9.60157 22.8742 9.22939 22.5665 8.87628L22.5834 8.80748C22.5068 8.72516 22.3772 8.60751 22.3523 8.50421C23.2373 8.89865 23.1246 9.71472 23.5976 10.0189C24.1975 10.4044 25.4152 10.8798 26.0922 10.9824L26.1274 10.9607C26.8189 10.978 27.0566 10.8973 27.4338 10.2701C27.4733 8.86811 26.7747 8.65928 26.4003 7.32092C26.5281 7.03804 26.608 6.84698 26.7061 6.55228Z" fill="#3F1405"/>
<path d="M27.1496 6.67443C27.4113 6.83386 28.1206 7.00245 28.4476 7.13847C28.9437 7.34492 29.2909 7.57504 29.7409 7.86272C30.3145 8.10253 30.9849 8.58023 31.4532 9.012C32.2702 9.66497 32.7616 10.3364 33.1698 11.3185C32.9542 11.3615 32.9481 11.3285 32.8306 11.5381C32.871 12.5444 32.9419 13.264 32.2471 14.0758C32.2152 14.113 32.1814 14.1488 32.1466 14.1832C32.2115 13.8028 32.4882 13.666 32.4863 13.4378C32.1509 13.2349 30.8289 13.8129 30.4263 13.8298C30.3497 13.7863 30.2863 13.7503 30.2356 13.7216C30.4202 13.4666 30.6823 13.0192 30.8444 12.7392C30.9261 12.2248 30.9294 11.9261 30.8491 11.4116C30.7354 11.0062 30.587 10.7273 30.3648 10.3795C29.8677 9.71094 29.2218 9.24655 28.5171 8.85661L28.2498 8.75207C28.1982 8.72525 28.0939 8.68981 28.0351 8.66768L27.5884 8.53072C27.4089 8.18152 27.1069 7.82405 26.9824 7.44376C26.9096 7.21993 26.958 7.17514 27.0467 6.99091C27.082 6.91839 27.0937 6.82347 27.1092 6.74165L27.1496 6.67443Z" fill="#D09044"/>
<path d="M27.1496 6.67443C27.4113 6.83386 28.1206 7.00245 28.4476 7.13847C28.9437 7.34492 29.2909 7.57504 29.7409 7.86272C29.7263 8.01532 29.7179 8.04683 29.7785 8.18523C28.8234 7.71515 27.9952 7.41411 27.0467 6.99091C27.082 6.91839 27.0937 6.82347 27.1092 6.74165L27.1496 6.67443Z" fill="#62290D"/>
<path d="M31.4532 9.012C32.2702 9.66497 32.7616 10.3364 33.1698 11.3185C32.9542 11.3615 32.9481 11.3285 32.8306 11.5381C32.6375 10.5532 31.8117 9.74663 31.1441 9.0893C31.2207 9.06035 31.372 9.02581 31.4532 9.012Z" fill="#3F1405"/>
<path d="M30.4521 10.275C30.5329 10.2679 30.7185 10.2219 30.8063 10.2025C30.9975 10.4133 31.5956 11.0062 31.4128 11.3075C31.1948 11.3012 31.0511 11.296 30.8491 11.4116C30.7354 11.0062 30.587 10.7273 30.3648 10.3795L30.4521 10.275Z" fill="#D79D55"/>
<path d="M29.7409 7.86272C30.3145 8.10253 30.9849 8.58023 31.4532 9.012C31.372 9.02581 31.2207 9.06035 31.1441 9.0893C30.7707 8.74327 30.2234 8.42683 29.7785 8.18523C29.7179 8.04683 29.7263 8.01532 29.7409 7.86272Z" fill="var(--fill-0, #1B0200)"/>
<path d="M28.9911 8.52507C29.2133 8.48953 29.7498 8.74791 29.9777 8.84374C29.9904 8.95031 29.9236 9.0251 29.8569 9.10979C29.4168 8.9066 29.4534 8.80741 28.9498 8.69015L28.9911 8.52507Z" fill="#B67939"/>
<path d="M28.0351 8.66768C28.3823 8.41123 28.5561 8.48354 28.9911 8.52507L28.9498 8.69015C28.7652 8.70693 28.6289 8.67491 28.5171 8.85661L28.2498 8.75207C28.1982 8.72525 28.0939 8.68981 28.0351 8.66768Z" fill="#B67939"/>
<path d="M30.4521 10.275L30.4695 10.1497C30.6523 9.96016 31.1516 9.96962 31.3832 10.0369C31.1902 10.0895 30.998 10.1447 30.8063 10.2025C30.7185 10.2219 30.5329 10.2679 30.4521 10.275Z" fill="#B67939"/>
<path d="M31.7563 11.2711C31.9592 11.2553 32.1537 11.2619 32.3571 11.2755L32.3858 11.314L32.2298 11.3482C32.0419 11.3922 31.8634 11.4362 31.6694 11.4358L31.6449 11.3826L31.7563 11.2711Z" fill="#B67939"/>
<path d="M30.2356 13.7216C30.2863 13.7503 30.3497 13.7863 30.4263 13.8298C30.8289 13.8129 32.1509 13.2349 32.4863 13.4378C32.4882 13.666 32.2115 13.8028 32.1466 14.1832C31.5195 15.0432 29.4694 16.5717 28.4424 16.8741L28.1596 16.9942C27.952 17.0885 27.7011 17.2125 27.4874 17.2729C27.0477 17.4078 26.3656 17.6384 25.9352 17.7257C25.527 17.4059 24.1609 17.4512 23.6418 17.3593C23.3684 17.311 23.0555 17.3715 22.7774 17.3674C23.086 17.2314 23.312 17.2066 23.6394 17.2009L23.6643 17.1244L23.5427 17.0962L23.5394 17.0685C23.778 16.9762 24.2248 16.9288 24.4766 16.8433C25.324 16.5552 26.8428 16.1706 27.5851 15.7508L27.5437 15.6866C27.5832 15.6551 28.1216 15.3627 28.1949 15.3245C28.8671 14.9744 29.7879 14.3751 30.2356 13.7216Z" fill="#D79D55"/>
<path d="M23.6394 17.2009L23.724 17.239C24.5541 16.7628 26.7634 16.418 27.6574 16.6997C27.951 16.7309 28.1563 16.7939 28.4424 16.8741L28.1596 16.9942C27.952 17.0885 27.7011 17.2125 27.4874 17.2729C27.0477 17.4078 26.3656 17.6384 25.9352 17.7257C25.527 17.4059 24.1609 17.4512 23.6418 17.3593C23.3684 17.311 23.0555 17.3715 22.7774 17.3674C23.086 17.2314 23.312 17.2066 23.6394 17.2009Z" fill="#D09044"/>
<path d="M26.4468 16.7511C26.9044 16.6848 27.2008 16.6923 27.6574 16.6997C27.951 16.7309 28.1563 16.7939 28.4424 16.8741L28.1596 16.9942C27.9736 16.8463 26.8226 16.8082 26.4468 16.7511Z" fill="#B67939"/>
<path d="M27.5884 8.53072L28.0351 8.66768C28.0939 8.68981 28.1982 8.72525 28.2498 8.75207L28.0887 8.82716C28.2945 9.15107 29.7954 9.45202 30.4888 10.8928C30.5532 11.0266 30.6946 11.2826 30.6931 11.4321C30.6504 11.857 30.7129 12.4468 30.3925 12.7253C30.2647 12.7554 30.3131 12.7619 30.2041 12.7147C30.1491 11.6392 29.919 11.0799 29.0179 10.5208L28.7539 10.389C28.7201 10.307 28.6853 10.2255 28.6491 10.1446C28.4932 10.0398 28.1629 10.0309 27.959 10.0061L27.9262 9.9022C27.9858 9.85517 27.9835 9.85829 28.0192 9.78949L27.8627 9.5714C27.8021 9.19216 27.7016 8.89299 27.5884 8.53072Z" fill="#8F5125"/>
<path d="M27.959 10.0061C28.193 9.9262 28.6642 9.95485 28.9296 9.95485L29.0179 10.5208L28.7539 10.389C28.7201 10.307 28.6853 10.2255 28.6491 10.1446C28.4932 10.0398 28.1629 10.0309 27.959 10.0061Z" fill="#763D15"/>
<path d="M22.1225 17.2053C24.0674 16.8528 25.698 16.5028 27.5437 15.6866L27.5851 15.7508C26.8428 16.1706 25.324 16.5552 24.4766 16.8433C24.2248 16.9288 23.778 16.9762 23.5394 17.0685L23.5427 17.0962L23.6643 17.1244L23.6394 17.2009C23.312 17.2066 23.086 17.2314 22.7774 17.3674C22.5002 17.364 22.3823 17.3058 22.1225 17.2053Z" fill="#D6A380"/>
<path d="M30.6931 11.4321C30.7852 11.7077 30.7547 12.2741 30.7476 12.5875C30.6039 12.8159 30.3469 13.3039 30.1228 13.372C30.127 13.1129 30.213 13.0941 30.2041 12.7147C30.3131 12.7619 30.2647 12.7554 30.3925 12.7253C30.7129 12.4468 30.6504 11.857 30.6931 11.4321Z" fill="#7E461D"/>
<path d="M27.8627 9.5714L28.0192 9.78949C27.9835 9.85829 27.9858 9.85517 27.9262 9.9022L27.959 10.0061C28.1629 10.0309 28.4932 10.0398 28.6491 10.1446C28.6853 10.2255 28.7201 10.307 28.7539 10.389C28.4852 10.3447 28.1469 10.3291 27.8702 10.3088L27.8627 9.5714Z" fill="#602D0F"/>
<path d="M23.5516 10.2479L23.5864 10.1861C23.8344 10.319 24.0684 10.4782 24.3216 10.6051C24.431 10.6601 24.6199 10.6622 24.7049 10.7134C25.3889 11.1269 26.0316 11.3273 26.8236 11.1771C26.9411 11.1548 27.0717 10.979 27.2596 10.9515L27.3032 10.9894C27.0796 11.3305 25.979 11.2384 25.5909 11.2278C25.6308 11.3756 25.7722 11.4115 25.7774 11.4441C25.8117 11.6645 25.8225 12.118 25.8296 12.3299C26.2204 12.4947 26.6883 12.6488 26.9678 12.9763L26.9326 13.0224C26.7489 12.9341 26.763 12.9173 26.607 12.9747L26.7917 13.2043C27.1111 13.7376 27.1656 15.1632 26.7066 15.512C26.2354 15.8702 24.2807 16.3977 23.7231 16.4032C23.6376 16.269 23.7405 15.7875 23.6794 15.4951C23.5685 14.9673 22.7347 14.2857 22.644 14.0768L22.4603 13.9252C22.3856 13.7431 22.4148 13.6848 22.4641 13.4869C22.2795 13.3833 22.2193 12.8941 22.0751 12.5727C22.5303 12.163 23.2195 11.6094 23.4112 10.9865C23.4304 10.9229 23.4661 10.4166 23.476 10.3092L23.5516 10.2479Z" fill="#602D0F"/>
<path d="M23.5516 10.2479L23.5864 10.1861C23.8344 10.319 24.0684 10.4782 24.3216 10.6051C24.431 10.6601 24.6199 10.6622 24.7049 10.7134C25.3889 11.1269 26.0316 11.3273 26.8236 11.1771C26.9411 11.1548 27.0717 10.979 27.2596 10.9515L27.3032 10.9894C27.0796 11.3305 25.979 11.2384 25.5909 11.2278C25.6308 11.3756 25.7722 11.4115 25.7774 11.4441C25.8117 11.6645 25.8225 12.118 25.8296 12.3299C26.2204 12.4947 26.6883 12.6488 26.9678 12.9763L26.9326 13.0224C26.7489 12.9341 26.763 12.9173 26.607 12.9747C25.8549 12.5394 24.9689 12.4374 24.1454 12.6912C23.5145 12.8901 22.8413 13.3547 22.4603 13.9252C22.3856 13.7431 22.4148 13.6848 22.4641 13.4869C22.2795 13.3833 22.2193 12.8941 22.0751 12.5727C22.5303 12.163 23.2195 11.6094 23.4112 10.9865C23.4304 10.9229 23.4661 10.4166 23.476 10.3092L23.5516 10.2479Z" fill="#602D0F"/>
<path d="M23.5516 10.2479L23.5864 10.1861C23.8344 10.319 24.0684 10.4782 24.3216 10.6051C24.431 10.6601 24.6199 10.6622 24.7049 10.7134C25.3889 11.1269 26.0316 11.3273 26.8236 11.1771C26.9411 11.1548 27.0717 10.979 27.2596 10.9515L27.3032 10.9894C27.0796 11.3305 25.979 11.2384 25.5909 11.2278C25.6308 11.3756 25.7722 11.4115 25.7774 11.4441C25.8117 11.6645 25.8225 12.118 25.8296 12.3299C26.2204 12.4947 26.6883 12.6488 26.9678 12.9763L26.9326 13.0224C26.7489 12.9341 26.763 12.9173 26.607 12.9747C25.8549 12.5394 24.9689 12.4374 24.1454 12.6912C23.5145 12.8901 22.8413 13.3547 22.4603 13.9252C22.3856 13.7431 22.4148 13.6848 22.4641 13.4869C23.5479 12.471 24.1177 12.2747 25.5637 12.3017C25.5688 12.0001 25.5341 11.6425 25.511 11.3369C24.913 10.7217 24.2878 10.8111 23.5516 10.2479Z" fill="#250201"/>
<path d="M26.7917 13.2043C27.1111 13.7376 27.1656 15.1632 26.7066 15.512C26.2354 15.8702 24.2807 16.3977 23.7231 16.4032C23.6376 16.269 23.7405 15.7875 23.6794 15.4951C23.5685 14.9673 22.7347 14.2857 22.644 14.0768C22.808 14.0936 23.2134 14.6464 23.3388 14.7116C23.7903 14.9464 25.3776 16.0444 25.7685 15.6118C25.9287 14.8615 26.0908 15.0578 26.351 14.4198C26.3717 14.3701 26.3332 14.0063 26.3313 13.9151C26.3233 13.5062 26.5342 13.4893 26.7917 13.2043Z" fill="#50230B"/>
<path d="M27.6715 10.741C28.1192 10.7372 28.589 10.7499 29.0048 10.9442C29.3143 11.0888 29.5666 11.3327 29.6873 11.6708C29.8757 12.198 29.7484 12.8795 29.5389 13.3784C29.522 13.3455 29.5285 13.3541 29.5107 13.3303C29.1208 12.8157 28.8601 11.9085 28.3494 11.5355C28.1432 11.3849 27.8717 11.3164 27.6504 11.1906C27.5499 11.1334 27.5306 11.0764 27.4958 10.9665C27.5414 10.843 27.5752 10.8195 27.6715 10.741Z" fill="#602D0F"/>
<path d="M0.45692 13.5044C0.472423 13.3656 0.507688 13.2776 0.552317 13.1472C1.02068 14.4142 1.92594 15.2043 2.93878 15.9899C3.18917 16.1842 3.66787 16.5006 3.98168 16.3662C4.05403 16.3356 4.12355 16.2983 4.18979 16.2545C4.52756 16.119 4.94472 15.9451 5.29377 15.8549L5.29236 15.8841C5.06969 16.0161 4.51582 16.2209 4.45475 16.2765C4.69198 16.474 5.03821 16.5494 5.22189 16.6966C5.92233 17.2579 6.29157 16.9917 7.11603 17.164C7.50829 17.404 7.70654 17.3485 8.09364 17.5037L8.21343 17.5257L7.67788 18.0813C8.13826 18.133 8.67381 18.2111 9.12057 18.3416C10.1109 18.558 11.0495 18.6762 12.0369 18.8571L11.9242 19.0207C13.9372 19.3526 15.9816 19.4166 18.0101 19.2112L18.1003 19.2667C17.9584 19.3132 17.9232 19.2796 17.826 19.3105C17.6019 19.3817 17.3975 20.0353 17.2246 20.0627C17.1415 20.1361 17.0527 20.2456 16.9837 20.3358C15.3225 22.4655 12.2149 23.7644 9.7801 22.3531C8.04052 21.345 7.6304 20.0514 6.96238 18.2561C6.86467 17.9936 6.63401 17.9445 6.39724 17.8636C6.24363 17.7827 6.05336 17.7248 5.888 17.6681C5.84056 17.6219 4.84416 17.2307 4.70135 17.1687C3.77495 16.7731 3.53207 16.5341 2.7048 16.0744C1.86719 15.2277 1.67317 15.2709 0.851063 14.1327L0.784353 14.1291L0.677248 14.2392C0.637787 14.0542 0.572957 13.8529 0.518463 13.6704L0.45692 13.5044Z" fill="#CC8B41"/>
<path d="M0.45692 13.5044C0.472423 13.3656 0.507688 13.2776 0.552317 13.1472C1.02068 14.4142 1.92594 15.2043 2.93878 15.9899C3.18917 16.1842 3.66787 16.5006 3.98168 16.3662C4.05403 16.3356 4.12355 16.2983 4.18979 16.2545C4.52756 16.119 4.94472 15.9451 5.29377 15.8549L5.29236 15.8841C5.06969 16.0161 4.51582 16.2209 4.45475 16.2765C4.69198 16.474 5.03821 16.5494 5.22189 16.6966C5.92233 17.2579 6.29157 16.9917 7.11603 17.164C7.50829 17.404 7.70654 17.3485 8.09364 17.5037L8.21343 17.5257L7.67788 18.0813C8.13826 18.133 8.67381 18.2111 9.12057 18.3416C8.803 18.3764 8.31255 18.1883 7.9931 18.1937L7.94377 18.2678C7.92123 18.5319 9.16801 20.7059 9.4184 21.0094C8.73018 20.8833 8.22282 18.3351 7.39414 18.1748C7.32508 18.1618 7.25555 18.1506 7.18603 18.1411C6.99671 18.3696 7.42138 19.0678 7.50312 19.3099C9.03084 23.8342 13.9828 23.6719 16.7234 20.4926C16.9654 20.2119 17.1396 19.9158 17.3961 19.6272C17.4027 19.7544 17.243 19.9657 17.2246 20.0627C17.1415 20.1361 17.0527 20.2456 16.9837 20.3358C15.3225 22.4655 12.2149 23.7644 9.7801 22.3531C8.04052 21.345 7.6304 20.0514 6.96238 18.2561C6.86467 17.9936 6.63401 17.9445 6.39724 17.8636C6.24363 17.7827 6.05336 17.7248 5.888 17.6681C5.84056 17.6219 4.84416 17.2307 4.70135 17.1687C3.77495 16.7731 3.53207 16.5341 2.7048 16.0744C1.86719 15.2277 1.67317 15.2709 0.851063 14.1327L0.784353 14.1291L0.677248 14.2392C0.637787 14.0542 0.572957 13.8529 0.518463 13.6704L0.45692 13.5044Z" fill="#8F5125"/>
<path d="M7.58768 18.0373C6.86094 17.7377 4.53601 17.1005 4.00376 16.5986L4.00234 16.5197C4.11556 16.3908 4.29502 16.3392 4.45475 16.2765C4.69198 16.474 5.03821 16.5494 5.22189 16.6966C5.92233 17.2579 6.29157 16.9917 7.11603 17.164C7.50829 17.404 7.70654 17.3485 8.09364 17.5037C7.87754 17.6874 7.7723 17.8175 7.58768 18.0373Z" fill="#F1C887"/>
<path d="M7.94377 18.2678L7.9931 18.1937C8.31255 18.1883 8.803 18.3764 9.12057 18.3416C10.1109 18.558 11.0495 18.6762 12.0369 18.8571L11.9242 19.0207C11.1646 18.9354 8.63857 18.5489 7.94377 18.2678Z" fill="#B67939"/>
<path d="M14.1861 19.783L14.2101 19.8232C14.2007 19.8778 14.1843 19.9239 14.1509 19.967C13.7812 20.443 13.2071 20.9088 12.6194 20.9832C11.5953 21.1129 10.8728 20.7788 10.0897 20.1347L10.0836 20.071C10.2311 20.0542 10.6224 20.4463 10.7868 20.5383C11.1627 20.7487 11.5897 20.846 12.0134 20.8597C13.0949 20.8944 13.4364 20.5262 14.1861 19.783Z" fill="#8F5125"/>
<path d="M15.4047 19.8276L15.4418 19.8835C15.4362 19.9084 15.4291 19.9322 15.4198 19.956C15.2408 20.4076 14.4685 20.9524 14.0452 21.1476L14.0208 21.0855C14.5934 20.761 14.9688 20.325 15.4047 19.8276Z" fill="#B67939"/>
<path d="M7.31991 16.3043C10.551 17.3578 13.3655 17.5268 16.7187 17.5484C17.3299 17.5523 18.6763 17.5509 19.2433 17.4521C19.5219 17.4734 20.3224 17.3971 20.7085 17.3987C21.1783 17.3532 21.6528 17.2679 22.1225 17.2053C22.3823 17.3058 22.5002 17.364 22.7774 17.3674C23.0555 17.3715 23.3684 17.311 23.6418 17.3593C24.1609 17.4512 25.527 17.4059 25.9352 17.7257C25.6614 17.8698 25.379 17.9959 25.0765 18.0568C24.9572 18.0746 24.7453 18.0989 24.6354 18.1285L24.4122 18.1468C24.1398 18.2088 23.6902 18.3933 23.529 18.4216C23.1161 18.5354 22.6853 18.647 22.2757 18.7677C21.4874 18.9557 21.1759 18.9118 20.5286 19.0292C20.3491 19.0432 19.9757 19.011 19.7807 18.9994C19.5576 19.1473 19.1047 19.0499 18.782 19.1288C18.6471 19.1362 18.1177 19.1632 18.0101 19.2112C15.9816 19.4166 13.9372 19.3526 11.9242 19.0207L12.0369 18.8571C11.0495 18.6762 10.1109 18.558 9.12057 18.3416C8.67381 18.2111 8.13826 18.133 7.67788 18.0813L8.21343 17.5257L8.09364 17.5037C7.70654 17.3485 7.50829 17.404 7.11603 17.164C6.70591 16.9187 6.23802 16.9801 5.7612 16.982C6.07689 16.8857 6.72424 16.8155 7.04697 16.7283C7.07939 16.7196 7.21656 16.3912 7.3326 16.5047C7.57688 16.7433 7.61071 16.6814 7.92875 16.7039L7.98089 16.6515C7.63748 16.4288 7.55621 16.6209 7.31991 16.3043Z" fill="#D79D55"/>
<path d="M8.21343 17.5257C8.74286 17.1506 10.4293 18.059 11.1236 18.1966C11.7795 18.3467 12.4235 18.4772 13.0901 18.5641C13.216 18.5805 13.4664 18.6006 13.5731 18.6334C13.2921 18.8022 11.8452 18.3399 11.4671 18.4017C11.414 18.4104 11.1697 18.5793 11.1034 18.6212C11.4985 18.7225 13.1921 18.9032 13.5994 18.9102C13.3664 18.9259 13.1324 18.9355 12.8989 18.9393C12.6589 18.9373 12.2859 18.8848 12.0369 18.8571C11.0495 18.6762 10.1109 18.558 9.12057 18.3416C8.67381 18.2111 8.13826 18.133 7.67788 18.0813L8.21343 17.5257Z" fill="#F1C887"/>
<path d="M20.7085 17.3987C21.1783 17.3532 21.6528 17.2679 22.1225 17.2053C22.3823 17.3058 22.5002 17.364 22.7774 17.3674C23.0555 17.3715 23.3684 17.311 23.6418 17.3593C24.1609 17.4512 25.527 17.4059 25.9352 17.7257C25.6614 17.8698 25.379 17.9959 25.0765 18.0568C24.9572 18.0746 24.7453 18.0989 24.6354 18.1285L24.4122 18.1468L24.0144 18.1034C23.647 18.1554 21.6819 17.6999 21.323 17.5575C21.1473 17.3888 20.9533 17.4127 20.7085 17.3987Z" fill="#D39552"/>
<path d="M21.323 17.5575L21.3413 17.5305L21.3681 17.5406C21.5076 17.5919 21.5884 17.5454 21.6349 17.5583C22.0694 17.6802 23.6399 17.8094 23.9396 18.037C23.9659 18.0569 23.9913 18.0792 24.0144 18.1034C23.647 18.1554 21.6819 17.6999 21.323 17.5575Z" fill="#B67939"/>
<path d="M12.0369 18.8571C12.2859 18.8848 12.6589 18.9373 12.8989 18.9393C14.2646 19.1865 16.3574 19.0219 17.763 19.001C18.5602 18.9891 18.9285 18.9047 19.7807 18.9994C19.5576 19.1473 19.1047 19.0499 18.782 19.1288C18.6471 19.1362 18.1177 19.1632 18.0101 19.2112C15.9816 19.4166 13.9372 19.3526 11.9242 19.0207L12.0369 18.8571Z" fill="#A15719"/>
<path d="M11.1236 18.1966C11.7066 17.9361 13.566 18.5278 14.3524 18.6045C14.0931 18.6187 13.8333 18.6284 13.5731 18.6334C13.4664 18.6006 13.216 18.5805 13.0901 18.5641C12.4235 18.4772 11.7795 18.3467 11.1236 18.1966Z" fill="#D09044"/>
<path d="M19.3466 8.09773C20.4454 7.88341 21.6368 8.25776 22.5665 8.87628C22.8742 9.22939 23.1612 9.60157 23.141 10.1171C23.1363 10.2775 23.1105 10.4364 23.0644 10.5894C23.0076 11.0361 22.6722 11.5156 22.3861 11.8314C22.3433 11.8784 22.1277 12.094 22.1113 12.1203C21.121 12.9996 19.0953 13.5475 18.5316 11.9211C18.2286 11.0461 18.1797 9.88449 18.525 9.02685C18.6509 8.564 18.906 8.2439 19.3466 8.09773Z" fill="#602D0F"/>
<path d="M19.3466 8.09773C20.4454 7.88341 21.6368 8.25776 22.5665 8.87628C22.8742 9.22939 23.1612 9.60157 23.141 10.1171C23.1363 10.2775 23.1105 10.4364 23.0644 10.5894C22.8953 10.3023 23.0179 10.2154 22.939 9.94235C22.5651 8.64869 20.9753 8.66977 19.994 8.96087C19.0234 10.0186 19.3396 10.3024 19.497 11.6763C19.5162 11.845 19.5017 11.9527 19.4086 12.087L19.2917 12.0894C18.7491 11.7691 18.6344 10.9322 18.6438 10.3326L18.7707 10.2623C18.866 10.1099 18.8327 10.0965 18.828 9.88657L18.7481 9.87335C18.6763 9.72293 18.6814 9.42075 18.6734 9.24067L18.6396 9.51588C18.4517 9.34086 18.5043 9.25686 18.525 9.02685C18.6509 8.564 18.906 8.2439 19.3466 8.09773Z" fill="#7E461D"/>
<path d="M18.525 9.02685C18.6509 8.564 18.906 8.2439 19.3466 8.09773C19.4876 8.10575 19.7037 8.09853 19.8145 8.1751C19.738 8.31558 19.7737 8.27133 19.6304 8.34958C19.2588 8.37171 18.8078 8.88954 18.6734 9.24067L18.6396 9.51588C18.4517 9.34086 18.5043 9.25686 18.525 9.02685Z" fill="#975A37"/>
<path d="M18.6734 9.24067C18.8078 8.88954 19.2588 8.37171 19.6304 8.34958C19.0117 8.96964 19.1813 9.18158 18.828 9.88657L18.7481 9.87335C18.6763 9.72293 18.6814 9.42075 18.6734 9.24067Z" fill="#C08864"/>
<path d="M18.6396 9.51588L18.6734 9.24067C18.6814 9.42075 18.6763 9.72293 18.7481 9.87335L18.828 9.88657C18.8327 10.0965 18.866 10.1099 18.7707 10.2623L18.6438 10.3326C18.6626 10.1241 18.6443 9.73966 18.6396 9.51588Z" fill="#B67939"/>
<path d="M14.2702 1.90709C15.1454 1.02885 15.2441 -0.0143047 16.7816 0.00014853L17.0959 0.0928078C18.0425 0.451367 19.5101 1.66544 19.9188 2.64777C19.9691 2.77775 20.0184 2.90827 20.0659 3.03939L20.0414 3.05206C19.9343 3.10799 19.9117 3.12809 19.8244 3.21213C19.7849 3.18204 19.7727 3.17848 19.7426 3.13744C19.7379 3.21347 19.7281 3.43839 19.7121 3.49897C19.4509 3.86689 19.2846 4.22852 19.0934 4.63627C19.0863 2.92564 19.0107 2.69855 17.4788 1.87259C17.4374 1.91585 17.3994 1.94693 17.3773 2.00336L17.3731 2.05741L17.382 2.30044L17.3834 2.32148C17.4337 3.00271 17.9636 3.51407 17.5516 3.91436C17.3815 4.07948 17.3416 4.17095 17.2937 4.40913C17.1128 4.41067 16.7375 4.54574 16.5214 4.58302C15.4738 4.76358 15.1111 4.46254 14.2815 4.03038C14.0729 3.90163 14.0311 3.86897 13.8587 3.69043C13.8479 3.41443 13.7957 3.23985 13.7995 2.94614C13.7004 3.11581 13.5923 3.28019 13.5406 3.47125C13.4598 3.49521 13.3532 3.53278 13.2724 3.53748C13.3589 2.82279 13.7798 2.36088 14.2702 1.90709Z" fill="#844B28"/>
<path d="M14.2702 1.90709C15.1454 1.02885 15.2441 -0.0143047 16.7816 0.00014853C16.7821 0.152551 16.7821 0.241399 16.8042 0.391475C16.5519 0.392416 16.3724 0.362371 16.1935 0.54962C16.17 0.574121 16.1474 0.599315 16.1258 0.625202L16.0671 0.648416C15.8703 0.653514 15.7566 0.667819 15.6274 0.835516C15.2051 1.3839 14.9213 1.93233 14.3256 2.32272C14.1481 2.51947 13.9498 2.7282 13.7995 2.94614C13.7004 3.11581 13.5923 3.28019 13.5406 3.47125C13.4598 3.49521 13.3532 3.53278 13.2724 3.53748C13.3589 2.82279 13.7798 2.36088 14.2702 1.90709Z" fill="#370B05"/>
<path d="M13.2724 3.53748C13.3589 2.82279 13.7798 2.36088 14.2702 1.90709C14.2308 2.01568 14.0602 2.38977 14.0644 2.43427C14.1387 2.39556 14.2397 2.26266 14.2594 2.17406L14.3256 2.32272C14.1481 2.51947 13.9498 2.7282 13.7995 2.94614C13.7004 3.11581 13.5923 3.28019 13.5406 3.47125C13.4598 3.49521 13.3532 3.53278 13.2724 3.53748Z" fill="#050000"/>
<path d="M14.3256 2.32272C14.9213 1.93233 15.2051 1.3839 15.6274 0.835516C15.7566 0.667819 15.8703 0.653514 16.0671 0.648416C15.8313 0.895854 15.5588 1.09988 15.5485 1.43834C15.5823 1.50982 15.6166 1.58535 15.6518 1.65554L15.5377 1.71073L15.5344 1.73454C15.4578 2.28673 15.0632 2.53412 14.7015 2.89624C14.6488 2.94871 14.5544 2.95876 14.4966 3.00271L14.3815 2.95212C14.1546 3.07443 13.9446 3.44517 13.8587 3.69043C13.8479 3.41443 13.7957 3.23985 13.7995 2.94614C13.9498 2.7282 14.1481 2.51947 14.3256 2.32272Z" fill="#975A37"/>
<path d="M16.7816 0.00014853L17.0959 0.0928078C18.0425 0.451367 19.5101 1.66544 19.9188 2.64777C19.7657 2.61416 19.7046 2.61795 19.5468 2.62191C18.9887 1.6377 18.237 0.956916 17.2204 0.556631C17.1302 0.536188 16.9005 0.432212 16.8042 0.391475C16.7821 0.241399 16.7821 0.152551 16.7816 0.00014853Z" fill="#050000"/>
<path d="M16.7816 0.00014853L17.0959 0.0928078C17.0734 0.28857 17.0739 0.318993 17.1716 0.480652L17.1875 0.507925C17.1988 0.52416 17.2096 0.540395 17.2204 0.556631C17.1302 0.536188 16.9005 0.432212 16.8042 0.391475C16.7821 0.241399 16.7821 0.152551 16.7816 0.00014853Z" fill="var(--fill-0, #1B0200)"/>
<path d="M13.8587 3.69043C13.9446 3.44517 14.1546 3.07443 14.3815 2.95212L14.4966 3.00271C14.6775 3.40473 14.88 3.91752 14.2815 4.03038C14.0729 3.90163 14.0311 3.86897 13.8587 3.69043Z" fill="#D6A380"/>
<path d="M16.1258 0.625202C16.3175 0.61951 16.325 0.582413 16.4331 0.683239C16.4509 1.01675 16.0573 1.60419 15.7848 1.74501C15.6829 1.71274 15.7166 1.73751 15.6518 1.65554C15.6166 1.58535 15.5823 1.50982 15.5485 1.43834C15.5588 1.09988 15.8313 0.895854 16.0671 0.648416L16.1258 0.625202Z" fill="#F5D19B"/>
<path d="M19.5468 2.62191C19.7046 2.61795 19.7657 2.61416 19.9188 2.64777C19.9691 2.77775 20.0184 2.90827 20.0659 3.03939L20.0414 3.05206C19.9343 3.10799 19.9117 3.12809 19.8244 3.21213C19.7849 3.18204 19.7727 3.17848 19.7426 3.13744L19.5468 2.62191Z" fill="var(--fill-0, #1B0200)"/>
<path d="M17.3773 2.00336C17.2857 1.9062 17.1673 1.92401 17.0123 1.74384L17.025 1.69088C17.189 1.74399 17.3219 1.80354 17.4788 1.87259C17.4374 1.91585 17.3994 1.94693 17.3773 2.00336Z" fill="#50230B"/>
<path d="M20.6282 13.2245L21.8186 12.7741C21.8886 13.1369 21.9727 13.904 22.1968 14.1478C22.5045 14.7494 23.3613 15.2825 23.2138 16.2167C23.1485 16.6315 22.2682 16.7802 21.9727 16.7547C21.5856 16.8103 21.3136 16.8423 20.9194 16.8625C20.786 16.8813 20.5333 16.9846 20.3562 17.0314C19.8648 17.1615 18.8651 17.125 18.3958 16.9147C17.4544 15.5565 18.6776 14.2921 19.5777 13.4031C19.838 13.349 20.0142 13.3415 20.2791 13.3266L20.4487 13.3294L20.6282 13.2245Z" fill="#763D15"/>
<path d="M19.5777 13.4031C19.838 13.349 20.0142 13.3415 20.2791 13.3266L20.4487 13.3294C20.5398 13.4234 20.5149 13.3824 20.5239 13.5408C20.2598 14.0787 19.4706 14.7802 19.4335 15.1493C19.3053 15.442 19.208 15.5989 18.8745 15.6247C19.0755 16.5258 20.1448 16.8574 20.9194 16.8625C20.786 16.8813 20.5333 16.9846 20.3562 17.0314C19.8648 17.1615 18.8651 17.125 18.3958 16.9147C17.4544 15.5565 18.6776 14.2921 19.5777 13.4031Z" fill="#50230B"/>
<path d="M20.2791 13.3266L20.4487 13.3294C20.5398 13.4234 20.5149 13.3824 20.5239 13.5408C20.2598 14.0787 19.4706 14.7802 19.4335 15.1493C19.3945 14.8515 19.3847 14.6804 19.1268 14.5285C19.1939 13.8284 20.0536 13.6628 20.2791 13.3266Z" fill="#8F5125"/>
<path d="M19.1268 14.5285C19.3847 14.6804 19.3945 14.8515 19.4335 15.1493C19.3053 15.442 19.208 15.5989 18.8745 15.6247C18.8505 15.0571 18.8529 15.0146 19.1268 14.5285Z" fill="#D6A380"/>
<path d="M20.6282 13.2245L21.8186 12.7741C21.8886 13.1369 21.9727 13.904 22.1968 14.1478C22.5045 14.7494 23.3613 15.2825 23.2138 16.2167C23.1485 16.6315 22.2682 16.7802 21.9727 16.7547C22.0178 16.6748 22.1615 16.4133 22.1671 16.3243C22.2136 15.5507 21.7288 14.3303 21.3394 13.6928C21.0867 13.2789 21.0228 13.3041 20.6282 13.2245Z" fill="#602D0F"/>
<path d="M26.5967 6.44001L26.7061 6.55228C26.608 6.84698 26.5281 7.03804 26.4003 7.32092C26.7747 8.65928 27.4733 8.86811 27.4338 10.2701C27.0566 10.8973 26.8189 10.978 26.1274 10.9607C25.9944 10.8309 25.5796 10.8275 25.3118 10.7095C24.8054 10.4861 24.0364 10.195 23.5845 9.90022C23.4083 9.78524 23.1603 9.0405 23.0043 8.87142C22.7948 8.64447 22.5683 8.60057 22.3865 8.33754C22.2799 7.98408 22.6336 7.41699 22.9301 7.26864C23.1603 7.04912 23.7165 6.76852 24.0204 6.67517C24.0383 6.78971 24.0369 6.86247 24.1148 6.94097C24.3422 6.73313 24.4371 6.72278 24.7227 6.69606C24.8787 6.68769 25.2851 6.65334 25.4124 6.68873C25.5852 6.71313 26.0771 6.58137 26.3801 6.58959C26.4811 6.57132 26.5201 6.51534 26.5967 6.44001Z" fill="#602D0F"/>
<path d="M25.4124 6.68873C25.5852 6.71313 26.0771 6.58137 26.3801 6.58959C26.0193 7.02833 25.9935 7.00859 25.7708 7.52608C25.5106 8.13139 25.7708 9.38491 25.3166 9.69843C24.6405 9.7111 23.2293 8.72328 22.5965 8.44995C22.2245 8.28908 22.869 7.42604 22.9301 7.26864C23.1603 7.04912 23.7165 6.76852 24.0204 6.67517C24.0383 6.78971 24.0369 6.86247 24.1148 6.94097C24.3422 6.73313 24.4371 6.72278 24.7227 6.69606C24.8787 6.68769 25.2851 6.65334 25.4124 6.68873Z" fill="#763D15"/>
<path d="M24.7227 6.69606C24.8787 6.68769 25.2851 6.65334 25.4124 6.68873C24.9421 7.15069 24.8416 7.15732 24.2319 7.3366C24.1074 7.40114 24.136 7.41134 24.0195 7.39109C23.9848 7.25007 24.0641 7.08327 24.1148 6.94097C24.3422 6.73313 24.4371 6.72278 24.7227 6.69606Z" fill="#C08864"/>
<path d="M24.1148 6.94097C24.3422 6.73313 24.4371 6.72278 24.7227 6.69606C24.4972 6.84039 24.2544 7.03179 24.2319 7.3366C24.1074 7.40114 24.136 7.41134 24.0195 7.39109C23.9848 7.25007 24.0641 7.08327 24.1148 6.94097Z" fill="#B67939"/>
<path d="M23.6916 7.2369C23.7306 7.24284 23.7743 7.26843 23.8109 7.28422C23.8189 7.33867 23.8358 7.38881 23.8184 7.44148C23.7311 7.7046 23.5619 7.84523 23.3332 7.96016C23.2284 7.93571 23.2256 7.92412 23.157 7.83538C23.1589 7.77667 23.1617 7.71178 23.1852 7.65758C23.2843 7.42816 23.484 7.32738 23.6916 7.2369Z" fill="#C08864"/>
<path d="M0.0486871 11.8847C0.129958 9.76827 3.25068 7.67299 4.97617 7.08471C5.30783 6.97161 5.66439 6.79184 6.00686 6.72442C6.31597 6.86188 6.31689 6.64187 6.40427 6.77719C6.30186 6.92519 6.28025 6.95895 6.13838 7.06151C5.89832 7.33859 5.71652 7.71675 5.53284 8.04284C5.35338 8.22287 4.8587 8.68017 4.61348 8.72249C3.56353 9.45862 2.53519 10.0028 2.12836 11.4529L1.85778 11.4061C1.54491 11.4277 1.35512 11.4945 1.05258 11.5865C0.867957 11.6851 0.925271 11.6902 0.747695 11.6591C0.715281 11.9864 1.07654 12.9337 1.22592 13.2793C1.63933 14.234 2.55539 15.0326 3.33428 15.6632C3.47897 15.7801 4.14469 16.1792 4.18979 16.2545C4.12355 16.2983 4.05403 16.3356 3.98168 16.3662C3.66787 16.5006 3.18917 16.1842 2.93878 15.9899C1.92594 15.2043 1.02068 14.4142 0.552317 13.1472C0.507688 13.2776 0.472423 13.3656 0.45692 13.5044C0.1215 12.8994 0.0900274 12.5489 0.0486871 11.8847Z" fill="#EDC086"/>
<path d="M0.0486871 11.8847C0.129958 9.76827 3.25068 7.67299 4.97617 7.08471C5.30783 6.97161 5.66439 6.79184 6.00686 6.72442C6.31597 6.86188 6.31689 6.64187 6.40427 6.77719C6.30186 6.92519 6.28025 6.95895 6.13838 7.06151L6.04113 7.01493C3.75661 8.10531 -0.309253 9.75886 0.552317 13.1472C0.507688 13.2776 0.472423 13.3656 0.45692 13.5044C0.1215 12.8994 0.0900274 12.5489 0.0486871 11.8847Z" fill="#763D15"/>
<path d="M0.747695 11.6591C0.817222 11.5904 0.885828 11.5203 0.952537 11.4488C1.06528 10.8637 2.58595 8.99046 3.16565 8.90998C3.14686 8.99502 3.137 9.05862 3.12572 9.14509C3.56026 9.44168 4.07841 8.82297 4.61348 8.72249C3.56353 9.45862 2.53519 10.0028 2.12836 11.4529L1.85778 11.4061C1.54491 11.4277 1.35512 11.4945 1.05258 11.5865C0.867957 11.6851 0.925271 11.6902 0.747695 11.6591Z" fill="#D79D55"/>
<path d="M1.05258 11.5865C1.03191 11.5562 1.0413 11.5485 1.04036 11.4963C1.27853 11.3033 1.76522 11.2356 2.05601 11.2913L2.06118 11.3422L1.85778 11.4061C1.54491 11.4277 1.35512 11.4945 1.05258 11.5865Z" fill="#B67939"/>
<path d="M9.67771 8.97265C9.94454 8.91345 9.98353 8.68626 10.4185 8.79738C10.7892 8.85782 11.6367 9.35497 11.8415 9.28928C11.298 11.0917 13.03 11.8794 14.2604 12.434L14.3182 12.5298C14.888 12.8332 14.6089 12.9736 14.7546 13.5519L14.7612 13.5795C14.4859 13.9549 14.3059 14.2365 14.1364 14.6748C13.6121 14.0674 13.2757 13.8269 13.2118 12.9414C13.0474 10.6553 10.9649 12.6357 10.1813 13.0757C9.86656 12.9254 9.8022 12.7097 9.46913 12.8224L9.41558 12.7611C9.04351 11.5333 9.68429 11.0914 9.63778 10.0955C9.6265 9.87618 9.62885 9.67462 9.63073 9.45565C9.62603 9.32364 9.65986 9.10976 9.67771 8.97265Z" fill="#784021"/>
<path d="M9.63073 9.45565C10.1188 9.88553 9.86327 10.0147 10.0394 10.314C10.0221 10.471 9.5504 12.7101 9.53161 12.7444C9.5006 12.7503 9.44329 12.7644 9.41558 12.7611C9.04351 11.5333 9.68429 11.0914 9.63778 10.0955C9.6265 9.87618 9.62885 9.67462 9.63073 9.45565Z" fill="#975A37"/>
<path d="M14.7546 13.5519C14.4473 13.653 13.8005 12.8793 13.7526 12.611C13.8719 12.5176 14.1551 12.535 14.3182 12.5298C14.888 12.8332 14.6089 12.9736 14.7546 13.5519Z" fill="#6A3311"/>
<path d="M9.67771 8.97265C9.94454 8.91345 9.98353 8.68626 10.4185 8.79738C10.0672 9.39367 10.1226 9.60669 10.0394 10.314C9.86327 10.0147 10.1188 9.88553 9.63073 9.45565C9.62603 9.32364 9.65986 9.10976 9.67771 8.97265Z" fill="#D6A380"/>
<path d="M1.05258 11.5865C1.35512 11.4945 1.54491 11.4277 1.85778 11.4061L2.12836 11.4529C2.1138 11.671 2.08565 12.0779 2.13403 12.292L2.18007 12.1964C2.37738 12.5456 2.58032 13.1888 2.85279 13.3871L3.00358 13.3931C3.19008 13.5156 3.45739 14.077 3.45504 14.3241C4.52613 15.2565 6.00783 15.8584 7.31991 16.3043C7.55621 16.6209 7.63748 16.4288 7.98089 16.6515L7.92875 16.7039C7.61071 16.6814 7.57688 16.7433 7.3326 16.5047C7.21656 16.3912 7.07939 16.7196 7.04697 16.7283C6.72424 16.8155 6.07689 16.8857 5.7612 16.982C6.23802 16.9801 6.70591 16.9187 7.11603 17.164C6.29157 16.9917 5.92233 17.2579 5.22189 16.6966C5.03821 16.5494 4.69198 16.474 4.45475 16.2765C4.51582 16.2209 5.06969 16.0161 5.29236 15.8841L5.29377 15.8549C4.94472 15.9451 4.52756 16.119 4.18979 16.2545C4.14469 16.1792 3.47897 15.7801 3.33428 15.6632C2.55539 15.0326 1.63933 14.234 1.22592 13.2793C1.07654 12.9337 0.715281 11.9864 0.747695 11.6591C0.925271 11.6902 0.867957 11.6851 1.05258 11.5865Z" fill="#E7AF60"/>
<path d="M2.13403 12.292L2.18007 12.1964C2.37738 12.5456 2.58032 13.1888 2.85279 13.3871L3.00358 13.3931C3.19008 13.5156 3.45739 14.077 3.45504 14.3241C2.86219 13.7858 2.29094 13.121 2.13403 12.292Z" fill="#602D0F"/>
<path d="M1.82636 13.6398C1.96401 13.6188 2.09648 13.6339 2.22943 13.6787C2.37976 13.7295 2.45304 13.8046 2.5221 13.9444C2.32996 13.9099 1.99548 13.8944 1.83528 13.7869L1.82636 13.6398Z" fill="#D79D55"/>
<path d="M8.71231 5.88639C8.87392 5.8208 9.07921 5.74478 9.23376 5.67246C9.17739 6.18456 9.15907 6.43903 9.21873 6.94944C9.17927 7.34072 9.1835 7.67686 9.09095 8.05695C8.79218 9.28389 8.05932 9.97205 6.8271 9.85474C6.38974 9.81312 6.11586 9.36714 5.80675 9.15733C5.7997 8.91434 5.78843 8.67151 5.77198 8.42902C6.01862 7.7167 6.37518 7.09932 6.95676 6.63929C7.13809 6.60801 7.23628 6.55633 7.39365 6.65429C7.74693 6.41799 8.32334 6.13962 8.71372 5.92549L8.71231 5.88639Z" fill="#8F5125"/>
<path d="M6.95676 6.63929C7.13809 6.60801 7.23628 6.55633 7.39365 6.65429C6.49074 7.37408 6.67489 7.39515 6.25256 8.32031C6.05949 8.59943 5.81051 8.8153 5.80675 9.15733C5.7997 8.91434 5.78843 8.67151 5.77198 8.42902C6.01862 7.7167 6.37518 7.09932 6.95676 6.63929Z" fill="#7E461D"/>
<path d="M8.71372 5.92549L8.76444 6.00555C8.55727 6.39663 7.65577 6.74113 7.3476 7.02341C6.90836 7.42573 6.6124 7.91674 6.38409 8.4677L6.31315 8.47498C6.29013 8.42513 6.26102 8.37421 6.25256 8.32031C6.67489 7.39515 6.49074 7.37408 7.39365 6.65429C7.74693 6.41799 8.32334 6.13962 8.71372 5.92549Z" fill="#D7A380"/>
<path d="M15.4687 13.3876C15.9342 13.319 16.3631 13.2738 16.8296 13.358C17.2247 13.3868 17.3628 13.5044 17.6959 13.7196C17.6663 14.0027 17.7278 14.4279 17.7602 14.722L17.7344 14.749C17.3604 15.1429 17.0509 15.6632 16.6393 16.0787C16.3993 16.3216 15.7031 16.7068 15.6115 16.8096C15.2159 16.8525 14.8016 16.5762 14.6747 16.184C14.6644 15.8863 14.6663 15.6228 14.5155 15.3635C14.2191 15.0063 14.6461 14.2215 14.9622 13.9697C15.0191 13.7793 15.3226 13.5179 15.4687 13.3876Z" fill="#602D0F"/>
<path d="M15.4687 13.3876C15.9342 13.319 16.3631 13.2738 16.8296 13.358C16.0733 13.4461 16.3429 13.6664 15.8318 13.9568C15.6547 14.181 15.4757 14.4033 15.2944 14.6238C15.0623 15.0335 15.4212 16.397 15.6115 16.8096C15.2159 16.8525 14.8016 16.5762 14.6747 16.184C14.6644 15.8863 14.6663 15.6228 14.5155 15.3635C14.2191 15.0063 14.6461 14.2215 14.9622 13.9697C15.0191 13.7793 15.3226 13.5179 15.4687 13.3876Z" fill="#6A3311"/>
<path d="M14.5155 15.3635C14.2191 15.0063 14.6461 14.2215 14.9622 13.9697C14.9092 14.2679 14.7363 14.6895 14.7245 14.879C14.6931 15.3816 14.7753 15.6532 14.6747 16.184C14.6644 15.8863 14.6663 15.6228 14.5155 15.3635Z" fill="#50230B"/>
<path d="M15.2944 14.6238L15.2394 14.5235C15.2192 14.2302 15.3066 13.9254 15.58 13.802C15.7425 13.8358 15.6956 13.8265 15.8318 13.9568C15.6547 14.181 15.4757 14.4033 15.2944 14.6238Z" fill="#D6A380"/>
<path d="M20.7376 3.2296C20.8635 3.22935 21.1115 3.23732 21.2266 3.22712L21.952 3.31795C22.6228 3.56663 22.9944 3.92266 23.3561 4.559C23.3665 6.03447 21.9492 6.07372 20.933 6.02858C20.7254 6.01932 20.5177 6.21256 20.3087 6.12421C20.2664 5.83787 20.1335 5.57251 20.0386 5.28914C20.0597 4.92167 19.8793 4.51713 19.7962 4.13852C19.8897 3.97988 20.0179 3.81065 20.1264 3.65998C20.3336 3.38581 20.4346 3.36057 20.7376 3.2296Z" fill="#653317"/>
<path d="M20.1264 3.65998C20.3336 3.38581 20.4346 3.36057 20.7376 3.2296C20.7301 3.32256 20.7076 3.43379 20.7578 3.50234C20.9706 3.52234 21.3117 3.52031 21.2892 3.81155C21.0904 4.05454 20.3905 4.28836 20.1434 4.10017L20.1264 3.65998Z" fill="#C08864"/>
<path d="M20.1264 3.65998C20.3336 3.38581 20.4346 3.36057 20.7376 3.2296C20.7301 3.32256 20.7076 3.43379 20.7578 3.50234C20.4797 3.64712 20.3097 3.82734 20.1434 4.10017L20.1264 3.65998Z" fill="#763D15"/>
<path d="M17.3731 2.05741C17.8983 2.30203 18.5997 2.64054 18.7895 3.23387C19.5402 5.58029 15.7444 5.78477 14.4986 5.07072C13.9762 4.77141 13.5628 4.30138 13.5003 3.69568L13.5406 3.47125C13.5923 3.28019 13.7004 3.11581 13.7995 2.94614C13.7957 3.23985 13.8479 3.41443 13.8587 3.69043C14.0311 3.86897 14.0729 3.90163 14.2815 4.03038C15.1111 4.46254 15.4738 4.76358 16.5214 4.58302C16.7375 4.54574 17.1128 4.41067 17.2937 4.40913C17.3416 4.17095 17.3815 4.07948 17.5516 3.91436C17.9636 3.51407 17.4337 3.00271 17.3834 2.32148L17.382 2.30044L17.3731 2.05741Z" fill="#6A3311"/>
<path d="M17.382 2.30044C17.7555 2.64747 18.2215 2.98642 18.2544 3.52788C18.2582 3.59346 18.2605 3.65914 18.2615 3.72488C17.8622 4.245 17.8264 4.13407 17.2937 4.40913C17.3416 4.17095 17.3815 4.07948 17.5516 3.91436C17.9636 3.51407 17.4337 3.00271 17.3834 2.32148L17.382 2.30044Z" fill="#763D15"/>
<path d="M12.6833 3.23169C12.8463 3.31494 12.9779 3.3828 13.1348 3.4815L13.2724 3.53748C13.3532 3.53278 13.4598 3.49521 13.5406 3.47125L13.5003 3.69568C13.4387 3.94668 13.4711 3.98172 13.1987 3.96415C13.2179 4.28227 13.3171 4.46333 13.4726 4.72453C13.3326 4.96726 13.1268 4.86381 12.9271 5.14511C12.8036 5.31949 12.8177 5.64993 12.6824 5.79313C12.0421 5.60083 11.3163 5.53742 10.667 5.72665C10.605 5.74472 10.5365 5.86767 10.4716 5.89603C10.2583 5.60924 10.3734 4.86351 10.6248 4.62499C10.4759 4.52025 10.481 4.42873 10.451 4.27054C10.5736 4.11907 10.6234 3.88198 10.6793 3.68657L10.7479 3.63662C10.8489 3.43096 11.0006 3.40795 11.2026 3.33806C11.6244 3.31197 11.8993 3.28297 12.3169 3.38721L12.3427 3.29603C12.4724 3.20615 12.5081 3.2356 12.6833 3.23169Z" fill="#975A37"/>
<path d="M10.7479 3.63662C10.9329 3.63984 11.0522 3.62707 11.2157 3.72394C11.4877 4.1267 10.7897 4.62444 10.6248 4.62499C10.4759 4.52025 10.481 4.42873 10.451 4.27054C10.5736 4.11907 10.6234 3.88198 10.6793 3.68657L10.7479 3.63662Z" fill="#D6A380"/>
<path d="M13.5406 3.47125L13.5003 3.69568C13.4387 3.94668 13.4711 3.98172 13.1987 3.96415C13.1268 3.86708 12.9849 3.75537 12.89 3.6738L13.1348 3.4815L13.2724 3.53748C13.3532 3.53278 13.4598 3.49521 13.5406 3.47125Z" fill="var(--fill-0, #1B0200)"/>
<path d="M12.6833 3.23169C12.8463 3.31494 12.9779 3.3828 13.1348 3.4815L12.89 3.6738C12.6955 3.55312 12.5231 3.47997 12.3169 3.38721L12.3427 3.29603C12.4724 3.20615 12.5081 3.2356 12.6833 3.23169Z" fill="#050000"/>
<path d="M4.61348 8.72249C4.8587 8.68017 5.35338 8.22287 5.53284 8.04284C5.46613 8.77075 5.44641 8.9126 5.5972 9.64497C4.71402 9.73822 3.98023 9.92844 3.3869 10.6908C2.94203 11.261 2.73673 11.9972 2.81753 12.7302C2.84008 12.9513 2.90446 13.1968 3.00358 13.3931L2.85279 13.3871C2.58032 13.1888 2.37738 12.5456 2.18007 12.1964L2.13403 12.292C2.08565 12.0779 2.1138 11.671 2.12836 11.4529C2.53519 10.0028 3.56353 9.45862 4.61348 8.72249Z" fill="#8F5125"/>
<path d="M16.8563 12.172C17.4492 12.166 17.7404 11.7795 18.0322 11.8585C18.1496 12.4032 18.5057 12.9823 19.0422 13.1485L19.0417 13.0847C19.1831 13.1331 19.1987 13.1426 19.3015 13.2556L19.2982 13.3607C19.0582 13.5774 19.03 13.4833 18.8365 13.7244C18.7674 13.7903 18.6518 13.9722 18.5917 14.0609C18.361 14.1032 18.034 13.5399 17.9011 13.4846C17.7033 13.4023 17.5084 13.3405 17.2932 13.2406L17.2988 13.1754C16.6613 12.863 15.1464 12.9374 14.7612 13.5795L14.7546 13.5519C14.6089 12.9736 14.888 12.8332 14.3182 12.5298L14.2604 12.434C15.3658 12.7813 15.85 12.5503 16.8563 12.172Z" fill="#50230B"/>
<path d="M19.0417 13.0847C19.1831 13.1331 19.1987 13.1426 19.3015 13.2556L19.2982 13.3607C19.0582 13.5774 19.03 13.4833 18.8365 13.7244C18.7674 13.7903 18.6518 13.9722 18.5917 14.0609C18.361 14.1032 18.034 13.5399 17.9011 13.4846C17.7033 13.4023 17.5084 13.3405 17.2932 13.2406L17.2988 13.1754C17.9095 13.3482 18.0961 13.5095 18.5057 14.0034C18.6551 13.7874 19.0906 13.4063 19.1366 13.2334L19.0422 13.1485L19.0417 13.0847Z" fill="var(--fill-0, #1B0200)"/>
<path d="M23.3561 4.559C23.5934 4.89167 23.677 5.17741 23.8193 5.56275C23.8424 5.86869 23.863 6.04421 23.8203 6.34678C23.2843 6.66297 22.9409 6.92313 22.4438 7.30911C22.0784 7.1577 20.5126 6.69515 20.3693 6.39094C20.3317 6.311 20.3214 6.21162 20.3087 6.12421C20.5177 6.21256 20.7254 6.01932 20.933 6.02858C21.9492 6.07372 23.3665 6.03447 23.3561 4.559Z" fill="#50230B"/>
<path d="M15.6115 16.8096C15.7031 16.7068 16.3993 16.3216 16.6393 16.0787C17.0509 15.6632 17.3604 15.1429 17.7344 14.749L17.7602 14.722L17.7935 14.8415C17.871 14.8303 17.8964 14.827 17.9706 14.8014C17.8898 15.6374 17.3092 16.1671 18.1666 17.0118L18.1186 17.096C17.7583 17.1885 14.6155 17.1809 14.165 17.1604C14.5446 16.2198 14.6404 16.5373 14.5155 15.3635C14.6663 15.6228 14.6644 15.8863 14.6747 16.184C14.8016 16.5762 15.2159 16.8525 15.6115 16.8096Z" fill="#50230B"/>
<path d="M10.4716 5.89603C10.5365 5.86767 10.605 5.74472 10.667 5.72665C11.3163 5.53742 12.0421 5.60083 12.6824 5.79313C12.8839 5.88875 13.4054 6.01472 13.4918 6.07392C13.458 6.10842 13.3589 6.21538 13.3274 6.23894C13.1663 6.23473 12.798 6.48534 12.6373 6.59042C12.1501 6.90854 11.1157 7.21557 10.723 7.59636C10.6816 7.63645 10.6445 7.6814 10.613 7.73035C10.6544 7.46598 10.7107 7.31586 10.5294 7.10208C10.4077 6.83806 10.3702 6.38639 10.3298 6.08273L10.4716 5.89603Z" fill="#5A2609"/>
<path d="M9.21873 6.94944C9.53583 7.4314 9.75567 7.69099 10.2015 8.02321L10.0826 8.17898C9.61709 8.32752 9.2765 8.6156 9.11067 9.11567C8.9951 9.70563 8.13354 10.2892 7.59423 10.3877C7.3227 10.283 7.04882 10.3775 6.76367 10.4379C6.01578 9.9841 5.46898 9.42827 5.77198 8.42902C5.78843 8.67151 5.7997 8.91434 5.80675 9.15733C6.11586 9.36714 6.38974 9.81312 6.8271 9.85474C8.05932 9.97205 8.79218 9.28389 9.09095 8.05695C9.1835 7.67686 9.17927 7.34072 9.21873 6.94944Z" fill="#6A3311"/>
<path d="M10.7065 3.16962C10.9132 3.17882 11.0753 3.14388 11.2026 3.33806C11.0006 3.40795 10.8489 3.43096 10.7479 3.63662L10.6793 3.68657C10.6234 3.88198 10.5736 4.11907 10.451 4.27054C10.481 4.42873 10.4759 4.52025 10.6248 4.62499C10.3734 4.86351 10.2583 5.60924 10.4716 5.89603L10.3298 6.08273C10.3702 6.38639 10.4077 6.83806 10.5294 7.10208C10.3626 7.27042 10.4237 7.25106 10.225 7.30526L10.0822 7.25477C9.93606 7.2376 9.80828 7.2126 9.66406 7.18429C9.56071 6.43529 9.54756 5.87191 9.77117 5.15296C9.60064 5.19177 9.66736 5.19669 9.50341 5.13046C9.6885 4.45269 9.94452 3.96128 10.3161 3.39176C10.4556 3.32692 10.575 3.2504 10.7065 3.16962Z" fill="#8F5125"/>
<path d="M10.7065 3.16962C10.9132 3.17882 11.0753 3.14388 11.2026 3.33806C11.0006 3.40795 10.8489 3.43096 10.7479 3.63662L10.6793 3.68657C10.3161 3.88931 9.90694 4.7504 9.77117 5.15296C9.60064 5.19177 9.66736 5.19669 9.50341 5.13046C9.6885 4.45269 9.94452 3.96128 10.3161 3.39176C10.4556 3.32692 10.575 3.2504 10.7065 3.16962Z" fill="#050000"/>
<path d="M10.0822 7.25477C9.79372 6.91834 9.89099 6.45747 9.98729 6.06297L10.0484 6.23107L10.1456 6.26552C10.2424 6.1983 10.2621 6.18707 10.3298 6.08273C10.3702 6.38639 10.4077 6.83806 10.5294 7.10208C10.3626 7.27042 10.4237 7.25106 10.225 7.30526L10.0822 7.25477Z" fill="#975A37"/>
<path d="M9.98729 6.06297C10.0892 5.59834 10.1437 4.71968 10.451 4.27054C10.481 4.42873 10.4759 4.52025 10.6248 4.62499C10.3734 4.86351 10.2583 5.60924 10.4716 5.89603L10.3298 6.08273C10.2621 6.18707 10.2424 6.1983 10.1456 6.26552L10.0484 6.23107L9.98729 6.06297Z" fill="#C08864"/>
<path d="M13.52 5.95711C13.6177 5.8399 13.9207 5.71443 14.0678 5.6974C14.2641 5.67473 14.3026 5.74754 14.4455 5.86549C14.4751 6.09491 14.4788 6.18762 14.6315 6.36359C14.6118 6.65473 14.6146 6.8052 14.6334 7.09694C14.3421 7.19737 13.9109 7.36264 13.6262 7.44065C13.4937 7.50871 13.2851 7.60756 13.1639 7.68269C13.0817 7.77194 13.0164 7.75516 12.8764 7.78C12.8365 7.51356 12.8534 7.12392 12.8567 6.84401L12.7853 6.7807C12.8694 6.67794 13.0136 6.68913 13.1282 6.67978L13.3274 6.23894C13.3589 6.21538 13.458 6.10842 13.4918 6.07392L13.52 5.95711Z" fill="#8F5125"/>
<path d="M13.52 5.95711C13.6934 5.91643 13.668 5.8928 13.8084 5.95106C13.838 6.17865 13.6468 6.31363 13.6079 6.51909C13.566 6.73931 13.8592 7.00189 13.6858 7.27195C13.6708 7.29566 13.6299 7.40194 13.6262 7.44065C13.4937 7.50871 13.2851 7.60756 13.1639 7.68269C13.0817 7.77194 13.0164 7.75516 12.8764 7.78C12.8365 7.51356 12.8534 7.12392 12.8567 6.84401L12.7853 6.7807C12.8694 6.67794 13.0136 6.68913 13.1282 6.67978L13.3274 6.23894C13.3589 6.21538 13.458 6.10842 13.4918 6.07392L13.52 5.95711Z" fill="#975A37"/>
<path d="M12.7853 6.7807C12.8694 6.67794 13.0136 6.68913 13.1282 6.67978C13.0892 6.95473 13.0145 7.38037 13.1108 7.64276L13.1639 7.68269C13.0817 7.77194 13.0164 7.75516 12.8764 7.78C12.8365 7.51356 12.8534 7.12392 12.8567 6.84401L12.7853 6.7807Z" fill="#3F1405"/>
<path d="M12.7853 6.7807L12.8567 6.84401C12.8534 7.12392 12.8365 7.51356 12.8764 7.78C12.8003 7.97572 12.3474 8.25849 12.0778 8.69125C11.6803 8.36709 11.5681 8.27185 11.057 8.23434C10.7591 8.15078 10.4016 8.18165 10.0826 8.17898L10.2015 8.02321C10.2334 8.01826 10.341 7.99927 10.3664 8.00175C11.2463 7.78817 12.0684 7.3518 12.7853 6.7807Z" fill="#50230B"/>
<path d="M9.11067 9.11567C9.22247 10.0958 9.72658 11.0154 8.23222 10.7459C7.8254 10.6726 7.8761 10.4562 7.59423 10.3877C8.13354 10.2892 8.9951 9.70563 9.11067 9.11567Z" fill="#50230B"/>
<path d="M21.8919 2.96C23.1687 3.30044 23.6202 4.25148 24.0566 5.44699C24.3512 5.60989 24.6387 5.7715 24.9421 5.91628C24.7951 6.02418 24.8604 5.99927 24.6655 5.99571C24.4254 5.91463 24.3258 5.86751 24.1003 5.74708C24.0952 5.72501 24.0689 5.69991 24.052 5.67907L23.973 5.81405L23.8997 5.81079L23.8193 5.56275C23.677 5.17741 23.5934 4.89167 23.3561 4.559C22.9944 3.92266 22.6228 3.56663 21.952 3.31795C21.8449 3.17198 21.8599 3.12398 21.8919 2.96Z" fill="#050000"/>
<path d="M13.4726 4.72453C13.5566 4.81847 13.7328 5.00333 13.8014 5.09654C14.0433 5.7845 14.3778 5.44531 14.4455 5.86549C14.3026 5.74754 14.2641 5.67473 14.0678 5.6974C13.9207 5.71443 13.6177 5.8399 13.52 5.95711L13.4918 6.07392C13.4054 6.01472 12.8839 5.88875 12.6824 5.79313C12.8177 5.64993 12.8036 5.31949 12.9271 5.14511C13.1268 4.86381 13.3326 4.96726 13.4726 4.72453Z" fill="#8F5125"/>
<path d="M16.8563 12.172C17.9626 11.3921 17.4013 10.2859 17.7738 9.96349L17.8495 10.0054C17.9101 10.1558 17.9847 11.5021 18.0322 11.8585C17.7404 11.7795 17.4492 12.166 16.8563 12.172Z" fill="#3F1405"/>
<path d="M24.0204 6.67517C24.8068 6.45698 25.8953 5.85618 26.5967 6.44001C26.5201 6.51534 26.4811 6.57132 26.3801 6.58959C26.0771 6.58137 25.5852 6.71313 25.4124 6.68873C25.2851 6.65334 24.8787 6.68769 24.7227 6.69606C24.4371 6.72278 24.3422 6.73313 24.1148 6.94097C24.0369 6.86247 24.0383 6.78971 24.0204 6.67517Z" fill="#8F5125"/>
<path d="M10.816 8.58701C11.1885 8.63587 11.616 8.65394 11.8546 8.97626C11.8908 9.11496 11.8748 9.15119 11.8415 9.28928C11.6367 9.35497 10.7892 8.85782 10.4185 8.79738C9.98353 8.68626 9.94454 8.91345 9.67771 8.97265C9.91589 8.63834 10.4026 8.65443 10.816 8.58701Z" fill="#975A37"/>
<path d="M6.95676 6.63929C7.56935 6.11407 7.92967 5.89025 8.71231 5.88639L8.71372 5.92549C8.32334 6.13962 7.74693 6.41799 7.39365 6.65429C7.23628 6.55633 7.13809 6.60801 6.95676 6.63929Z" fill="#602D0F"/>
<path d="M20.4201 3.01123C21.0933 2.89986 21.183 2.86892 21.8919 2.96C21.8599 3.12398 21.8449 3.17198 21.952 3.31795L21.2266 3.22712C20.9302 3.00166 20.646 3.44601 20.4201 3.01123Z" fill="var(--fill-0, #1B0200)"/>
<path d="M9.69318 8.65436C10.1987 8.54121 10.2954 8.52811 10.816 8.58701C10.4026 8.65443 9.91589 8.63834 9.67771 8.97265C9.65986 9.10976 9.62603 9.32364 9.63073 9.45565C9.62885 9.67462 9.6265 9.87618 9.63778 10.0955C9.52785 9.4599 9.07025 9.29372 9.69318 8.65436Z" fill="#763D15"/>
<path d="M17.6959 13.7196C18.0106 13.9041 18.0923 13.9727 18.3493 14.2485C18.1393 14.4432 18.0054 14.5795 17.7602 14.722C17.7278 14.4279 17.6663 14.0027 17.6959 13.7196Z" fill="#50230B"/>
<path d="M10.5294 7.10208C10.7107 7.31586 10.6544 7.46598 10.613 7.73035C10.1808 7.81875 9.91492 7.5283 9.66406 7.18429C9.80828 7.2126 9.93606 7.2376 10.0822 7.25477L10.225 7.30526C10.4237 7.25106 10.3626 7.27042 10.5294 7.10208Z" fill="#602D0F"/>
<path d="M13.8014 5.09654C14.5596 5.49499 14.8814 5.43625 14.6315 6.36359C14.4788 6.18762 14.4751 6.09491 14.4455 5.86549C14.3778 5.44531 14.0433 5.7845 13.8014 5.09654Z" fill="#763D15"/>
<path d="M19.3983 4.67255C19.5125 4.55237 19.6919 4.28528 19.7962 4.13852C19.8793 4.51713 20.0597 4.92167 20.0386 5.28914C19.7919 5.01037 19.6887 4.89454 19.3983 4.67255Z" fill="#602D0F"/>
<path d="M9.46913 12.8224C9.8022 12.7097 9.86656 12.9254 10.1813 13.0757C10.1085 13.1059 9.81767 13.3005 9.73452 13.354C9.64949 13.098 9.62979 13.0376 9.46913 12.8224Z" fill="#602D0F"/>
<path d="M24.6655 5.99571L24.6387 6.065C24.4305 6.17726 24.222 6.27997 24.059 6.06089C24.0496 5.90913 24.0501 5.88909 24.1003 5.74708C24.3258 5.86751 24.4254 5.91463 24.6655 5.99571Z" fill="#7E461D"/>
<path d="M15.2793 7.04114C15.6532 6.68609 16.1507 6.44801 16.4871 7.0006C16.761 7.62956 15.9816 7.84909 16.7262 8.88225C19.683 12.9857 12.6072 12.9632 12.1853 10.3816C12.004 9.18967 12.2389 8.79147 13.1615 8.10697C13.4129 7.92774 14.0395 7.68332 14.3364 7.53908C14.6672 7.37822 14.9561 7.22101 15.2793 7.04114Z" fill="#8F5125"/>
<path d="M16.4871 7.0006C16.761 7.62956 15.9816 7.84909 16.7262 8.88225C19.683 12.9857 12.6072 12.9632 12.1853 10.3816L12.3127 10.229C12.3559 10.1745 12.4902 10.0782 12.5452 10.1394C13.2569 10.9309 13.6938 11.019 14.6789 11.0463C15.8684 10.179 15.5649 9.40437 15.6157 7.98563C15.9727 7.37775 16.0488 7.40935 16.4871 7.0006Z" fill="#602D0F"/>
<path d="M15.2793 7.04114L15.5438 6.97162C15.2793 7.39037 14.7503 7.71651 14.3374 7.96607C14.3069 7.98458 14.3172 8.03057 14.3261 8.06249L14.2641 8.0713C13.6929 7.96607 13.4918 8.29454 13.2071 8.73843C13.2231 8.58905 13.2085 8.56935 13.1352 8.43976C13.1428 8.37378 13.2095 8.29444 13.2494 8.23692L13.1615 8.10697C13.4129 7.92774 14.0395 7.68332 14.3364 7.53908C14.6672 7.37822 14.9561 7.22101 15.2793 7.04114Z" fill="#975A37"/>
<path d="M13.2071 8.73843C13.4918 8.29454 13.6929 7.96607 14.2641 8.0713C14.2942 8.32958 14.3045 8.49068 14.1411 8.69985C13.9517 8.9419 13.6313 9.20765 13.3227 9.07054C13.2344 8.95803 13.1926 8.91118 13.2071 8.73843Z" fill="#D6A380"/>
<path d="M13.1615 8.10697L13.2494 8.23692C13.2095 8.29444 13.1428 8.37378 13.1352 8.43976C12.7303 8.86009 12.401 9.64478 12.3127 10.229L12.1853 10.3816C12.004 9.18967 12.2389 8.79147 13.1615 8.10697Z" fill="#B67939"/>
<path d="M15.5438 6.97162L15.6007 6.92855C15.7801 7.44218 14.7494 8.00107 14.3261 8.06249C14.3172 8.03057 14.3069 7.98458 14.3374 7.96607C14.7503 7.71651 15.2793 7.39037 15.5438 6.97162Z" fill="#D6A380"/>
<path d="M12.2337 12.2192C12.4949 12.1172 12.657 12.0508 12.8614 12.301C12.9295 12.6958 12.9929 12.8018 12.7942 13.1285C12.7514 14.3869 15.3563 15.3453 13.8258 17.1002C12.4198 17.0659 10.3316 16.945 9.18113 16.0627C9.00826 15.606 8.88424 15.1681 9.07684 14.6865C9.09658 14.6367 9.11866 14.5878 9.14214 14.5399C9.30798 14.2432 9.42166 14.1399 9.66642 13.9267C9.80312 13.6858 11.0819 12.938 11.3811 12.7719C11.7067 12.4577 11.8171 12.367 12.2337 12.2192Z" fill="#8F5125"/>
<path d="M12.7406 15.7533C13.1188 14.6537 12.6434 14.38 12.7942 13.1285C12.7514 14.3869 15.3563 15.3453 13.8258 17.1002C12.4198 17.0659 10.3316 16.945 9.18113 16.0627C9.00826 15.606 8.88424 15.1681 9.07684 14.6865C9.09658 14.6367 9.11866 14.5878 9.14214 14.5399C9.16563 14.7726 9.15952 15.0705 9.29905 15.2334C10.0291 15.6651 10.4523 15.8887 11.2604 16.1025C11.9176 16.2845 12.2366 16.2441 12.7406 15.7533Z" fill="#602D0F"/>
<path d="M12.2337 12.2192C12.4949 12.1172 12.657 12.0508 12.8614 12.301C12.9295 12.6958 12.9929 12.8018 12.7942 13.1285C12.6434 14.38 13.1188 14.6537 12.7406 15.7533C12.2366 16.2441 11.9176 16.2845 11.2604 16.1025C11.8495 15.4762 11.795 14.836 11.9073 14.0391C11.9609 13.6587 12.0675 13.3036 12.0966 12.9058L12.4255 12.6425C12.503 12.539 12.495 12.4837 12.5002 12.3552L12.4217 12.2452L12.2337 12.2192Z" fill="#7E461D"/>
<path d="M12.2337 12.2192C12.4949 12.1172 12.657 12.0508 12.8614 12.301C12.829 12.4553 12.8233 12.5746 12.704 12.6661C12.571 12.6874 12.5537 12.6885 12.4255 12.6425C12.503 12.539 12.495 12.4837 12.5002 12.3552L12.4217 12.2452L12.2337 12.2192Z" fill="#8F5125"/>
<path d="M9.82377 14.4959C9.83834 14.4332 9.85619 14.3713 9.87639 14.3104C10.0319 13.8507 10.5538 13.6528 10.9531 13.4535C11.4713 14.1478 10.1507 15.264 9.78666 14.7388C9.7937 14.6451 9.79324 14.5854 9.82377 14.4959Z" fill="#D6A380"/>
<path d="M11.3811 12.7719C11.2923 13.1881 11.0504 13.0677 11.1467 13.3199L11.0006 13.3559L10.9531 13.4535C10.5538 13.6528 10.0319 13.8507 9.87639 14.3104C9.85619 14.3713 9.83834 14.4332 9.82377 14.4959L9.82614 14.3005L9.74816 14.2277L9.81769 14.2611L9.78527 14.1759C9.68803 14.3119 9.6279 14.4278 9.46254 14.4674C9.59267 14.2451 9.62883 14.1897 9.66642 13.9267C9.80312 13.6858 11.0819 12.938 11.3811 12.7719Z" fill="#975A37"/>
<path d="M11.701 13.082L11.6216 12.9974C11.6686 12.6223 12.2056 12.4326 12.5002 12.3552C12.495 12.4837 12.503 12.539 12.4255 12.6425L12.0966 12.9058L11.701 13.082Z" fill="#C08864"/>
<path d="M9.14214 14.5399C9.30798 14.2432 9.42166 14.1399 9.66642 13.9267C9.62883 14.1897 9.59267 14.2451 9.46254 14.4674C9.29295 14.7081 9.31032 14.9361 9.29905 15.2334C9.15952 15.0705 9.16563 14.7726 9.14214 14.5399Z" fill="#7E461D"/>
<path d="M6.86326 10.8111C7.21419 10.7257 7.39505 10.6525 7.7051 10.8373L7.69242 11.4962L7.70557 11.5313C7.97945 12.2552 9.4071 13.2916 9.19007 13.7744C8.90115 14.4179 8.71841 14.3777 8.52674 15.2647C8.42151 15.3616 8.31628 15.4618 8.20354 15.5482C7.10802 15.7105 5.52205 15.6105 4.6835 14.759C4.59847 14.4489 4.56841 14.348 4.55807 14.0279C4.5623 13.0439 5.34072 12.7751 5.91807 12.1163C6.18632 11.8106 6.23376 11.6739 6.45174 11.3471C6.51093 11.2127 6.75803 10.9366 6.86326 10.8111Z" fill="#7E461D"/>
<path d="M7.69242 11.4962L7.70557 11.5313C7.97945 12.2552 9.4071 13.2916 9.19007 13.7744C8.90115 14.4179 8.71841 14.3777 8.52674 15.2647C8.42151 15.3616 8.31628 15.4618 8.20354 15.5482C7.10802 15.7105 5.52205 15.6105 4.6835 14.759C4.59847 14.4489 4.56841 14.348 4.55807 14.0279C5.80251 14.7335 7.02487 15.2348 8.26179 14.1895C9.04772 13.5253 7.59564 12.6765 7.69242 11.4962Z" fill="#602D0F"/>
<path d="M6.05855 13.5744C5.9195 13.6863 5.76354 13.7735 5.5977 13.8327C5.47509 13.8758 5.391 13.8849 5.2759 13.8219C4.96867 13.2962 5.76682 12.7633 6.10083 12.5532L6.27371 12.7371C6.25163 13.1246 6.20653 13.233 6.05855 13.5744Z" fill="#D6A380"/>
<path d="M6.86326 10.8111C7.21419 10.7257 7.39505 10.6525 7.7051 10.8373C7.62806 11.07 7.67692 11.0188 7.51579 11.1551C7.36029 11.1999 7.25412 11.1777 7.09487 11.1379C6.97367 11.0664 7.02205 11.0814 6.86468 11.115C6.72516 11.2349 6.55745 11.4192 6.4898 11.5979L6.45174 11.3471C6.51093 11.2127 6.75803 10.9366 6.86326 10.8111Z" fill="#8F5125"/>
<path d="M6.4898 11.5979C6.55745 11.4192 6.72516 11.2349 6.86468 11.115C7.02205 11.0814 6.97367 11.0664 7.09487 11.1379C6.84495 11.5376 6.32962 12.2816 6.27371 12.7371L6.10083 12.5532C6.31646 12.3057 6.45879 11.9331 6.4898 11.5979Z" fill="#C08864"/>
<path d="M14.9744 5.87283L14.9096 5.54848C14.9927 5.51368 14.9664 5.51096 15.0524 5.52417C16.3142 5.71845 17.3406 5.88951 18.4972 5.15913C18.6819 5.04266 18.8914 4.77345 19.0539 4.76028C19.2644 4.87437 19.4288 5.10647 19.5876 5.29891C20.2575 6.21971 20.102 6.63044 20.0419 7.7231C18.1158 7.79279 18.5879 8.67681 17.6934 9.84782C17.4665 9.59588 16.7187 8.43442 16.7219 8.06473C16.7243 7.79403 16.9235 7.358 16.8713 6.99123C16.5669 6.457 16.4589 6.46373 15.8792 6.3976C15.4235 6.50368 15.4094 6.6442 15.0843 6.75557C15.034 6.77641 14.7799 6.9989 14.7207 7.04894C14.7681 6.60881 14.8381 6.28935 14.9744 5.87283Z" fill="#602D0F"/>
<path d="M19.5876 5.29891C20.2575 6.21971 20.102 6.63044 20.0419 7.7231C18.1158 7.79279 18.5879 8.67681 17.6934 9.84782C17.4665 9.59588 16.7187 8.43442 16.7219 8.06473C16.7243 7.79403 16.9235 7.358 16.8713 6.99123L16.9179 7.05399C17.0922 7.49279 17.6348 7.92945 18.0985 7.63672C18.6006 7.31969 19.171 7.05523 19.6342 6.67751C19.699 6.08369 19.6233 5.87902 19.5876 5.29891Z" fill="#50230B"/>
<path d="M16.3819 6.30514C16.8893 6.4362 18.6913 5.47892 18.9384 5.63321C19.0718 5.98637 18.8576 6.20921 18.6288 6.44289C18.1666 6.91583 17.554 7.10893 16.9179 7.05399L16.8713 6.99123C16.5669 6.457 16.4589 6.46373 15.8792 6.3976C15.9421 6.30222 16.1644 6.3674 16.3819 6.30514Z" fill="#763D15"/>
<path d="M14.9744 5.87283C15.0016 5.81715 15.0204 5.80361 15.0608 5.75758L15.1623 5.79614C15.6945 6.00536 15.8872 5.97306 16.3819 6.30514C16.1644 6.3674 15.9421 6.30222 15.8792 6.3976C15.4235 6.50368 15.4094 6.6442 15.0843 6.75557C15.034 6.77641 14.7799 6.9989 14.7207 7.04894C14.7681 6.60881 14.8381 6.28935 14.9744 5.87283Z" fill="#7E461D"/>
<path d="M14.9744 5.87283C15.0016 5.81715 15.0204 5.80361 15.0608 5.75758L15.1623 5.79614C15.0232 5.94092 15.0777 6.52838 15.0843 6.75557C15.034 6.77641 14.7799 6.9989 14.7207 7.04894C14.7681 6.60881 14.8381 6.28935 14.9744 5.87283Z" fill="#763D15"/>
<path d="M5.20729 10.0365C5.79592 9.9573 6.01765 10.4314 6.52924 10.657C6.20885 11.0746 5.95094 11.5659 5.61176 11.9603C4.93059 12.752 4.48524 12.6727 4.13197 13.8474C4.11365 13.9362 4.08781 14.02 4.05963 14.1057L3.98023 14.1356C3.94312 14.1197 3.90882 14.1025 3.875 14.0795C3.54663 13.8546 3.15672 13.0616 3.08531 12.6616C2.98854 12.1214 3.15718 11.596 3.44985 11.1539C3.88158 10.5017 4.47443 10.1724 5.20729 10.0365Z" fill="#7E461D"/>
<path d="M3.63119 11.449C3.77212 11.1282 3.87359 10.8558 4.17988 10.6782C4.3786 10.6611 4.30438 10.6485 4.48571 10.7484C4.52423 11.0252 3.86607 11.545 3.6791 11.9105C3.58186 11.7184 3.61898 11.6876 3.63119 11.449Z" fill="#D6A380"/>
<path d="M3.6791 11.9105C3.56636 12.1154 3.56447 12.3448 3.39582 12.6344L3.35495 12.6168C3.3122 12.2705 3.46113 11.7335 3.63119 11.449C3.61898 11.6876 3.58186 11.7184 3.6791 11.9105Z" fill="#B67939"/>
<path d="M20.4318 6.86519C20.7503 6.82633 21.9247 7.45277 22.2846 7.60587C22.1845 7.78099 22.0957 7.96408 22.0041 8.14396C21.4935 7.93488 20.9039 7.94255 20.4088 7.68863C20.4468 7.37467 20.5009 7.18029 20.4318 6.86519Z" fill="#50230B"/>
<path d="M7.93763 10.8986C8.33506 10.9863 8.74235 10.972 9.14589 10.9749C9.04818 11.4443 8.9655 11.9023 8.95234 12.384L8.95422 12.4458L8.91571 12.4564L8.95328 12.4047L8.87671 12.4293C8.38016 11.9741 8.04051 11.6061 7.93763 10.8986Z" fill="#50230B"/>
<path d="M8.52861 15.6237C8.56479 15.6339 8.76961 16.0453 8.85605 16.134C9.01671 16.2987 9.3028 16.2718 9.41273 16.4113C9.12523 16.4902 8.71229 16.1255 8.46049 15.9999C8.13729 15.8388 7.76898 15.8712 7.43685 15.9958L7.44953 16.0409C7.95172 16.1001 8.41445 16.2437 8.9002 16.3862C9.1816 16.5754 9.57997 16.6191 9.9013 16.7127C9.83318 16.7393 9.77634 16.7381 9.7054 16.735C9.28307 16.7164 9.07214 16.523 8.69115 16.4092C8.35667 16.3093 7.51578 16.2601 7.29545 16.0067L7.32739 15.8388C7.35417 15.8444 7.38095 15.8489 7.40772 15.8523C7.82066 15.9072 8.19601 15.8985 8.52861 15.6237Z" fill="#3F1405"/>
<path d="M10.7065 3.16962C11.2923 2.83937 12.097 2.95485 12.6833 3.23169C12.5081 3.2356 12.4724 3.20615 12.3427 3.29603L12.3169 3.38721C11.8993 3.28297 11.6244 3.31197 11.2026 3.33806C11.0753 3.14388 10.9132 3.17882 10.7065 3.16962Z" fill="var(--fill-0, #1B0200)"/>
</g>
</svg>
