<svg preserveAspectRatio="none" width="100%" height="100%" overflow="visible" style="display: block;" viewBox="0 0 18.0447 36" fill="none" xmlns="http://www.w3.org/2000/svg">
<g id="Vector">
<path d="M3.39347 4.39911C3.60067 3.70437 3.27089 2.69375 3.48878 1.79146C3.58419 1.39651 3.78235 1.11908 4.11252 0.913367C6.12002 -0.337506 10.6805 -0.125399 12.8555 0.492946C14.5181 0.965611 14.5389 1.885 14.4418 3.48687C14.424 3.78008 14.3732 4.00015 14.5217 4.26892L14.5319 4.28696C14.5475 4.40859 14.6031 4.82729 14.5772 4.91769C14.3363 5.69633 13.8368 5.91429 14.0913 6.85023C14.4362 8.11896 15.3736 9.14329 16.0255 10.2573C17.1625 12.2006 17.8331 14.0058 17.9483 16.3076C18.0911 19.1613 18.0255 22.0132 18.0277 24.8742L18.0381 28.4563C18.0418 29.8784 18.1552 32.2609 17.2745 33.4221C16.1193 34.9451 13.7688 35.586 12.0059 35.8255C8.80069 36.2099 4.03718 36.1045 1.34845 33.9934C0.585168 33.394 0.16377 32.6611 0.0861975 31.6801C0.0125621 30.7489 0.0179579 29.9122 0.0214574 28.9805C0.028262 27.863 0.0262203 26.7455 0.0153329 25.628L0.00818796 19.8911C0.0017722 17.2595 -0.124987 14.7957 0.899832 12.3452C1.33246 11.3107 1.79254 10.3952 2.39592 9.44989C3.17567 8.16261 3.93011 7.57239 4.08273 5.94681C3.87271 5.7018 3.53919 5.34283 3.40878 5.05731L3.39658 5.03118C3.32542 4.8744 3.33257 4.55841 3.39347 4.39911Z" fill="#3B647D"/>
<path d="M13.3743 4.73148C13.7179 4.56898 13.7999 4.49265 14.0739 4.19228C14.0875 4.42632 14.1434 4.90934 14.0415 5.09426L14.0147 5.09251C13.8135 5.33371 13.6686 5.36391 13.5218 5.51337L13.527 5.76209C13.524 6.20229 13.4904 6.91439 13.6239 7.31449C13.8801 8.08241 14.4838 8.95811 14.9419 9.60636C16.7585 12.1457 17.4779 14.6355 17.4774 17.8064C17.477 20.5033 17.5227 23.3163 17.4338 26.0177C17.3851 27.5027 17.7302 31.7267 16.9111 32.786C15.9811 34.191 13.9933 34.9091 12.4506 35.1956C11.6657 35.3414 10.6253 35.5514 9.83405 35.5034C7.43655 35.6759 4.04325 35.2084 2.01349 33.7426C1.12807 33.1031 0.687082 32.305 0.48795 31.1994C0.391228 30.9842 0.400512 31.0188 0.199193 30.9163C0.129932 30.0694 0.228744 28.0117 0.333535 27.1669L0.343304 27.2327C0.425737 26.3595 0.328286 25.4494 0.408045 24.6215C0.430403 24.4083 0.409843 24.1809 0.414218 23.9637C0.500928 19.5302 -0.211464 14.754 2.23843 10.849C3.15807 9.38315 4.59889 7.83663 4.51685 6.01984C4.47976 5.90326 4.48579 5.66438 4.48321 5.53136C4.19626 5.29144 3.86502 5.0824 3.81437 4.7005C3.84888 4.53218 3.87649 4.48069 3.95066 4.32582C6.32332 5.77142 9.59147 5.63449 12.225 5.14729C12.5658 5.08426 13.0202 4.81152 13.3743 4.73148Z" fill="#EDE3CD"/>
<path d="M5.79158 11.4594L5.80319 11.4906L5.85802 11.5039L5.85321 11.6173C6.17871 11.936 7.54488 11.4558 7.93074 11.4806C8.26266 11.5024 9.12976 11.5189 9.45298 11.4865C11.1683 11.5379 14.1902 11.9716 15.6423 13.1855C15.7233 13.2531 15.8726 13.5057 15.9342 13.6115C16.0308 14.0517 16.3403 15.5963 16.5695 15.8642L16.4835 15.9005C15.5558 16.6287 14.0735 17.1184 12.925 17.2969C11.1852 17.512 9.55403 17.6774 7.8017 17.5432C7.4047 17.5128 6.89348 17.4266 6.51204 17.4202C5.92898 17.3546 5.34777 17.2721 4.76899 17.1725C4.015 17.0135 3.2713 16.804 2.54229 16.5453C2.5976 16.4476 2.81851 14.8108 2.90789 14.4853C2.56654 14.2851 2.33524 14.1358 2.07005 13.8327L2.04045 13.7566L2.04351 13.7194C2.0352 13.4689 2.07987 13.267 2.12249 13.022L2.16332 12.8653L2.39016 12.7491L2.53422 12.9617C2.84062 12.6748 3.35126 12.3186 3.76872 12.2745C3.82218 12.1306 3.88367 12.0446 3.96503 11.9175L4.0149 11.7528C4.12027 11.8466 4.07653 11.8308 4.19323 11.852C4.4503 11.5692 5.37679 11.7717 5.79158 11.4594Z" fill="#F8EFDB"/>
<path d="M9.45298 11.4865C11.1683 11.5379 14.1902 11.9716 15.6423 13.1855C15.7233 13.2531 15.8726 13.5057 15.9342 13.6115C16.0308 14.0517 16.3403 15.5963 16.5695 15.8642L16.4835 15.9005C15.5558 16.6287 14.0735 17.1184 12.925 17.2969C12.6797 17.2285 12.4472 15.4877 12.395 15.1687L12.3545 15.1379C12.2643 15.0682 12.2543 15.0685 12.135 15.08C10.3179 15.2564 8.68865 15.2615 6.86079 15.1098C6.92903 14.4821 7.33307 13.4088 7.52744 12.7679C7.6544 12.3493 7.89526 11.9483 7.93074 11.4806C8.26266 11.5024 9.12976 11.5189 9.45298 11.4865Z" fill="#93B8CC"/>
<path d="M15.9342 13.6115C16.0308 14.0517 16.3403 15.5963 16.5695 15.8642L16.4835 15.9005C15.5558 16.6287 14.0735 17.1184 12.925 17.2969C12.6797 17.2285 12.4472 15.4877 12.395 15.1687C13.558 14.982 15.1015 14.5437 15.9342 13.6115Z" fill="#588CAD"/>
<path d="M12.3545 15.1379L12.395 15.1687C12.4472 15.4877 12.6797 17.2285 12.925 17.2969C11.1852 17.512 9.55403 17.6774 7.8017 17.5432C7.4047 17.5128 6.89348 17.4266 6.51204 17.4202C6.51257 16.9611 6.69974 15.972 6.82645 15.5236C6.95335 15.4415 7.0597 15.4648 7.22272 15.4578C8.53503 15.564 11.1159 15.6313 12.3545 15.1379Z" fill="#93B8CC"/>
<path d="M5.85802 11.5039L5.85321 11.6173C6.17871 11.936 7.54488 11.4558 7.93074 11.4806C7.89526 11.9483 7.6544 12.3493 7.52744 12.7679C7.33307 13.4088 6.92903 14.4821 6.86079 15.1098C6.18961 15.072 5.54486 14.9078 4.89337 14.7465C5.10042 14.3783 5.50467 12.1556 5.80319 11.4906L5.85802 11.5039Z" fill="#ABC8DA"/>
<path d="M5.79158 11.4594L5.80319 11.4906C5.50467 12.1556 5.10042 14.3783 4.89337 14.7465C4.76622 14.6493 3.7843 14.4472 3.37336 14.2253C3.60204 13.5885 3.74255 13.0009 3.93279 12.3564C3.98985 12.1631 4.13014 12.1273 4.19323 11.852C4.4503 11.5692 5.37679 11.7717 5.79158 11.4594Z" fill="#D9E4EB"/>
<path d="M2.90789 14.4853C3.14299 14.5925 3.45822 14.7472 3.69366 14.831C4.05522 14.9075 4.52731 15.1234 4.85564 15.118C4.83658 15.5517 4.8237 16.2383 4.77262 16.6485C4.775 16.8221 4.78071 16.9997 4.76899 17.1725C4.015 17.0135 3.2713 16.804 2.54229 16.5453C2.5976 16.4476 2.81851 14.8108 2.90789 14.4853Z" fill="var(--fill-0, #C0D5DF)"/>
<path d="M3.69366 14.831C4.05522 14.9075 4.52731 15.1234 4.85564 15.118C4.83658 15.5517 4.8237 16.2383 4.77262 16.6485C4.25202 16.5026 4.28251 15.7829 4.1175 15.3413C3.98301 14.9815 4.02105 14.9974 3.69366 14.831Z" fill="#D9E4EB"/>
<path d="M4.85564 15.118C5.54027 15.2084 6.21766 15.3619 6.90968 15.4111C7.01127 15.4183 7.12512 15.4293 7.22272 15.4578C7.0597 15.4648 6.95335 15.4415 6.82645 15.5236C6.69974 15.972 6.51257 16.9611 6.51204 17.4202C5.92898 17.3546 5.34777 17.2721 4.76899 17.1725C4.78071 16.9997 4.775 16.8221 4.77262 16.6485C4.8237 16.2383 4.83658 15.5517 4.85564 15.118Z" fill="#ABC8DA"/>
<path d="M3.76872 12.2745C3.72298 12.457 3.53216 12.8283 3.4438 13.0325C3.27067 13.4326 3.22192 13.6451 3.12802 14.0699C2.78993 13.972 2.50764 13.8808 2.1763 13.76L2.07005 13.8327L2.04045 13.7566L2.04351 13.7194C2.0352 13.4689 2.07987 13.267 2.12249 13.022L2.16332 12.8653L2.39016 12.7491L2.53422 12.9617C2.84062 12.6748 3.35126 12.3186 3.76872 12.2745Z" fill="var(--fill-0, #C0D5DF)"/>
<path d="M2.39016 12.7491L2.53422 12.9617C2.29742 13.2193 2.21134 13.4046 2.04351 13.7194C2.0352 13.4689 2.07987 13.267 2.12249 13.022L2.16332 12.8653L2.39016 12.7491Z" fill="#93B8CC"/>
<path d="M13.3743 4.73148C13.7179 4.56898 13.7999 4.49265 14.0739 4.19228C14.0875 4.42632 14.1434 4.90934 14.0415 5.09426L14.0147 5.09251C13.8135 5.33371 13.6686 5.36391 13.5218 5.51337L13.527 5.76209C13.4523 5.82363 13.0167 6.15497 12.9777 6.20301C12.787 6.27563 12.6056 6.34515 12.4114 6.40756C12.5349 6.55507 12.554 6.81477 12.6016 7.03484C12.7816 8.14735 13.7327 9.36005 14.3525 10.2512C14.4009 10.3208 14.6092 10.6369 14.6536 10.6796C14.9532 11.1883 15.5834 12.1848 15.7268 12.7095L15.6999 12.8142C15.7614 12.9015 15.7414 12.8706 15.8156 12.9085C15.9824 12.994 16.1427 13.2918 16.2256 13.4582C16.3599 13.8974 16.5145 14.3628 16.5979 14.8136C16.6833 14.9461 16.715 15.3731 16.7221 15.5411C16.7132 15.9242 16.7826 16.2866 16.6358 16.6128C16.6081 16.408 16.6047 16.0174 16.4835 15.9005L16.5695 15.8642C16.3403 15.5963 16.0308 14.0517 15.9342 13.6115C15.8726 13.5057 15.7233 13.2531 15.6423 13.1855C14.1902 11.9716 11.1683 11.5379 9.45298 11.4865C9.12976 11.5189 8.26266 11.5024 7.93074 11.4806C7.54488 11.4558 6.17871 11.936 5.85321 11.6173L5.85802 11.5039L5.80319 11.4906L5.79158 11.4594C5.37679 11.7717 4.4503 11.5692 4.19323 11.852C4.07653 11.8308 4.12027 11.8466 4.0149 11.7528L3.96503 11.9175C3.88367 12.0446 3.82218 12.1306 3.76872 12.2745C3.35126 12.3186 2.84062 12.6748 2.53422 12.9617L2.39016 12.7491L2.16332 12.8653C2.59143 11.5008 3.89008 9.93131 4.58299 8.66274C4.97177 7.95089 5.09518 7.29393 5.42875 6.59542C5.53485 6.46962 5.55585 6.44246 5.69077 6.35515C5.21377 6.23707 4.67504 5.86698 4.56145 5.85502L4.51685 6.01984C4.47976 5.90326 4.48579 5.66438 4.48321 5.53136C4.19626 5.29144 3.86502 5.0824 3.81437 4.7005C3.84888 4.53218 3.87649 4.48069 3.95066 4.32582C6.32332 5.77142 9.59147 5.63449 12.225 5.14729C12.5658 5.08426 13.0202 4.81152 13.3743 4.73148Z" fill="#ECE8DD"/>
<path d="M13.3743 4.73148C13.7179 4.56898 13.7999 4.49265 14.0739 4.19228C14.0875 4.42632 14.1434 4.90934 14.0415 5.09426L14.0147 5.09251C13.8135 5.33371 13.6686 5.36391 13.5218 5.51337L13.527 5.76209C13.4523 5.82363 13.0167 6.15497 12.9777 6.20301C12.787 6.27563 12.6056 6.34515 12.4114 6.40756C9.83321 7.1642 8.20453 7.00072 5.69077 6.35515C5.21377 6.23707 4.67504 5.86698 4.56145 5.85502L4.51685 6.01984C4.47976 5.90326 4.48579 5.66438 4.48321 5.53136C4.19626 5.29144 3.86502 5.0824 3.81437 4.7005C3.84888 4.53218 3.87649 4.48069 3.95066 4.32582C6.32332 5.77142 9.59147 5.63449 12.225 5.14729C12.5658 5.08426 13.0202 4.81152 13.3743 4.73148Z" fill="#C4C9C9"/>
<path d="M13.399 5.5362L13.5218 5.51337L13.527 5.76209C13.4523 5.82363 13.0167 6.15497 12.9777 6.20301C12.787 6.27563 12.6056 6.34515 12.4114 6.40756C9.83321 7.1642 8.20453 7.00072 5.69077 6.35515C5.21377 6.23707 4.67504 5.86698 4.56145 5.85502L4.51685 6.01984C4.47976 5.90326 4.48579 5.66438 4.48321 5.53136C4.93839 5.76864 5.30364 5.88795 5.79829 6.01355C6.09691 6.0875 6.87487 6.29428 7.15104 6.28985C8.14417 6.58161 10.8328 6.28443 11.843 5.99644C12.3211 5.86012 12.9332 5.62675 13.399 5.5362Z" fill="#788B8D"/>
<path d="M3.81437 4.7005C3.95178 4.56279 3.9132 4.55656 4.06406 4.54718C4.39015 4.81256 4.58515 5.13282 4.94949 5.33706L4.97947 5.35428C5.20247 5.48003 5.72098 5.59836 5.97343 5.61264C5.92137 5.73505 5.85685 5.89913 5.79829 6.01355C5.30364 5.88795 4.93839 5.76864 4.48321 5.53136C4.19626 5.29144 3.86502 5.0824 3.81437 4.7005Z" fill="#F8EFDB"/>
<path d="M5.97343 5.61264C6.20892 5.63217 7.83949 5.84424 7.94025 5.93577L7.49708 5.88707L7.43447 5.94345C7.45406 6.09312 7.50019 6.12069 7.60566 6.22289L7.72479 6.25588C7.80523 6.19192 7.78063 6.22604 7.80435 6.10121L7.85845 6.1645L7.83682 6.25603C7.65475 6.35035 7.38667 6.26588 7.15104 6.28985C6.87487 6.29428 6.09691 6.0875 5.79829 6.01355C5.85685 5.89913 5.92137 5.73505 5.97343 5.61264Z" fill="#F8EFDB"/>
<path d="M13.3743 4.73148C13.7179 4.56898 13.7999 4.49265 14.0739 4.19228C14.0875 4.42632 14.1434 4.90934 14.0415 5.09426L14.0147 5.09251C13.8135 5.33371 13.6686 5.36391 13.5218 5.51337L13.399 5.5362L13.1886 5.44632L13.4258 5.28005C13.4983 5.22867 13.4784 5.23455 13.5191 5.13286C13.5875 4.96603 13.7689 4.84368 13.7854 4.6752L13.3946 4.79837L13.3743 4.73148Z" fill="#B4B6B0"/>
<path d="M13.5191 5.13286C13.6994 5.04262 13.8039 4.95032 13.9807 4.97114L14.0147 5.09251C13.8135 5.33371 13.6686 5.36391 13.5218 5.51337L13.399 5.5362L13.1886 5.44632L13.4258 5.28005C13.4983 5.22867 13.4784 5.23455 13.5191 5.13286Z" fill="#DBD3C8"/>
<path d="M11.9413 5.50726C12.2799 5.37671 12.9365 5.07903 13.2918 5.11124C13.3266 5.11438 13.3959 5.23625 13.4258 5.28005L13.1886 5.44632C12.7513 5.52136 12.3834 5.50814 11.9413 5.50726Z" fill="#949996"/>
<path d="M8.77218 11.2885C10.4571 11.2482 12.9314 11.4797 14.5145 12.0991C14.9376 12.2647 15.3327 12.5397 15.6999 12.8142C15.7614 12.9015 15.7414 12.8706 15.8156 12.9085C15.9824 12.994 16.1427 13.2918 16.2256 13.4582C16.3599 13.8974 16.5145 14.3628 16.5979 14.8136C16.6833 14.9461 16.715 15.3731 16.7221 15.5411C16.7132 15.9242 16.7826 16.2866 16.6358 16.6128C16.6081 16.408 16.6047 16.0174 16.4835 15.9005L16.5695 15.8642C16.3403 15.5963 16.0308 14.0517 15.9342 13.6115C15.8726 13.5057 15.7233 13.2531 15.6423 13.1855C14.1902 11.9716 11.1683 11.5379 9.45298 11.4865C9.08874 11.4313 8.43258 11.4252 8.03981 11.4115C8.22037 11.3641 8.53178 11.344 8.77218 11.2885Z" fill="#6892A9"/>
<path d="M16.5979 14.8136C16.6833 14.9461 16.715 15.3731 16.7221 15.5411C16.7132 15.9242 16.7826 16.2866 16.6358 16.6128C16.6081 16.408 16.6047 16.0174 16.4835 15.9005L16.5695 15.8642C16.7665 15.603 16.573 15.2058 16.5979 14.8136Z" fill="#99A8AD"/>
<path d="M4.0149 11.7528C4.39387 11.0114 4.87822 9.88936 5.53662 9.42608C5.6398 9.35347 6.00808 9.23287 6.14188 9.18875C6.15783 10.1237 6.05005 10.5731 5.79158 11.4594C5.37679 11.7717 4.4503 11.5692 4.19323 11.852C4.07653 11.8308 4.12027 11.8466 4.0149 11.7528Z" fill="#F8EFDB"/>
<path d="M5.85802 11.5039C6.60677 11.4228 8.08409 11.264 8.77218 11.2885C8.53178 11.344 8.22037 11.3641 8.03981 11.4115C8.43258 11.4252 9.08874 11.4313 9.45298 11.4865C9.12976 11.5189 8.26266 11.5024 7.93074 11.4806C7.54488 11.4558 6.17871 11.936 5.85321 11.6173L5.85802 11.5039Z" fill="#93B8CC"/>
<path d="M2.39016 12.7491C2.4687 12.5591 3.74335 11.8648 3.96503 11.9175C3.88367 12.0446 3.82218 12.1306 3.76872 12.2745C3.35126 12.3186 2.84062 12.6748 2.53422 12.9617L2.39016 12.7491Z" fill="#93B8CC"/>
<path d="M5.91478 6.81981C6.18895 6.89511 6.37409 7.11049 6.6263 7.18073C6.67019 7.193 6.79344 7.09229 6.83733 7.06389L6.89974 7.10281C6.88905 7.57464 6.66873 8.42817 6.42085 8.81744C6.1699 8.98567 5.86384 8.78147 5.58811 8.86769C5.57625 8.8714 5.56444 8.87553 5.55258 8.87944C5.5155 8.53295 5.83371 7.25675 5.91478 6.81981Z" fill="#F8EFDB"/>
<path d="M6.73346 9.45535C6.95087 9.59167 7.11151 9.90549 7.25265 10.121C7.13552 10.3839 7.01532 10.5769 6.786 10.7433C6.66658 10.7787 6.57278 10.8015 6.4482 10.7904C6.38876 10.7363 6.35756 10.7195 6.3388 10.6368C6.25928 10.2852 6.56208 9.7485 6.73346 9.45535Z" fill="#F8EFDB"/>
<path d="M4.51685 6.01984L4.56145 5.85502C4.67504 5.86698 5.21377 6.23707 5.69077 6.35515C5.55585 6.44246 5.53485 6.46962 5.42875 6.59542C5.09518 7.29393 4.97177 7.95089 4.58299 8.66274C3.89008 9.93131 2.59143 11.5008 2.16332 12.8653L2.12249 13.022C2.07987 13.267 2.0352 13.4689 2.04351 13.7194L2.04045 13.7566L2.07005 13.8327C2.33524 14.1358 2.56654 14.2851 2.90789 14.4853C2.81851 14.8108 2.5976 16.4476 2.54229 16.5453C2.25674 16.4528 1.70082 16.0338 1.41299 16.0031C1.26907 16.8067 1.27908 18.2221 1.26999 19.0743C1.25026 20.7858 1.2453 22.4976 1.25507 24.2093L1.24224 27.8709C1.23908 28.5066 1.2191 29.6412 1.27621 30.2488C1.34003 30.409 1.33731 30.574 1.37235 30.741C1.49595 31.3307 1.67355 31.8307 2.03638 32.2985C2.28665 32.5132 2.50143 32.774 2.7809 32.9479L2.74255 33.0854C2.83403 33.2258 3.02115 33.3159 3.17678 33.3529C3.18373 33.3546 3.19088 33.3553 3.19797 33.3565L3.28843 33.4783L3.25713 33.5863C3.52411 33.8331 4.05812 33.9043 4.39582 33.99C4.52224 34.059 4.70325 34.1272 4.75773 34.2745C4.74262 34.3574 4.72628 34.4005 4.67068 34.4616C5.68039 34.7245 7.15154 35.2572 8.13514 35.3818C8.70221 35.4536 9.26738 35.3749 9.83332 35.4124L9.86035 35.4614L9.83405 35.5034C7.43655 35.6759 4.04325 35.2084 2.01349 33.7426C1.12807 33.1031 0.687082 32.305 0.48795 31.1994C0.391228 30.9842 0.400512 31.0188 0.199193 30.9163C0.129932 30.0694 0.228744 28.0117 0.333535 27.1669L0.343304 27.2327C0.425737 26.3595 0.328286 25.4494 0.408045 24.6215C0.430403 24.4083 0.409843 24.1809 0.414218 23.9637C0.500928 19.5302 -0.211464 14.754 2.23843 10.849C3.15807 9.38315 4.59889 7.83663 4.51685 6.01984Z" fill="#E5E6E3"/>
<path d="M1.42251 15.9741C1.69965 15.536 1.7394 14.1604 2.04045 13.7566L2.07005 13.8327C2.33524 14.1358 2.56654 14.2851 2.90789 14.4853C2.81851 14.8108 2.5976 16.4476 2.54229 16.5453C2.25674 16.4528 1.70082 16.0338 1.41299 16.0031L1.42251 15.9741Z" fill="#ABC8DA"/>
<path d="M1.13379 29.965C1.17355 29.2656 1.11557 28.188 1.11984 27.4354L1.12271 20.0468C1.12568 18.6393 1.08811 17.1712 1.29322 15.7837C1.32661 15.8341 1.38708 15.932 1.42251 15.9741L1.41299 16.0031C1.26907 16.8067 1.27908 18.2221 1.26999 19.0743C1.25026 20.7858 1.2453 22.4976 1.25507 24.2093L1.24224 27.8709C1.23908 28.5066 1.2191 29.6412 1.27621 30.2488L1.20281 30.2537L1.13379 29.965Z" fill="#949996"/>
<path d="M4.67068 34.4616C4.27597 34.382 3.87715 34.2941 3.49259 34.1692C2.81825 33.9501 1.86401 33.5577 1.51158 32.8526L1.53841 32.78C1.90119 32.7503 2.79023 33.4393 3.25713 33.5863C3.52411 33.8331 4.05812 33.9043 4.39582 33.99C4.52224 34.059 4.70325 34.1272 4.75773 34.2745C4.74262 34.3574 4.72628 34.4005 4.67068 34.4616Z" fill="#93B8CC"/>
<path d="M2.06005 12.9265C2.22297 11.378 4.27465 9.51312 4.70689 7.98644C4.78106 7.72453 5.13436 6.55274 5.36951 6.47652L5.42875 6.59542C5.09518 7.29393 4.97177 7.95089 4.58299 8.66274C3.89008 9.93131 2.59143 11.5008 2.16332 12.8653L2.12249 13.022L2.06005 12.9265Z" fill="#99A8AD"/>
<path d="M0.408045 24.6215C0.510405 26.0964 0.42073 27.787 0.45242 29.2751C0.465787 29.9035 0.42666 30.5749 0.48795 31.1994C0.391228 30.9842 0.400512 31.0188 0.199193 30.9163C0.129932 30.0694 0.228744 28.0117 0.333535 27.1669L0.343304 27.2327C0.425737 26.3595 0.328286 25.4494 0.408045 24.6215Z" fill="#306288"/>
<path d="M2.06005 12.9265L2.12249 13.022C2.07987 13.267 2.0352 13.4689 2.04351 13.7194L2.04045 13.7566C1.7394 14.1604 1.69965 15.536 1.42251 15.9741C1.38708 15.932 1.32661 15.8341 1.29322 15.7837C1.41944 14.6097 1.58275 13.9721 2.06005 12.9265Z" fill="#588CAD"/>
<path d="M1.13379 29.965L1.20281 30.2537L1.27621 30.2488C1.34003 30.409 1.33731 30.574 1.37235 30.741C1.49595 31.3307 1.67355 31.8307 2.03638 32.2985C1.87623 32.2896 1.74291 32.1285 1.63608 32.0077C1.12675 31.4318 1.10648 30.7068 1.13379 29.965Z" fill="#DBD3C8"/>
<path d="M12.9777 6.20301C13.0167 6.15497 13.4523 5.82363 13.527 5.76209C13.524 6.20229 13.4904 6.91439 13.6239 7.31449C13.8801 8.08241 14.4838 8.95811 14.9419 9.60636C16.7585 12.1457 17.4779 14.6355 17.4774 17.8064C17.477 20.5033 17.5227 23.3163 17.4338 26.0177C17.3851 27.5027 17.7302 31.7267 16.9111 32.786C16.8884 32.7612 16.8393 32.6907 16.8088 32.6894C16.6387 32.6824 16.1941 33.0439 16.0333 33.1459C16.1386 32.8907 16.1612 32.602 16.1343 32.328L16.1836 32.2822C16.2895 32.0843 16.4108 31.8949 16.5272 31.7038L16.6092 31.4956L16.5259 31.3551C16.958 29.85 16.7077 26.5977 16.6936 24.918C16.6782 23.0771 16.6857 21.2258 16.7186 19.3775C16.7337 18.5299 16.5961 17.4479 16.6358 16.6128C16.7826 16.2866 16.7132 15.9242 16.7221 15.5411C16.715 15.3731 16.6833 14.9461 16.5979 14.8136C16.5145 14.3628 16.3599 13.8974 16.2256 13.4582C16.1427 13.2918 15.9824 12.994 15.8156 12.9085C15.7414 12.8706 15.7614 12.9015 15.6999 12.8142L15.7268 12.7095C15.5834 12.1848 14.9532 11.1883 14.6536 10.6796C14.6092 10.6369 14.4009 10.3208 14.3525 10.2512C13.7327 9.36005 12.7816 8.14735 12.6016 7.03484C12.554 6.81477 12.5349 6.55507 12.4114 6.40756C12.6056 6.34515 12.787 6.27563 12.9777 6.20301Z" fill="#C8CCCC"/>
<path d="M16.7221 15.5411C17.2092 16.9614 16.8837 19.2761 16.9664 20.8116C17.0863 23.0384 17.1299 25.2375 16.9963 27.4655C16.9563 28.1321 17.0188 31.132 16.6092 31.4956L16.5259 31.3551C16.958 29.85 16.7077 26.5977 16.6936 24.918C16.6782 23.0771 16.6857 21.2258 16.7186 19.3775C16.7337 18.5299 16.5961 17.4479 16.6358 16.6128C16.7826 16.2866 16.7132 15.9242 16.7221 15.5411Z" fill="#B4B6B0"/>
<path d="M14.6536 10.6796L14.7636 10.6405C15.2227 10.9114 16.0838 12.9095 16.2256 13.4582C16.1427 13.2918 15.9824 12.994 15.8156 12.9085C15.7414 12.8706 15.7614 12.9015 15.6999 12.8142L15.7268 12.7095C15.5834 12.1848 14.9532 11.1883 14.6536 10.6796Z" fill="#93B8CC"/>
<path d="M16.5272 31.7038L16.6546 31.7285C16.707 31.8374 16.7025 31.8793 16.6692 31.9969C16.6244 32.1551 16.4887 32.4117 16.3411 32.4859C16.3183 32.4973 16.2948 32.5028 16.2701 32.5068L16.203 32.4511L16.1836 32.2822C16.2895 32.0843 16.4108 31.8949 16.5272 31.7038Z" fill="#D9E4EB"/>
<path d="M12.4114 6.40756C12.6056 6.34515 12.787 6.27563 12.9777 6.20301C12.7075 6.49621 12.6854 6.63078 12.6016 7.03484C12.554 6.81477 12.5349 6.55507 12.4114 6.40756Z" fill="#93B8CC"/>
<path d="M16.0333 33.1459C16.1941 33.0439 16.6387 32.6824 16.8088 32.6894C16.8393 32.6907 16.8884 32.7612 16.9111 32.786C15.9811 34.191 13.9933 34.9091 12.4506 35.1956C11.6657 35.3414 10.6253 35.5514 9.83405 35.5034L9.86035 35.4614L9.83332 35.4124C9.26738 35.3749 8.70221 35.4536 8.13514 35.3818C7.15154 35.2572 5.68039 34.7245 4.67068 34.4616C4.72628 34.4005 4.74262 34.3574 4.75773 34.2745C4.70325 34.1272 4.52224 34.059 4.39582 33.99C4.61114 33.8642 5.19341 34.074 5.44659 34.1162C6.16564 34.3105 6.8915 34.3891 7.62644 34.4779C7.63082 34.4864 7.63466 34.4951 7.63947 34.5033C7.70037 34.6069 7.88351 34.6365 7.98777 34.6527C9.06498 34.8207 10.2302 34.7571 11.3086 34.632C11.6475 34.5927 11.991 34.4956 12.329 34.4748C12.7511 34.4488 13.1806 34.5591 13.5981 34.4444C14.4719 34.2043 15.3132 33.7145 16.0333 33.1459Z" fill="#B6C3C6"/>
<path d="M15.9147 32.3442C16.0123 32.3778 16.0399 32.36 16.1343 32.328C16.1612 32.602 16.1386 32.8907 16.0333 33.1459C15.3132 33.7145 14.4719 34.2043 13.5981 34.4444C13.1806 34.5591 12.7511 34.4488 12.329 34.4748C11.991 34.4956 11.6475 34.5927 11.3086 34.632C10.2302 34.7571 9.06498 34.8207 7.98777 34.6527C7.88351 34.6365 7.70037 34.6069 7.63947 34.5033C7.63466 34.4951 7.63082 34.4864 7.62644 34.4779C9.53698 34.8038 12.6664 34.4333 14.4098 33.5404C14.7128 33.3852 15.4514 32.9887 15.5646 32.6463L15.9147 32.3442Z" fill="#99A8AD"/>
<path d="M15.5646 32.6463C15.4514 32.9887 14.7128 33.3852 14.4098 33.5404C12.6664 34.4333 9.53698 34.8038 7.62644 34.4779C6.8915 34.3891 6.16564 34.3105 5.44659 34.1162L5.49401 34.0396C7.54778 34.495 10.5652 34.5305 12.6048 33.9912C13.6522 33.7113 14.6512 33.2574 15.5646 32.6463Z" fill="#949996"/>
<path d="M3.40056 33.3003C3.90954 33.552 5.18556 33.8176 5.49401 34.0396L5.44659 34.1162C5.19341 34.074 4.61114 33.8642 4.39582 33.99C4.05812 33.9043 3.52411 33.8331 3.25713 33.5863L3.28843 33.4783L3.19797 33.3565L3.40056 33.3003Z" fill="#B4B6B0"/>
<path d="M16.5259 31.3551L16.6092 31.4956L16.5272 31.7038C16.4108 31.8949 16.2895 32.0843 16.1836 32.2822L16.1343 32.328C16.0399 32.36 16.0123 32.3778 15.9147 32.3442C16.1836 32.0371 16.3734 31.743 16.5259 31.3551Z" fill="#949996"/>
<path d="M2.7809 32.9479C2.98203 33.087 3.18072 33.1981 3.40056 33.3003L3.19797 33.3565C3.19088 33.3553 3.18373 33.3546 3.17678 33.3529C3.02115 33.3159 2.83403 33.2258 2.74255 33.0854L2.7809 32.9479Z" fill="#DBD3C8"/>
<path d="M5.34272 27.9029C5.41723 27.4763 5.14509 26.6524 5.15841 26.1335C5.15369 25.6393 5.1969 25.1734 5.54719 24.7986C6.50824 23.7704 7.56568 25.2446 8.19325 25.9441C8.27088 26.0306 8.62394 25.9954 8.74005 25.9914C8.95187 25.9942 9.41934 26.0221 9.6124 25.991C10.4849 25.8389 10.7211 24.454 11.7438 24.5587C12.4183 24.6277 12.6366 25.1207 12.6106 25.7811C12.5773 26.623 12.3181 27.2353 12.7349 27.9975C12.7486 28.0353 12.7572 28.0729 12.7654 28.1123C12.8286 28.4206 12.8389 28.7044 12.6669 28.9767C12.3469 29.4834 11.7566 29.5818 11.2918 29.8681C10.7844 30.1805 10.4571 30.6021 9.84657 30.7211C9.14074 30.8587 8.15865 30.7981 7.53078 30.3901C7.25476 30.2107 7.01305 29.9724 6.73839 29.79C6.42542 29.5821 6.07742 29.4426 5.77262 29.2168C5.52897 29.0363 5.25912 28.7847 5.21119 28.4579C5.18208 28.2594 5.2318 28.063 5.34272 27.9029Z" fill="#ECE8DD"/>
<path d="M8.74005 25.9914C8.95187 25.9942 9.41934 26.0221 9.6124 25.991C10.4849 25.8389 10.7211 24.454 11.7438 24.5587C12.4183 24.6277 12.6366 25.1207 12.6106 25.7811C12.5773 26.623 12.3181 27.2353 12.7349 27.9975L12.677 28.0771L12.6323 28.0233L12.502 28.0211L12.4925 28.0964L12.4643 27.9791C12.1777 27.9692 11.485 28.6627 11.0334 28.932C10.8708 27.6488 10.6231 27.799 10.1317 26.8048C9.97364 26.485 11.3245 24.7393 12.1072 25.3623L12.2669 25.2767C11.5543 24.5737 11.0923 25.0844 10.5449 25.6799C10.385 25.8539 10.0652 26.3475 9.81076 26.3695C9.35 26.3408 8.96082 26.2707 8.48844 26.3083C8.41242 26.2826 8.33747 26.2408 8.26423 26.2066L8.24425 26.1344C8.40474 26.0552 8.56756 26.0253 8.74005 25.9914Z" fill="#34709C"/>
<path d="M12.2669 25.2767C12.3469 25.4088 12.4447 25.5331 12.4287 25.6864L12.3498 25.6896C12.2356 25.5705 12.1966 25.5044 12.1072 25.3623L12.2669 25.2767Z" fill="var(--fill-0, #C0D5DF)"/>
<path d="M6.15578 24.9051C7.07246 25.3666 7.40097 25.7615 7.93673 26.6739C7.34051 27.5455 7.03892 27.8108 6.90151 28.8595C6.36172 28.5507 5.85949 28.0063 5.64646 27.8885C5.88982 26.9615 5.06102 25.6934 6.15578 24.9051Z" fill="#588CAD"/>
<path d="M5.34272 27.9029L5.40539 27.9838C5.51344 27.9698 5.5216 27.9677 5.59956 27.8877L5.59427 27.9411C5.58425 28.2566 5.63276 28.4187 5.8422 28.6555C6.53155 29.4349 8.19493 30.0753 9.18636 30.0997C9.51055 30.1093 9.83391 30.0594 10.1421 29.9521C10.5534 29.8099 11.7207 29.1512 12.0316 28.8384C12.2618 28.6068 12.3831 28.298 12.4643 27.9791L12.4925 28.0964L12.502 28.0211L12.6323 28.0233L12.677 28.0771L12.7349 27.9975C12.7486 28.0353 12.7572 28.0729 12.7654 28.1123C12.8286 28.4206 12.8389 28.7044 12.6669 28.9767C12.3469 29.4834 11.7566 29.5818 11.2918 29.8681C10.7844 30.1805 10.4571 30.6021 9.84657 30.7211C9.14074 30.8587 8.15865 30.7981 7.53078 30.3901C7.25476 30.2107 7.01305 29.9724 6.73839 29.79C6.42542 29.5821 6.07742 29.4426 5.77262 29.2168C5.52897 29.0363 5.25912 28.7847 5.21119 28.4579C5.18208 28.2594 5.2318 28.063 5.34272 27.9029Z" fill="#3F7CA8"/>
<path d="M5.34272 27.9029C5.41723 27.4763 5.14509 26.6524 5.15841 26.1335C5.15369 25.6393 5.1969 25.1734 5.54719 24.7986C6.50824 23.7704 7.56568 25.2446 8.19325 25.9441C8.27088 26.0306 8.62394 25.9954 8.74005 25.9914C8.56756 26.0253 8.40474 26.0552 8.24425 26.1344L8.26423 26.2066C8.33747 26.2408 8.41242 26.2826 8.48844 26.3083C8.38598 26.3364 8.20672 26.3929 8.12258 26.3219C7.39989 25.7116 7.18972 24.8662 6.1407 24.8312L6.15578 24.9051C5.06102 25.6934 5.88982 26.9615 5.64646 27.8885L5.59427 27.9411L5.59956 27.8877C5.5216 27.9677 5.51344 27.9698 5.40539 27.9838L5.34272 27.9029Z" fill="#3B647D"/>
<path d="M5.59956 27.8877C5.55674 27.245 4.95374 24.9373 6.1407 24.8312L6.15578 24.9051C5.06102 25.6934 5.88982 26.9615 5.64646 27.8885L5.59427 27.9411L5.59956 27.8877Z" fill="#93B8CC"/>
<path d="M7.84775 27.4441C8.47518 27.8853 8.10749 28.3807 8.50799 28.6215C8.64787 28.7056 8.74892 28.6762 8.89342 28.6381C8.74537 28.4856 8.59732 28.3338 8.45632 28.1739C8.59873 28.019 8.73764 27.8544 8.90022 27.7229C9.04331 27.8229 9.20201 27.9122 9.27977 28.0811C9.29503 28.2617 9.27229 28.4045 9.23073 28.5798C9.32949 28.651 9.42908 28.6287 9.54705 28.6305C9.56245 28.6084 9.5731 28.5893 9.58112 28.563C9.70798 28.1491 9.94978 27.8647 10.2121 27.5411C10.379 27.7162 10.5607 27.9088 10.66 28.1375C10.7918 28.441 10.8202 28.899 10.7054 29.2153C10.6161 29.4611 10.427 29.6292 10.2023 29.7309C9.42063 30.0845 8.30924 29.9165 7.54426 29.5969C7.33288 29.2185 7.1426 28.715 7.2314 28.2696C7.31198 27.865 7.54353 27.6618 7.84775 27.4441Z" fill="#3B647D"/>
<path d="M8.90022 27.7229C9.04331 27.8229 9.20201 27.9122 9.27977 28.0811C9.29503 28.2617 9.27229 28.4045 9.23073 28.5798C9.32949 28.651 9.42908 28.6287 9.54705 28.6305L9.55481 28.7043L9.48764 28.7722C9.28384 28.8023 9.09973 28.761 8.89996 28.7222L8.89342 28.6381C8.74537 28.4856 8.59732 28.3338 8.45632 28.1739C8.59873 28.019 8.73764 27.8544 8.90022 27.7229Z" fill="#306288"/>
<path d="M4.39137 18.9503C4.44498 18.9488 4.502 18.9451 4.55522 18.9524C4.96981 19.0086 5.42645 20.2278 5.6893 20.59C5.85519 20.256 6.02744 19.9195 6.22239 19.6032C6.35984 19.3803 6.52529 19.1392 6.78392 19.0833C6.90645 19.1239 6.97031 19.16 7.03005 19.2864C7.19263 19.6307 7.21066 22.2258 7.09299 22.6168C7.00186 22.7116 6.88978 22.7618 6.7601 22.7607C6.6906 22.7601 6.60943 22.7367 6.56107 22.6833C6.38366 22.4872 6.46405 21.922 6.47241 21.6595L6.45968 20.4141C6.30993 20.7042 6.04037 21.2939 5.7485 21.4268C5.67083 21.4622 5.62164 21.4649 5.54305 21.431C5.25906 21.3085 5.00928 20.5251 4.88544 20.2263C4.81408 20.839 4.96097 22.0902 4.67333 22.5575C4.55279 22.6354 4.51857 22.6359 4.37786 22.6239C4.29091 22.5473 4.27288 22.5111 4.258 22.3911C4.19229 21.8606 4.14495 19.3013 4.39137 18.9503Z" fill="#5994B6"/>
<path d="M13.3376 18.9378C13.3446 18.9412 13.3517 18.9444 13.3587 18.9479C13.5065 19.0212 13.5739 19.0948 13.6297 19.2565C13.6089 19.6909 13.0527 20.2366 12.7982 20.5749C13.0646 21.0459 13.828 21.8617 13.9112 22.3543C13.8877 22.4072 13.8623 22.4707 13.8197 22.5093C13.7485 22.5739 13.6683 22.6165 13.5715 22.5988C13.231 22.5366 12.8545 21.8112 12.6333 21.5389C12.5348 21.4177 12.4588 21.3442 12.3062 21.3313C12.2198 21.4559 12.2316 21.5443 12.2195 21.6965C12.2221 21.9341 12.2491 22.1965 12.23 22.4313C12.2216 22.5343 12.1739 22.6211 12.0963 22.6831C11.9992 22.7605 11.866 22.7536 11.7542 22.7298C11.7225 22.692 11.6943 22.653 11.6718 22.6082C11.4532 22.1733 11.4435 19.7705 11.6088 19.2893C11.6582 19.1459 11.7135 19.0854 11.8412 19.0242L11.9698 19.079C12.1939 19.3195 12.1435 20.0556 12.1618 20.3865C12.5872 19.9435 12.8667 19.3329 13.3376 18.9378Z" fill="#5288A6"/>
<path d="M9.35521 19.0959C9.42929 19.1169 9.53797 19.1397 9.59284 19.1993C9.83183 19.4588 9.74259 21.6648 9.7682 22.1518C10.135 22.1615 10.8105 22.0144 11.1036 22.2809C11.1773 22.4143 11.1704 22.5037 11.1542 22.6536C11.0835 22.7681 11.0528 22.7666 10.9344 22.8053C10.3426 22.8196 9.71212 22.833 9.12498 22.7579C9.0721 22.2088 9.0232 19.7771 9.13538 19.3234C9.16896 19.1877 9.25081 19.1638 9.35521 19.0959Z" fill="#588CAD"/>
<path d="M8.03061 19.061C8.15397 19.087 8.24641 19.1318 8.3566 19.1947C8.54401 19.4582 8.46688 21.3912 8.46829 21.8134C8.46965 22.2115 8.52034 22.5597 8.24199 22.8571C8.09282 22.8337 7.98303 22.8153 7.86171 22.7161C7.67327 22.2637 7.78122 20.5211 7.79293 19.9546C7.80022 19.6041 7.7819 19.3129 8.03061 19.061Z" fill="#588CAD"/>
<path d="M3.992 1.76934C5.25017 0.0444142 12.7977 0.0253451 13.6971 1.63818C13.821 1.68622 13.9059 1.68816 13.9511 1.82794C14.0887 2.25278 14.0654 3.32138 13.9986 3.74121C12.6661 5.10642 8.09633 5.33298 6.38065 4.64746L6.34332 4.64009C5.65679 4.56454 4.81492 4.34194 4.26394 3.88469C3.92342 3.44306 3.99044 2.88263 3.98422 2.31421C3.87919 2.16707 3.94762 1.92757 3.992 1.76934Z" fill="#93B8CC"/>
<path d="M13.6971 1.63818C13.821 1.68622 13.9059 1.68816 13.9511 1.82794C14.0887 2.25278 14.0654 3.32138 13.9986 3.74121C12.6661 5.10642 8.09633 5.33298 6.38065 4.64746C6.58445 4.50182 6.48716 3.54201 6.47715 3.27215C6.88863 3.2772 7.57862 3.44903 8.08221 3.47109C9.66189 3.52928 11.4161 3.28133 12.9018 2.71007C13.1373 2.61952 13.9408 2.24272 13.7953 1.91664C13.7646 1.85747 13.7202 1.70853 13.6971 1.63818Z" fill="#6893AE"/>
<path d="M4.14364 1.98219C4.31959 1.64508 4.66988 1.92926 4.95451 1.75104C4.9967 1.72466 4.96957 1.73646 5.04428 1.74594C5.242 1.94962 5.29974 2.01647 5.54835 2.14614C7.66599 2.85675 9.44743 2.66637 11.5737 2.37811L11.5954 2.381C12.3563 2.47717 12.728 1.84902 13.0162 2.09233C13.0408 2.29081 13.0529 2.21705 12.9766 2.39368C12.8658 2.48949 12.088 2.56669 11.8621 2.87469C12.5756 2.74404 13.2431 2.41321 13.7953 1.91664C13.9408 2.24272 13.1373 2.61952 12.9018 2.71007C11.4161 3.28133 9.66189 3.52928 8.08221 3.47109C7.57862 3.44903 6.88863 3.2772 6.47715 3.27215C6.48716 3.54201 6.58445 4.50182 6.38065 4.64746L6.34332 4.64009C5.65679 4.56454 4.81492 4.34194 4.26394 3.88469C3.92342 3.44306 3.99044 2.88263 3.98422 2.31421C3.87919 2.16707 3.94762 1.92757 3.992 1.76934L4.14364 1.98219Z" fill="#D9E4EB"/>
<path d="M3.98422 2.31421C4.18014 2.36956 4.27021 2.41313 4.45039 2.50023C4.79319 2.6802 5.23009 2.90398 5.59472 3.01634C5.88815 3.10436 6.18232 3.18964 6.47715 3.27215C6.48716 3.54201 6.58445 4.50182 6.38065 4.64746L6.34332 4.64009C5.65679 4.56454 4.81492 4.34194 4.26394 3.88469C3.92342 3.44306 3.99044 2.88263 3.98422 2.31421Z" fill="#93B8CC"/>
<path d="M5.59472 3.01634C5.88815 3.10436 6.18232 3.18964 6.47715 3.27215C6.48716 3.54201 6.58445 4.50182 6.38065 4.64746L6.34332 4.64009C6.17418 4.54562 5.77218 4.4947 5.71026 4.30494C5.63011 4.05935 5.5188 3.2411 5.59472 3.01634Z" fill="#D9E4EB"/>
<path d="M3.98422 2.31421C4.18014 2.36956 4.27021 2.41313 4.45039 2.50023C4.4376 2.81534 4.47143 3.68421 4.26394 3.88469C3.92342 3.44306 3.99044 2.88263 3.98422 2.31421Z" fill="var(--fill-0, #C0D5DF)"/>
<path d="M3.98422 2.31421C3.87919 2.16707 3.94762 1.92757 3.992 1.76934L4.14364 1.98219C4.4775 2.41666 5.35943 2.8502 5.84042 2.91916C7.32289 3.34342 9.19829 3.29503 10.7018 3.08568C10.9594 3.04981 11.628 2.95705 11.8621 2.87469C12.5756 2.74404 13.2431 2.41321 13.7953 1.91664C13.9408 2.24272 13.1373 2.61952 12.9018 2.71007C11.4161 3.28133 9.66189 3.52928 8.08221 3.47109C7.57862 3.44903 6.88863 3.2772 6.47715 3.27215C6.18232 3.18964 5.88815 3.10436 5.59472 3.01634C5.23009 2.90398 4.79319 2.6802 4.45039 2.50023C4.27021 2.41313 4.18014 2.36956 3.98422 2.31421Z" fill="#306288"/>
<path d="M3.992 1.76934C5.25017 0.0444142 12.7977 0.0253451 13.6971 1.63818C13.7202 1.70853 13.7646 1.85747 13.7953 1.91664C13.2431 2.41321 12.5756 2.74404 11.8621 2.87469C12.088 2.56669 12.8658 2.48949 12.9766 2.39368C13.0529 2.21705 13.0408 2.29081 13.0162 2.09233C12.728 1.84902 12.3563 2.47717 11.5954 2.381L11.5737 2.37811C11.9776 2.26009 12.8099 2.07724 13.0348 1.711C12.9265 1.71018 12.8435 1.69004 12.7598 1.73873C12.4843 1.35192 12.4177 1.37057 11.9621 1.24391C10.7101 0.822338 6.0074 0.555301 5.21476 1.72621L5.13583 1.50747L5.04428 1.74594C4.96957 1.73646 4.9967 1.72466 4.95451 1.75104C4.66988 1.92926 4.31959 1.64508 4.14364 1.98219L3.992 1.76934Z" fill="#ABC8DA"/>
<path d="M5.13583 1.50747C6.49898 0.488342 9.70253 0.636811 11.3255 0.908403C12.0174 1.02418 12.5397 1.18169 13.0348 1.711C12.9265 1.71018 12.8435 1.69004 12.7598 1.73873C12.4843 1.35192 12.4177 1.37057 11.9621 1.24391C10.7101 0.822338 6.0074 0.555301 5.21476 1.72621L5.13583 1.50747Z" fill="#306288"/>
<path d="M5.13583 1.50747L5.21476 1.72621C5.6382 2.18201 8.12748 2.38457 8.80779 2.38091C9.66478 2.37627 11.1357 2.25572 11.9566 2.04884C12.2596 1.9621 12.4915 1.91185 12.7598 1.73873C12.8435 1.69004 12.9265 1.71018 13.0348 1.711C12.8099 2.07724 11.9776 2.26009 11.5737 2.37811C9.44743 2.66637 7.66599 2.85675 5.54835 2.14614C5.29974 2.01647 5.242 1.94962 5.04428 1.74594L5.13583 1.50747Z" fill="#306288"/>
<path d="M11.9621 1.24391C12.4177 1.37057 12.4843 1.35192 12.7598 1.73873C12.4915 1.91185 12.2596 1.9621 11.9566 2.04884C11.8325 2.03142 11.8793 2.05327 11.7811 1.95637C11.7125 1.68444 11.7279 1.40569 11.9621 1.24391Z" fill="var(--fill-0, #C0D5DF)"/>
</g>
</svg>
