<svg preserveAspectRatio="none" width="100%" height="100%" overflow="visible" style="display: block;" viewBox="0 0 19.9441 32" fill="none" xmlns="http://www.w3.org/2000/svg">
<g id="Vector">
<path d="M2.30753 5.38431C2.55479 4.54376 2.13336 1.80087 2.9537 1.34946C5.47951 -0.0404984 9.02604 -0.143281 11.8166 0.107539C11.8906 0.111877 12.0716 0.117497 12.1337 0.135687C12.4444 0.158462 13.1815 0.193314 13.4568 0.245864C13.7785 0.258435 14.0244 0.305611 14.3392 0.362006C15.3833 0.671686 16.8756 0.806363 17.4735 1.88921C17.7345 2.36122 17.6141 3.60644 17.6362 4.18222C17.5249 4.25143 17.4978 4.27658 17.3678 4.27322L17.359 4.71058C17.3829 4.91516 17.3508 4.84979 17.4744 4.98703L17.6242 5.03451C17.6472 5.224 17.7033 5.23105 17.7469 5.38683C17.8788 5.85539 17.848 6.23758 17.513 6.60356C17.3259 6.84358 17.2588 6.92635 17.2846 7.2489C17.2855 7.26398 17.2869 7.27911 17.2883 7.2942C18.0392 8.33514 18.8255 9.17214 19.3338 10.3964C20.0448 12.1092 19.9115 14.1379 19.9198 15.9799L19.9409 20.7098L19.9441 24.4772C19.9414 25.2058 19.9575 27.4222 19.695 27.9756C18.3499 30.8122 14.9031 31.7845 12.1493 31.9065C11.4099 31.9392 10.8767 32.0263 10.2412 31.9922L10.2209 31.9305C10.4356 31.7389 11.4452 31.9443 11.7922 31.8164L11.8028 31.765L11.5418 31.5793C11.2145 31.5823 10.0486 31.6622 9.83765 31.5191C8.33439 31.4918 6.83802 31.2955 5.37289 30.9335C4.2451 30.7092 2.54008 29.8142 1.76111 28.9288C1.36771 28.5224 1.09702 28.0637 0.841959 27.553C0.838282 27.7778 0.99775 27.9913 0.969256 28.1916C0.821733 28.2079 0.662264 28.0839 0.535421 28.0102C0.456834 27.8523 0.381923 27.6511 0.247268 27.5411C-0.0918976 26.8256 0.0188598 23.2932 0.0119662 22.3292C-0.011472 20.6772 0.0101273 18.6845 0.0399996 17.0307C0.0344847 16.2081 0.0905518 15.3794 0.0965262 14.607C0.11445 12.2603 0.411338 10.6531 1.69768 8.68997C1.89806 8.29309 2.66463 7.70696 2.7138 7.27616C2.81812 6.36807 2.18896 6.45863 2.30753 5.38431Z" fill="#EFDCBD"/>
<path d="M2.72712 4.80138C2.79421 4.86394 3.03963 5.10342 3.10029 5.13408C3.14349 5.15617 3.27401 5.21946 3.30618 5.24288C3.57504 5.52047 4.09114 5.44401 4.45558 5.70015C4.19822 5.65933 3.66695 5.4869 3.50334 5.61507C3.56078 5.69498 3.61226 5.77291 3.68028 5.84252C3.31905 5.66283 2.96564 5.46565 2.62142 5.25156C2.64807 5.50814 2.66645 5.83951 2.76159 6.06825C2.93347 6.33519 3.64626 6.77565 3.91649 6.73138L4.12101 6.86838L4.07229 6.933C3.8278 6.87991 3.66465 6.71393 3.51759 6.72877C3.49415 7.06295 4.20649 7.0664 4.34849 7.23277L4.21936 7.26595C3.84618 7.1505 3.55389 7.05284 3.22208 6.82756L3.18118 7.3953L3.13798 7.47497L3.04468 7.45831C3.07226 7.30051 3.0502 6.67587 3.05066 6.47396C2.54283 6.25252 2.56443 5.71425 2.55478 5.1958C2.62371 5.16977 2.66232 5.15301 2.72804 5.11801C2.70736 4.98974 2.70414 4.96105 2.72252 4.83116L2.72712 4.80138Z" fill="#703913"/>
<path d="M2.30753 5.38431C2.55479 4.54376 2.13336 1.80087 2.9537 1.34946C5.47951 -0.0404984 9.02604 -0.143281 11.8166 0.107539C11.8906 0.111877 12.0716 0.117497 12.1337 0.135687C12.4444 0.158462 13.1815 0.193314 13.4568 0.245864C13.7785 0.258435 14.0244 0.305611 14.3392 0.362006C15.3833 0.671686 16.8756 0.806363 17.4735 1.88921C17.7345 2.36122 17.6141 3.60644 17.6362 4.18222C17.5249 4.25143 17.4978 4.27658 17.3678 4.27322L17.359 4.71058L17.3315 4.70402C17.1913 5.33985 15.904 5.71287 15.3723 5.87323C12.1792 6.83624 9.13589 6.66217 5.89681 6.12267C5.41058 6.08605 4.90366 5.8926 4.45558 5.70015C4.09114 5.44401 3.57504 5.52047 3.30618 5.24288C3.27401 5.21946 3.14349 5.15617 3.10029 5.13408C3.03963 5.10342 2.79421 4.86394 2.72712 4.80138L2.72252 4.83116C2.70414 4.96105 2.70736 4.98974 2.72804 5.11801C2.66232 5.15301 2.62371 5.16977 2.55478 5.1958L2.30753 5.38431Z" fill="#C68F45"/>
<path d="M2.30753 5.38431C2.55479 4.54376 2.13336 1.80087 2.9537 1.34946C5.47951 -0.0404984 9.02604 -0.143281 11.8166 0.107539C11.8906 0.111877 12.0716 0.117497 12.1337 0.135687L12.1277 0.198589L12.1608 0.199575L12.1162 0.3064C12.1985 0.41076 12.3414 0.417711 12.4715 0.441915C10.1433 0.390894 4.74604 0.126863 2.99506 1.93268C2.97117 1.95704 2.94865 1.98267 2.92705 2.00954C2.80986 2.14214 2.81123 2.18725 2.79377 2.3732C2.93716 2.40204 3.41695 2.80898 3.70924 2.95006L3.76071 2.97989C3.95879 3.04382 4.01715 3.06093 4.18903 3.18205L4.32507 3.24308L4.684 3.37771C4.67481 3.5919 4.57002 4.28308 4.50706 4.48742C4.60036 4.53735 4.83658 4.67745 4.92573 4.67514C5.2148 4.75031 5.52226 4.85793 5.78835 4.92522L6.28837 5.03963C6.48323 5.04954 6.71807 5.08316 6.89224 5.08898C8.57934 5.4515 11.9512 5.4448 13.6719 5.13088C14.0855 5.08144 14.5929 4.98304 15.0111 4.91427C15.3769 4.80429 15.6457 4.72566 15.9996 4.56668L16.5768 4.36876L16.8103 4.23531C16.9587 4.12302 17.0792 3.91859 17.2354 3.88004C17.3521 4.03749 17.3572 4.06963 17.3678 4.27322L17.359 4.71058L17.3315 4.70402C17.1913 5.33985 15.904 5.71287 15.3723 5.87323C12.1792 6.83624 9.13589 6.66217 5.89681 6.12267C5.41058 6.08605 4.90366 5.8926 4.45558 5.70015C4.09114 5.44401 3.57504 5.52047 3.30618 5.24288C3.27401 5.21946 3.14349 5.15617 3.10029 5.13408C3.03963 5.10342 2.79421 4.86394 2.72712 4.80138L2.72252 4.83116C2.70414 4.96105 2.70736 4.98974 2.72804 5.11801C2.66232 5.15301 2.62371 5.16977 2.55478 5.1958L2.30753 5.38431Z" fill="#692D0A"/>
<path d="M17.2924 4.02233L17.3315 4.70402C17.1913 5.33985 15.904 5.71287 15.3723 5.87323C12.1792 6.83624 9.13589 6.66217 5.89681 6.12267C5.41058 6.08605 4.90366 5.8926 4.45558 5.70015C4.09114 5.44401 3.57504 5.52047 3.30618 5.24288C3.63294 5.17199 3.8788 5.14894 4.19453 5.32222C4.2938 5.20184 4.27311 5.18892 4.39582 5.15165C4.45005 4.97434 4.48957 4.98991 4.63158 4.95131C5.33657 5.11685 6.61372 5.45616 7.29481 5.51171C8.5807 5.47469 9.74802 5.51433 11.0252 5.52626C12.7513 5.4949 16.0207 5.40563 17.2924 4.02233Z" fill="#AD6D30"/>
<path d="M4.39582 5.15165C4.45005 4.97434 4.48957 4.98991 4.63158 4.95131C5.33657 5.11685 6.61372 5.45616 7.29481 5.51171C7.46163 5.579 7.47448 5.54958 7.55215 5.68012C7.39498 5.86178 6.87979 5.86523 6.64035 5.87563C6.31268 5.85221 5.91331 5.76846 5.58379 5.70886C5.13893 5.50576 4.678 5.63067 4.39582 5.15165Z" fill="#EAB557"/>
<path d="M7.29481 5.51171C8.5807 5.47469 9.74802 5.51433 11.0252 5.52626L11.0496 5.67049C10.8616 5.81394 6.92667 5.97644 6.64035 5.87563C6.87979 5.86523 7.39498 5.86178 7.55215 5.68012C7.47448 5.54958 7.46163 5.579 7.29481 5.51171Z" fill="#C68F45"/>
<path d="M4.19453 5.32222C4.2938 5.20184 4.27311 5.18892 4.39582 5.15165C4.678 5.63067 5.13893 5.50576 5.58379 5.70886L5.51075 5.7602C5.29337 5.70824 4.64813 5.51761 4.4882 5.53181L4.45419 5.56445C4.80117 5.80472 5.76308 5.95521 5.89681 6.12267C5.41058 6.08605 4.90366 5.8926 4.45558 5.70015C4.09114 5.44401 3.57504 5.52047 3.30618 5.24288C3.63294 5.17199 3.8788 5.14894 4.19453 5.32222Z" fill="#B5702C"/>
<path d="M2.79377 2.3732C2.93716 2.40204 3.41695 2.80898 3.70924 2.95006L3.76071 2.97989C3.95879 3.04382 4.01715 3.06093 4.18903 3.18205L4.32507 3.24308L4.684 3.37771C4.67481 3.5919 4.57002 4.28308 4.50706 4.48742L4.36455 4.51636L4.13568 4.48185L3.98632 4.41649C3.7763 4.38489 3.63521 4.28979 3.44816 4.18504L2.80246 3.82592C2.78867 3.34183 2.78596 2.85748 2.79377 2.3732Z" fill="#C48237"/>
<path d="M3.76071 2.97989C3.95879 3.04382 4.01715 3.06093 4.18903 3.18205L4.32507 3.24308L4.684 3.37771C4.67481 3.5919 4.57002 4.28308 4.50706 4.48742L4.36455 4.51636L4.13568 4.48185L3.98632 4.41649C3.7763 4.38489 3.63521 4.28979 3.44816 4.18504C3.55386 4.17119 3.59759 4.11435 3.67939 4.03893C3.72121 3.93832 3.76487 3.75696 3.79474 3.64451C3.72719 3.46655 3.75474 3.18121 3.76071 2.97989Z" fill="#C48237"/>
<path d="M4.32507 3.24308L4.684 3.37771C4.67481 3.5919 4.57002 4.28308 4.50706 4.48742L4.36455 4.51636C4.27355 4.16498 4.30622 3.61522 4.32507 3.24308Z" fill="#C68F45"/>
<path d="M4.18903 3.18205L4.32507 3.24308C4.30622 3.61522 4.27355 4.16498 4.36455 4.51636L4.13568 4.48185C4.17567 4.23256 4.06771 3.76646 4.18903 3.18205Z" fill="#B5702C"/>
<path d="M3.79474 3.64451C3.93032 3.9359 3.85442 4.16138 3.98632 4.41649C3.7763 4.38489 3.63521 4.28979 3.44816 4.18504C3.55386 4.17119 3.59759 4.11435 3.67939 4.03893C3.72121 3.93832 3.76487 3.75696 3.79474 3.64451Z" fill="#B5702C"/>
<path d="M3.70924 2.95006L3.76071 2.97989C3.75474 3.18121 3.72719 3.46655 3.79474 3.64451C3.76487 3.75696 3.72121 3.93832 3.67939 4.03893C3.48683 3.91475 3.38478 3.09731 3.70924 2.95006Z" fill="#C68F45"/>
<path d="M2.72712 4.80138C2.66462 4.56298 2.63472 4.2771 2.84107 4.11432C2.92838 4.13784 2.96331 4.19438 3.02673 4.26571C3.53869 4.55232 4.07642 4.78203 4.63158 4.95131C4.48957 4.98991 4.45005 4.97434 4.39582 5.15165C4.27311 5.18892 4.2938 5.20184 4.19453 5.32222C3.8788 5.14894 3.63294 5.17199 3.30618 5.24288C3.27401 5.21946 3.14349 5.15617 3.10029 5.13408C3.03963 5.10342 2.79421 4.86394 2.72712 4.80138Z" fill="#C68F45"/>
<path d="M2.72712 4.80138C2.66462 4.56298 2.63472 4.2771 2.84107 4.11432C2.92838 4.13784 2.96331 4.19438 3.02673 4.26571C2.82681 4.51195 3.00743 4.77553 3.1646 5.00195L3.34476 5.09892C3.34522 5.09877 3.60396 4.98337 3.68576 4.96207C3.90682 4.99254 4.04287 5.15136 4.19453 5.32222C3.8788 5.14894 3.63294 5.17199 3.30618 5.24288C3.27401 5.21946 3.14349 5.15617 3.10029 5.13408C3.03963 5.10342 2.79421 4.86394 2.72712 4.80138Z" fill="#C48237"/>
<path d="M2.79377 2.3732C2.81123 2.18725 2.80986 2.14214 2.92705 2.00954L2.97666 2.14339C3.71473 2.9583 4.84758 3.18635 5.8591 3.41917C6.07648 3.46921 6.6367 3.54449 6.80996 3.60857C8.05311 3.87418 9.47917 3.85397 10.7425 3.87023C10.9342 3.87265 11.1529 3.84928 11.3381 3.85914L12.2164 3.77184C13.1649 3.66812 14.051 3.44781 14.9178 3.35834L14.9449 3.40493C14.8631 3.46482 14.7964 3.52003 14.7018 3.5536C14.7234 3.87674 14.7666 4.44518 14.7211 4.75668C14.8396 4.86913 14.8562 4.88405 15.0111 4.91427C14.5929 4.98304 14.0855 5.08144 13.6719 5.13088C11.9512 5.4448 8.57934 5.4515 6.89224 5.08898C6.71807 5.08316 6.48323 5.04954 6.28837 5.03963L5.78835 4.92522C5.52226 4.85793 5.2148 4.75031 4.92573 4.67514C4.83658 4.67745 4.60036 4.53735 4.50706 4.48742C4.57002 4.28308 4.67481 3.5919 4.684 3.37771L4.32507 3.24308L4.18903 3.18205C4.01715 3.06093 3.95879 3.04382 3.76071 2.97989L3.70924 2.95006C3.41695 2.80898 2.93716 2.40204 2.79377 2.3732Z" fill="#C17C32"/>
<path d="M2.79377 2.3732C2.81123 2.18725 2.80986 2.14214 2.92705 2.00954L2.97666 2.14339C3.71473 2.9583 4.84758 3.18635 5.8591 3.41917C6.07648 3.46921 6.6367 3.54449 6.80996 3.60857C8.05311 3.87418 9.47917 3.85397 10.7425 3.87023C10.9342 3.87265 11.1529 3.84928 11.3381 3.85914L11.4052 3.95399C11.3919 4.31548 11.4746 4.55319 11.4218 5.05251L11.3804 5.03565C11.2954 4.75012 11.249 4.35935 11.2361 4.05884L11.2352 4.02685C11.1704 3.99254 10.8928 4.00974 10.8708 4.04647C10.7559 4.23996 10.8349 4.74988 10.8556 4.97373C10.7402 4.65543 10.7559 4.38725 10.754 4.04987C9.56832 4.18233 8.25854 3.97159 7.06043 3.86171C7.12247 4.10281 7.08801 4.87598 6.88579 5.04664L6.89224 5.08898C6.71807 5.08316 6.48323 5.04954 6.28837 5.03963L5.78835 4.92522C5.52226 4.85793 5.2148 4.75031 4.92573 4.67514C4.83658 4.67745 4.60036 4.53735 4.50706 4.48742C4.57002 4.28308 4.67481 3.5919 4.684 3.37771L4.32507 3.24308L4.18903 3.18205C4.01715 3.06093 3.95879 3.04382 3.76071 2.97989L3.70924 2.95006C3.41695 2.80898 2.93716 2.40204 2.79377 2.3732Z" fill="#985117"/>
<path d="M4.684 3.37771L4.8738 3.39995C5.08475 3.45901 5.27639 3.51545 5.46895 3.63194L5.61785 3.6694C5.73596 3.66738 5.84672 3.65457 5.95656 3.69563L5.85683 3.77258C5.82972 4.10923 5.8219 4.62694 5.96851 4.93164L5.78835 4.92522C5.52226 4.85793 5.2148 4.75031 4.92573 4.67514C4.83658 4.67745 4.60036 4.53735 4.50706 4.48742C4.57002 4.28308 4.67481 3.5919 4.684 3.37771Z" fill="#C68F45"/>
<path d="M4.684 3.37771L4.8738 3.39995C5.08475 3.45901 5.27639 3.51545 5.46895 3.63194C5.17436 3.79541 5.32786 3.96691 5.25065 4.23735C4.99191 4.29276 5.05487 4.48841 4.77269 4.52711C4.89356 4.59617 4.88069 4.56314 4.92573 4.67514C4.83658 4.67745 4.60036 4.53735 4.50706 4.48742C4.57002 4.28308 4.67481 3.5919 4.684 3.37771Z" fill="#EAB557"/>
<path d="M4.684 3.37771L4.8738 3.39995C4.81176 3.64732 4.77499 4.2544 4.77269 4.52711C4.89356 4.59617 4.88069 4.56314 4.92573 4.67514C4.83658 4.67745 4.60036 4.53735 4.50706 4.48742C4.57002 4.28308 4.67481 3.5919 4.684 3.37771Z" fill="#C48237"/>
<path d="M5.46895 3.63194L5.61785 3.6694C5.59855 3.89661 5.58291 4.46152 5.42068 4.59294C5.29797 4.51895 5.27869 4.38267 5.25065 4.23735C5.32786 3.96691 5.17436 3.79541 5.46895 3.63194Z" fill="#EDD5B4"/>
<path d="M6.74978 3.79358L6.90419 3.82651L7.06043 3.86171C7.12247 4.10281 7.08801 4.87598 6.88579 5.04664L6.89224 5.08898C6.71807 5.08316 6.48323 5.04954 6.28837 5.03963C6.35409 5.02011 6.4221 4.99439 6.4869 4.97152C6.69049 4.7135 6.71301 4.13876 6.74978 3.79358Z" fill="#C48237"/>
<path d="M6.90419 3.82651L7.06043 3.86171C7.12247 4.10281 7.08801 4.87598 6.88579 5.04664L6.80998 4.9537C6.81458 4.58413 6.86421 4.19535 6.90419 3.82651Z" fill="#C68F45"/>
<path d="M6.28837 5.03963C6.24287 4.7761 6.16518 3.98376 6.32741 3.77893C6.44184 3.70927 6.61328 3.76632 6.74978 3.79358C6.71301 4.13876 6.69049 4.7135 6.4869 4.97152C6.4221 4.99439 6.35409 5.02011 6.28837 5.03963Z" fill="#C68F45"/>
<path d="M5.95656 3.69563C6.0232 3.72373 6.12702 3.74489 6.13897 3.83145C6.1739 4.08247 6.15969 4.75979 5.96851 4.93164C5.8219 4.62694 5.82972 4.10923 5.85683 3.77258L5.95656 3.69563Z" fill="#FADB93"/>
<path d="M12.2164 3.77184C13.1649 3.66812 14.051 3.44781 14.9178 3.35834L14.9449 3.40493C14.8631 3.46482 14.7964 3.52003 14.7018 3.5536C14.7234 3.87674 14.7666 4.44518 14.7211 4.75668C14.8396 4.86913 14.8562 4.88405 15.0111 4.91427C14.5929 4.98304 14.0855 5.08144 13.6719 5.13088C13.8001 5.03682 13.8024 5.06712 13.8474 4.93683L13.7941 4.82749C13.693 4.81966 13.6047 4.82883 13.5041 4.83592C13.4908 4.87955 13.4678 4.89666 13.437 4.93274L13.3874 4.89863C13.2821 4.58629 13.4287 4.0495 13.2343 3.85025C12.6226 3.61072 12.9526 4.68049 12.7913 4.96577C12.7187 4.65856 12.8304 4.26769 12.6943 4.00676C12.5408 3.88628 12.5055 3.92212 12.2954 3.91335L12.2164 3.77184Z" fill="#703913"/>
<path d="M13.4462 3.76801L13.9412 3.71645C14.2661 3.92655 14.0846 4.89823 14.6098 4.84248L14.648 4.80812L14.7211 4.75668C14.8396 4.86913 14.8562 4.88405 15.0111 4.91427C14.5929 4.98304 14.0855 5.08144 13.6719 5.13088C13.8001 5.03682 13.8024 5.06712 13.8474 4.93683L13.7941 4.82749C13.693 4.81966 13.6047 4.82883 13.5041 4.83592C13.4981 4.47315 13.4719 4.12886 13.4462 3.76801Z" fill="#985117"/>
<path d="M13.4462 3.76801C13.5441 3.77501 13.7187 3.76201 13.7812 3.84153C13.9237 4.02156 13.9908 4.61469 13.8805 4.80246L13.7941 4.82749C13.693 4.81966 13.6047 4.82883 13.5041 4.83592C13.4981 4.47315 13.4719 4.12886 13.4462 3.76801Z" fill="#B5702C"/>
<path d="M13.9412 3.71645L14.4917 3.63441C14.5529 4.02272 14.5878 4.44411 14.648 4.80812L14.6098 4.84248C14.0846 4.89823 14.2661 3.92655 13.9412 3.71645Z" fill="#945B12"/>
<path d="M11.3381 3.85914L12.2164 3.77184L12.2954 3.91335C12.1383 4.14257 12.3064 4.85004 12.1313 5.04516C11.9673 4.87918 11.9751 4.24311 11.9585 3.96665L11.4052 3.95399L11.3381 3.85914Z" fill="#985117"/>
<path d="M17.2009 1.93695C17.4399 2.21321 17.4257 3.60876 17.2354 3.88004C17.0792 3.91859 16.9587 4.12302 16.8103 4.23531L16.5768 4.36876L15.9996 4.56668C15.6457 4.72566 15.3769 4.80429 15.0111 4.91427C14.8562 4.88405 14.8396 4.86913 14.7211 4.75668C14.7666 4.44518 14.7234 3.87674 14.7018 3.5536C14.7964 3.52003 14.8631 3.46482 14.9449 3.40493L14.9178 3.35834C15.603 3.14666 16.614 2.91242 17.0778 2.34005L17.2009 1.93695Z" fill="#703913"/>
<path d="M15.2748 4.75957C15.2689 4.45891 15.1558 3.50113 15.2703 3.3493C15.438 3.34047 15.4766 3.30454 15.5818 3.38829C15.6039 3.58567 15.6517 4.32093 15.728 4.43761C15.7955 4.3544 15.79 4.27365 15.7978 4.16441C15.9444 4.29938 15.7786 4.29984 15.9996 4.56668C15.6457 4.72566 15.3769 4.80429 15.0111 4.91427C14.8562 4.88405 14.8396 4.86913 14.7211 4.75668C14.7666 4.44518 14.7234 3.87674 14.7018 3.5536C14.7964 3.52003 14.8631 3.46482 14.9449 3.40493C15.1664 3.63593 15.0621 4.29914 15.2748 4.75957Z" fill="#945B12"/>
<path d="M15.7978 4.16441C15.7661 3.87455 15.6719 3.37208 15.8705 3.15493L15.9734 3.1603C16.0961 3.42862 16.0446 4.15485 16.2331 4.24428C16.307 4.05981 16.092 3.35719 16.2004 3.10755C16.2147 3.07433 16.3075 3.04426 16.3484 3.02631L16.4164 3.06062L16.4978 3.49754C16.5088 3.74077 16.5116 4.15072 16.5768 4.36876L15.9996 4.56668C15.7786 4.29984 15.9444 4.29938 15.7978 4.16441Z" fill="#B5702C"/>
<path d="M17.2009 1.93695C17.4399 2.21321 17.4257 3.60876 17.2354 3.88004C17.0792 3.91859 16.9587 4.12302 16.8103 4.23531C16.8236 4.10616 16.8723 3.91728 16.9018 3.786C16.9417 3.83185 16.9813 3.88544 17.0189 3.93419L17.0566 3.87355C17.0024 3.44596 16.9601 3.12889 17.0433 2.69572C17.0704 2.55567 17.1283 2.48222 17.0778 2.34005L17.2009 1.93695Z" fill="#985117"/>
<path d="M16.4978 3.49754L16.5906 3.46844C16.5925 3.16517 16.4983 3.13589 16.5764 2.92155C16.7074 2.82586 16.6577 2.83212 16.7961 2.84583C16.8949 2.98879 16.8889 3.55919 16.9018 3.786C16.8723 3.91728 16.8236 4.10616 16.8103 4.23531L16.5768 4.36876C16.5116 4.15072 16.5088 3.74077 16.4978 3.49754Z" fill="#A46427"/>
<path d="M12.1337 0.135687C12.4444 0.158462 13.1815 0.193314 13.4568 0.245864C13.7785 0.258435 14.0244 0.305611 14.3392 0.362006C15.3833 0.671686 16.8756 0.806363 17.4735 1.88921C17.7345 2.36122 17.6141 3.60644 17.6362 4.18222C17.5249 4.25143 17.4978 4.27658 17.3678 4.27322C17.3572 4.06963 17.3521 4.03749 17.2354 3.88004C17.4257 3.60876 17.4399 2.21321 17.2009 1.93695C16.0272 0.829459 14.1627 0.655186 12.6681 0.451838L12.4715 0.441915C12.3414 0.417711 12.1985 0.41076 12.1162 0.3064L12.1608 0.199575L12.1277 0.198589L12.1337 0.135687Z" fill="#020000"/>
<path d="M12.1337 0.135687C12.4444 0.158462 13.1815 0.193314 13.4568 0.245864C13.238 0.259519 12.8708 0.232322 12.7132 0.299562C12.6939 0.355661 12.6778 0.392634 12.6681 0.451838L12.4715 0.441915C12.3414 0.417711 12.1985 0.41076 12.1162 0.3064L12.1608 0.199575L12.1277 0.198589L12.1337 0.135687Z" fill="var(--fill-0, #250300)"/>
<path d="M2.97666 2.14339C3.47805 1.84894 3.65544 2.21324 4.13431 2.45676C4.46153 2.62309 6.79157 3.3475 7.03698 3.3053L7.10684 3.3471C6.87751 3.41839 6.73504 3.25497 6.62291 3.37772L6.6753 3.49992C6.85545 3.512 6.94185 3.50959 7.11051 3.58984L6.80996 3.60857C6.6367 3.54449 6.07648 3.46921 5.8591 3.41917C4.84758 3.18635 3.71473 2.9583 2.97666 2.14339Z" fill="#FADB93"/>
<path d="M16.1439 1.53266C16.2128 1.56894 16.2928 1.60651 16.3525 1.65778C16.4417 1.73414 16.472 1.83859 16.4798 1.95602C16.4881 2.08532 16.4284 2.20053 16.3475 2.29163C15.7427 2.97192 12.8441 3.36653 11.9268 3.39113C11.8547 3.39636 11.8496 3.40429 11.7899 3.35455C12.004 3.01283 15.2344 2.90901 16.0791 2.11091C16.3461 1.85856 16.1301 1.82637 16.1439 1.53266Z" fill="#B5702C"/>
<path d="M9.08165 0.766708C9.17862 0.762222 9.2857 0.742257 9.37394 0.792588C9.06878 0.890293 8.66758 0.857758 8.34496 0.907941C7.52646 1.03537 6.69049 1.20673 5.87842 1.37187C5.86326 1.45617 5.86234 1.4675 5.89405 1.54593C6.27917 1.50803 6.67532 1.38148 7.05447 1.29457C7.7806 1.1282 8.66941 0.946195 9.41116 0.963054C9.03983 1.07269 8.63219 1.10404 8.25028 1.16147C7.43546 1.17123 6.47127 1.46533 5.69137 1.72118C5.33336 1.83846 4.93308 2.02643 4.56312 2.05728C4.45788 2.06606 4.38251 2.0738 4.30116 2.0004C4.31081 1.98571 4.31128 1.98393 4.32369 1.96865C4.80992 1.36719 8.22408 0.841293 9.08165 0.766708Z" fill="#EAB557"/>
<path d="M8.9263 9.56083C9.37576 9.46228 10.2172 9.4964 10.6888 9.50596C11.1424 9.584 11.6001 9.60859 12.0454 9.7241L12.1286 9.77369L11.9351 9.64438C12.0298 9.60702 12.7113 9.71054 12.8874 9.72917C12.6309 9.89649 12.0633 9.45794 12.2573 10.1193C12.3933 10.0177 12.3161 9.76363 12.7329 9.83422C12.994 9.87839 13.2431 10.0102 13.4991 10.0739C13.5864 10.0955 13.795 9.93873 13.8906 9.95534C14.369 10.0386 14.8769 10.1572 15.3525 10.2487C15.2813 10.2753 15.2105 10.3024 15.1393 10.3299C15.284 10.6088 15.6315 10.3872 15.8521 10.4519C16.0943 10.5228 16.3245 10.6906 16.5828 10.717C16.7211 10.9684 18.0231 11.3137 18.0962 11.8787C17.9353 12.2922 15.7946 13.3141 15.3567 13.3299L15.3245 13.0969C15.2666 13.1836 15.3396 13.3513 15.2707 13.5064L14.5556 13.7822C14.455 13.8002 14.3304 13.8169 14.2362 13.8519C12.3138 14.4981 10.4365 14.6432 8.4488 14.4801C8.32563 14.4699 8.14548 14.4463 8.02645 14.4525L7.84308 14.4514C7.85825 14.4647 4.78049 13.7874 4.70695 13.7998C4.62791 13.2828 5.63713 10.39 6.02271 10.0478L6.1445 9.96688C6.35499 9.91561 6.71759 9.78586 6.89131 9.91492C6.99885 9.78833 7.07743 9.80465 7.21714 9.80815C7.7406 9.75392 8.4318 9.5836 8.9263 9.56083Z" fill="#F8EFDB"/>
<path d="M8.9263 9.56083C9.37576 9.46228 10.2172 9.4964 10.6888 9.50596C10.7572 9.64128 10.8735 9.9308 10.976 10.001C10.8878 10.1823 10.8662 10.1619 10.8717 10.3413C11.0721 10.4075 11.0831 10.29 11.2568 10.3882C11.2766 10.5073 11.254 10.559 11.2219 10.6719C11.1989 10.5838 11.1851 10.5209 11.1704 10.431C11.0422 10.4443 11.0675 10.59 10.9002 10.7144L10.6883 10.665C10.6231 10.7247 10.6175 10.8838 10.5748 11.0175C10.1956 11.1367 10.2117 10.6699 10.1626 10.6511C9.95069 10.5703 9.60004 10.5845 9.50859 10.2572L9.6028 10.0543C9.69655 9.6468 9.17217 9.58217 8.9263 9.56083Z" fill="#ECE8DD"/>
<path d="M9.6028 10.0543C9.89509 10.2785 9.83307 10.0412 10.0918 10.1974L9.85559 10.5147C9.73472 10.3735 9.66944 10.3462 9.50859 10.2572L9.6028 10.0543Z" fill="#DBD3C8"/>
<path d="M10.0918 10.1974C10.2154 10.347 10.2292 10.314 10.2388 10.4753C10.1203 10.5806 10.0013 10.5778 9.85559 10.5147L10.0918 10.1974Z" fill="#FADB93"/>
<path d="M10.6888 9.50596C11.1424 9.584 11.6001 9.60859 12.0454 9.7241L12.1286 9.77369C12.0656 10.4157 12.3437 10.205 12.358 10.6024L12.3134 10.6245L12.1613 10.4234L12.1213 10.46C12.1249 10.5612 12.1401 10.792 12.1217 10.8817L11.891 10.9015L11.8033 10.9528C11.681 11.2523 11.7578 11.2723 11.7794 11.6057L11.7201 11.6455C11.6024 11.5803 11.6277 11.6164 11.5854 11.5142C11.6824 11.1498 11.4347 11.0075 11.2219 10.6719C11.254 10.559 11.2766 10.5073 11.2568 10.3882C11.0831 10.29 11.0721 10.4075 10.8717 10.3413C10.8662 10.1619 10.8878 10.1823 10.976 10.001C10.8735 9.9308 10.7572 9.64128 10.6888 9.50596Z" fill="#EDD5B4"/>
<path d="M10.6888 9.50596C11.1424 9.584 11.6001 9.60859 12.0454 9.7241C12.0399 9.83787 12.0431 10.0767 11.9903 10.1579C11.8575 10.111 11.834 9.91493 11.7775 9.97768C11.5395 10.2426 11.2619 10.1495 10.976 10.001C10.8735 9.9308 10.7572 9.64128 10.6888 9.50596Z" fill="#FCE9B2"/>
<path d="M11.8432 10.5228L11.9167 10.4697C12.045 10.5701 12.0767 10.7047 12.1217 10.8817L11.891 10.9015C11.817 10.885 11.7412 10.8635 11.6677 10.844L11.6488 10.745L11.8432 10.5228Z" fill="#FADB93"/>
<path d="M11.6488 10.745C11.4884 10.6897 11.533 10.7294 11.431 10.5966L11.4439 10.4923L11.55 10.4255C11.6902 10.4385 11.7274 10.4344 11.8432 10.5228L11.6488 10.745Z" fill="#ECE8DD"/>
<path d="M6.1445 9.96688C6.35499 9.91561 6.71759 9.78586 6.89131 9.91492C6.76493 10.0469 6.15231 10.1523 6.02271 10.0478L6.1445 9.96688Z" fill="#C1AA88"/>
<path d="M12.7122 10.2922C12.7049 10.1138 12.7012 10.1726 12.8037 10.0042L12.9039 9.98749C13.073 10.1213 13.0753 10.1631 13.0533 10.3888L13.0863 10.4215C13.278 10.3629 13.4057 10.3216 13.6066 10.2929L13.6415 10.4081C13.8304 10.4322 14.0377 11.105 14.079 11.2931L14.176 11.3195L14.3148 11.4385C14.3359 11.6065 14.3529 11.5579 14.2826 11.6865L14.1764 11.7306L13.8768 11.7957C13.755 11.9603 13.7325 11.965 13.5652 11.9282C13.3373 11.7552 13.2876 11.5536 13.2141 11.2767L13.1511 11.2259C12.9512 11.3275 12.1879 11.3194 12.0206 11.1474C12.0293 10.9964 12.0817 10.9489 12.1722 10.832L12.3483 10.8252C12.4517 10.6573 12.5679 10.4683 12.6911 10.3182L12.7122 10.2922Z" fill="#EDD5B4"/>
<path d="M12.7122 10.2922C12.8699 10.413 12.9811 10.7205 12.9071 10.9149C12.7366 11.1104 12.6884 11.094 12.4384 11.0463C12.3033 10.8921 12.34 10.8911 12.1722 10.832L12.3483 10.8252C12.4517 10.6573 12.5679 10.4683 12.6911 10.3182L12.7122 10.2922Z" fill="#ECE8DD"/>
<path d="M14.079 11.2931L14.176 11.3195L14.3148 11.4385C14.3359 11.6065 14.3529 11.5579 14.2826 11.6865L14.1764 11.7306L13.8768 11.7957L13.7311 11.5982C13.9016 11.3804 13.881 11.62 14.0436 11.3674L14.079 11.2931Z" fill="#FADB93"/>
<path d="M13.2141 11.2767L13.2606 11.2971L13.3208 11.4335C13.3617 11.4414 13.4384 11.4589 13.4761 11.46L13.4701 11.5798C13.5662 11.6798 13.5152 11.6559 13.6696 11.6562L13.7311 11.5982L13.8768 11.7957C13.755 11.9603 13.7325 11.965 13.5652 11.9282C13.3373 11.7552 13.2876 11.5536 13.2141 11.2767Z" fill="#EDD5B4"/>
<path d="M13.5739 11.4297C13.7045 11.3625 13.7904 11.2471 13.8929 11.1348L13.965 11.1625L14.0436 11.3674C13.881 11.62 13.9016 11.3804 13.7311 11.5982L13.6696 11.6562C13.5152 11.6559 13.5662 11.6798 13.4701 11.5798L13.4761 11.46L13.5739 11.4297Z" fill="#FCE9B2"/>
<path d="M13.3212 11.1616C13.4545 11.1818 13.5179 11.1898 13.6521 11.1885C13.6599 11.3068 13.6342 11.3107 13.5739 11.4297L13.4761 11.46C13.4384 11.4589 13.3617 11.4414 13.3208 11.4335L13.2606 11.2971L13.3212 11.1616Z" fill="#FADB93"/>
<path d="M14.176 11.3195C14.153 11.0557 13.9532 10.9336 14.2087 10.6981L14.1503 10.6423C13.8475 10.644 13.8061 10.3417 13.8327 10.0775C13.9642 10.0388 14.0474 10.1586 14.1843 10.1621C15.0359 10.184 14.7753 10.5187 14.9991 11.1046C15.0947 11.1673 15.109 11.1897 15.1784 11.2802C15.1117 11.3732 15.0529 11.4485 15.0024 11.5531C15.0869 11.7078 15.0957 11.7543 15.1361 11.9301C15.0005 12.0076 15.0419 11.9713 14.9863 12.1639C14.9854 12.0242 14.9628 11.9857 14.9114 11.8589C14.7409 11.7209 14.8015 11.7608 14.5667 11.7275V11.6156L14.5065 11.5634C14.3672 11.6225 14.358 11.6825 14.3236 11.8452L14.2284 11.8925L14.1764 11.7306L14.2826 11.6865C14.3529 11.5579 14.3359 11.6065 14.3148 11.4385L14.176 11.3195Z" fill="#EDD5B4"/>
<path d="M15.1784 11.2802C15.3866 10.9916 14.9918 10.9159 15.1586 10.5829C15.3516 10.5842 15.6177 10.9935 15.7524 11.1425C15.7662 10.9007 15.739 10.8466 15.9151 10.6892C16.0401 10.7446 15.9996 10.7177 16.081 10.8466C16.086 10.9922 16.0649 11.4143 16.0952 11.5096L16.1577 11.4969C16.194 11.378 16.2262 11.2858 16.2395 11.1609C16.4348 11.7123 16.1692 11.3795 16.0948 11.7975C16.2046 12.0215 16.2184 11.8818 16.3484 12.0598C16.2616 12.0151 16.2441 12.0075 16.1494 11.9893C15.893 12.4528 15.4431 12.2109 15.1361 11.9301C15.0957 11.7543 15.0869 11.7078 15.0024 11.5531C15.0529 11.4485 15.1117 11.3732 15.1784 11.2802Z" fill="#FADB93"/>
<path d="M15.2372 11.4404C15.3277 11.4508 15.4206 11.4609 15.5097 11.481C15.6108 11.5038 15.7128 11.571 15.7675 11.667C15.8544 11.8194 15.8273 11.9352 15.7864 12.0913L15.6991 12.0558C15.5662 11.8766 15.2781 11.6325 15.2372 11.4404Z" fill="#EDD5B4"/>
<path d="M14.5667 11.7275C14.8015 11.7608 14.7409 11.7209 14.9114 11.8589C14.9628 11.9857 14.9854 12.0242 14.9863 12.1639C15.0419 11.9713 15.0005 12.0076 15.1361 11.9301C15.4431 12.2109 15.893 12.4528 16.1494 11.9893C16.2441 12.0075 16.2616 12.0151 16.3484 12.0598C16.336 12.1641 16.3245 12.2486 16.3052 12.3523L16.3756 12.442C16.6908 12.4424 16.9771 11.8589 17.2005 12.3627L17.1816 12.409C17.1132 12.3505 17.0185 12.2403 16.956 12.2685C16.7758 12.3493 16.5493 12.4824 16.3778 12.5786C16.1177 12.5109 15.6991 12.3196 15.5451 12.3122C15.4523 12.4067 15.4812 12.4415 15.4661 12.6211C15.3015 12.6395 15.2041 12.6656 15.0561 12.5857C14.9642 12.5199 14.8948 12.3539 14.8378 12.2429C14.7537 11.9464 14.5699 12.1673 14.5667 11.7275Z" fill="#EDD5B4"/>
<path d="M14.5667 11.7275C14.8015 11.7608 14.7409 11.7209 14.9114 11.8589C14.9628 11.9857 14.9854 12.0242 14.9863 12.1639C15.1297 12.2251 15.1876 12.2368 15.2588 12.3797L15.2615 12.4775C15.1558 12.589 15.2091 12.5587 15.0561 12.5857C14.9642 12.5199 14.8948 12.3539 14.8378 12.2429C14.7537 11.9464 14.5699 12.1673 14.5667 11.7275Z" fill="#FADB93"/>
<path d="M14.9863 12.1639C15.0419 11.9713 15.0005 12.0076 15.1361 11.9301C15.3778 12.275 15.4449 12.2242 15.4661 12.6211C15.3015 12.6395 15.2041 12.6656 15.0561 12.5857C15.2091 12.5587 15.1558 12.589 15.2615 12.4775L15.2588 12.3797C15.1876 12.2368 15.1297 12.2251 14.9863 12.1639Z" fill="#FCE9B2"/>
<path d="M14.3236 11.8452C14.358 11.6825 14.3672 11.6225 14.5065 11.5634L14.5667 11.6156V11.7275C14.5699 12.1673 14.7537 11.9464 14.8378 12.2429L14.7804 12.3371L14.842 12.6504L14.8052 12.6818L14.4054 12.3608C14.2399 12.2833 13.8621 12.1907 13.8203 12.1516C13.9168 12.0336 13.989 12.0223 14.1296 12.0371L14.2284 11.8925L14.3236 11.8452Z" fill="#FCE9B2"/>
<path d="M14.2284 11.8925L14.3236 11.8452C14.4201 11.9649 14.4628 12.0032 14.4885 12.1573C14.4692 12.2549 14.4706 12.2938 14.4054 12.3608C14.2399 12.2833 13.8621 12.1907 13.8203 12.1516C13.9168 12.0336 13.989 12.0223 14.1296 12.0371L14.2284 11.8925Z" fill="#FADB93"/>
<path d="M7.2516 13.703L7.38211 13.7473C7.38947 13.9068 7.30353 14.0112 7.23 14.1468C7.11648 14.057 7.04157 14.0193 6.98321 13.8795C7.0572 13.7488 7.1197 13.7519 7.2516 13.703Z" fill="#FCE9B2"/>
<path d="M8.68412 9.80733L8.74341 9.79145C8.98744 9.87841 9.07798 10.0475 9.2278 10.2633L9.25905 10.2472L9.25583 10.2975L9.13635 10.2717C9.0311 10.2985 8.91989 10.3531 8.82108 10.3034C8.87853 10.2058 8.93781 10.1096 8.99893 10.0146C8.91345 9.87245 8.8151 9.91208 8.69561 9.81733C8.69193 9.81413 8.6878 9.81063 8.68412 9.80733Z" fill="#ECE8DD"/>
<path d="M17.3315 4.70402L17.359 4.71058C17.3829 4.91516 17.3508 4.84979 17.4744 4.98703L17.6242 5.03451C17.6472 5.224 17.7033 5.23105 17.7469 5.38683C17.8788 5.85539 17.848 6.23758 17.513 6.60356C17.3259 6.84358 17.2588 6.92635 17.2846 7.2489C17.2855 7.26398 17.2869 7.27911 17.2883 7.2942C17.1366 7.2625 16.9532 7.25441 16.8498 7.14768C16.8608 7.2966 16.8631 7.39455 16.9072 7.53727L16.8029 7.43808L16.7023 7.45618C16.7767 7.72597 16.8356 7.91769 16.8631 8.19804C17.0111 8.55346 17.518 9.23227 17.4937 9.47727C17.4325 9.5487 17.4063 9.55206 17.4054 9.63039C17.7446 10.1419 17.9611 10.757 18.1164 11.3595C17.9381 11.0336 17.0539 10.5517 16.6912 10.5894C16.2786 10.5638 15.642 10.2607 15.2859 10.1323C15.1852 10.096 14.6094 10.1052 14.3327 10.0229C14.0482 9.93553 13.5349 9.90896 13.283 9.7979C12.8363 9.60116 12.6162 9.70108 12.186 9.61097C10.8979 9.34092 9.63633 9.26712 8.33666 9.51129C8.09125 9.55743 7.30538 9.5764 7.21714 9.80815C7.07743 9.80465 6.99885 9.78833 6.89131 9.91492C6.71759 9.78586 6.35499 9.91561 6.1445 9.96688C6.07832 9.56758 6.53421 9.14176 6.4377 8.7435C6.19643 8.73206 5.58197 8.60512 5.31772 8.55834C4.91467 8.36244 4.37192 8.27361 3.94773 8.1163L3.9413 7.91961L3.8912 7.77478L3.80112 7.70448C3.7207 7.7349 3.71473 7.73396 3.66831 7.80697C3.65682 7.62615 3.52676 7.18342 3.39027 7.0484L3.30111 7.05426C3.26802 7.18889 3.25607 7.24785 3.19403 7.3705L3.18118 7.3953L3.22208 6.82756C3.55389 7.05284 3.84618 7.1505 4.21936 7.26595L4.34849 7.23277C4.20649 7.0664 3.49415 7.06295 3.51759 6.72877C3.66465 6.71393 3.8278 6.87991 4.07229 6.933L4.12101 6.86838L3.91649 6.73138C3.64626 6.77565 2.93347 6.33519 2.76159 6.06825C2.66645 5.83951 2.64807 5.50814 2.62142 5.25156C2.96564 5.46565 3.31905 5.66283 3.68028 5.84252C3.61226 5.77291 3.56078 5.69498 3.50334 5.61507C3.66695 5.4869 4.19822 5.65933 4.45558 5.70015C4.90366 5.8926 5.41058 6.08605 5.89681 6.12267C9.13589 6.66217 12.1792 6.83624 15.3723 5.87323C15.904 5.71287 17.1913 5.33985 17.3315 4.70402Z" fill="#CDC5BA"/>
<path d="M10.6143 9.03198C11.396 9.25381 12.5675 9.19525 13.2959 8.83277C14.2711 8.34735 14.8723 7.96407 15.9725 8.37126L16.0037 8.30629C16.1742 8.33596 16.5175 8.54927 16.6444 8.67867C16.6968 8.55582 16.5993 8.47463 16.5598 8.27281L16.66 8.24979C16.717 8.30589 16.734 8.34025 16.7767 8.41001L16.8319 8.33853L16.757 8.35346L16.8493 8.28351L16.8631 8.19804C17.0111 8.55346 17.518 9.23227 17.4937 9.47727C17.4325 9.5487 17.4063 9.55206 17.4054 9.63039C17.7446 10.1419 17.9611 10.757 18.1164 11.3595C17.9381 11.0336 17.0539 10.5517 16.6912 10.5894C16.2786 10.5638 15.642 10.2607 15.2859 10.1323C15.1852 10.096 14.6094 10.1052 14.3327 10.0229C14.0482 9.93553 13.5349 9.90896 13.283 9.7979C12.8363 9.60116 12.6162 9.70108 12.186 9.61097C10.8979 9.34092 9.63633 9.26712 8.33666 9.51129C8.09125 9.55743 7.30538 9.5764 7.21714 9.80815C7.07743 9.80465 6.99885 9.78833 6.89131 9.91492C6.71759 9.78586 6.35499 9.91561 6.1445 9.96688C6.07832 9.56758 6.53421 9.14176 6.4377 8.7435C7.1142 8.74241 7.86146 8.89794 8.46672 8.90874C9.18228 8.9566 9.89829 8.99767 10.6143 9.03198Z" fill="#ECE8DD"/>
<path d="M15.9725 8.37126L16.0037 8.30629C16.1742 8.33596 16.5175 8.54927 16.6444 8.67867C16.6968 8.55582 16.5993 8.47463 16.5598 8.27281L16.66 8.24979C16.717 8.30589 16.734 8.34025 16.7767 8.41001L16.8319 8.33853L16.757 8.35346L16.8493 8.28351L16.8631 8.19804C17.0111 8.55346 17.518 9.23227 17.4937 9.47727C17.4325 9.5487 17.4063 9.55206 17.4054 9.63039C16.8728 8.95483 16.6798 8.77623 15.9725 8.37126Z" fill="#B4B6B0"/>
<path d="M17.3315 4.70402L17.359 4.71058C17.3829 4.91516 17.3508 4.84979 17.4744 4.98703L17.6242 5.03451C17.6472 5.224 17.7033 5.23105 17.7469 5.38683C17.8788 5.85539 17.848 6.23758 17.513 6.60356C17.5043 6.19159 17.9615 5.84138 17.5401 5.23109C17.5465 5.4893 17.6246 6.43727 17.1908 6.29796C17.3783 6.0601 17.5929 5.77024 17.45 5.44848C17.3236 5.42103 17.3553 5.43256 17.2179 5.49295L17.2937 5.70483L17.2703 5.71587C17.1118 5.79183 16.9215 5.90955 16.7606 5.99878C14.9292 7.01473 12.9807 7.15202 10.9636 7.20092C10.8413 7.20388 10.714 7.21625 10.5922 7.20151C10.2857 7.15695 8.62481 7.20279 8.30954 7.26811C7.42257 7.63419 4.21566 6.48218 3.96519 6.58373L3.91649 6.73138C3.64626 6.77565 2.93347 6.33519 2.76159 6.06825C2.66645 5.83951 2.64807 5.50814 2.62142 5.25156C2.96564 5.46565 3.31905 5.66283 3.68028 5.84252C3.61226 5.77291 3.56078 5.69498 3.50334 5.61507C3.66695 5.4869 4.19822 5.65933 4.45558 5.70015C4.90366 5.8926 5.41058 6.08605 5.89681 6.12267C9.13589 6.66217 12.1792 6.83624 15.3723 5.87323C15.904 5.71287 17.1913 5.33985 17.3315 4.70402Z" fill="#DBD3C8"/>
<path d="M17.3315 4.70402L17.359 4.71058C17.3829 4.91516 17.3508 4.84979 17.4744 4.98703L17.6242 5.03451C17.6472 5.224 17.7033 5.23105 17.7469 5.38683C17.8788 5.85539 17.848 6.23758 17.513 6.60356C17.5043 6.19159 17.9615 5.84138 17.5401 5.23109C17.5465 5.4893 17.6246 6.43727 17.1908 6.29796C17.3783 6.0601 17.5929 5.77024 17.45 5.44848C17.3236 5.42103 17.3553 5.43256 17.2179 5.49295C13.972 7.39608 7.4938 7.07793 4.00977 5.97467C3.89764 5.93795 3.78736 5.89384 3.68028 5.84252C3.61226 5.77291 3.56078 5.69498 3.50334 5.61507C3.66695 5.4869 4.19822 5.65933 4.45558 5.70015C4.90366 5.8926 5.41058 6.08605 5.89681 6.12267C9.13589 6.66217 12.1792 6.83624 15.3723 5.87323C15.904 5.71287 17.1913 5.33985 17.3315 4.70402Z" fill="#441307"/>
<path d="M2.76159 6.06825C4.2598 6.23452 6.90601 7.32283 8.30954 7.26811C7.42257 7.63419 4.21566 6.48218 3.96519 6.58373L3.91649 6.73138C3.64626 6.77565 2.93347 6.33519 2.76159 6.06825Z" fill="#A19181"/>
<path d="M3.22208 6.82756C3.55389 7.05284 3.84618 7.1505 4.21936 7.26595L4.21018 7.3049C4.45605 7.35104 4.85312 7.47059 5.0944 7.56425C5.43494 7.60487 6.1482 7.86969 6.62248 7.92835C9.56697 8.2924 12.8465 8.40539 15.6857 7.38831C15.8774 7.37589 16.3535 7.14947 16.5534 7.06059C16.5948 7.21641 16.6053 7.35591 16.7023 7.45618C16.7767 7.72597 16.8356 7.91769 16.8631 8.19804L16.8493 8.28351L16.757 8.35346L16.8319 8.33853L16.7767 8.41001C16.734 8.34025 16.717 8.30589 16.66 8.24979L16.5598 8.27281C16.5993 8.47463 16.6968 8.55582 16.6444 8.67867C16.5175 8.54927 16.1742 8.33596 16.0037 8.30629L15.9725 8.37126C14.8723 7.96407 14.2711 8.34735 13.2959 8.83277C12.5675 9.19525 11.396 9.25381 10.6143 9.03198C9.89829 8.99767 9.18228 8.9566 8.46672 8.90874C7.86146 8.89794 7.1142 8.74241 6.4377 8.7435C6.19643 8.73206 5.58197 8.60512 5.31772 8.55834C4.91467 8.36244 4.37192 8.27361 3.94773 8.1163L3.9413 7.91961L3.8912 7.77478L3.80112 7.70448C3.7207 7.7349 3.71473 7.73396 3.66831 7.80697C3.65682 7.62615 3.52676 7.18342 3.39027 7.0484L3.30111 7.05426C3.26802 7.18889 3.25607 7.24785 3.19403 7.3705L3.18118 7.3953L3.22208 6.82756Z" fill="#C6C4C0"/>
<path d="M8.46672 8.90874C8.64136 8.88468 9.00904 8.89003 9.09957 8.83157L9.04535 8.70562C9.46999 8.5108 10.4374 8.46056 10.641 8.97448L10.6143 9.03198C9.89829 8.99767 9.18228 8.9566 8.46672 8.90874Z" fill="#DBD3C8"/>
<path d="M4.21018 7.3049C4.45605 7.35104 4.85312 7.47059 5.0944 7.56425C4.8931 7.60418 4.23223 7.79226 4.13985 7.56791C4.21155 7.50102 4.22855 7.48031 4.28507 7.39838L4.1711 7.34539L4.21018 7.3049Z" fill="#DBD3C8"/>
<path d="M3.8912 7.77478C4.0663 7.79257 4.17848 7.79148 4.3545 7.82924L4.39035 7.88188C4.2534 7.96722 4.10077 7.93376 3.9413 7.91961L3.8912 7.77478Z" fill="#DBD3C8"/>
<path d="M17.1908 6.29796C17.6246 6.43727 17.5465 5.4893 17.5401 5.23109C17.9615 5.84138 17.5043 6.19159 17.513 6.60356C17.3259 6.84358 17.2588 6.92635 17.2846 7.2489C17.2855 7.26398 17.2869 7.27911 17.2883 7.2942C17.1366 7.2625 16.9532 7.25441 16.8498 7.14768C16.8608 7.2966 16.8631 7.39455 16.9072 7.53727L16.8029 7.43808L16.7023 7.45618C16.6053 7.35591 16.5948 7.21641 16.5534 7.06059C16.3535 7.14947 15.8774 7.37589 15.6857 7.38831C12.8465 8.40539 9.56697 8.2924 6.62248 7.92835C6.1482 7.86969 5.43494 7.60487 5.0944 7.56425C4.85312 7.47059 4.45605 7.35104 4.21018 7.3049L4.21936 7.26595L4.34849 7.23277C4.20649 7.0664 3.49415 7.06295 3.51759 6.72877C3.66465 6.71393 3.8278 6.87991 4.07229 6.933L4.12101 6.86838C7.58803 7.87619 10.772 8.06097 14.3033 7.37112C14.5699 7.31901 14.9187 7.21061 15.1715 7.18488C15.7933 7.01293 16.6476 6.66186 17.1908 6.29796Z" fill="#705236"/>
<path d="M17.1908 6.29796C17.6246 6.43727 17.5465 5.4893 17.5401 5.23109C17.9615 5.84138 17.5043 6.19159 17.513 6.60356C17.3259 6.84358 17.2588 6.92635 17.2846 7.2489C17.2855 7.26398 17.2869 7.27911 17.2883 7.2942C17.1366 7.2625 16.9532 7.25441 16.8498 7.14768C16.8608 7.2966 16.8631 7.39455 16.9072 7.53727L16.8029 7.43808L16.7023 7.45618C16.6053 7.35591 16.5948 7.21641 16.5534 7.06059C16.3535 7.14947 15.8774 7.37589 15.6857 7.38831C15.1664 7.30732 13.9012 8.04485 13.7532 7.60508C13.8539 7.453 14.8682 7.49737 15.1715 7.18488C15.7933 7.01293 16.6476 6.66186 17.1908 6.29796Z" fill="#703913"/>
<path d="M16.5534 7.06059L16.739 6.94006C16.8314 6.99443 16.8098 7.00975 16.8498 7.14768C16.8608 7.2966 16.8631 7.39455 16.9072 7.53727L16.8029 7.43808L16.7023 7.45618C16.6053 7.35591 16.5948 7.21641 16.5534 7.06059Z" fill="#B4B6B0"/>
<path d="M17.2937 5.70483C17.3236 5.96403 16.9633 6.11112 16.7726 6.21933C15.813 6.76316 14.7643 7.08172 13.6834 7.1809C13.0537 7.24918 10.9618 7.44094 10.4011 7.31701C10.4489 7.23419 10.4884 7.24238 10.5922 7.20151C10.714 7.21625 10.8413 7.20388 10.9636 7.20092C12.9807 7.15202 14.9292 7.01473 16.7606 5.99878C16.9215 5.90955 17.1118 5.79183 17.2703 5.71587L17.2937 5.70483Z" fill="#7B6D5C"/>
<path d="M16.8498 7.14768C16.9532 7.25441 17.1366 7.2625 17.2883 7.2942C18.0392 8.33514 18.8255 9.17214 19.3338 10.3964C20.0448 12.1092 19.9115 14.1379 19.9198 15.9799L19.9409 20.7098L19.9441 24.4772C19.9414 25.2058 19.9575 27.4222 19.695 27.9756C18.3499 30.8122 14.9031 31.7845 12.1493 31.9065C11.4099 31.9392 10.8767 32.0263 10.2412 31.9922L10.2209 31.9305C10.4356 31.7389 11.4452 31.9443 11.7922 31.8164L11.8028 31.765L11.5418 31.5793C11.2145 31.5823 10.0486 31.6622 9.83765 31.5191C8.33439 31.4918 6.83802 31.2955 5.37289 30.9335C5.4786 30.8716 5.508 30.8837 5.62336 30.9007C5.69551 30.8522 5.63852 30.6442 5.67575 30.5248C6.06455 30.0764 7.0007 30.9426 7.37709 30.7753L7.37617 30.6383C7.47636 30.5958 7.57011 30.5896 7.67627 30.5931C8.18824 30.6101 8.70756 30.7106 9.22044 30.7489C10.1106 30.8154 11.0008 30.8361 11.8929 30.9091C12.2008 30.9344 12.5064 30.9308 12.8111 30.8734C13.2068 30.799 13.5804 30.6371 13.9614 30.5053C15.1641 30.0892 16.4399 29.6984 17.4137 28.7944C18.4367 27.8448 18.5939 26.9299 18.6854 25.5335C18.7805 24.7331 18.7681 23.5927 18.7883 22.764C18.832 21.0015 18.8104 19.2172 18.7796 17.4531C18.7336 16.2322 18.8407 15.0092 18.7759 13.7894C18.673 11.8551 18.2699 11.3133 16.6912 10.5894C17.0539 10.5517 17.9381 11.0336 18.1164 11.3595C17.9611 10.757 17.7446 10.1419 17.4054 9.63039C17.4063 9.55206 17.4325 9.5487 17.4937 9.47727C17.518 9.23227 17.0111 8.55346 16.8631 8.19804C16.8356 7.91769 16.7767 7.72597 16.7023 7.45618L16.8029 7.43808L16.9072 7.53727C16.8631 7.39455 16.8608 7.2966 16.8498 7.14768Z" fill="#DBD3C8"/>
<path d="M16.8498 7.14768C16.9532 7.25441 17.1366 7.2625 17.2883 7.2942C18.0392 8.33514 18.8255 9.17214 19.3338 10.3964C20.0448 12.1092 19.9115 14.1379 19.9198 15.9799L19.9409 20.7098L19.9441 24.4772C19.9414 25.2058 19.9575 27.4222 19.695 27.9756C18.3499 30.8122 14.9031 31.7845 12.1493 31.9065C11.4099 31.9392 10.8767 32.0263 10.2412 31.9922L10.2209 31.9305C10.4356 31.7389 11.4452 31.9443 11.7922 31.8164L11.8028 31.765L11.5418 31.5793C11.2145 31.5823 10.0486 31.6622 9.83765 31.5191C12.2973 31.4347 14.3828 31.4526 16.6637 30.2622C19.5746 28.743 19.542 26.956 19.5452 23.9705L19.5572 20.6735C19.5719 18.9621 19.5664 17.2506 19.5397 15.5393C19.491 12.9617 19.4138 10.828 17.7368 8.76602C17.4647 8.4317 17.0833 7.92577 16.9072 7.53727C16.8631 7.39455 16.8608 7.2966 16.8498 7.14768Z" fill="#663E16"/>
<path d="M7.21714 9.80815C7.30538 9.5764 8.09125 9.55743 8.33666 9.51129C9.63633 9.26712 10.8979 9.34092 12.186 9.61097C12.6162 9.70108 12.8363 9.60116 13.283 9.7979C13.5349 9.90896 14.0482 9.93553 14.3327 10.0229C14.6094 10.1052 15.1852 10.096 15.2859 10.1323C15.642 10.2607 16.2786 10.5638 16.6912 10.5894C18.2699 11.3133 18.673 11.8551 18.7759 13.7894C18.8407 15.0092 18.7336 16.2322 18.7796 17.4531C18.8104 19.2172 18.832 21.0015 18.7883 22.764C18.7681 23.5927 18.7805 24.7331 18.6854 25.5335C18.5939 26.9299 18.4367 27.8448 17.4137 28.7944C16.4399 29.6984 15.1641 30.0892 13.9614 30.5053C13.5804 30.6371 13.2068 30.799 12.8111 30.8734C12.5064 30.9308 12.2008 30.9344 11.8929 30.9091C11.0008 30.8361 10.1106 30.8154 9.22044 30.7489C8.70756 30.7106 8.18824 30.6101 7.67627 30.5931C7.57011 30.5896 7.47636 30.5958 7.37617 30.6383L7.37709 30.7753C7.0007 30.9426 6.06455 30.0764 5.67575 30.5248C5.63852 30.6442 5.69551 30.8522 5.62336 30.9007C5.508 30.8837 5.4786 30.8716 5.37289 30.9335C4.2451 30.7092 2.54008 29.8142 1.76111 28.9288L1.83276 28.8258C1.84563 28.8175 1.8585 28.8092 1.87182 28.8013C2.05749 28.6917 2.18387 28.7692 2.37092 28.8294C2.44675 28.7324 2.40539 28.5735 2.39758 28.4477C2.71928 28.7729 2.99548 28.9484 3.37739 29.1695C3.31489 29.0549 3.20689 28.908 3.21148 28.7764C4.74922 29.6004 6.40828 30.1317 8.11514 30.3462C10.9002 30.6988 15.0772 30.4804 17.3549 28.5379C18.3145 27.7192 18.4523 26.7109 18.581 25.4759C18.6164 25.1014 18.5989 24.3637 18.5998 23.9646L18.61 21.1307C18.627 19.3784 18.6343 17.626 18.632 15.8737C18.6201 14.4839 18.8223 12.1716 17.7193 11.2827C17.5033 11.1088 16.8388 10.6807 16.5828 10.717C16.3245 10.6906 16.0943 10.5228 15.8521 10.4519C15.6315 10.3872 15.284 10.6088 15.1393 10.3299C15.2105 10.3024 15.2813 10.2753 15.3525 10.2487C14.8769 10.1572 14.369 10.0386 13.8906 9.95534C13.795 9.93873 13.5864 10.0955 13.4991 10.0739C13.2431 10.0102 12.994 9.87839 12.7329 9.83422C12.3161 9.76363 12.3933 10.0177 12.2573 10.1193C12.0633 9.45794 12.6309 9.89649 12.8874 9.72917C12.7113 9.71054 12.0298 9.60702 11.9351 9.64438L12.1286 9.77369L12.0454 9.7241C11.6001 9.60859 11.1424 9.584 10.6888 9.50596C10.2172 9.4964 9.37576 9.46228 8.9263 9.56083C8.4318 9.5836 7.7406 9.75392 7.21714 9.80815Z" fill="#C1AA88"/>
<path d="M2.39758 28.4477C2.71928 28.7729 2.99548 28.9484 3.37739 29.1695C3.7524 29.349 7.33803 30.7234 7.37709 30.7753C7.0007 30.9426 6.06455 30.0764 5.67575 30.5248C5.63852 30.6442 5.69551 30.8522 5.62336 30.9007C5.508 30.8837 5.4786 30.8716 5.37289 30.9335C4.2451 30.7092 2.54008 29.8142 1.76111 28.9288L1.83276 28.8258C1.84563 28.8175 1.8585 28.8092 1.87182 28.8013C2.05749 28.6917 2.18387 28.7692 2.37092 28.8294C2.44675 28.7324 2.40539 28.5735 2.39758 28.4477Z" fill="#CABEAD"/>
<path d="M2.30753 5.38431L2.55478 5.1958C2.56443 5.71425 2.54283 6.25252 3.05066 6.47396C3.0502 6.67587 3.07226 7.30051 3.04468 7.45831L3.13798 7.47497C3.05388 7.77355 2.75884 8.37 2.54376 8.53115C1.75007 9.70672 1.28729 10.4127 0.858963 11.7943C0.697653 12.3753 0.594247 13.0601 0.576324 13.6694C0.513822 15.8003 0.528987 17.9807 0.528987 20.1135L0.543236 23.867C0.551049 25.0284 0.481653 26.4629 0.841959 27.553C0.838282 27.7778 0.99775 27.9913 0.969256 28.1916C0.821733 28.2079 0.662264 28.0839 0.535421 28.0102C0.456834 27.8523 0.381923 27.6511 0.247268 27.5411C-0.0918976 26.8256 0.0188598 23.2932 0.0119662 22.3292C-0.011472 20.6772 0.0101273 18.6845 0.0399996 17.0307C0.0344847 16.2081 0.0905518 15.3794 0.0965262 14.607C0.11445 12.2603 0.411338 10.6531 1.69768 8.68997C1.89806 8.29309 2.66463 7.70696 2.7138 7.27616C2.81812 6.36807 2.18896 6.45863 2.30753 5.38431Z" fill="#6A360E"/>
<path d="M0.0399996 17.0307L0.0473592 17.0152C0.206372 16.6758 0.115836 16.1973 0.168227 16.1489C0.163172 16.4135 0.287717 17.0156 0.278066 17.3054C0.253709 18.0647 0.381468 21.7239 0.224294 22.1958L0.194421 22.2057C0.172821 22.0048 0.158573 21.8359 0.148003 21.6328C0.127782 21.9172 0.148 22.0895 0.0119662 22.3292C-0.011472 20.6772 0.0101273 18.6845 0.0399996 17.0307Z" fill="#703913"/>
<path d="M0.858963 11.7943C0.748206 11.4638 1.08002 10.4545 1.20778 10.1329C1.39391 9.6648 2.11451 8.69821 2.54376 8.53115C1.75007 9.70672 1.28729 10.4127 0.858963 11.7943Z" fill="#705236"/>
<path d="M3.66831 7.80697C3.71473 7.73396 3.7207 7.7349 3.80112 7.70448L3.8912 7.77478L3.9413 7.91961L3.94773 8.1163C4.37192 8.27361 4.91467 8.36244 5.31772 8.55834C4.79426 8.94423 4.11961 10.0017 3.87787 10.6263C2.87416 11.1471 2.43711 11.1183 1.71972 12.2466L1.54462 12.2473C1.76245 11.4307 1.94766 10.7003 2.36955 9.96272C2.80155 9.20617 3.37556 8.63697 3.66831 7.80697Z" fill="#ECE8DD"/>
<path d="M3.66831 7.80697C3.71473 7.73396 3.7207 7.7349 3.80112 7.70448L3.8912 7.77478L3.9413 7.91961L3.94773 8.1163C3.42152 8.28406 1.85023 11.0678 1.92376 11.5062C2.18204 11.5647 3.32592 10.4604 3.87787 10.6263C2.87416 11.1471 2.43711 11.1183 1.71972 12.2466L1.54462 12.2473C1.76245 11.4307 1.94766 10.7003 2.36955 9.96272C2.80155 9.20617 3.37556 8.63697 3.66831 7.80697Z" fill="#CABEAD"/>
<path d="M3.87787 10.6263C3.60351 10.9766 3.3742 12.464 3.31537 12.9558C3.30159 13.0716 3.4583 13.1774 3.40821 13.3317L3.21564 13.2825C3.13568 13.1303 1.98259 12.4273 1.71972 12.2466C2.43711 11.1183 2.87416 11.1471 3.87787 10.6263Z" fill="#F8EFDB"/>
<path d="M1.45548 27.076C1.30244 26.2371 1.10758 21.6817 1.29095 20.9677L1.35667 20.9945C1.41044 21.8454 1.43986 22.698 1.44537 23.5509C1.46651 25.0562 1.28636 27.0702 2.45275 28.1736C2.68806 28.3961 2.95045 28.5906 3.21148 28.7764C3.20689 28.908 3.31489 29.0549 3.37739 29.1695C2.99548 28.9484 2.71928 28.7729 2.39758 28.4477C1.9835 28.1195 1.71284 27.5428 1.45548 27.076Z" fill="#C1AA88"/>
<path d="M1.54462 12.2473L1.71972 12.2466C1.98259 12.4273 3.13568 13.1303 3.21564 13.2825C2.86729 13.3552 2.06579 12.7119 1.75374 12.4931C1.42744 14.2472 1.56991 15.7806 1.34105 17.3256L1.31117 17.3982C1.20225 15.8454 1.23854 13.758 1.54462 12.2473Z" fill="#C1AA88"/>
<path d="M15.9445 13.2797C16.3333 13.0979 17.5562 12.5075 17.9753 12.2336C17.9799 12.2304 18.0364 12.2448 18.0498 12.2472C18.0769 13.1169 16.2018 13.269 15.9408 13.5117C15.7138 13.6223 14.7436 13.9427 14.5556 13.7822L15.2707 13.5064C15.4931 13.4241 15.7179 13.3486 15.9445 13.2797Z" fill="#C1AA88"/>
<path d="M14.2362 13.8519L14.3483 13.8949L14.3695 13.9728C13.13 14.5954 9.54487 14.7485 8.14639 14.5571L8.02645 14.4525C8.14548 14.4463 8.32563 14.4699 8.4488 14.4801C10.4365 14.6432 12.3138 14.4981 14.2362 13.8519Z" fill="#C1AA88"/>
<path d="M1.45548 27.076C1.71284 27.5428 1.9835 28.1195 2.39758 28.4477C2.40539 28.5735 2.44675 28.7324 2.37092 28.8294C2.18387 28.7692 2.05749 28.6917 1.87182 28.8013C1.8585 28.8092 1.84563 28.8175 1.83276 28.8258C1.71833 28.2156 1.47157 27.7183 1.45548 27.076Z" fill="#CABEAD"/>
<path d="M4.70695 13.7998C4.78049 13.7874 7.85825 14.4647 7.84308 14.4514L7.8233 14.5194C6.6013 14.3424 5.89679 14.1949 4.70695 13.7998Z" fill="#CABEAD"/>
<path d="M14.5588 16.8366C14.8612 16.8052 15.1636 16.8208 15.4665 16.8315C15.5837 16.9714 15.7161 17.1162 15.8015 17.2811C15.9794 17.6235 15.9031 17.9304 15.808 18.28C15.7013 18.3895 15.5713 18.479 15.4518 18.5723C15.5662 18.8371 15.7239 19.0771 15.8535 19.3335C15.9422 19.5096 16.0773 19.7377 16.0217 19.9385C15.9146 19.9911 15.8282 20.0036 15.7115 20.0113C15.6085 19.954 15.4619 19.5356 15.3783 19.4023C15.2546 19.1934 15.1126 18.8992 14.9316 18.7483C14.8833 18.7082 14.8415 18.7145 14.7817 18.7252C14.2082 18.8283 14.7358 19.6827 14.4904 20.0521C14.4311 20.0769 14.3594 20.1134 14.2955 20.1156C14.1921 20.1191 14.1645 20.0853 14.091 20.0135C13.9554 19.6475 14.0317 17.4304 14.0322 16.8749L14.5588 16.8366Z" fill="#945B12"/>
<path d="M14.5134 17.3082C14.7551 17.3065 15.0318 17.2805 15.2487 17.4144C15.3282 17.4637 15.3911 17.5429 15.4141 17.6382C15.4527 17.7962 15.4008 18.0139 15.3277 18.1545C15.0616 18.2201 14.7988 18.2453 14.5271 18.2674L14.5134 17.3082Z" fill="#EDD5B4"/>
<path d="M12.3786 16.8357C12.4374 16.8603 12.5 16.8876 12.55 16.9298C12.7251 17.0766 13.6714 19.681 13.7137 20.0206C13.6516 20.112 13.6149 20.1558 13.5096 20.1916C13.2454 20.1491 13.1686 19.7833 13.011 19.5992C12.9205 19.4934 12.8088 19.5234 12.6852 19.5204L11.9627 19.5253C11.9273 19.6853 11.8933 19.8472 11.8501 20.005C11.8101 20.1514 11.7554 20.1914 11.6369 20.2597C11.5243 20.2625 11.4328 20.2694 11.3303 20.2108C11.329 20.2048 11.3271 20.1989 11.3253 20.1929C11.2343 19.8051 12.1498 17.2392 12.3786 16.8357Z" fill="#945B12"/>
<path d="M12.4154 17.8815C12.4618 17.9147 12.4815 17.941 12.5082 17.9939C12.6291 18.2356 12.8538 18.7199 12.7784 18.986L12.6851 18.9993C12.5859 19.005 12.4645 19.022 12.3667 19.004C12.2734 18.9866 12.2711 18.9656 12.2164 18.8863C12.1681 18.6281 12.3579 18.1467 12.4154 17.8815Z" fill="#ECE8DD"/>
<path d="M10.9857 18.7822L10.9811 18.8159C10.9328 19.1957 11.0321 19.513 10.8473 19.8686C10.6456 20.256 10.3533 20.4684 9.9268 20.4007C9.60004 20.3478 9.30684 20.1554 9.11428 19.8671C8.39734 18.8126 8.93642 16.4336 10.5178 17.1639C10.8427 17.3141 10.9438 17.6707 10.9011 18.023L10.84 18.1112C10.5054 18.1277 10.0945 17.1954 9.64141 17.7549C9.27283 18.2099 9.16253 19.2012 9.60464 19.6305C9.73654 19.7604 9.91347 19.8248 10.0918 19.8077C10.4751 19.7704 10.6336 19.3662 10.4006 19.0405C10.192 19.0268 10.0564 19.0552 9.97138 18.8272L10.0325 18.7116C10.3344 18.5071 10.737 18.4811 10.9857 18.7822Z" fill="#945B12"/>
<path d="M10.4006 19.0405C10.192 19.0268 10.0564 19.0552 9.97138 18.8272L10.0325 18.7116C10.3344 18.5071 10.737 18.4811 10.9857 18.7822C10.7577 18.9412 10.5233 18.9481 10.4006 19.0405Z" fill="#703913"/>
<path d="M6.40459 16.9105C6.52776 16.9067 6.63668 16.8939 6.74652 16.9627C6.93264 17.2124 6.80075 18.4063 6.81637 18.7857C6.8274 19.0514 6.85957 19.4277 7.05856 19.6114C7.14634 19.6924 7.25343 19.7151 7.36648 19.7012C8.40374 19.5733 7.52457 17.6738 7.97863 17.115C8.0563 17.0191 8.09307 16.997 8.21072 16.9893C8.23921 17.0132 8.26679 17.0373 8.29206 17.0655C8.44096 17.2322 8.42764 17.4404 8.42534 17.6544C8.42396 18.1609 8.45337 18.7228 8.38168 19.2217C8.33526 19.5421 8.23967 19.9003 7.98001 20.0959C7.78515 20.2428 7.53698 20.2632 7.30857 20.2177C6.8467 20.1259 6.59945 19.8384 6.34668 19.4403C6.28648 18.879 6.21754 17.3988 6.40459 16.9105Z" fill="#945B12"/>
<path d="M4.54658 16.8356C4.63665 16.8253 4.72673 16.8174 4.81727 16.8119C5.14173 16.7924 5.58797 16.8487 5.8343 17.0973C5.90048 17.1642 5.95333 17.2565 5.95241 17.357C5.95149 17.4719 5.93587 17.5054 5.86188 17.5869C5.57648 17.6207 5.26213 17.2998 4.96295 17.2698C4.85403 17.2589 4.75844 17.2841 4.67664 17.3644C4.58748 17.4522 4.5645 17.6023 4.56082 17.7252C4.65504 18.0035 5.27178 18.1988 5.5149 18.3384C5.72263 18.4578 5.93495 18.6154 6.0025 18.871C6.0673 19.1155 6.00389 19.431 5.88624 19.647C5.74928 19.8969 5.5535 20.0038 5.30304 20.0718C5.05441 20.0865 4.81589 20.0951 4.57599 20.0105C4.35999 19.9345 4.15364 19.8124 4.05162 19.5837C3.99325 19.4523 3.95832 19.2597 4.01163 19.1207C4.03921 19.0489 4.05897 19.054 4.12331 19.0267C4.32092 19.0823 4.57783 19.4343 4.73224 19.5893C4.89861 19.5683 5.0829 19.5495 5.24099 19.4887C5.35635 19.4443 5.43631 19.3792 5.48594 19.2585C5.48089 18.6898 4.35677 18.4346 4.09298 17.8929C4.01761 17.7382 3.98635 17.5862 4.03691 17.4175C4.09757 17.2139 4.3701 16.9309 4.54658 16.8356Z" fill="#945B12"/>
<path d="M12.3396 26.7642C12.4986 26.7075 12.5491 26.6806 12.7118 26.7228C12.7968 26.8207 12.807 26.851 12.8235 26.9838C12.7798 27.1131 12.7412 27.1659 12.6346 27.2426L12.5376 27.2121C12.4577 27.2909 12.4011 27.3358 12.4011 27.4632C12.4016 27.5543 12.4531 27.6664 12.4053 27.7413L12.5597 27.743L12.6011 27.581L12.6672 27.5629C12.8552 27.8397 12.8525 28.2046 12.8313 28.532C12.807 28.5517 12.7752 28.5853 12.7467 28.5952L12.5409 28.7445C12.5183 28.8424 12.5252 28.8836 12.442 28.939L12.2343 28.8351C11.9586 28.992 11.9862 29.3942 11.6157 29.4993C11.5371 29.4618 11.5031 29.3966 11.4553 29.3232L11.3345 29.3207L11.2807 29.3832L11.3069 29.5521C11.1176 29.6777 10.7738 29.4957 10.6212 29.622L10.5114 29.6479C10.5118 29.4921 10.5307 29.3367 10.5573 29.1839C10.6929 29.0499 10.7522 29.133 10.8905 29.052C10.9278 29.03 10.8221 28.7514 10.8974 28.4823C10.9608 28.3716 10.9949 28.3109 11.1143 28.2665C11.3129 28.34 11.4553 28.5925 11.5454 28.7911C11.5491 28.7733 11.5509 28.7603 11.5565 28.7436C11.5932 28.6338 11.6571 28.5486 11.7564 28.5002C11.8593 28.5566 11.8901 28.6352 11.954 28.7373L12.005 28.7093C12.0312 28.4904 11.886 28.3641 11.7881 28.1709C11.7899 27.9913 11.8501 28.0197 11.9407 27.8868C12.1194 27.6244 11.8382 27.5114 11.8055 27.277C11.8703 27.1423 12.2045 26.8535 12.3396 26.7642Z" fill="#EDD5B4"/>
<path d="M12.5597 27.743L12.6011 27.581L12.6672 27.5629C12.8552 27.8397 12.8525 28.2046 12.8313 28.532C12.807 28.5517 12.7752 28.5853 12.7467 28.5952L12.5409 28.7445C12.4076 28.6505 12.3543 28.6904 12.2003 28.7177C12.1029 28.644 12.0445 28.4846 11.9949 28.3697C11.9448 28.2535 11.857 28.0489 11.8998 27.9266C12.0523 27.9982 12.1047 28.2484 12.2697 28.3534C12.3681 28.3697 12.4273 28.3803 12.5193 28.3249C12.505 28.1981 12.3046 28.001 12.2293 27.8777L12.2555 27.7954L12.4053 27.7413L12.5597 27.743Z" fill="#C1AA88"/>
<path d="M12.5597 27.743L12.6011 27.581L12.6672 27.5629C12.8552 27.8397 12.8525 28.2046 12.8313 28.532C12.807 28.5517 12.7752 28.5853 12.7467 28.5952C12.7399 28.2976 12.6608 28.0173 12.5597 27.743Z" fill="#EDD5B4"/>
<path d="M10.8974 28.4823C10.9608 28.3716 10.9949 28.3109 11.1143 28.2665C11.3129 28.34 11.4553 28.5925 11.5454 28.7911C11.4595 28.8488 11.385 28.8831 11.2876 28.9128C11.1249 28.8139 11.112 28.6094 10.9282 28.4999C10.9181 28.4939 10.9075 28.4881 10.8974 28.4823Z" fill="#FCE9B2"/>
<path d="M12.3396 26.7642C12.4986 26.7075 12.5491 26.6806 12.7118 26.7228C12.7968 26.8207 12.807 26.851 12.8235 26.9838C12.7798 27.1131 12.7412 27.1659 12.6346 27.2426L12.5376 27.2121L12.5533 27.0813C12.4489 27.0766 12.3593 27.0736 12.261 27.0315C12.2513 26.9123 12.3193 26.8694 12.3892 26.7798L12.3396 26.7642Z" fill="#FADB93"/>
<path d="M12.3396 26.7642C12.4986 26.7075 12.5491 26.6806 12.7118 26.7228C12.7968 26.8207 12.807 26.851 12.8235 26.9838C12.7798 27.1131 12.7412 27.1659 12.6346 27.2426L12.5376 27.2121L12.5533 27.0813C12.6323 27.0389 12.6741 26.9791 12.727 26.9068L12.715 26.8029C12.5799 26.7253 12.5367 26.7534 12.3892 26.7798L12.3396 26.7642Z" fill="#FCE9B2"/>
<path d="M12.7771 24.2936C12.8653 24.2784 13.0878 24.2208 13.1599 24.2706C13.3065 24.3717 13.3152 24.4837 13.5005 24.5469C13.5717 24.5226 13.6342 24.4907 13.7004 24.453C13.6494 24.3866 13.5951 24.3325 13.5345 24.277L13.5492 24.2203L13.7642 24.1826L13.8212 24.0936C13.7813 24.0657 13.7403 24.0385 13.6994 24.012L13.7514 24.0188C13.9067 24.2957 14.0257 24.5964 14.1558 24.8875L14.1949 24.9924L14.2284 25.0059C14.3383 25.0507 14.3906 25.0855 14.4559 25.191L14.4274 25.2408L14.41 25.2402C14.2293 25.2357 14.1117 25.2716 13.9462 25.3429C13.3589 25.4136 13.3116 25.6769 12.8616 26.0163C12.9085 26.1626 12.9788 26.2896 12.937 26.4403C12.8065 26.4685 12.6452 26.4655 12.516 26.4305L12.5147 26.4631L12.4701 26.4907C12.483 26.3197 12.4866 25.9557 12.6011 25.8395C12.6585 25.8439 12.7091 25.8513 12.7642 25.8695L12.7794 25.8746L12.8442 25.8096C12.7638 25.7279 12.6493 25.6246 12.5979 25.5192C12.5432 25.4073 12.5717 25.3247 12.6011 25.2129C12.7256 25.1003 12.8355 25.1219 12.9917 25.0966C13.0197 24.7704 12.664 24.7715 12.6194 24.504C12.6934 24.3592 12.7008 24.1551 12.7238 23.9928L12.7252 24.0606L12.7697 24.0949L12.7771 24.2936Z" fill="#EDD5B4"/>
<path d="M13.6292 24.5533C13.7468 24.5585 13.8029 24.5572 13.8893 24.6555C13.9977 24.779 13.9931 24.8513 14.1558 24.8875L14.1949 24.9924L14.2284 25.0059C14.3383 25.0507 14.3906 25.0855 14.4559 25.191L14.4274 25.2408L14.41 25.2402C14.2293 25.2357 14.1117 25.2716 13.9462 25.3429L13.8295 25.1704C13.7358 25.1785 13.6806 25.1589 13.5956 25.1217C13.5349 24.9519 13.603 24.7333 13.6292 24.5533Z" fill="#FADB93"/>
<path d="M13.3502 24.6802C13.369 24.897 13.3148 25.239 13.2307 25.4385L13.1516 25.4544C13.1456 25.4462 13.1397 25.438 13.1337 25.4298C12.9871 25.2247 12.9618 24.7748 13 24.5244C13.0202 24.391 13.0588 24.3723 13.1548 24.2971C13.2127 24.4303 13.2665 24.5627 13.3502 24.6802Z" fill="#FADB93"/>
<path d="M12.7771 24.2936C12.8653 24.2784 13.0878 24.2208 13.1599 24.2706C13.3065 24.3717 13.3152 24.4837 13.5005 24.5469C13.5717 24.5226 13.6342 24.4907 13.7004 24.453C13.6494 24.3866 13.5951 24.3325 13.5345 24.277L13.5492 24.2203L13.7642 24.1826L13.8212 24.0936C13.7813 24.0657 13.7403 24.0385 13.6994 24.012L13.7514 24.0188C13.9067 24.2957 14.0257 24.5964 14.1558 24.8875C13.9931 24.8513 13.9977 24.779 13.8893 24.6555C13.8029 24.5572 13.7468 24.5585 13.6292 24.5533L13.3502 24.6802C13.2665 24.5627 13.2127 24.4303 13.1548 24.2971C13.0137 24.3318 12.9182 24.3284 12.7771 24.2936Z" fill="#EDD5B4"/>
<path d="M12.516 26.4305L12.63 26.2917C12.6415 26.1858 12.6328 26.0868 12.6236 25.9812C12.716 25.9347 12.7688 25.981 12.8616 26.0163C12.9085 26.1626 12.9788 26.2896 12.937 26.4403C12.8065 26.4685 12.6452 26.4655 12.516 26.4305Z" fill="#FADB93"/>
<path d="M14.131 22.9488C14.256 22.9841 14.4109 23.0076 14.4968 23.1183C14.5253 23.3506 14.3897 23.5991 14.2748 23.7944C14.2431 23.8477 14.2008 23.8662 14.1503 23.8938C14.0896 23.7772 14.2252 23.507 14.2316 23.3537C14.1448 23.2065 14.1144 23.1234 14.131 22.9488Z" fill="#EDD5B4"/>
<path d="M11.4452 27.5C11.4848 27.5004 11.5119 27.5038 11.55 27.518C11.647 27.5546 11.6442 27.5624 11.687 27.659C11.6672 27.8179 11.567 27.9391 11.4806 28.0638C11.4498 28.0619 11.414 28.0597 11.3855 28.0465C11.2867 28.0002 11.2756 27.9596 11.2485 27.8577C11.2784 27.7025 11.3487 27.6165 11.4452 27.5Z" fill="#FADB93"/>
<path d="M12.17 25.6795C12.2555 25.7642 12.2803 25.7778 12.2996 25.9062C12.1989 26.108 11.9609 26.2115 11.7702 26.2866L11.7325 26.2986L11.6911 26.2698C11.7752 26.0536 12.0151 25.8468 12.17 25.6795Z" fill="#FADB93"/>
<path d="M10.6212 29.622L10.522 29.7102C10.1139 29.7934 9.79261 29.6076 9.39922 29.5176L9.38543 29.4855C9.9576 29.6019 9.78112 29.3391 10.2136 29.2631L10.2669 29.3387L10.2453 29.4292L9.91532 29.542L9.89464 29.6005C10.0582 29.7411 10.3096 29.6717 10.5114 29.6479L10.6212 29.622Z" fill="#FADB93"/>
<path d="M8.34632 24.1125C8.46903 24.1493 8.55267 24.1836 8.64872 24.275C8.68365 24.4234 8.66159 24.4477 8.6092 24.5851L8.44651 24.5909L8.36563 24.5101C8.32794 24.3682 8.3307 24.2584 8.34632 24.1125Z" fill="#F8EFDB"/>
<path d="M13.8933 23.204C13.9246 23.2354 13.9503 23.2799 13.9761 23.3169C13.9678 23.5127 13.8612 23.675 13.7716 23.8399L13.6254 23.6745C13.6447 23.5152 13.8235 23.3966 13.8878 23.2196L13.8933 23.204Z" fill="#EDD5B4"/>
<path d="M0.247268 27.5411C0.381923 27.6511 0.456834 27.8523 0.535421 28.0102C0.662264 28.0839 0.821733 28.2079 0.969256 28.1916C0.99775 27.9913 0.838282 27.7778 0.841959 27.553C1.09702 28.0637 1.36771 28.5224 1.76111 28.9288C2.54008 29.8142 4.2451 30.7092 5.37289 30.9335C6.83802 31.2955 8.33439 31.4918 9.83765 31.5191C10.0486 31.6622 11.2145 31.5823 11.5418 31.5793L11.8028 31.765L11.7922 31.8164C11.4452 31.9443 10.4356 31.7389 10.2209 31.9305L10.2412 31.9922C9.67082 32.0271 9.05175 31.9199 8.48096 31.8714C6.44505 31.6982 4.62606 31.5817 2.80569 30.4152C1.77165 29.7529 0.559778 28.8532 0.247268 27.5411Z" fill="#705236" fill-opacity="0.988235"/>
<path d="M17.3678 4.27322C17.4978 4.27658 17.5249 4.25143 17.6362 4.18222C17.6408 4.45424 17.6541 4.76791 17.6242 5.03451L17.4744 4.98703C17.3508 4.84979 17.3829 4.91516 17.359 4.71058L17.3678 4.27322Z" fill="var(--fill-0, #250300)"/>
</g>
</svg>
