<svg preserveAspectRatio="none" width="100%" height="100%" overflow="visible" style="display: block;" viewBox="0 0 36.0894 25" fill="none" xmlns="http://www.w3.org/2000/svg">
<g id="Vector">
<path d="M4.78458 9.63639C5.03353 7.69027 4.44851 5.59911 6.2202 4.3705C6.76824 3.99044 7.18939 3.87299 7.81382 3.65122C8.56573 3.3211 9.25374 3.05133 10.0413 2.82212C12.714 2.04207 15.202 0.804401 17.9028 0.116945C19.1346 -0.236885 20.2648 0.293233 21.4359 0.633401C23.3588 1.1888 25.1881 1.99989 27.0923 2.61124C27.235 2.65704 27.5997 2.82689 27.7343 2.89964C28.734 3.43934 30.1221 3.77773 30.8491 4.69355C31.6621 5.71782 30.9665 8.86639 31.402 9.7418C31.8872 10.1131 32.4032 10.3482 32.902 10.6915C34.315 11.6645 35.693 12.6935 36.0193 14.5322C36.4822 17.1434 34.5765 19.355 32.5074 20.5969C31.7501 21.1225 31.0181 21.712 30.237 22.1975C27.8147 23.7029 25.088 24.3101 22.3217 24.7223C21.5037 24.8441 20.673 24.8468 19.858 24.9864C19.5788 24.9447 19.2403 24.99 18.955 24.9934C18.3479 25.0042 17.7409 25.0018 17.1343 24.9861C15.9333 24.9112 14.7712 24.6926 13.5832 24.5129C12.2209 24.3068 10.8426 24.132 9.51119 23.7582C7.48944 23.1906 5.08917 21.8045 3.41264 20.517C2.8378 20.1036 1.81569 19.3743 1.35441 18.8431C0.436975 17.7864 -0.0279419 16.7642 0.00129877 15.3448C0.0543164 12.7726 1.44077 11.8595 3.34222 10.5887C3.82803 10.2641 4.35178 10.0554 4.78458 9.63639Z" fill="#C68F45"/>
<path d="M3.41264 20.517C2.8378 20.1036 1.81569 19.3743 1.35441 18.8431C0.436975 17.7864 -0.0279419 16.7642 0.00129877 15.3448C0.0543164 12.7726 1.44077 11.8595 3.34222 10.5887C3.82803 10.2641 4.35178 10.0554 4.78458 9.63639C4.82945 9.88438 4.85712 10.0005 4.84508 10.256C4.89683 10.453 4.89319 10.5133 4.89076 10.7195C4.99427 11.3943 4.9151 12.8852 4.93589 13.6492C4.99518 14.3837 5.10759 14.9304 5.63326 15.4822L5.74942 15.7729C6.14902 16.0113 6.76986 16.4098 7.17609 16.5727C8.0264 17.0445 8.68446 17.4129 9.62573 17.683C10.1088 17.8736 10.655 18.0992 11.1032 18.3629C11.3528 18.2465 11.5048 18.311 11.7719 18.2967C12.4868 18.5727 13.1717 18.9285 13.8849 19.2081C15.2881 19.7582 16.7837 20.2158 18.2351 20.5945C19.3107 20.6066 29.8166 15.8521 30.6574 15.0807C31.5948 14.2208 31.2396 12.1995 31.3039 11.0291C31.3079 10.7899 31.3342 10.5555 31.357 10.3176L31.402 9.7418C31.8872 10.1131 32.4032 10.3482 32.902 10.6915C34.315 11.6645 35.693 12.6935 36.0193 14.5322C36.4822 17.1434 34.5765 19.355 32.5074 20.5969C31.7501 21.1225 31.0181 21.712 30.237 22.1975C27.8147 23.7029 25.088 24.3101 22.3217 24.7223C21.5037 24.8441 20.673 24.8468 19.858 24.9864C19.5788 24.9447 19.2403 24.99 18.955 24.9934C18.3479 25.0042 17.7409 25.0018 17.1343 24.9861C15.9333 24.9112 14.7712 24.6926 13.5832 24.5129C12.2209 24.3068 10.8426 24.132 9.51119 23.7582C7.48944 23.1906 5.08917 21.8045 3.41264 20.517Z" fill="#ECE8DD"/>
<path d="M3.41264 20.517C2.8378 20.1036 1.81569 19.3743 1.35441 18.8431C0.436975 17.7864 -0.0279419 16.7642 0.00129877 15.3448C0.0543164 12.7726 1.44077 11.8595 3.34222 10.5887C3.82803 10.2641 4.35178 10.0554 4.78458 9.63639C4.82945 9.88438 4.85712 10.0005 4.84508 10.256C2.31334 11.3362 -0.551542 13.8093 0.729583 16.8779C1.49713 18.7164 4.06363 20.2769 5.80041 21.0034C6.06403 21.1126 6.32882 21.2188 6.59466 21.3221C8.05523 21.7465 9.49581 22.2534 10.9809 22.584C11.7855 22.7631 12.6164 22.8439 13.4326 22.9502C14.2075 23.0512 14.9851 23.1709 15.7643 23.2239C18.6576 23.4208 21.5133 23.1186 24.3681 22.6577C25.1158 22.537 25.8347 22.2706 26.5814 22.1444C27.449 22.0481 28.4269 21.6033 29.2656 21.335C29.4356 21.4205 29.5849 21.3932 29.765 21.3699C30.1722 21.1884 30.6402 21.0265 31.0165 20.7848C31.0651 20.7537 31.0595 20.7243 31.0722 20.6685C31.1891 20.5946 31.3049 20.4997 31.4476 20.506C31.5659 20.5419 31.6681 20.5451 31.743 20.6492C32.0516 20.6105 32.1685 20.513 32.5074 20.5969C31.7501 21.1225 31.0181 21.712 30.237 22.1975C27.8147 23.7029 25.088 24.3101 22.3217 24.7223C21.5037 24.8441 20.673 24.8468 19.858 24.9864C19.5788 24.9447 19.2403 24.99 18.955 24.9934C18.3479 25.0042 17.7409 25.0018 17.1343 24.9861C15.9333 24.9112 14.7712 24.6926 13.5832 24.5129C12.2209 24.3068 10.8426 24.132 9.51119 23.7582C7.48944 23.1906 5.08917 21.8045 3.41264 20.517Z" fill="#CABEAD"/>
<path d="M3.41264 20.517C2.8378 20.1036 1.81569 19.3743 1.35441 18.8431C0.436975 17.7864 -0.0279419 16.7642 0.00129877 15.3448C0.0543164 12.7726 1.44077 11.8595 3.34222 10.5887C3.82803 10.2641 4.35178 10.0554 4.78458 9.63639C4.82945 9.88438 4.85712 10.0005 4.84508 10.256C2.31334 11.3362 -0.551542 13.8093 0.729583 16.8779C1.49713 18.7164 4.06363 20.2769 5.80041 21.0034C6.06403 21.1126 6.32882 21.2188 6.59466 21.3221L6.53284 21.4344L6.31981 21.4576C6.02735 21.2843 4.55343 20.5446 4.27256 20.4924L4.2161 20.5677C5.35765 21.2479 6.5078 22.0041 7.72023 22.5395C13.0345 24.8861 19.725 25.2015 25.2772 23.6553C27.1561 23.1321 28.7855 22.3928 30.4742 21.4077C30.8936 21.163 31.3469 20.9305 31.743 20.6492C32.0516 20.6105 32.1685 20.513 32.5074 20.5969C31.7501 21.1225 31.0181 21.712 30.237 22.1975C27.8147 23.7029 25.088 24.3101 22.3217 24.7223C21.5037 24.8441 20.673 24.8468 19.858 24.9864C19.5788 24.9447 19.2403 24.99 18.955 24.9934C18.3479 25.0042 17.7409 25.0018 17.1343 24.9861C15.9333 24.9112 14.7712 24.6926 13.5832 24.5129C12.2209 24.3068 10.8426 24.132 9.51119 23.7582C7.48944 23.1906 5.08917 21.8045 3.41264 20.517Z" fill="#7B6D5C"/>
<path d="M6.59466 21.3221C8.05523 21.7465 9.49581 22.2534 10.9809 22.584C11.7855 22.7631 12.6164 22.8439 13.4326 22.9502C14.2075 23.0512 14.9851 23.1709 15.7643 23.2239C18.6576 23.4208 21.5133 23.1186 24.3681 22.6577C25.1158 22.537 25.8347 22.2706 26.5814 22.1444C27.449 22.0481 28.4269 21.6033 29.2656 21.335C29.4356 21.4205 29.5849 21.3932 29.765 21.3699C29.4356 21.6839 29.1463 21.917 28.7355 22.1045C26.853 22.9633 23.9608 23.1723 21.9155 23.3406C21.266 23.394 20.6199 23.5047 19.9698 23.5486C18.997 23.6144 17.9883 23.5864 17.0154 23.5457C15.6222 23.4873 14.1508 23.3741 12.7726 23.1554C11.8877 23.0151 11.0163 22.8046 10.1352 22.6488C9.40198 22.5191 8.6914 22.5102 7.9701 22.2857C7.35746 22.0951 6.85404 21.8138 6.31981 21.4576L6.53284 21.4344L6.59466 21.3221Z" fill="#A19181"/>
<path d="M31.3039 11.0291C31.3206 11.4696 31.3155 12.2876 31.3636 12.682C31.2432 14.3368 33.8647 15.0382 30.8132 17.7825C30.7186 17.8679 30.6118 17.9382 30.497 17.991L30.4504 17.8749C30.326 17.8541 30.2223 17.8846 30.1049 17.9234C29.5575 18.1041 29.0354 18.3842 28.4952 18.5883C27.794 18.8532 27.0336 19.0459 26.3147 19.2592C24.9539 19.663 23.5495 20.1098 22.1578 20.3682C21.4516 20.4993 20.7287 20.5578 20.0149 20.629C19.4022 20.6214 18.8564 20.6922 18.2351 20.5945C19.3107 20.6066 29.8166 15.8521 30.6574 15.0807C31.5948 14.2208 31.2396 12.1995 31.3039 11.0291Z" fill="#C7B59E"/>
<path d="M31.402 9.7418C31.8872 10.1131 32.4032 10.3482 32.902 10.6915C34.315 11.6645 35.693 12.6935 36.0193 14.5322C36.4822 17.1434 34.5765 19.355 32.5074 20.5969C32.1685 20.513 32.0516 20.6105 31.743 20.6492C31.6681 20.5451 31.5659 20.5419 31.4476 20.506C31.5745 20.462 31.6985 20.4092 31.8189 20.348C32.1811 20.1638 32.517 19.8801 32.8403 19.6319C33.8764 18.8359 34.9463 17.9521 35.3713 16.644C35.4861 16.3046 35.5387 16.1388 35.6004 15.7871L35.559 15.0751C35.4593 15.2334 35.1062 15.7781 34.9772 15.8686C34.5537 16.1654 32.0126 17.3073 31.6565 17.3867C31.7005 17.2582 31.8836 16.9576 31.9666 16.8452C33.0573 15.369 32.992 13.8109 31.3636 12.682C31.3155 12.2876 31.3206 11.4696 31.3039 11.0291C31.3079 10.7899 31.3342 10.5555 31.357 10.3176L31.402 9.7418Z" fill="#CABEAD"/>
<path d="M31.402 9.7418C31.8872 10.1131 32.4032 10.3482 32.902 10.6915C34.315 11.6645 35.693 12.6935 36.0193 14.5322C36.4822 17.1434 34.5765 19.355 32.5074 20.5969C32.1685 20.513 32.0516 20.6105 31.743 20.6492C31.6681 20.5451 31.5659 20.5419 31.4476 20.506C31.5745 20.462 31.6985 20.4092 31.8189 20.348C32.1811 20.1638 32.517 19.8801 32.8403 19.6319C33.8764 18.8359 34.9463 17.9521 35.3713 16.644C35.4861 16.3046 35.5387 16.1388 35.6004 15.7871C35.6733 15.3743 35.6126 14.796 35.4972 14.3974C34.876 12.2542 33.0588 11.3196 31.357 10.3176L31.402 9.7418Z" fill="#7C6D5C"/>
<path d="M6.11404 18.4634C4.64285 17.5414 3.1018 15.8892 4.23464 14.0399C4.38919 13.7875 4.56626 13.3298 4.85381 13.2198L4.93589 13.6492C4.99518 14.3837 5.10759 14.9304 5.63326 15.4822L5.74942 15.7729C5.55126 15.681 5.34791 15.6246 5.15795 15.7737C5.10478 15.9968 5.23904 16.1371 5.35565 16.3464C5.92043 17.3606 6.55685 18.0904 7.51703 18.728C7.7675 18.8943 8.27628 19.1875 8.47965 19.3635C7.64745 19.3259 6.83387 18.8695 6.11404 18.4634Z" fill="#DBD3C8"/>
<path d="M4.89076 10.7195C4.99427 11.3943 4.9151 12.8852 4.93589 13.6492L4.85381 13.2198C4.56626 13.3298 4.38919 13.7875 4.23464 14.0399C3.1018 15.8892 4.64285 17.5414 6.11404 18.4634L5.98965 18.5749C3.89499 17.6807 2.07155 15.0812 3.91741 13.019C4.15922 12.7489 4.56652 12.3621 4.87501 12.1874C4.87248 11.691 4.86866 11.216 4.89076 10.7195Z" fill="#CBBDA3"/>
<path d="M26.5814 22.1444L26.6744 21.9611C27.1687 21.6126 28.571 21.1885 29.2019 20.9555C30.4282 20.5022 31.5169 19.9973 32.6136 19.2586C32.9688 19.0197 33.3133 18.7547 33.6214 18.4537C34.0018 18.0819 34.965 16.7622 35.3713 16.644C34.9463 17.9521 33.8764 18.8359 32.8403 19.6319C32.517 19.8801 32.1811 20.1638 31.8189 20.348C31.6985 20.4092 31.5745 20.462 31.4476 20.506C31.3049 20.4997 31.1891 20.5946 31.0722 20.6685C31.0595 20.7243 31.0651 20.7537 31.0165 20.7848C30.6402 21.0265 30.1722 21.1884 29.765 21.3699C29.5849 21.3932 29.4356 21.4205 29.2656 21.335C28.4269 21.6033 27.449 22.0481 26.5814 22.1444Z" fill="#D8CAB4"/>
<path d="M31.0722 20.6685C31.0595 20.7243 31.0651 20.7537 31.0165 20.7848C30.6402 21.0265 30.1722 21.1884 29.765 21.3699C29.5849 21.3932 29.4356 21.4205 29.2656 21.335C29.8616 21.102 30.459 20.8469 31.0722 20.6685Z" fill="#7B6D5C"/>
<path d="M31.3636 12.682C32.992 13.8109 33.0573 15.369 31.9666 16.8452C31.8836 16.9576 31.7005 17.2582 31.6565 17.3867C29.8666 19.2641 25.8989 20.1953 23.4752 20.6232C22.6177 20.7746 21.7693 20.9361 20.8966 20.9429C20.7479 20.9438 20.5987 20.9427 20.4499 20.9394C23.0735 20.4907 26.1741 20.1886 28.6247 19.0686C29.2803 18.769 29.8793 18.3629 30.497 17.991C30.6118 17.9382 30.7186 17.8679 30.8132 17.7825C33.8647 15.0382 31.2432 14.3368 31.3636 12.682Z" fill="#C1AA88"/>
<path d="M11.1032 18.3629C11.3528 18.2465 11.5048 18.311 11.7719 18.2967C12.4868 18.5727 13.1717 18.9285 13.8849 19.2081C15.2881 19.7582 16.7837 20.2158 18.2351 20.5945C18.8564 20.6922 19.4022 20.6214 20.0149 20.629C20.0078 20.6334 20.0002 20.6375 19.9931 20.6423C19.9304 20.6844 19.8742 20.7206 19.8009 20.741C19.1711 20.9162 18.261 20.7081 17.6296 20.5905C17.0139 20.4758 16.377 20.4077 15.7699 20.2559C14.3026 19.8891 12.4278 19.112 11.1032 18.3629Z" fill="#CABEAD"/>
<path d="M6.11404 18.4634C6.83387 18.8695 7.64745 19.3259 8.47965 19.3635C9.79674 19.8786 11.0738 20.2938 12.4504 20.6L12.42 20.7259C10.1675 20.2484 8.01692 19.7415 5.98965 18.5749L6.11404 18.4634Z" fill="#BBAC95"/>
<path d="M12.4504 20.6C12.7315 20.6259 12.9975 20.6928 13.2708 20.763L13.2814 20.8915L13.3122 20.8849L13.2925 20.7671L13.3755 20.844C13.1835 20.9138 12.6167 20.7929 12.42 20.7259L12.4504 20.6Z" fill="#DBD3C8"/>
<path d="M7.17609 16.5727C7.58546 16.4893 7.67296 16.6406 8.02754 16.6756C8.41359 16.8025 9.09144 17.1957 9.33594 17.2573L9.62573 17.683C8.68446 17.4129 8.0264 17.0445 7.17609 16.5727Z" fill="#CABEAD"/>
<path d="M9.33594 17.2573C10.1126 17.5332 11.0655 17.8685 11.7719 18.2967C11.5048 18.311 11.3528 18.2465 11.1032 18.3629C10.655 18.0992 10.1088 17.8736 9.62573 17.683L9.33594 17.2573Z" fill="#C1AA88"/>
<path d="M5.63326 15.4822C6.29214 15.7897 7.4183 16.3124 8.02754 16.6756C7.67296 16.6406 7.58546 16.4893 7.17609 16.5727C6.76986 16.4098 6.14902 16.0113 5.74942 15.7729L5.63326 15.4822Z" fill="#EDD5B4"/>
<path d="M6.80919 4.73493C7.23626 4.46102 9.20986 3.80738 9.7803 3.59304C10.8458 3.22188 11.8977 2.75128 12.9632 2.38724C13.9298 2.05697 14.9284 1.6956 15.9024 1.39872C17.1687 1.0128 18.6196 0.157593 19.9425 0.598886C22.4937 1.4498 25.0475 2.27701 27.5233 3.34526C28.4476 3.74525 29.9309 4.23564 30.4712 5.12215C30.6265 5.57747 30.6523 5.95936 30.6993 6.43849C30.8567 8.08098 30.7585 9.9882 30.6973 11.6396C30.6644 12.5353 30.6432 13.7118 30.4934 14.5607C29.9056 15.305 27.8289 16.0277 26.9228 16.4627C24.6746 17.5425 22.3475 18.665 20.0265 19.567C19.4892 19.8334 18.9358 19.9315 18.3854 20.1432C18.0545 20.0709 17.7231 20.0012 17.3918 19.9342C16.6496 19.825 14.3218 18.7842 13.5272 18.4479C11.6156 17.633 9.6304 16.9502 7.75698 16.0521C7.08551 15.6713 5.78571 15.304 5.47828 14.5203C5.41277 14.3533 5.38029 13.5867 5.39182 13.4904C5.55927 12.094 5.09026 6.851 5.62039 5.91471C5.85851 5.35293 6.31194 5.0215 6.80919 4.73493Z" fill="#FCE9B2"/>
<path d="M30.4712 5.12215C30.6265 5.57747 30.6523 5.95936 30.6993 6.43849C30.8567 8.08098 30.7585 9.9882 30.6973 11.6396C30.6644 12.5353 30.6432 13.7118 30.4934 14.5607C29.9056 15.305 27.8289 16.0277 26.9228 16.4627C24.6746 17.5425 22.3475 18.665 20.0265 19.567C19.4892 19.8334 18.9358 19.9315 18.3854 20.1432C18.0545 20.0709 17.7231 20.0012 17.3918 19.9342C17.715 19.7057 17.5481 19.02 18.3196 18.6464C18.3161 18.0081 18.2797 16.8302 18.3459 16.236C18.4072 15.3423 18.2878 14.1046 18.3105 13.1851C18.3206 12.7926 18.269 12.3919 18.3252 11.9943L18.2832 11.9998C18.2483 11.7312 18.3373 11.2888 18.3464 10.9674C18.4218 10.4226 18.8969 9.9699 19.2975 9.63314C19.4903 9.52636 19.5469 9.50506 19.7584 9.448C19.937 9.33453 20.2532 9.23152 20.4611 9.15526C20.9837 9.04832 22.6789 8.40803 23.158 8.16029C23.6022 7.94889 24.4587 7.73004 24.9828 7.49911C26.034 7.03584 27.0605 6.54927 28.1001 6.06097C28.3201 5.85689 29.3947 5.36148 29.7291 5.19268C29.9107 5.10097 30.0017 5.18352 30.1768 5.2613C30.3311 5.23335 30.3477 5.2204 30.4712 5.12215Z" fill="#EAB557"/>
<path d="M18.3459 16.236C18.3955 16.7879 18.4041 18.0055 18.3768 18.5816C18.3798 18.8961 18.3915 19.2137 18.3814 19.528C18.7036 19.4649 19.7619 19.3203 20.0164 19.4881L20.0265 19.567C19.4892 19.8334 18.9358 19.9315 18.3854 20.1432C18.0545 20.0709 17.7231 20.0012 17.3918 19.9342C17.715 19.7057 17.5481 19.02 18.3196 18.6464C18.3161 18.0081 18.2797 16.8302 18.3459 16.236Z" fill="#F2D17D"/>
<path d="M18.4122 11.9389C18.439 11.9668 18.4709 11.9998 18.5078 12.038C18.5801 13.1576 18.6216 14.7741 18.6105 15.8649C18.6049 16.3897 18.6196 18.3839 18.5083 18.6393L18.4441 18.6511L18.3768 18.5816C18.4041 18.0055 18.3955 16.7879 18.3459 16.236C18.4072 15.3423 18.2878 14.1046 18.3105 13.1851C18.3206 12.7926 18.269 12.3919 18.3252 11.9943L18.4122 11.9389Z" fill="#C68F45"/>
<path d="M19.2975 9.63314C19.4903 9.52636 19.5469 9.50506 19.7584 9.448C19.3719 9.84837 19.0921 10.0994 18.8275 10.6038C18.6257 10.989 18.6216 11.6982 18.4122 11.9389L18.3252 11.9943L18.2832 11.9998C18.2483 11.7312 18.3373 11.2888 18.3464 10.9674C18.4218 10.4226 18.8969 9.9699 19.2975 9.63314Z" fill="#F2D17D"/>
<path d="M30.4712 5.12215C30.6265 5.57747 30.6523 5.95936 30.6993 6.43849L30.6629 6.73498C30.5936 6.61401 30.6938 6.49541 30.5663 6.37664C30.5537 6.4651 30.5334 6.63814 30.5132 6.71692L30.5284 6.60266L30.4914 6.57638C30.4727 6.24003 30.3533 5.88186 30.2582 5.55619C30.0751 5.62439 29.9294 5.71034 29.7457 5.6704C29.8474 5.65611 29.936 5.65454 30.0204 5.59801C30.0382 5.44245 30.0159 5.41303 29.9476 5.27506C29.6881 5.15703 28.6869 6.02674 28.1001 6.06097C28.3201 5.85689 29.3947 5.36148 29.7291 5.19268C29.9107 5.10097 30.0017 5.18352 30.1768 5.2613C30.3311 5.23335 30.3477 5.2204 30.4712 5.12215Z" fill="var(--fill-0, #FADB93)"/>
<path d="M29.5469 5.91655C29.6405 5.93131 29.7483 6.01322 29.8039 6.09461C29.8666 6.1871 29.8793 6.23327 29.8626 6.34298L29.7685 6.38265C29.6238 6.33832 29.4801 6.29199 29.3365 6.24374L29.3319 6.15481L29.5469 5.91655Z" fill="#F2D17D"/>
<path d="M5.62039 5.91471C5.96045 6.01484 6.37564 5.85385 6.83064 6.0427C7.86074 6.47022 8.8532 6.97474 9.88335 7.39866C12.0044 8.11459 13.7908 8.62068 15.8523 9.54441C15.7077 9.58822 15.7324 9.55493 15.6778 9.65663C15.7785 9.83653 15.9267 9.8594 16.1114 9.89002C16.4437 10.0018 16.6572 10.1444 16.9542 10.3264C17.1287 10.2953 17.1773 10.2921 17.3245 10.1939L17.6397 10.5432C18.2063 10.6602 17.9923 10.9606 18.3464 10.9674C18.3373 11.2888 18.2483 11.7312 18.2832 11.9998L18.3252 11.9943C18.269 12.3919 18.3206 12.7926 18.3105 13.1851C18.2878 14.1046 18.4072 15.3423 18.3459 16.236C18.2797 16.8302 18.3161 18.0081 18.3196 18.6464C17.5481 19.02 17.715 19.7057 17.3918 19.9342C16.6496 19.825 14.3218 18.7842 13.5272 18.4479C11.6156 17.633 9.6304 16.9502 7.75698 16.0521C7.08551 15.6713 5.78571 15.304 5.47828 14.5203C5.41277 14.3533 5.38029 13.5867 5.39182 13.4904C5.55927 12.094 5.09026 6.851 5.62039 5.91471Z" fill="var(--fill-0, #FADB93)"/>
<path d="M16.1114 9.89002C16.4437 10.0018 16.6572 10.1444 16.9542 10.3264C16.9385 10.669 16.7903 10.7836 16.5672 11.0345C16.3593 10.8128 15.8347 10.2496 15.948 9.92999L16.1114 9.89002Z" fill="#FCE9B2"/>
<path d="M17.6397 10.5432C18.2063 10.6602 17.9923 10.9606 18.3464 10.9674C18.3373 11.2888 18.2483 11.7312 18.2832 11.9998L18.1663 12.0443C18.0368 11.9385 17.7778 10.8665 17.6397 10.5432Z" fill="#FCE9B2"/>
<path d="M12.9832 12.2016C13.0296 12.2234 13.1047 12.3058 13.127 12.3553C13.1743 12.4606 13.1527 12.5052 13.1152 12.6052C12.9685 12.7709 12.7899 12.8202 12.5905 12.8882C12.5274 12.8348 12.4982 12.7927 12.4666 12.7151C12.5377 12.5002 12.8124 12.3416 12.9832 12.2016Z" fill="#F2D17D"/>
<path d="M12.0525 12.2282C12.1154 12.2393 12.1795 12.248 12.2333 12.2859C12.3104 12.3401 12.3575 12.4181 12.3734 12.5139C12.4002 12.6757 12.3285 12.8172 12.2464 12.9478L12.1811 12.9667C12.1421 12.9532 12.0952 12.9488 12.0734 12.9114C11.953 12.7045 12.0044 12.4501 12.0525 12.2282Z" fill="#F2D17D"/>
<path d="M9.42829 10.7581C9.48302 10.7766 9.52147 10.8191 9.56371 10.8579C9.59796 11.128 9.55076 11.3709 9.41478 11.6044C9.3267 11.5034 9.215 11.3418 9.20817 11.2021C9.19907 11.0154 9.31871 10.8916 9.42829 10.7581Z" fill="#F2D17D"/>
<path d="M7.86415 8.55755C7.95693 8.55719 8.03484 8.62984 8.044 8.72536C8.05315 8.82088 7.99062 8.90798 7.89956 8.92646C7.83248 8.94007 7.76373 8.91321 7.72209 8.85705C7.68051 8.80094 7.67323 8.72526 7.70338 8.66177C7.73348 8.59822 7.7958 8.55787 7.86415 8.55755Z" fill="#F2D17D"/>
<path d="M9.9346 11.9645C9.95529 11.9738 9.97583 11.9834 9.99622 11.9934C10.1998 12.0939 10.3017 12.212 10.3757 12.4313L10.2203 12.4106C10.0705 12.3227 10.0058 12.1195 9.9346 11.9645Z" fill="#C68F45"/>
<path d="M6.80919 4.73493C7.00006 4.89384 6.86568 5.24182 7.23782 5.46442C9.62078 6.88985 12.3512 7.31921 14.8185 8.54165C15.2439 8.75237 15.9343 8.83785 16.3831 9.03334C16.8485 9.19178 17.3058 9.36032 17.798 9.38121C18.2726 9.40125 19.0936 9.20225 19.512 9.24904L19.551 9.32421C19.47 9.4737 19.4189 9.51547 19.2975 9.63314C18.8969 9.9699 18.4218 10.4226 18.3464 10.9674C17.9923 10.9606 18.2063 10.6602 17.6397 10.5432L17.3245 10.1939C17.1773 10.2921 17.1287 10.2953 16.9542 10.3264C16.6572 10.1444 16.4437 10.0018 16.1114 9.89002C15.9267 9.8594 15.7785 9.83653 15.6778 9.65663C15.7324 9.55493 15.7077 9.58822 15.8523 9.54441C13.7908 8.62068 12.0044 8.11459 9.88335 7.39866C8.8532 6.97474 7.86074 6.47022 6.83064 6.0427C6.37564 5.85385 5.96045 6.01484 5.62039 5.91471C5.85851 5.35293 6.31194 5.0215 6.80919 4.73493Z" fill="#F8EFDB"/>
<path d="M16.1114 9.89002C15.9267 9.8594 15.7785 9.83653 15.6778 9.65663C15.7324 9.55493 15.7077 9.58822 15.8523 9.54441C16.2945 9.69353 16.9891 9.8817 17.3245 10.1939C17.1773 10.2921 17.1287 10.2953 16.9542 10.3264C16.6572 10.1444 16.4437 10.0018 16.1114 9.89002Z" fill="#F2D17D"/>
<path d="M20.4611 9.15526C20.8764 8.63341 21.6008 8.42513 22.2023 8.17609C22.5681 8.02456 22.8034 7.98102 23.158 8.16029C22.6789 8.40803 20.9837 9.04832 20.4611 9.15526Z" fill="var(--fill-0, #FADB93)"/>
<path d="M22.815 7.07252C22.82 7.07404 22.8251 7.07493 22.8301 7.07702C22.9338 7.12282 22.9662 7.13596 23.0037 7.24771C22.866 7.42415 22.3288 7.54626 22.1047 7.63624C22.0465 7.63833 22.0091 7.60803 21.9615 7.57762C22.0374 7.33857 22.5949 7.20913 22.815 7.07252Z" fill="var(--fill-0, #FADB93)"/>
</g>
</svg>
