<svg preserveAspectRatio="none" width="100%" height="100%" overflow="visible" style="display: block;" viewBox="0 0 28.4916 29" fill="none" xmlns="http://www.w3.org/2000/svg">
<g id="Vector">
<path d="M13.235 0.173614C13.4261 0.122037 14.2245 0.103638 14.4479 0.0856265C15.2184 0.0235036 16.0118 0.0408934 16.7787 0.0225992C17.6662 0.00143058 18.3134 -0.0306573 19.1991 0.0658972L19.1726 0.0829652C19.047 0.163182 18.9805 0.186964 18.8421 0.238186C18.9701 0.228371 19.1617 0.242573 19.2787 0.299808C19.9489 0.603813 20.2309 0.940649 20.4115 1.6823C20.4563 2.35463 20.5429 3.50248 20.311 4.1281C20.4519 4.13358 20.5591 4.13719 20.6995 4.12788C20.3952 4.78398 20.2071 4.87804 20.4707 5.6266C20.6594 6.1622 20.912 6.67885 21.1035 7.20189C22.0356 9.7466 22.5308 12.3559 22.8613 15.0506C22.8812 15.2132 22.9387 16.1356 22.972 16.1923C22.9505 16.2775 22.8769 16.5214 22.8953 16.5911L22.9287 16.6079L22.9758 16.5959L23.1877 16.1901L23.2344 16.5164C23.291 16.4127 23.3058 16.3986 23.3859 16.3181L23.4861 16.3227L23.4941 16.2798L23.5861 16.2657L23.5932 16.2087C23.6595 15.9957 23.6214 15.5202 23.6028 15.2911L23.6181 15.1803C23.709 14.9049 24.1353 13.6647 24.4694 13.7591L24.4996 13.8914C24.5548 13.9454 24.5855 13.9861 24.6576 14.008C24.8627 13.9333 24.9958 13.426 25.0621 13.2213C25.1172 13.0149 25.384 12.5447 25.6235 12.6039L25.6686 12.7222L25.7104 12.9447C26.002 12.6036 26.8352 11.349 27.0693 11.1592C27.4549 11.0307 27.61 11.1797 27.7251 11.5958C27.9032 12.2398 27.8826 12.9006 27.7908 13.5584C27.7301 13.9202 27.6282 14.3004 27.5755 14.6352C27.9699 14.5048 28.0399 14.4873 28.4438 14.4136C28.4106 15.0924 28.3555 15.6315 27.944 16.1881C27.8395 16.3295 27.7007 16.4717 27.6624 16.6391C27.7847 16.7707 28.2995 16.6818 28.4916 16.6636C28.3509 16.9962 27.9923 17.7537 27.7144 17.9649C27.6041 18.1656 27.5954 18.316 27.5626 18.5436C27.4963 18.8944 26.9651 19.6556 26.6777 19.81C26.6014 19.9067 26.4966 20.0117 26.4949 20.1319C26.5887 20.2212 26.5495 20.1966 26.6862 20.213L26.7784 20.2404C26.7109 20.7799 24.9791 22.1576 24.4726 22.2785C24.3133 22.4137 24.2696 22.5046 24.1642 22.6847C24.0582 22.8162 23.8696 22.7764 23.7396 22.8832C23.735 22.8891 23.7304 22.895 23.7258 22.9009C23.6809 22.9571 23.6413 22.9936 23.581 23.0303C23.6587 23.0433 23.7131 22.9769 23.791 23.0446C24.0622 22.9545 24.3441 22.9336 24.6256 22.9039C24.6384 22.8829 24.6511 22.8607 24.6677 22.8424C24.8226 22.6728 25.2747 22.7391 25.4944 22.7446C25.5333 22.7557 25.6416 22.7727 25.66 22.8062C25.7359 22.9442 25.7284 23.165 25.741 23.3228C25.8402 23.3689 25.9693 23.412 26.0392 23.5012C26.315 23.6899 26.7008 23.8983 26.7794 24.2619C26.8149 24.4264 26.765 24.5873 26.6768 24.7239C26.4675 25.0482 26.0035 25.425 25.6664 25.5804C25.5947 25.6077 25.5168 25.6466 25.4419 25.6604L25.2887 26.0883C25.0988 26.4283 24.6863 26.6258 24.3377 26.7212C24.1729 26.7663 24.0034 26.7939 23.8353 26.8212C23.7455 26.9145 23.6271 27.0141 23.5698 27.133C23.1942 27.4674 22.3668 27.6167 21.8875 27.568C21.8708 27.5663 21.8543 27.5631 21.8377 27.5603C21.7971 27.487 21.5684 27.4161 21.4856 27.379L21.6787 27.3492L21.7101 27.2654C21.0145 27.1782 20.5789 26.7331 19.9998 26.3742C19.7075 26.193 19.3912 26.0506 19.0822 25.9037L18.9653 25.9237C18.6915 25.8971 17.8193 26.3379 17.5462 26.4726C17.2002 26.646 16.26 27.0383 16.0169 27.2974L15.9317 27.6037C15.7085 27.7608 15.482 27.9146 15.2727 28.0919C15.4244 28.1078 15.5936 28.1101 15.7398 28.1553C15.5367 28.159 15.3345 28.156 15.1353 28.2018C15.2036 28.2798 15.3151 28.3133 15.4077 28.3527L15.3262 28.3879C14.6861 28.3692 14.2914 28.9471 13.6597 29L13.6062 28.8407C13.8767 28.8131 14.2216 28.4831 14.4409 28.3129C14.4386 28.3088 14.4364 28.3047 14.4339 28.3008C14.3597 28.1812 14.3186 28.1585 14.1889 28.1264L13.9656 28.3123L13.9394 28.2792L14.0006 27.9459C14.5677 27.5772 15.066 27.1338 15.6606 26.7947L15.7099 26.6939C15.7255 26.523 15.7267 26.3726 15.7093 26.2013C14.9017 26.1543 14.035 26.3312 13.2266 26.4142C12.0371 26.5363 10.8278 26.6272 9.63329 26.6621C8.56489 26.755 7.49806 26.8674 6.43335 26.9989C6.04671 27.0266 5.68129 27.0245 5.29702 26.9646C5.01152 26.9189 4.69252 26.8684 4.42455 26.7555C3.89167 26.5312 3.42785 26.1479 2.92806 25.855C2.37136 25.5287 1.78484 25.2586 1.22996 24.9308C0.803999 24.6792 0.23056 24.2492 0.0906356 23.7289C-0.117341 23.2251 0.0935419 22.2226 0.123727 21.6465C0.160265 20.9485 0.1574 20.2163 0.210754 19.5231C0.290889 18.482 0.177413 17.2582 0.323773 16.2378C0.327344 15.8203 0.42745 15.1031 0.489315 14.6728C0.493467 14.2903 0.621932 13.6189 0.681638 13.2155C0.917392 11.6231 1.25686 10.1036 1.68585 8.56024C1.83491 8.02411 2.38423 6.42746 2.41554 5.997C2.50813 4.72271 1.55863 3.30745 1.93626 1.79844C2.04675 1.35686 2.21304 1.18044 2.58058 0.953395C2.79404 0.834363 3.14675 0.785368 3.38645 0.77461C4.90041 0.706647 6.52993 0.773749 8.0125 0.414635C8.8444 0.280427 9.26688 0.458394 9.98489 0.42542C10.8106 0.3875 11.906 0.339041 12.7152 0.253714C12.8844 0.231602 13.0651 0.200088 13.235 0.173614Z" fill="#E1B272"/>
<path d="M13.235 0.173614C13.4261 0.122037 14.2245 0.103638 14.4479 0.0856265C15.2184 0.0235036 16.0118 0.0408934 16.7787 0.0225992C17.6662 0.00143058 18.3134 -0.0306573 19.1991 0.0658972L19.1726 0.0829652C19.047 0.163182 18.9805 0.186964 18.8421 0.238186C18.9701 0.228371 19.1617 0.242573 19.2787 0.299808C19.9489 0.603813 20.2309 0.940649 20.4115 1.6823L20.3261 1.79827C20.2314 1.80617 20.1966 1.76604 20.1163 1.70819C19.8572 1.66953 19.7403 2.00173 19.5288 2.03114C19.5111 1.92951 19.5028 1.85786 19.4939 1.75529C19.4642 1.96648 19.4862 2.24261 19.3945 2.39857C19.4254 2.92156 19.2924 3.6445 18.706 3.69481C18.6121 3.70286 18.5601 3.68124 18.4843 3.6098C18.2447 3.6829 17.7973 3.9242 17.535 3.8407L13.445 4.47485C12.8891 4.5666 12.0953 4.77859 11.5531 4.8219C10.2562 4.92553 8.87865 4.80525 7.57357 4.86213C6.4536 4.91096 5.42613 5.15357 4.29532 5.24923L4.28536 5.03963C4.40552 5.13361 4.43902 5.13152 4.56574 5.12343C4.94171 4.78859 4.71497 3.05145 4.62969 2.54563C4.61495 2.45829 4.30176 2.03934 4.22573 1.93202C4.8463 1.90892 5.54795 1.75946 6.16968 1.66002L9.26396 1.18596C9.52686 1.14717 9.90022 1.18962 10.175 1.18539C10.6347 1.17831 10.9127 0.971337 11.2962 0.77374C12.1563 0.702437 13.5072 0.526544 14.3704 0.407686C13.808 0.248448 13.0594 0.370459 12.7152 0.253714C12.8844 0.231602 13.0651 0.200088 13.235 0.173614Z" fill="#F1C887"/>
<path d="M13.235 0.173614C13.4261 0.122037 14.2245 0.103638 14.4479 0.0856265C15.2184 0.0235036 16.0118 0.0408934 16.7787 0.0225992C17.6662 0.00143058 18.3134 -0.0306573 19.1991 0.0658972L19.1726 0.0829652C19.047 0.163182 18.9805 0.186964 18.8421 0.238186C18.9701 0.228371 19.1617 0.242573 19.2787 0.299808C18.0285 0.535798 17.374 0.382939 16.1158 0.349681C15.5354 0.33434 14.8805 0.42291 14.3704 0.407686C13.808 0.248448 13.0594 0.370459 12.7152 0.253714C12.8844 0.231602 13.0651 0.200088 13.235 0.173614Z" fill="#7E461D"/>
<path d="M18.9049 2.69682C19.0193 2.15966 18.922 1.72447 18.9994 1.28449L19.0533 1.26237L19.1265 1.34903C19.1583 1.51499 19.1689 1.45993 19.1152 1.60978C19.1059 1.49028 19.101 1.44758 19.0721 1.331L19.0161 1.37519C18.9446 1.90796 19.0668 2.08421 19.1433 2.60246C19.1547 2.67973 19.1353 3.02126 19.1341 3.13511C19.2786 3.07662 19.2657 2.59977 19.3945 2.39857C19.4254 2.92156 19.2924 3.6445 18.706 3.69481C18.6121 3.70286 18.5601 3.68124 18.4843 3.6098C18.2447 3.6829 17.7973 3.9242 17.535 3.8407C17.5728 3.79944 17.7919 3.76525 17.8556 3.74551C17.943 3.71842 18.0665 3.36393 18.1285 3.23582C18.2728 3.1368 18.214 3.15955 18.4162 3.18786C18.6218 3.10619 18.7603 2.88146 18.9049 2.69682Z" fill="#F3BC6A"/>
<path d="M13.5297 0.63949C13.726 0.700769 13.5618 0.939829 13.6635 1.13254C13.793 1.24602 13.9908 1.24877 14.1528 1.27197C13.9229 1.56928 13.9278 1.76507 13.9054 2.12974L13.85 2.15718C13.7262 2.02028 13.6704 1.73046 13.6144 1.54897C13.5566 1.71133 13.5888 1.98847 13.5898 2.16541C12.5175 2.1695 11.4763 1.87959 10.4013 1.8756C9.58284 1.87257 8.67474 2.18657 7.8643 2.33171C7.09958 2.46865 6.31638 2.52547 5.55772 2.69379C5.40181 2.7284 5.25565 2.76993 5.12569 2.87112L5.08999 2.86368C4.91809 2.62404 4.67665 2.37855 4.53457 2.12353L4.60773 2.12574C4.8194 2.29858 4.93462 2.57759 5.11735 2.78397C5.8932 2.48776 6.63413 2.49676 7.43768 2.35217C8.52577 2.15638 9.63669 1.75451 10.7469 1.81031C11.4809 1.8472 12.8363 2.18809 13.457 2.08899C13.4596 2.08513 13.4624 2.08138 13.4648 2.07741C13.5633 1.9154 13.574 0.851458 13.5297 0.63949Z" fill="#F5D19B"/>
<path d="M5.32668 4.33083C5.33071 4.10001 5.25813 3.84545 5.33822 3.66477L5.41018 3.68051C5.62538 3.87267 5.54196 3.90098 5.67869 4.12971L5.69164 4.15106C5.78104 4.27421 5.73341 4.34353 5.78544 4.4582C5.65515 4.83513 5.55604 4.93988 5.12813 4.9321C5.07153 4.88105 5.08764 4.891 5.05816 4.80808C5.09122 4.62044 5.21432 4.48372 5.32668 4.33083Z" fill="#F3BC6A"/>
<path d="M5.32668 4.33083C5.55712 4.52725 5.34731 4.82591 5.12813 4.9321C5.07153 4.88105 5.08764 4.891 5.05816 4.80808C5.09122 4.62044 5.21432 4.48372 5.32668 4.33083Z" fill="#E7AF60"/>
<path d="M6.0115 4.27777C5.95063 4.11626 5.94004 4.15266 5.95989 3.99811L6.02043 3.96706C6.16608 4.06234 6.1278 4.04834 6.22155 4.23298L6.24879 4.28251L6.30742 4.29285L6.41251 4.106L6.4407 4.03934C6.59188 4.08956 6.60238 4.19888 6.60375 4.35121C6.55887 4.44179 6.58494 4.41279 6.50726 4.46697L6.41977 4.4831L6.38195 4.57599L6.31323 4.58529C6.25622 4.5098 6.27358 4.50637 6.20515 4.49245C6.02234 4.78076 6.19589 4.75145 6.09002 4.83094L6.12809 4.77406C5.98572 4.84686 6.0463 4.83859 5.88677 4.8005C5.83288 4.67913 5.85559 4.69844 5.89375 4.53628C5.95163 4.45971 5.88511 4.43257 6.0115 4.27777Z" fill="#F3BC6A"/>
<path d="M6.41251 4.106L6.4407 4.03934C6.59188 4.08956 6.60238 4.19888 6.60375 4.35121C6.55887 4.44179 6.58494 4.41279 6.50726 4.46697L6.41977 4.4831C6.3724 4.48784 6.37473 4.48402 6.333 4.45819C6.36215 4.34143 6.38863 4.22402 6.41251 4.106Z" fill="#E7AF60"/>
<path d="M6.0115 4.27777C5.95063 4.11626 5.94004 4.15266 5.95989 3.99811L6.02043 3.96706C6.16608 4.06234 6.1278 4.04834 6.22155 4.23298L6.13894 4.32451C6.0965 4.31177 6.04887 4.3009 6.0115 4.27777Z" fill="#E7AF60"/>
<path d="M13.1936 1.35505C13.3187 1.45529 13.343 1.48872 13.3873 1.65455C13.4174 1.76691 13.4127 1.85644 13.3591 1.95573L13.2525 1.98014C13.1776 1.95618 13.088 1.93461 13.0205 1.89319C12.9435 1.84593 12.9365 1.81166 12.9128 1.72533C12.9509 1.57046 13.087 1.46224 13.1936 1.35505Z" fill="#F5D19B"/>
<path d="M6.53564 3.6738C6.58023 3.67098 6.62441 3.67072 6.66879 3.67702C6.96691 3.71916 7.39715 3.99103 7.57934 4.24233L7.56244 4.36878C7.28085 4.2028 7.00382 4.03738 6.71513 3.88514C6.6039 3.82648 6.57471 3.79687 6.53564 3.6738Z" fill="#F3BC6A"/>
<path d="M14.4167 1.00037C14.449 1.01647 14.4738 1.03335 14.5012 1.05773C14.6604 1.19916 14.8803 1.53225 14.8907 1.74273C14.8442 1.75635 14.8101 1.77879 14.7651 1.74902C14.5817 1.62792 14.4608 1.21124 14.4167 1.00037Z" fill="#F5D19B"/>
<path d="M14.3295 1.50824C14.4244 1.5515 14.4261 1.55215 14.4698 1.65025C14.4738 1.78264 14.4227 1.88612 14.3718 2.00445C14.3145 1.96269 14.2884 1.9013 14.2551 1.83896C14.2364 1.70734 14.2762 1.62521 14.3295 1.50824Z" fill="#F5D19B"/>
<path d="M21.2937 22.0381C21.2785 22.0151 21.264 21.9917 21.2499 21.968C20.6092 20.8794 20.8529 19.6379 21.5077 18.6197C21.6197 18.4455 21.7575 18.0798 21.9201 17.977C22.1126 18.0704 22.2337 18.6459 22.326 18.9013L22.2018 19.0618C22.2946 19.3228 22.4924 19.8428 22.4982 20.1054C22.6274 20.6157 22.4869 21.3505 22.2861 21.8166C22.2073 21.9706 21.9727 22.3368 21.9645 22.4589C22.0817 22.4551 22.2367 22.3305 22.2969 22.2297C22.6266 22.197 23.5783 22.092 23.8545 22.2544C23.9425 22.2289 24.0259 22.2181 24.1159 22.2038L24.2806 22.3099L24.4726 22.2785C24.3133 22.4137 24.2696 22.5046 24.1642 22.6847C24.0582 22.8162 23.8696 22.7764 23.7396 22.8832C23.735 22.8891 23.7304 22.895 23.7258 22.9009C23.6809 22.9571 23.6413 22.9936 23.581 23.0303C23.6587 23.0433 23.7131 22.9769 23.791 23.0446C24.0622 22.9545 24.3441 22.9336 24.6256 22.9039C24.6384 22.8829 24.6511 22.8607 24.6677 22.8424C24.8226 22.6728 25.2747 22.7391 25.4944 22.7446C25.5333 22.7557 25.6416 22.7727 25.66 22.8062C25.7359 22.9442 25.7284 23.165 25.741 23.3228C25.8402 23.3689 25.9693 23.412 26.0392 23.5012C26.315 23.6899 26.7008 23.8983 26.7794 24.2619C26.8149 24.4264 26.765 24.5873 26.6768 24.7239C26.4675 25.0482 26.0035 25.425 25.6664 25.5804C25.5947 25.6077 25.5168 25.6466 25.4419 25.6604L25.2887 26.0883C25.0988 26.4283 24.6863 26.6258 24.3377 26.7212C24.1729 26.7663 24.0034 26.7939 23.8353 26.8212C23.7455 26.9145 23.6271 27.0141 23.5698 27.133C23.1942 27.4674 22.3668 27.6167 21.8875 27.568C21.8708 27.5663 21.8543 27.5631 21.8377 27.5603C21.7971 27.487 21.5684 27.4161 21.4856 27.379L21.6787 27.3492L21.7101 27.2654C21.0145 27.1782 20.5789 26.7331 19.9998 26.3742C19.7075 26.193 19.3912 26.0506 19.0822 25.9037L18.9653 25.9237C18.6915 25.8971 17.8193 26.3379 17.5462 26.4726C17.2002 26.646 16.26 27.0383 16.0169 27.2974L15.9317 27.6037C15.7085 27.7608 15.482 27.9146 15.2727 28.0919C15.4244 28.1078 15.5936 28.1101 15.7398 28.1553C15.5367 28.159 15.3345 28.156 15.1353 28.2018C15.2036 28.2798 15.3151 28.3133 15.4077 28.3527L15.3262 28.3879C14.6861 28.3692 14.2914 28.9471 13.6597 29L13.6062 28.8407C13.8767 28.8131 14.2216 28.4831 14.4409 28.3129C14.4386 28.3088 14.4364 28.3047 14.4339 28.3008C14.3597 28.1812 14.3186 28.1585 14.1889 28.1264L13.9656 28.3123L13.9394 28.2792L14.0006 27.9459C14.5677 27.5772 15.066 27.1338 15.6606 26.7947L15.7099 26.6939C15.7255 26.523 15.7267 26.3726 15.7093 26.2013C15.7413 26.1068 15.7548 26.0065 15.7721 25.9081L15.8651 25.8627C15.924 25.7042 15.9173 25.504 15.9657 25.3365C16.1544 24.6833 16.6056 24.0586 17.1819 23.7317C17.3407 23.5898 17.5034 23.4592 17.6732 23.332L17.7361 23.2624C17.8263 23.324 17.8225 23.4054 17.85 23.5119C17.9784 23.4092 17.965 23.2872 18.1214 23.1458C18.0403 23.3104 17.9417 23.4716 17.9453 23.6623L17.9733 23.7367C18.1214 23.6359 18.1591 23.4301 18.2933 23.3173C18.5181 23.0508 19.6327 22.2167 19.9412 22.3857C19.9563 22.5146 19.8179 22.9762 19.7771 23.1299C20.3186 22.4955 20.5275 22.321 21.2937 22.0381Z" fill="#763D15"/>
<path d="M25.4944 22.7446C25.5333 22.7557 25.6416 22.7727 25.66 22.8062C25.7359 22.9442 25.7284 23.165 25.741 23.3228C25.8402 23.3689 25.9693 23.412 26.0392 23.5012C26.315 23.6899 26.7008 23.8983 26.7794 24.2619C26.8149 24.4264 26.765 24.5873 26.6768 24.7239C26.4675 25.0482 26.0035 25.425 25.6664 25.5804C25.5947 25.6077 25.5168 25.6466 25.4419 25.6604L25.2887 26.0883C25.0988 26.4283 24.6863 26.6258 24.3377 26.7212C24.1729 26.7663 24.0034 26.7939 23.8353 26.8212C23.7455 26.9145 23.6271 27.0141 23.5698 27.133C23.1942 27.4674 22.3668 27.6167 21.8875 27.568C21.8708 27.5663 21.8543 27.5631 21.8377 27.5603C21.7971 27.487 21.5684 27.4161 21.4856 27.379L21.6787 27.3492L21.7101 27.2654C21.0145 27.1782 20.5789 26.7331 19.9998 26.3742C19.7075 26.193 19.3912 26.0506 19.0822 25.9037C19.2051 25.769 19.3964 25.6332 19.5733 25.6033C19.7216 25.5938 19.8688 25.5394 20.0113 25.4971C19.8058 25.4833 19.6766 25.5809 19.4926 25.5438L19.4968 25.5259C19.9038 25.3092 20.47 25.2211 20.9225 25.2152C20.9039 25.212 20.8854 25.2085 20.8668 25.2047C20.7469 25.1807 20.6856 25.1564 20.6163 25.0497C20.6267 25.0271 20.6374 25.0075 20.6558 24.9907C21.0671 24.6151 22.0366 24.5685 22.5569 24.6291L22.3716 24.4966L22.4214 24.4524L22.4143 24.4044C22.4443 24.3034 22.5818 24.2162 22.6614 24.1469C22.8214 23.9475 22.987 23.7552 23.1564 23.5645C23.3494 23.3343 23.5464 23.2047 23.791 23.0446C24.0622 22.9545 24.3441 22.9336 24.6256 22.9039C24.6384 22.8829 24.6511 22.8607 24.6677 22.8424C24.8226 22.6728 25.2747 22.7391 25.4944 22.7446Z" fill="#6A3311"/>
<path d="M25.4944 22.7446C25.5333 22.7557 25.6416 22.7727 25.66 22.8062C25.7359 22.9442 25.7284 23.165 25.741 23.3228C25.8402 23.3689 25.9693 23.412 26.0392 23.5012C26.315 23.6899 26.7008 23.8983 26.7794 24.2619C26.8149 24.4264 26.765 24.5873 26.6768 24.7239C26.4675 25.0482 26.0035 25.425 25.6664 25.5804C25.5066 25.5864 25.3526 25.5965 25.1953 25.5585L25.1898 25.499L25.3305 25.4178C25.169 25.4219 24.9777 25.4429 24.8195 25.4081C24.5594 25.3508 24.3077 25.1945 24.0735 25.0685C23.5095 24.765 23.0544 24.5512 22.4214 24.4524L22.4143 24.4044C22.4443 24.3034 22.5818 24.2162 22.6614 24.1469C22.8214 23.9475 22.987 23.7552 23.1564 23.5645C23.3494 23.3343 23.5464 23.2047 23.791 23.0446C24.0622 22.9545 24.3441 22.9336 24.6256 22.9039C24.6384 22.8829 24.6511 22.8607 24.6677 22.8424C24.8226 22.6728 25.2747 22.7391 25.4944 22.7446Z" fill="#D79D55"/>
<path d="M25.4944 22.7446C25.5333 22.7557 25.6416 22.7727 25.66 22.8062C25.7359 22.9442 25.7284 23.165 25.741 23.3228C25.8402 23.3689 25.9693 23.412 26.0392 23.5012L25.8844 23.6008C25.9143 23.664 25.9545 23.7075 26.0004 23.7581C25.6993 23.632 25.475 23.5311 25.1549 23.6762C24.7974 23.8384 24.5285 24.1921 24.1924 24.3974C23.9804 24.4618 23.7568 24.5472 23.5368 24.5676L23.5109 24.5197C23.1436 24.6036 22.7992 24.369 22.4143 24.4044C22.4443 24.3034 22.5818 24.2162 22.6614 24.1469C22.8214 23.9475 22.987 23.7552 23.1564 23.5645C23.3494 23.3343 23.5464 23.2047 23.791 23.0446C24.0622 22.9545 24.3441 22.9336 24.6256 22.9039C24.6384 22.8829 24.6511 22.8607 24.6677 22.8424C24.8226 22.6728 25.2747 22.7391 25.4944 22.7446Z" fill="#D79D55"/>
<path d="M24.6256 22.9039L25.2815 22.9304L25.3437 23.0119C25.3346 23.0294 25.3307 23.0514 25.3163 23.0644C25.2431 23.1302 24.9586 23.1918 24.8533 23.2421C24.5108 23.406 24.1937 23.6148 23.8602 23.7961C23.7432 23.8597 23.6105 23.8913 23.4963 23.9534C23.419 23.924 23.3085 23.8928 23.2429 23.8414C23.1591 23.7759 23.1691 23.664 23.1564 23.5645C23.3494 23.3343 23.5464 23.2047 23.791 23.0446C24.0622 22.9545 24.3441 22.9336 24.6256 22.9039Z" fill="#F1C887"/>
<path d="M25.4944 22.7446C25.5333 22.7557 25.6416 22.7727 25.66 22.8062C25.7359 22.9442 25.7284 23.165 25.741 23.3228C25.8402 23.3689 25.9693 23.412 26.0392 23.5012L25.8844 23.6008C25.9143 23.664 25.9545 23.7075 26.0004 23.7581C25.6993 23.632 25.475 23.5311 25.1549 23.6762C24.7974 23.8384 24.5285 24.1921 24.1924 24.3974C23.9804 24.4618 23.7568 24.5472 23.5368 24.5676L23.5109 24.5197C24.1046 24.379 24.9986 23.6684 25.3471 23.1399C25.393 23.0703 25.4063 23.0484 25.3929 22.9655L25.2815 22.9304L24.6256 22.9039C24.6384 22.8829 24.6511 22.8607 24.6677 22.8424C24.8226 22.6728 25.2747 22.7391 25.4944 22.7446Z" fill="#602D0F"/>
<path d="M23.1564 23.5645C23.1691 23.664 23.1591 23.7759 23.2429 23.8414C23.3085 23.8928 23.419 23.924 23.4963 23.9534C23.2739 24.0364 22.9809 24.2133 22.7496 24.2178L22.6614 24.1469C22.8214 23.9475 22.987 23.7552 23.1564 23.5645Z" fill="var(--fill-0, #E5A445)"/>
<path d="M24.1924 24.3974C24.5285 24.1921 24.7974 23.8384 25.1549 23.6762C25.475 23.5311 25.6993 23.632 26.0004 23.7581L26.0284 23.7763C25.9681 24.0103 25.7194 24.1479 25.5242 24.2649C25.18 24.4712 24.7161 24.6107 24.3244 24.4945C24.2661 24.4772 24.2263 24.4502 24.1924 24.3974Z" fill="#F3BC6A"/>
<path d="M26.0004 23.7581C25.9545 23.7075 25.9143 23.664 25.8844 23.6008L26.0392 23.5012C26.315 23.6899 26.7008 23.8983 26.7794 24.2619C26.8149 24.4264 26.765 24.5873 26.6768 24.7239C26.4675 25.0482 26.0035 25.425 25.6664 25.5804C25.5066 25.5864 25.3526 25.5965 25.1953 25.5585L25.1898 25.499L25.3305 25.4178C25.7278 25.3428 26.3435 24.8385 26.5778 24.4984C26.6453 24.4005 26.6559 24.3521 26.6412 24.2345C26.4943 24.0239 26.2477 23.8897 26.0284 23.7763L26.0004 23.7581Z" fill="#1B0200"/>
<path d="M20.0113 25.4971C20.8671 25.3623 21.6251 25.4585 22.3425 26.0093C22.3608 26.0233 22.379 26.0376 22.3971 26.052C22.6758 26.2786 23.2663 26.6867 23.3736 27.0371C23.4385 27.0799 23.4964 27.1096 23.5698 27.133C23.1942 27.4674 22.3668 27.6167 21.8875 27.568C21.8708 27.5663 21.8543 27.5631 21.8377 27.5603C21.7971 27.487 21.5684 27.4161 21.4856 27.379L21.6787 27.3492L21.7101 27.2654C21.0145 27.1782 20.5789 26.7331 19.9998 26.3742C19.7075 26.193 19.3912 26.0506 19.0822 25.9037C19.2051 25.769 19.3964 25.6332 19.5733 25.6033C19.7216 25.5938 19.8688 25.5394 20.0113 25.4971Z" fill="#D79D55"/>
<path d="M20.0113 25.4971C20.8671 25.3623 21.6251 25.4585 22.3425 26.0093C22.3608 26.0233 22.379 26.0376 22.3971 26.052C22.3972 26.3279 22.2938 26.5608 22.2164 26.82C21.6589 26.6083 21.1386 26.2943 20.5838 26.0768C20.3241 25.975 19.6836 25.8538 19.497 25.7031L19.5733 25.6033C19.7216 25.5938 19.8688 25.5394 20.0113 25.4971Z" fill="#F3BC6A"/>
<path d="M21.7101 27.2654C22.2914 27.2622 22.8151 27.2224 23.3736 27.0371C23.4385 27.0799 23.4964 27.1096 23.5698 27.133C23.1942 27.4674 22.3668 27.6167 21.8875 27.568C21.8708 27.5663 21.8543 27.5631 21.8377 27.5603C21.7971 27.487 21.5684 27.4161 21.4856 27.379L21.6787 27.3492L21.7101 27.2654Z" fill="#763D15"/>
<path d="M20.9225 25.2152C20.9039 25.212 20.8854 25.2085 20.8668 25.2047C20.7469 25.1807 20.6856 25.1564 20.6163 25.0497C20.6267 25.0271 20.6374 25.0075 20.6558 24.9907C21.0671 24.6151 22.0366 24.5685 22.5569 24.6291C23.2177 24.7216 24.0862 25.2405 24.5635 25.7228C24.5465 25.7821 24.5391 25.8472 24.5281 25.9082C23.6764 26.3581 22.7046 25.1295 21.7837 25.3552L21.838 25.4913L21.88 25.412L21.8901 25.4365L21.8336 25.4905C21.5443 25.3428 21.2395 25.2637 20.9225 25.2152Z" fill="#F3BC6A"/>
<path d="M21.8336 25.4905L21.8901 25.4365L21.88 25.412L21.838 25.4913L21.7837 25.3552C22.7046 25.1295 23.6764 26.3581 24.5281 25.9082C24.5391 25.8472 24.5465 25.7821 24.5635 25.7228L24.6007 25.7135C24.7741 25.8608 24.9357 26.0103 25.0908 26.1785C24.7558 26.2769 24.4275 26.422 24.0871 26.4962C23.3416 26.6586 22.9726 26.286 22.4101 25.8611C22.228 25.7236 22.0222 25.619 21.8336 25.4905Z" fill="#D79D55"/>
<path d="M24.7836 25.6919C24.9497 25.6026 25.2596 25.6373 25.4419 25.6604L25.2887 26.0883L24.7836 25.6919Z" fill="var(--fill-0, #E5A445)"/>
<path d="M21.1026 21.4035C20.9978 20.3521 21.0439 19.8911 21.4946 18.9544C21.61 18.7142 21.7147 18.4409 21.8768 18.2248C21.9854 18.2753 21.9857 18.3333 22.054 18.4651C22.1048 18.6636 22.1541 18.8625 22.2018 19.0618C22.2946 19.3228 22.4924 19.8428 22.4982 20.1054C22.6274 20.6157 22.4869 21.3505 22.2861 21.8166C22.2073 21.9706 21.9727 22.3368 21.9645 22.4589C22.0817 22.4551 22.2367 22.3305 22.2969 22.2297C22.6266 22.197 23.5783 22.092 23.8545 22.2544C22.8617 22.8643 22.3715 22.3324 21.1601 23.516C21.3067 23.1445 21.5416 22.3787 21.7735 22.1207C21.4699 22.0734 21.2746 21.6637 21.1026 21.4035Z" fill="#D09044"/>
<path d="M21.767 21.8421C21.818 21.41 21.4447 20.6169 21.5269 20.048C21.5649 19.7854 21.9066 18.5873 22.054 18.4651C22.1048 18.6636 22.1541 18.8625 22.2018 19.0618C22.2946 19.3228 22.4924 19.8428 22.4982 20.1054C22.5023 20.282 22.5291 20.4689 22.4335 20.6082C22.2701 20.698 22.1156 20.5439 22.0205 20.4023C21.9664 20.1795 21.9226 20.0053 21.8498 19.7887C21.8351 20.0898 21.8528 21.7133 21.767 21.8421Z" fill="#F3BC6A"/>
<path d="M22.4982 20.1054C22.6274 20.6157 22.4869 21.3505 22.2861 21.8166C22.22 21.8896 22.1581 21.9423 22.0849 22.0066C22.0311 21.9381 22.0749 21.8645 22.0876 21.7654C22.1484 21.2908 22.099 20.8691 22.0205 20.4023C22.1156 20.5439 22.2701 20.698 22.4335 20.6082C22.5291 20.4689 22.5023 20.282 22.4982 20.1054Z" fill="#E7AF60"/>
<path d="M17.6732 23.332C17.7975 23.6864 17.681 24.6899 17.6004 25.0792C17.3511 25.7482 17.1864 26.0744 16.5543 26.3992C16.3696 26.5093 16.19 26.6181 15.9901 26.6954C15.9625 26.6802 15.9369 26.6706 15.9182 26.6438C15.861 26.7103 15.8393 26.7666 15.7509 26.7719L15.7099 26.6939C15.7255 26.523 15.7267 26.3726 15.7093 26.2013C15.7413 26.1068 15.7548 26.0065 15.7721 25.9081L15.8651 25.8627C15.924 25.7042 15.9173 25.504 15.9657 25.3365C16.1544 24.6833 16.6056 24.0586 17.1819 23.7317C17.3407 23.5898 17.5034 23.4592 17.6732 23.332Z" fill="#F3BC6A"/>
<path d="M15.8651 25.8627C15.924 25.7042 15.9173 25.504 15.9657 25.3365C16.1544 24.6833 16.6056 24.0586 17.1819 23.7317C17.0925 24.1277 16.6864 24.5734 16.5255 24.9896C16.349 25.4461 16.381 25.8848 16.2812 26.3475L16.3312 26.4038C16.4051 26.3938 16.4822 26.3744 16.5543 26.3992C16.3696 26.5093 16.19 26.6181 15.9901 26.6954C15.9625 26.6802 15.9369 26.6706 15.9182 26.6438C15.861 26.7103 15.8393 26.7666 15.7509 26.7719L15.7099 26.6939C15.7255 26.523 15.7267 26.3726 15.7093 26.2013C15.7413 26.1068 15.7548 26.0065 15.7721 25.9081L15.8651 25.8627Z" fill="#D09044"/>
<path d="M15.7721 25.9081L15.8651 25.8627C15.8518 26.1314 15.8787 26.3784 15.9182 26.6438C15.861 26.7103 15.8393 26.7666 15.7509 26.7719L15.7099 26.6939C15.7255 26.523 15.7267 26.3726 15.7093 26.2013C15.7413 26.1068 15.7548 26.0065 15.7721 25.9081Z" fill="#1B0200"/>
<path d="M16.0567 26.8251C16.9482 26.4844 17.7762 25.8284 18.7187 25.6446C18.8473 25.7707 18.9738 25.717 19.0963 25.8138C19.0693 25.8876 19.0297 25.8914 18.9653 25.9237C18.6915 25.8971 17.8193 26.3379 17.5462 26.4726C17.2002 26.646 16.26 27.0383 16.0169 27.2974L15.9317 27.6037C15.7085 27.7608 15.482 27.9146 15.2727 28.0919C15.4244 28.1078 15.5936 28.1101 15.7398 28.1553C15.5367 28.159 15.3345 28.156 15.1353 28.2018C15.2036 28.2798 15.3151 28.3133 15.4077 28.3527L15.3262 28.3879C14.6861 28.3692 14.2914 28.9471 13.6597 29L13.6062 28.8407C13.8767 28.8131 14.2216 28.4831 14.4409 28.3129C14.4386 28.3088 14.4364 28.3047 14.4339 28.3008C14.3597 28.1812 14.3186 28.1585 14.1889 28.1264L13.9656 28.3123L13.9394 28.2792L14.0006 27.9459C14.5677 27.5772 15.066 27.1338 15.6606 26.7947C15.7746 26.7906 15.9615 26.7574 16.0567 26.8251Z" fill="#E7AB58"/>
<path d="M14.4409 28.3129C14.983 28.0031 15.4532 27.5766 16.0169 27.2974L15.9317 27.6037C15.7085 27.7608 15.482 27.9146 15.2727 28.0919C15.4244 28.1078 15.5936 28.1101 15.7398 28.1553C15.5367 28.159 15.3345 28.156 15.1353 28.2018C15.2036 28.2798 15.3151 28.3133 15.4077 28.3527L15.3262 28.3879C14.6861 28.3692 14.2914 28.9471 13.6597 29L13.6062 28.8407C13.8767 28.8131 14.2216 28.4831 14.4409 28.3129Z" fill="#763D15"/>
<path d="M15.6606 26.7947C15.7746 26.7906 15.9615 26.7574 16.0567 26.8251C15.3691 27.2131 14.7821 27.5827 14.1889 28.1264L13.9656 28.3123L13.9394 28.2792L14.0006 27.9459C14.5677 27.5772 15.066 27.1338 15.6606 26.7947Z" fill="#310803"/>
<path d="M23.6368 22.6289L23.5617 22.8407C23.6273 22.8904 23.6629 22.8814 23.7396 22.8832C23.735 22.8891 23.7304 22.895 23.7258 22.9009C23.6809 22.9571 23.6413 22.9936 23.581 23.0303C23.6587 23.0433 23.7131 22.9769 23.791 23.0446C23.5464 23.2047 23.3494 23.3343 23.1564 23.5645C22.987 23.7552 22.8214 23.9475 22.6614 24.1469C22.5818 24.2162 22.4443 24.3034 22.4143 24.4044L22.4214 24.4524L22.3716 24.4966C22.3554 24.4325 22.3278 24.3928 22.29 24.3403C22.0207 24.4829 21.3129 24.5801 20.9498 24.7109C21.7285 23.635 21.9833 23.1493 23.2495 22.6861L23.6368 22.6289Z" fill="#E7AF60"/>
<path d="M23.6368 22.6289L23.5617 22.8407C23.6273 22.8904 23.6629 22.8814 23.7396 22.8832C23.735 22.8891 23.7304 22.895 23.7258 22.9009C23.6809 22.9571 23.6413 22.9936 23.581 23.0303C23.6587 23.0433 23.7131 22.9769 23.791 23.0446C23.5464 23.2047 23.3494 23.3343 23.1564 23.5645C22.987 23.7552 22.8214 23.9475 22.6614 24.1469C22.5818 24.2162 22.4443 24.3034 22.4143 24.4044L22.4214 24.4524L22.3716 24.4966C22.3554 24.4325 22.3278 24.3928 22.29 24.3403C22.3639 24.1058 23.3489 23.0446 23.3729 22.7345L23.2495 22.6861L23.6368 22.6289Z" fill="#8F5125"/>
<path d="M18.6003 23.5395C18.7723 23.3848 19.0676 23.1203 19.307 23.1353C19.3837 23.1402 19.4453 23.1608 19.4941 23.2284C19.5518 23.3084 19.5614 23.4102 19.5565 23.5066L19.5749 23.6108C19.4829 23.9296 19.4049 24.2695 19.2417 24.5579C18.9273 24.6557 18.6769 24.8713 18.3881 25.0259C18.2831 25.0685 18.2304 25.0817 18.1206 25.0467C18.3192 24.557 18.3828 24.0305 18.6003 23.5395Z" fill="#F1C887"/>
<path d="M19.5565 23.5066L19.5749 23.6108C19.4829 23.9296 19.4049 24.2695 19.2417 24.5579C18.9273 24.6557 18.6769 24.8713 18.3881 25.0259C18.7857 24.5428 19.2452 24.0545 19.5565 23.5066Z" fill="#F3BC6A"/>
<path d="M18.894 23.0563L18.8769 23.0808C18.749 23.2626 18.6545 23.3095 18.6003 23.5395C18.3828 24.0305 18.3192 24.557 18.1206 25.0467C18.0277 25.2019 17.9687 25.3799 18.0063 25.5626C18.0467 25.6015 18.0862 25.6451 18.135 25.6717C17.9898 25.7386 17.8445 25.8068 17.6971 25.8686C17.6103 25.905 17.5178 25.9449 17.4301 25.9059C17.427 25.685 17.647 25.3415 17.7097 25.1026L17.6004 25.0792C17.681 24.6899 17.7975 23.6864 17.6732 23.332L17.7361 23.2624C17.8263 23.324 17.8225 23.4054 17.85 23.5119C17.9784 23.4092 17.965 23.2872 18.1214 23.1458C18.0403 23.3104 17.9417 23.4716 17.9453 23.6623L17.9733 23.7367C18.1214 23.6359 18.1591 23.4301 18.2933 23.3173L18.4218 23.3966C18.5696 23.2591 18.723 23.1589 18.894 23.0563Z" fill="#D79D55"/>
<path d="M17.6732 23.332L17.7361 23.2624C17.8263 23.324 17.8225 23.4054 17.85 23.5119C17.9784 23.4092 17.965 23.2872 18.1214 23.1458C18.0403 23.3104 17.9417 23.4716 17.9453 23.6623L17.9733 23.7367C18.1214 23.6359 18.1591 23.4301 18.2933 23.3173L18.4218 23.3966C18.0303 23.9582 17.8391 24.4191 17.7097 25.1026L17.6004 25.0792C17.681 24.6899 17.7975 23.6864 17.6732 23.332Z" fill="#8F5125"/>
<path d="M18.3881 25.0259C18.6769 24.8713 18.9273 24.6557 19.2417 24.5579C18.9442 25.0331 18.658 25.4521 18.135 25.6717C18.0862 25.6451 18.0467 25.6015 18.0063 25.5626C17.9687 25.3799 18.0277 25.2019 18.1206 25.0467C18.2304 25.0817 18.2831 25.0685 18.3881 25.0259Z" fill="#E7AF60"/>
<path d="M18.894 23.0563C19.214 22.8408 19.5476 22.6345 19.8463 22.3872C19.6902 22.7907 19.6305 23.1819 19.5749 23.6108L19.5565 23.5066C19.5614 23.4102 19.5518 23.3084 19.4941 23.2284C19.4453 23.1608 19.3837 23.1402 19.307 23.1353C19.0676 23.1203 18.7723 23.3848 18.6003 23.5395C18.6545 23.3095 18.749 23.2626 18.8769 23.0808L18.894 23.0563Z" fill="var(--fill-0, #E5A445)"/>
<path d="M24.2806 22.3099L24.4726 22.2785C24.3133 22.4137 24.2696 22.5046 24.1642 22.6847C24.0582 22.8162 23.8696 22.7764 23.7396 22.8832C23.6629 22.8814 23.6273 22.8904 23.5617 22.8407L23.6368 22.6289C23.7238 22.4919 24.1166 22.3696 24.2806 22.3099Z" fill="#D79D55"/>
<path d="M19.8397 23.3514L19.8517 23.3268C20.1632 22.7005 20.9012 22.4377 21.5023 22.2453C21.4269 22.4367 21.3663 22.6267 21.3126 22.8259C21.0298 23.7431 20.6372 24.4711 19.7859 24.9247C19.4855 25.0849 19.179 25.235 18.8754 25.3887C19.054 25.0993 19.2538 24.8101 19.3994 24.501C19.5761 24.1305 19.7047 23.7399 19.8397 23.3514Z" fill="#D79D55"/>
<path d="M19.8397 23.3514L19.8517 23.3268C20.1632 22.7005 20.9012 22.4377 21.5023 22.2453C21.4269 22.4367 21.3663 22.6267 21.3126 22.8259C21.2218 22.8864 21.1176 22.901 21.0413 22.9629C20.6585 23.2733 20.3971 23.7638 20.0326 24.1079C19.8834 23.8515 19.8468 23.6469 19.8397 23.3514Z" fill="#F1C887"/>
<path d="M19.3994 24.501C19.5761 24.1305 19.7047 23.7399 19.8397 23.3514C19.8468 23.6469 19.8834 23.8515 20.0326 24.1079C19.8447 24.3059 19.6863 24.4982 19.3994 24.501Z" fill="#F3BC6A"/>
<path d="M21.7412 23.1946L21.783 23.2648C21.6546 23.6818 20.8906 24.6077 20.5243 24.8205C20.4777 24.7407 20.4751 24.7358 20.4858 24.6432C20.8634 24.1369 21.2034 23.5185 21.7412 23.1946Z" fill="var(--fill-0, #E5A445)"/>
<path d="M27.0693 11.1592C27.4549 11.0307 27.61 11.1797 27.7251 11.5958C27.9032 12.2398 27.8826 12.9006 27.7908 13.5584C27.7301 13.9202 27.6282 14.3004 27.5755 14.6352C27.9699 14.5048 28.0399 14.4873 28.4438 14.4136C28.4106 15.0924 28.3555 15.6315 27.944 16.1881C27.8395 16.3295 27.7007 16.4717 27.6624 16.6391C27.7847 16.7707 28.2995 16.6818 28.4916 16.6636C28.3509 16.9962 27.9923 17.7537 27.7144 17.9649C27.6041 18.1656 27.5954 18.316 27.5626 18.5436L27.3977 18.5327C27.3877 18.5281 27.13 18.4584 27.0702 18.4372C26.9423 18.4536 26.9218 18.4589 26.8122 18.389C26.124 18.3571 25.2623 18.4493 24.6657 18.8223C24.5464 18.9432 24.2922 19.2233 24.1567 19.2822L24.1289 19.2377L24.14 19.1931L24.0482 19.1223L23.9522 19.2527C23.896 19.0626 23.927 18.9435 23.9562 18.7497C24.2172 17.8028 23.8357 17.5492 23.7249 16.7794L23.7225 16.7624C23.6797 16.7161 23.5253 16.3996 23.4861 16.3227L23.4941 16.2798L23.5861 16.2657L23.5932 16.2087C23.6595 15.9957 23.6214 15.5202 23.6028 15.2911L23.6181 15.1803C23.709 14.9049 24.1353 13.6647 24.4694 13.7591L24.4996 13.8914C24.5548 13.9454 24.5855 13.9861 24.6576 14.008C24.8627 13.9333 24.9958 13.426 25.0621 13.2213C25.1172 13.0149 25.384 12.5447 25.6235 12.6039L25.6686 12.7222L25.7104 12.9447C26.002 12.6036 26.8352 11.349 27.0693 11.1592Z" fill="#602D0F"/>
<path d="M25.0621 13.2213C25.1172 13.0149 25.384 12.5447 25.6235 12.6039L25.6686 12.7222L25.7104 12.9447C25.7341 13.0455 25.6761 13.1392 25.6323 13.2354C25.7549 13.8775 26.1465 14.6034 26.0946 15.1567L26.0207 15.5284C25.8906 15.6774 25.8533 15.7038 25.9362 15.9102C25.7359 16.2033 25.5789 16.588 25.4776 16.9327C25.4159 16.9558 25.444 16.9566 25.389 16.9473C25.362 17.0753 25.3714 17.1659 25.3543 17.2419C25.3304 17.3478 25.2477 17.5167 25.2139 17.6408C25.2607 17.6684 25.3219 17.7002 25.3617 17.7353C25.1351 17.9766 24.9658 18.1961 24.7632 18.4569C24.7353 18.6192 24.6622 18.6598 24.6657 18.8223C24.5464 18.9432 24.2922 19.2233 24.1567 19.2822L24.1289 19.2377L24.14 19.1931L24.0482 19.1223L23.9522 19.2527C23.896 19.0626 23.927 18.9435 23.9562 18.7497C24.2172 17.8028 23.8357 17.5492 23.7249 16.7794L23.7225 16.7624C23.6797 16.7161 23.5253 16.3996 23.4861 16.3227L23.4941 16.2798L23.5861 16.2657L23.5932 16.2087C23.6595 15.9957 23.6214 15.5202 23.6028 15.2911L23.6181 15.1803C23.709 14.9049 24.1353 13.6647 24.4694 13.7591L24.4996 13.8914C24.5548 13.9454 24.5855 13.9861 24.6576 14.008C24.8627 13.9333 24.9958 13.426 25.0621 13.2213Z" fill="#F1C887"/>
<path d="M25.0621 13.2213C25.1172 13.0149 25.384 12.5447 25.6235 12.6039L25.6686 12.7222L25.7104 12.9447C25.7341 13.0455 25.6761 13.1392 25.6323 13.2354C25.7549 13.8775 26.1465 14.6034 26.0946 15.1567L26.0207 15.5284C25.8906 15.6774 25.8533 15.7038 25.9362 15.9102C25.7359 16.2033 25.5789 16.588 25.4776 16.9327C25.4159 16.9558 25.444 16.9566 25.389 16.9473C25.495 15.5354 24.7422 15.2144 25.026 14.1274L25.0069 14.0714C25.0412 14.0014 25.1489 13.6333 25.1776 13.5398C25.1374 13.4344 25.0989 13.3282 25.0621 13.2213Z" fill="#F1C887"/>
<path d="M25.389 16.9473C25.495 15.5354 24.7422 15.2144 25.026 14.1274C25.0267 14.3043 25.0123 14.6434 25.0715 14.7913L25.0958 14.7944C25.7134 14.8791 25.3246 15.8056 25.6525 15.885C25.7671 15.7637 25.9377 15.5068 25.9585 15.3332C25.7691 15.3185 25.7289 15.5058 25.5592 15.4693C25.6271 15.1724 25.9122 15.2236 26.0946 15.1567L26.0207 15.5284C25.8906 15.6774 25.8533 15.7038 25.9362 15.9102C25.7359 16.2033 25.5789 16.588 25.4776 16.9327C25.4159 16.9558 25.444 16.9566 25.389 16.9473Z" fill="#E1A748"/>
<path d="M25.0621 13.2213C25.1172 13.0149 25.384 12.5447 25.6235 12.6039L25.6686 12.7222C25.5014 13.0102 25.2853 13.2472 25.1776 13.5398C25.1374 13.4344 25.0989 13.3282 25.0621 13.2213Z" fill="#7E461D"/>
<path d="M25.0621 13.2213C25.0989 13.3282 25.1374 13.4344 25.1776 13.5398C25.1489 13.6333 25.0412 14.0014 25.0069 14.0714L25.026 14.1274C24.7422 15.2144 25.495 15.5354 25.389 16.9473C25.362 17.0753 25.3714 17.1659 25.3543 17.2419C25.3304 17.3478 25.2477 17.5167 25.2139 17.6408C25.2607 17.6684 25.3219 17.7002 25.3617 17.7353C25.1351 17.9766 24.9658 18.1961 24.7632 18.4569C24.7657 18.4069 24.8792 18.0669 24.9048 17.9843C25.1082 17.3278 25.2643 16.6121 25.1224 15.9204C25.0214 15.4765 24.737 15.0848 24.5652 14.6617C24.6635 14.4263 24.4273 14.1767 24.4996 13.8914C24.5548 13.9454 24.5855 13.9861 24.6576 14.008C24.8627 13.9333 24.9958 13.426 25.0621 13.2213Z" fill="#8F5125"/>
<path d="M25.0621 13.2213C25.0989 13.3282 25.1374 13.4344 25.1776 13.5398C25.1489 13.6333 25.0412 14.0014 25.0069 14.0714L24.8509 14.195C24.7951 14.1623 24.8022 14.1305 24.7781 14.0496L24.6576 14.008C24.8627 13.9333 24.9958 13.426 25.0621 13.2213Z" fill="#763D15"/>
<path d="M25.1224 15.9204C25.2643 16.6121 25.1082 17.3278 24.9048 17.9843C24.8792 18.0669 24.7657 18.4069 24.7632 18.4569C24.7353 18.6192 24.6622 18.6598 24.6657 18.8223C24.5464 18.9432 24.2922 19.2233 24.1567 19.2822L24.1289 19.2377L24.14 19.1931L24.2966 18.9826C24.5513 18.4074 24.589 18.1033 24.3854 17.514C24.5223 17.3945 24.4683 16.8543 24.4719 16.6466C24.4884 16.5595 24.4916 16.5222 24.5358 16.4431L24.6189 16.4938L24.6193 16.5518C25.1086 16.6628 25.1215 16.298 25.1224 15.9204Z" fill="#E7AF60"/>
<path d="M24.4719 16.6466C24.4884 16.5595 24.4916 16.5222 24.5358 16.4431L24.6189 16.4938L24.6193 16.5518C24.6289 17.0889 24.7346 18.6828 24.2966 18.9826C24.5513 18.4074 24.589 18.1033 24.3854 17.514C24.5223 17.3945 24.4683 16.8543 24.4719 16.6466Z" fill="#D79D55"/>
<path d="M23.6181 15.1803C23.6756 15.4812 23.6351 16.2107 23.769 16.3378L23.8198 16.3192L23.8427 16.2536L23.9559 16.5818C24.0953 16.8831 24.2547 17.2116 24.3854 17.514C24.589 18.1033 24.5513 18.4074 24.2966 18.9826L24.14 19.1931L24.0482 19.1223L23.9522 19.2527C23.896 19.0626 23.927 18.9435 23.9562 18.7497C24.2172 17.8028 23.8357 17.5492 23.7249 16.7794L23.7225 16.7624C23.6797 16.7161 23.5253 16.3996 23.4861 16.3227L23.4941 16.2798L23.5861 16.2657L23.5932 16.2087C23.6595 15.9957 23.6214 15.5202 23.6028 15.2911L23.6181 15.1803Z" fill="#8F5125"/>
<path d="M23.7225 16.7624C24.3171 17.5583 24.4473 18.1876 24.0482 19.1223L23.9522 19.2527C23.896 19.0626 23.927 18.9435 23.9562 18.7497C24.2172 17.8028 23.8357 17.5492 23.7249 16.7794L23.7225 16.7624Z" fill="var(--fill-0, #E5A445)"/>
<path d="M23.6181 15.1803C23.709 14.9049 24.1353 13.6647 24.4694 13.7591L24.4996 13.8914C24.4273 14.1767 24.6635 14.4263 24.5652 14.6617C24.4963 14.4921 24.4093 14.2926 24.354 14.1206C23.8588 14.8863 23.7541 15.3084 23.8427 16.2536L23.8198 16.3192L23.769 16.3378C23.6351 16.2107 23.6756 15.4812 23.6181 15.1803Z" fill="#310803"/>
<path d="M24.3909 16.3699C24.3088 16.0216 24.3163 15.6342 24.3354 15.2778C24.3949 15.4873 24.6246 16.3028 24.6189 16.4938L24.5358 16.4431C24.4916 16.5222 24.4884 16.5595 24.4719 16.6466C24.4683 16.8543 24.5223 17.3945 24.3854 17.514C24.2547 17.2116 24.0953 16.8831 23.9559 16.5818C24.0716 16.6482 24.0915 16.6642 24.2228 16.658C24.3512 16.5471 24.3208 16.5518 24.3909 16.3699Z" fill="#E7AF60"/>
<path d="M27.0693 11.1592C27.4549 11.0307 27.61 11.1797 27.7251 11.5958C27.9032 12.2398 27.8826 12.9006 27.7908 13.5584C27.7783 13.4328 27.7635 13.3084 27.776 13.1822C27.7395 13.2603 27.7623 13.2352 27.6892 13.277L27.6223 13.1324L27.5575 13.3441C27.4374 14.8115 26.8752 14.8242 25.9362 15.9102C25.8533 15.7038 25.8906 15.6774 26.0207 15.5284L26.0946 15.1567C26.1465 14.6034 25.7549 13.8775 25.6323 13.2354C25.6761 13.1392 25.7341 13.0455 25.7104 12.9447C26.002 12.6036 26.8352 11.349 27.0693 11.1592Z" fill="#F1C887"/>
<path d="M27.0693 11.1592C27.4549 11.0307 27.61 11.1797 27.7251 11.5958C27.9032 12.2398 27.8826 12.9006 27.7908 13.5584C27.7783 13.4328 27.7635 13.3084 27.776 13.1822C27.7395 13.2603 27.7623 13.2352 27.6892 13.277L27.6223 13.1324L27.5575 13.3441C27.4374 14.8115 26.8752 14.8242 25.9362 15.9102C25.8533 15.7038 25.8906 15.6774 26.0207 15.5284C26.2479 15.5156 26.2577 15.0351 26.2786 14.8535L26.3517 14.9009C26.6902 14.5331 27.241 12.3254 27.3125 11.6926L27.2338 11.2865C27.2093 11.2613 27.1034 11.185 27.0693 11.1592Z" fill="#D79D55"/>
<path d="M27.0693 11.1592C27.4549 11.0307 27.61 11.1797 27.7251 11.5958C27.9032 12.2398 27.8826 12.9006 27.7908 13.5584C27.7783 13.4328 27.7635 13.3084 27.776 13.1822C27.7395 13.2603 27.7623 13.2352 27.6892 13.277L27.6223 13.1324L27.5575 13.3441C27.559 12.8147 27.5318 12.1782 27.3125 11.6926L27.2338 11.2865C27.2093 11.2613 27.1034 11.185 27.0693 11.1592Z" fill="#6A3311"/>
<path d="M25.6323 13.2354C25.8037 13.2304 25.8705 13.1508 25.9893 13.0316C25.969 13.731 26.2805 14.0435 26.2786 14.8535C26.2577 15.0351 26.2479 15.5156 26.0207 15.5284L26.0946 15.1567C26.1465 14.6034 25.7549 13.8775 25.6323 13.2354Z" fill="#8F5125"/>
<path d="M25.7104 12.9447C26.002 12.6036 26.8352 11.349 27.0693 11.1592C27.1034 11.185 27.2093 11.2613 27.2338 11.2865C27.0378 11.3593 26.0914 12.7861 25.9893 13.0316C25.8705 13.1508 25.8037 13.2304 25.6323 13.2354C25.6761 13.1392 25.7341 13.0455 25.7104 12.9447Z" fill="#602D0F"/>
<path d="M27.8286 16.9265L28.2477 16.8373C27.76 17.6461 27.5769 17.8543 26.8122 18.389C26.124 18.3571 25.2623 18.4493 24.6657 18.8223C24.6622 18.6598 24.7353 18.6192 24.7632 18.4569C24.9658 18.1961 25.1351 17.9766 25.3617 17.7353C25.5102 17.5238 25.6861 17.4086 25.9067 17.3002C26.1806 17.1557 26.5092 17.0499 26.8064 16.9751C27.1757 17.008 27.2384 17.0933 27.5216 17.3501L27.5458 17.3352C27.6587 17.2654 27.8457 17.1414 27.8794 17.0061L27.8286 16.9265Z" fill="var(--fill-0, #E5A445)"/>
<path d="M25.9067 17.3002C26.1806 17.1557 26.5092 17.0499 26.8064 16.9751C27.1757 17.008 27.2384 17.0933 27.5216 17.3501C26.8428 17.8742 26.3111 17.8804 25.5081 17.9523C25.6444 17.7336 25.7589 17.515 25.9067 17.3002Z" fill="#F1C887"/>
<path d="M26.8064 16.9751C27.1466 16.8942 27.4688 16.9381 27.8286 16.9265L27.8794 17.0061C27.8457 17.1414 27.6587 17.2654 27.5458 17.3352L27.5216 17.3501C27.2384 17.0933 27.1757 17.008 26.8064 16.9751Z" fill="#F3BC6A"/>
<path d="M27.0702 18.4372C27.2276 18.3404 27.5383 18.0901 27.7144 17.9649C27.6041 18.1656 27.5954 18.316 27.5626 18.5436L27.3977 18.5327C27.3877 18.5281 27.13 18.4584 27.0702 18.4372Z" fill="#F1C887"/>
<path d="M26.0953 16.9845C26.036 17.0726 25.696 17.2796 25.5864 17.294L25.5465 17.2219C25.5499 17.0487 25.6057 16.8255 25.6782 16.6703C26.3685 15.1921 26.9806 15.0416 28.2724 14.5279L28.296 14.565L28.2232 14.903C28.0585 16.1571 27.2696 16.859 26.0953 16.9845Z" fill="#F3BC6A"/>
<path d="M26.0953 16.9845C26.1015 16.974 26.1078 16.9636 26.1143 16.9534C26.1926 16.8315 26.2657 16.7584 26.3711 16.6661C26.967 16.1443 27.5335 15.601 28.0452 14.9876C28.0828 14.9425 28.1679 14.9151 28.2232 14.903C28.0585 16.1571 27.2696 16.859 26.0953 16.9845Z" fill="var(--fill-0, #E5A445)"/>
<path d="M20.311 4.1281C20.4519 4.13358 20.5591 4.13719 20.6995 4.12788C20.3952 4.78398 20.2071 4.87804 20.4707 5.6266C20.6594 6.1622 20.912 6.67885 21.1035 7.20189C22.0356 9.7466 22.5308 12.3559 22.8613 15.0506C22.8812 15.2132 22.9387 16.1356 22.972 16.1923C22.9505 16.2775 22.8769 16.5214 22.8953 16.5911L22.9287 16.6079L22.9758 16.5959L23.1877 16.1901L23.2344 16.5164C23.291 16.4127 23.3058 16.3986 23.3859 16.3181L23.4861 16.3227C23.5253 16.3996 23.6797 16.7161 23.7225 16.7624L23.7249 16.7794C23.8357 17.5492 24.2172 17.8028 23.9562 18.7497C23.927 18.9435 23.896 19.0626 23.9522 19.2527L24.0482 19.1223L24.14 19.1931L24.1289 19.2377L24.1567 19.2822C24.2922 19.2233 24.5464 18.9432 24.6657 18.8223C25.2623 18.4493 26.124 18.3571 26.8122 18.389C26.9218 18.4589 26.9423 18.4536 27.0702 18.4372C27.13 18.4584 27.3877 18.5281 27.3977 18.5327L27.5626 18.5436C27.4963 18.8944 26.9651 19.6556 26.6777 19.81C26.6014 19.9067 26.4966 20.0117 26.4949 20.1319C26.5887 20.2212 26.5495 20.1966 26.6862 20.213L26.7784 20.2404C26.7109 20.7799 24.9791 22.1576 24.4726 22.2785L24.2806 22.3099L24.1159 22.2038C24.0259 22.2181 23.9425 22.2289 23.8545 22.2544C23.5783 22.092 22.6266 22.197 22.2969 22.2297C22.2367 22.3305 22.0817 22.4551 21.9645 22.4589C21.9727 22.3368 22.2073 21.9706 22.2861 21.8166C22.4869 21.3505 22.6274 20.6157 22.4982 20.1054C22.4924 19.8428 22.2946 19.3228 22.2018 19.0618L22.326 18.9013C22.339 18.9802 22.5038 19.4005 22.5457 19.5782C22.65 20.0209 22.6986 20.4325 22.7931 20.8738C22.9259 20.5354 23.0275 20.2959 23.1041 19.9355C22.7901 19.4902 22.5307 18.9147 22.428 18.3657C22.3193 17.7827 22.6387 17.1845 22.5755 16.611C22.4345 15.3585 22.3326 14.1015 22.1703 12.8513C22.0216 11.7053 21.6607 10.5458 21.3347 9.44176C20.9641 8.18665 20.6098 6.86274 20.0657 5.67855C20.0892 5.5187 19.821 4.95531 19.7459 4.72175C19.9054 4.53433 20.1364 4.30856 20.311 4.1281Z" fill="#763D15"/>
<path d="M24.6657 18.8223C25.2623 18.4493 26.124 18.3571 26.8122 18.389C26.9218 18.4589 26.9423 18.4536 27.0702 18.4372C27.13 18.4584 27.3877 18.5281 27.3977 18.5327L27.5626 18.5436C27.4963 18.8944 26.9651 19.6556 26.6777 19.81C26.6014 19.9067 26.4966 20.0117 26.4949 20.1319C26.5887 20.2212 26.5495 20.1966 26.6862 20.213L26.7784 20.2404C26.7109 20.7799 24.9791 22.1576 24.4726 22.2785L24.2806 22.3099L24.1159 22.2038C24.0259 22.2181 23.9425 22.2289 23.8545 22.2544C23.5783 22.092 22.6266 22.197 22.2969 22.2297L22.7151 21.6434C22.6105 21.6047 22.5847 21.6168 22.53 21.5362L22.6081 21.4987C22.6566 21.4848 23.3697 20.8102 23.5035 20.6941C23.6028 20.5601 23.7041 20.4265 23.7959 20.287C23.6427 20.3374 23.6214 20.4421 23.472 20.5092C23.5601 20.3796 23.605 20.2752 23.7267 20.1883L23.7473 20.1739L23.7543 20.1057C23.7008 19.9516 23.9187 19.6608 23.9522 19.2527L24.0482 19.1223L24.14 19.1931L24.1289 19.2377L24.1567 19.2822C24.2922 19.2233 24.5464 18.9432 24.6657 18.8223Z" fill="#D79D55"/>
<path d="M24.6657 18.8223C25.2623 18.4493 26.124 18.3571 26.8122 18.389C26.9218 18.4589 26.9423 18.4536 27.0702 18.4372C27.13 18.4584 27.3877 18.5281 27.3977 18.5327L27.5626 18.5436C27.4963 18.8944 26.9651 19.6556 26.6777 19.81C26.5455 19.9003 26.3948 20.0297 26.2437 20.0265L26.1457 19.9591C25.8807 20.0892 25.7062 20.2048 25.4088 20.2016C24.5355 20.315 24.3282 20.2966 23.5035 20.6941C23.6028 20.5601 23.7041 20.4265 23.7959 20.287C23.6427 20.3374 23.6214 20.4421 23.472 20.5092C23.5601 20.3796 23.605 20.2752 23.7267 20.1883L23.7473 20.1739L23.7543 20.1057C23.7008 19.9516 23.9187 19.6608 23.9522 19.2527L24.0482 19.1223L24.14 19.1931L24.1289 19.2377L24.1567 19.2822C24.2922 19.2233 24.5464 18.9432 24.6657 18.8223Z" fill="#F3BC6A"/>
<path d="M27.5626 18.5436C27.4963 18.8944 26.9651 19.6556 26.6777 19.81C26.5455 19.9003 26.3948 20.0297 26.2437 20.0265L26.1457 19.9591C25.8807 20.0892 25.7062 20.2048 25.4088 20.2016C25.2908 20.1997 25.1451 20.2116 25.048 20.1493C25.2042 19.9099 26.1123 19.7854 26.1909 19.3053C26.3683 19.0293 26.7686 19.1264 27.0207 19.171L27.3449 18.7678L27.3701 18.7185L27.308 18.58L27.3977 18.5327L27.5626 18.5436Z" fill="#E7AF60"/>
<path d="M27.5626 18.5436C27.4963 18.8944 26.9651 19.6556 26.6777 19.81C26.5455 19.9003 26.3948 20.0297 26.2437 20.0265L26.1457 19.9591C26.5304 19.6994 26.7145 19.5249 27.0207 19.171L27.3449 18.7678L27.3701 18.7185L27.308 18.58L27.3977 18.5327L27.5626 18.5436Z" fill="#1B0200"/>
<path d="M26.1909 19.3053C26.1123 19.7854 25.2042 19.9099 25.048 20.1493C25.1451 20.2116 25.2908 20.1997 25.4088 20.2016C24.5355 20.315 24.3282 20.2966 23.5035 20.6941C23.6028 20.5601 23.7041 20.4265 23.7959 20.287C23.8802 20.1698 24.0758 19.9794 24.1819 19.8698C24.8463 19.6655 25.5371 19.6339 26.1909 19.3053Z" fill="#D09044"/>
<path d="M24.6657 18.8223C25.2623 18.4493 26.124 18.3571 26.8122 18.389C26.9218 18.4589 26.9423 18.4536 27.0702 18.4372C27.13 18.4584 27.3877 18.5281 27.3977 18.5327L27.308 18.58L27.3701 18.7185L27.3449 18.7678C26.9968 18.5924 26.0668 18.6182 25.6701 18.6507C24.8511 18.7178 24.1841 19.4216 23.7543 20.1057C23.7008 19.9516 23.9187 19.6608 23.9522 19.2527L24.0482 19.1223L24.14 19.1931L24.1289 19.2377L24.1567 19.2822C24.2922 19.2233 24.5464 18.9432 24.6657 18.8223Z" fill="#7E461D"/>
<path d="M26.1457 19.9591L26.2437 20.0265C26.3948 20.0297 26.5455 19.9003 26.6777 19.81C26.6014 19.9067 26.4966 20.0117 26.4949 20.1319C26.5887 20.2212 26.5495 20.1966 26.6862 20.213C26.4911 20.2671 26.5274 20.2239 26.4365 20.3867C26.2712 20.2971 25.9718 20.3615 25.7911 20.402C25.8101 20.4657 25.8389 20.513 25.7987 20.5674C25.5872 20.8532 24.5593 21.3747 24.2563 21.4606C24.1609 21.4871 24.0648 21.5105 23.9681 21.5309C23.7038 21.56 23.0713 21.675 22.8795 21.4888L22.7151 21.6434C22.6105 21.6047 22.5847 21.6168 22.53 21.5362L22.6081 21.4987C22.6566 21.4848 23.3697 20.8102 23.5035 20.6941C24.3282 20.2966 24.5355 20.315 25.4088 20.2016C25.7062 20.2048 25.8807 20.0892 26.1457 19.9591Z" fill="#763D15"/>
<path d="M25.0989 20.4601L25.7911 20.402C25.8101 20.4657 25.8389 20.513 25.7987 20.5674C25.5872 20.8532 24.5593 21.3747 24.2563 21.4606C24.1609 21.4871 24.0648 21.5105 23.9681 21.5309C23.8595 21.4909 23.6911 21.3735 23.6243 21.2675C23.5779 20.8041 24.7218 20.5892 25.0989 20.4601Z" fill="#F1C887"/>
<path d="M22.8795 21.4888L22.8948 21.4728C23.6047 20.7326 24.0802 20.4582 25.0989 20.4601C24.7218 20.5892 23.5779 20.8041 23.6243 21.2675C23.6911 21.3735 23.8595 21.4909 23.9681 21.5309C23.7038 21.56 23.0713 21.675 22.8795 21.4888Z" fill="#E7AF60"/>
<path d="M26.6862 20.213L26.7784 20.2404C26.7109 20.7799 24.9791 22.1576 24.4726 22.2785L24.2806 22.3099L24.1159 22.2038C25.0931 21.8891 25.8587 21.2589 26.4365 20.3867C26.5274 20.2239 26.4911 20.2671 26.6862 20.213Z" fill="#050000"/>
<path d="M23.1877 16.1901L23.2344 16.5164C23.291 16.4127 23.3058 16.3986 23.3859 16.3181L23.4861 16.3227C23.5253 16.3996 23.6797 16.7161 23.7225 16.7624L23.7249 16.7794C23.8357 17.5492 24.2172 17.8028 23.9562 18.7497C23.927 18.9435 23.896 19.0626 23.9522 19.2527C23.9187 19.6608 23.7008 19.9516 23.7543 20.1057L23.7473 20.1739L23.7267 20.1883C23.605 20.2752 23.5601 20.3796 23.472 20.5092C23.4589 20.469 23.4325 19.9835 23.429 19.914C23.4662 19.7367 23.0915 18.5884 23.0534 18.2687C22.9843 17.6883 23.0391 17.1586 22.9758 16.5959L23.1877 16.1901Z" fill="#E7AF60"/>
<path d="M23.2344 16.5164C23.291 16.4127 23.3058 16.3986 23.3859 16.3181L23.4861 16.3227C23.5253 16.3996 23.6797 16.7161 23.7225 16.7624L23.7249 16.7794C23.8357 17.5492 24.2172 17.8028 23.9562 18.7497C23.8568 18.7796 23.7699 18.8201 23.6741 18.7935C23.6059 18.4313 23.4736 18.0857 23.284 17.7744C23.0839 17.3079 23.0898 16.9942 23.2344 16.5164Z" fill="#F1C887"/>
<path d="M23.284 17.7744C23.4736 18.0857 23.6059 18.4313 23.6741 18.7935C23.6603 18.9142 23.6626 19.0343 23.5848 19.1183C23.4805 19.0373 23.2671 17.9064 23.284 17.7744Z" fill="#D79D55"/>
<path d="M22.9287 16.6079L22.9758 16.5959C23.0391 17.1586 22.9843 17.6883 23.0534 18.2687C23.0915 18.5884 23.4662 19.7367 23.429 19.914L23.3795 20.1379C23.3631 19.9517 22.8638 19.374 22.7093 18.8499C22.4875 18.0978 22.5985 17.3042 22.9287 16.6079Z" fill="#D09044"/>
<path d="M23.3795 20.1379L23.429 19.914C23.4325 19.9835 23.4589 20.469 23.472 20.5092C23.6214 20.4421 23.6427 20.3374 23.7959 20.287C23.7041 20.4265 23.6028 20.5601 23.5035 20.6941C23.3697 20.8102 22.6566 21.4848 22.6081 21.4987C22.7104 21.1828 23.139 20.727 23.3795 20.1379Z" fill="#D79D55"/>
<path d="M20.4115 1.6823C20.4563 2.35463 20.5429 3.50248 20.311 4.1281C20.1364 4.30856 19.9054 4.53433 19.7459 4.72175C19.821 4.95531 20.0892 5.5187 20.0657 5.67855C19.7479 5.45052 20.0843 4.88876 19.2877 4.97343C18.8726 5.03574 18.4883 4.95773 18.081 4.96969C16.2137 5.02448 14.3622 5.41585 12.5012 5.56491C11.9337 5.61036 11.3451 5.76125 10.7722 5.78421C9.90986 5.78612 9.0302 5.79199 8.17434 5.68319C7.6969 5.62249 7.76673 5.98002 7.66152 6.06012C7.13043 6.46423 4.2881 6.95457 4.10595 6.09904L4.17147 6.08095C4.77136 6.70418 7.44549 6.36304 7.6352 5.81026C7.33625 5.65371 5.10784 6.20193 4.62579 5.99329C4.50941 5.94293 4.04567 5.76503 3.98127 5.71259C4.18667 5.6147 4.67362 6.01025 4.93155 5.94006V5.86435C4.78456 5.69563 4.26635 5.57013 4.04886 5.60053C4.07427 5.57805 4.24724 5.31316 4.29532 5.24923C5.42613 5.15357 6.4536 4.91096 7.57357 4.86213C8.87865 4.80525 10.2562 4.92553 11.5531 4.8219C12.0953 4.77859 12.8891 4.5666 13.445 4.47485L17.535 3.8407C17.7973 3.9242 18.2447 3.6829 18.4843 3.6098C18.5601 3.68124 18.6121 3.70286 18.706 3.69481C19.2924 3.6445 19.4254 2.92156 19.3945 2.39857C19.4862 2.24261 19.4642 1.96648 19.4939 1.75529C19.5028 1.85786 19.5111 1.92951 19.5288 2.03114C19.7403 2.00173 19.8572 1.66953 20.1163 1.70819C20.1966 1.76604 20.2314 1.80617 20.3261 1.79827L20.4115 1.6823Z" fill="#D79D55"/>
<path d="M19.7459 4.72175C19.821 4.95531 20.0892 5.5187 20.0657 5.67855C19.7479 5.45052 20.0843 4.88876 19.2877 4.97343C18.2086 4.58541 12.5731 5.55423 11.1561 5.65664C10.1841 5.72691 9.22382 5.68003 8.23106 5.62098C7.92721 5.60289 7.69212 5.7053 7.44034 5.70791C7.53866 5.6242 7.60319 5.75644 7.81017 5.55153C7.97862 5.45165 10.2233 5.53562 10.5691 5.49544C11.6659 5.36803 12.9606 5.3632 14.0325 5.14129C15.487 4.84025 16.8099 4.79907 18.2833 4.77019C18.5972 4.76406 19.5037 4.87408 19.7459 4.72175Z" fill="#7E461D"/>
<path d="M5.14468 5.96147C5.62993 5.5688 7.25051 5.34846 7.81017 5.55153C7.60319 5.75644 7.53866 5.6242 7.44034 5.70791C6.67429 5.78374 5.90899 5.86829 5.14468 5.96147Z" fill="#8F5125"/>
<path d="M0.489315 14.6728C0.508539 14.8029 0.535113 15.0325 0.56372 15.147C0.638208 15.4449 0.785772 15.6042 0.793495 15.9159C0.764264 17.0367 0.743877 18.1577 0.732252 19.2789C0.729511 20.0214 0.744293 20.7598 0.736155 21.5043C0.729678 22.0957 0.504761 22.7581 0.523362 23.2868C0.539015 23.6373 0.712862 23.9306 0.954843 24.1635C1.32761 24.5223 1.88216 24.751 2.32294 25.0132C3.54273 25.7387 4.75517 26.7169 6.22616 26.6459C6.2583 26.6444 6.28952 26.6415 6.32166 26.645C6.68874 26.7757 7.40439 26.583 7.79705 26.519C8.18963 26.5367 9.26563 26.3251 9.54975 26.4799C9.4009 26.5033 9.25604 26.5168 9.10573 26.5239L9.08663 26.5691C9.26924 26.5945 9.49283 26.5135 9.63329 26.6621C8.56489 26.755 7.49806 26.8674 6.43335 26.9989C6.04671 27.0266 5.68129 27.0245 5.29702 26.9646C5.01152 26.9189 4.69252 26.8684 4.42455 26.7555C3.89167 26.5312 3.42785 26.1479 2.92806 25.855C2.37136 25.5287 1.78484 25.2586 1.22996 24.9308C0.803999 24.6792 0.23056 24.2492 0.0906356 23.7289C-0.117341 23.2251 0.0935419 22.2226 0.123727 21.6465C0.160265 20.9485 0.1574 20.2163 0.210754 19.5231C0.290889 18.482 0.177413 17.2582 0.323773 16.2378C0.327344 15.8203 0.42745 15.1031 0.489315 14.6728Z" fill="#7E461D"/>
<path d="M0.323773 16.2378C0.351841 16.6601 0.348063 16.9885 0.397887 17.4182L0.40752 17.3576C0.53013 18.6654 0.294127 20.5438 0.246919 21.8702C0.228234 22.3941 -0.0188955 23.115 0.0906356 23.7289C-0.117341 23.2251 0.0935419 22.2226 0.123727 21.6465C0.160265 20.9485 0.1574 20.2163 0.210754 19.5231C0.290889 18.482 0.177413 17.2582 0.323773 16.2378Z" fill="#6A3311"/>
<path d="M2.58058 0.953395C2.46337 1.19257 2.21986 1.49356 2.16393 1.65893C2.24818 1.82977 2.28488 1.89523 2.37203 2.04997C2.37544 2.3791 2.37519 2.70827 2.37133 3.03737C2.40741 3.27275 2.45267 3.53223 2.48032 3.76657C2.55132 4.35588 2.90719 5.55942 2.854 5.99384C2.73472 6.96834 2.19416 8.2268 1.96683 9.21683C1.58759 10.8687 1.18965 12.4062 0.958758 14.0969C0.872727 14.7267 0.864079 15.3314 0.793495 15.9159C0.785772 15.6042 0.638208 15.4449 0.56372 15.147C0.535113 15.0325 0.508539 14.8029 0.489315 14.6728C0.493467 14.2903 0.621932 13.6189 0.681638 13.2155C0.917392 11.6231 1.25686 10.1036 1.68585 8.56024C1.83491 8.02411 2.38423 6.42746 2.41554 5.997C2.50813 4.72271 1.55863 3.30745 1.93626 1.79844C2.04675 1.35686 2.21304 1.18044 2.58058 0.953395Z" fill="#744312"/>
<path d="M2.16393 1.65893C2.24818 1.82977 2.28488 1.89523 2.37203 2.04997C2.37544 2.3791 2.37519 2.70827 2.37133 3.03737C2.40741 3.27275 2.45267 3.53223 2.48032 3.76657C2.38561 3.61094 2.36415 3.57439 2.34717 3.39119L2.34584 3.37619C2.26209 3.42854 2.34297 3.49612 2.17938 3.55465C1.96468 3.34253 2.06366 2.21591 2.09601 1.88155L2.16393 1.65893Z" fill="#7E461D"/>
<path d="M2.16393 1.65893C2.24818 1.82977 2.28488 1.89523 2.37203 2.04997C2.37544 2.3791 2.37519 2.70827 2.37133 3.03737C2.12739 2.40171 2.12545 2.70334 2.09601 1.88155L2.16393 1.65893Z" fill="#B67939"/>
<path d="M8.0125 0.414635C8.8444 0.280427 9.26688 0.458394 9.98489 0.42542C10.8106 0.3875 11.906 0.339041 12.7152 0.253714C13.0594 0.370459 13.808 0.248448 14.3704 0.407686C13.5072 0.526544 12.1563 0.702437 11.2962 0.77374C10.3243 0.820743 9.36086 0.788536 8.38097 0.837892C6.59846 0.927671 4.80369 1.17261 3.01781 1.22613C2.63781 1.23752 2.47206 1.70997 2.37203 2.04997C2.28488 1.89523 2.24818 1.82977 2.16393 1.65893C2.21986 1.49356 2.46337 1.19257 2.58058 0.953395C2.79404 0.834363 3.14675 0.785368 3.38645 0.77461C4.90041 0.706647 6.52993 0.773749 8.0125 0.414635Z" fill="#78481F"/>
<path d="M14.7305 25.8145C14.9732 25.9655 15.6958 25.6376 15.7583 25.8194C15.7677 25.8465 15.7695 25.8795 15.7721 25.9081C15.7548 26.0065 15.7413 26.1068 15.7093 26.2013C14.9017 26.1543 14.035 26.3312 13.2266 26.4142C12.0371 26.5363 10.8278 26.6272 9.63329 26.6621C9.49283 26.5135 9.26924 26.5945 9.08663 26.5691L9.10573 26.5239C9.25604 26.5168 9.4009 26.5033 9.54975 26.4799C9.26563 26.3251 8.18963 26.5367 7.79705 26.519L7.8454 26.4005C8.16295 26.2676 8.7018 26.2969 9.0485 26.2581C10.2709 26.0688 11.5399 26.107 12.7724 26.0421C13.4299 26.0075 14.08 25.9171 14.7305 25.8145Z" fill="#763D15"/>
<path d="M4.28536 5.03963C4.23773 4.61948 4.15886 4.20389 4.04933 3.79661C3.94495 3.39468 3.49063 2.24155 3.53709 1.97159C3.71077 1.85697 4.01473 1.91277 4.22573 1.93202C4.30176 2.03934 4.61495 2.45829 4.62969 2.54563C4.71497 3.05145 4.94171 4.78859 4.56574 5.12343C4.43902 5.13152 4.40552 5.13361 4.28536 5.03963Z" fill="#F5D19B"/>
<path d="M3.98127 5.71259C3.1661 5.70963 3.4639 3.29148 3.1789 3.1632C3.08137 3.31405 3.1919 3.8414 3.05293 3.98059C2.92829 3.53409 3.24654 2.99591 3.07382 2.5935C3.02735 2.4852 2.94103 2.26058 2.83873 2.21512C2.67219 2.45774 2.92567 4.0887 3.04704 4.41749C3.14644 4.68675 3.45763 4.97358 3.39942 5.3008C3.3907 5.28449 3.37787 5.25988 3.37812 5.24105C3.37961 4.96636 3.09628 4.71136 3.02113 4.4958C2.8834 4.101 2.56805 2.19161 2.76997 1.95697L2.88697 1.95507C3.53847 2.2711 3.47017 4.64248 3.73461 5.29189C3.82604 5.51636 3.85745 5.51182 4.04886 5.60053C4.26635 5.57013 4.78456 5.69563 4.93155 5.86435V5.94006C4.67362 6.01025 4.18667 5.6147 3.98127 5.71259Z" fill="#8F5125"/>
<path d="M0.523362 23.2868L0.537287 23.3092C0.695065 23.5668 0.798576 23.8262 0.981515 24.0721C1.06912 24.1899 3.94301 25.9125 4.30233 26.1008C4.56843 26.2402 4.8653 26.3139 5.13888 26.4447C5.23251 26.4066 5.32589 26.3402 5.42292 26.3821C5.52461 26.4261 5.58597 26.5626 5.69858 26.5837C6.45637 26.7258 8.45691 25.9691 9.0485 26.2581C8.7018 26.2969 8.16295 26.2676 7.8454 26.4005L7.79705 26.519C7.40439 26.583 6.68874 26.7757 6.32166 26.645C6.28952 26.6415 6.2583 26.6444 6.22616 26.6459C4.75517 26.7169 3.54273 25.7387 2.32294 25.0132C1.88216 24.751 1.32761 24.5223 0.954843 24.1635C0.712862 23.9306 0.539015 23.6373 0.523362 23.2868Z" fill="#B67939"/>
<path d="M6.32166 26.645C6.82904 26.5597 7.33694 26.4782 7.8454 26.4005L7.79705 26.519C7.40439 26.583 6.68874 26.7757 6.32166 26.645Z" fill="#602D0F"/>
<path d="M15.7094 25.5893C15.756 25.3418 15.8063 25.1084 15.91 24.8795C16.1893 24.2626 17.6168 22.9572 18.2134 22.7366L18.2401 22.7911C18.2162 22.9125 18.2026 23.0507 18.1214 23.1458C17.965 23.2872 17.9784 23.4092 17.85 23.5119C17.8225 23.4054 17.8263 23.324 17.7361 23.2624L17.6732 23.332C17.5034 23.4592 17.3407 23.5898 17.1819 23.7317C16.6056 24.0586 16.1544 24.6833 15.9657 25.3365C15.9173 25.504 15.924 25.7042 15.8651 25.8627L15.7721 25.9081C15.7695 25.8795 15.7677 25.8465 15.7583 25.8194C15.6958 25.6376 14.9732 25.9655 14.7305 25.8145C15.0405 25.7131 15.3905 25.6608 15.7094 25.5893Z" fill="#6A3311"/>
<path d="M9.70075 16.6828C10.9842 15.4993 14.2629 15.0512 15.916 15.1287C17.4651 15.2013 19.1754 16.5059 18.9571 18.2669C18.9035 18.7 18.719 19.6492 18.3751 19.9423C18.1557 20.2915 17.4993 20.764 17.1354 20.9236C16.2031 21.3346 14.1579 21.9467 13.2023 21.7267C11.4896 21.6805 11.0118 21.3979 9.5629 20.5367C9.41853 20.5882 9.22949 20.6867 9.10862 20.5697C9.11635 20.4342 9.18423 20.3613 9.26212 20.2504C8.93698 19.2623 8.69653 18.6016 9.12477 17.5907C9.20084 17.241 9.46935 16.9266 9.70075 16.6828Z" fill="#DF9E4D"/>
<path d="M9.97184 19.887C9.9882 19.915 10.0099 19.952 10.0369 19.9981C10.5089 20.1751 11.0369 20.294 11.5191 20.4581C11.5554 20.4704 11.6404 20.4663 11.6563 20.4654L11.6445 20.542C11.9158 20.7035 13.3109 20.6834 13.7132 20.686C13.6352 20.7939 12.9572 21.5204 12.8683 21.5698C12.9917 21.5606 13.1151 21.5354 13.216 21.6066L13.2023 21.7267C11.4896 21.6805 11.0118 21.3979 9.5629 20.5367C9.41853 20.5882 9.22949 20.6867 9.10862 20.5697C9.11635 20.4342 9.18423 20.3613 9.26212 20.2504L9.34463 20.2323C9.43644 20.1197 9.41729 20.0453 9.43627 19.8799C9.4645 20.0416 9.49726 20.2024 9.53438 20.3621L9.60148 20.4036C9.70237 20.3039 9.62706 20.3067 9.6915 20.2004C9.77919 20.1374 9.8986 19.9773 9.97184 19.887Z" fill="#D79D55"/>
<path d="M12.4747 16.8652C12.6046 16.7115 12.804 16.6404 12.9862 16.556L13.0384 16.5726C13.0185 16.7615 12.7403 17.2026 12.6362 17.3848C12.8166 17.3529 12.9977 17.3191 13.1792 17.2945C12.8463 17.8401 12.7763 17.9253 12.228 18.2135L12.2344 18.3414L12.2784 18.3971C12.1998 18.5345 11.8465 18.905 11.705 19.0866C10.2923 19.1805 11.0537 18.5699 9.97184 19.887C9.8986 19.9773 9.77919 20.1374 9.6915 20.2004C9.79443 19.8638 10.4796 19.0903 10.7398 18.7745C10.4424 17.8191 11.0046 18.0099 11.3072 17.3773C11.3219 17.3465 11.3603 17.2504 11.3842 17.2018L11.452 17.1917C11.4838 17.2767 11.4847 17.3021 11.5527 17.3517C11.7632 17.229 11.8375 16.5922 12.2024 16.564C12.2831 16.6819 12.2874 16.8791 12.3037 17.0292C12.3538 16.9391 12.3934 16.9203 12.4747 16.8652Z" fill="#6A3311"/>
<path d="M12.2344 18.3414C12.0452 18.5221 11.6941 18.6101 11.5109 18.3626C11.4963 18.1849 11.4839 18.2522 11.5631 18.0925C11.8198 17.8908 12.0245 18.032 12.228 18.2135L12.2344 18.3414Z" fill="var(--fill-0, #E5A445)"/>
<path d="M12.4747 16.8652C12.6581 16.8831 12.6998 16.7316 12.8529 16.7738C12.7818 17.1591 12.353 17.4569 12.0693 17.6534C12.1523 17.4732 12.2868 17.2193 12.3037 17.0292C12.3538 16.9391 12.3934 16.9203 12.4747 16.8652Z" fill="var(--fill-0, #E5A445)"/>
<path d="M11.301 18.4036C11.5585 18.5773 11.8153 18.5787 11.8917 18.6689C11.8478 19.0495 11.0927 19.0683 10.8793 18.8487C10.8213 18.7891 10.8382 18.685 10.8333 18.5969L10.9241 18.6984C11.0743 18.6642 11.1712 18.528 11.301 18.4036Z" fill="var(--fill-0, #E5A445)"/>
<path d="M12.8004 17.4407L12.8821 17.4163L12.9091 17.4751C12.8919 17.5142 12.8739 17.5526 12.8527 17.5895C12.696 17.8611 12.4628 17.9789 12.1803 18.0516C12.1289 18.0197 12.0604 17.9848 12.0253 17.9332C11.9812 17.8682 12.0025 17.8317 12.017 17.7587C12.1688 17.5494 12.5687 17.505 12.8004 17.4407Z" fill="#F3BC6A"/>
<path d="M12.1327 16.6586C12.1677 16.7183 12.1725 16.7666 12.1759 16.8352C12.1968 17.2558 12.0244 17.6397 11.7574 17.9463C11.7218 17.8588 11.6998 17.7483 11.6948 17.6537C11.6768 17.3147 11.9242 16.9002 12.1327 16.6586Z" fill="#E7AF60"/>
<path d="M11.4628 17.3609C11.5015 17.3745 11.5236 17.3969 11.5547 17.4237C11.5683 17.6017 11.5725 17.7779 11.574 17.9564C11.4942 18.0833 11.4178 18.1868 11.3083 18.2869C11.2349 18.1734 11.1815 18.0543 11.1768 17.9149C11.1695 17.6943 11.3288 17.5117 11.4628 17.3609Z" fill="#E7AF60"/>
<path d="M10.8333 18.5969C10.8201 18.4079 10.7823 18.188 10.8645 18.0264L10.9348 17.963C11.1106 18.0175 11.2044 18.1906 11.1686 18.3774C11.0842 18.4673 10.9548 18.583 10.9241 18.6984L10.8333 18.5969Z" fill="#F3BC6A"/>
<path d="M16.2205 18.1733C16.0579 18.7515 14.8846 19.7057 14.5011 20.1738L14.6197 20.2881C14.6471 20.4001 14.6501 20.4181 14.7262 20.5059L14.7351 20.5741C14.754 20.8086 14.0967 21.1099 13.8908 21.2512C14.0848 21.225 14.7145 21.0616 14.8287 21.0691C14.7196 21.2149 13.4004 21.6222 13.216 21.6066C13.1151 21.5354 12.9917 21.5606 12.8683 21.5698C12.9572 21.5204 13.6352 20.7939 13.7132 20.686C13.3109 20.6834 11.9158 20.7035 11.6445 20.542L11.6563 20.4654C12.3556 20.5012 13.0187 20.5284 13.7184 20.4965C13.5446 20.3471 12.7561 19.7594 12.7281 19.6166L12.7879 19.5421C13.144 19.4257 13.9055 19.6974 13.8304 20.1306C13.7936 20.2528 13.8155 20.2431 13.7336 20.315C13.7813 20.3875 13.8008 20.3972 13.8689 20.4511C14.5396 20.3876 14.7996 18.7275 15.2529 18.5454C14.9881 19.1357 14.751 19.334 14.5962 19.9909C14.7765 19.8195 15.6625 18.7425 15.7506 18.6946C15.9633 18.5587 15.9808 18.3442 16.2205 18.1733Z" fill="#7E461D"/>
<path d="M14.5011 20.1738L14.6197 20.2881C14.6471 20.4001 14.6501 20.4181 14.7262 20.5059L14.7351 20.5741C14.2317 20.8703 13.807 21.4225 13.2635 21.4665L13.2356 21.4081C13.3929 21.0792 14.1278 20.6486 14.5011 20.1738Z" fill="#D79D55"/>
<path d="M13.7336 20.315C13.4747 20.0434 13.2006 19.9391 12.9363 19.6217L12.9443 19.5627C13.3033 19.5934 13.6079 19.8573 13.8304 20.1306C13.7936 20.2528 13.8155 20.2431 13.7336 20.315Z" fill="#E7AF60"/>
<path d="M16.0707 16.7739C15.9443 16.5837 15.9164 16.3221 15.9553 16.0968C16.0561 16.1898 15.9948 16.5014 16.1635 16.728C16.2295 16.8314 16.3199 16.9838 16.3986 17.0709L16.4492 16.967C16.5432 16.8941 16.6438 16.8591 16.7525 16.814C16.8352 16.8739 16.8875 16.9033 16.943 16.9937C16.9655 17.2541 16.5364 18.0409 16.1915 18.0639L16.2205 18.1733C15.9808 18.3442 15.9633 18.5587 15.7506 18.6946C15.7474 18.6108 15.7549 18.4793 15.7576 18.3913C15.735 18.4403 15.7008 18.4987 15.6746 18.5468C15.6002 18.5054 15.4168 18.1005 15.3846 17.9969C15.204 17.4155 15.851 17.1481 15.6382 16.5411L15.6329 16.5263L15.672 16.4948C15.8094 16.579 15.771 16.5331 15.8405 16.6742L16.0707 16.7739Z" fill="#6A3311"/>
<path d="M15.7576 18.3913C15.6881 18.2245 15.5411 18.1719 15.5108 18.0128C15.4717 17.8077 15.4713 17.5281 15.5733 17.3457L15.6339 17.3434C15.8235 17.5734 15.7999 17.8861 15.9406 18.0228L16.0982 18.0285L16.1915 18.0639L16.2205 18.1733C15.9808 18.3442 15.9633 18.5587 15.7506 18.6946C15.7474 18.6108 15.7549 18.4793 15.7576 18.3913Z" fill="#E7AF60"/>
<path d="M15.8405 16.6742L16.0707 16.7739L16.2784 17.2329L15.9714 17.7353L15.7034 17.2097C15.7419 16.9819 15.7544 16.8899 15.8405 16.6742Z" fill="var(--fill-0, #E5A445)"/>
<path d="M15.9406 18.0228C16.0605 17.7903 16.3037 17.2805 16.6165 17.4292C16.6529 17.7457 16.3301 17.9127 16.0982 18.0285L15.9406 18.0228Z" fill="var(--fill-0, #E5A445)"/>
<path d="M16.4492 16.967C16.5432 16.8941 16.6438 16.8591 16.7525 16.814C16.8352 16.8739 16.8875 16.9033 16.943 16.9937C16.8043 17.135 16.5713 17.3349 16.373 17.3487L16.3299 17.2978C16.3496 17.2142 16.3607 17.1478 16.3986 17.0709L16.4492 16.967Z" fill="#E7AF60"/>
<path d="M9.70075 16.6828L9.73143 16.7844C9.61559 16.9697 9.5198 17.0307 9.39262 17.2561C9.32798 17.3707 9.22069 17.6353 9.18768 17.6852C9.02633 18.234 9.22941 19.3542 9.43627 19.8799C9.41729 20.0453 9.43644 20.1197 9.34463 20.2323L9.26212 20.2504C8.93698 19.2623 8.69653 18.6016 9.12477 17.5907C9.20084 17.241 9.46935 16.9266 9.70075 16.6828Z" fill="#D09044"/>
<path d="M16.7467 15.771L16.7688 15.8925C16.8929 16.3603 16.6355 16.5247 16.7525 16.814C16.6438 16.8591 16.5432 16.8941 16.4492 16.967L16.3986 17.0709C16.3199 16.9838 16.2295 16.8314 16.1635 16.728L16.2473 16.59C16.3727 16.3078 16.5647 16.0162 16.7467 15.771Z" fill="var(--fill-0, #E5A445)"/>
<path d="M16.7688 15.8925C16.8929 16.3603 16.6355 16.5247 16.7525 16.814C16.6438 16.8591 16.5432 16.8941 16.4492 16.967C16.4524 16.9422 16.4528 16.9343 16.4648 16.9119C16.6269 16.6103 16.6951 16.2324 16.7688 15.8925Z" fill="#763D15"/>
<path d="M17.1354 20.9236L17.1214 20.8139C17.3681 20.5195 17.9241 20.2722 18.2976 19.8868L18.3751 19.9423C18.1557 20.2915 17.4993 20.764 17.1354 20.9236Z" fill="#B67939"/>
<path d="M14.6197 20.2881C15.0446 20.2447 15.1959 20.2234 15.5552 20.5285L15.547 20.5689C15.1453 20.5915 15.0781 20.4023 14.7262 20.5059C14.6501 20.4181 14.6471 20.4001 14.6197 20.2881Z" fill="#763D15"/>
<path d="M16.2473 16.59C16.1325 16.3515 16.5832 15.8298 16.7394 15.6436L16.7808 15.6761L16.7467 15.771C16.5647 16.0162 16.3727 16.3078 16.2473 16.59Z" fill="#7E461D"/>
<path d="M16.0223 19.7645L16.0535 19.6199C16.3341 19.3324 17.2389 18.2646 17.6048 18.5361C17.6976 18.721 17.6533 18.964 17.6161 19.1637C17.5053 19.2939 17.4353 19.2118 17.1828 19.3432L17.3229 19.4233L17.3813 19.3843L17.409 19.4285C17.3853 19.4753 17.266 19.707 17.2347 19.7187C16.8711 19.8552 16.5442 20.1122 16.1973 20.2684C16.3197 20.346 16.522 20.459 16.6078 20.5684C16.4297 20.5965 15.6736 20.0419 15.5899 19.8154L15.6233 19.7481C15.7771 19.7581 15.7795 19.8076 15.8111 19.9589C15.9175 19.8009 15.8752 19.812 16.0223 19.7645Z" fill="#8F5125"/>
<path d="M16.0223 19.7645C16.1122 19.7256 16.1492 19.7093 16.2342 19.6527C16.3868 19.6595 16.454 19.654 16.5906 19.7214C16.7042 19.975 16.195 20.2878 15.8111 19.9589C15.9175 19.8009 15.8752 19.812 16.0223 19.7645Z" fill="var(--fill-0, #E5A445)"/>
<path d="M17.3229 19.4233C17.2246 19.6014 17.0971 19.7376 16.8886 19.7286L16.8515 19.6601C16.8879 19.523 17.0629 19.4282 17.1828 19.3432L17.3229 19.4233Z" fill="var(--fill-0, #E5A445)"/>
<path d="M17.4342 18.4977C17.4692 18.5139 17.4982 18.5453 17.5275 18.571C17.5191 18.7206 17.5245 18.8711 17.5266 19.0209C17.3269 19.2315 16.7521 19.5468 16.4811 19.5872C16.4265 19.5585 16.4131 19.543 16.3843 19.4866C16.5476 19.1521 17.1384 18.7025 17.4342 18.4977Z" fill="var(--fill-0, #E5A445)"/>
<path d="M12.3976 11.2872C12.5806 11.2819 12.7743 11.2635 12.9455 11.3431C13.3292 11.5218 13.5959 11.8846 13.7394 12.2901C13.9041 12.7553 13.9528 13.4214 13.7485 13.8817C13.5831 14.2545 13.3393 14.4153 12.9845 14.5486C12.7715 14.5812 12.6063 14.5749 12.4038 14.4934C12.0707 14.3592 11.819 14.0684 11.6756 13.7314C11.4763 13.2631 11.4288 12.6257 11.6068 12.1426C11.7488 11.7571 12.0389 11.4539 12.3976 11.2872Z" fill="#FBF4D9"/>
<path d="M12.531 11.896C12.62 11.9004 12.7204 11.9019 12.8051 11.9328C12.9978 12.0033 13.1364 12.2079 13.216 12.3969C13.3614 12.7416 13.3948 13.2128 13.2577 13.566C13.173 13.7839 13.0661 13.8531 12.8653 13.9447C12.8038 13.9476 12.7406 13.9506 12.6793 13.9428C12.4414 13.9126 12.2954 13.6848 12.1582 13.5037C12.1101 13.1463 12.0414 12.737 12.141 12.3834C12.2097 12.1397 12.323 12.0176 12.531 11.896Z" fill="#F5D19B"/>
<path d="M17.211 10.8699C17.4139 10.8546 17.6317 10.8374 17.8312 10.8886C18.1911 10.981 18.3686 11.2387 18.5474 11.5511C18.559 11.7484 18.5466 11.9471 18.5398 12.1444C18.419 12.2657 18.3208 12.4093 18.2191 12.5481C18.4174 13.0168 18.6749 13.464 18.9266 13.9028L18.4492 14.0387L17.9537 13.1758C17.8497 13.0342 17.7089 12.7824 17.5264 12.7588C17.4454 12.7484 17.4304 12.7794 17.3699 12.8303C17.2142 13.1856 17.3368 13.7579 17.3614 14.1457C17.1829 14.151 17.0072 14.1847 16.8312 14.2139C16.7118 13.1219 16.5792 12.0376 16.5479 10.9381C16.766 10.8998 16.9905 10.8886 17.211 10.8699Z" fill="#FBF4D9"/>
<path d="M17.2705 11.3412C17.3655 11.335 17.4727 11.3238 17.567 11.3386C17.7071 11.3605 17.8398 11.4679 17.9226 11.5844C17.9843 11.671 18.0122 11.7692 17.9949 11.8768C17.9677 12.0451 17.8493 12.1542 17.722 12.2457L17.2194 12.336C17.1919 12.0838 17.0575 11.6883 17.1311 11.4456C17.1505 11.3814 17.2151 11.3683 17.2705 11.3412Z" fill="#F3BC6A"/>
<path d="M3.62731 6.15073C3.72812 6.15929 3.82084 6.17086 3.90637 6.23244C4.12116 6.38716 4.3753 6.64098 4.49862 6.88415C4.7188 7.31835 4.83738 8.2248 4.9208 8.73014C5.23503 10.6332 5.26567 12.276 5.33405 14.1888C5.34211 14.414 5.42523 15.3177 5.33326 15.4541C5.14455 15.0993 5.28796 14.0793 5.20791 13.6211C5.10511 13.6416 5.1326 13.63 5.04918 13.5995C5.04167 13.5968 4.98902 13.6425 4.97627 13.6433C4.95028 13.645 4.88675 13.6194 4.85927 13.6121L4.88418 13.6994C4.91947 14.2194 4.90174 14.7544 4.91856 15.2773C4.92811 15.5737 4.98175 15.8538 4.96726 16.1506C4.83929 15.9135 4.80541 13.8254 4.77236 13.3833C4.66972 12.0096 4.54309 10.658 4.35861 9.29305C4.28172 8.72401 4.22413 8.13813 4.08968 7.58056C3.97156 7.09044 3.78542 6.62706 3.62731 6.15073Z" fill="#F5D19B"/>
<path d="M3.22315 6.08496L3.31047 6.11462C3.3365 6.18463 3.35315 6.25577 3.37034 6.32857C3.79746 8.13868 4.03741 9.96284 4.25394 11.8098C4.34624 12.5966 4.47911 13.3816 4.55339 14.1702C4.60973 14.7682 4.60309 15.3717 4.64531 15.9711C4.68991 16.6039 4.79167 17.2316 4.83544 17.8644C4.93023 19.2354 4.96108 20.6235 5.03415 21.9981C5.0535 22.3621 5.23881 24.0102 5.10939 24.2346C4.99641 24.1114 4.99591 23.7957 4.98001 23.6239C4.89776 22.7348 4.89431 21.8339 4.84104 20.942L4.47122 15.3844C4.42725 14.1023 4.26291 12.2156 4.01603 10.9594C3.99066 10.8304 3.93689 10.3847 3.84517 10.3214C3.72551 10.386 3.58384 10.4773 3.45239 10.5062C3.37993 10.5221 3.28523 10.5077 3.21962 10.5369C2.80072 10.7236 2.95526 12.1935 2.79831 12.6286C2.79379 12.2143 2.85134 11.1776 2.6544 10.8358C2.60574 10.7514 2.5374 10.6552 2.55318 10.5576C2.58311 10.6273 2.59096 10.6709 2.65569 10.7129C2.77751 10.5833 2.66699 10.4395 2.61866 10.2929C2.48745 9.89479 2.66578 9.23329 2.73018 8.82562C2.74666 8.83305 2.73001 9.00721 2.72848 9.03591C2.70473 9.47937 2.60487 10.1371 2.79773 10.5481C2.84656 10.6522 2.90083 10.693 3.00293 10.7258C3.04727 10.6517 3.11018 10.5185 3.17171 10.4637C3.21954 10.4211 3.51018 10.4661 3.83483 10.1544C3.83824 9.9184 3.74884 9.68628 3.7121 9.45341C3.5921 8.69225 3.49536 7.95361 3.34165 7.19992C3.29789 6.98541 3.27335 6.74346 3.19438 6.54069C3.16266 6.45924 3.15361 6.43028 3.07617 6.3968C2.97523 6.54408 3.04466 6.70602 2.97561 6.86574C2.78951 7.2965 2.66121 8.86493 2.46026 9.11445C2.55953 8.48622 2.71336 7.87908 2.82937 7.25602C2.88393 6.96293 2.89165 6.50577 3.00139 6.24499C3.02091 6.19863 3.16569 6.13915 3.22315 6.08496Z" fill="#7E461D"/>
<path d="M15.5974 11.0787L16.138 11.0691C16.2604 11.6976 16.3902 12.5213 16.3542 13.1586C16.3353 13.4939 16.23 13.8357 15.9793 14.0604C15.6783 14.3304 15.3442 14.2952 14.9783 14.2703C14.9184 14.2331 14.8606 14.1922 14.8053 14.1479C14.2084 13.6723 14.2022 13.0886 14.1102 12.3628C14.0494 12.0039 14.0412 11.633 14.0342 11.2693C14.1881 11.2454 14.3493 11.2491 14.5048 11.244C14.648 11.8672 14.5401 13.1267 14.9993 13.5878C15.0937 13.6842 15.2229 13.7339 15.3544 13.7245C15.4516 13.7184 15.5401 13.6746 15.6043 13.5975C15.9487 13.1839 15.6292 11.6315 15.5974 11.0787Z" fill="#FBF4D9"/>
<path d="M8.7015 11.6556C8.81252 11.6369 8.98463 11.6032 9.0947 11.6258C9.18102 11.6435 9.256 11.715 9.29952 11.7937C9.3547 11.8935 9.34465 11.9588 9.31725 12.0626C9.09142 12.2866 8.41642 12.2352 8.10232 12.2524C8.097 12.5135 8.12872 12.7792 8.14915 13.0395C8.43407 13.0163 8.7147 12.9561 9.00132 12.9468C9.14772 12.9421 9.20481 12.9646 9.3077 13.0664C9.32435 13.1785 9.32966 13.2409 9.2685 13.3419C9.12605 13.5774 8.54609 13.5347 8.30012 13.604L8.26263 13.6775C8.29875 14.1065 8.31839 14.5369 8.35601 14.9662L7.80798 14.9951C7.60889 13.9688 7.58896 12.8656 7.50621 11.8219C7.90534 11.7553 8.29896 11.6962 8.7015 11.6556Z" fill="#FBF4D9"/>
<path d="M9.82276 11.559C9.92747 11.5544 10.0211 11.5599 10.1245 11.5775C10.2769 11.728 10.3604 13.8133 10.3917 14.2047C10.6642 14.2064 10.9171 14.1282 11.1857 14.1055C11.3369 14.0926 11.4964 14.1115 11.6129 14.2232C11.7033 14.3097 11.7342 14.4216 11.7393 14.5454C11.6546 14.6537 11.5516 14.6456 11.4241 14.6705C10.9094 14.7462 10.3938 14.826 9.87461 14.8561C9.80195 14.4214 9.58974 11.8709 9.70641 11.604L9.82276 11.559Z" fill="#FBF4D9"/>
<path d="M8.37413 23.6227C8.49732 23.7563 8.4624 23.8863 8.55067 24.0279C9.02048 23.9157 9.46392 23.7433 9.95651 23.8141C10.0442 23.8267 10.1067 23.8277 10.1607 23.9029C10.1576 23.9079 10.1551 23.9135 10.1513 23.918C10.0104 24.0864 9.1959 24.2258 8.96974 24.2363C8.94047 24.2377 8.92469 24.2599 8.90194 24.2783C8.90949 24.2881 8.91709 24.2994 8.92672 24.3075C9.24473 24.5737 11.3088 24.4935 11.8286 24.4402C11.987 24.42 12.2826 24.3459 12.4208 24.4145C12.3848 24.4298 12.3467 24.4451 12.3087 24.4535C11.5636 24.6174 9.23705 24.6683 8.60959 24.2746C8.67544 24.2682 8.74204 24.2639 8.80735 24.2534L8.77193 24.1771C8.69952 24.1251 8.62088 24.1287 8.53602 24.1234C8.42694 24.0445 8.41772 23.9402 8.35972 23.8191C8.22038 23.895 8.18288 23.988 8.02016 24.0225L7.98591 23.9869L8.03221 23.8931C8.18031 23.826 8.26522 23.7426 8.37413 23.6227Z" fill="#E7AF60"/>
<path d="M2.70151 20.1695C2.82154 20.4875 2.84857 20.8206 2.96338 21.1383C3.23646 21.8937 3.60873 22.6621 4.1032 23.2855C4.34684 23.5927 4.6254 23.868 4.86311 24.1802C4.77629 24.1671 4.68967 24.0459 4.6254 23.9797L4.59821 23.9461L4.5488 23.9553C4.21397 23.7551 3.17621 22.201 2.96126 21.7933C2.84122 21.5656 2.76026 21.3373 2.69233 21.0877L2.85492 21.2371C2.96674 20.9473 2.69611 20.5086 2.70151 20.1695Z" fill="#B67939"/>
<path d="M7.98272 9.03417C8.07655 9.05509 8.19016 9.04 8.28669 9.03687C8.14016 9.1815 8.04097 9.36879 7.89947 9.52038C7.59645 9.84513 7.26857 10.1497 6.96024 10.4703L6.86258 10.5446C6.76945 10.515 6.76476 10.5121 6.70945 10.4284C6.71281 10.4085 6.71734 10.3895 6.72361 10.3703C6.827 10.0533 7.68369 9.18876 7.98272 9.03417Z" fill="#F5D19B"/>
<path d="M9.79414 6.08948C9.98057 6.06413 10.2542 6.03004 10.4161 6.14645L10.4277 6.21724C10.3138 6.29317 10.0754 6.32804 10.0049 6.43023L10.1286 6.4705C9.88657 6.60469 9.56931 6.62226 9.31171 6.73541C8.67587 7.01463 8.06768 7.45578 7.49544 7.85359C7.64276 7.62042 7.83188 7.47218 8.01328 7.27228C8.24547 7.22631 8.51668 7.0278 8.73034 6.91539C9.20339 6.66649 9.70039 6.38935 10.2055 6.22224L10.2228 6.21663C9.99797 6.18063 9.19176 6.15197 9.01696 6.24211C8.99936 6.2512 8.98935 6.25825 8.97017 6.26381C8.89286 6.28643 8.83224 6.2652 8.77062 6.22055C8.94243 6.05317 9.54668 6.12031 9.79414 6.08948Z" fill="#D79D55"/>
<path d="M7.44408 22.5625L7.53413 22.5577C7.71097 22.6958 7.99742 22.8776 8.09582 23.0879C8.04911 23.2337 7.98579 23.099 7.87489 23.1723C7.78176 23.2121 7.67842 23.227 7.57806 23.2249C7.4528 23.2225 7.2912 23.1558 7.20604 23.057C7.13554 22.975 7.14156 22.907 7.14538 22.8046C7.20301 22.6688 7.32392 22.6233 7.44408 22.5625Z" fill="#F1C887"/>
<path d="M6.5109 21.535L6.70069 21.553C6.86457 21.6543 6.99158 21.8029 7.06105 21.9905C7.1144 22.1345 7.09231 22.2352 7.03285 22.3715C6.92569 22.3254 6.81251 22.2586 6.69625 22.3016C6.63928 22.3938 6.6419 22.4109 6.64983 22.5152C6.73287 22.6195 6.77597 22.6879 6.7812 22.8266C6.78315 22.8795 6.81728 22.9006 6.85058 22.9387L6.95176 22.9347L7.00869 22.8556C7.00176 22.7271 6.96812 22.7116 6.88807 22.6181L6.8412 22.5957C6.97643 22.6348 6.99897 22.6337 7.07857 22.7549C7.07545 22.8669 7.06433 22.8965 7.00367 22.9887C6.90485 23.0356 6.8845 23.0453 6.77289 23.0238C6.72373 22.838 6.53764 22.625 6.53569 22.4563C6.53349 22.2663 6.72519 22.2354 6.83372 22.1167C6.7959 21.9827 6.68524 21.9266 6.59826 21.8319C6.51879 21.7454 6.51156 21.6495 6.5109 21.535Z" fill="#F3BC6A"/>
<path d="M5.01782 24.9647C5.03825 24.9809 5.08808 25.0091 5.09144 25.0349C5.10456 25.1359 4.61728 25.9666 4.52963 26.0904L4.45124 26.0037C4.43841 25.7159 4.86872 25.2145 5.01782 24.9647Z" fill="#763D15"/>
<path d="M17.7837 22.1096C17.8242 22.3283 17.3557 23.0046 17.23 23.2109L17.2127 23.157C17.2527 22.7683 17.5266 22.3761 17.7837 22.1096Z" fill="#7E461D"/>
<path d="M1.79782 21.3545C1.83436 21.3881 1.83755 21.4119 1.8535 21.4593C1.7286 21.7638 1.44465 22.0249 1.22384 22.2579L1.18261 22.2157C1.21113 22.0167 1.66773 21.5364 1.79782 21.3545Z" fill="#B67939"/>
<path d="M18.0873 7.23697L18.0915 7.76097C17.8885 7.69013 17.6892 7.59594 17.4908 7.51167L17.4641 7.49801L17.458 7.44379C17.6359 7.36343 17.7702 7.55393 17.9504 7.48662C18.0286 7.404 18.0642 7.35151 18.0873 7.23697Z" fill="#D09044"/>
<path d="M17.5462 26.4726C17.8193 26.3379 18.6915 25.8971 18.9653 25.9237L19.0822 25.9037C19.3912 26.0506 19.7075 26.193 19.9998 26.3742C20.5789 26.7331 21.0145 27.1782 21.7101 27.2654L21.6787 27.3492L21.4856 27.379L21.3295 27.3561L21.3057 27.3974C21.4352 27.5585 21.6266 27.6503 21.7511 27.8028L21.8908 27.9476L21.8846 28.0008C21.2868 28.0926 21.1496 28.2052 20.6253 28.3585C19.73 28.6201 18.8985 28.5427 18.1448 27.9553C17.828 27.7083 17.5261 27.4058 17.1798 27.2077C16.993 27.2386 16.8002 27.2543 16.6385 27.3649L16.5943 27.4417C16.7202 27.729 17.5449 28.0035 17.8024 28.4114C17.7464 28.5094 17.7455 28.5065 17.6398 28.5367C17.5041 28.4935 17.338 28.2451 17.1904 28.1554C16.7854 27.9566 16.3619 27.7321 15.9317 27.6037L16.0169 27.2974C16.26 27.0383 17.2002 26.646 17.5462 26.4726Z" fill="#50230B"/>
<path d="M17.5462 26.4726C17.8193 26.3379 18.6915 25.8971 18.9653 25.9237C19.1569 26.2884 19.7476 26.337 19.9798 26.6487C20.3595 26.8201 20.6497 27.1079 20.959 27.3876C21.0199 27.4681 21.0545 27.523 21.076 27.6254C21.0364 27.6976 21.0286 27.726 20.9518 27.7532C20.7629 27.82 20.4928 27.7668 20.3004 27.7368C19.0716 27.5455 19.1512 27.2666 18.1953 26.7609C18.0206 26.7417 17.8279 26.7018 17.6778 26.604L17.6027 26.6368L17.5462 26.4726Z" fill="#F1C887"/>
<path d="M17.5462 26.4726C17.8193 26.3379 18.6915 25.8971 18.9653 25.9237C19.1569 26.2884 19.7476 26.337 19.9798 26.6487C19.5771 26.5266 19.194 26.3952 18.7708 26.382C18.7633 26.3851 18.7558 26.3884 18.7483 26.3914C18.5701 26.4634 18.3344 26.4334 18.1861 26.5609C18.159 26.6587 18.1602 26.6659 18.1953 26.7609C18.0206 26.7417 17.8279 26.7018 17.6778 26.604L17.6027 26.6368L17.5462 26.4726Z" fill="#8F5125"/>
<path d="M17.6778 26.604C18.0353 26.4349 18.3807 26.3757 18.7708 26.382C18.7633 26.3851 18.7558 26.3884 18.7483 26.3914C18.5701 26.4634 18.3344 26.4334 18.1861 26.5609C18.159 26.6587 18.1602 26.6659 18.1953 26.7609C18.0206 26.7417 17.8279 26.7018 17.6778 26.604Z" fill="#E7AF60"/>
<path d="M17.6027 26.6368L17.6778 26.604C17.8279 26.7018 18.0206 26.7417 18.1953 26.7609C19.1512 27.2666 19.0716 27.5455 20.3004 27.7368C20.4928 27.7668 20.7629 27.82 20.9518 27.7532C21.0286 27.726 21.0364 27.6976 21.076 27.6254C21.0545 27.523 21.0199 27.4681 20.959 27.3876C21.1694 27.5362 21.364 27.6992 21.5593 27.8688C20.9273 27.9938 20.2982 28.265 19.6491 28.2786C18.6478 28.2996 17.8928 27.4988 17.2177 26.8225C17.3411 26.7514 17.4738 26.696 17.6027 26.6368Z" fill="#D79D55"/>
<path d="M19.1991 0.0658972L19.381 0.105946L19.562 0.170443C21.1175 0.667309 21.106 2.73316 20.7153 4.0759C20.7103 4.09329 20.705 4.11066 20.6995 4.12788C20.5591 4.13719 20.4519 4.13358 20.311 4.1281C20.5429 3.50248 20.4563 2.35463 20.4115 1.6823C20.2309 0.940649 19.9489 0.603813 19.2787 0.299808C19.1617 0.242573 18.9701 0.228371 18.8421 0.238186C18.9805 0.186964 19.047 0.163182 19.1726 0.0829652L19.1991 0.0658972Z" fill="#7E461D"/>
<path d="M15.9317 27.6037C16.3619 27.7321 16.7854 27.9566 17.1904 28.1554L17.0856 28.2254L17.1672 28.3493C16.7011 28.3769 16.1977 28.2396 15.7398 28.1553C15.5936 28.1101 15.4244 28.1078 15.2727 28.0919C15.482 27.9146 15.7085 27.7608 15.9317 27.6037Z" fill="#D09044"/>
<path d="M15.7398 28.1553C16.1977 28.2396 16.7011 28.3769 17.1672 28.3493L17.0856 28.2254L17.1904 28.1554C17.338 28.2451 17.5041 28.4935 17.6398 28.5367C17.7455 28.5065 17.7464 28.5094 17.8024 28.4114L17.8746 28.5185L17.8597 28.5777C17.0097 28.6018 16.1668 28.52 15.3262 28.3879L15.4077 28.3527C15.3151 28.3133 15.2036 28.2798 15.1353 28.2018C15.3345 28.156 15.5367 28.159 15.7398 28.1553Z" fill="#602D0F"/>
<path d="M22.972 16.1923C23.0422 16.0158 23.2842 15.6296 23.4037 15.4798C23.4382 15.7518 23.4837 15.9558 23.5932 16.2087L23.5861 16.2657L23.4941 16.2798L23.4861 16.3227L23.3859 16.3181C23.3058 16.3986 23.291 16.4127 23.2344 16.5164L23.1877 16.1901L22.9758 16.5959L22.9287 16.6079L22.8953 16.5911C22.8769 16.5214 22.9505 16.2775 22.972 16.1923Z" fill="#763D15"/>
<path d="M23.1877 16.1901L23.3286 15.7853C23.3657 15.9089 23.4379 16.1776 23.4941 16.2798L23.4861 16.3227L23.3859 16.3181C23.3058 16.3986 23.291 16.4127 23.2344 16.5164L23.1877 16.1901Z" fill="var(--fill-0, #E5A445)"/>
<path d="M13.6597 29C13.6012 28.9479 13.5296 28.889 13.4884 28.8207C13.4341 28.7308 13.4137 28.6028 13.4398 28.5C13.5075 28.232 13.7935 28.0799 14.0006 27.9459L13.9394 28.2792L13.9656 28.3123C13.8274 28.4737 13.6548 28.6244 13.6062 28.8407L13.6597 29Z" fill="#602D0F"/>
<path d="M23.7396 22.8832C23.8696 22.7764 24.0582 22.8162 24.1642 22.6847C24.6098 22.6904 25.0506 22.7003 25.4944 22.7446C25.2747 22.7391 24.8226 22.6728 24.6677 22.8424C24.6511 22.8607 24.6384 22.8829 24.6256 22.9039C24.3441 22.9336 24.0622 22.9545 23.791 23.0446C23.7131 22.9769 23.6587 23.0433 23.581 23.0303C23.6413 22.9936 23.6809 22.9571 23.7258 22.9009C23.7304 22.895 23.735 22.8891 23.7396 22.8832Z" fill="#763D15"/>
<path d="M14.1889 28.1264C14.3186 28.1585 14.3597 28.1812 14.4339 28.3008C14.4364 28.3047 14.4386 28.3088 14.4409 28.3129C14.2216 28.4831 13.8767 28.8131 13.6062 28.8407C13.6548 28.6244 13.8274 28.4737 13.9656 28.3123L14.1889 28.1264Z" fill="#F1C887"/>
<path d="M23.6028 15.2911C23.6214 15.5202 23.6595 15.9957 23.5932 16.2087C23.4837 15.9558 23.4382 15.7518 23.4037 15.4798C23.4826 15.4374 23.5408 15.3603 23.6028 15.2911Z" fill="var(--fill-0, #E5A445)"/>
<path d="M21.7511 27.8028C21.6266 27.6503 21.4352 27.5585 21.3057 27.3974L21.3295 27.3561L21.4856 27.379C21.5684 27.4161 21.7971 27.487 21.8377 27.5603L21.7511 27.8028Z" fill="var(--fill-0, #E5A445)"/>
</g>
</svg>
