<svg preserveAspectRatio="none" width="100%" height="100%" overflow="visible" style="display: block;" viewBox="0 0 32 32" fill="none" xmlns="http://www.w3.org/2000/svg">
<g id="Frame 17">
<path id="Vector" d="M14.0747 0.156693C15.8281 -0.231384 18.4334 0.153697 20.1326 0.740011C20.6964 0.934555 21.2165 1.21595 21.7659 1.42259C22.568 1.72437 23.7154 2.03472 24.429 2.50324C25.7356 3.08589 26.747 4.35649 27.4857 5.55295C27.8499 6.14303 28.348 6.6498 28.761 7.2034C29.4536 8.20765 30.4084 9.77045 30.6528 10.9802C30.7753 11.5151 31.06 11.7679 31.2215 12.2512C31.4782 13.0185 31.5871 13.8799 31.741 14.6788C31.9469 15.8906 32.0687 17.0082 31.9585 18.2459C31.9032 18.8695 31.6601 19.4876 31.4953 20.0871C30.7658 23.5353 28.7965 26.6067 26.0076 28.6808C25.7489 28.8731 25.4772 29.0912 25.2014 29.2618C23.4689 30.1246 21.7935 31.2512 19.7975 31.2759C19.0015 31.286 18.4604 31.5679 17.7182 31.7459C16.2089 32.1076 14.6355 32.0828 13.1379 31.6738C12.1157 31.3972 11.4832 31.0098 10.4957 30.7607L9.96967 30.6784C9.38388 30.5858 8.64427 30.2407 8.10653 29.9679C7.08141 29.4477 6.63871 29.0435 6.0609 28.0389C5.65779 28.0204 5.2709 27.9526 4.92661 27.7005C4.00547 27.0261 3.08276 25.9602 2.57584 24.922C2.43114 24.6256 2.31696 24.0819 2.17114 23.8386C1.78087 23.1875 1.55448 22.9289 1.28505 22.2014C0.994489 21.4168 0.940554 20.7599 0.726901 20.0197C0.548953 19.4032 0.347281 19.093 0.195583 18.366C-0.0930657 16.9827 -0.0380392 16.0218 0.203264 14.6292C0.235454 14.4434 0.474231 14.0044 0.479181 13.9106C0.498228 13.5523 0.438696 13.1892 0.514647 12.8083C0.582304 12.4689 0.689967 12.1367 0.777251 11.8058C1.19602 10.2189 1.90106 8.78027 2.78103 7.41234C3.56017 6.20114 4.519 5.1492 5.63673 4.25943C6.09787 3.89229 6.50565 3.48571 7.0313 3.17157C7.52141 2.8786 8.03126 2.64908 8.52991 2.37499C8.69212 2.29486 8.90014 2.06736 9.05072 2.00246C9.81241 1.67399 10.5934 1.14948 11.3561 0.867802C12.2136 0.551181 13.1845 0.348833 14.0747 0.156693Z" fill="var(--fill-0, #F9C356)"/>
<path id="Vector_2" d="M6.0609 28.0389C5.65779 28.0204 5.2709 27.9526 4.92661 27.7005C4.00547 27.0261 3.08276 25.9602 2.57584 24.922C2.43114 24.6256 2.31696 24.0819 2.17114 23.8386C1.78087 23.1875 1.55448 22.9289 1.28505 22.2014C0.994489 21.4168 0.940554 20.7599 0.726901 20.0197C0.548953 19.4032 0.347281 19.093 0.195583 18.366C-0.0930657 16.9827 -0.0380392 16.0218 0.203264 14.6292C0.235454 14.4434 0.474231 14.0044 0.479181 13.9106C0.498228 13.5523 0.438696 13.1892 0.514647 12.8083C0.582304 12.4689 0.689967 12.1367 0.777251 11.8058C1.19602 10.2189 1.90106 8.78027 2.78103 7.41233C3.56017 6.20114 4.519 5.14919 5.63673 4.25943C6.09787 3.89229 6.50565 3.48571 7.0313 3.17156C7.52141 2.8786 8.03126 2.64907 8.52991 2.37499C8.69212 2.29486 8.90014 2.06736 9.05072 2.00245C9.81241 1.67399 10.5934 1.14948 11.3561 0.867799C12.2136 0.551178 13.1845 0.34883 14.0747 0.15669C14.1074 0.316917 14.4356 0.65817 14.5782 0.695727C13.9966 0.77328 12.3612 1.12429 11.8596 1.38482L12.1229 1.37026C11.775 1.49644 11.1715 1.68653 10.9027 1.92469L10.8983 2.03611C10.8489 2.05663 10.8208 2.06806 10.7725 2.09216L10.8433 2.13122C10.6279 2.25685 9.71885 2.6914 9.61521 2.80547C9.62593 2.67433 9.56893 2.65643 9.47727 2.60222L9.47379 2.53867C9.32868 2.62761 9.16848 2.7267 9.0175 2.80355C5.6539 4.51553 3.29692 6.92855 1.84804 10.523C1.34434 11.5477 1.11683 12.9951 0.953662 14.118C0.93895 14.2192 0.829615 14.1759 0.807905 14.2621C0.727448 14.4558 0.685119 14.982 0.707887 15.1814C0.5921 16.4028 0.528028 17.4883 0.83074 18.7096C0.906214 19.014 1.17213 19.5325 1.22613 19.8039C1.38039 20.6616 1.59418 21.4238 1.9129 22.2293C2.10095 22.7046 2.61855 23.3192 2.73959 23.6708C3.28719 25.2613 4.17256 26.5727 5.65049 27.3946C5.74948 27.4497 6.10196 27.4615 6.22564 27.4881C6.44666 27.7011 6.64192 28.1154 6.86875 28.3404C7.29803 28.7664 7.74476 29.0341 8.2529 29.3184C8.52438 29.7316 9.80087 30.0667 10.2828 30.0866C10.851 30.087 11.1434 30.3035 11.6207 30.5178C12.9808 31.1282 14.5784 31.5365 16.0721 31.3979C16.2106 31.385 16.3622 31.3825 16.5035 31.3756C17.2111 31.2923 17.7739 31.0892 18.4576 30.9875C18.7891 30.9045 19.066 30.8178 19.4092 30.7572C20.2498 30.6091 20.9976 30.5886 21.8115 30.3053C22.4475 30.0841 22.9955 29.6411 23.5282 29.4125C24.4521 29.0159 24.6763 28.9802 25.4953 28.3162C25.9977 27.8824 26.662 27.4518 27.0928 26.9953C27.9035 26.1361 28.7904 25.1059 29.3403 24.046C30.0308 23.1698 30.4142 21.3852 30.7948 20.3276C31.0757 19.5473 31.2324 18.9392 31.315 18.1084C31.4048 17.2059 31.2986 16.355 31.2945 15.4633C31.3126 15.1632 31.3877 14.943 31.6973 14.8167L31.741 14.6788C31.9469 15.8906 32.0687 17.0082 31.9585 18.2459C31.9032 18.8695 31.6601 19.4876 31.4953 20.0871C30.7658 23.5353 28.7965 26.6067 26.0076 28.6808C25.7489 28.8731 25.4772 29.0912 25.2014 29.2618C23.4689 30.1246 21.7935 31.2512 19.7975 31.2759C19.0015 31.286 18.4604 31.5679 17.7182 31.7459C16.2089 32.1076 14.6355 32.0828 13.1379 31.6738C12.1157 31.3972 11.4832 31.0098 10.4957 30.7607L9.96967 30.6784C9.38388 30.5858 8.64427 30.2407 8.10653 29.9679C7.08141 29.4477 6.63871 29.0435 6.0609 28.0389Z" fill="var(--fill-0, #5E1302)"/>
<path id="Vector_3" d="M10.2832 30.0864C10.8514 30.0869 11.1438 30.3033 11.6211 30.5176C12.9812 31.1281 14.5788 31.5364 16.0725 31.3977C16.211 31.3848 16.3626 31.3824 16.5039 31.3754C14.8914 31.889 12.3879 31.181 10.9485 30.357C10.7708 30.2553 10.4781 30.1657 10.2832 30.0864Z" fill="var(--fill-0, #631003)"/>
<path id="Vector_4" d="M25.4947 28.3164C25.2407 28.8395 24.0289 29.2651 23.5432 29.5058C22.905 29.822 22.3225 30.2192 21.6393 30.4565C21.2853 30.5797 20.796 30.5759 20.513 30.6859L20.5166 30.7107C20.5777 30.7131 20.6886 30.7128 20.743 30.7285C20.578 30.7779 20.4864 30.7539 20.3324 30.7912C20.2591 30.8089 20.0155 30.9765 19.9393 30.9849C19.473 31.0371 18.9164 31.041 18.457 30.9877C18.7885 30.9047 19.0654 30.818 19.4086 30.7574C20.2492 30.6093 20.997 30.5887 21.8109 30.3055C22.4469 30.0843 22.9949 29.6413 23.5276 29.4127C24.4514 29.0161 24.6757 28.9804 25.4947 28.3164Z" fill="var(--fill-0, #631003)"/>
<path id="Vector_5" d="M9.47461 2.53853C9.88823 2.24567 11.3543 1.51665 11.8604 1.38468L12.1237 1.37012C11.7758 1.49631 11.1724 1.68639 10.9035 1.92455L10.8991 2.03597C10.8497 2.05649 10.8216 2.06792 10.7733 2.09203L10.8441 2.13108C10.6287 2.25671 9.71967 2.69127 9.61603 2.80533C9.62675 2.67419 9.56974 2.65629 9.47809 2.60208L9.47461 2.53853Z" fill="var(--fill-0, #F4BD70)"/>
<path id="Vector_6" d="M9.96901 30.6783C9.87262 30.5724 9.86951 30.6017 9.84961 30.483C9.99014 30.3742 10.5927 30.456 10.682 30.6731C10.6399 30.7522 10.5878 30.7626 10.495 30.7605L9.96901 30.6783Z" fill="var(--fill-0, #631003)"/>
<path id="Vector_7" d="M0.707297 15.1813C0.684529 14.9819 0.726858 14.4557 0.807315 14.262C0.829025 14.1758 0.93836 14.2191 0.953072 14.1179C1.11624 12.995 1.34375 11.5476 1.84745 10.5229C1.82199 10.6929 1.79601 10.8292 1.80164 11.0017L1.74631 11.13C1.90125 11.1868 2.01834 11.1171 2.17905 11.0577C2.62134 10.9788 3.26878 11.1403 3.59225 11.4609C3.9746 11.7638 4.30636 12.1072 4.5151 12.5638C4.52831 12.6493 4.54616 12.7506 4.55248 12.8366C4.63922 14.0178 3.61079 15.5082 2.50692 15.8115C1.94484 15.6606 1.50467 15.5388 1.18594 14.9349C1.10323 14.7781 1.11423 14.6113 0.989836 14.4564L0.954575 14.4535C0.895077 14.7445 0.784409 14.8099 0.707297 15.1813Z" fill="var(--fill-0, #984819)"/>
<path id="Vector_8" d="M2.18028 11.0579C2.62257 10.9789 3.27002 11.1405 3.59348 11.4611C3.14508 11.342 2.68009 11.1316 2.22015 11.1699C2.01537 11.187 1.87057 11.3332 1.71754 11.3144C1.68921 11.226 1.70443 11.2427 1.74754 11.1302C1.90249 11.187 2.01957 11.1172 2.18028 11.0579Z" fill="var(--fill-0, #F4BD70)"/>
<path id="Vector_9" d="M24.0638 2.9681L24.111 2.94162C23.9894 2.76425 22.4719 2.21884 22.1661 2.08903C22.2401 1.99371 22.2467 1.93922 22.2943 1.83247C22.3082 1.80129 22.3781 1.71328 22.3871 1.71558C23.0726 1.88856 23.7221 2.22689 24.3609 2.52658C24.3836 2.51881 24.4063 2.51104 24.429 2.50323C25.7356 3.08589 26.747 4.35649 27.4857 5.55295C27.8499 6.14302 28.348 6.6498 28.761 7.2034C29.4536 8.20765 30.4084 9.77044 30.6528 10.9802C30.6248 11.1882 30.6716 11.2363 30.5487 11.3841C30.4388 11.3534 30.2015 11.0149 30.0489 10.9068C29.7506 10.2859 29.727 10.3856 29.2556 9.96969C29.1812 9.69348 29.1833 9.03972 29.0798 8.8188C28.6822 7.92966 27.8557 7.19438 27.3215 6.39934C26.2845 4.8564 25.7496 3.88647 24.0638 2.9681Z" fill="var(--fill-0, #5E1302)"/>
<path id="Vector_10" d="M14.0742 0.156693C15.8275 -0.231384 18.4329 0.153697 20.1321 0.740011C20.6959 0.934555 21.216 1.21595 21.7654 1.42259C22.5675 1.72437 23.7149 2.03472 24.4285 2.50324C24.4058 2.51104 24.3831 2.51881 24.3604 2.52658C23.7216 2.22689 23.0721 1.88856 22.3866 1.71559C22.3776 1.71329 22.3076 1.80129 22.2938 1.83247C22.2462 1.93922 22.2396 1.99371 22.1656 2.08903C22.4714 2.21884 23.9889 2.76426 24.1105 2.94162L24.0633 2.9681C22.8944 2.42116 21.7116 2.01639 20.5189 1.52975C18.5604 0.730569 16.6755 0.448892 14.5776 0.69573C14.4351 0.658173 14.1069 0.31692 14.0742 0.156693Z" fill="var(--fill-0, #631003)"/>
<path id="Vector_11" d="M8.25195 29.3183C8.79628 29.5688 9.41904 29.8957 10.0363 29.9304C10.4529 29.9537 11.1605 29.6173 11.5532 29.686C11.8995 29.7467 12.1398 30.2339 12.5724 30.3146C12.3937 30.3176 12.1007 30.135 11.9575 30.0326C11.7601 30.1858 11.5944 30.2189 11.5206 30.2852L11.534 30.3388C12.2858 30.5912 12.9751 30.8779 13.7497 31.0629C14.7963 31.3131 15.7703 31.3347 16.8308 31.1479C17.0656 31.1068 17.3474 31.1155 17.5834 31.0619C17.8946 30.957 18.1543 30.8201 18.4805 30.7591C20.2597 30.4934 21.9725 30.34 23.493 29.25C23.727 29.1126 24.1766 29.0471 24.3893 28.9027C25.1832 28.3637 26.1286 27.7271 26.8601 27.1251C27.3093 26.7551 27.8159 26.0245 28.2224 25.5842C28.5901 25.186 28.9075 24.4261 29.3185 24.0553C29.3257 24.0522 29.3325 24.049 29.3393 24.0459C28.7894 25.1058 27.9026 26.136 27.0919 26.9951C26.6611 27.4517 25.9968 27.8822 25.4943 28.3161C24.6753 28.9801 24.4511 29.0158 23.5272 29.4123C22.9946 29.641 22.4465 30.084 21.8105 30.3052C20.9966 30.5884 20.2488 30.609 19.4083 30.757C19.0651 30.8177 18.7881 30.9044 18.4567 30.9873C17.773 31.0891 17.2101 31.2922 16.5025 31.3754C16.3612 31.3824 16.2096 31.3848 16.0711 31.3977C14.5774 31.5364 12.9799 31.1281 11.6197 30.5176C11.1424 30.3034 10.8501 30.0869 10.2818 30.0864C9.79992 30.0665 8.52343 29.7315 8.25195 29.3183Z" fill="var(--fill-0, #D37F2B)"/>
<path id="Vector_12" d="M4.516 12.564C5.044 13.09 5.42878 13.385 5.40396 14.195C5.35156 15.9068 3.8024 16.1936 2.50781 15.8117C3.61168 15.5084 4.64011 14.018 4.55338 12.8367C4.54706 12.7507 4.52921 12.6495 4.516 12.564Z" fill="var(--fill-0, #B36D33)"/>
<path id="Vector_13" d="M9.65796 3.06896L9.69141 3.04513C9.72794 3.01886 9.73763 3.01098 9.769 2.9767C9.89134 2.9605 9.88155 2.942 9.97706 2.98503C9.96945 3.14829 9.86574 3.24681 9.76217 3.38349C9.42137 3.70063 9.13043 3.8642 8.7163 4.05157C8.5376 4.1524 8.21946 4.26371 8.06189 4.38596C6.95007 5.24873 5.78383 6.08505 4.92021 7.22172C4.68395 7.5327 4.4958 7.70216 4.14844 7.87096C4.42801 7.25639 5.56315 5.89556 6.07828 5.41731C6.76154 4.78303 7.90449 4.23601 8.69343 3.7138C9.00369 3.50842 9.33968 3.25702 9.65796 3.06896Z" fill="var(--fill-0, #F7F6F2)"/>
<path id="Vector_14" d="M30.0489 10.9068C30.2015 11.0149 30.4388 11.3534 30.5487 11.3841C30.6716 11.2363 30.6248 11.1882 30.6528 10.9802C30.7753 11.5151 31.06 11.7679 31.2215 12.2512C31.4782 13.0185 31.5871 13.8799 31.741 14.6788L31.6973 14.8167C31.3877 14.943 31.3126 15.1632 31.2945 15.4633C31.2239 15.204 31.1754 14.6785 31.1006 14.3639C30.8211 13.1856 30.5398 12.0124 30.0489 10.9068Z" fill="var(--fill-0, #631003)"/>
<path id="Vector_15" d="M14.4492 0.847669C14.5795 0.850003 14.6022 0.82903 14.7018 0.893413C14.5942 1.12809 12.4837 1.38712 12.0777 1.62975C11.6643 1.77757 11.258 1.97316 10.8442 2.13109L10.7734 2.09203C10.8217 2.06792 10.8498 2.0565 10.8993 2.03597L10.9037 1.92456C11.1725 1.6864 11.7759 1.49631 12.1238 1.37012C12.4676 1.19439 13.9906 0.915048 14.4492 0.847669Z" fill="var(--fill-0, #F8E6C8)"/>
<path id="Vector_16" d="M14.4477 0.847966C14.7178 0.789436 15.5666 0.688715 15.7984 0.769264C15.8355 0.805149 15.8251 0.783444 15.8312 0.833543C15.6671 1.05861 14.8697 1.03408 14.6072 1.07763C14.1435 1.15452 13.689 1.26702 13.2318 1.37603C13.0101 1.42602 12.2225 1.64889 12.0762 1.63004C12.4821 1.38742 14.5927 1.12839 14.7003 0.893711C14.6007 0.829327 14.578 0.850301 14.4477 0.847966Z" fill="var(--fill-0, #F4BD70)"/>
<path id="Vector_17" d="M9.23333 2.86621L9.25648 2.91373C8.98971 3.21454 8.54004 3.65508 8.08594 3.55053L8.1072 3.49116C8.37285 3.26808 8.91239 3.00843 9.23333 2.86621Z" fill="var(--fill-0, #FCE2B6)"/>
<path id="Vector_18" d="M9.47666 2.60205C9.56832 2.65626 9.62532 2.67417 9.6146 2.8053C9.80282 2.91648 10.0891 2.85021 10.1615 3.04444C10.0937 3.18074 9.89291 3.29337 9.76101 3.38329C9.86457 3.24662 9.96828 3.14809 9.97589 2.98483C9.88038 2.94181 9.89018 2.96031 9.76784 2.97651C9.73647 3.01079 9.72677 3.01866 9.69025 3.04493L9.65679 3.06876C9.60006 3.03849 9.34541 2.95121 9.25557 2.91376L9.23242 2.86624C9.26427 2.77053 9.39518 2.6748 9.47666 2.60205Z" fill="var(--fill-0, #FCE2B6)"/>
<path id="Vector_19" d="M17.9754 15.882C18.4981 15.8569 19.1463 15.8907 19.2926 16.5001C19.672 18.0805 18.4967 19.6141 17.1392 20.0877C16.3321 20.3627 15.4509 20.2983 14.6904 19.9088C13.6475 19.4165 13.009 18.5224 12.8634 17.3615C12.7003 16.061 14.2773 16.1612 15.1495 16.0845C16.0897 15.9926 17.0319 15.9251 17.9754 15.882Z" fill="var(--fill-0, #5E1302)"/>
<path id="Vector_20" d="M16.0586 17.7949C16.1035 17.7899 16.1486 17.7865 16.1937 17.7845C16.982 17.7506 17.779 17.9154 18.3763 18.4698C17.8364 19.2702 17.3228 19.4733 16.4538 19.7133C16.4202 19.7165 16.3865 19.719 16.3528 19.7209C15.3462 19.7764 14.8043 19.4577 14.0938 18.8058C14.6834 18.1658 15.1935 17.8946 16.0586 17.7949Z" fill="var(--fill-0, #ED6D49)"/>
<path id="Vector_21" d="M17.403 2.32143C18.2202 2.29624 18.5327 2.45096 19.1719 2.98509C20.003 3.67961 20.3257 4.86666 19.562 5.7488C19.1557 6.21812 18.5717 6.30087 17.9805 6.33396C16.9166 6.31728 15.6387 5.72716 15.3741 4.55711C15.1331 3.49165 16.4783 2.48542 17.403 2.32143Z" fill="var(--fill-0, #A3541D)"/>
<path id="Vector_22" d="M21.2416 11.3488C22.3708 11.1723 23.4256 11.9655 23.5949 13.1185C23.7642 14.2715 22.9835 15.3455 21.8533 15.5146C20.7282 15.6828 19.6818 14.8905 19.5133 13.7428C19.3448 12.5951 20.1177 11.5245 21.2416 11.3488Z" fill="var(--fill-0, #5E1302)"/>
<path id="Vector_23" d="M20.9286 12.0801C21.7069 12.203 21.7481 13.1874 20.9556 13.4473C20.6368 13.407 20.4063 13.245 20.327 12.915C20.282 12.734 20.3122 12.5421 20.4104 12.3846C20.5403 12.1782 20.7104 12.1235 20.9286 12.0801Z" fill="var(--fill-0, #F7F6F2)"/>
<path id="Vector_24" d="M22.3447 13.8689C22.4584 13.8149 22.5919 13.8279 22.6935 13.903C22.7951 13.978 22.849 14.1033 22.8344 14.2305C22.8197 14.3577 22.7387 14.4667 22.6228 14.5156C22.4488 14.5889 22.2494 14.5069 22.1738 14.3311C22.0982 14.1552 22.1741 13.9499 22.3447 13.8689Z" fill="var(--fill-0, #F7F6F2)"/>
<path id="Vector_25" d="M10.3316 11.7676C12.9324 11.6231 13.3588 15.4933 10.8277 16.0093C9.53274 16.0638 8.75899 15.5103 8.5647 14.1472C8.39651 12.967 9.13732 11.8807 10.3316 11.7676Z" fill="var(--fill-0, #5E1302)"/>
<path id="Vector_26" d="M9.69171 12.63C10.0196 12.5252 10.3691 12.7091 10.4756 13.0425C10.5822 13.376 10.4061 13.7348 10.0806 13.8474C9.86672 13.9214 9.63037 13.8723 9.46177 13.7189C9.29318 13.5655 9.21842 13.3315 9.26601 13.1061C9.31359 12.8808 9.47618 12.699 9.69171 12.63Z" fill="var(--fill-0, #F7F6F2)"/>
<path id="Vector_27" d="M11.3492 14.3486C11.4712 14.3199 11.5987 14.3614 11.6819 14.4569C11.765 14.5524 11.7905 14.6866 11.7482 14.8068C11.7059 14.9271 11.6028 15.0142 11.4791 15.034C11.297 15.0632 11.125 14.9399 11.09 14.7553C11.055 14.5706 11.1696 14.3908 11.3492 14.3486Z" fill="var(--fill-0, #F7F6F2)"/>
<path id="Vector_28" d="M24.0273 20.1281C25.236 20.0171 25.9057 20.692 26.144 21.8771C26.2331 22.3204 25.9638 22.9312 25.7101 23.2818C25.3514 23.7784 24.9316 23.9698 24.3451 24.0561C23.8671 24.0027 23.437 23.9658 23.02 23.6799C22.6092 23.3911 22.2416 22.7722 22.1703 22.2664C21.9964 21.0329 22.9912 20.3106 24.0273 20.1281Z" fill="var(--fill-0, #984819)"/>
<path id="Vector_29" d="M8.70562 23.4506C8.25121 24.0065 7.4282 24.1894 6.73973 24.0428C6.10819 23.8848 5.63818 23.2893 5.45385 22.676C5.43463 22.612 5.52475 22.3949 5.54011 22.3228C5.58175 22.1273 5.61169 21.9306 5.6548 21.7354C5.86552 20.7816 6.93638 20.3504 7.79956 20.5944C8.34563 20.7488 8.61188 21.0199 8.87988 21.5092C9.39915 22.0205 9.27213 23.0232 8.70562 23.4506Z" fill="var(--fill-0, #B36D33)"/>
<path id="Vector_30" d="M8.87946 21.509C9.39873 22.0203 9.27171 23.023 8.7052 23.4504C8.755 23.3571 8.80389 23.2632 8.85174 23.1689C9.16241 22.5556 9.07492 22.1382 8.87946 21.509Z" fill="var(--fill-0, #F4BD70)"/>
<path id="Vector_31" d="M9.48398 5.73618C9.88552 5.68444 10.417 5.71876 10.7611 5.95633C11.0986 6.19066 11.3298 6.55352 11.4028 6.96347C11.6107 8.19916 10.8362 8.91462 9.7157 9.11171C8.88808 9.22706 7.98838 9.14146 7.8022 8.12924C7.58271 6.93605 8.32205 5.93679 9.48398 5.73618Z" fill="var(--fill-0, #984819)"/>
<path id="Vector_32" d="M16.2639 25.504C16.5218 24.7924 17.0924 24.4312 17.8136 24.3305C18.2873 24.2644 18.5346 24.325 18.898 24.6088C19.3563 24.9922 19.3042 25.3525 19.3005 25.9321C19.3194 26.7088 18.5302 27.4261 17.7856 27.1256C17.5619 27.0353 17.3538 26.7687 17.1539 26.6358C16.8151 26.4107 16.5457 26.3422 16.2638 26.0273C16.2534 25.861 16.2342 25.666 16.2639 25.504Z" fill="var(--fill-0, #984819)"/>
<path id="Vector_33" d="M18.898 24.6089C19.3563 24.9922 19.3042 25.3525 19.3005 25.9321C19.3194 26.7088 18.5302 27.4262 17.7856 27.1256C17.5619 27.0354 17.3538 26.7687 17.1539 26.6358C16.8151 26.4107 16.5457 26.3423 16.2638 26.0273C16.2534 25.8611 16.2342 25.6661 16.2639 25.5041C16.3431 26.2122 16.6524 26.15 17.1535 26.4891C17.3686 26.635 17.5774 26.9081 17.8239 26.9953C18.9559 27.3962 19.2386 26.2842 19.1347 25.3774C19.0941 25.0227 19.0386 24.9143 18.898 24.6089Z" fill="var(--fill-0, #D37F2B)"/>
<path id="Vector_34" d="M22.659 6.04801C22.7943 6.0315 22.9805 6.04 23.1212 6.04254C23.7094 6.4463 24.2241 7.17566 24.2442 7.90827C24.2637 8.61966 23.6406 9.12061 22.9844 9.10413C22.205 8.89489 20.8333 7.96411 21.4359 7.00554C21.6891 6.60273 22.1921 6.15493 22.659 6.04801Z" fill="var(--fill-0, #AA5921)"/>
<path id="Vector_35" d="M2.33398 9.71062C2.61191 9.06832 4.06383 6.47535 4.61559 6.2915L4.66768 6.33045C4.7009 6.73118 3.9351 7.40334 3.83485 7.75062C3.71855 8.15354 3.62939 8.56377 3.50776 8.97028C3.4384 9.11141 3.41372 9.1943 3.28179 9.25502L3.21587 9.21785C3.13736 9.09685 3.13139 8.95418 3.11108 8.80859L3.06411 8.83148L3.05851 8.86005C2.80417 9.10392 2.61478 9.68289 2.40335 9.75197L2.33398 9.71062Z" fill="var(--fill-0, #FCE2B6)"/>
<path id="Vector_36" d="M27.9919 10.3114C28.4562 10.3092 28.8511 11.0943 29.0505 11.4755C29.3246 11.9989 29.5222 12.8149 29.3509 13.4042C29.3287 13.4802 29.2232 13.6903 29.1542 13.726L29.1754 13.6141C29.5413 13.1914 29.3355 12.4112 29.1949 11.9242C29.1522 11.7761 28.8723 11.1497 28.745 11.0869C28.677 11.13 28.6709 11.1374 28.592 11.1628C28.4135 11.0577 28.0981 10.7034 27.9687 10.5152C27.9305 10.4597 27.9711 10.3803 27.9919 10.3114Z" fill="var(--fill-0, #FCE2B6)"/>
<path id="Vector_37" d="M16.8866 28.5254C17.0128 28.5542 17.0599 28.5517 17.1439 28.6499C17.1908 28.768 17.1796 28.7907 17.1646 28.9228C16.9354 28.8777 16.8647 28.7576 16.8866 28.5254Z" fill="var(--fill-0, #F4BD70)"/>
</g>
</svg>
