<svg preserveAspectRatio="none" width="100%" height="100%" overflow="visible" style="display: block;" viewBox="0 0 32 25" fill="none" xmlns="http://www.w3.org/2000/svg">
<g id="Vector">
<path d="M11.0117 0.0554057C11.7324 -0.0385648 14.3698 -0.0111008 15.0869 0.123348C15.4543 0.155443 15.8404 0.278411 16.1133 0.295404C16.9832 0.488695 17.6274 0.615413 18.4296 1.02186C19.2378 1.3647 20.4208 2.1255 20.8706 2.92658C20.9306 3.03356 20.9481 3.45368 20.9561 3.60094C20.994 4.04552 20.9591 4.70608 20.9377 5.15748C20.9521 5.73549 20.8824 6.38467 20.9414 6.94947C20.9558 7.30285 20.9571 7.43273 20.8867 7.78161C20.8505 7.96182 20.755 8.14816 20.7878 8.28509L20.8525 8.23225C21.1539 8.26379 20.8904 8.56116 21.3205 8.71277C21.3644 8.79601 21.3667 8.80618 21.3322 8.90677C21.6282 9.00929 22.1783 8.89197 22.4183 8.92325C22.7425 8.96555 23.9824 9.13255 24.2345 9.22783C24.4708 9.30572 24.6954 9.35132 24.9143 9.42128C25.3497 9.5751 25.8174 9.67211 26.2444 9.84596C28.4873 10.759 30.504 12.0184 31.58 14.2249C31.7771 14.6288 31.7982 14.7261 31.8609 15.1662C31.9132 15.3805 31.9843 15.6338 31.999 15.8493C32.0031 16.1453 31.9967 16.7044 31.9404 16.9901C31.8837 17.2597 31.7818 17.7674 31.6903 18.0229C31.577 18.0234 31.5596 18.004 31.4821 18.0549L31.3967 18.3727C31.4191 18.4931 31.4161 18.5413 31.4915 18.6329C31.4523 18.7798 31.407 18.9692 31.3601 19.1099C31.3179 19.2807 31.2783 19.4545 31.2213 19.6211C31.1928 19.7904 31.0953 20.2515 31.0269 20.408C30.8724 20.8935 30.6042 22.0316 30.3729 22.4031C30.3344 22.393 30.3595 22.3963 30.2975 22.409L30.2117 22.5382C30.1859 22.3454 30.3474 22.2929 30.3196 22.0672C30.2201 22.2694 30.1255 22.4716 29.9542 22.6276C29.7799 22.7841 29.438 23.1038 29.2248 23.1716C28.7173 23.5027 27.4307 24.0869 26.8193 24.2238C25.6511 24.5415 23.9573 24.6423 22.7391 24.5797C22.0335 24.5777 21.6111 24.4681 20.9236 24.3223L20.875 24.3253C20.4607 24.3475 19.7862 24.1319 19.2686 24.112C19.5935 24.2848 20.5006 24.3246 20.7171 24.5151C20.6242 24.5324 20.6068 24.5298 20.5153 24.5291L20.5994 24.5376L20.6249 24.5725C20.7587 24.613 20.707 24.5768 20.7908 24.6782C19.8975 24.5497 17.6124 23.7196 16.887 23.2114C16.715 23.1129 16.5554 23.0131 16.3878 22.9077C16.0613 22.742 15.6661 22.3024 15.3356 22.4181C14.3551 23.0923 12.018 23.4117 10.7898 23.4965C9.86089 23.55 8.35813 23.6018 7.43529 23.519C6.68441 23.3888 5.75654 23.5102 5.09752 23.1948C4.25781 23.1997 3.50928 22.76 2.71147 22.5352C2.3605 22.4364 1.74137 22.0708 1.46783 21.8379C0.645555 21.2292 0.173239 20.5231 0.0525627 19.5307C-0.0463251 18.7176 0.00697251 16.4464 0.107872 15.6151C0.115917 15.747 0.151784 15.824 0.241621 15.9313C0.248996 15.8357 0.295926 15.6765 0.321067 15.5781L0.336823 15.5244C0.565773 15.402 0.891266 14.8719 1.13597 14.6369L1.29855 14.4823C1.39274 14.3587 1.81377 14.1467 1.98272 14.1435C1.95925 13.9935 1.95992 13.9723 1.80975 13.9358C2.14697 13.6901 2.03132 12.8745 2.04038 12.479C1.98205 11.9055 1.96629 10.211 2.00417 9.63218C2.00786 9.52285 2.01926 9.40624 2.02797 9.29649C2.02797 9.21944 1.9911 9.17192 1.95288 9.10294C2.06853 8.2436 2.98534 7.6209 3.62861 7.13888C3.65711 6.98372 3.59978 6.30048 3.58839 6.08766C3.56827 5.7228 3.55855 5.35748 3.55922 4.99214C3.55989 4.46733 3.53609 2.98418 3.89946 2.6312C3.9883 2.65194 3.94639 2.65608 4.02886 2.6187C4.02349 2.70945 3.95109 2.88242 3.93634 3.02959C4.02852 2.84699 4.13545 2.58054 4.26351 2.43765C4.48039 2.24719 4.61246 2.08603 4.86454 1.87885C4.76029 1.81971 4.75996 1.81622 4.64531 1.78775C5.26948 1.43277 5.93287 1.09006 6.60363 0.827426C6.84264 0.727486 7.09807 0.66124 7.34847 0.589808C7.47518 0.651912 7.5134 0.673277 7.64815 0.709254C7.76615 0.675234 7.88414 0.640398 8.00147 0.604714L8.14594 0.353789C8.64407 0.267223 9.19047 0.188224 9.69396 0.104234C10.0774 0.0563519 10.6064 0.0671806 11.0117 0.0554057Z" fill="#F7B30C"/>
<path d="M20.7878 8.28509L20.8525 8.23225C21.1539 8.26379 20.8904 8.56116 21.3205 8.71277C21.3644 8.79601 21.3667 8.80618 21.3322 8.90677C21.6282 9.00929 22.1783 8.89197 22.4183 8.92325C22.7425 8.96555 23.9824 9.13255 24.2345 9.22783C24.4708 9.30572 24.6954 9.35132 24.9143 9.42128C25.3497 9.5751 25.8174 9.67211 26.2444 9.84596C28.4873 10.759 30.504 12.0184 31.58 14.2249C31.7771 14.6288 31.7982 14.7261 31.8609 15.1662C31.9132 15.3805 31.9843 15.6338 31.999 15.8493C32.0031 16.1453 31.9967 16.7044 31.9404 16.9901C31.8837 17.2597 31.7818 17.7674 31.6903 18.0229C31.577 18.0234 31.5596 18.004 31.4821 18.0549L31.3967 18.3727C31.4191 18.4931 31.4161 18.5413 31.4915 18.6329C31.4523 18.7798 31.407 18.9692 31.3601 19.1099C31.3179 19.2807 31.2783 19.4545 31.2213 19.6211C31.1928 19.7904 31.0953 20.2515 31.0269 20.408C30.8724 20.8935 30.6042 22.0316 30.3729 22.4031C30.3344 22.393 30.3595 22.3963 30.2975 22.409L30.2117 22.5382C30.1859 22.3454 30.3474 22.2929 30.3196 22.0672C30.2201 22.2694 30.1255 22.4716 29.9542 22.6276C29.7799 22.7841 29.438 23.1038 29.2248 23.1716C28.7173 23.5027 27.4307 24.0869 26.8193 24.2238L26.5689 24.2092C26.4801 24.1426 26.5139 24.1873 26.4942 24.0519C26.406 23.9779 26.3762 23.9981 26.236 23.9789C26.2079 23.9603 26.1177 23.9339 26.0802 23.9212L26.0239 23.8866C25.3903 23.9251 25.095 23.9456 24.4534 23.9218C24.4514 23.5294 24.502 21.1506 24.6418 20.9689C24.6914 20.9042 24.7728 20.8868 24.8509 20.8798C24.9411 20.8717 25.0259 20.8561 25.1144 20.8374C24.1152 20.813 23.0639 20.8046 22.0667 20.7202C21.7992 20.6975 21.3064 20.5395 21.0372 20.4626C19.6297 20.0613 18.2791 19.4432 17.1085 18.5826C15.8887 17.6856 14.691 16.4708 14.4389 14.9482C14.3708 14.5979 14.3333 14.2424 14.3011 13.8875C14.2857 13.7135 14.2964 13.5501 14.2653 13.3771C14.3853 12.7366 14.4201 12.5217 14.7493 11.9451C15.0285 11.5898 15.1754 11.3075 15.5008 10.9446C15.6483 10.7968 15.9383 10.6219 16.123 10.5075C16.1636 10.5029 16.8005 10.1752 16.8853 10.1241C17.2912 9.87929 17.8245 9.77306 18.2261 9.56623C18.5566 9.4386 19.1406 9.31625 19.4949 9.26106C19.7477 9.17903 19.9582 9.10743 20.1526 8.9206C20.0591 8.88945 20.0054 8.86753 19.9766 8.77552C20.0618 8.64988 20.2428 8.66922 20.3765 8.67522L20.4094 8.68217C20.4992 8.57933 20.7493 8.36265 20.7878 8.28509Z" fill="#FDE74F"/>
<path d="M31.3578 17.902C31.4077 17.9922 31.4027 17.9884 31.4821 18.0549L31.3967 18.3727C31.4191 18.4931 31.4161 18.5413 31.4915 18.6329C31.4523 18.7798 31.407 18.9692 31.3601 19.1099C31.3179 19.2807 31.2783 19.4545 31.2213 19.6211C31.1928 19.7904 31.0953 20.2515 31.0269 20.408C30.8724 20.8935 30.6042 22.0316 30.3729 22.4031C30.3344 22.393 30.3595 22.3963 30.2975 22.409L30.2117 22.5382C30.1859 22.3454 30.3474 22.2929 30.3196 22.0672C30.2201 22.2694 30.1255 22.4716 29.9542 22.6276C29.7799 22.7841 29.438 23.1038 29.2248 23.1716C28.7173 23.5027 27.4307 24.0869 26.8193 24.2238L26.5689 24.2092C26.4801 24.1426 26.5139 24.1873 26.4942 24.0519C26.406 23.9779 26.3762 23.9981 26.236 23.9789C26.2079 23.9603 26.1177 23.9339 26.0802 23.9212L26.0239 23.8866C25.3903 23.9251 25.095 23.9456 24.4534 23.9218C24.4514 23.5294 24.502 21.1506 24.6418 20.9689C24.6914 20.9042 24.7728 20.8868 24.8509 20.8798C24.9411 20.8717 25.0259 20.8561 25.1144 20.8374C25.4228 20.8208 25.7326 20.8077 26.0396 20.7745C27.9218 20.7656 30.1373 19.6235 31.1583 18.0934C31.2247 18.0239 31.287 17.967 31.3578 17.902Z" fill="#D27D01"/>
<path d="M26.0239 23.8866C26.0249 23.8863 26.4244 23.7871 26.471 23.7744C27.0161 23.6263 27.5766 23.5092 28.1226 23.3644C28.4381 23.2809 28.7408 23.0819 29.0656 23.0108C29.0813 23.0659 29.0978 23.1109 29.1175 23.1648L29.2248 23.1716C28.7173 23.5027 27.4307 24.0869 26.8193 24.2238L26.5689 24.2092C26.4801 24.1426 26.5139 24.1873 26.4942 24.0519C26.406 23.9779 26.3762 23.9981 26.236 23.9789C26.2079 23.9603 26.1177 23.9339 26.0802 23.9212L26.0239 23.8866Z" fill="#EFA305"/>
<path d="M31.0169 19.8573C31.0594 19.6667 31.0423 19.6673 31.2213 19.6211C31.1928 19.7904 31.0953 20.2515 31.0269 20.408C30.8724 20.8935 30.6042 22.0316 30.3729 22.4031C30.3344 22.393 30.3595 22.3963 30.2975 22.409L30.2117 22.5382C30.1859 22.3454 30.3474 22.2929 30.3196 22.0672C30.4906 21.2841 30.69 20.6566 30.9827 19.9141L31.0169 19.8573Z" fill="var(--fill-0, #8C3C02)"/>
<path d="M31.0169 19.8573C31.0594 19.6667 31.0423 19.6673 31.2213 19.6211C31.1928 19.7904 31.0953 20.2515 31.0269 20.408C30.9652 20.2595 30.981 20.0755 30.9827 19.9141L31.0169 19.8573Z" fill="#7A3001"/>
<path d="M31.2803 18.6126L31.3967 18.3727C31.4191 18.4931 31.4161 18.5413 31.4915 18.6329C31.4523 18.7798 31.407 18.9692 31.3601 19.1099C31.3179 19.2807 31.2783 19.4545 31.2213 19.6211C31.0423 19.6673 31.0594 19.6667 31.0169 19.8573L30.9763 19.7557C31.0748 19.5001 31.2012 18.9113 31.2803 18.6126Z" fill="var(--fill-0, #8C3C02)"/>
<path d="M31.2803 18.6126L31.3967 18.3727C31.4191 18.4931 31.4161 18.5413 31.4915 18.6329C31.4523 18.7798 31.407 18.9692 31.3601 19.1099C31.2632 18.8233 31.4687 18.8785 31.2803 18.6126Z" fill="#9E4303"/>
<path d="M30.9763 19.7557L30.7809 19.7397C30.6893 19.5358 31.1003 18.7169 31.2803 18.6126C31.2012 18.9113 31.0748 19.5001 30.9763 19.7557Z" fill="#C06403"/>
<path d="M24.5543 9.50217C24.7088 9.40898 24.7299 9.41632 24.9143 9.42128C25.3497 9.5751 25.8174 9.67211 26.2444 9.84596C28.4873 10.759 30.504 12.0184 31.58 14.2249C31.7771 14.6288 31.7982 14.7261 31.8609 15.1662C31.7282 15.0986 31.6833 15.0469 31.5757 14.9479C31.5307 14.718 31.345 14.2725 31.2327 14.0569C30.2988 12.2607 28.547 11.0824 26.7191 10.2511C26.0644 9.9534 25.2371 9.71917 24.5543 9.50217Z" fill="#EA6A01"/>
<path d="M20.7878 8.28509L20.8525 8.23225C21.1539 8.26379 20.8904 8.56116 21.3205 8.71277C21.3644 8.79601 21.3667 8.80618 21.3322 8.90677C21.6282 9.00929 22.1783 8.89197 22.4183 8.92325C22.7425 8.96555 23.9824 9.13255 24.2345 9.22783C24.4708 9.30572 24.6954 9.35132 24.9143 9.42128C24.7299 9.41632 24.7088 9.40898 24.5543 9.50217C24.3602 9.46567 24.1564 9.41981 23.9616 9.37933C23.1015 9.1773 21.8005 9.09706 20.9085 9.1454C20.4526 9.17009 19.9669 9.23562 19.4949 9.26106C19.7477 9.17903 19.9582 9.10743 20.1526 8.9206C20.0591 8.88945 20.0054 8.86753 19.9766 8.77552C20.0618 8.64988 20.2428 8.66922 20.3765 8.67522L20.4094 8.68217C20.4992 8.57933 20.7493 8.36265 20.7878 8.28509Z" fill="#E46803"/>
<path d="M20.7878 8.28509L20.8525 8.23225C21.1539 8.26379 20.8904 8.56116 21.3205 8.71277C21.3644 8.79601 21.3667 8.80618 21.3322 8.90677C21.237 8.94497 21.1338 8.9753 21.0339 8.94588C20.9993 8.89467 20.9715 8.84186 20.9444 8.78648C20.8069 8.75288 20.6139 8.67826 20.4855 8.66893L20.4724 8.77037C20.3889 8.85253 20.2672 8.88084 20.1526 8.9206C20.0591 8.88945 20.0054 8.86753 19.9766 8.77552C20.0618 8.64988 20.2428 8.66922 20.3765 8.67522L20.4094 8.68217C20.4992 8.57933 20.7493 8.36265 20.7878 8.28509Z" fill="#9E4303"/>
<path d="M31.5757 14.9479C31.6833 15.0469 31.7282 15.0986 31.8609 15.1662C31.9132 15.3805 31.9843 15.6338 31.999 15.8493C32.0031 16.1453 31.9967 16.7044 31.9404 16.9901C31.8837 17.2597 31.7818 17.7674 31.6903 18.0229C31.577 18.0234 31.5596 18.004 31.4821 18.0549C31.4027 17.9884 31.4077 17.9922 31.3578 17.902C31.287 17.967 31.2247 18.0239 31.1583 18.0934L31.1074 17.9553C31.1791 17.858 31.279 17.6088 31.331 17.4925C31.6521 16.774 31.7181 15.9647 31.6347 15.1864L31.5757 14.9479Z" fill="#FBBF16"/>
<path d="M31.7925 16.9257L31.8706 16.7781L31.9021 16.7983L31.9404 16.9901C31.8837 17.2597 31.7818 17.7674 31.6903 18.0229C31.577 18.0234 31.5596 18.004 31.4821 18.0549C31.4027 17.9884 31.4077 17.9922 31.3578 17.902C31.5297 17.6802 31.7101 17.1867 31.7925 16.9257Z" fill="#9E4303"/>
<path d="M31.5757 14.9479C31.6833 15.0469 31.7282 15.0986 31.8609 15.1662C31.9132 15.3805 31.9843 15.6338 31.999 15.8493C31.8623 15.964 31.8492 15.9909 31.8375 16.1672C31.8358 16.195 31.8344 16.2227 31.8334 16.2505C31.7785 15.8557 31.7718 15.5725 31.6347 15.1864L31.5757 14.9479Z" fill="#E46803"/>
<path d="M31.999 15.8493C32.0031 16.1453 31.9967 16.7044 31.9404 16.9901L31.9021 16.7983L31.8706 16.7781L31.7925 16.9257C31.8395 16.6723 31.8646 16.5039 31.8334 16.2505C31.8344 16.2227 31.8358 16.195 31.8375 16.1672C31.8492 15.9909 31.8623 15.964 31.999 15.8493Z" fill="#C06403"/>
<path d="M26.0396 20.7745C26.2538 20.6172 26.9343 20.6522 27.1254 20.5779C27.4458 20.4532 27.9151 20.3786 28.1977 20.2569C28.7532 20.0014 29.8161 19.5418 30.1755 19.0614C30.5167 18.6051 30.1208 18.5259 30.9538 18.2138C30.9927 18.0847 31.0145 18.0546 31.1074 17.9553L31.1583 18.0934C30.1373 19.6235 27.9218 20.7656 26.0396 20.7745Z" fill="#FCD333"/>
<path d="M17.9171 17.17C16.1478 15.6658 15.1318 13.0949 17.2919 11.4233C18.4923 10.4945 19.5563 10.1871 21.0761 10.135C21.5759 10.1179 22.0251 10.0896 22.5323 10.1361C22.7907 10.125 23.2862 10.2269 23.5594 10.2726C24.9093 10.4714 27.4552 11.4683 28.3174 12.4481C28.5453 12.6759 28.96 13.0744 29.1055 13.3524C29.3793 13.7351 29.5902 14.0725 29.7799 14.5032C30.2046 14.9606 30.3618 16.2291 29.8956 16.7375C29.8148 16.9291 29.6887 17.2514 29.5717 17.4131C28.5145 18.8726 26.234 19.509 24.4695 19.4118C23.8443 19.4515 22.2628 19.2227 21.6379 19.0821C20.6658 18.8634 18.5268 17.9102 17.9171 17.17Z" fill="#FDC110"/>
<path d="M17.9171 17.17C16.1478 15.6658 15.1318 13.0949 17.2919 11.4233C18.4923 10.4945 19.5563 10.1871 21.0761 10.135C21.5759 10.1179 22.0251 10.0896 22.5323 10.1361C22.427 10.1673 22.1773 10.1875 22.0697 10.1732C21.6761 10.121 21.2866 10.2265 20.9149 10.2327C21.1354 10.4962 21.3966 10.229 21.0989 10.6946L21.0416 10.7266L20.9869 10.6443L20.9551 10.6542L20.9326 10.8049C21.0014 10.8376 20.9571 10.8339 21.0131 10.8198C21.6292 10.6644 23.2972 10.7685 23.8279 11.0347C23.785 11.0379 23.1953 10.9006 23.0857 10.8822C22.7803 10.8339 22.4719 10.8034 22.1629 10.7908C20.9715 10.7362 20.1003 11.0104 18.983 11.3749C17.7102 11.79 16.4321 12.3584 16.4602 13.9019C16.4683 14.3284 16.6184 14.3977 16.7126 14.7209L16.6788 14.7253C16.3734 14.2859 16.4904 14.1884 16.3774 13.7748C15.6028 15.182 17.8611 16.8212 17.9171 17.17Z" fill="#E98801"/>
<path d="M29.1055 13.3524C29.3793 13.7351 29.5902 14.0725 29.7799 14.5032C30.2046 14.9606 30.3618 16.2291 29.8956 16.7375C29.8148 16.9291 29.6887 17.2514 29.5717 17.4131C28.5145 18.8726 26.234 19.509 24.4695 19.4118C25.4771 19.3859 27.2759 19.1163 28.0995 18.5745C28.1662 18.4193 28.1625 18.5793 28.2001 18.4412C26.9886 19.0106 26.4566 19.1711 25.1241 19.2268L25.0953 19.1801C25.2602 19.0115 25.7359 19.0967 25.9498 19.0444C27.1834 18.7428 28.3546 18.39 29.2566 17.4698C30.0695 16.6407 30.0216 15.0919 29.3438 14.2075C29.316 14.1711 29.3244 14.2033 29.3227 14.1541C29.4564 14.2353 29.5245 14.4372 29.673 14.5801L29.7192 14.5675C29.6328 14.1587 29.2536 13.7569 29.0904 13.4064L29.1055 13.3524Z" fill="#E98801"/>
<path d="M29.7799 14.5032C30.2046 14.9606 30.3618 16.2291 29.8956 16.7375C30.1356 15.934 30.0548 15.2856 29.7799 14.5032Z" fill="#FEDB49"/>
<path d="M23.5594 10.2726C24.9093 10.4714 27.4552 11.4683 28.3174 12.4481C27.6721 12.2193 26.8331 11.492 26.1543 11.2072C25.3065 10.8514 24.3746 10.6636 23.5594 10.2726Z" fill="#FBBF16"/>
<path d="M21.0677 12.4452C21.1331 12.3265 21.167 12.2391 21.3081 12.2031C21.7026 12.1026 22.2986 12.4243 22.6322 12.6016C22.9325 12.7613 23.2315 13.0507 23.5289 13.1921C24.0806 13.014 25.5646 12.5374 25.8754 13.2601L25.9575 13.2044C26.0195 13.3083 25.9742 13.527 25.9598 13.6661C25.8291 13.8397 25.4597 14.2968 25.514 14.4692C25.6166 14.7957 26.0956 14.9105 26.1972 15.3511C26.4787 15.6723 26.9366 16.0851 27.2524 16.3802C27.1056 16.4715 26.995 16.5479 26.8321 16.6117L26.9403 16.656C26.7942 16.9002 25.9706 16.9267 25.7094 16.8821C25.2569 16.9051 24.4038 16.7137 24.0736 16.8442C23.9948 17.0483 23.6432 17.7409 23.4471 17.8137C23.2107 17.9012 23.1796 17.8966 22.9536 17.8402C21.7884 17.5492 22.2282 16.8137 21.7797 16.0424C21.646 15.8122 21.4502 15.7943 21.1958 15.7287C20.8371 15.6468 19.6122 15.5244 19.7101 14.9532C19.9833 14.225 20.466 14.4191 21.0731 13.8245C21.05 13.813 20.9896 13.7918 20.9846 13.7659C20.9353 13.5182 20.7976 12.4974 21.0148 12.3838L21.0677 12.4452Z" fill="#FDE74F"/>
<path d="M21.2317 15.508C21.4559 15.5804 21.5535 15.6221 21.766 15.7246C22.1763 16.4067 22.0429 17.3953 22.8668 17.6032C23.6958 17.8125 23.8034 16.9034 24.0786 16.351C25.0105 16.3731 26.0989 16.8309 26.8321 16.6117L26.9403 16.656C26.7942 16.9002 25.9706 16.9267 25.7094 16.8821C25.2569 16.9051 24.4038 16.7137 24.0736 16.8442C23.9948 17.0483 23.6432 17.7409 23.4471 17.8137C23.2107 17.9012 23.1796 17.8966 22.9536 17.8402C21.7884 17.5492 22.2282 16.8137 21.7797 16.0424C21.646 15.8122 21.4502 15.7943 21.1958 15.7287C21.2528 15.7276 21.2427 15.7229 21.2997 15.6979C21.3098 15.5985 21.2957 15.6156 21.2317 15.508Z" fill="#FF9D03"/>
<path d="M24.1819 16.5078C24.6029 16.5503 25.0554 16.6136 25.4597 16.7472C25.5539 16.7783 25.639 16.851 25.7094 16.8821C25.2569 16.9051 24.4038 16.7137 24.0736 16.8442C24.1021 16.7013 24.1282 16.6424 24.1819 16.5078Z" fill="#EFA305"/>
<path d="M19.7101 14.9532C20.0121 15.1299 20.8874 15.4302 21.2317 15.508C21.2957 15.6156 21.3098 15.5985 21.2997 15.6979C21.2427 15.7229 21.2528 15.7276 21.1958 15.7287C20.8371 15.6468 19.6122 15.5244 19.7101 14.9532Z" fill="#E98801"/>
<path d="M25.8754 13.2601L25.9575 13.2044C26.0195 13.3083 25.9742 13.527 25.9598 13.6661C25.8291 13.8397 25.4597 14.2968 25.514 14.4692C25.6166 14.7957 26.0956 14.9105 26.1972 15.3511C25.8563 15.0704 25.5596 14.8482 25.281 14.5048C25.4577 14.0452 25.7869 13.7265 25.8754 13.2601Z" fill="#E98801"/>
<path d="M21.0731 13.8245C21.05 13.813 20.9896 13.7918 20.9846 13.7659C20.9353 13.5182 20.7976 12.4974 21.0148 12.3838L21.0677 12.4452C21.0148 12.9175 21.2752 13.5703 21.0731 13.8245Z" fill="#E98801"/>
<path d="M11.0117 0.0554057C11.7324 -0.0385648 14.3698 -0.0111008 15.0869 0.123348C15.4543 0.155443 15.8404 0.278411 16.1133 0.295404C16.9832 0.488695 17.6274 0.615413 18.4296 1.02186C19.2378 1.3647 20.4208 2.1255 20.8706 2.92658C20.9306 3.03356 20.9481 3.45368 20.9561 3.60094C20.994 4.04552 20.9591 4.70608 20.9377 5.15748C20.9521 5.73549 20.8824 6.38467 20.9414 6.94947C20.9558 7.30285 20.9571 7.43273 20.8867 7.78161C20.8505 7.96182 20.755 8.14816 20.7878 8.28509C20.7493 8.36265 20.4992 8.57933 20.4094 8.68217L20.3765 8.67522C20.2428 8.66922 20.0618 8.64988 19.9766 8.77552C20.0054 8.86753 20.0591 8.88945 20.1526 8.9206C19.9582 9.10743 19.7477 9.17903 19.4949 9.26106C19.1406 9.31625 18.5566 9.4386 18.2261 9.56623C17.8245 9.77306 17.2912 9.87929 16.8853 10.1241C16.8005 10.1752 16.1636 10.5029 16.123 10.5075C15.9383 10.6219 15.6483 10.7968 15.5008 10.9446C15.1576 11.022 14.5545 11.1607 14.2156 11.1875C13.2848 11.261 12.202 11.1713 11.2825 11.2146C9.00342 11.1548 7.20299 11.0003 5.13003 9.94857C4.91349 9.83395 4.66643 9.76435 4.45257 9.6479C3.53777 9.15039 3.94908 8.08641 3.72716 7.37112L3.69096 7.30008C3.67353 7.26071 3.67119 7.19612 3.66582 7.15033L3.62861 7.13888C3.65711 6.98372 3.59978 6.30048 3.58839 6.08766C3.56827 5.7228 3.55855 5.35748 3.55922 4.99214C3.55989 4.46733 3.53609 2.98418 3.89946 2.6312C3.9883 2.65194 3.94639 2.65608 4.02886 2.6187C4.02349 2.70945 3.95109 2.88242 3.93634 3.02959C4.02852 2.84699 4.13545 2.58054 4.26351 2.43765C4.48039 2.24719 4.61246 2.08603 4.86454 1.87885C4.76029 1.81971 4.75996 1.81622 4.64531 1.78775C5.26948 1.43277 5.93287 1.09006 6.60363 0.827426C6.84264 0.727486 7.09807 0.66124 7.34847 0.589808C7.47518 0.651912 7.5134 0.673277 7.64815 0.709254C7.76615 0.675234 7.88414 0.640398 8.00147 0.604714L8.14594 0.353789C8.64407 0.267223 9.19047 0.188224 9.69396 0.104234C10.0774 0.0563519 10.6064 0.0671806 11.0117 0.0554057Z" fill="#FDE74F"/>
<path d="M18.4296 1.02186C19.2378 1.3647 20.4208 2.1255 20.8706 2.92658C20.9306 3.03356 20.9481 3.45368 20.9561 3.60094C20.994 4.04552 20.9591 4.70608 20.9377 5.15748C20.9521 5.73549 20.8824 6.38467 20.9414 6.94947C20.9558 7.30285 20.9571 7.43273 20.8867 7.78161C20.8505 7.96182 20.755 8.14816 20.7878 8.28509C20.7493 8.36265 20.4992 8.57933 20.4094 8.68217L20.3765 8.67522C20.2428 8.66922 20.0618 8.64988 19.9766 8.77552C20.0054 8.86753 20.0591 8.88945 20.1526 8.9206C19.9582 9.10743 19.7477 9.17903 19.4949 9.26106C19.1406 9.31625 18.5566 9.4386 18.2261 9.56623C17.8245 9.77306 17.2912 9.87929 16.8853 10.1241C16.8005 10.1752 16.1636 10.5029 16.123 10.5075C15.9383 10.6219 15.6483 10.7968 15.5008 10.9446C15.1576 11.022 14.5545 11.1607 14.2156 11.1875C13.2848 11.261 12.202 11.1713 11.2825 11.2146C9.00342 11.1548 7.20299 11.0003 5.13003 9.94857C4.91349 9.83395 4.66643 9.76435 4.45257 9.6479C3.53777 9.15039 3.94908 8.08641 3.72716 7.37112L3.69096 7.30008C3.67353 7.26071 3.67119 7.19612 3.66582 7.15033L3.62861 7.13888C3.65711 6.98372 3.59978 6.30048 3.58839 6.08766C3.56827 5.7228 3.55855 5.35748 3.55922 4.99214C3.55989 4.46733 3.53609 2.98418 3.89946 2.6312C3.9883 2.65194 3.94639 2.65608 4.02886 2.6187C4.02349 2.70945 3.95109 2.88242 3.93634 3.02959C4.02852 2.84699 4.13545 2.58054 4.26351 2.43765C4.16227 2.85277 3.77611 3.62351 4.06204 3.99946C4.66274 4.78952 5.956 5.46167 6.94354 5.66223C7.32166 5.75777 7.77185 5.91854 8.09968 5.996C8.31891 6.04431 8.5539 6.10064 8.77413 6.1358C9.16197 6.18479 9.76435 6.27697 10.1381 6.28646C10.3282 6.32903 10.5156 6.33219 10.7097 6.34064C11.5812 6.37857 12.4507 6.44929 13.3236 6.40166C13.4614 6.39416 13.6173 6.38369 13.7544 6.38284C13.9173 6.35926 14.1335 6.34393 14.3005 6.33617C15.1529 6.29638 15.9903 6.16966 16.8353 6.08162C16.9272 6.03599 17.4649 5.95755 17.612 5.89887C18.5298 5.53293 19.8496 5.00946 20.4489 4.23362C20.7339 3.86495 20.6812 3.45169 20.6035 3.05144C20.1834 2.14102 19.148 1.56794 18.2684 1.11746L18.2895 1.05617C18.3542 1.05738 18.3716 1.04952 18.4296 1.02186Z" fill="#EFA305"/>
<path d="M3.89946 2.6312C3.9883 2.65194 3.94639 2.65608 4.02886 2.6187C4.02349 2.70945 3.95109 2.88242 3.93634 3.02959C3.72113 3.79978 3.88405 4.38294 3.85053 5.18373C3.85589 5.34258 3.85924 5.69403 3.88237 5.83559C3.88572 6.3027 3.85522 7.5162 3.91589 7.87662C3.95008 8.05321 3.97723 8.20416 4.02953 8.37687C4.12171 8.8708 4.54643 9.07981 4.9336 9.37023C5.78101 10.0061 6.66598 10.1772 7.67329 10.4794C7.94012 10.5595 8.5539 10.7958 8.84118 10.8242C10.7834 11.0161 12.9244 10.9961 14.8619 10.7815C15.2297 10.7407 15.8431 10.4517 16.0167 10.4452C16.0915 10.4713 16.0674 10.4549 16.123 10.5075C15.9383 10.6219 15.6483 10.7968 15.5008 10.9446C15.1576 11.022 14.5545 11.1607 14.2156 11.1875C13.2848 11.261 12.202 11.1713 11.2825 11.2146C9.00342 11.1548 7.20299 11.0003 5.13003 9.94857C4.91349 9.83395 4.66643 9.76435 4.45257 9.6479C3.53777 9.15039 3.94908 8.08641 3.72716 7.37112L3.69096 7.30008C3.67353 7.26071 3.67119 7.19612 3.66582 7.15033L3.62861 7.13888C3.65711 6.98372 3.59978 6.30048 3.58839 6.08766C3.56827 5.7228 3.55855 5.35748 3.55922 4.99214C3.55989 4.46733 3.53609 2.98418 3.89946 2.6312Z" fill="#9E4303"/>
<path d="M3.89946 2.6312C3.9883 2.65194 3.94639 2.65608 4.02886 2.6187C4.02349 2.70945 3.95109 2.88242 3.93634 3.02959C3.72113 3.79978 3.88405 4.38294 3.85053 5.18373C3.83175 5.09521 3.81264 5.00949 3.79924 4.91996C3.69767 5.03526 3.757 6.82315 3.66582 7.15033L3.62861 7.13888C3.65711 6.98372 3.59978 6.30048 3.58839 6.08766C3.56827 5.7228 3.55855 5.35748 3.55922 4.99214C3.55989 4.46733 3.53609 2.98418 3.89946 2.6312Z" fill="#C06403"/>
<path d="M3.88237 5.83559C3.90885 5.37693 3.83175 4.73958 3.94505 4.33164L4.04897 4.62444C4.16261 4.93956 4.52732 5.37269 4.5719 5.66275C4.70867 6.54642 4.42273 7.71849 4.97047 8.50127C5.19171 8.81714 5.94862 8.96327 6.23389 9.16015C6.15176 9.15708 6.08203 9.14371 6.0113 9.17029C6.05187 9.20581 6.06259 9.21214 6.11891 9.22711C6.23556 9.25806 6.33914 9.40089 6.45647 9.43152C6.66631 9.48638 6.8899 9.51985 7.10108 9.57321C7.26165 9.61382 7.42691 9.6935 7.58748 9.72968C8.00884 9.82436 8.43557 9.90884 8.85827 9.99808C8.90855 10.0088 9.26723 10.0975 9.27393 10.0972C9.57563 10.0832 11.1119 9.99916 11.3117 10.106C11.123 10.2928 10.7572 10.2567 10.4897 10.2614C9.67116 10.276 8.89246 10.3139 8.097 10.0649C7.95688 10.021 7.88984 10.0421 7.7457 10.0658C7.62401 10.0304 7.60491 9.98745 7.51842 9.88689C7.40244 9.84769 7.39976 9.84968 7.2754 9.84107C7.39976 9.92111 7.46747 9.95614 7.56837 10.0654C7.28612 10.0034 7.08935 9.94831 6.81381 9.86142C6.53122 9.77345 6.20707 9.64624 5.92583 9.54376C5.52558 9.4172 4.72811 8.97256 4.35267 8.73093C4.29401 8.69329 4.08987 8.44811 4.02953 8.37687C3.97723 8.20416 3.95008 8.05321 3.91589 7.87662C3.85522 7.5162 3.88572 6.3027 3.88237 5.83559Z" fill="#FBBF16"/>
<path d="M3.91589 7.87662C4.07478 8.1415 4.41904 8.42016 4.58229 8.71136C4.60274 8.74786 4.74051 8.74356 4.78476 8.74153L4.8146 8.73987C4.99561 8.83404 5.78437 9.32878 5.897 9.34489C5.88862 9.443 5.87722 9.45761 5.92583 9.54376C5.52558 9.4172 4.72811 8.97256 4.35267 8.73093C4.29401 8.69329 4.08987 8.44811 4.02953 8.37687C3.97723 8.20416 3.95008 8.05321 3.91589 7.87662Z" fill="#EFA305"/>
<path d="M6.62206 9.62778C6.77257 9.66937 7.20399 9.83033 7.2754 9.84107C7.39976 9.92111 7.46747 9.95614 7.56837 10.0654C7.28612 10.0034 7.08935 9.94831 6.81381 9.86142C6.74341 9.78248 6.68709 9.71109 6.62206 9.62778Z" fill="#FCD333"/>
<path d="M7.2754 9.84107C7.39976 9.84968 7.40244 9.84769 7.51842 9.88689C7.60491 9.98745 7.62401 10.0304 7.7457 10.0658C7.88984 10.0421 7.95688 10.021 8.097 10.0649C8.89246 10.3139 9.67116 10.276 10.4897 10.2614C10.7572 10.2567 11.123 10.2928 11.3117 10.106C11.1119 9.99916 9.57563 10.0832 9.27393 10.0972C9.26723 10.0975 8.90855 10.0088 8.85827 9.99808C8.43557 9.90884 8.00884 9.82436 7.58748 9.72968C7.42691 9.6935 7.26165 9.61382 7.10108 9.57321C6.8899 9.51985 6.66631 9.48638 6.45647 9.43152C6.33914 9.40089 6.23556 9.25806 6.11891 9.22711C6.06259 9.21214 6.05187 9.20581 6.0113 9.17029C6.08203 9.14371 6.15176 9.15708 6.23389 9.16015C6.25232 9.16344 6.27076 9.16673 6.2892 9.17003C6.55703 9.26064 6.78598 9.39603 7.06622 9.48403C7.60625 9.65355 8.18818 9.80561 8.74329 9.92202C9.42277 10.0645 10.4297 9.94668 11.0982 9.99492C11.8145 10.0466 12.7665 10.0857 13.4333 10.1289C13.989 10.1649 16.7465 9.6436 16.9456 9.71249C16.9517 9.78972 16.9372 9.77606 16.8665 9.8575C16.5843 9.89788 15.9048 10.2132 15.5002 10.2919C13.9907 10.5852 12.7132 10.6394 11.1843 10.6133C9.72949 10.5884 8.96286 10.5307 7.56837 10.0654C7.46747 9.95614 7.39976 9.92111 7.2754 9.84107Z" fill="#F7BE05"/>
<path d="M7.17148 5.87127C7.72961 6.05083 8.25187 6.23734 8.83112 6.33503C8.81704 6.70634 8.80363 7.07436 8.80363 7.44601C8.8033 7.87584 8.84184 8.34794 8.77581 8.77232C8.15633 9.08013 8.31187 8.75311 7.87241 8.53754C7.75911 8.46951 7.72592 8.4865 7.58815 8.49899L7.54424 8.50327L7.49362 8.41719C7.40948 8.37537 7.45138 8.37844 7.36322 8.40466L7.30556 8.5607L7.25897 8.55118C7.22645 8.44697 7.23819 8.38894 7.32501 8.32335C7.47552 8.30932 7.6438 8.38307 7.7933 8.43258L7.80503 8.40257C7.76078 8.32472 7.63843 8.28548 7.6029 8.22703C7.40713 7.90405 7.48423 7.53482 7.44032 7.19449C7.40043 6.88649 7.146 6.50708 7.19327 6.18567C7.2107 6.03107 7.20701 6.028 7.17148 5.87127Z" fill="#FEDB49"/>
<path d="M9.06007 6.39648C9.13046 6.3543 9.17203 6.35792 9.25416 6.35085L9.47506 6.432C9.61652 6.44524 9.92592 6.48334 10.0533 6.46628C10.177 6.51644 10.3909 6.81003 10.5079 6.93868C10.5011 7.24091 10.6577 8.54077 10.4086 8.65621C10.1522 8.54678 10.0369 7.9609 10.005 7.71272C9.91754 7.77668 10.0402 8.83165 9.89039 9.01431C9.82234 9.09732 9.50892 9.11092 9.38187 9.12802L9.34802 9.09664C9.26086 9.01549 9.07716 8.86091 9.07314 8.75712C9.04196 7.98912 9.07717 7.16008 9.06007 6.39648Z" fill="#FCD333"/>
<path d="M9.25416 6.35085L9.47506 6.432C9.52702 6.82693 9.60713 7.07919 9.72278 7.45781C9.59238 7.78193 9.67619 8.31271 9.41808 8.48904C9.30678 8.48562 9.25784 8.43444 9.16667 8.3696C9.14219 7.77642 9.10331 7.0619 9.14521 6.46217C9.15024 6.38813 9.18644 6.38875 9.25416 6.35085Z" fill="#FDE74F"/>
<path d="M4.02953 8.37687C4.08987 8.44811 4.29401 8.69329 4.35267 8.73093C4.72811 8.97256 5.52558 9.4172 5.92583 9.54376C6.20707 9.64624 6.53122 9.77345 6.81381 9.86142C7.08935 9.94831 7.28612 10.0034 7.56837 10.0654C8.96286 10.5307 9.72949 10.5884 11.1843 10.6133C12.7132 10.6394 13.9907 10.5852 15.5002 10.2919C15.9048 10.2132 16.5843 9.89788 16.8665 9.8575L16.9171 9.88069C16.5591 10.2153 15.7077 10.3386 15.2313 10.3972C14.5026 10.4867 13.7628 10.6447 13.0297 10.6838C12.4233 10.7161 11.7867 10.6838 11.1783 10.6709C10.3681 10.7009 9.79921 10.6766 8.99638 10.5229C8.75938 10.4775 8.57066 10.4798 8.3816 10.4141C8.28003 10.3788 8.08292 10.436 7.92101 10.4402C7.96861 10.4839 8.25422 10.6008 8.33031 10.6263C9.32891 10.9607 10.4267 10.823 11.4491 10.8779C12.5714 10.9382 13.572 10.8481 14.6893 10.7628C14.9461 10.7432 15.944 10.3895 15.9839 10.3994L16.0167 10.4452C15.8431 10.4517 15.2297 10.7407 14.8619 10.7815C12.9244 10.9961 10.7834 11.0161 8.84118 10.8242C8.5539 10.7958 7.94012 10.5595 7.67329 10.4794C6.66598 10.1772 5.78101 10.0061 4.9336 9.37023C4.54643 9.07981 4.12171 8.8708 4.02953 8.37687Z" fill="#E98801"/>
<path d="M18.4296 1.02186C19.2378 1.3647 20.4208 2.1255 20.8706 2.92658C20.9306 3.03356 20.9481 3.45368 20.9561 3.60094C20.994 4.04552 20.9591 4.70608 20.9377 5.15748C20.9521 5.73549 20.8824 6.38467 20.9414 6.94947C20.9558 7.30285 20.9571 7.43273 20.8867 7.78161C20.8505 7.96182 20.755 8.14816 20.7878 8.28509C20.7493 8.36265 20.4992 8.57933 20.4094 8.68217L20.3765 8.67522C20.3829 8.4437 20.5612 8.12308 20.5941 7.68131C20.4198 7.99134 20.1868 8.40838 19.8442 8.56126C19.9421 8.43983 20.3765 8.00784 20.4221 7.90415C20.8606 6.90717 20.6229 5.35122 20.7516 4.30972L20.7553 4.28036L20.7248 4.25355L20.6192 4.33444L20.5629 4.33715C20.6987 3.9491 20.874 3.42409 20.6035 3.05144C20.1834 2.14102 19.148 1.56794 18.2684 1.11746L18.2895 1.05617C18.3542 1.05738 18.3716 1.04952 18.4296 1.02186Z" fill="#E46803"/>
<path d="M20.7798 4.89259C20.8096 4.78221 20.7979 4.7493 20.8689 4.68126C20.9273 4.81157 20.9031 5.00261 20.9377 5.15748C20.9521 5.73549 20.8824 6.38467 20.9414 6.94947C20.9558 7.30285 20.9571 7.43273 20.8867 7.78161C20.8505 7.96182 20.755 8.14816 20.7878 8.28509C20.7493 8.36265 20.4992 8.57933 20.4094 8.68217L20.3765 8.67522C20.3829 8.4437 20.5612 8.12308 20.5941 7.68131C20.8582 7.20141 20.6806 5.64109 20.7778 5.04478L20.7798 4.89259Z" fill="var(--fill-0, #8C3C02)"/>
<path d="M20.7798 4.89259C20.8096 4.78221 20.7979 4.7493 20.8689 4.68126C20.9273 4.81157 20.9031 5.00261 20.9377 5.15748C20.9521 5.73549 20.8824 6.38467 20.9414 6.94947L20.8354 6.9848C20.7476 6.80713 20.7895 5.36659 20.7778 5.04478L20.7798 4.89259Z" fill="#561900"/>
<path d="M20.9561 3.60094C20.994 4.04552 20.9591 4.70608 20.9377 5.15748C20.9031 5.00261 20.9273 4.81157 20.8689 4.68126C20.7979 4.7493 20.8096 4.78221 20.7798 4.89259C20.755 4.64 20.8066 4.14099 20.8998 3.90223C20.9511 3.77108 20.9474 3.74733 20.9561 3.60094Z" fill="#9E4303"/>
<path d="M6.94354 5.66223C7.32166 5.75777 7.77185 5.91854 8.09968 5.996C8.31891 6.04431 8.5539 6.10064 8.77413 6.1358C9.16197 6.18479 9.76435 6.27697 10.1381 6.28646C10.3282 6.32903 10.5156 6.33219 10.7097 6.34064C11.5812 6.37857 12.4507 6.44929 13.3236 6.40166C13.4614 6.39416 13.6173 6.38369 13.7544 6.38284C12.9586 6.65807 11.662 6.39397 10.8233 6.38167C10.0262 6.36999 9.27628 6.28728 8.49255 6.163C8.41981 6.15146 8.37322 6.14777 8.31757 6.18929C8.45937 6.23453 8.59781 6.22635 8.74396 6.24996C9.10867 6.30877 9.71575 6.35969 10.0533 6.46628C9.92592 6.48334 9.61652 6.44524 9.47506 6.432L9.25416 6.35085C9.17203 6.35792 9.13046 6.3543 9.06007 6.39648C8.95146 6.39025 8.94174 6.37068 8.86799 6.41667C8.78016 6.84275 8.98934 8.76926 8.79022 8.95746L8.75904 8.90407C8.58038 8.96363 8.49389 9.07081 8.32059 8.98734C8.18449 8.92197 7.95219 8.66028 7.87241 8.53754C8.31187 8.75311 8.15633 9.08013 8.77581 8.77232C8.84184 8.34794 8.8033 7.87584 8.80363 7.44601C8.80363 7.07436 8.81704 6.70634 8.83112 6.33503C8.25187 6.23734 7.72961 6.05083 7.17148 5.87127L7.08432 5.87496C7.01058 6.26203 7.01259 8.27719 7.10041 8.62685C7.39171 8.83378 7.2164 8.87579 7.3364 9.13611C7.43998 9.36107 7.74302 9.19717 7.978 9.26031L7.9951 9.29733C7.98504 9.30223 7.97532 9.30793 7.96493 9.31204C7.85397 9.35565 7.52312 9.39241 7.42356 9.34257C7.29383 9.2775 7.204 9.14221 7.16209 9.01007C7.08969 8.78129 6.95326 8.57584 6.92309 8.33441C6.86007 7.83164 7.01996 5.86759 6.95292 5.68483C6.95024 5.67717 6.94655 5.66976 6.94354 5.66223Z" fill="#FCD333"/>
<path d="M20.5941 7.68131C20.5612 8.12308 20.3829 8.4437 20.3765 8.67522C20.2428 8.66922 20.0618 8.64988 19.9766 8.77552C20.0054 8.86753 20.0591 8.88945 20.1526 8.9206C19.9582 9.10743 19.7477 9.17903 19.4949 9.26106C19.1406 9.31625 18.5566 9.4386 18.2261 9.56623L18.1769 9.53639C18.2811 9.44053 18.4447 9.49447 18.6267 9.37823L18.6321 9.33256L18.562 9.29688C18.4055 9.30024 18.3652 9.33396 18.2372 9.42285C18.3673 9.23363 19.46 8.7553 19.7004 8.62669C19.7718 8.58853 19.7507 8.56821 19.8442 8.56126C20.1868 8.40838 20.4198 7.99134 20.5941 7.68131Z" fill="#C06403"/>
<path d="M20.5629 4.33715L20.6192 4.33444C20.6956 4.5093 20.642 4.67898 20.5062 4.81359C20.4027 4.84631 20.4533 4.84442 20.3487 4.82116L20.2998 4.76082C20.2183 4.81408 19.9461 5.00157 19.864 4.9953C19.9079 4.90534 20.3081 4.7023 20.4238 4.63733C20.47 4.56029 20.5254 4.42271 20.5629 4.33715Z" fill="#C06403"/>
<path d="M15.0869 0.123348C15.4543 0.155443 15.8404 0.278411 16.1133 0.295404C16.9832 0.488695 17.6274 0.615413 18.4296 1.02186C18.3716 1.04952 18.3542 1.05738 18.2895 1.05617L18.2684 1.11746C17.4189 0.807269 16.8873 0.709743 16.0312 0.468179C15.5126 0.366054 15.0282 0.31478 14.5043 0.257145C14.6243 0.224071 14.7225 0.242272 14.817 0.174297L14.76 0.155705C14.8106 0.130851 15.0158 0.12749 15.0869 0.123348Z" fill="#ED7302"/>
<path d="M11.0117 0.0554057C11.7324 -0.0385648 14.3698 -0.0111008 15.0869 0.123348C15.0158 0.12749 14.8106 0.130851 14.76 0.155705L14.817 0.174297C14.7225 0.242272 14.6243 0.224071 14.5043 0.257145C14.3916 0.259917 14.1898 0.24364 14.0732 0.230137C13.1296 0.120999 12.2208 0.168849 11.2718 0.19491C11.2111 0.148202 11.0888 0.100026 11.0117 0.0554057Z" fill="#E46803"/>
<path d="M9.69396 0.104234C10.0774 0.0563519 10.6064 0.0671806 11.0117 0.0554057C11.0888 0.100026 11.2111 0.148202 11.2718 0.19491C10.9007 0.226582 10.2538 0.286761 9.89911 0.283727C9.26354 0.373295 8.631 0.480345 8.00147 0.604714L8.14594 0.353789C8.64407 0.267223 9.19047 0.188224 9.69396 0.104234Z" fill="#ED7302"/>
<path d="M4.64531 1.78775C5.26948 1.43277 5.93287 1.09006 6.60363 0.827426C6.65257 0.871231 6.69849 0.905545 6.73671 0.957667C6.0874 1.20132 5.42569 1.46979 4.86454 1.87885C4.76029 1.81971 4.75996 1.81622 4.64531 1.78775Z" fill="#E46803"/>
<path d="M8.09968 5.996C8.10404 5.952 8.10873 5.90807 8.11376 5.86419C8.1322 5.721 8.11008 5.74655 8.19991 5.6787C8.38361 5.65235 8.67424 5.76811 8.87201 5.82463C9.01548 5.89952 9.0175 5.87366 9.09359 5.98909C9.03828 6.1254 8.91123 6.11985 8.77413 6.1358C8.5539 6.10064 8.31891 6.04431 8.09968 5.996Z" fill="#FCF8CA"/>
<path d="M8.87201 5.82463C9.12845 5.86593 10.5052 5.96019 10.6088 6.03681L10.6201 6.119L10.5823 6.11541L10.5169 5.9991C10.2524 5.97793 9.57764 5.96071 9.35305 6.06029L9.30812 6.12282L9.32455 6.1646C9.66781 6.17644 10.0875 6.18887 10.424 6.23427L10.4348 6.28059L10.4603 6.24151L10.4794 6.24624L10.4478 6.28036L10.4706 6.27195L10.1381 6.28646C9.76435 6.27697 9.16197 6.18479 8.77413 6.1358C8.91123 6.11985 9.03828 6.1254 9.09359 5.98909C9.0175 5.87366 9.01548 5.89952 8.87201 5.82463Z" fill="#FDF88F"/>
<path d="M6.60363 0.827426C6.84264 0.727486 7.09807 0.66124 7.34847 0.589808C7.47518 0.651912 7.5134 0.673277 7.64815 0.709254C7.34043 0.778239 7.03639 0.861153 6.73671 0.957667C6.69849 0.905545 6.65257 0.871231 6.60363 0.827426Z" fill="#ED7302"/>
<path d="M11.8192 0.740534C12.8735 0.646596 14.8271 0.858087 15.8827 1.04208C17.0586 1.07395 20.4194 2.62745 18.7269 4.10361C18.4963 4.30473 18.0324 4.58315 17.7407 4.68498C17.3757 4.94944 15.8994 5.25389 15.3899 5.33312C15.109 5.37683 14.7104 5.35651 14.4221 5.40501C12.8952 5.66181 11.367 5.60609 9.82938 5.47295C8.70374 5.37869 6.45547 4.74702 5.73711 3.88775C5.24133 3.35393 5.36938 2.60135 5.89935 2.17048C7.28478 1.04374 10.0905 0.693206 11.8192 0.740534Z" fill="#FDBC0E"/>
<path d="M5.73711 3.88775C5.24133 3.35393 5.36938 2.60135 5.89935 2.17048C7.28478 1.04374 10.0905 0.693206 11.8192 0.740534C11.5071 0.827426 11.0955 0.817446 10.7676 0.846997C10.2474 0.891716 9.72413 0.965496 9.20756 1.03931C9.01616 1.06667 8.7691 1.30501 8.59211 1.37987C7.99443 1.63262 7.27573 1.65304 6.72163 1.97817C6.35323 2.19413 5.94393 2.37874 5.72738 2.75736C5.56145 3.04906 5.65867 3.31332 5.63285 3.62903C5.6818 3.70806 5.80012 3.83357 5.7904 3.87486L5.73711 3.88775Z" fill="#EFA305"/>
<path d="M15.3433 4.89934C15.8243 4.78808 16.3959 4.66221 16.8709 4.57428C17.5252 4.4531 17.6466 4.37698 18.1571 4.05759C19.0199 3.51797 18.8138 3.24796 18.0974 2.6767C17.8789 2.51224 17.7176 2.29919 17.4374 2.14031C17.3737 2.10436 17.309 2.07008 17.2436 2.0375C17.6016 2.00915 18.7685 2.82413 18.8258 3.23113C18.8439 3.35759 18.8466 3.45886 18.9237 3.57648L18.8396 3.58672C18.3679 4.2712 17.9378 4.35105 17.186 4.67621C16.6285 4.91745 16.178 5.01403 15.5625 5.03793C15.5374 5.03891 15.4127 4.93072 15.3403 4.9679C15.0054 5.01614 12.9432 5.31228 12.7524 5.23579C12.7923 5.20895 15.0225 4.96816 15.3433 4.89934Z" fill="#EFA305"/>
<path d="M15.8827 1.04208C17.0586 1.07395 20.4194 2.62745 18.7269 4.10361C18.4963 4.30473 18.0324 4.58315 17.7407 4.68498L17.6864 4.64701C18.0753 4.41462 18.3579 4.3788 18.6733 4.02393C18.8469 3.82842 18.8848 3.86351 18.9237 3.57648C19.4316 2.8817 17.7588 1.84819 17.2443 1.62502C16.7914 1.42873 16.3325 1.2475 15.8827 1.04208Z" fill="#FBBF16"/>
<path d="M9.00543 2.7452C9.59473 2.58762 10.5658 2.62441 11.1722 2.29938C11.4391 2.15635 11.7036 1.66458 11.9808 1.56096C12.731 1.28009 13.1064 2.14644 13.4785 2.29974C13.8657 2.45911 15.0175 2.43308 15.4992 2.53941C15.7372 2.59196 15.8146 2.61548 16.0412 2.69585C15.8562 2.86001 15.6899 2.96592 15.4851 3.10229L15.5588 3.15546C15.5317 3.27011 15.2149 3.47945 15.1016 3.54638C14.8234 3.71119 14.8462 3.72942 14.5374 3.67163C14.8123 3.92366 15.0895 4.17322 15.3691 4.42026C15.1097 4.47264 14.4305 4.63015 14.2103 4.60527C13.6009 4.53641 13.095 3.94874 12.3696 4.06796C11.7622 4.16783 11.1877 5.07818 10.4834 4.84145C10.4489 4.82987 10.4207 4.7904 10.4019 4.76033C10.3027 4.78036 10.348 4.7858 10.2605 4.75358C10.1277 4.55366 10.2739 4.21976 10.2799 3.98847C10.2846 3.81159 10.2652 3.87069 10.119 3.72466C10.2306 3.73986 10.2363 3.73719 10.3503 3.72567C10.3262 3.64707 10.3466 3.68366 10.2615 3.62821L10.2658 3.55998C10.0238 3.40263 9.20253 3.20181 8.90285 3.15503L9.00543 2.7452Z" fill="#FDE74F"/>
<path d="M14.5374 3.67163C14.5328 3.41026 15.2585 3.18788 15.4851 3.10229L15.5588 3.15546C15.5317 3.27011 15.2149 3.47945 15.1016 3.54638C14.8234 3.71119 14.8462 3.72942 14.5374 3.67163Z" fill="#E98801"/>
<path d="M10.2658 3.55998C10.3228 3.58118 10.3922 3.5923 10.4009 3.6366C10.4693 3.99822 10.348 4.36983 10.4019 4.76033C10.3027 4.78036 10.348 4.7858 10.2605 4.75358C10.1277 4.55366 10.2739 4.21976 10.2799 3.98847C10.2846 3.81159 10.2652 3.87069 10.119 3.72466C10.2306 3.73986 10.2363 3.73719 10.3503 3.72567C10.3262 3.64707 10.3466 3.68366 10.2615 3.62821L10.2658 3.55998Z" fill="#FBBF16"/>
<path d="M11.5859 4.92534L11.597 4.95078L11.5675 4.99843C11.4575 4.99693 11.4297 4.99184 11.3214 5.02384L11.313 5.06478C11.423 5.10193 11.6255 5.0682 11.8045 5.09759C11.7572 5.11413 11.3932 5.1107 11.3177 5.11119C11.1109 5.11533 11.0308 5.12046 10.826 5.08405L10.7824 5.00245L10.7687 5.00519L10.7723 5.06951L10.7137 5.03797L10.7492 4.9967C11.0935 4.87837 11.2292 4.90825 11.5859 4.92534Z" fill="#FEDB49"/>
<path d="M1.29855 14.4823C1.39274 14.3587 1.81377 14.1467 1.98272 14.1435C1.98305 14.2764 1.97836 14.4131 1.99612 14.5443L2.10474 14.5682C2.23413 14.738 2.36888 14.9109 2.49325 15.0835C3.04333 15.4142 3.5904 15.8294 4.16462 16.0992C4.47201 16.2437 4.91918 16.3259 5.23998 16.4407C6.62575 16.8086 8.04739 17.0354 9.48143 17.1176C10.2692 17.0199 11.121 17.1887 11.9027 17.2296C12.2905 17.2499 12.6388 17.0494 13.0809 17.0415L13.1463 17.0003L13.1875 17.029C13.1148 17.2265 13.1584 17.4546 13.1839 17.6646C13.1946 17.721 13.2124 17.8474 13.2372 17.8907C13.2462 17.996 13.2623 18.046 13.2358 18.1446C13.389 19.18 13.7517 19.8756 14.3722 20.7173C14.4748 20.8566 14.7912 21.3255 14.9421 21.3933C14.9729 21.516 15.0027 21.6226 15.0191 21.7482L15.0111 21.7971C15.0564 21.9129 15.0691 21.938 15.1405 22.0404C15.1247 22.1719 14.9897 22.2694 14.8663 22.3209C14.9796 22.3118 15.23 22.2971 15.3366 22.3363L15.3356 22.4181C14.3551 23.0923 12.018 23.4117 10.7898 23.4965C9.86089 23.55 8.35813 23.6018 7.43529 23.519C6.68441 23.3888 5.75654 23.5102 5.09752 23.1948C4.25781 23.1997 3.50928 22.76 2.71147 22.5352C2.3605 22.4364 1.74137 22.0708 1.46783 21.8379C0.645555 21.2292 0.173239 20.5231 0.0525627 19.5307C-0.0463251 18.7176 0.00697251 16.4464 0.107872 15.6151C0.115917 15.747 0.151784 15.824 0.241621 15.9313C0.248996 15.8357 0.295926 15.6765 0.321067 15.5781L0.336823 15.5244C0.565773 15.402 0.891266 14.8719 1.13597 14.6369L1.29855 14.4823Z" fill="#FBBF16"/>
<path d="M1.29855 14.4823C1.39274 14.3587 1.81377 14.1467 1.98272 14.1435C1.98305 14.2764 1.97836 14.4131 1.99612 14.5443L2.10474 14.5682C2.23413 14.738 2.36888 14.9109 2.49325 15.0835C3.04333 15.4142 3.5904 15.8294 4.16462 16.0992C4.47201 16.2437 4.91918 16.3259 5.23998 16.4407C6.62575 16.8086 8.04739 17.0354 9.48143 17.1176C10.2692 17.0199 11.121 17.1887 11.9027 17.2296C12.2905 17.2499 12.6388 17.0494 13.0809 17.0415L13.1463 17.0003L13.1875 17.029C13.1148 17.2265 13.1584 17.4546 13.1839 17.6646C13.1946 17.721 13.2124 17.8474 13.2372 17.8907C13.2462 17.996 13.2623 18.046 13.2358 18.1446C13.0558 18.2294 13.0793 18.2882 13.0575 18.4805C12.6911 18.5657 11.8333 18.7424 11.4595 18.7548C11.3519 18.7707 11.2443 18.7855 11.1364 18.7992L10.9614 18.8031L10.8632 18.8093C10.602 18.849 10.3982 18.8675 10.1338 18.8867C9.76603 18.9243 8.80564 19.0062 8.45299 18.9357C8.37221 18.9199 8.29947 18.9092 8.21835 18.8977C7.6686 18.876 6.96331 18.7733 6.40585 18.7067L6.41289 18.7452C6.31166 18.7312 6.18696 18.7564 6.08974 18.7286C5.26546 18.4922 4.33491 18.3537 3.52939 18.0858C2.81002 17.9131 1.69712 17.3946 1.10647 16.9486C0.544654 16.5241 0.414591 16.2286 0.321067 15.5781L0.336823 15.5244C0.565773 15.402 0.891266 14.8719 1.13597 14.6369L1.29855 14.4823Z" fill="#F6AC02"/>
<path d="M1.29855 14.4823C1.39274 14.3587 1.81377 14.1467 1.98272 14.1435C1.98305 14.2764 1.97836 14.4131 1.99612 14.5443C1.94517 14.6469 1.87579 14.7771 1.84025 14.8829C1.46515 16.3578 4.08283 17.2277 5.20378 17.5269C5.55039 17.6193 6.47557 17.7558 6.76118 17.8938C6.99683 17.9839 7.23282 18.0788 7.47485 18.1504C8.1865 18.2594 8.65379 18.312 9.38522 18.2933C9.55216 18.3435 9.77843 18.3226 9.89006 18.3942C9.99699 18.6043 9.83273 18.5584 9.95307 18.681L10.0486 18.6984C9.93598 18.7623 9.92156 18.7454 9.87765 18.8381C9.95609 18.8946 10.0329 18.8835 10.1338 18.8867C9.76603 18.9243 8.80564 19.0062 8.45299 18.9357C8.37221 18.9199 8.29947 18.9092 8.21835 18.8977C7.6686 18.876 6.96331 18.7733 6.40585 18.7067L6.41289 18.7452C6.31166 18.7312 6.18696 18.7564 6.08974 18.7286C5.26546 18.4922 4.33491 18.3537 3.52939 18.0858C2.81002 17.9131 1.69712 17.3946 1.10647 16.9486C0.544654 16.5241 0.414591 16.2286 0.321067 15.5781L0.336823 15.5244C0.565773 15.402 0.891266 14.8719 1.13597 14.6369L1.29855 14.4823Z" fill="#FDE74F"/>
<path d="M6.40585 18.7067C6.1769 18.6773 4.29971 18.2479 4.21557 18.1615L4.23602 18.0976C4.25982 18.0835 4.28965 18.0639 4.3158 18.0609C4.87661 17.9969 4.86019 17.9235 5.32948 18.1791C5.61911 18.3001 5.75889 18.2584 6.02505 18.331C6.7243 18.5219 7.40277 18.5858 8.11443 18.6932C8.20561 18.7069 8.30349 18.7628 8.35813 18.8363C8.28908 18.9026 8.32796 18.8744 8.21835 18.8977C7.6686 18.876 6.96331 18.7733 6.40585 18.7067Z" fill="#FDF88F"/>
<path d="M1.29855 14.4823C1.39274 14.3587 1.81377 14.1467 1.98272 14.1435C1.98305 14.2764 1.97836 14.4131 1.99612 14.5443C1.94517 14.6469 1.87579 14.7771 1.84025 14.8829C1.83355 14.5393 1.68471 14.3318 1.29855 14.4823Z" fill="#FCD333"/>
<path d="M10.1083 18.1414C10.4344 18.1258 11.3372 18.0488 11.5929 18.1426C11.6496 18.352 11.8383 18.6895 11.4535 18.725L11.4595 18.7548C11.3519 18.7707 11.2443 18.7855 11.1364 18.7992L10.9614 18.8031L10.8632 18.8093C10.602 18.849 10.3982 18.8675 10.1338 18.8867C10.0329 18.8835 9.95609 18.8946 9.87765 18.8381C9.92156 18.7454 9.93598 18.7623 10.0486 18.6984L9.95307 18.681C9.83273 18.5584 9.99699 18.6043 9.89006 18.3942C9.77843 18.3226 9.55216 18.3435 9.38522 18.2933C9.66312 18.2232 10.0848 18.3377 10.2105 18.234L10.1083 18.1414Z" fill="#FFD92B"/>
<path d="M10.0486 18.6984C10.2417 18.6765 10.7093 18.6363 10.8615 18.7493C10.8628 18.7693 10.8692 18.7902 10.8632 18.8093C10.602 18.849 10.3982 18.8675 10.1338 18.8867C10.0329 18.8835 9.95609 18.8946 9.87765 18.8381C9.92156 18.7454 9.93598 18.7623 10.0486 18.6984Z" fill="#FDE74F"/>
<path d="M10.9614 18.8031C10.9513 18.6633 10.9125 18.6524 10.9218 18.5485C11.0787 18.4905 11.4039 18.4879 11.5527 18.571L11.5557 18.6247L11.4535 18.725L11.4595 18.7548C11.3519 18.7707 11.2443 18.7855 11.1364 18.7992L10.9614 18.8031Z" fill="#FCD333"/>
<path d="M6.76118 17.8938C6.9613 17.9035 7.32736 17.8187 7.43027 17.8371C8.18282 17.9714 9.42947 17.9171 10.1083 18.1414L10.2105 18.234C10.0848 18.3377 9.66312 18.2232 9.38522 18.2933C8.65379 18.312 8.1865 18.2594 7.47485 18.1504C7.23282 18.0788 6.99683 17.9839 6.76118 17.8938Z" fill="#FCD333"/>
<path d="M13.1463 17.0003L13.1875 17.029C13.1148 17.2265 13.1584 17.4546 13.1839 17.6646L13.1564 17.8055L12.9757 17.6859L12.9747 17.6215L12.913 17.6136L12.9526 17.6692L12.916 17.634L12.917 17.6104C13.0106 17.6343 13.0558 17.6643 13.1302 17.6389C13.1839 17.4522 13.1299 17.2701 12.9814 17.141C12.5091 16.9767 12.6006 17.4668 12.5325 17.5844C11.8269 17.8271 11.2235 17.2708 10.5223 17.1825C10.1478 17.1353 9.83944 17.1881 9.48143 17.1176C10.2692 17.0199 11.121 17.1887 11.9027 17.2296C12.2905 17.2499 12.6388 17.0494 13.0809 17.0415L13.1463 17.0003Z" fill="#C06403"/>
<path d="M2.49325 15.0835C3.04333 15.4142 3.5904 15.8294 4.16462 16.0992C4.47201 16.2437 4.91918 16.3259 5.23998 16.4407C4.96879 16.4492 4.59101 16.3264 4.44519 16.3623C4.47804 16.4032 4.47905 16.4042 4.50754 16.451C3.93131 16.3517 2.55761 15.7428 2.49325 15.0835Z" fill="#E98801"/>
<path d="M13.0575 18.4805C13.0793 18.2882 13.0558 18.2294 13.2358 18.1446C13.389 19.18 13.7517 19.8756 14.3722 20.7173C14.4748 20.8566 14.7912 21.3255 14.9421 21.3933C14.9729 21.516 15.0027 21.6226 15.0191 21.7482L15.0111 21.7971C15.0564 21.9129 15.0691 21.938 15.1405 22.0404C15.1247 22.1719 14.9897 22.2694 14.8663 22.3209C14.5995 22.3037 13.3397 22.7124 13.0149 22.8154C11.9771 22.9355 10.9185 23.0839 9.88067 23.1716L9.83877 23.1383C10.3195 22.9782 13.0263 22.7254 12.9609 22.2446C12.9365 22.2195 12.906 22.1885 12.8694 22.1513C12.7786 22.15 12.3991 22.2264 12.3291 22.2531C11.9261 22.4058 9.64468 22.6187 9.33025 22.4749C9.40198 22.3901 9.6658 22.5313 9.89039 22.3607C9.97989 22.1963 9.85989 22.1474 9.92659 21.9889L9.98056 21.9827C10.0194 22.0704 9.9809 22.2988 9.96983 22.4071L10.0007 22.4367C10.2279 22.4645 10.5246 22.366 10.7931 22.3669L10.8139 22.3373C10.765 22.2159 10.713 22.2097 10.5906 22.123C10.5913 21.8353 10.6724 21.3969 10.6969 21.0806C10.7351 20.6019 10.7425 20.1272 10.7918 19.6493C10.829 19.2876 11.0315 19.0811 11.1364 18.7992C11.2443 18.7855 11.3519 18.7707 11.4595 18.7548C11.8333 18.7424 12.6911 18.5657 13.0575 18.4805Z" fill="#CC7402"/>
<path d="M0.107872 15.6151C0.115917 15.747 0.151784 15.824 0.241621 15.9313C0.248996 15.8357 0.295926 15.6765 0.321067 15.5781C0.414591 16.2286 0.544654 16.5241 1.10647 16.9486C1.69712 17.3946 2.81002 17.9131 3.52939 18.0858C3.69532 18.496 3.59911 19.1989 3.64839 19.643C3.72381 20.3229 3.65409 21.3543 3.78818 21.9944C2.83785 21.6523 1.9787 21.298 1.24827 20.5739C1.07396 20.3886 1.0572 20.2613 1.09441 20.024C0.964342 19.8992 0.938531 19.8222 0.918754 19.6476C0.839644 18.9522 0.870816 18.227 0.866459 17.5293C0.843329 17.7041 0.731368 18.5398 0.661644 18.6309C0.601976 18.288 0.752488 17.8931 0.796736 17.5505C0.814837 17.4111 0.80612 17.1614 0.803774 17.0138C0.501077 16.7394 0.525212 16.7295 0.298943 16.4265C0.170557 16.6104 0.25235 18.6433 0.203408 19.0759L0.167205 19.0736C0.157484 19.3031 0.17458 19.3346 0.0525627 19.5307C-0.0463251 18.7176 0.00697251 16.4464 0.107872 15.6151Z" fill="#EFA305"/>
<path d="M0.867129 16.9912C0.956966 17.1083 1.05351 17.2291 1.13563 17.3508C1.15407 18.1357 1.10412 18.8606 1.13831 19.6824L1.09441 20.024C0.964342 19.8992 0.938531 19.8222 0.918754 19.6476C0.839644 18.9522 0.870816 18.227 0.866459 17.5293L0.867129 16.9912Z" fill="#FCD333"/>
<path d="M0.107872 15.6151C0.115917 15.747 0.151784 15.824 0.241621 15.9313C0.144745 16.6518 0.161172 17.4879 0.142735 18.2212C0.136031 18.4886 0.175585 18.815 0.167205 19.0736C0.157484 19.3031 0.17458 19.3346 0.0525627 19.5307C-0.0463251 18.7176 0.00697251 16.4464 0.107872 15.6151Z" fill="#7A3001"/>
<path d="M1.13831 19.6824C1.2486 19.9806 1.32134 20.2532 1.24827 20.5739C1.07396 20.3886 1.0572 20.2613 1.09441 20.024L1.13831 19.6824Z" fill="#EFA305"/>
<path d="M1.58113 21.6546L1.59789 21.6595C2.14328 21.7113 2.42252 22.1246 2.92802 22.3099C4.06841 22.7287 5.24635 22.835 6.42127 23.1129C7.07259 23.2672 7.72525 23.2313 8.38998 23.2153C8.86833 23.2036 9.40534 23.2114 9.88067 23.1716C10.9185 23.0839 11.9771 22.9355 13.0149 22.8154C13.3397 22.7124 14.5995 22.3037 14.8663 22.3209C14.9796 22.3118 15.23 22.2971 15.3366 22.3363L15.3356 22.4181C14.3551 23.0923 12.018 23.4117 10.7898 23.4965C9.86089 23.55 8.35813 23.6018 7.43529 23.519C6.68441 23.3888 5.75654 23.5102 5.09752 23.1948C4.25781 23.1997 3.50928 22.76 2.71147 22.5352C2.3605 22.4364 1.74137 22.0708 1.46783 21.8379C1.54594 21.7766 1.53923 21.7534 1.58113 21.6546Z" fill="#C06403"/>
<path d="M14.8663 22.3209C14.9796 22.3118 15.23 22.2971 15.3366 22.3363L15.3356 22.4181C14.3551 23.0923 12.018 23.4117 10.7898 23.4965C10.707 23.428 10.6031 23.4635 10.4887 23.4198C10.6044 23.3259 12.1387 23.0724 12.3974 23.0375C12.6472 23.004 12.7803 22.9234 13.0149 22.8154C13.3397 22.7124 14.5995 22.3037 14.8663 22.3209Z" fill="var(--fill-0, #8C3C02)"/>
<path d="M1.58113 21.6546L1.59789 21.6595C1.73198 21.816 1.89355 21.9481 2.0749 22.0496C2.64041 22.3624 3.8817 22.7345 4.51626 22.9081C4.6661 22.9492 4.97114 23.0552 5.10456 23.0816L5.09752 23.1948C4.25781 23.1997 3.50928 22.76 2.71147 22.5352C2.3605 22.4364 1.74137 22.0708 1.46783 21.8379C1.54594 21.7766 1.53923 21.7534 1.58113 21.6546Z" fill="var(--fill-0, #8C3C02)"/>
<path d="M5.10456 23.0816L7.61362 23.3807C7.83386 23.4091 8.08695 23.4188 8.29746 23.4528C7.97297 23.5004 7.75944 23.5079 7.43529 23.519C6.68441 23.3888 5.75654 23.5102 5.09752 23.1948L5.10456 23.0816Z" fill="#974501"/>
<path d="M6.40585 18.7067C6.96331 18.7733 7.6686 18.876 8.21835 18.8977C8.29947 18.9092 8.37221 18.9199 8.45299 18.9357L8.36148 18.9856C7.94314 20.1606 7.78123 19.795 6.72698 20.2733C6.62642 20.3189 6.66899 20.5246 6.63346 20.6481C6.57815 20.3141 6.61368 18.9277 6.41289 18.7452L6.40585 18.7067Z" fill="#FEDB49"/>
<path d="M0.167205 19.0736L0.203408 19.0759C0.187653 20.2941 0.680077 20.8952 1.58113 21.6546C1.53923 21.7534 1.54594 21.7766 1.46783 21.8379C0.645555 21.2292 0.173239 20.5231 0.0525627 19.5307C0.17458 19.3346 0.157484 19.3031 0.167205 19.0736Z" fill="#9E4303"/>
<path d="M3.62861 7.13888L3.66582 7.15033C3.67119 7.19612 3.67353 7.26071 3.69096 7.30008L3.72716 7.37112C3.94908 8.08641 3.53777 9.15039 4.45257 9.6479C4.66643 9.76435 4.91349 9.83395 5.13003 9.94857C7.20299 11.0003 9.00342 11.1548 11.2825 11.2146C11.721 11.3057 12.3529 11.2679 12.8081 11.292C13.0605 11.3054 13.3116 11.2603 13.5657 11.3173C13.4825 11.391 12.5124 11.3424 12.4699 11.4755L12.4635 11.4454L12.4558 11.494L12.5952 11.5163C12.4062 11.5599 12.0616 11.5677 11.9697 11.6049L11.0824 11.6455C10.9031 12.2403 9.53976 11.9618 9.05203 11.9728L9.02353 12.05C8.80631 12.0998 8.37992 12.0394 8.19287 12.0887C7.27439 12.1644 5.03382 11.4639 4.15825 11.1063C3.97355 11.0398 3.81365 10.9921 3.62459 10.9378C3.13384 10.8044 2.72354 10.4764 2.40877 10.0963C2.25022 9.96279 2.08127 9.82286 2.00417 9.63218C2.00786 9.52285 2.01926 9.40624 2.02797 9.29649C2.02797 9.21944 1.9911 9.17192 1.95288 9.10294C2.06853 8.2436 2.98534 7.6209 3.62861 7.13888Z" fill="#FDE74F"/>
<path d="M3.72716 7.37112C3.94908 8.08641 3.53777 9.15039 4.45257 9.6479C4.66643 9.76435 4.91349 9.83395 5.13003 9.94857C7.20299 11.0003 9.00342 11.1548 11.2825 11.2146C11.721 11.3057 12.3529 11.2679 12.8081 11.292C13.0605 11.3054 13.3116 11.2603 13.5657 11.3173C13.4825 11.391 12.5124 11.3424 12.4699 11.4755L12.4635 11.4454L12.4558 11.494L12.5952 11.5163C12.4062 11.5599 12.0616 11.5677 11.9697 11.6049L11.0824 11.6455C9.39126 11.5687 7.97431 11.5108 6.37903 10.9027C6.33143 10.8562 5.46156 10.505 5.32278 10.4379C4.40229 9.99273 3.94707 9.68362 3.64504 8.71867C3.67085 8.60578 3.68661 8.43545 3.6504 8.32364L3.61889 8.32742L3.49989 8.57819L3.49486 8.51491C3.54481 8.31079 3.69197 8.09154 3.72247 7.90784C3.74929 7.74527 3.69599 7.56245 3.72716 7.37112Z" fill="#EFA305"/>
<path d="M3.69096 7.30008L3.72716 7.37112C3.69599 7.56245 3.74929 7.74527 3.72247 7.90784C3.69197 8.09154 3.54481 8.31079 3.49486 8.51491L3.49989 8.57819L3.61889 8.32742L3.6504 8.32364C3.68661 8.43545 3.67085 8.60578 3.64504 8.71867C3.94707 9.68362 4.40229 9.99273 5.32278 10.4379C5.46156 10.505 6.33143 10.8562 6.37903 10.9027C6.31568 11.0629 6.36865 11.0526 6.25266 11.1296C6.03712 11.0434 5.73308 10.9694 5.56514 10.8972C4.85348 10.5918 3.81064 10.0368 3.49956 9.31198C3.34469 8.9511 3.33798 8.41419 3.48816 8.06466C3.49151 7.94583 3.57498 7.92356 3.48649 7.79358C3.37553 7.78382 3.30078 7.83034 3.19686 7.87509C3.2401 7.79817 3.27564 7.71053 3.31151 7.62925C3.33665 7.5938 3.63666 7.34581 3.69096 7.30008Z" fill="#FBBF16"/>
<path d="M4.15825 11.1063C4.1673 11.0178 4.16462 10.9886 4.14417 10.9018C4.52766 10.9565 4.84276 11.04 5.19976 11.1877C6.39111 11.6805 7.77486 11.7802 9.05203 11.9728L9.02353 12.05C8.80631 12.0998 8.37992 12.0394 8.19287 12.0887C7.27439 12.1644 5.03382 11.4639 4.15825 11.1063Z" fill="#FEF79C"/>
<path d="M3.62861 7.13888L3.66582 7.15033C3.67119 7.19612 3.67353 7.26071 3.69096 7.30008C3.63666 7.34581 3.33665 7.5938 3.31151 7.62925C3.27564 7.71053 3.2401 7.79817 3.19686 7.87509C2.62935 8.39563 2.11245 9.0409 2.36419 9.83653C2.37324 9.92117 2.37693 10.0191 2.40877 10.0963C2.25022 9.96279 2.08127 9.82286 2.00417 9.63218C2.00786 9.52285 2.01926 9.40624 2.02797 9.29649C2.02797 9.21944 1.9911 9.17192 1.95288 9.10294C2.06853 8.2436 2.98534 7.6209 3.62861 7.13888Z" fill="#FBBF16"/>
<path d="M3.62861 7.13888L3.66582 7.15033C3.67119 7.19612 3.67353 7.26071 3.69096 7.30008C3.63666 7.34581 3.33665 7.5938 3.31151 7.62925C2.64443 8.04917 2.20195 8.5227 2.02797 9.29649C2.02797 9.21944 1.9911 9.17192 1.95288 9.10294C2.06853 8.2436 2.98534 7.6209 3.62861 7.13888Z" fill="#9E4303"/>
<path d="M2.36419 9.83653C2.54755 10.2325 2.9612 10.3326 3.26859 10.6251C3.37922 10.7304 3.50794 10.837 3.62459 10.9378C3.13384 10.8044 2.72354 10.4764 2.40877 10.0963C2.37693 10.0191 2.37324 9.92117 2.36419 9.83653Z" fill="#FEDB49"/>
<path d="M13.2372 17.8907C13.265 17.9824 13.3059 18.1535 13.3843 18.2095C13.3907 18.13 13.3964 18.1258 13.4255 18.05L13.4785 18.0453L13.5761 18.1299C13.5965 18.2937 13.6733 18.323 13.6997 18.456L13.7762 18.5195C13.8154 18.6849 14.4647 19.6987 14.5978 19.9304C15.1033 20.7232 15.8806 21.2036 16.6433 21.7439C16.769 21.833 17.2044 22.0479 17.2634 22.1269C17.3894 22.1637 17.3522 22.1712 17.4642 22.1432C17.6231 21.9331 17.5745 21.0233 17.61 20.7011L17.613 20.6748C17.7391 20.9648 17.616 21.8079 17.609 22.1869C17.7022 22.3128 17.736 22.3757 17.8688 22.4638L17.9161 22.4579C17.8765 22.3438 17.7531 22.2838 17.66 22.1566C17.8876 22.2446 19.0766 22.8451 19.1765 22.8082L20.6987 23.4055C20.8703 23.4714 21.2695 23.6377 21.4254 23.6772C22.5708 23.9681 24.9619 24.1446 26.0802 23.9212C26.1177 23.9339 26.2079 23.9603 26.236 23.9789C26.3762 23.9981 26.406 23.9779 26.4942 24.0519C26.5139 24.1873 26.4801 24.1426 26.5689 24.2092L26.8193 24.2238C25.6511 24.5415 23.9573 24.6423 22.7391 24.5797C22.0335 24.5777 21.6111 24.4681 20.9236 24.3223L20.875 24.3253C20.4607 24.3475 19.7862 24.1319 19.2686 24.112C19.5935 24.2848 20.5006 24.3246 20.7171 24.5151C20.6242 24.5324 20.6068 24.5298 20.5153 24.5291L20.5994 24.5376L20.6249 24.5725C20.7587 24.613 20.707 24.5768 20.7908 24.6782C19.8975 24.5497 17.6124 23.7196 16.887 23.2114C16.715 23.1129 16.5554 23.0131 16.3878 22.9077C16.0613 22.742 15.6661 22.3024 15.3356 22.4181L15.3366 22.3363C15.23 22.2971 14.9796 22.3118 14.8663 22.3209C14.9897 22.2694 15.1247 22.1719 15.1405 22.0404C15.0691 21.938 15.0564 21.9129 15.0111 21.7971L15.0191 21.7482C15.0027 21.6226 14.9729 21.516 14.9421 21.3933C14.7912 21.3255 14.4748 20.8566 14.3722 20.7173C13.7517 19.8756 13.389 19.18 13.2358 18.1446C13.2623 18.046 13.2462 17.996 13.2372 17.8907Z" fill="#FCD333"/>
<path d="M13.2372 17.8907C13.265 17.9824 13.3059 18.1535 13.3843 18.2095C13.4715 18.3498 13.4617 18.4756 13.513 18.6305C13.6096 18.9227 13.7051 19.2229 13.8389 19.5015C14.2401 20.217 14.8204 20.789 15.4335 21.331C15.6872 21.5554 15.9698 21.9286 16.2568 22.1239C16.4116 22.2296 16.7016 22.3333 16.8843 22.4325L17.0117 22.4925C17.253 22.6439 17.8996 22.9081 18.0022 22.9873C18.8661 23.3481 19.694 23.5995 20.5988 23.8357C20.8746 23.9081 21.3285 23.9554 21.5773 24.0624C21.9711 24.3054 22.1813 24.3334 22.6473 24.397C22.8092 24.4192 22.9077 24.4019 23.0555 24.4711C22.953 24.522 22.8491 24.5474 22.7391 24.5797C22.0335 24.5777 21.6111 24.4681 20.9236 24.3223L20.875 24.3253C20.4607 24.3475 19.7862 24.1319 19.2686 24.112C19.5935 24.2848 20.5006 24.3246 20.7171 24.5151C20.6242 24.5324 20.6068 24.5298 20.5153 24.5291L20.5994 24.5376L20.6249 24.5725C20.7587 24.613 20.707 24.5768 20.7908 24.6782C19.8975 24.5497 17.6124 23.7196 16.887 23.2114C16.715 23.1129 16.5554 23.0131 16.3878 22.9077C16.0613 22.742 15.6661 22.3024 15.3356 22.4181L15.3366 22.3363C15.23 22.2971 14.9796 22.3118 14.8663 22.3209C14.9897 22.2694 15.1247 22.1719 15.1405 22.0404C15.0691 21.938 15.0564 21.9129 15.0111 21.7971L15.0191 21.7482C15.0027 21.6226 14.9729 21.516 14.9421 21.3933C14.7912 21.3255 14.4748 20.8566 14.3722 20.7173C13.7517 19.8756 13.389 19.18 13.2358 18.1446C13.2623 18.046 13.2462 17.996 13.2372 17.8907Z" fill="#EFA305"/>
<path d="M16.3268 22.4619C16.538 22.5858 17.0271 22.927 17.1957 23.0066C17.5882 23.1912 18.3079 23.5627 18.7052 23.6932C19.4108 23.9247 20.1972 24.1077 20.9236 24.3223L20.875 24.3253C20.4607 24.3475 19.7862 24.1319 19.2686 24.112C19.5935 24.2848 20.5006 24.3246 20.7171 24.5151C20.6242 24.5324 20.6068 24.5298 20.5153 24.5291L20.5994 24.5376L20.6249 24.5725C20.7587 24.613 20.707 24.5768 20.7908 24.6782C19.8975 24.5497 17.6124 23.7196 16.887 23.2114C16.715 23.1129 16.5554 23.0131 16.3878 22.9077L16.5866 22.8441C16.5286 22.7857 16.5239 22.789 16.4954 22.7143L16.542 22.7378L16.5742 22.7257L16.5678 22.6876L16.3315 22.5251L16.3268 22.4619Z" fill="var(--fill-0, #8C3C02)"/>
<path d="M16.3878 22.9077L16.5866 22.8441C16.8752 22.9772 17.1082 23.0858 17.3502 23.2956C17.2262 23.2998 17.1421 23.2072 16.887 23.2114C16.715 23.1129 16.5554 23.0131 16.3878 22.9077Z" fill="#9E4303"/>
<path d="M14.8663 22.3209C14.9897 22.2694 15.1247 22.1719 15.1405 22.0404C15.0691 21.938 15.0564 21.9129 15.0111 21.7971L15.0191 21.7482C15.0942 21.8245 15.1479 21.8901 15.2541 21.9185C15.4455 21.9703 15.8773 22.2639 16.0496 22.2671L16.3268 22.4619L16.3315 22.5251L16.5678 22.6876L16.5742 22.7257L16.542 22.7378L16.4954 22.7143C16.5239 22.789 16.5286 22.7857 16.5866 22.8441L16.3878 22.9077C16.0613 22.742 15.6661 22.3024 15.3356 22.4181L15.3366 22.3363C15.23 22.2971 14.9796 22.3118 14.8663 22.3209Z" fill="#9E4303"/>
<path d="M16.8843 22.4325L17.0117 22.4925C17.253 22.6439 17.8996 22.9081 18.0022 22.9873C18.1323 23.1556 18.3394 23.2293 18.5315 23.366L18.4916 23.3781C18.1913 23.3357 17.1052 22.9169 16.894 22.6412C16.8387 22.5688 16.8682 22.5284 16.8843 22.4325Z" fill="#FBBF16"/>
<path d="M14.9421 21.3933C15.402 21.6595 15.6597 21.9191 16.0496 22.2671C15.8773 22.2639 15.4455 21.9703 15.2541 21.9185C15.1479 21.8901 15.0942 21.8245 15.0191 21.7482C15.0027 21.6226 14.9729 21.516 14.9421 21.3933Z" fill="#C06403"/>
<path d="M21.5773 24.0624C22.2504 24.1573 23.1099 24.109 23.7887 24.1263C24.2553 24.1381 24.3253 23.9365 24.797 24.1426C24.9378 24.2043 26.0896 24.05 26.236 23.9789C26.3762 23.9981 26.406 23.9779 26.4942 24.0519C26.5139 24.1873 26.4801 24.1426 26.5689 24.2092L26.8193 24.2238C25.6511 24.5415 23.9573 24.6423 22.7391 24.5797C22.8491 24.5474 22.953 24.522 23.0555 24.4711C22.9077 24.4019 22.8092 24.4192 22.6473 24.397C22.1813 24.3334 21.9711 24.3054 21.5773 24.0624Z" fill="#F5AF02"/>
<path d="M2.04038 12.479C2.12988 12.7833 2.08798 13.1493 2.15502 13.4697C2.33939 14.3524 3.34301 14.7634 4.0245 15.2464C4.2387 15.3957 5.21082 15.7607 5.48502 15.8475C6.43166 16.1787 8.09801 16.4715 9.09258 16.4418C9.62323 16.5333 10.5223 16.4134 11.0167 16.4633C11.2266 16.4202 11.6452 16.3611 11.7103 16.1515L11.6704 16.1021C11.43 16.008 10.7971 16.0895 10.4321 16.0558C10.543 16.0132 11.6982 15.9932 11.9318 15.9787C12.0659 15.9781 13.154 15.8285 13.32 15.7993L13.3857 15.8453C13.3079 16.1692 13.3303 16.8949 13.2844 17.0103C13.3548 17.3094 13.4664 17.8839 13.5761 18.1299L13.4785 18.0453L13.4255 18.05C13.3964 18.1258 13.3907 18.13 13.3843 18.2095C13.3059 18.1535 13.265 17.9824 13.2372 17.8907C13.2124 17.8474 13.1946 17.721 13.1839 17.6646C13.1584 17.4546 13.1148 17.2265 13.1875 17.029L13.1463 17.0003L13.0809 17.0415C12.6388 17.0494 12.2905 17.2499 11.9027 17.2296C11.121 17.1887 10.2692 17.0199 9.48143 17.1176C8.04739 17.0354 6.62575 16.8086 5.23998 16.4407C4.91918 16.3259 4.47201 16.2437 4.16462 16.0992C3.5904 15.8294 3.04333 15.4142 2.49325 15.0835C2.36888 14.9109 2.23413 14.738 2.10474 14.5682L1.99612 14.5443C1.97836 14.4131 1.98305 14.2764 1.98272 14.1435C1.95925 13.9935 1.95992 13.9723 1.80975 13.9358C2.14697 13.6901 2.03132 12.8745 2.04038 12.479Z" fill="#E98801"/>
<path d="M2.10474 14.5682C2.07189 14.441 2.04339 14.4241 2.07859 14.3218C2.35816 14.4266 3.01585 14.9421 3.30513 15.1214C4.23233 15.6965 4.93025 16.0571 5.98014 16.3752C7.38602 16.8013 8.68798 16.8266 10.1525 16.8707C10.4616 16.8862 10.8853 16.8633 11.1746 16.8883C11.5336 16.8769 11.8916 16.8257 12.2603 16.8221C12.3633 16.8255 12.4313 16.8222 12.5312 16.8518C12.5748 16.9285 12.5641 16.933 12.5557 17.0233C12.7702 17.0048 12.8745 16.9755 13.0809 17.0415C12.6388 17.0494 12.2905 17.2499 11.9027 17.2296C11.121 17.1887 10.2692 17.0199 9.48143 17.1176C8.04739 17.0354 6.62575 16.8086 5.23998 16.4407C4.91918 16.3259 4.47201 16.2437 4.16462 16.0992C3.5904 15.8294 3.04333 15.4142 2.49325 15.0835C2.36888 14.9109 2.23413 14.738 2.10474 14.5682Z" fill="#9E4303"/>
<path d="M11.1746 16.8883C11.5336 16.8769 11.8916 16.8257 12.2603 16.8221C12.3633 16.8255 12.4313 16.8222 12.5312 16.8518C12.5748 16.9285 12.5641 16.933 12.5557 17.0233C12.2841 17.0373 10.7184 17.0883 10.5296 17.044C10.5628 17.0276 12.0438 16.9929 12.2127 16.9863L12.192 16.9492C11.9124 16.8105 10.9963 17.0211 10.4844 16.9489C10.6922 16.898 10.9275 16.9552 11.1746 16.8883Z" fill="#561900"/>
<path d="M13.1875 17.029C13.2465 16.8338 13.2321 16.445 13.2358 16.229C13.2529 16.383 13.2502 16.9459 13.2844 17.0103C13.3548 17.3094 13.4664 17.8839 13.5761 18.1299L13.4785 18.0453L13.4255 18.05C13.3964 18.1258 13.3907 18.13 13.3843 18.2095C13.3059 18.1535 13.265 17.9824 13.2372 17.8907C13.2124 17.8474 13.1946 17.721 13.1839 17.6646C13.1584 17.4546 13.1148 17.2265 13.1875 17.029Z" fill="#EFA305"/>
<path d="M13.1054 16.6795C13.1557 16.8073 13.1456 16.8597 13.1463 17.0003L13.0809 17.0415C12.8745 16.9755 12.7702 17.0048 12.5557 17.0233C12.5641 16.933 12.5748 16.9285 12.5312 16.8518C12.4313 16.8222 12.3633 16.8255 12.2603 16.8221C12.5275 16.7551 12.8399 16.8197 13.1054 16.6795Z" fill="#7A3001"/>
<path d="M11.2825 11.2146C12.202 11.1713 13.2848 11.261 14.2156 11.1875C14.5545 11.1607 15.1576 11.022 15.5008 10.9446C15.1754 11.3075 15.0285 11.5898 14.7493 11.9451L14.7352 11.8952C14.8241 11.7582 14.9149 11.623 14.992 11.4795L14.9709 11.4306L15.0138 11.4293L15.0135 11.4069L14.9699 11.413L15.0004 11.4327L14.9491 11.4364C14.7798 11.6371 14.7017 11.7591 14.5612 11.9828C14.3062 12.0827 13.2472 12.3638 13.0183 12.2305C12.845 12.2022 12.2235 12.2053 12.0257 12.2021C12.0009 12.0274 11.9865 11.7854 11.9697 11.6049C12.0616 11.5677 12.4062 11.5599 12.5952 11.5163L12.4558 11.494L12.4635 11.4454L12.4699 11.4755C12.5124 11.3424 13.4825 11.391 13.5657 11.3173C13.3116 11.2603 13.0605 11.3054 12.8081 11.292C12.3529 11.2679 11.721 11.3057 11.2825 11.2146Z" fill="#EFA305"/>
<path d="M11.2825 11.2146C12.202 11.1713 13.2848 11.261 14.2156 11.1875C14.5545 11.1607 15.1576 11.022 15.5008 10.9446C15.1754 11.3075 15.0285 11.5898 14.7493 11.9451L14.7352 11.8952C14.8241 11.7582 14.9149 11.623 14.992 11.4795L14.9709 11.4306L15.0138 11.4293L15.0135 11.4069L14.9699 11.413L15.0004 11.4327L14.9491 11.4364C14.7798 11.6371 14.7017 11.7591 14.5612 11.9828C14.3062 12.0827 13.2472 12.3638 13.0183 12.2305C13.3461 12.2875 14.2616 12.0064 14.4453 11.7058L14.46 11.6817C14.5254 11.7064 14.521 11.7076 14.5901 11.7042C14.6853 11.6498 14.7409 11.6306 14.7952 11.5374C14.6745 11.2297 12.8838 11.4133 12.5952 11.5163L12.4558 11.494L12.4635 11.4454L12.4699 11.4755C12.5124 11.3424 13.4825 11.391 13.5657 11.3173C13.3116 11.2603 13.0605 11.3054 12.8081 11.292C12.3529 11.2679 11.721 11.3057 11.2825 11.2146Z" fill="#C06403"/>
<path d="M17.613 20.6748C17.5681 20.4914 17.488 20.0064 17.5993 19.8525C17.6878 19.8388 17.9027 19.9787 18.0059 20.0311L18.0123 20.0669C17.8219 20.0894 17.8155 20.0249 17.6231 19.9915C17.5661 20.0715 17.6311 20.5934 17.6824 20.6974C17.6801 20.5726 17.668 20.5363 17.7367 20.4311C17.9757 20.3134 18.1638 20.4567 18.2979 20.65C18.5989 20.7969 18.92 20.4973 19.1356 20.6711C19.2831 21.3685 19.0524 21.8539 19.0809 22.4899C18.4517 22.2779 18.263 22.242 17.8111 21.7557C17.6576 21.8307 17.732 22.0349 17.8309 22.123C18.1742 22.4283 18.8265 22.5496 19.1765 22.8082C19.0766 22.8451 17.8876 22.2446 17.66 22.1566C17.7531 22.2838 17.8765 22.3438 17.9161 22.4579L17.8688 22.4638C17.736 22.3757 17.7022 22.3128 17.609 22.1869C17.616 21.8079 17.7391 20.9648 17.613 20.6748Z" fill="#FEDB49"/>
<path d="M11.9318 15.9787C11.9633 15.9211 12.0917 15.6819 12.1212 15.6559C12.6763 15.1633 13.2469 14.7366 13.503 14.0216C13.5513 13.8873 13.5811 13.7059 13.6917 13.6016C13.747 13.6281 13.7792 13.6451 13.8318 13.6767C13.8831 13.5079 13.8409 13.3292 13.9166 13.2462C14.1094 13.4973 13.7202 14.1435 13.6478 14.4758C13.5234 15.0464 13.5482 15.5531 13.4805 16.1134C13.4792 15.9978 13.4852 15.9364 13.453 15.8263L13.3857 15.8453L13.32 15.7993C13.154 15.8285 12.0659 15.9781 11.9318 15.9787Z" fill="#C06403"/>
<path d="M11.9697 11.6049C11.9865 11.7854 12.0009 12.0274 12.0257 12.2021C10.835 12.2324 9.35405 12.2015 8.19287 12.0887C8.37992 12.0394 8.80631 12.0998 9.02353 12.05L9.05203 11.9728C9.53976 11.9618 10.9031 12.2403 11.0824 11.6455L11.9697 11.6049Z" fill="#FEE755"/>
<path d="M5.48502 15.8475C5.69956 15.8204 5.8665 15.8387 6.07634 15.8831C6.62978 16.0004 7.18623 16.0683 7.7457 16.148C8.05477 16.1921 8.3645 16.2812 8.67625 16.3134C9.0842 16.3625 9.45629 16.2979 9.86458 16.3082L9.85084 16.3311C9.66446 16.3362 9.41808 16.3337 9.24243 16.3737L9.23907 16.3989L9.92793 16.4146C9.73954 16.4342 9.17438 16.4245 9.09258 16.4418C8.09801 16.4715 6.43166 16.1787 5.48502 15.8475Z" fill="#FBBF16"/>
<path d="M13.3857 15.8453L13.453 15.8263C13.4852 15.9364 13.4792 15.9978 13.4805 16.1134C13.4721 16.6715 13.4879 17.1033 13.6062 17.6578C13.6491 17.859 13.8181 18.2056 13.8167 18.3777C13.7675 18.2613 13.7145 18.1797 13.6672 18.066C13.6082 17.9234 13.5425 17.5751 13.4691 17.4619C13.3541 17.6418 13.686 18.3024 13.7872 18.4935L13.7762 18.5195L13.6997 18.456C13.6733 18.323 13.5965 18.2937 13.5761 18.1299C13.4664 17.8839 13.3548 17.3094 13.2844 17.0103C13.3303 16.8949 13.3079 16.1692 13.3857 15.8453Z" fill="#C06403"/>
<path d="M14.2653 13.3771C14.2307 13.1583 14.2629 12.969 14.3176 12.7555C14.3631 12.5771 14.3226 12.61 14.2894 12.4303C14.3574 12.2206 14.5549 12.0232 14.7352 11.8952L14.7493 11.9451C14.4201 12.5217 14.3853 12.7366 14.2653 13.3771Z" fill="#C06403"/>
<path d="M7.69743 13.9177C7.63609 14.1796 7.64379 14.2199 7.68704 14.4874L7.66827 14.492C7.43731 13.983 7.76213 13.269 7.47988 12.9362L7.43295 12.9311C7.3364 13.0653 7.34646 13.6437 7.22813 13.9698L7.204 13.9698L7.18187 13.7452L7.07259 13.7468C7.00119 13.8852 7.00622 13.9064 6.9918 14.0653C6.97471 13.6725 6.75045 12.2772 6.80677 12.0877C6.93515 12.1185 7.20064 12.1849 7.32668 12.1927C7.63642 12.2119 7.99041 12.1224 8.27601 12.266C8.37523 12.5014 8.02527 13.7966 7.84224 13.9919L7.79464 13.9933L7.77419 13.954L7.69743 13.9177Z" fill="#FEDB49"/>
<path d="M7.37395 12.2658C7.54926 12.2749 7.70614 12.2714 7.87073 12.327C7.87408 12.7866 7.80202 13.2766 7.83621 13.7442C7.83788 13.771 7.78257 13.9039 7.77419 13.954L7.69743 13.9177C7.69676 13.7384 7.70011 13.4677 7.66391 13.2975C7.58245 12.9156 7.41887 12.659 7.37395 12.2658Z" fill="#FDE74F"/>
<path d="M30.3196 22.0672C30.3474 22.2929 30.1859 22.3454 30.2117 22.5382L30.2975 22.409C30.3595 22.3963 30.3344 22.393 30.3729 22.4031C30.2465 22.6706 29.8205 23.349 29.5003 23.4074C29.3136 23.653 28.5658 24.0656 28.25 24.2124C25.9866 25.264 23.1886 25.0908 20.7908 24.6782C20.707 24.5768 20.7587 24.613 20.6249 24.5725L20.5994 24.5376L20.5153 24.5291C20.6068 24.5298 20.6242 24.5324 20.7171 24.5151C20.5006 24.3246 19.5935 24.2848 19.2686 24.112C19.7862 24.1319 20.4607 24.3475 20.875 24.3253L20.9236 24.3223C21.6111 24.4681 22.0335 24.5777 22.7391 24.5797C23.9573 24.6423 25.6511 24.5415 26.8193 24.2238C27.4307 24.0869 28.7173 23.5027 29.2248 23.1716C29.438 23.1038 29.7799 22.7841 29.9542 22.6276C30.1255 22.4716 30.2201 22.2694 30.3196 22.0672Z" fill="#9E4303"/>
<path d="M30.3196 22.0672C30.3474 22.2929 30.1859 22.3454 30.2117 22.5382L30.2975 22.409C30.3595 22.3963 30.3344 22.393 30.3729 22.4031C30.2465 22.6706 29.8205 23.349 29.5003 23.4074C29.5285 23.2512 30.0323 22.9736 30.0075 22.8011L29.861 22.9687L29.8453 22.9469C29.9133 22.8076 29.9234 22.7786 29.9542 22.6276C30.1255 22.4716 30.2201 22.2694 30.3196 22.0672Z" fill="#7A3001"/>
<path d="M1.95288 9.10294C1.9911 9.17192 2.02797 9.21944 2.02797 9.29649C2.01926 9.40624 2.00786 9.52285 2.00417 9.63218C1.96629 10.211 1.98205 11.9055 2.04038 12.479C2.03132 12.8745 2.14697 13.6901 1.80975 13.9358C1.95992 13.9723 1.95925 13.9935 1.98272 14.1435C1.81377 14.1467 1.39274 14.3587 1.29855 14.4823L1.13597 14.6369C0.891266 14.8719 0.565773 15.402 0.336823 15.5244L0.321067 15.5781C0.295926 15.6765 0.248996 15.8357 0.241621 15.9313C0.151784 15.824 0.115917 15.747 0.107872 15.6151C0.172568 15.476 0.21581 15.2631 0.287881 15.1378C0.636502 14.5308 1.25095 14.0482 1.83623 13.6806C1.92774 12.6256 1.64147 9.91145 1.95288 9.10294Z" fill="var(--fill-0, #8C3C02)"/>
<path d="M1.80975 13.9358C1.95992 13.9723 1.95925 13.9935 1.98272 14.1435C1.81377 14.1467 1.39274 14.3587 1.29855 14.4823L1.13597 14.6369C0.891266 14.8719 0.565773 15.402 0.336823 15.5244C0.397831 14.9407 1.35118 14.2572 1.80975 13.9358Z" fill="#EFA305"/>
<path d="M4.64531 1.78775C4.75996 1.81622 4.76029 1.81971 4.86454 1.87885C4.61246 2.08603 4.48039 2.24719 4.26351 2.43765C4.13545 2.58054 4.02852 2.84699 3.93634 3.02959C3.95109 2.88242 4.02349 2.70945 4.02886 2.6187C3.94639 2.65608 3.9883 2.65194 3.89946 2.6312C4.13277 2.2653 4.27993 2.02699 4.64531 1.78775Z" fill="#E46803"/>
<path d="M7.34847 0.589808C7.60726 0.563845 7.90727 0.45063 8.14594 0.353789L8.00147 0.604714C7.88414 0.640398 7.76615 0.675234 7.64815 0.709254C7.5134 0.673277 7.47518 0.651912 7.34847 0.589808Z" fill="#C06403"/>
<path d="M31.4821 18.0549C31.5596 18.004 31.577 18.0234 31.6903 18.0229C31.6353 18.1977 31.5576 18.4704 31.4915 18.6329C31.4161 18.5413 31.4191 18.4931 31.3967 18.3727L31.4821 18.0549Z" fill="var(--fill-0, #8C3C02)"/>
</g>
</svg>
