<svg preserveAspectRatio="none" width="100%" height="100%" overflow="visible" style="display: block;" viewBox="0 0 28 32" fill="none" xmlns="http://www.w3.org/2000/svg">
<g id="Vector">
<path d="M12.4418 0.0331336C12.5656 0.0252498 12.6896 0.0206965 12.8137 0.019475C14.5454 0.0058171 16.6833 -0.195535 18.0863 1.07946C18.9279 1.84427 19.0785 3.22831 18.7361 4.26176C18.5792 4.7352 18.2388 5.11799 17.8756 5.47398C18.0529 5.39307 18.2595 5.19809 18.4429 5.27352C18.4616 5.35884 18.4572 5.39166 18.4544 5.47657C18.8102 5.69177 19.5192 5.96567 19.9163 6.14496C28.2918 9.92665 30.6589 20.6835 24.6432 27.4873C22.3105 30.109 19.0102 31.7294 15.4581 31.9974C12.1462 32.0007 10.5064 32.1033 7.40761 30.6042C-0.25951 26.8955 -2.2441 17.2839 2.72184 10.6094C4.53792 8.13705 7.1209 6.29723 10.091 5.36039C9.5288 4.90401 9.01671 3.98642 8.99177 3.26329C8.97831 2.87413 9.19852 2.07968 9.37805 1.73208C9.9104 0.701261 11.3148 0.152835 12.4418 0.0331336Z" fill="var(--fill-0, #FBF7EC)"/>
<path d="M9.96082 3.90524C8.77677 0.219345 14.4784 0.377282 16.6959 1.054C17.966 1.4416 18.3608 2.69521 18.0682 3.89044C18.0005 4.11137 17.8372 4.53122 17.6614 4.68682C17.4335 5.00025 16.6254 5.57995 16.2454 5.6954C16.5065 5.82257 16.9615 5.86155 17.2739 5.95726C18.1358 6.22117 19.3299 6.62332 20.0983 7.0643C20.3839 7.17241 21.0635 7.59329 21.3231 7.77392C22.8653 8.85064 24.3311 10.1987 25.2967 11.804C26.1719 13.2092 26.7402 14.6088 27.0159 16.2271C27.0733 16.5647 27.1775 17.1695 27.1699 17.5104C27.6839 21.1677 25.9279 25.6108 23.1073 28.0325C22.054 28.9371 20.4814 30.0376 19.1292 30.4517C18.4536 30.7201 17.4413 31.0377 16.7188 31.1509C15.2595 31.4637 12.7706 31.4714 11.3058 31.145C10.1868 31.0495 8.41593 30.3411 7.43107 29.7981C7.40833 29.7877 7.38556 29.7777 7.36278 29.7677C5.02963 28.5355 2.56805 26.0723 1.7496 23.598C1.38674 22.8296 1.03076 21.4123 0.925485 20.574C0.875946 20.363 0.831159 19.8163 0.814582 19.5961C0.66969 17.7214 0.951301 15.8389 1.63938 14.0822C3.09249 10.4427 5.75782 7.97494 9.4044 6.4059C9.98215 6.16254 11.0321 5.84593 11.6526 5.75151L11.6505 5.64195L11.5247 5.63088C11.4301 5.57469 11.2848 5.44097 11.1966 5.36494C10.6371 5.08179 10.1775 4.48099 9.96082 3.90524Z" fill="#CCBDA9"/>
<path d="M9.96082 3.90524C8.77677 0.219345 14.4784 0.377282 16.6959 1.054C17.966 1.4416 18.3608 2.69521 18.0682 3.89044C18.0005 4.11137 17.8372 4.53122 17.6614 4.68682C17.4335 5.00025 16.6254 5.57995 16.2454 5.6954L16.1709 5.71771C16.1631 5.79452 16.169 5.79622 16.1425 5.86684L16.1143 5.88046C15.4522 5.81476 11.9066 5.68936 11.4767 6.00553C10.675 6.16939 10.2287 6.28702 9.45888 6.58645C9.50618 6.48696 9.49078 6.51842 9.61225 6.4545L9.54082 6.4642L9.51291 6.42345L9.4044 6.4059C9.98215 6.16254 11.0321 5.84593 11.6526 5.75151L11.6505 5.64195L11.5247 5.63088C11.4301 5.57469 11.2848 5.44097 11.1966 5.36494C10.6371 5.08179 10.1775 4.48099 9.96082 3.90524Z" fill="#C2B29C"/>
<path d="M17.1755 1.54324C17.9775 1.77417 18.2299 3.31866 17.8839 3.84869L17.8913 3.87871L18.0682 3.89044C18.0005 4.11137 17.8372 4.53122 17.6614 4.68682C17.4335 5.00025 16.6254 5.57995 16.2454 5.6954L16.1709 5.71771C16.1631 5.79452 16.169 5.79622 16.1425 5.86684L16.1143 5.88046C15.4522 5.81476 11.9066 5.68936 11.4767 6.00553C10.675 6.16939 10.2287 6.28702 9.45888 6.58645C9.50618 6.48696 9.49078 6.51842 9.61225 6.4545L9.54082 6.4642L9.51291 6.42345L9.4044 6.4059C9.98215 6.16254 11.0321 5.84593 11.6526 5.75151L11.6505 5.64195L11.5247 5.63088C11.4301 5.57469 11.2848 5.44097 11.1966 5.36494C10.6371 5.08179 10.1775 4.48099 9.96082 3.90524C10.0692 3.76752 10.0473 3.69682 10.0521 3.52764C10.1157 3.71537 10.1823 3.92938 10.2636 4.10793C10.8869 4.60428 11.5698 3.98849 12.3154 3.83222C13.354 3.73598 14.6581 3.76008 15.6942 3.85883C16.0761 3.89525 16.9709 4.14642 17.2585 4.1224C17.4803 3.98997 17.6227 3.40616 17.5071 3.18811C17.5143 2.43463 17.4333 2.22658 17.1755 1.54324Z" fill="#76614A"/>
<path d="M13.0896 4.33479C13.7707 4.1948 14.9845 4.37961 15.7034 4.43198C15.8917 4.44572 17.1187 4.74541 17.2189 4.84102C17.2006 4.91897 16.4619 5.34444 16.3627 5.3585C15.4614 5.48612 14.4966 5.31353 13.5709 5.3139C13.2116 5.36158 12.9063 5.33729 12.5467 5.34522C12.3635 5.34925 12.1411 5.38859 11.9567 5.38371C11.7563 5.38423 11.6945 5.38263 11.4972 5.34703L11.5232 5.275C11.6929 5.16041 11.9511 5.2378 12.2006 5.14309C12.2686 5.04937 12.3024 4.62116 12.3361 4.44549C12.5023 4.4258 12.827 4.40367 12.9589 4.33334L13.0896 4.33479Z" fill="#907E67"/>
<path d="M12.9589 4.33334L13.0896 4.33479C13.3052 4.40367 13.258 4.45245 13.2602 4.67313C13.5579 4.69345 13.844 4.67146 14.1415 4.65577C14.0854 4.80837 14.0297 4.91682 14.0409 5.07694C14.1842 5.27555 14.9238 5.16056 15.1519 5.2495C14.9931 5.22429 13.7163 5.27526 13.5709 5.3139C13.2116 5.36158 12.9063 5.33729 12.5467 5.34522C12.3635 5.34925 12.1411 5.38859 11.9567 5.38371C11.7563 5.38423 11.6945 5.38263 11.4972 5.34703L11.5232 5.275C11.6929 5.16041 11.9511 5.2378 12.2006 5.14309C12.2686 5.04937 12.3024 4.62116 12.3361 4.44549C12.5023 4.4258 12.827 4.40367 12.9589 4.33334Z" fill="#A8947A"/>
<path d="M12.9589 4.33334L13.0896 4.33479C13.3052 4.40367 13.258 4.45245 13.2602 4.67313L13.2473 4.70163C13.2672 4.82829 13.2856 4.95795 13.3109 5.08342C13.3115 5.10826 13.2885 5.14486 13.2754 5.17214C13.1793 5.23336 13.134 5.27485 13.0236 5.29066L12.9547 5.23802C13.0287 4.9075 12.9403 4.62505 12.9589 4.33334Z" fill="#C5B196"/>
<path d="M13.3109 5.08342C13.2351 5.1214 13.2132 5.12398 13.1323 5.14512C12.9239 5.04285 12.9581 4.74774 13.133 4.66095L13.2473 4.70163C13.2672 4.82829 13.2856 4.95795 13.3109 5.08342Z" fill="#DACDB8"/>
<path d="M14.8191 4.99196C14.9508 5.00321 14.9982 4.99855 15.084 5.0705L15.04 5.11529C14.8807 5.1694 14.8117 5.15611 14.6475 5.14531C14.4827 5.12121 14.2744 5.10733 14.105 5.09153C14.356 5.07228 14.5723 5.03364 14.8191 4.99196Z" fill="#A8947A"/>
<path d="M11.1966 5.36494L11.2603 5.29366C11.3909 5.27737 11.3571 5.28662 11.4972 5.34703C11.6945 5.38263 11.7563 5.38423 11.9567 5.38371L11.9703 5.47576C11.859 5.59143 11.6914 5.60105 11.5247 5.63088C11.4301 5.57469 11.2848 5.44097 11.1966 5.36494Z" fill="#7D5D3E"/>
<path d="M17.8913 3.87871L18.0682 3.89044C18.0005 4.11137 17.8372 4.53122 17.6614 4.68682C17.6413 4.34755 17.7835 4.19069 17.8913 3.87871Z" fill="#7D5D3E"/>
<path d="M11.6505 5.64195C11.8399 5.622 12.057 5.58465 12.2376 5.62981L12.2636 5.67004C12.1254 5.75591 11.8155 5.76184 11.6526 5.75151L11.6505 5.64195Z" fill="#A8947A"/>
<path d="M11.1331 1.33378C11.5458 1.12366 12.2723 0.951544 12.7466 0.943882C13.052 0.968607 13.693 0.876481 13.8596 1.14087C13.7654 1.52499 13.3018 2.70624 13.0054 2.93091C12.8709 2.84748 12.3992 2.86128 12.2418 2.89759C12.2233 3.0673 12.2512 3.03765 12.1619 3.15943C12.0054 3.19544 11.8486 3.23023 11.6916 3.26373C11.3719 3.11997 10.9885 2.99401 10.8568 2.63898C10.6789 2.15962 11.0323 1.71887 11.1331 1.33378Z" fill="#DACDB8"/>
<path d="M11.7577 1.35199C11.9392 1.35136 12.6114 1.67601 12.6084 1.90786C12.2626 2.29376 12.8929 2.60149 12.4567 2.79211C11.6162 2.82335 11.2346 2.77767 11.4233 1.71343C11.4633 1.48776 11.5637 1.45267 11.7577 1.35199Z" fill="var(--fill-0, #FBF7EC)"/>
<path d="M9.96082 3.90524C8.77677 0.219345 14.4784 0.377282 16.6959 1.054C17.966 1.4416 18.3608 2.69521 18.0682 3.89044L17.8913 3.87871L17.8839 3.84869C18.2299 3.31866 17.9775 1.77417 17.1755 1.54324C17.1476 1.48113 17.076 1.43912 17.0191 1.4044C16.1388 0.867597 13.669 0.748377 12.7466 0.943882C12.2723 0.951544 11.5458 1.12366 11.1331 1.33378C10.8955 1.45052 10.6947 1.57751 10.4962 1.75222C9.92591 2.26548 9.92322 2.83589 10.0521 3.52764C10.0473 3.69682 10.0692 3.76752 9.96082 3.90524Z" fill="#7D5D3E"/>
<path d="M11.6611 3.66532C11.7592 3.6319 11.9758 3.51968 12.0681 3.50617C13.3525 3.31847 14.8119 3.34379 16.0872 3.5799C16.4345 3.64423 17.0612 3.89444 17.3315 3.8468C17.4419 3.70223 17.4764 3.37307 17.5071 3.18811C17.6227 3.40616 17.4803 3.98997 17.2585 4.1224C16.9709 4.14642 16.0761 3.89525 15.6942 3.85883C14.6581 3.76008 13.354 3.73598 12.3154 3.83222C12.0686 3.83696 11.8916 3.75012 11.6611 3.66532Z" fill="#9D8A72"/>
<path d="M10.0521 3.52764C9.92322 2.83589 9.92591 2.26548 10.4962 1.75222C10.3812 2.10203 10.3407 2.35383 10.3884 2.72286C10.4115 2.90178 10.4593 3.10446 10.3276 3.25566C10.2428 3.13511 10.379 2.50281 10.2475 2.33788C9.9728 2.50226 10.0095 3.25474 10.1222 3.48459C10.192 3.46668 10.2078 3.46135 10.277 3.48248C10.3003 3.40779 10.2865 3.39979 10.3312 3.3663C10.4816 3.66455 10.4464 3.96858 10.6467 4.18288C10.6911 4.16186 10.7168 4.14691 10.7665 4.1408L10.8022 4.09886L10.7887 4.07033C10.7536 3.99423 10.7288 3.96391 10.7468 3.88352C10.7873 3.91976 10.8763 4.01618 10.9104 4.0047C11.1736 3.91613 11.3778 3.76793 11.6611 3.66532C11.8916 3.75012 12.0686 3.83696 12.3154 3.83222C11.5698 3.98849 10.8869 4.60428 10.2636 4.10793C10.1823 3.92938 10.1157 3.71537 10.0521 3.52764Z" fill="#A8947A"/>
<path d="M0.925485 20.574C0.875946 20.363 0.831159 19.8163 0.814582 19.5961C0.66969 17.7214 0.951301 15.8389 1.63938 14.0822C3.09249 10.4427 5.75782 7.97494 9.4044 6.4059L9.51291 6.42345L9.54082 6.4642L9.61225 6.4545C9.49078 6.51842 9.50618 6.48696 9.45888 6.58645C9.22487 6.71733 8.8592 6.83707 8.6821 6.96236C7.76587 7.3543 6.18144 8.32716 5.48461 9.03274C4.72361 9.63336 3.34589 11.3232 2.84054 12.1849C2.04942 13.5338 1.43864 15.4391 1.25839 16.9781C1.03069 19.23 1.38644 21.4442 2.35016 23.4977C2.78404 24.4219 3.03542 25.0137 3.7059 25.8169C5.90059 28.4967 9.10191 30.2148 12.6014 30.5905C13.3092 30.6601 14.0004 30.6605 14.7112 30.6398C20.6136 30.4673 26.0905 25.7407 26.663 19.9599C26.9206 17.4367 26.4309 14.8943 25.2519 12.6332C25.0308 12.2084 24.7066 11.7259 24.4485 11.3076C24.4862 10.843 21.9039 8.52918 21.4339 8.22781C20.9837 7.93915 20.303 7.58 19.8884 7.26661L19.915 7.24478C20.2606 7.39916 20.7288 7.71211 21.0515 7.79209C21.1802 7.75634 21.1875 7.75937 21.3231 7.77392C22.8653 8.85064 24.3311 10.1987 25.2967 11.804C26.1719 13.2092 26.7402 14.6088 27.0159 16.2271C27.0733 16.5647 27.1775 17.1695 27.1699 17.5104C27.6839 21.1677 25.9279 25.6108 23.1073 28.0325C22.054 28.9371 20.4814 30.0376 19.1292 30.4517C18.4536 30.7201 17.4413 31.0377 16.7188 31.1509C15.2595 31.4637 12.7706 31.4714 11.3058 31.145C10.1868 31.0495 8.41593 30.3411 7.43107 29.7981C7.40833 29.7877 7.38556 29.7777 7.36278 29.7677C5.02963 28.5355 2.56805 26.0723 1.7496 23.598C1.38674 22.8296 1.03076 21.4123 0.925485 20.574Z" fill="#826E56"/>
<path d="M25.2967 11.804C26.1719 13.2092 26.7402 14.6088 27.0159 16.2271C27.0733 16.5647 27.1775 17.1695 27.1699 17.5104C27.1539 17.7332 27.1642 17.9542 27.144 18.2014L27.1311 18.1981C27.1326 18.0312 27.1402 17.7743 27.1087 17.6125C27.0957 17.5441 27.0188 17.4771 27.0048 17.3686C26.8601 16.2171 26.6732 15.0882 26.2506 13.9983C25.9725 13.2809 25.5992 12.6414 25.2616 11.9523C25.2616 11.9523 25.2935 11.8173 25.2967 11.804Z" fill="#7D5D3E"/>
<path d="M7.43107 29.7981C7.71819 29.7004 8.1039 30.0335 8.38703 30.1519C8.93136 30.3799 9.48861 30.5646 10.0585 30.7223C10.3963 30.8256 11.3469 30.9825 11.5763 31.0854L11.5516 31.1195C11.4611 31.1324 11.3969 31.1391 11.3058 31.145C10.1868 31.0495 8.41593 30.3411 7.43107 29.7981Z" fill="#7D5D3E"/>
<path d="M0.925485 20.574L0.948905 20.3645L0.973656 20.3593C1.02358 20.6961 1.0284 20.9293 1.12539 21.2632C1.29625 21.8513 1.82537 23.0243 1.7496 23.598C1.38674 22.8296 1.03076 21.4123 0.925485 20.574Z" fill="#7D5D3E"/>
<path d="M16.7188 31.1509C16.5943 31.1313 16.5599 31.1813 16.4657 31.1195C16.5917 31.0436 18.8434 30.448 19.1114 30.3829L19.1292 30.4517C18.4536 30.7201 17.4413 31.0377 16.7188 31.1509Z" fill="#7D5D3E"/>
<path d="M8.6821 6.96236L8.68598 7.01137C8.37912 7.23763 8.10196 7.24437 7.62599 7.61661L7.63238 7.64222C7.83966 7.56698 8.07523 7.49754 8.26932 7.40234C8.42098 7.32798 8.51892 7.38717 8.63758 7.48566C9.49618 7.12134 9.79612 7.00404 10.7423 6.86187L10.7606 6.8823C10.5323 6.98131 10.3592 6.95781 10.0979 7.06852L10.1233 7.05471L10.1149 7.09406C10.2552 7.10168 10.3001 7.08873 10.4061 7.178C10.4631 7.28686 10.4854 7.34083 10.5261 7.45657C10.6262 7.45446 10.6907 7.3704 10.7846 7.293L10.7901 7.32199C10.65 7.51305 10.3131 7.6051 10.0847 7.69304C7.89916 8.53491 6.44868 9.55633 5.01667 11.3898C4.80197 11.6605 4.60339 11.943 4.422 12.2359C4.14027 12.6972 3.75841 13.5875 3.31981 13.824L3.2808 13.8232C3.29118 13.7119 3.30103 13.6126 3.31749 13.502L3.29951 13.483C3.11333 13.7397 2.90163 14.0286 2.80666 14.3285C2.76552 14.4585 2.73397 14.5487 2.65762 14.6644C2.62208 14.5532 2.84426 14.0947 2.91064 13.9818C3.30411 13.3115 3.75624 12.6945 4.08404 11.9859C4.13552 11.8746 4.41371 11.6189 4.4382 11.5394C4.62427 10.9358 4.80535 10.4797 5.19627 9.96233C5.3033 9.82068 5.36823 9.59808 5.46207 9.44503C5.59076 9.22418 5.88865 9.02197 5.99419 8.76739C6.10848 8.69747 6.18809 8.64692 6.29455 8.56649L6.31192 8.47014C6.16832 8.48198 5.59913 9.05698 5.49127 9.07631L5.48461 9.03274C6.18144 8.32716 7.76587 7.3543 8.6821 6.96236Z" fill="var(--fill-0, #FBF7EC)"/>
<path d="M16.1143 5.88046L16.1425 5.86684C16.169 5.79622 16.1631 5.79452 16.1709 5.71771L16.2454 5.6954C16.5065 5.82257 16.9615 5.86155 17.2739 5.95726C18.1358 6.22117 19.3299 6.62332 20.0983 7.0643C20.3839 7.17241 21.0635 7.59329 21.3231 7.77392C21.1875 7.75937 21.1802 7.75634 21.0515 7.79209C20.7288 7.71211 20.2606 7.39916 19.915 7.24478L19.8884 7.26661C20.303 7.58 20.9837 7.93915 21.4339 8.22781C21.9039 8.52918 24.4862 10.843 24.4485 11.3076C24.3822 11.2642 23.1736 9.82956 22.9378 9.60123C21.9351 8.63055 21.129 8.09527 19.9167 7.4039C18.2294 6.44155 16.4869 6.26155 14.6113 5.90978C14.1811 5.8295 13.6301 5.89308 13.1901 5.83867C12.6633 5.77353 11.9511 6.02022 11.4767 6.00553C11.9066 5.68936 15.4522 5.81476 16.1143 5.88046Z" fill="#A8947A"/>
<path d="M16.1143 5.88046L16.1425 5.86684C16.169 5.79622 16.1631 5.79452 16.1709 5.71771L16.2454 5.6954C16.5065 5.82257 16.9615 5.86155 17.2739 5.95726C18.1358 6.22117 19.3299 6.62332 20.0983 7.0643C20.1382 7.18744 20.3892 7.21786 20.432 7.35163C20.3653 7.35167 19.1107 6.84525 18.9627 6.76012C18.0572 6.23923 17.0239 6.21284 16.1143 5.88046Z" fill="#7D5D3E"/>
<path d="M5.12928 12.3151L5.0637 12.3125C5.01834 12.2173 4.90055 12.1653 4.80722 12.0677C4.66738 12.1354 4.56123 12.4595 4.36801 12.5973L4.35798 12.5635C6.20075 9.86028 8.14648 8.14831 11.5142 7.50724C14.5966 6.92046 17.6419 7.87704 20.2137 9.53583C21.3801 10.2668 22.2229 11.2311 22.952 12.3673C23.215 12.777 23.3885 13.293 23.6104 13.7248C24.3065 15.0797 24.4838 16.2031 24.5836 17.6914C24.7359 19.9633 24.183 22.1696 22.8518 24.0606C22.4397 24.6436 21.7123 25.6341 21.1248 26.0919C19.8791 27.0621 17.8657 28.0074 16.2928 28.2927C14.7301 28.597 13.2937 28.7965 11.7537 28.2394C11.3067 28.0777 10.724 27.9866 10.2932 27.7535C10.0963 27.6465 9.17161 27.32 9.10488 27.1464C9.35999 27.2316 9.72145 27.437 9.98279 27.541C10.1653 27.6139 10.4715 27.7975 10.6331 27.8467C11.3717 28.0707 13.444 28.7399 14.1723 28.4619L14.184 28.4186C13.5629 28.2509 12.6817 28.5022 12.2238 28.1595C12.0709 28.0451 11.7994 28.0007 11.7458 27.9108C11.7905 27.8582 11.8037 27.8438 11.856 27.799C11.1019 27.5725 10.2262 27.7172 9.37904 27.1642L9.35277 27.0961C9.2719 27.0143 8.55934 26.5931 8.33468 26.4058C8.08086 26.1919 7.6585 25.9346 7.3513 25.6789C6.14627 24.6754 5.09008 23.4111 4.56127 21.9401C4.3722 21.6226 4.1018 20.8708 4.07538 20.5125C4.00378 20.3508 3.93885 19.6542 3.93307 19.4595C3.77076 18.6567 3.84661 17.2916 3.96976 16.4822C4.05336 15.9325 4.39957 15.3259 4.13176 14.7456L4.08652 14.7668C3.92352 15.1167 3.66229 16.1383 3.6091 16.5262C3.58051 16.7346 3.5731 17.1188 3.54755 17.359C3.41984 16.3186 3.79829 15.8007 3.96177 14.888C3.85942 14.4761 4.87284 12.7679 5.12928 12.3151Z" fill="var(--fill-0, #FBF7EC)"/>
<path d="M5.12928 12.3151L5.0637 12.3125C5.01834 12.2173 4.90055 12.1653 4.80722 12.0677C4.66738 12.1354 4.56123 12.4595 4.36801 12.5973L4.35798 12.5635C6.20075 9.86028 8.14648 8.14831 11.5142 7.50724C14.5966 6.92046 17.6419 7.87704 20.2137 9.53583C21.3801 10.2668 22.2229 11.2311 22.952 12.3673C23.215 12.777 23.3885 13.293 23.6104 13.7248C24.3065 15.0797 24.4838 16.2031 24.5836 17.6914C24.7359 19.9633 24.183 22.1696 22.8518 24.0606C22.4397 24.6436 21.7123 25.6341 21.1248 26.0919C19.8791 27.0621 17.8657 28.0074 16.2928 28.2927C14.7301 28.597 13.2937 28.7965 11.7537 28.2394C11.3067 28.0777 10.724 27.9866 10.2932 27.7535C10.0963 27.6465 9.17161 27.32 9.10488 27.1464C9.35999 27.2316 9.72145 27.437 9.98279 27.541C10.1653 27.6139 10.4715 27.7975 10.6331 27.8467C11.3717 28.0707 13.444 28.7399 14.1723 28.4619L14.184 28.4186C13.5629 28.2509 12.6817 28.5022 12.2238 28.1595C12.0709 28.0451 11.7994 28.0007 11.7458 27.9108C11.7905 27.8582 11.8037 27.8438 11.856 27.799C11.1019 27.5725 10.2262 27.7172 9.37904 27.1642L9.35277 27.0961C10.1562 27.4792 10.2781 27.4944 11.1326 27.6065C11.3909 27.682 12.5159 27.8353 12.7997 27.8675C15.3702 28.1584 18.2183 27.3615 20.2331 25.7769C21.4283 24.8368 21.7808 24.4574 22.5831 23.1682C23.6041 21.5274 23.863 20.4718 24.0846 18.6163C24.0482 17.882 23.7192 16.1986 23.4825 15.4654C23.5527 14.9728 23.0035 13.8499 22.9622 13.2721C22.3403 12.2912 21.5967 11.1667 20.722 10.3988C18.6801 8.60613 16.1664 7.84491 13.4436 7.98064C11.6133 8.07191 10.6502 8.30158 8.99022 9.13956C7.95175 9.66378 7.27583 10.0671 6.46544 10.9114C5.98974 10.9569 5.21057 11.869 5.12928 12.3151Z" fill="#F3ECDA"/>
<path d="M22.9622 13.2721C23.1551 13.5337 23.323 13.7779 23.4418 14.0823C23.8522 15.1338 24.3061 17.3679 24.1124 18.4872C24.1052 18.5308 24.0959 18.5738 24.0846 18.6163C24.0482 17.882 23.7192 16.1986 23.4825 15.4654C23.5527 14.9728 23.0035 13.8499 22.9622 13.2721Z" fill="#C5B196"/>
<path d="M6.46544 10.9114C7.27583 10.0671 7.95175 9.66378 8.99022 9.13956C10.6502 8.30158 11.6133 8.07191 13.4436 7.98064C16.1664 7.84491 18.6801 8.60613 20.722 10.3988C21.5967 11.1667 22.3403 12.2912 22.9622 13.2721C23.0035 13.8499 23.5527 14.9728 23.4825 15.4654L23.308 15.0068C23.2063 14.8713 23.0275 14.2909 22.9293 14.1103L22.8686 14.0946C22.8165 14.2293 23.0159 14.3726 22.9683 14.5288C22.7878 14.2192 22.6421 13.8712 22.4599 13.5547C21.8179 12.4179 20.9254 11.4335 19.8466 10.672C19.3858 10.3738 18.8862 10.0348 18.3876 9.80765C18.081 9.6073 17.7083 9.49367 17.3656 9.35598C16.1258 8.85785 15.0259 8.79419 13.7093 8.78864C10.5593 8.77539 7.4181 10.5068 5.64684 13.0758C5.60513 13.1363 5.56426 13.1973 5.52419 13.2589L5.35717 13.2407C5.09917 13.4521 5.05636 13.7275 4.91972 13.9932C4.17134 15.448 3.8522 16.9781 3.93995 18.6019C3.95139 18.8136 3.95748 19.25 3.93307 19.4595C3.77076 18.6567 3.84661 17.2916 3.96976 16.4822C4.05336 15.9325 4.39957 15.3259 4.13176 14.7456L4.08652 14.7668C3.92352 15.1167 3.66229 16.1383 3.6091 16.5262C3.58051 16.7346 3.5731 17.1188 3.54755 17.359C3.41984 16.3186 3.79829 15.8007 3.96177 14.888C3.85942 14.4761 4.87284 12.7679 5.12928 12.3151C5.21057 11.869 5.98974 10.9569 6.46544 10.9114Z" fill="#A18E77"/>
<path d="M19.8466 10.672C20.7762 10.5731 23.157 13.9644 23.3075 14.9554C23.3077 14.9724 23.3079 14.9894 23.308 15.0068C23.2063 14.8713 23.0275 14.2909 22.9293 14.1103L22.8686 14.0946C22.8165 14.2293 23.0159 14.3726 22.9683 14.5288C22.7878 14.2192 22.6421 13.8712 22.4599 13.5547C21.8179 12.4179 20.9254 11.4335 19.8466 10.672Z" fill="#7D5D3E"/>
<path d="M5.12928 12.3151C5.21057 11.869 5.98974 10.9569 6.46544 10.9114C5.92853 11.5358 5.30854 12.1704 4.89375 12.8737C4.51325 13.5188 4.21795 14.1873 3.96177 14.888C3.85942 14.4761 4.87284 12.7679 5.12928 12.3151Z" fill="#DACDB8"/>
<path d="M3.93307 19.4595C3.95748 19.25 3.95139 18.8136 3.93995 18.6019C3.8522 16.9781 4.17134 15.448 4.91972 13.9932C5.05636 13.7275 5.09917 13.4521 5.35717 13.2407L5.52419 13.2589C5.06681 14.0502 4.64476 14.9913 4.42272 15.8729C3.94668 17.5115 4.21958 19.9907 4.82147 21.5608C5.71611 23.8178 7.63428 25.8743 9.90801 26.8489C13.2626 28.2872 17.5767 27.7616 20.3622 25.4116C20.7268 25.104 21.0679 24.8342 21.3842 24.4726C23.8951 21.603 24.3562 17.9879 22.9683 14.5288C23.0159 14.3726 22.8165 14.2293 22.8686 14.0946L22.9293 14.1103C23.0275 14.2909 23.2063 14.8713 23.308 15.0068L23.4825 15.4654C23.7192 16.1986 24.0482 17.882 24.0846 18.6163C23.863 20.4718 23.6041 21.5274 22.5831 23.1682C21.7808 24.4574 21.4283 24.8368 20.2331 25.7769C18.2183 27.3615 15.3702 28.1584 12.7997 27.8675C12.5159 27.8353 11.3909 27.682 11.1326 27.6065C10.2781 27.4944 10.1562 27.4792 9.35277 27.0961C9.2719 27.0143 8.55934 26.5931 8.33468 26.4058C8.08086 26.1919 7.6585 25.9346 7.3513 25.6789C6.14627 24.6754 5.09008 23.4111 4.56127 21.9401C4.3722 21.6226 4.1018 20.8708 4.07538 20.5125C4.00378 20.3508 3.93885 19.6542 3.93307 19.4595Z" fill="#917C63"/>
<path d="M8.33468 26.4058C8.94569 26.5583 9.31665 26.7948 9.88531 27.0569C10.2918 27.2442 10.7201 27.4333 11.1326 27.6065C10.2781 27.4944 10.1562 27.4792 9.35277 27.0961C9.2719 27.0143 8.55934 26.5931 8.33468 26.4058Z" fill="#C5B196"/>
<path d="M4.07538 20.5125C4.10625 20.5695 4.19206 20.7594 4.22426 20.7942L4.26821 20.7572L4.23612 20.6569L4.26129 20.6228C4.33866 20.8079 4.45375 21.1521 4.45143 21.3483C4.44869 21.5782 4.54853 21.7703 4.56127 21.9401C4.3722 21.6226 4.1018 20.8708 4.07538 20.5125Z" fill="#A8947A"/>
<path d="M5.52419 13.2589C5.56426 13.1973 5.60513 13.1363 5.64684 13.0758C7.4181 10.5068 10.5593 8.77539 13.7093 8.78864C15.0259 8.79419 16.1258 8.85785 17.3656 9.35598C17.7083 9.49367 18.081 9.6073 18.3876 9.80765L18.348 9.80018C18.0821 9.74751 17.6238 9.56422 17.3685 9.45873C16.2925 8.99377 15.1986 8.87059 14.0327 8.87536C13.4706 8.87766 12.7191 8.94332 12.1765 8.96249C11.4837 8.98699 8.10622 10.3672 7.96965 10.8595C8.09607 10.8609 8.15028 10.7672 8.27236 10.7163L8.26662 10.7535C8.24495 10.9033 8.24286 10.927 8.27693 11.0729L8.34232 11.1488C8.51664 11.1435 9.20521 10.6403 9.44599 10.513C10.385 10.0165 11.6416 9.45958 12.6933 9.30105C13.159 9.23087 13.6423 9.2278 14.1124 9.23709C14.3716 9.2422 14.9607 9.20804 15.1837 9.29191C15.1519 9.31782 13.2692 9.26641 12.81 9.34003C10.7194 9.67522 7.81092 11.2462 6.47689 12.8677C5.55605 13.987 4.71315 16.165 4.58275 17.6077C4.51846 18.3188 4.54081 19.0753 4.74079 19.766L4.72114 19.8148C4.63997 19.6908 4.67042 19.548 4.6308 19.4214C4.45838 18.8706 4.5256 18.3628 4.49074 17.8002C4.43344 17.9249 4.41048 18.4428 4.3939 18.6141C4.2911 17.0681 4.5878 15.7534 5.12932 14.3159C5.18251 14.1747 5.51647 13.6455 5.44807 13.5567C5.06077 14.1267 4.59317 15.7178 4.42272 15.8729C4.64476 14.9913 5.06681 14.0502 5.52419 13.2589Z" fill="#DACDB8"/>
<path d="M14.5758 16.906L14.7248 16.9185C15.0308 17.1854 15.0812 17.198 15.2254 17.5622C15.3081 17.6732 15.3193 17.7103 15.4446 17.7536C15.4521 18.3284 15.5034 18.7962 15.0521 19.2393C14.7784 19.5098 14.4035 19.6612 14.0132 19.6583C13.8334 19.6575 13.586 19.6087 13.4071 19.5702C13.3962 19.5746 13.3852 19.5787 13.3743 19.5835C12.5963 19.9177 9.41261 22.3373 8.83646 22.1485C8.68906 22.1 8.4814 21.9749 8.42083 21.8306C8.39616 21.7717 8.41 21.7525 8.42174 21.6925C8.50451 21.6026 8.52809 21.5793 8.62519 21.5049L8.65499 21.4627L8.63591 21.4138C8.54652 21.3812 8.48345 21.3838 8.38912 21.379L8.38346 21.325C8.84787 21.0204 10.061 20.0458 10.5632 19.961C10.4701 20.058 10.4232 20.0947 10.3147 20.1761L10.3316 20.2409C10.7938 19.9211 11.1669 19.7427 11.6381 19.3884C11.8271 19.1234 12.318 18.9017 12.6006 18.7533C12.6888 18.707 12.6688 18.6782 12.691 18.5593C12.5152 17.6988 12.9517 17.0781 13.8352 16.9208C13.9957 16.9289 14.145 16.9082 14.3489 16.9211C14.468 16.9393 14.4619 16.9411 14.5758 16.906Z" fill="#81613F"/>
<path d="M11.6381 19.3884L11.6581 19.4669C11.5165 19.642 11.1287 19.9862 11.0932 20.105C10.3748 20.6639 9.52127 21.2136 8.76856 21.7314L8.71411 21.7021C8.684 21.5674 8.71001 21.5859 8.62519 21.5049L8.65499 21.4627L8.63591 21.4138C8.54652 21.3812 8.48345 21.3838 8.38912 21.379L8.38346 21.325C8.84787 21.0204 10.061 20.0458 10.5632 19.961C10.4701 20.058 10.4232 20.0947 10.3147 20.1761L10.3316 20.2409C10.7938 19.9211 11.1669 19.7427 11.6381 19.3884Z" fill="#C5B196"/>
<path d="M8.65499 21.4627L8.63591 21.4138C8.54652 21.3812 8.48345 21.3838 8.38912 21.379L8.38346 21.325C8.84787 21.0204 10.061 20.0458 10.5632 19.961C10.4701 20.058 10.4232 20.0947 10.3147 20.1761L10.3316 20.2409C10.1411 20.4326 8.9182 21.3205 8.65499 21.4627Z" fill="#DACDB8"/>
<path d="M12.691 18.5593C12.7194 18.6341 12.7582 18.7474 12.7964 18.8129C12.5658 19.2689 12.1766 19.367 11.7597 19.686L11.0932 20.105C11.1287 19.9862 11.5165 19.642 11.6581 19.4669L11.6381 19.3884C11.8271 19.1234 12.318 18.9017 12.6006 18.7533C12.6888 18.707 12.6688 18.6782 12.691 18.5593Z" fill="#DACDB8"/>
<path d="M12.7964 18.8129C12.8764 18.8821 12.941 19.0142 12.9955 19.109L12.9597 19.1264C12.6018 19.3018 12.2642 19.7312 11.9397 19.7719C11.8502 19.7408 11.8402 19.7412 11.7597 19.686C12.1766 19.367 12.5658 19.2689 12.7964 18.8129Z" fill="#A8947A"/>
<path d="M13.8232 17.3875C15.1838 17.0918 15.2908 18.5505 14.1321 19.1242C13.8234 18.9754 13.3619 18.8662 13.2591 18.5275C13.1963 18.3195 13.1845 18.0826 13.1778 17.8679C13.3735 17.5666 13.4984 17.5152 13.8232 17.3875Z" fill="#D9C9B1"/>
<path d="M13.1778 17.8679C13.3735 17.5666 13.4984 17.5152 13.8232 17.3875C13.7856 17.6473 13.5606 17.6599 13.4716 17.8491C13.3291 18.1515 13.4978 18.2536 13.2591 18.5275C13.1963 18.3195 13.1845 18.0826 13.1778 17.8679Z" fill="var(--fill-0, #FBF7EC)"/>
<path d="M14.7248 16.9185C14.8942 16.819 15.1029 16.6476 15.2313 16.5033C16.1849 15.4295 17.2128 14.4292 18.1582 13.345C18.4944 12.9593 19.0376 12.3521 19.4571 12.075C19.6119 12.1812 19.7854 12.3009 19.8552 12.4751C19.845 12.6106 19.8609 12.559 19.772 12.6735C19.4709 13.0662 19.0135 13.5602 18.6794 13.9413L16.8756 15.9951C16.5422 16.3689 15.6417 17.3394 15.4446 17.7536C15.3193 17.7103 15.3081 17.6732 15.2254 17.5622C15.0812 17.198 15.0308 17.1854 14.7248 16.9185Z" fill="#FD7A27"/>
<path d="M15.2254 17.5622C15.4945 17.5115 15.6101 17.1325 15.8107 16.9245C16.4359 16.2767 17.0152 15.4143 17.6757 14.814C17.704 14.9109 17.3943 15.1141 17.2913 15.3336L17.3071 15.3599C17.8265 14.9431 19.3761 12.8259 19.772 12.6735C19.4709 13.0662 19.0135 13.5602 18.6794 13.9413L16.8756 15.9951C16.5422 16.3689 15.6417 17.3394 15.4446 17.7536C15.3193 17.7103 15.3081 17.6732 15.2254 17.5622Z" fill="#FE6427"/>
<path d="M14.1112 12.4534C14.2551 12.3931 14.2762 12.3823 14.4304 12.3998C14.4954 12.438 14.5731 12.4769 14.5811 12.5668C14.6973 13.8765 14.5515 15.6231 14.5758 16.906C14.4619 16.9411 14.468 16.9393 14.3489 16.9211C14.145 16.9082 13.9957 16.9289 13.8352 16.9208L13.8276 16.668C13.8094 15.8977 13.8565 13.0873 14.1112 12.4534Z" fill="#FD7A27"/>
<path d="M14.1112 12.4534C14.2551 12.3931 14.2762 12.3823 14.4304 12.3998C14.4954 12.438 14.5731 12.4769 14.5811 12.5668C14.6973 13.8765 14.5515 15.6231 14.5758 16.906C14.4619 16.9411 14.468 16.9393 14.3489 16.9211C14.3387 16.0121 14.399 15.0579 14.3997 14.1455C14.3999 13.7683 14.4941 12.9792 14.4203 12.6429L14.485 12.6858L14.5189 12.6763L14.5006 12.5989C14.3722 12.4764 14.2952 12.4836 14.1112 12.4534Z" fill="#F84516"/>
<path d="M13.8276 16.668C13.8094 15.8977 13.8565 13.0873 14.1112 12.4534C14.2952 12.4836 14.3722 12.4764 14.5006 12.5989L14.5189 12.6763L14.485 12.6858L14.4203 12.6429L14.3122 12.6175C14.1101 12.7778 14.1016 15.2722 13.9662 15.7478C13.9236 15.8977 13.9892 16.564 13.9491 16.7694L13.9384 16.745C13.9102 16.682 13.9107 16.7009 13.8276 16.668Z" fill="#FE6427"/>
<path d="M14.048 25.2225C14.2269 25.2262 14.3843 25.2569 14.474 25.4272C14.6839 25.8258 14.7616 26.7856 14.2985 27.0284C13.7363 27.0354 13.7408 26.6316 13.7086 26.1626C13.6846 25.8143 13.7151 25.4187 14.048 25.2225Z" fill="#7D5D3E"/>
<path d="M21.7667 17.8283C22.1747 17.8032 23.1188 17.7565 23.233 18.2814C23.1973 18.5349 22.8789 18.583 22.669 18.6012C22.3873 18.6023 21.5865 18.6312 21.4014 18.4975C20.8733 18.1159 21.4621 17.8942 21.7667 17.8283Z" fill="#7D5D3E"/>
<path d="M5.19125 18.0815C5.58209 17.7399 7.35328 17.7432 6.92905 18.4957C6.7388 18.673 4.49116 18.8743 5.19125 18.0815Z" fill="#7D5D3E"/>
<path d="M5.19125 18.0815C5.58209 17.7399 7.35328 17.7432 6.92905 18.4957C6.83556 18.3957 6.81618 18.2388 6.74759 18.1966C6.43069 18.0019 5.60723 18.1 5.25334 18.1404L5.19125 18.0815Z" fill="#744323"/>
<path d="M13.915 9.65101C14.5651 9.56725 14.5441 10.0133 14.5431 10.5445C14.5426 10.8056 14.4722 10.9843 14.2621 11.1548C14.0423 11.1801 13.9181 11.1707 13.7991 10.9608C13.6155 10.6371 13.5514 9.86621 13.915 9.65101Z" fill="#7D5D3E"/>
<path d="M8.19165 23.2023C8.38429 23.1875 8.50885 23.1397 8.61496 23.3163C8.59918 23.5909 8.13709 23.9596 7.92357 24.1554C7.81662 24.1561 7.54771 24.0307 7.52912 23.9252C7.45487 23.504 7.89722 23.3152 8.19165 23.2023Z" fill="#7D5D3E"/>
<path d="M19.7611 23.1842C20.2849 23.3089 20.9297 24.0895 20.3461 24.1443C19.9142 23.9515 19.6856 23.8012 19.3978 23.4392C19.5336 23.3193 19.6064 23.2782 19.7611 23.1842Z" fill="#7D5D3E"/>
<path d="M7.40092 12.8021C7.55319 12.8396 7.54239 12.847 7.5809 12.9688C7.55748 13.1134 7.51456 13.1715 7.44209 13.2962C7.3259 13.2261 7.27481 13.2128 7.2277 13.0968C7.23815 12.9642 7.31043 12.9073 7.40092 12.8021Z" fill="#744323"/>
<path d="M3.28358 14.0656C3.39418 14.3218 2.95167 15.2063 2.83555 15.5276C2.87376 15.5376 2.91205 15.5476 2.95045 15.5568L2.97866 15.6501C3.02143 15.6112 3.05736 15.5746 3.09778 15.5339L3.17499 15.5579C3.34931 15.4169 3.30175 14.8636 3.45961 14.6127C3.53588 14.7164 3.416 15.1756 3.37 15.2933C2.97326 16.3067 2.9187 17.3101 2.89646 18.3943C2.86015 18.1185 2.87042 17.7984 2.87076 17.517C2.88943 17.4323 2.97148 16.5721 2.96995 16.4847L2.91745 16.5088C2.82841 16.4511 2.8324 16.3459 2.80023 16.216C2.76826 16.2986 2.76472 16.3652 2.75362 16.4522C2.68549 16.4329 2.69279 16.4329 2.6453 16.3848C2.60637 16.8775 2.51083 17.3642 2.52421 17.8602C2.52828 18.0115 2.5428 18.207 2.51129 18.3513C2.37749 16.4859 2.70431 15.7734 3.28358 14.0656Z" fill="var(--fill-0, #FBF7EC)"/>
<path d="M11.7928 6.32829C13.0793 6.29805 14.0814 6.32958 15.3612 6.48041C15.184 6.5312 14.8085 6.42693 14.721 6.46816L14.7578 6.55485L14.8374 6.57036C14.9342 6.57061 15.2042 6.55899 15.2752 6.59419C14.4626 6.62835 12.5041 6.58742 11.744 6.42889C11.8389 6.44073 11.8643 6.45258 11.9466 6.40524L11.9331 6.36186L11.7928 6.32829Z" fill="var(--fill-0, #FBF7EC)"/>
</g>
</svg>
