<svg xmlns="http://www.w3.org/2000/svg" width="13" height="13" viewBox="0 0 13 13" fill="none">
  <path d="M6.5 0C8.22391 0 9.87721 0.68482 11.0962 1.90381C12.3152 3.12279 13 4.77609 13 6.5C13 8.22391 12.3152 9.87721 11.0962 11.0962C9.87721 12.3152 8.22391 13 6.5 13C4.77609 13 3.12279 12.3152 1.90381 11.0962C0.68482 9.87721 0 8.22391 0 6.5C0 4.77609 0.68482 3.12279 1.90381 1.90381C3.12279 0.68482 4.77609 0 6.5 0ZM7.36287 3.5035C7.36287 3.28801 7.27727 3.08135 7.1249 2.92898C6.97253 2.7766 6.76586 2.691 6.55037 2.691C6.33489 2.691 6.12822 2.7766 5.97585 2.92898C5.82348 3.08135 5.73787 3.28801 5.73787 3.5035V5.73787H3.5035C3.28801 5.73787 3.08135 5.82348 2.92898 5.97585C2.7766 6.12822 2.691 6.33489 2.691 6.55037C2.691 6.76586 2.7766 6.97253 2.92898 7.1249C3.08135 7.27727 3.28801 7.36287 3.5035 7.36287H5.73787V9.59725C5.73787 9.81274 5.82348 10.0194 5.97585 10.1718C6.12822 10.3241 6.33489 10.4097 6.55037 10.4097C6.76586 10.4097 6.97253 10.3241 7.1249 10.1718C7.27727 10.0194 7.36287 9.81274 7.36287 9.59725V7.36287H9.59725C9.81274 7.36287 10.0194 7.27727 10.1718 7.1249C10.3241 6.97253 10.4097 6.76586 10.4097 6.55037C10.4097 6.33489 10.3241 6.12822 10.1718 5.97585C10.0194 5.82348 9.81274 5.73787 9.59725 5.73787H7.36287V3.5035Z" fill="#F9C356"/>
</svg>
