<svg width="83" height="77" viewBox="0 0 83 77" fill="none" xmlns="http://www.w3.org/2000/svg">
<rect x="0.425" y="0.425" width="81.6" height="75.65" rx="9.575" fill="white"/>
<rect x="0.425" y="0.425" width="81.6" height="75.65" rx="9.575" stroke="#FAEFDF" stroke-width="0.85"/>
<path d="M27.217 13.6127C27.7666 13.468 28.2347 13.0843 28.7046 12.75C29.9889 13.8584 30.9515 16.4455 31.3951 18.067C31.4647 18.4977 31.5249 18.6913 31.3923 19.117C34.0484 17.4002 36.1631 16.3884 39.3304 16.1232C42.6367 15.8463 46.5915 16.7396 49.1563 18.9414C49.6417 18.0005 50.8723 16.1373 51.7576 15.5966C52.1877 15.3416 52.6576 15.1497 53.1153 14.9464L54.4756 15.2481C55.9913 15.9604 54.8757 17.2449 55.5986 18.2616L56.0544 18.3824C57.1794 18.2925 57.5475 18.3865 58.6327 18.6767L58.8751 18.8091C59.5173 19.0161 59.8653 19.3069 60.0134 20.0154C60.026 21.4182 59.8141 22.1609 58.8397 23.2461C58.5786 23.5367 57.1103 24.5699 56.8169 24.6833C56.739 24.7305 56.2434 25.0159 56.2771 25.0942C58.356 29.9211 58.7796 35.7867 56.1438 40.8795C54.0409 44.9369 50.4296 47.9677 46.1165 49.295C43.7167 50.0466 40.874 50.1204 38.41 49.6981C26.8878 47.7224 20.7571 34.8043 26.2857 24.3715C26.6547 23.798 27.7538 22.3026 27.8593 21.7975C25.9685 21.6446 23.7254 20.7235 22.4975 19.2075C22.3461 19.0848 22.321 18.9658 22.2289 18.7749C22.1811 18.0151 22.5385 17.3014 22.845 16.6195C24.0697 14.4098 24.0218 14.9681 26.0032 13.8937C26.5164 13.6676 26.6667 13.6689 27.217 13.6127Z" fill="#F7EDDE"/>
<path d="M53.1157 14.9463L54.4761 15.248C55.9918 15.9603 54.8762 17.2448 55.5991 18.2615L56.0549 18.3823C57.1799 18.2924 57.548 18.3864 58.6331 18.6766L58.8756 18.809C59.5178 19.016 59.8658 19.3068 60.0139 20.0153C60.0265 21.4181 59.8146 22.1608 58.8401 23.246C58.5791 23.5366 57.1107 24.5698 56.8173 24.6832C56.4695 24.6801 56.4551 24.6852 56.1253 24.8092C55.0091 25.6459 53.7424 25.7084 52.4154 25.7684C51.237 25.166 51.4708 25.0722 50.6357 24.2155L50.0556 23.8422C49.9193 24.2093 50.1342 24.3572 50.0905 24.4374C49.8149 24.9454 48.4513 26.8362 48.103 27.1671L48.2915 27.4139L48.1188 27.718L48.1796 27.8659C53.5234 36.1259 43.9506 45.1837 36.3914 39.4509C34.5343 38.0712 33.3116 35.9789 33.0063 33.659C31.9948 25.9809 40.0738 20.7389 46.5854 25.8479C47.0293 25.5976 47.6282 24.888 47.9952 24.4879C48.3382 24.0607 48.7048 23.4998 49.0224 23.0395L49.108 22.9122C47.9575 21.083 48.5067 20.9931 49.1568 18.9413C49.6422 18.0004 50.8728 16.1372 51.758 15.5965C52.1882 15.3415 52.6581 15.1496 53.1157 14.9463Z" fill="#DC5209"/>
<path d="M53.1158 14.9463L54.4762 15.248C55.9918 15.9603 54.8762 17.2448 55.5992 18.2615L56.0549 18.3823C57.1799 18.2924 57.5481 18.3864 58.6332 18.6766L58.8756 18.809C59.5178 19.016 59.8659 19.3068 60.0139 20.0153C60.0265 21.4181 59.8146 22.1608 58.8402 23.246C58.5791 23.5366 57.1108 24.5698 56.8174 24.6832C56.4696 24.6801 56.4551 24.6852 56.1253 24.8092C55.0092 25.6459 53.7424 25.7084 52.4155 25.7684C51.2371 25.166 51.4708 25.0722 50.6357 24.2155L50.0556 23.8422C49.9194 24.2093 50.1342 24.3572 50.0906 24.4374C49.8149 24.9454 48.4514 26.8362 48.1031 27.1671L48.2915 27.4139L48.1189 27.718L48.1797 27.8659C47.8123 28.4341 45.8133 30.4948 45.3125 30.6658C43.6831 31.5328 43.9194 33.1656 41.6764 34.1684C41.0505 33.8365 40.2572 33.4159 39.7886 32.8609C39.3377 31.6776 41.6313 30.7332 42.4334 30.2926C42.8192 29.955 43.4519 29.4416 43.5705 28.952C43.9409 28.6944 46.4002 26.2792 46.5854 25.8479C47.0293 25.5976 47.6283 24.888 47.9952 24.4879C48.3382 24.0607 48.7048 23.4998 49.0225 23.0395L49.108 22.9122C47.9576 21.083 48.5068 20.9931 49.1568 18.9413C49.6422 18.0004 50.8729 16.1372 51.7581 15.5965C52.1883 15.3415 52.6581 15.1496 53.1158 14.9463Z" fill="#FDB706"/>
<path d="M55.5982 18.2617L56.054 18.3825C57.179 18.2927 57.5471 18.3866 58.6323 18.6769L58.8747 18.8093C59.5169 19.0163 59.8649 19.307 60.013 20.0155C60.0256 21.4183 59.8137 22.161 58.8393 23.2462C58.5782 23.5368 57.1098 24.57 56.8164 24.6835C56.4686 24.6803 56.4542 24.6855 56.1244 24.8095C55.0082 25.6461 53.7415 25.7087 52.4145 25.7687C51.2362 25.1662 51.4699 25.0724 50.6348 24.2158C50.7338 23.5906 50.6299 23.8225 51.0257 23.3376C51.3659 23.5251 51.4159 23.5297 51.804 23.5464C52.1458 23.4073 52.1534 23.3966 52.3958 23.105C53.7096 22.211 54.017 21.4192 54.5295 19.9199L55.1265 19.4083C55.3993 19.0678 55.5606 18.6982 55.5982 18.2617Z" fill="#FDB308"/>
<path d="M58.6324 18.6768L58.8748 18.8092C59.517 19.0162 59.8651 19.3069 60.0131 20.0154C59.3213 21.2479 58.5052 21.2327 58.1592 21.7509L57.9804 21.7575C57.1346 22.4121 55.4219 23.3001 54.5312 22.262C54.6945 21.9337 54.6282 22.041 55.0494 21.8584C55.4647 21.6342 55.8838 21.4172 56.3065 21.2077L56.2848 21.0245L56.0119 20.8961L56.0001 20.6595C56.4858 20.1387 57.9654 19.17 58.6324 18.6768Z" fill="#FDB706"/>
<path d="M58.8755 18.8091C59.5177 19.0161 59.8658 19.3068 60.0138 20.0153C59.322 21.2478 58.5059 21.2326 58.1599 21.7508L57.9811 21.7574C57.9851 21.7287 57.9891 21.7001 57.9931 21.6716C57.8419 21.0257 58.5691 19.5681 58.8755 18.8091Z" fill="#FDB706"/>
<path d="M56.3059 21.2077C56.7018 21.0551 56.9365 20.9016 57.3213 21.0322C57.1182 21.5015 55.6957 22.0513 55.2204 22.0473L55.0488 21.8584C55.4641 21.6342 55.8832 21.4172 56.3059 21.2077Z" fill="#EF9F27"/>
<path d="M60.0129 20.0156C60.0255 21.4184 59.8136 22.1611 58.8392 23.2463C58.5781 23.5369 57.1097 24.5701 56.8163 24.6836C56.4685 24.6804 56.4541 24.6856 56.1243 24.8096L55.5109 24.2599C55.4591 23.1314 57.2539 23.7678 58.159 21.7511C58.5049 21.2329 59.321 21.2481 60.0129 20.0156Z" fill="#EF9600"/>
<path d="M55.598 18.2617L56.0538 18.3825L56.1196 18.7124C56.3666 18.7214 56.4923 18.724 56.7457 18.7007L56.7615 18.9393C56.3354 19.3471 55.5416 20.1318 54.9553 20.2232L54.8438 20.0472C54.9447 19.7562 54.9781 19.6771 55.1262 19.4083C55.3991 19.0678 55.5603 18.6982 55.598 18.2617Z" fill="#FED63A"/>
<path d="M39.7891 32.8608C40.2591 32.8856 41.0003 33.4774 41.3867 33.5766C42.8507 33.9528 43.5117 30.8007 44.335 30.0285C45.2419 29.1773 47.0805 27.6969 48.1035 27.167L48.292 27.4138L48.1193 27.7179L48.1801 27.8658C47.8128 28.434 45.8137 30.4947 45.313 30.6657C43.6836 31.5327 43.9199 33.1655 41.6768 34.1683C41.0509 33.8364 40.2576 33.4158 39.7891 32.8608Z" fill="#BA5601"/>
<path d="M46.5856 25.8483C47.0295 25.598 47.6284 24.8883 47.9954 24.4883C48.0926 25.0711 48.2398 25.2603 47.8596 25.7325C46.5574 27.3493 44.734 28.5071 43.3077 30.0353C43.1373 30.2177 42.666 30.2688 42.4336 30.293C42.8194 29.9553 43.452 29.442 43.5707 28.9523C43.9411 28.6948 46.4004 26.2795 46.5856 25.8483Z" fill="#FED63A"/>
<path d="M53.5742 15.7091C53.6974 15.7149 54.4364 15.4834 54.6048 15.4336C54.8266 16.2701 54.1647 18.0463 53.3805 18.5147C52.8018 18.3596 53.3603 18.0229 52.4421 18.2088L52.3535 18.0275C52.7435 16.959 53.5784 16.9145 53.5742 15.7091Z" fill="#EF9F27"/>
<path d="M52.707 21.7783C53.1724 21.2308 53.9375 20.2342 54.5307 19.9199C54.0181 21.4192 53.7108 22.211 52.3969 23.105C52.2545 22.7497 52.552 22.1798 52.707 21.7783Z" fill="#FEDE52"/>
<path d="M53.1155 14.9463L54.4759 15.248L54.6041 15.4333C54.4357 15.4831 53.6967 15.7146 53.5735 15.7088C53.0048 15.7332 53.0675 15.8653 52.3803 15.7717C52.2172 15.623 52.0803 15.6366 51.8549 15.6081L51.7578 15.5965C52.188 15.3415 52.6579 15.1496 53.1155 14.9463Z" fill="#FBBB0D"/>
<path d="M51.0254 23.3376C51.4433 22.8375 52.1782 22.1449 52.7055 21.7783C52.5505 22.1799 52.2531 22.7497 52.3955 23.105C52.153 23.3966 52.1454 23.4073 51.8036 23.5465C51.4156 23.5297 51.3656 23.5251 51.0254 23.3376Z" fill="#EF9F27"/>
<path d="M50.0856 20.2173L50.2217 20.3474C50.2922 21.0069 49.7533 21.6137 49.3624 22.1734C48.949 21.5981 49.744 20.7047 50.0856 20.2173Z" fill="#FBBB0D"/>
<path d="M45.3113 30.6659C46.126 32.899 45.6304 35.6725 43.2554 36.6324C42.1287 37.0784 40.8729 37.0428 39.7722 36.5336C34.5258 34.164 37.6882 25.9791 43.5692 28.952C43.4506 29.4416 42.818 29.955 42.4321 30.2926C41.63 30.7333 39.3365 31.6776 39.7874 32.8609C40.2559 33.4159 41.0492 33.8366 41.6751 34.1685C43.9182 33.1656 43.6819 31.5329 45.3113 30.6659Z" fill="#F9EDDE"/>
<path d="M48.1022 27.1672C48.4506 26.8363 49.8141 24.9455 50.0898 24.4375C50.1334 24.3573 49.9185 24.2094 50.0548 23.8423L50.6349 24.2156C51.47 25.0723 51.2363 25.1661 52.4147 25.7685C53.7416 25.7085 55.0083 25.646 56.1245 24.8093C56.4543 24.6853 56.4687 24.6802 56.8166 24.6833C56.7387 24.7305 56.2431 25.0158 56.2768 25.0942C58.3558 29.9211 58.7793 35.7867 56.1435 40.8795C54.0406 44.9369 50.4294 47.9677 46.1162 49.295C43.7164 50.0466 40.8737 50.1204 38.4097 49.6981C26.8875 47.7224 20.7569 34.8043 26.2854 24.3715L26.279 24.5126C26.2195 25.664 25.6057 26.4369 26.0409 27.1771C26.3387 27.3625 26.3483 27.3676 26.6894 27.3626C26.9072 27.5935 26.7934 27.5302 26.879 27.6883C27.5947 29.0106 28.8064 28.8315 28.7518 30.36L28.8567 30.4771C28.8089 31.3729 28.7465 32.3994 28.7969 33.2866C29.0085 36.6644 30.5083 39.8244 32.9762 42.0921C35.5981 44.4554 38.8449 45.6433 42.3467 45.4146C45.5687 45.2083 48.5764 43.7004 50.7016 41.226C54.1661 37.1486 55.043 28.7326 50.828 25.0571C50.0475 25.7494 49.1272 26.863 48.2907 27.414L48.1022 27.1672Z" fill="#C04004"/>
<path d="M27.217 13.6127C27.7666 13.468 28.2347 13.0843 28.7046 12.75C29.9889 13.8584 30.9515 16.4455 31.3951 18.067C31.4647 18.4977 31.5249 18.6913 31.3923 19.117C34.0484 17.4002 36.1631 16.3884 39.3304 16.1232C42.6367 15.8463 46.5915 16.7396 49.1563 18.9414C48.5062 20.9932 47.9571 21.0831 49.1075 22.9123L49.022 23.0396L48.9614 23.0011C48.4111 22.6443 47.8115 22.1275 47.2542 21.7482C41.4727 17.8129 34.0713 20.0786 30.4991 25.8868C29.3343 27.7808 29.5228 28.7796 28.857 30.4772L28.7521 30.36C28.8067 28.8315 27.595 29.0106 26.8793 27.6883C26.7937 27.5302 26.9074 27.5935 26.6897 27.3626C26.3486 27.3676 26.339 27.3625 26.0412 27.1771C25.606 26.4369 26.2198 25.664 26.2793 24.5126L26.2857 24.3715C26.6547 23.798 27.7538 22.3026 27.8593 21.7975C25.9685 21.6446 23.7254 20.7235 22.4975 19.2075C22.3461 19.0848 22.321 18.9658 22.2289 18.7749C22.1811 18.0151 22.5385 17.3014 22.845 16.6195C24.0697 14.4098 24.0218 14.9681 26.0032 13.8937C26.5164 13.6676 26.6667 13.6689 27.217 13.6127Z" fill="#F05F06"/>
<path d="M27.217 13.6127C27.7666 13.468 28.2347 13.0843 28.7046 12.75C29.9889 13.8584 30.9515 16.4455 31.3951 18.067C31.4647 18.4977 31.5249 18.6913 31.3923 19.117C31.0794 20.2613 32.7509 21.228 33.3559 22.2169C32.9843 22.469 32.626 22.8942 32.2617 23.2057C31.0126 24.2739 30.0186 22.223 29.4148 21.1355C29.0712 21.223 28.9925 21.3265 28.7082 21.5607L28.5979 21.4433L28.762 20.8367L28.6281 20.7785C28.4704 20.9858 27.975 21.6076 27.8593 21.7975C25.9685 21.6446 23.7254 20.7235 22.4975 19.2075C22.3461 19.0848 22.321 18.9658 22.2289 18.7749C22.1811 18.0151 22.5385 17.3014 22.845 16.6195C24.0697 14.4098 24.0218 14.9681 26.0032 13.8937C26.5164 13.6676 26.6667 13.6689 27.217 13.6127Z" fill="#FDB706"/>
<path d="M22.845 16.6194C23.5505 17.3084 24.2953 18.1251 25.1633 18.5572C25.6543 18.8964 25.9081 19.0954 26.3552 19.4925C26.9806 20.1693 27.5433 20.0178 27.9983 20.5286C28.3256 20.6724 28.1791 20.6826 28.4496 20.5955C28.4965 20.1739 28.5121 20.0577 28.7665 19.7197C29.0773 19.9012 29.2348 20.6895 29.4148 21.1355C29.0712 21.2229 28.9925 21.3264 28.7082 21.5606L28.5979 21.4432L28.762 20.8366L28.6282 20.7785C28.4704 20.9857 27.975 21.6075 27.8593 21.7974C25.9685 21.6446 23.7254 20.7234 22.4975 19.2075C22.3461 19.0847 22.321 18.9658 22.2289 18.7749C22.1811 18.0151 22.5385 17.3013 22.845 16.6194Z" fill="#FDB706"/>
<path d="M22.498 19.2075C23.3122 19.266 24.148 20.0057 24.952 20.2569C25.8912 20.5502 27.1893 20.3692 27.9989 20.5287C28.3261 20.6724 28.1797 20.6827 28.4502 20.5956C28.4971 20.1739 28.5127 20.0578 28.7671 19.7197C29.0779 19.9013 29.2354 20.6895 29.4154 21.1355C29.0718 21.223 28.9931 21.3264 28.7088 21.5606L28.5985 21.4432L28.7626 20.8367L28.6287 20.7785C28.471 20.9858 27.9756 21.6076 27.8599 21.7975C25.9691 21.6446 23.7259 20.7235 22.498 19.2075Z" fill="#F69F17"/>
<path d="M31.3951 18.0671C31.4647 18.4978 31.5249 18.6914 31.3923 19.117C31.0794 20.2614 32.7508 21.2281 33.3559 22.217C31.3295 22.7916 30.252 21.3056 30.3344 19.3845L30.711 19.3072C31.0569 18.8554 31.257 18.6331 31.3951 18.0671Z" fill="#FBBB0D"/>
<path d="M26.0039 13.8938C26.5171 13.6677 26.6674 13.6689 27.2177 13.6128C26.9373 14.7115 27.1688 14.2927 27.3883 15.4823C27.1365 15.3572 26.4347 14.2905 26.0039 13.8938Z" fill="#FBBB0D"/>
<path d="M25.1641 18.5571C25.7441 18.3083 26.2321 18.7419 26.5358 19.2482C26.4514 19.435 26.5058 19.3834 26.3559 19.4924C25.9088 19.0953 25.655 18.8963 25.1641 18.5571Z" fill="#FBBB0D"/>
<path d="M25.1641 14.4839C25.949 14.7916 28.9263 18.4482 29.4434 19.4139C28.8459 19.1235 26.1113 15.8043 25.4219 15.1435C25.3013 15.0279 25.1908 14.6551 25.1641 14.4839Z" fill="#FEDE52"/>
<path d="M27.9766 14.1777C28.1638 14.2213 28.2398 14.2832 28.4059 14.382C28.6088 14.8579 28.4912 15.429 28.4398 15.9619L28.2067 15.7652C28.0164 15.3386 28.0089 14.6649 27.9766 14.1777Z" fill="#FEDE52"/>
<path d="M24.4191 16.2695C24.9553 16.4979 25.5872 17.0922 25.5538 17.719C25.1567 17.3746 24.3605 16.8149 24.4191 16.2695Z" fill="#FEDE52"/>
<path d="M24.109 61.314H25.1205V63.1415H24.109V61.314ZM24.619 57.336C25.1743 57.336 25.6701 57.4238 26.1065 57.5995C26.5428 57.7752 26.8856 58.0217 27.135 58.339C27.39 58.6563 27.5175 59.0303 27.5175 59.461C27.5175 59.8917 27.39 60.2685 27.135 60.5915C26.8856 60.9088 26.5428 61.1553 26.1065 61.331C25.6701 61.5067 25.1743 61.5945 24.619 61.5945C24.0636 61.5945 23.5678 61.5067 23.1315 61.331C22.6951 61.1553 22.3495 60.9088 22.0945 60.5915C21.8451 60.2685 21.7205 59.8917 21.7205 59.461C21.7205 59.0303 21.8451 58.6563 22.0945 58.339C22.3495 58.0217 22.6951 57.7752 23.1315 57.5995C23.5678 57.4238 24.0636 57.336 24.619 57.336ZM24.619 58.135C24.245 58.135 23.9135 58.1888 23.6245 58.2965C23.3411 58.4042 23.1173 58.5572 22.953 58.7555C22.7943 58.9482 22.715 59.1833 22.715 59.461C22.715 59.733 22.7943 59.971 22.953 60.175C23.1173 60.3733 23.3411 60.5263 23.6245 60.634C23.9135 60.736 24.245 60.787 24.619 60.787C24.993 60.787 25.3216 60.736 25.605 60.634C25.894 60.5263 26.1178 60.3733 26.2765 60.175C26.4408 59.971 26.523 59.733 26.523 59.461C26.523 59.1833 26.4408 58.9482 26.2765 58.7555C26.1178 58.5572 25.894 58.4042 25.605 58.2965C25.3216 58.1888 24.993 58.135 24.619 58.135ZM21.0915 62.9715H28.172V63.796H21.0915V62.9715ZM29.8033 58.5515H35.1668V59.3505H29.8033V58.5515ZM28.9023 59.9285H35.9828V60.736H28.9023V59.9285ZM29.8033 56.996H30.7978V58.968H29.8033V56.996ZM29.7268 61.2715H35.1328V63.2775H30.7468V64.0595H29.7353V62.5635H34.1213V62.0365H29.7268V61.2715ZM29.7353 63.864H35.3708V64.6375H29.7353V63.864ZM39.2462 57.438C39.6542 57.438 40.0197 57.5202 40.3427 57.6845C40.6657 57.8432 40.9178 58.067 41.0992 58.356C41.2862 58.6393 41.3797 58.968 41.3797 59.342C41.3797 59.7103 41.2862 60.039 41.0992 60.328C40.9178 60.617 40.6657 60.8437 40.3427 61.008C40.0197 61.1667 39.6542 61.246 39.2462 61.246C38.8382 61.246 38.4727 61.1667 38.1497 61.008C37.8267 60.8437 37.5717 60.617 37.3847 60.328C37.1977 60.039 37.1042 59.7103 37.1042 59.342C37.1042 58.968 37.1977 58.6393 37.3847 58.356C37.5717 58.067 37.8267 57.8432 38.1497 57.6845C38.4727 57.5202 38.8382 57.438 39.2462 57.438ZM39.2462 58.305C39.0252 58.305 38.8268 58.3475 38.6512 58.4325C38.4812 58.5118 38.3452 58.6308 38.2432 58.7895C38.1412 58.9425 38.0902 59.1267 38.0902 59.342C38.0902 59.5573 38.1412 59.7443 38.2432 59.903C38.3452 60.056 38.4812 60.175 38.6512 60.26C38.8268 60.3393 39.0252 60.379 39.2462 60.379C39.4672 60.379 39.6627 60.3393 39.8327 60.26C40.0027 60.175 40.1387 60.056 40.2407 59.903C40.3427 59.7443 40.3937 59.5573 40.3937 59.342C40.3937 59.1267 40.3427 58.9425 40.2407 58.7895C40.1387 58.6308 40.0027 58.5118 39.8327 58.4325C39.6627 58.3475 39.4672 58.305 39.2462 58.305ZM42.1957 56.9025H43.2072V64.7395H42.1957V56.9025ZM36.8832 63.1245L36.7642 62.3C37.2288 62.3 37.7388 62.2972 38.2942 62.2915C38.8552 62.2802 39.4303 62.2575 40.0197 62.2235C40.6147 62.1838 41.1898 62.1215 41.7452 62.0365L41.8217 62.7675C41.2493 62.8808 40.6685 62.963 40.0792 63.014C39.4955 63.0593 38.9317 63.0905 38.3877 63.1075C37.8437 63.1188 37.3422 63.1245 36.8832 63.1245ZM46.8665 57.625H50.5725V62.8355H46.8665V57.625ZM49.5865 58.424H47.861V62.0365H49.5865V58.424ZM51.907 56.9025H52.927V64.7395H51.907V56.9025ZM58.4088 57.9565H60.0238V58.7725H58.4088V57.9565ZM58.4088 59.495H60.0238V60.3025H58.4088V59.495ZM56.1138 57.353H56.9298V58.2795C56.9298 58.8122 56.8505 59.3108 56.6918 59.7755C56.5331 60.2402 56.2951 60.6453 55.9778 60.991C55.6661 61.3367 55.2695 61.603 54.7878 61.79L54.2523 60.9995C54.5696 60.8805 54.8445 60.7303 55.0768 60.549C55.3091 60.362 55.5018 60.1467 55.6548 59.903C55.8078 59.6593 55.9211 59.4015 55.9948 59.1295C56.0741 58.8518 56.1138 58.5685 56.1138 58.2795V57.353ZM56.3263 57.353H57.1338V58.2795C57.1338 58.5515 57.1706 58.8207 57.2443 59.087C57.318 59.3477 57.4285 59.5942 57.5758 59.8265C57.7231 60.0588 57.9073 60.2685 58.1283 60.4555C58.355 60.6368 58.6185 60.7842 58.9188 60.8975L58.3663 61.688C57.9186 61.5067 57.5418 61.246 57.2358 60.906C56.9355 60.5603 56.7088 60.1637 56.5558 59.716C56.4028 59.2627 56.3263 58.7838 56.3263 58.2795V57.353ZM59.7773 56.911H60.7973V62.708H59.7773V56.911ZM55.6633 63.7705H60.9673V64.578H55.6633V63.7705ZM55.6633 62.164H56.6748V64.272H55.6633V62.164Z" fill="#222222"/>
</svg>
