<svg width="343" height="60" viewBox="0 0 343 60" fill="none" xmlns="http://www.w3.org/2000/svg">
<rect width="343" height="60" rx="10" fill="#FEF4D2"/>
<path d="M72.46 21.66C72.46 22.6 73.33 23.15 74.59 23.15C75.86 23.15 76.73 22.6 76.73 21.66C76.73 20.72 75.86 20.17 74.59 20.17C73.33 20.17 72.46 20.72 72.46 21.66ZM75.25 25.72H78.77V26.79H70.43V25.72H73.93V24.16C72.31 23.96 71.16 23.03 71.16 21.66C71.16 20.12 72.63 19.12 74.59 19.12C76.56 19.12 78.03 20.12 78.03 21.66C78.03 23.03 76.88 23.97 75.25 24.16V25.72ZM87.0092 20.5V21.54H80.6592V18.74H81.9792V20.5H87.0092ZM81.9092 26.18V26.76H87.2492V27.75H80.5792V25.25H85.6592V24.73H80.5692V23.74H86.9892V26.18H81.9092ZM79.6292 22.13H87.9692V23.17H79.6292V22.13ZM91.7884 19.26C93.2284 19.26 94.3284 20.21 94.3284 21.53C94.3284 22.86 93.2284 23.8 91.7884 23.8C90.3484 23.8 89.2584 22.86 89.2584 21.53C89.2584 20.21 90.3484 19.26 91.7884 19.26ZM91.7884 20.39C91.0784 20.39 90.5384 20.81 90.5384 21.53C90.5384 22.25 91.0784 22.67 91.7884 22.67C92.4984 22.67 93.0384 22.25 93.0384 21.53C93.0384 20.81 92.4984 20.39 91.7884 20.39ZM95.1884 18.64H96.5084V27.88H95.1884V18.64ZM89.0384 26.01L88.8684 24.94C90.4884 24.94 92.7484 24.93 94.6884 24.64L94.7684 25.59C92.7884 25.99 90.6284 26.01 89.0384 26.01ZM106.293 22.98L106.383 23.94C105.543 24.07 104.693 24.15 103.863 24.19V27.38H102.543V24.26C101.793 24.29 101.073 24.3 100.413 24.3L100.243 23.24C101.403 23.23 102.703 23.22 104.013 23.15C104.103 22.76 104.163 22.4 104.203 22.06L100.943 22.32L100.763 21.23L104.303 21.1C104.323 20.81 104.323 20.54 104.333 20.3H101.003V19.25H105.623V19.82C105.623 20.58 105.623 21.59 105.343 23.07C105.663 23.04 105.983 23.01 106.293 22.98ZM106.813 18.64H108.133V27.85H106.813V18.64ZM110.333 24.36L109.823 23.31C111.853 22.99 112.943 21.74 112.953 20.47H110.183V19.43H117.123V20.47H114.353C114.363 21.74 115.453 22.96 117.533 23.27L117.033 24.31C115.413 24.03 114.243 23.24 113.663 22.17C113.083 23.26 111.933 24.07 110.333 24.36ZM109.493 25.69H117.833V26.76H109.493V25.69Z" fill="#3D2000"/>
<path d="M145.03 23.16H146.39V18.81H147.62V24.3H146.39V24.02H145.03V23.16ZM143.76 19.85C143.25 19.85 142.92 20.01 142.92 20.34C142.92 20.67 143.25 20.82 143.76 20.82C144.28 20.82 144.6 20.67 144.6 20.34C144.6 20.01 144.28 19.85 143.76 19.85ZM143.76 21.72C142.56 21.72 141.75 21.19 141.75 20.34C141.75 19.49 142.56 18.96 143.76 18.96C144.96 18.96 145.77 19.49 145.77 20.34C145.77 21.19 144.96 21.72 143.76 21.72ZM143.18 24.26V23.01C142.55 23.04 141.96 23.04 141.48 23.04L141.37 22.06C142.57 22.06 144.55 22.04 146.01 21.81L146.1 22.68C145.58 22.8 145 22.88 144.43 22.93V24.26H143.18ZM148.09 26.74V26.19H144.15V26.74H148.09ZM148.09 25.22V24.62H149.4V27.75H142.84V24.62H144.15V25.22H148.09ZM148.14 18.65H149.4V24.32H148.14V18.65ZM158.069 22.07V23.09H151.659V18.94H158.009V19.96H152.969V20.52H157.789V21.51H152.969V22.07H158.069ZM152.909 25.22V26.65H158.039V27.7H151.589V25.22H152.909ZM150.629 23.61H158.979V24.66H155.569V25.98H154.249V24.66H150.629V23.61ZM168.094 22.98L168.184 23.94C167.344 24.07 166.494 24.15 165.664 24.19V27.38H164.344V24.26C163.594 24.29 162.874 24.3 162.214 24.3L162.044 23.24C163.204 23.23 164.504 23.22 165.814 23.15C165.904 22.76 165.964 22.4 166.004 22.06L162.744 22.32L162.564 21.23L166.104 21.1C166.124 20.81 166.124 20.54 166.134 20.3H162.804V19.25H167.424V19.82C167.424 20.58 167.424 21.59 167.144 23.07C167.464 23.04 167.784 23.01 168.094 22.98ZM168.614 18.64H169.934V27.85H168.614V18.64ZM172.133 24.36L171.623 23.31C173.653 22.99 174.743 21.74 174.753 20.47H171.983V19.43H178.923V20.47H176.153C176.163 21.74 177.253 22.96 179.333 23.27L178.833 24.31C177.213 24.03 176.043 23.24 175.463 22.17C174.883 23.26 173.733 24.07 172.133 24.36ZM171.293 25.69H179.633V26.76H171.293V25.69ZM187.858 20.98V19.85H185.968V20.98H187.858ZM184.658 20.98V19.85H183.488V18.87H190.338V19.85H189.168V20.98H190.268V21.96H183.548V20.98H184.658ZM191.078 23.49H187.568V24.06H190.068V26.34H185.028V26.84H190.308V27.79H183.718V25.46H188.768V25.01H183.708V24.06H186.248V23.49H182.758V22.45H191.078V23.49ZM195.387 22.85V20.42H193.637V22.85H195.387ZM198.337 21.15H196.677V22.08H198.337V21.15ZM196.677 23.13V23.89H192.337V19.39H196.677V20.1H198.337V18.65H199.657V25.36H198.337V23.13H196.677ZM194.897 26.65H199.857V27.7H193.577V24.73H194.897V26.65ZM204.252 23.93L203.662 22.92C205.032 22.56 205.682 21.7 205.772 20.78H203.932V19.73H205.782V18.73H207.112V19.73H208.982V20.78H207.122C207.212 21.66 207.882 22.49 209.232 22.84L208.652 23.84C207.592 23.57 206.872 22.98 206.462 22.22C206.052 23.02 205.322 23.64 204.252 23.93ZM207.112 23.66V25C207.852 24.95 208.582 24.89 209.282 24.78L209.362 25.74C207.382 26.14 205.212 26.15 203.632 26.16L203.462 25.09C204.142 25.09 204.942 25.09 205.782 25.06V23.66H207.112ZM209.782 18.64H211.102V27.88H209.782V18.64ZM214.181 20.78V24.7C215.041 24.68 215.821 24.63 216.701 24.47L216.801 25.54C215.681 25.75 214.701 25.79 213.521 25.79H212.881V19.71H216.291V20.78H214.181ZM219.271 18.64H220.521V27.86H219.271V23.25H218.441V27.43H217.211V18.82H218.441V22.19H219.271V18.64ZM226.416 27.14C225.246 27.14 224.466 26.68 223.916 26.13L224.596 25.19C225.016 25.6 225.536 25.94 226.226 25.94C226.996 25.94 227.536 25.45 227.536 24.58C227.536 23.72 227.036 23.24 226.286 23.24C225.846 23.24 225.606 23.35 225.176 23.63L224.506 23.19L224.706 19.6H228.666V20.83H225.976L225.836 22.4C226.126 22.26 226.386 22.19 226.726 22.19C227.966 22.19 229.006 22.93 229.006 24.54C229.006 26.19 227.786 27.14 226.416 27.14ZM230.385 29.13L230.075 28.33C230.845 28.04 231.275 27.54 231.275 26.96C231.245 26.96 231.215 26.96 231.185 26.96C230.705 26.96 230.265 26.65 230.265 26.09C230.265 25.56 230.695 25.22 231.215 25.22C231.895 25.22 232.275 25.76 232.275 26.67C232.275 27.84 231.585 28.73 230.385 29.13ZM235.747 27.14C234.237 27.14 233.237 25.82 233.237 23.27C233.237 20.71 234.237 19.46 235.747 19.46C237.247 19.46 238.247 20.72 238.247 23.27C238.247 25.82 237.247 27.14 235.747 27.14ZM235.747 25.99C236.377 25.99 236.857 25.35 236.857 23.27C236.857 21.2 236.377 20.6 235.747 20.6C235.107 20.6 234.627 21.2 234.627 23.27C234.627 25.35 235.107 25.99 235.747 25.99ZM241.636 27.14C240.126 27.14 239.126 25.82 239.126 23.27C239.126 20.71 240.126 19.46 241.636 19.46C243.136 19.46 244.136 20.72 244.136 23.27C244.136 25.82 243.136 27.14 241.636 27.14ZM241.636 25.99C242.266 25.99 242.746 25.35 242.746 23.27C242.746 21.2 242.266 20.6 241.636 20.6C240.996 20.6 240.516 21.2 240.516 23.27C240.516 25.35 240.996 25.99 241.636 25.99ZM247.524 27.14C246.014 27.14 245.014 25.82 245.014 23.27C245.014 20.71 246.014 19.46 247.524 19.46C249.024 19.46 250.024 20.72 250.024 23.27C250.024 25.82 249.024 27.14 247.524 27.14ZM247.524 25.99C248.154 25.99 248.634 25.35 248.634 23.27C248.634 21.2 248.154 20.6 247.524 20.6C246.884 20.6 246.404 21.2 246.404 23.27C246.404 25.35 246.884 25.99 247.524 25.99ZM255.593 24H257.323V18.65H258.643V25.63H257.323V24.9H255.593V24ZM253.823 19.92C253.203 19.92 252.773 20.16 252.773 20.61C252.773 21.06 253.203 21.29 253.823 21.29C254.433 21.29 254.863 21.06 254.863 20.61C254.863 20.16 254.433 19.92 253.823 19.92ZM253.823 22.25C252.473 22.25 251.523 21.59 251.523 20.61C251.523 19.63 252.473 18.96 253.823 18.96C255.163 18.96 256.113 19.63 256.113 20.61C256.113 21.59 255.163 22.25 253.823 22.25ZM253.333 26.65H258.843V27.7H252.013V24.96H253.293V23.73C252.483 23.77 251.713 23.78 251.023 23.78L250.853 22.73C252.533 22.72 254.773 22.7 256.713 22.45L256.803 23.39C256.083 23.52 255.343 23.6 254.603 23.65V25.39H253.333V26.65ZM261.032 24.48L260.822 20.79L260.772 19.4H262.252L262.202 20.79L261.992 24.48H261.032ZM261.512 27.14C260.992 27.14 260.602 26.72 260.602 26.18C260.602 25.64 260.992 25.22 261.512 25.22C262.032 25.22 262.432 25.64 262.432 26.18C262.432 26.72 262.032 27.14 261.512 27.14Z" fill="#3D2000"/>
<rect x="58" y="30" width="73" height="19" rx="9.5" fill="#FFD95E"/>
<path d="M72.48 37.78V36.14H68.69V37.78H72.48ZM73.77 35.1V38.82H67.39V35.1H73.77ZM74.77 39.8V40.85H71.23V43.86H69.91V40.85H66.43V39.8H74.77ZM79.0392 40.37V41.77H80.6492V40.37H79.0392ZM81.9492 41.77H83.9692V42.85H75.6192V41.77H77.7392V40.37H76.5892V37.27H81.7292V36.29H76.5792V35.24H83.0292V38.3H77.8992V39.31H83.2392V40.37H81.9492V41.77ZM87.6041 35.6H92.0241C92.0241 38.42 91.0741 40.72 87.8041 42.3L87.1141 41.26C89.4641 40.13 90.4841 38.69 90.6741 36.65H87.6041V35.6ZM93.4341 34.64H94.7641V43.85H93.4341V34.64ZM102.053 35.67V36.7H96.5233V35.67H98.6333V34.68H99.9533V35.67H102.053ZM98.2633 38.8C98.2633 39.27 98.6833 39.53 99.2933 39.53C99.9133 39.53 100.323 39.27 100.323 38.8C100.323 38.32 99.9133 38.06 99.2933 38.06C98.6833 38.06 98.2633 38.32 98.2633 38.8ZM99.9533 40.46V41.19C100.703 41.15 101.453 41.1 102.173 41L102.273 41.95C100.263 42.32 98.1333 42.33 96.5033 42.33L96.3433 41.26C97.0333 41.26 97.8133 41.26 98.6333 41.24V40.46C97.6433 40.27 97.0033 39.65 97.0033 38.8C97.0033 37.76 97.9433 37.06 99.2933 37.06C100.633 37.06 101.573 37.76 101.573 38.8C101.573 39.65 100.933 40.27 99.9533 40.46ZM102.653 34.65H103.973V43.86H102.653V34.65ZM107.758 43V42.15C109.768 40.35 110.958 38.96 110.958 37.82C110.958 37.07 110.548 36.62 109.848 36.62C109.308 36.62 108.858 36.97 108.488 37.38L107.688 36.58C108.368 35.86 109.028 35.46 110.038 35.46C111.438 35.46 112.368 36.36 112.368 37.74C112.368 39.08 111.258 40.52 109.908 41.84C110.278 41.8 110.768 41.76 111.108 41.76H112.718V43H107.758ZM113.357 44.82L115.837 34.95H116.817L114.337 44.82H113.357ZM117.524 43V42.15C119.534 40.35 120.724 38.96 120.724 37.82C120.724 37.07 120.314 36.62 119.614 36.62C119.074 36.62 118.624 36.97 118.254 37.38L117.454 36.58C118.134 35.86 118.794 35.46 119.804 35.46C121.204 35.46 122.134 36.36 122.134 37.74C122.134 39.08 121.024 40.52 119.674 41.84C120.044 41.8 120.534 41.76 120.874 41.76H122.484V43H117.524Z" fill="#3D2000"/>
<path opacity="0.7" d="M143.74 43.64C142.57 43.64 141.78 43.2 141.26 42.61L141.95 41.68C142.39 42.11 142.93 42.44 143.6 42.44C144.35 42.44 144.86 42.07 144.86 41.41C144.86 40.68 144.43 40.23 142.82 40.23V39.17C144.18 39.17 144.62 38.7 144.62 38.04C144.62 37.46 144.26 37.12 143.63 37.11C143.1 37.12 142.67 37.37 142.23 37.77L141.48 36.87C142.12 36.31 142.83 35.96 143.7 35.96C145.13 35.96 146.1 36.66 146.1 37.93C146.1 38.73 145.65 39.31 144.86 39.62V39.67C145.7 39.9 146.34 40.52 146.34 41.49C146.34 42.85 145.15 43.64 143.74 43.64ZM149.839 43.64C148.329 43.64 147.329 42.32 147.329 39.77C147.329 37.21 148.329 35.96 149.839 35.96C151.339 35.96 152.339 37.22 152.339 39.77C152.339 42.32 151.339 43.64 149.839 43.64ZM149.839 42.49C150.469 42.49 150.949 41.85 150.949 39.77C150.949 37.7 150.469 37.1 149.839 37.1C149.199 37.1 148.719 37.7 148.719 39.77C148.719 41.85 149.199 42.49 149.839 42.49ZM159.167 38.2V37.37H155.577V38.2H159.167ZM160.477 35.44V39.23H154.267V35.44H155.577V36.38H159.167V35.44H160.477ZM155.487 41.67V43.15H160.627V44.2H154.167V41.67H155.487ZM153.197 39.87H161.547V40.91H158.147V42.36H156.827V40.91H153.197V39.87ZM166.252 37.06V41.08H168.052V37.06H166.252ZM164.952 42.12V36.02H169.352V42.12H164.952ZM173.222 38.62V39.71H171.882V44.36H170.562V35.16H171.882V38.62H173.222ZM175.541 37.07V41.07C176.851 41.05 177.941 40.98 179.131 40.78L179.261 41.87C177.871 42.12 176.611 42.17 175.011 42.17H174.221V36H178.521V37.07H175.541ZM182.421 38.55V39.64H181.081V44.38H179.761V35.15H181.081V38.55H182.421ZM191.386 38.28V36.64H187.596V38.28H191.386ZM192.676 35.6V39.32H186.296V35.6H192.676ZM193.676 40.3V41.35H190.136V44.36H188.816V41.35H185.336V40.3H193.676ZM197.945 40.87V42.27H199.555V40.87H197.945ZM200.855 42.27H202.875V43.35H194.525V42.27H196.645V40.87H195.495V37.77H200.635V36.79H195.485V35.74H201.935V38.8H196.805V39.81H202.145V40.87H200.855V42.27ZM206.51 36.1H210.93C210.93 38.92 209.98 41.22 206.71 42.8L206.02 41.76C208.37 40.63 209.39 39.19 209.58 37.15H206.51V36.1ZM212.34 35.14H213.67V44.35H212.34V35.14ZM220.96 36.17V37.2H215.43V36.17H217.54V35.18H218.86V36.17H220.96ZM217.17 39.3C217.17 39.77 217.59 40.03 218.2 40.03C218.82 40.03 219.23 39.77 219.23 39.3C219.23 38.82 218.82 38.56 218.2 38.56C217.59 38.56 217.17 38.82 217.17 39.3ZM218.86 40.96V41.69C219.61 41.65 220.36 41.6 221.08 41.5L221.18 42.45C219.17 42.82 217.04 42.83 215.41 42.83L215.25 41.76C215.94 41.76 216.72 41.76 217.54 41.74V40.96C216.55 40.77 215.91 40.15 215.91 39.3C215.91 38.26 216.85 37.56 218.2 37.56C219.54 37.56 220.48 38.26 220.48 39.3C220.48 40.15 219.84 40.77 218.86 40.96ZM221.56 35.15H222.88V44.36H221.56V35.15ZM227.054 43.5V42.31H228.644V37.63H227.304V36.72C228.044 36.58 228.554 36.39 229.024 36.1H230.114V42.31H231.504V43.5H227.054ZM238.313 36.17V37.2H232.783V36.17H234.893V35.18H236.213V36.17H238.313ZM234.523 39.3C234.523 39.77 234.943 40.03 235.553 40.03C236.173 40.03 236.583 39.77 236.583 39.3C236.583 38.82 236.173 38.56 235.553 38.56C234.943 38.56 234.523 38.82 234.523 39.3ZM236.213 40.96V41.69C236.963 41.65 237.713 41.6 238.433 41.5L238.533 42.45C236.523 42.82 234.393 42.83 232.763 42.83L232.603 41.76C233.293 41.76 234.073 41.76 234.893 41.74V40.96C233.903 40.77 233.263 40.15 233.263 39.3C233.263 38.26 234.203 37.56 235.553 37.56C236.893 37.56 237.833 38.26 237.833 39.3C237.833 40.15 237.193 40.77 236.213 40.96ZM238.913 35.15H240.233V44.36H238.913V35.15Z" fill="#3D2000"/>
<path d="M297.514 16.1993C297.574 15.8136 297.573 15.1406 297.771 14.7925C298.39 13.7042 299.978 12.5077 301.108 12.1148C304.57 10.8786 308.066 10.6002 311.616 11.6363C312.877 12.0042 313.467 12.0984 314.574 12.8751C315.525 13.5424 316.146 13.9988 316.554 15.1667C316.717 15.7328 316.721 19.1028 316.681 19.8164C316.674 20.0346 316.674 20.2735 316.64 20.4873C316.612 21.6741 316.744 23.1052 316.675 24.2532C316.683 24.4385 316.754 25.2743 316.746 25.3477L316.776 25.4092C317.162 25.288 318.66 25.3079 319.114 25.3265C320.715 25.3056 323.099 26.0173 324.577 26.6569C325.056 26.8643 325.784 27.4098 326.231 27.7143C327.047 28.2254 327.866 29.6194 327.947 30.6075C328.053 31.2529 327.975 32.6516 327.924 33.3274C327.898 33.6549 327.796 34.1049 327.773 34.4213L327.8 34.7044C327.973 35.2443 327.997 37.2367 327.87 37.8058L327.867 37.9969C327.946 38.628 327.868 39.339 327.918 39.9691C328.037 41.4834 327.454 42.3525 326.245 43.2029C326.135 43.3466 325.498 43.6311 325.31 43.7405C323.328 44.8923 321.171 45.2737 318.909 45.2833C316.55 45.2933 314.127 45.0223 311.988 43.9489C309.807 42.8755 308.735 41.6456 308.955 39.1066C308.137 38.9048 306.944 38.9572 306.076 38.8746C305.365 38.8069 304.673 38.7281 303.964 38.6332C303.82 38.614 303.748 38.6148 303.652 38.697C303.698 39.4276 303.607 41.2281 303.586 41.9684C303.311 43.2729 300.628 44.7488 299.589 45.0748C297.094 45.8585 294.574 46.2256 291.987 45.8545C289.343 45.4754 285.402 44.4422 284.42 41.5597C284.14 40.7378 284.323 38.5218 284.483 37.6073C284.53 37.3108 284.758 36.9521 284.804 36.5736L284.806 36.5547C284.243 36.0304 283.439 35.8043 282.724 35.0383C281.744 33.9876 281.022 32.0526 281.038 30.6499C280.95 30.1536 281.028 28.9085 281.132 28.3917C281.169 28.2048 281.364 27.7311 281.43 27.5308C281.822 26.3407 282.451 25.4162 283.379 24.5884C283.611 24.3819 283.889 24.0256 284.151 23.8223C284.434 23.6034 284.761 23.4243 285.048 23.2116C285.313 23.0148 285.716 22.5963 286.001 22.4408C286.864 21.9706 287.758 21.5266 288.644 21.1106C289.877 20.7058 290.192 20.6783 291.461 20.5251C293.282 20.3674 295.257 20.5179 296.895 21.3235C297.105 21.4271 297.421 21.5001 297.598 21.6129C297.653 21.36 297.615 20.7354 297.607 20.4561C297.585 19.6431 297.557 18.8303 297.523 18.0178C297.505 17.5707 297.444 16.5943 297.514 16.1993Z" fill="#CD8B07"/>
<path d="M291.461 20.5251C293.282 20.3674 295.257 20.5179 296.895 21.3235C297.105 21.4271 297.421 21.5001 297.598 21.6129C297.722 21.684 297.881 21.8443 297.995 21.9445C298.671 22.5414 299.041 23.175 299.356 24.0129C299.575 24.4332 299.704 24.6921 299.868 25.1514C299.944 25.365 300.081 25.8773 300.17 26.0478L300.229 26.3294C300.238 26.389 300.255 26.5393 300.273 26.5876C300.435 27.6798 300.467 28.6813 300.256 29.7691L300.206 30.0301L300.196 30.0862C300.041 30.3638 300.076 30.4339 299.988 30.7199C299.97 30.7754 299.81 30.9467 299.768 31.0142L299.798 31.0345C301.005 31.8214 302.486 32.0841 303.194 33.6462C303.456 34.0794 303.506 34.4518 303.545 34.9498C303.542 35.4166 303.522 36.0318 303.542 36.4869C303.523 36.8451 303.507 37.2032 303.493 37.5616C303.504 37.9734 303.514 38.2631 303.618 38.6618L303.627 38.706L303.652 38.697C303.698 39.4276 303.607 41.2281 303.586 41.9684C303.311 43.2729 300.628 44.7488 299.589 45.0748C297.094 45.8585 294.574 46.2256 291.987 45.8545C289.343 45.4754 285.402 44.4422 284.42 41.5597C284.14 40.7378 284.323 38.5218 284.483 37.6073C284.53 37.3108 284.758 36.9521 284.804 36.5736L284.806 36.5547C284.243 36.0304 283.439 35.8043 282.724 35.0383C281.744 33.9876 281.022 32.0526 281.038 30.6499C280.95 30.1536 281.028 28.9085 281.132 28.3917C281.169 28.2048 281.364 27.7311 281.43 27.5308C281.822 26.3407 282.451 25.4162 283.379 24.5884C283.611 24.3819 283.889 24.0256 284.151 23.8223C284.434 23.6034 284.761 23.4243 285.048 23.2116C285.313 23.0148 285.716 22.5963 286.001 22.4408C286.864 21.9706 287.758 21.5266 288.644 21.1106C289.877 20.7058 290.192 20.6783 291.461 20.5251Z" fill="#D5970F"/>
<path d="M291.461 20.5251C293.282 20.3674 295.257 20.5179 296.895 21.3235C297.105 21.4271 297.421 21.5001 297.598 21.6129C297.722 21.684 297.881 21.8443 297.995 21.9445C298.671 22.5414 299.041 23.175 299.356 24.0129C299.575 24.4332 299.704 24.6921 299.868 25.1514C299.944 25.365 300.081 25.8773 300.17 26.0478L300.229 26.3294C300.238 26.389 300.255 26.5393 300.273 26.5876C300.435 27.6798 300.467 28.6813 300.256 29.7691C300.182 29.756 300.115 29.7363 300.046 29.7777C299.532 30.0969 299.009 30.1967 298.403 30.1126C298.049 30.0632 297.707 30.0131 297.355 29.9301C297.295 29.916 296.853 30.4035 296.627 30.4791C295.843 31.1834 295.142 31.661 294.184 32.0773C293.963 32.1731 293.697 32.3436 293.457 32.3337C293.521 32.1435 293.862 32.0667 294.045 31.9994C293.871 31.9533 293.781 32.0032 293.609 32.065C292.469 33.0463 290.973 33.3638 289.54 33.6783C288.872 33.8508 288.26 33.8349 287.588 33.8686C285.719 33.9623 283.753 33.78 282.377 32.3508C281.891 31.8471 281.633 31.2322 281.128 30.8269C281.087 30.7935 281.061 30.7056 281.038 30.6499C280.95 30.1536 281.028 28.9085 281.132 28.3917C281.169 28.2048 281.364 27.7311 281.43 27.5308C281.822 26.3407 282.451 25.4162 283.379 24.5884C283.611 24.3819 283.889 24.0256 284.151 23.8223C284.434 23.6034 284.761 23.4243 285.048 23.2116C285.313 23.0148 285.716 22.5963 286.001 22.4408C286.864 21.9706 287.758 21.5266 288.644 21.1106C289.877 20.7058 290.192 20.6783 291.461 20.5251Z" fill="#F9D76F"/>
<path d="M299.356 24.0129C299.575 24.4332 299.704 24.6921 299.868 25.1514C299.944 25.365 300.081 25.8773 300.17 26.0478L300.229 26.3294C300.238 26.389 300.255 26.5393 300.273 26.5876C300.435 27.6798 300.467 28.6813 300.256 29.7691C300.182 29.756 300.115 29.7363 300.046 29.7777C299.532 30.0969 299.009 30.1967 298.403 30.1126C298.049 30.0632 297.707 30.0131 297.355 29.9301C297.295 29.916 296.853 30.4035 296.627 30.4791C296.801 30.3144 296.973 30.1465 297.142 29.9758C299.037 28.0442 299.368 26.6279 299.356 24.0129Z" fill="#FBC53F"/>
<path d="M289.54 33.6783L289.448 33.638C289.537 33.565 290.912 33.3515 291.214 33.1569L291.103 33.0066L291.117 32.9393C291.206 32.8802 291.22 32.8598 291.32 32.8669C291.406 32.9341 291.424 32.9669 291.487 33.0546C291.844 33.0373 292.452 32.6922 292.762 32.5L292.761 32.4011C292.88 32.2287 293.282 32.2137 293.445 32.0756C294.145 31.4807 294.956 30.9582 295.666 30.3833C296.076 30.051 296.334 29.6419 296.804 29.2741C296.788 29.3542 296.595 29.5221 296.54 29.5952C295.793 30.5868 294.43 31.191 293.631 32.0404L293.609 32.065C292.469 33.0463 290.973 33.3638 289.54 33.6783Z" fill="#FCEDA3"/>
<path d="M282.898 26.7443C285.206 22.5262 291.436 19.8993 295.919 21.8536C296.764 22.2216 297.493 22.8081 297.824 23.6939C298.443 24.9693 298.02 26.6041 297.414 27.7976C297.331 27.9619 296.858 28.5727 296.845 28.6526C296.793 29.0533 295.453 30.2458 295.108 30.5112C294.428 31.0284 293.722 31.5086 292.991 31.9497L293.07 32.0484C292.892 32.1656 292.167 32.7107 292.094 32.7399C291.714 32.6345 291.479 32.8077 291.106 32.8641C290.906 32.8944 290.634 32.8068 290.446 32.8724C290.3 32.9562 290.186 33.1456 289.991 33.1862C289.912 33.1389 289.916 33.1409 289.869 33.0593C289.585 33.1351 289.246 33.2545 288.974 33.3093L288.953 33.2607C287.752 33.4539 286.522 33.3371 285.385 32.8869C284.716 32.6217 284.549 32.2703 283.817 32.4662C283.585 32.3979 283.188 32.1201 283.022 31.9467C281.952 30.8231 282.012 29.0429 282.489 27.6623C282.57 27.43 282.733 26.9148 282.898 26.7443Z" fill="#FBC53F"/>
<path d="M282.898 26.7443C285.206 22.5262 291.436 19.8993 295.919 21.8536C296.764 22.2216 297.493 22.8081 297.824 23.6939C297.664 23.6008 296.971 22.1971 296.387 22.2337L296.335 22.2945C296.416 22.4999 297.556 23.215 297.55 23.7216L297.525 23.7562C297.273 23.1123 296.437 22.4029 295.821 22.1548C295.232 21.9174 293.754 21.5461 293.135 21.5038C291.913 21.4201 289.887 21.7687 288.718 22.2149C287.983 22.4959 286.551 23.3212 285.906 23.7843C285.606 23.9998 284.829 24.8129 284.506 25.1058C284.225 25.3607 283.685 26.0965 283.475 26.445C283.423 26.5301 283.415 26.583 283.362 26.5661C283.449 26.378 283.825 25.8697 283.753 25.6567C283.485 25.8428 283.056 26.6978 282.898 26.7443Z" fill="#D28E0C"/>
<path d="M296.845 28.6526C296.793 29.0533 295.453 30.2458 295.108 30.5112C294.428 31.0284 293.722 31.5086 292.991 31.9497L293.07 32.0484C292.892 32.1656 292.167 32.7107 292.094 32.7399C291.714 32.6345 291.479 32.8077 291.106 32.8641C290.906 32.8944 290.634 32.8068 290.446 32.8724C290.3 32.9562 290.186 33.1456 289.991 33.1862C289.912 33.1389 289.916 33.1409 289.869 33.0593C289.585 33.1351 289.246 33.2545 288.974 33.3093L288.953 33.2607C289.592 33.0912 290.23 32.842 290.861 32.6571C293.308 31.9403 295.193 30.6348 296.845 28.6526Z" fill="#FCEDA3"/>
<path d="M289.603 23.4046C290.736 23.2148 291.056 24.3879 290.589 25.225C290.38 25.6006 290.018 25.9997 289.769 26.3775C289.897 26.6253 289.936 26.6829 290.112 26.896C290.738 26.3122 290.828 25.6351 291.462 24.9384C292.228 24.0959 294.357 23.7297 294.48 25.3074C294.561 26.3555 292.681 26.9866 291.974 27.3832C291.629 27.5772 291.433 27.7163 291.091 28.0286C291.507 28.401 291.702 29.3034 291.487 29.8201C291.32 30.2223 290.988 30.3604 290.615 30.5124L290.281 30.6112C289.872 30.1032 289.145 28.4889 288.878 28.3056C288.091 27.7643 287.031 29.9559 285.589 28.6478C285.568 28.5698 285.535 28.4791 285.521 28.4015C285.32 27.3083 286.605 26.7451 287.444 26.5433C288.086 26.7722 288.394 27.2216 288.826 27.7178C289.058 27.5559 289.234 27.4501 289.41 27.2266C289.249 27.0098 288.868 26.5153 288.69 26.3427C287.255 24.9554 287.404 23.6672 289.603 23.4046Z" fill="#C78C03"/>
<path d="M295.783 35.0644C296.01 34.8685 296.465 34.6534 296.736 34.449C297.607 33.7898 298.295 32.9162 298.918 32.0232C299.1 31.7625 299.435 31.0366 299.623 30.8679L299.702 30.8828L299.768 31.0142L299.798 31.0345C301.005 31.8214 302.486 32.0841 303.194 33.6462C303.216 33.927 303.303 34.832 303.23 35.0553L303.184 34.6048C302.965 34.682 302.667 34.8293 302.449 34.9304C302.408 35.0501 302.413 35.2332 302.41 35.3649C302.427 35.5884 302.054 36.0894 301.906 36.2584C300.801 37.5215 299.715 37.8431 298.154 38.2151C297.395 38.396 296.853 38.5845 296.039 38.6335C295.387 38.6727 294.78 38.6878 294.123 38.6898C293.99 38.6902 293.359 38.6822 293.259 38.6981C292.741 38.6105 292.027 38.6478 291.35 38.5375C291.154 38.4593 290.667 38.4359 290.349 38.3273L290.329 38.2611C290.021 38.1614 290.043 38.1978 289.786 38.1413C290.029 37.645 292.384 37.5898 292.921 37.5631C292.701 37.5563 292.564 37.5494 292.343 37.5166C292.481 37.3345 292.85 37.501 293.126 37.262C293.262 37.1452 293.664 36.9983 293.814 36.8365C294.017 36.6161 294.183 36.3167 294.427 36.1344C294.78 35.9675 294.953 35.9355 295.311 35.708L295.311 35.6535C295.409 35.5506 295.735 35.4436 295.897 35.2756C295.85 35.2676 295.525 35.4178 295.4 35.4539L295.38 35.4185C295.543 35.2012 295.657 35.2896 295.783 35.0644Z" fill="#F8C245"/>
<path d="M295.783 35.0644C296.01 34.8685 296.465 34.6534 296.736 34.449C297.607 33.7898 298.295 32.9162 298.918 32.0232C299.1 31.7625 299.435 31.0366 299.623 30.8679L299.702 30.8828L299.768 31.0142L299.798 31.0345C301.005 31.8214 302.486 32.0841 303.194 33.6462C303.216 33.927 303.303 34.832 303.23 35.0553L303.184 34.6048C302.965 34.682 302.667 34.8293 302.449 34.9304C302.408 35.0501 302.413 35.2332 302.41 35.3649C302.263 35.107 302.415 34.3148 302.146 33.8745C301.649 33.0861 300.799 32.3027 299.926 31.9758C299.193 31.7017 299.071 32.6895 298.681 33.0646C297.815 33.8953 296.947 34.6857 295.897 35.2756C295.85 35.2676 295.525 35.4178 295.4 35.4539L295.38 35.4185C295.543 35.2012 295.657 35.2896 295.783 35.0644Z" fill="#FDDE7C"/>
<path d="M302.41 35.3649C302.413 35.2332 302.408 35.0501 302.449 34.9304C302.667 34.8293 302.965 34.682 303.184 34.6048L303.23 35.0553C303.009 36.0944 302.403 36.6696 301.552 37.2674C301.248 37.4812 300.749 37.7184 300.488 37.906C298.997 38.556 297.056 39.1064 295.426 39.1549C294.407 39.3925 291.884 39.0634 290.836 38.8076C290.928 38.7789 291.481 38.8484 291.59 38.8788L291.625 38.8887C291.561 38.7274 291.656 38.8199 291.611 38.6764C291.414 38.6257 291.254 38.5959 291.056 38.5609C291.191 38.5298 291.217 38.5313 291.35 38.5375C292.027 38.6478 292.741 38.6105 293.259 38.6981C293.359 38.6822 293.99 38.6902 294.123 38.6898C294.78 38.6878 295.387 38.6727 296.039 38.6335C296.853 38.5845 297.395 38.396 298.154 38.2151C299.715 37.8431 300.801 37.5215 301.906 36.2584C302.054 36.0894 302.427 35.5884 302.41 35.3649Z" fill="#FFEC9A"/>
<path d="M290.836 38.8076C290.928 38.7789 291.481 38.8484 291.59 38.8788L291.625 38.8887C291.561 38.7274 291.656 38.8199 291.611 38.6764C291.414 38.6257 291.254 38.5959 291.056 38.5609C291.191 38.5298 291.217 38.5313 291.35 38.5375C292.027 38.6478 292.741 38.6105 293.259 38.6981C292.94 38.8441 292.317 38.65 291.988 38.7214C292.069 38.9694 292.41 38.9546 292.64 38.9937C293.193 39.0876 293.753 39.1349 294.313 39.1391C294.58 39.1442 295.204 39.116 295.426 39.1549C294.407 39.3925 291.884 39.0634 290.836 38.8076Z" fill="#FDDE7C"/>
<path d="M294.51 35.7202C294.711 35.6549 295.488 35.2019 295.783 35.0644C295.657 35.2896 295.543 35.2012 295.38 35.4185L295.4 35.4539C295.525 35.4178 295.85 35.2676 295.897 35.2756C295.735 35.4436 295.409 35.5506 295.311 35.6535L295.311 35.708C294.953 35.9355 294.78 35.9675 294.427 36.1344C294.183 36.3167 294.017 36.6161 293.814 36.8365C293.664 36.9983 293.262 37.1452 293.126 37.262C292.85 37.501 292.481 37.3345 292.343 37.5166C292.564 37.5494 292.701 37.5563 292.921 37.5631C292.384 37.5898 290.029 37.645 289.786 38.1413C290.043 38.1978 290.021 38.1614 290.329 38.2611L290.349 38.3273C289.964 38.2184 289.13 38.0679 288.707 37.974C288.55 37.9014 288.396 37.8246 288.244 37.7437C288.277 37.7396 288.291 37.7387 288.322 37.7248C288.698 37.5585 289.159 37.5417 289.56 37.4413C290.007 37.3282 290.453 37.2067 290.895 37.0756C291.413 36.9444 291.973 36.6589 292.49 36.5487C292.975 36.4451 293.322 36.1997 293.765 36.0748C293.872 36.0434 294.379 35.7843 294.51 35.7202Z" fill="#C78C03"/>
<path d="M294.51 35.7202C294.711 35.6549 295.488 35.2019 295.783 35.0644C295.657 35.2896 295.543 35.2012 295.38 35.4185L295.4 35.4539C295.525 35.4178 295.85 35.2676 295.897 35.2756C295.735 35.4436 295.409 35.5506 295.311 35.6535C295.046 35.7871 294.169 36.2373 293.922 36.3046L293.928 36.2807L293.993 36.2483L293.975 36.1822C293.916 36.1482 293.828 36.0929 293.765 36.0748C293.872 36.0434 294.379 35.7843 294.51 35.7202Z" fill="#EFB941"/>
<path d="M303.618 38.6618L303.627 38.706C303.623 38.852 303.101 39.6752 302.977 39.8234C301.561 41.5119 298.777 42.3233 296.715 42.6503C296.56 42.626 296.216 42.646 296.138 42.5669C296.328 42.3621 296.356 42.4558 296.554 42.3074C296.69 42.2506 297.669 42.1385 297.931 42.0911C299.299 41.8443 300.627 41.2166 301.797 40.4704C301.921 40.3915 302.271 40.0571 302.399 39.9223C302.742 39.5595 303.101 39.0541 303.462 38.6989C303.526 38.6837 303.578 38.6714 303.618 38.6618Z" fill="#FCEDA3"/>
<path d="M286.456 36.9181C288.565 37.5311 290.695 36.9032 292.738 36.2873C293.214 36.144 293.724 35.7666 294.205 35.6402L294.241 35.6311L294.221 35.6204L294.264 35.7044L294.203 35.7657L294.248 35.7876L294.458 35.6927L294.51 35.7202C294.379 35.7843 293.872 36.0434 293.765 36.0748C293.322 36.1997 292.975 36.4451 292.49 36.5487C291.973 36.6589 291.413 36.9444 290.895 37.0756C290.453 37.2067 290.007 37.3282 289.56 37.4413C289.159 37.5417 288.698 37.5585 288.322 37.7248C288.291 37.7387 288.277 37.7396 288.244 37.7437C288.083 37.6591 287.157 37.3416 286.909 37.2416C286.744 37.158 286.578 37.1353 286.437 37.0154L286.456 36.9181Z" fill="#A86403"/>
<path d="M303.194 33.6462C303.456 34.0794 303.506 34.4518 303.545 34.9498C303.542 35.4166 303.522 36.0318 303.542 36.4869C303.523 36.8451 303.507 37.2032 303.493 37.5616L303.485 37.5285C303.394 37.1286 303.537 36.6123 303.475 36.3897C303.342 36.389 303.072 36.599 302.969 36.7014C302.628 37.0404 302.307 37.5527 301.781 37.6053C301.671 37.6163 301.355 37.5288 301.284 37.5538C301 37.6536 300.815 37.8994 300.488 37.906C300.749 37.7184 301.248 37.4812 301.552 37.2674C302.403 36.6696 303.009 36.0944 303.23 35.0553C303.303 34.832 303.216 33.927 303.194 33.6462Z" fill="#FBC53F"/>
<path d="M284.747 38.2624C285.379 38.9738 285.861 39.8204 286.714 40.3283C288.953 41.6605 291.54 42.2868 294.133 42.2381C294.406 42.2331 295.6 42.1662 295.773 42.2225C295.424 42.3203 293.708 42.2338 293.235 42.2747C293.066 42.2892 292.957 42.1859 292.752 42.2385C293.148 42.6171 295.94 42.305 296.05 42.3723C294.196 42.6811 292.496 42.3631 290.677 42.0909C290.395 41.9763 289.948 41.9819 289.653 41.8741C287.705 41.1627 285.68 40.2638 284.747 38.2624Z" fill="#924E00"/>
<path d="M290.677 42.0909C292.496 42.3631 294.196 42.6811 296.05 42.3723C296.217 42.3462 296.385 42.3245 296.554 42.3074C296.356 42.4558 296.328 42.3621 296.138 42.5669C296.216 42.646 296.56 42.626 296.715 42.6503C295.13 43.0553 292.814 42.8563 291.224 42.5524C291.11 42.5306 291.01 42.5093 290.892 42.496L290.858 42.4923L290.878 42.4699C291.192 42.4313 292.257 42.7352 292.668 42.7304C293.212 42.724 293.094 42.9456 293.551 42.5397C292.827 42.4774 292.109 42.3815 291.393 42.2557C291.139 42.2111 290.83 42.1999 290.591 42.1235L290.677 42.0909Z" fill="#FBC53F"/>
<path d="M288.707 37.974C289.13 38.0679 289.964 38.2184 290.349 38.3273C290.667 38.4359 291.154 38.4593 291.35 38.5375C291.217 38.5313 291.191 38.5298 291.056 38.5609C291.254 38.5959 291.414 38.6257 291.611 38.6764C291.656 38.8199 291.561 38.7274 291.625 38.8887L291.59 38.8788C291.481 38.8484 290.928 38.7789 290.836 38.8076C290.176 38.7658 288.856 38.2655 288.21 38.0422C288.348 37.9702 288.546 37.9797 288.707 37.974Z" fill="#EFB941"/>
<path d="M284.992 36.6538C285.24 36.6937 286.294 36.843 286.456 36.9181L286.437 37.0154C286.578 37.1353 286.744 37.158 286.909 37.2416C286.794 37.2319 286.678 37.2207 286.563 37.2079L286.539 37.2369C286.561 37.3424 286.561 37.2996 286.53 37.4025C286.315 37.5218 285.966 37.387 285.704 37.3248C285.546 37.1468 285.179 36.8271 284.992 36.6538Z" fill="#C78C03"/>
<path d="M286.539 37.2369L286.563 37.2079C286.678 37.2207 286.794 37.2319 286.909 37.2416C287.157 37.3416 288.083 37.6591 288.244 37.7437C288.396 37.8246 288.55 37.9014 288.707 37.974C288.546 37.9797 288.348 37.9702 288.21 38.0422C287.732 37.9596 286.991 37.6658 286.646 37.3411C286.61 37.307 286.574 37.2722 286.539 37.2369Z" fill="#C78C03"/>
<path d="M297.514 16.1993C297.574 15.8136 297.573 15.1406 297.771 14.7925C298.39 13.7042 299.978 12.5077 301.108 12.1148C304.57 10.8786 308.066 10.6002 311.616 11.6363C312.877 12.0042 313.467 12.0984 314.574 12.8751C315.525 13.5424 316.146 13.9988 316.554 15.1667C316.717 15.7328 316.721 19.1028 316.681 19.8164C316.674 20.0346 316.674 20.2735 316.64 20.4873C316.612 21.6741 316.744 23.1052 316.675 24.2532C316.683 24.4385 316.754 25.2743 316.746 25.3477L316.776 25.4092L316.763 25.4927C316.695 25.5258 316.691 25.5434 316.635 25.5308L316.647 25.4517C316.455 25.3437 316.004 25.4665 315.794 25.5296C315.173 25.7159 314.464 25.9114 313.819 26.0007C313.113 26.1482 311.977 26.5111 311.37 26.866C311.17 26.9998 310.972 27.1371 310.776 27.2779L310.525 27.4453C310.262 27.7152 309.969 28.0119 309.737 28.3063L309.516 28.6696C309.132 29.2495 308.917 29.6339 309.001 30.369C308.981 30.4841 308.855 31.2095 308.853 31.2922C308.803 31.5694 308.75 31.5956 308.485 31.6741C307.961 31.6712 307.464 31.7306 306.916 31.7038C304.634 31.5922 302.622 31.0965 300.482 30.3082C300.282 30.2347 300.263 30.2384 300.196 30.0862L300.206 30.0301L300.256 29.7691C300.467 28.6813 300.435 27.6798 300.273 26.5876C300.255 26.5393 300.238 26.389 300.229 26.3294L300.17 26.0478C300.081 25.8773 299.944 25.365 299.868 25.1514C299.704 24.6921 299.575 24.4332 299.356 24.0129C299.041 23.175 298.671 22.5414 297.995 21.9445C297.881 21.8443 297.722 21.684 297.598 21.6129C297.653 21.36 297.615 20.7354 297.607 20.4561C297.585 19.6431 297.557 18.8303 297.523 18.0178C297.505 17.5707 297.444 16.5943 297.514 16.1993Z" fill="#CD8D05"/>
<path d="M297.514 16.1993C297.574 15.8136 297.573 15.1406 297.771 14.7925C298.39 13.7042 299.978 12.5077 301.108 12.1148C304.57 10.8786 308.066 10.6002 311.616 11.6363C312.877 12.0042 313.467 12.0984 314.574 12.8751C315.525 13.5424 316.146 13.9988 316.554 15.1667C316.446 15.4792 316.736 15.7587 316.469 15.9392L316.409 15.9395L316.362 15.7673C316.242 15.8381 316.073 16.2269 316.087 16.359C316.191 16.4535 316.221 16.4717 316.251 16.6161C316.203 17.1339 315.688 17.7908 315.291 18.1216C314.919 18.4256 314.516 18.689 314.089 18.9073C313.977 18.9647 313.543 19.165 313.472 19.2121C313.077 19.4124 312.425 19.6001 311.988 19.738C308.652 20.7674 305.084 20.7416 301.763 19.6641C301.731 19.653 301.699 19.6412 301.667 19.6285C301.43 19.5886 301.153 19.4583 300.935 19.381C299.561 18.895 298.43 18.0589 297.723 16.7547C297.585 16.5016 297.513 16.5174 297.514 16.1993Z" fill="#FBC53F"/>
<path d="M297.514 16.1993C297.574 15.8136 297.573 15.1406 297.771 14.7925C298.39 13.7042 299.978 12.5077 301.108 12.1148C304.57 10.8786 308.066 10.6002 311.616 11.6363C312.877 12.0042 313.467 12.0984 314.574 12.8751C315.525 13.5424 316.146 13.9988 316.554 15.1667C316.446 15.4792 316.736 15.7587 316.469 15.9392L316.409 15.9395L316.362 15.7673C316.242 15.8381 316.073 16.2269 316.087 16.359C315.659 17.3889 314.808 18.0918 313.75 18.4167C313.927 17.8427 315.096 16.9472 315.248 16.0889C315.396 15.6456 315.141 14.841 314.897 14.4581C314.195 13.3544 312.144 12.4517 310.928 12.1916C308.517 11.6754 305.962 11.7529 303.548 12.1546C302.704 12.3048 301.128 12.9736 300.385 13.4505C299.531 13.9988 299.183 14.5497 298.968 15.5205C298.637 16.7965 300.1 18.1648 301.097 18.6372C301.261 18.7144 301.442 18.8519 301.611 18.9084C301.446 18.9012 301.422 18.9059 301.263 18.9525L301.208 19.0172C301.246 19.3618 301.621 19.4562 301.667 19.6285C301.43 19.5886 301.153 19.4583 300.935 19.381C299.561 18.895 298.43 18.0589 297.723 16.7547C297.585 16.5016 297.513 16.5174 297.514 16.1993Z" fill="#F9CC4F"/>
<path d="M316.087 16.359C316.191 16.4535 316.221 16.4717 316.251 16.6161C316.203 17.1339 315.688 17.7908 315.291 18.1216C314.919 18.4256 314.516 18.689 314.089 18.9073C313.977 18.9647 313.543 19.165 313.472 19.2121C313.077 19.4124 312.425 19.6001 311.988 19.738C308.652 20.7674 305.084 20.7416 301.763 19.6641C301.731 19.653 301.699 19.6412 301.667 19.6285C301.621 19.4562 301.246 19.3618 301.208 19.0172L301.263 18.9525C301.422 18.9059 301.446 18.9012 301.611 18.9084C301.83 19.0405 303.089 19.3973 303.434 19.4917C306.366 20.2955 311.093 19.8876 313.75 18.4167C314.808 18.0918 315.659 17.3889 316.087 16.359Z" fill="#FEEDA5"/>
<path d="M298.968 15.5205C299.183 14.5497 299.531 13.9988 300.385 13.4505C301.128 12.9736 302.704 12.3048 303.548 12.1546C305.962 11.7529 308.517 11.6754 310.928 12.1916C312.144 12.4517 314.195 13.3544 314.897 14.4581C315.141 14.841 315.396 15.6456 315.248 16.0889L315.208 16.0114C315.378 15.4886 314.947 14.7141 314.764 14.2773C314.491 14.8965 315.165 15.3773 315.02 15.7562C314.953 15.6632 314.89 15.3762 314.85 15.2452C314.383 13.7083 312.935 13.1612 311.557 12.7227C310.724 12.4496 309.734 12.1539 308.871 12.1113C305.699 11.9549 301.483 12.0969 299.441 14.9492C299.318 15.1222 299.132 15.3865 298.968 15.5205Z" fill="#D7920A"/>
<path d="M306.302 13.413C307.075 12.8608 307.671 13.0439 308.583 13.082C309.263 13.1105 309.843 13.9719 309.262 14.3921C308.89 14.6611 307.437 14.5085 306.975 14.4842C306.624 14.4589 306.331 14.3334 305.985 14.325C306.306 14.6764 306.642 14.9532 307.112 15.0759C307.273 15.0277 307.257 15.0024 307.378 15.0554C307.409 15.2352 307.375 15.2165 307.487 15.3062C308.464 15.5121 309.597 14.1343 310.677 14.7693C311.555 15.285 311.138 15.6312 310.532 16.0708C309.699 16.151 309.001 16.151 308.179 15.9843C308.003 15.9487 307.549 15.8708 307.402 15.9587C307.458 16.0834 307.584 16.1899 307.679 16.29C308.217 16.8557 308.279 17.0579 308.235 17.783C307.816 17.9727 306.217 18.277 306.181 17.6585C306.093 16.1319 306.853 15.62 304.796 16.3932C303.685 16.8107 301.953 15.8489 303.852 15.1511C304.338 14.9722 304.502 15.1697 304.837 15.4751C305.127 15.7217 305.861 15.5774 306.227 15.504L306.264 15.4431C306.176 15.1562 305.141 14.9118 304.837 14.8775C303.379 14.713 304.18 13.5111 305.23 13.5083C305.712 13.5574 305.981 13.8556 306.263 13.7677C306.332 13.6589 306.309 13.549 306.302 13.413Z" fill="#C78C03"/>
<path d="M306.864 16.4176C307.219 16.5568 307.642 16.9779 307.663 17.4002C307.666 17.459 307.594 17.4905 307.546 17.527C307.275 17.5851 306.985 17.566 306.71 17.5563C306.689 17.0912 306.764 16.8636 306.864 16.4176Z" fill="#FBC53F"/>
<path d="M300.273 26.5876C300.928 27.0871 304.022 27.79 304.886 27.9116C305.688 28.0168 306.496 28.0773 307.305 28.0926C308.058 28.1062 308.751 27.9979 309.494 27.9893C309.703 27.9868 309.672 28.0763 309.737 28.3063L309.516 28.6696C309.132 29.2495 308.917 29.6339 309.001 30.369C308.981 30.4841 308.855 31.2095 308.853 31.2922C308.803 31.5694 308.75 31.5956 308.485 31.6741C307.961 31.6712 307.464 31.7306 306.916 31.7038C304.634 31.5922 302.622 31.0965 300.482 30.3082C300.282 30.2347 300.263 30.2384 300.196 30.0862L300.206 30.0301L300.256 29.7691C300.467 28.6813 300.435 27.6798 300.273 26.5876Z" fill="#C78C03"/>
<path d="M300.206 30.0301C300.507 29.9905 302.673 30.878 303.321 30.9564C304.239 31.0674 305.27 31.2989 306.216 31.3045C307.079 31.3096 308.008 31.2178 308.853 31.2922C308.803 31.5694 308.75 31.5956 308.485 31.6741C307.961 31.6712 307.464 31.7306 306.916 31.7038C304.634 31.5922 302.622 31.0965 300.482 30.3082C300.282 30.2347 300.263 30.2384 300.196 30.0862L300.206 30.0301Z" fill="#A66400"/>
<path d="M316.554 15.1667C316.717 15.7328 316.721 19.1028 316.681 19.8164C316.663 19.8103 316.636 19.8004 316.616 19.7955C316.591 19.7892 316.587 19.7888 316.561 19.7891C316.419 19.7909 316.369 19.9674 316.314 20.081C315.984 20.763 315.657 21.3132 314.996 21.718C314.697 21.9011 314.013 22.3529 313.658 22.2579C313.607 22.2442 313.504 22.2072 313.473 22.1614C313.364 22.0011 313.655 19.5252 313.485 19.2337C313.481 19.2263 313.476 19.2192 313.472 19.2121C313.543 19.165 313.977 18.9647 314.089 18.9073C314.516 18.689 314.919 18.4256 315.291 18.1216C315.688 17.7908 316.203 17.1339 316.251 16.6161C316.221 16.4717 316.191 16.4535 316.087 16.359C316.073 16.2269 316.242 15.8381 316.362 15.7673L316.409 15.9395L316.469 15.9392C316.736 15.7587 316.446 15.4792 316.554 15.1667Z" fill="#FBC53F"/>
<path d="M316.164 21.0255C316.328 20.8135 316.434 20.6627 316.64 20.4873C316.612 21.6741 316.744 23.1052 316.675 24.2532C316.683 24.4385 316.754 25.2743 316.746 25.3477L316.776 25.4092L316.763 25.4927C316.695 25.5258 316.691 25.5434 316.635 25.5308L316.647 25.4517C316.455 25.3437 316.004 25.4665 315.794 25.5296C315.173 25.7159 314.464 25.9114 313.819 26.0007C313.913 25.9156 313.96 25.8842 314.012 25.7642C313.919 25.332 313.848 23.4353 313.709 23.2414C313.898 23.1297 314.254 22.9899 314.475 22.8813C314.437 22.859 314.45 22.8666 314.422 22.8268C314.542 22.7803 314.658 22.7651 314.699 22.675C314.398 22.363 314.275 22.7112 314.051 22.6311C315 22.0852 315.435 21.8644 316.164 21.0255Z" fill="#FBC657"/>
<path d="M316.164 21.0255C316.232 21.096 316.313 21.1493 316.306 21.2354C316.284 21.5415 315.98 21.8492 315.774 22.0408C315.391 22.3934 314.952 22.6776 314.475 22.8813C314.437 22.859 314.45 22.8666 314.422 22.8268C314.542 22.7803 314.658 22.7651 314.699 22.675C314.398 22.363 314.275 22.7112 314.051 22.6311C315 22.0852 315.435 21.8644 316.164 21.0255Z" fill="#FCEDA3"/>
<path d="M316.746 25.3477C316.608 25.1394 315.896 25.5066 315.558 25.3992L315.553 25.3491C315.621 25.2901 315.694 25.2267 315.764 25.1704C316.002 24.9791 316.391 24.302 316.675 24.2532C316.683 24.4385 316.754 25.2743 316.746 25.3477Z" fill="#EFAD1C"/>
<path d="M313.709 23.2414C313.848 23.4353 313.919 25.332 314.012 25.7642C313.96 25.8842 313.913 25.9156 313.819 26.0007C313.113 26.1482 311.977 26.5111 311.37 26.866C311.366 26.8613 311.363 26.8568 311.359 26.852C311.354 26.844 311.349 26.8355 311.343 26.8276C311.069 26.4513 311.325 24.5655 311.118 23.8889C311.899 23.7441 312.961 23.5043 313.709 23.2414Z" fill="#EFAD1C"/>
<path d="M300.229 26.3294L300.41 26.3612C301.379 26.6006 302.388 27.0077 303.304 27.2358C305.349 27.7455 308.464 27.7819 310.525 27.4453C310.262 27.7152 309.969 28.0119 309.737 28.3063C309.672 28.0763 309.703 27.9868 309.494 27.9893C308.751 27.9979 308.058 28.1062 307.305 28.0926C306.496 28.0773 305.688 28.0168 304.886 27.9116C304.022 27.79 300.928 27.0871 300.273 26.5876C300.255 26.5393 300.238 26.389 300.229 26.3294Z" fill="#EFAD1C"/>
<path d="M300.41 26.3612C300.495 26.2581 300.513 26.2267 300.646 26.191C301.094 26.4104 301.637 26.5141 302.115 26.6571C304.487 27.367 306.959 27.4831 309.411 27.2775C309.816 27.2436 310.525 26.8621 310.776 27.2779L310.525 27.4453C308.464 27.7819 305.349 27.7455 303.304 27.2358C302.388 27.0077 301.379 26.6006 300.41 26.3612Z" fill="#924E00"/>
<path d="M314.051 22.6311C314.275 22.7112 314.398 22.363 314.699 22.675C314.658 22.7651 314.542 22.7803 314.422 22.8268C314.45 22.8666 314.437 22.859 314.475 22.8813C314.254 22.9899 313.898 23.1297 313.709 23.2414C312.961 23.5043 311.899 23.7441 311.118 23.8889C311.07 23.9054 311.022 23.921 310.973 23.9356C310.877 23.9642 310.621 24.0193 310.533 23.9717C310.737 23.9713 310.938 23.8918 311.144 23.8389L311.168 23.7849C311.004 23.5934 310.651 23.8643 310.394 23.7847C310.541 23.7974 310.668 23.7173 310.834 23.6902C312.001 23.499 312.979 23.126 314.051 22.6311Z" fill="#FDDE7C"/>
<path d="M300.17 26.0478L300.245 25.9608C300.377 25.9753 300.53 26.1072 300.646 26.191C300.513 26.2267 300.495 26.2581 300.41 26.3612L300.229 26.3294L300.17 26.0478Z" fill="#A56300"/>
<path d="M297.956 20.7067C298.219 20.8303 298.699 21.4792 298.996 21.6799C301.408 23.3049 304.353 23.6663 307.182 23.8043C308.194 23.8537 309.322 23.4977 310.338 23.5875C310.338 23.5875 310.458 23.6772 310.467 23.6843C310.455 23.6898 310.443 23.6954 310.431 23.7009C306.67 24.2979 302.23 23.9985 298.977 21.8561C298.46 21.5158 298.127 21.1423 297.956 20.7067Z" fill="#924E00"/>
<path d="M316.776 25.4092C317.162 25.288 318.66 25.3079 319.114 25.3265C320.715 25.3056 323.099 26.0173 324.577 26.6569C325.056 26.8643 325.784 27.4098 326.231 27.7143C327.047 28.2254 327.866 29.6194 327.947 30.6075C327.946 30.9009 327.847 31.021 327.685 31.2742C327.344 31.9581 326.597 33.0088 325.897 33.3636C325.706 33.4602 325.251 33.6256 325.117 33.761L324.982 33.7848C324.884 33.8925 324.482 34.0111 324.324 34.0776C322.782 34.7241 321.045 34.9146 319.378 34.9769C318.012 35.028 315.875 34.8991 314.557 34.5492C313.099 34.0916 312.724 34.0668 311.371 33.2532C310.969 32.7372 310.415 32.3491 309.923 31.8761C309.772 31.7919 309.616 31.5998 309.494 31.467C309.363 31.1117 309.05 30.7084 309.001 30.369C308.917 29.6339 309.132 29.2495 309.516 28.6696L309.737 28.3063C309.969 28.0119 310.262 27.7152 310.525 27.4453L310.776 27.2779C310.972 27.1371 311.17 26.9998 311.37 26.866C311.977 26.5111 313.113 26.1482 313.819 26.0007C314.464 25.9114 315.173 25.7159 315.794 25.5296C316.004 25.4665 316.455 25.3437 316.647 25.4517L316.635 25.5308C316.691 25.5434 316.695 25.5258 316.763 25.4927L316.776 25.4092Z" fill="#FBC53F"/>
<path d="M313.819 26.0007C314.464 25.9114 315.173 25.7159 315.794 25.5296C316.004 25.4665 316.455 25.3437 316.647 25.4517L316.635 25.5308C316.223 25.6349 314.371 26.0817 314.152 26.3311C314.004 26.3705 313.665 26.4832 313.539 26.5731C312.786 26.8324 312.408 27.1096 311.796 27.594C309.13 29.7029 310.147 32.0215 312.858 33.3062C316.417 34.9929 320.057 34.8311 323.705 33.5502C324.281 33.3455 324.286 33.3275 324.796 33.0148L324.809 33.0815C324.677 33.1761 324.571 33.2549 324.447 33.3591L324.456 33.4099C324.759 33.4653 325.004 33.2327 325.218 33.2667C325.147 33.3391 325.066 33.3914 324.982 33.4462L324.982 33.4755C325.135 33.4006 325.355 33.2723 325.516 33.2681L325.587 33.3189V33.4038C325.383 33.5212 325.177 33.6244 324.968 33.7311L324.982 33.7848C324.884 33.8925 324.482 34.0111 324.324 34.0776C322.782 34.7241 321.045 34.9146 319.378 34.9769C318.012 35.028 315.875 34.8991 314.557 34.5492C313.099 34.0916 312.724 34.0668 311.371 33.2532C310.969 32.7372 310.415 32.3491 309.923 31.8761C309.772 31.7919 309.616 31.5998 309.494 31.467C309.363 31.1117 309.05 30.7084 309.001 30.369C308.917 29.6339 309.132 29.2495 309.516 28.6696L309.737 28.3063C309.969 28.0119 310.262 27.7152 310.525 27.4453L310.776 27.2779C310.972 27.1371 311.17 26.9998 311.37 26.866C311.977 26.5111 313.113 26.1482 313.819 26.0007Z" fill="#FDDE7C"/>
<path d="M309.516 28.6696L309.517 28.6916C309.564 29.4888 309.107 30.195 309.457 31.0319C309.606 31.3862 309.777 31.5735 309.923 31.8761C309.772 31.7919 309.616 31.5998 309.494 31.467C309.363 31.1117 309.05 30.7084 309.001 30.369C308.917 29.6339 309.132 29.2495 309.516 28.6696Z" fill="#EFB941"/>
<path d="M326.261 29.259C326.231 29.0213 326.045 28.8714 326.04 28.7757C326.022 28.3721 326.212 28.0332 325.923 27.6822L325.896 27.6505C326.034 27.7063 326.081 27.7249 326.231 27.7143C327.047 28.2254 327.866 29.6194 327.947 30.6075C327.946 30.9009 327.847 31.021 327.685 31.2742C327.344 31.9581 326.597 33.0088 325.897 33.3636C325.706 33.4602 325.251 33.6256 325.117 33.761L324.982 33.7848L324.968 33.7311C325.177 33.6244 325.383 33.5212 325.587 33.4038V33.3189L325.516 33.2681C325.355 33.2723 325.135 33.4006 324.982 33.4755L324.982 33.4462C325.066 33.3914 325.147 33.3391 325.218 33.2667C325.004 33.2327 324.759 33.4653 324.456 33.4099L324.447 33.3591C324.571 33.2549 324.677 33.1761 324.809 33.0815L324.796 33.0148C324.957 32.7095 326.072 31.8358 326.327 31.2879C326.586 30.7305 326.589 30.3637 326.421 29.7617C326.369 29.5939 326.316 29.4263 326.261 29.259Z" fill="#FED052"/>
<path d="M325.218 33.2667C326.084 32.8727 326.937 31.485 327.505 30.8384L327.584 30.8733C327.666 31.0054 327.667 31.1189 327.685 31.2742C327.344 31.9581 326.597 33.0088 325.897 33.3636C325.706 33.4602 325.251 33.6256 325.117 33.761L324.982 33.7848L324.968 33.7311C325.177 33.6244 325.383 33.5212 325.587 33.4038V33.3189L325.516 33.2681C325.355 33.2723 325.135 33.4006 324.982 33.4755L324.982 33.4462C325.066 33.3914 325.147 33.3391 325.218 33.2667Z" fill="#FCEDA3"/>
<path d="M316.776 25.4092C317.162 25.288 318.66 25.3079 319.114 25.3265C318.786 25.5179 317.103 25.2582 316.77 25.6043L316.758 25.6876C316.865 25.7826 316.864 25.7527 316.894 25.872C317.027 26.2003 317.768 25.8993 318.031 25.9575L318.017 26.0008L317.989 26.0026C317.78 26.0173 317.565 26.0749 317.345 26.0994C316.379 26.2066 315.403 26.3554 314.448 26.5316C314.304 26.5582 314.003 26.7016 313.838 26.7393C313.642 26.7842 313.458 26.8251 313.285 26.9376L313.252 26.9109L313.289 26.7927L313.318 26.7819C313.416 26.7448 313.445 26.7358 313.523 26.6582L313.539 26.5731C313.665 26.4832 314.004 26.3705 314.152 26.3311C314.371 26.0817 316.223 25.6349 316.635 25.5308C316.691 25.5434 316.695 25.5258 316.763 25.4927L316.776 25.4092Z" fill="#EFAD1C"/>
<path d="M316.776 25.4092C317.162 25.288 318.66 25.3079 319.114 25.3265C318.786 25.5179 317.103 25.2582 316.77 25.6043L316.758 25.6876C316.865 25.7826 316.864 25.7527 316.894 25.872C316.199 26.0283 316.171 25.9392 315.5 25.9737C315.185 25.9899 314.495 26.2425 314.152 26.3311C314.371 26.0817 316.223 25.6349 316.635 25.5308C316.691 25.5434 316.695 25.5258 316.763 25.4927L316.776 25.4092Z" fill="#EFB941"/>
<path d="M326.421 29.7617L326.376 29.8377C326.364 29.5461 326.032 28.9475 325.759 28.7872C325.592 28.8799 326.254 29.6485 326.175 29.919C325.551 28.4916 324.788 28.0135 323.436 27.3643C321.73 26.5456 320.212 26.48 318.374 26.3609C318.498 26.3029 319.569 26.3683 319.791 26.3834C319.994 26.3972 320.056 26.3538 320.245 26.3475L320.272 26.3077C319.805 26.3 318.604 26.1927 318.166 26.1084C318.955 26.0232 320.415 26.2949 321.236 26.4145C322.659 26.6218 324.423 27.5211 325.553 28.424C325.808 28.6269 326.074 28.989 326.261 29.259C326.316 29.4263 326.369 29.5939 326.421 29.7617Z" fill="#C17901"/>
<path d="M317.363 27.9832C317.991 27.6849 318.917 27.6128 319.611 27.608C320.075 27.6048 320.288 27.7725 320.573 28.087C320.608 28.5785 320.647 29.0499 320.077 29.1543C319.716 29.1011 318.229 28.8493 318.011 29.0208C318.086 29.1792 318.598 29.4041 318.887 29.7931C319.209 29.6657 320.026 29.3968 320.364 29.3243L320.393 29.3188C320.706 29.262 321.537 29.2273 321.764 29.4305C322.404 30.0015 322.279 30.7795 321.386 30.8275C320.421 30.8795 319.558 30.6313 318.598 30.7348C318.906 31.2041 319.034 31.5982 319.229 32.1209C319.146 32.2484 318.984 32.4453 318.852 32.5198C318.49 32.7256 317.486 32.8217 317.265 32.3617C317.051 31.9153 317.412 31.2177 317.565 30.7663C316.451 30.6494 315.567 31.0196 314.537 30.1317C314.511 29.9481 314.501 29.7778 314.488 29.5935L314.515 29.5455C314.93 28.7963 315.798 28.3778 316.587 28.1535C316.888 28.3685 317.091 28.5138 317.361 28.7626L317.363 27.9832Z" fill="#C78C03"/>
<path d="M316.855 29.2257C317.443 29.181 317.721 29.2301 318.155 29.6837C318.202 29.7329 318.184 29.7554 318.175 29.82C318.058 29.9153 317.646 30.0075 317.478 30.0527C317.095 30.1078 316.323 30.2004 316.085 29.8352C316.053 29.4687 316.568 29.3172 316.855 29.2257Z" fill="#EFAD1C"/>
<path d="M318.099 31.3879C318.323 31.3754 318.732 31.6772 318.721 31.9691C318.62 32.0783 318.606 32.0505 318.431 32.0888C317.769 32.1982 317.485 31.6804 318.099 31.3879Z" fill="#EFAD1C"/>
<path d="M309.001 30.369C309.05 30.7084 309.363 31.1117 309.494 31.467C309.616 31.5998 309.772 31.7919 309.923 31.8761C310.415 32.3491 310.969 32.7372 311.371 33.2532C312.724 34.0668 313.099 34.0916 314.557 34.5492C315.875 34.8991 318.012 35.028 319.378 34.9769C321.045 34.9146 322.782 34.7241 324.324 34.0776C324.482 34.0111 324.884 33.8925 324.982 33.7848L325.117 33.761C325.251 33.6256 325.706 33.4602 325.897 33.3636C326.597 33.0088 327.344 31.9581 327.685 31.2742C327.847 31.021 327.946 30.9009 327.947 30.6075C328.053 31.2529 327.975 32.6516 327.924 33.3274C327.898 33.6549 327.796 34.1049 327.773 34.4213L327.8 34.7044C327.758 35.1263 326.88 36.1283 326.545 36.3873C325.911 36.8767 325.005 37.337 324.282 37.6885C322.784 38.1756 321.817 38.4783 320.232 38.6674C320.075 38.6601 319.85 38.6746 319.793 38.4963C319.913 38.4296 320.074 38.4144 320.157 38.3454C319.961 38.3053 318.806 38.4779 318.446 38.4601C317.607 38.4187 316.806 38.2946 315.974 38.1925C315.95 38.1728 315.046 38.0255 314.83 37.9336C314.785 37.862 314.524 37.7816 314.424 37.7429L314.479 37.6621L313.412 37.3065C311.232 36.5747 309.421 35.443 308.952 33.2143C308.949 33.2093 308.947 33.2044 308.944 33.1995C308.859 32.9245 308.863 32.2759 308.867 31.9836C308.677 32.0166 308.418 32.0073 308.22 32.0072C308.304 31.9941 308.388 31.9802 308.471 31.9655C308.614 31.9399 308.849 31.9116 308.931 31.793L308.912 31.7175C308.74 31.5905 308.745 31.638 308.485 31.6741C308.75 31.5956 308.803 31.5694 308.853 31.2922C308.855 31.2095 308.981 30.4841 309.001 30.369Z" fill="#D19109"/>
<path d="M327.947 30.6075C328.053 31.2529 327.975 32.6516 327.924 33.3274C327.898 33.6549 327.796 34.1049 327.773 34.4213L327.712 34.3918C327.441 34.8423 326.365 36.2757 325.866 36.4155C325.851 36.2178 326.218 36.265 326.294 35.8975C326.066 35.8933 325.683 35.6052 325.474 35.6545C325.465 35.7627 325.454 35.8708 325.441 35.9786C325.348 35.45 325.543 34.444 325.324 33.8974C325.279 33.7871 325.219 33.7903 325.117 33.761C325.251 33.6256 325.706 33.4602 325.897 33.3636C326.597 33.0088 327.344 31.9581 327.685 31.2742C327.847 31.021 327.946 30.9009 327.947 30.6075Z" fill="#EFB941"/>
<path d="M325.866 36.4155C326.365 36.2757 327.441 34.8423 327.712 34.3918L327.773 34.4213L327.8 34.7044C327.758 35.1263 326.88 36.1283 326.545 36.3873C325.911 36.8767 325.005 37.337 324.282 37.6885C322.784 38.1756 321.817 38.4783 320.232 38.6674C320.075 38.6601 319.85 38.6746 319.793 38.4963C319.913 38.4296 320.074 38.4144 320.157 38.3454C322.285 38.1162 324.067 37.6085 325.866 36.4155Z" fill="#FCEDA3"/>
<path d="M309.494 31.467C309.616 31.5998 309.772 31.7919 309.923 31.8761C310.415 32.3491 310.969 32.7372 311.371 33.2532L311.147 33.1928L311.112 33.1753C310.477 32.8538 309.722 32.1652 309.494 31.467Z" fill="#FBC53F"/>
<path d="M311.147 33.1928L311.371 33.2532C312.724 34.0668 313.099 34.0916 314.557 34.5492C314.225 34.6205 313.588 34.6372 313.296 34.4621C313.42 34.4507 313.522 34.4661 313.599 34.397C313.497 34.2974 312.918 34.1425 312.75 34.0656C312.432 33.921 311.309 33.4363 311.147 33.1928Z" fill="#EFAD1C"/>
<path d="M327.8 34.7044C327.973 35.2443 327.997 37.2367 327.87 37.8058C327.63 38.0431 327.471 38.4015 327.259 38.6772C326.548 39.6076 325.585 40.3097 324.487 40.6982C324.741 40.3768 326.05 39.9794 326.187 39.5716C325.659 39.2518 325.573 38.277 325.053 37.8059C324.513 37.3164 324.786 37.7636 324.282 37.6885C325.005 37.337 325.911 36.8767 326.545 36.3873C326.88 36.1283 327.758 35.1263 327.8 34.7044Z" fill="#EFB941"/>
<path d="M327.867 37.9969C327.946 38.628 327.868 39.339 327.918 39.9691C328.037 41.4834 327.454 42.3525 326.245 43.2029C326.22 43.1509 326.231 43.1734 326.236 43.1019C326.288 43.0615 326.418 42.9643 326.426 42.9051C326.455 42.3376 325.889 41.7501 325.578 41.305C325.42 41.0787 325.329 41.1731 325.219 40.8351C325.06 40.8115 324.766 41.0787 324.372 41.1006L324.354 41.1015C326.034 40.3528 326.63 40.0477 327.835 38.5345L327.867 37.9969Z" fill="#EFB941"/>
<path d="M324.487 40.6982C325.585 40.3097 326.548 39.6076 327.259 38.6772C327.471 38.4015 327.63 38.0431 327.87 37.8058L327.867 37.9969L327.835 38.5345C326.63 40.0477 326.034 40.3528 324.354 41.1015C321.964 42.024 320.486 42.2089 317.918 42.104C317.802 42.0043 317.795 42.0762 317.595 42.0427C317.631 41.9821 317.642 41.941 317.724 41.9322C318.209 41.88 319.141 41.9395 319.58 41.8231C321.078 41.7332 323.136 41.3607 324.487 40.6982Z" fill="#FCEDA3"/>
<path d="M303.545 34.9498L303.571 34.9641C303.716 35.767 308.039 35.2865 308.715 35.4436C308.701 35.6432 308.729 35.6715 308.635 35.818C308.199 36.0024 305.833 35.8898 305.183 35.8298C304.717 35.7868 304.114 35.6443 303.598 35.648C303.59 35.8642 303.585 36.2945 303.542 36.4869C303.522 36.0318 303.542 35.4166 303.545 34.9498Z" fill="#C78C03"/>
<path d="M308.944 33.1995C308.947 33.2044 308.949 33.2093 308.952 33.2143C309.421 35.443 311.232 36.5747 313.412 37.3065L314.479 37.6621L314.424 37.7429C314.524 37.7816 314.785 37.862 314.83 37.9336C314.474 37.8883 313.454 37.515 313.13 37.3781C311.919 36.8663 310.685 36.3042 309.758 35.34C309.584 35.1466 309.274 34.9236 309.157 34.6891C308.898 34.1686 308.597 33.8233 308.832 33.2389C308.901 33.1937 308.865 33.2047 308.944 33.1995Z" fill="#975400"/>
<path d="M303.571 34.9641C304.204 34.8141 305.741 35.2814 306.461 35.2414C306.912 35.2164 307.423 35.2791 307.891 35.2186C308.112 35.19 308.686 35.1119 308.879 35.1748L308.943 35.2404C308.919 35.3781 308.855 35.414 308.715 35.4436C308.039 35.2865 303.716 35.767 303.571 34.9641Z" fill="#924E00"/>
<path d="M315.974 38.1925C316.806 38.2946 317.607 38.4187 318.446 38.4601C318.806 38.4779 319.961 38.3053 320.157 38.3454C320.074 38.4144 319.913 38.4296 319.793 38.4963C319.85 38.6746 320.075 38.6601 320.232 38.6674C319.621 38.8096 316.558 38.6628 315.893 38.5131C315.958 38.4937 315.953 38.4937 315.999 38.4426C315.989 38.3016 316.008 38.3544 315.933 38.2396L315.974 38.1925Z" fill="#FBC53F"/>
<path d="M314.914 41.3851C315.4 41.513 316.119 41.6381 316.626 41.6673C317.243 41.9046 318.903 41.791 319.58 41.8231C319.141 41.9395 318.209 41.88 317.724 41.9322C317.642 41.941 317.631 41.9821 317.595 42.0427C317.795 42.0762 317.802 42.0043 317.918 42.104C317.423 42.2199 315.277 41.8979 314.729 41.7231L314.746 41.6968L314.948 41.7381C315.06 41.7001 315.05 41.6722 315.129 41.5582L315.109 41.4984C315.007 41.4693 314.934 41.4531 314.831 41.433L314.914 41.3851Z" fill="#EFAD1C"/>
<path d="M309.942 38.9373C310.033 38.8818 310.028 38.906 310.159 38.9384C311.68 40.3777 314.036 40.9944 316.037 41.3881C315.944 41.4592 315.9 41.4141 315.799 41.3959C315.413 41.3259 315 41.221 314.61 41.1962C314.696 41.2342 314.828 41.2733 314.901 41.3097C315.156 41.4375 316.469 41.5307 316.626 41.6673C316.119 41.6381 315.4 41.513 314.914 41.3851C314.727 41.2999 314.085 41.1476 313.831 41.0602C312.471 40.5917 310.992 39.9552 309.942 38.9373Z" fill="#924E00"/>
<path d="M309.942 38.9373C309.698 38.769 309.46 38.3201 309.306 38.0548L309.322 38.0013L309.261 37.9594L309.296 38.0285L309.275 37.9579C309.385 37.9996 310.05 38.813 310.159 38.9384C310.028 38.906 310.033 38.8818 309.942 38.9373Z" fill="#A56300"/>
<path d="M31.3942 13.1665C33.3119 12.7542 36.1615 13.1633 38.02 13.7863C38.6367 13.993 39.2056 14.292 39.8064 14.5115C40.6838 14.8321 41.9387 15.1619 42.7192 15.6597C44.1483 16.2788 45.2546 17.6288 46.0625 18.9C46.4609 19.527 47.0056 20.0654 47.4573 20.6536C48.2149 21.7206 49.2592 23.3811 49.5265 24.6664C49.6605 25.2348 49.9719 25.5034 50.1485 26.0169C50.4293 26.8322 50.5484 27.7474 50.7168 28.5962C50.9419 29.8837 51.0752 31.0712 50.9546 32.3863C50.8941 33.0488 50.6283 33.7056 50.4479 34.3425C49.6501 38.0063 47.4962 41.2696 44.4459 43.4733C44.1629 43.6777 43.8657 43.9094 43.564 44.0907C41.6691 45.0074 39.8367 46.2044 37.6535 46.2307C36.7829 46.2414 36.1911 46.5409 35.3792 46.73C33.7285 47.1143 32.0076 47.088 30.3696 46.6534C29.2516 46.3595 28.5598 45.9479 27.4796 45.6832L26.9043 45.5958C26.2636 45.4974 25.4547 45.1307 24.8665 44.8408C23.7453 44.2882 23.2611 43.8587 22.6291 42.7913C22.1882 42.7716 21.765 42.6996 21.3885 42.4318C20.381 41.7152 19.3718 40.5827 18.8173 39.4796C18.6591 39.1647 18.5342 38.587 18.3747 38.3285C17.9478 37.6367 17.7002 37.362 17.4055 36.589C17.0877 35.7554 17.0287 35.0574 16.795 34.2709C16.6004 33.6159 16.3798 33.2863 16.2139 32.5139C15.8982 31.0442 15.9584 30.0232 16.2223 28.5436C16.2575 28.3462 16.5187 27.8797 16.5241 27.7801C16.5449 27.3994 16.4798 27.0135 16.5629 26.6089C16.6369 26.2482 16.7547 25.8952 16.8501 25.5437C17.3082 23.8575 18.0793 22.329 19.0418 20.8756C19.8939 19.5887 20.9427 18.471 22.1652 17.5256C22.6695 17.1356 23.1156 16.7036 23.6905 16.3698C24.2265 16.0585 24.7842 15.8146 25.3296 15.5234C25.507 15.4383 25.7345 15.1966 25.8992 15.1276C26.7323 14.7786 27.5865 14.2213 28.4208 13.922C29.3586 13.5856 30.4205 13.3706 31.3942 13.1665Z" fill="#F9C356"/>
<path d="M22.6291 42.7913C22.1882 42.7716 21.765 42.6996 21.3885 42.4318C20.381 41.7152 19.3718 40.5827 18.8173 39.4796C18.6591 39.1647 18.5342 38.587 18.3747 38.3285C17.9478 37.6367 17.7002 37.362 17.4055 36.589C17.0877 35.7554 17.0287 35.0574 16.795 34.2709C16.6004 33.6159 16.3798 33.2863 16.2139 32.5139C15.8982 31.0442 15.9584 30.0232 16.2223 28.5436C16.2575 28.3462 16.5187 27.8797 16.5241 27.7801C16.5449 27.3994 16.4798 27.0135 16.5629 26.6089C16.6369 26.2482 16.7547 25.8952 16.8501 25.5437C17.3082 23.8575 18.0793 22.329 19.0418 20.8756C19.8939 19.5887 20.9427 18.471 22.1652 17.5256C22.6695 17.1356 23.1156 16.7036 23.6905 16.3698C24.2265 16.0585 24.7842 15.8146 25.3296 15.5234C25.507 15.4383 25.7345 15.1966 25.8992 15.1276C26.7323 14.7786 27.5865 14.2213 28.4208 13.922C29.3586 13.5856 30.4205 13.3706 31.3942 13.1665C31.43 13.3367 31.7889 13.6993 31.9449 13.7392C31.3088 13.8216 29.5201 14.1946 28.9715 14.4714L29.2594 14.4559C28.8789 14.59 28.2189 14.7919 27.9249 15.045L27.92 15.1634C27.8659 15.1852 27.8352 15.1973 27.7824 15.2229L27.8599 15.2644C27.6243 15.3979 26.63 15.8596 26.5166 15.9808C26.5284 15.8415 26.466 15.8225 26.3658 15.7649L26.362 15.6973C26.2032 15.7918 26.028 15.8971 25.8629 15.9788C22.184 17.7978 19.606 20.3616 18.0213 24.1807C17.4704 25.2695 17.2215 26.8073 17.0431 28.0004C17.027 28.1079 16.9074 28.0619 16.8836 28.1535C16.7956 28.3593 16.7493 28.9184 16.7743 29.1302C16.6476 30.4279 16.5775 31.5813 16.9086 32.879C16.9912 33.2024 17.282 33.7533 17.3411 34.0417C17.5098 34.9529 17.7436 35.7628 18.0922 36.6187C18.2979 37.1236 18.864 37.7767 18.9964 38.1502C19.5954 39.8401 20.5637 41.2335 22.1802 42.1068C22.2885 42.1653 22.674 42.1779 22.8093 42.2062C23.051 42.4324 23.2646 42.8726 23.5127 43.1117C23.9822 43.5643 24.4708 43.8487 25.0266 44.1508C25.3235 44.5899 26.7197 44.9458 27.2468 44.967C27.8683 44.9675 28.188 45.1975 28.7101 45.4251C30.1978 46.0737 31.9451 46.5076 33.5789 46.3602C33.7303 46.3465 33.8961 46.344 34.0507 46.3366C34.8246 46.2481 35.4403 46.0323 36.1881 45.9242C36.5505 45.8361 36.8535 45.7439 37.2288 45.6795C38.1482 45.5222 38.9661 45.5003 39.8563 45.1994C40.5519 44.9644 41.1514 44.4937 41.734 44.2508C42.7444 43.8294 42.9897 43.7915 43.8855 43.086C44.435 42.625 45.1616 42.1676 45.6328 41.6825C46.5195 40.7696 47.4895 39.6751 48.0909 38.5489C48.8462 37.6179 49.2655 35.7217 49.6818 34.5981C49.9891 33.769 50.1604 33.1229 50.2508 32.2402C50.349 31.2812 50.2329 30.3772 50.2284 29.4297C50.2482 29.1109 50.3303 28.8769 50.669 28.7427L50.7168 28.5962C50.9419 29.8837 51.0752 31.0712 50.9546 32.3863C50.8941 33.0488 50.6283 33.7056 50.4479 34.3425C49.6501 38.0063 47.4962 41.2696 44.4459 43.4733C44.1629 43.6777 43.8657 43.9094 43.564 44.0907C41.6691 45.0074 39.8367 46.2044 37.6535 46.2307C36.7829 46.2414 36.1911 46.5409 35.3792 46.73C33.7285 47.1143 32.0076 47.088 30.3696 46.6534C29.2516 46.3595 28.5598 45.9479 27.4796 45.6832L26.9043 45.5958C26.2636 45.4974 25.4547 45.1307 24.8665 44.8408C23.7453 44.2882 23.2611 43.8587 22.6291 42.7913Z" fill="#5E1302"/>
<path d="M27.2468 44.967C27.8683 44.9675 28.188 45.1975 28.7101 45.4251C30.1978 46.0737 31.9451 46.5076 33.5789 46.3602C33.7303 46.3465 33.8961 46.344 34.0507 46.3366C32.287 46.8822 29.5488 46.13 27.9745 45.2544C27.7802 45.1464 27.46 45.0512 27.2468 44.967Z" fill="#631003"/>
<path d="M43.8855 43.086C43.6077 43.6417 42.2823 44.094 41.7511 44.3497C41.053 44.6857 40.4159 45.1077 39.6686 45.3599C39.2814 45.4907 38.7463 45.4866 38.4368 45.6036L38.4407 45.6299C38.5075 45.6325 38.6288 45.6321 38.6883 45.6488C38.5079 45.7013 38.4077 45.6758 38.2392 45.7154C38.1591 45.7343 37.8926 45.9123 37.8093 45.9212C37.2993 45.9767 36.6905 45.9808 36.1881 45.9242C36.5505 45.8361 36.8535 45.7439 37.2288 45.6795C38.1482 45.5222 38.9661 45.5003 39.8563 45.1994C40.5519 44.9644 41.1514 44.4937 41.734 44.2508C42.7444 43.8294 42.9897 43.7915 43.8855 43.086Z" fill="#631003"/>
<path d="M26.362 15.6973C26.8144 15.3862 28.4179 14.6116 28.9715 14.4714L29.2594 14.4559C28.8789 14.59 28.2189 14.7919 27.9249 15.045L27.92 15.1634C27.8659 15.1852 27.8352 15.1973 27.7824 15.2229L27.8599 15.2644C27.6243 15.3979 26.63 15.8596 26.5166 15.9808C26.5284 15.8415 26.466 15.8225 26.3658 15.7649L26.362 15.6973Z" fill="#F4BD70"/>
<path d="M26.9043 45.5958C26.7989 45.4833 26.7955 45.5144 26.7737 45.3883C26.9274 45.2728 27.5865 45.3597 27.6842 45.5903C27.6381 45.6743 27.5812 45.6854 27.4796 45.6832L26.9043 45.5958Z" fill="#631003"/>
<path d="M16.7743 29.1302C16.7493 28.9184 16.7956 28.3593 16.8836 28.1535C16.9074 28.0619 17.027 28.1079 17.0431 28.0004C17.2215 26.8073 17.4704 25.2695 18.0213 24.1807C17.9934 24.3613 17.965 24.5061 17.9712 24.6894L17.9107 24.8257C18.0801 24.8861 18.2082 24.812 18.384 24.7489C18.8677 24.665 19.5759 24.8367 19.9297 25.1773C20.3479 25.4991 20.7107 25.864 20.939 26.3492C20.9535 26.44 20.973 26.5476 20.9799 26.639C21.0748 27.894 19.9499 29.4776 18.7426 29.7998C18.1278 29.6394 17.6464 29.5101 17.2978 28.8684C17.2073 28.7018 17.2193 28.5246 17.0833 28.3601L17.0447 28.3569C16.9796 28.6662 16.8586 28.7356 16.7743 29.1302Z" fill="#984819"/>
<path d="M18.384 24.7489C18.8677 24.665 19.5759 24.8367 19.9297 25.1773C19.4392 25.0507 18.9306 24.8272 18.4276 24.868C18.2036 24.8861 18.0452 25.0415 17.8779 25.0214C17.8469 24.9276 17.8635 24.9453 17.9107 24.8257C18.0801 24.8861 18.2082 24.812 18.384 24.7489Z" fill="#F4BD70"/>
<path d="M42.3198 16.1536L42.3714 16.1255C42.2384 15.937 40.5786 15.3575 40.2442 15.2196C40.3251 15.1183 40.3323 15.0604 40.3843 14.947C40.3995 14.9139 40.476 14.8204 40.4859 14.8228C41.2357 15.0066 41.9461 15.3661 42.6447 15.6845C42.6695 15.6762 42.6944 15.668 42.7192 15.6597C44.1483 16.2788 45.2546 17.6288 46.0625 18.9C46.4609 19.527 47.0056 20.0654 47.4573 20.6536C48.2149 21.7206 49.2592 23.3811 49.5265 24.6664C49.4959 24.8874 49.547 24.9386 49.4126 25.0956C49.2924 25.063 49.0329 24.7033 48.866 24.5885C48.5397 23.9288 48.514 24.0347 47.9983 23.5928C47.917 23.2993 47.9192 22.6047 47.8061 22.37C47.3711 21.4253 46.4672 20.644 45.8829 19.7993C44.7487 18.1599 44.1636 17.1294 42.3198 16.1536Z" fill="#5E1302"/>
<path d="M31.3942 13.1665C33.3119 12.7542 36.1615 13.1633 38.02 13.7863C38.6367 13.993 39.2056 14.292 39.8064 14.5115C40.6838 14.8321 41.9387 15.1619 42.7192 15.6597C42.6944 15.668 42.6695 15.6762 42.6447 15.6845C41.9461 15.3661 41.2357 15.0066 40.4859 14.8228C40.476 14.8204 40.3995 14.9139 40.3843 14.947C40.3323 15.0604 40.3251 15.1183 40.2442 15.2196C40.5786 15.3575 42.2384 15.937 42.3714 16.1255L42.3198 16.1536C41.0413 15.5725 39.7476 15.1424 38.4431 14.6254C36.301 13.7762 34.2394 13.4769 31.9449 13.7392C31.7889 13.6993 31.43 13.3367 31.3942 13.1665Z" fill="#631003"/>
<path d="M25.0266 44.1508C25.622 44.417 26.3031 44.7643 26.9783 44.8012C27.4339 44.826 28.2078 44.4685 28.6373 44.5416C29.0161 44.606 29.2789 45.1237 29.7521 45.2094C29.5567 45.2126 29.2361 45.0186 29.0795 44.9098C28.8637 45.0725 28.6824 45.1077 28.6017 45.1781L28.6164 45.2351C29.4386 45.5033 30.1926 45.8079 31.0398 46.0045C32.1845 46.2703 33.2499 46.2932 34.4098 46.0948C34.6666 46.0512 34.9748 46.0604 35.2329 46.0034C35.5732 45.892 35.8573 45.7465 36.2141 45.6817C38.16 45.3994 40.0334 45.2364 41.6965 44.0783C41.9524 43.9323 42.4442 43.8627 42.6769 43.7092C43.5452 43.1366 44.5792 42.4602 45.3793 41.8206C45.8706 41.4274 46.4247 40.6512 46.8693 40.1834C47.2714 39.7602 47.6186 38.9529 48.0682 38.559C48.076 38.5556 48.0835 38.5523 48.0909 38.5489C47.4895 39.6751 46.5195 40.7696 45.6328 41.6825C45.1616 42.1676 44.435 42.625 43.8855 43.086C42.9897 43.7915 42.7444 43.8294 41.734 44.2508C41.1514 44.4937 40.5519 44.9644 39.8563 45.1994C38.9661 45.5003 38.1482 45.5222 37.2288 45.6795C36.8535 45.7439 36.5505 45.8361 36.1881 45.9242C35.4403 46.0323 34.8246 46.2481 34.0507 46.3366C33.8961 46.344 33.7303 46.3465 33.5789 46.3602C31.9451 46.5076 30.1978 46.0737 28.7101 45.4251C28.188 45.1975 27.8683 44.9675 27.2468 44.967C26.7197 44.9458 25.3235 44.5899 25.0266 44.1508Z" fill="#D37F2B"/>
<path d="M20.939 26.3492C21.5165 26.9081 21.9374 27.2215 21.9103 28.0822C21.8529 29.9009 20.1585 30.2056 18.7426 29.7998C19.9499 29.4776 21.0748 27.894 20.9799 26.639C20.973 26.5476 20.9535 26.44 20.939 26.3492Z" fill="#B36D33"/>
<path d="M26.5628 16.2607L26.5994 16.2354C26.6393 16.2075 26.6499 16.1991 26.6842 16.1627C26.8181 16.1455 26.8073 16.1258 26.9118 16.1716C26.9035 16.345 26.7901 16.4497 26.6768 16.5949C26.304 16.9319 25.9858 17.1057 25.5329 17.3048C25.3374 17.4119 24.9894 17.5302 24.8171 17.6601C23.601 18.5767 22.3255 19.4653 21.3809 20.673C21.1225 21.0035 20.9167 21.1835 20.5368 21.3629C20.8425 20.7099 22.0841 19.264 22.6475 18.7559C23.3948 18.0819 24.6449 17.5007 25.5078 16.9459C25.8472 16.7277 26.2147 16.4606 26.5628 16.2607Z" fill="#F7F6F2"/>
<path d="M48.866 24.5885C49.0329 24.7033 49.2924 25.063 49.4126 25.0956C49.547 24.9386 49.4959 24.8874 49.5265 24.6664C49.6605 25.2348 49.9719 25.5034 50.1485 26.0169C50.4293 26.8322 50.5484 27.7474 50.7168 28.5962L50.669 28.7427C50.3303 28.8769 50.2482 29.1109 50.2284 29.4297C50.1511 29.1543 50.0981 28.5959 50.0163 28.2616C49.7106 27.0096 49.4029 25.7632 48.866 24.5885Z" fill="#631003"/>
<path d="M31.8028 13.9008C31.9453 13.9033 31.9701 13.881 32.0791 13.9494C31.9614 14.1987 29.653 14.474 29.2089 14.7318C28.7568 14.8888 28.3124 15.0966 27.8599 15.2644L27.7824 15.2229C27.8352 15.1973 27.8659 15.1852 27.92 15.1634L27.9249 15.045C28.2189 14.7919 28.8789 14.59 29.2594 14.4559C29.6354 14.2692 31.3012 13.9724 31.8028 13.9008Z" fill="#F8E6C8"/>
<path d="M31.8028 13.9008C32.0982 13.8386 33.0266 13.7316 33.2801 13.8172C33.3207 13.8553 33.3093 13.8322 33.316 13.8855C33.1365 14.1246 32.2644 14.0985 31.9773 14.1448C31.4701 14.2265 30.973 14.346 30.4729 14.4619C30.2304 14.515 29.369 14.7518 29.2089 14.7318C29.653 14.474 31.9614 14.1987 32.0791 13.9494C31.9701 13.881 31.9453 13.9033 31.8028 13.9008Z" fill="#F4BD70"/>
<path d="M26.0986 16.0456L26.1239 16.0961C25.8322 16.4157 25.3403 16.8837 24.8437 16.7726L24.8669 16.7096C25.1575 16.4726 25.7476 16.1967 26.0986 16.0456Z" fill="#FCE2B6"/>
<path d="M26.3658 15.7649C26.466 15.8225 26.5284 15.8415 26.5166 15.9808C26.7225 16.0989 27.0356 16.0285 27.1148 16.2349C27.0407 16.3797 26.821 16.4994 26.6768 16.5949C26.7901 16.4497 26.9035 16.345 26.9118 16.1716C26.8073 16.1258 26.8181 16.1455 26.6842 16.1627C26.6499 16.1991 26.6393 16.2075 26.5994 16.2354L26.5628 16.2607C26.5007 16.2286 26.2222 16.1358 26.1239 16.0961L26.0986 16.0456C26.1335 15.9439 26.2766 15.8421 26.3658 15.7649Z" fill="#FCE2B6"/>
<path d="M35.6606 29.8747C36.2323 29.848 36.9412 29.8838 37.1013 30.5314C37.5163 32.2105 36.2308 33.84 34.746 34.3432C33.8632 34.6353 32.8995 34.5669 32.0677 34.1531C30.9269 33.63 30.2286 32.6801 30.0693 31.4466C29.8909 30.0648 31.6158 30.1712 32.5698 30.0898C33.5981 29.9922 34.6287 29.9204 35.6606 29.8747Z" fill="#5E1302"/>
<path d="M33.5637 31.9072C33.6129 31.9019 33.6621 31.8983 33.7115 31.8962C34.5737 31.8602 35.4454 32.0353 36.0987 32.6243C35.5082 33.4747 34.9464 33.6905 33.996 33.9455C33.9592 33.9489 33.9224 33.9516 33.8855 33.9536C32.7845 34.0126 32.1918 33.6739 31.4147 32.9813C32.0596 32.3013 32.6175 32.0131 33.5637 31.9072Z" fill="#ED6D49"/>
<path d="M35.035 15.4664C35.9288 15.4396 36.2706 15.604 36.9698 16.1715C37.8788 16.9095 38.2317 18.1707 37.3965 19.108C36.9521 19.6066 36.3134 19.6945 35.6667 19.7297C34.5031 19.712 33.1054 19.085 32.8159 17.8418C32.5524 16.7098 34.0237 15.6406 35.035 15.4664Z" fill="#A3541D"/>
<path d="M39.2327 25.058C40.4677 24.8704 41.6214 25.7133 41.8066 26.9384C41.9918 28.1634 41.1379 29.3045 39.9017 29.4841C38.6712 29.6629 37.5267 28.821 37.3424 27.6016C37.1581 26.3822 38.0034 25.2447 39.2327 25.058Z" fill="#5E1302"/>
<path d="M38.8917 25.8351C39.7429 25.9657 39.788 27.0116 38.9212 27.2878C38.5726 27.245 38.3204 27.0728 38.2337 26.7221C38.1845 26.5299 38.2175 26.326 38.3249 26.1586C38.467 25.9393 38.653 25.8812 38.8917 25.8351Z" fill="#F7F6F2"/>
<path d="M40.4401 27.7359C40.5645 27.6785 40.7104 27.6923 40.8216 27.7721C40.9328 27.8518 40.9917 27.9849 40.9757 28.1201C40.9596 28.2552 40.8711 28.3711 40.7442 28.423C40.554 28.5008 40.3359 28.4138 40.2532 28.227C40.1705 28.0401 40.2535 27.822 40.4401 27.7359Z" fill="#F7F6F2"/>
<path d="M27.3002 25.5031C30.1448 25.3495 30.6112 29.4616 27.8428 30.0098C26.4264 30.0678 25.5802 29.4797 25.3676 28.0314C25.1837 26.7774 25.9939 25.6233 27.3002 25.5031Z" fill="#5E1302"/>
<path d="M26.6003 26.4194C26.959 26.308 27.3412 26.5034 27.4577 26.8577C27.5742 27.212 27.3816 27.5932 27.0257 27.7128C26.7917 27.7915 26.5332 27.7393 26.3488 27.5763C26.1644 27.4134 26.0827 27.1647 26.1347 26.9253C26.1867 26.6858 26.3646 26.4926 26.6003 26.4194Z" fill="#F7F6F2"/>
<path d="M28.4131 28.2454C28.5466 28.2148 28.6861 28.259 28.7771 28.3605C28.868 28.4619 28.8958 28.6045 28.8496 28.7323C28.8034 28.8601 28.6905 28.9526 28.5552 28.9737C28.3561 29.0046 28.168 28.8737 28.1297 28.6775C28.0915 28.4813 28.2168 28.2903 28.4131 28.2454Z" fill="#F7F6F2"/>
<path d="M42.2808 34.386C43.6028 34.2681 44.3353 34.9851 44.5959 36.2444C44.6934 36.7154 44.3988 37.3643 44.1214 37.7368C43.729 38.2644 43.2699 38.4678 42.6284 38.5595C42.1056 38.5028 41.6352 38.4635 41.179 38.1598C40.7298 37.8529 40.3277 37.1953 40.2497 36.658C40.0595 35.3474 41.1476 34.5799 42.2808 34.386Z" fill="#984819"/>
<path d="M25.5213 37.916C25.0243 38.5067 24.1241 38.7011 23.3711 38.5453C22.6804 38.3774 22.1663 37.7447 21.9647 37.093C21.9437 37.025 22.0422 36.7944 22.059 36.7178C22.1046 36.5101 22.1373 36.301 22.1845 36.0937C22.415 35.0802 23.5862 34.6221 24.5303 34.8814C25.1276 35.0454 25.4188 35.3334 25.7119 35.8533C26.2799 36.3966 26.1409 37.462 25.5213 37.916Z" fill="#B36D33"/>
<path d="M25.7119 35.8533C26.2799 36.3966 26.1409 37.462 25.5213 37.916C25.5758 37.8169 25.6293 37.7172 25.6816 37.6169C26.0214 36.9654 25.9257 36.5218 25.7119 35.8533Z" fill="#F4BD70"/>
<path d="M26.3726 19.0945C26.8118 19.0395 27.3931 19.076 27.7694 19.3284C28.1386 19.5774 28.3915 19.9629 28.4713 20.3985C28.6987 21.7114 27.8516 22.4716 26.626 22.681C25.7208 22.8036 24.7368 22.7126 24.5331 21.6371C24.2931 20.3694 25.1017 19.3076 26.3726 19.0945Z" fill="#984819"/>
<path d="M33.7877 40.0978C34.0697 39.3417 34.6939 38.958 35.4826 38.851C36.0008 38.7807 36.2713 38.8451 36.6687 39.1467C37.17 39.554 37.113 39.9368 37.109 40.5526C37.1296 41.3779 36.2664 42.1401 35.452 41.8207C35.2074 41.7248 34.9798 41.4415 34.7611 41.3004C34.3905 41.0611 34.0959 40.9884 33.7875 40.6538C33.7762 40.4771 33.7552 40.2699 33.7877 40.0978Z" fill="#984819"/>
<path d="M36.6687 39.1467C37.17 39.554 37.113 39.9368 37.109 40.5526C37.1296 41.3779 36.2664 42.1401 35.452 41.8207C35.2074 41.7248 34.9798 41.4415 34.7611 41.3004C34.3905 41.0611 34.0959 40.9884 33.7875 40.6538C33.7762 40.4771 33.7552 40.2699 33.7877 40.0978C33.8743 40.8503 34.2126 40.7842 34.7607 41.1445C34.996 41.2995 35.2243 41.5896 35.4939 41.6823C36.732 42.1082 37.0413 40.9268 36.9276 39.9633C36.8832 39.5864 36.8225 39.4712 36.6687 39.1467Z" fill="#D37F2B"/>
<path d="M40.7828 19.4262C40.9308 19.4087 41.1344 19.4177 41.2883 19.4204C41.9317 19.8494 42.4947 20.6244 42.5166 21.4028C42.5379 22.1586 41.8564 22.6909 41.1388 22.6734C40.2862 22.451 38.7859 21.4621 39.445 20.4436C39.722 20.0156 40.2721 19.5398 40.7828 19.4262Z" fill="#AA5921"/>
<path d="M18.5534 23.3175C18.8574 22.635 20.4454 19.88 21.0489 19.6847L21.1059 19.726C21.1422 20.1518 20.3046 20.866 20.1949 21.235C20.0677 21.6631 19.9702 22.0989 19.8372 22.5309C19.7613 22.6808 19.7343 22.7689 19.59 22.8334L19.5179 22.7939C19.4321 22.6653 19.4255 22.5138 19.4033 22.3591L19.3519 22.3834L19.3458 22.4137C19.0676 22.6729 18.8605 23.288 18.6292 23.3614L18.5534 23.3175Z" fill="#FCE2B6"/>
<path d="M46.6162 23.9558C47.124 23.9535 47.5559 24.7877 47.774 25.1927C48.0738 25.7488 48.2899 26.6159 48.1025 27.242C48.0782 27.3227 47.9629 27.546 47.8875 27.5838L47.9106 27.465C48.3108 27.0158 48.0857 26.1869 47.9319 25.6695C47.8852 25.5121 47.5791 24.8465 47.4398 24.7798C47.3655 24.8256 47.3588 24.8335 47.2725 24.8605C47.0773 24.7488 46.7323 24.3723 46.5908 24.1724C46.549 24.1135 46.5934 24.029 46.6162 23.9558Z" fill="#FCE2B6"/>
<path d="M34.4688 43.3083C34.6068 43.3389 34.6583 43.3362 34.7503 43.4406C34.8016 43.5661 34.7892 43.5902 34.7729 43.7306C34.5222 43.6826 34.4449 43.555 34.4688 43.3083Z" fill="#F4BD70"/>
</svg>
