<svg preserveAspectRatio="none" width="100%" height="100%" overflow="visible" style="display: block;" viewBox="0 0 42.157 41.6551" fill="none" xmlns="http://www.w3.org/2000/svg">
<g id="Vector">
<path d="M21.0324 0.0149701L21.1312 0.0113155C26.8604 -0.183302 31.4984 2.14565 35.6268 5.98278C37.3041 7.54103 37.9912 8.66939 39.1748 10.5759C41.4131 14.1813 41.9558 16.5912 42.1287 20.8357C42.4284 26.3289 40.3293 31.5242 36.593 35.5157C33.9678 38.3207 30.1442 39.6656 26.5237 40.6032C24.4926 41.1298 23.3985 41.5877 21.2636 41.6551C18.1228 41.6186 16.2363 40.7803 13.3314 39.8746C10.6303 39.0328 9.1399 38.6348 6.94843 36.5447C4.79937 34.4952 2.29584 31.621 1.53728 28.6448C1.15194 26.4405 0.0891934 24.0709 0.00815477 21.8573C-0.172299 16.9299 2.66851 10.0736 5.91057 6.56223C9.54607 2.62466 15.8553 0.265608 21.0324 0.0149701Z" fill="#5D210B"/>
<path d="M37.5775 16.4793C38.2737 16.4972 40.2934 16.4916 40.8504 16.5846C40.9759 16.7273 40.9765 16.9334 41.0056 17.1335C41.0844 17.4203 41.1186 17.9596 41.1671 18.2714C41.4085 19.8235 41.4005 21.2791 41.344 22.8422C41.3383 23.0066 41.3372 23.6886 41.2836 23.7899C40.8658 27.4353 39.8271 29.996 37.6619 32.9967C36.73 34.2879 35.9299 35.2313 34.6755 36.2312C34.5967 36.2935 34.5174 36.3557 34.4381 36.4174C32.8841 37.3676 32.6923 37.5818 30.9311 38.351C30.631 38.5269 29.2881 39.1008 28.9628 39.1573C26.7816 39.7301 24.4315 40.5364 22.2355 40.8357C19.3567 41.2286 16.7834 40.1807 14.1286 39.3441C11.8153 38.6154 9.86486 38.2202 8.00593 36.4631C5.35751 34.1605 3.06885 31.4218 2.10438 27.9693C1.98567 27.5445 1.956 26.7991 1.91405 26.3474C1.67459 26.0461 1.439 25.1691 1.31887 24.7761C0.381792 21.7845 0.710856 19.5174 1.48797 16.5741L4.67621 16.4886C4.74641 18.5796 4.94079 19.6553 6.3903 21.25C10.321 24.1669 14.4352 22.0023 17.3894 18.9319L17.496 19.5151C17.5906 19.8741 17.6824 20.2731 17.8646 20.5827C19.2729 22.9751 23.4488 23.0018 24.5725 20.3084C24.6763 20.0593 24.746 19.8947 24.8122 19.6335C24.8458 19.4485 24.8863 19.2512 24.9115 19.0661C26.9477 21.1068 29.0861 22.5949 32.0931 22.5901C34.2754 22.5866 35.9424 21.7788 36.9799 19.8296C37.497 18.6848 37.5609 17.6994 37.5775 16.4793Z" fill="#F5C35D"/>
<path d="M39.9795 23.3672C40.2255 23.4845 40.8732 23.6803 41.2145 23.6627C41.2265 23.6621 41.275 23.7589 41.2836 23.7899C40.8658 27.4353 39.8271 29.996 37.6619 32.9967C36.73 34.2879 35.9299 35.2313 34.6755 36.2312C34.5967 36.2935 34.5174 36.3557 34.4381 36.4174C32.8841 37.3676 32.6923 37.5818 30.9311 38.351C30.631 38.5269 29.2881 39.1008 28.9628 39.1573C26.7816 39.7301 24.4315 40.5364 22.2355 40.8357C19.3567 41.2286 16.7834 40.1807 14.1286 39.3441C11.8153 38.6154 9.86486 38.2202 8.00593 36.4631C5.35751 34.1605 3.06885 31.4218 2.10438 27.9693C1.98567 27.5445 1.956 26.7991 1.91405 26.3474C2.11271 26.5175 2.23558 26.7693 2.24049 27.0307C2.28289 26.6578 2.27764 26.5163 2.52669 26.2239L2.6095 26.2412C3.48569 28.9529 6.04337 32.9191 8.57691 34.3616C9.73383 35.02 11.2624 35.6516 12.4956 36.2204C13.1016 36.5002 14.0905 36.6367 14.7203 36.9342C18.2088 38.809 21.6671 38.7302 25.4639 38.2196C28.359 37.8302 27.6953 36.4836 30.0283 35.225C30.2623 35.0988 31.0065 34.7002 31.2456 34.6756C33.8126 34.3964 35.2439 31.9557 36.7505 30.1415C38.5979 27.9166 39.5155 26.225 39.9795 23.3672Z" fill="#E39D3F"/>
<path d="M30.7012 36.3825C31.7524 35.9702 32.9177 35.7275 34.0009 36.2004C34.1504 36.2655 34.296 36.338 34.4381 36.4174C32.8841 37.3676 32.6923 37.5818 30.9311 38.351C30.8301 37.9387 31.047 37.1278 31.1423 36.6863C30.9568 36.5807 30.8718 36.5145 30.7012 36.3825Z" fill="var(--fill-0, #81441F)"/>
<path d="M28.9628 39.1573C28.9246 37.7576 29.4496 36.9987 30.7012 36.3825C30.8718 36.5145 30.9568 36.5807 31.1423 36.6863C31.047 37.1278 30.8301 37.9387 30.9311 38.351C30.631 38.5269 29.2881 39.1008 28.9628 39.1573Z" fill="#6E3316"/>
<path d="M41.0056 17.1335C41.0844 17.4203 41.1186 17.9596 41.1671 18.2714C41.4085 19.8235 41.4005 21.2791 41.344 22.8422C41.3383 23.0066 41.3372 23.6886 41.2836 23.7899C41.275 23.7589 41.2265 23.6621 41.2145 23.6627C40.8732 23.6803 40.2255 23.4845 39.9795 23.3672C39.7752 23.242 39.5806 23.1004 39.3991 22.9436C37.8274 21.5728 37.8331 18.7372 39.592 17.499C40.0423 17.1823 40.4446 17.2728 40.9685 17.2476L41.0056 17.1335Z" fill="var(--fill-0, #81441F)"/>
<path d="M24.8122 19.6335C24.8458 19.4485 24.8863 19.2512 24.9115 19.0661C26.9477 21.1068 29.0861 22.5949 32.0931 22.5901C34.2754 22.5866 35.9424 21.7788 36.9799 19.8296C36.9543 20.091 36.932 20.3528 36.9132 20.6147C35.3928 23.0545 32.928 23.5027 30.2395 22.9314C27.9344 22.4416 26.4472 21.2343 24.8122 19.6335Z" fill="#E39D3F"/>
<path d="M17.3894 18.9319L17.496 19.5151C17.1521 19.7938 16.9495 20.2361 16.6347 20.4962C14.7949 22.0161 12.5604 23.1621 10.1178 23.0466C9.08849 22.9979 6.77101 22.3407 6.3903 21.25C10.321 24.1669 14.4352 22.0023 17.3894 18.9319Z" fill="#E39D3F"/>
<path d="M1.31887 24.7761C2.05604 25.002 2.58895 25.4042 2.6095 26.2412L2.52669 26.2239C2.27764 26.5163 2.28289 26.6578 2.24049 27.0307C2.23558 26.7693 2.11271 26.5175 1.91405 26.3474C1.67459 26.0461 1.439 25.1691 1.31887 24.7761Z" fill="#E39D3F"/>
<path d="M13.9097 34.0795C13.6298 33.5369 13.4356 32.9539 13.6734 32.368C14.2115 31.0434 15.6685 30.2683 17.0029 30.7675C17.6685 31.0139 18.2066 31.5186 18.4955 32.167C19.0714 33.4798 18.7501 34.731 17.4724 35.4157C17.2 35.7332 16.7009 35.9959 16.2881 36.0673C15.7638 36.157 15.2253 36.0336 14.7923 35.7241C14.1476 35.269 14.0379 34.8013 13.9097 34.0795Z" fill="var(--fill-0, #81441F)"/>
<path d="M13.9097 34.0795C14.5416 34.8567 15.1804 35.3849 16.2187 35.4968C16.6383 35.5402 17.062 35.5128 17.4724 35.4157C17.2 35.7332 16.7009 35.9959 16.2881 36.0673C15.7638 36.157 15.2253 36.0336 14.7923 35.7241C14.1476 35.269 14.0379 34.8013 13.9097 34.0795Z" fill="#E39D3F"/>
<path d="M27.5675 32.3777C26.6658 31.2009 26.8467 29.9984 27.9926 29.0871C28.9349 28.338 30.6344 27.8247 31.4139 29.0454C32.1724 30.2331 32.0531 31.7084 30.9739 32.617C30.7639 33.0207 30.5151 33.3091 30.0951 33.5107C29.6471 33.7231 29.1317 33.7448 28.6678 33.5712C28.0634 33.3416 27.8094 32.9305 27.5675 32.3777Z" fill="var(--fill-0, #81441F)"/>
<path d="M27.5675 32.3777C28.6233 33.1343 29.8206 33.2743 30.9739 32.617C30.7639 33.0207 30.5151 33.3091 30.0951 33.5107C29.6471 33.7231 29.1317 33.7448 28.6678 33.5712C28.0634 33.3416 27.8094 32.9305 27.5675 32.3777Z" fill="#E39D3F"/>
<path d="M7.90543 24.5594C11.1908 24.3952 11.4921 28.5856 8.40742 29.1642C7.81481 29.1888 7.28571 29.1945 6.75794 28.883C6.28512 28.6043 5.94652 28.1444 5.82063 27.6099C5.48317 26.2181 6.58724 24.8877 7.90543 24.5594Z" fill="var(--fill-0, #81441F)"/>
<path d="M1.64508 19.2819C1.65644 19.5502 1.6182 19.6204 1.7457 19.8329C1.86885 19.8832 1.91599 19.9101 2.05147 19.9222C2.00736 20.6152 2.01917 21.2278 2.11648 21.9154C2.16259 22.2413 2.21851 22.6433 2.09387 22.9515L2.00679 22.986C1.34707 22.5254 1.46092 20.0187 1.64508 19.2819Z" fill="#F8EACF"/>
<path d="M1.64508 19.2819C1.70592 18.9145 1.89927 18.1241 2.21378 17.9102C2.40194 18.1623 2.10563 19.5222 2.05147 19.9222C1.91599 19.9101 1.86885 19.8832 1.7457 19.8329C1.6182 19.6204 1.65644 19.5502 1.64508 19.2819Z" fill="#FCFBF8"/>
<path d="M20.0069 0.84535C21.7612 0.500886 24.6632 0.939575 26.3781 1.37381C27.9858 1.80593 29.295 2.3007 30.6915 3.20012L30.9443 3.37012C33.715 5.06902 36.3687 7.31026 38.0477 10.1331C38.2206 10.4241 38.8849 11.421 38.8701 11.7349C38.8353 12.45 39.1754 12.106 39.4762 12.6146C39.9966 13.4703 40.3282 14.4405 40.6398 15.3936C39.5772 15.3465 38.5471 15.3546 37.4936 15.3225C36.6803 10.745 32.5388 11.0423 28.8424 11.0681C26.7548 11.0826 24.6872 11.0696 22.6036 11.0763C22.3736 11.1271 20.4378 11.0799 20.0867 11.0718C18.7545 11.0845 17.2471 11.1139 15.9296 11.1116C14.3419 11.109 9.89493 10.9065 8.56213 11.3375C7.90332 11.3783 7.11377 11.7664 6.57703 12.1304C5.60154 12.792 5.00334 13.8692 4.84719 15.0265C4.8351 15.1739 4.84851 15.2004 4.75446 15.3137C4.41158 15.3813 2.3508 15.3953 1.91388 15.4042C2.27005 14.2937 3.21917 11.8946 3.78319 10.9469C4.23546 9.61484 6.46083 6.9931 7.5096 6.03103C10.6747 3.29583 15.8528 1.14179 20.0069 0.84535Z" fill="#F5C35D"/>
<path d="M19.5064 10.1698C19.4035 10.094 19.3059 10.0112 19.2143 9.92195C18.7985 9.52238 18.613 9.04549 18.6004 8.45592C18.5531 6.25203 21.3303 5.60702 22.7457 6.93279C23.18 7.33984 23.273 7.92684 23.2639 8.5128C23.9127 9.13749 23.6194 10.1233 23.0419 10.6712C22.9249 10.782 22.6372 10.9567 22.6036 11.0763C22.3736 11.1271 20.4378 11.0799 20.0867 11.0718C20.0314 10.715 19.6548 10.7779 19.5064 10.1698Z" fill="var(--fill-0, #81441F)"/>
<path d="M23.2639 8.5128C23.9127 9.13749 23.6194 10.1233 23.0419 10.6712C22.9249 10.782 22.6372 10.9567 22.6036 11.0763C22.3736 11.1271 20.4378 11.0799 20.0867 11.0718C20.0314 10.715 19.6548 10.7779 19.5064 10.1698C21.0901 10.9549 23.0356 10.4839 23.2639 8.5128Z" fill="#E39D3F"/>
<path d="M26.3781 1.37381C27.9858 1.80593 29.295 2.3007 30.6915 3.20012C30.5008 3.78882 30.5202 3.96517 30.1168 4.49454C29.3971 5.43839 28.3219 5.44844 27.2798 5.08576C27.1994 5.05766 27.1195 5.02774 27.0401 4.99604C26.692 4.86207 26.2235 4.54216 25.9729 4.25058C25.6282 3.85552 25.4622 3.33534 25.5135 2.81334C25.5786 2.16456 25.893 1.76676 26.3781 1.37381Z" fill="var(--fill-0, #81441F)"/>
<path d="M4.42305 11.9324C4.44891 11.9143 4.55374 11.7733 4.57674 11.7428C5.68155 10.2749 7.23121 10.2253 8.56213 11.3375C7.90332 11.3783 7.11377 11.7664 6.57703 12.1304C5.60154 12.792 5.00334 13.8692 4.84719 15.0265C4.1986 13.7947 3.84437 13.361 4.42305 11.9324Z" fill="var(--fill-0, #81441F)"/>
<path d="M7.5096 6.03103C10.6747 3.29583 15.8528 1.14179 20.0069 0.84535C20.3315 0.867735 20.5605 0.877501 20.885 0.870705C20.8405 0.913078 18.7797 1.16571 18.5617 1.19684C17.9452 1.28484 17.3335 1.36159 16.7291 1.51629C16.2048 1.65049 12.4101 2.92686 12.3857 3.31553C12.3775 3.44539 12.456 3.61779 12.4974 3.74051C12.8329 3.61476 13.8568 3.18407 14.1414 3.18076L14.1928 3.20623C12.5271 3.7714 11.1042 4.42161 9.64896 5.4212C9.06948 5.81923 8.53668 6.27345 7.9738 6.66822C7.81207 6.50495 7.6739 6.41073 7.50343 6.2357L7.5096 6.03103Z" fill="#F7D99D"/>
<path d="M3.78319 10.9469C4.23546 9.61484 6.46083 6.9931 7.5096 6.03103L7.50343 6.2357C7.6739 6.41073 7.81207 6.50495 7.9738 6.66822C7.80807 6.70477 7.64183 6.73926 7.47524 6.77176C7.32931 6.9043 7.08061 7.09109 7.03175 7.26504L7.08529 7.3439C7.17203 7.51476 7.17779 7.5207 7.15565 7.70498C7.05081 7.88983 7.04505 7.89349 6.85073 7.99222C6.42756 8.10449 5.60924 9.52198 5.36732 9.9388C5.18498 10.2481 5.01829 10.5664 4.86774 10.8924L4.81227 10.9563C4.51356 11.3053 3.80927 12.7053 3.29445 12.3514C3.28172 11.9297 3.68429 11.5297 3.76978 11.0224L3.78319 10.9469Z" fill="#F7D99D"/>
<path d="M6.85073 7.99222C6.72375 7.88378 6.6906 7.73297 6.7225 7.57427C6.88441 7.37314 6.80325 7.43938 7.08529 7.3439C7.17203 7.51476 7.17779 7.5207 7.15565 7.70498C7.05081 7.88983 7.04505 7.89349 6.85073 7.99222Z" fill="#F8EACF"/>
<path d="M30.6915 3.20012L30.9443 3.37012L30.9443 3.40884C30.962 4.42104 31.2056 4.62839 30.4318 5.51474C29.5033 6.57811 27.4961 6.37099 27.0401 4.99604C27.1195 5.02774 27.1994 5.05766 27.2798 5.08576C28.3219 5.44844 29.3971 5.43839 30.1168 4.49454C30.5202 3.96517 30.5008 3.78882 30.6915 3.20012Z" fill="#E39D3F"/>
<path d="M11.9942 5.00626C12.7522 4.88006 13.4697 5.39042 13.5995 6.14827C13.7294 6.90612 13.223 7.62657 12.4663 7.76037C11.7042 7.89508 10.978 7.38393 10.8471 6.62065C10.7163 5.85743 11.2308 5.13333 11.9942 5.00626Z" fill="var(--fill-0, #81441F)"/>
<path d="M34.5648 9.0267C34.8199 9.01111 35.0401 9.01522 35.2753 9.13069C35.5874 9.28568 35.8226 9.56127 35.927 9.8938C36.1387 10.568 35.8032 11.0865 35.1611 11.3045C33.8149 11.3226 33.1043 9.70581 34.5648 9.0267Z" fill="var(--fill-0, #81441F)"/>
<path d="M25.2527 18.4795C22.022 14.5359 22.9802 11.842 28.0634 11.7191C28.7551 11.7024 29.3994 11.6495 30.1031 11.6836C31.011 11.6749 31.9019 11.7453 32.807 11.8138C33.2173 11.8514 34.127 12.0144 34.4911 12.191L35.2091 12.5274C36.1136 13.0429 36.6524 14.0765 36.8116 15.0514C37.2687 17.846 36.8002 20.9932 33.614 21.781C32.294 22.1075 30.3256 21.9643 29.1032 21.341L28.3699 21.0005C28.0914 20.9135 27.2348 20.3044 26.9608 20.1173C26.3051 19.5627 25.828 19.1121 25.2527 18.4795Z" fill="#373636"/>
<path d="M35.2091 12.5274C36.1136 13.0429 36.6524 14.0765 36.8116 15.0514C37.2687 17.846 36.8002 20.9932 33.614 21.781C32.294 22.1075 30.3256 21.9643 29.1032 21.341C29.352 21.0655 30.494 19.3139 30.7668 18.9234L35.2091 12.5274Z" fill="#373636"/>
<path d="M25.2527 18.4795C22.022 14.5359 22.9802 11.842 28.0634 11.7191C28.7551 11.7024 29.3994 11.6495 30.1031 11.6836C28.5091 13.8427 26.7594 16.2619 25.2527 18.4795Z" fill="#373636"/>
<path d="M30.1031 11.6836C31.011 11.6749 31.9019 11.7453 32.807 11.8138C31.2239 14.2133 29.4416 16.5354 27.814 18.9105C27.5435 19.3058 27.2507 19.7394 26.9608 20.1173C26.3051 19.5627 25.828 19.1121 25.2527 18.4795C26.7594 16.2619 28.5091 13.8427 30.1031 11.6836Z" fill="#B2B1B1"/>
<path d="M34.4911 12.191L35.2091 12.5274L30.7668 18.9234C30.494 19.3139 29.352 21.0655 29.1032 21.341L28.3699 21.0005C30.1607 18.1404 32.5873 15.0641 34.4911 12.191Z" fill="#B2B1B1"/>
<path d="M11.1974 11.6809C12.1035 11.6513 13.0632 11.677 13.972 11.7051C14.3662 11.7125 15.7769 11.8886 15.9102 11.8791L16.7687 12.0792C18.3441 12.4808 19.1764 13.8398 18.6871 15.386C17.5616 18.9421 13.7821 21.9924 10.0416 21.9213C9.74644 21.9218 9.3942 21.8696 9.09613 21.8338C8.64368 21.7715 7.71259 21.4439 7.37109 21.1529C6.6281 20.6405 6.21994 20.1466 5.81692 19.3583C5.00248 17.4816 5.02673 13.872 6.92989 12.5996C8.10335 11.8151 9.81566 11.7214 11.1974 11.6809Z" fill="#373636"/>
<path d="M11.1974 11.6809C12.1035 11.6513 13.0632 11.677 13.972 11.7051C12.6252 13.6675 11.2654 15.6208 9.89259 17.5651C9.25547 18.4864 8.03955 20.358 7.37109 21.1529C6.6281 20.6405 6.21994 20.1466 5.81692 19.3583C5.00248 17.4816 5.02673 13.872 6.92989 12.5996C8.10335 11.8151 9.81566 11.7214 11.1974 11.6809Z" fill="#B2B1B1"/>
<path d="M5.81692 19.3583C5.00248 17.4816 5.02673 13.872 6.92989 12.5996C8.10335 11.8151 9.81566 11.7214 11.1974 11.6809C10.6343 12.3694 10.0136 13.3141 9.48649 14.0564C8.25236 15.8161 7.02913 17.5834 5.81692 19.3583Z" fill="#373636"/>
<path d="M13.972 11.7051C14.3662 11.7125 15.7769 11.8886 15.9102 11.8791L16.7687 12.0792C14.4987 15.341 12.2563 18.6218 10.0416 21.9213C9.74644 21.9218 9.3942 21.8696 9.09613 21.8338C8.64368 21.7715 7.71259 21.4439 7.37109 21.1529C8.03955 20.358 9.25547 18.4864 9.89259 17.5651C11.2654 15.6208 12.6252 13.6675 13.972 11.7051Z" fill="#373636"/>
<path d="M15.9102 11.8791L16.7687 12.0792C14.4987 15.341 12.2563 18.6218 10.0416 21.9213C9.74644 21.9218 9.3942 21.8696 9.09613 21.8338C9.75266 20.7568 10.6873 19.479 11.411 18.4244L15.9102 11.8791Z" fill="#B2B1B1"/>
<path d="M20.0955 13.4676C20.925 13.0212 22.4603 13.153 22.8124 14.1183L22.7811 14.1927C22.7274 15.3832 23.0424 16.1162 23.5475 17.1772C21.4342 17.2917 20.7079 17.3143 18.6649 17.1626C18.9182 16.6227 19.1185 16.1485 19.2749 15.57C19.3182 15.4096 19.4053 14.9123 19.4502 14.8005L19.435 14.0899C19.6986 13.788 19.7761 13.7027 20.0955 13.4676Z" fill="#F5C35D"/>
<path d="M20.0955 13.4676C20.925 13.0212 22.4603 13.153 22.8124 14.1183L22.7811 14.1927C22.5596 13.8131 21.4057 13.5669 20.9486 13.5928C20.7562 13.586 20.3058 13.5016 20.0955 13.4676Z" fill="#E39D3F"/>
<path d="M19.435 14.0899C19.6986 13.788 19.7761 13.7027 20.0955 13.4676C20.3058 13.5016 20.7562 13.586 20.9486 13.5928C20.0686 13.7995 19.9261 14.0645 19.4502 14.8005L19.435 14.0899Z" fill="#E39D3F"/>
<path d="M21.7213 19.3658C22.2007 19.2969 23.5538 19.4978 23.798 19.9722C23.8819 20.9059 22.0466 21.5312 21.2921 21.6008C20.4245 21.5863 19.6261 21.3852 18.9735 20.7895C19.7714 19.8591 20.5032 19.5489 21.7213 19.3658Z" fill="#E86D4A"/>
<path d="M17.4314 11.6888L24.8139 11.7009C24.4229 11.8848 24.2586 11.9895 23.8973 12.2331C23.4636 12.6565 23.2987 12.8324 23.0173 13.3643C21.7749 12.3483 20.4364 12.2474 19.2297 13.4037C19.041 13.0445 18.9509 12.8589 18.7006 12.5459C18.2303 12.0964 18.02 11.9809 17.4314 11.6888Z" fill="#E39D3F"/>
<path d="M18.7006 12.5459C18.6572 12.4194 18.5677 12.2355 18.5984 12.1306C19.7211 12.3515 21.0461 12.1138 22.1949 12.2164C22.6287 12.2552 23.56 12.0981 23.8973 12.2331C23.4636 12.6565 23.2987 12.8324 23.0173 13.3643C21.7749 12.3483 20.4364 12.2474 19.2297 13.4037C19.041 13.0445 18.9509 12.8589 18.7006 12.5459Z" fill="#F5C35D"/>
<path d="M18.3897 17.7279C19.5799 17.7858 20.7682 17.8326 21.9593 17.8568C22.5151 17.868 23.515 17.6025 23.9567 17.8612C24.06 18.0265 24.0354 17.9531 24.0155 18.173C23.8659 18.3861 23.935 18.3132 23.6605 18.4426C22.2258 19.0063 20.1506 19.1096 18.674 18.6074C18.2147 18.4511 18.1931 18.1064 18.3897 17.7279Z" fill="#FCFBF8"/>
<path d="M2.88903 15.8309C3.20348 15.7733 4.39846 15.731 4.6745 15.9078L4.60756 15.9754C4.20139 16.0872 3.71579 16.0602 3.2884 16.0595C2.88286 16.0602 1.79306 16.1284 1.47302 15.9921C1.59965 15.8707 2.62827 15.8462 2.88903 15.8309Z" fill="var(--fill-0, #81441F)"/>
<path d="M37.5124 15.8316C38.2195 15.7717 40.0999 15.8233 40.8749 15.8978C40.956 15.9056 40.9617 15.9825 41.009 16.0858C40.3225 16.025 38.0414 16.0429 37.5603 15.9446L37.5124 15.8316Z" fill="var(--fill-0, #81441F)"/>
</g>
</svg>
