<svg preserveAspectRatio="none" width="100%" height="100%" overflow="visible" style="display: block;" viewBox="0 0 16 16" fill="none" xmlns="http://www.w3.org/2000/svg">
<g id="Frame 1618873193">
<path id="Vector" d="M7.03736 0.0783465C7.91403 -0.115692 9.21669 0.0768483 10.0663 0.370005C10.3482 0.467277 10.6083 0.607977 10.8829 0.711294C11.284 0.862183 11.8577 1.01736 12.2145 1.25162C12.8678 1.54295 13.3735 2.17825 13.7429 2.77648C13.925 3.07151 14.174 3.3249 14.3805 3.6017C14.7268 4.10383 15.2042 4.88522 15.3264 5.49009C15.3877 5.75755 15.53 5.88395 15.6107 6.12562C15.7391 6.50925 15.7935 6.93995 15.8705 7.33941C15.9734 7.94528 16.0344 8.50409 15.9792 9.12295C15.9516 9.43474 15.8301 9.74382 15.7476 10.0435C15.3829 11.7677 14.3983 13.3034 13.0038 14.3404C12.8744 14.4366 12.7386 14.5456 12.6007 14.6309C11.7344 15.0623 10.8968 15.6256 9.89875 15.638C9.50076 15.643 9.2302 15.7839 8.85908 15.873C8.10445 16.0538 7.31775 16.0414 6.56894 15.8369C6.05787 15.6986 5.74162 15.5049 5.24783 15.3803L4.98484 15.3392C4.69194 15.2929 4.32213 15.1203 4.05327 14.9839C3.54071 14.7239 3.31935 14.5217 3.03045 14.0194C2.8289 14.0102 2.63545 13.9763 2.46331 13.8502C2.00273 13.513 1.54138 12.9801 1.28792 12.461C1.21557 12.3128 1.15848 12.0409 1.08557 11.9193C0.890433 11.5937 0.77724 11.4645 0.642525 11.1007C0.497244 10.7084 0.470277 10.38 0.36345 10.0099C0.274476 9.7016 0.17364 9.54651 0.0977916 9.18299C-0.0465328 8.49137 -0.0190196 8.0109 0.101632 7.31462C0.117727 7.22172 0.237116 7.0022 0.23959 6.95532C0.249114 6.77617 0.219348 6.59461 0.257324 6.40417C0.291152 6.23445 0.344983 6.06834 0.388625 5.90292C0.598012 5.10943 0.950528 4.39014 1.39052 3.70617C1.78009 3.10057 2.2595 2.5746 2.81837 2.12971C3.04893 1.94615 3.25282 1.74286 3.51565 1.58578C3.76071 1.4393 4.01563 1.32454 4.26496 1.1875C4.34606 1.14743 4.45007 1.03368 4.52536 1.00123C4.90621 0.836994 5.29668 0.57474 5.67806 0.433901C6.10678 0.27559 6.59224 0.174416 7.03736 0.0783465Z" fill="var(--fill-0, #F9C356)"/>
<path id="Vector_2" d="M3.03045 14.0194C2.8289 14.0102 2.63545 13.9763 2.46331 13.8502C2.00273 13.513 1.54138 12.9801 1.28792 12.461C1.21557 12.3128 1.15848 12.0409 1.08557 11.9193C0.890433 11.5937 0.77724 11.4645 0.642525 11.1007C0.497244 10.7084 0.470277 10.38 0.36345 10.0099C0.274476 9.7016 0.17364 9.54651 0.0977916 9.18299C-0.0465328 8.49137 -0.0190196 8.0109 0.101632 7.31462C0.117727 7.22172 0.237116 7.00219 0.23959 6.95532C0.249114 6.77617 0.219348 6.59461 0.257324 6.40417C0.291152 6.23445 0.344983 6.06834 0.388625 5.90292C0.598012 5.10943 0.950528 4.39014 1.39052 3.70617C1.78009 3.10057 2.2595 2.5746 2.81837 2.12971C3.04893 1.94614 3.25282 1.74286 3.51565 1.58578C3.76071 1.4393 4.01563 1.32454 4.26496 1.1875C4.34606 1.14743 4.45007 1.03368 4.52536 1.00123C4.90621 0.836993 5.29668 0.574738 5.67806 0.4339C6.10678 0.275589 6.59224 0.174415 7.03736 0.0783451C7.0537 0.158459 7.21779 0.329085 7.28908 0.347864C6.9983 0.38664 6.1806 0.562144 5.92981 0.692409L6.06145 0.685128C5.88748 0.748222 5.58577 0.843264 5.45137 0.962346L5.44916 1.01805C5.42443 1.02831 5.41039 1.03403 5.38625 1.04608L5.42165 1.06561C5.31395 1.12843 4.85942 1.3457 4.80761 1.40273C4.81297 1.33717 4.78446 1.32821 4.73864 1.30111L4.7369 1.26933C4.66434 1.31381 4.58424 1.36335 4.50875 1.40178C2.82695 2.25777 1.64846 3.46428 0.924022 5.26152C0.672171 5.77387 0.558415 6.49756 0.476831 7.05902C0.469475 7.10959 0.414807 7.08795 0.403952 7.13105C0.363724 7.22788 0.342559 7.49101 0.353944 7.5907C0.29605 8.20139 0.264014 8.74415 0.41537 9.3548C0.453107 9.50702 0.586064 9.76626 0.613066 9.90196C0.690194 10.3308 0.797089 10.7119 0.95645 11.1147C1.05048 11.3523 1.30927 11.6596 1.3698 11.8354C1.6436 12.6307 2.08628 13.2864 2.82524 13.6973C2.87474 13.7248 3.05098 13.7308 3.11282 13.7441C3.22333 13.8505 3.32096 14.0577 3.43437 14.1702C3.64902 14.3832 3.87238 14.517 4.12645 14.6592C4.26219 14.8658 4.90044 15.0333 5.1414 15.0433C5.42551 15.0435 5.57168 15.1518 5.81033 15.2589C6.49041 15.5641 7.28918 15.7683 8.03605 15.6989C8.10529 15.6925 8.18109 15.6913 8.25175 15.6878C8.60554 15.6462 8.88697 15.5446 9.22882 15.4937C9.39453 15.4523 9.53302 15.4089 9.7046 15.3786C10.1249 15.3046 10.4988 15.2943 10.9057 15.1527C11.2237 15.0421 11.4978 14.8206 11.7641 14.7062C12.226 14.5079 12.3381 14.4901 12.7476 14.1581C12.9989 13.9412 13.331 13.7259 13.5464 13.4976C13.9518 13.0681 14.3952 12.553 14.6701 12.023C15.0154 11.5849 15.2071 10.6926 15.3974 10.1638C15.5379 9.77366 15.6162 9.46962 15.6575 9.05422C15.7024 8.60293 15.6493 8.17749 15.6473 7.73165C15.6563 7.58159 15.6939 7.4715 15.8487 7.40834L15.8705 7.33941C15.9734 7.94528 16.0344 8.50409 15.9792 9.12295C15.9516 9.43474 15.8301 9.74382 15.7476 10.0435C15.3829 11.7677 14.3983 13.3034 13.0038 14.3404C12.8744 14.4366 12.7386 14.5456 12.6007 14.6309C11.7344 15.0623 10.8968 15.6256 9.89875 15.638C9.50076 15.643 9.2302 15.7839 8.85908 15.873C8.10445 16.0538 7.31775 16.0414 6.56894 15.8369C6.05787 15.6986 5.74162 15.5049 5.24783 15.3803L4.98484 15.3392C4.69194 15.2929 4.32213 15.1203 4.05327 14.9839C3.54071 14.7239 3.31935 14.5217 3.03045 14.0194Z" fill="var(--fill-0, #5E1302)"/>
<path id="Vector_3" d="M5.14062 15.0435C5.42473 15.0437 5.5709 15.1519 5.80956 15.259C6.48964 15.5643 7.28841 15.7684 8.03527 15.6991C8.10452 15.6927 8.18031 15.6914 8.25098 15.688C7.44471 15.9447 6.19297 15.5908 5.47329 15.1787C5.38444 15.1279 5.23808 15.0831 5.14062 15.0435Z" fill="var(--fill-0, #631003)"/>
<path id="Vector_4" d="M12.7473 14.1582C12.6203 14.4197 12.0144 14.6326 11.7716 14.7529C11.4525 14.911 11.1612 15.1096 10.8196 15.2283C10.6426 15.2898 10.398 15.2879 10.2565 15.343L10.2583 15.3553C10.2888 15.3566 10.3443 15.3564 10.3715 15.3642C10.289 15.389 10.2432 15.3769 10.1662 15.3956C10.1296 15.4045 10.0077 15.4883 9.96966 15.4924C9.7365 15.5186 9.4582 15.5205 9.22852 15.4938C9.39423 15.4524 9.53271 15.409 9.70429 15.3787C10.1246 15.3047 10.4985 15.2944 10.9054 15.1528C11.2234 15.0422 11.4975 14.8207 11.7638 14.7063C12.2257 14.508 12.3378 14.4902 12.7473 14.1582Z" fill="var(--fill-0, #631003)"/>
<path id="Vector_5" d="M4.73633 1.26926C4.94314 1.12283 5.67619 0.758326 5.92924 0.69234L6.06088 0.685059C5.88691 0.748153 5.58521 0.843195 5.4508 0.962277L5.4486 1.01798C5.42387 1.02825 5.40982 1.03396 5.38569 1.04601L5.42108 1.06554C5.31339 1.12836 4.85886 1.34563 4.80704 1.40267C4.8124 1.3371 4.7839 1.32814 4.73807 1.30104L4.73633 1.26926Z" fill="var(--fill-0, #F4BD70)"/>
<path id="Vector_6" d="M4.98548 15.3394C4.93728 15.2864 4.93573 15.3011 4.92578 15.2417C4.99605 15.1874 5.29734 15.2283 5.34199 15.3368C5.32093 15.3763 5.29489 15.3816 5.24848 15.3805L4.98548 15.3394Z" fill="var(--fill-0, #631003)"/>
<path id="Vector_7" d="M0.354625 7.5909C0.343241 7.4912 0.364405 7.22808 0.404634 7.13124C0.415489 7.08815 0.470157 7.10978 0.477513 7.05921C0.559096 6.49776 0.672852 5.77407 0.924703 5.26172C0.911971 5.34669 0.898983 5.41484 0.901799 5.5011L0.874132 5.56524C0.951602 5.59364 1.01014 5.55878 1.0905 5.52911C1.31165 5.48962 1.63537 5.5704 1.7971 5.73071C1.98828 5.88212 2.15416 6.05385 2.25853 6.28215C2.26513 6.3249 2.27406 6.37552 2.27722 6.41853C2.32059 7.00915 1.80637 7.75435 1.25443 7.906C0.973397 7.83052 0.75331 7.76966 0.593948 7.46767C0.552593 7.38928 0.558089 7.30591 0.495895 7.22846L0.478264 7.22698C0.448515 7.37251 0.393181 7.40519 0.354625 7.5909Z" fill="var(--fill-0, #984819)"/>
<path id="Vector_8" d="M1.09014 5.52896C1.31129 5.48947 1.63501 5.57024 1.79674 5.73056C1.57254 5.67098 1.34004 5.56578 1.11007 5.58496C1.00769 5.5935 0.935284 5.66661 0.85877 5.65718C0.844604 5.61302 0.852216 5.62137 0.873772 5.56509C0.951243 5.59348 1.00978 5.55862 1.09014 5.52896Z" fill="var(--fill-0, #F4BD70)"/>
<path id="Vector_9" d="M12.0328 1.48419L12.0564 1.47095C11.9956 1.38227 11.2369 1.10956 11.084 1.04465C11.121 0.996994 11.1243 0.96975 11.1481 0.916376C11.155 0.900785 11.19 0.856783 11.1945 0.857932C11.5372 0.944421 11.862 1.11358 12.1814 1.26343C12.1927 1.25954 12.2041 1.25566 12.2154 1.25176C12.8687 1.54309 13.3744 2.17838 13.7438 2.77661C13.9259 3.07165 14.1749 3.32504 14.3814 3.60184C14.7277 4.10396 15.2051 4.88536 15.3273 5.49023C15.3133 5.59422 15.3367 5.61828 15.2753 5.69218C15.2203 5.67685 15.1017 5.50758 15.0254 5.45356C14.8762 5.14311 14.8644 5.19294 14.6287 4.98499C14.5915 4.84688 14.5926 4.52 14.5408 4.40954C14.342 3.96497 13.9288 3.59733 13.6617 3.19981C13.1432 2.42834 12.8757 1.94337 12.0328 1.48419Z" fill="var(--fill-0, #5E1302)"/>
<path id="Vector_10" d="M7.03711 0.0783465C7.91377 -0.115692 9.21643 0.0768483 10.066 0.370005C10.348 0.467277 10.608 0.607977 10.8827 0.711293C11.2838 0.862183 11.8575 1.01736 12.2143 1.25162C12.2029 1.25552 12.1915 1.25941 12.1802 1.26329C11.8608 1.11345 11.5361 0.944282 11.1933 0.857793C11.1888 0.856644 11.1538 0.900646 11.1469 0.916237C11.1231 0.969611 11.1198 0.996855 11.0828 1.04452C11.2357 1.10942 11.9945 1.38213 12.0553 1.47081L12.0316 1.48405C11.4472 1.21058 10.8558 1.0082 10.2595 0.764876C9.28018 0.365285 8.33777 0.224446 7.28882 0.347865C7.21753 0.329086 7.05344 0.15846 7.03711 0.0783465Z" fill="var(--fill-0, #631003)"/>
<path id="Vector_11" d="M4.12695 14.6591C4.39911 14.7844 4.7105 14.9478 5.01915 14.9652C5.22743 14.9769 5.58122 14.8086 5.77755 14.843C5.95071 14.8733 6.07086 15.117 6.28719 15.1573C6.19783 15.1588 6.0513 15.0675 5.97972 15.0163C5.88103 15.0929 5.79819 15.1094 5.76127 15.1426L5.768 15.1694C6.14388 15.2956 6.48853 15.439 6.87584 15.5315C7.39912 15.6565 7.88615 15.6673 8.41639 15.574C8.5338 15.5534 8.67468 15.5578 8.79266 15.5309C8.94825 15.4785 9.07814 15.41 9.24122 15.3796C10.1308 15.2467 10.9872 15.17 11.7475 14.625C11.8645 14.5563 12.0893 14.5235 12.1956 14.4513C12.5926 14.1819 13.0653 13.8635 13.431 13.5625C13.6556 13.3775 13.9089 13.0123 14.1122 12.7921C14.296 12.593 14.4547 12.2131 14.6602 12.0277C14.6638 12.0261 14.6672 12.0245 14.6706 12.0229C14.3957 12.5529 13.9523 13.068 13.5469 13.4976C13.3315 13.7259 12.9994 13.9411 12.7481 14.158C12.3386 14.49 12.2265 14.5079 11.7646 14.7062C11.4983 14.8205 11.2242 15.042 10.9062 15.1526C10.4993 15.2942 10.1254 15.3045 9.7051 15.3785C9.53352 15.4088 9.39503 15.4522 9.22932 15.4937C8.88748 15.5445 8.60605 15.6461 8.25225 15.6877C8.18159 15.6912 8.10579 15.6924 8.03655 15.6989C7.28968 15.7682 6.49091 15.564 5.81083 15.2588C5.57218 15.1517 5.42601 15.0434 5.1419 15.0432C4.90094 15.0333 4.26269 14.8657 4.12695 14.6591Z" fill="var(--fill-0, #D37F2B)"/>
<path id="Vector_12" d="M2.25785 6.28196C2.52185 6.54498 2.71424 6.69247 2.70183 7.0975C2.67563 7.95337 1.90105 8.09676 1.25375 7.90581C1.80569 7.75415 2.3199 7.00895 2.27654 6.41834C2.27338 6.37533 2.26445 6.3247 2.25785 6.28196Z" fill="var(--fill-0, #B36D33)"/>
<path id="Vector_13" d="M4.82898 1.53423L4.84571 1.52232C4.86397 1.50918 4.86882 1.50525 4.8845 1.48811C4.94567 1.48001 4.94077 1.47076 4.98853 1.49227C4.98472 1.5739 4.93287 1.62316 4.88109 1.6915C4.71068 1.85007 4.56522 1.93186 4.35815 2.02554C4.2688 2.07595 4.10973 2.13161 4.03095 2.19274C3.47503 2.62412 2.89192 3.04228 2.4601 3.61062C2.34198 3.76611 2.2479 3.85084 2.07422 3.93523C2.214 3.62795 2.78157 2.94753 3.03914 2.70841C3.38077 2.39127 3.95225 2.11776 4.34672 1.85666C4.50184 1.75397 4.66984 1.62827 4.82898 1.53423Z" fill="var(--fill-0, #F7F6F2)"/>
<path id="Vector_14" d="M15.0254 5.45361C15.1017 5.50763 15.2203 5.6769 15.2753 5.69223C15.3367 5.61833 15.3133 5.59428 15.3273 5.49028C15.3886 5.75774 15.5309 5.88414 15.6117 6.12581C15.74 6.50944 15.7945 6.94015 15.8714 7.3396L15.8496 7.40853C15.6948 7.47169 15.6572 7.58178 15.6482 7.73184C15.6129 7.6022 15.5886 7.33946 15.5512 7.18212C15.4115 6.59297 15.2708 6.00639 15.0254 5.45361Z" fill="var(--fill-0, #631003)"/>
<path id="Vector_15" d="M7.22459 0.424078C7.28975 0.425246 7.30108 0.414759 7.3509 0.446951C7.29712 0.56429 6.24183 0.693806 6.03884 0.815117C5.83217 0.889029 5.629 0.986824 5.42212 1.06579L5.38672 1.04626C5.41085 1.03421 5.4249 1.02849 5.44963 1.01823L5.45183 0.962523C5.58624 0.843442 5.88795 0.7484 6.06192 0.685305C6.23379 0.59744 6.99532 0.457768 7.22459 0.424078Z" fill="var(--fill-0, #F8E6C8)"/>
<path id="Vector_16" d="M7.22481 0.423983C7.35988 0.394718 7.78427 0.344357 7.90018 0.384632C7.91873 0.402574 7.91352 0.391722 7.91656 0.416771C7.83452 0.529303 7.43585 0.517039 7.3046 0.538814C7.07275 0.57726 6.84548 0.633508 6.61687 0.688014C6.50602 0.713012 6.11223 0.824446 6.03906 0.815022C6.24205 0.693711 7.29734 0.564195 7.35113 0.446855C7.3013 0.414664 7.28997 0.42515 7.22481 0.423983Z" fill="var(--fill-0, #F4BD70)"/>
<path id="Vector_17" d="M4.61651 1.4332L4.62809 1.45696C4.4947 1.60737 4.26987 1.82764 4.04282 1.77536L4.05345 1.74568C4.18627 1.63414 4.45604 1.50431 4.61651 1.4332Z" fill="var(--fill-0, #FCE2B6)"/>
<path id="Vector_18" d="M4.73931 1.30127C4.78513 1.32837 4.81364 1.33733 4.80828 1.4029C4.90239 1.45848 5.04554 1.42535 5.08174 1.52247C5.04784 1.59061 4.94743 1.64693 4.88148 1.69189C4.93326 1.62355 4.98512 1.57429 4.98892 1.49266C4.94117 1.47115 4.94606 1.4804 4.88489 1.4885C4.86921 1.50564 4.86436 1.50958 4.8461 1.52271L4.82937 1.53462C4.80101 1.51949 4.67368 1.47585 4.62876 1.45712L4.61719 1.43336C4.63311 1.38551 4.69857 1.33764 4.73931 1.30127Z" fill="var(--fill-0, #FCE2B6)"/>
<path id="Vector_19" d="M8.98771 7.94101C9.24906 7.92845 9.57313 7.94533 9.6463 8.25006C9.836 9.04025 9.24836 9.80707 8.56962 10.0438C8.16605 10.1813 7.72546 10.1491 7.34521 9.95439C6.82374 9.70823 6.50449 9.26122 6.43168 8.68074C6.35013 8.0305 7.13864 8.08058 7.57477 8.04226C8.04483 7.99632 8.51595 7.96256 8.98771 7.94101Z" fill="var(--fill-0, #5E1302)"/>
<path id="Vector_20" d="M8.02913 8.8975C8.0516 8.89502 8.07413 8.8933 8.09669 8.89231C8.49083 8.87537 8.88935 8.95777 9.18798 9.23497C8.91802 9.63517 8.66122 9.73671 8.22673 9.8567C8.20992 9.8583 8.19309 9.85956 8.17622 9.8605C7.67292 9.88826 7.40198 9.72891 7.0467 9.40295C7.34153 9.08297 7.59657 8.94735 8.02913 8.8975Z" fill="var(--fill-0, #ED6D49)"/>
<path id="Vector_21" d="M8.70247 1.16047C9.11107 1.14788 9.26732 1.22524 9.58691 1.4923C10.0025 1.83956 10.1638 2.43309 9.782 2.87416C9.57884 3.10882 9.28685 3.15019 8.99122 3.16674C8.45929 3.15839 7.82034 2.86334 7.68803 2.27831C7.56755 1.74558 8.24014 1.24246 8.70247 1.16047Z" fill="var(--fill-0, #A3541D)"/>
<path id="Vector_22" d="M10.6198 5.6744C11.1844 5.58613 11.7118 5.98276 11.7965 6.55927C11.8811 7.13576 11.4908 7.67276 10.9257 7.75728C10.3631 7.8414 9.83993 7.44524 9.75567 6.8714C9.67142 6.29754 10.0579 5.76227 10.6198 5.6744Z" fill="var(--fill-0, #5E1302)"/>
<path id="Vector_23" d="M10.4653 6.04004C10.8544 6.10151 10.875 6.59371 10.4788 6.72366C10.3194 6.70352 10.2041 6.62252 10.1645 6.45749C10.142 6.36701 10.1571 6.27106 10.2062 6.19229C10.2711 6.08911 10.3562 6.06173 10.4653 6.04004Z" fill="var(--fill-0, #F7F6F2)"/>
<g id="Vector_24">
<path d="M11.1723 6.93446C11.2292 6.90745 11.2959 6.91396 11.3468 6.95148C11.3976 6.98901 11.4245 7.05167 11.4172 7.11525C11.4098 7.17883 11.3694 7.23337 11.3114 7.25781C11.2244 7.29444 11.1247 7.25347 11.0869 7.16556C11.0491 7.07762 11.087 6.97496 11.1723 6.93446Z" fill="var(--fill-0, #F7F6F2)"/>
<path d="M11.1723 6.93446C11.2292 6.90745 11.2959 6.91396 11.3468 6.95148C11.3976 6.98901 11.4245 7.05167 11.4172 7.11525C11.4098 7.17883 11.3694 7.23337 11.3114 7.25781C11.2244 7.29444 11.1247 7.25347 11.0869 7.16556C11.0491 7.07762 11.087 6.97496 11.1723 6.93446Z" fill="var(--fill-0, #F7F6F2)"/>
</g>
<path id="Vector_25" d="M5.16485 5.88381C6.46522 5.81155 6.67844 7.74666 5.41291 8.00465C4.76541 8.03191 4.37854 7.75518 4.28139 7.07361C4.19729 6.48352 4.5677 5.94037 5.16485 5.88381Z" fill="var(--fill-0, #5E1302)"/>
<path id="Vector_26" d="M4.8449 6.31501C5.00885 6.2626 5.18361 6.35455 5.23686 6.52126C5.29013 6.68797 5.20208 6.86739 5.03935 6.92368C4.93241 6.96069 4.81423 6.93615 4.72993 6.85945C4.64563 6.78275 4.60826 6.66572 4.63205 6.55305C4.65584 6.44038 4.73714 6.34947 4.8449 6.31501Z" fill="var(--fill-0, #F7F6F2)"/>
<path id="Vector_27" d="M5.67372 7.17439C5.73472 7.16004 5.7985 7.18082 5.84008 7.22857C5.88165 7.27632 5.89437 7.34342 5.87324 7.40353C5.85211 7.46367 5.80051 7.50721 5.73868 7.51713C5.64766 7.53169 5.56165 7.47008 5.54416 7.37775C5.52666 7.28541 5.58394 7.19552 5.67372 7.17439Z" fill="var(--fill-0, #F7F6F2)"/>
<path id="Vector_28" d="M12.0146 10.064C12.619 10.0085 12.9538 10.346 13.073 10.9386C13.1175 11.1602 12.9829 11.4656 12.856 11.6409C12.6767 11.8892 12.4668 11.9849 12.1735 12.0281C11.9345 12.0014 11.7195 11.9829 11.511 11.84C11.3056 11.6955 11.1218 11.3861 11.0861 11.1332C10.9992 10.5165 11.4966 10.1553 12.0146 10.064Z" fill="var(--fill-0, #984819)"/>
<path id="Vector_29" d="M4.35183 11.7253C4.12463 12.0032 3.71313 12.0947 3.36889 12.0214C3.05312 11.9424 2.81811 11.6446 2.72595 11.338C2.71634 11.306 2.7614 11.1975 2.76908 11.1614C2.7899 11.0637 2.80487 10.9653 2.82642 10.8677C2.93178 10.3908 3.46721 10.1752 3.89881 10.2972C4.17184 10.3744 4.30497 10.51 4.43896 10.7546C4.6986 11.0103 4.63509 11.5116 4.35183 11.7253Z" fill="var(--fill-0, #B36D33)"/>
<path id="Vector_30" d="M4.44065 10.7544C4.70028 11.0101 4.63677 11.5114 4.35352 11.7251C4.37842 11.6785 4.40286 11.6315 4.42679 11.5843C4.58212 11.2777 4.53838 11.069 4.44065 10.7544Z" fill="var(--fill-0, #F4BD70)"/>
<path id="Vector_31" d="M4.74102 2.86785C4.94178 2.84198 5.20751 2.85914 5.37957 2.97792C5.54833 3.09509 5.66393 3.27651 5.70041 3.48149C5.80438 4.09934 5.41712 4.45707 4.85687 4.55561C4.44306 4.61329 3.99321 4.57049 3.90012 4.06437C3.79038 3.46778 4.16005 2.96815 4.74102 2.86785Z" fill="var(--fill-0, #984819)"/>
<path id="Vector_32" d="M8.13099 12.7518C8.25992 12.3959 8.54524 12.2154 8.90582 12.165C9.14268 12.1319 9.26634 12.1623 9.44801 12.3042C9.67719 12.4958 9.65111 12.676 9.64929 12.9658C9.65871 13.3541 9.26412 13.7128 8.89182 13.5625C8.77999 13.5174 8.67595 13.3841 8.57597 13.3177C8.40657 13.2051 8.27189 13.1709 8.13091 13.0134C8.12572 12.9303 8.11613 12.8328 8.13099 12.7518Z" fill="var(--fill-0, #984819)"/>
<path id="Vector_33" d="M9.44801 12.3042C9.67719 12.4959 9.65111 12.676 9.64929 12.9658C9.65871 13.3542 9.26412 13.7128 8.89182 13.5626C8.77999 13.5174 8.67595 13.3841 8.57597 13.3177C8.40657 13.2051 8.27189 13.1709 8.13091 13.0134C8.12572 12.9303 8.11613 12.8328 8.13099 12.7518C8.17057 13.1059 8.32522 13.0748 8.57578 13.2443C8.68334 13.3173 8.78771 13.4538 8.91095 13.4974C9.47697 13.6978 9.61834 13.1419 9.56639 12.6885C9.54606 12.5111 9.51834 12.4569 9.44801 12.3042Z" fill="var(--fill-0, #D37F2B)"/>
<path id="Vector_34" d="M11.3285 3.02401C11.3962 3.01575 11.4893 3.02 11.5596 3.02127C11.8537 3.22315 12.1111 3.58783 12.1211 3.95413C12.1309 4.30983 11.8193 4.56031 11.4912 4.55207C11.1015 4.44744 10.4157 3.98206 10.717 3.50277C10.8436 3.30136 11.0951 3.07747 11.3285 3.02401Z" fill="var(--fill-0, #AA5921)"/>
<path id="Vector_35" d="M1.16797 4.85507C1.30693 4.53391 2.03289 3.23743 2.30877 3.14551L2.33482 3.16498C2.35143 3.36535 1.96853 3.70142 1.9184 3.87506C1.86025 4.07652 1.81567 4.28164 1.75486 4.4849C1.72018 4.55546 1.70784 4.5969 1.64187 4.62727L1.60891 4.60868C1.56966 4.54818 1.56667 4.47685 1.55652 4.40405L1.53303 4.4155L1.53023 4.42978C1.40306 4.55172 1.30837 4.8412 1.20265 4.87574L1.16797 4.85507Z" fill="var(--fill-0, #FCE2B6)"/>
<path id="Vector_36" d="M13.996 5.15568C14.2281 5.1546 14.4256 5.54717 14.5252 5.73776C14.6623 5.99943 14.7611 6.40747 14.6754 6.7021C14.6643 6.74011 14.6116 6.84516 14.5771 6.86298L14.5877 6.80706C14.7707 6.59569 14.6678 6.20561 14.5974 5.9621C14.5761 5.88803 14.4361 5.57484 14.3725 5.54343C14.3385 5.56499 14.3354 5.56871 14.296 5.58142C14.2068 5.52885 14.0491 5.35169 13.9844 5.25759C13.9652 5.22987 13.9856 5.19014 13.996 5.15568Z" fill="var(--fill-0, #FCE2B6)"/>
<path id="Vector_37" d="M8.44329 14.2627C8.50639 14.2771 8.52993 14.2758 8.57196 14.325C8.59541 14.384 8.58978 14.3953 8.58229 14.4614C8.4677 14.4388 8.43237 14.3788 8.44329 14.2627Z" fill="var(--fill-0, #F4BD70)"/>
</g>
</svg>
