<svg preserveAspectRatio="none" width="100%" height="100%" overflow="visible" style="display: block;" viewBox="0 0 18 18" fill="none" xmlns="http://www.w3.org/2000/svg">
<g id="twemoji:memo" clip-path="url(#clip0_76_3761)">
<path id="Vector" d="M15.5 16C15.5 16.5304 15.2893 17.0391 14.9142 17.4142C14.5391 17.7893 14.0304 18 13.5 18H2.5C1.96957 18 1.46086 17.7893 1.08579 17.4142C0.710714 17.0391 0.5 16.5304 0.5 16V2C0.5 1.46957 0.710714 0.960859 1.08579 0.585786C1.46086 0.210714 1.96957 0 2.5 0L13.5 0C14.0304 0 14.5391 0.210714 14.9142 0.585786C15.2893 0.960859 15.5 1.46957 15.5 2V16Z" fill="var(--fill-0, #CCD6DD)"/>
<path id="Vector_2" d="M13.5 12C13.5 12.1326 13.4473 12.2598 13.3536 12.3536C13.2598 12.4473 13.1326 12.5 13 12.5H3C2.86739 12.5 2.74021 12.4473 2.64645 12.3536C2.55268 12.2598 2.5 12.1326 2.5 12C2.5 11.8674 2.55268 11.7402 2.64645 11.6464C2.74021 11.5527 2.86739 11.5 3 11.5H13C13.1326 11.5 13.2598 11.5527 13.3536 11.6464C13.4473 11.7402 13.5 11.8674 13.5 12ZM5.5 14C5.5 14.1326 5.44732 14.2598 5.35355 14.3536C5.25979 14.4473 5.13261 14.5 5 14.5H3C2.86739 14.5 2.74021 14.4473 2.64645 14.3536C2.55268 14.2598 2.5 14.1326 2.5 14C2.5 13.8674 2.55268 13.7402 2.64645 13.6464C2.74021 13.5527 2.86739 13.5 3 13.5H5C5.13261 13.5 5.25979 13.5527 5.35355 13.6464C5.44732 13.7402 5.5 13.8674 5.5 14ZM13.5 4C13.5 4.13261 13.4473 4.25979 13.3536 4.35355C13.2598 4.44732 13.1326 4.5 13 4.5H3C2.86739 4.5 2.74021 4.44732 2.64645 4.35355C2.55268 4.25979 2.5 4.13261 2.5 4C2.5 3.86739 2.55268 3.74021 2.64645 3.64645C2.74021 3.55268 2.86739 3.5 3 3.5H13C13.1326 3.5 13.2598 3.55268 13.3536 3.64645C13.4473 3.74021 13.5 3.86739 13.5 4ZM13.5 6C13.5 6.13261 13.4473 6.25979 13.3536 6.35355C13.2598 6.44732 13.1326 6.5 13 6.5H3C2.86739 6.5 2.74021 6.44732 2.64645 6.35355C2.55268 6.25979 2.5 6.13261 2.5 6C2.5 5.86739 2.55268 5.74021 2.64645 5.64645C2.74021 5.55268 2.86739 5.5 3 5.5H13C13.1326 5.5 13.2598 5.55268 13.3536 5.64645C13.4473 5.74021 13.5 5.86739 13.5 6ZM13.5 8C13.5 8.13261 13.4473 8.25979 13.3536 8.35355C13.2598 8.44732 13.1326 8.5 13 8.5H3C2.86739 8.5 2.74021 8.44732 2.64645 8.35355C2.55268 8.25979 2.5 8.13261 2.5 8C2.5 7.86739 2.55268 7.74021 2.64645 7.64645C2.74021 7.55268 2.86739 7.5 3 7.5H13C13.1326 7.5 13.2598 7.55268 13.3536 7.64645C13.4473 7.74021 13.5 7.86739 13.5 8ZM13.5 10C13.5 10.1326 13.4473 10.2598 13.3536 10.3536C13.2598 10.4473 13.1326 10.5 13 10.5H3C2.86739 10.5 2.74021 10.4473 2.64645 10.3536C2.55268 10.2598 2.5 10.1326 2.5 10C2.5 9.86739 2.55268 9.74021 2.64645 9.64645C2.74021 9.55268 2.86739 9.5 3 9.5H13C13.1326 9.5 13.2598 9.55268 13.3536 9.64645C13.4473 9.74021 13.5 9.86739 13.5 10Z" fill="var(--fill-0, #99AAB5)"/>
<path id="Vector_3" d="M15.5 3.136C15.0865 2.8685 14.5815 2.8465 14.2395 3.1245L13.8435 3.4475L13.1015 4.053L13.0515 4.093L11.8635 5.062L5.9245 9.905C5.706 10.0835 5.528 10.5145 5.338 10.942C5.149 11.367 4.8535 12.368 4.6165 13.1375C4.5425 13.2625 4.084 14.0605 4.341 14.364C4.601 14.6715 5.504 14.369 5.625 14.326C6.438 14.239 7.4905 14.1395 7.949 14.036C8.411 13.9305 8.876 13.8385 9.0945 13.66C9.0985 13.657 9.0995 13.651 9.103 13.6485L15.032 8.8155L15.428 8.4925L15.5 8.4335V3.136Z" fill="var(--fill-0, #66757F)"/>
<path id="Vector_4" d="M9.0725 11.263C9.0725 11.263 8.4355 10.3225 8.014 9.9865C7.678 9.565 6.7395 8.9285 6.7395 8.9285C6.5155 8.7055 6.144 8.6885 5.925 8.907C5.7065 9.126 5.5285 9.59 5.3385 10.0525C5.1025 10.6255 4.7005 12.1295 4.4545 12.9285C4.413 13.0645 4.713 12.7035 4.706 12.8235C4.701 12.917 4.7195 13.0205 4.743 13.114L4.67 13.1935L4.774 13.227L4.808 13.332L4.8875 13.259C4.981 13.2825 5.0845 13.301 5.1775 13.296C5.2975 13.289 4.936 13.5895 5.0725 13.5475C5.8715 13.301 7.376 12.8995 7.9485 12.6635C8.4105 12.473 8.8755 12.2955 9.094 12.0765C9.3135 11.859 9.297 11.4875 9.0725 11.263Z" fill="var(--fill-0, #D99E82)"/>
<path id="Vector_5" d="M12.656 2.1755C12.552 2.2795 12.4695 2.40298 12.4132 2.53887C12.3569 2.67476 12.3279 2.82041 12.3279 2.9675C12.3279 3.11459 12.3569 3.26024 12.4132 3.39613C12.4695 3.53202 12.552 3.6555 12.656 3.7595L14.2395 5.3435C14.3435 5.44751 14.467 5.53002 14.6029 5.58632C14.7388 5.64261 14.8844 5.67158 15.0315 5.67158C15.1786 5.67158 15.3242 5.64261 15.4601 5.58632C15.596 5.53002 15.7195 5.44751 15.8235 5.3435L17.408 3.7595C17.512 3.6555 17.5945 3.53202 17.6508 3.39613C17.7071 3.26024 17.7361 3.11459 17.7361 2.9675C17.7361 2.82041 17.7071 2.67476 17.6508 2.53887C17.5945 2.40298 17.512 2.2795 17.408 2.1755L15.8235 0.5915C15.7195 0.487486 15.596 0.404977 15.4601 0.348685C15.3242 0.292393 15.1786 0.263419 15.0315 0.263419C14.8844 0.263419 14.7388 0.292393 14.6029 0.348685C14.467 0.404977 14.3435 0.487486 14.2395 0.5915L12.656 2.1755Z" fill="var(--fill-0, #EA596E)"/>
<path id="Vector_6" d="M5.9245 8.9075L7.5095 10.4925L9.092 12.0755L15.0325 6.136L11.864 2.968L5.9245 8.9075Z" fill="var(--fill-0, #FFCC4D)"/>
<path id="Vector_7" d="M5.649 13.371C5.649 13.371 4.619 13.9375 4.341 13.659C4.0625 13.38 4.6315 12.3535 4.6315 12.3535C4.6315 12.3535 5.607 12.3715 5.649 13.371Z" fill="var(--fill-0, #292F33)"/>
<path id="Vector_8" d="M11.864 2.9675L13.844 0.9875L17.012 4.156L15.032 6.136L11.864 2.9675Z" fill="var(--fill-0, #CCD6DD)"/>
<path id="Vector_9" d="M13.0515 1.779L13.4475 1.383L16.6155 4.5505L16.2195 4.9465L13.0515 1.779ZM12.26 2.571L12.6555 2.1755L15.8235 5.343L15.4275 5.739L12.26 2.571Z" fill="var(--fill-0, #99AAB5)"/>
</g>
<defs>
<clipPath id="clip0_76_3761">
<rect width="18" height="18" fill="white"/>
</clipPath>
</defs>
</svg>
