<svg preserveAspectRatio="none" width="100%" height="100%" overflow="visible" style="display: block;" viewBox="0 0 22 22" fill="none" xmlns="http://www.w3.org/2000/svg">
<g id="fxemoji:present">
<path id="Vector" d="M20.3014 16.7215L11.7407 21.473C11.33 21.7009 10.6579 21.7009 10.2473 21.473L1.68648 16.7215C1.48113 16.6076 1.37848 16.4573 1.37848 16.3071H1.28756V5.69289H20.6094V16.3071C20.6094 16.4573 20.5068 16.6076 20.3014 16.7215Z" fill="var(--fill-0, #FFD95E)"/>
<path id="Vector_2" d="M20.6094 5.69289V16.3071C20.6094 16.4574 20.5068 16.6076 20.3014 16.7216L11.7407 21.473C11.5271 21.5915 11.2429 21.648 10.9615 21.6431C10.9682 16.3281 11.1193 11.0064 10.9541 5.69284L20.6094 5.69289Z" fill="var(--fill-0, #FFD95E)"/>
<path id="Vector_3" d="M10.2472 10.8587L1.68648 6.10728C1.27579 5.87933 1.27579 5.50636 1.68648 5.27841L10.2472 0.527012C10.6579 0.299062 11.33 0.299062 11.7406 0.527012L20.3014 5.27845C20.7121 5.5064 20.7121 5.87937 20.3014 6.10732L11.7407 10.8587C11.33 11.0867 10.6579 11.0867 10.2472 10.8587Z" fill="var(--fill-0, #F9C356)"/>
<path id="Vector_4" d="M16.8046 3.18502C16.8042 3.23524 16.7903 3.28443 16.7642 3.32739C16.7382 3.37035 16.7011 3.40549 16.6568 3.42912L6.39951 8.89668C6.38538 8.90421 6.37063 8.9105 6.35542 8.9155L6.32075 8.93488V19.1387C6.32075 19.1873 6.30806 19.2351 6.28393 19.2773C6.25979 19.3195 6.22506 19.3547 6.18315 19.3794C6.14125 19.404 6.09363 19.4173 6.04501 19.418C5.99639 19.4186 5.94844 19.4065 5.90593 19.3829L4.18718 18.429C4.1436 18.4048 4.10729 18.3694 4.08201 18.3264C4.05673 18.2835 4.0434 18.2346 4.0434 18.1847V8.25529C4.04345 8.0849 4.08174 7.9167 4.15547 7.7631C4.22919 7.60949 4.33645 7.47439 4.46935 7.36777L4.47949 7.35986C4.50201 7.34224 4.52336 7.32673 4.54532 7.31191C4.57794 7.28975 4.61167 7.26927 4.64638 7.25055L14.604 1.9427C14.6451 1.92077 14.6911 1.90949 14.7377 1.90989C14.7843 1.91029 14.8301 1.92235 14.8709 1.94498L16.6609 2.93846C16.7048 2.96284 16.7414 2.9986 16.7667 3.04199C16.7919 3.08538 16.8051 3.13479 16.8046 3.18502ZM17.7505 7.50471C17.6855 7.43059 17.6112 7.36526 17.5293 7.31036C17.5239 7.30671 17.5186 7.30305 17.5123 7.29893C17.4857 7.2816 17.4584 7.26542 17.4304 7.25042L7.47287 1.94266C7.43172 1.92073 7.38574 1.90945 7.33912 1.90985C7.29249 1.91024 7.24671 1.92231 7.20595 1.94494L5.41591 2.93842C5.37197 2.96278 5.33542 2.99855 5.31011 3.04195C5.2848 3.08535 5.27166 3.13477 5.27209 3.18501C5.27252 3.23525 5.28649 3.28444 5.31253 3.3274C5.33858 3.37037 5.37573 3.40551 5.42008 3.42912L15.6773 8.89668C15.6916 8.90427 15.7064 8.91056 15.7215 8.91554L15.7561 8.93492V19.1387C15.7561 19.1873 15.7688 19.2351 15.7929 19.2773C15.817 19.3196 15.8518 19.3547 15.8937 19.3794C15.9356 19.4041 15.9832 19.4174 16.0318 19.418C16.0804 19.4186 16.1284 19.4065 16.1709 19.3829L17.8897 18.429C17.9332 18.4048 17.9695 18.3694 17.9948 18.3265C18.0201 18.2835 18.0334 18.2346 18.0334 18.1848V8.25529C18.0333 7.97906 17.9327 7.7123 17.7505 7.50471Z" fill="var(--fill-0, #5D3300)"/>
<path id="Vector_5" d="M14.4204 5.89029C14.4204 6.59115 13.5608 7.09981 12.3764 7.09981C11.8934 7.09981 11.4645 7.01512 11.1259 6.86739C11.0826 6.84862 11.0358 6.83961 10.9886 6.84101C10.9415 6.84241 10.8953 6.8542 10.8532 6.87552C10.5002 7.05366 10.0322 7.15748 9.49764 7.15748C8.31329 7.15748 7.45366 6.64881 7.45366 5.94795C7.45366 5.59509 7.6716 5.291 8.03915 5.07594C8.18396 4.99125 8.24476 4.81048 8.17304 4.65884C7.91106 4.1048 7.91948 3.58501 8.2408 3.26369C8.40722 3.09727 8.63513 3.00932 8.89995 3.00932C9.086 3.00932 9.28804 3.05327 9.49562 3.13582C9.57537 3.16762 9.66444 3.16679 9.74358 3.13349C9.82272 3.10019 9.88559 3.0371 9.91861 2.95784C10.1319 2.44862 10.4849 2.13499 10.9082 2.13499C11.3242 2.13499 11.6725 2.43796 11.8868 2.93193C11.958 3.0959 12.1458 3.17414 12.311 3.10595C12.5279 3.01645 12.7392 2.96858 12.9333 2.96858C13.2678 2.96858 13.4764 3.1069 13.5924 3.22296C13.9083 3.53882 13.9219 4.04641 13.6734 4.58984C13.6037 4.74229 13.6655 4.92267 13.8114 5.00513C14.1931 5.22075 14.4204 5.53008 14.4204 5.89029Z" fill="var(--fill-0, #EF9F27)"/>
</g>
</svg>
