<svg preserveAspectRatio="xMidYMid meet" width="50" height="50" overflow="visible" style="display: block;" viewBox="0 0 50 50" fill="none" xmlns="http://www.w3.org/2000/svg">
<g id="basil:logout-solid">
<path id="Vector" d="M23.4375 39.5833C23.4375 39.1689 23.6021 38.7715 23.8951 38.4785C24.1882 38.1855 24.5856 38.0208 25 38.0208H37.5C37.6381 38.0208 37.7706 37.966 37.8683 37.8683C37.966 37.7706 38.0208 37.6381 38.0208 37.5V12.5C38.0208 12.3619 37.966 12.2294 37.8683 12.1317C37.7706 12.034 37.6381 11.9792 37.5 11.9792H25C24.5856 11.9792 24.1882 11.8145 23.8951 11.5215C23.6021 11.2285 23.4375 10.8311 23.4375 10.4167C23.4375 10.0023 23.6021 9.60484 23.8951 9.31181C24.1882 9.01879 24.5856 8.85417 25 8.85417H37.5C39.5125 8.85417 41.1458 10.4875 41.1458 12.5V37.5C41.1458 38.4669 40.7617 39.3943 40.078 40.078C39.3943 40.7617 38.4669 41.1458 37.5 41.1458H25C24.5856 41.1458 24.1882 40.9812 23.8951 40.6882C23.6021 40.3952 23.4375 39.9977 23.4375 39.5833Z" fill="var(--fill-0, #EF9F27)"/>
<path id="Vector_2" d="M32.525 27.3229C32.525 27.8755 32.3055 28.4054 31.9148 28.7961C31.5241 29.1868 30.9942 29.4062 30.4417 29.4062H20.325C20.2764 30.1465 20.2167 30.8868 20.1458 31.6271L20.0833 32.2625C20.0601 32.502 19.9794 32.7323 19.8481 32.9339C19.7168 33.1356 19.5388 33.3026 19.3293 33.4208C19.1197 33.5389 18.8847 33.6048 18.6442 33.6128C18.4037 33.6208 18.1649 33.5707 17.9479 33.4667C14.1385 31.6432 10.6906 29.1453 7.77083 26.0937L7.70833 26.0292C7.4397 25.7497 7.28966 25.3772 7.28966 24.9896C7.28966 24.602 7.4397 24.2294 7.70833 23.95L7.77083 23.8854C10.6906 20.8339 14.1385 18.336 17.9479 16.5125C18.1649 16.4085 18.4037 16.3584 18.6442 16.3664C18.8847 16.3743 19.1197 16.4402 19.3293 16.5584C19.5388 16.6766 19.7168 16.8436 19.8481 17.0452C19.9794 17.2469 20.0601 17.4772 20.0833 17.7167L20.1458 18.3521C20.2167 19.091 20.2764 19.8312 20.325 20.5729H30.4417C30.9942 20.5729 31.5241 20.7924 31.9148 21.1831C32.3055 21.5738 32.525 22.1037 32.525 22.6562V27.3229Z" fill="var(--fill-0, #EF9F27)"/>
</g>
</svg>
