<svg preserveAspectRatio="none" width="100%" height="100%" overflow="visible" style="display: block;" viewBox="0 0 97 81" fill="none" xmlns="http://www.w3.org/2000/svg">
<g id="Vector">
<path d="M72.5704 12.033C72.6502 12.0332 72.7071 12.0402 72.7786 11.9974C73.309 11.6789 74.6954 2.39253 75.1224 0.994969C75.2265 0.656076 75.3425 0.421846 75.6702 0.263156C77.2843 -0.517287 81.4782 0.632418 83.1534 1.19738C85.1716 1.79686 86.5177 2.55876 88.3103 3.26228C88.588 3.38465 88.915 3.51837 89.1843 3.64821C90.1632 4.13431 92.3799 5.61668 92.7507 6.60403C93.0325 7.35632 91.1615 10.4926 90.6895 11.3029C89.7654 12.8881 89.0205 14.4504 88.1548 16.0226C87.9277 16.4971 87.6723 16.9949 87.5056 17.4907C87.6688 17.5547 88.2006 17.7527 88.3228 17.8269L88.2297 17.9017L87.9541 17.8008L87.9007 17.8553C88.0874 18.309 89.4384 18.911 89.864 19.2802C90.7998 19.9004 92.2543 21.0578 91.6392 22.3531L91.6093 22.4163L91.7405 22.4191C91.9259 22.1613 91.8905 21.7488 91.8856 21.4233C92.1314 21.8652 92.3272 22.0971 92.2161 22.5878C91.946 22.9733 91.4448 23.17 91.4045 23.4516L91.2754 23.5042L91.2442 23.6186C92.6812 25.6842 95.0688 29.3882 95.1389 31.9197C96.7426 33.6794 97.1348 39.905 96.9626 42.3594C96.7787 45.4539 96.4191 48.6692 94.7876 51.3753C94.4648 51.9114 92.8562 53.544 92.8048 53.7508C91.9495 57.211 89.6203 59.2365 86.8225 61.2945C85.3785 62.357 84.5884 63.2923 82.523 63.9349C83.2097 65.7701 83.6658 65.9735 85.4673 66.861C86.3115 67.2775 88.1076 67.7396 88.4075 68.6361C88.774 69.9276 87.9319 72.0057 87.3737 73.1478C86.8211 74.2788 85.5083 76.278 84.2496 76.583C81.9073 77.151 81.808 73.8437 81.9024 72.5646C78.2153 71.5726 75.8576 70.0328 75.1016 66.0773C71.4964 66.8223 69.4803 67.3183 65.8973 66.0219C65.6723 67.5383 65.5668 69.0705 65.5828 70.6035C65.6029 71.8189 65.9528 75.1207 65.0503 75.7419C63.5417 76.7802 58.8313 76.6363 57.1845 76.307C53.4918 75.5696 55.4621 72.2775 58.171 71.455C57.8579 69.837 57.7663 68.4403 57.8947 66.785C57.9482 66.1036 58.0759 65.407 58.1155 64.7346L58.1988 64.4005L58.5286 63.1795C57.5136 62.689 56.836 62.1536 56.0064 61.4342C55.2233 65.0805 54.4138 68.7212 53.5779 72.3557C53.3801 73.2418 52.7177 76.5194 52.4616 77.0936C51.8263 77.4927 48.8668 78.1001 47.9565 78.3159L41.2828 79.8917C40.6472 80.0411 36.5645 81.0677 36.1781 80.9965C34.3314 80.6575 31.6955 79.9699 29.8324 79.5195L19.338 76.9531C18.0406 76.6335 13.848 75.7432 12.8968 75.23C12.5656 74.5513 12.162 72.2844 11.9877 71.4287L10.6358 64.7415L9.67208 60.1254C9.46811 59.1583 9.12904 57.763 9.10245 56.8153C7.56019 55.9638 6.44495 55.0755 5.27043 53.7695C1.18966 49.2332 1.10406 41.681 5.29264 37.1844C7.02041 35.3295 9.45034 34.0182 12.0362 34.0707C13.0545 34.0941 14.1264 34.1843 15.1255 34.3847C15.8168 34.5234 16.5093 34.7753 17.2176 34.8235C20.6331 34.9739 24.0495 35.1145 27.4656 35.2508L31.1878 35.4146C31.8026 35.445 32.4595 35.4907 33.0749 35.5066C33.42 35.5156 34.1275 35.3661 34.4778 35.3601C36.0731 35.3329 41.5233 35.85 42.6052 36.8767C42.7074 37.4503 42.2035 39.1971 42.0419 39.8907C43.1851 39.629 44.4748 39.0882 45.5285 38.5833C45.8376 36.5657 46.2835 34.5714 46.8633 32.6139C47.1998 31.4697 47.6107 30.0709 48.1162 28.9937C50.0786 24.8453 53.2683 21.069 57.147 18.5759C58.7035 17.5757 60.5453 16.8299 62.113 15.7777C63.0717 15.134 65.0538 15.1923 66.0118 14.6576L66.0799 14.6189C65.6029 13.5172 65.3086 12.1811 66.661 11.5384C68.3126 10.7531 70.9132 11.4885 72.5704 12.033ZM45.5285 38.5833C44.4748 39.0882 43.1851 39.629 42.0419 39.8907C42.2035 39.1971 42.7074 37.4503 42.6052 36.8767C41.5233 35.85 36.0731 35.3329 34.4778 35.3601C34.1275 35.3661 33.42 35.5156 33.0749 35.5066C32.4595 35.4907 31.8026 35.445 31.1878 35.4146L27.4656 35.2508C24.0495 35.1145 20.6331 34.9739 17.2176 34.8235C16.5093 34.7753 15.8168 34.5234 15.1255 34.3847C14.1264 34.1843 13.0545 34.0941 12.0362 34.0707C9.45034 34.0182 7.02041 35.3295 5.29264 37.1844C1.10406 41.681 1.18966 49.2332 5.27043 53.7695C6.44495 55.0755 7.56019 55.9638 9.10245 56.8153C9.12904 57.763 9.46811 59.1583 9.67208 60.1254L10.6358 64.7415L11.9877 71.4287C12.162 72.2844 12.5656 74.5513 12.8968 75.23C13.848 75.7432 18.0406 76.6335 19.338 76.9531L29.8324 79.5195C31.6955 79.9699 34.3314 80.6575 36.1781 80.9965C36.5645 81.0677 40.6472 80.0411 41.2828 79.8917L47.9565 78.3159C48.8668 78.1001 51.8263 77.4927 52.4616 77.0936C52.7177 76.5194 53.3801 73.2418 53.5779 72.3557C54.4138 68.7212 55.2233 65.0805 56.0064 61.4342C56.836 62.1536 57.5136 62.689 58.5286 63.1795L58.1988 64.4005L58.1155 64.7346C58.0759 65.407 57.9482 66.1036 57.8947 66.785C57.7663 68.4403 57.8579 69.837 58.171 71.455C55.4621 72.2775 53.4918 75.5696 57.1845 76.307C58.8313 76.6363 63.5417 76.7802 65.0503 75.7419C65.9528 75.1207 65.6029 71.8189 65.5828 70.6035C65.5668 69.0705 65.6723 67.5383 65.8973 66.0219C69.4803 67.3183 71.4964 66.8223 75.1016 66.0773C75.8576 70.0328 78.2153 71.5726 81.9024 72.5646C81.808 73.8437 81.9073 77.151 84.2496 76.583C85.5083 76.278 86.8211 74.2788 87.3737 73.1478C87.9319 72.0057 88.774 69.9276 88.4075 68.6361C88.1076 67.7396 86.3115 67.2775 85.4673 66.861C83.6658 65.9735 83.2097 65.7701 82.523 63.9349C84.5884 63.2923 85.3785 62.357 86.8225 61.2945C89.6203 59.2365 91.9495 57.211 92.8048 53.7508C92.8562 53.544 94.4648 51.9114 94.7876 51.3753C96.4191 48.6692 96.7787 45.4539 96.9626 42.3594C97.1348 39.905 96.7426 33.6794 95.1389 31.9197C95.0688 29.3882 92.6812 25.6842 91.2442 23.6186C90.9526 23.7632 90.6589 23.9043 90.3639 24.0419C91.6336 26.0597 92.9298 27.3376 92.8409 29.8222C93.6719 30.1943 94.1149 30.9705 94.387 31.7885C94.8778 33.2631 95.8567 37.0828 95.8449 38.5207C95.9789 39.3459 95.9574 41.1823 95.9088 42.0601C95.7213 45.1045 95.5006 48.4804 93.7358 51.0813C93.2943 51.7323 92.2668 52.7388 91.9988 53.3607C91.1664 55.2941 90.4173 57.2511 88.6331 58.6063C87.6299 59.3921 86.5774 60.1773 85.5763 60.9507C84.2281 61.9918 84.1774 62.4421 82.4036 62.7389C82.38 62.5791 82.3335 62.3293 82.3349 62.1758C82.1614 61.9343 81.9989 61.6639 81.7115 61.8569C81.3276 62.5528 81.5497 63.7447 81.7622 64.4703C82.2183 66.0247 82.6272 66.0524 83.6644 67.0105C82.9618 68.625 82.1037 70.3925 80.2855 71.0234C77.3988 69.8363 76.2311 67.7583 75.7917 64.7747C75.7417 64.433 75.6341 64.2531 75.3529 64.0657C74.8961 64.0594 74.8773 64.7041 74.8558 65.0452C73.9325 65.1946 72.9807 65.4761 72.0455 65.6505C68.9901 66.2198 67.1511 65.4229 64.388 64.3534L63.3883 63.9951C63.2828 63.9363 62.3441 63.6264 62.1032 63.5427C61.6707 63.369 61.2174 63.2425 60.771 63.1089L60.2975 62.9803L60.0302 62.8032C58.5619 62.2685 57.3817 61.2792 56.2855 60.2001C56.3167 60.0749 56.4382 59.5824 56.4514 59.4821C56.5812 58.4977 54.645 58.6692 53.9834 58.2189C53.1975 57.6835 52.6636 57.1294 52.0783 56.4169C50.7747 54.8279 50.1795 53.1518 49.6114 51.219C49.4646 50.7195 49.0817 49.989 48.9108 49.4661C48.6633 48.7087 48.7675 48.3578 48.2806 47.679C48.1084 47.542 47.6807 47.0042 47.5778 46.806C45.9807 43.7335 46.23 39.5294 46.9888 36.3271C47.0439 35.6253 48.195 31.6845 48.528 31.0744C49.0162 29.7035 49.0519 29.4768 49.7544 28.1196C50.2094 28.4229 50.439 28.043 50.8231 27.7929C51.172 27.5657 51.1599 27.6715 51.5292 27.7289C51.8694 27.5643 52.5109 25.9655 52.7066 25.5259C53.0503 25.4536 53.1954 25.3738 53.5064 25.2278C53.4266 25.1826 53.3988 25.1458 53.3294 25.082C53.4023 24.3392 56.2695 21.597 57.0075 20.9511C57.1651 20.8128 58.3536 20.1629 58.6306 20.0083C59.7643 19.4038 60.6599 18.914 61.7485 18.2239C61.6714 17.8538 61.6499 17.728 61.4985 17.3778C61.7172 17.2291 62.1178 17.0227 62.3643 16.8876C62.5837 17.1084 63.3508 17.8526 63.4188 18.0797C64.7316 17.1536 65.9237 17.6482 66.5179 17.277C66.057 16.6697 65.8945 16.6563 65.982 15.9912L65.8619 15.8699C65.9473 15.8401 66.629 15.7348 66.7588 15.7132C66.5193 15.3733 66.2951 14.979 66.0799 14.6189L66.0118 14.6576C65.0538 15.1923 63.0717 15.134 62.113 15.7777C60.5453 16.8299 58.7035 17.5757 57.147 18.5759C53.2683 21.069 50.0786 24.8453 48.1162 28.9937C47.6107 30.0709 47.1998 31.4697 46.8633 32.6139C46.2835 34.5714 45.8376 36.5657 45.5285 38.5833Z" fill="#F4BF56"/>
<path d="M66.0799 14.6189C66.2951 14.979 66.5193 15.3733 66.7588 15.7132C66.629 15.7348 65.9473 15.8401 65.8619 15.8699L65.982 15.9912C65.8945 16.6563 66.057 16.6697 66.5179 17.277C65.9237 17.6482 64.7316 17.1536 63.4188 18.0797C63.3508 17.8526 62.5837 17.1084 62.3643 16.8876C62.1178 17.0227 61.7172 17.2291 61.4985 17.3778C61.6499 17.728 61.6714 17.8538 61.7485 18.2239C60.6599 18.914 59.7643 19.4038 58.6306 20.0083C58.3536 20.1629 57.1651 20.8128 57.0075 20.9511C56.2695 21.597 53.4023 24.3392 53.3294 25.082C53.3988 25.1458 53.4266 25.1826 53.5064 25.2278C53.1954 25.3738 53.0503 25.4536 52.7066 25.5259C52.5109 25.9655 51.8694 27.5643 51.5292 27.7289C51.1599 27.6715 51.172 27.5657 50.8231 27.7929C50.439 28.043 50.2094 28.4229 49.7544 28.1196C49.0519 29.4768 49.0162 29.7035 48.528 31.0744C48.195 31.6845 47.0439 35.6253 46.9888 36.3271C46.23 39.5294 45.9807 43.7335 47.5778 46.806C47.6807 47.0042 48.1084 47.542 48.2806 47.679C48.7675 48.3578 48.6633 48.7087 48.9108 49.4661C49.0817 49.989 49.4646 50.7195 49.6114 51.219C50.1795 53.1518 50.7747 54.8279 52.0783 56.4169C52.6636 57.1294 53.1975 57.6835 53.9834 58.2189C54.645 58.6692 56.5812 58.4977 56.4514 59.4821C56.4382 59.5824 56.3167 60.0749 56.2855 60.2001C57.3817 61.2792 58.5619 62.2685 60.0302 62.8032L60.2975 62.9803L60.771 63.1089C61.2174 63.2425 61.6707 63.369 62.1032 63.5427C62.3441 63.6264 63.2828 63.9363 63.3883 63.9951L64.388 64.3534C67.1511 65.4229 68.9901 66.2198 72.0455 65.6505C72.9807 65.4761 73.9325 65.1946 74.8558 65.0452C74.8773 64.7041 74.8961 64.0594 75.3529 64.0657C75.6341 64.2531 75.7417 64.433 75.7917 64.7747C76.2311 67.7583 77.3988 69.8363 80.2855 71.0234C82.1037 70.3925 82.9618 68.625 83.6644 67.0105C82.6272 66.0524 82.2183 66.0247 81.7622 64.4703C81.5497 63.7447 81.3276 62.5528 81.7115 61.8569C81.9989 61.6639 82.1614 61.9343 82.3349 62.1758C82.3335 62.3293 82.38 62.5791 82.4036 62.7389C84.1774 62.4421 84.2281 61.9918 85.5763 60.9507C86.5774 60.1773 87.6299 59.3921 88.6331 58.6063C90.4173 57.2511 91.1664 55.2941 91.9988 53.3607C92.2668 52.7388 93.2943 51.7323 93.7358 51.0813C95.5006 48.4804 95.7213 45.1045 95.9088 42.0601C95.9574 41.1823 95.9789 39.3459 95.8449 38.5207C95.8567 37.0828 94.8778 33.2631 94.387 31.7885C94.1149 30.9705 93.6719 30.1943 92.8409 29.8222C92.9298 27.3376 91.6336 26.0597 90.3639 24.0419C90.6589 23.9043 90.9526 23.7632 91.2442 23.6186C92.6812 25.6842 95.0688 29.3882 95.1389 31.9197C96.7426 33.6794 97.1348 39.905 96.9626 42.3594C96.7787 45.4539 96.4191 48.6692 94.7876 51.3753C94.4648 51.9114 92.8562 53.544 92.8048 53.7508C91.9495 57.211 89.6203 59.2365 86.8225 61.2945C85.3785 62.357 84.5884 63.2923 82.523 63.9349C83.2097 65.7701 83.6658 65.9735 85.4673 66.861C86.3115 67.2775 88.1076 67.7396 88.4075 68.6361C88.774 69.9276 87.9319 72.0057 87.3737 73.1478C86.8211 74.2788 85.5083 76.278 84.2496 76.583C81.9073 77.151 81.808 73.8437 81.9024 72.5646C78.2153 71.5726 75.8576 70.0328 75.1016 66.0773C71.4964 66.8223 69.4803 67.3183 65.8973 66.0219C65.6723 67.5383 65.5668 69.0705 65.5828 70.6035C65.6029 71.8189 65.9528 75.1207 65.0503 75.7419C63.5417 76.7802 58.8313 76.6363 57.1845 76.307C53.4918 75.5696 55.4621 72.2775 58.171 71.455C57.8579 69.837 57.7663 68.4403 57.8947 66.785C57.9482 66.1036 58.0759 65.407 58.1155 64.7346L58.1988 64.4005L58.5286 63.1795C57.5136 62.689 56.836 62.1536 56.0064 61.4342C55.2233 65.0805 54.4138 68.7212 53.5779 72.3557C53.3801 73.2418 52.7177 76.5194 52.4616 77.0936C51.8263 77.4927 48.8668 78.1001 47.9565 78.3159L41.2828 79.8917C40.6472 80.0411 36.5645 81.0677 36.1781 80.9965C34.3314 80.6575 31.6955 79.9699 29.8324 79.5195L19.338 76.9531C18.0406 76.6335 13.848 75.7432 12.8968 75.23C12.5656 74.5513 12.162 72.2844 11.9877 71.4287L10.6358 64.7415L9.67208 60.1254C9.46811 59.1583 9.12904 57.763 9.10245 56.8153C7.56019 55.9638 6.44495 55.0755 5.27043 53.7695C1.18966 49.2332 1.10406 41.681 5.29264 37.1844C7.02041 35.3295 9.45034 34.0182 12.0362 34.0707C13.0545 34.0941 14.1264 34.1843 15.1255 34.3847C15.8168 34.5234 16.5093 34.7753 17.2176 34.8235C20.6331 34.9739 24.0495 35.1145 27.4656 35.2508L31.1878 35.4146C31.8026 35.445 32.4595 35.4907 33.0749 35.5066C33.42 35.5156 34.1275 35.3661 34.4778 35.3601C36.0731 35.3329 41.5233 35.85 42.6052 36.8767C42.7074 37.4503 42.2035 39.1971 42.0419 39.8907C43.1851 39.629 44.4748 39.0882 45.5285 38.5833C45.8376 36.5657 46.2835 34.5714 46.8633 32.6139C47.1998 31.4697 47.6107 30.0709 48.1162 28.9937C50.0786 24.8453 53.2683 21.069 57.147 18.5759C58.7035 17.5757 60.5453 16.8299 62.113 15.7777C63.0717 15.134 65.0538 15.1923 66.0118 14.6576L66.0799 14.6189ZM44.2573 46.8001C44.2411 46.8612 44.2081 46.9701 44.201 47.0284L43.9399 47.152L43.9039 46.9287C43.1923 47.0867 42.6113 47.2679 41.8832 47.3673C41.284 48.0303 40.9792 48.232 40.0474 48.2865L39.9966 48.2891C39.4427 50.4048 38.9777 52.5506 38.4237 54.6674C38.3252 55.0444 38.2225 55.438 38.1443 55.8192C41.1678 56.3249 44.1939 56.8146 47.2226 57.2885C48.67 57.5223 50.8665 57.9567 52.2422 58.0868C50.8597 56.6749 49.6885 54.9192 49.1525 53.0044L48.9828 52.7132C48.8366 52.3715 48.8209 51.9723 48.6904 51.6486C48.1531 50.3149 47.8968 48.8587 46.9839 47.7161C46.5711 47.1996 46.3578 46.6066 46.1679 45.9671L45.8327 46.1233C45.2856 46.3902 44.8204 46.577 44.2573 46.8001ZM40.5357 46.286C40.39 46.7385 40.2608 47.3609 40.1484 47.8347C41.2411 47.3763 41.5189 46.9196 41.7313 45.7753C41.7647 45.5928 41.7491 45.2164 41.7481 45.0146C41.751 44.3606 41.5361 43.7584 41.3335 43.1463C41.1892 43.7651 40.9761 44.4184 40.8209 45.0827C40.7231 45.4716 40.6074 45.8947 40.5357 46.286Z" fill="#5E260D"/>
<path d="M58.9958 70.1165C60.5148 70.0729 61.8144 70.0577 63.3404 70.1448C63.75 70.1773 64.2478 70.2306 64.6497 70.223C64.6206 71.161 64.817 74.6018 64.4942 74.9844C63.7375 75.8816 57.1706 75.6284 56.325 75.0363C56.1723 74.7921 56.1313 74.3542 56.216 74.0927C56.6708 72.687 58.4564 72.521 59.227 72.0755C59.3943 71.8009 59.0534 70.6277 58.9958 70.1165Z" fill="#925026"/>
<path d="M83.6644 67.0105C83.9567 67.1398 84.4892 67.4338 84.8037 67.5985C85.5562 67.9921 87.0356 68.4881 87.6313 68.9979C87.4591 71.0925 86.3949 73.8395 84.7363 75.2369C84.4704 75.461 84.0969 75.6997 83.7359 75.6768C83.5394 75.6644 83.3888 75.571 83.2701 75.4174C82.4703 74.3798 83.0222 72.0402 82.8806 71.9026C82.5217 71.5532 80.8534 71.2094 80.2855 71.0234C82.1037 70.3925 82.9618 68.625 83.6644 67.0105Z" fill="#955123"/>
<path d="M61.1459 64.3036C61.3535 64.3292 61.6464 64.314 61.7735 64.4254C62.0297 64.5319 62.1213 64.5665 62.3914 64.6246C63.4355 64.9774 64.0693 65.1904 65.0656 65.6768C64.6796 67.3909 64.6768 68.4708 64.6497 70.223C64.2478 70.2306 63.75 70.1773 63.3404 70.1448C61.8144 70.0577 60.5148 70.0729 58.9958 70.1165C58.8195 68.7558 58.8264 67.6925 58.8882 66.3346C58.8861 66.1451 58.9014 66.1022 58.9444 65.9237C59.2652 65.8829 61.0417 64.6516 61.1459 64.3036Z" fill="#EAA642"/>
<path d="M58.8882 66.3346L59.2221 66.1852C61.2972 67.0215 62.2393 67.5466 63.2182 69.7284C63.2814 69.8681 63.3071 69.9961 63.3404 70.1448C61.8144 70.0577 60.5148 70.0729 58.9958 70.1165C58.8195 68.7558 58.8264 67.6925 58.8882 66.3346Z" fill="#F4BF56"/>
<path d="M61.1459 64.3036C61.3535 64.3292 61.6464 64.314 61.7735 64.4254C60.8633 65.2797 60.3308 65.591 59.2221 66.1852L58.8882 66.3346C58.8861 66.1451 58.9014 66.1022 58.9444 65.9237C59.2652 65.8829 61.0417 64.6516 61.1459 64.3036Z" fill="#A65F2F"/>
<path d="M53.8042 22.5821C55.1657 21.2556 56.6624 19.9921 58.3363 19.0769C59.3853 18.5033 60.4829 18.0074 61.4985 17.3778C61.6499 17.728 61.6714 17.8538 61.7485 18.2239C60.6599 18.914 59.7643 19.4038 58.6306 20.0083C58.3536 20.1629 57.1651 20.8128 57.0075 20.9511C56.2695 21.597 53.4023 24.3392 53.3294 25.082C53.3988 25.1458 53.4266 25.1826 53.5064 25.2278C53.1954 25.3738 53.0503 25.4536 52.7066 25.5259C53.2627 24.5003 53.094 24.5345 53.9604 23.5937C53.7994 23.3434 53.8035 23.2534 53.5647 23.1586C53.3502 23.2279 53.2947 23.2594 53.0947 23.3684C53.262 23.1336 53.5939 22.8037 53.8042 22.5821Z" fill="#F8CB75"/>
<path d="M53.0947 23.3684C53.262 23.1336 53.5939 22.8037 53.8042 22.5821C54.2215 22.8807 54.4207 23.1796 53.9604 23.5937C53.7994 23.3434 53.8035 23.2534 53.5647 23.1586C53.3502 23.2279 53.2947 23.2594 53.0947 23.3684Z" fill="#F4BF56"/>
<path d="M53.0947 23.3684C53.2947 23.2594 53.3502 23.2279 53.5647 23.1586C53.8035 23.2534 53.7994 23.3434 53.9604 23.5937C53.094 24.5345 53.2627 24.5003 52.7066 25.5259C52.5109 25.9655 51.8694 27.5643 51.5292 27.7289C51.1599 27.6715 51.172 27.5657 50.8231 27.7929C50.439 28.043 50.2094 28.4229 49.7544 28.1196C50.4556 26.9083 52.1131 24.3687 53.0947 23.3684Z" fill="#FAE0B5"/>
<path d="M62.3643 16.8876C63.3091 16.3573 64.774 15.9996 65.8619 15.8699L65.982 15.9912C65.8945 16.6563 66.057 16.6697 66.5179 17.277C65.9237 17.6482 64.7316 17.1536 63.4188 18.0797C63.3508 17.8526 62.5837 17.1084 62.3643 16.8876Z" fill="#F8CB75"/>
<path d="M58.9444 65.9237C59.0257 65.3848 59.025 64.2123 59.5102 63.91C59.7414 63.7661 60.1899 63.9778 60.437 64.0684L61.1459 64.3036C61.0417 64.6516 59.2652 65.8829 58.9444 65.9237Z" fill="#EAA642"/>
<path d="M62.1032 63.5427C62.3441 63.6264 63.2828 63.9363 63.3883 63.9951C62.8544 63.9086 62.583 63.8277 62.0977 64.0982C62.0033 64.2981 62.0095 64.1992 62.0671 64.4025L62.3914 64.6246C62.1213 64.5665 62.0297 64.5319 61.7735 64.4254C61.6464 64.314 61.3535 64.3292 61.1459 64.3036L60.437 64.0684L60.9994 64.0594C61.1695 64.067 61.3146 64.0982 61.4819 64.1272C61.8311 64.0034 61.9088 63.9176 62.1032 63.5427Z" fill="#925026"/>
<path d="M13.8069 74.7907L13.5953 74.6212C13.2847 73.8713 9.85439 57.0969 9.85175 57.1052L10.0782 57.0574L11.3269 57.3895C11.5055 57.7125 11.6221 58.0162 12.0003 58.0805C12.9747 58.2459 14.7726 58.7405 15.7101 58.6201C15.8906 58.4797 15.9033 58.4382 16.0271 58.2396C16.3733 58.0729 24.1871 59.6446 25.2273 59.7352C25.4012 59.7504 26.4726 59.9614 26.7038 60.0119C26.9017 60.3675 26.9858 60.5176 27.3329 60.7673C28.1433 60.8995 30.8558 61.4121 31.4205 61.3C31.6387 61.1167 31.6642 61.0427 31.8142 60.7922C32.0037 60.7438 35.883 61.437 36.3021 61.5179C36.1935 67.7555 36.0471 73.9924 35.8627 80.2279C33.591 79.5922 31.361 79.0831 29.0723 78.5227L19.1519 76.0815C18.4709 75.9148 14.2286 74.7941 13.8069 74.7907Z" fill="#A0682F"/>
<path d="M13.8069 74.7907L13.5953 74.6212C13.2847 73.8713 9.85439 57.0969 9.85175 57.1052L10.0782 57.0574C10.5082 57.9643 11.2157 62.1944 11.4621 63.3697L13.0615 70.9113C13.1984 71.5449 13.9218 74.3673 13.8069 74.7907Z" fill="#B18535"/>
<path d="M12.6838 59.4281C14.029 59.5817 15.5766 59.884 16.9241 60.1212L24.4543 61.4605L30.0044 62.4338C31.0761 62.613 32.6386 62.8046 33.6291 63.0813C33.9714 63.5198 33.8439 66.1672 33.8358 66.7884L33.7418 72.2215C33.7255 73.0896 33.7816 76.6411 33.4831 77.1814C32.6689 77.2506 29.9104 76.5332 28.9129 76.3126L17.7334 73.8222C17.0179 73.6624 15.9112 73.4514 15.2643 73.1927C15.1072 72.9506 14.9806 72.6704 14.9255 72.3847C14.1166 68.1865 13.1165 64.0075 12.3935 59.7989C12.3649 59.6329 12.5755 59.509 12.6838 59.4281Z" fill="#5E260D"/>
<path d="M13.8646 63.616C15.1084 63.937 17.2707 64.2282 18.6299 64.4911C23.4728 65.3952 28.3252 66.2488 33.1861 67.0513C33.1326 68.6562 33.1146 70.297 33.0812 71.9054C32.5161 71.9303 28.5332 71.0455 27.7791 70.8912L14.8477 68.2729C14.5239 67.1633 14.096 64.8072 13.8646 63.616Z" fill="#925026"/>
<path d="M14.9202 68.6949C19.0793 69.4994 23.2332 70.3302 27.3815 71.1873C29.201 71.5574 31.2659 72.0292 33.0826 72.3225C33.0375 73.7641 33.008 75.037 33.0116 76.4814C32.8338 76.4903 30.9682 76.0531 30.664 75.9847L25.1978 74.7679L19.0247 73.4086C17.98 73.1803 16.6946 72.9437 15.6842 72.6608C15.4693 71.3388 15.1861 70.0092 14.9202 68.6949Z" fill="#925026"/>
<path d="M24.0866 72.2893C24.3513 72.2651 25.2255 72.4083 25.4556 72.5065C26.478 72.9458 31.9783 73.7143 32.4757 74.1363C30.9248 74.1384 25.3601 72.9831 24.0866 72.2893Z" fill="#723617"/>
<path d="M13.095 60.0763C14.66 60.4989 17.6214 60.9264 19.353 61.2343L33.2236 63.6374L33.1951 66.6473C32.2322 66.5622 29.9027 66.0731 28.843 65.8877L19.0565 64.1666C17.5111 63.8948 15.3054 63.4389 13.7869 63.2805C13.5385 62.3784 13.3519 61.0918 13.095 60.0763Z" fill="#925026"/>
<path d="M23.7153 63.5959C23.8737 63.5918 24.0323 63.5925 24.1906 63.6001C25.0058 63.6368 29.7196 64.1763 30.1557 64.6536C29.8858 64.6862 29.0366 64.5942 28.7827 64.5167C27.9719 64.2711 24.1536 63.9667 23.7153 63.5959Z" fill="#723617"/>
<path d="M14.0995 61.6549C14.8907 61.6106 18.9898 62.1142 19.5458 62.5092C18.9395 62.5867 14.4924 61.9869 14.0995 61.6549Z" fill="#723617"/>
<path d="M8.57004 38.6974C12.5531 34.6682 15.6858 35.4804 20.7496 35.6702C24.3087 35.8035 27.967 36.0149 31.5256 36.114C29.9713 37.0753 27.9514 38.4993 27.0939 40.1767C26.9466 40.3462 26.8171 40.4291 26.8094 40.6136C26.0847 42.1167 25.1942 44.2739 25.1591 45.9627C25.1609 46.133 25.1828 46.3095 25.1228 46.4582L25.0759 46.8886C25.0722 48.5814 25.0978 50.0921 25.6468 51.7157C25.8601 51.964 26.2806 53.1746 26.2762 53.4541C26.6247 54.8459 28.015 56.6514 28.9231 57.7561C27.4897 57.4054 25.1181 57.0823 23.5968 56.8464C20.5609 56.3899 17.5298 55.9022 14.5041 55.3827C13.7052 55.2416 11.6623 55.0161 11.0289 54.7871C9.65917 54.2932 7.84434 52.0463 7.22119 50.7659C7.21327 50.7133 7.07984 50.3847 7.05214 50.3142C6.22842 49.5352 5.80458 45.761 5.99175 44.604L5.97169 44.3735C5.97106 44.2325 5.9989 44.1853 6.04521 44.0521C6.38851 43.133 6.40434 42.331 6.93189 41.2486C7.38322 40.3225 7.75805 39.939 8.20306 39.156L8.22708 39.113C8.35218 38.8885 8.37218 38.8615 8.57004 38.6974Z" fill="#925026"/>
<path d="M8.57004 38.6974C12.5531 34.6682 15.6858 35.4804 20.7496 35.6702C24.3087 35.8035 27.967 36.0149 31.5256 36.114C29.9713 37.0753 27.9514 38.4993 27.0939 40.1767C26.9466 40.3462 26.8171 40.4291 26.8094 40.6136C26.0847 42.1167 25.1942 44.2739 25.1591 45.9627C20.2349 45.6054 15.2335 44.8049 10.2929 44.4632C8.92403 44.3685 7.40565 44.2252 6.04521 44.0521C6.38851 43.133 6.40434 42.331 6.93189 41.2486C7.38322 40.3225 7.75805 39.939 8.20306 39.156L8.22708 39.113C8.35218 38.8885 8.37218 38.8615 8.57004 38.6974Z" fill="#A0682F"/>
<path d="M8.57004 38.6974C12.5531 34.6682 15.6858 35.4804 20.7496 35.6702C24.3087 35.8035 27.967 36.0149 31.5256 36.114C29.9713 37.0753 27.9514 38.4993 27.0939 40.1767C22.9576 39.9044 18.8413 39.5027 14.7083 39.1977C12.6648 39.0469 10.6066 38.925 8.57004 38.6974Z" fill="#A0682F"/>
<path d="M19.9741 37.5908C20.6823 37.4614 25.9188 37.6939 26.2229 38.0159C25.6184 38.0963 20.6838 37.8411 20.0423 37.7226L19.9741 37.5908Z" fill="#925026"/>
<path d="M8.22708 39.113C8.35218 38.8885 8.37218 38.8615 8.57004 38.6974C10.6066 38.925 12.6648 39.0469 14.7083 39.1977C18.8413 39.5027 22.9576 39.9044 27.0939 40.1767C26.9466 40.3462 26.8171 40.4291 26.8094 40.6136C20.6118 40.1562 14.4176 39.656 8.22708 39.113Z" fill="#723617"/>
<path d="M14.0243 40.8297C15.2697 40.7581 25.1434 41.6093 25.7613 42.0093C25.4737 42.215 22.6812 41.8342 22.0959 41.7709C20.2803 41.5683 18.462 41.3896 16.6417 41.2349C15.596 41.142 14.791 41.0557 13.7432 41.1185C15.2251 41.8566 16.8496 42.139 18.4618 42.4158C18.9665 42.5025 21.279 42.7812 21.5387 42.9549L21.514 43.0469C21.1699 43.1303 20.4742 42.9977 20.1166 42.9556C19.0136 42.8258 13.9899 42.0836 13.6478 41.1079C13.7748 40.8863 13.7367 40.9556 14.0243 40.8297Z" fill="#925026"/>
<path d="M7.22119 50.7659C8.64571 51.0052 10.0779 51.1761 11.5064 51.3892C13.6141 51.7233 15.7262 52.0283 17.8421 52.305C20.5675 52.6419 23.2993 52.9013 26.0267 53.2168C26.0865 53.2237 26.2516 53.4153 26.2762 53.4541C26.6247 54.8459 28.015 56.6514 28.9231 57.7561C27.4897 57.4054 25.1181 57.0823 23.5968 56.8464C20.5609 56.3899 17.5298 55.9022 14.5041 55.3827C13.7052 55.2416 11.6623 55.0161 11.0289 54.7871C9.65917 54.2932 7.84434 52.0463 7.22119 50.7659Z" fill="#925026"/>
<path d="M10.1012 53.3558L10.2676 53.362C12.3101 53.4444 22.9602 54.0109 23.9929 55.1267C21.5195 54.1846 10.8267 53.874 10.1012 53.3558Z" fill="#723617"/>
<path d="M6.04521 44.0521C7.40565 44.2252 8.92403 44.3685 10.2929 44.4632C15.2335 44.8049 20.2349 45.6054 25.1591 45.9627C25.1609 46.133 25.1828 46.3095 25.1228 46.4582L25.0759 46.8886C24.9865 47.3426 25.0113 47.8928 25.0135 48.3626C24.5888 48.2511 24.1917 48.216 23.7573 48.1651C18.7079 47.5738 13.6317 47.1668 8.60433 46.4036C7.77867 46.2783 6.81866 46.1819 6.03569 45.9221L5.99175 44.604L5.97169 44.3735C5.97106 44.2325 5.9989 44.1853 6.04521 44.0521Z" fill="#A65F2F"/>
<path d="M6.04521 44.0521C7.40565 44.2252 8.92403 44.3685 10.2929 44.4632C15.2335 44.8049 20.2349 45.6054 25.1591 45.9627C25.1609 46.133 25.1828 46.3095 25.1228 46.4582C24.8984 46.2809 19.0777 45.7824 18.3045 45.7066C14.1853 45.3419 10.0736 44.8974 5.97169 44.3735C5.97106 44.2325 5.9989 44.1853 6.04521 44.0521Z" fill="#723617"/>
<path d="M7.05214 50.3142C13.3264 51.127 19.7324 51.8257 25.9751 52.7498C25.8745 52.4434 25.7218 52.018 25.6468 51.7157C25.8601 51.964 26.2806 53.1746 26.2762 53.4541C26.2516 53.4153 26.0865 53.2237 26.0267 53.2168C23.2993 52.9013 20.5675 52.6419 17.8421 52.305C15.7262 52.0283 13.6141 51.7233 11.5064 51.3892C10.0779 51.1761 8.64571 51.0052 7.22119 50.7659C7.21327 50.7133 7.07984 50.3847 7.05214 50.3142Z" fill="#723617"/>
<path d="M6.95335 47.8892C7.20092 47.8642 7.42321 47.8997 7.66592 47.9419C11.0985 48.5383 14.5682 48.7342 18.026 49.1163C18.3662 49.1539 18.7931 49.219 19.1058 49.3554C18.5953 49.4045 16.8184 49.271 16.2281 49.2145C13.8648 48.9884 9.02574 48.7173 6.95335 47.8892Z" fill="#723617"/>
<path d="M55.2774 59.5886C55.435 59.554 55.4253 59.5478 55.5753 59.6045C55.6183 59.7989 52.1644 75.1303 51.8354 76.6003C51.2619 76.7539 50.6784 76.8992 50.0982 77.0271C45.6115 78.0177 41.1307 79.2428 36.6345 80.1705C36.4895 80.2037 36.4986 80.2009 36.3509 80.1767C36.169 79.8454 36.2825 79.4767 36.2898 79.1239C36.409 73.3138 36.63 67.3446 36.6971 61.5442C42.8751 61.0011 49.1141 60.106 55.2774 59.5886Z" fill="#B18535"/>
<path d="M52.6594 61.5905C52.7309 61.6016 52.8302 61.6085 52.8982 61.6396C53.0343 61.7019 53.1079 61.8326 53.1329 61.9745C53.1871 62.2851 50.7335 73.1886 50.4779 74.1909C50.4037 74.4815 50.3178 74.7755 50.1542 75.0307C50.0546 75.1857 49.6615 75.2742 49.4844 75.3213C48.3975 75.6104 47.26 75.7834 46.1584 76.0158L39.0639 77.5204L38.8162 77.4512C38.3374 77.0389 38.5555 75.7149 38.5651 75.102L38.6112 71.5007C38.6578 69.0851 38.6918 66.6687 38.7462 64.2538C38.7516 63.4742 38.945 63.3047 39.7129 63.2182C44.0044 62.7326 48.3668 61.9848 52.6594 61.5905Z" fill="#5E260D"/>
<path d="M39.393 63.928C40.5748 63.7149 41.945 63.6202 43.152 63.4493C46.1937 63.019 49.4371 62.743 52.4525 62.2387C52.3005 62.7617 52.1971 63.1754 52.0804 63.7052C51.9527 64.1936 51.8965 64.4413 51.8367 64.9387C51.8076 65.068 51.7757 65.2548 51.7229 65.3682C51.5431 66.0337 51.4271 66.7185 51.2557 67.3584L51.1676 67.6981L50.6331 70.1234C50.6236 70.1746 50.5514 70.5793 50.5416 70.6035C50.2212 71.9282 49.9155 73.2564 49.6247 74.5873C46.136 75.2659 42.657 75.9937 39.1888 76.7698C39.235 75.3289 39.2534 73.8872 39.2438 72.4456L39.2456 72.052C39.3272 70.5744 39.3431 68.6721 39.3256 67.1889L39.3263 66.8216C39.3012 65.968 39.3796 64.8238 39.393 63.928Z" fill="#A0682F"/>
<path d="M45.877 71.307C46.5488 71.2413 50.1485 70.5018 50.5416 70.6035C50.2212 71.9282 49.9155 73.2564 49.6247 74.5873C46.136 75.2659 42.657 75.9937 39.1888 76.7698C39.235 75.3289 39.2534 73.8872 39.2438 72.4456C41.3744 72.0818 43.7779 71.7635 45.877 71.307Z" fill="#A0682F"/>
<path d="M46.0569 73.834C46.2511 73.816 46.4461 73.7738 46.6139 73.8582C46.0154 74.2138 41.8623 74.745 40.9807 74.8467C40.7214 74.8924 40.5132 74.9463 40.2874 74.8329C40.5499 74.597 45.405 73.9163 46.0569 73.834Z" fill="#925026"/>
<path d="M39.393 63.928C40.5748 63.7149 41.945 63.6202 43.152 63.4493C46.1937 63.019 49.4371 62.743 52.4525 62.2387C52.3005 62.7617 52.1971 63.1754 52.0804 63.7052C51.9527 64.1936 51.8965 64.4413 51.8367 64.9387C51.8076 65.068 51.7757 65.2548 51.7229 65.3682C51.0304 65.3966 50.2894 65.5668 49.6006 65.6643C46.1751 66.1485 42.7524 66.7255 39.3256 67.1889L39.3263 66.8216C39.3012 65.968 39.3796 64.8238 39.393 63.928Z" fill="#A0682F"/>
<path d="M39.393 63.928C40.5748 63.7149 41.945 63.6202 43.152 63.4493C46.1937 63.019 49.4371 62.743 52.4525 62.2387C52.3005 62.7617 52.1971 63.1754 52.0804 63.7052C51.0146 63.9052 49.7908 63.9826 48.7021 64.0878C45.601 64.3859 42.4946 65.2492 39.4104 65.6C39.4005 65.9701 39.3734 66.4474 39.3846 66.8092L39.3263 66.8216C39.3012 65.968 39.3796 64.8238 39.393 63.928Z" fill="#925026"/>
<path d="M51.8367 64.9387C51.8076 65.068 51.7757 65.2548 51.7229 65.3682C51.0304 65.3966 50.2894 65.5668 49.6006 65.6643C46.1751 66.1485 42.7524 66.7255 39.3256 67.1889L39.3263 66.8216L39.3846 66.8092C39.9178 66.7511 40.493 66.6418 41.025 66.5456C44.595 65.8974 48.2685 65.5467 51.8367 64.9387Z" fill="#723617"/>
<path d="M51.2557 67.3584L51.1676 67.6981C51.1469 67.6635 51.0947 67.6241 51.0609 67.5936C48.5619 67.8793 45.4282 68.3525 43.0291 69.1058C42.7131 69.2054 42.0673 69.7159 41.8087 69.9415C43.2727 70.068 45.2927 69.5658 46.8512 69.4925C45.9058 69.9269 43.135 70.2735 41.9979 70.2188C41.8033 70.2098 41.7381 70.1082 41.6423 69.983C41.8471 68.2951 49.8246 67.4096 51.2557 67.3584Z" fill="#925026"/>
<path d="M39.2456 72.052L43.1735 71.3561C43.9813 71.2129 45.1174 70.9867 45.9185 70.9632L45.877 71.307C43.7779 71.7635 41.3744 72.0818 39.2438 72.4456L39.2456 72.052Z" fill="#723617"/>
<path d="M50.6331 70.1234C50.6236 70.1746 50.5514 70.5793 50.5416 70.6035C50.1485 70.5018 46.5488 71.2413 45.877 71.307L45.9185 70.9632C47.4021 70.7425 49.1193 70.38 50.6331 70.1234Z" fill="#723617"/>
<path d="M37.7065 36.6173C39.1616 36.3967 40.7061 36.8493 42.0606 37.2986L37.708 55.2084C37.2433 57.054 36.8698 58.9542 36.3573 60.786C35.7047 60.364 35.1373 59.9483 34.5109 59.4869C31.4412 57.1038 29.4617 53.591 29.0173 49.7386C28.2946 43.9493 31.3346 37.3979 37.7065 36.6173Z" fill="#B18535"/>
<path d="M38.2784 38.0015C38.8806 37.9303 40.2389 37.8368 40.5036 38.499C40.3968 39.4412 35.8057 57.9865 35.6889 58.1601C35.6279 58.25 35.5956 58.2611 35.4894 58.2694C34.9454 58.3116 34.1344 57.4213 33.754 57.0768C28.0245 51.6894 28.8337 38.9595 38.2784 38.0015Z" fill="#5E260D"/>
<path d="M35.9383 39.2031C37.5813 38.638 38.1172 38.6495 39.8012 38.681L39.5103 39.8258C38.5976 43.4837 37.705 47.1465 36.8327 50.8143L35.82 55.0686C35.6633 55.7521 35.4563 56.8921 35.2611 57.5251C33.791 56.4003 32.7978 55.1503 32.0049 53.4762C32.7565 51.2508 33.3488 48.4054 33.9822 46.1053C34.2102 45.2773 34.9558 42.7898 35.0521 42.1605C35.2407 41.3835 35.6996 40.0179 35.9383 39.2031Z" fill="#A65F2F"/>
<path d="M35.9383 39.2031C37.5813 38.638 38.1172 38.6495 39.8012 38.681L39.5103 39.8258L39.4219 39.7282C38.8845 39.778 37.4809 40.4873 37.1536 40.9266C37.2748 40.4374 37.6076 39.2908 37.5385 38.8422C37.1476 39.6683 37.0022 40.6004 36.7205 41.2158C36.0717 41.3269 35.8869 42.1246 35.0521 42.1605C35.2407 41.3835 35.6996 40.0179 35.9383 39.2031Z" fill="#925026"/>
<path d="M37.5385 38.8422C37.6076 39.2908 37.2748 40.4374 37.1536 40.9266C36.8115 41.6629 36.443 43.6998 36.066 44.1477C36.0472 43.8917 36.6216 41.637 36.7205 41.2158C37.0022 40.6004 37.1476 39.6683 37.5385 38.8422Z" fill="#723617"/>
<path d="M35.3072 39.5093L35.3503 39.6321C34.5223 42.8678 32.8116 49.2875 31.9064 52.8439C31.8778 52.8654 31.8491 52.8861 31.8205 52.9076C31.6587 52.7782 31.6199 52.5589 31.554 52.3549C30.6957 50.0347 30.6285 47.0852 31.2952 44.7219C31.9937 42.2452 33.0962 40.7814 35.3072 39.5093Z" fill="#925026"/>
<path d="M28.0319 40.0529C28.6823 40.3711 29.9114 39.8347 30.5427 40.7352C30.2114 41.3816 29.7682 42.1356 29.5084 42.7956C28.2935 45.9564 28.2001 49.4363 29.2437 52.6572C29.6315 53.8484 30.1619 54.8549 30.7563 55.9534C30.8113 55.9838 31.4643 56.8928 31.5242 56.9896C32.5106 58.5793 34.0392 59.4738 35.3739 60.7016C34.4844 60.4803 32.7463 60.279 31.7737 60.1434C31.6339 59.9033 31.4873 59.7242 31.3188 59.5056C30.4962 59.1804 28.6556 58.9854 27.7066 58.8878C27.0839 58.8235 27.0803 58.9591 26.6925 59.305C23.1627 58.6831 19.6281 58.0888 16.0889 57.5223C15.8922 57.2518 15.7463 57.092 15.5216 56.8464C15.0234 56.6694 12.2604 56.1063 11.7459 56.3048C11.4012 56.6617 11.3268 56.668 10.8267 56.5843C10.4999 56.5033 9.73192 56.4611 9.46512 56.2847C8.00096 55.3163 6.46245 54.1583 5.41497 52.7872C3.28287 49.9966 2.57343 46.8313 3.05259 43.4124L3.12098 43.6759L3.15208 43.6125C3.76038 43.5203 4.30668 43.3147 4.89061 43.6814C5.13366 43.834 4.95975 44.0869 5.28799 44.3549C5.07271 47.9138 5.82742 50.7154 8.22361 53.4651C8.71826 54.0331 9.9681 55.207 10.6891 55.3848C12.5216 55.8365 14.7844 56.1222 16.6664 56.4355C19.4573 56.9004 22.2508 57.3494 25.0467 57.7831C25.8737 57.9152 29.2119 58.5502 29.835 58.3918C30.2507 57.8972 29.4446 57.3812 29.1676 57.0284C27.0309 54.3111 25.7508 51.026 25.7563 47.554C25.7572 47.0151 25.7158 46.1034 25.8863 45.6033C26.1997 43.7608 26.8391 41.5246 28.0319 40.0529Z" fill="#A0682F"/>
<path d="M28.0319 40.0529C28.6823 40.3711 29.9114 39.8347 30.5427 40.7352C30.2114 41.3816 29.7682 42.1356 29.5084 42.7956C28.2935 45.9564 28.2001 49.4363 29.2437 52.6572C29.6315 53.8484 30.1619 54.8549 30.7563 55.9534L30.7536 56.0827C30.8826 56.2875 30.9082 56.3117 30.9632 56.5414C30.4924 56.3906 29.6836 54.5588 29.4521 54.0676C28.191 51.3905 28.0164 48.9257 28.283 46.0244C27.545 45.9543 26.6779 45.8814 25.9504 45.766L25.8863 45.6033C26.1997 43.7608 26.8391 41.5246 28.0319 40.0529Z" fill="#B18535"/>
<path d="M44.598 50.9769C45.7459 50.8897 45.8908 51.2515 46.1055 52.249C46.752 52.3251 47.233 52.3991 47.5173 53.068C47.8496 53.8504 47.1893 55.216 46.2165 54.821C46.2461 54.6695 46.6791 54.592 46.8741 54.4059C47.574 53.7391 47.3623 52.404 46.1868 52.5887C45.99 52.6357 45.8714 52.6924 45.6943 52.608C45.7684 52.1425 45.7202 51.3546 45.2247 51.1311C44.4721 51.0668 44.2303 51.7302 44.0793 52.3002L44.3407 53.2292C43.8388 53.4485 43.5072 53.9251 43.2467 54.0123C43.4038 53.6609 43.4204 53.6138 43.6802 53.3116C44.455 52.4088 43.2361 51.8921 44.598 50.9769Z" fill="#987969" fill-opacity="0.984314"/>
<path d="M41.858 40.8561C43.2912 40.5445 44.0631 40.2208 45.3844 39.6273C45.319 41.157 45.3599 43.6567 45.8821 45.1011C46.0045 45.3343 46.1372 45.7079 46.1679 45.9671L45.8327 46.1233C45.2856 46.3902 44.8204 46.577 44.2573 46.8001C44.2411 46.8612 44.2081 46.9701 44.201 47.0284L43.9399 47.152L43.9039 46.9287C43.9884 46.5758 43.844 46.338 43.6681 46.0064C43.1878 46.1885 42.8125 46.2854 42.3196 46.414C42.6631 44.6063 42.3665 43.6183 41.5763 42.0183C41.6642 41.6325 41.7642 41.2412 41.858 40.8561Z" fill="#F0B551"/>
<path d="M45.8821 45.1011C46.0045 45.3343 46.1372 45.7079 46.1679 45.9671L45.8327 46.1233C45.2856 46.3902 44.8204 46.577 44.2573 46.8001C44.2411 46.8612 44.2081 46.9701 44.201 47.0284L43.9399 47.152L43.9039 46.9287C43.9884 46.5758 43.844 46.338 43.6681 46.0064L43.7692 45.9798L44.0932 45.9041L44.2509 45.8428L45.1044 45.5272C45.3595 45.419 45.7288 45.3049 45.8821 45.1011Z" fill="#521F09"/>
<path d="M45.8821 45.1011C46.0045 45.3343 46.1372 45.7079 46.1679 45.9671L45.8327 46.1233C45.5881 45.8491 45.4449 45.6268 45.1044 45.5272C45.3595 45.419 45.7288 45.3049 45.8821 45.1011Z" fill="#723617"/>
<path d="M43.7692 45.9798L44.0932 45.9041C44.1478 46.1877 44.2202 46.5177 44.2573 46.8001C44.2411 46.8612 44.2081 46.9701 44.201 47.0284L43.9399 47.152L43.9039 46.9287C43.9884 46.5758 43.844 46.338 43.6681 46.0064L43.7692 45.9798Z" fill="#723617"/>
<path d="M43.7692 45.9798C43.7579 45.5808 43.7355 44.75 44.0933 44.5053C44.4507 44.7238 44.0709 45.3706 44.2509 45.8428L44.0932 45.9041L43.7692 45.9798Z" fill="#925026"/>
<path d="M33.3155 36.2139C34.5528 35.9799 35.7946 36.135 37.0621 36.205C33.9445 37.1435 32.4717 37.9707 30.5427 40.7352C29.9114 39.8347 28.6823 40.3711 28.0319 40.0529C28.5489 39.3389 28.9484 38.8379 29.6197 38.2513L30.2157 37.7797C31.0711 37.0966 32.2817 36.5623 33.3155 36.2139Z" fill="#D6AA57"/>
<path d="M30.2157 37.7797C31.0711 37.0966 32.2817 36.5623 33.3155 36.2139C33.2554 36.5026 33.223 36.4312 33.3343 36.6341C33.605 36.7535 34.0199 36.6289 34.3712 36.6154C33.7869 36.9795 33.1548 37.6629 32.7577 37.8292C32.0229 37.6839 30.9895 37.7561 30.2157 37.7797Z" fill="#B18535"/>
<path d="M30.2157 37.7797C30.9895 37.7561 32.0229 37.6839 32.7577 37.8292L32.0464 38.3003C31.1613 38.3327 30.4183 38.2371 29.6197 38.2513L30.2157 37.7797Z" fill="#C28E37"/>
<path d="M5.25946 38.3114C5.80861 38.5451 7.13954 38.5302 7.772 38.5855C6.24862 40.6028 5.69642 41.853 5.28799 44.3549C4.95975 44.0869 5.13366 43.834 4.89061 43.6814C4.30668 43.3147 3.76038 43.5203 3.15208 43.6125L3.12098 43.6759L3.05259 43.4124C3.41305 41.5548 4.08626 39.8136 5.25946 38.3114Z" fill="#B18535"/>
<path d="M52.0554 58.5551C53.1739 58.7709 54.3902 58.9314 55.4808 59.1687C53.6814 59.4039 37.0228 61.1692 36.8096 61.0496C36.8926 60.8033 36.8246 60.9092 37.039 60.7334C40.6689 60.2727 44.4557 60.0237 48.0995 59.5782C48.6404 59.5118 51.7618 59.2372 52.0874 59.0926L52.1061 58.9902L52.0429 58.921L52.1269 58.7917L52.0554 58.5551Z" fill="#F4BF56"/>
<path d="M7.93702 35.9837C9.97289 34.624 11.6705 34.7445 13.9531 34.8834C12.169 35.3621 10.7978 35.9393 9.27233 37.0437C9.05559 36.8463 8.32504 36.6823 8.002 36.5901C7.92446 36.2784 8.10614 36.3497 7.93702 35.9837Z" fill="#B18535"/>
<path d="M7.93702 35.9837C8.10614 36.3497 7.92446 36.2784 8.002 36.5901C8.32504 36.6823 9.05559 36.8463 9.27233 37.0437C8.68479 37.5535 8.25735 37.9633 7.772 38.5855C7.13954 38.5302 5.80861 38.5451 5.25946 38.3114C5.87998 37.5201 6.52604 36.9535 7.32983 36.366C7.4884 36.2441 7.75867 36.0917 7.93702 35.9837Z" fill="#F4BF56"/>
<path d="M7.93702 35.9837C8.10614 36.3497 7.92446 36.2784 8.002 36.5901C7.79519 36.6306 7.53505 36.4649 7.32983 36.366C7.4884 36.2441 7.75867 36.0917 7.93702 35.9837Z" fill="#C28E37"/>
<path d="M52.0429 58.921C50.2702 58.2735 38.6562 56.9564 37.9949 56.4722L37.9824 56.3235C38.0794 56.2882 38.2664 56.2806 38.3677 56.3C42.8817 57.1861 47.5547 57.6627 52.0554 58.5551L52.1269 58.7917L52.0429 58.921Z" fill="#C28E37"/>
<path d="M40.5357 46.286L40.6135 46.3199C41.2245 46.1204 40.8491 45.2322 41.3441 45.1595C41.2508 45.3464 41.1824 45.4279 41.2213 45.63C41.3847 45.7001 41.4998 45.6896 41.6706 45.6387L41.7313 45.7753C41.5189 46.9196 41.2411 47.3763 40.1484 47.8347C40.2608 47.3609 40.39 46.7385 40.5357 46.286Z" fill="#987969" fill-opacity="0.352941"/>
<path d="M28.4076 59.4696C28.8032 59.5526 29.2134 59.4987 29.5218 59.6847C29.6942 59.9518 29.6587 60.1994 29.7 60.5564C29.2287 60.4976 28.6126 60.519 28.3417 60.1074C28.2744 59.8431 28.333 59.7318 28.4076 59.4696Z" fill="#A0682F"/>
<path d="M12.8253 57.5852C12.7776 57.2629 12.7411 57.173 12.9064 56.9267C13.1491 56.8305 13.5089 56.917 13.787 56.9537C14.2599 57.1363 14.0621 57.4497 14.0619 57.9629C13.6873 57.8882 13.1002 57.817 12.8253 57.5852Z" fill="#A0682F"/>
<path d="M12.8253 57.5852C12.7776 57.2629 12.7411 57.173 12.9064 56.9267C13.1491 56.8305 13.5089 56.917 13.787 56.9537C13.2871 57.0152 13.1283 57.1986 12.8253 57.5852Z" fill="#A0682F"/>
<path d="M30.2153 59.7166C30.96 59.8452 31.428 59.9082 31.2645 60.8123C30.4897 60.7099 29.8544 60.6677 30.2153 59.7166Z" fill="#A0682F"/>
<path d="M14.6568 57.1045C15.3037 57.265 15.7249 57.3902 15.5132 58.1518C15.3607 58.1324 15.2083 58.1117 15.0564 58.0882C14.758 58.0411 14.7255 58.0211 14.5634 57.799C14.5044 57.5278 14.5787 57.3736 14.6568 57.1045Z" fill="#A0682F"/>
<path d="M44.201 47.0284C44.5506 48.3774 44.5214 48.4355 45.1276 49.6957C44.4346 49.0879 44.1308 48.0226 43.9399 47.152L44.201 47.0284Z" fill="#453733" fill-opacity="0.980392"/>
<path d="M60.2218 63.0882C60.6682 63.2134 61.0945 63.2964 61.2854 63.7703C61.2347 63.9093 61.2125 63.9446 61.0355 63.9785C60.855 63.8014 60.519 63.7267 60.2142 63.5454C60.0358 63.2086 60.3031 63.4147 60.2218 63.0882Z" fill="#521F09"/>
<path d="M40.5357 46.286C40.6074 45.8947 40.7231 45.4716 40.8209 45.0827C40.885 45.0979 41.5019 45.0384 41.6831 45.0358C41.5582 45.1828 41.6051 45.1361 41.3441 45.1595C40.8491 45.2322 41.2245 46.1204 40.6135 46.3199L40.5357 46.286Z" fill="#A65F2F" fill-opacity="0.231373"/>
<path d="M27.3435 59.3444C27.5488 59.3451 27.564 59.3444 27.7634 59.388L27.8512 59.545C27.8206 59.8528 27.8294 59.9753 27.8493 60.2783C27.5883 60.1876 27.4474 60.1122 27.294 59.8943C27.224 59.6405 27.2543 59.6079 27.3435 59.3444Z" fill="#A0682F"/>
<path d="M12.0099 56.6721C12.1565 56.7088 12.1762 56.7198 12.3135 56.7856C12.4193 57.0692 12.3737 57.4158 12.3551 57.7264C12.0958 57.5486 11.9322 57.4635 11.828 57.1764C11.8396 56.9115 11.8566 56.9011 12.0099 56.6721Z" fill="#A0682F"/>
<path d="M41.6831 45.0358L41.7481 45.0146C41.7491 45.2164 41.7647 45.5928 41.7313 45.7753L41.6706 45.6387C41.4998 45.6896 41.3847 45.7001 41.2213 45.63C41.1824 45.4279 41.2508 45.3464 41.3441 45.1595C41.6051 45.1361 41.5582 45.1828 41.6831 45.0358Z" fill="#988179" fill-opacity="0.552941"/>
<path d="M48.9828 52.7132C49.0278 52.4254 49.0687 52.092 49.1465 51.8146L49.2366 51.8921L49.2167 51.6596L49.2365 51.7669L49.1436 51.8485L49.2237 51.6576C49.2848 52.0449 49.1898 52.5914 49.1525 53.0044L48.9828 52.7132Z" fill="#723617"/>
<path d="M72.5704 12.033C72.6502 12.0332 72.7071 12.0402 72.7786 11.9974C73.309 11.6789 74.6954 2.39253 75.1224 0.994969C75.2265 0.656076 75.3425 0.421846 75.6702 0.263156C77.2843 -0.517287 81.4782 0.632418 83.1534 1.19738C85.1716 1.79686 86.5177 2.55876 88.3103 3.26228C88.588 3.38465 88.915 3.51837 89.1843 3.64821C90.1632 4.13431 92.3799 5.61668 92.7507 6.60403C93.0325 7.35632 91.1615 10.4926 90.6895 11.3029C89.7654 12.8881 89.0205 14.4504 88.1548 16.0226C87.9277 16.4971 87.6723 16.9949 87.5056 17.4907C87.6688 17.5547 88.2006 17.7527 88.3228 17.8269L88.2297 17.9017L87.9541 17.8008L87.9007 17.8553C88.0874 18.309 89.4384 18.911 89.864 19.2802C90.7998 19.9004 92.2543 21.0578 91.6392 22.3531L91.6093 22.4163L91.7405 22.4191C91.9259 22.1613 91.8905 21.7488 91.8856 21.4233C92.1314 21.8652 92.3272 22.0971 92.2161 22.5878C91.946 22.9733 91.4448 23.17 91.4045 23.4516L91.2754 23.5042L91.2442 23.6186C90.9526 23.7632 90.6589 23.9043 90.3639 24.0419C88.093 24.7418 86.4671 24.5252 84.1545 24.3212C83.6387 24.1582 81.9031 23.8596 81.1908 23.6779C80.1251 23.3111 78.8165 22.9717 77.6856 22.5993C75.2196 21.6532 73.4021 20.6932 71.1437 19.3851C69.2873 18.0711 68.3112 17.3792 66.7588 15.7132C66.5193 15.3733 66.2951 14.979 66.0799 14.6189C65.6029 13.5172 65.3086 12.1811 66.661 11.5384C68.3126 10.7531 70.9132 11.4885 72.5704 12.033Z" fill="#7560C6"/>
<path d="M66.0799 14.6189C65.6029 13.5172 65.3086 12.1811 66.661 11.5384C68.3126 10.7531 70.9132 11.4885 72.5704 12.033L72.5919 12.4094C72.435 12.5331 72.4051 12.5004 72.1753 12.5377C72.6301 12.6441 72.7759 12.6912 73.2056 12.5027L72.9959 13.2916C72.9237 13.6015 72.8751 13.7394 73.064 14.0012C74.5233 16.0253 78.5957 17.8774 80.8819 18.478L80.9749 18.4907C81.6768 18.5899 82.3002 18.8179 82.9472 18.9264C83.6498 19.0444 84.7689 19.0247 85.4916 19.0221C86.4858 18.9003 86.2859 18.3036 86.7871 17.5617L86.8878 17.5832C87.1467 17.1985 87.548 16.2302 87.8125 15.7371C87.9861 16.2529 87.566 16.9202 87.4189 17.4205C87.4078 17.4585 87.5813 17.7815 87.6119 17.8379C87.5043 17.9291 87.5667 17.8995 87.4237 17.9243C87.6688 18.2162 89.5328 19.2574 89.864 19.2802C90.7998 19.9004 92.2543 21.0578 91.6392 22.3531L91.6093 22.4163L91.7405 22.4191C91.9259 22.1613 91.8905 21.7488 91.8856 21.4233C92.1314 21.8652 92.3272 22.0971 92.2161 22.5878C91.946 22.9733 91.4448 23.17 91.4045 23.4516L91.2754 23.5042L91.2442 23.6186C90.9526 23.7632 90.6589 23.9043 90.3639 24.0419C88.093 24.7418 86.4671 24.5252 84.1545 24.3212C83.6387 24.1582 81.9031 23.8596 81.1908 23.6779C80.1251 23.3111 78.8165 22.9717 77.6856 22.5993C75.2196 21.6532 73.4021 20.6932 71.1437 19.3851C69.2873 18.0711 68.3112 17.3792 66.7588 15.7132C66.5193 15.3733 66.2951 14.979 66.0799 14.6189Z" fill="#7964C5"/>
<path d="M66.0799 14.6189C65.6029 13.5172 65.3086 12.1811 66.661 11.5384C68.3126 10.7531 70.9132 11.4885 72.5704 12.033L72.5919 12.4094C72.435 12.5331 72.4051 12.5004 72.1753 12.5377C70.9875 12.1418 68.2535 11.5345 67.0844 12.142C66.8796 12.2484 66.6977 12.4353 66.5374 12.6027C65.673 14.752 70.3953 18.6013 72.1628 19.3349C72.6079 19.6691 73.5576 20.1431 74.079 20.4001C77.3169 21.9945 80.5868 23.1996 84.1892 23.6496C85.7395 23.8433 86.5754 24.106 88.2374 23.8672C88.8081 23.7852 90.9894 23.2909 91.2754 23.5042L91.2442 23.6186C90.9526 23.7632 90.6589 23.9043 90.3639 24.0419C88.093 24.7418 86.4671 24.5252 84.1545 24.3212C83.6387 24.1582 81.9031 23.8596 81.1908 23.6779C80.1251 23.3111 78.8165 22.9717 77.6856 22.5993C75.2196 21.6532 73.4021 20.6932 71.1437 19.3851C69.2873 18.0711 68.3112 17.3792 66.7588 15.7132C66.5193 15.3733 66.2951 14.979 66.0799 14.6189Z" fill="#3C3181"/>
<path d="M72.1628 19.3349C74.2421 19.8076 76.4019 21.63 78.0195 21.656L78.0972 21.5976C78.0028 21.5299 77.6793 21.6333 77.2947 21.1897C77.7071 21.2215 78.4749 21.7208 78.9831 21.6809C82.0544 22.5707 85.1341 23.2754 88.4026 23.0696C89.5342 22.9984 90.6291 22.5893 91.6093 22.4163L91.7405 22.4191C91.9259 22.1613 91.8905 21.7488 91.8856 21.4233C92.1314 21.8652 92.3272 22.0971 92.2161 22.5878C91.946 22.9733 91.4448 23.17 91.4045 23.4516L91.2754 23.5042C90.9894 23.2909 88.8081 23.7852 88.2374 23.8672C86.5754 24.106 85.7395 23.8433 84.1892 23.6496C80.5868 23.1996 77.3169 21.9945 74.079 20.4001C73.5576 20.1431 72.6079 19.6691 72.1628 19.3349Z" fill="#5745A8"/>
<path d="M72.1628 19.3349C70.3953 18.6013 65.673 14.752 66.5374 12.6027C67.1143 13.3815 67.7752 14.9278 68.1939 15.3801C70.1377 17.4795 73.6201 19.5392 76.227 20.7055C77.0823 21.0881 78.0806 21.2667 78.9831 21.6809C78.4749 21.7208 77.7071 21.2215 77.2947 21.1897C77.6793 21.6333 78.0028 21.5299 78.0972 21.5976L78.0195 21.656C76.4019 21.63 74.2421 19.8076 72.1628 19.3349Z" fill="#6050AA"/>
<path d="M79.7301 18.6637C78.7797 18.4872 77.6488 17.8792 76.7615 17.5164C76.043 17.2225 71.0555 13.8428 72.7502 13.1487L72.9959 13.2916C72.9237 13.6015 72.8751 13.7394 73.064 14.0012C74.5233 16.0253 78.5957 17.8774 80.8819 18.478C80.4153 18.7525 80.0599 18.3827 79.7086 18.5783L79.7301 18.6637Z" fill="#4D448F"/>
<path d="M80.8819 18.478L80.9749 18.4907C81.6768 18.5899 82.3002 18.8179 82.9472 18.9264C83.6498 19.0444 84.7689 19.0247 85.4916 19.0221C85.1167 19.309 84.0129 19.0105 83.7449 19.2821L83.8199 19.1937L83.847 19.346C84.1365 19.4485 84.3753 19.4283 84.6794 19.4277C83.5235 19.8875 80.9096 19.1647 79.7301 18.6637L79.7086 18.5783C80.0599 18.3827 80.4153 18.7525 80.8819 18.478Z" fill="#3B2D79"/>
<path d="M73.779 10.3623C74.4462 11.0082 76.9122 12.8332 77.7182 13.2005C78.4798 13.548 81.4463 14.8947 82.1961 14.9966C82.6806 15.145 83.7692 15.3952 84.2712 15.4054L84.4426 15.4639C85.6846 15.654 86.508 15.5966 87.7403 15.5188L86.7871 17.5617C86.2859 18.3036 86.4858 18.9003 85.4916 19.0221C84.7689 19.0247 83.6498 19.0444 82.9472 18.9264C82.3002 18.8179 81.6768 18.5899 80.9749 18.4907L80.8819 18.478C78.5957 17.8774 74.5233 16.0253 73.064 14.0012C72.8751 13.7394 72.9237 13.6015 72.9959 13.2916L73.2056 12.5027C73.4083 11.7924 73.5992 11.0787 73.779 10.3623Z" fill="#E8E6E8"/>
<path d="M89.1843 3.64821C90.1632 4.13431 92.3799 5.61668 92.7507 6.60403C93.0325 7.35632 91.1615 10.4926 90.6895 11.3029C89.7654 12.8881 89.0205 14.4504 88.1548 16.0226C87.9277 16.4971 87.6723 16.9949 87.5056 17.4907C87.6688 17.5547 88.2006 17.7527 88.3228 17.8269L88.2297 17.9017L87.9541 17.8008L87.9007 17.8553C88.0874 18.309 89.4384 18.911 89.864 19.2802C89.5328 19.2574 87.6688 18.2162 87.4237 17.9243C87.5667 17.8995 87.5043 17.9291 87.6119 17.8379C87.5813 17.7815 87.4078 17.4585 87.4189 17.4205C87.566 16.9202 87.9861 16.2529 87.8125 15.7371C87.548 16.2302 87.1467 17.1985 86.8878 17.5832L86.7871 17.5617L87.7403 15.5188C86.508 15.5966 85.6846 15.654 84.4426 15.4639C84.7127 14.9152 85.0091 14.38 85.332 13.8603C85.7957 13.1067 89.092 8.14735 89.074 7.79109L88.9483 7.71735C89.2017 7.58875 89.3232 7.57402 89.3864 7.29351C89.6474 7.31682 89.7855 7.32215 90.0438 7.39706C90.8248 7.51127 91.2844 7.49689 92.0634 7.36926C92.1251 7.25269 92.1154 7.22738 92.1397 7.09013C91.8592 5.9313 89.9438 4.74825 89.0496 4.12227L89.1843 3.64821Z" fill="#5745A8"/>
<path d="M89.1843 3.64821C90.1632 4.13431 92.3799 5.61668 92.7507 6.60403C93.0325 7.35632 91.1615 10.4926 90.6895 11.3029C89.7654 12.8881 89.0205 14.4504 88.1548 16.0226C88.0909 15.9091 87.8326 15.4654 87.8507 15.4152C88.5047 13.5819 90.9928 9.38435 91.803 7.95891L92.0634 7.36926C92.1251 7.25269 92.1154 7.22738 92.1397 7.09013C91.8592 5.9313 89.9438 4.74825 89.0496 4.12227L89.1843 3.64821Z" fill="#3C3181"/>
<path d="M90.0438 7.39706C90.8248 7.51127 91.2844 7.49689 92.0634 7.36926L91.803 7.95891C91.1914 7.9576 89.8814 7.98222 89.3891 7.70434L89.3912 7.58674C89.5974 7.41678 89.7724 7.42854 90.0438 7.39706Z" fill="#483A90"/>
<path d="M72.5704 12.033C72.6502 12.0332 72.7071 12.0402 72.7786 11.9974C73.309 11.6789 74.6954 2.39253 75.1224 0.994969C75.2265 0.656076 75.3425 0.421846 75.6702 0.263156C77.2843 -0.517287 81.4782 0.632418 83.1534 1.19738C83.1861 1.34818 83.2374 1.54699 83.2485 1.69496C81.3366 1.19509 77.9667 0.379993 76.0437 0.84029C75.5091 0.968266 74.7378 6.98553 74.3747 7.82229C74.1505 8.34028 74.0977 9.63705 73.779 10.3623C73.5992 11.0787 73.4083 11.7924 73.2056 12.5027C72.7759 12.6912 72.6301 12.6441 72.1753 12.5377C72.4051 12.5004 72.435 12.5331 72.5919 12.4094L72.5704 12.033Z" fill="#473F91"/>
<path d="M83.1534 1.19738C85.1716 1.79686 86.5177 2.55876 88.3103 3.26228L88.3665 3.6799C87.2231 3.13126 85.8867 2.79257 84.7613 2.14896C84.2788 1.87316 83.779 1.8331 83.2485 1.69496C83.2374 1.54699 83.1861 1.34818 83.1534 1.19738Z" fill="#7964C5"/>
<path d="M82.1641 5.23981C83.177 5.60465 85.1556 6.24058 86.0776 6.64381C85.8436 6.68995 85.6631 6.70122 85.4743 6.83902C85.0779 6.86316 82.3689 5.73283 81.8135 5.51735C81.9336 5.39913 82.0288 5.33853 82.1641 5.23981Z" fill="#483A90"/>
<path d="M86.2532 6.69182C87.1266 6.89879 88.4866 7.20766 89.3864 7.29351C89.3232 7.57402 89.2017 7.58875 88.9483 7.71735C88.4658 7.60791 86.2289 7.24142 86.0498 7.01846C86.172 6.98208 86.1456 6.98609 86.2553 6.91442L86.2532 6.69182Z" fill="#5745A8"/>
<path d="M81.8135 5.51735C81.5004 5.37014 81.0401 5.27578 80.8673 5.02391C80.961 4.92693 81.0395 4.8388 81.1283 4.7378C81.5587 4.9995 81.6934 5.06833 82.1641 5.23981C82.0288 5.33853 81.9336 5.39913 81.8135 5.51735Z" fill="#3C3181"/>
<path d="M88.3103 3.26228C88.588 3.38465 88.915 3.51837 89.1843 3.64821L89.0496 4.12227C88.9177 4.0744 88.5074 3.77633 88.3665 3.6799L88.3103 3.26228Z" fill="#6050AA"/>
<path d="M82.1961 14.9966C82.5619 14.989 83.0993 14.9322 83.4242 15.042C83.7894 15.1655 83.8005 15.2149 84.2101 15.2827L84.2712 15.4054C83.7692 15.3952 82.6806 15.145 82.1961 14.9966Z" fill="#5745A8"/>
<path d="M86.0776 6.64381L86.2532 6.69182L86.2553 6.91442C86.1456 6.98609 86.172 6.98208 86.0498 7.01846L85.4743 6.83902C85.6631 6.70122 85.8436 6.68995 86.0776 6.64381Z" fill="#3C3181"/>
<path d="M76.0791 1.33559C76.4797 1.39799 77.2614 2.46759 77.7231 2.68369C77.805 2.72222 78.2778 3.04998 78.3902 3.12483L78.3701 3.17166C78.1972 3.1285 78.0924 3.05116 77.9403 2.9595L77.9452 3.04617L77.9265 3.15471C77.7071 3.42927 77.3252 3.15084 77.1128 2.99035L77.051 2.9431L76.9712 2.98744L76.9476 3.44352L76.8927 3.47645C76.8518 1.82895 76.1693 2.53704 76.0791 1.33559Z" fill="#5745A8"/>
<path d="M77.5252 44.5701C77.7911 44.687 77.8563 44.6615 77.9882 44.8778C77.957 45.1247 77.8237 45.2948 77.6161 45.4302C75.1162 47.0564 71.3818 48.2172 68.509 48.6548C69.2352 49.8438 69.624 50.9492 69.692 52.3555C70.1988 52.4344 71.6172 52.2158 72.1538 52.1217C74.1421 51.7731 76.2929 51.0543 78.0625 50.0755C79.6565 49.1939 80.214 48.7207 81.9406 48.0923C82.0308 48.8007 82.1287 49.3782 81.3907 49.7677C81.59 49.9517 81.6316 49.9648 81.6747 50.2152C81.5622 50.9015 80.6618 51.1422 80.2091 51.6742C77.2815 53.6298 72.6856 55.2623 69.154 55.3695C68.6555 55.9741 68.4257 56.2536 67.635 56.4508L67.5385 56.4466C66.7283 56.4079 66.7047 56.0364 66.2486 56.5296C65.1885 57.6772 63.3786 57.9373 61.8269 58.0826C60.2649 58.0923 59.7518 57.9996 58.3425 57.3376C57.1304 56.7683 57.0012 55.216 56.9679 55.1911C55.6544 54.2095 54.9636 53.6242 56.0161 51.9875C55.6232 51.632 55.5239 51.4825 55.3573 51.0045C55.3427 49.6093 56.0112 49.1546 57.2914 48.8765C58.1308 48.7152 58.918 48.6648 59.7581 48.5485C59.3811 47.8067 59.1013 46.9856 59.3637 46.1531C59.6782 45.1579 60.5995 44.226 61.7179 44.699C62.4747 45.019 62.5781 46.2439 63.2085 46.726C63.9714 47.2683 64.4755 47.1445 65.3516 47.7484C66.427 47.1212 66.9699 47.2798 67.9633 47.9187C70.4599 47.3678 72.5683 46.9216 74.9461 45.8504C75.859 45.4391 76.6421 45.0045 77.5252 44.5701Z" fill="#5E260D"/>
<path d="M81.9406 48.0923C82.0308 48.8007 82.1287 49.3782 81.3907 49.7677C77.1878 52.4856 74.6323 53.8359 69.4969 54.4709C69.6538 53.7328 69.7503 53.1151 69.692 52.3555C70.1988 52.4344 71.6172 52.2158 72.1538 52.1217C74.1421 51.7731 76.2929 51.0543 78.0625 50.0755C79.6565 49.1939 80.214 48.7207 81.9406 48.0923Z" fill="#EAA642"/>
<path d="M56.2376 53.4727C56.0418 51.2806 58.0315 53.0708 58.4335 51.9938C58.1835 51.4742 56.5333 51.9045 56.2105 51.3172C54.7033 48.574 61.0674 49.9109 61.0973 48.5287C60.8321 48.2568 60.5995 48.5337 60.4093 48.2989C59.7185 47.4481 59.8074 45.2189 61.2701 45.3085C61.7818 45.3398 62.1671 46.5576 62.501 46.9707C63.0995 47.7127 64.0582 47.651 64.8177 48.1532C65.1704 48.3857 65.369 48.8723 65.7814 48.9323C65.9778 48.7466 65.6619 48.5744 65.9174 48.1393C67.6725 47.0769 68.8867 50.7258 68.9818 51.9211C69.163 53.001 69.0408 55.548 67.5558 55.7327C67.3351 55.7604 67.0893 55.7957 66.888 55.6877C66.8769 55.4477 66.9393 55.2284 66.8477 55.0956C66.4353 55.254 65.9105 56.0765 65.4856 56.3511C63.7271 57.4863 61.023 57.743 59.0812 56.9585C58.2759 56.6334 57.8614 56.0717 57.6143 55.2817C58.2877 55.3889 58.5348 55.3709 59.1444 55.4283C59.1978 55.2948 59.22 55.1924 59.2561 55.0541C59.1694 54.839 59.2325 54.9116 58.9902 54.7975C57.8753 54.7919 56.6756 54.6508 56.2376 53.4727Z" fill="#FEFEFE"/>
<path d="M68.9818 51.9211C69.163 53.001 69.0408 55.548 67.5558 55.7327C67.3351 55.7604 67.0893 55.7957 66.888 55.6877C66.8769 55.4477 66.9393 55.2284 66.8477 55.0956C66.4353 55.254 65.9105 56.0765 65.4856 56.3511C63.7271 57.4863 61.023 57.743 59.0812 56.9585C58.2759 56.6334 57.8614 56.0717 57.6143 55.2817C58.2877 55.3889 58.5348 55.3709 59.1444 55.4283C59.1457 55.5155 59.152 55.4851 59.2235 55.5826C61.4361 56.098 63.264 55.9527 65.2391 54.7317C65.7793 54.3976 66.2541 53.9473 66.7866 53.6443C66.7658 53.2894 66.7297 52.9401 66.7672 52.588C66.8803 52.9961 66.7547 53.2984 66.9109 53.7176L67.0122 53.7522C67.3573 53.3966 67.2594 53.084 67.2663 52.5873C67.3677 52.7409 67.3316 53.2002 67.3302 53.4132C67.6947 53.324 68.2327 53.1608 68.5167 52.9083C68.9707 52.505 68.9506 52.4206 68.9818 51.9211Z" fill="#D7D1DB"/>
<path d="M66.7672 52.588C66.745 52.1397 66.5339 50.9174 66.6971 50.6407C67.0678 50.8731 67.242 52.1826 67.2663 52.5873C67.2594 53.084 67.3573 53.3966 67.0122 53.7522L66.9109 53.7176C66.7547 53.2984 66.8803 52.9961 66.7672 52.588Z" fill="#5E260D"/>
<path d="M56.2376 53.4727C57.5004 54.4792 57.7316 54.2475 58.9902 54.7975C57.8753 54.7919 56.6756 54.6508 56.2376 53.4727Z" fill="#D7D1DB"/>
<path d="M48.528 31.0744C51.0741 30.9009 52.0034 31.0098 53.2641 33.4142C53.589 35.6487 52.5116 37.3995 50.5109 38.2675C50.2135 38.3966 49.9305 38.5863 49.6178 38.6904C48.6229 38.4811 47.7765 37.8343 47.3158 36.931C47.2052 36.7154 47.1421 36.4278 46.9888 36.3271C47.0439 35.6253 48.195 31.6845 48.528 31.0744Z" fill="#A65F2F"/>
<path d="M81.9406 48.0923C82.6786 47.5563 84.0539 47.4851 84.9258 47.6597C87.5036 48.1762 88.2603 51.6804 86.0019 53.1504C84.9855 53.82 83.5887 54.3533 82.4286 54.1424C81.776 54.0268 81.1977 53.656 80.8229 53.1116C80.5924 52.7803 80.466 52.4565 80.3292 52.0816C80.2945 51.9412 80.2522 51.8118 80.2091 51.6742C80.6618 51.1422 81.5622 50.9015 81.6747 50.2152C81.6316 49.9648 81.59 49.9517 81.3907 49.7677C82.1287 49.3782 82.0308 48.8007 81.9406 48.0923Z" fill="#925026"/>
<path d="M95.8449 38.5207C95.9789 39.3459 95.9574 41.1823 95.9088 42.0601C95.7213 45.1045 95.5006 48.4804 93.7358 51.0813C93.2943 51.7323 92.2668 52.7388 91.9988 53.3607C91.1664 55.2941 90.4173 57.2511 88.6331 58.6063C88.3061 58.5924 88.2172 58.5662 87.9076 58.4852L87.9396 58.3586C88.665 58.5931 88.6574 58.4652 89.1489 57.945C89.544 57.5264 89.8536 57.0983 90.1813 56.6285C90.1535 55.629 90.2965 55.2395 90.5978 54.3208C90.7436 53.7536 90.7741 53.0923 91.0616 52.5728C91.5698 51.6576 92.9006 50.797 93.0679 49.702C93.6039 46.1868 91.635 41.1416 95.7054 39.1063C95.847 39.0354 95.8303 38.6758 95.8449 38.5207Z" fill="#EAA642"/>
<path d="M80.2091 51.6742C80.2522 51.8118 80.2945 51.9412 80.3292 52.0816C79.9099 52.5264 79.6031 52.9221 79.1407 53.3475C76.1298 56.1208 72.2385 57.5756 68.2695 58.3545C67.9092 58.425 67.7558 58.5039 67.4246 58.643C67.7974 57.9588 68.0307 57.1882 67.635 56.4508C68.4257 56.2536 68.6555 55.9741 69.154 55.3695C72.6856 55.2623 77.2815 53.6298 80.2091 51.6742Z" fill="#EAA642"/>
<path d="M48.2806 47.679C49.4817 48.1117 49.5855 49.518 50.0161 50.5611C50.5332 51.8139 51.323 52.9179 52.2727 53.8816C52.4949 54.1071 52.7983 54.527 53.0364 54.6418L53.1836 54.5962C53.5252 55.3792 53.6571 55.6767 54.3881 56.1561L54.0438 55.3979C54.4985 55.5563 54.8768 55.7929 55.3191 56.0233C56.7215 56.7544 56.811 57.597 56.8263 59.0504C56.8374 60.0673 58.8701 61.2038 59.7227 61.5075C60.1489 61.6715 60.6967 61.7358 61.073 61.8908C60.712 62.2263 60.4141 62.4961 60.0302 62.8032C58.5619 62.2685 57.3817 61.2792 56.2855 60.2001C56.3167 60.0749 56.4382 59.5824 56.4514 59.4821C56.5812 58.4977 54.645 58.6692 53.9834 58.2189C53.1975 57.6835 52.6636 57.1294 52.0783 56.4169C50.7747 54.8279 50.1795 53.1518 49.6114 51.219C49.4646 50.7195 49.0817 49.989 48.9108 49.4661C48.6633 48.7087 48.7675 48.3578 48.2806 47.679Z" fill="#EAA642"/>
<path d="M53.1759 50.4947C52.4421 49.787 52.0575 48.4421 52.288 47.4964C53.0427 44.4064 56.9193 45.1212 57.1574 48.0794C57.1804 48.3658 57.1456 48.6508 57.2914 48.8765C56.0112 49.1546 55.3427 49.6093 55.3573 51.0045C54.6866 50.9907 54.227 51.0294 53.614 50.7313C53.5835 50.3252 53.7445 50.465 53.5668 49.9641L53.4564 49.9365C53.2641 50.1018 53.2495 50.2491 53.1759 50.4947Z" fill="#925026"/>
<path d="M81.1908 23.6779C81.9031 23.8596 83.6387 24.1582 84.1545 24.3212C86.6739 28.2309 82.2967 29.8087 80.1536 26.2434C80.0779 24.9832 80.189 24.5167 81.1908 23.6779Z" fill="#AB5C26"/>
<path d="M71.1437 19.3851C73.4021 20.6932 75.2196 21.6532 77.6856 22.5993C77.5974 22.7573 77.3363 23.0321 77.1774 23.1291C75.2057 24.3291 72.301 23.0876 71.1846 21.3471C70.9916 20.9107 70.6931 19.879 70.9243 19.4404L71.1437 19.3851Z" fill="#A65F2F"/>
<path d="M61.8269 58.0826C63.3786 57.9373 65.1885 57.6772 66.2486 56.5296C66.7047 56.0364 66.7283 56.4079 67.5385 56.4466L67.635 56.4508C68.0307 57.1882 67.7974 57.9588 67.4246 58.643C65.6036 60.6587 63.121 60.5958 61.8269 58.0826Z" fill="#89461D"/>
<path d="M53.2641 33.4142C54.2055 34.3578 54.7477 34.6276 54.7276 36.1075C54.688 38.9721 51.8027 39.2827 49.6178 38.6904C49.9305 38.5863 50.2135 38.3966 50.5109 38.2675C52.5116 37.3995 53.589 35.6487 53.2641 33.4142Z" fill="#B87B3D"/>
<path d="M66.7588 15.7132C68.3112 17.3792 69.2873 18.0711 71.1437 19.3851L70.9243 19.4404C70.6931 19.879 70.9916 20.9107 71.1846 21.3471C69.2783 20.4204 67.7974 18.9034 66.5179 17.277C66.057 16.6697 65.8945 16.6563 65.982 15.9912L65.8619 15.8699C65.9473 15.8401 66.629 15.7348 66.7588 15.7132Z" fill="#EAA642"/>
<path d="M62.3643 16.8876C62.5837 17.1084 63.3508 17.8526 63.4188 18.0797C62.7461 18.4745 62.3184 18.7396 61.627 19.0937C60.8279 19.5033 59.4248 20.1063 58.7743 20.6233C57.8066 21.3914 56.7451 22.1242 55.8231 22.9135C55.0573 23.5685 54.2888 24.5763 53.5064 25.2278C53.4266 25.1826 53.3988 25.1458 53.3294 25.082C53.4023 24.3392 56.2695 21.597 57.0075 20.9511C57.1651 20.8128 58.3536 20.1629 58.6306 20.0083C59.7643 19.4038 60.6599 18.914 61.7485 18.2239C61.6714 17.8538 61.6499 17.728 61.4985 17.3778C61.7172 17.2291 62.1178 17.0227 62.3643 16.8876Z" fill="#FAE0B5"/>
<path d="M53.1759 50.4947C53.2495 50.2491 53.2641 50.1018 53.4564 49.9365L53.5668 49.9641C53.7445 50.465 53.5835 50.3252 53.614 50.7313C52.8018 51.2702 53.453 54.5609 54.0438 55.3979L54.3881 56.1561C53.6571 55.6767 53.5252 55.3792 53.1836 54.5962C52.7455 53.1926 52.6983 51.8955 53.1759 50.4947Z" fill="#975924"/>
<path d="M62.3136 63.4348C62.7156 63.0432 64.4894 60.9873 64.6678 60.9078C64.8101 61.4245 63.189 63.2009 62.7961 63.6534C63.4688 63.7737 63.9555 63.7813 64.388 64.3534L63.3883 63.9951C63.2828 63.9363 62.3441 63.6264 62.1032 63.5427C61.6707 63.369 61.2174 63.2425 60.771 63.1089L60.7536 63.0197C61.1632 63.0259 61.9297 63.2791 62.3136 63.4348Z" fill="#A65F2F"/>
<path d="M61.073 61.8908C61.341 61.6369 62.5323 60.3917 62.7149 60.3198L62.8489 60.344C62.9995 60.9998 60.8557 62.4988 60.6995 62.9554L60.7536 63.0197L60.771 63.1089L60.2975 62.9803L60.0302 62.8032C60.4141 62.4961 60.712 62.2263 61.073 61.8908Z" fill="#925026"/>
<path d="M87.9076 58.4852C88.2172 58.5662 88.3061 58.5924 88.6331 58.6063C87.6299 59.3921 86.5774 60.1773 85.5763 60.9507C84.2281 61.9918 84.1774 62.4421 82.4036 62.7389C82.38 62.5791 82.3335 62.3293 82.3349 62.1758C82.6341 62.0063 82.7508 61.9392 83.0784 61.8223C82.8667 61.9758 82.5494 62.1612 82.4488 62.3805L82.5279 62.4518C83.8373 62.5977 84.5732 61.4944 85.509 60.7943C85.8429 60.4498 86.7385 60.0023 87.0134 59.6861C87.6688 58.9335 87.2286 59.2088 88.1478 58.8014V58.6803L87.9076 58.4852Z" fill="#C28E37"/>
<path d="M66.6457 35.4368C69.2866 35.3179 70.0752 38.8536 70.3377 40.8829C70.3786 41.199 70.3224 41.6715 70.1648 41.9397C69.7781 42.5974 68.5319 41.8478 68.0349 41.6127C66.5214 41.1834 66.0084 41.5636 64.5143 41.6924C64.0992 41.3582 64.0006 40.7688 64.0166 40.2602C64.077 38.3368 64.3859 35.8856 66.6457 35.4368Z" fill="#5E260D"/>
<path d="M68.9936 39.0356L69.1276 39.0589C69.4775 39.4709 69.5636 40.9412 69.615 41.5257C68.7006 41.1127 68.2695 40.8846 67.2788 40.6893C66.7991 40.6515 66.3083 40.6784 65.8272 40.6936C66.7866 39.6563 67.5905 39.2092 68.9936 39.0356Z" fill="#EF9063"/>
<path d="M66.6138 36.1225C67.6628 36.0656 68.1765 36.7281 68.6347 37.5381C68.282 37.5338 67.903 37.5106 67.5482 37.4953C67.0393 37.4875 65.5106 37.4607 65.5606 36.7807C65.7418 36.5275 66.3069 36.2143 66.6138 36.1225Z" fill="#FEFEFE"/>
<path d="M63.1189 27.6619C62.592 27.6523 61.7957 28.0156 61.1986 28.0302C59.8081 28.0644 58.7709 27.1804 58.7605 25.7589C58.8 24.0456 60.1538 22.2672 61.9838 22.2315C63.9076 22.1939 64.9413 23.2303 65.0038 25.1405C65.0336 26.0344 64.4713 26.7255 63.8375 27.3278C63.4154 27.2168 63.4001 27.3085 63.1189 27.6619Z" fill="#925026"/>
<path d="M74.8621 37.1144C71.3291 37.6063 70.7271 33.2894 72.839 31.7954C73.4118 31.3896 74.1255 31.2336 74.8162 31.363C75.4876 31.4866 76.0805 31.8745 76.4616 32.4392C77.471 33.9181 76.9712 35.9147 75.5008 36.9018L74.8621 37.1144Z" fill="#5E260D"/>
<path d="M73.634 32.2119C74.197 32.1199 74.7295 32.4966 74.8287 33.0567C74.9273 33.6169 74.5552 34.1519 73.9943 34.2565C73.6256 34.3253 73.248 34.1913 73.0064 33.9058C72.7648 33.6204 72.6953 33.2274 72.8252 32.8768C72.955 32.5263 73.2639 32.2724 73.634 32.2119Z" fill="#FEFEFE"/>
<path d="M60.0663 35.6738C59.4096 35.0271 59.1145 34.384 59.0874 33.474C59.0659 32.7525 59.4589 31.5212 60.0302 31.073C63.1779 28.605 65.8334 33.4681 63.1002 35.6495C62.6003 36.0407 61.9679 36.2234 61.3354 36.1592C61.1709 36.142 60.9876 36.1013 60.8251 36.0657C60.5488 35.95 60.3267 35.8194 60.0663 35.6738Z" fill="#5E260D"/>
<path d="M60.9216 31.3196C61.4409 31.1506 62.0005 31.4285 62.1782 31.9436C62.3552 32.4587 62.0852 33.0203 61.5714 33.205C61.2313 33.327 60.8522 33.2572 60.5787 33.0223C60.3051 32.7873 60.1802 32.4238 60.251 32.0711C60.3218 31.7184 60.5787 31.4311 60.9216 31.3196Z" fill="#FEFEFE"/>
<path d="M74.8621 37.1144L75.5008 36.9018C76.1041 37.1837 77.4224 36.886 78.1077 37.4705C78.5332 37.8333 79.0754 38.2573 78.7873 38.9618C78.0563 40.7504 73.1924 40.4674 74.0942 37.9869C74.1734 37.7692 74.7163 37.4848 74.8621 37.1144Z" fill="#EF9063"/>
<path d="M60.0663 35.6738C60.3267 35.8194 60.5488 35.95 60.8251 36.0657C60.8286 36.0639 60.6613 36.1429 60.6974 36.185C60.9084 36.45 61.3993 37.2577 61.3354 37.5876C60.9064 39.8141 56.568 38.9941 56.9387 36.7538C57.0595 36.0239 58.371 35.6491 59.009 35.6915C59.2992 35.7108 59.8213 35.8145 60.0663 35.6738Z" fill="#EF9063"/>
<path d="M85.005 34.5566C85.0772 34.5159 85.139 34.4997 85.2181 34.4716L85.3736 34.5607C86.0443 35.5255 85.3695 38.0037 83.9796 36.8155C83.3062 36.2403 83.4985 34.2445 84.04 33.6226C84.2566 33.5571 84.1636 33.5559 84.41 33.6831C84.5794 33.9765 84.7585 34.343 85.005 34.5566Z" fill="#605B64"/>
<path d="M84.41 33.6831C84.5794 33.9765 84.7585 34.343 85.005 34.5566L84.9758 34.6658C84.9217 34.9971 84.9328 35.3721 84.7724 35.6475C84.5343 35.7773 84.2927 35.8093 84.0455 35.6657C84.0761 34.91 84.2219 34.407 84.41 33.6831Z" fill="#C3F6FA"/>
<path d="M84.9758 34.6658C85.1653 35.2961 85.3111 35.9466 84.7391 36.4467C84.2364 36.5566 84.1295 36.0652 84.0455 35.6657C84.2927 35.8093 84.5343 35.7773 84.7724 35.6475C84.9328 35.3721 84.9217 34.9971 84.9758 34.6658Z" fill="#75ECFF"/>
<path d="M73.6784 27.9102C73.779 27.9183 74.0387 27.9517 74.0803 28.0432C74.9155 29.8956 75.8576 29.8277 77.6377 30.1312C77.7765 30.1548 77.8216 30.3228 77.8543 30.4515C77.7918 30.7009 77.7515 30.715 77.5537 30.9002C77.3877 30.9246 77.2211 30.9418 77.0538 30.9517C76.0235 31.0099 75.0141 30.653 74.2511 29.9611C73.6937 29.4504 73.0057 28.6052 73.6784 27.9102Z" fill="#5E260D"/>
<path d="M85.745 29.2905C85.9242 29.2361 85.9304 29.2181 86.1116 29.2781C86.7163 29.8124 86.2171 31.3687 85.484 31.5278C84.8536 31.6647 84.4329 30.9614 84.3656 30.424C84.283 29.7668 84.3239 29.0188 84.6842 28.4425C84.7953 28.2638 84.8661 28.3018 85.0501 28.2816C85.2709 28.5684 85.543 29.1629 85.745 29.2905Z" fill="#605B64"/>
<path d="M85.0501 28.2816C85.2709 28.5684 85.543 29.1629 85.745 29.2905C85.9582 29.7657 85.8728 30.9856 85.2077 30.9026C84.5614 30.3465 84.9147 29.0009 85.0501 28.2816Z" fill="#C3F6FA"/>
<path d="M63.1189 27.6619C63.4001 27.3085 63.4154 27.2168 63.8375 27.3278C63.9645 27.5907 64.052 27.6889 63.9416 27.9865C63.7063 28.624 62.9724 29.1472 62.3643 29.3956C61.6471 29.689 60.192 30.0445 59.6553 29.3085C59.6109 29.0596 59.6033 29.1813 59.6977 28.932C60.2656 28.3752 61.6291 29.3612 63.1189 27.6619Z" fill="#5E260D"/>
<path d="M55.5371 39.5096C56.7645 39.4778 59.4068 41.7464 59.4714 42.9433C58.5182 42.2464 57.6684 40.7029 56.4389 40.1469C56.1473 40.015 55.6044 39.8045 55.5371 39.5096Z" fill="#A0682F"/>
<path d="M91.0171 30.4442C91.4955 30.37 91.6309 30.7968 91.8912 31.1252C92.4147 31.7856 93.6164 34.8838 92.9374 35.4124L92.9735 35.3289C93.1478 34.9112 93.0096 34.4453 92.9117 34.0101L92.6104 33.9685C92.3897 33.8308 92.3202 33.6589 92.1862 33.432C92.055 32.8213 91.6899 31.8313 91.4365 31.257L91.4705 31.1858C91.6815 31.4753 91.8829 31.8725 92.0571 32.1935L92.1571 32.1844L92.2098 32.0556C92.1106 31.5789 91.5989 30.8859 91.3066 30.462C91.1921 30.4963 90.048 30.7588 90.0917 30.7349C90.3777 30.5967 90.7068 30.5263 91.0171 30.4442Z" fill="#FAE0B5"/>
<path d="M57.0866 44.1769C56.4979 43.6318 55.6391 42.9269 54.8581 42.6684C54.5061 42.552 54.0611 42.5164 53.739 42.3414L53.7216 42.226C54.7651 41.7338 56.7041 43.1792 57.3602 43.9081C57.2609 44.0358 57.2296 44.0955 57.0866 44.1769Z" fill="#A4662B"/>
<path d="M57.3602 43.9081C57.7802 44.3834 57.9343 44.6294 58.1599 45.2269C57.7573 44.8603 57.456 44.5837 57.0866 44.1769C57.2296 44.0955 57.2609 44.0358 57.3602 43.9081Z" fill="#A0682F"/>
<path d="M89.864 19.2802C89.4384 18.911 88.0874 18.309 87.9007 17.8553L87.9541 17.8008L88.2297 17.9017L88.3228 17.8269C89.6752 18.2481 91.2712 19.2747 92.0995 20.4256C92.8798 21.5101 92.6465 22.8291 91.4045 23.4516C91.4448 23.17 91.946 22.9733 92.2161 22.5878C92.3272 22.0971 92.1314 21.8652 91.8856 21.4233C91.8905 21.7488 91.9259 22.1613 91.7405 22.4191L91.6093 22.4163L91.6392 22.3531C92.2543 21.0578 90.7998 19.9004 89.864 19.2802Z" fill="#3C3181"/>
<path d="M94.8702 54.5498C94.3016 57.5555 91.7857 59.9746 89.4155 61.7296L89.1961 61.6486C91.6739 59.7166 93.5018 57.3521 94.8702 54.5498Z" fill="#8E6350" fill-opacity="0.988235"/>
<path d="M3.36868 61.2571L3.53245 61.3284C3.51357 61.5089 3.48837 61.5137 3.39548 61.6652C3.20297 61.9758 3.13868 62.3494 3.21616 62.7063C3.41686 63.6139 5.49946 64.1231 5.52577 61.6459L5.59242 61.5649L5.66774 61.5622C5.97592 61.549 6.86448 61.3878 7.03721 61.4411C6.76541 61.7676 6.27153 61.8299 5.86713 61.8997C5.8093 62.4829 5.75883 62.9913 5.26092 63.3898C4.28786 64.168 2.62404 63.4341 2.81586 62.1204C2.84356 61.9302 2.92291 61.8022 2.92777 61.6044L2.75733 61.4688C2.97942 61.2426 3.05579 61.2661 3.36868 61.2571Z" fill="#987969"/>
<path d="M5.91142 33.8836L6.0316 33.8932L6.08353 33.9577C3.55863 35.538 2.26893 37.831 1.42876 40.6047L1.35885 40.654L1.30858 40.6068C1.75297 38.0378 3.40853 34.9563 5.91142 33.8836Z" fill="#7C594C" fill-opacity="0.988235"/>
<path d="M94.9709 57.258L95.0368 57.3791C94.6716 59.2565 92.5209 61.0752 91.0366 62.1868L90.981 62.0851C91.1268 61.8472 91.3622 61.7102 91.5802 61.5352C93.0464 60.3592 94.069 58.8768 94.9709 57.258Z" fill="#A65F2F" fill-opacity="0.980392"/>
<path d="M37.9281 34.1796C36.8732 33.889 35.6955 33.7508 34.603 33.701C34.0982 33.678 33.6575 33.7308 33.1373 33.6767L33.1133 33.6056C34.3253 33.0488 36.9558 33.5488 38.2252 33.9606L37.9281 34.1796Z" fill="#A65F2F"/>
<path d="M2.1105 59.8093C2.34169 59.3714 2.4729 59.2973 2.90312 59.087C3.47518 58.8076 3.08883 58.1968 3.25816 57.6842C3.41707 57.2034 3.83029 56.9398 4.26023 56.7268L4.36486 56.9087L4.24385 57.0505C2.64368 58.0916 3.94727 58.7861 3.86319 59.3693C3.10223 59.233 2.8017 59.2662 2.32163 59.9545L2.1105 59.8093Z" fill="#987969"/>
<path d="M34.9226 32.1729C35.8697 32.1282 38.2309 32.2754 38.7277 33.2361L38.6114 33.2533C37.3834 32.5312 36.013 32.4439 34.6462 32.3407L34.6498 32.2545L34.9226 32.1729Z" fill="#7C594C" fill-opacity="0.976471"/>
<path d="M1.97714 35.8031L2.05927 35.8383C2.05878 35.9507 1.39779 36.7865 1.25554 37.0338C0.758878 37.8971 0.455147 38.7767 0.112537 39.7037L0 39.6732C0.205982 38.3868 0.97826 36.667 1.97714 35.8031Z" fill="#7C594C" fill-opacity="0.980392"/>
<path d="M4.26023 56.7268C4.58646 56.6016 4.9492 56.6092 5.26973 56.7482C5.62304 56.9052 5.84707 57.1135 6.08922 57.4144C6.18218 57.9546 6.1876 58.1705 6.17323 58.7204C5.73849 57.7208 5.84762 56.6251 4.24385 57.0505L4.36486 56.9087L4.26023 56.7268Z" fill="#7C594C" fill-opacity="0.988235"/>
<path d="M2.75733 61.4688C1.99977 61.2211 1.88592 60.4823 2.1105 59.8093L2.32163 59.9545C2.18979 60.6041 2.35287 61.1222 3.08592 61.228C3.17985 61.2405 3.2742 61.2502 3.36868 61.2571C3.05579 61.2661 2.97942 61.2426 2.75733 61.4688Z" fill="#988179"/>
<path d="M6.20544 59.0781C6.55131 59.0469 7.17106 59.0372 7.38024 59.3887L7.29325 59.4475L6.90843 59.3638C6.39615 59.3181 6.24064 59.4488 5.79465 59.4163C5.88393 59.2323 6.00799 59.2019 6.20544 59.0781Z" fill="#987969"/>
<path d="M58.1988 64.4005L58.1155 64.7346C57.7816 64.8612 57.1262 65.2264 56.7756 65.2285C57.0575 64.9905 57.8336 64.6073 58.1988 64.4005Z" fill="#7C594C" fill-opacity="0.941176"/>
<path d="M38.2252 33.9606C38.4361 34.0551 38.5927 34.1104 38.7731 34.2588L38.7811 34.3991L38.8326 34.3971C38.5254 34.4597 38.2398 34.299 37.9281 34.1796L38.2252 33.9606Z" fill="#7C594C"/>
<path d="M89.4155 61.7296C89.2059 61.8686 88.9039 62.0976 88.6637 62.1183C88.7359 61.935 89.0205 61.7732 89.1961 61.6486L89.4155 61.7296Z" fill="var(--fill-0, #A65F2F)" fill-opacity="0.862745"/>
</g>
</svg>
