<svg preserveAspectRatio="xMidYMid meet" width="97" height="142" overflow="visible" style="display: block;" viewBox="0 0 97 142" fill="none" xmlns="http://www.w3.org/2000/svg">
<g id="Vector">
<path d="M59.8261 0.0684389C64.8065 -0.35651 70.4232 1.23225 74.6355 3.86743C77.7493 5.81612 79.3716 7.93246 80.8895 11.2501C81.7711 11.257 82.8503 11.3818 83.7136 11.5588C87.5388 12.3095 90.8999 14.5676 93.0379 17.8233C95.0929 20.994 95.9319 25.0002 95.101 28.7049C94.3826 31.9628 92.3843 34.7957 89.5542 36.5666C86.7403 38.3115 83.2576 39.0758 80.0019 38.3179C79.5581 41.186 79.1284 44.0609 78.6907 46.9289C78.4049 48.8077 78.3836 51.8496 77.3936 53.3994C80.0414 55.3031 82.0416 57.1089 83.4045 60.1897C83.7095 60.8793 83.9882 62.4304 84.2912 62.8284C85.3977 64.2811 86.3492 65.0868 87.2844 66.7373C88.7345 69.119 88.6787 72.5006 88.1883 75.1577C87.6664 77.9835 88.0738 78.8961 89.1084 81.493C89.5248 82.5376 89.0435 84.2686 88.931 85.3345C89.0749 86.1616 89.3191 86.6126 89.3556 87.4765C89.4103 88.7514 88.3869 90.2085 88.2146 91.2591C87.9573 92.8382 87.8843 94.0348 87.4374 95.606C89.9322 98.7858 91.6791 102.094 93.0552 105.909C93.9388 105.973 94.3268 105.989 94.7403 106.86C95.1679 107.837 95.4952 109.015 95.6269 110.082C95.7546 111.115 95.9816 111.855 94.9693 112.39L94.8598 112.447C94.946 112.891 95.5256 113.632 95.7971 114.069C96.854 115.77 97.2208 117.922 96.8722 119.882C96.5875 121.569 95.6208 123.065 94.1981 124.018C92.0743 125.463 88.853 125.814 86.6592 124.245C86.3937 124.154 85.4554 122.662 85.2882 122.678C83.6001 122.827 82.8442 122.705 81.8886 121.225C76.7522 123.086 71.7648 123.884 66.444 124.775C66.4308 129.249 67.9295 131.251 68.9509 135.332C69.2366 136.318 69.1789 137.93 68.5496 138.76C66.3366 141.68 55.1893 144.16 54.1851 139.042C53.9369 137.775 54.7181 136.413 55.4659 135.411C53.1688 132.574 52.0238 129.702 52.2305 126.025C50.9314 126.019 49.4561 126.129 48.1145 126.153C46.0119 126.181 43.9093 126.123 41.8118 125.978C41.4504 128.367 41.6316 130.595 41.7927 132.972C41.9141 134.77 42.4248 138.075 40.5882 139.134C38.1915 140.531 35.0917 140.321 32.4501 140.443C26.4867 140.718 23.4885 135.638 29.1992 132.01C28.2473 129.709 28.0703 126.351 28.1593 123.885C23.5476 122.903 19.127 121.724 14.7828 119.866C13.9255 121.344 12.9159 121.878 11.2234 121.338C9.64682 124.579 5.45381 124.53 2.8546 122.678C-1.12613 119.839 -0.494543 114.662 2.01255 111.121C1.92835 111.059 1.7346 110.923 1.6654 110.847C0.503854 109.564 2.13232 105.67 2.99717 104.753C3.30754 104.683 3.78379 104.639 4.11139 104.6C5.51551 101.02 7.52265 97.7066 10.0461 94.8042C9.95203 94.2049 9.83743 93.2036 9.89914 92.6043C10.1433 90.2349 7.6252 86.6618 10.1634 85.0086C9.78149 83.0911 9.01939 79.6447 9.58745 77.8631C10.2841 75.6778 10.5424 74.7654 10.5428 72.3665C10.5431 70.9702 11.485 68.7048 12.0635 67.3913C12.5939 66.1874 13.8358 65.1027 14.4522 63.9306C14.9387 62.7887 15.007 61.3879 15.6402 60.2991C16.9264 58.2646 18.7081 55.8962 20.5625 54.3238C22.3751 52.7868 24.1969 51.0322 26.0073 49.5041C26.9501 48.7082 28.7264 48.3825 29.7617 47.7831C31.506 46.7734 32.7417 45.8823 34.7135 45.2574C34.8523 42.9841 35.4511 41.26 35.9878 39.059C36.7102 35.9978 37.4594 32.9429 38.235 29.8947C34.2855 28.9552 31.2205 26.3097 29.4653 22.6704C26.2695 16.0444 30.5765 8.31857 36.8732 5.45612C40.4067 3.88838 44.421 3.79666 48.0223 5.20141C51.3864 2.14651 55.241 0.297455 59.8261 0.0684389Z" fill="#5B1F07"/>
<path d="M35.4118 46.5273C36.264 47.1346 36.7157 47.566 37.6609 48.08C40.4037 49.4983 45.5316 51.1248 48.5826 51.7765C52.2386 52.4853 54.6766 53.2507 58.5443 53.6812C63.7577 54.4577 70.5499 54.8445 75.741 53.9228C77.1981 55.4424 79.0919 56.4422 80.3829 58.1411C81.1905 59.2045 81.9697 60.4238 82.1997 61.7264C82.5078 63.4701 83.1441 64.2348 84.3732 65.4199C86.1262 67.1106 87.0271 69.5557 86.949 71.9693C86.9744 73.4606 86.2215 76.6895 86.3309 77.719C86.7778 81.9043 88.9128 81.7145 86.8072 86.3896C84.9873 87.4664 81.0506 88.6943 78.9693 89.1932C77.5669 89.6369 76.0267 89.9635 74.7398 90.379C72.4244 90.8538 70.1476 91.5107 67.8413 92.0263C67.4583 92.1123 67.0682 92.1862 66.6943 92.3097C64.5815 92.6428 62.4668 93.2138 60.349 93.5711C58.4318 93.8941 56.5035 94.2859 54.5915 94.6402C52.4635 95.035 50.4299 95.9836 48.4245 96.7884C46.5601 97.5366 44.6733 98.2614 42.8159 99.0267C40.8035 97.9 38.8054 96.8066 36.8657 95.5543C36.2103 95.1312 35.6365 94.8295 34.895 94.5855C32.7117 94.2211 28.8232 93.1581 26.7211 92.4231C25.1921 91.7861 22.961 91.077 21.327 90.466C20.2668 90.1804 14.447 87.6329 13.586 87.0089C12.9631 86.6338 12.3429 86.2545 11.7253 85.8709C11.6889 83.6943 11.0258 81.8408 11.0015 79.5895C10.9799 77.5969 11.6769 77.2334 12.0185 75.6335C12.2823 74.3987 11.7915 72.9697 12.2871 71.3228C12.8235 69.5401 13.2896 68.2674 14.4148 66.6921C14.8665 66.0597 15.6071 65.1909 15.9262 64.5198C16.3634 63.5416 16.4855 62.4562 16.8931 61.4579C17.217 60.6648 17.5991 60.0491 18.1278 59.3782C19.1181 58.1306 20.1348 56.8777 21.3085 55.7951C22.1211 55.0455 23.0199 54.3876 23.8305 53.6317C24.8848 52.6487 25.852 51.5595 27.0442 50.7366C28.1622 49.9651 29.51 49.698 30.7183 49.1122C32.4625 48.1292 33.5527 47.3191 35.4118 46.5273Z" fill="#FAC660"/>
<path d="M58.5443 53.6812C63.7577 54.4577 70.5499 54.8445 75.741 53.9228C77.1981 55.4424 79.0919 56.4422 80.3829 58.1411C81.1905 59.2045 81.9697 60.4238 82.1997 61.7264C82.5078 63.4701 83.1441 64.2348 84.3732 65.4199C86.1262 67.1106 87.0271 69.5557 86.949 71.9693C86.9744 73.4606 86.2215 76.6895 86.3309 77.719C86.7778 81.9043 88.9128 81.7145 86.8072 86.3896C84.9873 87.4664 81.0506 88.6943 78.9693 89.1932C82.8675 84.7902 83.6143 80.7843 83.5059 75.0747C83.2677 75.5166 83.0164 75.938 82.5493 76.1319C85.3075 72.4594 83.9831 68.4289 79.6259 67.0821C80.0221 64.3204 74.3132 56.8943 72.3434 54.934C68.7512 55.4092 64.9757 55.822 61.3501 55.7959C59.8687 55.7853 58.0772 55.5603 56.5816 55.4015C56.6079 55.3876 56.6343 55.3737 56.6596 55.3599L56.7883 55.2878C57.681 54.7924 57.91 54.5041 58.5443 53.6812Z" fill="#EFAB48"/>
<path d="M35.4118 46.5273C36.264 47.1346 36.7157 47.566 37.6609 48.08C37.4824 48.4361 37.19 48.5253 36.8211 48.718C34.8626 49.2687 33.3416 49.9792 31.5311 50.9182C30.9614 51.2136 29.5342 51.5133 29.0737 51.8661C27.2238 53.2836 25.584 55.2578 23.8229 56.8278C22.9873 57.5726 22.2994 58.8263 21.4733 59.6261C20.425 60.7776 19.6061 61.6765 18.8036 63.015C17.8162 64.6618 17.4328 67.0514 16.1929 68.4406C15.5005 69.0717 15.3217 69.3714 15.1772 70.3415C13.2169 74.8545 12.5662 79.8272 13.2996 84.692C13.3506 85.0508 13.5552 86.6072 13.6592 86.8806L13.586 87.0089C12.9631 86.6338 12.3429 86.2545 11.7253 85.8709C11.6889 83.6943 11.0258 81.8408 11.0015 79.5895C10.9799 77.5969 11.6769 77.2334 12.0185 75.6335C12.2823 74.3987 11.7915 72.9697 12.2871 71.3228C12.8235 69.5401 13.2896 68.2674 14.4148 66.6921C14.8665 66.0597 15.6071 65.1909 15.9262 64.5198C16.3634 63.5416 16.4855 62.4562 16.8931 61.4579C17.217 60.6648 17.5991 60.0491 18.1278 59.3782C19.1181 58.1306 20.1348 56.8777 21.3085 55.7951C22.1211 55.0455 23.0199 54.3876 23.8305 53.6317C24.8848 52.6487 25.852 51.5595 27.0442 50.7366C28.1622 49.9651 29.51 49.698 30.7183 49.1122C32.4625 48.1292 33.5527 47.3191 35.4118 46.5273Z" fill="#FDDC9B"/>
<path d="M82.5493 76.1319C81.3232 77.1503 80.237 77.8 78.5985 77.7411C75.6336 77.6346 73.2766 74.8693 73.4459 71.9457C73.5381 70.4553 74.2231 69.0634 75.3458 68.0785C76.732 66.8713 77.9307 66.9531 79.6259 67.0821C83.9831 68.4289 85.3075 72.4594 82.5493 76.1319Z" fill="#97501F"/>
<path d="M13.6592 86.8806C13.9987 83.3306 17.9457 83.1908 20.027 85.351C21.5808 86.9635 21.649 88.3301 21.327 90.466C20.2668 90.1804 14.447 87.6329 13.586 87.0089L13.6592 86.8806Z" fill="#97501F"/>
<path d="M37.6609 48.08C40.4037 49.4983 45.5316 51.1248 48.5826 51.7765C48.9869 52.5327 49.3446 53.3394 49.8624 54.0072C49.759 54.2072 49.8249 54.1178 49.6263 54.2469C48.9444 54.3105 48.0141 53.9711 47.3423 53.7859C43.3023 52.6719 40.3524 50.857 36.8211 48.718C37.19 48.5253 37.4824 48.4361 37.6609 48.08Z" fill="#EFAB48"/>
<path d="M66.6943 92.3097C66.7763 91.5703 66.8523 91.04 67.1766 90.3574C67.6842 89.2707 68.6084 88.4338 69.7402 88.0351C71.9664 87.2486 73.9576 88.1221 74.7398 90.379C72.4244 90.8538 70.1476 91.5107 67.8413 92.0263C67.4583 92.1123 67.0682 92.1862 66.6943 92.3097Z" fill="#97501F"/>
<path d="M48.5826 51.7765C52.2386 52.4853 54.6766 53.2507 58.5443 53.6812C57.91 54.5041 57.681 54.7924 56.7883 55.2878L56.6596 55.3599C56.6343 55.3737 56.6079 55.3876 56.5816 55.4015C55.8165 55.6835 55.0089 55.835 54.1932 55.8495C52.4088 55.884 51.1199 55.2224 49.8624 54.0072C49.3446 53.3394 48.9869 52.5327 48.5826 51.7765Z" fill="#97501F"/>
<path d="M26.7211 92.4231C27.5604 91.5049 28.2148 90.4929 29.5882 90.5462C32.0888 90.6432 33.9837 92.5142 34.895 94.5855C32.7117 94.2211 28.8232 93.1581 26.7211 92.4231Z" fill="#97501F"/>
<path d="M16.1929 68.4406C16.7978 68.2169 17.4559 67.9817 18.089 68.2678C19.4286 68.873 19.3103 70.9048 18.7653 72.0213C18.2774 73.0206 17.2811 73.6281 16.2242 73.0553C15.2374 72.5206 15.1919 71.3225 15.1772 70.3415C15.3217 69.3714 15.5005 69.0717 16.1929 68.4406Z" fill="#97501F"/>
<path d="M29.7321 62.4377C24.5463 61.3816 26.1015 53.6544 30.9496 53.3528C32.6925 53.2443 33.5183 53.5185 34.8768 54.5898C36.6461 54.2731 37.717 55.7569 37.9383 57.3292C38.1096 58.5328 37.7917 59.7549 37.0555 60.7229C35.6364 62.5561 33.278 63.038 31.1704 62.5667C30.7064 62.4628 30.1717 62.5288 29.7321 62.4377Z" fill="#97501F"/>
<path d="M34.8768 54.5898C36.6461 54.2731 37.717 55.7569 37.9383 57.3292C38.1096 58.5328 37.7917 59.7549 37.0555 60.7229C35.6364 62.5561 33.278 63.038 31.1704 62.5667C30.7064 62.4628 30.1717 62.5288 29.7321 62.4377C30.9504 62.305 31.8038 62.5372 32.9705 61.91C35.7627 60.409 37.0154 57.2828 34.8768 54.5898Z" fill="#EFAB48"/>
<path d="M54.6867 69.5303C54.2206 69.0442 52.6611 67.3126 53.5032 66.7C54.2135 66.958 55.1508 68.0137 55.7344 68.5055C58.0387 70.4494 60.8648 70.7614 63.7648 70.6904C63.9644 70.6854 64.0202 70.8392 64.1144 70.9826C64.1478 71.8087 62.9603 71.9829 62.3107 72.0584C62.4303 73.8872 62.4475 74.654 61.6399 76.3691L62.4597 77.2794C62.332 77.813 62.2743 78.002 62.2712 78.5541L62.03 78.8817C61.8851 79.1188 61.7848 79.2849 61.6643 79.5345C61.7757 79.7961 61.8841 79.8733 62.0848 80.0707C61.489 80.8836 60.9438 80.3523 60.2669 79.9293C56.7954 77.5563 54.6908 79.491 53.5295 79.0628C53.3633 79.0015 53.3947 78.9945 53.3279 78.8513C53.5984 78.3021 54.3179 77.981 54.8488 77.744C52.8334 75.0347 52.6753 72.3255 54.6867 69.5303Z" fill="#5B1F07"/>
<path d="M58.5433 75.844C59.0591 75.9416 59.5728 76.0495 60.0845 76.1677L60.0268 76.4496C60.2031 76.5706 60.1413 76.5544 60.3379 76.6058C61.8375 76.6985 62.0554 77.1154 62.2712 78.5541L62.03 78.8817C61.8851 79.1188 61.7848 79.2849 61.6643 79.5345C61.7757 79.7961 61.8841 79.8733 62.0848 80.0707C61.489 80.8836 60.9438 80.3523 60.2669 79.9293C56.7954 77.5563 54.6908 79.491 53.5295 79.0628C53.3633 79.0015 53.3947 78.9945 53.3279 78.8513C53.5984 78.3021 54.3179 77.981 54.8488 77.744C55.3007 77.7023 55.1883 77.7766 55.4994 77.5334C55.6078 77.2963 55.6868 77.1497 55.8165 76.9238C56.4519 75.742 57.5584 76.1518 58.5433 75.844Z" fill="#ACEAFA"/>
<path d="M54.8488 77.744C55.3007 77.7023 55.1883 77.7766 55.4994 77.5334C55.9472 77.7537 57.228 77.5213 58.0782 77.6849C59.1523 77.8917 60.8546 79.085 61.5123 79.1852C61.798 79.0827 61.801 79.0633 62.03 78.8817C61.8851 79.1188 61.7848 79.2849 61.6643 79.5345C61.7757 79.7961 61.8841 79.8733 62.0848 80.0707C61.489 80.8836 60.9438 80.3523 60.2669 79.9293C56.7954 77.5563 54.6908 79.491 53.5295 79.0628C53.3633 79.0015 53.3947 78.9945 53.3279 78.8513C53.5984 78.3021 54.3179 77.981 54.8488 77.744Z" fill="#57200C"/>
<path d="M58.5433 75.844C59.0591 75.9416 59.5728 76.0495 60.0845 76.1677L60.0268 76.4496C60.2031 76.5706 60.1413 76.5544 60.3379 76.6058L59.9123 76.7382L59.969 76.6847L59.8798 76.9489L60.3936 76.9519L60.4199 77.1033C60.2203 77.3016 60.2223 77.3288 59.9437 77.4019C58.9476 77.2287 57.3415 76.6843 56.2806 76.6522C56.237 76.6509 55.8875 76.8767 55.8165 76.9238C56.4519 75.742 57.5584 76.1518 58.5433 75.844Z" fill="#D3F3F9"/>
<path d="M58.5433 75.844C58.2809 75.6223 58.3498 75.7582 58.3123 75.4318C58.7571 74.4455 60.3986 74.6181 60.0845 76.1677C59.5728 76.0495 59.0591 75.9416 58.5433 75.844Z" fill="#FDFDFE"/>
<path d="M55.7142 70.432C57.225 71.2732 59.3996 71.554 57.4419 73.5201C55.4122 74.3832 54.3878 72.1184 55.7142 70.432Z" fill="#FDFDFE"/>
<path d="M28.6005 70.7359C27.984 70.6084 27.411 70.4853 26.9643 70.0047C26.847 69.6165 26.8422 69.8061 26.9953 69.4169C27.3783 69.1933 28.4934 69.279 28.9852 69.3001C31.4287 69.4044 33.5865 68.5572 35.4612 67.0304C35.8154 66.7419 36.769 65.9508 37.1908 65.9243C37.7123 66.7626 36.5854 67.8903 35.9971 68.4517C38.2903 71.2093 37.6597 74.4219 35.2978 76.8808C35.6932 77.1968 36.4057 77.7232 36.4688 78.2521C35.9674 78.6792 34.8644 78.0119 34.3277 77.8152C32.9726 77.319 31.4204 77.684 30.1267 78.1819C29.8941 78.3054 29.6599 78.4259 29.4242 78.5433C29.0686 78.7189 28.7913 78.875 28.4072 78.746C28.1999 78.4433 28.2488 78.5834 28.2684 78.1829C28.178 77.9568 28.0575 77.8664 27.8876 77.677C27.5176 76.4397 27.7647 75.5846 28.9244 74.8826C28.4667 73.1767 28.3814 72.5103 28.6005 70.7359Z" fill="#5B1F07"/>
<path d="M27.8876 77.677C27.5176 76.4397 27.7647 75.5846 28.9244 74.8826C29.2915 75.1047 29.3742 75.0829 29.8087 75.0481C30.389 75.0307 30.9137 75.2086 31.4763 75.3592C32.1636 75.068 32.5086 74.9135 33.2463 74.9055C33.7092 75.031 34.2079 75.1417 34.4648 75.5888C34.5119 75.9756 34.7997 76.4806 34.9785 76.8495C33.1689 76.3723 31.6837 76.3291 29.9024 77.068C29.5577 77.2623 29.1987 77.4453 28.8914 77.6913C28.5494 77.8816 28.5109 77.8885 28.2684 78.1829C28.178 77.9568 28.0575 77.8664 27.8876 77.677Z" fill="#D3F3F9"/>
<path d="M27.8876 77.677C27.5176 76.4397 27.7647 75.5846 28.9244 74.8826C29.2915 75.1047 29.3742 75.0829 29.8087 75.0481C29.2472 75.2826 28.7425 75.5278 28.511 76.1565C28.3787 76.5188 28.4006 76.9195 28.5718 77.2652C28.6506 77.4252 28.772 77.5603 28.8914 77.6913C28.5494 77.8816 28.5109 77.8885 28.2684 78.1829C28.178 77.9568 28.0575 77.8664 27.8876 77.677Z" fill="#632D1E"/>
<path d="M29.1653 75.5895C29.5813 75.5812 30.0004 75.4744 30.1412 75.9245C29.9765 76.3457 29.6161 76.61 29.2737 76.9277C29.1887 77.0607 29.1163 77.1411 29.0157 77.265L28.8512 77.2517C28.532 76.7143 28.8217 76.0422 29.1653 75.5895Z" fill="#FDFDFE"/>
<path d="M33.2463 74.9055C33.2363 74.5933 33.3044 74.0358 33.5508 73.8372C34.738 72.8799 36.2239 75.2533 34.4648 75.5888C34.2079 75.1417 33.7092 75.031 33.2463 74.9055Z" fill="#FDFDFE"/>
<path d="M28.8914 77.6913C29.1987 77.4453 29.5577 77.2623 29.9024 77.068L30.2567 77.3099C30.35 77.9892 29.3979 78.2994 28.8449 78.5457C28.5527 78.4481 28.4983 78.3784 28.2684 78.1829C28.5109 77.8885 28.5494 77.8816 28.8914 77.6913Z" fill="#501D0A"/>
<path d="M33.1931 70.1956C33.9931 71.0622 32.9573 73.4105 30.9209 72.4106C30.561 72.0186 30.2511 71.6148 30.3678 71.0762C30.7904 70.6245 32.2521 70.5245 33.1931 70.1956Z" fill="#FDFDFE"/>
<path d="M67.1401 57.4331C68.3166 57.3512 69.1191 57.3185 70.1172 58.0941C71.6462 59.2827 72.4994 61.9433 71.1507 63.5688C70.5154 64.336 69.7838 64.4802 68.8465 64.529C64.7386 63.95 61.4646 58.7467 67.1401 57.4331Z" fill="#97501F"/>
<path d="M62.0848 80.0707L62.1446 80.0842C63.1538 79.6221 63.8509 79.8071 64.6677 80.529C65.6242 81.3733 65.5472 82.9988 64.6059 83.8064C63.2268 84.99 60.6986 84.798 59.5201 83.4053C58.7673 82.5187 58.8432 81.0722 59.8201 80.3828C60.0177 80.2432 60.124 80.1176 60.2669 79.9293C60.9438 80.3523 61.489 80.8836 62.0848 80.0707Z" fill="#EFAB48"/>
<path d="M27.8876 77.677C28.0575 77.8664 28.178 77.9568 28.2684 78.1829C28.2488 78.5834 28.1999 78.4433 28.4072 78.746C28.7913 78.875 29.0686 78.7189 29.4242 78.5433C29.6599 78.4259 29.8941 78.3054 30.1267 78.1819C30.2907 78.8164 30.8354 79.2078 30.8823 80.0129C31.0421 82.7634 27.2083 83.2189 25.5894 81.6841C23.9718 80.1503 25.2961 77.6088 27.3916 77.7233C27.617 77.7357 27.6741 77.7344 27.8876 77.677Z" fill="#EFAB48"/>
<path d="M43.7624 78.7175C45.2276 78.7731 46.4192 79.1554 47.4599 80.2138C48.1317 80.8976 49.1663 82.2442 48.2168 83.0759C46.9259 83.4291 46.9411 81.5435 45.1455 80.7029L45.0259 80.6476C41.4493 79.6755 41.9172 82.9824 40.0619 82.7107C39.0272 81.6143 40.6797 79.9231 41.6293 79.376C42.4015 78.9311 42.893 78.7992 43.7624 78.7175Z" fill="#5B1F07"/>
<path d="M46.2875 8.40554C46.86 8.04281 48.4519 6.52396 49.1349 5.94742C52.4038 3.18854 56.5968 1.38542 60.9185 1.32508C65.9312 1.25493 72.5126 3.31113 76.1858 6.81289C78.5285 8.91475 79.5479 11.4925 80.9017 14.2696C81.231 14.2428 81.1064 14.3128 81.305 14.0879C81.3658 13.6144 81.1976 13.0158 81.0952 12.5315C82.4753 12.6504 83.5504 12.938 84.8809 13.2888C88.1944 14.3145 90.9556 16.6287 92.5434 19.7105C94.0502 22.6555 94.4272 26.243 93.3814 29.4017C93.2568 29.7778 93.118 30.1492 92.966 30.515C90.5006 35.532 85.7513 37.7928 80.2663 37.003C80.4183 36.183 80.8834 33.0974 81.0689 32.6249C81.304 32.675 81.3212 32.673 81.536 32.7771C82.1045 32.7575 82.8999 33.334 83.213 33.2291C83.0316 32.9278 82.4875 32.7814 82.1379 32.5604L82.1237 32.3676C81.8633 32.1584 81.7995 32.127 81.6242 31.8517C81.7772 31.5985 86.0756 31.2191 86.8974 30.0714C87.0341 29.8802 87.0027 29.8247 86.9653 29.6071C86.5326 29.6077 85.6804 30.0417 85.1727 30.1816C81.0071 31.3285 76.6053 30.4683 73.1115 27.9739C71.8651 27.0838 70.1638 25.4965 69.3785 24.1927L70.5742 23.7232C72.087 23.0745 73.2462 22.342 74.3193 21.0876C73.7954 21.0366 70.9258 22.7176 70.0098 23.01C66.8756 24.0102 63.7486 24.7475 60.4463 24.2899C56.6768 23.7677 52.2325 22.1859 49.8482 19.1514C49.4378 18.7427 48.7346 17.7285 48.3637 17.2245C48.3718 18.5294 49.9323 20.5056 50.7744 21.4704C46.5935 23.4983 41.7595 24.5115 37.6481 21.6387C37.1516 21.442 35.9362 20.2242 35.3828 19.7747C35.633 20.4193 35.6909 20.5845 36.1035 21.1286C37.2996 22.3411 37.6993 22.7424 39.1386 23.6522C38.4357 23.7259 37.8642 23.8071 37.1526 23.7458C36.8019 23.7215 36.2887 23.6483 35.9757 23.7561C35.9888 23.9308 35.9537 23.8729 36.0214 23.9538C37.1563 24.6511 38.5002 24.4352 39.748 24.268C39.3191 25.5846 38.9456 27.2385 38.602 28.6022C35.2927 27.6926 32.1743 25.2614 30.831 22.0577C28.023 16.7818 31.5831 9.84299 36.4881 7.19283C40.1684 5.20445 43.6013 5.233 47.4994 6.38031C46.9431 7.21237 46.7161 7.4768 46.2875 8.40554Z" fill="#FDFDFE"/>
<path d="M69.3785 24.1927L70.5742 23.7232C73.8968 26.9113 79.019 29.1067 83.6335 29.1738C84.4391 29.1856 86.8953 29.0212 87.4314 29.3085C87.328 29.9485 87.1912 30.3495 87.0534 30.9543C86.6511 31.1989 86.2174 31.3947 85.9905 31.7839C86.2043 32.5804 89.312 31.8884 90.0001 31.6971C90.6476 31.5174 92.3955 30.3842 92.8251 30.4019L92.966 30.515C90.5006 35.532 85.7513 37.7928 80.2663 37.003C80.4183 36.183 80.8834 33.0974 81.0689 32.6249C81.304 32.675 81.3212 32.673 81.536 32.7771C82.1045 32.7575 82.8999 33.334 83.213 33.2291C83.0316 32.9278 82.4875 32.7814 82.1379 32.5604L82.1237 32.3676C81.8633 32.1584 81.7995 32.127 81.6242 31.8517C81.7772 31.5985 86.0756 31.2191 86.8974 30.0714C87.0341 29.8802 87.0027 29.8247 86.9653 29.6071C86.5326 29.6077 85.6804 30.0417 85.1727 30.1816C81.0071 31.3285 76.6053 30.4683 73.1115 27.9739C71.8651 27.0838 70.1638 25.4965 69.3785 24.1927Z" fill="var(--fill-0, #DCDCEB)"/>
<path d="M82.1237 32.3676C82.7428 32.6231 84.6347 33.1923 84.8475 33.588C84.1645 34.062 82.1389 33.2315 81.536 32.7771C82.1045 32.7575 82.8999 33.334 83.213 33.2291C83.0316 32.9278 82.4875 32.7814 82.1379 32.5604L82.1237 32.3676Z" fill="#814B3A"/>
<path d="M49.8482 19.1514C50.4846 19.3369 51.6772 20.1048 52.2923 20.47C57.8847 23.7884 65.4297 23.3569 71.4274 21.4175C72.2877 21.1392 73.3992 20.6973 74.2788 20.9605L74.3193 21.0876C73.7954 21.0366 70.9258 22.7176 70.0098 23.01C66.8756 24.0102 63.7486 24.7475 60.4463 24.2899C56.6768 23.7677 52.2325 22.1859 49.8482 19.1514Z" fill="var(--fill-0, #DCDCEB)"/>
<path d="M30.831 22.0577C31.1988 22.2975 31.3517 22.5294 31.6604 22.8168C32.601 23.6927 33.6195 24.4076 34.926 24.5809C35.2506 24.6236 35.7808 24.7673 36.0748 24.6184C36.0973 24.3098 36.0813 24.2623 36.0214 23.9538C37.1563 24.6511 38.5002 24.4352 39.748 24.268C39.3191 25.5846 38.9456 27.2385 38.602 28.6022C35.2927 27.6926 32.1743 25.2614 30.831 22.0577Z" fill="var(--fill-0, #DCDCEB)"/>
<path d="M48.5482 20.4547C48.2381 19.4643 47.4882 17.7784 47.8459 16.8172L48.0081 16.7701C48.3506 16.9886 48.2371 16.8415 48.3637 17.2245C48.3718 18.5294 49.9323 20.5056 50.7744 21.4704C46.5935 23.4983 41.7595 24.5115 37.6481 21.6387C38.2275 21.6233 39.3403 21.92 39.9297 22.0775C42.9061 22.8727 45.9551 22.0166 48.5482 20.4547Z" fill="var(--fill-0, #DCDCEB)"/>
<path d="M76.1858 6.81289C78.5285 8.91475 79.5479 11.4925 80.9017 14.2696L80.9544 14.4473L80.852 14.455C80.6311 14.4738 80.5602 14.4494 80.4487 14.5807C79.4881 14.6687 78.5275 14.7492 77.5659 14.822C77.5892 13.188 77.8486 11.2119 77.3106 9.68405C76.9731 8.72899 76.5394 7.79751 76.1858 6.81289Z" fill="var(--fill-0, #DCDCEB)"/>
<path d="M81.0952 12.5315C82.4753 12.6504 83.5504 12.938 84.8809 13.2888C84.8606 13.9401 85.1484 14.5071 85.421 15.0949C83.5413 14.7675 82.3618 14.6905 80.4487 14.5807C80.5602 14.4494 80.6311 14.4738 80.852 14.455L80.9544 14.4473L80.9017 14.2696C81.231 14.2428 81.1064 14.3128 81.305 14.0879C81.3658 13.6144 81.1976 13.0158 81.0952 12.5315Z" fill="var(--fill-0, #DCDCEB)"/>
<path d="M36.1035 21.1286C37.2996 22.3411 37.6993 22.7424 39.1386 23.6522C38.4357 23.7259 37.8642 23.8071 37.1526 23.7458C37.1025 22.8738 35.9831 22.5574 36.1035 21.1286Z" fill="var(--fill-0, #DCDCEB)"/>
<path d="M82.8462 93.6197C83.1461 93.5043 83.3245 93.3636 83.6163 93.5225C84.3591 93.9275 84.9751 94.6453 85.5173 95.2699C88.1123 98.2624 90.3801 102.353 91.7095 106.082C91.2434 106.15 90.5736 106.23 90.1328 106.341C86.9014 106.95 84.0348 108.207 81.3273 110.037C80.9463 108.989 78.2651 102.347 77.3065 102.337C76.661 103.451 79.8803 109.19 80.2066 110.687C80.3616 111.396 80.0292 112.053 80.2461 112.851C80.5845 114.096 81.001 115.139 82.0751 115.868C81.2563 117.415 81.0892 118.296 81.152 120.003C71.5885 122.756 60.3733 124.563 50.3731 124.566C50.0306 117.864 50.6589 110.888 51.0054 104.209C51.0054 103.81 50.9628 103.476 51.13 103.125C51.7137 102.905 52.6794 102.749 53.3157 102.637C58.9729 101.643 64.3992 99.9247 69.9115 98.39C74.6395 96.8006 78.2124 95.692 82.8462 93.6197Z" fill="#FDFDFE"/>
<path d="M82.8462 93.6197C83.1461 93.5043 83.3245 93.3636 83.6163 93.5225C84.3591 93.9275 84.9751 94.6453 85.5173 95.2699C88.1123 98.2624 90.3801 102.353 91.7095 106.082C91.2434 106.15 90.5736 106.23 90.1328 106.341C88.7983 102.971 87.5063 99.9217 85.4088 96.9089C84.6205 95.7761 83.7085 94.7019 82.8462 93.6197Z" fill="var(--fill-0, #DCDCEB)"/>
<path d="M51.0054 104.209C51.0054 103.81 50.9628 103.476 51.13 103.125C51.7137 102.905 52.6794 102.749 53.3157 102.637C58.9729 101.643 64.3992 99.9247 69.9115 98.39C69.5771 98.8303 64.5917 100.672 63.7344 100.969C60.9681 101.896 58.1583 102.684 55.315 103.331C54.0372 103.634 52.2751 104.119 51.0054 104.209Z" fill="var(--fill-0, #DCDCEB)"/>
<path d="M51.5323 22.1266C56.6292 25.5584 62.555 26.4232 68.4361 24.6099C71.1751 28.7289 75.0692 31.2818 80.0738 31.7112C79.2054 35.3403 78.2215 39.8449 77.6622 43.5616C76.6012 43.5579 75.5099 43.5678 74.4521 43.5479C74.6 42.6933 74.9942 40.6881 75.0398 39.9203C75.0175 39.4488 75.0347 39.1608 75.0651 38.6932L74.8776 38.7057C74.9729 38.5882 74.9415 38.6477 74.983 38.5347C74.8533 38.7548 74.754 38.9085 74.6091 39.1195C74.1977 40.5215 74.0498 42.1204 73.6728 43.478C72.0191 43.4676 70.3664 43.3835 68.7198 43.2263L68.9134 42.3139C69.0441 41.7267 69.116 41.2847 69.1961 40.6873L69.0573 40.5753C69.1556 39.9838 69.2457 39.3909 69.3268 38.7968L69.2397 38.749L69.1626 39.0913L69.0025 39.1912C68.6519 40.4634 68.4412 41.9065 68.0734 43.1247C66.7348 43.0131 64.4681 42.8795 63.2004 42.6873C62.7069 42.6388 62.2125 42.5932 61.719 42.5503C62.2064 39.594 62.7475 36.7327 63.2075 33.7279C62.9795 33.7878 62.9035 33.7526 62.8498 33.9287C62.2692 35.8438 61.946 38.3146 61.4697 40.2389L61.108 42.4441C59.8555 42.2707 58.6082 42.068 57.3659 41.8358C56.3232 41.7756 54.6756 41.4737 53.6227 41.2816C53.4444 41.2491 53.5032 41.2387 53.3664 41.016L53.3289 40.7872L53.2063 40.9133L52.9074 40.8036L52.7939 41.009C52.4108 41.11 49.8178 40.4427 49.2696 40.3157C48.4549 40.1946 47.393 39.994 46.6219 39.7187C46.5064 39.6627 46.2764 39.6104 46.1426 39.574C45.8822 39.5521 45.4657 39.4335 45.1992 39.3672C44.2812 39.0376 42.5717 38.7643 41.7838 38.2722L41.7152 37.9649C41.7344 37.8072 41.7225 37.7995 41.7059 37.6396C41.5972 37.8852 41.5972 37.9316 41.4019 38.1216L41.1621 38.0672C40.7411 38.0739 39.3718 37.5093 38.894 37.3319L38.0223 36.9464L40.8248 24.2317C41.0826 24.0721 41.0412 24.1358 41.4392 24.2018C44.4018 25.3038 49.0274 23.8842 51.5323 22.1266Z" fill="#FDFDFE"/>
<path d="M51.5323 22.1266C56.6292 25.5584 62.555 26.4232 68.4361 24.6099C71.1751 28.7289 75.0692 31.2818 80.0738 31.7112C79.2054 35.3403 78.2215 39.8449 77.6622 43.5616C76.6012 43.5579 75.5099 43.5678 74.4521 43.5479C74.6 42.6933 74.9942 40.6881 75.0398 39.9203C75.0175 39.4488 75.0347 39.1608 75.0651 38.6932L74.8776 38.7057C74.9729 38.5882 74.9415 38.6477 74.983 38.5347C74.8533 38.7548 74.754 38.9085 74.6091 39.1195C74.1977 40.5215 74.0498 42.1204 73.6728 43.478C72.0191 43.4676 70.3664 43.3835 68.7198 43.2263L68.9134 42.3139C69.0441 41.7267 69.116 41.2847 69.1961 40.6873L69.0573 40.5753C69.1556 39.9838 69.2457 39.3909 69.3268 38.7968L69.2397 38.749L69.1626 39.0913L69.0025 39.1912C68.6519 40.4634 68.4412 41.9065 68.0734 43.1247C66.7348 43.0131 64.4681 42.8795 63.2004 42.6873C63.7385 42.0817 66.4136 42.0604 67.3448 42.0132C68.6428 38.0099 69.2336 33.8275 70.4374 30.1102C69.0036 28.5961 68.2598 27.9227 67.2536 26.0722C61.6318 27.1471 56.692 26.4894 51.8019 23.3557C50.211 24.0266 48.3506 24.83 46.6533 25.1203C45.2701 25.3569 42.5555 25.9322 41.3779 25.1559C41.4177 24.7998 41.4342 24.5598 41.4392 24.2018C44.4018 25.3038 49.0274 23.8842 51.5323 22.1266Z" fill="var(--fill-0, #DCDCEB)"/>
<path d="M70.7302 30.4852C71.6169 31.1018 72.7558 31.941 73.689 32.4184C73.381 34.1948 73.0375 35.8343 72.5927 37.5806C72.2076 39.0908 71.9664 40.679 71.6341 42.2083C70.6329 42.3988 69.9317 42.3834 68.9134 42.3139C69.0441 41.7267 69.116 41.2847 69.1961 40.6873L69.0573 40.5753C69.1556 39.9838 69.2457 39.3909 69.3268 38.7968L69.2397 38.749L69.1626 39.0913L69.0025 39.1912C69.0309 38.628 69.3835 37.0907 69.7098 36.6066C69.9398 34.435 70.7535 33.341 70.7302 30.4852Z" fill="#FDFDFE"/>
<path d="M69.0025 39.1912C69.0309 38.628 69.3835 37.0907 69.7098 36.6066C69.7757 37.2522 69.4717 40.2175 69.1961 40.6873L69.0573 40.5753C69.1556 39.9838 69.2457 39.3909 69.3268 38.7968L69.2397 38.749L69.1626 39.0913L69.0025 39.1912Z" fill="#814B3A"/>
<path d="M74.6091 39.1195C74.7054 38.5076 74.9354 36.8028 75.3792 36.4156C75.6133 36.8065 75.2151 39.3678 75.0398 39.9203C75.0175 39.4488 75.0347 39.1608 75.0651 38.6932L74.8776 38.7057C74.9729 38.5882 74.9415 38.6477 74.983 38.5347C74.8533 38.7548 74.754 38.9085 74.6091 39.1195Z" fill="#814B3A"/>
<path d="M49.15 26.8136C49.0447 28.6644 48.3485 31.7573 47.8875 33.6381C47.6483 35.4792 47.0394 37.8341 46.6219 39.7187C46.5064 39.6627 46.2764 39.6104 46.1426 39.574C45.8822 39.5521 45.4657 39.4335 45.1992 39.3672C45.9389 37.8738 46.0149 36.9405 46.4618 35.5088C47.2167 33.0875 48.08 28.9548 49.15 26.8136Z" fill="#D8D8E6"/>
<path d="M46.1426 39.574C46.2247 38.4158 47.1194 35.0637 47.5774 33.8884C47.6635 33.666 47.6879 33.7075 47.8875 33.6381C47.6483 35.4792 47.0394 37.8341 46.6219 39.7187C46.5064 39.6627 46.2764 39.6104 46.1426 39.574Z" fill="#632D1E"/>
<path d="M55.8358 27.7296C55.7588 29.4618 55.0778 32.0189 54.7363 33.7608C54.6036 34.4369 54.3483 35.2672 54.2854 35.9382C53.6856 36.6172 53.1293 39.7452 52.9074 40.8036L52.7939 41.009C52.4108 41.11 49.8178 40.4427 49.2696 40.3157C50.2829 40.1432 51.3479 40.4839 52.1018 40.1579C52.6591 39.378 53.4302 35.7916 53.7555 34.6912C54.4192 32.4482 54.9765 29.9121 55.8358 27.7296Z" fill="var(--fill-0, #DCDCEB)"/>
<path d="M61.0158 39.5731C61.6643 37.2643 62.174 35.0759 62.7343 32.7516C63.0434 31.4722 63.4689 29.7058 64.004 28.5431C63.9432 29.9077 63.547 32.4025 63.2075 33.7279C62.9795 33.7878 62.9035 33.7526 62.8498 33.9287C62.2692 35.8438 61.946 38.3146 61.4697 40.2389L61.108 42.4441C59.8555 42.2707 58.6082 42.068 57.3659 41.8358C60.1149 41.5494 59.9903 42.4046 61.0158 39.5731Z" fill="var(--fill-0, #DCDCEB)"/>
<path d="M43.9964 26.1773C43.9356 26.7983 43.6955 28.0041 43.583 28.656C43.3844 29.8127 43.1736 31.4639 42.8707 32.5818L42.7166 32.4198L42.5353 32.4356C42.3427 32.7941 42.3367 32.9068 42.2475 33.3133C42.1796 33.1484 42.0225 32.753 42.0651 32.5932C42.5423 30.8075 43.3641 27.8389 43.9964 26.1773Z" fill="var(--fill-0, #DCDCEB)"/>
<path d="M42.2475 33.3133C42.3367 32.9068 42.3427 32.7941 42.5353 32.4356L42.7166 32.4198L42.8707 32.5818C42.6589 33.5716 41.9861 37.2826 41.7152 37.9649C41.7344 37.8072 41.7225 37.7995 41.7059 37.6396C41.5972 37.8852 41.5972 37.9316 41.4019 38.1216L41.1621 38.0672C41.2044 37.5739 41.6422 35.9134 41.7728 35.3312C41.9273 34.6578 42.0854 33.9852 42.2475 33.3133Z" fill="#632D1E"/>
<path d="M54.2854 35.9382C54.1253 37.3904 53.8406 39.634 53.3664 41.016L53.3289 40.7872L53.2063 40.9133L52.9074 40.8036C53.1293 39.7452 53.6856 36.6172 54.2854 35.9382Z" fill="#632D1E"/>
<path d="M38.894 37.3319C39.3429 37.2521 39.7803 37.239 40.1892 37.1488C41.2411 36.9167 40.9226 35.8442 41.7728 35.3312C41.6422 35.9134 41.2044 37.5739 41.1621 38.0672C40.7411 38.0739 39.3718 37.5093 38.894 37.3319Z" fill="var(--fill-0, #DCDCEB)"/>
<path d="M39.3426 104.897C43.0754 104.255 46.6442 103.974 50.4248 103.187C50.3447 103.708 50.2677 104.257 50.1715 104.773C49.4905 110.843 49.2605 118.597 49.6162 124.614C44.4788 124.712 39.2782 124.489 34.2064 123.611C32.4103 123.3 30.6188 122.949 28.8287 122.604C28.9529 116.895 29.8191 111.074 30.1875 105.417C32.8884 105.422 36.6265 105.113 39.3426 104.897Z" fill="#FDFDFE"/>
<path d="M39.3426 104.897C43.0754 104.255 46.6442 103.974 50.4248 103.187C50.3447 103.708 50.2677 104.257 50.1715 104.773C50.137 104.686 50.1026 104.599 50.0691 104.512C48.4205 104.457 40.2374 105.326 39.3426 104.897Z" fill="var(--fill-0, #DCDCEB)"/>
<path d="M32.8698 106.279C33.5416 106.1 34.2574 106.301 34.7389 106.802C35.2204 107.303 35.3914 108.026 35.1856 108.689C34.9799 109.353 34.4297 109.852 33.7491 109.993C32.7358 110.203 31.7392 109.569 31.501 108.563C31.2627 107.557 31.8696 106.545 32.8698 106.279Z" fill="#5B1F07"/>
<path d="M45.5964 115.895C46.6259 115.755 47.5744 116.474 47.7173 117.501C47.8591 118.529 47.1427 119.478 46.1142 119.623C45.0817 119.768 44.1282 119.049 43.9853 118.018C43.8424 116.987 44.5649 116.035 45.5964 115.895Z" fill="#5B1F07"/>
<path d="M45.7626 106.788C46.7587 106.624 47.7071 107.274 47.9108 108.263C48.1145 109.251 47.5014 110.222 46.5216 110.465C45.8518 110.631 45.1445 110.418 44.6794 109.909C44.2143 109.399 44.0653 108.678 44.2913 108.027C44.5173 107.375 45.0827 106.9 45.7626 106.788Z" fill="#5B1F07"/>
<path d="M32.4729 115.392C33.4438 115.031 34.5224 115.529 34.8774 116.501C35.2323 117.473 34.728 118.548 33.7531 118.897C32.786 119.244 31.7207 118.744 31.3685 117.781C31.0164 116.816 31.5099 115.749 32.4729 115.392Z" fill="#5B1F07"/>
<path d="M11.259 92.0121C14.7546 94.458 19.3548 96.4715 23.3473 97.9374C26.1091 98.8243 28.6187 99.7698 31.4756 100.524C32.6323 100.83 34.6001 101.261 35.6211 101.591C34.8252 101.869 33.913 102.214 33.1108 102.438C31.992 102.88 30.1566 103.366 29.2943 104.213C28.264 105.225 27.523 120.113 27.4688 122.244C26.1015 121.85 24.5576 121.607 23.223 121.181C20.0199 120.159 15.7433 119.053 12.8874 117.34C13.049 113.428 13.4204 109.527 14.0003 105.655C14.1839 104.372 15.2023 99.0905 14.8166 98.1865C14.5392 97.9638 14.6965 98.0164 14.3212 98.0488C13.9636 98.3819 13.9155 99.1604 13.8227 99.6838C12.029 97.5568 11.3951 94.7272 11.259 92.0121Z" fill="#FDFDFE"/>
<path d="M23.3473 97.9374C26.1091 98.8243 28.6187 99.7698 31.4756 100.524C32.6323 100.83 34.6001 101.261 35.6211 101.591C34.8252 101.869 33.913 102.214 33.1108 102.438C32.7969 102.017 32.1954 102.063 31.7804 101.822C29.9695 100.771 24.3984 99.4347 23.3473 97.9374Z" fill="var(--fill-0, #DCDCEB)"/>
<path d="M37.8577 37.3682C39.9117 38.4406 42.822 39.3122 45.0695 39.9604C53.4667 42.3508 62.098 43.8255 70.8133 44.3588C72.9909 44.446 75.3569 44.5301 77.5325 44.4472C77.2883 45.9849 77.0765 47.5275 76.8961 49.074C76.433 52.7368 76.7664 52.4577 72.9706 52.7772C67.1502 53.2671 61.4069 52.7402 55.6635 51.7722C54.6401 51.638 53.6177 51.4395 52.6074 51.2319C49.5848 50.6106 37.7091 47.7016 36.2867 45.2629C35.9132 44.6227 37.5822 38.5807 37.8577 37.3682Z" fill="#FDFDFE"/>
<path d="M70.8133 44.3588C72.9909 44.446 75.3569 44.5301 77.5325 44.4472C77.2883 45.9849 77.0765 47.5275 76.8961 49.074C76.433 52.7368 76.7664 52.4577 72.9706 52.7772C67.1502 53.2671 61.4069 52.7402 55.6635 51.7722C56.9514 51.5335 58.7318 51.667 60.0825 51.6089C63.2055 51.4743 66.8189 51.1868 69.7798 50.1594C70.1881 49.011 70.7859 45.5517 70.8133 44.3588Z" fill="var(--fill-0, #DCDCEB)"/>
<path d="M81.535 89.9366C83.7207 89.2146 86.1445 88.4637 88.0981 87.2434C87.8742 88.3536 87.6654 90.0941 86.6461 90.6363C83.1238 92.5102 73.8157 96.4766 70.1496 97.161C68.9326 97.6692 65.9181 98.4487 64.5957 98.8233C55.6757 101.391 46.555 103.2 37.3296 104.232C35.1229 104.482 32.8221 104.846 30.6119 104.913C32.0366 104.251 33.819 103.697 35.3207 103.155L44.0724 99.9895C47.0029 98.9063 51.1898 96.9676 54.0615 96.1972C56.4863 95.5473 60.2994 95.0684 62.9157 94.5207C69.1829 93.2512 75.3944 91.7215 81.535 89.9366Z" fill="#FDFDFE"/>
<path d="M81.535 89.9366C83.7207 89.2146 86.1445 88.4637 88.0981 87.2434C87.8742 88.3536 87.6654 90.0941 86.6461 90.6363C83.1238 92.5102 73.8157 96.4766 70.1496 97.161C70.5255 96.6609 71.2115 96.5698 71.7111 96.2853C73.7934 95.0988 81.4235 92.6226 81.7751 90.1907L81.535 89.9366Z" fill="var(--fill-0, #DCDCEB)"/>
<path d="M53.7058 126.017C57.4581 125.833 61.2042 125.52 64.9362 125.08C64.9767 126.256 65.0345 127.465 65.2675 128.619C65.7843 130.732 68.0683 135.73 67.3742 137.767C66.9699 138.954 63.3625 139.95 62.2054 140.179C60.7107 140.474 56.2411 141.151 55.7193 138.868C55.4163 137.541 56.7184 136.452 57.2584 135.349C56.618 134.453 55.4142 132.844 54.9491 131.929C54.3939 130.805 54.1851 130.08 53.8842 128.897C53.7352 127.945 53.6754 126.98 53.7058 126.017Z" fill="#97501F"/>
<path d="M53.7058 126.017C57.4581 125.833 61.2042 125.52 64.9362 125.08C64.9767 126.256 65.0345 127.465 65.2675 128.619C65.0213 128.848 63.8935 128.842 63.0302 129.269C59.1239 132.142 59.663 131.417 54.9491 131.929C54.3939 130.805 54.1851 130.08 53.8842 128.897C53.7352 127.945 53.6754 126.98 53.7058 126.017Z" fill="#EFAB48"/>
<path d="M53.8842 128.897C53.9105 128.808 53.9612 128.505 54.0544 128.509C56.996 128.646 60.1555 128.254 63.0555 128.266C63.0454 128.581 63.0231 128.96 63.0302 129.269C59.1239 132.142 59.663 131.417 54.9491 131.929C54.3939 130.805 54.1851 130.08 53.8842 128.897Z" fill="#FAC660"/>
<path d="M29.6658 124.23C33.1842 125.025 36.7535 125.576 40.3481 125.878C40.2092 126.727 40.0867 127.374 40.077 128.241C40.0841 129.042 40.0688 130.201 40.087 131C40.0711 132.194 40.7982 136.887 40.0158 137.617C38.6639 138.877 34.3746 139.018 32.5623 139.019C30.6973 138.927 27.456 138.554 27.7151 135.966C27.7872 135.245 28.4441 134.367 29.0357 134.004C31.6392 132.402 30.7926 132.528 30.283 129.993C29.9603 128.725 29.832 127.625 29.7259 126.329C29.697 125.644 29.6523 124.913 29.6658 124.23Z" fill="#97501F"/>
<path d="M29.6658 124.23C33.1842 125.025 36.7535 125.576 40.3481 125.878C40.2092 126.727 40.0867 127.374 40.077 128.241C40.005 128.719 40.0759 128.81 39.7833 129.108C39.1319 129.319 38.8804 129.009 37.939 129.293C35.6694 130.468 35.4448 130.144 32.8895 130.022C32.1772 129.989 31.0883 130.03 30.283 129.993C29.9603 128.725 29.832 127.625 29.7259 126.329C29.697 125.644 29.6523 124.913 29.6658 124.23Z" fill="#EFAB48"/>
<path d="M29.7259 126.329C32.2022 127.085 34.7186 127.558 37.2777 127.923C38.2498 128.061 38.2164 128.284 37.939 129.293C35.6694 130.468 35.4448 130.144 32.8895 130.022C32.1772 129.989 31.0883 130.03 30.283 129.993C29.9603 128.725 29.832 127.625 29.7259 126.329Z" fill="#FAC660"/>
<path d="M10.3672 86.5383C14.4501 89.8627 24.8151 93.2431 30.0844 94.8913C31.4481 95.3175 33.9812 95.6667 35.1284 96.1253C36.1699 96.5414 38.322 98.0741 39.517 98.7615C40.1702 99.0176 40.683 99.2161 41.2685 99.6109C39.7142 100.105 38.1762 100.649 36.6566 101.242L34.1107 100.575C33.7601 100.424 33.2873 100.311 32.912 100.193C26.6248 98.2229 20.3018 96.0575 14.5202 92.8594C13.4129 92.247 12.0707 91.6019 11.1459 90.745C10.679 89.505 10.4821 87.8536 10.3672 86.5383Z" fill="#FDFDFE"/>
<path d="M39.517 98.7615C40.1702 99.0176 40.683 99.2161 41.2685 99.6109C39.7142 100.105 38.1762 100.649 36.6566 101.242L34.1107 100.575C34.8967 100.372 35.7912 99.9672 36.5998 99.7172C37.205 99.5299 39.2105 99.1766 39.517 98.7615Z" fill="#DBDAE6"/>
<path d="M83.9355 115.439C87.1578 114.067 89.6515 113.336 93.1534 112.834C93.9458 113.728 94.4859 114.457 94.9642 115.57C95.8995 117.726 95.8275 120.853 93.9084 122.468C92.2151 123.891 88.8257 124.593 87.2155 122.674C86.6947 122.053 86.4201 121.022 86.3927 120.228C86.1029 120.242 85.8131 120.259 85.5233 120.277C85.1596 120.102 85.2822 120.209 85.0825 119.822C85.0846 120.227 85.1555 121.007 84.8728 121.31C84.3601 121.857 83.6092 121.279 83.2525 120.836C81.913 119.167 82.8513 116.961 83.9355 115.439Z" fill="#97501F"/>
<path d="M85.0825 119.822C85.195 119.424 85.2112 119.238 85.4909 118.933L85.7615 118.826C86.4039 119.114 86.3765 119.576 86.3927 120.228C86.1029 120.242 85.8131 120.259 85.5233 120.277C85.1596 120.102 85.2822 120.209 85.0825 119.822Z" fill="#501D0A"/>
<path d="M3.53118 111.584C6.43052 112.481 8.70902 113.163 11.4207 114.598C11.3985 115.694 11.4353 116.725 11.3697 117.833L11.1085 117.805C10.8578 117.546 10.845 117.51 10.5084 117.521C9.52573 118.278 10.8978 122.156 7.2139 122.368C0.799838 122.738 0.250023 115.533 3.53118 111.584Z" fill="#914E1F"/>
<path d="M90.7357 107.493C91.7531 107.366 92.5637 107.263 93.5932 107.239C94.0938 108.562 94.3724 109.866 94.5589 111.263C93.7107 111.404 92.8586 111.525 92.0054 111.629C88.1397 112.264 85.9793 113.156 82.4611 114.693C81.7863 113.745 81.5705 112.901 81.2634 111.805C83.3022 109.594 87.8265 108.127 90.7357 107.493Z" fill="#FDFDFE"/>
<path d="M90.7357 107.493C91.7531 107.366 92.5637 107.263 93.5932 107.239C94.0938 108.562 94.3724 109.866 94.5589 111.263C93.7107 111.404 92.8586 111.525 92.0054 111.629C91.9993 111.511 91.9902 111.395 91.977 111.278C91.8807 110.368 91.4329 108.062 90.7357 107.493Z" fill="var(--fill-0, #DCDCEB)"/>
<path d="M9.33098 97.7825C9.68452 97.3088 9.98668 96.8866 10.3945 96.4574C11.0977 98.4932 11.8402 99.863 13.2762 101.475C12.8416 103.303 12.4879 105.604 12.1882 107.476C11.119 106.94 10.2727 106.53 9.16733 106.085C7.78763 105.555 6.82783 105.267 5.39047 104.945C6.5812 102.23 7.61679 100.175 9.33098 97.7825Z" fill="#FDFDFE"/>
<path d="M9.33098 97.7825C9.68452 97.3088 9.98668 96.8866 10.3945 96.4574C11.0977 98.4932 11.8402 99.863 13.2762 101.475C12.8416 103.303 12.4879 105.604 12.1882 107.476C11.119 106.94 10.2727 106.53 9.16733 106.085C9.69343 104.988 10.627 102.284 10.9921 101.109C10.655 100.523 9.50405 97.9891 9.33098 97.7825Z" fill="var(--fill-0, #DCDCEB)"/>
<path d="M3.54921 105.98C5.286 106.072 7.13162 106.708 8.74073 107.339C9.76882 107.794 11.0907 108.34 12.0251 108.937C11.8602 110.135 11.6567 111.843 11.5849 113.056C10.1441 112.431 8.79636 111.936 7.38272 111.348C5.63346 110.794 4.20907 110.442 2.42851 109.999C2.63532 108.734 3.05898 107.149 3.54921 105.98Z" fill="#FDFDFE"/>
<path d="M8.74073 107.339C9.76882 107.794 11.0907 108.34 12.0251 108.937C11.8602 110.135 11.6567 111.843 11.5849 113.056C10.1441 112.431 8.79636 111.936 7.38272 111.348C7.64394 111.177 8.55489 107.88 8.74073 107.339Z" fill="var(--fill-0, #DCDCEB)"/>
<path d="M11.3697 117.833C11.6286 118.807 13.2358 119.009 13.4659 119.502C13.1171 120.058 12.2619 120.183 11.7314 119.93C11.3312 119.74 11.1994 118.211 11.1085 117.805L11.3697 117.833Z" fill="#97501F"/>
<path d="M86.4849 91.8218L86.5944 91.8325C86.8051 92.1943 86.4181 93.7007 86.3167 94.1968L85.805 93.6794L84.6742 92.7876C85.2842 92.4909 85.8891 92.1488 86.4849 91.8218Z" fill="var(--fill-0, #DCDCEB)"/>
</g>
</svg>
