<svg width="27" height="26" viewBox="0 0 27 26" fill="none" xmlns="http://www.w3.org/2000/svg">
<path d="M16.4757 10.8804L10.8642 1.06402C10.4987 0.400437 9.84297 0 9.12272 0H2.03843C0.479678 0 -0.498577 1.7848 0.264677 3.22637C1.68329 5.89754 3.6855 8.1658 6.10195 9.8393C6.91896 10.5143 7.92946 10.8804 8.97222 10.8804H16.4757Z" fill="#0074BA"/>
<path d="M24.9568 0H17.8726C17.1523 0 16.4966 0.400437 16.1311 1.06402L10.5195 10.8804H18.0338C19.0766 10.8804 20.0763 10.5143 20.9041 9.8393C23.3228 8.1689 25.3223 5.90358 26.7414 3.22637C27.4939 1.7848 26.5156 0 24.9568 0Z" fill="#00A6ED"/>
<path d="M12.9605 25.21C18.9254 25.21 23.7608 20.3745 23.7608 14.4097C23.7608 8.44484 18.9254 3.60938 12.9605 3.60938C6.99555 3.60938 2.16016 8.44484 2.16016 14.4097C2.16016 20.3745 6.99555 25.21 12.9605 25.21Z" fill="#FFB02E"/>
<path d="M11.0039 11.0289C11.0039 10.7254 11.1172 10.4344 11.3188 10.2199C11.5204 10.0053 11.7938 9.88477 12.0789 9.88477H13.0722C13.3573 9.88477 13.6308 10.0053 13.8324 10.2199C14.034 10.4344 14.1472 10.7254 14.1472 11.0289V18.9907C14.1472 19.2941 14.034 19.5851 13.8324 19.7997C13.6308 20.0143 13.3573 20.1348 13.0722 20.1348C12.7871 20.1348 12.5137 20.0143 12.3121 19.7997C12.1105 19.5851 11.9972 19.2941 11.9972 18.9907V12.1695C11.727 12.1476 11.4746 12.0179 11.2905 11.8064C11.1063 11.5949 11.0039 11.3172 11.0039 11.0289Z" fill="#6D4534"/>
<path d="M12.9586 23.9464C10.3607 23.9464 7.91686 22.9366 6.0895 21.0997C4.25057 19.2624 3.2264 16.7928 3.23839 14.2246C3.23839 11.625 4.25114 9.18645 6.0895 7.34951C6.98148 6.44995 8.04975 5.73464 9.23075 5.24612C10.4118 4.75761 11.6814 4.50586 12.9641 4.50586C14.2468 4.50586 15.5165 4.75761 16.6975 5.24612C17.8785 5.73464 18.9467 6.44995 19.8387 7.34951C23.6255 11.1416 23.6255 17.3076 19.8387 21.0997C17.9893 22.9366 15.5455 23.9464 12.9586 23.9464ZM12.9476 5.8241C10.801 5.8241 8.6434 6.64052 7.01419 8.28409C5.42913 9.87341 4.54751 12.0069 4.55937 14.2246C4.55937 16.4697 5.42901 18.5752 7.01419 20.1651C7.78278 20.9435 8.70442 21.5626 9.72393 21.9853C10.7434 22.408 11.8399 22.6256 12.9476 22.6251C15.1933 22.6251 17.2958 21.755 18.881 20.1651C22.1504 16.8887 22.1504 11.5605 18.881 8.28409C18.1132 7.50468 17.1917 6.88494 16.172 6.46217C15.1523 6.03941 14.0555 5.82236 12.9476 5.8241Z" fill="#FCD53F"/>
</svg>
