<svg width="25" height="25" viewBox="0 0 25 25" fill="none" xmlns="http://www.w3.org/2000/svg">
<g clip-path="url(#clip0_1339_5014)">
<path d="M15.9075 9.87092L10.4895 0.965295C10.1366 0.363283 9.50347 0 8.80806 0H1.96813C0.463133 0 -0.48138 1.6192 0.255548 2.92702C1.62523 5.35035 3.55838 7.40816 5.89149 8.92638C6.68031 9.53878 7.65596 9.87092 8.66275 9.87092H15.9075Z" fill="#0074BA"/>
<path d="M23.1403 0H16.6925C16.0369 0 15.4401 0.368034 15.1074 0.977918L10 10H16.8392C17.7883 10 18.6983 9.66351 19.4517 9.04311C21.6531 7.50789 23.473 5.42587 24.7645 2.9653C25.4494 1.64038 24.5591 0 23.1403 0Z" fill="#00A6ED"/>
<path d="M12.4987 24.9993C18.2517 24.9993 22.9154 20.3356 22.9154 14.5827C22.9154 8.82973 18.2517 4.16602 12.4987 4.16602C6.74567 4.16602 2.08203 8.82973 2.08203 14.5827C2.08203 20.3356 6.74567 24.9993 12.4987 24.9993Z" fill="#D3883E"/>
<path d="M12.5001 23.959C9.9944 23.959 7.63739 22.9851 5.87494 21.2134C4.10133 19.4414 3.11354 17.0595 3.1251 14.5825C3.1251 12.0752 4.10188 9.72332 5.87494 7.95163C6.73524 7.08402 7.76556 6.39412 8.90462 5.92295C10.0437 5.45179 11.2682 5.20898 12.5054 5.20898C13.7425 5.20898 14.967 5.45179 16.1061 5.92295C17.2452 6.39412 18.2755 7.08402 19.1358 7.95163C22.7881 11.609 22.7881 17.556 19.1358 21.2134C17.3521 22.9851 14.9951 23.959 12.5001 23.959ZM12.4894 6.4804C10.4191 6.4804 8.33813 7.26782 6.76679 8.85301C5.23803 10.3859 4.38772 12.4436 4.39916 14.5825C4.39916 16.7479 5.23792 18.7786 6.76679 20.312C7.50807 21.0628 8.39697 21.6599 9.38028 22.0675C10.3636 22.4752 11.4211 22.6851 12.4894 22.6846C14.6553 22.6846 16.6832 21.8454 18.2121 20.312C21.3654 17.152 21.3654 12.013 18.2121 8.85301C17.4715 8.10128 16.5828 7.50355 15.5993 7.09581C14.6158 6.68806 13.558 6.47872 12.4894 6.4804Z" fill="#F3AD61"/>
<path d="M13.9416 13.8153L15.0293 11.9366C15.118 11.7824 15.1647 11.6075 15.1647 11.4296C15.1647 11.2516 15.118 11.0768 15.0293 10.9225C14.941 10.7683 14.8135 10.6402 14.6596 10.5512C14.5057 10.4623 14.3311 10.4156 14.1533 10.416H10.9441C10.6809 10.4244 10.4313 10.5349 10.2481 10.7241C10.0649 10.9132 9.96245 11.1662 9.96245 11.4296C9.96245 11.6929 10.0649 11.9459 10.2481 12.1351C10.4313 12.3242 10.6809 12.4347 10.9441 12.4431H12.4003L11.6198 13.8039C11.477 13.9802 11.3986 14.1998 11.3976 14.4267C11.3976 14.9872 11.8522 15.4407 12.4117 15.4407C13.0448 15.4407 13.5617 15.9576 13.5617 16.5908C13.5617 17.2239 13.0448 17.7419 12.4117 17.7419C11.9259 17.7419 11.4931 17.4357 11.3343 16.9811C11.2439 16.7299 11.058 16.5246 10.8169 16.4098C10.5758 16.2951 10.2992 16.2803 10.0473 16.3687C9.92204 16.4124 9.80671 16.4805 9.70798 16.5691C9.60925 16.6577 9.52908 16.765 9.47213 16.8848C9.41517 17.0046 9.38255 17.1346 9.37616 17.2671C9.36978 17.3996 9.38975 17.532 9.43492 17.6568C9.65558 18.2701 10.0596 18.8006 10.5921 19.1765C11.1247 19.5523 11.7599 19.7552 12.4117 19.7576C13.251 19.7568 14.0557 19.423 14.6493 18.8294C15.2428 18.2359 15.5765 17.4312 15.5774 16.5918C15.5761 16.0254 15.4238 15.4696 15.1363 14.9815C14.8488 14.4935 14.4364 14.091 13.9416 13.8153Z" fill="#402A32"/>
</g>
<defs>
<clipPath id="clip0_1339_5014">
<rect width="25" height="25" fill="white"/>
</clipPath>
</defs>
</svg>
