<svg preserveAspectRatio="none" width="100%" height="100%" overflow="visible" style="display: block;" viewBox="0 0 17.7907 20.3374" fill="none" xmlns="http://www.w3.org/2000/svg">
<g id="head">
<path id="Oval" d="M2.33096 14.647C3.61832 14.647 4.66192 13.6571 4.66192 12.436C4.66192 11.2149 3.61832 10.225 2.33096 10.225C1.04361 10.225 5.48363e-06 11.2149 5.48363e-06 12.436C5.48363e-06 13.6571 1.04361 14.647 2.33096 14.647Z" fill="var(--fill-0, #EBBAAA)"/>
<path id="Oval_2" d="M15.4597 14.8184C16.747 14.8184 17.7907 13.8285 17.7907 12.6074C17.7907 11.3863 16.747 10.3964 15.4597 10.3964C14.1723 10.3964 13.1287 11.3863 13.1287 12.6074C13.1287 13.8285 14.1723 14.8184 15.4597 14.8184Z" fill="var(--fill-0, #EBBAAA)"/>
<path id="Path" d="M1.87992 8.35598C1.81421 4.44771 4.96434 1.24414 8.87318 1.24414C12.782 1.24414 15.9321 4.44771 15.8664 8.35598L15.7791 13.5467C15.7157 17.3154 12.6424 20.3374 8.87318 20.3374C5.10387 20.3374 2.0306 17.3154 1.96722 13.5467L1.87992 8.35598Z" fill="var(--fill-0, #EED4CC)"/>
<path id="Path_2" fill-rule="evenodd" clip-rule="evenodd" d="M7.42188 15.4614L7.53258 16.1604C7.70302 17.2364 8.71345 17.9705 9.78946 17.8001C10.8655 17.6297 11.5996 16.6193 11.4292 15.5433L11.3185 14.8442L7.42188 15.4614Z" fill="var(--fill-0, #393939)"/>
<g id="Group 6">
<mask id="mask0_93_2990" style="mask-type:luminance" maskUnits="userSpaceOnUse" x="7" y="14" width="5" height="4">
<path id="Path_3" fill-rule="evenodd" clip-rule="evenodd" d="M7.40412 15.3317C7.40793 15.3698 7.41283 15.408 7.41889 15.4462L7.53197 16.1601C7.70237 17.2361 8.71283 17.9702 9.78885 17.7998C10.8649 17.6294 11.599 16.619 11.4286 15.543L11.3155 14.8291C11.3094 14.7908 11.3023 14.753 11.2942 14.7156L7.40412 15.3317Z" fill="var(--fill-0, white)"/>
</mask>
<g mask="url(#mask0_93_2990)">
<path id="Oval_3" d="M9.8871 18.3041C10.536 18.2014 11.0167 17.8317 10.9607 17.4785C10.9048 17.1253 10.3334 16.9223 9.68452 17.0251C9.03562 17.1279 8.55494 17.4975 8.61088 17.8507C8.66682 18.2039 9.2382 18.4069 9.8871 18.3041Z" fill="var(--fill-0, #FF6C6C)"/>
<rect id="Rectangle" x="7.4217" y="15.4612" width="3.94517" height="0.813125" transform="rotate(-9.00001 7.4217 15.4612)" fill="var(--fill-0, white)"/>
</g>
</g>
<path id="Path_4" d="M4.96391 9.73089L7.21392 9.49438C7.4785 9.46657 7.67043 9.22955 7.64262 8.96498C7.61481 8.7004 7.37779 8.50847 7.11321 8.53628L4.8632 8.77279C4.59863 8.8006 4.40669 9.03762 4.4345 9.3022C4.46231 9.56677 4.69934 9.7587 4.96391 9.73089Z" fill="var(--fill-0, #393939)"/>
<path id="Path_5" d="M6.12092 11.0279V12.1626C6.12092 12.4286 6.33658 12.6443 6.60261 12.6443C6.86864 12.6443 7.0843 12.4286 7.0843 12.1626V11.0279C7.0843 10.7619 6.86864 10.5462 6.60261 10.5462C6.33658 10.5462 6.12092 10.7619 6.12092 11.0279Z" fill="var(--fill-0, black)"/>
<path id="Path_6" d="M10.8514 11.0279V12.1626C10.8514 12.4286 11.0671 12.6443 11.3331 12.6443C11.5991 12.6443 11.8148 12.4286 11.8148 12.1626V11.0279C11.8148 10.7619 11.5991 10.5462 11.3331 10.5462C11.0671 10.5462 10.8514 10.7619 10.8514 11.0279Z" fill="var(--fill-0, black)"/>
<path id="Path_7" d="M10.4353 9.02914L12.6853 9.26565C12.9499 9.29346 13.1869 9.10153 13.2147 8.83695C13.2425 8.57238 13.0506 8.33536 12.786 8.30755L10.536 8.07104C10.2714 8.04323 10.0344 8.23516 10.0066 8.49973C9.97877 8.76431 10.1707 9.00133 10.4353 9.02914Z" fill="var(--fill-0, #393939)"/>
<path id="Path_8" d="M1.38281 4.29676C1.38281 2.94052 2.36538 1.76597 3.7038 1.54681L10.0326 0.51051C11.6082 0.252527 13.0875 1.34122 13.3097 2.92222C13.5286 4.47956 12.4425 5.91905 10.8849 6.13601L4.50453 7.02473C2.85767 7.26224 1.38281 5.96067 1.38281 4.29676Z" fill="var(--fill-0, #393939)"/>
<rect id="Rectangle_2" x="1.57422" y="5.74023" width="0.92324" height="4.93732" rx="0.46162" fill="var(--fill-0, #393939)"/>
<path id="Path_9" d="M4.22405 5.86026C3.61391 6.24561 2.93954 6.30181 2.45785 8.30885L2.13673 6.30181C3.08674 5.99409 4.83419 5.4749 4.22405 5.86026Z" fill="var(--fill-0, #393939)"/>
<rect id="Rectangle_3" x="15.0625" y="6.34229" width="0.92324" height="4.89718" rx="0.46162" fill="var(--fill-0, #393939)"/>
<rect id="Rectangle_4" x="10.8066" y="2.12207" width="4.10749" height="6.10823" rx="2.05375" transform="rotate(-20.5 10.8066 2.12207)" fill="var(--fill-0, #393939)"/>
<path id="Path_10" d="M11.8073 0C11.6976 1.41088 11.6895 3.02017 11.6895 3.02017L13.8982 1.52111C13.8982 1.52111 12.7499 1.23452 11.8073 0Z" fill="var(--fill-0, #393939)"/>
<path id="Path_11" d="M3.14062 8.03832C3.32808 6.88371 3.57663 6.30568 3.32808 5.37891H15.7449V8.83102L15.0434 8.44125C15.0434 7.17545 13.6267 7.65818 12.8634 6.88371C11.6474 5.64978 10.2692 6.97222 9.46875 7.76885C9.46875 6.79516 9.00368 6.81731 8.59412 6.61817C8.65369 7.53872 7.17173 8.14947 6.16644 8.14947C6.16644 7.15369 6.17403 7.21563 5.72722 6.88371C4.7754 7.20612 4.23061 6.88371 3.14062 8.03832Z" fill="var(--fill-0, #393939)"/>
<path id="Oval_4" fill-rule="evenodd" clip-rule="evenodd" d="M6.01061 13.8489C7.15233 13.8489 8.07787 12.9233 8.07787 11.7816C8.07787 10.6399 7.15233 9.71436 6.01061 9.71436C4.8689 9.71436 3.94336 10.6399 3.94336 11.7816C3.94336 12.9233 4.8689 13.8489 6.01061 13.8489Z" fill="var(--fill-0, black)" fill-opacity="0.2"/>
<path id="Oval_5" fill-rule="evenodd" clip-rule="evenodd" d="M11.5087 13.8889C12.6504 13.8889 13.5759 12.9634 13.5759 11.8216C13.5759 10.6799 12.6504 9.75439 11.5087 9.75439C10.3669 9.75439 9.44141 10.6799 9.44141 11.8216C9.44141 12.9634 10.3669 13.8889 11.5087 13.8889Z" fill="var(--fill-0, black)" fill-opacity="0.2"/>
<path id="Oval_6" d="M6.04492 9.59375C7.25639 9.59375 8.239 10.5757 8.23926 11.7871C8.23926 12.9987 7.25655 13.9814 6.04492 13.9814C4.83352 13.9812 3.85156 12.9986 3.85156 11.7871C3.85182 10.5759 4.83368 9.59401 6.04492 9.59375ZM6.04395 9.99512C5.05436 9.99536 4.25219 10.7975 4.25195 11.7871C4.25195 12.7769 5.05421 13.5798 6.04395 13.5801C7.03388 13.5801 7.83691 12.777 7.83691 11.7871C7.83668 10.7974 7.03373 9.99512 6.04395 9.99512Z" fill="var(--fill-0, #2E2622)"/>
<path id="Oval_7" d="M11.4941 9.69678C12.7056 9.69678 13.6882 10.6787 13.6885 11.8901C13.6885 13.1018 12.7058 14.0845 11.4941 14.0845C10.2827 14.0842 9.30078 13.1016 9.30078 11.8901C9.30104 10.6789 10.2829 9.69704 11.4941 9.69678ZM11.4951 10.0981C10.5055 10.0984 9.70336 10.9006 9.70312 11.8901C9.70312 12.8799 10.5054 13.6829 11.4951 13.6831C12.4851 13.6831 13.2881 12.8801 13.2881 11.8901C13.2878 10.9004 12.4849 10.0981 11.4951 10.0981Z" fill="var(--fill-0, #2E2622)"/>
<path id="Path_12" d="M8.03117 11.9819L9.5051 11.9947C9.61594 11.9957 9.70658 11.9066 9.70755 11.7958C9.70851 11.6849 9.61944 11.5943 9.5086 11.5933L8.03467 11.5805C7.92383 11.5795 7.83319 11.6686 7.83222 11.7794C7.83126 11.8903 7.92033 11.9809 8.03117 11.9819Z" fill="var(--fill-0, #2E2622)"/>
<path id="Path_13" d="M8.27987 12.0759C8.26686 12.1707 8.25214 12.2347 8.18233 12.515C8.16541 12.5829 8.15339 12.6322 8.14187 12.6817C8.05643 13.0485 8.03003 13.2992 8.08591 13.5321C8.17368 13.898 8.46444 14.1089 8.8921 14.1089V13.4265C8.84816 13.4265 8.81384 13.4224 8.78869 13.4157C8.77388 13.4117 8.76566 13.4078 8.76157 13.4049C8.75877 13.4028 8.75529 13.3972 8.74948 13.3729C8.72612 13.2756 8.74422 13.1038 8.80647 12.8365C8.81705 12.7911 8.82833 12.7448 8.84449 12.6799C8.92213 12.3682 8.93804 12.299 8.95593 12.1687L8.27987 12.0759Z" fill="var(--fill-0, #EBBAAA)"/>
</g>
</svg>
