<svg width="114" height="88" viewBox="0 0 114 88" fill="none" xmlns="http://www.w3.org/2000/svg">
<path d="M49.9683 0.0221083C50.7345 0.105161 52.5829 -0.0113258 53.5189 0.000911415L58.4716 0.0211063C59.917 0.0398967 61.5009 0.107634 62.9311 0.0733301C63.6194 0.110175 64.7828 0.190888 65.4343 0.170492C66.7908 0.201787 68.1467 0.258026 69.5005 0.339206C70.7608 0.472277 72.5877 0.565026 73.8761 0.625209C75.0989 0.715216 76.3873 0.882391 77.6108 1.02496L77.7832 1.03078C79.8814 1.31604 81.8414 1.36733 83.9389 1.81422C92.5097 3.64004 101.157 8.077 106.384 15.3335C113.427 25.1098 114.7 39.0736 113.34 50.7554C112.825 55.1775 111.34 59.8952 109.235 63.793C108.871 64.4557 108.651 65.1525 108.216 65.7784C107.735 66.3963 107.364 67.0857 106.899 67.7096C106.412 68.3623 105.784 68.9641 105.265 69.586C105.051 69.7853 104.975 69.8709 104.796 70.1016C104.21 70.6659 103.684 71.2698 103.106 71.8322C101.959 72.9482 100.724 73.7741 99.3243 74.531L98.8291 74.8353L98.3039 75.2191C98.3279 75.5414 98.3654 76.3017 98.4329 76.5833C98.4489 76.7652 98.4549 76.9357 98.5037 77.1115L98.5505 77.5228L98.8051 78.8802C99.3624 81.0188 100.212 83.1298 101.616 84.8865C102.028 85.4021 102.923 86.0821 103.145 86.7642C103.185 86.8879 103.104 87.1394 103.064 87.2744C102.371 87.7887 101.83 87.8188 100.976 87.9338C100.927 87.9405 100.7 87.9672 100.667 87.9772C100.045 87.9893 99.1599 88.0207 98.5511 87.9792C94.231 87.6877 89.3777 85.7672 85.9958 83.057C85.5427 82.6938 84.8397 82.1589 84.4628 81.7409C84.0332 81.4213 83.1204 80.34 82.6914 79.8826C82.6052 79.7609 82.4688 79.6653 82.3506 79.5697C82.2029 79.5035 79.8213 79.9448 79.4324 80.0137C77.6716 80.3748 75.7652 80.8536 73.997 81.1124C72.4801 81.3344 70.8356 81.6774 69.3401 81.8586C68.4908 81.9803 67.6455 82.1268 66.8055 82.298L66.7153 82.312C65.7123 82.4076 63.4584 82.748 62.4787 82.9693C61.0778 83.1231 59.5691 83.4234 58.1664 83.6488C56.1273 83.9577 54.0858 84.2506 52.0422 84.5274C43.9289 85.5779 33.3281 85.7979 25.4759 83.2769C23.8342 82.75 22.0271 81.8125 20.4894 81.0321C20.0255 80.7967 19.2557 80.3327 18.8633 80.1588L18.7873 80.1254C18.546 79.9361 17.4204 79.3049 17.0312 79.0461L16.0667 78.3707C15.8242 78.1721 15.5801 77.9755 15.3346 77.7802L14.8206 77.4011C14.6391 77.2299 14.573 77.1824 14.3622 77.0473C13.9408 76.6307 13.5142 76.2202 13.0825 75.8143C12.7507 75.4665 12.4769 75.1723 12.1059 74.862C11.9323 74.6681 11.6604 74.4133 11.466 74.2341C10.6412 73.4752 10.0121 72.5316 9.24811 71.7278C7.02364 68.6598 5.21387 65.4608 3.76608 61.9474C2.83664 59.6919 2.3652 57.6022 1.81044 55.2584C0.470321 49.598 0.0920894 43.9587 0.00550675 38.1463C-0.073605 32.2696 0.690443 25.9983 2.89718 20.5268C3.86939 18.1162 6.3806 14.0833 8.2334 12.1839C8.58402 11.8763 9.18737 11.2415 9.50157 10.898C9.64497 10.8168 9.98002 10.4901 10.1125 10.3662C10.8906 9.63814 11.7104 9.01077 12.562 8.37049C13.3166 7.96746 14.1464 7.1356 15.0613 6.63555C19.3653 4.28313 24.0616 2.42194 28.8976 1.52307C30.8041 1.16873 33.2292 0.99714 35.1771 0.82495C37.281 0.548576 39.3983 0.591774 41.4773 0.39638C44.3196 0.129302 47.1539 0.233685 49.9683 0.0221083Z" fill="#FED16A"/>
<path d="M15.3346 77.7802C15.653 77.7749 16.0227 78.2223 16.5894 78.4456L16.2762 78.239C17.2825 78.697 18.1791 79.4072 19.1398 79.8933C21.3736 81.0228 24.0132 82.4063 26.3807 83.1673C28.2391 83.6996 30.0831 84.2031 32.01 84.4164C32.5928 84.508 33.3761 84.3636 33.9373 84.4539C35.3105 84.6752 36.5261 84.9159 37.9384 84.9286C40.0897 84.9487 42.3094 84.9607 44.4603 84.8751C45.7331 84.825 47.0667 84.5054 48.3465 84.4391C49.5085 84.2773 50.9157 84.3629 52.0273 84.1463C54.5472 83.6541 57.0921 83.3726 59.617 82.9814L66.8944 81.7804C70.6539 81.1819 74.4013 80.6791 78.13 79.8733C79.0615 79.672 80.3365 79.6312 81.3275 79.5035L81.1257 79.5543C81.5333 79.4908 81.9657 79.4152 82.3733 79.3751C82.6747 79.6352 84.406 81.4788 84.4628 81.7409C84.0332 81.4213 83.1204 80.34 82.6914 79.8826C82.6052 79.7609 82.4688 79.6653 82.3506 79.5697C82.2029 79.5035 79.8213 79.9448 79.4324 80.0137C77.6716 80.3748 75.7652 80.8536 73.997 81.1124C72.4801 81.3344 70.8356 81.6774 69.3401 81.8586C68.4908 81.9803 67.6455 82.1268 66.8055 82.298L66.7153 82.312C65.7123 82.4076 63.4584 82.748 62.4787 82.9693C61.0778 83.1231 59.5691 83.4234 58.1664 83.6488C56.1273 83.9577 54.0858 84.2506 52.0422 84.5274C43.9289 85.5779 33.3281 85.7979 25.4759 83.2769C23.8342 82.75 22.0271 81.8125 20.4894 81.0321C20.0255 80.7967 19.2557 80.3327 18.8633 80.1588L18.7873 80.1254C18.546 79.9361 17.4204 79.3049 17.0312 79.0461L16.0667 78.3707C15.8242 78.1721 15.5801 77.9755 15.3346 77.7802Z" fill="#FED16A"/>
<path d="M54.2665 0.888344C60.9828 0.877243 67.6983 1.05692 74.404 1.42725C77.7197 1.63261 82.3238 2.17994 85.4211 2.98371C94.6026 5.36636 103.238 10.5307 107.796 19.1137C108.53 20.4954 110.032 24.3379 110.446 25.8974C114.255 40.2366 114.332 59.8043 102.335 70.4533C100.621 71.9766 98.5144 72.8412 96.8605 74.2983C96.9694 78.2905 97.8321 81.4862 100.235 84.7809C100.717 85.4409 101.547 85.9986 102.099 86.7549L102.152 86.8271C96.0653 87.1494 89.365 83.6421 84.9086 79.7288C84.4094 79.2902 83.9523 78.7987 83.4291 78.3848L83.3689 78.3373C82.8497 78.3339 82.541 78.3874 82.0385 78.4724C78.2329 79.113 74.3712 79.5296 70.5603 80.108C69.0922 80.3454 67.4798 80.5346 65.9923 80.7433C63.3742 81.1231 60.7537 81.4862 58.1309 81.8326C52.9659 82.4973 48.1587 83.0844 42.9183 83.2248C37.4023 83.3906 31.7912 82.7708 26.519 81.099C25.1978 80.6804 23.1383 79.8532 21.8561 79.2521C19.0948 77.9575 16.1368 75.7755 13.9043 73.7019C11.994 71.9271 10.1585 69.6134 8.52575 67.5739C5.88658 63.5724 3.7338 58.9604 2.73968 54.2474C1.767 49.6363 1.38665 44.6285 1.14419 39.9274C1.06117 38.3176 1.11938 36.4041 1.15546 34.793C1.20517 32.5737 1.57315 30.2039 1.85888 28.0049C2.31749 24.082 3.70921 20.4004 5.80231 17.057C6.6968 15.7325 7.73564 13.9051 8.86053 12.8037C11.755 9.96975 14.6536 7.38148 18.4545 5.83532C20.6364 4.94782 23.0378 3.85289 25.3246 3.25079C28.8464 2.32344 32.515 1.78921 36.1386 1.46576C37.9413 1.31551 40.0239 1.31959 41.845 1.24844C45.9833 1.06267 50.1244 0.942642 54.2665 0.888344Z" fill="#FEFAF4"/>
</svg>
