<svg width="22" height="22" viewBox="0 0 22.2991 22" fill="none" xmlns="http://www.w3.org/2000/svg" aria-hidden="true">
  <path d="M21.1389 21.4469C21.3268 21.5232 21.5453 21.5373 21.7464 21.4861C21.846 21.4608 21.9383 21.4202 22.018 21.3666C22.0977 21.3131 22.1633 21.2477 22.2111 21.1741C22.2589 21.1005 22.2878 21.0201 22.2963 20.9377C22.3048 20.8553 22.2927 20.7723 22.2607 20.6935C22.2286 20.6148 22.1773 20.5418 22.1096 20.4788C22.0419 20.4157 21.9592 20.3638 21.8661 20.326L21.1389 21.4469ZM21.8661 20.326C19.4013 19.3254 18.3973 17.9986 17.9731 16.5329C17.5271 14.9902 17.7192 13.3366 17.7192 11.5729H16.1263C16.1263 13.1747 15.9206 15.0867 16.4203 16.8137C16.9418 18.6177 18.228 20.2656 21.1389 21.4469L21.8661 20.326Z" fill="#008463"/>
  <path d="M11.1377 7.22982C11.0418 4.7243 10.6196 2.11274 8.98264 0.741323C6.70739 -1.16332 3.25463 0.883717 3.74341 3.6922C0.572406 3.36096 -1.5655 7.64085 1.62874 9.65758C3.14759 10.615 4.70279 10.9159 6.52663 10.9977C4.68159 11.1007 3.11224 11.4259 1.57824 12.3934C-1.61498 14.4091 0.521913 18.689 3.69393 18.3577C3.20414 21.1662 6.565 23.0971 8.93215 21.3086C10.3934 20.2038 10.9216 18.3002 11.0913 16.2945C11.2811 18.3002 11.8315 20.2038 13.2928 21.3086C15.6599 23.0971 19.0198 21.1672 18.531 18.3577C21.702 18.689 23.8399 14.4091 20.6457 12.3934C19.1248 11.434 17.5413 11.1058 15.6922 10.9997C17.5403 10.922 19.1107 10.6261 20.6457 9.65657C23.8399 7.64186 21.703 3.36096 18.531 3.6922C19.0198 0.884727 15.567 -1.16332 13.2928 0.741323C11.6558 2.11274 11.2326 4.7243 11.1377 7.22982Z" fill="#43BB65"/>
</svg>
