<svg width="18" height="18" viewBox="0 0 18 18" fill="none" xmlns="http://www.w3.org/2000/svg" aria-hidden="true">
<g id="Frame 17">
<path id="Vector" d="M7.91704 0.0881398C8.90328 -0.130154 10.3688 0.0864544 11.3246 0.416256C11.6418 0.525687 11.9343 0.683974 12.2433 0.800205C12.6945 0.969956 13.3399 1.14453 13.7413 1.40807C14.4763 1.73582 15.0452 2.45053 15.4607 3.12353C15.6656 3.45545 15.9457 3.74051 16.1781 4.05191C16.5677 4.6168 17.1047 5.49588 17.2422 6.17635C17.3111 6.47725 17.4713 6.61944 17.5621 6.89132C17.7065 7.32291 17.7677 7.80745 17.8543 8.25683C17.9701 8.93844 18.0387 9.5671 17.9766 10.2633C17.9455 10.6141 17.8088 10.9618 17.7161 11.299C17.3058 13.2386 16.198 14.9663 14.6293 16.1329C14.4838 16.2411 14.3309 16.3638 14.1758 16.4598C13.2012 16.9451 12.2589 17.5788 11.1361 17.5927C10.6884 17.5984 10.384 17.7569 9.96647 17.8571C9.11751 18.0605 8.23247 18.0466 7.39006 17.8165C6.8151 17.6609 6.45932 17.443 5.90381 17.3029L5.60794 17.2566C5.27843 17.2045 4.8624 17.0104 4.55992 16.8569C3.98329 16.5644 3.73427 16.3369 3.40926 15.7719C3.18251 15.7615 2.96488 15.7233 2.77122 15.5815C2.25308 15.2022 1.73405 14.6026 1.44891 14.0186C1.36752 13.8519 1.30329 13.546 1.22126 13.4092C1.00174 13.043 0.874395 12.8975 0.72284 12.4883C0.5594 12.047 0.529062 11.6775 0.408882 11.2611C0.308786 10.9143 0.195346 10.7398 0.110016 10.3309C-0.0523494 9.5528 -0.021397 9.01227 0.114336 8.22895C0.132443 8.12443 0.266755 7.87747 0.269539 7.82473C0.280253 7.6232 0.246767 7.41893 0.289489 7.2047C0.327546 7.01376 0.388106 6.82688 0.437204 6.64079C0.672763 5.74811 1.06934 4.9389 1.56433 4.16944C2.0026 3.48814 2.54194 2.89642 3.17066 2.39593C3.43005 2.18941 3.65943 1.96071 3.95511 1.78401C4.2308 1.61921 4.51759 1.49011 4.79808 1.33593C4.88932 1.29086 5.00633 1.16289 5.09103 1.12638C5.51948 0.941619 5.95877 0.646582 6.38782 0.488139C6.87013 0.310039 7.41627 0.196219 7.91704 0.0881398Z" fill="var(--fill-0, #F9C356)"/>
<path id="Vector_2" d="M5.32901 1.428C5.56167 1.26327 6.38636 0.853194 6.67103 0.77896L6.81913 0.770768C6.62341 0.841749 6.284 0.948672 6.13279 1.08264L6.13031 1.14531C6.10249 1.15685 6.08668 1.16328 6.05953 1.17684L6.09936 1.19881C5.9782 1.26948 5.46685 1.51391 5.40856 1.57808C5.41459 1.50431 5.38252 1.49424 5.33097 1.46375L5.32901 1.428Z" fill="var(--fill-0, #F4BD70)"/>
<path id="Vector_3" d="M5.60794 17.2566C5.55372 17.197 5.55197 17.2135 5.54078 17.1467C5.61983 17.0856 5.95879 17.1316 6.00902 17.2537C5.98532 17.2982 5.95602 17.304 5.90381 17.3029L5.60794 17.2566Z" fill="var(--fill-0, #631003)"/>
<path id="Vector_4" d="M1.22604 6.22003C1.47483 6.1756 1.83902 6.26648 2.02097 6.44683C1.76875 6.37981 1.50719 6.26146 1.24847 6.28304C1.13328 6.29264 1.05183 6.37489 0.965754 6.36429C0.949817 6.31461 0.95838 6.324 0.982631 6.26068C1.06979 6.29262 1.13565 6.25341 1.22604 6.22003Z" fill="var(--fill-0, #F4BD70)"/>
<path id="Vector_5" d="M5.43229 1.72627L5.45111 1.71287C5.47165 1.69809 5.47711 1.69366 5.49475 1.67438C5.56357 1.66527 5.55806 1.65486 5.61179 1.67906C5.6075 1.77089 5.54917 1.82631 5.49091 1.90319C5.29921 2.08159 5.13556 2.1736 4.90261 2.27899C4.80209 2.33571 4.62314 2.39832 4.5345 2.46709C3.9091 2.95239 3.2531 3.42282 2.76731 4.0622C2.63441 4.23713 2.52858 4.33245 2.33319 4.4274C2.49044 4.0817 3.12896 3.31623 3.41872 3.04722C3.80305 2.69043 4.44597 2.38274 4.88974 2.089C5.06426 1.97347 5.25326 1.83206 5.43229 1.72627Z" fill="var(--fill-0, #F7F6F2)"/>
<path id="Vector_6" d="M8.12713 0.476891C8.27909 0.443967 8.75653 0.387312 8.88692 0.43262C8.9078 0.452805 8.90194 0.440596 8.90536 0.468777C8.81306 0.595375 8.36456 0.581579 8.2169 0.606075C7.95607 0.649326 7.70039 0.712606 7.44321 0.773926C7.3185 0.802048 6.87549 0.927411 6.79317 0.916809C7.02153 0.780334 8.20874 0.634629 8.26924 0.502622C8.21319 0.466406 8.20044 0.478204 8.12713 0.476891Z" fill="var(--fill-0, #F4BD70)"/>
<path id="Vector_7" d="M5.19358 1.61236L5.2066 1.63909C5.05654 1.80829 4.8036 2.0561 4.54817 1.99728L4.56013 1.96389C4.70956 1.83841 5.01305 1.69235 5.19358 1.61236Z" fill="var(--fill-0, #FCE2B6)"/>
<path id="Vector_8" d="M5.33097 1.46375C5.38252 1.49424 5.41459 1.50431 5.40856 1.57808C5.51443 1.64061 5.67547 1.60334 5.7162 1.71259C5.67807 1.78926 5.56511 1.85261 5.49091 1.90319C5.54917 1.82631 5.6075 1.77089 5.61178 1.67906C5.55806 1.65486 5.56357 1.66526 5.49475 1.67438C5.47711 1.69366 5.47165 1.69809 5.45111 1.71287L5.43229 1.72627C5.40038 1.70924 5.25714 1.66015 5.2066 1.63908L5.19358 1.61235C5.2115 1.55852 5.28513 1.50467 5.33097 1.46375Z" fill="var(--fill-0, #FCE2B6)"/>
<path id="Vector_9" d="M9.78944 1.30573C10.2491 1.29157 10.4249 1.3786 10.7844 1.67904C11.2519 2.06971 11.4335 2.73743 11.0039 3.23363C10.7754 3.49763 10.4469 3.54417 10.1143 3.56279C9.51586 3.5534 8.79705 3.22146 8.6482 2.56331C8.51266 1.96399 9.26932 1.39798 9.78944 1.30573Z" fill="var(--fill-0, #A3541D)"/>
<path id="Vector_10" d="M7.34472 6.75145C7.80439 6.73728 7.98018 6.82431 8.33972 7.12476C8.80721 7.51543 8.98874 8.18315 8.55919 8.67935C8.33064 8.94334 8.00215 8.98989 7.66956 9.0085C7.07114 8.99912 6.35232 8.66718 6.20348 8.00903C6.06794 7.4097 6.8246 6.8437 7.34472 6.75145Z" fill="var(--fill-0, #5D3300)"/>
<path id="Vector_11" d="M2.15722 7.00145C2.61689 6.98728 2.79268 7.07431 3.15222 7.37476C3.61971 7.76543 3.80124 8.43315 3.37169 8.92935C3.14314 9.19334 2.81465 9.23989 2.48206 9.2585C1.88364 9.24912 1.16482 8.91718 1.01598 8.25903C0.880436 7.6597 1.6371 7.0937 2.15722 7.00145Z" fill="var(--fill-0, #A3541D)"/>
<path id="Vector_12" d="M16.0557 9.00667C16.7357 8.94425 17.1124 9.32387 17.2464 9.99052C17.2965 10.2399 17.145 10.5834 17.0024 10.7807C16.8006 11.06 16.5644 11.1677 16.2345 11.2162C15.9656 11.1862 15.7237 11.1654 15.4891 11.0046C15.2581 10.8421 15.0513 10.494 15.0112 10.2095C14.9134 9.51566 15.4729 9.10934 16.0557 9.00667Z" fill="var(--fill-0, #5D3300)"/>
<path id="Vector_13" d="M4.89667 13.1908C4.64107 13.5035 4.17813 13.6064 3.79086 13.524C3.43562 13.4351 3.17124 13.1001 3.06755 12.7551C3.05674 12.7191 3.10743 12.597 3.11607 12.5565C3.1395 12.4465 3.15634 12.3358 3.18059 12.2261C3.29912 11.6895 3.90148 11.447 4.38702 11.5842C4.69418 11.6711 4.84395 11.8236 4.99469 12.0988C5.28678 12.3864 5.21533 12.9504 4.89667 13.1908Z" fill="var(--fill-0, #3D2000)"/>
<path id="Vector_14" d="M4.9947 12.0988C5.28679 12.3864 5.21534 12.9504 4.89667 13.1908C4.92469 13.1384 4.95219 13.0856 4.97911 13.0325C5.15386 12.6876 5.10464 12.4527 4.9947 12.0988Z" fill="var(--fill-0, #F4BD70)"/>
<path id="Vector_15" d="M5.33448 3.2265C5.56034 3.19739 5.85928 3.2167 6.05285 3.35033C6.24271 3.48214 6.37276 3.68625 6.41379 3.91685C6.53077 4.61192 6.09509 5.01437 5.46482 5.12523C4.99928 5.19012 4.4932 5.14197 4.38847 4.57259C4.26501 3.90142 4.68089 3.33934 5.33448 3.2265Z" fill="var(--fill-0, #5D3300)"/>
<path id="Vector_16" d="M7.00894 14.6738C7.15399 14.2735 7.47497 14.0704 7.88062 14.0137C8.14709 13.9765 8.2862 14.0106 8.49058 14.1703C8.74841 14.3859 8.71907 14.5886 8.71702 14.9146C8.72762 15.3515 8.28371 15.755 7.86487 15.5859C7.73906 15.5352 7.62201 15.3852 7.50953 15.3104C7.31896 15.1838 7.16745 15.1453 7.00884 14.9681C7.00301 14.8746 6.99222 14.7649 7.00894 14.6738Z" fill="var(--fill-0, #984819)"/>
<path id="Vector_17" d="M11.0089 12.6738C11.154 12.2735 11.475 12.0704 11.8806 12.0137C12.1471 11.9765 12.2862 12.0106 12.4906 12.1703C12.7484 12.3859 12.7191 12.5886 12.717 12.9146C12.7276 13.3515 12.2837 13.755 11.8649 13.5859C11.7391 13.5352 11.622 13.3852 11.5095 13.3104C11.319 13.1838 11.1674 13.1453 11.0088 12.9681C11.003 12.8746 10.9922 12.7649 11.0089 12.6738Z" fill="var(--fill-0, #5D3300)"/>
<path id="Vector_18" d="M12.7454 3.40213C12.8215 3.39284 12.9263 3.39762 13.0054 3.39905C13.3363 3.62616 13.6258 4.03643 13.6371 4.44852C13.6481 4.84868 13.2976 5.13047 12.9285 5.1212C12.49 5.0035 11.7185 4.47994 12.0574 3.94074C12.1999 3.71415 12.4828 3.46227 12.7454 3.40213Z" fill="var(--fill-0, #3D2000)"/>
<path id="Vector_19" d="M11.4592 8.44308C11.5353 8.43379 11.64 8.43858 11.7192 8.44001C12.0501 8.66712 12.3396 9.07739 12.3508 9.48948C12.3618 9.88963 12.0113 10.1714 11.6422 10.1622C11.2038 10.0445 10.4322 9.52089 10.7712 8.98169C10.9136 8.75511 11.1966 8.50323 11.4592 8.44308Z" fill="var(--fill-0, #5D3300)"/>
<path id="Vector_20" d="M1.31316 5.46219C1.4695 5.1009 2.2862 3.64235 2.59657 3.53894L2.62587 3.56085C2.64455 3.78626 2.21379 4.16435 2.1574 4.35969C2.09198 4.58633 2.04183 4.81709 1.97341 5.04575C1.9344 5.12514 1.92051 5.17176 1.8463 5.20592L1.80923 5.18501C1.76506 5.11695 1.7617 5.0367 1.75028 4.9548L1.72386 4.96767L1.72071 4.98374C1.57764 5.12093 1.47111 5.44659 1.35218 5.48545L1.31316 5.46219Z" fill="var(--fill-0, #FCE2B6)"/>
<path id="Vector_21" d="M15.7455 5.80014C16.0066 5.79893 16.2288 6.24057 16.3409 6.45498C16.4951 6.74935 16.6063 7.2084 16.5099 7.53987C16.4974 7.58263 16.4381 7.7008 16.3993 7.72085L16.4112 7.65794C16.617 7.42015 16.5012 6.98131 16.4221 6.70736C16.3981 6.62403 16.2407 6.27169 16.169 6.23636C16.1308 6.26062 16.1274 6.26479 16.083 6.2791C15.9826 6.21996 15.8052 6.02065 15.7324 5.91479C15.7109 5.88361 15.7338 5.83891 15.7455 5.80014Z" fill="var(--fill-0, #FCE2B6)"/>
<path id="Vector_22" d="M9.49823 16.0456C9.56922 16.0618 9.5957 16.0604 9.64299 16.1156C9.66937 16.182 9.66304 16.1948 9.65461 16.2691C9.52569 16.2437 9.48595 16.1762 9.49823 16.0456Z" fill="var(--fill-0, #F4BD70)"/>
</g>
</svg>
