<svg preserveAspectRatio="none" width="100%" height="100%" overflow="visible" style="display: block;" viewBox="0 0 226 206" fill="none" xmlns="http://www.w3.org/2000/svg">
<g id="Vector">
<path d="M109.673 39.7122C110.477 33.0655 110.785 25.5274 111.404 18.802C111.675 15.8587 111.662 12.7463 112.035 9.81241C112.151 8.88898 112.264 8.36304 113.082 7.8626C116.855 5.5601 126.701 6.98958 130.825 7.81354C138.085 8.87932 145.792 11.2575 152.522 14.1665C156.225 15.9487 159.492 17.0726 161.077 21.018C159.935 24.7983 158.277 28.6262 156.8 32.3058L151.922 44.6962C151.359 46.2908 150.784 47.8586 150.331 49.4885C153.836 50.4278 156.496 51.2987 159.674 53.2056C163.702 55.6225 167.706 60.1602 162.519 64.1362C163.901 65.944 166.061 67.9396 167.358 69.794C170.664 74.5215 173.356 79.0185 175.518 84.3655C176.474 86.4113 177.618 88.3818 178.419 90.4962C181.599 98.8805 183.45 107.754 182.939 116.749C182.819 118.887 181.905 121.858 181.516 124.069C180.947 127.318 180.452 130.612 179.097 133.639C181.296 138.942 183.796 144.308 187.1 149.049C187.925 150.191 189.189 151.241 190.334 152.076C194.964 155.438 198.013 160.337 195.235 165.98C193.799 168.899 190.787 171.141 187.45 171.344C185.424 171.468 183.831 170.863 182.043 169.922C175.088 173.422 173.764 166.679 173.602 161.625C171.399 158.981 170.397 157.712 168.715 154.745C165.674 157.777 163.272 160.686 160.483 163.887C158.131 166.585 153.769 168.53 150.697 170.26C148.655 171.412 146.602 172.698 144.436 173.671C145.719 179.512 146.4 185.067 145.839 191.068C148.547 192.959 150.027 194.355 150.84 197.666C151.824 201.681 149.464 204.61 145.417 205.025C139.992 205.579 131.282 205.987 126.536 203.122C124.07 201.633 124.93 192.752 124.703 189.963C124.556 186.346 124.215 183.17 123.648 179.557C117.842 181.322 112.529 181.55 106.598 180.352C106.229 183.253 106.093 186.18 106.192 189.102C106.327 192.3 107.518 201.27 104.941 203.578C103.367 204.986 98.7458 205.62 96.4298 205.71C91.5273 205.904 78.6442 207.665 79.6607 199.466C80.121 196.061 82.2731 193.948 84.9747 192.042C83.9777 187.46 84.5082 179.912 85.5083 175.327C80.3749 172.934 78.5387 172.316 75.1663 167.697C68.1323 166.121 63.0049 160.989 59.3698 154.975C58.787 154.009 57.3973 150.513 56.8906 149.938C52.8253 145.325 51.1031 139.835 49.7259 133.935C48.8432 133.006 46.5987 131.516 45.4785 130.684C43.7739 129.41 42.1349 128.051 40.5681 126.611C38.1094 124.355 35.7539 121.604 33.5915 119.054C31.8832 116.975 30.6317 114.627 28.3085 113.128C23.9416 110.311 20.6203 105.63 20.8762 100.268C21.0254 97.1939 22.4052 94.3085 24.7058 92.259C29.4373 87.97 35.5355 88.59 39.7089 93.2595C47.016 90.6859 46.3038 97.6424 46.0452 102.083C48.6626 92.1067 49.3232 86.2429 54.9522 76.9423C59.2384 69.8942 64.803 63.7047 71.3613 58.6906C72.7723 57.6123 74.9619 56.3979 76.1751 55.3445C81.4106 50.7983 85.5244 49.3101 92.1817 47.6737C87.1521 39.3839 98.95 38.1613 104.187 39.1187C105.841 39.4212 107.974 39.5457 109.673 39.7122Z" fill="#60210B"/>
<path d="M109.673 39.7122C110.477 33.0655 110.785 25.5274 111.404 18.802C111.675 15.8587 111.662 12.7463 112.035 9.81241C112.151 8.88898 112.264 8.36304 113.082 7.8626C116.855 5.5601 126.701 6.98958 130.825 7.81354C138.085 8.87932 145.792 11.2575 152.522 14.1665C156.225 15.9487 159.492 17.0726 161.077 21.018C159.935 24.7983 158.277 28.6262 156.8 32.3058L151.922 44.6962C151.359 46.2908 150.784 47.8586 150.331 49.4885C153.836 50.4278 156.496 51.2987 159.674 53.2056C163.702 55.6225 167.706 60.1602 162.519 64.1362C161.72 64.5603 160.93 65.0001 160.148 65.4552C164.153 70.0702 167.997 73.2098 168.124 79.3905C171.38 80.3856 172.671 83.8732 173.871 86.8004C175.474 90.711 176.892 94.7443 178.063 98.8042C165.359 108.052 150.887 114.895 137.119 122.462C131.189 125.715 125.34 129.113 119.578 132.655C117.495 133.944 115.281 135.609 113.301 136.789C109.799 134.275 106.097 132.062 102.384 129.874C91.1017 123.225 79.4691 117.197 67.9867 110.906L63.3947 108.281C62.2508 107.485 59.7608 106.185 58.4162 105.378C55.4806 103.58 52.6635 101.595 49.9822 99.4369C50.4163 97.9325 50.4879 96.4552 50.8876 94.9911C52.9683 82.6991 61.789 69.4487 71.6574 62.0469C77.7552 57.4732 82.4693 53.5336 89.7343 50.9854C91.1265 50.6492 92.5245 50.3386 93.9281 50.0535C93.4092 49.2315 92.7758 48.4477 92.1817 47.6737C87.1521 39.3839 98.95 38.1613 104.187 39.1187C105.841 39.4212 107.974 39.5457 109.673 39.7122Z" fill="#F9C65B"/>
<path d="M109.673 39.7122C110.477 33.0655 110.785 25.5274 111.404 18.802C111.675 15.8587 111.662 12.7463 112.035 9.81241C112.151 8.88898 112.264 8.36304 113.082 7.8626C116.855 5.5601 126.701 6.98958 130.825 7.81354C138.085 8.87932 145.792 11.2575 152.522 14.1665C156.225 15.9487 159.492 17.0726 161.077 21.018C159.935 24.7983 158.277 28.6262 156.8 32.3058L151.922 44.6962C151.359 46.2908 150.784 47.8586 150.331 49.4885C153.836 50.4278 156.496 51.2987 159.674 53.2056C163.702 55.6225 167.706 60.1602 162.519 64.1362C161.72 64.5603 160.93 65.0001 160.148 65.4552C155.265 67.9126 150.44 68.3354 145.08 68.2589C141.904 68.1046 138.691 67.7158 135.523 67.3845C132.207 66.8767 128.752 66.1445 125.454 65.4799C119.11 63.8702 112.92 61.7079 106.953 59.0178C101.446 56.3106 98.266 54.3539 93.9281 50.0535C93.4092 49.2315 92.7758 48.4477 92.1817 47.6737C87.1521 39.3839 98.95 38.1613 104.187 39.1187C105.841 39.4212 107.974 39.5457 109.673 39.7122Z" fill="#816CD3"/>
<path d="M124.241 8.40225C126.53 8.09882 130.146 8.67092 132.557 8.94905L132.873 8.6827C132.385 8.33504 130.306 8.02465 129.585 7.88868L130.825 7.81354C138.085 8.87932 145.792 11.2575 152.522 14.1665C156.225 15.9487 159.492 17.0726 161.077 21.018C159.935 24.7983 158.277 28.6262 156.8 32.3058L151.922 44.6962L150.389 44.5898L150.322 44.6746C149.774 44.2761 149.416 44.5015 148.562 44.633C146.178 45.0004 143.714 45.4914 141.294 45.1462L139.063 44.9378C129.401 43.9501 119.057 40.4346 111.218 34.6406C111.184 35.4259 111.106 36.049 111.007 36.8206C110.858 35.0084 111.354 34.3692 111.6 32.4814C111.989 29.2881 112.351 26.0914 112.686 22.8917C113.049 19.1885 113.115 13.0567 113.708 9.82091C114.455 8.76382 115.029 8.59386 116.297 8.47778C118.86 8.24349 121.674 8.36942 124.241 8.40225Z" fill="#6C52C7"/>
<path d="M124.241 8.40225C126.53 8.09882 130.146 8.67092 132.557 8.94905L132.873 8.6827C132.385 8.33504 130.306 8.02465 129.585 7.88868L130.825 7.81354C138.085 8.87932 145.792 11.2575 152.522 14.1665C152.52 15.5742 153.018 15.5382 154.206 16.284L154.179 16.5752C155.996 17.8257 158.894 19.4653 159.624 21.5501C157.963 21.958 156.058 22.4876 154.365 22.5033C153.606 22.5993 152.954 22.5753 152.404 23.0512L152.122 23.6469L151.974 23.6459C149.491 23.1687 146.383 23.7611 143.375 22.6192C140.83 22.0071 129.457 20.5415 128.524 18.5523L128.828 17.7961C124.188 15.7542 119.729 14.3147 115.515 11.2446C114.704 10.6538 114.133 10.7718 113.708 9.82091C114.455 8.76382 115.029 8.59386 116.297 8.47778C118.86 8.24349 121.674 8.36942 124.241 8.40225Z" fill="#816CD3"/>
<path d="M124.241 8.40225C126.53 8.09882 130.146 8.67092 132.557 8.94905L132.873 8.6827C132.385 8.33504 130.306 8.02465 129.585 7.88868L130.825 7.81354C138.085 8.87932 145.792 11.2575 152.522 14.1665C152.52 15.5742 153.018 15.5382 154.206 16.284L154.179 16.5752C153.813 16.4711 152.59 15.7555 152.189 15.5373C144.997 11.6299 136.277 9.83714 128.216 8.83143C126.892 8.66629 125.574 8.61047 124.241 8.40225Z" fill="#7465BC"/>
<path d="M128.828 17.7961C131.938 19.0182 140.356 21.3181 143.704 21.5982L143.872 22.0148C143.654 22.5265 143.824 22.3389 143.375 22.6192C140.83 22.0071 129.457 20.5415 128.524 18.5523L128.828 17.7961Z" fill="#433189"/>
<path d="M143.704 21.5982C147.043 21.9737 151.061 22.5131 154.365 22.5033C153.606 22.5993 152.954 22.5753 152.404 23.0512L152.122 23.6469L151.974 23.6459C149.491 23.1687 146.383 23.7611 143.375 22.6192C143.824 22.3389 143.654 22.5265 143.872 22.0148L143.704 21.5982Z" fill="#604AB2"/>
<path d="M152.522 14.1665C156.225 15.9487 159.492 17.0726 161.077 21.018C159.935 24.7983 158.277 28.6262 156.8 32.3058L151.922 44.6962L150.389 44.5898L150.322 44.6746C149.774 44.2761 149.416 44.5015 148.562 44.633C146.178 45.0004 143.714 45.4914 141.294 45.1462C145.014 38.0309 148.326 30.7983 151.974 23.6459L152.122 23.6469L152.404 23.0512C152.954 22.5753 153.606 22.5993 154.365 22.5033C156.058 22.4876 157.963 21.958 159.624 21.5501C158.894 19.4653 155.996 17.8257 154.179 16.5752L154.206 16.284C153.018 15.5382 152.52 15.5742 152.522 14.1665Z" fill="#5841B1"/>
<path d="M152.522 14.1665C156.225 15.9487 159.492 17.0726 161.077 21.018C159.935 24.7983 158.277 28.6262 156.8 32.3058L151.922 44.6962L150.389 44.5898C150.443 43.0405 157.224 26.1441 158.317 23.8306C158.644 23.5627 159.378 22.0272 159.624 21.5501C158.894 19.4653 155.996 17.8257 154.179 16.5752L154.206 16.284C153.018 15.5382 152.52 15.5742 152.522 14.1665Z" fill="#433189"/>
<path d="M159.624 21.5501C159.378 22.0272 158.644 23.5627 158.317 23.8306C157.574 23.543 153.98 23.9793 152.122 23.6469L152.404 23.0512C152.954 22.5753 153.606 22.5993 154.365 22.5033C156.058 22.4876 157.963 21.958 159.624 21.5501Z" fill="#433189"/>
<path d="M109.673 39.7122C110.477 33.0655 110.785 25.5274 111.404 18.802C111.675 15.8587 111.662 12.7463 112.035 9.81241C112.151 8.88898 112.264 8.36304 113.082 7.8626C116.855 5.5601 126.701 6.98958 130.825 7.81354L129.585 7.88868C130.306 8.02465 132.385 8.33504 132.873 8.6827L132.557 8.94905C130.146 8.67092 126.53 8.09882 124.241 8.40225C121.674 8.36942 118.86 8.24349 116.297 8.47778C115.029 8.59386 114.455 8.76382 113.708 9.82091C113.115 13.0567 113.049 19.1885 112.686 22.8917C112.351 26.0914 111.989 29.2881 111.6 32.4814C111.354 34.3692 110.858 35.0084 111.007 36.8206C110.926 38.4705 110.783 39.855 110.597 41.488C105.703 41.1373 96.7348 38.704 93.3998 43.1501C90.709 48.9603 105.493 56.9279 109.891 58.6458C113.075 59.8895 117.331 61.5312 120.611 62.4305C123.319 62.2151 125.084 62.8917 126.917 62.816L125.508 62.4956C128.797 62.7859 137.495 64.6994 140.452 64.5256L140.574 64.3909C147.832 64.6086 151.86 64.4068 158.824 62.5707C160.636 62.0701 161.422 61.688 162.951 60.5338C163.502 55.8218 151.874 50.3243 148.607 50.5574C148.808 49.9923 148.793 49.9214 148.81 49.3029L148.814 49.132C149.29 47.6376 149.793 46.1515 150.322 44.6746L150.389 44.5898L151.922 44.6962C151.359 46.2908 150.784 47.8586 150.331 49.4885C153.836 50.4278 156.496 51.2987 159.674 53.2056C163.702 55.6225 167.706 60.1602 162.519 64.1362C161.72 64.5603 160.93 65.0001 160.148 65.4552C155.265 67.9126 150.44 68.3354 145.08 68.2589C141.904 68.1046 138.691 67.7158 135.523 67.3845C132.207 66.8767 128.752 66.1445 125.454 65.4799C119.11 63.8702 112.92 61.7079 106.953 59.0178C101.446 56.3106 98.266 54.3539 93.9281 50.0535C93.4092 49.2315 92.7758 48.4477 92.1817 47.6737C87.1521 39.3839 98.95 38.1613 104.187 39.1187C105.841 39.4212 107.974 39.5457 109.673 39.7122Z" fill="#433189"/>
<path d="M158.824 62.5707C160.636 62.0701 161.422 61.688 162.951 60.5338C161.927 62.5359 160.504 64.1912 158.282 64.8539C147.862 67.9599 136.399 66.2907 126.021 63.848C124.906 63.5853 121.488 62.8007 120.611 62.4305C123.319 62.2151 125.084 62.8917 126.917 62.816L125.508 62.4956C128.797 62.7859 137.495 64.6994 140.452 64.5256L140.574 64.3909C147.832 64.6086 151.86 64.4068 158.824 62.5707Z" fill="#5841B1"/>
<path d="M111.007 36.8206C111.106 36.049 111.184 35.4259 111.218 34.6406C119.057 40.4346 129.401 43.9501 139.063 44.9378C139.266 45.9119 136.057 53.4364 135.399 54.2675C127.744 53.5042 120.35 51.0687 113.744 47.1335C113.22 46.5347 111.557 45.5841 110.408 44.2842C110.454 43.3511 110.518 42.4188 110.597 41.488C110.783 39.855 110.926 38.4705 111.007 36.8206Z" fill="#F6F5F5"/>
<path d="M141.294 45.1462C143.714 45.4914 146.178 45.0004 148.562 44.633C149.416 44.5015 149.774 44.2761 150.322 44.6746C149.793 46.1515 149.29 47.6376 148.814 49.132C146.547 54.7898 148.492 53.4695 142.845 54.5372C140.145 54.5569 138.085 54.5847 135.399 54.2675C136.057 53.4364 139.266 45.9119 139.063 44.9378L141.294 45.1462Z" fill="#DED6E3"/>
<path d="M148.814 49.132L148.81 49.3029C148.793 49.9214 148.808 49.9923 148.607 50.5574C151.874 50.3243 163.502 55.8218 162.951 60.5338C161.422 61.688 160.636 62.0701 158.824 62.5707C157.661 59.0076 151.311 58.3899 148.498 54.9136C147.263 55.2053 145.903 55.5792 144.649 55.6447L144.534 55.383C143.454 55.5761 142.132 56.1125 141.517 55.0614C142.214 54.7392 143.495 54.7415 144.325 54.6909L142.845 54.5372C148.492 53.4695 146.547 54.7898 148.814 49.132Z" fill="#6C52C7"/>
<path d="M93.3998 43.1501C93.8587 44.2069 94.3178 43.7307 95.0177 45.0427C99.5427 53.5243 111.602 57.6403 120.211 60.6512C124.233 62.0583 129.174 62.5897 133.328 63.4045C135.197 63.7118 139.169 64.0093 140.574 64.3909L140.452 64.5256C137.495 64.6994 128.797 62.7859 125.508 62.4956L126.917 62.816C125.084 62.8917 123.319 62.2151 120.611 62.4305C117.331 61.5312 113.075 59.8895 109.891 58.6458C105.493 56.9279 90.709 48.9603 93.3998 43.1501Z" fill="#604AB2"/>
<path d="M113.744 47.1335C120.35 51.0687 127.744 53.5042 135.399 54.2675C138.085 54.5847 140.145 54.5569 142.845 54.5372L144.325 54.6909C143.495 54.7415 142.214 54.7392 141.517 55.0614C142.132 56.1125 143.454 55.5761 144.534 55.383L144.649 55.6447C135.076 57.305 123.861 54.2981 115.347 49.7402C114.548 49.3128 113.797 48.8556 113.557 47.9851C113.897 48.2485 114.118 48.4954 114.532 48.512L114.551 48.0467C114.257 47.7568 114.037 47.6683 113.678 47.4783L113.744 47.1335Z" fill="#433189"/>
<path d="M50.8876 94.9911C51.5954 95.3324 51.8449 94.9905 52.8454 94.7207C58.2877 93.2526 61.1042 95.8603 64.2448 99.7678C64.99 103.157 64.2895 104.916 63.3947 108.281C62.2508 107.485 59.7608 106.185 58.4162 105.378C55.4806 103.58 52.6635 101.595 49.9822 99.4369C50.4163 97.9325 50.4879 96.4552 50.8876 94.9911Z" fill="#9A5424"/>
<path d="M106.953 59.0178C112.92 61.7079 119.11 63.8702 125.454 65.4799C123.377 67.5916 122.253 68.0433 119.276 68.6523C118.583 68.6898 117.679 68.6967 116.99 68.632C113.64 68.288 110.557 66.6527 108.396 64.0738C107.326 62.1359 107.232 61.2146 106.953 59.0178Z" fill="#9A5424"/>
<path d="M135.523 67.3845C138.691 67.7158 141.904 68.1046 145.08 68.2589C145.432 69.1723 145.775 70.1102 146.183 70.9981C144.583 71.8808 143.383 72.7097 141.693 73.4675C139.934 74.2568 137.303 74.6941 135.85 75.7296C133.599 74.1041 133.583 73.3991 133.672 70.7825C133.98 69.0446 134.359 68.7188 135.523 67.3845Z" fill="#9C5021"/>
<path d="M89.7343 50.9854C91.1265 50.6492 92.5245 50.3386 93.9281 50.0535C98.266 54.3539 101.446 56.3106 106.953 59.0178C107.232 61.2146 107.326 62.1359 108.396 64.0738C104.275 62.8892 98.3934 58.2757 95.4075 55.1694C94.4142 54.136 93.7497 53.0523 92.6668 52.0392C91.3584 50.8153 91.5904 50.9476 89.7343 50.9854Z" fill="#F3BD5D"/>
<path d="M125.454 65.4799C128.752 66.1445 132.207 66.8767 135.523 67.3845C134.359 68.7188 133.98 69.0446 133.672 70.7825C130.31 70.8086 126.964 70.6365 123.724 69.6708C122.524 69.3131 120.462 68.4966 119.276 68.6523C122.253 68.0433 123.377 67.5916 125.454 65.4799Z" fill="#F3BD5D"/>
<path d="M146.183 70.9981C146.435 71.8479 146.714 72.664 146.511 73.5312C144.978 80.0526 139.572 78.508 135.85 75.7296C137.303 74.6941 139.934 74.2568 141.693 73.4675C143.383 72.7097 144.583 71.8808 146.183 70.9981Z" fill="#B46C33"/>
<path d="M64.2448 99.7678C68.3152 103.391 70.1299 105.259 67.9867 110.906L63.3947 108.281C64.2895 104.916 64.99 103.157 64.2448 99.7678Z" fill="#B8763B"/>
<path d="M102.878 103.968C107.838 104.905 112.237 104.503 117.232 104.336C119.475 104.261 122.762 103.502 122.818 106.597C122.893 110.803 122.079 113.687 119.048 116.742C116.922 118.498 114.215 119.395 111.458 119.255C108.721 119.119 106.152 117.89 104.332 115.844C102.162 113.433 101.29 110.006 101.361 106.794C101.396 105.239 101.815 104.898 102.878 103.968Z" fill="#60210B"/>
<path d="M115.771 108.52C117.331 108.582 118.24 108.693 119.785 108.94C118.831 114.045 115.891 117.067 110.471 116.104C108.218 115.624 107.193 114.921 105.86 113.12C105.923 113.038 105.987 112.958 106.054 112.88C108.348 110.177 112.306 108.761 115.771 108.52Z" fill="#EC513E"/>
<path d="M83.7253 68.5094C85.5559 68.4229 86.9375 68.4005 88.5768 69.344C91.9363 71.2776 93.0151 75.8799 91.0523 79.1755C89.3779 81.987 87.1926 82.7029 84.2101 83.4649C83.7737 83.5806 83.332 83.6752 82.8864 83.749C73.6767 85.2886 73.6765 70.0598 83.7253 68.5094Z" fill="#8D441C"/>
<path d="M88.3134 94.565C92.1937 94.29 95.192 95.0956 97.1912 98.7294C98.0578 99.6229 98.1412 102.829 96.5169 103.03C93.8356 103.361 94.2512 99.7892 91.3351 98.4509C85.6242 97.362 87.2793 101.473 84.1745 103.338C82.4757 104.359 81.164 100.867 82.5716 98.833C84.2835 96.359 85.3887 95.3728 88.3134 94.565Z" fill="#60210B"/>
<path d="M132.046 94.5614C136.067 94.1552 139.359 95.147 141.414 98.9344C143.166 102.165 140.361 105.291 138.325 101.846C137.321 100.144 137.75 99.6902 135.84 98.5572C134.054 98.1021 132.666 97.9874 131.218 99.2805C129.836 100.515 128.431 105.026 126.133 101.969C125.228 98.4061 128.94 95.4626 132.046 94.5614Z" fill="#60210B"/>
<path d="M81.302 55.5806C81.9224 55.1665 82.2253 54.8024 82.8663 54.7898C83.9744 56.1926 83.3372 56.0263 85.116 56.8885C80.9531 61.1596 77.5315 61.7506 73.283 65.6684C71.5486 67.268 69.7939 69.3957 68.3084 70.9272C67.0544 72.2199 62.178 78.5078 61.4644 78.8912L61.1605 78.7707C61.4487 77.1388 66.3448 70.1086 67.6315 68.5733C70.0811 65.6504 74.6948 63.1113 77.7146 60.7001C78.0515 59.8533 79.2322 59.3293 80.1167 58.579L80.127 57.376C79.4459 57.2687 79.5996 57.7085 78.7853 57.7535C78.7727 57.7732 81.1029 55.7596 81.302 55.5806Z" fill="#FAEBC9"/>
<path d="M81.302 55.5806C80.9469 57.0406 81.8635 56.4022 81.7214 57.796C81.1238 58.8135 78.7537 60.2501 77.7146 60.7001C78.0515 59.8533 79.2322 59.3293 80.1167 58.579L80.127 57.376C79.4459 57.2687 79.5996 57.7085 78.7853 57.7535C78.7727 57.7732 81.1029 55.7596 81.302 55.5806Z" fill="#F3BD5D"/>
<path d="M163.994 80.7676C164.108 80.7954 164.234 80.8155 164.319 80.8962C167.48 83.8842 170.066 88.5572 170.31 92.7579C169.998 91.8019 169.913 91.4245 169.75 90.4375C169.669 90.4079 168.893 90.1097 168.893 90.1087C167.505 88.4653 166.665 86.1295 165.302 84.4084C164.46 83.3442 163.913 82.8219 163.059 81.9825C162.515 82.3168 162.374 82.447 161.764 82.5784C162.622 81.9412 163.2 81.4784 163.994 80.7676Z" fill="#F3BD5D"/>
<path d="M44.2999 106.073C46.4036 109.286 51.2147 116.32 54.6079 118.96C54.8078 119.116 55.7386 118.78 56.0674 118.65C62.3422 126.002 84.3044 134.387 93.8323 138.615L96.0353 139.404C97.8744 140.069 99.714 140.717 101.525 141.456C98.6107 144.113 96.2113 146.704 94.8121 150.519C94.5862 151.398 93.662 155.603 93.3649 156.02C93.4919 162.882 94.3913 167.046 98.9785 172.518C96.8331 173.239 93.4187 173.809 91.1669 173.718C90.294 173.681 89.5218 173.326 88.6792 173.492C86.1389 172.939 79.7457 169.671 78.0763 167.587C77.6563 167.064 76.5742 164.818 76.0771 164.644C74.3201 164.06 73.2942 164.827 71.5521 163.763C65.9281 160.333 62.0542 155.78 60.1891 149.52C56.7371 146.384 53.6271 140.558 52.916 135.753C52.7865 134.878 53.8807 134.739 54.0204 134.006C53.0302 132.412 47.0507 128.745 45.0027 126.897C40.5841 122.909 36.7646 119.115 33.2582 114.25C33.9833 113.895 35.4182 113.433 36.3148 113.016C40.0683 111.273 41.9489 109.304 44.2999 106.073Z" fill="#F9C65B"/>
<path d="M94.8121 150.519C94.7842 150.473 94.7563 150.424 94.7285 150.378C94.5641 147.738 93.0697 140.719 96.0353 139.404C97.8744 140.069 99.714 140.717 101.525 141.456C98.6107 144.113 96.2113 146.704 94.8121 150.519Z" fill="#876FC7"/>
<path d="M93.8323 138.615L96.0353 139.404C93.0697 140.719 94.5641 147.738 94.7285 150.378C94.7563 150.424 94.7842 150.473 94.8121 150.519C94.5862 151.398 93.662 155.603 93.3649 156.02C92.6284 152.184 92.0077 144.726 92.7446 140.768C92.8702 140.093 93.451 139.207 93.8323 138.615Z" fill="#433189"/>
<path d="M77.144 134.451C81.4033 133.639 85.5174 136.42 86.3409 140.669C87.1645 144.918 84.3867 149.03 80.1313 149.862C75.8617 150.697 71.7244 147.913 70.8981 143.65C70.0718 139.388 72.8706 135.265 77.144 134.451Z" fill="#B46C33"/>
<path d="M157.46 127.534C165.448 123.227 173.37 118.817 180.138 112.664C180.154 116.836 179.664 120.046 178.632 124.102C178.197 125.816 178.112 127.85 177.651 129.589C177.262 131.053 176.319 130.748 175.855 131.935C175.94 132.706 175.969 132.826 176.273 133.539C178.462 138.757 180.916 144.96 184.288 149.574L184.023 149.657C183.196 149.911 182.252 149.968 181.387 150.249C177.947 151.363 176.499 153.547 174.241 155.63L173.335 157.223C170.906 153.667 169.082 150.787 167.393 146.757C166.624 146.304 166.785 146.25 166.003 146.223C165.444 146.559 165.362 146.871 165.041 147.475C165.591 149.638 165.951 150.457 167.071 152.394C165.771 153.831 163.843 155.508 162.775 156.902C159.074 161.739 156.116 164.858 150.306 167.043C148.777 167.616 146.129 170.141 144.291 170.878C141.954 171.815 139.76 172.153 137.321 172.744C133.738 173.963 130.951 174.948 127.148 175.439C131.762 171.587 134.387 168.551 135.656 162.533C137.172 155.355 135.335 150.106 131.148 144.381L129.319 142.438L127.07 140.679L129.443 139.852L130.651 139.458C134.849 137.763 139.039 136.046 143.22 134.306C146.996 132.232 151.309 130.864 155.085 128.748C155.846 128.321 156.651 127.839 157.46 127.534Z" fill="#F5B94E"/>
<path d="M143.22 134.306C146.996 132.232 151.309 130.864 155.085 128.748C155.846 128.321 156.651 127.839 157.46 127.534C162.995 133.888 159.837 143.252 150.887 142.907C146.071 142.722 143.528 139.02 143.22 134.306Z" fill="#8D441C"/>
<path d="M174.241 155.63L174.055 155.375L174.374 154.948C172.882 153.101 170.902 149.686 170.046 147.519C168.55 143.719 172.423 134.778 176.273 133.539C178.462 138.757 180.916 144.96 184.288 149.574L184.023 149.657C183.196 149.911 182.252 149.968 181.387 150.249C177.947 151.363 176.499 153.547 174.241 155.63Z" fill="#F9C65B"/>
<path d="M129.443 139.852L130.651 139.458C130.864 141.094 131.03 142.736 131.148 144.381L129.319 142.438L127.07 140.679L129.443 139.852Z" fill="#433189"/>
<path d="M127.07 140.679L129.443 139.852C129.151 140.942 129.228 141.318 129.319 142.438L127.07 140.679Z" fill="#604AB2"/>
<path d="M165.041 147.475C164.778 146.355 164.611 145.834 165.5 145.007C166.758 144.826 167.033 145.735 167.393 146.757C166.624 146.304 166.785 146.25 166.003 146.223C165.444 146.559 165.362 146.871 165.041 147.475Z" fill="#B46C33"/>
<path d="M105.521 141.006C113.245 136.838 122.808 138.351 128.863 144.698C129.625 145.497 130.318 146.36 130.934 147.278C136.192 155.11 135.048 165.58 128.226 172.101C121.401 178.62 110.87 179.305 103.256 173.724C99.76 171.16 97.223 167.504 96.0483 163.336C93.5856 154.598 97.5199 145.323 105.521 141.006Z" fill="#DF8C1B"/>
<path d="M118.24 144.242C119.845 144.839 120.937 145.24 122.419 146.155C121.5 147.037 118.711 149.764 117.739 150.279C117.445 151.17 117.534 152.391 117.544 153.366L117.586 158.254C117.571 160.265 117.569 162.276 117.58 164.286C118.56 164.263 119.475 164.143 120.356 164.509C121.012 165.246 121.049 166.544 120.54 167.377C119.448 167.761 110.686 167.759 109.482 167.431C109.184 167.099 109.242 167.228 109.082 166.834C108.539 167.39 106.802 169.25 106.298 169.644C105.123 168.802 104.578 168.188 103.639 167.104C102.909 166.251 102.733 165.994 102.184 165.015C101.195 162.849 100.928 161.905 100.494 159.556C105.881 154.903 110.976 149.714 116.479 145.162C117.091 144.657 117.391 144.297 118.24 144.242Z" fill="#DF8C1B"/>
<path d="M118.24 144.242C119.845 144.839 120.937 145.24 122.419 146.155C121.5 147.037 118.711 149.764 117.739 150.279C116.965 148.292 115.651 149.045 113.727 149.018C112.684 149.727 108.723 153.237 107.883 154.202C108.798 155.301 109.209 155.904 110.593 156.398L110.644 156.763C108.323 159.021 104.233 162.737 102.184 165.015C101.195 162.849 100.928 161.905 100.494 159.556C105.881 154.903 110.976 149.714 116.479 145.162C117.091 144.657 117.391 144.297 118.24 144.242Z" fill="#FDE889"/>
<path d="M110.593 156.398C111.035 155.776 112.277 154.492 113.088 154.604L113.231 155.222C113.158 156.25 113.125 157.018 113.135 158.048C113.138 160.155 113.146 162.177 113.051 164.284C111.615 164.296 110.498 164.279 109.069 164.501L109.082 166.834C108.539 167.39 106.802 169.25 106.298 169.644C105.123 168.802 104.578 168.188 103.639 167.104C102.909 166.251 102.733 165.994 102.184 165.015C104.233 162.737 108.323 159.021 110.644 156.763L110.593 156.398Z" fill="#F9C65B"/>
<path d="M113.135 158.048C113.138 160.155 113.146 162.177 113.051 164.284C111.615 164.296 110.498 164.279 109.069 164.501L109.082 166.834C108.539 167.39 106.802 169.25 106.298 169.644C105.123 168.802 104.578 168.188 103.639 167.104C106.308 164.325 110.231 160.87 113.135 158.048Z" fill="#FDE889"/>
<path d="M122.419 146.155C122.861 146.453 123.495 146.911 123.948 147.15L123.987 147.344C125.168 148.307 125.998 149.059 126.805 150.378L126.952 150.554C128.984 154.295 129.67 157.596 128.443 161.808C127.382 165.457 124.904 168.53 121.562 170.345C118.084 172.219 114.006 172.648 110.214 171.539C109.01 171.182 107.294 170.419 106.298 169.644C106.802 169.25 108.539 167.39 109.082 166.834C109.242 167.228 109.184 167.099 109.482 167.431C110.686 167.759 119.448 167.761 120.54 167.377C121.049 166.544 121.012 165.246 120.356 164.509C119.475 164.143 118.56 164.263 117.58 164.286C117.569 162.276 117.571 160.265 117.586 158.254L117.544 153.366C117.534 152.391 117.445 151.17 117.739 150.279C118.711 149.764 121.5 147.037 122.419 146.155Z" fill="#F9C65B"/>
<path d="M122.419 146.155C122.861 146.453 123.495 146.911 123.948 147.15L123.987 147.344C125.168 148.307 125.998 149.059 126.805 150.378C125.52 151.398 118.264 158.142 117.586 158.254L117.544 153.366C117.534 152.391 117.445 151.17 117.739 150.279C118.711 149.764 121.5 147.037 122.419 146.155Z" fill="#FDE889"/>
<path d="M122.419 146.155C122.861 146.453 123.495 146.911 123.948 147.15L123.987 147.344C121.811 149.491 119.653 151.322 117.544 153.366C117.534 152.391 117.445 151.17 117.739 150.279C118.711 149.764 121.5 147.037 122.419 146.155Z" fill="#F9C65B"/>
<path d="M105.521 141.006C113.245 136.838 122.808 138.351 128.863 144.698C129.625 145.497 130.318 146.36 130.934 147.278C129.228 147.728 129.285 147.863 128.326 149.31C127.678 148.564 126.952 147.604 126.325 146.82L125.255 145.776C120.942 142.875 116.76 141.419 111.563 142.443C102.705 144.19 97.1883 152.893 99.1972 161.636C100.209 166.04 102.146 168.717 105.743 171.354C105.413 172.277 105.18 171.605 104.56 173.751C103.871 174.019 104.014 173.675 103.256 173.724C99.76 171.16 97.223 167.504 96.0483 163.336C93.5856 154.598 97.5199 145.323 105.521 141.006Z" fill="#F9C65B"/>
<path d="M96.0483 163.336C93.5856 154.598 97.5199 145.323 105.521 141.006L105.995 141.236C105.687 141.931 103.338 143.368 102.712 144.073C99.6019 147.572 97.6579 150.679 96.7275 155.295C96.2982 157.426 97.0583 162.629 96.2999 163.307L96.0483 163.336Z" fill="#FEF9D8"/>
<path d="M126.325 146.82C126.923 145.076 127.041 144.866 128.863 144.698C129.625 145.497 130.318 146.36 130.934 147.278C129.228 147.728 129.285 147.863 128.326 149.31C127.678 148.564 126.952 147.604 126.325 146.82Z" fill="#FDE889"/>
<path d="M130.934 147.278C136.192 155.11 135.048 165.58 128.226 172.101C121.401 178.62 110.87 179.305 103.256 173.724C104.014 173.675 103.871 174.019 104.56 173.751C105.18 171.605 105.413 172.277 105.743 171.354C107.288 172.043 108.616 172.959 110.328 173.362C124.812 176.768 135.685 162.5 128.338 149.484L128.326 149.31C129.285 147.863 129.228 147.728 130.934 147.278Z" fill="#F9C65B"/>
<path d="M100.494 159.556C100.545 154.156 101.728 150.227 106.182 146.727C109.953 143.765 113.647 143.647 118.24 144.242C117.391 144.297 117.091 144.657 116.479 145.162C110.976 149.714 105.881 154.903 100.494 159.556Z" fill="#F9C65B"/>
<path d="M125.255 145.776L126.325 146.82C126.952 147.604 127.678 148.564 128.326 149.31L128.338 149.484C127.32 149.578 127.337 149.497 126.952 150.554L126.805 150.378C125.998 149.059 125.168 148.307 123.987 147.344L123.948 147.15L124.823 146.969C125.324 146.472 125.168 146.659 125.255 145.776Z" fill="#DF8C1B"/>
<path d="M116.431 136.99C126.706 130.248 137.222 124.695 147.952 118.833C157.841 113.43 170.972 106.851 179.575 99.9297C179.739 101.084 179.892 102.24 180.034 103.397L180.289 106.055L180.285 109.659C178.685 111.475 176.648 113.082 174.724 114.549C162.159 124.138 147.157 130.645 132.486 136.333C130.413 137.136 125.454 139.924 123.668 138.848C123.017 138.421 121.049 137.822 120.209 137.546C119.419 137.514 117.306 137.126 116.431 136.99Z" fill="#EC513E"/>
<path d="M123.668 138.848C126.54 136.91 133.785 133.296 137.108 131.544C144.306 127.767 151.462 123.912 158.577 119.98C165.581 116.091 174.215 111.206 180.289 106.055L180.285 109.659C178.685 111.475 176.648 113.082 174.724 114.549C162.159 124.138 147.157 130.645 132.486 136.333C130.413 137.136 125.454 139.924 123.668 138.848Z" fill="#EC513E"/>
<path d="M120.209 137.546C122.077 136.177 125.226 134.656 127.314 133.581L137.143 128.473C151.115 121.08 167.242 112.7 179.676 103.268L180.034 103.397L180.289 106.055C174.215 111.206 165.581 116.091 158.577 119.98C151.462 123.912 144.306 127.767 137.108 131.544C133.785 133.296 126.54 136.91 123.668 138.848C123.017 138.421 121.049 137.822 120.209 137.546Z" fill="#F6F5F5"/>
<path d="M48.5522 100.776C55.8894 106.967 66.8144 112.448 75.3293 117.118C86.874 123.451 99.4792 129.86 110.339 137.285C108.971 137.669 107.72 138.027 106.368 138.482C105.486 138.937 104.666 139.363 103.806 139.862C102.003 139.992 85.7311 133.006 83.2066 131.923C75.5571 128.695 68.2623 124.986 61.1466 120.733C56.7671 118.115 55.1076 116.379 52.0801 112.286C51.1443 111.021 49.4881 109.459 48.933 108.042L48.0839 106.847C48.0693 106.008 48.1197 105.01 48.144 104.161L48.5522 100.776Z" fill="#F6F5F5"/>
<path d="M48.5522 100.776C55.8894 106.967 66.8144 112.448 75.3293 117.118C86.874 123.451 99.4792 129.86 110.339 137.285C108.971 137.669 107.72 138.027 106.368 138.482C102.51 136.059 98.0115 133.717 94.0116 131.431C83.0115 125.145 71.7979 119.244 60.8911 112.789C58.3388 111.301 55.8441 109.716 53.4127 108.039C52.6803 107.533 48.5284 104.299 48.144 104.161L48.5522 100.776Z" fill="#EC513E"/>
<path d="M48.933 108.042C52.0983 110.708 54.7972 112.267 58.3351 114.448C64.2173 118.013 70.1831 121.44 76.2275 124.725C85.4481 129.834 94.4355 135.016 103.806 139.862C102.003 139.992 85.7311 133.006 83.2066 131.923C75.5571 128.695 68.2623 124.986 61.1466 120.733C56.7671 118.115 55.1076 116.379 52.0801 112.286C51.1443 111.021 49.4881 109.459 48.933 108.042Z" fill="#EC513E"/>
<path d="M126.103 179.022C132.509 176.455 135.372 175.655 142.055 174.577C143.271 180.777 143.356 184.445 143.28 190.583C141.61 190.732 139.972 191.114 139.885 193.251C141.387 193.971 143.58 191.962 146.514 194.858C148.506 196.822 149.859 201.463 145.88 202.251C140.87 203.244 133.341 203.364 128.535 201.568C126.761 200.888 127.552 193.197 127.448 191.331C127.448 187.435 126.997 182.811 126.103 179.022Z" fill="#F6BE57"/>
<path d="M130.293 192.575C135.054 191.17 138.24 189.818 143.28 190.583C141.61 190.732 139.972 191.114 139.885 193.251C141.387 193.971 143.58 191.962 146.514 194.858C148.506 196.822 149.859 201.463 145.88 202.251C140.87 203.244 133.341 203.364 128.535 201.568C126.761 200.888 127.552 193.197 127.448 191.331C128.377 191.812 129.323 192.179 130.293 192.575Z" fill="#9A5424"/>
<path d="M87.8508 176.146C89.0468 176.499 90.3755 176.735 91.6059 176.982C92.5255 177.413 100.358 179.203 101.563 179.304C102.453 179.655 103.194 179.943 104.109 180.229C103.514 183.7 103.493 186.518 103.674 190.05C103.92 191.59 104.214 199.876 103.707 201.206C101.573 203.727 86.1228 204.202 83.162 202.238C80.114 200.214 84.9365 193.195 88.2526 193.884C88.805 193.954 89.8889 193.975 90.2958 193.809C90.7456 192.704 89.4896 191.769 88.6301 191.257C88.1181 191.317 88.1208 191.304 87.6075 191.217C86.5457 189.567 87.6368 178.502 87.8508 176.146Z" fill="#F6BD56"/>
<path d="M103.674 190.05C103.92 191.59 104.214 199.876 103.707 201.206C101.573 203.727 86.1228 204.202 83.162 202.238C80.114 200.214 84.9365 193.195 88.2526 193.884C88.805 193.954 89.8889 193.975 90.2958 193.809C90.7456 192.704 89.4896 191.769 88.6301 191.257C92.5398 190.599 96.6837 192.026 100.667 192.725C102.737 191.686 103.559 192.54 103.674 190.05Z" fill="#9A5424"/>
<path d="M32.1968 112.658C29.8256 111.016 27.5506 109.536 25.8077 107.163C22.7256 102.968 22.8535 96.6 27.2738 93.3675C28.9672 92.129 31.1973 91.8403 33.229 92.1613C36.0039 92.5997 37.036 94.5611 38.3225 96.7089C39.0185 97.8112 40.6598 95.0502 42.4983 95.0753C45.1918 96.7169 41.9721 101.023 43.3699 104.392C43.637 104.817 44.1544 105.612 44.2999 106.073C41.9489 109.304 40.0683 111.273 36.3148 113.016C35.4182 113.433 33.9833 113.895 33.2582 114.25L32.1968 112.658Z" fill="#9A5424"/>
<path d="M43.3699 104.392C43.637 104.817 44.1544 105.612 44.2999 106.073C41.9489 109.304 40.0683 111.273 36.3148 113.016C35.4182 113.433 33.9833 113.895 33.2582 114.25L32.1968 112.658C36.1309 112.615 42.3973 108.238 43.3699 104.392Z" fill="#8D441C"/>
<path d="M184.288 149.574C184.613 150.295 184.882 150.71 185.294 151.373C188.722 153.772 192.82 156.41 193.555 160.779C194.157 164.354 191.155 168.236 187.636 168.723C185.091 169.075 183.907 167.554 181.605 167.099C180.268 166.873 179.672 169.459 178.073 168.124C176.006 166.399 176.178 163.072 176.223 160.655C175.638 159.753 175.365 159.396 174.653 158.589C174.212 158.239 173.722 157.652 173.335 157.223L174.241 155.63C176.499 153.547 177.947 151.363 181.387 150.249C182.252 149.968 183.196 149.911 184.023 149.657L184.288 149.574Z" fill="#9A5424"/>
<path d="M184.288 149.574C184.613 150.295 184.882 150.71 185.294 151.373C180.456 151.164 176.151 153.916 174.653 158.589C174.212 158.239 173.722 157.652 173.335 157.223L174.241 155.63C176.499 153.547 177.947 151.363 181.387 150.249C182.252 149.968 183.196 149.911 184.023 149.657L184.288 149.574Z" fill="#8D441C"/>
<path d="M98.9785 172.518C101.63 175.105 102.998 175.964 106.136 177.816C104.383 177.351 100.943 176.304 99.2895 176.874L99.0263 177.241C99.3981 178.666 100.566 178.205 101.563 179.304C100.358 179.203 92.5255 177.413 91.6059 176.982C91.849 176.957 92.0915 176.926 92.3329 176.887C93.2869 176.729 94.6081 176.101 94.3911 174.967C93.3732 174.004 90.9384 174.363 88.8968 173.577L88.6792 173.492C89.5218 173.326 90.294 173.681 91.1669 173.718C93.4187 173.809 96.8331 173.239 98.9785 172.518Z" fill="#DF8C1B"/>
<path d="M208.869 63.6058C210.361 64.1111 211.199 64.8798 212.167 66.0516C210.891 70.1287 208.631 72.2578 204.636 73.7485C202.844 73.3311 202.319 72.4297 201.417 70.9842C202.555 69.8937 204.26 69.1862 205.422 68.0891C206.85 66.7415 207.438 64.9406 208.869 63.6058Z" fill="#EC513E"/>
<path d="M25.2679 48.5498C27.756 48.6389 29.5573 54.4211 29.5637 56.5104C29.5722 59.3635 27.9532 58.9989 25.7812 59.0195C25.4999 58.9981 24.3725 58.8677 24.4313 58.4519C24.8937 55.1863 23.6993 53.4362 21.9088 50.9196C23.0304 49.5291 23.6744 49.3226 25.2679 48.5498Z" fill="#F9C65B"/>
<path d="M220.147 116.614C224.616 116.368 225.754 115.614 226 120.59C223.201 120.62 221.622 120.482 218.955 121.323C217.772 121.724 216.512 122.814 215.426 122.333C215.151 121.989 215.119 121.929 214.948 121.518C213.516 118.053 217.445 117.389 220.147 116.614Z" fill="#8DD890"/>
<path d="M21.7578 137.78C23.9573 137.755 25.2522 139.176 26.0446 141.055C26.9775 143.268 27.612 145.706 25.023 146.855C24.868 146.892 23.5209 147.222 23.4605 146.965C22.7176 143.801 22.1383 142.431 19.7404 140.234C20.4591 139.058 20.7525 138.691 21.7578 137.78Z" fill="#EC513E"/>
<path d="M46.0314 47.5466L46.524 47.5828C47.2634 48.2335 47.6422 50.4282 48.134 51.0961C48.7798 51.9734 50.0852 52.6308 50.7227 53.7208C50.6842 54.9254 49.4821 55.8324 48.6086 56.6786C46.1005 56.2346 43.3066 52.4941 43.864 49.9594C44.1399 48.7059 45.0608 48.1966 46.0314 47.5466Z" fill="#ED7571"/>
<path d="M15.1761 116.531C16.8675 116.26 17.646 118.003 18.1703 119.299C16.4677 121.212 15.0772 122.557 13.6279 124.693C12.177 124.926 11.0451 122.483 10.5065 121.414C12.0537 118.872 12.705 118.232 15.1761 116.531Z" fill="#F9C65B"/>
<path d="M189.852 29.5553C190.677 29.6103 191.674 30.0824 192.229 30.7087C193.267 33.3031 187.878 36.5742 185.997 37.566C185.227 37.8069 185.503 37.8289 184.779 37.6583C184.061 37.0789 183.771 36.1923 183.372 35.3253C186.924 33.1126 187.454 33.0323 189.852 29.5553Z" fill="#ED7571"/>
<path d="M65.9331 9.30135C68.872 9.47171 70.7535 13.9417 71.3185 16.3759C70.7165 16.8451 69.8258 17.3561 69.1606 17.7675L68.4044 18.0681C67.4031 17.7896 66.5933 14.4616 65.9039 13.4863C64.3688 11.3141 63.1117 10.9962 65.9331 9.30135Z" fill="#F9C65B"/>
<path d="M185.83 52.5159C187.418 52.8477 187.745 53.1461 188.861 54.2278C188.153 57.3227 187.224 58.94 184.748 60.928C184.35 61.0337 184.319 61.0051 183.897 61.0182C183.078 60.7482 182.526 60.0706 181.917 59.4518C184.236 56.1874 184.236 56.0099 185.83 52.5159Z" fill="#F9C65B"/>
<path d="M50.4198 172.543C51.6849 172.391 51.6972 172.46 52.8276 172.889C53.2702 173.861 54.9071 175.777 54.9216 176.408C52.8522 180.144 50.3099 175.076 49.5138 173.285C49.9774 173.04 50.1545 172.999 50.4198 172.543Z" fill="#E8B12A" fill-opacity="0.658824"/>
<path d="M198.719 90.8665C199.563 90.8141 199.745 90.7604 200.538 90.9829C201.177 91.9056 200.765 94.7696 200.784 95.9854C200.798 96.7451 200.517 96.8216 200.041 97.1949C199.398 97.1244 199.35 97.1188 198.76 96.8708C197.366 95.4707 197.637 92.3614 198.719 90.8665Z" fill="#ED7571"/>
<path d="M0.333838 81.495C-0.0718444 80.8319 0.30752 80.0943 0.291068 79.2955C0.263777 77.966 -0.417139 77.1898 0.40313 76.0363C1.16785 75.634 1.82167 75.6371 2.66923 75.7846C3.0091 76.3656 3.05265 78.712 3.15001 79.5676C0.790816 79.2375 1.02675 79.8065 0.333838 81.495Z" fill="#65654F" fill-opacity="0.129412"/>
<path d="M173.35 179.087C173.706 179.211 174.022 179.228 174.148 179.613C174.504 180.685 175.568 184.014 175.357 184.901L175.042 185.142C174.872 185.005 174.755 184.914 174.519 184.928C173.401 184.997 172.845 184.476 172.017 183.912L171.599 184.142L171.241 183.215C172.11 182.894 173.194 183.414 173.952 182.85C173.741 180.965 172.222 180.943 173.35 179.087Z" fill="#64B6C9" fill-opacity="0.866667"/>
<path d="M92.2551 1.01247C92.3124 2.55822 93.7025 3.23926 93.033 5.10583C91.2064 6.448 90.0074 3.62478 89.5425 2.30887C90.3349 1.37945 90.7849 1.54324 91.9543 1.48163L92.2551 1.01247Z" fill="#ED7571" fill-opacity="0.827451"/>
<path d="M70.5061 46.6205L71.1499 46.9479C72.0207 48.4452 72.8822 50.1018 71.0599 51.3352C70.5973 51.1239 70.1998 50.7826 69.8769 50.3915C69.4039 49.8123 69.2053 49.0572 69.3325 48.321C69.4991 47.3863 69.7697 47.166 70.5061 46.6205Z" fill="#6B9293" fill-opacity="0.517647"/>
<path d="M173.35 179.087C172.222 180.943 173.741 180.965 173.952 182.85C173.194 183.414 172.11 182.894 171.241 183.215C170.627 180.391 170.575 180.097 173.35 179.087Z" fill="#64B6C9" fill-opacity="0.843137"/>
<path d="M1.13669 82.8213C1.55225 81.4413 2.33555 81.0865 3.7295 80.9192C4.21531 81.5064 4.63067 81.8695 4.75416 82.6021C4.34557 84.4749 2.09012 84.673 1.13669 82.8213Z" fill="#6B9293" fill-opacity="0.666667"/>
<path d="M0.333838 81.495C1.02675 79.8065 0.790816 79.2375 3.15001 79.5676L3.7295 80.9192C2.33555 81.0865 1.55225 81.4413 1.13669 82.8213L0.333838 81.495Z" fill="#5F6A5D" fill-opacity="0.258824"/>
<path d="M49.5138 173.285C48.92 171.118 49.863 168.578 52.3102 169.872C52.174 170.145 52.0021 170.488 51.795 170.906C50.7614 171.531 50.4219 171.153 50.4198 172.543C50.1545 172.999 49.9774 173.04 49.5138 173.285Z" fill="#EDBA35" fill-opacity="0.784314"/>
<path d="M89.5425 2.30887C89.34 1.02696 89.9602 0.134623 91.2653 0C92.035 0.264031 91.7673 0.0990853 92.2551 1.01247L91.9543 1.48163C90.7849 1.54324 90.3349 1.37945 89.5425 2.30887Z" fill="#ED7571" fill-opacity="0.964706"/>
<path d="M52.3102 169.872C52.4246 170.739 52.5771 172.084 52.8276 172.889C51.6972 172.46 51.6849 172.391 50.4198 172.543C50.4219 171.153 50.7614 171.531 51.795 170.906C52.0021 170.488 52.174 170.145 52.3102 169.872Z" fill="#F9C65B" fill-opacity="0.741176"/>
<path d="M171.599 184.142L172.017 183.912C172.845 184.476 173.401 184.997 174.519 184.928C174.755 184.914 174.872 185.005 175.042 185.142C174.79 185.307 174.535 185.465 174.275 185.616C173.575 186.019 173.385 185.969 172.7 185.782C172.081 185.247 171.949 184.864 171.599 184.142Z" fill="var(--fill-0, #64B6C9)" fill-opacity="0.913725"/>
</g>
</svg>
