<svg preserveAspectRatio="none" width="100%" height="100%" overflow="visible" style="display: block;" viewBox="0 0 68 92" fill="none" xmlns="http://www.w3.org/2000/svg">
<g id="Vector">
<path d="M33.6635 0.0511715C35.8212 -0.103759 37.9979 0.0590728 39.9341 1.01426C42.2287 2.14548 44.487 2.49825 46.9468 3.05186C47.9556 3.2789 49.0762 3.85052 49.9925 4.06766C52.8992 4.75679 54.8303 5.70607 56.5339 8.22546C57.0937 8.98341 57.7935 10.4317 58.3271 11.0526C59.6652 12.6096 60.9409 13.3946 62.1501 15.2008C63.3784 17.037 63.1368 18.2856 63.8859 20.0935C63.9936 20.3529 65.4052 21.8598 65.8522 22.6992C66.7362 24.2637 67.4843 26.9527 67.2427 28.7841C66.8701 31.5986 68.2233 33.3562 67.9676 36.1402C67.7622 38.3741 67.0594 40.0361 66.4835 42.1596C68.2999 43.8584 65.8844 46.2719 65.9932 47.818C66.2026 50.7968 65.8512 54.0264 65.9892 56.947C66.258 62.6181 66.8007 68.3472 67.0504 74.0143C64.2856 76.8829 56.5852 79.2463 52.6757 80.1175C52.6082 82.2479 52.0937 87.3309 51.3185 89.1283C50.2653 91.5728 45.2925 92.774 43.0563 91.4597C42.7231 91.2647 42.0535 90.7786 41.8813 90.3585C41.3608 87.4299 40.7537 84.8995 39.8908 82.0409C37.9657 82.2159 35.3349 82.2299 33.3796 82.2849C31.7676 82.2909 30.2523 82.2869 28.6444 82.1729C28.4988 83.4162 27.9302 89.2093 27.1003 89.8004C25.4696 90.9606 18.5597 92.0178 16.9135 90.1815C15.8846 89.0343 17.1189 87.581 18.0223 86.7808C17.6993 84.7634 17.0377 82.436 16.9383 80.4126C13.4956 79.6064 4.84869 76.9189 2.79433 74.0483C2.83118 72.217 3.10303 69.9305 3.2609 68.0502C3.42018 66.1538 3.52611 63.2432 3.87749 61.4329C2.54091 60.8858 1.86008 60.4807 1.0385 59.2424C-1.72941 55.0686 1.78467 50.1507 2.92573 45.4165C2.27833 44.3665 2.13868 42.4991 2.3483 41.2874C2.45835 40.6519 2.67885 40.4688 3.1864 40.1453C1.8475 37.0383 1.45977 33.1382 2.68811 29.9477C2.96016 29.2409 3.54674 28.4854 3.64793 27.7214C3.90407 25.7866 3.82121 23.9082 4.76432 22.1192C5.51351 20.4373 6.93467 19.2622 7.60834 17.9211C8.28263 16.5787 8.39167 15.067 9.60753 13.546C11.5473 11.1193 13.5489 9.49572 15.9782 7.61115C16.7198 7.03583 17.56 6.06084 18.3958 5.62696C19.2922 5.16157 20.6514 5.06625 21.5484 4.58275C22.5386 4.04905 23.0905 3.47844 24.1738 3.05096C25.2798 2.61457 27.0545 2.42334 28.0344 2.01466C30.4648 1.00126 30.9994 0.409942 33.6635 0.0511715Z" fill="#5E280D"/>
<path d="M5.61782 23.6366C6.07986 22.857 6.2917 21.9723 6.89138 21.0889C7.53495 20.1408 8.53182 19.1984 9.03343 18.2579C9.48369 17.4137 9.70026 15.6826 10.2758 14.8421C11.7506 12.6881 13.9765 10.8457 16.0193 9.24107C16.7889 8.68466 17.7464 7.57824 18.5658 7.13185C20.4079 6.12836 22.2088 5.89941 23.9832 4.60606C24.5554 4.18908 26.9828 3.73539 27.7779 3.40722C31.1041 2.03385 33.4571 0.82122 37.1804 1.56587C38.6776 1.85412 40.1325 2.32851 41.5098 2.97794L42.0626 3.19798C44.473 3.91172 46.9498 4.44413 49.3622 5.16617C51.4604 5.79429 53.2295 6.21237 54.7337 7.96882C55.7727 9.18285 56.4161 10.764 57.4622 11.9879C58.8819 13.54 60.4888 14.6606 61.4282 16.6422C61.7 17.2143 62.0443 17.761 62.1773 18.399C62.3816 19.1107 62.4713 20.0056 62.7743 20.6632C63.4006 22.0203 64.8544 22.8983 65.379 24.3328C66.256 26.6445 65.7767 29.2236 65.9972 31.6264C66.114 32.8942 66.7453 34.1781 66.6124 35.4988C66.3788 37.8361 65.821 40.7063 64.8907 42.8641C61.9245 44.0668 59.1326 44.969 55.9519 45.5046C56.1966 45.1034 56.6245 44.7939 56.9346 44.4323C57.8166 43.4011 58.8527 42.182 59.1376 40.8309C59.338 39.8825 59.05 38.808 59.2363 37.8405C59.5152 36.3873 60.1827 34.8535 60.4092 33.4108C59.5061 33.4628 58.8426 33.3759 57.9546 33.2424C56.3829 31.7696 55.0841 32.2436 54.3722 29.3843C55.2673 29.023 56.4916 28.7786 57.4411 28.5989C57.5126 28.749 57.5871 28.8981 57.6626 29.0461C57.8639 29.4352 57.9425 29.6041 58.3613 29.7398C59.2896 29.4715 58.4701 27.7641 57.8096 27.4733C57.2699 27.2361 57.1622 27.3162 56.6134 27.4333C55.9056 27.726 54.9914 28.1004 54.2544 28.286C52.9284 28.7722 51.1624 29.1576 49.7961 29.6159C48.0825 30.1908 46.388 30.8121 44.6592 31.3345C43.6272 23.3888 32.3012 22.9615 31.0618 31.063C29.5123 30.1742 27.6864 29.7148 26.0477 30.6172C25.9489 29.7402 25.8126 28.761 25.4153 27.9611C22.653 22.4006 14.9504 22.5998 12.7795 28.5176C11.7536 27.7445 11.2086 27.3021 10.1249 26.5865C9.87948 26.4564 7.74699 25.0583 7.57623 24.8845L6.67833 24.2771C6.38232 24.0537 5.94786 23.8251 5.61782 23.6366Z" fill="#F3C264"/>
<path d="M42.0626 3.19798C44.473 3.91172 46.9498 4.44413 49.3622 5.16617C51.4604 5.79429 53.2295 6.21237 54.7337 7.96882C55.7727 9.18285 56.4161 10.764 57.4622 11.9879C58.8819 13.54 60.4888 14.6606 61.4282 16.6422C61.7 17.2143 62.0443 17.761 62.1773 18.399C62.3816 19.1107 62.4713 20.0056 62.7743 20.6632C63.4006 22.0203 64.8544 22.8983 65.379 24.3328C66.256 26.6445 65.7767 29.2236 65.9972 31.6264C66.114 32.8942 66.7453 34.1781 66.6124 35.4988C66.3788 37.8361 65.821 40.7063 64.8907 42.8641C61.9245 44.0668 59.1326 44.969 55.9519 45.5046C56.1966 45.1034 56.6245 44.7939 56.9346 44.4323C57.8166 43.4011 58.8527 42.182 59.1376 40.8309C59.338 39.8825 59.05 38.808 59.2363 37.8405C59.5152 36.3873 60.1827 34.8535 60.4092 33.4108C59.5061 33.4628 58.8426 33.3759 57.9546 33.2424C56.3829 31.7696 55.0841 32.2436 54.3722 29.3843C55.2673 29.023 56.4916 28.7786 57.4411 28.5989C57.5126 28.749 57.5871 28.8981 57.6626 29.0461C57.8639 29.4352 57.9425 29.6041 58.3613 29.7398C59.2896 29.4715 58.4701 27.7641 57.8096 27.4733C57.2699 27.2361 57.1622 27.3162 56.6134 27.4333C55.2965 26.5155 55.4667 27.7834 54.9461 25.614C55.7284 24.2444 56.1956 24.0018 57.6988 23.5619C57.9878 23.4926 58.455 23.4859 58.7681 23.4677C58.5647 21.0734 57.875 20.3627 56.8269 18.2696C56.4513 17.5199 56.1221 16.1456 55.7355 15.334C55.1233 14.0475 53.1781 10.3851 53.0422 8.97512L53.2959 8.85469C49.8726 6.04924 47.4834 6.07435 43.5255 4.43302C42.7613 4.11616 42.3304 3.91602 42.0626 3.19798Z" fill="#E8A749"/>
<path d="M57.6988 23.5619C58.5939 23.6109 59.9823 23.6133 60.7204 24.1372C61.4785 24.5897 61.6597 24.7589 62.1158 25.5111C63.7167 27.7611 63.8818 32.8339 60.4092 33.4108C59.5061 33.4628 58.8426 33.3759 57.9546 33.2424C56.3829 31.7696 55.0841 32.2436 54.3722 29.3843C55.2673 29.023 56.4916 28.7786 57.4411 28.5989C57.5126 28.749 57.5871 28.8981 57.6626 29.0461C57.8639 29.4352 57.9425 29.6041 58.3613 29.7398C59.2896 29.4715 58.4701 27.7641 57.8096 27.4733C57.2699 27.2361 57.1622 27.3162 56.6134 27.4333C55.2965 26.5155 55.4667 27.7834 54.9461 25.614C55.7284 24.2444 56.1956 24.0018 57.6988 23.5619Z" fill="#965223"/>
<path d="M62.1158 25.5111C62.0484 25.6651 61.8681 25.7954 61.7121 25.8444C60.8915 26.1013 60.6609 24.7982 60.5582 24.2782L60.7204 24.1372C61.4785 24.5897 61.6597 24.7589 62.1158 25.5111Z" fill="#6F3A1D"/>
<path d="M5.61782 23.6366C6.07986 22.857 6.2917 21.9723 6.89138 21.0889C7.53495 20.1408 8.53182 19.1984 9.03343 18.2579C9.48369 17.4137 9.70026 15.6826 10.2758 14.8421C11.7506 12.6881 13.9765 10.8457 16.0193 9.24107C16.7889 8.68466 17.7464 7.57824 18.5658 7.13185C20.4079 6.12836 22.2088 5.89941 23.9832 4.60606C24.5554 4.18908 26.9828 3.73539 27.7779 3.40722C31.1041 2.03385 33.4571 0.82122 37.1804 1.56587C36.8814 1.92974 36.8592 1.86682 36.3155 2.00265C32.0103 2.53315 27.1825 5.22008 23.1354 6.81849C21.99 7.27088 20.7798 7.66726 19.7026 8.23987C18.8855 8.77487 18.1427 9.48291 17.3949 10.1088C16.8216 10.6143 15.9771 11.0048 15.4224 11.5049C12.8588 13.8159 11.1373 16.6963 9.55316 19.7075C9.00574 20.7481 7.45571 21.3663 7.58499 22.8051C7.34516 23.1491 6.81496 24.1647 6.67833 24.2771C6.38232 24.0537 5.94786 23.8251 5.61782 23.6366Z" fill="#F9D9A1"/>
<path d="M8.24075 22.1699C9.53323 21.7662 10.4161 22.1873 10.8232 23.5196C11.0769 24.3659 10.9708 25.2786 10.5295 26.0453C10.4173 26.2413 10.2814 26.4231 10.1249 26.5865C9.87948 26.4564 7.74699 25.0583 7.57623 24.8845L6.67833 24.2771C6.81496 24.1647 7.34516 23.1491 7.58499 22.8051L8.24075 22.1699Z" fill="#985324"/>
<path d="M7.58499 22.8051L8.24075 22.1699L8.26622 22.2721C8.33609 22.5428 8.33801 22.6721 8.54693 22.8546C9.19191 23.063 10.0848 23.1042 9.86881 23.9738C9.30437 24.7027 8.43648 24.8761 7.57623 24.8845L6.67833 24.2771C6.81496 24.1647 7.34516 23.1491 7.58499 22.8051Z" fill="#B2662D"/>
<path d="M54.9461 25.614C55.4667 27.7834 55.2965 26.5155 56.6134 27.4333C55.9056 27.726 54.9914 28.1004 54.2544 28.286C54.1265 27.2439 54.4004 26.4759 54.9461 25.614Z" fill="#8A4C22"/>
<path d="M20.6313 17.2306C19.4612 16.6952 18.341 15.9923 17.9686 14.6849C17.2713 12.2378 18.8168 9.82858 21.2005 9.09203C22.7002 8.62874 23.7207 9.30487 24.9852 10.0164C26.7976 10.4614 28.127 12.1517 26.0099 13.3241C25.126 16.07 23.5485 17.064 20.6313 17.2306Z" fill="#985324"/>
<path d="M24.9852 10.0164C26.7976 10.4614 28.127 12.1517 26.0099 13.3241L25.9374 12.3637C25.9135 12.6619 25.8846 12.8578 25.8334 13.153C25.4371 13.2546 23.8831 12.5486 23.5218 12.2787C23.3269 11.1813 24.2755 11.4809 24.8307 11.1665C25.0132 11.0631 24.8504 10.7825 25.245 10.4125L24.9852 10.0164Z" fill="#8A4C22"/>
<path d="M24.9852 10.0164C26.7976 10.4614 28.127 12.1517 26.0099 13.3241L25.9374 12.3637C25.8028 11.4761 25.7807 11.141 25.245 10.4125L24.9852 10.0164Z" fill="#E8A749"/>
<path d="M34.3441 8.16035C35.3922 6.15656 37.1512 5.63236 39.2635 5.84961C43.5104 6.57925 43.9081 12.1933 39.5767 12.8689C36.6961 13.3184 33.7914 11.3245 34.3441 8.16035Z" fill="#8A4C22"/>
<path d="M34.3441 8.16035C35.3922 6.15656 37.1512 5.63236 39.2635 5.84961L39.0662 5.96873L39.8123 6.15767L39.8546 6.28859C39.1599 6.78279 38.003 7.46962 37.4402 8.07344C37.2197 8.31019 34.8878 8.18266 34.3441 8.16035Z" fill="#985324"/>
<path d="M50.4163 20.8824C48.9333 20.7762 46.5692 18.788 46.6085 17.2075C46.6679 14.8112 50.7758 14.1816 52.1582 15.7907C52.6364 16.347 52.8831 16.8906 52.9868 17.626C53.0563 18.0757 53.159 18.4226 53.1338 18.8887C52.9496 20.4227 51.9689 21.1484 50.4163 20.8824Z" fill="#985324"/>
<path d="M51.5118 20.2585C52.0676 19.7655 52.4038 18.7584 53.1338 18.8887C52.9496 20.4227 51.9689 21.1484 50.4163 20.8824C50.3066 20.703 50.2039 20.6637 50.0257 20.5646L50.1797 20.6418L50.3036 20.4689C50.7778 20.453 51.0587 20.3692 51.5118 20.2585Z" fill="#8A4C22"/>
<path d="M38.4702 21.9019C38.7611 22.0121 38.7652 22.0359 38.9535 22.2971C38.9847 22.4904 39.0531 22.6894 38.9343 22.8515C38.3433 23.6595 35.0469 25.0324 34.1881 25.3402C33.6796 25.0564 33.5417 24.6759 33.7239 24.1429C34.2455 23.7922 35.5241 23.3614 36.1866 23.0382C36.9508 22.6646 37.705 22.1929 38.4702 21.9019Z" fill="#5E280D"/>
<path d="M19.8982 21.2563C20.7629 21.2628 21.8038 22.354 22.5799 22.8095C23.0567 23.0895 24.1507 23.7343 24.5031 24.0968C24.4337 24.401 24.3647 24.3743 24.0828 24.6368C23.8657 24.7544 23.5678 24.8508 23.3343 24.7349C22.1834 24.1636 19.1895 22.9157 19.8982 21.2563Z" fill="#652B10"/>
<path d="M25.8669 21.8819C26.7909 22.2282 26.6736 23.3924 26.2508 24.103L25.8987 24.1134L25.7434 23.9446C25.6638 23.4365 25.5704 22.3039 25.8669 21.8819Z" fill="#5E280D"/>
<path d="M29.471 22.6881C29.9694 22.7138 29.8758 22.636 30.2231 22.8806C30.4033 23.2535 30.2996 23.7641 30.2634 24.2038C29.9231 24.2147 29.8878 24.2303 29.5868 24.0956C29.2475 23.6009 29.3814 23.3099 29.471 22.6881Z" fill="#6F3A1D"/>
<path d="M31.0971 22.4345C31.3458 22.4688 31.381 22.4485 31.5622 22.6212C31.7847 23.1548 31.829 23.7611 31.6357 24.3088C30.7145 24.0403 30.8856 23.1722 31.0971 22.4345Z" fill="#5E280D"/>
<path d="M28.0167 22.1496C28.6595 22.5222 28.4348 23.5452 28.1542 24.0835L27.8712 23.9938C27.4773 23.5538 27.7514 22.6033 28.0167 22.1496Z" fill="#5E280D"/>
<path d="M5.27127 24.5215C5.72052 24.8878 6.17299 25.2434 6.586 25.6501L6.72293 25.7088C7.59777 26 8.53897 26.9416 9.26792 27.2591C10.7578 28.4459 11.0516 28.5001 12.5072 29.4841C12.3794 32.1952 12.5815 33.5519 14.483 35.6682C16.8322 38.283 21.2604 38.3172 23.7979 35.9456C25.2615 34.5777 25.6148 33.5028 25.9856 31.5841C27.5557 31.1207 29.2223 31.1113 30.6943 31.8983C30.7628 31.935 30.8312 31.9725 30.8987 32.0109C31.1625 34.324 31.5381 35.8143 33.4339 37.3569C35.4003 38.9581 37.8338 39.4996 40.2744 38.6351C41.3044 38.2262 43.16 36.758 43.7339 35.7999C44.3048 34.4905 44.5374 33.7927 44.6189 32.3762C46.4393 31.9442 48.4631 31.309 50.2522 30.7408C51.6618 30.2929 52.8972 29.7266 54.3722 29.3843C55.0841 32.2436 56.3829 31.7696 57.9546 33.2424C58.8426 33.3759 59.5061 33.4628 60.4092 33.4108C60.1827 34.8535 59.5152 36.3873 59.2363 37.8405C59.05 38.808 59.338 39.8825 59.1376 40.8309C58.8527 42.182 57.8166 43.4011 56.9346 44.4323C56.6245 44.7939 56.1966 45.1034 55.9519 45.5046C54.2544 45.9307 52.1552 46.2902 50.5442 46.7547C50.2683 46.8021 49.4911 46.9188 49.2716 47.0024C48.4107 47.1615 47.566 47.3334 46.694 47.4157C44.3481 47.7706 34.4891 48.8556 33.1339 49.5245C31.9901 50.0887 31.1252 51.0878 30.2855 52.014C29.9603 52.3201 29.0965 52.9512 28.6786 53.3013C28.2497 52.8502 27.881 52.4211 27.4775 51.947C26.6013 51.0128 25.455 49.7186 24.7087 48.6892C23.063 48.1658 21.3988 47.8028 19.7681 47.2321C19.4756 46.6959 19.3823 45.9842 19.0771 45.5359C18.186 44.2273 17.3378 44.3291 16.9421 42.719C16.7021 42.2745 16.4665 41.8144 16.2418 41.382C15.2889 39.5491 15.1103 37.591 13.4907 36.1607C12.9176 35.6545 12.2601 34.112 11.3714 33.9973C10.6929 34.3603 10.8773 35.4108 10.8368 36.0446C10.7166 37.9264 10.7483 39.1382 11.5549 40.8727C11.9193 41.6565 12.2871 42.8862 12.5701 43.7606L11.5997 44.3874C10.8243 44.1264 10.092 43.6704 9.3387 43.339C7.7645 42.6464 6.17622 41.9679 4.64129 41.1911C4.53114 40.816 4.47314 40.5037 4.39823 40.1229C3.66294 37.234 2.87126 34.361 3.75375 31.4172C4.28788 29.6356 5.02328 28.023 5.06506 26.1579C5.07634 25.6557 5.19153 25.0211 5.27127 24.5215Z" fill="#F3C264"/>
<path d="M40.2744 38.6351C41.3044 38.2262 43.16 36.758 43.7339 35.7999C44.192 36.4448 46.3688 36.8215 46.1564 38.5029C45.9651 40.0108 44.0783 40.828 42.7382 40.641C41.8783 40.526 41.1051 40.0625 40.6016 39.3606C40.4053 39.0914 40.353 38.9506 40.2744 38.6351Z" fill="#E8A749"/>
<path d="M5.27127 24.5215C5.72052 24.8878 6.17299 25.2434 6.586 25.6501C6.45692 26.8223 6.36701 27.8163 5.99368 28.9487C5.54664 30.3045 4.92572 31.4027 4.76029 32.8393C4.59104 34.309 4.51039 35.6005 4.52338 37.0711C4.53063 37.8947 4.90246 39.3555 4.64954 39.9498L4.39823 40.1229C3.66294 37.234 2.87126 34.361 3.75375 31.4172C4.28788 29.6356 5.02328 28.023 5.06506 26.1579C5.07634 25.6557 5.19153 25.0211 5.27127 24.5215Z" fill="#F9D9A1"/>
<path d="M16.9421 42.719C18.9327 43.0747 20.8046 45.2812 19.7681 47.2321C19.4756 46.6959 19.3823 45.9842 19.0771 45.5359C18.186 44.2273 17.3378 44.3291 16.9421 42.719Z" fill="#8A4C22"/>
<path d="M46.694 47.4157C47.3918 46.2123 47.6062 45.8097 49.0541 45.7435C48.9071 46.4283 49.1497 46.4739 49.2716 47.0024C48.4107 47.1615 47.566 47.3334 46.694 47.4157Z" fill="#985324"/>
<path d="M27.4775 51.947C28.2727 51.853 29.5697 51.655 30.2855 52.014C29.9603 52.3201 29.0965 52.9512 28.6786 53.3013C28.2497 52.8502 27.881 52.4211 27.4775 51.947Z" fill="#E8A749"/>
<path d="M6.72293 25.7088C7.59777 26 8.53897 26.9416 9.26792 27.2591C7.97222 27.7141 6.83006 27.1217 6.72293 25.7088Z" fill="#8A4C22"/>
<path d="M49.0541 45.7435C49.8324 45.9409 50.1093 46.0429 50.5442 46.7547C50.2683 46.8021 49.4911 46.9188 49.2716 47.0024C49.1497 46.4739 48.9071 46.4283 49.0541 45.7435Z" fill="#8A4C22"/>
<path d="M27.3917 35.5227C28.6018 35.4189 31.4213 36.7467 31.3518 38.1447L31.1927 38.276C30.6651 38.3467 29.9936 37.6468 29.3854 37.2721C26.5661 35.6744 26.3182 38.011 25.0716 37.4672C24.7273 36.4747 26.6656 35.7412 27.3917 35.5227Z" fill="#652B10"/>
<path d="M54.4427 35.1192C54.6793 35.1114 54.8726 35.1086 55.1032 35.1774C55.2975 35.2344 55.4606 35.3675 55.5543 35.5461C55.9872 36.3927 54.784 37.4055 54.0702 37.7284C52.0394 37.7784 52.7593 35.6673 54.4427 35.1192Z" fill="#B2662D"/>
<path d="M9.45883 30.0873C9.56777 30.0899 9.6766 30.097 9.78494 30.1083C11.0195 30.2335 10.9883 31.4868 9.87566 32.1901C8.12577 32.1644 8.61963 30.9702 9.45883 30.0873Z" fill="#E8A749"/>
<path d="M56.2892 39.0067C56.7161 38.9995 56.7836 38.9699 57.132 39.1774C57.575 39.8304 56.9689 40.1949 56.4785 40.543C56.0456 40.5412 55.9036 40.5192 55.6016 40.2472C55.3781 39.5825 55.7546 39.333 56.2892 39.0067Z" fill="#E8A749"/>
<path d="M33.6393 50.3357C36.0628 50.0216 38.7843 49.9166 41.1604 49.5015C46.0909 48.6403 51.0949 47.8965 55.9862 46.8366C57.4099 46.5282 58.906 46.043 60.3055 45.6487C60.5905 46.7276 60.9388 47.1235 61.3486 48.1099C60.9187 48.2708 60.5351 48.3674 60.2099 48.6788L60.2552 48.8101C60.7234 48.8847 61.0808 48.7498 61.547 48.6329C62.5639 48.4165 63.9161 47.9154 65.0004 47.6167L64.9551 52.6842C64.9551 56.4629 65.1867 58.3483 62.2195 61.4389C60.4918 63.2392 59.8313 63.3052 57.9133 64.4394C58.0683 63.1242 58.016 62.5691 57.8206 61.2508C57.3082 58.6803 55.9137 56.2839 53.5255 55.0206C54.3189 54.6115 56.6416 52.8102 56.5742 51.878C56.0456 51.811 55.1334 52.6972 54.6632 53.0082C53.7701 53.5973 52.8509 54.3475 51.9185 54.8626C50.8342 55.4627 49.7981 55.6027 48.896 56.5579C48.7591 56.6919 48.601 56.7259 48.4228 56.78C48.2516 56.964 48.2617 57.07 48.2234 57.3191C47.8046 57.4461 47.3837 57.5681 46.9608 57.6831C46.6668 57.9842 46.4333 58.0492 46.0476 58.2162C45.5382 58.3833 45.3851 58.5133 44.9462 58.8164L44.6602 58.8924L44.7236 59.0554C44.4246 59.8836 43.6977 60.3167 43.6151 60.5247C43.5255 60.7467 43.6544 61.3459 43.5899 61.6559C43.5769 62.095 43.4872 63.2632 43.6765 63.5843C44.7981 65.9898 45.4304 66.4859 48.1227 67.046C48.4459 67.248 48.8064 67.066 49.4196 67.162C49.9814 67.061 50.5764 66.943 51.1402 66.8769C51.3114 67.262 51.4987 67.6651 51.6547 68.0562C49.0269 68.6913 46.0809 69.6965 43.5225 70.6167C43.2335 70.7207 42.3082 70.9837 42.1431 71.0768C41.9095 71.2868 41.829 71.3538 41.5662 71.5238C41.7585 71.6169 41.7625 71.6089 41.977 71.6389L41.689 71.7739C41.4887 72.351 41.6296 77.8811 41.6337 78.8973C41.6186 79.3384 41.545 80.3376 41.681 80.6966C41.4252 80.8147 41.2319 80.7877 40.949 80.7887C37.7905 81.1307 31.8955 81.4758 28.6726 81.1207C28.7229 74.4874 28.8246 67.8551 28.9787 61.2238C29.0451 59.0454 28.9132 56.3139 29.174 54.2265C30.6269 53.0842 31.8159 51.913 33.1973 50.6948L33.6393 50.3357Z" fill="#FDFDFD"/>
<path d="M33.6393 50.3357C36.0628 50.0216 38.7843 49.9166 41.1604 49.5015C46.0909 48.6403 51.0949 47.8965 55.9862 46.8366C57.4099 46.5282 58.906 46.043 60.3055 45.6487C60.5905 46.7276 60.9388 47.1235 61.3486 48.1099C60.9187 48.2708 60.5351 48.3674 60.2099 48.6788L60.2552 48.8101C60.7234 48.8847 61.0808 48.7498 61.547 48.6329C62.5639 48.4165 63.9161 47.9154 65.0004 47.6167L64.9551 52.6842C64.9551 56.4629 65.1867 58.3483 62.2195 61.4389C60.4918 63.2392 59.8313 63.3052 57.9133 64.4394C58.0683 63.1242 58.016 62.5691 57.8206 61.2508C57.3082 58.6803 55.9137 56.2839 53.5255 55.0206C54.3189 54.6115 56.6416 52.8102 56.5742 51.878C56.0456 51.811 55.1334 52.6972 54.6632 53.0082C53.7701 53.5973 52.8509 54.3475 51.9185 54.8626C50.8342 55.4627 49.7981 55.6027 48.896 56.5579C48.7591 56.6919 48.601 56.7259 48.4228 56.78C48.2516 56.964 48.2617 57.07 48.2234 57.3191C48.0654 56.1878 47.3576 53.7404 47.0535 52.5021C46.5289 52.7122 44.633 53.1973 43.9816 53.3873C43.6765 53.1512 43.7299 53.2573 43.603 52.9362C42.8419 53.0792 39.8375 53.9474 39.1558 54.2525C37.7936 54.8846 35.9098 55.2417 34.475 55.7548L33.4239 55.9578C32.9396 56.1988 32.5429 55.9008 32.1844 56.1608L32.3355 56.2729L31.9791 56.4519C31.7515 56.3429 31.672 56.2289 31.4847 56.0488C31.4072 55.8308 31.4394 55.8198 31.5048 55.5887C31.9267 55.0716 34.1387 54.2705 35.0278 53.7974C34.176 52.6482 33.8055 51.95 33.1973 50.6948L33.6393 50.3357Z" fill="#FDFDFD"/>
<path d="M61.547 48.6329C62.5639 48.4165 63.9161 47.9154 65.0004 47.6167L64.9551 52.6842C64.9551 56.4629 65.1867 58.3483 62.2195 61.4389C60.4918 63.2392 59.8313 63.3052 57.9133 64.4394C58.0683 63.1242 58.016 62.5691 57.8206 61.2508C61.8168 58.8374 64.0379 54.8176 62.3464 50.1777C62.1561 49.6566 61.7946 49.1473 61.547 48.6329Z" fill="#D9D9E2"/>
<path d="M33.1973 50.6948L33.6393 50.3357C33.9666 50.7248 35.7396 53.1512 35.9772 53.5503C37.5147 52.9882 39.0451 52.5101 40.5886 51.978C41.7434 51.5789 42.6093 51.1129 43.8326 50.8458L44.042 50.9798C44.0702 51.3689 44.1196 51.2429 43.9061 51.4879C44.5102 51.617 45.5301 51.922 46.0728 52.2061C45.359 52.4051 44.4085 52.6972 43.7037 52.8552L43.603 52.9362C42.8419 53.0792 39.8375 53.9474 39.1558 54.2525C37.7936 54.8846 35.9098 55.2417 34.475 55.7548L33.4239 55.9578C32.9396 56.1988 32.5429 55.9008 32.1844 56.1608L32.3355 56.2729L31.9791 56.4519C31.7515 56.3429 31.672 56.2289 31.4847 56.0488C31.4072 55.8308 31.4394 55.8198 31.5048 55.5887C31.9267 55.0716 34.1387 54.2705 35.0278 53.7974C34.176 52.6482 33.8055 51.95 33.1973 50.6948Z" fill="#652B10"/>
<path d="M37.856 53.6403L37.9567 53.6464C38.6212 53.6824 38.7591 53.5013 39.3169 53.6063C39.471 53.8254 39.4418 53.7074 39.4146 53.9684L39.1558 54.2525C37.7936 54.8846 35.9098 55.2417 34.475 55.7548L33.4239 55.9578C33.0715 55.9228 32.8782 55.9688 32.6567 55.7688L32.7442 55.6127C33.5024 55.2077 37.0797 53.8374 37.856 53.6403Z" fill="#D9D9E2"/>
<path d="M41.1846 52.4531C43.1318 52.084 42.2327 52.7322 43.7037 52.8552L43.603 52.9362C42.8419 53.0792 39.8375 53.9474 39.1558 54.2525L39.4146 53.9684C39.4418 53.7074 39.471 53.8254 39.3169 53.6063C38.7591 53.5013 38.6212 53.6824 37.9567 53.6464L37.856 53.6403C38.8568 53.2463 40.1556 52.7162 41.1846 52.4531Z" fill="#FDFDFD"/>
<path d="M43.9061 51.4879C44.5102 51.617 45.5301 51.922 46.0728 52.2061C45.359 52.4051 44.4085 52.6972 43.7037 52.8552C42.2327 52.7322 43.1318 52.084 41.1846 52.4531C42.0022 52.1 43.4228 51.9 43.9061 51.4879Z" fill="#D9D9E2"/>
<path d="M46.6518 51.957C46.9971 51.797 47.8136 51.893 48.2909 51.79C49.4548 51.5399 56.552 49.3725 57.0746 49.9416C56.8621 50.4447 56.3174 50.5087 55.8261 50.6568C54.9371 52.6822 48.8879 52.6131 48.0603 53.4823L48.0543 54.1524C48.2547 55.0696 48.5154 55.6977 48.896 56.5579C48.7591 56.6919 48.601 56.7259 48.4228 56.78C48.2516 56.964 48.2617 57.07 48.2234 57.3191C48.0654 56.1878 47.3576 53.7404 47.0535 52.5021C46.5289 52.7122 44.633 53.1973 43.9816 53.3873C43.6765 53.1512 43.7299 53.2573 43.603 52.9362L43.7037 52.8552C44.4085 52.6972 45.359 52.4051 46.0728 52.2061C46.3467 52.12 46.394 52.092 46.6518 51.957Z" fill="#652B10"/>
<path d="M47.6757 52.7462C50.655 52.1731 52.9385 51.4869 55.8261 50.6568C54.9371 52.6822 48.8879 52.6131 48.0603 53.4823L48.0543 54.1524C47.9395 53.6733 47.8106 53.2193 47.6757 52.7462Z" fill="#D9D9E2"/>
<path d="M43.8326 50.8458C44.8002 50.6518 46.0386 51.1999 46.6518 51.957C46.394 52.092 46.3467 52.12 46.0728 52.2061C45.5301 51.922 44.5102 51.617 43.9061 51.4879C44.1196 51.2429 44.0702 51.3689 44.042 50.9798L43.8326 50.8458Z" fill="#6F3A1D"/>
<path d="M33.1973 50.6948C33.8055 51.95 34.176 52.6482 35.0278 53.7974C34.1387 54.2705 31.9267 55.0716 31.5048 55.5887C31.4394 55.8198 31.4072 55.8308 31.4847 56.0488C31.672 56.2289 31.7515 56.3429 31.9791 56.4519C32.2298 56.7269 32.3777 57.08 32.4865 57.4331C33.0664 59.3025 33.5608 61.2158 34.0864 63.1052C34.6452 65.1136 35.2342 67.049 35.8564 69.0414C36.093 69.8015 36.2199 70.8507 36.536 71.5959C36.6317 71.8219 37.2166 71.9109 37.4734 71.9659C37.0837 72.396 36.973 72.168 36.4363 72.198C37.3465 72.547 38.4208 72.7241 39.3642 72.392L40.8272 72.0179L40.949 80.7887C37.7905 81.1307 31.8955 81.4758 28.6726 81.1207C28.7229 74.4874 28.8246 67.8551 28.9787 61.2238C29.0451 59.0454 28.9132 56.3139 29.174 54.2265C30.6269 53.0842 31.8159 51.913 33.1973 50.6948Z" fill="#FDFDFD"/>
<path d="M31.4847 56.0488C31.672 56.2289 31.7515 56.3429 31.9791 56.4519C32.2298 56.7269 32.3777 57.08 32.4865 57.4331C33.0664 59.3025 33.5608 61.2158 34.0864 63.1052C34.6452 65.1136 35.2342 67.049 35.8564 69.0414C36.093 69.8015 36.2199 70.8507 36.536 71.5959C36.6317 71.8219 37.2166 71.9109 37.4734 71.9659C37.0837 72.396 36.973 72.168 36.4363 72.198C36.3226 72.178 36.2531 72.11 36.1423 72.0389C35.8463 71.5128 35.5533 70.2296 35.3449 69.5835C34.4408 66.7909 33.7138 63.9684 32.9557 61.1368C32.5016 59.4435 31.7213 57.8102 31.4847 56.0488Z" fill="#5E280D"/>
<path d="M33.4239 55.9578L34.475 55.7548C34.5243 55.8248 34.6462 55.9878 34.6784 56.0548L34.1629 56.2839C34.767 58.4863 35.4698 60.5087 36.0719 62.7601C36.674 65.0586 37.3083 67.348 37.9728 69.6285C38.1591 70.2496 38.4923 71.4848 38.7108 72.0579L37.4734 71.9659C37.2166 71.9109 36.6317 71.8219 36.536 71.5959C36.2199 70.8507 36.093 69.8015 35.8564 69.0414C35.2342 67.049 34.6452 65.1136 34.0864 63.1052C33.5608 61.2158 33.0664 59.3025 32.4865 57.4331C32.3777 57.08 32.2298 56.7269 31.9791 56.4519L32.3355 56.2729L32.1844 56.1608C32.5429 55.9008 32.9396 56.1988 33.4239 55.9578Z" fill="#709191"/>
<path d="M33.4239 55.9578L34.475 55.7548C34.5243 55.8248 34.6462 55.9878 34.6784 56.0548L34.1629 56.2839C33.4198 56.4849 33.0765 56.4599 32.3355 56.2729L32.1844 56.1608C32.5429 55.9008 32.9396 56.1988 33.4239 55.9578Z" fill="#5E280D"/>
<path d="M34.1629 56.2839L34.6784 56.0548L34.6794 56.3029C36.0266 60.3697 36.9025 64.5115 38.2789 68.5623C38.5437 69.3394 38.8497 71.3968 39.1729 71.9369C40.0761 71.6129 41.2108 71.3248 42.1431 71.0768C41.9095 71.2868 41.829 71.3538 41.5662 71.5238C41.7585 71.6169 41.7625 71.6089 41.977 71.6389L41.689 71.7739C41.4887 72.351 41.6296 77.8811 41.6337 78.8973C41.6186 79.3384 41.545 80.3376 41.681 80.6966C41.4252 80.8147 41.2319 80.7877 40.949 80.7887L40.8272 72.0179L39.3642 72.392C38.4208 72.7241 37.3465 72.547 36.4363 72.198C36.973 72.168 37.0837 72.396 37.4734 71.9659L38.7108 72.0579C38.4923 71.4848 38.1591 70.2496 37.9728 69.6285C37.3083 67.348 36.674 65.0586 36.0719 62.7601C35.4698 60.5087 34.767 58.4863 34.1629 56.2839Z" fill="#652B10"/>
<path d="M44.7236 59.0554C43.449 58.8264 43.4691 56.855 44.3813 56.1878C45.4667 55.3957 47.0585 55.9468 46.8058 57.4751L46.7887 57.5721L46.9608 57.6831C46.6668 57.9842 46.4333 58.0492 46.0476 58.2162C45.5382 58.3833 45.3851 58.5133 44.9462 58.8164L44.6602 58.8924L44.7236 59.0554Z" fill="#D9D9E2"/>
<path d="M44.7236 59.0554C43.449 58.8264 43.4691 56.855 44.3813 56.1878C45.4667 55.3957 47.0585 55.9468 46.8058 57.4751L46.7887 57.5721L46.9608 57.6831C46.6668 57.9842 46.4333 58.0492 46.0476 58.2162L45.8654 57.9132C46.1322 57.5611 46.5309 57.137 46.5319 56.74C46.2027 56.3609 45.7577 56.2329 45.2734 56.1188C44.8988 56.2029 44.8817 56.2189 44.5525 56.4269L44.478 56.6239L44.5646 56.724C44.7438 56.932 44.8274 57.012 44.8123 57.2531L44.2978 56.939L44.1508 56.984C43.9192 57.7402 44.1618 58.5143 44.9462 58.8164L44.6602 58.8924L44.7236 59.0554Z" fill="#8A4C22"/>
<path d="M44.3854 57.7191C44.8022 57.9112 44.9411 57.9452 45.3771 57.7692L45.6157 57.8962C45.2794 58.2262 45.1818 58.3413 44.6995 58.2793C44.4035 57.9822 44.4931 58.1232 44.3854 57.7191Z" fill="#8A4C22"/>
<path d="M39.1558 54.2525C39.8375 53.9474 42.8419 53.0792 43.603 52.9362C43.7299 53.2573 43.6765 53.1512 43.9816 53.3873C43.7521 53.4433 42.5287 53.7674 42.4341 53.8394C41.6518 54.4325 35.0157 55.9428 34.6794 56.3029L34.6784 56.0548C34.6462 55.9878 34.5243 55.8248 34.475 55.7548C35.9098 55.2417 37.7936 54.8846 39.1558 54.2525Z" fill="#6F3A1D"/>
<path d="M43.5899 61.6559C43.5769 62.095 43.4872 63.2632 43.6765 63.5843C42.7734 63.7263 42.563 64.5505 41.6377 64.2444C41.394 63.9874 41.4716 64.1374 41.4182 63.7703C41.7535 62.7181 42.6969 62.9852 43.4872 63.2472C43.4872 62.8401 43.4399 61.98 43.5899 61.6559Z" fill="#966B54"/>
<path d="M42.0888 63.2932C42.3908 63.3272 42.5076 63.3082 42.7291 63.5123C42.6465 63.8163 42.6133 63.7543 42.2911 63.9974C41.975 64.0124 41.8683 64.0634 41.6538 63.8533C41.7766 63.4903 41.7615 63.5863 42.0888 63.2932Z" fill="#FDFDFD"/>
<path d="M48.1227 67.046C48.4459 67.248 48.8064 67.066 49.4196 67.162C49.2756 67.433 49.2585 67.5161 48.9896 67.6711C48.1177 67.6381 47.4985 68.0712 47.0776 67.9711C47.1179 67.6121 47.8952 67.493 48.1227 67.046Z" fill="#8A4C22"/>
<path d="M39.8465 58.9234L40.0177 58.9524C40.359 59.4885 40.9832 61.4659 41.0406 62.079C40.7839 62.5721 39.1256 62.9802 38.4742 63.1992C37.9698 62.9792 37.2428 60.7177 37.2025 60.1626C37.4855 59.6325 39.2394 59.1104 39.8465 58.9234Z" fill="#8A4C22"/>
<path d="M40.0147 60.2496L40.3912 61.2378C40.6238 61.7229 40.6641 61.6039 40.5483 61.994C40.0429 62.5281 39.2042 62.6661 38.4681 62.8791C38.3775 62.5641 38.2436 62.043 38.1389 61.7479C38.0765 61.4629 37.9557 61.1088 37.8681 60.8227C38.5829 60.6277 39.2978 60.4367 40.0147 60.2496Z" fill="#FDFDFD"/>
<path d="M40.0147 60.2496L40.3912 61.2378L40.2321 61.2368C39.48 61.4879 39.0924 61.6109 38.3191 61.7519L38.1389 61.7479C38.0765 61.4629 37.9557 61.1088 37.8681 60.8227C38.5829 60.6277 39.2978 60.4367 40.0147 60.2496Z" fill="#FDFDFD"/>
<path d="M38.3191 61.7519C38.3433 61.0428 38.9726 60.9748 39.5948 60.8958C39.9089 60.8548 40.0147 61.0318 40.2321 61.2368C39.48 61.4879 39.0924 61.6109 38.3191 61.7519Z" fill="#985324"/>
<path d="M39.6975 59.3194C39.914 59.5095 39.8888 59.5725 39.8495 59.7975C39.3401 60.1996 38.3403 60.3577 37.6788 60.5007C37.5489 60.3807 37.5992 60.4557 37.5439 60.2636C37.7805 60.0336 39.0441 59.6685 39.5797 59.3825L39.6975 59.3194Z" fill="#FDFDFD"/>
<path d="M42.3968 65.5247C42.5579 65.4987 42.5136 65.5107 42.6838 65.5507C44.8837 68.5053 43.7521 68.0902 40.8785 68.9613C40.8413 68.9734 40.7376 69.2464 40.4627 69.3584L39.7277 68.5003C40.5291 68.3942 43.0573 67.9291 43.4389 67.275C43.3554 67.027 42.6898 66.0398 42.5589 66.0198C42.0958 65.9498 40.1304 66.6209 39.6542 66.7649L39.5767 67.008C39.7176 67.43 39.7126 67.5431 39.7005 67.9712L39.6965 68.0932C39.7458 68.3932 39.8052 68.6913 39.8767 68.9864C40.2583 70.5337 42.419 69.3344 43.5225 69.0004C43.6332 68.6913 43.6433 68.5963 43.8578 68.3592L43.9605 68.4242C43.9987 68.7613 43.9685 68.8053 43.8709 69.1404C43.4611 69.3984 40.4456 70.3946 40.0398 70.3186C39.62 69.6975 39.0974 67.242 39.2736 66.6119C39.8495 66.2828 41.6548 65.7617 42.3968 65.5247Z" fill="#8A4C22"/>
<path d="M37.2076 56.4249C38.0211 56.3329 38.4097 56.3849 38.7138 57.3561C38.7954 57.6161 38.7279 58.1782 38.5839 58.4133L38.0654 58.5033C36.8602 58.9984 36.4001 57.4821 37.2076 56.4249Z" fill="#8A4C22"/>
<path d="M37.4855 56.6679C37.9849 56.6899 38.1097 56.6759 38.3383 57.132C38.3483 57.6061 38.1701 57.9132 37.9828 58.3543C36.8965 58.1762 36.9236 57.4161 37.4855 56.6679Z" fill="#FDFDFD"/>
<path d="M42.2347 55.4447C42.4552 55.6067 42.1663 56.0878 42.1059 56.4169C42.2519 56.7229 42.2096 56.6259 42.6334 56.793L42.6888 56.963C42.5328 57.16 42.0918 57.249 41.8249 57.3311L41.69 57.4091L41.5612 57.3561L41.6367 56.994C41.7766 56.3409 41.83 56.2789 41.4001 55.8068C41.5481 55.6157 41.9569 55.5377 42.2347 55.4447Z" fill="#8A4C22"/>
<path d="M39.8707 56.2659C40.4003 56.5509 40.3852 57.3761 40.0136 57.8382C39.6612 57.9982 39.8385 57.9862 39.4619 57.8612C39.1387 57.5481 39.1246 57.3731 38.9927 56.945C38.9494 56.772 38.9524 56.716 38.9373 56.5369L39.041 56.5039C39.3159 56.882 39.5958 57.5611 39.7962 58.0082C39.8576 57.4771 39.8234 56.848 39.8707 56.2659Z" fill="#8A4C22"/>
<path d="M41.8099 60.6917C42.279 60.7077 42.4623 60.6947 42.6979 61.1198C42.6163 61.5799 42.6506 61.4249 42.2881 61.86C41.827 61.89 41.7011 61.8239 41.5229 61.4149C41.5219 61.0428 41.5783 61.0118 41.8099 60.6917Z" fill="#966B54"/>
<path d="M46.1131 54.2265C46.3527 54.1704 46.243 54.1584 46.4544 54.2425L46.4917 54.3965C46.1604 54.7716 44.3703 55.1426 43.7863 55.2917L43.6091 55.3777L43.5497 55.2767L43.7017 55.0886C44.5172 54.8716 45.3237 54.5345 46.1131 54.2265Z" fill="#8A4C22"/>
<path d="M44.5183 67.5671C44.8495 67.7651 44.7448 67.7041 44.9039 68.1742C45.1395 68.3832 45.0056 68.3332 45.3197 68.3282C45.5684 68.1502 45.6751 68.0332 45.9792 68.0092L46.1836 68.1812C45.657 68.5163 45.2895 68.8063 44.7277 68.4462C44.5203 68.0982 44.5454 67.9871 44.5183 67.5671Z" fill="#966B54"/>
<path d="M40.6983 55.8478C40.8352 55.8918 40.8614 55.9188 40.9873 55.9908C41.1977 56.5289 41.1192 56.918 41.0165 57.4791L40.8101 57.3021C40.6167 56.803 40.6298 56.3729 40.6983 55.8478Z" fill="#755315"/>
<path d="M17.4111 52.8472C17.9883 53.1153 19.6073 53.6203 19.7821 54.0194C19.5971 54.7696 19.6873 55.3317 19.5607 55.9558C19.5573 63.7553 18.6741 71.8309 18.6232 79.8225C14.0126 78.7103 7.82784 76.7669 3.96741 74.0313C4.0848 70.4666 4.39159 66.4278 4.65639 62.8431L4.68599 61.7159C9.66633 62.322 13.2605 58.5483 16.1772 55.1046C16.937 54.3935 16.0784 54.0344 17.4111 52.8472Z" fill="#FDFDFD"/>
<path d="M17.4111 52.8472C17.9883 53.1153 19.6073 53.6203 19.7821 54.0194C19.5971 54.7696 19.6873 55.3317 19.5607 55.9558C19.4942 55.3607 19.5548 54.7566 19.5946 54.1585C19.0989 54.1214 18.5525 54.0504 18.0538 53.9954C17.7965 54.7006 17.6474 55.0526 17.2968 55.7148C14.6526 59.3365 11.4146 61.5299 6.9251 62.5601C6.29895 62.7031 4.98553 62.4121 4.65639 62.8431L4.68599 61.7159C9.66633 62.322 13.2605 58.5483 16.1772 55.1046C16.937 54.3935 16.0784 54.0344 17.4111 52.8472Z" fill="#D9D9E2"/>
<path d="M51.9105 66.5969C52.2266 66.6969 52.8499 66.8969 53.165 66.9029C54.7196 66.9329 57.2437 66.0168 58.6211 65.2946C59.8172 64.6665 61.9668 63.2582 62.87 62.309C63.5909 61.5519 64.3218 60.5757 65.1041 59.7715C65.2954 63.8083 65.6207 67.8441 65.822 71.8819C65.8512 72.474 65.8865 73.0511 65.967 73.6393C63.8798 74.9745 60.816 76.4998 58.4791 77.235C57.0554 77.7041 55.1173 78.4272 53.7178 78.7913C49.9059 79.7825 45.6187 80.2916 41.681 80.6966C41.545 80.3376 41.6186 79.3384 41.6337 78.8973C41.6296 77.8811 41.4887 72.351 41.689 71.7739L41.977 71.6389C44.1618 71.0678 45.9903 70.5136 48.1036 69.6855C49.3179 69.2094 50.9016 68.8593 52.1803 68.4402C52.0837 67.8271 51.993 67.212 51.9105 66.5969Z" fill="#FDFDFD"/>
<path d="M51.9105 66.5969C52.2266 66.6969 52.8499 66.8969 53.165 66.9029C54.7196 66.9329 57.2437 66.0168 58.6211 65.2946C59.8172 64.6665 61.9668 63.2582 62.87 62.309C63.5909 61.5519 64.3218 60.5757 65.1041 59.7715C65.2954 63.8083 65.6207 67.8441 65.822 71.8819C65.8512 72.474 65.8865 73.0511 65.967 73.6393C63.8798 74.9745 60.816 76.4998 58.4791 77.235C58.3402 76.0917 58.3351 73.9663 58.2828 72.7281C58.2022 70.8217 57.9918 68.5623 57.9958 66.6969C56.2006 67.426 54.5343 68.0091 52.6676 68.5212C52.2669 68.6313 52.0414 69.2884 51.5812 69.3704C49.7901 70.1546 48.2103 70.7797 46.3578 71.3898C45.0881 71.8079 42.863 72.299 41.7756 72.7721C41.4353 73.7353 42.0263 78.2922 41.6337 78.8973C41.6296 77.8811 41.4887 72.351 41.689 71.7739L41.977 71.6389C44.1618 71.0678 45.9903 70.5136 48.1036 69.6855C49.3179 69.2094 50.9016 68.8593 52.1803 68.4402C52.0837 67.8271 51.993 67.212 51.9105 66.5969Z" fill="#D9D9E2"/>
<path d="M24.2115 49.8876C24.56 50.1187 24.9982 50.5657 25.2461 50.9058C25.8807 51.796 28.144 54.0824 28.177 54.4845C28.3884 57.062 28.1799 60.6227 28.1277 63.2322C28.0044 69.1784 27.9208 75.1266 27.8766 81.0747C25.2011 80.7667 22.1378 80.4186 19.5009 79.9725C19.5428 73.6483 20.0464 67.1 20.2464 60.7687C20.3068 58.8564 20.4655 56.87 20.4739 54.9666C20.4744 54.8606 20.4756 54.1665 20.5726 54.1284C22.2063 53.4853 23.3485 51.832 24.5225 50.4707C24.4616 50.2247 24.3122 50.2107 24.0249 50.0206L24.2115 49.8876Z" fill="#FDFDFD"/>
<path d="M24.2115 49.8876C24.56 50.1187 24.9982 50.5657 25.2461 50.9058L25.1507 51.0038C24.157 52.041 22.7449 53.6434 21.5569 54.5985C21.4172 54.7106 20.8177 54.7606 20.6077 54.7726L20.4739 54.9666C20.4744 54.8606 20.4756 54.1665 20.5726 54.1284C22.2063 53.4853 23.3485 51.832 24.5225 50.4707C24.4616 50.2247 24.3122 50.2107 24.0249 50.0206L24.2115 49.8876Z" fill="#D9D9E2"/>
<path d="M25.6764 59.7205C26.4838 59.7735 27.457 60.1406 27.293 61.1278C27.1906 61.7439 26.7422 61.942 26.2523 62.269C25.0512 62.5351 24.0861 60.7367 25.6764 59.7205Z" fill="#652B10"/>
<path d="M25.8287 60.4057C26.1155 60.3407 26.4037 60.5087 26.4858 60.7897C26.568 61.0698 26.4156 61.3659 26.1384 61.4639C25.9439 61.5319 25.7274 61.4879 25.5757 61.3489C25.4241 61.2108 25.3623 60.9998 25.4153 60.8017C25.4684 60.6037 25.6275 60.4507 25.8287 60.4057Z" fill="#FDFDFD"/>
<path d="M25.3854 70.6087C26.1143 70.5697 26.9659 70.8417 27.0669 71.6619C27.1458 72.303 26.7106 72.6761 26.3189 73.1172C25.0222 73.7003 23.9474 71.7829 25.3854 70.6087Z" fill="#652B10"/>
<path d="M25.5958 71.3008C25.8811 71.1928 26.2011 71.3328 26.3127 71.6159C26.4245 71.8979 26.2861 72.217 26.0026 72.331C25.7157 72.445 25.3896 72.306 25.2765 72.0199C25.1634 71.7339 25.3068 71.4108 25.5958 71.3008Z" fill="#FDFDFD"/>
<path d="M36.7626 26.3056C38.8417 25.9255 40.9651 26.6859 42.3213 28.296C43.6775 29.9061 44.0571 32.1167 43.3141 34.0822C42.571 36.0478 40.8211 37.4641 38.7329 37.7892C35.5634 38.2829 32.5832 36.1548 32.0435 33.0131C31.5048 29.8714 33.6071 26.8827 36.7626 26.3056Z" fill="#F3C264"/>
<path d="M34.616 28.8906C35.798 28.896 37.0082 28.9133 38.1892 28.9713C38.893 29.0059 40.8745 28.9 40.9973 29.7535C40.8443 30.2093 40.5422 30.256 40.2573 30.6291C41.0175 32.085 40.6188 33.011 39.767 34.2889C38.3997 35.6908 36.4897 35.6653 35.202 34.2433C34.3109 33.2593 34.479 31.8012 34.6603 30.6215C34.7368 30.122 34.7046 30.0459 34.3864 29.6791L34.2988 29.5786C34.3169 29.2297 34.3904 29.1851 34.616 28.8906Z" fill="#6F3A1D"/>
<path d="M37.0576 32.0535C37.4361 31.9003 37.8691 31.9642 38.1862 32.2202C38.5034 32.4762 38.6554 32.8836 38.5829 33.2834C38.5094 33.683 38.2235 34.0116 37.8358 34.1406C37.2619 34.3315 36.6387 34.0354 36.4293 33.4717C36.2189 32.908 36.4967 32.2803 37.0576 32.0535Z" fill="#FDFDFD"/>
<path d="M13.7462 32.6919C12.9089 30.2174 13.8512 27.4926 16.0427 26.0517C18.2342 24.6108 21.127 24.8138 23.093 26.5463C25.0588 28.2789 25.6063 31.1081 24.4272 33.4413C23.2481 35.7744 20.6372 37.0285 18.0641 36.4975C16.0464 36.0811 14.4027 34.6324 13.7462 32.6919Z" fill="#F3C264"/>
<path d="M13.7462 32.6919C14.8707 32.6923 16.088 33.3892 16.8713 34.155C17.8059 35.0686 17.7549 35.4338 18.0641 36.4975C16.0464 36.0811 14.4027 34.6324 13.7462 32.6919Z" fill="#F3C264"/>
<path d="M17.2992 27.4797C18.382 27.6258 22.6147 27.9418 23.1204 28.5097C23.1599 29.0528 22.7035 29.2256 22.7345 29.394C23.0365 31.032 22.946 31.8407 22.0194 33.3183C18.8422 35.4454 16.4101 32.5432 17.2362 29.5851C17.3991 29.0017 17.3797 28.8136 17.0181 28.3493C16.9943 27.9528 17.1099 27.8703 17.2992 27.4797Z" fill="#6F3A1D"/>
<path d="M19.7223 30.8657C20.0712 30.7443 20.4591 30.8226 20.7325 31.0699C21.0059 31.3172 21.1208 31.6935 21.0317 32.0499C20.9425 32.4064 20.6638 32.6856 20.3056 32.7771C19.7837 32.9104 19.2485 32.6114 19.0922 32.099C18.9358 31.5866 19.2137 31.0428 19.7223 30.8657Z" fill="#FDFDFD"/>
<path d="M41.0728 81.9599C43.3966 81.7989 45.7315 81.5708 48.0412 81.2427C49.185 81.0807 50.6066 80.5936 51.7061 80.4846C51.396 82.8741 50.9258 86.0757 50.3388 88.3891C49.8384 90.3595 46.6638 90.9176 44.8173 90.6696L44.7045 90.6536C42.3143 90.3445 42.6002 89.0833 42.3586 87.2099C42.2297 86.1467 41.9871 85.1005 41.6347 84.0893C41.4806 83.4822 41.2682 82.527 41.0728 81.9599Z" fill="#F3C264"/>
<path d="M41.0728 81.9599C43.3966 81.7989 45.7315 81.5708 48.0412 81.2427C49.185 81.0807 50.6066 80.5936 51.7061 80.4846C51.396 82.8741 50.9258 86.0757 50.3388 88.3891C49.8384 90.3595 46.6638 90.9176 44.8173 90.6696L44.7045 90.6536C45.0549 90.3555 45.4053 90.2865 45.8322 90.1285C47.1189 89.6524 47.8912 88.8612 48.8759 87.9431C49.1417 87.0489 49.5454 84.6444 48.6 84.1393C47.123 83.3492 43.1278 83.7092 41.6347 84.0893C41.4806 83.4822 41.2682 82.527 41.0728 81.9599Z" fill="#E8A749"/>
<path d="M3.79886 45.6123C5.16303 46.4817 5.25646 46.7305 6.91675 47.5982C6.47676 48.0072 6.0411 48.4209 5.60977 48.8391C5.03466 49.4035 3.43992 51.0828 3.43499 51.825C3.8191 51.822 5.3506 50.2807 5.8068 49.8796C6.11399 53.2623 7.12003 54.5155 9.48651 56.6529C10.4158 57.5341 10.8397 57.6901 12.0845 58.0402C10.4828 59.1534 9.02658 60.3717 7.02871 60.6717C4.74116 61.0168 3.18358 60.5507 1.84096 58.6363C-0.702122 54.5235 3.33883 49.4765 3.79886 45.6123Z" fill="#FDFDFD"/>
<path d="M9.48651 56.6529C10.4158 57.5341 10.8397 57.6901 12.0845 58.0402C10.4828 59.1534 9.02658 60.3717 7.02871 60.6717C4.74116 61.0168 3.18358 60.5507 1.84096 58.6363C2.00376 58.6223 3.52037 58.6843 3.82212 58.7083C5.84517 58.8714 7.83418 57.8232 9.48651 56.6529Z" fill="#D9D9E2"/>
<path d="M17.9172 80.7676C21.4529 81.7328 24.0434 81.9609 27.749 82.1719C27.3823 84.2713 26.8182 87.0709 26.3184 89.1693C24.9206 89.7214 21.0908 90.2845 19.6224 90.0545L19.3706 90.0275C16.5537 89.7074 17.6629 88.2571 19.3053 87.2369C19.066 85.9197 18.6666 84.4024 18.3839 83.0491C18.2416 82.334 18.093 81.4638 17.9172 80.7676Z" fill="#F3C264"/>
<path d="M17.9172 80.7676C21.4529 81.7328 24.0434 81.9609 27.749 82.1719C27.3823 84.2713 26.8182 87.0709 26.3184 89.1693C24.9206 89.7214 21.0908 90.2845 19.6224 90.0545C19.8448 90.0245 20.0293 89.9755 20.2457 89.9224L19.8423 89.9304C23.1339 89.0903 24.695 88.5072 24.5341 84.8484C23.1547 83.4952 20.6494 82.598 18.6918 82.651C18.5044 82.656 18.4452 82.9061 18.3839 83.0491C18.2416 82.334 18.093 81.4638 17.9172 80.7676Z" fill="#E8A749"/>
<path d="M49.5162 57.9342L49.8112 57.9302C52.2095 59.3195 53.3392 62.8431 52.8307 65.4286C51.1413 65.9037 50.1717 66.1748 48.4288 65.8737C47.6324 65.7557 46.8894 65.6297 46.1846 65.2246C45.4033 64.7745 44.8415 64.0264 44.629 63.1542C43.8316 60.0086 47.0031 58.5193 49.5162 57.9342Z" fill="#8A4C22"/>
<path d="M12.5626 44.9108C18.3011 41.7225 20.9132 49.8496 15.1602 53.3313C14.7623 53.0922 13.7849 52.5911 13.5046 52.3261C12.3235 51.2079 9.07632 47.2586 11.4495 45.8883C11.8996 45.4119 12.0283 45.2844 12.5626 44.9108Z" fill="#8A4C22"/>
<path d="M12.5626 44.9108L12.957 44.8299L12.9722 44.9562C12.6767 45.2795 11.9737 45.7748 11.5789 45.9428L11.4495 45.8883C11.8996 45.4119 12.0283 45.2844 12.5626 44.9108Z" fill="#985324"/>
<path d="M6.54381 49.3895C6.95672 48.7731 9.05337 46.8044 9.73379 46.7728C9.51269 48.9594 11.2476 51.584 12.9025 52.8742L13.0203 52.9642C13.9076 53.4843 14.6794 53.8254 15.6156 54.2495C14.5289 55.8008 13.9612 56.0728 12.7425 57.3911C11.9312 57.071 10.5874 56.4399 9.95389 55.8318C7.66765 54.1054 7.00666 52.021 6.54381 49.3895Z" fill="#FDFDFD"/>
<path d="M13.0203 52.9642C13.9076 53.4843 14.6794 53.8254 15.6156 54.2495C14.5289 55.8008 13.9612 56.0728 12.7425 57.3911C11.9312 57.071 10.5874 56.4399 9.95389 55.8318C11.16 54.9866 12.1312 54.1534 13.0203 52.9642Z" fill="#D9D9E2"/>
<path d="M52.6334 55.4777C55.0679 57.013 56.0637 58.5893 56.985 61.3198C57.1602 62.6981 57.0887 63.6433 56.8239 65.0066C55.7878 65.4046 54.7155 65.7817 53.6261 66.0138C53.8658 64.9696 53.9926 64.2524 53.759 63.1872C53.3795 61.3429 52.6706 59.2574 51.2409 57.9512C50.8664 57.6081 50.4113 57.3271 49.9975 56.96L49.931 56.901C50.6449 56.4519 51.8501 55.8758 52.6334 55.4777Z" fill="#FDFDFD"/>
<path d="M56.985 61.3198C57.1602 62.6981 57.0887 63.6433 56.8239 65.0066C55.7878 65.4046 54.7155 65.7817 53.6261 66.0138C53.8658 64.9696 53.9926 64.2524 53.759 63.1872C54.6642 62.9572 55.7415 62.4761 56.5329 61.981C56.9689 61.7079 56.8793 61.7719 56.985 61.3198Z" fill="#D9D9E2"/>
<path d="M3.51916 41.719C5.30752 42.8097 8.7482 44.3783 10.6855 45.209C10.0127 45.3328 9.77941 45.3198 9.19091 45.6797C8.67168 46.0449 8.09405 46.581 7.60845 47.0069C6.26683 45.974 4.9378 45.4032 3.62196 44.4232C3.57021 43.8161 3.40106 42.2646 3.51916 41.719Z" fill="#FDFDFD"/>
<path d="M60.3055 45.6487C61.8792 45.2032 65.078 44.4576 66.1301 43.3757C65.8995 44.692 65.7304 45.4254 65.2119 46.697C64.2232 47.0678 62.295 47.8636 61.3486 48.1099C60.9388 47.1235 60.5905 46.7276 60.3055 45.6487Z" fill="#D9D9E2"/>
<path d="M13.48 38.3448L13.604 38.2434L14.1047 38.5125L14.3973 38.5885C14.7087 39.157 16.069 42.5231 16.0667 43.0903C15.8079 43.0757 15.8198 43.0577 15.6 42.9103C15.3814 43.0064 15.4977 42.9857 15.2359 42.9375C14.594 43.1962 14.2835 43.0767 13.9702 42.5299L13.8262 42.9265C13.8544 43.0042 13.8339 43.0584 13.8242 43.1547C13.551 43.315 13.533 43.3048 13.2037 43.2809C12.7444 42.9767 11.8632 40.1399 11.6635 39.4558C11.8825 39.2512 11.9812 39.3062 12.3531 39.2534L12.4636 39.1968C13.0032 39.0908 13.1448 39.0151 13.5989 38.7114L13.6591 38.5579L13.48 38.3448Z" fill="#E8A749"/>
<path d="M12.3531 39.2534L12.4636 39.1968C12.6621 39.4928 13.8245 42.0822 13.9702 42.5299L13.8262 42.9265C13.8544 43.0042 13.8339 43.0584 13.8242 43.1547C13.551 43.315 13.533 43.3048 13.2037 43.2809C12.7444 42.9767 11.8632 40.1399 11.6635 39.4558C11.8825 39.2512 11.9812 39.3062 12.3531 39.2534Z" fill="#E8A749"/>
<path d="M12.3531 39.2534L12.4636 39.1968C12.6621 39.4928 13.8245 42.0822 13.9702 42.5299L13.8262 42.9265C13.2975 42.1761 12.6912 40.2084 12.3531 39.2534Z" fill="#6F3A1D"/>
<path d="M13.48 38.3448L13.604 38.2434L14.1047 38.5125L14.3973 38.5885C14.7087 39.157 16.069 42.5231 16.0667 43.0903C15.8079 43.0757 15.8198 43.0577 15.6 42.9103C15.3814 43.0064 15.4977 42.9857 15.2359 42.9375C14.9004 41.8918 14.1995 39.4557 13.5989 38.7114L13.6591 38.5579L13.48 38.3448Z" fill="#E8A749"/>
<path d="M13.48 38.3448L13.604 38.2434L14.1047 38.5125C13.9922 39.0041 15.3298 42.2237 15.6 42.9103C15.3814 43.0064 15.4977 42.9857 15.2359 42.9375C14.9004 41.8918 14.1995 39.4557 13.5989 38.7114L13.6591 38.5579L13.48 38.3448Z" fill="#6F3A1D"/>
<path d="M19.604 48.2727C20.5652 48.585 23.3904 49.4705 24.2115 49.8876L24.0249 50.0206C23.5648 50.1627 21.2757 52.6711 20.7843 53.2273C20.3672 53.0772 19.9159 52.8822 19.5013 52.7122C20.8043 50.7598 19.7313 50.4957 19.6115 48.4227L19.604 48.2727Z" fill="#FDFDFD"/>
<path d="M11.526 36.3805C11.9458 36.3066 12.1618 36.2096 12.5547 36.0599C13.0074 36.6002 14.0616 37.3173 13.9876 37.9639L13.604 38.2434L13.48 38.3448C11.1751 39.7738 11.4846 38.0491 11.526 36.3805Z" fill="#F9D9A1"/>
<path d="M18.1913 51.812C18.3888 51.2799 18.966 50.4677 19.4679 50.1977L19.6599 50.3937C20.1225 51.668 19.3993 52.4901 18.1824 52.7832C18.3908 53.2283 19.3612 53.2303 19.87 53.6334L19.9087 53.8434L19.7821 54.0194C19.6073 53.6203 17.9883 53.1153 17.4111 52.8472C17.6788 52.7952 17.7439 52.8032 17.939 52.6101C17.9895 52.2401 17.9984 52.13 18.1913 51.812Z" fill="#652B10"/>
<path d="M18.1913 51.812C18.3888 51.2799 18.966 50.4677 19.4679 50.1977L19.6599 50.3937C19.6587 50.6658 19.7203 50.9188 19.5477 51.0698C19.2823 51.3029 18.5222 51.715 18.1913 51.812Z" fill="var(--fill-0, #B87B1F)"/>
</g>
</svg>
