<svg width="11" height="11" viewBox="0 0 10.7131 10.7131" fill="none" xmlns="http://www.w3.org/2000/svg" aria-hidden="true">
  <path d="M2.04216 2.04215C2.13735 1.95345 2.26326 1.90516 2.39336 1.90745C2.52346 1.90975 2.64759 1.96245 2.73959 2.05446C2.8316 2.14647 2.8843 2.2706 2.8866 2.40069C2.8889 2.53079 2.8406 2.6567 2.7519 2.7519C2.06131 3.44252 1.67334 4.37918 1.67334 5.35585C1.67334 6.33251 2.06131 7.26917 2.7519 7.95979C2.8406 8.05499 2.8889 8.1809 2.8866 8.311C2.8843 8.44109 2.8316 8.56522 2.73959 8.65723C2.64759 8.74924 2.52346 8.80194 2.39336 8.80424C2.26326 8.80653 2.13735 8.75824 2.04216 8.66954C1.60688 8.2343 1.2616 7.71759 1.02603 7.14891C0.790454 6.58023 0.669206 5.97072 0.669206 5.35518C0.669206 4.73963 0.790454 4.13012 1.02603 3.56144C1.2616 2.99276 1.60688 2.47605 2.04216 2.04082M7.9598 2.04082C8.05395 1.94677 8.18159 1.89395 8.31467 1.89395C8.44775 1.89395 8.57538 1.94677 8.66954 2.04082C9.10482 2.47605 9.4501 2.99276 9.68567 3.56144C9.92124 4.13012 10.0425 4.73963 10.0425 5.35518C10.0425 5.97072 9.92124 6.58023 9.68567 7.14891C9.4501 7.71759 9.10482 8.2343 8.66954 8.66954C8.62319 8.71748 8.56776 8.75571 8.50648 8.782C8.4452 8.80828 8.3793 8.82211 8.31262 8.82265C8.24594 8.8232 8.17982 8.81046 8.11812 8.78519C8.05642 8.75991 8.00037 8.72259 7.95324 8.67542C7.90611 8.62825 7.86885 8.57216 7.84363 8.51043C7.81841 8.44871 7.80573 8.38257 7.80634 8.3159C7.80695 8.24922 7.82084 8.18333 7.84718 8.12208C7.87353 8.06082 7.91181 8.00543 7.9598 7.95912C8.65039 7.2685 9.03835 6.33184 9.03835 5.35518C9.03835 4.37851 8.65039 3.44185 7.9598 2.75123C7.91313 2.70459 7.87611 2.64922 7.85086 2.58827C7.8256 2.52732 7.8126 2.462 7.8126 2.39602C7.8126 2.33005 7.8256 2.26472 7.85086 2.20377C7.87611 2.14282 7.91313 2.08745 7.9598 2.04082ZM3.46432 3.46298C3.51029 3.41364 3.56573 3.37407 3.62733 3.34662C3.68893 3.31917 3.75543 3.30441 3.82286 3.30322C3.89029 3.30203 3.95726 3.31444 4.01979 3.33969C4.08232 3.36495 4.13912 3.40254 4.18681 3.45023C4.23449 3.49792 4.27209 3.55472 4.29734 3.61725C4.3226 3.67978 4.335 3.74675 4.33381 3.81418C4.33262 3.88161 4.31787 3.94811 4.29042 4.00971C4.26297 4.0713 4.2234 4.12675 4.17406 4.17272C4.01858 4.32816 3.89524 4.51271 3.81109 4.71583C3.72694 4.91895 3.68363 5.13666 3.68363 5.35651C3.68363 5.57637 3.72694 5.79408 3.81109 5.9972C3.89524 6.20032 4.01858 6.38487 4.17406 6.54031C4.26277 6.63551 4.31106 6.76142 4.30876 6.89151C4.30647 7.02161 4.25376 7.14574 4.16176 7.23775C4.06975 7.32975 3.94562 7.38246 3.81552 7.38475C3.68543 7.38705 3.55952 7.33876 3.46432 7.25005C2.96222 6.7478 2.68016 6.0667 2.68016 5.35651C2.68016 4.64633 2.96222 3.96523 3.46432 3.46298ZM6.54165 3.46298C6.63581 3.36894 6.76345 3.31611 6.89652 3.31611C7.0296 3.31611 7.15724 3.36894 7.25139 3.46298C7.75349 3.96523 8.03556 4.64633 8.03556 5.35651C8.03556 6.0667 7.75349 6.7478 7.25139 7.25005C7.20542 7.29939 7.14998 7.33896 7.08838 7.36641C7.02678 7.39386 6.96028 7.40862 6.89286 7.40981C6.82543 7.41099 6.75845 7.39859 6.69592 7.37333C6.63339 7.34808 6.57659 7.31049 6.52891 7.2628C6.48122 7.21511 6.44363 7.15831 6.41837 7.09578C6.39311 7.03325 6.38071 6.96628 6.3819 6.89885C6.38309 6.83142 6.39785 6.76492 6.42529 6.70332C6.45274 6.64173 6.49231 6.58628 6.54165 6.54031C6.85546 6.2264 7.03175 5.80071 7.03175 5.35685C7.03175 4.91299 6.85546 4.48729 6.54165 4.17339C6.49499 4.12675 6.45797 4.07138 6.43271 4.01043C6.40745 3.94948 6.39446 3.88416 6.39446 3.81818C6.39446 3.75221 6.40745 3.68688 6.43271 3.62593C6.45797 3.56499 6.49499 3.50961 6.54165 3.46298ZM5.35652 4.68695C5.5341 4.68695 5.70441 4.75749 5.82997 4.88306C5.95554 5.00863 6.02609 5.17893 6.02609 5.35651C6.02609 5.5341 5.95554 5.7044 5.82997 5.82997C5.70441 5.95554 5.5341 6.02608 5.35652 6.02608C5.17894 6.02608 5.00863 5.95554 4.88306 5.82997C4.75749 5.7044 4.68695 5.5341 4.68695 5.35651C4.68695 5.17893 4.75749 5.00863 4.88306 4.88306C5.00863 4.75749 5.17894 4.68695 5.35652 4.68695Z" fill="#EDEBE7"/>
</svg>
