<svg preserveAspectRatio="none" width="100%" height="100%" overflow="visible" style="display: block;" viewBox="0 0 38 59" fill="none" xmlns="http://www.w3.org/2000/svg">
<g id="Vector">
<path d="M2.04109 28.5157C2.25828 28.0642 1.92979 27.862 1.73116 27.4256C1.40773 26.6963 1.12535 25.9494 0.88539 25.1884C-0.563809 20.5099 -0.225043 15.4592 1.83594 11.0168C3.30461 7.88204 5.79252 5.19177 8.71718 3.36377C9.46552 2.89549 10.2337 2.14741 11.093 1.90651C14.263 1.01784 17.6728 0.177722 20.9603 0.00633266C22.7106 -0.0849705 23.6987 0.831096 25.1825 1.45873C26.6103 2.04204 28.2289 2.50416 29.5333 3.34722C33.1631 5.69343 35.6417 9.90248 37.0826 13.8847C38.8761 18.8412 37.8538 23.6254 35.6235 28.2289C35.5894 28.3003 35.554 28.3711 35.5173 28.4413C35.7392 28.7988 36.1278 29.275 36.289 29.552C39.1347 34.0835 34.5498 37.4469 30.4054 37.6666C29.7454 37.8472 29.3573 37.8587 28.677 37.8808C29.4147 38.1164 31.6624 38.8742 32.2175 39.2701C32.6855 39.4422 32.9724 39.5486 33.3859 39.8462C34.0643 40.2733 34.9534 40.9742 35.2881 41.7188C35.731 42.4345 35.9031 42.8986 35.9118 43.7634C35.9416 43.9829 35.9586 44.0243 35.9101 44.2355C35.8399 45.5483 35.5214 46.4764 34.5072 47.4027C33.6684 48.1545 32.614 48.622 31.4942 48.7389C31.0169 49.0534 30.9747 49.227 30.7963 49.7801C30.275 51.6851 29.6895 52.4365 27.9019 53.3291C24.8334 54.6918 22.713 52.431 21.1861 50.1539C20.8691 49.5506 20.5706 48.9377 20.2909 48.3162C20.101 47.7964 19.9692 47.3693 19.8166 46.8378C19.751 47.3609 19.6904 47.9707 19.5862 48.4807C19.4895 49.7656 18.7969 52.5691 18.2293 53.8001C17.4534 55.6132 16.8694 56.8078 15.562 58.2806C14.5853 59.6311 13.2875 58.85 12.3499 57.819C11.5612 56.9518 12.1603 56.3659 12.9208 55.8327C13.4893 55.4341 14.1207 54.8472 14.6515 54.3589C15.6828 53.0494 16.299 51.9707 16.9449 50.4256C17.1206 50.0053 17.2621 49.5277 17.4472 49.1308L17.4717 49.0795C17.6293 48.5475 17.7679 48.0639 17.8983 47.5237C18.0676 46.7563 18.1508 46.3044 18.2271 45.5248C17.9062 46.3977 17.5701 47.2378 17.1516 48.0693C16.9902 48.4663 16.8835 48.709 16.6785 49.0837C15.9323 50.4958 14.8839 51.9325 13.4406 52.6928C13.0898 52.8701 12.7153 52.9962 12.3287 53.0674C9.78592 53.5221 7.13877 52.2315 6.69045 49.5412L6.45361 48.3423L5.48947 47.9978C3.55026 47.4906 2.584 46.5119 1.90252 44.6732C1.65007 43.7483 1.68874 43.1515 1.90583 42.2512C2.38831 40.757 2.95344 40.1978 4.18757 39.3339C4.71358 38.9377 6.14368 38.3589 6.78412 38.1909C7.57911 38.0042 8.39715 37.7865 9.19177 37.5867C8.73279 37.4922 8.27529 37.4557 7.81934 37.3253C7.15062 37.2962 6.73976 37.1642 6.1233 36.958C3.7927 36.4957 1.55714 35.1378 0.802739 32.7878C0.755078 31.0412 0.859493 29.9005 2.04109 28.5157Z" fill="#68240C"/>
<path d="M11.3335 21.4477C11.8612 21.3267 12.9311 21.6871 13.365 21.9742C15.9146 23.6615 17.0752 27.5261 17.8016 30.3385C18.1036 31.5077 18.2419 33.2474 18.5999 34.3017L18.886 34.2826C19.11 33.9921 19.8863 30.4711 20.201 29.6023C21.3309 26.4822 22.3224 23.5923 25.4203 21.9989C25.2555 22.6126 25.1667 23.1973 25.3093 23.823C25.49 24.6272 25.9945 25.3209 26.7033 25.74C27.4996 26.2208 28.1307 26.2271 28.9998 26.2236C29.8805 26.2199 30.3421 25.7655 31.146 25.5744C31.4395 25.8917 31.4694 26.9991 31.5062 27.4581C33.6395 27.8357 34.884 28.4013 36.068 30.33C36.203 30.1247 36.2391 29.8042 36.289 29.552C39.1347 34.0835 34.5498 37.4469 30.4054 37.6666C29.7454 37.8472 29.3573 37.8587 28.677 37.8808C29.4147 38.1164 31.6624 38.8742 32.2175 39.2701C32.6855 39.4422 32.9724 39.5486 33.3859 39.8462C34.0643 40.2733 34.9534 40.9742 35.2881 41.7188C35.731 42.4345 35.9031 42.8986 35.9118 43.7634C35.9416 43.9829 35.9586 44.0243 35.9101 44.2355C35.8399 45.5483 35.5214 46.4764 34.5072 47.4027C33.6684 48.1545 32.614 48.622 31.4942 48.7389C31.0169 49.0534 30.9747 49.227 30.7963 49.7801C30.275 51.6851 29.6895 52.4365 27.9019 53.3291C24.8334 54.6918 22.713 52.431 21.1861 50.1539C20.8691 49.5506 20.5706 48.9377 20.2909 48.3162C20.101 47.7964 19.9692 47.3693 19.8166 46.8378C19.751 47.3609 19.6904 47.9707 19.5862 48.4807C19.4895 49.7656 18.7969 52.5691 18.2293 53.8001C17.4534 55.6132 16.8694 56.8078 15.562 58.2806C14.5853 59.6311 13.2875 58.85 12.3499 57.819C11.5612 56.9518 12.1603 56.3659 12.9208 55.8327C13.4893 55.4341 14.1207 54.8472 14.6515 54.3589C15.6828 53.0494 16.299 51.9707 16.9449 50.4256C17.1206 50.0053 17.2621 49.5277 17.4472 49.1308L17.4717 49.0795C17.6293 48.5475 17.7679 48.0639 17.8983 47.5237C18.0676 46.7563 18.1508 46.3044 18.2271 45.5248C17.9062 46.3977 17.5701 47.2378 17.1516 48.0693C16.9902 48.4663 16.8835 48.709 16.6785 49.0837C15.9323 50.4958 14.8839 51.9325 13.4406 52.6928C13.0898 52.8701 12.7153 52.9962 12.3287 53.0674C9.78592 53.5221 7.13877 52.2315 6.69045 49.5412L6.45361 48.3423L5.48947 47.9978C3.55026 47.4906 2.584 46.5119 1.90252 44.6732C1.65007 43.7483 1.68874 43.1515 1.90583 42.2512C2.38831 40.757 2.95344 40.1978 4.18757 39.3339C4.71358 38.9377 6.14368 38.3589 6.78412 38.1909C7.57911 38.0042 8.39715 37.7865 9.19177 37.5867C8.73279 37.4922 8.27529 37.4557 7.81934 37.3253C7.15062 37.2962 6.73976 37.1642 6.1233 36.958C3.7927 36.4957 1.55714 35.1378 0.802739 32.7878C0.755078 31.0412 0.859493 29.9005 2.04109 28.5157C2.22935 29.0625 2.04571 29.0411 2.0773 29.4026C2.14121 29.3194 2.2066 29.2373 2.27327 29.1563C3.44211 27.7415 4.85016 27.1186 6.64235 26.9549L6.71591 25.557C7.0499 25.6346 7.50907 25.7622 7.83746 25.7953C9.66307 25.9792 11.6693 24.888 11.7332 22.8813C11.7531 22.261 11.5757 21.9913 11.3335 21.4477Z" fill="#91C856"/>
<path d="M18.4112 47.5748C18.5716 46.7822 18.7532 44.3902 18.8381 44.1351L18.9546 44.0878C19.3311 44.5587 19.2782 45.5673 19.2976 46.178C19.264 46.6018 19.1888 47.9272 19.1168 48.2764C19.272 48.3292 19.497 48.3748 19.5862 48.4807C19.4895 49.7656 18.7969 52.5691 18.2293 53.8001C17.4534 55.6132 16.8694 56.8078 15.562 58.2806C14.5853 59.6311 13.2875 58.85 12.3499 57.819C11.5612 56.9518 12.1603 56.3659 12.9208 55.8327C13.4893 55.4341 14.1207 54.8472 14.6515 54.3589C15.6828 53.0494 16.299 51.9707 16.9449 50.4256C17.1206 50.0053 17.2621 49.5277 17.4472 49.1308L17.4717 49.0795C17.6293 48.5475 17.7679 48.0639 17.8983 47.5237C18.1229 47.5592 18.03 47.5762 18.2372 47.4434L18.2993 47.5505L18.4112 47.5748Z" fill="#92C054"/>
<path d="M19.1168 48.2764C19.272 48.3292 19.497 48.3748 19.5862 48.4807C19.4895 49.7656 18.7969 52.5691 18.2293 53.8001C17.4534 55.6132 16.8694 56.8078 15.562 58.2806C15.2246 58.346 15.141 58.3551 14.8038 58.2863C14.7402 58.1076 14.5857 57.8138 14.498 57.6335C16.2002 55.9769 16.7862 53.7231 17.9216 51.8489L18.017 52.0505C18.297 51.4501 18.0114 51.1035 18.685 50.4247C18.7128 50.07 19.0293 48.6975 19.1168 48.2764Z" fill="#78AF41"/>
<path d="M19.1168 48.2764C19.272 48.3292 19.497 48.3748 19.5862 48.4807C19.4895 49.7656 18.7969 52.5691 18.2293 53.8001C17.9634 53.8201 17.8942 53.8345 17.6407 53.7595C18.0748 52.6134 18.4193 51.6203 18.685 50.4247C18.7128 50.07 19.0293 48.6975 19.1168 48.2764Z" fill="#68240C"/>
<path d="M17.6407 53.7595C17.8942 53.8345 17.9634 53.8201 18.2293 53.8001C17.4534 55.6132 16.8694 56.8078 15.562 58.2806C15.2246 58.346 15.141 58.3551 14.8038 58.2863C16.0421 57.1088 16.9389 55.2993 17.6407 53.7595Z" fill="#632108"/>
<path d="M17.4717 49.0795L17.8326 48.6963L17.9033 48.7149C17.8699 48.9815 17.8291 49.209 17.8636 49.4777C17.5736 50.9504 16.229 53.355 15.2163 54.5095C14.8633 54.9282 13.0038 56.4655 12.9728 56.6614C13.7392 57.0319 13.8777 57.044 14.498 57.6335C14.5857 57.8138 14.7402 58.1076 14.8038 58.2863C15.141 58.3551 15.2246 58.346 15.562 58.2806C14.5853 59.6311 13.2875 58.85 12.3499 57.819C11.5612 56.9518 12.1603 56.3659 12.9208 55.8327C13.4893 55.4341 14.1207 54.8472 14.6515 54.3589C15.6828 53.0494 16.299 51.9707 16.9449 50.4256C17.1206 50.0053 17.2621 49.5277 17.4472 49.1308L17.4717 49.0795Z" fill="#68240C"/>
<path d="M12.5003 57.0243C13.5047 57.2053 13.9941 57.483 14.4565 58.4039C13.505 58.3469 12.9605 57.8177 12.5003 57.0243Z" fill="#78AF41"/>
<path d="M17.8983 47.5237C18.1229 47.5592 18.03 47.5762 18.2372 47.4434L18.2993 47.5505L18.4112 47.5748C18.3894 47.9337 18.031 49.1578 17.8636 49.4777C17.8291 49.209 17.8699 48.9815 17.9033 48.7149L17.8326 48.6963L17.4717 49.0795C17.6293 48.5475 17.7679 48.0639 17.8983 47.5237Z" fill="#632108"/>
<path d="M35.2881 41.7188C35.731 42.4345 35.9031 42.8986 35.9118 43.7634C35.9416 43.9829 35.9586 44.0243 35.9101 44.2355C35.8399 45.5483 35.5214 46.4764 34.5072 47.4027C33.6684 48.1545 32.614 48.622 31.4942 48.7389C31.0169 49.0534 30.9747 49.227 30.7963 49.7801C30.275 51.6851 29.6895 52.4365 27.9019 53.3291C24.8334 54.6918 22.713 52.431 21.1861 50.1539C20.8691 49.5506 20.5706 48.9377 20.2909 48.3162C20.6239 48.2838 20.7761 48.4178 21.0629 48.5962L21.3969 49.2506C22.4987 49.2921 22.7483 51.4677 25.1796 51.7442C29.1672 52.1978 28.573 50.0917 30.2744 47.5418C30.6781 46.9368 32.3754 46.7415 32.9135 46.1382C34.234 45.055 34.6945 43.8823 34.9175 42.2158L35.0766 42.5187C35.1376 42.1911 35.161 42.0298 35.2881 41.7188Z" fill="#78AF41"/>
<path d="M35.3942 44.8164C35.7301 44.7862 35.7912 44.4938 35.9101 44.2355C35.8399 45.5483 35.5214 46.4764 34.5072 47.4027C33.6684 48.1545 32.614 48.622 31.4942 48.7389C31.0169 49.0534 30.9747 49.227 30.7963 49.7801C30.275 51.6851 29.6895 52.4365 27.9019 53.3291C27.8196 53.0905 27.7773 53.0241 27.8116 52.7759C29.7008 51.6487 29.9184 50.8233 30.5049 48.8808C30.5338 48.6438 30.5544 48.6193 30.7102 48.4365C33.2796 47.8 34.4098 47.4916 35.3942 44.8164Z" fill="#632108"/>
<path d="M20.2909 48.3162C20.6239 48.2838 20.7761 48.4178 21.0629 48.5962L21.3969 49.2506L21.5234 49.5534C21.8746 50.1835 22.161 50.644 22.5884 51.2202C23.6593 52.6635 26.1221 53.7499 27.8116 52.7759C27.7773 53.0241 27.8196 53.0905 27.9019 53.3291C24.8334 54.6918 22.713 52.431 21.1861 50.1539C20.8691 49.5506 20.5706 48.9377 20.2909 48.3162Z" fill="#632108"/>
<path d="M35.2881 41.7188C35.731 42.4345 35.9031 42.8986 35.9118 43.7634C35.7939 43.4575 35.7649 43.4258 35.5395 43.1958L35.4058 43.2196L35.3884 43.4245C35.3519 43.3553 35.1175 42.6391 35.0766 42.5187C35.1376 42.1911 35.161 42.0298 35.2881 41.7188Z" fill="#68240C"/>
<path d="M35.3884 43.4245L35.4058 43.2196L35.5395 43.1958C35.7649 43.4258 35.7939 43.4575 35.9118 43.7634C35.9416 43.9829 35.9586 44.0243 35.9101 44.2355C35.7912 44.4938 35.7301 44.7862 35.3942 44.8164C35.4438 44.293 35.4174 43.9425 35.3884 43.4245Z" fill="#632108"/>
<path d="M2.4719 42.3257C2.66879 41.8478 2.74951 41.6474 3.03419 41.2033C3.19848 41.5544 3.21005 42.0615 3.19609 42.428C3.12547 44.2807 3.79033 45.715 5.62624 46.347C6.53712 46.7015 7.2299 46.9193 7.61449 47.9063C8.20377 49.4189 7.97851 50.354 9.68539 51.0685C10.6949 51.4911 11.8307 51.7067 12.8729 51.2923C14.6927 50.5687 15.1979 48.9538 16.1884 47.483C16.4729 47.0607 16.7051 47.3146 17.0935 46.6751L16.8297 47.4292L16.0692 49.0376C16.3308 49.1577 16.4005 49.1324 16.6785 49.0837C15.9323 50.4958 14.8839 51.9325 13.4406 52.6928C13.0898 52.8701 12.7153 52.9962 12.3287 53.0674C9.78592 53.5221 7.13877 52.2315 6.69045 49.5412L6.45361 48.3423L5.48947 47.9978C3.55026 47.4906 2.584 46.5119 1.90252 44.6732C1.65007 43.7483 1.68874 43.1515 1.90583 42.2512L2.084 42.4659C2.21137 42.4175 2.34168 42.3632 2.4719 42.3257Z" fill="#78AF41"/>
<path d="M6.69045 49.5412C6.93481 49.4453 7.03951 49.3081 7.22556 49.1222C7.88611 51.8038 9.71412 53.2024 12.5149 52.4587C12.6853 52.4125 12.8539 52.3596 13.0203 52.3003C13.3075 52.4017 13.3235 52.372 13.4406 52.6928C13.0898 52.8701 12.7153 52.9962 12.3287 53.0674C9.78592 53.5221 7.13877 52.2315 6.69045 49.5412Z" fill="#632108"/>
<path d="M2.39285 44.3744C3.22825 46.3941 4.29239 47.35 6.49388 47.6764C6.05207 47.9411 5.98959 47.9577 5.48947 47.9978C3.55026 47.4906 2.584 46.5119 1.90252 44.6732L2.39285 44.3744Z" fill="#632108"/>
<path d="M13.02 52.3006C14.4959 51.4104 15.1423 50.4958 16.0692 49.0376C16.3308 49.1577 16.4005 49.1324 16.6785 49.0837C15.9323 50.4958 14.8839 51.9325 13.4406 52.6928C13.3235 52.372 13.3072 52.402 13.02 52.3006Z" fill="#632108"/>
<path d="M1.90583 42.2512L2.084 42.4659C2.21137 42.4175 2.34168 42.3632 2.4719 42.3257C2.2887 43.1782 2.24978 43.4754 2.39285 44.3744L1.90252 44.6732C1.65007 43.7483 1.68874 43.1515 1.90583 42.2512Z" fill="#68240C"/>
<path d="M6.49388 47.6764C7.11815 47.9875 7.10379 48.4665 7.22556 49.1222C7.03951 49.3081 6.93481 49.4453 6.69045 49.5412L6.45361 48.3423L5.48947 47.9978C5.98959 47.9577 6.05207 47.9411 6.49388 47.6764Z" fill="#68240C"/>
<path d="M36.289 29.552C39.1347 34.0835 34.5498 37.4469 30.4054 37.6666C30.0062 37.4515 30.0363 37.5285 29.5153 37.5495C29.7364 37.436 29.9185 37.3324 30.1315 37.2067C28.082 37.5251 26.7165 37.5067 24.6691 37.4321C24.8096 37.2536 25.0221 37.0197 25.2541 36.9892C28.9907 36.4991 33.8357 36.08 36.0603 32.549C36.3467 32.0943 36.4811 32.0944 36.4518 31.4887C36.4148 31.0621 36.2381 30.7209 36.068 30.33C36.203 30.1247 36.2391 29.8042 36.289 29.552Z" fill="#78AF41"/>
<path d="M36.289 29.552C39.1347 34.0835 34.5498 37.4469 30.4054 37.6666C30.0062 37.4515 30.0363 37.5285 29.5153 37.5495C29.7364 37.436 29.9185 37.3324 30.1315 37.2067C33.3103 36.543 37.0485 35.6661 36.4518 31.4887C36.4148 31.0621 36.2381 30.7209 36.068 30.33C36.203 30.1247 36.2391 29.8042 36.289 29.552Z" fill="#632108"/>
<path d="M1.36061 32.2442L1.49973 32.8552C2.40951 33.0981 3.10183 34.6687 4.69603 35.2418C6.4244 35.8631 7.9849 36.3059 9.80841 36.6585C10.2971 36.753 11.8866 36.9879 12.2521 37.1219C10.5103 37.1541 9.58076 37.0166 7.85368 36.7932L7.17715 36.6498C6.84178 36.78 6.47777 36.9491 6.1233 36.958C3.7927 36.4957 1.55714 35.1378 0.802739 32.7878C0.983281 32.6308 1.1875 32.4159 1.36061 32.2442Z" fill="#78AF41"/>
<path d="M1.36061 32.2442L1.49973 32.8552C2.25946 35.1951 4.93719 36.2606 7.17715 36.6498C6.84178 36.78 6.47777 36.9491 6.1233 36.958C3.7927 36.4957 1.55714 35.1378 0.802739 32.7878C0.983281 32.6308 1.1875 32.4159 1.36061 32.2442Z" fill="#632108"/>
<path d="M18.5432 41.7847L19.0853 41.6469C19.3333 42.8377 19.5634 44.1868 19.9205 45.3323C19.7971 45.1638 19.7158 45.0241 19.5435 44.9077C19.3662 45.1102 19.4435 45.6897 19.2976 46.178C19.2782 45.5673 19.3311 44.5587 18.9546 44.0878L18.8381 44.1351C18.7532 44.3902 18.5716 46.7822 18.4112 47.5748L18.2993 47.5505L18.2372 47.4434C18.03 47.5762 18.1229 47.5592 17.8983 47.5237C18.0676 46.7563 18.1508 46.3044 18.2271 45.5248C17.9062 46.3977 17.5701 47.2378 17.1516 48.0693C16.9902 48.4663 16.8835 48.709 16.6785 49.0837C16.4005 49.1324 16.3308 49.1577 16.0692 49.0376L16.8297 47.4292L17.0935 46.6751C17.4627 46.0288 18.369 42.6076 18.5432 41.7847Z" fill="#68240C"/>
<path d="M24.6691 37.4321C26.7165 37.5067 28.082 37.5251 30.1315 37.2067C29.9185 37.3324 29.7364 37.436 29.5153 37.5495C30.0363 37.5285 30.0062 37.4515 30.4054 37.6666C29.7454 37.8472 29.3573 37.8587 28.677 37.8808C29.4147 38.1164 31.6624 38.8742 32.2175 39.2701C31.7903 39.18 31.5528 39.0667 31.197 39.3588C29.788 38.906 28.3872 38.5197 26.9198 38.2905C26.0222 38.1503 24.5415 38.1721 23.726 37.9543C23.9743 37.4417 24.0214 37.5176 24.535 37.3881L24.6691 37.4321Z" fill="#68240C"/>
<path d="M7.17715 36.6498L7.85368 36.7932C9.58076 37.0166 10.5103 37.1541 12.2521 37.1219C12.769 37.1841 13.0609 37.206 13.5837 37.2147L13.7684 37.5426C13.2875 37.9999 12.5298 37.8914 11.8555 37.9224C10.4942 37.9849 9.20841 38.0928 7.88475 38.4416C7.41769 38.2424 7.22096 38.6777 6.78412 38.1909C7.57911 38.0042 8.39715 37.7865 9.19177 37.5867C8.73279 37.4922 8.27529 37.4557 7.81934 37.3253C7.15062 37.2962 6.73976 37.1642 6.1233 36.958C6.47777 36.9491 6.84178 36.78 7.17715 36.6498Z" fill="#68240C"/>
<path d="M7.17715 36.6498L7.85368 36.7932L7.82332 37.1578L7.92084 37.2683L7.81934 37.3253C7.15062 37.2962 6.73976 37.1642 6.1233 36.958C6.47777 36.9491 6.84178 36.78 7.17715 36.6498Z" fill="#68240C"/>
<path d="M19.2976 46.178C19.4435 45.6897 19.3662 45.1102 19.5435 44.9077C19.7158 45.0241 19.7971 45.1638 19.9205 45.3323C20.1538 46.0408 20.7643 47.982 21.0629 48.5962C20.7761 48.4178 20.6239 48.2838 20.2909 48.3162C20.101 47.7964 19.9692 47.3693 19.8166 46.8378C19.751 47.3609 19.6904 47.9707 19.5862 48.4807C19.497 48.3748 19.272 48.3292 19.1168 48.2764C19.1888 47.9272 19.264 46.6018 19.2976 46.178Z" fill="#632108"/>
<path d="M2.04109 28.5157C2.22935 29.0625 2.04571 29.0411 2.0773 29.4026C1.57296 30.3959 1.32378 31.0945 1.36061 32.2442C1.1875 32.4159 0.983281 32.6308 0.802739 32.7878C0.755078 31.0412 0.859493 29.9005 2.04109 28.5157Z" fill="#68240C"/>
<path d="M4.18757 39.3339L4.41417 39.8274C3.83351 40.272 3.4602 40.5793 3.03419 41.2033C2.74951 41.6474 2.66879 41.8478 2.4719 42.3257C2.34168 42.3632 2.21137 42.4175 2.084 42.4659L1.90583 42.2512C2.38831 40.757 2.95344 40.1978 4.18757 39.3339Z" fill="#68240C"/>
<path d="M19.2693 37.5079C20.8002 37.2724 23.0142 37.253 24.535 37.3881C24.0214 37.5176 23.9743 37.4417 23.726 37.9543C23.4484 37.8902 22.241 37.8408 21.8933 37.83C20.8585 37.7977 20.2791 37.7207 19.2693 37.5079Z" fill="#78AF41"/>
<path d="M4.18732 39.3336C4.71333 38.9374 6.14343 38.3586 6.78387 38.1906C7.22071 38.6774 7.41769 38.2424 7.88475 38.4416C6.53151 38.8622 5.68705 39.1553 4.41417 39.8274L4.18732 39.3336Z" fill="#632108"/>
<path d="M18.5432 41.7847C18.3877 41.4503 18.5224 38.6786 18.8168 38.4169L18.9587 38.5079C19.2335 39.2473 19.1103 40.805 19.0853 41.6469L18.5432 41.7847Z" fill="#78AF41"/>
<path d="M13.5837 37.2147C14.184 37.0739 16.7031 37.0092 17.2253 37.2632L17.2334 37.4019C16.6493 37.793 14.0372 37.332 13.7684 37.5426L13.5837 37.2147Z" fill="#78AF41"/>
<path d="M33.3859 39.8462C34.0643 40.2733 34.9534 40.9742 35.2881 41.7188C35.161 42.0298 35.1376 42.1911 35.0766 42.5187L34.9175 42.2158C34.5796 41.6019 34.254 41.2619 33.7677 40.7601C33.6587 40.0324 33.4186 40.6487 33.3859 39.8462Z" fill="#68240C"/>
<path d="M31.197 39.3588C31.5528 39.0667 31.7903 39.18 32.2175 39.2701C32.6855 39.4422 32.9724 39.5486 33.3859 39.8462C33.4186 40.6487 33.6587 40.0324 33.7677 40.7601C32.8363 40.1168 32.2412 39.7887 31.197 39.3588Z" fill="#632108"/>
<path d="M18.5999 34.3017L18.886 34.2826C18.9256 34.9213 19.0791 36.2886 18.7887 36.7968L18.6293 36.8057C18.2443 36.1695 18.4728 35.0179 18.5999 34.3017Z" fill="#78AF41"/>
<path d="M7.94131 28.0833C8.52325 28.2038 10.6401 29.9538 11.182 30.3938C13.6155 32.3699 16.1219 34.3162 18.122 36.7497C18.122 36.7497 18.1628 37.0589 18.1661 37.0835C17.8393 37.0342 16.3634 35.3113 15.9858 34.9037C14.4184 33.2116 12.7062 31.9628 10.9415 30.5235C10.3541 30.0443 8.28972 28.5347 7.94131 28.0833Z" fill="#78AF41"/>
<path d="M29.6088 28.6407C29.7081 28.6331 29.6878 28.6446 29.794 28.693C29.665 28.8839 28.0119 29.9711 27.6348 30.2532C25.2423 32.0424 21.3363 34.7554 19.6103 37.1285C19.5227 37.1356 19.4863 37.1136 19.3946 37.0892L19.3927 36.8992C20.1015 35.3124 27.9504 29.7039 29.6088 28.6407Z" fill="#78AF41"/>
<path d="M19.392 38.0997C19.4613 38.1141 19.6758 38.1797 19.7157 38.2307C20.8521 39.6889 28.0873 45.1621 28.2036 46.2659C27.5068 45.8161 26.4873 44.523 25.7706 43.9319C23.6631 42.1939 21.5766 40.4247 19.514 38.6337C19.3346 38.478 19.3848 38.3101 19.392 38.0997Z" fill="#78AF41"/>
<path d="M17.9465 38.1048C18.0412 38.2106 18.0189 38.2005 18.0587 38.35C17.7763 39.0599 12.642 42.8456 11.6796 43.6717C10.8005 44.4264 9.87282 45.2042 8.98756 46.1243L8.93926 46.0143C9.16324 45.2001 14.5228 41.1048 15.4023 40.3719C16.1254 39.7694 17.2062 38.7925 17.9465 38.1048Z" fill="#78AF41"/>
<path d="M20.5726 0.75099C22.1643 0.394236 23.9034 1.67257 25.3096 2.30103C26.6483 2.89933 28.0848 3.29773 29.3308 4.06475C30.9251 5.06973 33.3415 7.82657 34.1213 9.57862C34.2206 9.80178 34.134 10.3334 34.434 10.5967C34.6202 10.7601 35.3005 11.4017 35.3686 11.5363C36.1095 13.0007 36.9083 15.4914 37.114 17.0713C35.4988 17.5232 35.2401 18.7692 35.1201 20.3483C34.9966 21.9725 34.8466 23.9888 34.1824 25.5231C34.0075 25.9273 33.3167 26.7673 33.0261 27.1408C32.7576 27.1095 32.5947 27.0688 32.3375 27.0048C31.9211 26.728 31.9316 25.6913 31.7724 24.9986C32.1979 24.6086 33.0566 23.7763 33.1758 23.2473C33.5122 21.7542 31.7019 20.6592 30.5327 20.3424C28.722 19.8516 27.5775 20.3307 26.0329 21.1337C25.451 21.4362 24.8085 21.6202 24.2385 21.9576C21.1597 23.873 19.716 29.121 18.818 32.3461C17.9947 28.6446 16.5767 21.6757 12.0814 20.9147C11.8046 20.8581 11.2711 20.8156 10.9724 20.7825C10.498 20.515 9.84376 20.2122 9.35393 19.9777C7.73962 19.205 3.4069 20.6138 3.78855 22.8452C4.00821 24.1294 6.06056 24.8585 6.20419 25.9898C6.01951 26.5523 4.2838 26.8424 3.72978 27.1545C3.39303 27.3442 3.09752 27.5056 2.77032 27.7207C1.91601 25.8425 1.02928 23.2119 0.738723 21.1554C0.664155 20.6278 0.707866 19.526 0.725131 18.9511C0.65442 18.1362 1.25151 15.0005 1.52388 14.2059C1.89654 13.1341 1.87762 12.5884 2.50336 11.4488C3.01735 10.3194 3.77248 9.18352 4.51356 8.19381C6.50815 5.64523 7.44236 5.18191 10.0528 3.46085C10.2492 3.31502 10.4982 3.15476 10.704 3.01417C11.4707 2.30912 16.6762 1.13569 17.7598 1.09487C18.726 0.936722 19.6015 0.847902 20.5726 0.75099Z" fill="#F6C35D"/>
<path d="M1.52388 14.2059C2.50226 14.0757 3.37802 13.8975 4.1753 14.6166C5.12347 15.4715 6.11084 16.2543 6.4407 17.5216C6.22416 18.3713 6.02112 19.0004 5.21438 19.4295C3.99412 20.0785 1.94581 19.8163 1.15569 18.5951C1.06982 18.4623 0.982307 18.2569 0.853191 18.2625L0.725131 18.9511C0.65442 18.1362 1.25151 15.0005 1.52388 14.2059Z" fill="#AC5E29"/>
<path d="M4.51356 8.19381C6.50815 5.64523 7.44236 5.18191 10.0528 3.46085C10.1484 3.91148 10.2193 3.99239 9.87848 4.37553C9.48002 4.59078 9.08138 4.96408 8.6854 5.22733C7.58994 5.73487 7.43492 5.8944 6.62634 6.76192C5.85642 7.44407 5.17448 8.74401 4.79696 9.0524C4.69687 8.80783 4.69475 8.59405 4.51356 8.19381Z" fill="#F6C35D"/>
<path d="M4.51356 8.19381C4.69475 8.59405 4.69687 8.80783 4.79696 9.0524C4.55122 9.32677 4.46934 9.37933 4.49248 9.79116C3.76279 10.0346 3.98391 11.0529 3.42144 11.5822C2.8913 11.764 2.93874 11.611 2.50336 11.4488C3.01735 10.3194 3.77248 9.18352 4.51356 8.19381Z" fill="var(--fill-0, #FBE0B5)"/>
<path d="M17.7598 1.09487C18.726 0.936722 19.6015 0.847902 20.5726 0.75099C20.5172 1.88212 18.2162 1.88951 17.8332 1.50103C17.7855 1.34242 17.7491 1.26277 17.7598 1.09487Z" fill="var(--fill-0, #FBE0B5)"/>
<path d="M6.62634 6.76192C6.78631 6.93873 6.81914 6.98078 7.01217 7.11613C6.3766 7.69006 5.15542 9.5746 4.54327 9.77302C4.52609 9.77863 4.50947 9.78518 4.49248 9.79116C4.46934 9.37933 4.55122 9.32677 4.79696 9.0524C5.17448 8.74401 5.85642 7.44407 6.62634 6.76192Z" fill="#F8D48C"/>
<path d="M10.704 3.01417C11.0541 3.30049 11.1833 3.40122 11.2377 3.83962C11.021 4.34882 10.605 4.48665 10.1145 4.7179C10.0251 4.61473 9.9536 4.49138 9.87848 4.37553C10.2193 3.99239 10.1484 3.91148 10.0528 3.46085C10.2492 3.31502 10.4982 3.15476 10.704 3.01417Z" fill="var(--fill-0, #FBE0B5)"/>
<path d="M6.62634 6.76192C7.43492 5.8944 7.58994 5.73487 8.6854 5.22733L8.78999 5.56835C8.21962 6.06891 7.59521 6.64159 7.01217 7.11613C6.81914 6.98078 6.78631 6.93873 6.62634 6.76192Z" fill="var(--fill-0, #FBE0B5)"/>
<path d="M9.87848 4.37553C9.9536 4.49138 10.0251 4.61473 10.1145 4.7179C9.71153 4.97452 9.16907 5.29876 8.78999 5.56835L8.6854 5.22733C9.08138 4.96408 9.48002 4.59078 9.87848 4.37553Z" fill="#F8D48C"/>
<path d="M15.2509 16.2585C17.073 16.1553 19.2309 16.3737 21.0893 16.2775C22.0018 16.2303 22.2276 16.8974 22.2694 17.6991C22.331 18.8791 21.7466 19.7186 20.9835 20.558C19.2773 21.912 16.1729 21.4651 15.0694 19.5207C14.5825 18.6629 14.1697 16.8481 15.2509 16.2585Z" fill="#68240C"/>
<path d="M18.8803 18.2714C19.4603 18.2215 20.6276 18.3872 20.9718 18.9244C21.0836 20.0152 19.5669 20.4302 18.7257 20.5972C18.0518 20.6045 16.3272 20.4818 16.4797 19.5471C16.9589 18.8038 18.064 18.529 18.8803 18.2714Z" fill="#EB6B48"/>
<path d="M15.5835 16.7167C17.0672 16.8116 18.4954 16.8987 19.9803 16.7923C20.3453 16.7662 21.1548 16.6782 21.3884 16.9171C21.3076 17.1904 21.2548 17.1559 20.982 17.357C19.8271 17.8363 16.8213 18.3619 15.6188 17.3003C15.466 17.1653 15.5398 16.9018 15.5835 16.7167Z" fill="#F9F6F8"/>
<path d="M17.7349 5.84302C16.9877 4.91822 17.5666 3.94423 18.3938 3.30502C19.0103 2.83278 19.7891 2.62544 20.5584 2.72869C22.7116 3.01364 24.452 6.10066 21.4445 7.19722C20.0438 7.59075 18.5836 7.00477 17.7349 5.84302Z" fill="#A35622"/>
<path d="M17.7349 5.84302C18.382 6.20097 18.9473 6.90461 19.6838 7.01384C20.8258 6.23312 20.8532 7.31919 21.496 5.83683L21.5664 5.89613L21.5378 5.96583C21.3107 6.53277 21.4226 6.7163 21.3247 7.13429L21.4445 7.19722C20.0438 7.59075 18.5836 7.00477 17.7349 5.84302Z" fill="#BC6526"/>
<path d="M33.6049 15.9453C33.1299 16.0042 32.2338 16.1514 31.8342 15.9168C30.8537 15.3413 30.5274 13.2983 31.006 12.3692C31.3577 12.098 32.7051 11.2129 33.1106 11.1076C33.3996 11.2413 33.5208 11.4179 33.7285 11.6591C34.1317 12.121 34.3457 12.4501 34.5867 13.0191C34.6644 13.1923 34.7912 13.6387 34.8528 13.8373C34.6194 14.8987 34.5108 15.2751 33.6049 15.9453Z" fill="#F8D48C"/>
<path d="M33.7285 11.6591C34.1317 12.121 34.3457 12.4501 34.5867 13.0191C34.3736 13.2443 34.4773 13.1921 34.1997 13.2441C33.778 13.0659 33.2724 12.0688 33.7285 11.6591Z" fill="var(--fill-0, #FBE0B5)"/>
<path d="M10.4584 7.06367C10.9348 7.04335 11.2719 7.0291 11.7535 7.06257C12.783 7.72661 13.5042 8.76938 12.8388 9.99245C9.94661 13.5273 6.42054 9.52306 10.4584 7.06367Z" fill="#A35622"/>
<path d="M10.4584 7.06367C10.9348 7.04335 11.2719 7.0291 11.7535 7.06257C12.783 7.72661 13.5042 8.76938 12.8388 9.99245C11.2225 9.24014 11.4494 8.61169 10.4584 7.06367Z" fill="#86451E"/>
<path d="M25.5367 6.94141C26.1405 6.90895 26.6648 6.89902 27.2646 6.98573C27.6385 7.34073 27.7201 7.41916 27.9764 7.86097C28.5791 9.87405 27.5145 10.3028 25.7389 9.77263C24.4183 9.18427 24.2489 7.78833 25.5367 6.94141Z" fill="#A35622"/>
<path d="M27.9764 7.86097C28.5791 9.87405 27.5145 10.3028 25.7389 9.77263C25.9607 9.39593 27.0692 8.42731 27.4361 8.08398C27.5484 8.00307 27.8319 7.91402 27.9764 7.86097Z" fill="#BC6526"/>
<path d="M25.5367 6.94141C26.1405 6.90895 26.6648 6.89902 27.2646 6.98573C27.6385 7.34073 27.7201 7.41916 27.9764 7.86097C27.8319 7.91402 27.5484 8.00307 27.4361 8.08398C27.1283 7.76254 26.2358 7.64103 25.923 7.23205C25.7807 7.04604 25.7637 7.05128 25.5367 6.94141Z" fill="#BC6526"/>
<path d="M23.9669 14.3264C26.1358 14.1826 27.3312 16.2513 26.187 16.8884C25.5985 16.7335 25.6801 16.2649 25.203 15.5749C23.1228 14.8273 23.5214 16.8984 22.5084 16.6276C21.5907 15.6445 23.1368 14.6094 23.9669 14.3264Z" fill="#632108"/>
<path d="M11.7783 14.2267C13.0421 14.1381 14.6248 14.7874 14.3344 16.2802C14.1512 16.5387 14.2527 16.4704 13.9588 16.5451C13.2567 16.2523 13.6364 15.932 12.6702 15.3306C11.0151 14.7415 11.5705 16.5343 10.4923 16.7024C10.3158 16.6111 10.2602 16.5716 10.1965 16.3613C9.87809 15.3107 10.8522 14.474 11.7783 14.2267Z" fill="#632108"/>
<path d="M2.1668 24.1845C2.73791 24.5348 3.3304 26.1872 3.10312 26.923C2.50961 26.4749 1.94393 24.8934 2.1668 24.1845Z" fill="#F8D48C"/>
<path d="M4.83588 21.7021C4.99209 21.5525 5.16253 21.3869 5.33811 21.2621C6.31327 20.5687 7.52197 20.2879 8.70237 20.4804C9.32077 20.6698 9.88902 20.8392 10.3882 21.2775L10.4428 21.2818L10.7806 21.6588C11.6827 23.138 10.8837 24.3226 9.44685 24.9509C7.96212 23.716 5.84392 25.337 4.83588 21.7021Z" fill="#F6C35D"/>
<path d="M8.70237 20.4804C9.32077 20.6698 9.88902 20.8392 10.3882 21.2775C10.443 21.7884 10.457 22.4722 10.4806 22.9969C9.99697 21.8212 9.88007 21.9943 8.9409 21.1496C8.65944 20.8964 8.71495 20.8198 8.70237 20.4804Z" fill="var(--fill-0, #FBE0B5)"/>
<path d="M33.0261 27.1408C33.3167 26.7673 34.0075 25.9273 34.1824 25.5231C34.8466 23.9888 34.9966 21.9725 35.1201 20.3483C35.2401 18.7692 35.4988 17.5232 37.114 17.0713C37.2136 17.9415 37.3059 20.015 37.1822 20.8294C36.8641 22.9257 35.8668 26.1315 34.8989 27.9852C34.2841 27.6934 33.6599 27.3849 33.0261 27.1408Z" fill="#E8A137"/>
<path d="M9.44685 24.9509C7.80701 25.5078 4.80151 24.4774 4.39773 22.5963C4.32077 22.2376 4.60796 21.946 4.83588 21.7021C5.84392 25.337 7.96212 23.716 9.44685 24.9509Z" fill="#E8A137"/>
<path d="M10.4428 21.2818C10.538 20.9495 10.6447 20.8332 10.9724 20.7825C11.2711 20.8156 11.8046 20.8581 12.0814 20.9147L11.6284 21.0431C11.5105 21.2631 11.5221 21.3299 11.3335 21.4477C11.17 21.5037 10.9246 21.5775 10.7806 21.6588L10.4428 21.2818Z" fill="#68240C"/>
<path d="M27.9985 20.9354C29.4517 20.7133 31.2085 20.8299 32.203 22.0748C32.3612 22.2985 32.5618 22.5656 32.707 22.791C31.7097 24.5789 29.3766 26.2889 27.3055 25.3308C26.0922 24.611 25.9265 24.2136 25.8281 22.8626C26.0331 22.3655 26.0851 22.2221 26.4601 21.8422C27.0087 21.2566 27.2625 21.1719 27.9985 20.9354Z" fill="#F6C35D"/>
<path d="M32.203 22.0748C32.3612 22.2985 32.5618 22.5656 32.707 22.791C31.7097 24.5789 29.3766 26.2889 27.3055 25.3308C28.3573 24.2145 30.7165 25.8289 32.203 22.0748Z" fill="#E8A137"/>
<path d="M26.4601 21.8422C27.0087 21.2566 27.2625 21.1719 27.9985 20.9354C28.3634 21.8386 27.226 21.838 26.9102 22.4934C26.8223 22.6759 26.6945 22.9731 26.5163 23.0586C26.2492 22.8076 26.4062 22.1958 26.4601 21.8422Z" fill="var(--fill-0, #FBE0B5)"/>
</g>
</svg>
