<svg width="43" height="34" viewBox="0 0 42.4291 34.054" fill="none" xmlns="http://www.w3.org/2000/svg" aria-hidden="true">
  <path d="M39.709 0.551148C39.3644 1.51566 39.1346 2.82463 39.0772 3.65136C38.1582 3.65136 37.4116 4.54697 37.4116 5.64927C37.4116 6.75157 38.1582 7.64718 39.0772 7.64718C39.1921 7.64718 39.3069 7.64718 39.4218 7.57829C39.3069 10.5407 37.2967 12.8831 34.7696 12.8831C32.2424 12.8831 30.2322 10.5407 30.1173 7.57829C30.864 7.4405 31.4958 6.61378 31.4958 5.64927C31.4958 4.54697 30.7491 3.65136 29.8301 3.65136H29.6578C29.4281 2.27349 28.7963 0.0688938 28.0496 0.0688938C27.303 0.0688938 26.6712 2.20459 26.4414 3.65136C26.3266 3.65136 26.2117 3.58246 26.0968 3.58246C25.1779 3.58246 24.4312 4.47808 24.4312 5.58038C24.4312 6.54489 25.0056 7.37161 25.8097 7.57829C25.6948 10.5407 23.6846 12.8831 21.1574 12.8831C18.6303 12.8831 16.62 10.4718 16.5052 7.50939C17.2518 7.30271 17.7687 6.54489 17.7687 5.58038C17.7687 4.47808 17.0221 3.58246 16.1031 3.58246H15.9308C15.7011 2.20459 15.0693 0 14.3226 0C13.576 0 12.9442 2.1357 12.7144 3.58246C12.5996 3.58246 12.4847 3.51357 12.3698 3.51357C11.4508 3.51357 10.7042 4.40919 10.7042 5.51148C10.7042 6.54489 11.336 7.37161 12.1975 7.50939C12.0826 10.4718 10.015 12.8142 7.54525 12.8142C5.0181 12.8142 3.00787 10.4718 2.893 7.50939C3.00787 7.50939 3.12274 7.57829 3.23761 7.57829C4.15657 7.57829 4.90323 6.68267 4.90323 5.58038C4.90323 4.47808 4.15657 3.58246 3.23761 3.58246H3.12274C3.00787 2.68685 2.83556 1.51566 2.60582 0.551148C2.43352 -0.20668 1.57199 -0.0688933 1.57199 0.757829V33H40.8577V0.895616C40.7428 0.0688936 39.9962 -0.137787 39.709 0.551148Z" fill="#FED16A"/>
  <path d="M41.722 20.9457H0.707701C0.295201 20.9457 0.000558036 20.5855 0.000558036 20.0814V17.6326C0.000558036 17.1284 0.295201 16.7683 0.707701 16.7683H41.6631C42.0756 16.7683 42.3702 17.1284 42.3702 17.6326V20.0814C42.4291 20.5855 42.1345 20.9457 41.722 20.9457ZM42.4291 33.1897V30.7409C42.4291 30.2367 42.1345 29.8766 41.722 29.8766H0.707701C0.295201 29.8766 0.000558036 30.2367 0.000558036 30.7409V33.1897C0.000558036 33.6939 0.295201 34.054 0.707701 34.054H41.6631C42.1345 34.054 42.4291 33.6939 42.4291 33.1897Z" fill="#EF9F27"/>
  <path d="M37.7148 27.002C37.7148 28.0478 36.9015 28.8612 35.8557 28.8612C34.8099 28.8612 33.9965 28.0478 33.9965 27.002C33.9965 25.9562 34.8099 25.1429 35.8557 25.1429C36.9015 25.1429 37.7148 25.9562 37.7148 27.002ZM21.2148 25.1429C20.1691 25.1429 19.3557 25.9562 19.3557 27.002C19.3557 28.0478 20.1691 28.8612 21.2148 28.8612C22.2606 28.8612 23.074 28.0478 23.074 27.002C23.074 25.9562 22.2606 25.1429 21.2148 25.1429ZM6.574 25.1429C5.52822 25.1429 4.71484 25.9562 4.71484 27.002C4.71484 28.0478 5.52822 28.8612 6.574 28.8612C7.61977 28.8612 8.43315 27.9897 8.43315 27.002C8.43315 26.0143 7.61977 25.1429 6.574 25.1429Z" fill="#E33232"/>
</svg>
