<svg width="25" height="25" viewBox="0 0 25 24.7322" fill="none" xmlns="http://www.w3.org/2000/svg" aria-hidden="true">
  <path d="M15.7209 9.96777L10.3665 0.974766C10.0177 0.366847 9.392 0 8.70474 0H1.94504C0.457704 0 -0.475729 1.63509 0.252554 2.95574C1.60617 5.40284 3.51665 7.48084 5.82238 9.01396C6.60195 9.63236 7.56616 9.96777 8.56114 9.96777H15.7209Z" fill="#0074BA"/>
  <path d="M23.0504 0H16.2907C15.6035 0 14.9777 0.366847 14.629 0.974766L9.27457 9.96777H16.4446C17.4395 9.96777 18.3935 9.63236 19.1833 9.01396C21.4913 7.48369 23.3992 5.40838 24.7532 2.95574C25.4712 1.63509 24.5377 0 23.0504 0Z" fill="#00A6ED"/>
  <path d="M12.3658 24.7322C18.0572 24.7322 22.6709 20.1185 22.6709 14.4272C22.6709 8.73599 18.0572 4.1223 12.3658 4.1223C6.67437 4.1223 2.06069 8.73599 2.06069 14.4272C2.06069 20.1185 6.67437 24.7322 12.3658 24.7322Z" fill="#BEBEBE"/>
  <path d="M12.3661 23.7011C9.88734 23.7011 7.55558 22.7376 5.81201 20.9849C4.05739 19.2319 3.08018 16.8755 3.09162 14.4251C3.09162 11.9447 4.05794 9.61806 5.81201 7.86538C6.66309 7.00708 7.68237 6.32457 8.80923 5.85846C9.93608 5.39235 11.1475 5.15215 12.3714 5.15215C13.5953 5.15215 14.8067 5.39235 15.9336 5.85846C17.0604 6.32457 18.0797 7.00708 18.9308 7.86538C22.544 11.4835 22.544 17.3668 18.9308 20.9849C17.1662 22.7376 14.8345 23.7011 12.3661 23.7011Z" fill="#E6E6E6"/>
  <path d="M14.3111 18.9683H10.2388C10.0426 18.9688 9.85042 18.9118 9.68497 18.8041C9.51953 18.6963 9.38779 18.5423 9.30539 18.3604C9.22047 18.18 9.1879 17.9785 9.21153 17.7797C9.23517 17.581 9.31401 17.3933 9.43874 17.2389L12.8237 12.994C13.0904 12.6586 12.9673 12.3022 12.9263 12.1974C12.8781 12.0757 12.7961 11.9711 12.6904 11.8966C12.5846 11.822 12.4598 11.7809 12.3314 11.7781H12.2801C11.9518 11.7781 11.6544 11.9353 11.4595 12.2079C11.1312 12.6795 10.485 12.7948 10.0132 12.4594C9.90188 12.379 9.80722 12.277 9.7346 12.1591C9.66198 12.0413 9.61283 11.91 9.58996 11.7727C9.56709 11.6354 9.57095 11.4948 9.60133 11.3591C9.63171 11.2233 9.688 11.095 9.76698 10.9815C10.3414 10.1535 11.2748 9.66089 12.2698 9.66089H12.4032C13.4494 9.71329 14.3623 10.3527 14.7932 11.3274C15.2342 12.3336 15.0906 13.4761 14.4136 14.3251L12.4134 16.8406H14.3008C14.8752 16.8406 15.3368 17.3123 15.3368 17.8992C15.3368 18.4862 14.8855 18.9683 14.3111 18.9683Z" fill="#636363"/>
</svg>
