<svg width="27" height="25" viewBox="0 0 27.0001 25.211" fill="none" xmlns="http://www.w3.org/2000/svg" aria-hidden="true">
  <path d="M16.4758 10.8804L10.8643 1.06402C10.4988 0.400437 9.84307 0 9.12281 0H2.03853C0.479775 0 -0.498479 1.7848 0.264774 3.22637C1.68339 5.89754 3.6856 8.1658 6.10205 9.8393C6.91905 10.5143 7.92956 10.8804 8.97231 10.8804H16.4758Z" fill="#0074BA"/>
  <path d="M24.9568 0H17.8725C17.1523 0 16.4965 0.400437 16.131 1.06402L10.5195 10.8804H18.0338C19.0765 10.8804 20.0763 10.5143 20.904 9.8393C23.3228 8.1689 25.3223 5.90358 26.7413 3.22637C27.4938 1.7848 26.5155 0 24.9568 0Z" fill="#00A6ED"/>
  <path d="M12.9604 25.2108C18.9253 25.2108 23.7607 20.3753 23.7607 14.4105C23.7607 8.44564 18.9253 3.61017 12.9604 3.61017C6.99547 3.61017 2.16008 8.44564 2.16008 14.4105C2.16008 20.3753 6.99547 25.2108 12.9604 25.2108Z" fill="#FFB02E"/>
  <path d="M11.0036 11.0296C11.0036 10.7262 11.1168 10.4352 11.3184 10.2206C11.52 10.0061 11.7935 9.88551 12.0786 9.88551H13.0719C13.357 9.88551 13.6304 10.0061 13.832 10.2206C14.0336 10.4352 14.1469 10.7262 14.1469 11.0296V18.9914C14.1469 19.2949 14.0336 19.5859 13.832 19.8004C13.6304 20.015 13.357 20.1355 13.0719 20.1355C12.7868 20.1355 12.5133 20.015 12.3117 19.8004C12.1101 19.5859 11.9969 19.2949 11.9969 18.9914V12.1703C11.7267 12.1484 11.4743 12.0187 11.2901 11.8072C11.1059 11.5957 11.0036 11.318 11.0036 11.0296Z" fill="#6D4534"/>
  <path d="M12.9604 23.9461C10.3625 23.9461 7.91865 22.9364 6.09129 21.0994C4.25236 19.2622 3.22819 16.7925 3.24018 14.2243C3.24018 11.6247 4.25293 9.18618 6.09129 7.34924C6.98328 6.44969 8.05154 5.73437 9.23255 5.24586C10.4136 4.75734 11.6832 4.50559 12.9659 4.50559C14.2486 4.50559 15.5182 4.75734 16.6993 5.24586C17.8803 5.73437 18.9485 6.44969 19.8405 7.34924C23.6273 11.1413 23.6273 17.3074 19.8405 21.0994C17.9911 22.9364 15.5473 23.9461 12.9604 23.9461Z" fill="#FCD53F"/>
</svg>
