<svg width="21" height="24" viewBox="0 0 21 24" fill="none" xmlns="http://www.w3.org/2000/svg" aria-hidden="true">
  <path d="M10.4556 22.8702C2.59802 22.8702 0.49859 14.6792 1.44758 9.31237C1.48888 9.07879 1.79506 9.0115 1.92848 9.20764C2.34162 9.81487 2.70926 10.692 3.31841 10.6158C4.23396 10.5014 4.86825 2.42255 10.2945 0.149386C10.4667 0.0772542 10.6468 0.214115 10.6279 0.399824C10.3596 3.03239 11.9402 6.80129 14.7405 6.80129C16.3458 6.80129 17.4441 5.52014 17.993 4.2335C18.1597 3.84266 18.7307 3.89193 18.8263 4.30595C19.8057 8.54737 22.4236 22.8702 10.4556 22.8702Z" fill="#FF8F1F"/>
  <path d="M10.5 8.5C12.5 8.5 14 7 14 5C14 3 12.5 1.5 10.5 1.5C8.5 1.5 7 3 7 5C7 7 8.5 8.5 10.5 8.5Z" fill="#FFB02E"/>
</svg>
