<svg xmlns="http://www.w3.org/2000/svg" width="21" height="24" viewBox="0 0 21 24" fill="none">
  <path d="M10.4547 22.8693C2.5971 22.8693 0.497671 14.6783 1.44666 9.31148C1.48796 9.0779 1.79414 9.01061 1.92756 9.20675C2.3407 9.81398 2.70834 10.6911 3.31749 10.6149C4.23304 10.5005 4.86733 2.42166 10.2935 0.148496C10.4658 0.0763634 10.6459 0.213224 10.627 0.398933C10.3587 3.0315 11.9393 6.8004 14.7396 6.8004C16.3449 6.8004 17.4432 5.51925 17.992 4.23261C18.1588 3.84177 18.7298 3.89104 18.8254 4.30506C19.8048 8.54648 22.4227 22.8693 10.4547 22.8693Z" fill="#FF8F1F"/>
  <path d="M8.2475 13.51C8.45673 13.3484 8.77438 13.4593 8.82189 13.7067C8.93305 14.2855 9.29858 15.2803 10.4976 15.2803C11.9399 15.2803 12.9186 11.6325 13.1753 10.5597C13.2176 10.3832 13.4047 10.2634 13.5974 10.2994C17.2018 10.973 18.9543 21.7305 11.0293 21.7305C5.25989 21.7305 6.56692 14.8077 8.2475 13.51Z" fill="#FFB636"/>
  <path d="M13.4202 16.5369C13.2849 16.0116 12.7998 17.2319 12.8607 17.7289C12.9217 18.2259 13.7437 17.7939 13.4202 16.5369Z" fill="#FFD469"/>
</svg>
