<svg preserveAspectRatio="none" width="100%" height="100%" overflow="visible" style="display: block;" viewBox="0 0 154 140" fill="none" xmlns="http://www.w3.org/2000/svg">
<g id="Vector">
<path d="M74.7328 26.9889C75.2809 22.4717 75.4906 17.3487 75.9126 12.7781C76.0973 10.7777 76.0881 8.66254 76.3426 6.66863C76.4217 6.04105 76.4982 5.68362 77.0561 5.34351C79.6266 3.77871 86.3358 4.7502 89.1464 5.31017C94.0935 6.03449 99.3453 7.65075 103.931 9.62773C106.454 10.8389 108.68 11.6027 109.761 14.2841C108.982 16.8532 107.852 19.4547 106.846 21.9554L103.522 30.376C103.138 31.4598 102.747 32.5252 102.438 33.633C104.827 34.2713 106.639 34.8632 108.804 36.1592C111.549 37.8017 114.278 40.8856 110.743 43.5877C111.685 44.8163 113.157 46.1725 114.04 47.4328C116.293 50.6456 118.128 53.7019 119.601 57.3358C120.252 58.7262 121.032 60.0653 121.578 61.5023C123.745 67.2003 125.006 73.2309 124.657 79.3441C124.576 80.7967 123.953 82.8162 123.688 84.3189C123.3 86.5269 122.963 88.7658 122.039 90.8229C123.538 94.4267 125.242 98.0736 127.493 101.295C128.055 102.071 128.916 102.785 129.697 103.352C132.852 105.638 134.929 108.967 133.036 112.802C132.058 114.786 130.006 116.31 127.732 116.447C126.351 116.531 125.265 116.121 124.047 115.481C119.308 117.86 118.406 113.277 118.295 109.842C116.794 108.045 116.111 107.183 114.965 105.166C112.893 107.227 111.256 109.204 109.356 111.379C107.753 113.213 104.78 114.535 102.687 115.711C101.296 116.493 99.8966 117.368 98.4208 118.029C99.2952 121.999 99.7595 125.774 99.377 129.852C101.222 131.137 102.231 132.086 102.785 134.336C103.455 137.065 101.847 139.055 99.0895 139.337C95.3926 139.714 89.4576 139.991 86.2237 138.044C84.5434 137.032 85.129 130.997 84.9747 129.101C84.8745 126.643 84.6424 124.485 84.2559 122.029C80.2993 123.228 76.6789 123.383 72.6376 122.57C72.3861 124.541 72.2936 126.53 72.361 128.516C72.4532 130.69 73.2644 136.785 71.5082 138.354C70.436 139.311 67.287 139.742 65.7088 139.803C62.3682 139.934 53.5894 141.132 54.2821 135.559C54.5957 133.245 56.0622 131.809 57.9031 130.514C57.2237 127.4 57.5853 122.27 58.2667 119.154C54.7688 117.528 53.5175 117.108 51.2195 113.969C46.4264 112.898 42.9325 109.41 40.4555 105.323C40.0584 104.666 39.1115 102.29 38.7662 101.899C35.996 98.7645 34.8224 95.0334 33.884 91.0235C33.2825 90.3924 31.7531 89.3796 30.9897 88.8146C29.8282 87.9488 28.7114 87.0251 27.6437 86.0466C25.9683 84.5129 24.3633 82.6432 22.8898 80.9106C21.7258 79.4973 20.873 77.9017 19.2899 76.8833C16.3142 74.969 14.051 71.7875 14.2254 68.1432C14.3271 66.0541 15.2673 64.0932 16.8349 62.7003C20.0591 59.7855 24.2145 60.2068 27.0583 63.3803C32.0375 61.6312 31.5521 66.3589 31.3759 69.377C33.1594 62.5968 33.6096 58.6117 37.4453 52.2909C40.366 47.5009 44.1578 43.2944 48.6267 39.8868C49.5882 39.154 51.0802 38.3287 51.9069 37.6128C55.4745 34.5231 58.2777 33.5117 62.8141 32.3996C59.3868 26.7658 67.4261 25.9348 70.9948 26.5855C72.1219 26.7911 73.5749 26.8758 74.7328 26.9889Z" fill="#60210B"/>
<path d="M74.7328 26.9889C75.2809 22.4717 75.4906 17.3487 75.9126 12.7781C76.0973 10.7777 76.0881 8.66254 76.3426 6.66863C76.4217 6.04105 76.4982 5.68362 77.0561 5.34351C79.6266 3.77871 86.3358 4.7502 89.1464 5.31017C94.0935 6.03449 99.3453 7.65075 103.931 9.62773C106.454 10.8389 108.68 11.6027 109.761 14.2841C108.982 16.8532 107.852 19.4547 106.846 21.9554L103.522 30.376C103.138 31.4598 102.747 32.5252 102.438 33.633C104.827 34.2713 106.639 34.8632 108.804 36.1592C111.549 37.8017 114.278 40.8856 110.743 43.5877C110.198 43.8759 109.66 44.1748 109.127 44.4841C111.856 47.6205 114.476 49.7542 114.563 53.9547C116.781 54.631 117.661 57.0012 118.478 58.9905C119.57 61.6482 120.537 64.3893 121.335 67.1485C112.678 73.4336 102.817 78.084 93.4354 83.2266C89.3943 85.437 85.4086 87.7468 81.4823 90.1536C80.0632 91.0297 78.5544 92.1612 77.2051 92.9635C74.8186 91.2546 72.2962 89.7507 69.7661 88.2636C62.0782 83.7449 54.1515 79.6485 46.3272 75.3729L43.1982 73.5892C42.4187 73.0478 40.7219 72.1645 39.8057 71.6162C37.8054 70.3939 35.8857 69.0453 34.0587 67.5785C34.3545 66.5561 34.4033 65.552 34.6756 64.5571C36.0934 56.2033 42.104 47.1981 48.8285 42.1678C52.9836 39.0595 56.1959 36.3821 61.1464 34.6503C62.095 34.4218 63.0477 34.2107 64.0041 34.0169C63.6505 33.4583 63.2189 32.9256 62.8141 32.3996C59.3868 26.7658 67.4261 25.9348 70.9948 26.5855C72.1219 26.7911 73.5749 26.8758 74.7328 26.9889Z" fill="#F9C65B"/>
<path d="M74.7328 26.9889C75.2809 22.4717 75.4906 17.3487 75.9126 12.7781C76.0973 10.7777 76.0881 8.66254 76.3426 6.66863C76.4217 6.04105 76.4982 5.68362 77.0561 5.34351C79.6266 3.77871 86.3358 4.7502 89.1464 5.31017C94.0935 6.03449 99.3453 7.65075 103.931 9.62773C106.454 10.8389 108.68 11.6027 109.761 14.2841C108.982 16.8532 107.852 19.4547 106.846 21.9554L103.522 30.376C103.138 31.4598 102.747 32.5252 102.438 33.633C104.827 34.2713 106.639 34.8632 108.804 36.1592C111.549 37.8017 114.278 40.8856 110.743 43.5877C110.198 43.8759 109.66 44.1748 109.127 44.4841C105.8 46.1542 102.512 46.4415 98.86 46.3895C96.6957 46.2846 94.5063 46.0204 92.3473 45.7953C90.088 45.4502 87.7338 44.9526 85.4864 44.5009C81.1631 43.4069 76.9453 41.9374 72.8797 40.1092C69.1271 38.2694 66.96 36.9395 64.0041 34.0169C63.6505 33.4583 63.2189 32.9256 62.8141 32.3996C59.3868 26.7658 67.4261 25.9348 70.9948 26.5855C72.1219 26.7911 73.5749 26.8758 74.7328 26.9889Z" fill="#816CD3"/>
<path d="M84.6595 5.71027C86.2197 5.50405 88.6834 5.89286 90.3268 6.08188L90.5417 5.90086C90.2094 5.66459 88.7929 5.45365 88.3009 5.36124L89.1464 5.31017C94.0935 6.03449 99.3453 7.65075 103.931 9.62773C106.454 10.8389 108.68 11.6027 109.761 14.2841C108.982 16.8532 107.852 19.4547 106.846 21.9554L103.522 30.376L102.478 30.3037L102.431 30.3613C102.058 30.0905 101.814 30.2437 101.233 30.3331C99.6078 30.5828 97.9288 30.9165 96.2802 30.6819L94.7595 30.5403C88.1756 29.869 81.1275 27.4798 75.786 23.5422C75.7623 24.0759 75.7095 24.4993 75.6423 25.0237C75.5407 23.7921 75.8783 23.3577 76.0458 22.0748C76.3109 19.9046 76.5576 17.732 76.7857 15.5575C77.0337 13.0407 77.0785 8.87348 77.4821 6.67441C77.9912 5.956 78.3829 5.84049 79.2468 5.7616C80.993 5.60237 82.9106 5.68795 84.6595 5.71027Z" fill="#6C52C7"/>
<path d="M84.6595 5.71027C86.2197 5.50405 88.6834 5.89286 90.3268 6.08188L90.5417 5.90086C90.2094 5.66459 88.7929 5.45365 88.3009 5.36124L89.1464 5.31017C94.0935 6.03449 99.3453 7.65075 103.931 9.62773C103.93 10.5844 104.269 10.56 105.079 11.0668L105.06 11.2647C106.298 12.1145 108.273 13.2288 108.77 14.6457C107.638 14.9229 106.341 15.2829 105.187 15.2935C104.67 15.3587 104.225 15.3425 103.851 15.6659L103.658 16.0707L103.558 16.0701C101.866 15.7457 99.7476 16.1483 97.698 15.3723C95.9637 14.9563 88.2139 13.9602 87.5782 12.6083L87.7853 12.0945C84.6239 10.7067 81.5852 9.72841 78.714 7.64196C78.1613 7.24042 77.7723 7.32062 77.4821 6.67441C77.9912 5.956 78.3829 5.84049 79.2468 5.7616C80.993 5.60237 82.9106 5.68795 84.6595 5.71027Z" fill="#816CD3"/>
<path d="M84.6595 5.71027C86.2197 5.50405 88.6834 5.89286 90.3268 6.08188L90.5417 5.90086C90.2094 5.66459 88.7929 5.45365 88.3009 5.36124L89.1464 5.31017C94.0935 6.03449 99.3453 7.65075 103.931 9.62773C103.93 10.5844 104.269 10.56 105.079 11.0668L105.06 11.2647C104.811 11.194 103.977 10.7076 103.704 10.5593C98.8032 7.90383 92.8617 6.68544 87.3685 6.00194C86.4664 5.88971 85.5682 5.85177 84.6595 5.71027Z" fill="#7465BC"/>
<path d="M87.7853 12.0945C89.9047 12.925 95.6406 14.4881 97.9222 14.6784L98.037 14.9615C97.8879 15.3092 98.004 15.1818 97.698 15.3723C95.9637 14.9563 88.2139 13.9602 87.5782 12.6083L87.7853 12.0945Z" fill="#433189"/>
<path d="M97.9222 14.6784C100.197 14.9336 102.935 15.3002 105.187 15.2935C104.67 15.3587 104.225 15.3425 103.851 15.6659L103.658 16.0707L103.558 16.0701C101.866 15.7457 99.7476 16.1483 97.698 15.3723C98.004 15.1818 97.8879 15.3092 98.037 14.9615L97.9222 14.6784Z" fill="#604AB2"/>
<path d="M103.931 9.62773C106.454 10.8389 108.68 11.6027 109.761 14.2841C108.982 16.8532 107.852 19.4547 106.846 21.9554L103.522 30.376L102.478 30.3037L102.431 30.3613C102.058 30.0905 101.814 30.2437 101.233 30.3331C99.6078 30.5828 97.9288 30.9165 96.2802 30.6819C98.8151 25.8462 101.072 20.9309 103.558 16.0701L103.658 16.0707L103.851 15.6659C104.225 15.3425 104.67 15.3587 105.187 15.2935C106.341 15.2829 107.638 14.9229 108.77 14.6457C108.273 13.2288 106.298 12.1145 105.06 11.2647L105.079 11.0668C104.269 10.56 103.93 10.5844 103.931 9.62773Z" fill="#5841B1"/>
<path d="M103.931 9.62773C106.454 10.8389 108.68 11.6027 109.761 14.2841C108.982 16.8532 107.852 19.4547 106.846 21.9554L103.522 30.376L102.478 30.3037C102.515 29.2509 107.135 17.7678 107.88 16.1955C108.103 16.0135 108.603 14.9699 108.77 14.6457C108.273 13.2288 106.298 12.1145 105.06 11.2647L105.079 11.0668C104.269 10.56 103.93 10.5844 103.931 9.62773Z" fill="#433189"/>
<path d="M108.77 14.6457C108.603 14.9699 108.103 16.0135 107.88 16.1955C107.373 16.0001 104.924 16.2966 103.658 16.0707L103.851 15.6659C104.225 15.3425 104.67 15.3587 105.187 15.2935C106.341 15.2829 107.638 14.9229 108.77 14.6457Z" fill="#433189"/>
<path d="M74.7328 26.9889C75.2809 22.4717 75.4906 17.3487 75.9126 12.7781C76.0973 10.7777 76.0881 8.66254 76.3426 6.66863C76.4217 6.04105 76.4982 5.68362 77.0561 5.34351C79.6266 3.77871 86.3358 4.7502 89.1464 5.31017L88.3009 5.36124C88.7929 5.45365 90.2094 5.66459 90.5417 5.90086L90.3268 6.08188C88.6834 5.89286 86.2197 5.50405 84.6595 5.71027C82.9106 5.68795 80.993 5.60237 79.2468 5.7616C78.3829 5.84049 77.9912 5.956 77.4821 6.67441C77.0785 8.87348 77.0337 13.0407 76.7857 15.5575C76.5576 17.732 76.3109 19.9046 76.0458 22.0748C75.8783 23.3577 75.5407 23.7921 75.6423 25.0237C75.5869 26.145 75.4893 27.0859 75.3627 28.1957C72.0279 27.9574 65.9167 26.3037 63.6441 29.3253C61.8106 33.274 71.8846 38.6889 74.8817 39.8564C77.0508 40.7016 79.9511 41.8173 82.1866 42.4285C84.0317 42.2821 85.2345 42.742 86.4835 42.6905L85.5234 42.4727C87.7642 42.67 93.6912 43.9705 95.7065 43.8523L95.7896 43.7608C100.735 43.9088 103.48 43.7716 108.225 42.5238C109.46 42.1835 109.995 41.9239 111.037 41.1395C111.413 37.9371 103.489 34.201 101.263 34.3594C101.4 33.9753 101.39 33.9271 101.401 33.5068L101.404 33.3907C101.729 32.3751 102.071 31.3651 102.431 30.3613L102.478 30.3037L103.522 30.376C103.138 31.4598 102.747 32.5252 102.438 33.633C104.827 34.2713 106.639 34.8632 108.804 36.1592C111.549 37.8017 114.278 40.8856 110.743 43.5877C110.198 43.8759 109.66 44.1748 109.127 44.4841C105.8 46.1542 102.512 46.4415 98.86 46.3895C96.6957 46.2846 94.5063 46.0204 92.3473 45.7953C90.088 45.4502 87.7338 44.9526 85.4864 44.5009C81.1631 43.4069 76.9453 41.9374 72.8797 40.1092C69.1271 38.2694 66.96 36.9395 64.0041 34.0169C63.6505 33.4583 63.2189 32.9256 62.8141 32.3996C59.3868 26.7658 67.4261 25.9348 70.9948 26.5855C72.1219 26.7911 73.5749 26.8758 74.7328 26.9889Z" fill="#433189"/>
<path d="M108.225 42.5238C109.46 42.1835 109.995 41.9239 111.037 41.1395C110.34 42.5002 109.37 43.6251 107.856 44.0755C100.755 46.1863 92.9447 45.0519 85.8729 43.3918C85.1132 43.2133 82.784 42.6801 82.1866 42.4285C84.0317 42.2821 85.2345 42.742 86.4835 42.6905L85.5234 42.4727C87.7642 42.67 93.6912 43.9705 95.7065 43.8523L95.7896 43.7608C100.735 43.9088 103.48 43.7716 108.225 42.5238Z" fill="#5841B1"/>
<path d="M75.6423 25.0237C75.7095 24.4993 75.7623 24.0759 75.786 23.5422C81.1275 27.4798 88.1756 29.869 94.7595 30.5403C94.898 31.2022 92.7113 36.316 92.2629 36.8809C87.0467 36.3621 82.0085 34.7069 77.5072 32.0325C77.1497 31.6256 76.0168 30.9795 75.2337 30.0961C75.2651 29.4619 75.3086 28.8283 75.3627 28.1957C75.4893 27.0859 75.5869 26.145 75.6423 25.0237Z" fill="#F6F5F5"/>
<path d="M96.2802 30.6819C97.9288 30.9165 99.6078 30.5828 101.233 30.3331C101.814 30.2437 102.058 30.0905 102.431 30.3613C102.071 31.3651 101.729 32.3751 101.404 33.3907C99.8597 37.2358 101.185 36.3385 97.3366 37.0641C95.4968 37.0775 94.0935 37.0964 92.2629 36.8809C92.7113 36.316 94.898 31.2022 94.7595 30.5403L96.2802 30.6819Z" fill="#DED6E3"/>
<path d="M101.404 33.3907L101.401 33.5068C101.39 33.9271 101.4 33.9753 101.263 34.3594C103.489 34.201 111.413 37.9371 111.037 41.1395C109.995 41.9239 109.46 42.1835 108.225 42.5238C107.433 40.1022 103.105 39.6824 101.189 37.3199C100.348 37.5182 99.4205 37.7723 98.5659 37.8168L98.488 37.6389C97.7521 37.7702 96.8513 38.1347 96.4319 37.4204C96.9067 37.2014 97.7798 37.203 98.3456 37.1686L97.3366 37.0641C101.185 36.3385 99.8597 37.2358 101.404 33.3907Z" fill="#6C52C7"/>
<path d="M63.6441 29.3253C63.9568 30.0436 64.2696 29.7199 64.7465 30.6115C67.83 36.3758 76.0472 39.173 81.9136 41.2193C84.6542 42.1755 88.0213 42.5367 90.8517 43.0905C92.1257 43.2993 94.8321 43.5014 95.7896 43.7608L95.7065 43.8523C93.6912 43.9705 87.7642 42.67 85.5234 42.4727L86.4835 42.6905C85.2345 42.742 84.0317 42.2821 82.1866 42.4285C79.9511 41.8173 77.0508 40.7016 74.8817 39.8564C71.8846 38.6889 61.8106 33.274 63.6441 29.3253Z" fill="#604AB2"/>
<path d="M77.5072 32.0325C82.0085 34.7069 87.0467 36.3621 92.2629 36.8809C94.0935 37.0964 95.4968 37.0775 97.3366 37.0641L98.3456 37.1686C97.7798 37.203 96.9067 37.2014 96.4319 37.4204C96.8513 38.1347 97.7521 37.7702 98.488 37.6389L98.5659 37.8168C92.0426 38.9451 84.401 36.9016 78.5992 33.804C78.0545 33.5135 77.5428 33.2028 77.3792 32.6112C77.6114 32.7903 77.7617 32.958 78.044 32.9693L78.0571 32.6531C77.8567 32.4561 77.7063 32.3959 77.4623 32.2668L77.5072 32.0325Z" fill="#433189"/>
<path d="M34.6756 64.5571C35.158 64.789 35.328 64.5567 36.0097 64.3733C39.7181 63.3755 41.6374 65.1477 43.7774 67.8034C44.2852 70.1068 43.8079 71.3024 43.1982 73.5892C42.4187 73.0478 40.7219 72.1645 39.8057 71.6162C37.8054 70.3939 35.8857 69.0453 34.0587 67.5785C34.3545 66.5561 34.4033 65.552 34.6756 64.5571Z" fill="#9A5424"/>
<path d="M72.8797 40.1092C76.9453 41.9374 81.1631 43.4069 85.4864 44.5009C84.0713 45.936 83.305 46.243 81.2766 46.6569C80.8044 46.6824 80.1885 46.6871 79.7189 46.6431C77.4359 46.4094 75.335 45.2979 73.8626 43.5453C73.1335 42.2283 73.0694 41.6022 72.8797 40.1092Z" fill="#9A5424"/>
<path d="M92.3473 45.7953C94.5063 46.0204 96.6957 46.2846 98.86 46.3895C99.1 47.0103 99.3334 47.6477 99.6117 48.2511C98.521 48.851 97.7033 49.4144 96.5519 49.9293C95.353 50.4658 93.5607 50.763 92.5702 51.4667C91.0363 50.362 91.0258 49.8829 91.0864 48.1046C91.2961 46.9235 91.5546 46.7021 92.3473 45.7953Z" fill="#9C5021"/>
<path d="M61.1464 34.6503C62.095 34.4218 63.0477 34.2107 64.0041 34.0169C66.96 36.9395 69.1271 38.2694 72.8797 40.1092C73.0694 41.6022 73.1335 42.2283 73.8626 43.5453C71.0544 42.7402 67.0468 39.6049 65.0122 37.4937C64.3353 36.7915 63.8825 36.0549 63.1446 35.3665C62.253 34.5346 62.4112 34.6246 61.1464 34.6503Z" fill="#F3BD5D"/>
<path d="M85.4864 44.5009C87.7338 44.9526 90.088 45.4502 92.3473 45.7953C91.5546 46.7021 91.2961 46.9235 91.0864 48.1046C88.7955 48.1224 86.5152 48.0054 84.3074 47.3491C83.4896 47.106 82.085 46.5511 81.2766 46.6569C83.305 46.243 84.0713 45.936 85.4864 44.5009Z" fill="#F3BD5D"/>
<path d="M99.6117 48.2511C99.7832 48.8287 99.9731 49.3833 99.8346 49.9727C98.79 54.4047 95.1064 53.355 92.5702 51.4667C93.5607 50.763 95.353 50.4658 96.5519 49.9293C97.7033 49.4144 98.521 48.851 99.6117 48.2511Z" fill="#B46C33"/>
<path d="M43.7774 67.8034C46.551 70.2658 47.7876 71.5352 46.3272 75.3729L43.1982 73.5892C43.8079 71.3024 44.2852 70.1068 43.7774 67.8034Z" fill="#B8763B"/>
<path d="M70.1024 70.6581C73.4829 71.2946 76.4798 71.0216 79.8838 70.9082C81.4124 70.8572 83.6519 70.3414 83.6901 72.4447C83.7416 75.3033 83.1863 77.2632 81.1209 79.3395C79.6728 80.5329 77.8277 81.1421 75.9496 81.0468C74.0843 80.9545 72.334 80.1192 71.0936 78.7289C69.6147 77.0906 69.0205 74.7616 69.0693 72.5781C69.0931 71.522 69.3782 71.2899 70.1024 70.6581Z" fill="#60210B"/>
<path d="M78.888 73.7512C79.9511 73.7938 80.571 73.8688 81.6234 74.037C80.9732 77.5066 78.9698 79.5598 75.2769 78.9056C73.7414 78.5791 73.0429 78.1017 72.1344 76.8775C72.1773 76.8222 72.2213 76.7677 72.2666 76.7143C73.8298 74.8779 76.5272 73.915 78.888 73.7512Z" fill="#EC513E"/>
<path d="M57.0517 46.5598C58.2991 46.501 59.2406 46.4857 60.3577 47.127C62.6469 48.4411 63.382 51.5688 62.0445 53.8086C60.9035 55.7193 59.4144 56.2059 57.3821 56.7237C57.0847 56.8023 56.7837 56.8667 56.4801 56.9168C50.2045 57.9631 50.2043 47.6134 57.0517 46.5598Z" fill="#8D441C"/>
<path d="M60.1782 64.2675C62.8223 64.0806 64.8654 64.6281 66.2277 67.0977C66.8181 67.7049 66.875 69.8838 65.7682 70.0202C63.9411 70.2453 64.2243 67.8179 62.2372 66.9084C58.3457 66.1683 59.4735 68.962 57.3579 70.2298C56.2003 70.9235 55.3065 68.5504 56.2656 67.168C57.4321 65.4867 58.1852 64.8164 60.1782 64.2675Z" fill="#60210B"/>
<path d="M89.9786 64.265C92.7179 63.989 94.9613 64.663 96.362 67.237C97.5556 69.4322 95.6445 71.5569 94.257 69.2156C93.5725 68.0588 93.8653 67.7506 92.5636 66.9806C91.3463 66.6713 90.4006 66.5934 89.4141 67.4722C88.4724 68.3114 87.5149 71.377 85.9494 69.2995C85.3321 66.8779 87.8618 64.8775 89.9786 64.265Z" fill="#60210B"/>
<path d="M55.4005 37.7732C55.8232 37.4918 56.0296 37.2443 56.4664 37.2358C57.2215 38.1892 56.7873 38.0762 57.9994 38.6621C55.1627 41.5648 52.8312 41.9664 49.9362 44.629C48.7544 45.7161 47.5587 47.1622 46.5464 48.2029C45.6919 49.0815 42.3691 53.3548 41.8828 53.6154L41.6758 53.5335C41.8721 52.4244 45.2084 47.6466 46.0852 46.6032C47.7544 44.6168 50.8982 42.8912 52.9559 41.2525C53.1856 40.677 53.9901 40.3209 54.5928 39.8109L54.5998 38.9934C54.1357 38.9204 54.2404 39.2193 53.6856 39.2499C53.677 39.2633 55.2648 37.8949 55.4005 37.7732Z" fill="#FAEBC9"/>
<path d="M55.4005 37.7732C55.1585 38.7654 55.7831 38.3316 55.6863 39.2788C55.279 39.9703 53.6641 40.9466 52.9559 41.2525C53.1856 40.677 53.9901 40.3209 54.5928 39.8109L54.5998 38.9934C54.1357 38.9204 54.2404 39.2193 53.6856 39.2499C53.677 39.2633 55.2648 37.8949 55.4005 37.7732Z" fill="#F3BD5D"/>
<path d="M111.748 54.8906C111.826 54.9095 111.912 54.9232 111.97 54.978C114.123 57.0087 115.885 60.1845 116.052 63.0394C115.839 62.3896 115.781 62.1331 115.671 61.4624C115.615 61.4423 115.086 61.2396 115.086 61.2389C114.141 60.122 113.568 58.5346 112.64 57.3649C112.066 56.6417 111.693 56.2867 111.111 55.7163C110.741 55.9435 110.644 56.032 110.229 56.1212C110.813 55.6882 111.207 55.3737 111.748 54.8906Z" fill="#F3BD5D"/>
<path d="M30.1867 72.0882C31.6202 74.2723 34.8985 79.0526 37.2107 80.8467C37.3469 80.9525 37.9812 80.7241 38.2052 80.6358C42.4809 85.6326 57.4464 91.331 63.9388 94.2046L65.44 94.7404C66.6932 95.1924 67.9467 95.633 69.1806 96.1348C67.1949 97.9412 65.5599 99.7021 64.6065 102.294C64.4526 102.892 63.8228 105.749 63.6203 106.033C63.7068 110.697 64.3197 113.527 67.4455 117.245C65.9836 117.735 63.657 118.122 62.1226 118.061C61.5278 118.036 61.0015 117.794 60.4274 117.907C58.6964 117.532 54.34 115.311 53.2024 113.894C52.9162 113.539 52.1789 112.012 51.8402 111.894C50.6429 111.497 49.9439 112.019 48.7567 111.295C44.9244 108.964 42.2847 105.87 41.0138 101.616C38.6616 99.484 36.5424 95.5246 36.0578 92.259C35.9696 91.6645 36.7152 91.5704 36.8104 91.0717C36.1356 89.989 32.0611 87.4966 30.6656 86.2405C27.6547 83.5303 25.052 80.9517 22.6627 77.6458C23.1567 77.4043 24.1346 77.0902 24.7455 76.8073C27.3032 75.6225 28.5846 74.2844 30.1867 72.0882Z" fill="#F9C65B"/>
<path d="M64.6065 102.294C64.5875 102.263 64.5685 102.23 64.5495 102.199C64.4375 100.404 63.4192 95.6346 65.44 94.7404C66.6932 95.1924 67.9467 95.633 69.1806 96.1348C67.1949 97.9412 65.5599 99.7021 64.6065 102.294Z" fill="#876FC7"/>
<path d="M63.9388 94.2046L65.44 94.7404C63.4192 95.6346 64.4375 100.404 64.5495 102.199C64.5685 102.23 64.5875 102.263 64.6065 102.294C64.4526 102.892 63.8228 105.749 63.6203 106.033C63.1185 103.426 62.6955 98.3578 63.1976 95.6673C63.2832 95.2088 63.679 94.6069 63.9388 94.2046Z" fill="#433189"/>
<path d="M52.5671 91.3743C55.4695 90.8226 58.2729 92.7129 58.8341 95.6003C59.3953 98.4876 57.5024 101.282 54.6027 101.848C51.6934 102.415 48.8741 100.524 48.3111 97.6263C47.7481 94.7294 49.6552 91.9278 52.5671 91.3743Z" fill="#B46C33"/>
<path d="M107.296 86.6733C112.739 83.7463 118.137 80.7496 122.749 76.5679C122.76 79.4031 122.426 81.5849 121.723 84.3411C121.426 85.5058 121.368 86.8884 121.054 88.0703C120.789 89.0652 120.147 88.8577 119.83 89.6647C119.888 90.1886 119.908 90.2698 120.115 90.7546C121.607 94.3008 123.279 98.5168 125.577 101.653L125.396 101.709C124.833 101.881 124.189 101.92 123.6 102.111C121.256 102.868 120.269 104.353 118.73 105.768L118.113 106.851C116.458 104.434 115.215 102.477 114.064 99.738C113.541 99.4297 113.65 99.3932 113.117 99.3746C112.736 99.6032 112.681 99.8152 112.462 100.226C112.836 101.696 113.082 102.252 113.845 103.569C112.959 104.546 111.645 105.685 110.917 106.633C108.396 109.92 106.38 112.039 102.421 113.524C101.379 113.914 99.5748 115.63 98.3219 116.131C96.73 116.768 95.2344 116.997 93.5726 117.399C91.1313 118.227 89.2321 118.897 86.6405 119.23C89.7847 116.613 91.5731 114.549 92.4383 110.459C93.471 105.581 92.2194 102.014 89.3666 98.1232L88.1203 96.8024L86.5877 95.607L88.2047 95.0449L89.0277 94.7772C91.8883 93.6256 94.7437 92.4584 97.5925 91.2757C100.166 89.8664 103.104 88.9369 105.677 87.4985C106.196 87.2087 106.744 86.8809 107.296 86.6733Z" fill="#F5B94E"/>
<path d="M97.5925 91.2757C100.166 89.8664 103.104 88.9369 105.677 87.4985C106.196 87.2087 106.744 86.8809 107.296 86.6733C111.068 90.992 108.915 97.3557 102.817 97.1215C99.5352 96.9955 97.8022 94.4794 97.5925 91.2757Z" fill="#8D441C"/>
<path d="M118.73 105.768L118.604 105.594L118.821 105.304C117.804 104.049 116.455 101.729 115.872 100.256C114.853 97.6731 117.492 91.5965 120.115 90.7546C121.607 94.3008 123.279 98.5168 125.577 101.653L125.396 101.709C124.833 101.881 124.189 101.92 123.6 102.111C121.256 102.868 120.269 104.353 118.73 105.768Z" fill="#F9C65B"/>
<path d="M88.2047 95.0449L89.0277 94.7772C89.1727 95.889 89.2862 97.0048 89.3666 98.1232L88.1203 96.8024L86.5877 95.607L88.2047 95.0449Z" fill="#433189"/>
<path d="M86.5877 95.607L88.2047 95.0449C88.0055 95.7859 88.0583 96.0414 88.1203 96.8024L86.5877 95.607Z" fill="#604AB2"/>
<path d="M112.462 100.226C112.282 99.4649 112.169 99.1102 112.774 98.5483C113.631 98.4255 113.819 99.043 114.064 99.738C113.541 99.4297 113.65 99.3932 113.117 99.3746C112.736 99.6032 112.681 99.8152 112.462 100.226Z" fill="#B46C33"/>
<path d="M71.9039 95.8293C77.1669 92.997 83.6835 94.0249 87.809 98.3382C88.3286 98.8817 88.8008 99.4682 89.2202 100.092C92.8036 105.415 92.0242 112.53 87.3751 116.962C82.7247 121.392 75.5486 121.858 70.3605 118.065C67.9781 116.323 66.2493 113.838 65.4488 111.005C63.7707 105.067 66.4516 98.7635 71.9039 95.8293Z" fill="#DF8C1B"/>
<path d="M80.5709 98.0287C81.6643 98.4346 82.4082 98.7067 83.4184 99.3285C82.7919 99.9277 80.8914 101.781 80.2293 102.132C80.0289 102.737 80.0895 103.566 80.0961 104.229L80.1251 107.552C80.1146 108.918 80.1133 110.284 80.1212 111.651C80.7886 111.635 81.4124 111.554 82.0125 111.802C82.4596 112.303 82.4846 113.185 82.1378 113.751C81.3939 114.012 75.4233 114.011 74.6031 113.788C74.4 113.562 74.4394 113.65 74.3301 113.382C73.9599 113.76 72.7768 115.024 72.4331 115.292C71.6327 114.72 71.2609 114.302 70.6212 113.566C70.1238 112.986 70.0037 112.811 69.6298 112.146C68.9562 110.674 68.7738 110.032 68.4785 108.436C72.1488 105.274 75.6211 101.747 79.3707 98.6538C79.7875 98.3105 79.9919 98.0656 80.5709 98.0287Z" fill="#DF8C1B"/>
<path d="M80.5709 98.0287C81.6643 98.4346 82.4082 98.7067 83.4184 99.3285C82.7919 99.9277 80.8914 101.781 80.2293 102.132C79.7018 100.781 78.8063 101.293 77.4953 101.274C76.7844 101.756 74.0853 104.141 73.5133 104.798C74.1366 105.545 74.4167 105.954 75.36 106.29L75.3943 106.538C73.8131 108.073 71.0263 110.598 69.6298 112.146C68.9562 110.674 68.7738 110.032 68.4785 108.436C72.1488 105.274 75.6211 101.747 79.3707 98.6538C79.7875 98.3105 79.9919 98.0656 80.5709 98.0287Z" fill="#FDE889"/>
<path d="M75.36 106.29C75.6607 105.867 76.5074 104.995 77.0601 105.071L77.1577 105.491C77.1075 106.189 77.0851 106.711 77.0917 107.411C77.0944 108.843 77.0996 110.218 77.035 111.65C76.0564 111.658 75.2954 111.646 74.3213 111.797L74.3301 113.382C73.9599 113.76 72.7768 115.024 72.4331 115.292C71.6327 114.72 71.2609 114.302 70.6212 113.566C70.1238 112.986 70.0037 112.811 69.6298 112.146C71.0263 110.598 73.8131 108.073 75.3943 106.538L75.36 106.29Z" fill="#F9C65B"/>
<path d="M77.0917 107.411C77.0944 108.843 77.0996 110.218 77.035 111.65C76.0564 111.658 75.2954 111.646 74.3213 111.797L74.3301 113.382C73.9599 113.76 72.7768 115.024 72.4331 115.292C71.6327 114.72 71.2609 114.302 70.6212 113.566C72.4401 111.677 75.1134 109.329 77.0917 107.411Z" fill="#FDE889"/>
<path d="M83.4184 99.3285C83.7191 99.5312 84.1517 99.8424 84.4603 100.005L84.4867 100.136C85.2912 100.791 85.857 101.302 86.407 102.199L86.5073 102.318C87.8921 104.861 88.359 107.104 87.5228 109.967C86.8001 112.446 85.1119 114.535 82.8342 115.769C80.4641 117.042 77.6852 117.333 75.1014 116.58C74.281 116.337 73.1118 115.819 72.4331 115.292C72.7768 115.024 73.9599 113.76 74.3301 113.382C74.4394 113.65 74.4 113.562 74.6031 113.788C75.4233 114.011 81.3939 114.012 82.1378 113.751C82.4846 113.185 82.4596 112.303 82.0125 111.802C81.4124 111.554 80.7886 111.635 80.1212 111.651C80.1133 110.284 80.1146 108.918 80.1251 107.552L80.0961 104.229C80.0895 103.566 80.0289 102.737 80.2293 102.132C80.8914 101.781 82.7919 99.9277 83.4184 99.3285Z" fill="#F9C65B"/>
<path d="M83.4184 99.3285C83.7191 99.5312 84.1517 99.8424 84.4603 100.005L84.4867 100.136C85.2912 100.791 85.857 101.302 86.407 102.199C85.5313 102.892 80.5868 107.475 80.1251 107.552L80.0961 104.229C80.0895 103.566 80.0289 102.737 80.2293 102.132C80.8914 101.781 82.7919 99.9277 83.4184 99.3285Z" fill="#FDE889"/>
<path d="M83.4184 99.3285C83.7191 99.5312 84.1517 99.8424 84.4603 100.005L84.4867 100.136C83.0043 101.596 81.5337 102.84 80.0961 104.229C80.0895 103.566 80.0289 102.737 80.2293 102.132C80.8914 101.781 82.7919 99.9277 83.4184 99.3285Z" fill="#F9C65B"/>
<path d="M71.9039 95.8293C77.1669 92.997 83.6835 94.0249 87.809 98.3382C88.3286 98.8817 88.8008 99.4682 89.2202 100.092C88.0583 100.398 88.0965 100.49 87.4437 101.473C87.0018 100.966 86.5073 100.314 86.0799 99.7806L85.3506 99.0711C82.4121 97.0994 79.562 96.1098 76.0208 96.8061C69.985 97.9931 66.2257 103.908 67.5945 109.85C68.2839 112.843 69.6041 114.662 72.0553 116.454C71.8304 117.081 71.6716 116.625 71.2491 118.083C70.7794 118.265 70.8765 118.032 70.3605 118.065C67.9781 116.323 66.2493 113.838 65.4488 111.005C63.7707 105.067 66.4516 98.7635 71.9039 95.8293Z" fill="#F9C65B"/>
<path d="M65.4488 111.005C63.7707 105.067 66.4516 98.7635 71.9039 95.8293L72.2266 95.9858C72.0169 96.4577 70.416 97.4346 69.9893 97.9135C67.8703 100.291 66.5456 102.403 65.9116 105.541C65.6191 106.988 66.137 110.525 65.6203 110.985L65.4488 111.005Z" fill="#FEF9D8"/>
<path d="M86.0799 99.7806C86.4875 98.5953 86.5679 98.4528 87.809 98.3382C88.3286 98.8817 88.8008 99.4682 89.2202 100.092C88.0583 100.398 88.0965 100.49 87.4437 101.473C87.0018 100.966 86.5073 100.314 86.0799 99.7806Z" fill="#FDE889"/>
<path d="M89.2202 100.092C92.8036 105.415 92.0242 112.53 87.3751 116.962C82.7247 121.392 75.5486 121.858 70.3605 118.065C70.8765 118.032 70.7794 118.265 71.2491 118.083C71.6716 116.625 71.8304 117.081 72.0553 116.454C73.1075 116.923 74.0124 117.545 75.1795 117.819C85.0486 120.133 92.4581 110.437 87.4516 101.591L87.4437 101.473C88.0965 100.49 88.0583 100.398 89.2202 100.092Z" fill="#F9C65B"/>
<path d="M68.4785 108.436C68.5133 104.766 69.3194 102.096 72.3544 99.7174C74.9235 97.7042 77.4412 97.6239 80.5709 98.0287C79.9919 98.0656 79.7875 98.3105 79.3707 98.6538C75.6211 101.747 72.1488 105.274 68.4785 108.436Z" fill="#F9C65B"/>
<path d="M85.3506 99.0711L86.0799 99.7806C86.5073 100.314 87.0018 100.966 87.4437 101.473L87.4516 101.591C86.7578 101.655 86.7697 101.6 86.5073 102.318L86.407 102.199C85.857 101.302 85.2912 100.791 84.4867 100.136L84.4603 100.005L85.0565 99.8818C85.3981 99.5439 85.2912 99.6708 85.3506 99.0711Z" fill="#DF8C1B"/>
<path d="M79.3378 93.0999C86.3398 88.5178 93.5053 84.7441 100.817 80.7602C107.555 77.0885 116.503 72.6171 122.365 67.9134C122.477 68.6978 122.581 69.4833 122.678 70.2697L122.852 72.0763L122.849 74.5258C121.758 75.76 120.371 76.8516 119.06 77.8489C110.498 84.3654 100.275 88.7881 90.278 92.6533C88.8654 93.1991 85.4864 95.0938 84.2691 94.3629C83.826 94.0727 82.4846 93.6655 81.9122 93.4779C81.3741 93.4561 79.9339 93.1925 79.3378 93.0999Z" fill="#EC513E"/>
<path d="M84.2691 94.3629C86.2263 93.0454 91.1629 90.5894 93.4275 89.3989C98.3324 86.8319 103.208 84.2121 108.057 81.5399C112.83 78.8968 118.713 75.5769 122.852 72.0763L122.849 74.5258C121.758 75.76 120.371 76.8516 119.06 77.8489C110.498 84.3654 100.275 88.7881 90.278 92.6533C88.8654 93.1991 85.4864 95.0938 84.2691 94.3629Z" fill="#EC513E"/>
<path d="M81.9122 93.4779C83.185 92.5478 85.3308 91.5138 86.7539 90.7834L93.4512 87.3117C102.972 82.2876 113.961 76.5923 122.434 70.1821L122.678 70.2697L122.852 72.0763C118.713 75.5769 112.83 78.8968 108.057 81.5399C103.208 84.2121 98.3324 86.8319 93.4275 89.3989C91.1629 90.5894 86.2263 93.0454 84.2691 94.3629C83.826 94.0727 82.4846 93.6655 81.9122 93.4779Z" fill="#F6F5F5"/>
<path d="M33.0843 68.4887C38.0839 72.6959 45.5284 76.4207 51.3306 79.595C59.1973 83.8987 67.7867 88.2545 75.187 93.3004C74.2544 93.5613 73.4024 93.8049 72.4808 94.1139C71.8797 94.4235 71.3211 94.7125 70.7353 95.0522C69.5064 95.1401 58.4185 90.3921 56.6983 89.6561C51.4858 87.4628 46.515 84.942 41.6663 82.0513C38.682 80.2723 37.5512 79.0922 35.4882 76.3111C34.8505 75.4515 33.722 74.3893 33.3437 73.4263L32.7651 72.6146C32.7552 72.0445 32.7895 71.3663 32.8061 70.7891L33.0843 68.4887Z" fill="#F6F5F5"/>
<path d="M33.0843 68.4887C38.0839 72.6959 45.5284 76.4207 51.3306 79.595C59.1973 83.8987 67.7867 88.2545 75.187 93.3004C74.2544 93.5613 73.4024 93.8049 72.4808 94.1139C69.852 92.4676 66.7866 90.8753 64.061 89.3219C56.5653 85.0498 48.9242 81.0399 41.4922 76.6524C39.753 75.6413 38.053 74.5645 36.3963 73.4244C35.8972 73.0806 33.068 70.8828 32.8061 70.7891L33.0843 68.4887Z" fill="#EC513E"/>
<path d="M33.3437 73.4263C35.5006 75.2384 37.3397 76.2977 39.7505 77.7799C43.7587 80.2033 47.8239 82.532 51.9426 84.7643C58.2257 88.2369 64.3498 91.7586 70.7353 95.0522C69.5064 95.1401 58.4185 90.3921 56.6983 89.6561C51.4858 87.4628 46.515 84.942 41.6663 82.0513C38.682 80.2723 37.5512 79.0922 35.4882 76.3111C34.8505 75.4515 33.722 74.3893 33.3437 73.4263Z" fill="#EC513E"/>
<path d="M85.9283 121.665C90.2938 119.921 92.2444 119.377 96.7985 118.645C97.6268 122.858 97.6848 125.351 97.6334 129.523C96.4952 129.624 95.3794 129.884 95.3201 131.335C96.3435 131.825 97.8378 130.46 99.8373 132.428C101.194 133.762 102.116 136.917 99.4047 137.452C95.9914 138.127 90.8609 138.208 87.5861 136.988C86.3767 136.526 86.9161 131.299 86.8449 130.031C86.8449 127.383 86.5376 124.241 85.9283 121.665Z" fill="#F6BE57"/>
<path d="M88.7837 130.876C92.0281 129.922 94.199 129.003 97.6334 129.523C96.4952 129.624 95.3794 129.884 95.3201 131.335C96.3435 131.825 97.8378 130.46 99.8373 132.428C101.194 133.762 102.116 136.917 99.4047 137.452C95.9914 138.127 90.8609 138.208 87.5861 136.988C86.3767 136.526 86.9161 131.299 86.8449 130.031C87.478 130.357 88.1229 130.607 88.7837 130.876Z" fill="#9A5424"/>
<path d="M59.863 119.711C60.6779 119.951 61.5833 120.111 62.4217 120.279C63.0483 120.572 68.3857 121.789 69.2067 121.857C69.8128 122.096 70.3179 122.291 70.9419 122.486C70.536 124.844 70.5217 126.759 70.6454 129.16C70.8127 130.206 71.0134 135.838 70.6674 136.742C69.2135 138.455 58.6854 138.778 56.6679 137.443C54.591 136.067 57.8771 131.297 60.1368 131.766C60.5132 131.813 61.2517 131.828 61.529 131.715C61.8355 130.964 60.9797 130.329 60.3939 129.981C60.0451 130.021 60.0469 130.012 59.6972 129.953C58.9736 128.832 59.7171 121.312 59.863 119.711Z" fill="#F6BD56"/>
<path d="M70.6454 129.16C70.8127 130.206 71.0134 135.838 70.6674 136.742C69.2135 138.455 58.6854 138.778 56.6679 137.443C54.591 136.067 57.8771 131.297 60.1368 131.766C60.5132 131.813 61.2517 131.828 61.529 131.715C61.8355 130.964 60.9797 130.329 60.3939 129.981C63.0581 129.533 65.8818 130.503 68.596 130.978C70.0066 130.272 70.5668 130.852 70.6454 129.16Z" fill="#9A5424"/>
<path d="M21.9394 76.5638C20.3236 75.4481 18.7734 74.4421 17.5858 72.8295C15.4856 69.9781 15.5727 65.6505 18.5848 63.4536C19.7387 62.612 21.2583 62.4157 22.6428 62.6339C24.5337 62.9319 25.2369 64.2649 26.1136 65.7245C26.5878 66.4736 27.7062 64.5972 28.959 64.6143C30.7944 65.7299 28.6004 68.6564 29.5529 70.9461C29.735 71.2349 30.0875 71.775 30.1867 72.0882C28.5846 74.2844 27.3032 75.6225 24.7455 76.8073C24.1346 77.0902 23.1567 77.4043 22.6627 77.6458L21.9394 76.5638Z" fill="#9A5424"/>
<path d="M29.5529 70.9461C29.735 71.2349 30.0875 71.775 30.1867 72.0882C28.5846 74.2844 27.3032 75.6225 24.7455 76.8073C24.1346 77.0902 23.1567 77.4043 22.6627 77.6458L21.9394 76.5638C24.6202 76.5343 28.8902 73.5601 29.5529 70.9461Z" fill="#8D441C"/>
<path d="M125.577 101.653C125.798 102.142 125.982 102.424 126.262 102.875C128.598 104.505 131.39 106.298 131.891 109.267C132.302 111.697 130.256 114.335 127.858 114.666C126.124 114.905 125.317 113.872 123.749 113.562C122.837 113.409 122.431 115.166 121.342 114.259C119.933 113.087 120.051 110.825 120.081 109.183C119.683 108.57 119.497 108.327 119.011 107.779C118.711 107.541 118.377 107.142 118.113 106.851L118.73 105.768C120.269 104.353 121.256 102.868 123.6 102.111C124.189 101.92 124.833 101.881 125.396 101.709L125.577 101.653Z" fill="#9A5424"/>
<path d="M125.577 101.653C125.798 102.142 125.982 102.424 126.262 102.875C122.965 102.733 120.032 104.603 119.011 107.779C118.711 107.541 118.377 107.142 118.113 106.851L118.73 105.768C120.269 104.353 121.256 102.868 123.6 102.111C124.189 101.92 124.833 101.881 125.396 101.709L125.577 101.653Z" fill="#8D441C"/>
<path d="M67.4455 117.245C69.2524 119.003 70.1844 119.587 72.323 120.846C71.1284 120.53 68.7839 119.818 67.6575 120.205L67.4781 120.455C67.7314 121.424 68.5274 121.11 69.2067 121.857C68.3857 121.789 63.0483 120.572 62.4217 120.279C62.5874 120.262 62.7526 120.241 62.9171 120.215C63.5672 120.107 64.4675 119.68 64.3196 118.91C63.626 118.255 61.9669 118.499 60.5757 117.965L60.4274 117.907C61.0015 117.794 61.5278 118.036 62.1226 118.061C63.657 118.122 65.9836 117.735 67.4455 117.245Z" fill="#DF8C1B"/>
<path d="M142.327 43.2272C143.343 43.5706 143.914 44.0931 144.574 44.8894C143.705 47.6603 142.164 49.1072 139.442 50.1203C138.221 49.8367 137.863 49.2241 137.249 48.2417C138.024 47.5006 139.186 47.0197 139.978 46.2742C140.951 45.3583 141.352 44.1344 142.327 43.2272Z" fill="#EC513E"/>
<path d="M17.2179 32.995C18.9134 33.0556 20.1408 36.9852 20.1452 38.4051C20.151 40.3441 19.0477 40.0963 17.5677 40.1104C17.3761 40.0958 16.6078 40.0072 16.6479 39.7246C16.963 37.5053 16.1491 36.3159 14.929 34.6055C15.6933 33.6605 16.1321 33.5202 17.2179 32.995Z" fill="#F9C65B"/>
<path d="M150.012 79.2525C153.057 79.0848 153.832 78.5727 154 81.9546C152.093 81.9744 151.017 81.881 149.199 82.4524C148.393 82.7249 147.535 83.466 146.795 83.1386C146.608 82.9053 146.585 82.8645 146.469 82.5851C145.493 80.2302 148.171 79.779 150.012 79.2525Z" fill="#8DD890"/>
<path d="M14.8261 93.6367C16.3249 93.6197 17.2072 94.5856 17.7472 95.8629C18.3829 97.3667 18.8152 99.0233 17.0511 99.8041C16.9454 99.8293 16.0275 100.054 15.9863 99.8791C15.4802 97.7286 15.0854 96.7976 13.4514 95.3048C13.9411 94.5053 14.1411 94.2558 14.8261 93.6367Z" fill="#EC513E"/>
<path d="M31.3665 32.3133L31.7022 32.3378C32.206 32.78 32.4641 34.2716 32.7993 34.7255C33.2394 35.3217 34.1288 35.7685 34.5633 36.5093C34.537 37.3279 33.7179 37.9444 33.1226 38.5194C31.4136 38.2177 29.5098 35.6756 29.8897 33.953C30.0776 33.1011 30.7051 32.755 31.3665 32.3133Z" fill="#ED7571"/>
<path d="M10.3412 79.1958C11.4938 79.0118 12.0243 80.1961 12.3816 81.0771C11.2213 82.3769 10.2738 83.2911 9.28626 84.7427C8.29762 84.9008 7.52634 83.2411 7.15929 82.5146C8.21361 80.7869 8.65742 80.3516 10.3412 79.1958Z" fill="#F9C65B"/>
<path d="M129.368 20.0861C129.93 20.1235 130.61 20.4443 130.988 20.87C131.695 22.6332 128.023 24.8562 126.741 25.5303C126.216 25.694 126.405 25.7089 125.912 25.593C125.422 25.1992 125.225 24.5967 124.953 24.0075C127.373 22.5037 127.734 22.4491 129.368 20.0861Z" fill="#ED7571"/>
<path d="M44.9279 6.32131C46.9305 6.43708 48.2126 9.47494 48.5976 11.1293C48.1874 11.4481 47.5804 11.7954 47.1271 12.075L46.6118 12.2793C45.9296 12.09 45.3777 9.8283 44.908 9.16542C43.8619 7.68922 43.0053 7.47315 44.9279 6.32131Z" fill="#F9C65B"/>
<path d="M126.628 35.6904C127.709 35.9159 127.932 36.1187 128.693 36.8538C128.21 38.9572 127.577 40.0563 125.891 41.4074C125.619 41.4792 125.598 41.4598 125.31 41.4687C124.752 41.2852 124.376 40.8247 123.961 40.4041C125.541 38.1856 125.541 38.065 126.628 35.6904Z" fill="#F9C65B"/>
<path d="M34.3569 117.263C35.2189 117.159 35.2273 117.206 35.9976 117.497C36.2992 118.158 37.4146 119.46 37.4245 119.889C36.0143 122.428 34.282 118.983 33.7395 117.767C34.0554 117.6 34.176 117.572 34.3569 117.263Z" fill="#E8B12A" fill-opacity="0.658824"/>
<path d="M135.41 61.7539C135.985 61.7183 136.109 61.6818 136.65 61.8331C137.085 62.4601 136.804 64.4065 136.818 65.2328C136.827 65.7491 136.636 65.8011 136.311 66.0548C135.873 66.0069 135.84 66.0031 135.438 65.8345C134.488 64.883 134.673 62.7699 135.41 61.7539Z" fill="#ED7571"/>
<path d="M0.227483 55.385C-0.0489559 54.9343 0.209549 54.433 0.198338 53.8901C0.179742 52.9866 -0.284245 52.4591 0.274699 51.6752C0.795792 51.4017 1.24131 51.4038 1.81885 51.5041C2.05045 51.899 2.08013 53.4936 2.14647 54.0751C0.538875 53.8507 0.699645 54.2374 0.227483 55.385Z" fill="#65654F" fill-opacity="0.129412"/>
<path d="M118.124 121.71C118.366 121.794 118.581 121.806 118.667 122.067C118.91 122.795 119.635 125.058 119.491 125.661L119.276 125.825C119.16 125.732 119.081 125.67 118.92 125.679C118.158 125.726 117.779 125.372 117.215 124.989L116.93 125.145L116.686 124.515C117.278 124.297 118.017 124.65 118.534 124.267C118.39 122.986 117.355 122.971 118.124 121.71Z" fill="#64B6C9" fill-opacity="0.866667"/>
<path d="M62.8641 0.688089C62.9031 1.7386 63.8504 2.20144 63.3941 3.46998C62.1495 4.38214 61.3325 2.46344 61.0157 1.56914C61.5556 0.937493 61.8623 1.0488 62.6591 1.00693L62.8641 0.688089Z" fill="#ED7571" fill-opacity="0.827451"/>
<path d="M48.044 31.6838L48.4827 31.9063C49.076 32.9239 49.6631 34.0498 48.4213 34.888C48.1061 34.7444 47.8352 34.5125 47.6152 34.2466C47.2929 33.853 47.1576 33.3399 47.2442 32.8395C47.3578 32.2043 47.5422 32.0545 48.044 31.6838Z" fill="#6B9293" fill-opacity="0.517647"/>
<path d="M118.124 121.71C117.355 122.971 118.39 122.986 118.534 124.267C118.017 124.65 117.278 124.297 116.686 124.515C116.268 122.596 116.232 122.396 118.124 121.71Z" fill="#64B6C9" fill-opacity="0.843137"/>
<path d="M0.77456 56.2863C1.05772 55.3485 1.59148 55.1073 2.54134 54.9937C2.87238 55.3927 3.15542 55.6395 3.23956 56.1374C2.96114 57.4101 1.42424 57.5448 0.77456 56.2863Z" fill="#6B9293" fill-opacity="0.666667"/>
<path d="M0.227483 55.385C0.699645 54.2374 0.538875 53.8507 2.14647 54.0751L2.54134 54.9937C1.59148 55.1073 1.05772 55.3485 0.77456 56.2863L0.227483 55.385Z" fill="#5F6A5D" fill-opacity="0.258824"/>
<path d="M33.7395 117.767C33.3349 116.294 33.9774 114.568 35.645 115.447C35.5522 115.632 35.4351 115.866 35.2939 116.149C34.5897 116.575 34.3583 116.317 34.3569 117.263C34.176 117.572 34.0554 117.6 33.7395 117.767Z" fill="#EDBA35" fill-opacity="0.784314"/>
<path d="M61.0157 1.56914C60.8777 0.697935 61.3003 0.0914913 62.1896 0C62.7141 0.179439 62.5317 0.0673395 62.8641 0.688089L62.6591 1.00693C61.8623 1.0488 61.5556 0.937493 61.0157 1.56914Z" fill="#ED7571" fill-opacity="0.964706"/>
<path d="M35.645 115.447C35.723 116.037 35.8269 116.95 35.9976 117.497C35.2273 117.206 35.2189 117.159 34.3569 117.263C34.3583 116.317 34.5897 116.575 35.2939 116.149C35.4351 115.866 35.5522 115.632 35.645 115.447Z" fill="#F9C65B" fill-opacity="0.741176"/>
<path d="M116.93 125.145L117.215 124.989C117.779 125.372 118.158 125.726 118.92 125.679C119.081 125.67 119.16 125.732 119.276 125.825C119.105 125.936 118.931 126.044 118.754 126.146C118.277 126.421 118.147 126.387 117.68 126.259C117.258 125.896 117.169 125.636 116.93 125.145Z" fill="var(--fill-0, #64B6C9)" fill-opacity="0.913725"/>
</g>
</svg>
