<svg width="10" height="10" viewBox="0 0 10 10" fill="none" xmlns="http://www.w3.org/2000/svg" aria-hidden="true">
  <path d="M4.99975 8.37749L2.57605 9.90623C2.46898 9.97757 2.35705 10.0081 2.24024 9.99795C2.12344 9.98776 2.02123 9.947 1.93363 9.87565C1.84603 9.80431 1.77789 9.71524 1.72922 9.60843C1.68055 9.50162 1.67082 9.38177 1.70002 9.24887L2.34244 6.35956L0.196159 4.41806C0.0988221 4.32633 0.0380836 4.22177 0.013944 4.10436C-0.0101956 3.98695 -0.00299269 3.8724 0.0355528 3.7607C0.0740984 3.649 0.132501 3.55727 0.21076 3.48553C0.289019 3.41378 0.39609 3.36791 0.531973 3.34794L3.36449 3.08805L4.45953 0.366897C4.5082 0.244598 4.58373 0.152874 4.68613 0.0917243C4.78853 0.0305747 4.89307 0 4.99975 0C5.10643 0 5.21097 0.0305747 5.31337 0.0917243C5.41577 0.152874 5.4913 0.244598 5.53997 0.366897L6.63502 3.08805L9.46753 3.34794C9.6038 3.36832 9.71087 3.41418 9.78874 3.48553C9.86661 3.55687 9.92501 3.64859 9.96395 3.7607C10.0029 3.87281 10.0103 3.98756 9.98614 4.10497C9.962 4.22238 9.90107 4.32674 9.80334 4.41806L7.65706 6.35956L8.29948 9.24887C8.32868 9.38136 8.31895 9.50122 8.27028 9.60843C8.22161 9.71565 8.15348 9.80472 8.06587 9.87565C7.97827 9.94659 7.87607 9.98735 7.75926 9.99795C7.64246 10.0086 7.53052 9.97798 7.42345 9.90623L4.99975 8.37749Z" fill="#3D2000"/>
</svg>
