<svg preserveAspectRatio="none" width="100%" height="100%" overflow="visible" style="display: block;" viewBox="0 0 74 86" fill="none" xmlns="http://www.w3.org/2000/svg">
<g id="Vector">
<path d="M36.1911 11.1525L36.7372 3.93739C36.7611 3.61403 36.8319 2.85309 37.0983 2.68104C38.3091 1.89934 41.6304 2.43488 42.9227 2.63237C45.2093 3.0797 46.9252 3.54594 49.1221 4.36605C50.129 4.7992 52.1157 5.57868 52.6063 6.63109C52.6441 6.71246 52.7199 6.94533 52.7521 7.03848C52.4333 8.22972 51.665 10.0091 51.1814 11.1979C50.7629 12.2268 50.2679 13.6889 49.8292 14.6541C49.6284 15.208 49.4062 15.7861 49.2831 16.3614C49.8576 16.5149 50.4327 16.659 50.9851 16.8868C52.6536 17.5757 55.4282 19.2574 53.2268 21.1696C55.2186 22.9761 56.4206 25.3659 57.5311 27.7656C58.3568 29.5518 59.0348 31.0867 59.4742 33.036C59.7545 34.2783 59.8637 35.5775 59.9477 36.849C60.0525 38.3311 59.2242 42.576 58.6775 43.8615C59.3461 45.5428 60.18 47.3864 61.2135 48.8755C61.9843 49.9859 63.5297 50.4769 64.0436 51.9157C65.0329 54.6879 62.2943 57.3102 59.603 55.7579C57.3884 56.7698 56.8493 54.7645 56.8587 53.0391C56.3013 52.3222 55.7199 51.6084 55.2678 50.8207C54.9295 51.1811 54.2754 51.7787 54.0179 52.1254C52.6877 53.9202 51.2603 55.0005 49.2382 55.9415C48.6581 56.2117 48.0059 56.6749 47.3544 56.9824C47.7654 58.8504 47.9283 60.764 47.8393 62.6744C49.0242 63.6148 49.4731 64.1855 49.4939 65.7359C49.9611 66.4244 51.2344 67.6488 51.1492 68.3842C51.1359 68.5019 50.9529 68.7322 50.874 68.8341L50.8765 74.4976L61.6017 74.4767C63.2987 74.4767 65.6749 74.4236 67.339 74.5046C68.1054 75.2456 68.7904 76.1479 69.5069 76.9421C70.0056 77.4945 69.993 77.7116 69.5978 78.2843L69.613 83.0378C69.613 83.8371 69.6357 85.171 69.5612 85.9519C67.7317 86.0082 65.7721 85.9658 63.9287 85.9633L15.1755 85.9658C11.7911 85.9639 8.00978 86.0557 4.67548 85.9462C4.56545 84.5319 4.60806 82.7442 4.60913 81.3059C4.60301 78.9867 4.61456 76.6668 4.64386 74.3476C4.50642 74.1508 4.26368 73.8218 4.36192 73.5978C4.63893 72.9675 6.5997 70.8609 7.04098 70.4604L24.643 70.4445C24.6517 70.1142 24.6489 69.7232 24.6426 69.4143C24.637 69.1366 24.4075 68.0684 24.4887 67.9077C25.1038 66.6876 26.2836 66.0498 26.4903 64.595C26.5742 64.0046 27.4812 63.3015 27.9716 62.9478C27.6615 61.2918 27.8488 59.1194 28.1286 57.4665C26.6371 56.7862 25.7445 56.4433 24.7898 55.0498C22.3237 54.393 20.8298 52.8106 19.4867 50.69C19.2721 50.3513 19.1486 49.7764 18.9625 49.4634C18.6808 48.99 18.218 48.4467 17.9276 47.9681C17.2766 46.8954 16.6868 45.1151 16.4372 43.8755C15.6818 43.2745 14.9216 42.7483 14.1858 42.1165C12.6088 40.7624 11.2845 39.2309 10.0389 37.5753C9.8542 37.33 9.29291 37.0546 9.05162 36.8319C8.05416 35.9955 7.19035 34.8215 7.04205 33.5011C6.93877 32.5197 7.22652 31.5371 7.84267 30.7673C8.92359 29.4262 10.6121 28.9637 12.1668 29.7693C12.352 29.8653 13.2665 30.593 13.3663 30.5561C14.8667 30.0021 15.5027 31.2823 15.3377 32.6066L15.4346 32.5977C15.6952 31.8741 15.8452 30.8996 16.0816 30.1243C16.6786 28.1662 17.4162 26.4846 18.5092 24.7655C19.9747 22.4606 21.5491 20.8675 23.6811 19.1671C24.117 18.7929 24.7555 18.4873 25.1797 18.129C26.8208 16.7426 28.2069 16.1554 30.3056 15.7227C29.0744 13.2539 31.5192 12.7084 33.4038 12.8319C34.2783 12.8891 35.1135 13.001 35.9815 13.1232C36.0926 12.8874 36.1715 11.4748 36.1911 11.1525ZM34.9781 59.1542C34.9065 59.9363 34.774 64.1571 35.0887 64.6709L35.2738 64.6918L40.9303 64.6323C40.9246 63.5806 40.9555 59.8547 40.5269 59.0289C40.3627 58.9732 40.4454 58.9789 40.2693 59.0207C38.0149 59.4269 37.258 59.4934 34.9781 59.1542Z" fill="#63210C"/>
<path d="M36.1911 11.1525L36.7372 3.93739C36.7611 3.61403 36.8319 2.85309 37.0983 2.68104C38.3091 1.89934 41.6304 2.43488 42.9227 2.63237C45.2093 3.0797 46.9252 3.54594 49.1221 4.36605C50.129 4.7992 52.1157 5.57868 52.6063 6.63109C52.6441 6.71246 52.7199 6.94533 52.7521 7.03848C52.4333 8.22972 51.665 10.0091 51.1814 11.1979C50.7629 12.2268 50.2679 13.6889 49.8292 14.6541C49.6284 15.208 49.4062 15.7861 49.2831 16.3614C49.8576 16.5149 50.4327 16.659 50.9851 16.8868C52.6536 17.5757 55.4282 19.2574 53.2268 21.1696L53.1852 21.1603C52.9143 21.3303 52.73 21.4379 52.4447 21.5808C53.2483 22.4506 54.1605 23.3709 54.7306 24.4235C55.0974 25.1007 54.9168 25.4796 55.1447 26.1125C55.1498 26.128 55.8916 26.505 56.0141 26.6942C56.8613 28.0034 58.0336 31.0823 58.3177 32.5024C55.3139 34.7379 52.1328 36.3204 48.8645 38.1221C44.994 40.2555 40.7826 42.3178 37.2075 44.9164C32.4593 41.6476 27.4034 39.1971 22.3928 36.3935C21.8968 36.1389 21.3034 35.7754 20.8116 35.4902C20.3034 35.1366 19.541 34.7255 19.0014 34.4003C18.1306 33.8747 17.3033 33.2798 16.5274 32.6215C16.6467 32.2023 16.7263 31.6723 16.8242 31.2338C16.9976 30.222 17.5454 28.5128 18.0254 27.6057C18.2836 26.7035 19.1882 25.344 19.7072 24.5608C21.257 22.2217 23.3582 20.4636 25.662 18.9108C26.2513 18.5136 26.8031 17.9961 27.4434 17.6822C27.9673 17.3004 29.0351 16.9475 29.6618 16.7548L30.9078 16.5004L30.7647 16.2799L30.3056 15.7227C29.0744 13.2539 31.5192 12.7084 33.4038 12.8319C34.2783 12.8891 35.1135 13.001 35.9815 13.1232C36.0926 12.8874 36.1715 11.4748 36.1911 11.1525Z" fill="#FCC952"/>
<path d="M36.1911 11.1525L36.7372 3.93739C36.7611 3.61403 36.8319 2.85309 37.0983 2.68104C38.3091 1.89934 41.6304 2.43488 42.9227 2.63237C45.2093 3.0797 46.9252 3.54594 49.1221 4.36605C50.129 4.7992 52.1157 5.57868 52.6063 6.63109C52.6441 6.71246 52.7199 6.94533 52.7521 7.03848C52.4333 8.22972 51.665 10.0091 51.1814 11.1979C50.7629 12.2268 50.2679 13.6889 49.8292 14.6541C49.653 14.6406 49.4529 14.6527 49.2748 14.6583L49.2717 14.7271C49.23 14.7056 49.1694 14.6688 49.1214 14.676C48.1113 14.8268 47.1682 15.0459 46.1398 14.8942C43.3703 14.7982 38.65 13.2552 36.4941 11.4724L36.657 11.2189C36.3729 11.2744 36.4045 11.2686 36.1911 11.1525Z" fill="#6C54C8"/>
<path d="M42.9227 2.63237C45.2093 3.0797 46.9252 3.54594 49.1221 4.36605C49.2035 4.5433 49.237 4.57628 49.1758 4.80687C49.7206 5.0979 52.4914 6.50935 52.2073 7.21846C51.5773 7.38793 51.129 7.47791 50.4719 7.49107C49.3286 7.50424 48.2522 7.2601 47.2408 7.25156C47.1039 7.33174 47.0616 7.37223 46.9094 7.41286C45.9252 7.24808 43.1797 6.77962 42.2636 6.21225C42.1873 6.16498 42.2106 6.05203 42.2081 5.93825C42.1134 5.80903 41.2738 5.49991 41.0692 5.41892C40.2018 5.07562 37.8224 3.94848 37.3395 3.20805C37.8521 2.65707 40.3937 2.86298 41.1967 2.87602C41.4758 2.84469 41.9827 2.84995 42.2567 2.8826C42.852 2.95354 42.5793 2.78671 42.9227 2.63237Z" fill="#8E7CDB"/>
<path d="M42.9227 2.63237C45.2093 3.0797 46.9252 3.54594 49.1221 4.36605C49.2035 4.5433 49.237 4.57628 49.1758 4.80687C48.0634 4.45599 46.8165 3.94981 45.6947 3.65404C44.3229 3.29253 42.6001 3.03143 41.1967 2.87602C41.4758 2.84469 41.9827 2.84995 42.2567 2.8826C42.852 2.95354 42.5793 2.78671 42.9227 2.63237Z" fill="#7B66D2"/>
<path d="M42.2081 5.93825C43.554 6.50549 45.8072 7.00047 47.2408 7.25156C47.1039 7.33174 47.0616 7.37223 46.9094 7.41286C45.9252 7.24808 43.1797 6.77962 42.2636 6.21225C42.1873 6.16498 42.2106 6.05203 42.2081 5.93825Z" fill="#3F2D84"/>
<path d="M49.1221 4.36605C50.129 4.7992 52.1157 5.57868 52.6063 6.63109C52.6441 6.71246 52.7199 6.94533 52.7521 7.03848C52.4333 8.22972 51.665 10.0091 51.1814 11.1979C50.7629 12.2268 50.2679 13.6889 49.8292 14.6541C49.653 14.6406 49.4529 14.6527 49.2748 14.6583L49.2717 14.7271C49.23 14.7056 49.1694 14.6688 49.1214 14.676C48.1113 14.8268 47.1682 15.0459 46.1398 14.8942C46.5268 14.5971 49.4876 8.69142 49.8645 7.83689C48.463 7.69192 48.429 7.78393 46.9094 7.41286C47.0616 7.37223 47.1039 7.33174 47.2408 7.25156C48.2522 7.2601 49.3286 7.50424 50.4719 7.49107C51.129 7.47791 51.5773 7.38793 52.2073 7.21846C52.4914 6.50935 49.7206 5.0979 49.1758 4.80687C49.237 4.57628 49.2035 4.5433 49.1221 4.36605Z" fill="#5741B1"/>
<path d="M49.1221 4.36605C50.129 4.7992 52.1157 5.57868 52.6063 6.63109C52.6441 6.71246 52.7199 6.94533 52.7521 7.03848C52.4333 8.22972 51.665 10.0091 51.1814 11.1979C50.7629 12.2268 50.2679 13.6889 49.8292 14.6541C49.653 14.6406 49.4529 14.6527 49.2748 14.6583C49.3796 14.1607 49.7439 13.3635 49.9434 12.842L51.8739 7.93377C51.9673 7.82177 52.1385 7.37964 52.2073 7.21846C52.4914 6.50935 49.7206 5.0979 49.1758 4.80687C49.237 4.57628 49.2035 4.5433 49.1221 4.36605Z" fill="#3A2A83"/>
<path d="M50.4719 7.49107C51.129 7.47791 51.5773 7.38793 52.2073 7.21846C52.1385 7.37964 51.9673 7.82177 51.8739 7.93377C51.6567 7.81506 50.4983 8.0254 49.9061 7.86581L49.9579 7.6773C50.1536 7.50841 50.1966 7.54423 50.4719 7.49107Z" fill="#3F2D84"/>
<path d="M36.1911 11.1525L36.7372 3.93739C36.7611 3.61403 36.8319 2.85309 37.0983 2.68104C38.3091 1.89934 41.6304 2.43488 42.9227 2.63237C42.5793 2.78671 42.852 2.95354 42.2567 2.8826C41.9827 2.84995 41.4758 2.84469 41.1967 2.87602C40.3937 2.86298 37.8521 2.65707 37.3395 3.20805C37.3395 3.62487 37.2302 4.10989 37.2226 4.55437C37.186 6.75828 36.7232 9.02945 36.657 11.2189C36.3729 11.2744 36.4045 11.2686 36.1911 11.1525Z" fill="#4A3897"/>
<path d="M36.657 11.2189L36.4941 11.4724C38.65 13.2552 43.3703 14.7982 46.1398 14.8942C47.1682 15.0459 48.1113 14.8268 49.1214 14.676C49.1694 14.6688 49.23 14.7056 49.2717 14.7271L49.2748 14.6583C49.4529 14.6527 49.653 14.6406 49.8292 14.6541C49.6284 15.208 49.4062 15.7861 49.2831 16.3614C49.8576 16.5149 50.4327 16.659 50.9851 16.8868C52.6536 17.5757 55.4282 19.2574 53.2268 21.1696L53.1852 21.1603C52.9143 21.3303 52.73 21.4379 52.4447 21.5808C50.6959 22.4121 49.4845 22.463 47.5962 22.4864C46.5767 22.4298 45.4871 22.2891 44.4643 22.1788C43.3974 21.9946 42.335 21.7865 41.2775 21.5547C39.4152 21.223 36.8666 20.1539 35.103 19.4061C33.2955 18.4736 32.3447 17.9504 30.9078 16.5004L30.7647 16.2799L30.3056 15.7227C29.0744 13.2539 31.5192 12.7084 33.4038 12.8319C34.2783 12.8891 35.1135 13.001 35.9815 13.1232C36.0926 12.8874 36.1715 11.4748 36.1911 11.1525C36.4045 11.2686 36.3729 11.2744 36.657 11.2189Z" fill="#7B66D2"/>
<path d="M36.657 11.2189L36.4941 11.4724C38.65 13.2552 43.3703 14.7982 46.1398 14.8942C47.1682 15.0459 48.1113 14.8268 49.1214 14.676C49.1694 14.6688 49.23 14.7056 49.2717 14.7271C49.0507 15.4736 48.6808 16.3284 48.5179 17.0325C48.4233 17.2786 48.3248 17.5233 48.2231 17.7666C47.7882 17.8939 47.4195 17.9227 46.9725 17.9728C46.6253 18.0251 45.7572 17.9857 45.3873 17.9754C42.941 17.9072 39.6405 16.9693 37.5572 15.6795C37.4676 15.5771 36.5478 14.9059 36.2296 14.5883C36.2643 14.308 36.2858 14.0209 36.311 13.7391L36.0756 13.655C36.0011 13.4254 36.0017 13.3681 35.9815 13.1232C36.0926 12.8874 36.1715 11.4748 36.1911 11.1525C36.4045 11.2686 36.3729 11.2744 36.657 11.2189Z" fill="#ECEAED"/>
<path d="M36.657 11.2189L36.4941 11.4724C36.5073 12.2946 36.4222 12.9259 36.311 13.7391L36.0756 13.655C36.0011 13.4254 36.0017 13.3681 35.9815 13.1232C36.0926 12.8874 36.1715 11.4748 36.1911 11.1525C36.4045 11.2686 36.3729 11.2744 36.657 11.2189Z" fill="#5741B1"/>
<path d="M30.3056 15.7227C29.0744 13.2539 31.5192 12.7084 33.4038 12.8319C34.2783 12.8891 35.1135 13.001 35.9815 13.1232C36.0017 13.3681 36.0011 13.4254 36.0756 13.655C34.6033 13.5118 31.963 12.9256 30.8206 14.0115C29.9812 15.1625 31.3248 15.9772 31.9393 16.7186C32.6502 17.323 33.9904 18.3878 34.8436 18.721C35.59 19.2418 36.8148 19.6634 37.6816 19.959C41.6563 21.3149 47.4637 22.6639 51.5791 21.4526C51.7326 21.4623 52.9371 21.2062 53.1852 21.1603C52.9143 21.3303 52.73 21.4379 52.4447 21.5808C50.6959 22.4121 49.4845 22.463 47.5962 22.4864C46.5767 22.4298 45.4871 22.2891 44.4643 22.1788C43.3974 21.9946 42.335 21.7865 41.2775 21.5547C39.4152 21.223 36.8666 20.1539 35.103 19.4061C33.2955 18.4736 32.3447 17.9504 30.9078 16.5004L30.7647 16.2799L30.3056 15.7227Z" fill="#3F2D84"/>
<path d="M49.2748 14.6583C49.4529 14.6527 49.653 14.6406 49.8292 14.6541C49.6284 15.208 49.4062 15.7861 49.2831 16.3614C49.8576 16.5149 50.4327 16.659 50.9851 16.8868C52.6536 17.5757 55.4282 19.2574 53.2268 21.1696L53.1852 21.1603C52.9371 21.2062 51.7326 21.4623 51.5791 21.4526C52.1985 20.9734 52.987 21.3311 53.1417 20.1872C52.677 20.4053 52.4573 20.4841 51.9643 20.63C51.9775 20.5729 51.9725 20.5152 51.9731 20.454C51.3273 19.5128 49.7276 19.0413 48.5641 18.1616C48.0944 18.2324 47.8236 18.2824 47.3425 18.2613L47.3848 18.0959L47.3299 18.0108L46.9725 17.9728C47.4195 17.9227 47.7882 17.8939 48.2231 17.7666C48.3248 17.5233 48.4233 17.2786 48.5179 17.0325C48.6808 16.3284 49.0507 15.4736 49.2717 14.7271L49.2748 14.6583Z" fill="#6C54C8"/>
<path d="M49.2748 14.6583C49.4529 14.6527 49.653 14.6406 49.8292 14.6541C49.6284 15.208 49.4062 15.7861 49.2831 16.3614C49.8576 16.5149 50.4327 16.659 50.9851 16.8868C52.6536 17.5757 55.4282 19.2574 53.2268 21.1696L53.1852 21.1603C52.9371 21.2062 51.7326 21.4623 51.5791 21.4526C52.1985 20.9734 52.987 21.3311 53.1417 20.1872C54.5318 19.1009 50.7496 17.2187 49.9201 17.0242C49.5249 16.9315 48.9251 16.5467 48.6069 17.0428L48.5179 17.0325C48.6808 16.3284 49.0507 15.4736 49.2717 14.7271L49.2748 14.6583Z" fill="#44358D"/>
<path d="M34.8436 18.721C37.3805 19.3059 38.9089 20.3088 41.6721 20.6785L41.6387 20.6574C43.5824 20.9485 45.381 21.3405 47.3526 21.2519C47.7604 21.2336 48.2592 21.2704 48.6468 21.1639C49.9334 21.0984 50.7414 20.9716 51.9643 20.63C52.4573 20.4841 52.677 20.4053 53.1417 20.1872C52.987 21.3311 52.1985 20.9734 51.5791 21.4526C47.4637 22.6639 41.6563 21.3149 37.6816 19.959C36.8148 19.6634 35.59 19.2418 34.8436 18.721Z" fill="#5741B1"/>
<path d="M31.9393 16.7186C31.3248 15.9772 29.9812 15.1625 30.8206 14.0115C30.8337 14.2793 30.8345 14.3924 31.0367 14.5825C31.2665 14.7986 31.3757 15.1229 31.5417 15.3848C32.3515 16.6618 33.6296 17.3584 34.9281 18.0408C38.4511 19.8821 42.3279 20.943 46.2957 21.1513C47.0249 21.1842 47.9864 21.1112 48.6468 21.1639C48.2592 21.2704 47.7604 21.2336 47.3526 21.2519C45.381 21.3405 43.5824 20.9485 41.6387 20.6574L41.6721 20.6785C38.9089 20.3088 37.3805 19.3059 34.8436 18.721C33.9904 18.3878 32.6502 17.323 31.9393 16.7186Z" fill="#6C54C8"/>
<path d="M47.3425 18.2613C44.65 18.7283 42.4984 18.2171 39.9277 17.3506C39.5572 17.2256 37.5187 16.257 37.4164 16.0247C37.7346 16.0412 37.7049 16.2883 38.0193 16.3073L38.0938 16.1934C38.0054 16.0321 37.6954 15.9129 37.4802 15.7479L37.5572 15.6795C39.6405 16.9693 42.941 17.9072 45.3873 17.9754C45.7572 17.9857 46.6253 18.0251 46.9725 17.9728L47.3299 18.0108L47.3848 18.0959L47.3425 18.2613Z" fill="#3F2D84"/>
<path d="M18.0254 27.6057C18.2836 26.7035 19.1882 25.344 19.7072 24.5608C21.257 22.2217 23.3582 20.4636 25.662 18.9108C26.2513 18.5136 26.8031 17.9961 27.4434 17.6822C27.4738 17.8082 27.4778 17.8252 27.4829 17.9543L27.5323 17.9787C27.5222 18.1895 27.5129 18.1336 27.3385 18.3361L28.0654 18.7829C27.6509 19.0796 27.0654 19.5988 26.6601 19.827C25.0612 20.7269 24.0783 21.6429 22.8365 22.9856C22.3261 23.5439 21.8352 24.1199 21.3648 24.7124C21.1047 25.0373 20.6146 25.6978 20.3491 25.9359L20.2629 26.0294C19.984 26.0039 20.0378 25.9636 19.8583 26.0879C19.6766 26.4746 19.5345 27.0751 19.4102 27.4946C19.1175 28.4815 18.708 28.0894 17.9827 28.4667L17.892 28.3974C17.8729 28.0397 17.9659 27.9361 18.0254 27.6057Z" fill="#FEE585"/>
<path d="M26.5024 18.531C26.7546 18.3223 26.8726 18.1579 27.1766 18.1602L27.3385 18.3361L28.0654 18.7829C27.6509 19.0796 27.0654 19.5988 26.6601 19.827C25.0612 20.7269 24.0783 21.6429 22.8365 22.9856C22.3261 23.5439 21.8352 24.1199 21.3648 24.7124C21.1047 25.0373 20.6146 25.6978 20.3491 25.9359C20.2138 25.6243 20.9383 24.6186 21.092 24.303C22.3972 21.6238 24.8643 20.8538 26.9293 18.9475L26.5024 18.531Z" fill="#FBF2D2"/>
<path d="M16.8242 31.2338L16.9464 31.3053C18.9456 30.5498 19.9365 31.2113 21.1789 32.8104C21.2702 33.8809 21.2515 34.4825 20.8116 35.4902C20.3034 35.1366 19.541 34.7255 19.0014 34.4003C18.1306 33.8747 17.3033 33.2798 16.5274 32.6215C16.6467 32.2023 16.7263 31.6723 16.8242 31.2338Z" fill="#9A5424"/>
<path d="M35.103 19.4061C36.8666 20.1539 39.4152 21.223 41.2775 21.5547C41.0301 21.6721 40.9593 21.7753 40.7428 21.9347C40.2686 22.283 39.9612 22.3961 39.4025 22.5243C37.9657 22.7672 36.3956 22.1279 35.5253 20.961C35.2579 20.4041 35.1875 20.0137 35.103 19.4061Z" fill="#9A5424"/>
<path d="M44.4643 22.1788C45.4871 22.2891 46.5767 22.4298 47.5962 22.4864L47.6435 22.735C47.6328 22.9696 47.67 23.0793 47.7325 23.3075C46.1246 24.6821 45.5867 24.1849 44.5135 24.9099C44.0855 24.5568 43.9731 24.4746 43.7951 23.9538C43.8273 22.973 43.8002 22.912 44.4643 22.1788Z" fill="#9A5424"/>
<path d="M29.6618 16.7548L30.9078 16.5004C32.3447 17.9504 33.2955 18.4736 35.103 19.4061C35.1875 20.0137 35.2579 20.4041 35.5253 20.961C33.7347 20.691 31.3601 18.0931 30.1303 16.852C30.0214 16.7422 29.8094 16.7626 29.6618 16.7548Z" fill="#F8BB46"/>
<path d="M39.4025 22.5243C39.9612 22.3961 40.2686 22.283 40.7428 21.9347C40.9593 21.7753 41.0301 21.6721 41.2775 21.5547C42.335 21.7865 43.3974 21.9946 44.4643 22.1788C43.8002 22.912 43.8273 22.973 43.7951 23.9538C43.7503 23.5044 43.7717 23.3493 43.2819 23.3292C41.8703 23.2714 40.7219 23.045 39.4025 22.5243Z" fill="#F8BB46"/>
<path d="M47.6435 22.735C48.9301 25.1204 46.7458 26.6505 44.5135 24.9099C45.5867 24.1849 46.1246 24.6821 47.7325 23.3075C47.67 23.0793 47.6328 22.9696 47.6435 22.735Z" fill="#B46D33"/>
<path d="M21.1789 32.8104C22.5042 33.9581 23.0782 34.6059 22.3928 36.3935C21.8968 36.1389 21.3034 35.7754 20.8116 35.4902C21.2515 34.4825 21.2702 33.8809 21.1789 32.8104Z" fill="#BB773A"/>
<path d="M33.7328 34.1944C34.5628 34.202 35.378 34.3359 36.2283 34.3221C37.3003 34.3047 38.3672 34.2685 39.4372 34.2615C39.5843 34.2606 39.9397 34.299 40.0546 34.3919C40.2308 34.5517 40.2863 34.8401 40.2838 35.0686C40.2712 36.4481 40.0894 37.2787 39.1228 38.2895C38.4454 38.8531 37.6557 39.1545 36.7706 39.147C35.847 39.1466 34.9632 38.7694 34.3227 38.1022C33.586 37.3298 33.3056 36.2274 33.2975 35.1729C33.2936 34.6732 33.389 34.5136 33.7328 34.1944Z" fill="#63210C"/>
<path d="M37.6936 35.6704C38.3047 35.6383 38.6709 35.6713 39.2643 35.8121C39.0516 37.2801 38.1949 38.231 36.652 38.1646L36.5617 38.151C35.6848 38.0169 35.2882 37.8362 34.7605 37.1112C35.5297 36.2671 36.5819 35.8416 37.6936 35.6704Z" fill="#F17563"/>
<path d="M27.2336 22.5602C27.8391 22.4955 28.4903 22.4701 29.0497 22.7651C30.1837 23.3631 30.5797 24.9057 29.938 26.0054C29.4294 26.877 28.823 27.1149 27.8888 27.3746C25.3609 28.0356 24.4618 26.1437 25.4225 23.9958C25.7659 23.2279 26.4529 22.8146 27.2336 22.5602Z" fill="#8D431A"/>
<path d="M29.3024 31.0551C29.615 31.0503 29.7776 31.0834 30.1552 31.1075C31.1887 31.1734 32.9396 32.9811 31.7958 33.841C31.2614 34.2427 30.7141 32.7581 30.3762 32.541C30.1889 32.4208 30.1315 32.3906 29.8776 32.3196L29.8046 32.2996C27.9615 32.3193 28.552 33.758 27.6736 33.9281C27.4978 33.9605 27.3163 33.9209 27.1699 33.8182C26.6402 33.4453 27.1178 32.5057 27.4146 32.1095C27.9251 31.4284 28.4897 31.1783 29.3024 31.0551Z" fill="#63210C"/>
<path d="M43.6961 31.0542C44.7655 30.9927 45.7768 31.4628 46.3248 32.4178C46.5407 32.794 46.7244 33.8509 46.0969 33.929C45.1802 34.0431 45.4246 32.8148 44.4454 32.3485L44.3779 32.3166C43.2308 32.231 43.1651 32.2794 42.6658 33.1827C41.8141 34.7218 40.6986 33.2177 41.7737 32.0566C42.4448 31.3327 42.6923 31.1691 43.6961 31.0542Z" fill="#63210C"/>
<path d="M15.4346 32.5977C15.464 32.8855 15.4338 33.3593 15.2981 33.6211L15.1972 33.6788C15.0492 33.4012 15.222 32.8872 15.3377 32.6066L15.4346 32.5977Z" fill="#B78C7B"/>
<path d="M25.3301 68.8151C26.9729 68.767 28.8609 68.8145 30.5209 68.8126L41.0623 68.7999C43.1563 68.8043 45.5742 68.748 47.6316 68.8195C48.4807 68.8107 49.3298 68.8107 50.1789 68.8195C50.1726 69.8662 50.0363 77.8015 50.2616 78.1197C50.9125 78.3159 53.8291 78.2393 54.6454 78.2381C56.6025 78.2469 58.5601 78.245 60.5178 78.2311L63.2798 78.24L66.4268 78.2355C67.0613 78.2261 68.3813 78.1818 68.9602 78.2571C68.8731 78.9411 68.9154 79.791 68.9009 80.4934C68.8687 82.0766 68.9363 83.6896 68.9217 85.2691L62.9988 85.2704L61.2406 85.2754C60.4768 85.3526 57.7742 85.3248 56.9939 85.2691L54.5804 85.2723L32.3703 85.2748L23.9126 85.2691L10.4667 85.2818C9.48366 85.2577 8.47251 85.2912 7.47997 85.2748C6.82448 85.3254 5.9767 85.3045 5.30449 85.3045L5.31649 74.3362C9.0088 74.359 12.7012 74.3559 16.3934 74.3261C17.5262 74.328 24.8148 74.44 25.2733 74.1856C25.4119 73.6541 25.3271 69.7105 25.3301 68.8151Z" fill="#FCC952"/>
<path d="M25.3301 68.8151C26.9729 68.767 28.8609 68.8145 30.5209 68.8126L41.0623 68.7999C40.9682 68.8195 40.7106 68.8809 40.6532 68.9321C40.2997 69.2435 37.991 71.24 38.0352 71.6076C37.7315 71.6696 37.3237 71.6494 37.0055 71.6468C36.5762 71.9911 34.7196 73.3687 34.5608 73.7281C34.5572 74.0344 34.7215 74.2059 34.912 74.4508C32.8924 76.2346 30.574 78.6582 28.5991 80.5781C27.5201 81.6216 26.451 82.6752 25.392 83.739C25.0946 84.037 24.1273 84.9831 23.9126 85.2691L10.4667 85.2818C9.48366 85.2577 8.47251 85.2912 7.47997 85.2748C6.82448 85.3254 5.9767 85.3045 5.30449 85.3045L5.31649 74.3362C9.0088 74.359 12.7012 74.3559 16.3934 74.3261C17.5262 74.328 24.8148 74.44 25.2733 74.1856C25.4119 73.6541 25.3271 69.7105 25.3301 68.8151Z" fill="#FCC952"/>
<path d="M13.912 74.4033C15.6464 74.3318 17.6708 74.3869 19.4243 74.3957C19.028 74.857 17.546 76.7725 17.2308 77.018C16.2306 76.5662 14.9848 76.7092 14.3858 77.6774C13.8327 78.5722 14.5661 78.7437 15.2462 78.7557C15.5373 78.0653 15.6045 77.8261 16.4104 77.9672C16.3405 78.1786 10.9884 84.7553 10.4667 85.2818C9.48366 85.2577 8.47251 85.2912 7.47997 85.2748C7.03086 85.2229 5.9424 85.2482 5.44336 85.2476C5.4669 84.9577 5.47909 84.6489 5.49519 84.3566C5.53382 84.573 5.52012 84.7027 5.64683 84.8527C5.8698 84.8869 5.77782 84.9141 5.94007 84.7989C6.25837 84.1281 6.02895 78.5741 6.07005 77.3186C6.14594 77.7299 6.13331 78.962 6.13527 79.4423L6.12106 83.9389C8.67999 80.7294 11.2771 77.5502 13.912 74.4033Z" fill="#FEE585"/>
<path d="M15.2462 78.7557C14.5661 78.7437 13.8327 78.5722 14.3858 77.6774C14.9848 76.7092 16.2306 76.5662 17.2308 77.018C19.0406 78.4488 17.2923 79.989 16.1725 81.0603C16.6303 81.0452 17.7844 80.9445 18.1472 81.1407C18.3294 81.4084 18.3116 81.8937 18.0816 82.1393C17.937 82.1741 15.0278 82.231 14.9626 82.2177C12.1635 81.6375 17.9319 79.1233 16.4104 77.9672C15.6045 77.8261 15.5373 78.0653 15.2462 78.7557Z" fill="#63210C"/>
<path d="M5.49519 84.3566C5.42404 82.2089 5.49835 79.9644 5.47373 77.811C5.46893 77.3939 5.444 75.2583 5.53099 74.9748C5.70005 74.9235 5.6154 74.9235 5.79267 74.9925C6.16034 75.4215 6.06917 76.7301 6.07005 77.3186C6.02895 78.5741 6.25837 84.1281 5.94007 84.7989C5.77782 84.9141 5.8698 84.8869 5.64683 84.8527C5.52012 84.7027 5.53382 84.573 5.49519 84.3566Z" fill="#FBF2D2"/>
<path d="M25.459 68.9575L26.1233 68.967C26.1657 69.7675 26.2483 73.4054 26.0485 74.0312C25.8148 74.1363 25.7623 74.1724 25.5561 74.0148C25.4366 73.7009 25.4388 69.5637 25.459 68.9575Z" fill="#FBF2D2"/>
<path d="M37.0055 71.6468C37.3237 71.6494 37.7315 71.6696 38.0352 71.6076C38.1627 71.6665 38.4304 71.7576 38.4398 71.8911C38.5661 73.6876 38.4764 76.2435 38.4947 77.9957C38.9386 78.0134 39.3817 78.0331 39.8243 78.0552C40.0875 78.3697 40.1077 79.1177 39.8148 79.4341C39.3022 79.6492 36.4777 79.4379 35.6892 79.5366C36.2145 79.61 37.5017 79.5834 38.0951 79.5891C37.3584 80.4668 35.8957 81.8109 35.0512 82.6588C34.3424 83.3707 33.0991 84.6559 32.3703 85.2748L23.9126 85.2691C24.1273 84.9831 25.0946 84.037 25.392 83.739C26.451 82.6752 27.5201 81.6216 28.5991 80.5781C30.574 78.6582 32.8924 76.2346 34.912 74.4508C34.7215 74.2059 34.5572 74.0344 34.5608 73.7281C34.7196 73.3687 36.5762 71.9911 37.0055 71.6468Z" fill="#FEE585"/>
<path d="M37.0055 71.6468C37.3237 71.6494 37.7315 71.6696 38.0352 71.6076C38.1627 71.6665 38.4304 71.7576 38.4398 71.8911C38.5661 73.6876 38.4764 76.2435 38.4947 77.9957C38.9386 78.0134 39.3817 78.0331 39.8243 78.0552C40.0875 78.3697 40.1077 79.1177 39.8148 79.4341C39.3022 79.6492 36.4777 79.4379 35.6892 79.5366C35.4892 79.5252 35.4586 79.5201 35.2635 79.4733C35.0638 79.2942 34.9663 79.0133 34.9235 78.75C34.7712 77.8135 36.0484 77.9951 36.6759 77.9945L36.6683 73.8661C36.3356 74.1483 35.7618 74.7229 35.3238 74.7254C35.1445 74.7261 35.0337 74.5799 34.912 74.4508C34.7215 74.2059 34.5572 74.0344 34.5608 73.7281C34.7196 73.3687 36.5762 71.9911 37.0055 71.6468Z" fill="#63210C"/>
<path d="M66.4268 78.2355C67.0613 78.2261 68.3813 78.1818 68.9602 78.2571C68.8731 78.9411 68.9154 79.791 68.9009 80.4934C68.8687 82.0766 68.9363 83.6896 68.9217 85.2691L62.9988 85.2704L61.2406 85.2754C60.9465 85.2438 60.4956 85.2412 60.1882 85.2305C60.7633 84.7711 60.8548 84.5705 61.2197 83.932L61.168 83.8042C61.5228 82.9353 61.3542 82.3785 60.6061 81.845C61.0556 81.409 61.1061 81.2483 61.2052 80.6497C61.0499 79.6821 60.5644 79.3917 59.6831 79.2018C59.8422 78.955 60.2931 78.4115 60.5178 78.2311L63.2798 78.24L66.4268 78.2355Z" fill="#FEE585"/>
<path d="M68.9602 78.2571C68.8731 78.9411 68.9154 79.791 68.9009 80.4934C68.8687 82.0766 68.9363 83.6896 68.9217 85.2691L62.9988 85.2704C63.5279 84.7768 68.8062 78.5975 68.9602 78.2571Z" fill="#FCC037"/>
<path d="M63.2798 78.24L66.4268 78.2355C66.3094 78.2552 66.0284 78.302 65.9495 78.3862C64.3106 80.1428 62.7166 82.0564 61.2197 83.932L61.168 83.8042C61.5228 82.9353 61.3542 82.3785 60.6061 81.845C61.0556 81.409 61.1061 81.2483 61.2052 80.6497C61.0499 79.6821 60.5644 79.3917 59.6831 79.2018C59.8422 78.955 60.2931 78.4115 60.5178 78.2311L63.2798 78.24Z" fill="#FCC952"/>
<path d="M60.5178 78.2311L63.2798 78.24C63.1327 78.4697 61.4824 80.4858 61.2911 80.6858L61.2052 80.6497C61.0499 79.6821 60.5644 79.3917 59.6831 79.2018C59.8422 78.955 60.2931 78.4115 60.5178 78.2311Z" fill="#FEE585"/>
<path d="M41.0623 68.7999C43.1563 68.8043 45.5742 68.748 47.6316 68.8195C48.1569 68.8638 48.6379 68.879 49.1638 68.8942C48.429 69.4441 46.9378 71.0153 46.2428 71.7133L41.6185 76.2884C41.2277 76.6725 40.1854 77.7812 39.8243 78.0552C39.3817 78.0331 38.9386 78.0134 38.4947 77.9957C38.4764 76.2435 38.5661 73.6876 38.4398 71.8911C38.4304 71.7576 38.1627 71.6665 38.0352 71.6076C37.991 71.24 40.2997 69.2435 40.6532 68.9321C40.7106 68.8809 40.9682 68.8195 41.0623 68.7999Z" fill="#FEE585"/>
<path d="M58.7911 80.3599C58.3915 80.5845 58.1889 80.7402 57.7653 80.4579C57.1251 79.4151 59.0209 79.1797 59.6831 79.2018C60.5644 79.3917 61.0499 79.6821 61.2052 80.6497C61.1061 81.2483 61.0556 81.409 60.6061 81.845C61.3542 82.3785 61.5228 82.9353 61.168 83.8042L61.2197 83.932C60.8548 84.5705 60.7633 84.7711 60.1882 85.2305C60.4956 85.2412 60.9465 85.2438 61.2406 85.2754C60.4768 85.3526 57.7742 85.3248 56.9939 85.2691L54.5804 85.2723C54.6416 84.9154 58.2413 80.942 58.7911 80.3599Z" fill="#63210C"/>
<path d="M58.7911 80.3599C59.3625 80.22 59.7482 80.239 59.9565 80.8326C59.8839 81.4799 58.6365 81.0458 58.4894 81.728C58.4445 81.9355 58.5121 82.138 58.6333 82.3063C58.8612 82.4266 59.055 82.3987 59.3183 82.4C59.1263 82.7512 58.9111 83.2764 58.5714 83.4131C57.7343 82.8018 56.8297 83.6852 58.0222 84.48C57.7419 84.8622 57.4863 85.1951 56.9939 85.2691L54.5804 85.2723C54.6416 84.9154 58.2413 80.942 58.7911 80.3599Z" fill="#FEE585"/>
<path d="M61.168 83.8042L61.2197 83.932C60.8548 84.5705 60.7633 84.7711 60.1882 85.2305C60.4956 85.2412 60.9465 85.2438 61.2406 85.2754C60.4768 85.3526 57.7742 85.3248 56.9939 85.2691C57.4863 85.1951 57.7419 84.8622 58.0222 84.48C59.1642 84.8755 60.4451 84.985 61.168 83.8042Z" fill="#F8BB46"/>
<path d="M59.3183 82.4C60.9325 82.6639 59.5279 84.3066 58.5714 83.4131C58.9111 83.2764 59.1263 82.7512 59.3183 82.4Z" fill="#FCC952"/>
<path d="M14.6847 34.7929C15.1643 35.5489 17.4079 38.8238 18.1543 39.0683C18.365 39.0358 18.3552 39.0337 18.5392 38.9189C19.5126 40.1158 20.7298 40.7118 22.0706 41.4283C24.0803 42.497 26.1356 43.4776 28.2305 44.3672C29.0356 44.7109 30.0797 45.1004 30.8463 45.4651C31.0657 45.5481 31.3195 45.6369 31.5324 45.7275L33.3238 46.4146C32.2868 47.3529 31.5893 48.1517 31.1082 49.5161C31.0451 49.7829 30.7871 50.9831 30.7022 51.1543C30.7691 53.4189 31.006 54.7809 32.5488 56.5844C31.7387 56.8109 30.6153 56.9286 29.7722 57.059C28.4851 56.7299 26.8438 56.0446 25.8817 55.0916C25.5815 54.7942 25.2932 54.3373 25.0628 53.9818C24.8185 53.9566 24.3779 53.9622 24.1555 53.9021C23.1966 53.643 22.3398 52.8545 21.6577 52.1554C21.1639 51.6493 20.5901 50.9405 20.2847 50.2958C20.1563 50.025 20.0176 49.4073 19.8521 49.1547C19.541 48.6783 19.22 48.3842 18.905 47.8924C18.3045 46.9548 17.6369 45.7273 17.5064 44.6001C17.4916 44.4724 17.5793 44.3075 17.6757 44.2391C17.7578 44.1809 17.8077 44.1145 17.8689 44.0309C17.7887 43.737 17.3045 43.3706 17.0535 43.2044C14.6705 41.6261 12.8153 39.7406 11.0759 37.4648C12.6508 37.0922 13.807 36.1191 14.6847 34.7929Z" fill="#FCC952"/>
<path d="M31.5324 45.7275L33.3238 46.4146C32.2868 47.3529 31.5893 48.1517 31.1082 49.5161C31.0108 48.9537 31.0213 48.2146 30.9756 47.6349C30.9206 46.9357 30.9829 46.2271 31.5324 45.7275Z" fill="#7B66D2"/>
<path d="M30.8463 45.4651C31.0657 45.5481 31.3195 45.6369 31.5324 45.7275C30.9829 46.2271 30.9206 46.9357 30.9756 47.6349C31.0213 48.2146 31.0108 48.9537 31.1082 49.5161C31.0451 49.7829 30.7871 50.9831 30.7022 51.1543C30.6939 51.1211 30.6861 51.0878 30.679 51.0544C30.4588 50.037 30.4769 48.8515 30.398 47.8136C30.3313 46.9369 30.3589 46.2213 30.8463 45.4651Z" fill="#3F2D84"/>
<path d="M25.386 44.106C26.7737 43.8396 28.1144 44.7498 28.3827 46.1402C28.6511 47.5306 27.7457 48.8763 26.359 49.1479C24.9687 49.4202 23.6218 48.5097 23.3528 47.1155C23.0837 45.7214 23.9947 44.373 25.386 44.106Z" fill="#B46D33"/>
<path d="M59.0204 37.0377C59.0374 38.9662 58.516 41.0378 58.0728 42.9128C58.0639 42.9518 57.7546 43.0766 57.7022 43.0979C57.6081 43.2637 57.5627 43.3544 57.6416 43.5655C58.36 45.4852 59.2628 47.464 60.3751 49.1672L60.4989 49.6091C58.8884 49.9055 57.8139 50.4552 57.2237 52.0677C57.0349 51.9 56.9573 51.7942 56.8026 51.5977C56.5135 51.1851 56.2003 50.7016 55.9491 50.3056C55.7016 49.9159 54.8664 48.1515 54.6536 47.9821C54.4137 47.9195 54.5078 47.9097 54.2881 47.9916C53.8146 48.5477 54.4447 49.4804 54.73 50.0475C53.6076 51.1455 52.7269 52.2534 51.6732 53.3979C51.0426 54.0833 49.9656 54.45 49.1607 54.8682C48.5906 55.1479 47.9359 55.8086 47.3621 56.0206C46.0376 56.5091 44.6102 56.711 43.2737 57.2324C42.8476 57.3988 42.0351 57.5279 41.5616 57.6646L41.6551 57.5943C45.066 54.9954 45.6392 50.7968 43.0092 47.4024C42.5383 46.9325 42.1816 46.5847 41.6715 46.1599C41.9953 46.0129 42.4833 45.8787 42.8356 45.772C44.0086 45.224 45.6443 44.617 46.8924 44.0899C47.0818 43.9829 47.4498 43.8238 47.6594 43.739C49.0016 43.1957 50.2699 42.5269 51.5722 41.9113C54.1909 40.504 56.7956 39.0416 59.0204 37.0377Z" fill="#F8BB46"/>
<path d="M46.8924 44.0899C47.0818 43.9829 47.4498 43.8238 47.6594 43.739C49.0016 43.1957 50.2699 42.5269 51.5722 41.9113C51.8008 42.1706 51.9049 42.3378 52.0892 42.6059C53.1315 44.122 52.1075 46.615 50.2749 46.8702C48.1783 47.1623 47.1323 45.986 46.8924 44.0899Z" fill="#8D431A"/>
<path d="M56.8026 51.5977C57.456 50.307 58.925 49.2654 60.3751 49.1672L60.4989 49.6091C58.8884 49.9055 57.8139 50.4552 57.2237 52.0677C57.0349 51.9 56.9573 51.7942 56.8026 51.5977Z" fill="#8D431A"/>
<path d="M42.8356 45.772C42.9511 46.2635 42.9732 46.8895 43.0092 47.4024C42.5383 46.9325 42.1816 46.5847 41.6715 46.1599C41.9953 46.0129 42.4833 45.8787 42.8356 45.772Z" fill="#3F2D84"/>
<path d="M34.916 46.1468C37.4481 44.9099 40.4916 45.4992 42.3817 47.5925C42.4922 47.7151 42.5982 47.842 42.6993 47.9728C44.6348 50.4857 44.4196 54.0457 42.1955 56.306C39.9714 58.5663 36.4235 58.8308 33.89 56.9255C32.7553 56.0725 31.9394 54.8613 31.5734 53.4876C30.7918 50.5542 32.1931 47.4769 34.916 46.1468Z" fill="#E18C18"/>
<path d="M38.6431 47.303C39.2107 47.4798 39.6425 47.6533 40.1601 47.9537C39.883 48.2348 38.9095 49.2996 38.5989 49.3783C38.5655 49.7377 38.573 50.0907 38.5737 50.4516L38.5756 51.803C38.5787 52.4777 38.568 53.2054 38.5882 53.8753C38.8817 53.8671 39.229 53.8243 39.4878 53.9321C39.7189 54.1844 39.7353 54.6056 39.5699 54.8955C39.2631 55.0188 36.4272 54.9834 35.9683 54.9391C35.8313 54.8062 35.8483 54.6537 35.8212 54.4329C35.7543 55.0707 35.3851 55.0492 34.9356 55.6314C34.5784 55.3511 34.4021 55.1733 34.0836 54.8442C33.8462 54.5639 33.7872 54.4481 33.6104 54.1292C33.292 53.4478 33.1683 53.099 33.0482 52.3589C34.861 50.6164 36.7271 48.9303 38.6431 47.303Z" fill="#E18C18"/>
<path d="M38.6431 47.303C39.2107 47.4798 39.6425 47.6533 40.1601 47.9537C39.883 48.2348 38.9095 49.2996 38.5989 49.3783C38.5655 49.0753 38.6185 49.1169 38.4525 48.9337C38.1576 48.815 37.6343 48.876 37.2852 48.8825C36.9923 49.1372 36.7151 49.3828 36.3477 49.7027C35.7379 50.2334 35.0108 50.9203 36.3174 51.2713C36.3313 51.2717 36.3458 51.2721 36.3603 51.2726L36.4935 51.3505C35.794 51.9345 34.253 53.4241 33.6104 54.1292C33.292 53.4478 33.1683 53.099 33.0482 52.3589C34.861 50.6164 36.7271 48.9303 38.6431 47.303Z" fill="#FEE585"/>
<path d="M36.9821 50.7315L37.0509 50.6536C37.181 50.823 37.1362 51.652 37.1324 51.8985C37.1381 52.5452 37.1336 53.192 37.1185 53.8385C36.7624 53.8496 36.1841 53.809 35.9007 53.9316C35.765 54.108 35.7814 54.2038 35.8212 54.4329C35.7543 55.0707 35.3851 55.0492 34.9356 55.6314C34.5784 55.3511 34.4021 55.1733 34.0836 54.8442C33.8462 54.5639 33.7872 54.4481 33.6104 54.1292C34.253 53.4241 35.794 51.9345 36.4935 51.3505L36.3603 51.2726C36.5585 51.0839 36.7732 50.9085 36.9821 50.7315Z" fill="#FEE585"/>
<path d="M36.9821 50.7315L37.0509 50.6536C37.181 50.823 37.1362 51.652 37.1324 51.8985C36.6046 52.3876 34.3754 54.3842 34.0836 54.8442C33.8462 54.5639 33.7872 54.4481 33.6104 54.1292C34.253 53.4241 35.794 51.9345 36.4935 51.3505L36.3603 51.2726C36.5585 51.0839 36.7732 50.9085 36.9821 50.7315Z" fill="#FCC952"/>
<path d="M36.9821 50.7315C37.037 51.036 36.7505 51.2372 36.4935 51.3505L36.3603 51.2726C36.5585 51.0839 36.7732 50.9085 36.9821 50.7315Z" fill="#FCC952"/>
<path d="M40.1601 47.9537C40.3748 48.0871 40.4846 48.1459 40.6652 48.3308L40.7826 48.4458C41.097 48.724 41.3817 48.9481 41.5831 49.3232L41.6399 49.3756C42.2908 50.5265 42.5212 51.6761 42.1708 52.9773C41.8337 54.2025 41.0225 55.2416 39.9177 55.8649C38.7814 56.4888 37.4436 56.6318 36.2012 56.2636C35.8647 56.1617 35.191 55.8636 34.9356 55.6314C35.3851 55.0492 35.7543 55.0707 35.8212 54.4329C35.8483 54.6537 35.8313 54.8062 35.9683 54.9391C36.4272 54.9834 39.2631 55.0188 39.5699 54.8955C39.7353 54.6056 39.7189 54.1844 39.4878 53.9321C39.229 53.8243 38.8817 53.8671 38.5882 53.8753C38.568 53.2054 38.5787 52.4777 38.5756 51.803L38.5737 50.4516C38.573 50.0907 38.5655 49.7377 38.5989 49.3783C38.9095 49.2996 39.883 48.2348 40.1601 47.9537Z" fill="#FCC952"/>
<path d="M40.1601 47.9537C40.3748 48.0871 40.4846 48.1459 40.6652 48.3308L40.7826 48.4458C41.097 48.724 41.3817 48.9481 41.5831 49.3232C41.1999 49.6766 38.8653 51.8477 38.6242 51.8518L38.5756 51.803L38.5737 50.4516C38.573 50.0907 38.5655 49.7377 38.5989 49.3783C38.9095 49.2996 39.883 48.2348 40.1601 47.9537Z" fill="#FEE585"/>
<path d="M40.1601 47.9537C40.3748 48.0871 40.4846 48.1459 40.6652 48.3308L40.7826 48.4458C40.4335 48.6012 38.6602 50.1534 38.5737 50.4516C38.573 50.0907 38.5655 49.7377 38.5989 49.3783C38.9095 49.2996 39.883 48.2348 40.1601 47.9537Z" fill="#FCC952"/>
<path d="M34.916 46.1468C37.4481 44.9099 40.4916 45.4992 42.3817 47.5925C41.8179 47.6443 41.7656 47.9113 41.4265 48.1908L41.2668 47.9957C40.1216 47.0296 38.645 46.5513 37.1526 46.6631C35.8041 46.7811 34.5572 47.4316 33.687 48.4712C31.6315 50.9417 32.2089 54.5519 34.9121 56.2826C34.5407 56.5768 34.3452 56.8325 33.89 56.9255C32.7553 56.0725 31.9394 54.8613 31.5734 53.4876C30.7918 50.5542 32.1931 47.4769 34.916 46.1468Z" fill="#FCC952"/>
<path d="M34.916 46.1468L35.0316 46.261C34.8058 46.5395 34.2165 46.8663 33.9436 47.1158C32.3765 48.5492 31.5497 50.487 31.7813 52.6214C31.8055 52.8442 31.8442 53.3391 31.6654 53.4898L31.5734 53.4876C30.7918 50.5542 32.1931 47.4769 34.916 46.1468Z" fill="#FFFCDD"/>
<path d="M41.4265 48.1908C41.7656 47.9113 41.8179 47.6443 42.3817 47.5925C42.4922 47.7151 42.5982 47.842 42.6993 47.9728C44.6348 50.4857 44.4196 54.0457 42.1955 56.306C39.9714 58.5663 36.4235 58.8308 33.89 56.9255C34.3452 56.8325 34.5407 56.5768 34.9121 56.2826C35.4167 56.5521 35.8237 56.7464 36.3818 56.885C37.7378 57.2204 39.1709 57.0027 40.3666 56.2794C42.8969 54.7373 43.638 51.5464 42.0837 49.0334L42.085 48.9736L41.4265 48.1908Z" fill="#F8BB46"/>
<path d="M41.4265 48.1908C41.7656 47.9113 41.8179 47.6443 42.3817 47.5925C42.4922 47.7151 42.5982 47.842 42.6993 47.9728C42.6065 48.3005 42.2902 48.6775 42.085 48.9736L41.4265 48.1908Z" fill="#FEE585"/>
<path d="M33.0482 52.3589C32.8022 50.3014 34.1136 48.2382 36.0162 47.509C36.9518 47.1503 37.6589 47.1893 38.6431 47.303C36.7271 48.9303 34.861 50.6164 33.0482 52.3589Z" fill="#FCC952"/>
<path d="M41.2668 47.9957L41.4265 48.1908L42.085 48.9736L42.0837 49.0334C41.794 49.1079 41.7838 49.0701 41.6399 49.3756L41.5831 49.3232C41.3817 48.9481 41.097 48.724 40.7826 48.4458L40.6652 48.3308C40.7012 48.3261 40.7377 48.3209 40.7737 48.3151C41.1039 48.2619 41.1033 48.2215 41.2668 47.9957Z" fill="#E18C18"/>
<path d="M58.8038 32.9249C58.8865 33.2942 58.9231 33.5111 58.9648 33.8873L59.055 34.7773C59.1056 35.0815 59.0929 35.6603 59.0917 35.9909C58.6857 36.4952 57.9301 37.1235 57.4092 37.5307C53.4876 40.5971 48.6265 42.6677 44.0489 44.5737C43.3545 44.8627 41.6847 45.5495 41.0105 45.7182C40.9 45.6758 40.6424 45.5892 40.5635 45.5247C40.1361 45.3335 39.8893 45.2504 39.4385 45.1134C39.0282 45.0623 38.6178 45.0142 38.2068 44.9691C41.3236 42.9922 44.5167 41.1393 47.7793 39.4146C51.355 37.4968 55.5911 35.3693 58.8038 32.9249Z" fill="#F04638"/>
<path d="M59.055 34.7773C59.1056 35.0815 59.0929 35.6603 59.0917 35.9909C58.6857 36.4952 57.9301 37.1235 57.4092 37.5307C53.4876 40.5971 48.6265 42.6677 44.0489 44.5737C43.3545 44.8627 41.6847 45.5495 41.0105 45.7182C40.9 45.6758 40.6424 45.5892 40.5635 45.5247C41.5162 44.9297 43.583 43.9308 44.6701 43.3563C47.5634 41.8437 50.4365 40.2927 53.2881 38.7039C54.2104 38.1857 58.8694 35.4387 59.055 34.7773Z" fill="#F04638"/>
<path d="M58.9648 33.8873L59.055 34.7773C58.8694 35.4387 54.2104 38.1857 53.2881 38.7039C50.4365 40.2927 47.5634 41.8437 44.6701 43.3563C43.583 43.9308 41.5162 44.9297 40.5635 45.5247C40.1361 45.3335 39.8893 45.2504 39.4385 45.1134C45.7282 41.5426 53.2502 38.3021 58.9648 33.8873Z" fill="#FDFDFD"/>
<path d="M16.0831 33.0956C18.7497 35.326 23.5554 37.754 26.7219 39.4675C29.9644 41.1926 33.1348 43.0505 36.2252 45.0366C35.7827 45.1661 35.4112 45.286 34.9776 45.4431C34.6605 45.5944 34.3428 45.7427 34.0322 45.9071C33.2764 45.8569 27.2888 43.2522 26.251 42.7806C24.3093 41.9145 22.42 40.935 20.5928 39.847C19.0023 38.8996 18.2163 38.2481 17.1186 36.7235C16.8358 36.3308 16.2626 35.771 16.1002 35.3373C15.8661 34.8132 15.8946 34.703 15.9773 34.1306C16.0091 33.7847 16.0383 33.44 16.0831 33.0956Z" fill="#FDFDFD"/>
<path d="M16.0831 33.0956C18.7497 35.326 23.5554 37.754 26.7219 39.4675C29.9644 41.1926 33.1348 43.0505 36.2252 45.0366C35.7827 45.1661 35.4112 45.286 34.9776 45.4431C31.4904 43.3743 27.7721 41.4386 24.2687 39.417C22.3159 38.2902 17.395 35.6538 15.9773 34.1306C16.0091 33.7847 16.0383 33.44 16.0831 33.0956Z" fill="#F04638"/>
<path d="M16.1002 35.3373C17.8767 36.8449 20.3436 38.2403 22.3749 39.4052C25.0689 40.9363 27.7723 42.4506 30.485 43.948C31.1209 44.3034 33.6179 45.5319 34.0322 45.9071C33.2764 45.8569 27.2888 43.2522 26.251 42.7806C24.3093 41.9145 22.42 40.935 20.5928 39.847C19.0023 38.8996 18.2163 38.2481 17.1186 36.7235C16.8358 36.3308 16.2626 35.771 16.1002 35.3373Z" fill="#F04638"/>
<path d="M41.3785 58.6859C42.6253 58.2853 43.8501 57.743 45.1537 57.5178C45.6291 57.4361 46.0868 57.3608 46.559 57.2589C46.9384 59.5516 47.0154 60.1831 46.9567 62.4934C46.1265 62.5928 46.0912 62.7225 45.761 63.4692C46.4012 63.3351 47.2181 63.1851 47.7099 63.6224C49.6833 65.3771 48.4156 66.5978 46.1808 66.5452C44.8734 66.5142 43.0855 66.6591 41.9309 65.9283C41.6828 65.7188 41.7781 63.2022 41.7958 62.7453C41.8059 61.381 41.6657 60.0198 41.3785 58.6859Z" fill="#F9C055"/>
<path d="M42.6657 63.1047C44.5571 62.7213 44.8122 62.296 46.9567 62.4934C46.1265 62.5928 46.0912 62.7225 45.761 63.4692C46.4012 63.3351 47.2181 63.1851 47.7099 63.6224C49.6833 65.3771 48.4156 66.5978 46.1808 66.5452C44.8734 66.5142 43.0855 66.6591 41.9309 65.9283C41.6828 65.7188 41.7781 63.2022 41.7958 62.7453C42.0849 62.875 42.3715 62.9877 42.6657 63.1047Z" fill="#9A5424"/>
<path d="M28.9117 57.7639C29.2567 57.8474 29.6008 57.9348 29.9438 58.0259C30.6866 58.2056 32.2732 58.5992 33.0293 58.6486L34.1788 59.0776C34.0616 60.1299 34.0191 60.8197 34.0375 61.8771C34.1392 62.3947 34.281 65.4594 34.0989 65.934C33.386 66.7901 28.2903 66.9711 27.3519 66.1941C26.3544 65.3676 28.0431 63.3787 29.0971 63.5066C29.233 63.523 29.6357 63.5401 29.8068 63.5509C29.5035 62.87 29.5158 62.7725 28.7666 62.7061C28.6165 60.9526 28.7286 59.5028 28.9117 57.7639Z" fill="#F8BE55"/>
<path d="M34.0375 61.8771C34.1392 62.3947 34.281 65.4594 34.0989 65.934C33.386 66.7901 28.2903 66.9711 27.3519 66.1941C26.3544 65.3676 28.0431 63.3787 29.0971 63.5066C29.233 63.523 29.6357 63.5401 29.8068 63.5509C29.5035 62.87 29.5158 62.7725 28.7666 62.7061C30.1473 62.4435 31.7139 62.8908 33.1019 63.1389C33.4975 62.9668 33.6357 62.9225 34.0555 62.8206C34.0351 62.4998 34.0372 62.1979 34.0375 61.8771Z" fill="#9A5424"/>
<path d="M10.7875 36.9821L10.3017 36.6549C9.12162 35.8527 8.32056 35.1792 8.01501 33.685C7.71558 32.2209 8.51437 30.5355 10.0758 30.2568C10.8361 30.1212 11.8158 30.2856 12.264 30.9732C12.4415 31.2455 12.622 31.6582 12.8837 31.8467C13.3522 31.8638 13.4949 31.1525 14.077 31.2281C15.02 31.7085 13.9668 33.1716 14.3603 34.2483C14.4318 34.3659 14.6369 34.6847 14.6847 34.7929C13.807 36.1191 12.6508 37.0922 11.0759 37.4648L10.7875 36.9821Z" fill="#9A5424"/>
<path d="M14.3603 34.2483C14.4318 34.3659 14.6369 34.6847 14.6847 34.7929C13.807 36.1191 12.6508 37.0922 11.0759 37.4648L10.7875 36.9821C12.1878 36.7591 13.9685 35.6809 14.3603 34.2483Z" fill="#8D431A"/>
<path d="M35.3209 65.3847C36.7592 65.2828 39.4486 65.3233 40.9315 65.3524C41.2118 66.9895 42.1827 67.1856 43.6928 67.2913C45.071 67.3881 48.23 67.6602 49.1858 66.5465C49.5898 67.0528 50.0065 67.5653 50.4023 68.0766L39.0723 68.0842L35.3298 68.0924C34.6705 68.0937 33.6844 68.1203 33.0508 68.0621C30.6484 68.1652 27.6056 68.0956 25.16 68.0861L26.3925 66.4725C27.3795 67.7931 29.7303 67.5153 31.2053 67.5052C32.167 67.4982 33.5125 67.3521 34.3629 66.9123C34.8142 66.6788 34.9502 65.5948 35.139 65.3885L35.3209 65.3847Z" fill="#F8BB46"/>
<path d="M26.3925 66.4725C27.3795 67.7931 29.7303 67.5153 31.2053 67.5052C32.167 67.4982 33.5125 67.3521 34.3629 66.9123C34.8142 66.6788 34.9502 65.5948 35.139 65.3885L35.3209 65.3847C36.1942 65.4625 37.518 65.4119 38.4461 65.417C37.5976 66.1257 36.8766 66.8357 36.4852 67.8988L36.4562 67.9773C36.4505 67.9931 36.4448 68.0089 36.4391 68.0247C35.7409 68.0272 33.6122 67.9918 33.0508 68.0621C30.6484 68.1652 27.6056 68.0956 25.16 68.0861L26.3925 66.4725Z" fill="#FCC952"/>
<path d="M59.5468 75.1374C62.0139 75.0893 64.5486 75.1348 67.0259 75.1196C67.7203 75.91 68.4065 76.7073 69.0846 77.5116C64.6673 77.4325 60.204 77.5572 55.788 77.4907C55.7937 77.4483 55.8076 77.3287 55.8373 77.2939C56.4023 76.62 56.8953 75.9803 57.3442 75.219C58.043 75.1772 58.8726 75.2361 59.5468 75.1374Z" fill="#FCC952"/>
<path d="M7.30467 71.1356C10.9316 71.1621 14.5727 71.0678 18.2071 71.1362C17.6106 72.0411 16.8975 72.1303 16.5267 73.5282C16.1136 73.5275 13.4617 73.4763 13.2733 73.5965C10.6251 73.6554 7.79102 73.6085 5.12749 73.6123C5.86062 72.7935 6.58637 71.9677 7.30467 71.1356Z" fill="#FCC952"/>
<path d="M60.4989 49.6091C61.4585 50.0758 62.8978 51.2655 63.2273 52.3136C63.8662 54.3417 62.0373 56.0718 60.0386 55.0625C59.8334 54.9568 59.6295 54.8486 59.4268 54.7372C59.0291 55.0416 58.5197 55.6662 58.1036 54.9663C57.7078 54.3006 57.7507 53.4439 57.6952 52.6924C57.5468 52.4845 57.3948 52.2549 57.2237 52.0677C57.8139 50.4552 58.8884 49.9055 60.4989 49.6091Z" fill="#9A5424"/>
<path d="M18.2071 71.1362C20.3431 71.1121 22.4793 71.1096 24.6153 71.1292L24.6212 73.5895L16.9498 73.6035C15.7974 73.6028 14.3883 73.644 13.2733 73.5965C13.4617 73.4763 16.1136 73.5275 16.5267 73.5282C16.8975 72.1303 17.6106 72.0411 18.2071 71.1362Z" fill="#F8BB46"/>
<path d="M50.9207 75.1405C53.5747 75.138 56.9452 75.0273 59.5468 75.1374C58.8726 75.2361 58.043 75.1772 57.3442 75.219C56.8953 75.9803 56.4023 76.62 55.8373 77.2939C55.8076 77.3287 55.7937 77.4483 55.788 77.4907C54.1611 77.4838 52.5349 77.4933 50.908 77.5192C50.8796 76.7535 50.9087 75.9126 50.9207 75.1405Z" fill="#F8BB46"/>
<path d="M32.5488 56.5844C33.4022 57.402 33.8017 57.6532 34.8234 58.2784C34.365 58.1626 32.9462 57.7063 32.5751 58.0164C32.5367 58.372 32.7628 58.4562 33.0293 58.6486C32.2732 58.5992 30.6866 58.2056 29.9438 58.0259C30.3067 58.0253 31.2006 57.8563 31.175 57.383C30.8571 57.0198 30.4066 57.1545 29.7722 57.059C30.6153 56.9286 31.7387 56.8109 32.5488 56.5844Z" fill="#E18C18"/>
<path d="M68.4349 21.0868C69.1527 21.3707 69.7405 21.7825 69.2518 22.6495C68.7998 23.452 67.9495 24.1174 67.0637 24.375C66.6281 24.3868 66.0252 23.9093 66.101 23.4157C66.3516 23.1182 66.8131 22.9854 67.2014 22.6227C67.6711 22.1846 68.024 21.3725 68.4349 21.0868Z" fill="#F17563"/>
<path d="M8.58107 15.8953C9.37753 16.1499 10.4411 18.4641 9.69589 19.1993C9.52727 19.3656 9.20916 19.3286 8.97999 19.3263C8.71068 19.3346 8.58094 19.3419 8.30778 19.3014C8.15936 19.0584 8.34219 18.4767 8.20122 18.0668C8.0146 17.5243 7.71612 17.1995 7.40369 16.7156C7.77452 16.3367 8.12312 16.1529 8.58107 15.8953Z" fill="#FCC952"/>
<path d="M71.9955 40.1142C72.9614 40.0293 74.2695 39.7595 73.9513 41.2992C73.7291 41.5116 72.5466 41.4483 71.9684 41.5601C71.445 41.7438 71.1262 41.8871 70.5687 42.0463C70.4854 41.8763 70.4153 41.7003 70.3585 41.5197C70.0347 40.5082 71.2973 40.2941 71.9955 40.1142Z" fill="#8EDC93"/>
<path d="M7.41891 45.0747C8.47142 45.0242 9.30475 46.8101 8.9326 47.6876C8.80476 47.989 8.59743 48.0199 8.31613 48.1169L8.07964 48.1327C7.78166 47.9884 7.66285 47.0355 7.37801 46.6793C7.13559 46.3761 6.97448 46.1932 6.69007 45.9158C6.92075 45.4882 7.05345 45.3556 7.41891 45.0747Z" fill="#F17563"/>
<path d="M5.35967 38.109C5.85657 38.3009 5.95505 38.6103 6.20126 39.0747C5.9488 39.3743 5.6228 39.6537 5.35885 39.9792C5.0819 40.3207 4.83632 40.6549 4.53417 40.9717C4.08607 40.5648 3.94908 40.3517 3.65894 39.8196C4.04151 39.0168 4.56454 38.5026 5.35967 38.109Z" fill="#FCC952"/>
<path d="M15.3151 15.6154C15.7122 15.83 15.8595 16.7421 16.0897 16.937C16.9671 17.6794 17.1123 17.7885 15.9876 18.6245C15.3076 18.3613 14.5121 17.2858 14.5159 16.535C14.5174 16.2332 15.0872 15.8094 15.3151 15.6154Z" fill="#F17563"/>
<path d="M62.1832 9.8695C62.4698 9.90633 62.8296 10.0552 62.9881 10.3066C63.1838 11.1641 61.5841 12.1621 60.9458 12.4737C60.4597 12.5756 60.3164 12.3784 60.1662 11.9131C60.1756 11.851 60.1851 11.7888 60.1952 11.7266C60.5917 11.434 61.1731 11.0046 61.5216 10.6963C61.7968 10.4523 62.0064 10.1239 62.1832 9.8695Z" fill="#F17563"/>
<path d="M21.9475 3.04352C22.5846 3.27436 23.5163 4.6269 23.4195 5.35475C23.3893 5.58224 22.8351 5.83795 22.6237 5.95464L22.5087 5.96312C22.2365 5.78872 21.9752 4.7858 21.7042 4.4146C21.5424 4.19293 21.1886 3.8323 21.1372 3.63044C21.2499 3.31752 21.6454 3.18596 21.9475 3.04352Z" fill="#FCC952"/>
<path d="M0.804306 24.8303C0.965794 24.8141 0.965099 24.8205 1.12614 24.8552C1.30316 25.1581 1.38334 25.941 1.52336 26.3317C1.65411 26.6965 1.91635 26.9267 1.95423 27.2367C1.75795 27.5725 1.53365 27.584 1.15102 27.6853C0.740797 27.6269 0.392001 26.9642 0.254124 26.5987C-0.122512 25.6004 -0.185327 25.1899 0.804306 24.8303Z" fill="#6AC8E1"/>
<path d="M17.0467 56.6173C17.3297 56.6274 17.4403 56.9894 17.4215 57.1665C17.3409 57.9297 18.4365 58.4195 18.2315 58.9567C18.0319 59.163 17.7422 59.2649 17.4771 59.3813C16.8895 59.0858 16.3517 58.2828 16.2171 57.6405C16.0546 56.8653 16.3948 56.7014 17.0467 56.6173Z" fill="#FCC952"/>
<path d="M60.9748 17.3487C62.6945 17.9003 61.2419 19.5886 60.3915 20.19C60.1062 20.0461 59.764 19.8815 59.6339 19.5767C59.6567 19.3736 60.0569 18.9847 60.2192 18.7507C60.5266 18.3087 60.6529 17.7058 60.9748 17.3487Z" fill="#FCC952"/>
<path d="M56.6775 58.6758L56.9326 58.7036C57.2463 58.9953 57.6384 60.1831 57.4559 60.6039C57.3473 60.8539 57.0361 60.9418 56.8101 61.0348L56.6055 60.9855C56.1573 60.6147 55.8309 59.6908 56.0462 59.1352C56.1516 58.8631 56.4319 58.7776 56.6775 58.6758Z" fill="#6AC8E1"/>
<path d="M65.2412 29.9576C65.5063 29.9506 65.6156 29.9277 65.8037 30.0796C65.887 30.5238 65.8403 31.2511 65.858 31.7257C65.8662 31.9367 65.75 31.995 65.6194 32.103C64.8024 32.0266 64.7286 31.4747 64.8157 30.7013C64.851 30.3878 64.9691 30.1403 65.2412 29.9576Z" fill="#F17563"/>
<path d="M30.0402 0C30.3943 0.191991 30.7088 1.06158 30.6573 1.46777C30.545 1.69103 30.466 1.71216 30.2432 1.85119C29.8008 1.58554 29.3632 0.967737 29.529 0.442642C29.6082 0.191737 29.8268 0.112005 30.0402 0Z" fill="#F17563" fill-opacity="0.870588"/>
<path d="M23.2408 15.2985C23.654 15.4137 23.9778 16.1349 23.9958 16.5589C23.8869 16.7851 23.8787 16.7343 23.6247 16.893C23.4874 16.8963 23.471 16.8901 23.3349 16.8629C22.833 16.3681 22.438 15.7314 23.2408 15.2985Z" fill="var(--fill-0, #809B8A)" fill-opacity="0.286275"/>
</g>
</svg>
