<svg width="17" height="17" viewBox="0 0 17 17" fill="none" xmlns="http://www.w3.org/2000/svg">
<path d="M7.4772 0.0832432C8.40866 -0.122923 9.79273 0.0816514 10.6954 0.393131C10.995 0.496482 11.2713 0.645976 11.5631 0.755749C11.9893 0.91607 12.5988 1.08094 12.9779 1.32985C13.672 1.63938 14.2094 2.31439 14.6018 2.95001C14.7953 3.26348 15.0599 3.53271 15.2793 3.82681C15.6472 4.36032 16.1545 5.19055 16.2843 5.83322C16.3494 6.1174 16.5006 6.2517 16.5864 6.50847C16.7228 6.91608 16.7806 7.3737 16.8624 7.79812C16.9718 8.44186 17.0365 9.0356 16.9779 9.69313C16.9486 10.0244 16.8194 10.3528 16.7319 10.6713C16.3443 12.5031 15.2981 14.1348 13.8166 15.2367C13.6791 15.3389 13.5348 15.4547 13.3882 15.5453C12.4678 16.0037 11.5778 16.6022 10.5174 16.6153C10.0946 16.6207 9.80709 16.7704 9.41278 16.865C8.61098 17.0571 7.77511 17.044 6.9795 16.8267C6.43648 16.6798 6.10047 16.4739 5.57582 16.3416L5.29639 16.2979C4.98519 16.2487 4.59227 16.0654 4.30659 15.9204C3.762 15.6441 3.52681 15.4293 3.21985 14.8957C3.0057 14.8858 2.80017 14.8498 2.61726 14.7159C2.12791 14.3576 1.63771 13.7914 1.36842 13.2398C1.29155 13.0823 1.23089 12.7935 1.15342 12.6642C0.946085 12.3184 0.825818 12.181 0.682682 11.7945C0.528322 11.3777 0.499669 11.0287 0.386166 10.6355C0.291631 10.3079 0.184493 10.1432 0.103904 9.75693C-0.0494411 9.02209 -0.0202083 8.51159 0.107984 7.77178C0.125085 7.67308 0.251935 7.43983 0.254565 7.39003C0.264684 7.19968 0.233057 7.00677 0.273406 6.80444C0.309349 6.62411 0.366545 6.44761 0.412914 6.27185C0.635388 5.42877 1.00994 4.66452 1.47742 3.9378C1.89134 3.29436 2.40072 2.73551 2.99451 2.26282C3.23949 2.06778 3.45613 1.85179 3.73538 1.68489C3.99575 1.52926 4.26661 1.40732 4.53152 1.26172C4.61769 1.21915 4.7282 1.09829 4.80819 1.0638C5.21284 0.889307 5.62772 0.610661 6.03294 0.46102C6.48846 0.292815 7.00425 0.185318 7.4772 0.0832432Z" fill="#F9C356"/>
<path d="M3.21985 14.8957C3.0057 14.8858 2.80017 14.8498 2.61726 14.7159C2.12791 14.3576 1.63771 13.7914 1.36842 13.2398C1.29155 13.0823 1.23089 12.7935 1.15342 12.6642C0.946085 12.3184 0.825818 12.181 0.682682 11.7945C0.528322 11.3777 0.499669 11.0287 0.386166 10.6355C0.291631 10.3079 0.184493 10.1432 0.103904 9.75693C-0.0494411 9.02209 -0.0202083 8.51159 0.107984 7.77178C0.125085 7.67308 0.251935 7.43983 0.254565 7.39003C0.264684 7.19968 0.233057 7.00677 0.273406 6.80444C0.309349 6.62411 0.366545 6.44761 0.412914 6.27185C0.635388 5.42877 1.00994 4.66452 1.47742 3.9378C1.89134 3.29436 2.40072 2.73551 2.99451 2.26282C3.23949 2.06778 3.45613 1.85179 3.73538 1.68489C3.99575 1.52926 4.26661 1.40732 4.53152 1.26172C4.61769 1.21915 4.7282 1.09829 4.80819 1.0638C5.21284 0.889307 5.62772 0.610661 6.03294 0.46102C6.48846 0.292815 7.00425 0.185318 7.4772 0.0832432C7.49456 0.168364 7.6689 0.349653 7.74465 0.369605C7.43569 0.410805 6.56689 0.597278 6.30042 0.735685L6.44029 0.727948C6.25545 0.794986 5.93489 0.895968 5.79208 1.02249L5.78974 1.08168C5.76346 1.09258 5.74854 1.09865 5.72289 1.11146L5.76051 1.13221C5.64608 1.19895 5.16314 1.42981 5.10808 1.49041C5.11378 1.42074 5.08349 1.41123 5.0348 1.38243L5.03295 1.34867C4.95586 1.39592 4.87076 1.44856 4.79055 1.48939C3.00364 2.39888 1.75149 3.68079 0.981773 5.59037C0.714182 6.13474 0.593316 6.90366 0.506633 7.50021C0.498817 7.55394 0.440733 7.53095 0.429199 7.57674C0.386457 7.67963 0.363969 7.9592 0.376065 8.06512C0.314553 8.71397 0.280515 9.29066 0.441331 9.93948C0.481426 10.1012 0.622694 10.3766 0.651382 10.5208C0.733332 10.9765 0.846907 11.3814 1.01623 11.8093C1.11613 12.0618 1.3911 12.3883 1.45541 12.5751C1.74632 13.4201 2.21667 14.1168 3.00182 14.5534C3.05441 14.5826 3.24167 14.5889 3.30737 14.6031C3.42479 14.7162 3.52852 14.9363 3.64902 15.0559C3.87708 15.2821 4.11441 15.4244 4.38436 15.5754C4.52858 15.7949 5.20672 15.9729 5.46274 15.9835C5.7646 15.9837 5.91991 16.0987 6.17348 16.2126C6.89606 16.5369 7.74476 16.7538 8.5383 16.6801C8.61187 16.6733 8.69241 16.672 8.76748 16.6683C9.14339 16.624 9.44241 16.5161 9.80562 16.4621C9.98169 16.418 10.1288 16.372 10.3111 16.3398C10.7577 16.2611 11.155 16.2502 11.5873 16.0997C11.9252 15.9822 12.2164 15.7468 12.4993 15.6254C12.9902 15.4147 13.1093 15.3957 13.5444 15.043C13.8113 14.8125 14.1642 14.5838 14.3931 14.3412C14.8237 13.8848 15.2949 13.3375 15.587 12.7745C15.9539 12.309 16.1575 11.3609 16.3597 10.799C16.509 10.3845 16.5922 10.0615 16.6361 9.62011C16.6838 9.14061 16.6274 8.68858 16.6252 8.21487C16.6348 8.05544 16.6747 7.93847 16.8392 7.87136L16.8624 7.79812C16.9718 8.44186 17.0365 9.0356 16.9779 9.69313C16.9486 10.0244 16.8194 10.3528 16.7319 10.6713C16.3443 12.5031 15.2981 14.1348 13.8166 15.2367C13.6791 15.3389 13.5348 15.4547 13.3882 15.5453C12.4678 16.0037 11.5778 16.6022 10.5174 16.6153C10.0946 16.6207 9.80709 16.7704 9.41278 16.865C8.61098 17.0571 7.77511 17.044 6.9795 16.8267C6.43648 16.6798 6.10047 16.4739 5.57582 16.3416L5.29639 16.2979C4.98519 16.2487 4.59227 16.0654 4.30659 15.9204C3.762 15.6441 3.52681 15.4293 3.21985 14.8957Z" fill="#5E1302"/>
<path d="M5.46274 15.9835C5.7646 15.9837 5.91991 16.0987 6.17348 16.2126C6.89606 16.5369 7.74476 16.7538 8.5383 16.6801C8.61187 16.6733 8.69241 16.672 8.76748 16.6683C7.91083 16.9411 6.58085 16.565 5.8162 16.1272C5.72179 16.0732 5.56628 16.0256 5.46274 15.9835Z" fill="#631003"/>
<path d="M13.5444 15.043C13.4094 15.3209 12.7657 15.547 12.5077 15.6748C12.1686 15.8429 11.8591 16.0538 11.4962 16.1799C11.3081 16.2454 11.0482 16.2433 10.8979 16.3018L10.8997 16.315C10.9322 16.3162 10.9911 16.3161 11.0201 16.3244C10.9324 16.3507 10.8837 16.3379 10.8019 16.3577C10.763 16.3671 10.6336 16.4562 10.5931 16.4606C10.3454 16.4884 10.0497 16.4904 9.80562 16.4621C9.98169 16.418 10.1288 16.372 10.3111 16.3398C10.7577 16.2611 11.155 16.2502 11.5873 16.0997C11.9252 15.9822 12.2164 15.7468 12.4993 15.6254C12.9902 15.4147 13.1093 15.3957 13.5444 15.043Z" fill="#631003"/>
<path d="M5.03295 1.34867C5.25269 1.19308 6.03156 0.805795 6.30042 0.735685L6.44029 0.727948C6.25545 0.794986 5.93489 0.895968 5.79208 1.02249L5.78974 1.08168C5.76346 1.09258 5.74854 1.09865 5.72289 1.11146L5.76051 1.13221C5.64608 1.19895 5.16314 1.42981 5.10808 1.49041C5.11378 1.42074 5.08349 1.41123 5.0348 1.38243L5.03295 1.34867Z" fill="#F4BD70"/>
<path d="M5.29639 16.2979C5.24518 16.2417 5.24353 16.2572 5.23296 16.1941C5.30762 16.1364 5.62774 16.1798 5.67518 16.2951C5.6528 16.3372 5.62513 16.3427 5.57582 16.3416L5.29639 16.2979Z" fill="#631003"/>
<path d="M0.376065 8.06512C0.363969 7.9592 0.386457 7.67963 0.429199 7.57674C0.440733 7.53095 0.498817 7.55394 0.506633 7.50021C0.593316 6.90366 0.714182 6.13474 0.981773 5.59037C0.968245 5.68065 0.954447 5.75306 0.957439 5.84471L0.928043 5.91286C1.01036 5.94303 1.07256 5.90599 1.15793 5.87447C1.3929 5.83252 1.73686 5.91834 1.9087 6.08867C2.11182 6.24955 2.28807 6.43201 2.39896 6.67458C2.40598 6.72 2.41547 6.77378 2.41882 6.81948C2.4649 7.44701 1.91855 8.23879 1.33211 8.39992C1.03351 8.31972 0.799669 8.25506 0.630348 7.93419C0.586409 7.8509 0.592248 7.76232 0.526166 7.68003L0.507433 7.67846C0.475825 7.83308 0.417031 7.8678 0.376065 8.06512Z" fill="#984819"/>
<path d="M1.15793 5.87447C1.3929 5.83252 1.73686 5.91834 1.9087 6.08867C1.67049 6.02537 1.42346 5.9136 1.17911 5.93398C1.07032 5.94305 0.993397 6.02073 0.912101 6.01072C0.897049 5.9638 0.90514 5.97266 0.928043 5.91286C1.01036 5.94303 1.07256 5.90599 1.15793 5.87447Z" fill="#F4BD70"/>
<path d="M12.7839 1.5768L12.809 1.56274C12.7444 1.46851 11.9382 1.17876 11.7758 1.1098C11.8151 1.05916 11.8186 1.03021 11.8438 0.9735C11.8512 0.956935 11.8883 0.910182 11.8932 0.911404C12.2573 1.0033 12.6024 1.18303 12.9417 1.34224C12.9538 1.33812 12.9659 1.33399 12.9779 1.32985C13.672 1.63938 14.2094 2.31439 14.6018 2.95001C14.7953 3.26348 15.0599 3.53271 15.2793 3.82681C15.6472 4.36032 16.1545 5.19055 16.2843 5.83322C16.2694 5.94372 16.2943 5.96928 16.229 6.04779C16.1706 6.0315 16.0446 5.85165 15.9635 5.79426C15.805 5.4644 15.7925 5.51735 15.5421 5.2964C15.5025 5.14966 15.5036 4.80235 15.4487 4.68499C15.2374 4.21263 14.7984 3.82201 14.5146 3.39965C13.9636 2.57996 13.6795 2.06469 12.7839 1.5768Z" fill="#5E1302"/>
<path d="M7.4772 0.0832432C8.40866 -0.122923 9.79273 0.0816514 10.6954 0.393131C10.995 0.496482 11.2713 0.645976 11.5631 0.755749C11.9893 0.91607 12.5988 1.08094 12.9779 1.32985C12.9659 1.33399 12.9538 1.33812 12.9417 1.34224C12.6024 1.18303 12.2573 1.0033 11.8932 0.911404C11.8883 0.910182 11.8512 0.956935 11.8438 0.9735C11.8186 1.03021 11.8151 1.05916 11.7758 1.1098C11.9382 1.17876 12.7444 1.46851 12.809 1.56274L12.7839 1.5768C12.1629 1.28624 11.5345 1.07121 10.9009 0.812681C9.86046 0.388115 8.85915 0.238472 7.74465 0.369605C7.6689 0.349653 7.49456 0.168364 7.4772 0.0832432Z" fill="#631003"/>
<path d="M4.38436 15.5754C4.67353 15.7085 5.00437 15.8822 5.33232 15.9006C5.55361 15.913 5.92952 15.7343 6.13812 15.7708C6.32209 15.803 6.44976 16.0618 6.67961 16.1047C6.58466 16.1063 6.42898 16.0093 6.35292 15.9549C6.24807 16.0363 6.16004 16.0539 6.12082 16.0891L6.12796 16.1175C6.52734 16.2516 6.89353 16.404 7.30505 16.5023C7.86104 16.6351 8.3785 16.6466 8.94188 16.5474C9.06663 16.5256 9.21631 16.5302 9.34168 16.5017C9.50699 16.446 9.64499 16.3733 9.81827 16.3409C10.7635 16.1997 11.6734 16.1182 12.4812 15.5391C12.6055 15.4662 12.8443 15.4313 12.9573 15.3546C13.3791 15.0683 13.8813 14.7301 14.2699 14.4103C14.5086 14.2137 14.7777 13.8256 14.9937 13.5917C15.189 13.3801 15.3576 12.9764 15.576 12.7795C15.5798 12.7778 15.5834 12.7761 15.587 12.7745C15.2949 13.3375 14.8237 13.8848 14.3931 14.3412C14.1642 14.5838 13.8113 14.8125 13.5444 15.043C13.1093 15.3957 12.9902 15.4147 12.4993 15.6254C12.2164 15.7468 11.9252 15.9822 11.5873 16.0997C11.155 16.2502 10.7577 16.2611 10.3111 16.3398C10.1288 16.372 9.98169 16.418 9.80562 16.4621C9.44241 16.5161 9.14339 16.624 8.76748 16.6683C8.69241 16.672 8.61187 16.6733 8.5383 16.6801C7.74476 16.7538 6.89606 16.5369 6.17348 16.2126C5.91991 16.0987 5.7646 15.9837 5.46274 15.9835C5.20672 15.9729 4.52858 15.7949 4.38436 15.5754Z" fill="#D37F2B"/>
<path d="M2.39896 6.67458C2.67947 6.95404 2.88388 7.11075 2.87069 7.54109C2.84286 8.45045 2.01986 8.60281 1.33211 8.39992C1.91855 8.23879 2.4649 7.44701 2.41882 6.81948C2.41547 6.77378 2.40598 6.72 2.39896 6.67458Z" fill="#B36D33"/>
<path d="M5.1305 1.63037L5.14827 1.61771C5.16767 1.60375 5.17282 1.59957 5.18949 1.58136C5.25448 1.57275 5.24928 1.56292 5.30002 1.58578C5.29598 1.67251 5.24088 1.72485 5.18586 1.79746C5.00481 1.96594 4.85025 2.05284 4.63024 2.15238C4.53531 2.20594 4.3663 2.26508 4.28259 2.33003C3.69193 2.78837 3.07237 3.23267 2.61357 3.83652C2.48806 4.00173 2.3881 4.09176 2.20357 4.18143C2.35209 3.85494 2.95513 3.132 3.2288 2.87793C3.59177 2.54097 4.19897 2.25036 4.61809 1.97294C4.78292 1.86383 4.96141 1.73028 5.1305 1.63037Z" fill="#F7F6F2"/>
<path d="M15.9635 5.79426C16.0446 5.85165 16.1706 6.0315 16.229 6.04779C16.2943 5.96928 16.2694 5.94372 16.2843 5.83322C16.3494 6.1174 16.5006 6.2517 16.5864 6.50847C16.7228 6.91608 16.7806 7.3737 16.8624 7.79812L16.8392 7.87136C16.6747 7.93847 16.6348 8.05544 16.6252 8.21487C16.5877 8.07713 16.5619 7.79797 16.5222 7.6308C16.3737 7.00482 16.2243 6.38159 15.9635 5.79426Z" fill="#631003"/>
<path d="M7.67563 0.450398C7.74486 0.451638 7.7569 0.440496 7.80984 0.4747C7.7527 0.599373 6.63144 0.736984 6.41577 0.865877C6.19618 0.944408 5.98031 1.04831 5.76051 1.13221L5.72289 1.11146C5.74854 1.09865 5.76346 1.09258 5.78974 1.08168L5.79208 1.02249C5.93489 0.895968 6.25545 0.794986 6.44029 0.727948C6.62291 0.634591 7.43203 0.486194 7.67563 0.450398Z" fill="#F8E6C8"/>
<path d="M7.67563 0.450398C7.81914 0.419304 8.27006 0.365794 8.39321 0.408586C8.41292 0.42765 8.40739 0.416119 8.41062 0.442734C8.32344 0.562299 7.89986 0.549269 7.76041 0.572405C7.51407 0.613253 7.27259 0.673017 7.0297 0.73093C6.91191 0.757489 6.49351 0.87589 6.41577 0.865877C6.63144 0.736984 7.7527 0.599373 7.80984 0.4747C7.7569 0.440496 7.74486 0.451638 7.67563 0.450398Z" fill="#F4BD70"/>
<path d="M4.90505 1.52278L4.91734 1.54803C4.77562 1.70783 4.53674 1.94187 4.29549 1.88632L4.30679 1.85478C4.44791 1.73628 4.73455 1.59833 4.90505 1.52278Z" fill="#FCE2B6"/>
<path d="M5.0348 1.38243C5.08349 1.41123 5.11378 1.42074 5.10808 1.49041C5.20808 1.54947 5.36017 1.51426 5.39863 1.61745C5.36262 1.68985 5.25593 1.74969 5.18586 1.79746C5.24088 1.72485 5.29598 1.67251 5.30002 1.58578C5.24928 1.56292 5.25448 1.57275 5.18949 1.58136C5.17282 1.59957 5.16767 1.60375 5.14827 1.61771L5.1305 1.63037C5.10036 1.61428 4.96507 1.56792 4.91734 1.54803L4.90505 1.52278C4.92197 1.47194 4.99151 1.42107 5.0348 1.38243Z" fill="#FCE2B6"/>
<path d="M9.54944 8.43733C9.82713 8.42398 10.1714 8.44192 10.2492 8.76569C10.4508 9.60527 9.82639 10.42 9.10522 10.6716C8.67643 10.8177 8.20831 10.7835 7.80429 10.5765C7.25023 10.315 6.91102 9.84005 6.83366 9.22329C6.74701 8.53241 7.58481 8.58562 8.0482 8.5449C8.54764 8.49609 9.0482 8.46022 9.54944 8.43733Z" fill="#5E1302"/>
<path d="M8.53096 9.45359C8.55482 9.45096 8.57876 9.44913 8.60273 9.44808C9.02151 9.43009 9.44493 9.51763 9.76223 9.81216C9.4754 10.2374 9.20255 10.3453 8.7409 10.4727C8.72304 10.4744 8.70516 10.4758 8.68724 10.4768C8.15247 10.5063 7.86461 10.337 7.48712 9.99063C7.80037 9.65065 8.07136 9.50656 8.53096 9.45359Z" fill="#ED6D49"/>
<path d="M9.24558 1.23319C9.67972 1.21981 9.84574 1.30201 10.1853 1.58576C10.6268 1.95473 10.7983 2.58535 10.3926 3.05399C10.1767 3.30331 9.86649 3.34727 9.55238 3.36485C8.9872 3.35599 8.30832 3.04249 8.16774 2.4209C8.03973 1.85488 8.75436 1.32031 9.24558 1.23319Z" fill="#A3541D"/>
<path d="M11.2845 6.02901C11.8843 5.93522 12.4447 6.35664 12.5346 6.96918C12.6246 7.5817 12.2098 8.15226 11.6094 8.24207C11.0117 8.33144 10.4558 7.91052 10.3663 7.30082C10.2768 6.69109 10.6874 6.12236 11.2845 6.02901Z" fill="#5E1302"/>
<path d="M11.1188 6.41754C11.5323 6.48285 11.5542 7.00581 11.1332 7.14388C10.9638 7.12249 10.8414 7.03642 10.7992 6.86107C10.7753 6.76494 10.7914 6.663 10.8435 6.5793C10.9125 6.46967 11.0029 6.44058 11.1188 6.41754Z" fill="#F7F6F2"/>
<path d="M11.8709 7.36795C11.9313 7.33924 12.0022 7.34616 12.0562 7.38603C12.1102 7.4259 12.1388 7.49247 12.131 7.56003C12.1232 7.62758 12.0802 7.68553 12.0186 7.7115C11.9262 7.75042 11.8203 7.70689 11.7801 7.61348C11.7399 7.52005 11.7803 7.41098 11.8709 7.36795Z" fill="#F7F6F2"/>
<path d="M5.48867 6.25153C6.87031 6.17476 7.09687 8.23081 5.75224 8.50492C5.06427 8.53389 4.65322 8.23986 4.54999 7.5157C4.46065 6.88872 4.8542 6.31163 5.48867 6.25153Z" fill="#5E1302"/>
<path d="M5.14872 6.70971C5.32292 6.65402 5.5086 6.75172 5.56518 6.92885C5.62178 7.10598 5.52822 7.29661 5.35533 7.35641C5.2417 7.39574 5.11613 7.36967 5.02657 7.28817C4.937 7.20668 4.89729 7.08234 4.92257 6.96263C4.94785 6.84292 5.03422 6.74632 5.14872 6.70971Z" fill="#F7F6F2"/>
<path d="M6.02924 7.62268C6.09405 7.60742 6.16182 7.62951 6.206 7.68024C6.25017 7.73097 6.26368 7.80226 6.24123 7.86614C6.21878 7.93003 6.16396 7.9763 6.09826 7.98683C6.00155 8.0023 5.91017 7.93684 5.89158 7.83874C5.87299 7.74063 5.93385 7.64513 6.02924 7.62268Z" fill="#F7F6F2"/>
<path d="M12.7649 10.693C13.4071 10.634 13.7629 10.9926 13.8895 11.6222C13.9368 11.8577 13.7937 12.1821 13.659 12.3684C13.4684 12.6322 13.2454 12.7339 12.9338 12.7798C12.6798 12.7514 12.4514 12.7318 12.2298 12.5799C12.0116 12.4265 11.8163 12.0977 11.7784 11.829C11.686 11.1737 12.2145 10.7899 12.7649 10.693Z" fill="#984819"/>
<path d="M4.62464 12.458C4.38323 12.7533 3.94601 12.8505 3.58026 12.7726C3.24475 12.6887 2.99506 12.3723 2.89713 12.0465C2.88692 12.0125 2.9348 11.8972 2.94296 11.8589C2.96508 11.755 2.98099 11.6505 3.00389 11.5469C3.11583 11.0401 3.68473 10.811 4.14329 10.9407C4.43339 11.0227 4.57484 11.1667 4.71721 11.4266C4.99307 11.6983 4.92559 12.231 4.62464 12.458Z" fill="#B36D33"/>
<path d="M4.71721 11.4266C4.99307 11.6983 4.92559 12.231 4.62464 12.458C4.65109 12.4085 4.67706 12.3586 4.70249 12.3085C4.86753 11.9827 4.82105 11.7609 4.71721 11.4266Z" fill="#F4BD70"/>
<path d="M5.03812 3.04725C5.25143 3.01976 5.53377 3.03799 5.71658 3.1642C5.8959 3.28869 6.01872 3.48146 6.05747 3.69925C6.16795 4.3557 5.75648 4.7358 5.16121 4.8405C4.72155 4.90178 4.24358 4.8563 4.14467 4.31856C4.02807 3.68468 4.42084 3.15382 5.03812 3.04725Z" fill="#984819"/>
<path d="M8.63974 13.5489C8.77673 13.1709 9.07988 12.979 9.46299 12.9255C9.71466 12.8904 9.84604 12.9226 10.0391 13.0734C10.2826 13.277 10.2549 13.4684 10.2529 13.7763C10.2629 14.1889 9.84369 14.57 9.44812 14.4104C9.3293 14.3624 9.21876 14.2208 9.11252 14.1502C8.93254 14.0306 8.78944 13.9942 8.63965 13.8269C8.63414 13.7386 8.62395 13.635 8.63974 13.5489Z" fill="#984819"/>
<path d="M10.0391 13.0734C10.2826 13.277 10.2549 13.4684 10.2529 13.7763C10.2629 14.1889 9.84369 14.57 9.44812 14.4104C9.3293 14.3624 9.21876 14.2208 9.11252 14.1502C8.93254 14.0306 8.78944 13.9942 8.63965 13.8269C8.63414 13.7386 8.62395 13.635 8.63974 13.5489C8.6818 13.9251 8.84611 13.8921 9.11232 14.0722C9.22661 14.1497 9.3375 14.2948 9.46845 14.3411C10.0698 14.5541 10.22 13.9634 10.1648 13.4816C10.1432 13.2932 10.1138 13.2356 10.0391 13.0734Z" fill="#D37F2B"/>
<path d="M12.0374 3.21312C12.1092 3.20435 12.2082 3.20886 12.2829 3.21022C12.5954 3.42471 12.8688 3.81219 12.8795 4.20138C12.8898 4.57931 12.5588 4.84544 12.2103 4.83669C11.7962 4.72552 11.0675 4.23105 11.3876 3.72181C11.5221 3.50781 11.7893 3.26992 12.0374 3.21312Z" fill="#AA5921"/>
<path d="M1.24021 5.15874C1.38786 4.81751 2.15919 3.44 2.45232 3.34233L2.47999 3.36302C2.49763 3.57591 2.0908 3.93299 2.03754 4.11749C1.97576 4.33154 1.92839 4.54947 1.86378 4.76543C1.82693 4.84041 1.81382 4.88444 1.74373 4.9167L1.70871 4.89695C1.667 4.83267 1.66383 4.75688 1.65304 4.67953L1.62809 4.69169L1.62511 4.70687C1.48999 4.83643 1.38938 5.144 1.27706 5.18071L1.24021 5.15874Z" fill="#FCE2B6"/>
<path d="M14.8707 5.47791C15.1173 5.47677 15.3272 5.89387 15.4331 6.09637C15.5787 6.37439 15.6837 6.80793 15.5927 7.12099C15.5809 7.16137 15.5248 7.27298 15.4882 7.29191L15.4994 7.2325C15.6938 7.00792 15.5845 6.59346 15.5098 6.33473C15.4871 6.25603 15.3384 5.92326 15.2708 5.88989C15.2347 5.91281 15.2314 5.91675 15.1895 5.93026C15.0947 5.8744 14.9271 5.68617 14.8584 5.58619C14.8381 5.55674 14.8597 5.51452 14.8707 5.47791Z" fill="#FCE2B6"/>
<path d="M8.97055 15.1541C9.0376 15.1695 9.0626 15.1681 9.10727 15.2203C9.13219 15.283 9.1262 15.2951 9.11824 15.3653C8.99649 15.3413 8.95895 15.2775 8.97055 15.1541Z" fill="#F4BD70"/>
</svg>
