<svg width="25" height="35" viewBox="0 0 25 35" fill="none" xmlns="http://www.w3.org/2000/svg">
<path d="M10.4157 19.7917V14.5833H14.5824V19.7917C14.5824 20.3646 15.0511 20.8333 15.6241 20.8333H18.7491C19.322 20.8333 19.7907 20.3646 19.7907 19.7917V12.5H21.5616C22.0407 12.5 22.2699 11.9062 21.9053 11.5938L13.197 3.75C12.8011 3.39583 12.197 3.39583 11.8011 3.75L3.09281 11.5938C2.73865 11.9062 2.9574 12.5 3.43656 12.5H5.2074V19.7917C5.2074 20.3646 5.67615 20.8333 6.24906 20.8333H9.37406C9.94698 20.8333 10.4157 20.3646 10.4157 19.7917Z" fill="#5D3300"/>
<path d="M9.98031 31.464H14.9963V33.568H9.98031V31.464ZM14.1723 32.088H10.7963V32.944H14.1723V32.088ZM9.51631 26.912H15.4283V27.552H9.51631V26.912ZM12.4923 27.792C13.2603 27.792 13.8496 27.88 14.2603 28.056C14.6763 28.232 14.8843 28.4907 14.8843 28.832C14.8843 29.1733 14.6763 29.432 14.2603 29.608C13.8496 29.784 13.2603 29.872 12.4923 29.872C11.7243 29.872 11.1323 29.784 10.7163 29.608C10.3003 29.432 10.0923 29.1733 10.0923 28.832C10.0923 28.4907 10.3003 28.232 10.7163 28.056C11.1323 27.88 11.7243 27.792 12.4923 27.792ZM12.4923 28.368C11.9963 28.368 11.6203 28.408 11.3643 28.488C11.1136 28.5627 10.9883 28.6773 10.9883 28.832C10.9883 28.9867 11.1136 29.104 11.3643 29.184C11.6203 29.2587 11.9963 29.296 12.4923 29.296C12.9883 29.296 13.3616 29.2587 13.6123 29.184C13.8683 29.104 13.9963 28.9867 13.9963 28.832C13.9963 28.6773 13.8683 28.5627 13.6123 28.488C13.3616 28.408 12.9883 28.368 12.4923 28.368ZM12.0763 26.264H12.9083V27.352H12.0763V26.264ZM9.18831 30.336H15.7963V30.984H9.18831V30.336ZM12.0763 29.672H12.9083V30.688H12.0763V29.672Z" fill="#5D3300"/>
</svg>
