<svg width="17" height="17" viewBox="0 0 17 17" fill="none" xmlns="http://www.w3.org/2000/svg">
<path d="M13.4584 2.83341H12.0417V2.12508C12.0417 1.93722 11.9671 1.75705 11.8342 1.62421C11.7014 1.49138 11.5212 1.41675 11.3334 1.41675C11.1455 1.41675 10.9653 1.49138 10.8325 1.62421C10.6996 1.75705 10.625 1.93722 10.625 2.12508V2.83341H6.37502V2.12508C6.37502 1.93722 6.30039 1.75705 6.16755 1.62421C6.03472 1.49138 5.85455 1.41675 5.66669 1.41675C5.47883 1.41675 5.29866 1.49138 5.16582 1.62421C5.03298 1.75705 4.95835 1.93722 4.95835 2.12508V2.83341H3.54169C2.9781 2.83341 2.4376 3.0573 2.03909 3.45581C1.64057 3.85433 1.41669 4.39483 1.41669 4.95842V13.4584C1.41669 14.022 1.64057 14.5625 2.03909 14.961C2.4376 15.3595 2.9781 15.5834 3.54169 15.5834H13.4584C14.0219 15.5834 14.5624 15.3595 14.961 14.961C15.3595 14.5625 15.5834 14.022 15.5834 13.4584V4.95842C15.5834 4.39483 15.3595 3.85433 14.961 3.45581C14.5624 3.0573 14.0219 2.83341 13.4584 2.83341ZM14.1667 13.4584C14.1667 13.6463 14.0921 13.8264 13.9592 13.9593C13.8264 14.0921 13.6462 14.1667 13.4584 14.1667H3.54169C3.35383 14.1667 3.17366 14.0921 3.04082 13.9593C2.90798 13.8264 2.83335 13.6463 2.83335 13.4584V8.50008H14.1667V13.4584ZM14.1667 7.08342H2.83335V4.95842C2.83335 4.77055 2.90798 4.59039 3.04082 4.45755C3.17366 4.32471 3.35383 4.25008 3.54169 4.25008H4.95835V4.95842C4.95835 5.14628 5.03298 5.32644 5.16582 5.45928C5.29866 5.59212 5.47883 5.66675 5.66669 5.66675C5.85455 5.66675 6.03472 5.59212 6.16755 5.45928C6.30039 5.32644 6.37502 5.14628 6.37502 4.95842V4.25008H10.625V4.95842C10.625 5.14628 10.6996 5.32644 10.8325 5.45928C10.9653 5.59212 11.1455 5.66675 11.3334 5.66675C11.5212 5.66675 11.7014 5.59212 11.8342 5.45928C11.9671 5.32644 12.0417 5.14628 12.0417 4.95842V4.25008H13.4584C13.6462 4.25008 13.8264 4.32471 13.9592 4.45755C14.0921 4.59039 14.1667 4.77055 14.1667 4.95842V7.08342Z" fill="#5D3300"/>
</svg>
