<svg width="36" height="35" viewBox="0 0 36 35" fill="none" xmlns="http://www.w3.org/2000/svg" preserveAspectRatio="xMidYMid meet">
<path d="M17.7738 12.4998C20.0758 12.4998 21.9404 10.6353 21.9404 8.33317C21.9404 6.03109 20.0758 4.1665 17.7738 4.1665C15.4717 4.1665 13.6071 6.03109 13.6071 8.33317C13.6071 10.6353 15.4717 12.4998 17.7738 12.4998ZM17.7738 14.5832C14.9925 14.5832 9.44043 15.979 9.44043 18.7498V19.7915C9.44043 20.3644 9.90918 20.8332 10.4821 20.8332H25.0654C25.6383 20.8332 26.1071 20.3644 26.1071 19.7915V18.7498C26.1071 15.979 20.555 14.5832 17.7738 14.5832Z" fill="#5D3300"/>
<path d="M-2.34246e-05 27.056H3.42398V31.84H-2.34246e-05V27.056ZM2.59998 27.728H0.823977V31.176H2.59998V27.728ZM4.56798 26.352H5.40798V33.664H4.56798V26.352ZM5.22398 29.2H6.54398V29.896H5.22398V29.2ZM12.2794 26.344H13.1194V33.672H12.2794V26.344ZM9.23135 26.88C9.59402 26.88 9.91669 26.9867 10.1994 27.2C10.4874 27.4133 10.7114 27.712 10.8714 28.096C11.0314 28.48 11.1114 28.9333 11.1114 29.456C11.1114 29.984 11.0314 30.4427 10.8714 30.832C10.7114 31.216 10.4874 31.5147 10.1994 31.728C9.91669 31.936 9.59402 32.04 9.23135 32.04C8.86869 32.04 8.54335 31.936 8.25535 31.728C7.97268 31.5147 7.74868 31.216 7.58335 30.832C7.42335 30.4427 7.34335 29.984 7.34335 29.456C7.34335 28.9333 7.42335 28.48 7.58335 28.096C7.74868 27.712 7.97268 27.4133 8.25535 27.2C8.54335 26.9867 8.86869 26.88 9.23135 26.88ZM9.23135 27.64C9.01802 27.64 8.82869 27.712 8.66335 27.856C8.50335 28 8.37802 28.208 8.28735 28.48C8.19668 28.752 8.15135 29.0773 8.15135 29.456C8.15135 29.84 8.19668 30.168 8.28735 30.44C8.37802 30.712 8.50335 30.9227 8.66335 31.072C8.82869 31.216 9.01802 31.288 9.23135 31.288C9.44469 31.288 9.63135 31.216 9.79135 31.072C9.95135 30.9227 10.0767 30.712 10.1674 30.44C10.258 30.168 10.3034 29.84 10.3034 29.456C10.3034 29.0773 10.258 28.752 10.1674 28.48C10.0767 28.208 9.95135 28 9.79135 27.856C9.63135 27.712 9.44469 27.64 9.23135 27.64ZM19.9507 26.352H20.7507V33.664H19.9507V26.352ZM17.6547 29.08H18.7667V29.816H17.6547V29.08ZM18.5187 26.512H19.3027V33.296H18.5187V26.512ZM14.5267 27.232H17.8547V27.904H14.5267V27.232ZM14.4787 31.928L14.3907 31.232C14.6254 31.232 14.8894 31.2293 15.1827 31.224C15.4814 31.2187 15.7934 31.2107 16.1187 31.2C16.4494 31.184 16.7747 31.1653 17.0947 31.144C17.4147 31.1227 17.7134 31.0933 17.9907 31.056L18.0467 31.664C17.6681 31.7387 17.2601 31.7973 16.8227 31.84C16.3907 31.8773 15.9694 31.9013 15.5587 31.912C15.1534 31.9227 14.7934 31.928 14.4787 31.928ZM15.0547 27.664H15.8147V31.416H15.0547V27.664ZM16.5507 27.664H17.3187V31.416H16.5507V27.664ZM26.9981 26.344H27.8381V33.672H26.9981V26.344ZM23.9501 26.88C24.3128 26.88 24.6354 26.9867 24.9181 27.2C25.2061 27.4133 25.4301 27.712 25.5901 28.096C25.7501 28.48 25.8301 28.9333 25.8301 29.456C25.8301 29.984 25.7501 30.4427 25.5901 30.832C25.4301 31.216 25.2061 31.5147 24.9181 31.728C24.6354 31.936 24.3128 32.04 23.9501 32.04C23.5874 32.04 23.2621 31.936 22.9741 31.728C22.6914 31.5147 22.4674 31.216 22.3021 30.832C22.1421 30.4427 22.0621 29.984 22.0621 29.456C22.0621 28.9333 22.1421 28.48 22.3021 28.096C22.4674 27.712 22.6914 27.4133 22.9741 27.2C23.2621 26.9867 23.5874 26.88 23.9501 26.88ZM23.9501 27.64C23.7368 27.64 23.5474 27.712 23.3821 27.856C23.2221 28 23.0968 28.208 23.0061 28.48C22.9154 28.752 22.8701 29.0773 22.8701 29.456C22.8701 29.84 22.9154 30.168 23.0061 30.44C23.0968 30.712 23.2221 30.9227 23.3821 31.072C23.5474 31.216 23.7368 31.288 23.9501 31.288C24.1634 31.288 24.3501 31.216 24.5101 31.072C24.6701 30.9227 24.7954 30.712 24.8861 30.44C24.9768 30.168 25.0221 29.84 25.0221 29.456C25.0221 29.0773 24.9768 28.752 24.8861 28.48C24.7954 28.208 24.6701 28 24.5101 27.856C24.3501 27.712 24.1634 27.64 23.9501 27.64ZM31.0375 27.44H31.7095V28.464C31.7095 28.8693 31.6615 29.2667 31.5655 29.656C31.4695 30.04 31.3281 30.4027 31.1415 30.744C30.9601 31.0853 30.7415 31.3867 30.4855 31.648C30.2295 31.9093 29.9468 32.1173 29.6375 32.272L29.1495 31.608C29.4321 31.4747 29.6881 31.296 29.9175 31.072C30.1521 30.848 30.3521 30.5947 30.5175 30.312C30.6828 30.024 30.8108 29.7227 30.9015 29.408C30.9921 29.0933 31.0375 28.7787 31.0375 28.464V27.44ZM31.2135 27.44H31.8855V28.464C31.8855 28.768 31.9308 29.0693 32.0215 29.368C32.1121 29.6667 32.2401 29.9493 32.4055 30.216C32.5708 30.4827 32.7681 30.72 32.9975 30.928C33.2268 31.136 33.4855 31.3013 33.7735 31.424L33.3095 32.088C32.9895 31.944 32.7015 31.7493 32.4455 31.504C32.1895 31.2587 31.9681 30.976 31.7815 30.656C31.6001 30.3307 31.4588 29.984 31.3575 29.616C31.2615 29.2427 31.2135 28.8587 31.2135 28.464V27.44ZM29.4135 27.072H33.5095V27.768H29.4135V27.072ZM34.3575 26.352H35.1975V33.664H34.3575V26.352Z" fill="#5D3300"/>
</svg>
