<svg width="25" height="25" viewBox="0 0 25 25" fill="none" xmlns="http://www.w3.org/2000/svg">
<path d="M23.4375 19.5312H22.6562V14.0625C22.6562 13.6481 22.4916 13.2507 22.1986 12.9576C21.9056 12.6646 21.5082 12.5 21.0938 12.5H17.1875V5.46875C17.1875 5.05435 17.0229 4.65692 16.7299 4.3639C16.4368 4.07087 16.0394 3.90625 15.625 3.90625H9.375C8.9606 3.90625 8.56317 4.07087 8.27015 4.3639C7.97712 4.65692 7.8125 5.05435 7.8125 5.46875V8.59375H3.90625C3.49185 8.59375 3.09442 8.75837 2.8014 9.0514C2.50837 9.34442 2.34375 9.74185 2.34375 10.1562V19.5312H1.5625C1.3553 19.5312 1.15659 19.6136 1.01007 19.7601C0.86356 19.9066 0.78125 20.1053 0.78125 20.3125C0.78125 20.5197 0.86356 20.7184 1.01007 20.8649C1.15659 21.0114 1.3553 21.0938 1.5625 21.0938H23.4375C23.6447 21.0938 23.8434 21.0114 23.9899 20.8649C24.1364 20.7184 24.2188 20.5197 24.2188 20.3125C24.2188 20.1053 24.1364 19.9066 23.9899 19.7601C23.8434 19.6136 23.6447 19.5312 23.4375 19.5312ZM7.8125 19.5312H3.90625V10.1562H7.8125V19.5312ZM13.6719 13.2812C13.6719 13.4885 13.5896 13.6872 13.4431 13.8337C13.2965 13.9802 13.0978 14.0625 12.8906 14.0625C12.6834 14.0625 12.4847 13.9802 12.3382 13.8337C12.1917 13.6872 12.1094 13.4885 12.1094 13.2812V10.459L11.9658 10.5068C11.8685 10.5393 11.7657 10.5522 11.6634 10.545C11.561 10.5377 11.4611 10.5103 11.3693 10.4644C11.2776 10.4186 11.1957 10.355 11.1285 10.2775C11.0613 10.2 11.01 10.11 10.9775 10.0127C10.9451 9.91536 10.9321 9.81258 10.9394 9.71024C10.9467 9.60789 10.974 9.50799 11.0199 9.41621C11.0658 9.32444 11.1293 9.24261 11.2068 9.17538C11.2843 9.10816 11.3743 9.05686 11.4717 9.02441L12.6436 8.63379C12.761 8.59464 12.8861 8.58396 13.0084 8.60263C13.1308 8.6213 13.247 8.66878 13.3474 8.74117C13.4479 8.81356 13.5297 8.90878 13.5861 9.01898C13.6425 9.12918 13.6719 9.2512 13.6719 9.375V13.2812ZM21.0938 19.5312H17.1875V14.0625H21.0938V19.5312Z" fill="#5D3300"/>
</svg>
