<svg width="45" height="45" viewBox="0 0 45 45" fill="none" xmlns="http://www.w3.org/2000/svg">
<g clip-path="url(#clip0_5_4396)">
<rect x="0.902588" y="0.902588" width="43" height="43" rx="21.5" fill="#F9C356"/>
<path d="M17.2453 42.5541C17.3766 42.3568 17.5152 42.1501 17.6694 41.9214C17.8582 41.6413 18.5125 40.6765 18.6264 40.5078C18.9972 39.9589 19.2735 39.5438 19.5229 39.1583C20.1191 38.237 19.8555 37.0069 18.9342 36.4108C18.0129 35.8147 16.7828 36.0783 16.1867 36.9995C15.9542 37.3588 15.6909 37.7545 15.3335 38.2835C15.2227 38.4476 14.5671 39.4143 14.3745 39.7C14.2161 39.9349 14.0731 40.1481 13.937 40.3527C13.1724 41.5018 12.6034 42.4091 12.1442 43.2357L12.0428 43.4465C11.1153 45.7074 10.6563 47.4366 10.5173 49.2437C10.3978 50.7965 10.4897 52.1753 10.8341 55.068C10.9638 56.1577 11.9523 56.9358 13.0419 56.8061C14.1316 56.6764 14.9097 55.6879 14.78 54.5983C14.4653 51.9551 14.3859 50.7632 14.4793 49.5485C14.5814 48.2215 14.9248 46.9097 15.6745 45.0644C16.0643 44.3723 16.5678 43.5723 17.2453 42.5541Z" fill="#EBBAAA"/>
<path d="M14.0889 40.9322C14.3363 38.0132 16.7778 35.7698 19.7072 35.7698H25.4411C28.3524 35.7698 30.7851 37.9862 31.0552 40.885L31.762 48.4685L31.2787 59.3439L13.9874 59.6661L13.4504 48.4685L14.0889 40.9322Z" fill="#D04040"/>
<path d="M22.8501 40.3211C24.9269 40.3211 26.6105 38.617 26.6105 36.5149C26.6105 34.4128 24.9269 32.7087 22.8501 32.7087C20.7734 32.7087 19.0898 34.4128 19.0898 36.5149C19.0898 38.617 20.7734 40.3211 22.8501 40.3211Z" fill="#993030"/>
<rect x="20.8505" y="32.3875" width="4.12717" height="6.19075" rx="2.06358" fill="#EBBAAA"/>
<path d="M28.1028 39.4116C28.2414 40.0526 28.458 40.6778 28.7864 41.4538C28.9262 41.7839 29.4905 43.043 29.6196 43.3443C30.1588 44.6022 30.5017 45.6408 30.7232 46.8221C31.1451 49.0719 32.6922 50.9537 34.7768 52.0629C36.8048 53.142 39.1302 53.3709 40.9215 52.4753C41.9029 51.9846 42.3008 50.7911 41.81 49.8096C41.3193 48.8282 40.1258 48.4303 39.1443 48.9211C38.6333 49.1766 37.6254 49.0774 36.6434 48.5548C35.5636 47.9803 34.812 47.066 34.6289 46.0898C34.3469 44.5857 33.9169 43.2832 33.272 41.7788C33.1244 41.4344 32.565 40.1863 32.4459 39.9048C32.2059 39.3379 32.0637 38.9273 31.9868 38.5718C31.7549 37.4993 30.6974 36.8178 29.6249 37.0497C28.5524 37.2816 27.8709 38.339 28.1028 39.4116Z" fill="#EBBAAA"/>
<path d="M9.04117 43.1693C8.83607 42.9587 8.83849 42.6222 9.04659 42.4146L15.8669 35.6082L19.0516 42.7892L13.1819 47.4221L9.04117 43.1693Z" fill="#2B2D2F"/>
<path d="M13.8367 39.0858C14.0124 36.7314 15.974 34.9109 18.3349 34.9109H19.813C20.2891 34.9109 20.7228 35.1845 20.9277 35.6143L22.257 38.4014L21.6126 49.0339V58.0327C21.6126 58.3169 21.3912 58.5518 21.1075 58.5688L13.1919 59.0399C12.8718 59.059 12.6064 58.7949 12.6239 58.4746L13.2623 46.7785L13.8367 39.0858Z" fill="#2B2D2F"/>
<path d="M22.3656 38.4547L20.9694 34.2661L18.9825 34.8568L20.2176 39.9583L22.3656 38.4547Z" fill="#494C50"/>
<path d="M36.7616 43.1695C36.9667 42.9589 36.9643 42.6225 36.7561 42.4148L29.9359 35.6084L26.7511 42.7895L32.6208 47.4223L36.7616 43.1695Z" fill="#2B2D2F"/>
<path d="M31.9676 39.0858C31.7918 36.7314 29.8302 34.9109 27.4693 34.9109H25.9913C25.5151 34.9109 25.0814 35.1845 24.8765 35.6143L23.5472 38.4014L24.1916 49.0339V58.0327C24.1916 58.3169 24.413 58.5518 24.6967 58.5688L32.6123 59.0399C32.9325 59.059 33.1979 58.7949 33.1803 58.4746L32.5419 46.7785L31.9676 39.0858Z" fill="#2B2D2F"/>
<path d="M23.4399 38.4547L24.8361 34.2661L26.823 34.8568L25.5879 39.9583L23.4399 38.4547Z" fill="#494C50"/>
<path d="M24.6199 41.8914C24.8275 41.8914 24.9958 41.7231 24.9958 41.5155C24.9958 41.3079 24.8275 41.1396 24.6199 41.1396C24.4123 41.1396 24.244 41.3079 24.244 41.5155C24.244 41.7231 24.4123 41.8914 24.6199 41.8914Z" fill="#5F6368"/>
<path d="M14.1388 27.4505C15.861 27.4505 17.2571 26.1263 17.2571 24.4927C17.2571 22.8592 15.861 21.5349 14.1388 21.5349C12.4166 21.5349 11.0205 22.8592 11.0205 24.4927C11.0205 26.1263 12.4166 27.4505 14.1388 27.4505Z" fill="#EBBAAA"/>
<path d="M31.7024 27.68C33.4246 27.68 34.8207 26.3558 34.8207 24.7222C34.8207 23.0887 33.4246 21.7644 31.7024 21.7644C29.9802 21.7644 28.5841 23.0887 28.5841 24.7222C28.5841 26.3558 29.9802 27.68 31.7024 27.68Z" fill="#EBBAAA"/>
<path d="M13.5352 19.0346C13.4473 13.8062 17.6614 9.52051 22.8906 9.52051C28.1197 9.52051 32.3339 13.8062 32.246 19.0346L32.1292 25.9786C32.0444 31.0203 27.933 35.0631 22.8906 35.0631C17.8481 35.0631 13.7368 31.0203 13.652 25.9786L13.5352 19.0346Z" fill="#EED4CC"/>
<path fill-rule="evenodd" clip-rule="evenodd" d="M20.9493 28.5402L21.0974 29.4754C21.3255 30.9148 22.6772 31.8969 24.1166 31.6689C25.5561 31.4409 26.5382 30.0892 26.3102 28.6497L26.1621 27.7146L20.9493 28.5402Z" fill="#393939"/>
<mask id="mask0_5_4396" style="mask-type:luminance" maskUnits="userSpaceOnUse" x="20" y="27" width="7" height="5">
<path fill-rule="evenodd" clip-rule="evenodd" d="M20.9266 28.3665C20.9317 28.4174 20.9383 28.4685 20.9464 28.5197L21.0977 29.4747C21.3256 30.9141 22.6774 31.8962 24.1169 31.6683C25.5563 31.4403 26.5385 30.0886 26.3104 28.6491L26.1592 27.694C26.1511 27.6429 26.1416 27.5922 26.1307 27.5422L20.9266 28.3665Z" fill="white"/>
</mask>
<g mask="url(#mask0_5_4396)">
<path d="M24.2484 32.343C25.1165 32.2055 25.7596 31.711 25.6847 31.2385C25.6099 30.766 24.8455 30.4944 23.9774 30.6319C23.1094 30.7694 22.4663 31.2639 22.5411 31.7364C22.616 32.2089 23.3804 32.4805 24.2484 32.343Z" fill="#FF6C6C"/>
<rect x="20.95" y="28.5398" width="5.27776" height="1.08778" transform="rotate(-9.00001 20.95 28.5398)" fill="white"/>
</g>
<path d="M17.661 20.8739L20.6711 20.5575C21.025 20.5203 21.2818 20.2032 21.2445 19.8493C21.2073 19.4954 20.8903 19.2386 20.5363 19.2758L17.5263 19.5922C17.1724 19.6294 16.9156 19.9465 16.9528 20.3004C16.99 20.6544 17.3071 20.9111 17.661 20.8739Z" fill="#393939"/>
<path d="M19.209 22.6092V24.1272C19.209 24.4831 19.4975 24.7716 19.8534 24.7716C20.2093 24.7716 20.4978 24.4831 20.4978 24.1272V22.6092C20.4978 22.2533 20.2093 21.9648 19.8534 21.9648C19.4975 21.9648 19.209 22.2533 19.209 22.6092Z" fill="black"/>
<path d="M25.5374 22.6092V24.1272C25.5374 24.4831 25.8259 24.7716 26.1817 24.7716C26.5376 24.7716 26.8261 24.4831 26.8261 24.1272V22.6092C26.8261 22.2533 26.5376 21.9648 26.1817 21.9648C25.8259 21.9648 25.5374 22.2533 25.5374 22.6092Z" fill="black"/>
<path d="M24.9806 19.9352L27.9907 20.2516C28.3446 20.2888 28.6617 20.0321 28.6989 19.6781C28.7361 19.3242 28.4793 19.0071 28.1254 18.9699L25.1154 18.6535C24.7614 18.6163 24.4444 18.873 24.4071 19.227C24.3699 19.5809 24.6267 19.898 24.9806 19.9352Z" fill="#393939"/>
<path d="M12.8698 13.6043C12.8698 11.79 14.1842 10.2187 15.9747 9.9255L24.4413 8.53916C26.549 8.19404 28.5281 9.65047 28.8253 11.7655C29.1181 13.8489 27.6651 15.7746 25.5814 16.0648L17.0459 17.2537C14.8428 17.5715 12.8698 15.8303 12.8698 13.6043Z" fill="#393939"/>
<rect x="13.1263" y="15.5354" width="1.23509" height="6.60504" rx="0.617545" fill="#393939"/>
<path d="M16.6715 15.696C15.8553 16.2115 14.9531 16.2867 14.3087 18.9717L13.8792 16.2867C15.1501 15.8751 17.4878 15.1805 16.6715 15.696Z" fill="#393939"/>
<rect x="31.1705" y="16.3408" width="1.23509" height="6.55134" rx="0.617545" fill="#393939"/>
<rect x="25.4767" y="10.6951" width="5.49491" height="8.17146" rx="2.74746" transform="rotate(-20.5 25.4767 10.6951)" fill="#393939"/>
<path d="M26.8163 7.8562C26.6695 9.74365 26.6587 11.8965 26.6587 11.8965L29.6136 9.8911C29.6136 9.8911 28.0774 9.50771 26.8163 7.8562Z" fill="#393939"/>
<path d="M15.2213 18.6097C15.4721 17.0651 15.8046 16.2918 15.4721 15.052H32.083V19.6702L31.1445 19.1487C31.1445 17.4554 29.2493 18.1012 28.2282 17.0651C26.6014 15.4144 24.7578 17.1835 23.6869 18.2492C23.6869 16.9466 23.0648 16.9763 22.5169 16.7099C22.5966 17.9414 20.614 18.7584 19.2692 18.7584C19.2692 17.4263 19.2793 17.5091 18.6816 17.0651C17.4083 17.4964 16.6795 17.0651 15.2213 18.6097Z" fill="#393939"/>
<path fill-rule="evenodd" clip-rule="evenodd" d="M19.0615 26.3829C20.5889 26.3829 21.8271 25.1447 21.8271 23.6173C21.8271 22.09 20.5889 20.8518 19.0615 20.8518C17.5342 20.8518 16.296 22.09 16.296 23.6173C16.296 25.1447 17.5342 26.3829 19.0615 26.3829Z" fill="black" fill-opacity="0.2"/>
<path fill-rule="evenodd" clip-rule="evenodd" d="M26.4164 26.4366C27.9438 26.4366 29.1819 25.1984 29.1819 23.671C29.1819 22.1437 27.9438 20.9055 26.4164 20.9055C24.889 20.9055 23.6509 22.1437 23.6509 23.671C23.6509 25.1984 24.889 26.4366 26.4164 26.4366Z" fill="black" fill-opacity="0.2"/>
<path d="M19.1077 20.6904C20.7284 20.6904 22.0421 22.0043 22.0422 23.625C22.0422 25.2459 20.7285 26.5605 19.1077 26.5605C17.4868 26.5605 16.1731 25.2459 16.1731 23.625C16.1732 22.0042 17.4869 20.6904 19.1077 20.6904ZM19.1057 21.2275C17.7815 21.2275 16.7084 22.3008 16.7083 23.625C16.7083 24.9493 17.7814 26.0234 19.1057 26.0234C20.43 26.0234 21.5032 24.9493 21.5032 23.625C21.503 22.3008 20.4299 21.2276 19.1057 21.2275Z" fill="#2E2622"/>
<path d="M26.3972 20.8284C28.018 20.8284 29.3326 22.1422 29.3328 23.7629C29.3328 25.3838 28.0181 26.6985 26.3972 26.6985C24.7765 26.6982 23.4626 25.3837 23.4626 23.7629C23.4628 22.1423 24.7766 20.8286 26.3972 20.8284ZM26.3992 21.3655C25.0749 21.3655 24.0009 22.4387 24.0007 23.7629C24.0007 25.0873 25.0749 26.1614 26.3992 26.1614C27.7233 26.1612 28.7966 25.0871 28.7966 23.7629C28.7965 22.4389 27.7232 21.3657 26.3992 21.3655Z" fill="#2E2622"/>
<path d="M21.7646 23.8854L23.7364 23.9026C23.8846 23.9039 24.0059 23.7847 24.0072 23.6364C24.0085 23.4881 23.8893 23.3669 23.741 23.3656L21.7693 23.3484C21.621 23.3471 21.4997 23.4663 21.4984 23.6145C21.4971 23.7628 21.6163 23.8841 21.7646 23.8854Z" fill="#2E2622"/>
<path d="M22.0974 24.0112C22.0801 24.138 22.0603 24.2237 21.967 24.5985C21.9443 24.6894 21.9283 24.7554 21.9128 24.8216C21.7985 25.3123 21.7632 25.6477 21.838 25.9593C21.9554 26.4487 22.3444 26.7309 22.9165 26.7309V25.818C22.8577 25.818 22.8118 25.8126 22.7781 25.8035C22.7583 25.7981 22.7473 25.793 22.7419 25.7891C22.7381 25.7863 22.7335 25.7787 22.7257 25.7463C22.6944 25.6161 22.7186 25.3862 22.8019 25.0287C22.8161 24.968 22.8312 24.906 22.8528 24.8192C22.9567 24.4023 22.9779 24.3097 23.0019 24.1353L22.0974 24.0112Z" fill="#EBBAAA"/>
</g>
<rect x="0.902588" y="0.902588" width="43" height="43" rx="21.5" stroke="white" stroke-width="1.80519"/>
<defs>
<clipPath id="clip0_5_4396">
<rect x="0.902588" y="0.902588" width="43" height="43" rx="21.5" fill="white"/>
</clipPath>
</defs>
</svg>
