<svg width="25" height="35" viewBox="0 0 25 35" fill="none" xmlns="http://www.w3.org/2000/svg">
<path d="M23.4375 19.5312H22.6562V14.0625C22.6562 13.6481 22.4916 13.2507 22.1986 12.9576C21.9056 12.6646 21.5082 12.5 21.0938 12.5H17.1875V5.46875C17.1875 5.05435 17.0229 4.65692 16.7299 4.3639C16.4368 4.07087 16.0394 3.90625 15.625 3.90625H9.375C8.9606 3.90625 8.56317 4.07087 8.27015 4.3639C7.97712 4.65692 7.8125 5.05435 7.8125 5.46875V8.59375H3.90625C3.49185 8.59375 3.09442 8.75837 2.8014 9.0514C2.50837 9.34442 2.34375 9.74185 2.34375 10.1562V19.5312H1.5625C1.3553 19.5312 1.15659 19.6136 1.01007 19.7601C0.86356 19.9066 0.78125 20.1053 0.78125 20.3125C0.78125 20.5197 0.86356 20.7184 1.01007 20.8649C1.15659 21.0114 1.3553 21.0938 1.5625 21.0938H23.4375C23.6447 21.0938 23.8434 21.0114 23.9899 20.8649C24.1364 20.7184 24.2188 20.5197 24.2188 20.3125C24.2188 20.1053 24.1364 19.9066 23.9899 19.7601C23.8434 19.6136 23.6447 19.5312 23.4375 19.5312ZM7.8125 19.5312H3.90625V10.1562H7.8125V19.5312ZM13.6719 13.2812C13.6719 13.4885 13.5896 13.6872 13.4431 13.8337C13.2965 13.9802 13.0978 14.0625 12.8906 14.0625C12.6834 14.0625 12.4847 13.9802 12.3382 13.8337C12.1917 13.6872 12.1094 13.4885 12.1094 13.2812V10.459L11.9658 10.5068C11.8685 10.5393 11.7657 10.5522 11.6634 10.545C11.561 10.5377 11.4611 10.5103 11.3693 10.4644C11.2776 10.4186 11.1957 10.355 11.1285 10.2775C11.0613 10.2 11.01 10.11 10.9775 10.0127C10.9451 9.91536 10.9321 9.81258 10.9394 9.71024C10.9467 9.60789 10.974 9.50799 11.0199 9.41621C11.0658 9.32444 11.1293 9.24261 11.2068 9.17538C11.2843 9.10816 11.3743 9.05686 11.4717 9.02441L12.6436 8.63379C12.761 8.59464 12.8861 8.58396 13.0084 8.60263C13.1308 8.6213 13.247 8.66878 13.3474 8.74117C13.4479 8.81356 13.5297 8.90878 13.5861 9.01898C13.6425 9.12918 13.6719 9.2512 13.6719 9.375V13.2812ZM21.0938 19.5312H17.1875V14.0625H21.0938V19.5312Z" fill="#5D3300"/>
<path d="M10.9006 26.352H11.7006V30.84H10.9006V26.352ZM9.86063 28.224H11.1406V28.904H9.86063V28.224ZM9.30863 26.488H10.0926V30.592H9.30863V26.488ZM5.82063 29.776H6.30863C6.65529 29.776 6.97263 29.7733 7.26063 29.768C7.54863 29.7573 7.82596 29.7387 8.09263 29.712C8.36463 29.68 8.64196 29.6373 8.92463 29.584L8.99663 30.248C8.70863 30.3013 8.42596 30.344 8.14863 30.376C7.87129 30.4027 7.58329 30.4213 7.28463 30.432C6.99129 30.4427 6.66596 30.448 6.30863 30.448H5.82063V29.776ZM5.81263 26.872H8.57263V28.936H6.62863V30.296H5.82063V28.312H7.75663V27.536H5.81263V26.872ZM9.26063 30.96C9.76729 30.96 10.2046 31.0133 10.5726 31.12C10.946 31.2267 11.2313 31.3813 11.4286 31.584C11.6313 31.7813 11.7326 32.0213 11.7326 32.304C11.7326 32.5813 11.6313 32.8213 11.4286 33.024C11.2313 33.2267 10.946 33.3813 10.5726 33.488C10.2046 33.5947 9.76729 33.648 9.26063 33.648C8.75929 33.648 8.32196 33.5947 7.94863 33.488C7.57529 33.3813 7.28729 33.2267 7.08463 33.024C6.88729 32.8213 6.78863 32.5813 6.78863 32.304C6.78863 32.0213 6.88729 31.7813 7.08463 31.584C7.28729 31.3813 7.57529 31.2267 7.94863 31.12C8.32196 31.0133 8.75929 30.96 9.26063 30.96ZM9.26063 31.6C8.74863 31.6 8.34596 31.6613 8.05263 31.784C7.76463 31.9013 7.62063 32.0747 7.62063 32.304C7.62063 32.528 7.76463 32.7013 8.05263 32.824C8.34596 32.9467 8.74863 33.008 9.26063 33.008C9.60196 33.008 9.89529 32.9813 10.1406 32.928C10.386 32.8693 10.5726 32.7893 10.7006 32.688C10.8286 32.5813 10.8926 32.4533 10.8926 32.304C10.8926 32.1493 10.8286 32.0213 10.7006 31.92C10.5726 31.8133 10.386 31.7333 10.1406 31.68C9.89529 31.6267 9.60196 31.6 9.26063 31.6ZM15.876 26.816H16.748C16.748 27.4667 16.6307 28.0507 16.396 28.568C16.1613 29.08 15.7933 29.5253 15.292 29.904C14.796 30.2773 14.1507 30.5813 13.356 30.816L13.036 30.144C13.5533 30 13.9933 29.8293 14.356 29.632C14.7187 29.4293 15.0093 29.2027 15.228 28.952C15.452 28.696 15.6147 28.4187 15.716 28.12C15.8227 27.8213 15.876 27.504 15.876 27.168V26.816ZM13.372 26.816H16.356V27.488H13.372V26.816ZM15.844 28.176V28.752L13.132 28.952L13.004 28.288L15.844 28.176ZM18.052 26.352H18.892V30.704H18.052V26.352ZM16.46 30.816C16.9667 30.816 17.404 30.8747 17.772 30.992C18.1453 31.104 18.4307 31.2667 18.628 31.48C18.8307 31.688 18.932 31.9387 18.932 32.232C18.932 32.5307 18.8307 32.7867 18.628 33C18.4307 33.2133 18.1453 33.376 17.772 33.488C17.404 33.6 16.9667 33.656 16.46 33.656C15.9533 33.656 15.5133 33.6 15.14 33.488C14.772 33.376 14.4867 33.2133 14.284 33C14.0867 32.7867 13.988 32.5307 13.988 32.232C13.988 31.9387 14.0867 31.688 14.284 31.48C14.4867 31.2667 14.772 31.104 15.14 30.992C15.5133 30.8747 15.9533 30.816 16.46 30.816ZM16.46 31.48C16.1133 31.48 15.8173 31.5093 15.572 31.568C15.3267 31.6213 15.14 31.7067 15.012 31.824C14.884 31.936 14.82 32.072 14.82 32.232C14.82 32.3973 14.884 32.5387 15.012 32.656C15.14 32.768 15.3267 32.8533 15.572 32.912C15.8173 32.9707 16.1133 33 16.46 33C16.8067 33 17.1 32.9707 17.34 32.912C17.5853 32.8533 17.772 32.768 17.9 32.656C18.0333 32.5387 18.1 32.3973 18.1 32.232C18.1 32.072 18.0333 31.936 17.9 31.824C17.772 31.7067 17.5853 31.6213 17.34 31.568C17.1 31.5093 16.8067 31.48 16.46 31.48Z" fill="#5D3300"/>
</svg>
