<svg width="24" height="35" viewBox="0 0 24 35" fill="none" xmlns="http://www.w3.org/2000/svg">
<path d="M11.0117 6.46874H12.9883V11.5H20.3555C20.6176 11.5 20.8689 11.3959 21.0543 11.2105C21.2396 11.0252 21.3438 10.7738 21.3438 10.5117V7.45702C21.3438 7.19492 21.2396 6.94354 21.0543 6.7582C20.8689 6.57287 20.6176 6.46874 20.3555 6.46874H17.6682C18.0321 5.71927 18.1169 4.86461 17.9073 4.05826C17.6977 3.25192 17.2074 2.54673 16.5246 2.06938C15.8417 1.59202 15.0111 1.37377 14.1818 1.45383C13.3525 1.53389 12.5789 1.90702 12 2.50618C11.4201 1.9103 10.6472 1.54006 9.81941 1.46164C8.99163 1.38322 8.16294 1.60172 7.48145 2.0781C6.79996 2.55448 6.31008 3.25768 6.09938 4.06203C5.88868 4.86637 5.97089 5.71943 6.33131 6.46874H3.64453C3.38242 6.46874 3.13105 6.57287 2.94571 6.7582C2.76037 6.94354 2.65625 7.19492 2.65625 7.45702V10.5117C2.65625 10.7738 2.76037 11.0252 2.94571 11.2105C3.03748 11.3023 3.14643 11.3751 3.26633 11.4248C3.38624 11.4744 3.51475 11.5 3.64453 11.5H11.0117V6.46874ZM12.9883 4.9414C12.9883 4.63932 13.0779 4.34402 13.2457 4.09285C13.4135 3.84168 13.6521 3.64592 13.9311 3.53032C14.2102 3.41472 14.5173 3.38447 14.8136 3.4434C15.1099 3.50234 15.382 3.6478 15.5956 3.8614C15.8092 4.07501 15.9547 4.34715 16.0136 4.64343C16.0726 4.93971 16.0423 5.2468 15.9267 5.52589C15.8111 5.80497 15.6153 6.04351 15.3642 6.21134C15.113 6.37917 14.8177 6.46874 14.5156 6.46874H12.9883V4.9414ZM7.95703 4.9414C7.95703 4.53632 8.11795 4.14784 8.40438 3.8614C8.69081 3.57497 9.0793 3.41406 9.48438 3.41406C9.88945 3.41406 10.2779 3.57497 10.5644 3.8614C10.8508 4.14784 11.0117 4.53632 11.0117 4.9414V6.46874H9.48438C9.0793 6.46874 8.69081 6.30783 8.40438 6.02139C8.11795 5.73496 7.95703 5.34648 7.95703 4.9414ZM12.9883 21.5625H18.918C19.1801 21.5625 19.4314 21.4584 19.6168 21.273C19.8021 21.0877 19.9062 20.8363 19.9062 20.5742V12.9375H12.9883V21.5625ZM4.09375 20.5742C4.09375 20.8363 4.19787 21.0877 4.38321 21.273C4.56855 21.4584 4.81992 21.5625 5.08203 21.5625H11.0117V12.9375H4.09375V20.5742Z" fill="#5D3300"/>
<path d="M6.70463 26.736H7.40063V27.44C7.40063 27.9147 7.32063 28.36 7.16063 28.776C7.00596 29.1867 6.77663 29.5467 6.47263 29.856C6.17396 30.1653 5.81129 30.3973 5.38463 30.552L4.93663 29.888C5.32063 29.7547 5.64329 29.5627 5.90463 29.312C6.17129 29.0613 6.37129 28.776 6.50463 28.456C6.63796 28.1307 6.70463 27.792 6.70463 27.44V26.736ZM6.87263 26.736H7.55263V27.512C7.55263 27.7467 7.58996 27.976 7.66463 28.2C7.73929 28.4187 7.84863 28.6267 7.99263 28.824C8.14196 29.016 8.32329 29.1867 8.53663 29.336C8.74996 29.4853 8.99263 29.6053 9.26463 29.696L8.82463 30.352C8.41396 30.2027 8.06196 29.9867 7.76863 29.704C7.48063 29.4213 7.25929 29.0933 7.10463 28.72C6.94996 28.3413 6.87263 27.9387 6.87263 27.512V26.736ZM9.88063 26.352H10.7126V30.736H9.88063V26.352ZM10.4886 28.152H11.7446V28.848H10.4886V28.152ZM8.36063 30.92C8.86729 30.92 9.29929 30.9733 9.65663 31.08C10.0193 31.1867 10.2993 31.344 10.4966 31.552C10.694 31.7547 10.7926 32 10.7926 32.288C10.7926 32.5707 10.694 32.8133 10.4966 33.016C10.2993 33.224 10.0193 33.3813 9.65663 33.488C9.29929 33.5947 8.86729 33.648 8.36063 33.648C7.85929 33.648 7.42463 33.5947 7.05663 33.488C6.69396 33.3813 6.41396 33.224 6.21663 33.016C6.02463 32.8133 5.92863 32.5707 5.92863 32.288C5.92863 32 6.02463 31.7547 6.21663 31.552C6.41396 31.344 6.69396 31.1867 7.05663 31.08C7.42463 30.9733 7.85929 30.92 8.36063 30.92ZM8.36063 31.576C8.02463 31.576 7.73663 31.6027 7.49663 31.656C7.25663 31.7093 7.07263 31.7893 6.94463 31.896C6.81663 32.0027 6.75262 32.1333 6.75262 32.288C6.75262 32.4373 6.81663 32.5653 6.94463 32.672C7.07263 32.7787 7.25663 32.8613 7.49663 32.92C7.73663 32.9733 8.02463 33 8.36063 33C8.70196 33 8.98996 32.9733 9.22463 32.92C9.46463 32.8613 9.64863 32.7787 9.77663 32.672C9.90463 32.5653 9.96863 32.4373 9.96863 32.288C9.96863 32.1333 9.90463 32.0027 9.77663 31.896C9.64863 31.7893 9.46463 31.7093 9.22463 31.656C8.98996 31.6027 8.70196 31.576 8.36063 31.576ZM16.288 28.112H17.808V28.8H16.288V28.112ZM17.584 26.352H18.424V30.6H17.584V26.352ZM13.624 30.936H18.424V33.568H13.624V30.936ZM17.608 31.592H14.448V32.904H17.608V31.592ZM14.152 27.032H14.84V27.568C14.84 28.016 14.7573 28.4427 14.592 28.848C14.432 29.248 14.2 29.5973 13.896 29.896C13.592 30.1947 13.224 30.4213 12.792 30.576L12.36 29.912C12.648 29.8107 12.9013 29.68 13.12 29.52C13.344 29.36 13.5333 29.176 13.688 28.968C13.8427 28.7547 13.9573 28.5307 14.032 28.296C14.112 28.056 14.152 27.8133 14.152 27.568V27.032ZM14.32 27.032H15V27.568C15 27.8667 15.0667 28.16 15.2 28.448C15.3333 28.736 15.528 28.9947 15.784 29.224C16.04 29.4533 16.352 29.632 16.72 29.76L16.304 30.416C15.8827 30.272 15.5227 30.056 15.224 29.768C14.9307 29.48 14.7067 29.1467 14.552 28.768C14.3973 28.384 14.32 27.984 14.32 27.568V27.032ZM12.608 26.776H16.52V27.448H12.608V26.776Z" fill="#5D3300"/>
</svg>
